<?xml version="1.0" encoding="UTF-8" standalone="no"?>
<!DOCTYPE svg PUBLIC "-//W3C//DTD SVG 1.1//EN"
 "http://www.w3.org/Graphics/SVG/1.1/DTD/svg11.dtd">
<!-- Generated by graphviz version 2.43.0 (0)
 -->
<!-- Title: inc/ALogOutputter.hpp Pages: 1 -->
<svg width="2075pt" height="319pt"
 viewBox="0.00 0.00 2074.66 319.00" xmlns="http://www.w3.org/2000/svg" xmlns:xlink="http://www.w3.org/1999/xlink">
<g id="graph0" class="graph" transform="scale(1 1) rotate(0) translate(4 315)">
<title>inc/ALogOutputter.hpp</title>
<!-- Node1 -->
<g id="node1" class="node">
<title>Node1</title>
<g id="a_node1"><a xlink:title=" ">
<polygon fill="#bfbfbf" stroke="black" points="360.16,-291.5 360.16,-310.5 485.16,-310.5 485.16,-291.5 360.16,-291.5"/>
<text text-anchor="middle" x="422.66" y="-298.5" font-family="Helvetica,sans-Serif" font-size="10.00">inc/ALogOutputter.hpp</text>
</a>
</g>
</g>
<!-- Node2 -->
<g id="node2" class="node">
<title>Node2</title>
<g id="a_node2"><a xlink:href="_logger_8hpp.html" target="_top" xlink:title=" ">
<polygon fill="none" stroke="black" points="450.16,-235.5 450.16,-254.5 537.16,-254.5 537.16,-235.5 450.16,-235.5"/>
<text text-anchor="middle" x="493.66" y="-242.5" font-family="Helvetica,sans-Serif" font-size="10.00">inc/Logger.hpp</text>
</a>
</g>
</g>
<!-- Node1&#45;&gt;Node2 -->
<g id="edge1" class="edge">
<title>Node1&#45;&gt;Node2</title>
<path fill="none" stroke="midnightblue" d="M442.25,-285.1C455.03,-275.38 471.27,-263.03 482.04,-254.83"/>
<polygon fill="midnightblue" stroke="midnightblue" points="439.91,-282.48 434.07,-291.32 444.14,-288.06 439.91,-282.48"/>
</g>
<!-- Node27 -->
<g id="node27" class="node">
<title>Node27</title>
<g id="a_node27"><a xlink:href="_log_outputter_console_8hpp.html" target="_top" xlink:title=" ">
<polygon fill="none" stroke="black" points="273.66,-235.5 273.66,-254.5 431.66,-254.5 431.66,-235.5 273.66,-235.5"/>
<text text-anchor="middle" x="352.66" y="-242.5" font-family="Helvetica,sans-Serif" font-size="10.00">inc/LogOutputterConsole.hpp</text>
</a>
</g>
</g>
<!-- Node1&#45;&gt;Node27 -->
<g id="edge51" class="edge">
<title>Node1&#45;&gt;Node27</title>
<path fill="none" stroke="midnightblue" d="M403.35,-285.1C390.75,-275.38 374.73,-263.03 364.11,-254.83"/>
<polygon fill="midnightblue" stroke="midnightblue" points="401.36,-287.99 411.41,-291.32 405.63,-282.44 401.36,-287.99"/>
</g>
<!-- Node29 -->
<g id="node29" class="node">
<title>Node29</title>
<g id="a_node29"><a xlink:href="_log_outputter_file_8hpp.html" target="_top" xlink:title=" ">
<polygon fill="none" stroke="black" points="66.66,-235.5 66.66,-254.5 202.66,-254.5 202.66,-235.5 66.66,-235.5"/>
<text text-anchor="middle" x="134.66" y="-242.5" font-family="Helvetica,sans-Serif" font-size="10.00">inc/LogOutputterFile.hpp</text>
</a>
</g>
</g>
<!-- Node1&#45;&gt;Node29 -->
<g id="edge55" class="edge">
<title>Node1&#45;&gt;Node29</title>
<path fill="none" stroke="midnightblue" d="M366.86,-289.54C312.43,-279.33 230.65,-264 180.08,-254.52"/>
<polygon fill="midnightblue" stroke="midnightblue" points="366.55,-293.04 377.02,-291.44 367.84,-286.16 366.55,-293.04"/>
</g>
<!-- Node31 -->
<g id="node31" class="node">
<title>Node31</title>
<g id="a_node31"><a xlink:href="_a_log_outputter_8cpp.html" target="_top" xlink:title=" ">
<polygon fill="none" stroke="black" points="555.66,-235.5 555.66,-254.5 679.66,-254.5 679.66,-235.5 555.66,-235.5"/>
<text text-anchor="middle" x="617.66" y="-242.5" font-family="Helvetica,sans-Serif" font-size="10.00">src/ALogOutputter.cpp</text>
</a>
</g>
</g>
<!-- Node1&#45;&gt;Node31 -->
<g id="edge59" class="edge">
<title>Node1&#45;&gt;Node31</title>
<path fill="none" stroke="midnightblue" d="M463.47,-288.7C500.27,-278.51 553.59,-263.74 586.91,-254.52"/>
<polygon fill="midnightblue" stroke="midnightblue" points="462.26,-285.4 453.56,-291.44 464.13,-292.15 462.26,-285.4"/>
</g>
<!-- Node3 -->
<g id="node3" class="node">
<title>Node3</title>
<g id="a_node3"><a xlink:href="_log_8hpp.html" target="_top" xlink:title=" ">
<polygon fill="none" stroke="black" points="457.66,-179.5 457.66,-198.5 529.66,-198.5 529.66,-179.5 457.66,-179.5"/>
<text text-anchor="middle" x="493.66" y="-186.5" font-family="Helvetica,sans-Serif" font-size="10.00">inc/Log.hpp</text>
</a>
</g>
</g>
<!-- Node2&#45;&gt;Node3 -->
<g id="edge2" class="edge">
<title>Node2&#45;&gt;Node3</title>
<path fill="none" stroke="midnightblue" d="M493.66,-224.8C493.66,-215.91 493.66,-205.78 493.66,-198.75"/>
<polygon fill="midnightblue" stroke="midnightblue" points="490.16,-225.08 493.66,-235.08 497.16,-225.08 490.16,-225.08"/>
</g>
<!-- Node26 -->
<g id="node26" class="node">
<title>Node26</title>
<g id="a_node26"><a xlink:href="_logger_8cpp.html" target="_top" xlink:title=" ">
<polygon fill="none" stroke="black" points="547.66,-179.5 547.66,-198.5 633.66,-198.5 633.66,-179.5 547.66,-179.5"/>
<text text-anchor="middle" x="590.66" y="-186.5" font-family="Helvetica,sans-Serif" font-size="10.00">src/Logger.cpp</text>
</a>
</g>
</g>
<!-- Node2&#45;&gt;Node26 -->
<g id="edge50" class="edge">
<title>Node2&#45;&gt;Node26</title>
<path fill="none" stroke="midnightblue" d="M517.99,-230.45C535.9,-220.48 559.71,-207.23 575.11,-198.65"/>
<polygon fill="midnightblue" stroke="midnightblue" points="516.28,-227.4 509.24,-235.32 519.68,-233.52 516.28,-227.4"/>
</g>
<!-- Node4 -->
<g id="node4" class="node">
<title>Node4</title>
<g id="a_node4"><a xlink:href="_epoll_wrapper_8hpp.html" target="_top" xlink:title=" ">
<polygon fill="none" stroke="black" points="619.16,-123.5 619.16,-142.5 738.16,-142.5 738.16,-123.5 619.16,-123.5"/>
<text text-anchor="middle" x="678.66" y="-130.5" font-family="Helvetica,sans-Serif" font-size="10.00">inc/EpollWrapper.hpp</text>
</a>
</g>
</g>
<!-- Node3&#45;&gt;Node4 -->
<g id="edge3" class="edge">
<title>Node3&#45;&gt;Node4</title>
<path fill="none" stroke="midnightblue" d="M532.83,-176.57C567.72,-166.38 618.01,-151.7 649.48,-142.52"/>
<polygon fill="midnightblue" stroke="midnightblue" points="531.59,-173.28 522.97,-179.44 533.55,-180 531.59,-173.28"/>
</g>
<!-- Node15 -->
<g id="node15" class="node">
<title>Node15</title>
<g id="a_node15"><a xlink:href="_server_8hpp.html" target="_top" xlink:title=" ">
<polygon fill="none" stroke="black" points="895.66,-67.5 895.66,-86.5 981.66,-86.5 981.66,-67.5 895.66,-67.5"/>
<text text-anchor="middle" x="938.66" y="-74.5" font-family="Helvetica,sans-Serif" font-size="10.00">inc/Server.hpp</text>
</a>
</g>
</g>
<!-- Node3&#45;&gt;Node15 -->
<g id="edge32" class="edge">
<title>Node3&#45;&gt;Node15</title>
<path fill="none" stroke="midnightblue" d="M540.07,-179.1C634.17,-168.41 836.14,-185.56 901.66,-143 922.13,-129.7 932.49,-100.88 936.55,-86.51"/>
<polygon fill="midnightblue" stroke="midnightblue" points="539.42,-175.65 529.95,-180.42 540.32,-182.59 539.42,-175.65"/>
</g>
<!-- Node16 -->
<g id="node16" class="node">
<title>Node16</title>
<g id="a_node16"><a xlink:href="main_8cpp.html" target="_top" xlink:title=" ">
<polygon fill="none" stroke="black" points="267.16,-6 267.16,-25 346.16,-25 346.16,-6 267.16,-6"/>
<text text-anchor="middle" x="306.66" y="-13" font-family="Helvetica,sans-Serif" font-size="10.00">src/main.cpp</text>
</a>
</g>
</g>
<!-- Node3&#45;&gt;Node16 -->
<g id="edge48" class="edge">
<title>Node3&#45;&gt;Node16</title>
<path fill="none" stroke="midnightblue" d="M447.33,-181.36C420.15,-175.36 386.72,-164.07 363.66,-143 344.9,-125.86 318.34,-51.04 309.58,-25.26"/>
<polygon fill="midnightblue" stroke="midnightblue" points="446.92,-184.84 457.41,-183.41 448.31,-177.98 446.92,-184.84"/>
</g>
<!-- Node19 -->
<g id="node19" class="node">
<title>Node19</title>
<g id="a_node19"><a xlink:href="_response_builder_8hpp.html" target="_top" xlink:title=" ">
<polygon fill="none" stroke="black" points="756.66,-123.5 756.66,-142.5 892.66,-142.5 892.66,-123.5 756.66,-123.5"/>
<text text-anchor="middle" x="824.66" y="-130.5" font-family="Helvetica,sans-Serif" font-size="10.00">inc/ResponseBuilder.hpp</text>
</a>
</g>
</g>
<!-- Node3&#45;&gt;Node19 -->
<g id="edge28" class="edge">
<title>Node3&#45;&gt;Node19</title>
<path fill="none" stroke="midnightblue" d="M539.95,-178.83C623.97,-163.94 710.24,-150.75 765.93,-142.52"/>
<polygon fill="midnightblue" stroke="midnightblue" points="539.22,-175.4 529.98,-180.6 540.44,-182.29 539.22,-175.4"/>
</g>
<!-- Node21 -->
<g id="node21" class="node">
<title>Node21</title>
<g id="a_node21"><a xlink:href="_socket_policy_8hpp.html" target="_top" xlink:title=" ">
<polygon fill="none" stroke="black" points="949.16,-123.5 949.16,-142.5 1064.16,-142.5 1064.16,-123.5 949.16,-123.5"/>
<text text-anchor="middle" x="1006.66" y="-130.5" font-family="Helvetica,sans-Serif" font-size="10.00">inc/SocketPolicy.hpp</text>
</a>
</g>
</g>
<!-- Node3&#45;&gt;Node21 -->
<g id="edge33" class="edge">
<title>Node3&#45;&gt;Node21</title>
<path fill="none" stroke="midnightblue" d="M540.03,-178.94C715.28,-153.93 762.21,-161.61 934.66,-143 939.29,-142.5 944.09,-141.96 948.91,-141.39"/>
<polygon fill="midnightblue" stroke="midnightblue" points="539.35,-175.5 529.95,-180.4 540.35,-182.43 539.35,-175.5"/>
</g>
<!-- Node24 -->
<g id="node24" class="node">
<title>Node24</title>
<g id="a_node24"><a xlink:href="_log_init_8cpp.html" target="_top" xlink:title=" ">
<polygon fill="none" stroke="black" points="373.16,-123.5 373.16,-142.5 460.16,-142.5 460.16,-123.5 373.16,-123.5"/>
<text text-anchor="middle" x="416.66" y="-130.5" font-family="Helvetica,sans-Serif" font-size="10.00">src/LogInit.cpp</text>
</a>
</g>
</g>
<!-- Node3&#45;&gt;Node24 -->
<g id="edge47" class="edge">
<title>Node3&#45;&gt;Node24</title>
<path fill="none" stroke="midnightblue" d="M472.76,-173.34C458.75,-163.52 440.78,-150.91 429,-142.65"/>
<polygon fill="midnightblue" stroke="midnightblue" points="471.09,-176.45 481.29,-179.32 475.11,-170.72 471.09,-176.45"/>
</g>
<!-- Node25 -->
<g id="node25" class="node">
<title>Node25</title>
<g id="a_node25"><a xlink:href="_request_parser_8cpp.html" target="_top" xlink:title=" ">
<polygon fill="none" stroke="black" points="478.16,-123.5 478.16,-142.5 601.16,-142.5 601.16,-123.5 478.16,-123.5"/>
<text text-anchor="middle" x="539.66" y="-130.5" font-family="Helvetica,sans-Serif" font-size="10.00">src/RequestParser.cpp</text>
</a>
</g>
</g>
<!-- Node3&#45;&gt;Node25 -->
<g id="edge49" class="edge">
<title>Node3&#45;&gt;Node25</title>
<path fill="none" stroke="midnightblue" d="M507.77,-171.43C515.84,-161.97 525.62,-150.48 532.2,-142.75"/>
<polygon fill="midnightblue" stroke="midnightblue" points="505.08,-169.2 501.26,-179.08 510.4,-173.74 505.08,-169.2"/>
</g>
<!-- Node5 -->
<g id="node5" class="node">
<title>Node5</title>
<g id="a_node5"><a xlink:href="_mock_epoll_wrapper_8hpp.html" target="_top" xlink:title=" ">
<polygon fill="none" stroke="black" points="999.66,-67.5 999.66,-86.5 1145.66,-86.5 1145.66,-67.5 999.66,-67.5"/>
<text text-anchor="middle" x="1072.66" y="-74.5" font-family="Helvetica,sans-Serif" font-size="10.00">inc/MockEpollWrapper.hpp</text>
</a>
</g>
</g>
<!-- Node4&#45;&gt;Node5 -->
<g id="edge4" class="edge">
<title>Node4&#45;&gt;Node5</title>
<path fill="none" stroke="midnightblue" d="M748.7,-122.4C823.07,-112.21 939.47,-96.25 1010.63,-86.5"/>
<polygon fill="midnightblue" stroke="midnightblue" points="747.93,-118.97 738.5,-123.8 748.88,-125.91 747.93,-118.97"/>
</g>
<!-- Node4&#45;&gt;Node15 -->
<g id="edge14" class="edge">
<title>Node4&#45;&gt;Node15</title>
<path fill="none" stroke="midnightblue" d="M729.65,-121.41C778.79,-111.2 852.19,-95.96 897.65,-86.52"/>
<polygon fill="midnightblue" stroke="midnightblue" points="728.94,-117.98 719.86,-123.44 730.36,-124.84 728.94,-117.98"/>
</g>
<!-- Node4&#45;&gt;Node16 -->
<g id="edge27" class="edge">
<title>Node4&#45;&gt;Node16</title>
<path fill="none" stroke="midnightblue" d="M667.67,-114.48C657.09,-99.24 639.64,-77.93 618.66,-67 513.65,-12.27 470.37,-56.2 354.66,-31 347.26,-29.39 339.35,-27.2 332.12,-25.01"/>
<polygon fill="midnightblue" stroke="midnightblue" points="664.9,-116.63 673.34,-123.04 670.73,-112.77 664.9,-116.63"/>
</g>
<!-- Node18 -->
<g id="node18" class="node">
<title>Node18</title>
<g id="a_node18"><a xlink:href="_epoll_wrapper_8cpp.html" target="_top" xlink:title=" ">
<polygon fill="none" stroke="black" points="490.16,-67.5 490.16,-86.5 609.16,-86.5 609.16,-67.5 490.16,-67.5"/>
<text text-anchor="middle" x="549.66" y="-74.5" font-family="Helvetica,sans-Serif" font-size="10.00">src/EpollWrapper.cpp</text>
</a>
</g>
</g>
<!-- Node4&#45;&gt;Node18 -->
<g id="edge26" class="edge">
<title>Node4&#45;&gt;Node18</title>
<path fill="none" stroke="midnightblue" d="M648.81,-119.5C624.62,-109.38 591.2,-95.39 570,-86.52"/>
<polygon fill="midnightblue" stroke="midnightblue" points="647.64,-122.81 658.22,-123.44 650.35,-116.35 647.64,-122.81"/>
</g>
<!-- Node6 -->
<g id="node6" class="node">
<title>Node6</title>
<g id="a_node6"><a xlink:href="test__accept_connections_8cpp.html" target="_top" xlink:title=" ">
<polygon fill="none" stroke="black" points="467.16,-6 467.16,-25 642.16,-25 642.16,-6 467.16,-6"/>
<text text-anchor="middle" x="554.66" y="-13" font-family="Helvetica,sans-Serif" font-size="10.00">test/test_acceptConnections.cpp</text>
</a>
</g>
</g>
<!-- Node5&#45;&gt;Node6 -->
<g id="edge5" class="edge">
<title>Node5&#45;&gt;Node6</title>
<path fill="none" stroke="midnightblue" d="M989.24,-66.85C838.33,-50.7 798.72,-49.79 651.66,-31 637.81,-29.23 622.88,-27.11 608.98,-25.04"/>
<polygon fill="midnightblue" stroke="midnightblue" points="989.03,-70.35 999.34,-67.94 989.77,-63.39 989.03,-70.35"/>
</g>
<!-- Node7 -->
<g id="node7" class="node">
<title>Node7</title>
<g id="a_node7"><a xlink:href="test__check_for_timeout_8cpp.html" target="_top" xlink:title=" ">
<polygon fill="none" stroke="black" points="660.16,-6 660.16,-25 827.16,-25 827.16,-6 660.16,-6"/>
<text text-anchor="middle" x="743.66" y="-13" font-family="Helvetica,sans-Serif" font-size="10.00">test/test_checkForTimeout.cpp</text>
</a>
</g>
</g>
<!-- Node5&#45;&gt;Node7 -->
<g id="edge6" class="edge">
<title>Node5&#45;&gt;Node7</title>
<path fill="none" stroke="midnightblue" d="M1015.64,-65.69C951.95,-54.17 850.03,-35.74 790.71,-25.01"/>
<polygon fill="midnightblue" stroke="midnightblue" points="1015.06,-69.14 1025.52,-67.48 1016.3,-62.25 1015.06,-69.14"/>
</g>
<!-- Node8 -->
<g id="node8" class="node">
<title>Node8</title>
<g id="a_node8"><a xlink:href="test__connection_receive_header_8cpp.html" target="_top" xlink:title=" ">
<polygon fill="none" stroke="black" points="845.16,-0.5 845.16,-30.5 1000.16,-30.5 1000.16,-0.5 845.16,-0.5"/>
<text text-anchor="start" x="853.16" y="-18.5" font-family="Helvetica,sans-Serif" font-size="10.00">test/test_connectionReceive</text>
<text text-anchor="middle" x="922.66" y="-7.5" font-family="Helvetica,sans-Serif" font-size="10.00">Header.cpp</text>
</a>
</g>
</g>
<!-- Node5&#45;&gt;Node8 -->
<g id="edge7" class="edge">
<title>Node5&#45;&gt;Node8</title>
<path fill="none" stroke="midnightblue" d="M1041.7,-63.72C1017.35,-54.06 983.42,-40.6 958.01,-30.52"/>
<polygon fill="midnightblue" stroke="midnightblue" points="1040.58,-67.04 1051.17,-67.48 1043.16,-60.53 1040.58,-67.04"/>
</g>
<!-- Node9 -->
<g id="node9" class="node">
<title>Node9</title>
<g id="a_node9"><a xlink:href="test__connection_send_response_8cpp.html" target="_top" xlink:title=" ">
<polygon fill="none" stroke="black" points="1018.66,-0.5 1018.66,-30.5 1158.66,-30.5 1158.66,-0.5 1018.66,-0.5"/>
<text text-anchor="start" x="1026.66" y="-18.5" font-family="Helvetica,sans-Serif" font-size="10.00">test/test_connectionSend</text>
<text text-anchor="middle" x="1088.66" y="-7.5" font-family="Helvetica,sans-Serif" font-size="10.00">Response.cpp</text>
</a>
</g>
</g>
<!-- Node5&#45;&gt;Node9 -->
<g id="edge8" class="edge">
<title>Node5&#45;&gt;Node9</title>
<path fill="none" stroke="midnightblue" d="M1077.55,-57.82C1079.91,-49.04 1082.7,-38.68 1084.89,-30.52"/>
<polygon fill="midnightblue" stroke="midnightblue" points="1074.17,-56.91 1074.95,-67.48 1080.93,-58.73 1074.17,-56.91"/>
</g>
<!-- Node10 -->
<g id="node10" class="node">
<title>Node10</title>
<g id="a_node10"><a xlink:href="test__create_virtual_server_8cpp.html" target="_top" xlink:title=" ">
<polygon fill="none" stroke="black" points="1176.66,-6 1176.66,-25 1352.66,-25 1352.66,-6 1176.66,-6"/>
<text text-anchor="middle" x="1264.66" y="-13" font-family="Helvetica,sans-Serif" font-size="10.00">test/test_createVirtualServer.cpp</text>
</a>
</g>
</g>
<!-- Node5&#45;&gt;Node10 -->
<g id="edge9" class="edge">
<title>Node5&#45;&gt;Node10</title>
<path fill="none" stroke="midnightblue" d="M1110.15,-64.38C1147.47,-52.82 1203.86,-35.34 1237.2,-25.01"/>
<polygon fill="midnightblue" stroke="midnightblue" points="1108.68,-61.17 1100.17,-67.48 1110.76,-67.86 1108.68,-61.17"/>
</g>
<!-- Node11 -->
<g id="node11" class="node">
<title>Node11</title>
<g id="a_node11"><a xlink:href="test__init_virtual_servers_8cpp.html" target="_top" xlink:title=" ">
<polygon fill="none" stroke="black" points="1370.16,-6 1370.16,-25 1537.16,-25 1537.16,-6 1370.16,-6"/>
<text text-anchor="middle" x="1453.66" y="-13" font-family="Helvetica,sans-Serif" font-size="10.00">test/test_initVirtualServers.cpp</text>
</a>
</g>
</g>
<!-- Node5&#45;&gt;Node11 -->
<g id="edge10" class="edge">
<title>Node5&#45;&gt;Node11</title>
<path fill="none" stroke="midnightblue" d="M1137.75,-65.9C1196.33,-56.8 1284.76,-43.05 1361.66,-31 1373.96,-29.07 1387.18,-26.99 1399.66,-25.03"/>
<polygon fill="midnightblue" stroke="midnightblue" points="1136.87,-62.49 1127.53,-67.49 1137.95,-69.41 1136.87,-62.49"/>
</g>
<!-- Node12 -->
<g id="node12" class="node">
<title>Node12</title>
<g id="a_node12"><a xlink:href="test__is_duplicate_server_8cpp.html" target="_top" xlink:title=" ">
<polygon fill="none" stroke="black" points="1554.66,-6 1554.66,-25 1722.66,-25 1722.66,-6 1554.66,-6"/>
<text text-anchor="middle" x="1638.66" y="-13" font-family="Helvetica,sans-Serif" font-size="10.00">test/test_isDuplicateServer.cpp</text>
</a>
</g>
</g>
<!-- Node5&#45;&gt;Node12 -->
<g id="edge11" class="edge">
<title>Node5&#45;&gt;Node12</title>
<path fill="none" stroke="midnightblue" d="M1156,-66.88C1330.42,-49.56 1376.27,-52.23 1546.66,-31 1560.14,-29.32 1574.68,-27.18 1588.13,-25.07"/>
<polygon fill="midnightblue" stroke="midnightblue" points="1155.57,-63.41 1145.97,-67.89 1156.27,-70.38 1155.57,-63.41"/>
</g>
<!-- Node13 -->
<g id="node13" class="node">
<title>Node13</title>
<g id="a_node13"><a xlink:href="test__register_connection_8cpp.html" target="_top" xlink:title=" ">
<polygon fill="none" stroke="black" points="1741.16,-6 1741.16,-25 1916.16,-25 1916.16,-6 1741.16,-6"/>
<text text-anchor="middle" x="1828.66" y="-13" font-family="Helvetica,sans-Serif" font-size="10.00">test/test_registerConnection.cpp</text>
</a>
</g>
</g>
<!-- Node5&#45;&gt;Node13 -->
<g id="edge12" class="edge">
<title>Node5&#45;&gt;Node13</title>
<path fill="none" stroke="midnightblue" d="M1155.95,-66.93C1412.35,-45.3 1479.38,-57.68 1731.66,-31 1746.56,-29.42 1762.68,-27.22 1777.42,-25"/>
<polygon fill="midnightblue" stroke="midnightblue" points="1155.63,-63.45 1145.96,-67.78 1156.22,-70.42 1155.63,-63.45"/>
</g>
<!-- Node14 -->
<g id="node14" class="node">
<title>Node14</title>
<g id="a_node14"><a xlink:href="test__register_virtual_server_8cpp.html" target="_top" xlink:title=" ">
<polygon fill="none" stroke="black" points="1934.66,-0.5 1934.66,-30.5 2066.66,-30.5 2066.66,-0.5 1934.66,-0.5"/>
<text text-anchor="start" x="1942.66" y="-18.5" font-family="Helvetica,sans-Serif" font-size="10.00">test/test_registerVirtual</text>
<text text-anchor="middle" x="2000.66" y="-7.5" font-family="Helvetica,sans-Serif" font-size="10.00">Server.cpp</text>
</a>
</g>
</g>
<!-- Node5&#45;&gt;Node14 -->
<g id="edge13" class="edge">
<title>Node5&#45;&gt;Node14</title>
<path fill="none" stroke="midnightblue" d="M1156.16,-66.94C1498.41,-40.88 1588.36,-71.27 1925.66,-31 1928.56,-30.65 1931.51,-30.26 1934.49,-29.83"/>
<polygon fill="midnightblue" stroke="midnightblue" points="1155.66,-63.47 1145.96,-67.73 1156.2,-70.44 1155.66,-63.47"/>
</g>
<!-- Node15&#45;&gt;Node6 -->
<g id="edge17" class="edge">
<title>Node15&#45;&gt;Node6</title>
<path fill="none" stroke="midnightblue" d="M885.46,-67.59C884.18,-67.39 882.91,-67.2 881.66,-67 786.31,-52.11 675.28,-35.01 610.21,-25.02"/>
<polygon fill="midnightblue" stroke="midnightblue" points="884.98,-71.06 895.4,-69.15 886.07,-64.15 884.98,-71.06"/>
</g>
<!-- Node15&#45;&gt;Node7 -->
<g id="edge18" class="edge">
<title>Node15&#45;&gt;Node7</title>
<path fill="none" stroke="midnightblue" d="M901.06,-64.53C863.17,-52.96 805.55,-35.38 771.55,-25.01"/>
<polygon fill="midnightblue" stroke="midnightblue" points="900.13,-67.9 910.72,-67.48 902.18,-61.21 900.13,-67.9"/>
</g>
<!-- Node15&#45;&gt;Node8 -->
<g id="edge19" class="edge">
<title>Node15&#45;&gt;Node8</title>
<path fill="none" stroke="midnightblue" d="M933.77,-57.82C931.41,-49.04 928.62,-38.68 926.43,-30.52"/>
<polygon fill="midnightblue" stroke="midnightblue" points="930.39,-58.73 936.37,-67.48 937.15,-56.91 930.39,-58.73"/>
</g>
<!-- Node15&#45;&gt;Node9 -->
<g id="edge20" class="edge">
<title>Node15&#45;&gt;Node9</title>
<path fill="none" stroke="midnightblue" d="M969.62,-63.72C993.97,-54.06 1027.9,-40.6 1053.31,-30.52"/>
<polygon fill="midnightblue" stroke="midnightblue" points="968.16,-60.53 960.15,-67.48 970.74,-67.04 968.16,-60.53"/>
</g>
<!-- Node15&#45;&gt;Node10 -->
<g id="edge21" class="edge">
<title>Node15&#45;&gt;Node10</title>
<path fill="none" stroke="midnightblue" d="M992.06,-66.25C1054.91,-54.78 1158.27,-35.92 1218.02,-25.01"/>
<polygon fill="midnightblue" stroke="midnightblue" points="991.16,-62.86 981.95,-68.1 992.42,-69.75 991.16,-62.86"/>
</g>
<!-- Node15&#45;&gt;Node11 -->
<g id="edge22" class="edge">
<title>Node15&#45;&gt;Node11</title>
<path fill="none" stroke="midnightblue" d="M991.75,-66.95C1156.54,-45.12 1200.53,-51.5 1361.66,-31 1375.13,-29.29 1389.67,-27.14 1403.12,-25.02"/>
<polygon fill="midnightblue" stroke="midnightblue" points="991.2,-63.49 981.75,-68.29 992.13,-70.43 991.2,-63.49"/>
</g>
<!-- Node15&#45;&gt;Node12 -->
<g id="edge23" class="edge">
<title>Node15&#45;&gt;Node12</title>
<path fill="none" stroke="midnightblue" d="M991.72,-67.01C1238.28,-38.37 1303.79,-57.94 1546.66,-31 1560.8,-29.43 1576.09,-27.23 1590.07,-25.01"/>
<polygon fill="midnightblue" stroke="midnightblue" points="991.26,-63.54 981.74,-68.18 992.08,-70.49 991.26,-63.54"/>
</g>
<!-- Node15&#45;&gt;Node13 -->
<g id="edge24" class="edge">
<title>Node15&#45;&gt;Node13</title>
<path fill="none" stroke="midnightblue" d="M992.01,-67C1320.16,-31.48 1406.9,-63.08 1731.66,-31 1746.82,-29.5 1763.24,-27.28 1778.18,-25.02"/>
<polygon fill="midnightblue" stroke="midnightblue" points="991.29,-63.56 981.73,-68.13 992.05,-70.52 991.29,-63.56"/>
</g>
<!-- Node15&#45;&gt;Node14 -->
<g id="edge25" class="edge">
<title>Node15&#45;&gt;Node14</title>
<path fill="none" stroke="midnightblue" d="M991.88,-67.03C1406,-24.33 1515.86,-78.22 1925.66,-31 1928.56,-30.67 1931.51,-30.28 1934.49,-29.86"/>
<polygon fill="midnightblue" stroke="midnightblue" points="991.31,-63.57 981.73,-68.09 992.04,-70.53 991.31,-63.57"/>
</g>
<!-- Node15&#45;&gt;Node16 -->
<g id="edge15" class="edge">
<title>Node15&#45;&gt;Node16</title>
<path fill="none" stroke="midnightblue" d="M885.48,-67.45C884.19,-67.29 882.92,-67.14 881.66,-67 648.37,-40.67 585.6,-73.21 354.66,-31 346.95,-29.59 338.73,-27.38 331.31,-25.11"/>
<polygon fill="midnightblue" stroke="midnightblue" points="885.08,-70.93 895.45,-68.77 886,-63.99 885.08,-70.93"/>
</g>
<!-- Node17 -->
<g id="node17" class="node">
<title>Node17</title>
<g id="a_node17"><a xlink:href="_server_8cpp.html" target="_top" xlink:title=" ">
<polygon fill="none" stroke="black" points="364.16,-6 364.16,-25 449.16,-25 449.16,-6 364.16,-6"/>
<text text-anchor="middle" x="406.66" y="-13" font-family="Helvetica,sans-Serif" font-size="10.00">src/Server.cpp</text>
</a>
</g>
</g>
<!-- Node15&#45;&gt;Node17 -->
<g id="edge16" class="edge">
<title>Node15&#45;&gt;Node17</title>
<path fill="none" stroke="midnightblue" d="M885.48,-67.48C884.19,-67.31 882.92,-67.15 881.66,-67 694.35,-44.27 644.34,-64.49 458.66,-31 450.45,-29.52 441.66,-27.32 433.69,-25.07"/>
<polygon fill="midnightblue" stroke="midnightblue" points="885.06,-70.95 895.44,-68.84 886.01,-64.02 885.06,-70.95"/>
</g>
<!-- Node19&#45;&gt;Node15 -->
<g id="edge29" class="edge">
<title>Node19&#45;&gt;Node15</title>
<path fill="none" stroke="midnightblue" d="M851.9,-119.1C873.2,-109.01 902.2,-95.27 920.68,-86.52"/>
<polygon fill="midnightblue" stroke="midnightblue" points="850.26,-116 842.72,-123.44 853.26,-122.33 850.26,-116"/>
</g>
<!-- Node19&#45;&gt;Node16 -->
<g id="edge30" class="edge">
<title>Node19&#45;&gt;Node16</title>
<path fill="none" stroke="midnightblue" d="M789.56,-120.16C763.55,-111.29 727.27,-98.71 695.66,-87 672.83,-78.54 668.26,-72.99 644.66,-67 518.77,-35.04 481.73,-57.88 354.66,-31 347.25,-29.43 339.33,-27.26 332.11,-25.07"/>
<polygon fill="midnightblue" stroke="midnightblue" points="788.75,-123.58 799.34,-123.49 791,-116.95 788.75,-123.58"/>
</g>
<!-- Node20 -->
<g id="node20" class="node">
<title>Node20</title>
<g id="a_node20"><a xlink:href="_response_builder_8cpp.html" target="_top" xlink:title=" ">
<polygon fill="none" stroke="black" points="704.16,-67.5 704.16,-86.5 839.16,-86.5 839.16,-67.5 704.16,-67.5"/>
<text text-anchor="middle" x="771.66" y="-74.5" font-family="Helvetica,sans-Serif" font-size="10.00">src/ResponseBuilder.cpp</text>
</a>
</g>
</g>
<!-- Node19&#45;&gt;Node20 -->
<g id="edge31" class="edge">
<title>Node19&#45;&gt;Node20</title>
<path fill="none" stroke="midnightblue" d="M808.68,-115.72C799.34,-106.2 787.91,-94.56 780.25,-86.75"/>
<polygon fill="midnightblue" stroke="midnightblue" points="806.4,-118.4 815.91,-123.08 811.4,-113.49 806.4,-118.4"/>
</g>
<!-- Node21&#45;&gt;Node15 -->
<g id="edge44" class="edge">
<title>Node21&#45;&gt;Node15</title>
<path fill="none" stroke="midnightblue" d="M987.9,-117.1C975.66,-107.38 960.1,-95.03 949.78,-86.83"/>
<polygon fill="midnightblue" stroke="midnightblue" points="985.73,-119.85 995.73,-123.32 990.08,-114.36 985.73,-119.85"/>
</g>
<!-- Node21&#45;&gt;Node16 -->
<g id="edge45" class="edge">
<title>Node21&#45;&gt;Node16</title>
<path fill="none" stroke="midnightblue" d="M971.53,-120.14C947.35,-111.66 914.67,-99.56 886.66,-87 869.25,-79.19 867.01,-72.25 848.66,-67 637.01,-6.46 571.12,-71.07 354.66,-31 346.96,-29.57 338.74,-27.36 331.32,-25.08"/>
<polygon fill="midnightblue" stroke="midnightblue" points="970.41,-123.45 981,-123.43 972.7,-116.84 970.41,-123.45"/>
</g>
<!-- Node22 -->
<g id="node22" class="node">
<title>Node22</title>
<g id="a_node22"><a xlink:href="_mock_socket_policy_8hpp.html" target="_top" xlink:title=" ">
<polygon fill="none" stroke="black" points="1296.16,-67.5 1296.16,-86.5 1437.16,-86.5 1437.16,-67.5 1296.16,-67.5"/>
<text text-anchor="middle" x="1366.66" y="-74.5" font-family="Helvetica,sans-Serif" font-size="10.00">inc/MockSocketPolicy.hpp</text>
</a>
</g>
</g>
<!-- Node21&#45;&gt;Node22 -->
<g id="edge34" class="edge">
<title>Node21&#45;&gt;Node22</title>
<path fill="none" stroke="midnightblue" d="M1073.88,-121.92C1141.89,-111.71 1245.88,-96.12 1309.88,-86.52"/>
<polygon fill="midnightblue" stroke="midnightblue" points="1073.07,-118.5 1063.7,-123.44 1074.11,-125.42 1073.07,-118.5"/>
</g>
<!-- Node23 -->
<g id="node23" class="node">
<title>Node23</title>
<g id="a_node23"><a xlink:href="_socket_policy_8cpp.html" target="_top" xlink:title=" ">
<polygon fill="none" stroke="black" points="1163.66,-67.5 1163.66,-86.5 1277.66,-86.5 1277.66,-67.5 1163.66,-67.5"/>
<text text-anchor="middle" x="1220.66" y="-74.5" font-family="Helvetica,sans-Serif" font-size="10.00">src/SocketPolicy.cpp</text>
</a>
</g>
</g>
<!-- Node21&#45;&gt;Node23 -->
<g id="edge46" class="edge">
<title>Node21&#45;&gt;Node23</title>
<path fill="none" stroke="midnightblue" d="M1050.41,-120.96C1090.83,-110.76 1150.03,-95.82 1186.91,-86.52"/>
<polygon fill="midnightblue" stroke="midnightblue" points="1049.41,-117.6 1040.57,-123.44 1051.12,-124.39 1049.41,-117.6"/>
</g>
<!-- Node22&#45;&gt;Node6 -->
<g id="edge35" class="edge">
<title>Node22&#45;&gt;Node6</title>
<path fill="none" stroke="midnightblue" d="M1285.87,-66.99C1003.27,-43.58 929.56,-59.59 651.66,-31 636.67,-29.46 620.45,-27.25 605.64,-25.02"/>
<polygon fill="midnightblue" stroke="midnightblue" points="1285.75,-70.49 1296.01,-67.84 1286.34,-63.51 1285.75,-70.49"/>
</g>
<!-- Node22&#45;&gt;Node7 -->
<g id="edge36" class="edge">
<title>Node22&#45;&gt;Node7</title>
<path fill="none" stroke="midnightblue" d="M1286.02,-66.97C1085.26,-47.99 1032.71,-54.09 836.66,-31 822.7,-29.36 807.63,-27.18 793.76,-25.02"/>
<polygon fill="midnightblue" stroke="midnightblue" points="1285.71,-70.46 1296,-67.93 1286.38,-63.49 1285.71,-70.46"/>
</g>
<!-- Node22&#45;&gt;Node8 -->
<g id="edge37" class="edge">
<title>Node22&#45;&gt;Node8</title>
<path fill="none" stroke="midnightblue" d="M1286.13,-66.78C1213.69,-58.26 1104.41,-44.86 1009.66,-31 1006.63,-30.56 1003.54,-30.09 1000.42,-29.62"/>
<polygon fill="midnightblue" stroke="midnightblue" points="1285.76,-70.26 1296.1,-67.94 1286.58,-63.3 1285.76,-70.26"/>
</g>
<!-- Node22&#45;&gt;Node9 -->
<g id="edge38" class="edge">
<title>Node22&#45;&gt;Node9</title>
<path fill="none" stroke="midnightblue" d="M1316.92,-65.35C1271.48,-55.63 1203.99,-41.18 1154.18,-30.52"/>
<polygon fill="midnightblue" stroke="midnightblue" points="1316.32,-68.8 1326.83,-67.48 1317.78,-61.96 1316.32,-68.8"/>
</g>
<!-- Node22&#45;&gt;Node10 -->
<g id="edge39" class="edge">
<title>Node22&#45;&gt;Node10</title>
<path fill="none" stroke="midnightblue" d="M1343.35,-62.4C1323.62,-50.9 1295.97,-34.77 1279.25,-25.01"/>
<polygon fill="midnightblue" stroke="midnightblue" points="1341.64,-65.46 1352.05,-67.48 1345.17,-59.41 1341.64,-65.46"/>
</g>
<!-- Node22&#45;&gt;Node11 -->
<g id="edge40" class="edge">
<title>Node22&#45;&gt;Node11</title>
<path fill="none" stroke="midnightblue" d="M1387.7,-61.61C1404.43,-50.17 1427.27,-34.55 1441.22,-25.01"/>
<polygon fill="midnightblue" stroke="midnightblue" points="1385.4,-58.94 1379.12,-67.48 1389.35,-64.72 1385.4,-58.94"/>
</g>
<!-- Node22&#45;&gt;Node12 -->
<g id="edge41" class="edge">
<title>Node22&#45;&gt;Node12</title>
<path fill="none" stroke="midnightblue" d="M1415.43,-65.33C1468.18,-53.79 1551.22,-35.63 1599.76,-25.01"/>
<polygon fill="midnightblue" stroke="midnightblue" points="1414.65,-61.92 1405.63,-67.48 1416.15,-68.76 1414.65,-61.92"/>
</g>
<!-- Node22&#45;&gt;Node13 -->
<g id="edge42" class="edge">
<title>Node22&#45;&gt;Node13</title>
<path fill="none" stroke="midnightblue" d="M1447.57,-66.63C1521.58,-57.91 1634.08,-44.31 1731.66,-31 1745.16,-29.16 1759.69,-27.05 1773.3,-25.03"/>
<polygon fill="midnightblue" stroke="midnightblue" points="1446.91,-63.18 1437.38,-67.83 1447.72,-70.14 1446.91,-63.18"/>
</g>
<!-- Node22&#45;&gt;Node14 -->
<g id="edge43" class="edge">
<title>Node22&#45;&gt;Node14</title>
<path fill="none" stroke="midnightblue" d="M1447.79,-72.29C1556.82,-66.66 1756.51,-54.09 1925.66,-31 1928.55,-30.61 1931.5,-30.17 1934.47,-29.71"/>
<polygon fill="midnightblue" stroke="midnightblue" points="1447.33,-68.81 1437.52,-72.81 1447.69,-75.8 1447.33,-68.81"/>
</g>
<!-- Node27&#45;&gt;Node3 -->
<g id="edge52" class="edge">
<title>Node27&#45;&gt;Node3</title>
<path fill="none" stroke="midnightblue" d="M384.59,-231.77C411.07,-221.63 448.05,-207.47 471.42,-198.52"/>
<polygon fill="midnightblue" stroke="midnightblue" points="383.09,-228.6 375,-235.44 385.59,-235.14 383.09,-228.6"/>
</g>
<!-- Node27&#45;&gt;Node16 -->
<g id="edge54" class="edge">
<title>Node27&#45;&gt;Node16</title>
<path fill="none" stroke="midnightblue" d="M348.91,-225.44C339.49,-178.87 315.14,-58.46 308.41,-25.15"/>
<polygon fill="midnightblue" stroke="midnightblue" points="345.5,-226.25 350.91,-235.36 352.36,-224.86 345.5,-226.25"/>
</g>
<!-- Node28 -->
<g id="node28" class="node">
<title>Node28</title>
<g id="a_node28"><a xlink:href="_log_outputter_console_8cpp.html" target="_top" xlink:title=" ">
<polygon fill="none" stroke="black" points="167.16,-179.5 167.16,-198.5 324.16,-198.5 324.16,-179.5 167.16,-179.5"/>
<text text-anchor="middle" x="245.66" y="-186.5" font-family="Helvetica,sans-Serif" font-size="10.00">src/LogOutputterConsole.cpp</text>
</a>
</g>
</g>
<!-- Node27&#45;&gt;Node28 -->
<g id="edge53" class="edge">
<title>Node27&#45;&gt;Node28</title>
<path fill="none" stroke="midnightblue" d="M326.36,-230.73C306.54,-220.73 279.95,-207.31 262.81,-198.65"/>
<polygon fill="midnightblue" stroke="midnightblue" points="324.96,-233.94 335.47,-235.32 328.12,-227.69 324.96,-233.94"/>
</g>
<!-- Node29&#45;&gt;Node3 -->
<g id="edge56" class="edge">
<title>Node29&#45;&gt;Node3</title>
<path fill="none" stroke="midnightblue" d="M201.44,-233.95C277.01,-222.59 397.34,-204.49 457.27,-195.47"/>
<polygon fill="midnightblue" stroke="midnightblue" points="200.91,-230.49 191.54,-235.44 201.95,-237.42 200.91,-230.49"/>
</g>
<!-- Node29&#45;&gt;Node16 -->
<g id="edge58" class="edge">
<title>Node29&#45;&gt;Node16</title>
<path fill="none" stroke="midnightblue" d="M60.84,-233.19C22.77,-224.03 -12.45,-207.63 4.66,-179 62.3,-82.53 199.12,-39.98 267.02,-24.28"/>
<polygon fill="midnightblue" stroke="midnightblue" points="60.56,-236.71 71.08,-235.47 62.08,-229.88 60.56,-236.71"/>
</g>
<!-- Node30 -->
<g id="node30" class="node">
<title>Node30</title>
<g id="a_node30"><a xlink:href="_log_outputter_file_8cpp.html" target="_top" xlink:title=" ">
<polygon fill="none" stroke="black" points="14.16,-179.5 14.16,-198.5 149.16,-198.5 149.16,-179.5 14.16,-179.5"/>
<text text-anchor="middle" x="81.66" y="-186.5" font-family="Helvetica,sans-Serif" font-size="10.00">src/LogOutputterFile.cpp</text>
</a>
</g>
</g>
<!-- Node29&#45;&gt;Node30 -->
<g id="edge57" class="edge">
<title>Node29&#45;&gt;Node30</title>
<path fill="none" stroke="midnightblue" d="M118.68,-227.72C109.34,-218.2 97.91,-206.56 90.25,-198.75"/>
<polygon fill="midnightblue" stroke="midnightblue" points="116.4,-230.4 125.91,-235.08 121.4,-225.49 116.4,-230.4"/>
</g>
</g>
</svg>
