<?xml version="1.0" encoding="UTF-8" standalone="no"?>
<!DOCTYPE svg PUBLIC "-//W3C//DTD SVG 1.1//EN"
 "http://www.w3.org/Graphics/SVG/1.1/DTD/svg11.dtd">
<!-- Generated by graphviz version 2.43.0 (0)
 -->
<!-- Title: inc/AutoindexHandler.hpp Pages: 1 -->
<svg width="1078pt" height="196pt"
 viewBox="0.00 0.00 1078.00 196.00" xmlns="http://www.w3.org/2000/svg" xmlns:xlink="http://www.w3.org/1999/xlink">
<g id="graph0" class="graph" transform="scale(1 1) rotate(0) translate(4 192)">
<title>inc/AutoindexHandler.hpp</title>
<!-- Node1 -->
<g id="node1" class="node">
<title>Node1</title>
<g id="a_node1"><a xlink:title=" ">
<polygon fill="#bfbfbf" stroke="black" points="235,-168.5 235,-187.5 377,-187.5 377,-168.5 235,-168.5"/>
<text text-anchor="middle" x="306" y="-175.5" font-family="Helvetica,sans-Serif" font-size="10.00">inc/AutoindexHandler.hpp</text>
</a>
</g>
</g>
<!-- Node2 -->
<g id="node2" class="node">
<title>Node2</title>
<g id="a_node2"><a xlink:href="_file_system_policy_8hpp.html" target="_top" xlink:title=" ">
<polygon fill="none" stroke="black" points="177.5,-56.5 177.5,-75.5 296.5,-75.5 296.5,-56.5 177.5,-56.5"/>
<text text-anchor="middle" x="237" y="-63.5" font-family="Helvetica,sans-Serif" font-size="10.00">FileSystemPolicy.hpp</text>
</a>
</g>
</g>
<!-- Node1&#45;&gt;Node2 -->
<g id="edge1" class="edge">
<title>Node1&#45;&gt;Node2</title>
<path fill="none" stroke="midnightblue" d="M292.63,-168.19C281.3,-160.08 265.45,-147.03 256,-132 247.1,-117.85 242.23,-99.36 239.65,-85.73"/>
<polygon fill="midnightblue" stroke="midnightblue" points="243.07,-84.91 237.99,-75.61 236.16,-86.05 243.07,-84.91"/>
</g>
<!-- Node3 -->
<g id="node3" class="node">
<title>Node3</title>
<g id="a_node3"><a xlink:title=" ">
<polygon fill="none" stroke="#bfbfbf" points="0,-0.5 0,-19.5 44,-19.5 44,-0.5 0,-0.5"/>
<text text-anchor="middle" x="22" y="-7.5" font-family="Helvetica,sans-Serif" font-size="10.00">string</text>
</a>
</g>
</g>
<!-- Node1&#45;&gt;Node3 -->
<g id="edge27" class="edge">
<title>Node1&#45;&gt;Node3</title>
<path fill="none" stroke="midnightblue" d="M286.8,-168.49C267.76,-159.87 237.92,-145.86 213,-132 149.39,-96.61 77.72,-49.01 43.04,-25.45"/>
<polygon fill="midnightblue" stroke="midnightblue" points="44.89,-22.48 34.66,-19.73 40.95,-28.26 44.89,-22.48"/>
</g>
<!-- Node8 -->
<g id="node8" class="node">
<title>Node8</title>
<g id="a_node8"><a xlink:title=" ">
<polygon fill="none" stroke="#bfbfbf" points="62.5,-0.5 62.5,-19.5 127.5,-19.5 127.5,-0.5 62.5,-0.5"/>
<text text-anchor="middle" x="95" y="-7.5" font-family="Helvetica,sans-Serif" font-size="10.00">stdexcept</text>
</a>
</g>
</g>
<!-- Node1&#45;&gt;Node8 -->
<g id="edge30" class="edge">
<title>Node1&#45;&gt;Node8</title>
<path fill="none" stroke="midnightblue" d="M294.1,-168.4C281.6,-159.36 261.39,-144.72 244,-132 210.13,-107.23 200.59,-102.42 168,-76 148.17,-59.92 126.43,-40.29 111.88,-26.83"/>
<polygon fill="midnightblue" stroke="midnightblue" points="113.91,-23.95 104.21,-19.7 109.15,-29.07 113.91,-23.95"/>
</g>
<!-- Node12 -->
<g id="node12" class="node">
<title>Node12</title>
<g id="a_node12"><a xlink:href="_directory_8hpp.html" target="_top" xlink:title=" ">
<polygon fill="none" stroke="black" points="265.5,-112.5 265.5,-131.5 346.5,-131.5 346.5,-112.5 265.5,-112.5"/>
<text text-anchor="middle" x="306" y="-119.5" font-family="Helvetica,sans-Serif" font-size="10.00">Directory.hpp</text>
</a>
</g>
</g>
<!-- Node1&#45;&gt;Node12 -->
<g id="edge11" class="edge">
<title>Node1&#45;&gt;Node12</title>
<path fill="none" stroke="midnightblue" d="M306,-168.08C306,-161.01 306,-150.86 306,-141.99"/>
<polygon fill="midnightblue" stroke="midnightblue" points="309.5,-141.75 306,-131.75 302.5,-141.75 309.5,-141.75"/>
</g>
<!-- Node13 -->
<g id="node13" class="node">
<title>Node13</title>
<g id="a_node13"><a xlink:title=" ">
<polygon fill="none" stroke="#bfbfbf" points="314.5,-56.5 314.5,-75.5 361.5,-75.5 361.5,-56.5 314.5,-56.5"/>
<text text-anchor="middle" x="338" y="-63.5" font-family="Helvetica,sans-Serif" font-size="10.00">vector</text>
</a>
</g>
</g>
<!-- Node1&#45;&gt;Node13 -->
<g id="edge28" class="edge">
<title>Node1&#45;&gt;Node13</title>
<path fill="none" stroke="midnightblue" d="M320.66,-168.4C332.41,-160.58 348.03,-147.86 355,-132 361.73,-116.68 355.58,-98.12 348.87,-84.76"/>
<polygon fill="midnightblue" stroke="midnightblue" points="351.75,-82.74 343.84,-75.7 345.64,-86.14 351.75,-82.74"/>
</g>
<!-- Node15 -->
<g id="node15" class="node">
<title>Node15</title>
<g id="a_node15"><a xlink:href="utilities_8hpp.html" target="_top" xlink:title=" ">
<polygon fill="none" stroke="black" points="585,-112.5 585,-131.5 659,-131.5 659,-112.5 585,-112.5"/>
<text text-anchor="middle" x="622" y="-119.5" font-family="Helvetica,sans-Serif" font-size="10.00">utilities.hpp</text>
</a>
</g>
</g>
<!-- Node1&#45;&gt;Node15 -->
<g id="edge15" class="edge">
<title>Node1&#45;&gt;Node15</title>
<path fill="none" stroke="midnightblue" d="M356.07,-168.44C416.16,-158.18 516.14,-141.09 574.88,-131.05"/>
<polygon fill="midnightblue" stroke="midnightblue" points="575.73,-134.46 585,-129.32 574.55,-127.56 575.73,-134.46"/>
</g>
<!-- Node21 -->
<g id="node21" class="node">
<title>Node21</title>
<g id="a_node21"><a xlink:title=" ">
<polygon fill="none" stroke="#bfbfbf" points="1014,-56.5 1014,-75.5 1070,-75.5 1070,-56.5 1014,-56.5"/>
<text text-anchor="middle" x="1042" y="-63.5" font-family="Helvetica,sans-Serif" font-size="10.00">sstream</text>
</a>
</g>
</g>
<!-- Node1&#45;&gt;Node21 -->
<g id="edge29" class="edge">
<title>Node1&#45;&gt;Node21</title>
<path fill="none" stroke="midnightblue" d="M377.04,-169.35C503.72,-155.11 776.69,-121.81 1004,-76 1004.1,-75.98 1004.2,-75.96 1004.3,-75.94"/>
<polygon fill="midnightblue" stroke="midnightblue" points="1004.78,-79.42 1013.82,-73.9 1003.31,-72.57 1004.78,-79.42"/>
</g>
<!-- Node2&#45;&gt;Node3 -->
<g id="edge2" class="edge">
<title>Node2&#45;&gt;Node3</title>
<path fill="none" stroke="midnightblue" d="M200.23,-56.49C165.04,-48.25 110.24,-35.12 54.08,-20.21"/>
<polygon fill="midnightblue" stroke="midnightblue" points="54.88,-16.8 44.32,-17.6 53.08,-23.56 54.88,-16.8"/>
</g>
<!-- Node4 -->
<g id="node4" class="node">
<title>Node4</title>
<g id="a_node4"><a xlink:title=" ">
<polygon fill="none" stroke="#bfbfbf" points="381.5,-0.5 381.5,-19.5 428.5,-19.5 428.5,-0.5 381.5,-0.5"/>
<text text-anchor="middle" x="405" y="-7.5" font-family="Helvetica,sans-Serif" font-size="10.00">cerrno</text>
</a>
</g>
</g>
<!-- Node2&#45;&gt;Node4 -->
<g id="edge3" class="edge">
<title>Node2&#45;&gt;Node4</title>
<path fill="none" stroke="midnightblue" d="M263.62,-56.44C292.92,-47.02 340.07,-31.87 371.78,-21.68"/>
<polygon fill="midnightblue" stroke="midnightblue" points="373.04,-24.95 381.49,-18.56 370.89,-18.29 373.04,-24.95"/>
</g>
<!-- Node5 -->
<g id="node5" class="node">
<title>Node5</title>
<g id="a_node5"><a xlink:title=" ">
<polygon fill="none" stroke="#bfbfbf" points="447,-0.5 447,-19.5 497,-19.5 497,-0.5 447,-0.5"/>
<text text-anchor="middle" x="472" y="-7.5" font-family="Helvetica,sans-Serif" font-size="10.00">cstring</text>
</a>
</g>
</g>
<!-- Node2&#45;&gt;Node5 -->
<g id="edge4" class="edge">
<title>Node2&#45;&gt;Node5</title>
<path fill="none" stroke="midnightblue" d="M276.55,-56.47C316.95,-47.67 381.47,-33.38 437,-20 437.1,-19.98 437.2,-19.95 437.3,-19.93"/>
<polygon fill="midnightblue" stroke="midnightblue" points="437.92,-23.38 446.79,-17.58 436.24,-16.58 437.92,-23.38"/>
</g>
<!-- Node6 -->
<g id="node6" class="node">
<title>Node6</title>
<g id="a_node6"><a xlink:title=" ">
<polygon fill="none" stroke="#bfbfbf" points="515,-0.5 515,-19.5 579,-19.5 579,-0.5 515,-0.5"/>
<text text-anchor="middle" x="547" y="-7.5" font-family="Helvetica,sans-Serif" font-size="10.00">sys/stat.h</text>
</a>
</g>
</g>
<!-- Node2&#45;&gt;Node6 -->
<g id="edge5" class="edge">
<title>Node2&#45;&gt;Node6</title>
<path fill="none" stroke="midnightblue" d="M293.05,-56.47C345.33,-48.32 425.73,-35.3 504.68,-20.18"/>
<polygon fill="midnightblue" stroke="midnightblue" points="505.65,-23.56 514.8,-18.23 504.32,-16.68 505.65,-23.56"/>
</g>
<!-- Node7 -->
<g id="node7" class="node">
<title>Node7</title>
<g id="a_node7"><a xlink:title=" ">
<polygon fill="none" stroke="#bfbfbf" points="145.5,-0.5 145.5,-19.5 200.5,-19.5 200.5,-0.5 145.5,-0.5"/>
<text text-anchor="middle" x="173" y="-7.5" font-family="Helvetica,sans-Serif" font-size="10.00">fstream</text>
</a>
</g>
</g>
<!-- Node2&#45;&gt;Node7 -->
<g id="edge6" class="edge">
<title>Node2&#45;&gt;Node7</title>
<path fill="none" stroke="midnightblue" d="M226.72,-56.32C217.16,-48.26 202.72,-36.08 191.22,-26.37"/>
<polygon fill="midnightblue" stroke="midnightblue" points="193.37,-23.61 183.47,-19.83 188.86,-28.96 193.37,-23.61"/>
</g>
<!-- Node2&#45;&gt;Node8 -->
<g id="edge7" class="edge">
<title>Node2&#45;&gt;Node8</title>
<path fill="none" stroke="midnightblue" d="M214.5,-56.44C190.92,-47.48 153.68,-33.31 127.04,-23.18"/>
<polygon fill="midnightblue" stroke="midnightblue" points="127.99,-19.8 117.4,-19.52 125.5,-26.34 127.99,-19.8"/>
</g>
<!-- Node9 -->
<g id="node9" class="node">
<title>Node9</title>
<g id="a_node9"><a xlink:title=" ">
<polygon fill="none" stroke="#bfbfbf" points="685,-0.5 685,-19.5 745,-19.5 745,-0.5 685,-0.5"/>
<text text-anchor="middle" x="715" y="-7.5" font-family="Helvetica,sans-Serif" font-size="10.00">iostream</text>
</a>
</g>
</g>
<!-- Node2&#45;&gt;Node9 -->
<g id="edge8" class="edge">
<title>Node2&#45;&gt;Node9</title>
<path fill="none" stroke="midnightblue" d="M296.69,-57.02C299.5,-56.67 302.28,-56.33 305,-56 440.34,-39.62 601.14,-22.71 674.68,-15.12"/>
<polygon fill="midnightblue" stroke="midnightblue" points="675.29,-18.58 684.88,-14.07 674.58,-11.62 675.29,-18.58"/>
</g>
<!-- Node10 -->
<g id="node10" class="node">
<title>Node10</title>
<g id="a_node10"><a xlink:title=" ">
<polygon fill="none" stroke="#bfbfbf" points="219,-0.5 219,-19.5 291,-19.5 291,-0.5 219,-0.5"/>
<text text-anchor="middle" x="255" y="-7.5" font-family="Helvetica,sans-Serif" font-size="10.00">sys/types.h</text>
</a>
</g>
</g>
<!-- Node2&#45;&gt;Node10 -->
<g id="edge9" class="edge">
<title>Node2&#45;&gt;Node10</title>
<path fill="none" stroke="midnightblue" d="M239.97,-56.08C242.38,-48.85 245.86,-38.41 248.87,-29.4"/>
<polygon fill="midnightblue" stroke="midnightblue" points="252.24,-30.34 252.08,-19.75 245.6,-28.13 252.24,-30.34"/>
</g>
<!-- Node11 -->
<g id="node11" class="node">
<title>Node11</title>
<g id="a_node11"><a xlink:title=" ">
<polygon fill="none" stroke="#bfbfbf" points="309,-0.5 309,-19.5 363,-19.5 363,-0.5 309,-0.5"/>
<text text-anchor="middle" x="336" y="-7.5" font-family="Helvetica,sans-Serif" font-size="10.00">dirent.h</text>
</a>
</g>
</g>
<!-- Node2&#45;&gt;Node11 -->
<g id="edge10" class="edge">
<title>Node2&#45;&gt;Node11</title>
<path fill="none" stroke="midnightblue" d="M252.91,-56.32C268.64,-47.74 292.94,-34.49 311.21,-24.52"/>
<polygon fill="midnightblue" stroke="midnightblue" points="313.03,-27.52 320.13,-19.65 309.68,-21.37 313.03,-27.52"/>
</g>
<!-- Node12&#45;&gt;Node2 -->
<g id="edge12" class="edge">
<title>Node12&#45;&gt;Node2</title>
<path fill="none" stroke="midnightblue" d="M294.91,-112.32C284.51,-104.18 268.74,-91.84 256.28,-82.09"/>
<polygon fill="midnightblue" stroke="midnightblue" points="258.32,-79.24 248.29,-75.83 254.01,-84.75 258.32,-79.24"/>
</g>
<!-- Node12&#45;&gt;Node13 -->
<g id="edge13" class="edge">
<title>Node12&#45;&gt;Node13</title>
<path fill="none" stroke="midnightblue" d="M311.28,-112.08C315.71,-104.61 322.16,-93.72 327.62,-84.52"/>
<polygon fill="midnightblue" stroke="midnightblue" points="330.73,-86.14 332.81,-75.75 324.71,-82.57 330.73,-86.14"/>
</g>
<!-- Node14 -->
<g id="node14" class="node">
<title>Node14</title>
<g id="a_node14"><a xlink:title=" ">
<polygon fill="none" stroke="#bfbfbf" points="380,-56.5 380,-75.5 444,-75.5 444,-56.5 380,-56.5"/>
<text text-anchor="middle" x="412" y="-63.5" font-family="Helvetica,sans-Serif" font-size="10.00">algorithm</text>
</a>
</g>
</g>
<!-- Node12&#45;&gt;Node14 -->
<g id="edge14" class="edge">
<title>Node12&#45;&gt;Node14</title>
<path fill="none" stroke="midnightblue" d="M323.03,-112.32C340.03,-103.66 366.38,-90.24 385.99,-80.25"/>
<polygon fill="midnightblue" stroke="midnightblue" points="387.69,-83.31 395.01,-75.65 384.51,-77.08 387.69,-83.31"/>
</g>
<!-- Node15&#45;&gt;Node9 -->
<g id="edge23" class="edge">
<title>Node15&#45;&gt;Node9</title>
<path fill="none" stroke="midnightblue" d="M659.02,-121.27C693.96,-119.3 744.65,-110.2 770,-76 783.65,-57.59 760.59,-37.63 740.28,-24.76"/>
<polygon fill="midnightblue" stroke="midnightblue" points="741.95,-21.68 731.57,-19.54 738.35,-27.68 741.95,-21.68"/>
</g>
<!-- Node15&#45;&gt;Node13 -->
<g id="edge26" class="edge">
<title>Node15&#45;&gt;Node13</title>
<path fill="none" stroke="midnightblue" d="M584.79,-115.39C537.53,-108.03 453.27,-94.14 371.67,-75.98"/>
<polygon fill="midnightblue" stroke="midnightblue" points="372.25,-72.52 361.73,-73.74 370.72,-79.35 372.25,-72.52"/>
</g>
<!-- Node15&#45;&gt;Node14 -->
<g id="edge20" class="edge">
<title>Node15&#45;&gt;Node14</title>
<path fill="none" stroke="midnightblue" d="M588.72,-112.44C552.23,-103.06 493.6,-87.98 453.97,-77.79"/>
<polygon fill="midnightblue" stroke="midnightblue" points="454.64,-74.35 444.09,-75.25 452.9,-81.13 454.64,-74.35"/>
</g>
<!-- Node16 -->
<g id="node16" class="node">
<title>Node16</title>
<g id="a_node16"><a xlink:href="_method_8hpp.html" target="_top" xlink:title=" ">
<polygon fill="none" stroke="black" points="818,-56.5 818,-75.5 892,-75.5 892,-56.5 818,-56.5"/>
<text text-anchor="middle" x="855" y="-63.5" font-family="Helvetica,sans-Serif" font-size="10.00">Method.hpp</text>
</a>
</g>
</g>
<!-- Node15&#45;&gt;Node16 -->
<g id="edge16" class="edge">
<title>Node15&#45;&gt;Node16</title>
<path fill="none" stroke="midnightblue" d="M658.92,-112.44C699.4,-103.06 764.42,-87.99 808.38,-77.8"/>
<polygon fill="midnightblue" stroke="midnightblue" points="809.3,-81.18 818.25,-75.52 807.72,-74.36 809.3,-81.18"/>
</g>
<!-- Node17 -->
<g id="node17" class="node">
<title>Node17</title>
<g id="a_node17"><a xlink:href="_status_code_8hpp.html" target="_top" xlink:title=" ">
<polygon fill="none" stroke="black" points="668.5,-56.5 668.5,-75.5 761.5,-75.5 761.5,-56.5 668.5,-56.5"/>
<text text-anchor="middle" x="715" y="-63.5" font-family="Helvetica,sans-Serif" font-size="10.00">StatusCode.hpp</text>
</a>
</g>
</g>
<!-- Node15&#45;&gt;Node17 -->
<g id="edge17" class="edge">
<title>Node15&#45;&gt;Node17</title>
<path fill="none" stroke="midnightblue" d="M636.94,-112.32C651.59,-103.82 674.13,-90.73 691.24,-80.8"/>
<polygon fill="midnightblue" stroke="midnightblue" points="693.2,-83.7 700.1,-75.65 689.69,-77.65 693.2,-83.7"/>
</g>
<!-- Node18 -->
<g id="node18" class="node">
<title>Node18</title>
<g id="a_node18"><a xlink:href="constants_8hpp.html" target="_top" xlink:title=" ">
<polygon fill="none" stroke="black" points="910.5,-56.5 910.5,-75.5 995.5,-75.5 995.5,-56.5 910.5,-56.5"/>
<text text-anchor="middle" x="953" y="-63.5" font-family="Helvetica,sans-Serif" font-size="10.00">constants.hpp</text>
</a>
</g>
</g>
<!-- Node15&#45;&gt;Node18 -->
<g id="edge19" class="edge">
<title>Node15&#45;&gt;Node18</title>
<path fill="none" stroke="midnightblue" d="M659.03,-115.17C710.66,-107 807.47,-91.58 900.57,-76.06"/>
<polygon fill="midnightblue" stroke="midnightblue" points="901.15,-79.51 910.44,-74.41 900,-72.6 901.15,-79.51"/>
</g>
<!-- Node19 -->
<g id="node19" class="node">
<title>Node19</title>
<g id="a_node19"><a xlink:title=" ">
<polygon fill="none" stroke="#bfbfbf" points="462,-56.5 462,-75.5 514,-75.5 514,-56.5 462,-56.5"/>
<text text-anchor="middle" x="488" y="-63.5" font-family="Helvetica,sans-Serif" font-size="10.00">cassert</text>
</a>
</g>
</g>
<!-- Node15&#45;&gt;Node19 -->
<g id="edge21" class="edge">
<title>Node15&#45;&gt;Node19</title>
<path fill="none" stroke="midnightblue" d="M600.77,-112.44C578.62,-103.52 543.68,-89.44 518.56,-79.32"/>
<polygon fill="midnightblue" stroke="midnightblue" points="519.72,-76.01 509.13,-75.52 517.1,-82.5 519.72,-76.01"/>
</g>
<!-- Node20 -->
<g id="node20" class="node">
<title>Node20</title>
<g id="a_node20"><a xlink:title=" ">
<polygon fill="none" stroke="#bfbfbf" points="532,-56.5 532,-75.5 576,-75.5 576,-56.5 532,-56.5"/>
<text text-anchor="middle" x="554" y="-63.5" font-family="Helvetica,sans-Serif" font-size="10.00">ctime</text>
</a>
</g>
</g>
<!-- Node15&#45;&gt;Node20 -->
<g id="edge22" class="edge">
<title>Node15&#45;&gt;Node20</title>
<path fill="none" stroke="midnightblue" d="M611.07,-112.32C600.83,-104.18 585.28,-91.84 573,-82.09"/>
<polygon fill="midnightblue" stroke="midnightblue" points="575.13,-79.31 565.12,-75.83 570.78,-84.79 575.13,-79.31"/>
</g>
<!-- Node15&#45;&gt;Node21 -->
<g id="edge24" class="edge">
<title>Node15&#45;&gt;Node21</title>
<path fill="none" stroke="midnightblue" d="M659.08,-118.06C727.58,-112.32 878.4,-98.2 1004,-76 1004.1,-75.98 1004.2,-75.96 1004.3,-75.95"/>
<polygon fill="midnightblue" stroke="midnightblue" points="1004.73,-79.43 1013.85,-74.05 1003.36,-72.56 1004.73,-79.43"/>
</g>
<!-- Node22 -->
<g id="node22" class="node">
<title>Node22</title>
<g id="a_node22"><a xlink:title=" ">
<polygon fill="none" stroke="#bfbfbf" points="594,-56.5 594,-75.5 650,-75.5 650,-56.5 594,-56.5"/>
<text text-anchor="middle" x="622" y="-63.5" font-family="Helvetica,sans-Serif" font-size="10.00">unistd.h</text>
</a>
</g>
</g>
<!-- Node15&#45;&gt;Node22 -->
<g id="edge25" class="edge">
<title>Node15&#45;&gt;Node22</title>
<path fill="none" stroke="midnightblue" d="M622,-112.08C622,-105.01 622,-94.86 622,-85.99"/>
<polygon fill="midnightblue" stroke="midnightblue" points="625.5,-85.75 622,-75.75 618.5,-85.75 625.5,-85.75"/>
</g>
<!-- Node17&#45;&gt;Node9 -->
<g id="edge18" class="edge">
<title>Node17&#45;&gt;Node9</title>
<path fill="none" stroke="midnightblue" d="M715,-56.08C715,-49.01 715,-38.86 715,-29.99"/>
<polygon fill="midnightblue" stroke="midnightblue" points="718.5,-29.75 715,-19.75 711.5,-29.75 718.5,-29.75"/>
</g>
</g>
</svg>
