<?xml version="1.0" encoding="UTF-8" standalone="no"?>
<!DOCTYPE svg PUBLIC "-//W3C//DTD SVG 1.1//EN"
 "http://www.w3.org/Graphics/SVG/1.1/DTD/svg11.dtd">
<!-- Generated by graphviz version 2.43.0 (0)
 -->
<!-- Title: src/AutoindexHandler.cpp Pages: 1 -->
<!--zoomable 467 -->

<svg id="main" version="1.1" xmlns="http://www.w3.org/2000/svg" xmlns:xlink="http://www.w3.org/1999/xlink" xml:space="preserve" onload="init(evt)">
<style type="text/css"><![CDATA[
.node, .edge {opacity: 0.7;}
.node.selected, .edge.selected {opacity: 1;}
.edge:hover path { stroke: red; }
.edge:hover polygon { stroke: red; fill: red; }
]]></style>

<defs>
  <circle id="rim" cx="0" cy="0" r="7"/>
  <circle id="rim2" cx="0" cy="0" r="3.5"/>
  <g id="zoomPlus">
    <use xlink:href="#rim" fill="#404040"><set attributeName="fill" to="#808080" begin="zoomplus.mouseover" end="zoomplus.mouseout"/></use>
    <path d="M-4,0h8M0,-4v8" fill="none" stroke="white" stroke-width="1.5" pointer-events="none"/>
  </g>
  <g id="zoomMin">
    <use xlink:href="#rim" fill="#404040"><set attributeName="fill" to="#808080" begin="zoomminus.mouseover" end="zoomminus.mouseout"/></use>
    <path d="M-4,0h8" fill="none" stroke="white" stroke-width="1.5" pointer-events="none"/>
  </g>
  <g id="arrowUp" transform="translate(30 24)">
    <use xlink:href="#rim"/>
    <path pointer-events="none" fill="none" stroke="white" stroke-width="1.5" d="M0,-3.0v7 M-2.5,-0.5L0,-3.0L2.5,-0.5"/>
  </g>
  <g id="arrowRight" transform="rotate(90) translate(36 -43)">
    <use xlink:href="#rim"/>
    <path pointer-events="none" fill="none" stroke="white" stroke-width="1.5" d="M0,-3.0v7 M-2.5,-0.5L0,-3.0L2.5,-0.5"/>
  </g>
  <g id="arrowDown" transform="rotate(180) translate(-30 -48)">
    <use xlink:href="#rim"/>
    <path pointer-events="none" fill="none" stroke="white" stroke-width="1.5" d="M0,-3.0v7 M-2.5,-0.5L0,-3.0L2.5,-0.5"/>
  </g>
  <g id="arrowLeft" transform="rotate(270) translate(-36 17)">
    <use xlink:href="#rim"/>
    <path pointer-events="none" fill="none" stroke="white" stroke-width="1.5" d="M0,-3.0v7 M-2.5,-0.5L0,-3.0L2.5,-0.5"/>
  </g>
  <g id="resetDef">
    <use xlink:href="#rim2" fill="#404040"><set attributeName="fill" to="#808080" begin="reset.mouseover" end="reset.mouseout"/></use>
  </g>
</defs>
<script type="application/ecmascript">
var viewWidth = 1306;
var viewHeight = 467;
var sectionId = 'dynsection-0';
</script>
<script type="application/ecmascript" xlink:href="svg.min.js"/>
<svg id="graph" class="graph">
<g id="viewport">
<title>src/AutoindexHandler.cpp</title>
<!-- Node1 -->
<g id="Node000001" class="node">
<title>Node1</title>
<g id="a_Node000001"><a xlink:title=" ">
<polygon fill="#999999" stroke="#666666" points="829.5,-459 688.5,-459 688.5,-440 829.5,-440 829.5,-459"/>
<text text-anchor="middle" x="759" y="-447" font-family="Helvetica,sans-Serif" font-size="10.00">src/AutoindexHandler.cpp</text>
</a>
</g>
</g>
<!-- Node2 -->
<g id="Node000002" class="node">
<title>Node2</title>
<g id="a_Node000002"><a xlink:href="_autoindex_handler_8hpp.html" target="_top" xlink:title=" ">
<polygon fill="white" stroke="#666666" points="821.5,-404 696.5,-404 696.5,-385 821.5,-385 821.5,-404"/>
<text text-anchor="middle" x="759" y="-392" font-family="Helvetica,sans-Serif" font-size="10.00">AutoindexHandler.hpp</text>
</a>
</g>
</g>
<!-- Node1&#45;&gt;Node2 -->
<g id="edge1_Node000001_Node000002" class="edge">
<title>Node1&#45;&gt;Node2</title>
<g id="a_edge1_Node000001_Node000002"><a xlink:title=" ">
<path fill="none" stroke="#63b8ff" d="M759,-439.75C759,-432.8 759,-422.85 759,-414.13"/>
<polygon fill="#63b8ff" stroke="#63b8ff" points="762.5,-414.09 759,-404.09 755.5,-414.09 762.5,-414.09"/>
</a>
</g>
</g>
<!-- Node3 -->
<g id="Node000003" class="node">
<title>Node3</title>
<g id="a_Node000003"><a xlink:href="_file_system_policy_8hpp.html" target="_top" xlink:title=" ">
<polygon fill="white" stroke="#666666" points="618.5,-294 499.5,-294 499.5,-275 618.5,-275 618.5,-294"/>
<text text-anchor="middle" x="559" y="-282" font-family="Helvetica,sans-Serif" font-size="10.00">FileSystemPolicy.hpp</text>
</a>
</g>
</g>
<!-- Node2&#45;&gt;Node3 -->
<g id="edge2_Node000002_Node000003" class="edge">
<title>Node2&#45;&gt;Node3</title>
<g id="a_edge2_Node000002_Node000003"><a xlink:title=" ">
<path fill="none" stroke="#63b8ff" d="M742.97,-384.84C708.14,-366.04 625.36,-321.33 583.76,-298.87"/>
<polygon fill="#63b8ff" stroke="#63b8ff" points="585.29,-295.72 574.83,-294.05 581.96,-301.88 585.29,-295.72"/>
</a>
</g>
</g>
<!-- Node10 -->
<g id="Node000010" class="node">
<title>Node10</title>
<g id="a_Node000010"><a xlink:title=" ">
<polygon fill="#e0e0e0" stroke="#999999" points="93.5,-239 28.5,-239 28.5,-220 93.5,-220 93.5,-239"/>
<text text-anchor="middle" x="61" y="-227" font-family="Helvetica,sans-Serif" font-size="10.00">stdexcept</text>
</a>
</g>
</g>
<!-- Node2&#45;&gt;Node10 -->
<g id="edge54_Node000002_Node000010" class="edge">
<title>Node2&#45;&gt;Node10</title>
<g id="a_edge54_Node000002_Node000010"><a xlink:title=" ">
<path fill="none" stroke="#63b8ff" d="M722.38,-384.98C683.93,-376.03 621.71,-361.53 568,-349 395.69,-308.79 190.46,-260.79 103.4,-240.42"/>
<polygon fill="#63b8ff" stroke="#63b8ff" points="104.16,-237 93.62,-238.13 102.56,-243.82 104.16,-237"/>
</a>
</g>
</g>
<!-- Node11 -->
<g id="Node000011" class="node">
<title>Node11</title>
<g id="a_Node000011"><a xlink:title=" ">
<polygon fill="#e0e0e0" stroke="#999999" points="133,-19 89,-19 89,0 133,0 133,-19"/>
<text text-anchor="middle" x="111" y="-7" font-family="Helvetica,sans-Serif" font-size="10.00">string</text>
</a>
</g>
</g>
<!-- Node2&#45;&gt;Node11 -->
<g id="edge51_Node000002_Node000011" class="edge">
<title>Node2&#45;&gt;Node11</title>
<g id="a_edge51_Node000002_Node000011"><a xlink:title=" ">
<path fill="none" stroke="#63b8ff" d="M696.24,-391.14C514.4,-383.49 0,-355.63 0,-285.5 0,-285.5 0,-285.5 0,-118.5 0,-72.98 48.54,-40.44 81.42,-23.61"/>
<polygon fill="#63b8ff" stroke="#63b8ff" points="83.2,-26.64 90.64,-19.09 80.12,-20.35 83.2,-26.64"/>
</a>
</g>
</g>
<!-- Node14 -->
<g id="Node000014" class="node">
<title>Node14</title>
<g id="a_Node000014"><a xlink:href="_log_8hpp.html" target="_top" xlink:title=" ">
<polygon fill="white" stroke="#666666" points="286.5,-239 231.5,-239 231.5,-220 286.5,-220 286.5,-239"/>
<text text-anchor="middle" x="259" y="-227" font-family="Helvetica,sans-Serif" font-size="10.00">Log.hpp</text>
</a>
</g>
</g>
<!-- Node2&#45;&gt;Node14 -->
<g id="edge50_Node000002_Node000014" class="edge">
<title>Node2&#45;&gt;Node14</title>
<g id="a_edge50_Node000002_Node000014"><a xlink:title=" ">
<path fill="none" stroke="#63b8ff" d="M732.82,-384.97C649.55,-357.82 390.68,-273.43 295.01,-242.24"/>
<polygon fill="#63b8ff" stroke="#63b8ff" points="295.81,-238.82 285.22,-239.05 293.64,-245.47 295.81,-238.82"/>
</a>
</g>
</g>
<!-- Node20 -->
<g id="Node000020" class="node">
<title>Node20</title>
<g id="a_Node000020"><a xlink:title=" ">
<polygon fill="#e0e0e0" stroke="#999999" points="1092,-19 1036,-19 1036,0 1092,0 1092,-19"/>
<text text-anchor="middle" x="1064" y="-7" font-family="Helvetica,sans-Serif" font-size="10.00">sstream</text>
</a>
</g>
</g>
<!-- Node2&#45;&gt;Node20 -->
<g id="edge53_Node000002_Node000020" class="edge">
<title>Node2&#45;&gt;Node20</title>
<g id="a_edge53_Node000002_Node000020"><a xlink:title=" ">
<path fill="none" stroke="#63b8ff" d="M821.62,-393.97C963.65,-393.36 1298,-381.71 1298,-285.5 1298,-285.5 1298,-285.5 1298,-118.5 1298,-33.35 1168.67,-15.11 1102.31,-11.36"/>
<polygon fill="#63b8ff" stroke="#63b8ff" points="1102.38,-7.86 1092.23,-10.88 1102.05,-14.86 1102.38,-7.86"/>
</a>
</g>
</g>
<!-- Node23 -->
<g id="Node000023" class="node">
<title>Node23</title>
<g id="a_Node000023"><a xlink:title=" ">
<polygon fill="#e0e0e0" stroke="#999999" points="1192.5,-129 1145.5,-129 1145.5,-110 1192.5,-110 1192.5,-129"/>
<text text-anchor="middle" x="1169" y="-117" font-family="Helvetica,sans-Serif" font-size="10.00">vector</text>
</a>
</g>
</g>
<!-- Node2&#45;&gt;Node23 -->
<g id="edge52_Node000002_Node000023" class="edge">
<title>Node2&#45;&gt;Node23</title>
<g id="a_edge52_Node000002_Node000023"><a xlink:title=" ">
<path fill="none" stroke="#63b8ff" d="M821.69,-393C956.12,-390.25 1260,-374.2 1260,-285.5 1260,-285.5 1260,-285.5 1260,-228.5 1260,-186.65 1219.54,-152.59 1192.58,-134.54"/>
<polygon fill="#63b8ff" stroke="#63b8ff" points="1194.33,-131.51 1184.03,-129.04 1190.55,-137.4 1194.33,-131.51"/>
</a>
</g>
</g>
<!-- Node24 -->
<g id="Node000024" class="node">
<title>Node24</title>
<g id="a_Node000024"><a xlink:href="utilities_8hpp.html" target="_top" xlink:title=" ">
<polygon fill="white" stroke="#666666" points="897,-239 823,-239 823,-220 897,-220 897,-239"/>
<text text-anchor="middle" x="860" y="-227" font-family="Helvetica,sans-Serif" font-size="10.00">utilities.hpp</text>
</a>
</g>
</g>
<!-- Node2&#45;&gt;Node24 -->
<g id="edge49_Node000002_Node000024" class="edge">
<title>Node2&#45;&gt;Node24</title>
<g id="a_edge49_Node000002_Node000024"><a xlink:title=" ">
<path fill="none" stroke="#63b8ff" d="M764.43,-384.74C780.46,-358.87 827.79,-282.48 849.23,-247.88"/>
<polygon fill="#63b8ff" stroke="#63b8ff" points="852.25,-249.65 854.54,-239.31 846.3,-245.96 852.25,-249.65"/>
</a>
</g>
</g>
<!-- Node32 -->
<g id="Node000032" class="node">
<title>Node32</title>
<g id="a_Node000032"><a xlink:href="_directory_8hpp.html" target="_top" xlink:title=" ">
<polygon fill="white" stroke="#666666" points="1028.5,-349 947.5,-349 947.5,-330 1028.5,-330 1028.5,-349"/>
<text text-anchor="middle" x="988" y="-337" font-family="Helvetica,sans-Serif" font-size="10.00">Directory.hpp</text>
</a>
</g>
</g>
<!-- Node2&#45;&gt;Node32 -->
<g id="edge45_Node000002_Node000032" class="edge">
<title>Node2&#45;&gt;Node32</title>
<g id="a_edge45_Node000002_Node000032"><a xlink:title=" ">
<path fill="none" stroke="#63b8ff" d="M795.79,-384.98C835.24,-375.86 897.98,-361.33 940.98,-351.38"/>
<polygon fill="#63b8ff" stroke="#63b8ff" points="941.97,-354.75 950.92,-349.08 940.39,-347.93 941.97,-354.75"/>
</a>
</g>
</g>
<!-- Node4 -->
<g id="Node000004" class="node">
<title>Node4</title>
<g id="a_Node000004"><a xlink:title=" ">
<polygon fill="#e0e0e0" stroke="#999999" points="562.5,-239 515.5,-239 515.5,-220 562.5,-220 562.5,-239"/>
<text text-anchor="middle" x="539" y="-227" font-family="Helvetica,sans-Serif" font-size="10.00">cerrno</text>
</a>
</g>
</g>
<!-- Node3&#45;&gt;Node4 -->
<g id="edge3_Node000003_Node000004" class="edge">
<title>Node3&#45;&gt;Node4</title>
<g id="a_edge3_Node000003_Node000004"><a xlink:title=" ">
<path fill="none" stroke="#63b8ff" d="M555.7,-274.75C553.02,-267.65 549.15,-257.4 545.81,-248.56"/>
<polygon fill="#63b8ff" stroke="#63b8ff" points="549.05,-247.21 542.24,-239.09 542.5,-249.68 549.05,-247.21"/>
</a>
</g>
</g>
<!-- Node5 -->
<g id="Node000005" class="node">
<title>Node5</title>
<g id="a_Node000005"><a xlink:title=" ">
<polygon fill="#e0e0e0" stroke="#999999" points="627,-239 581,-239 581,-220 627,-220 627,-239"/>
<text text-anchor="middle" x="604" y="-227" font-family="Helvetica,sans-Serif" font-size="10.00">cstdio</text>
</a>
</g>
</g>
<!-- Node3&#45;&gt;Node5 -->
<g id="edge4_Node000003_Node000005" class="edge">
<title>Node3&#45;&gt;Node5</title>
<g id="a_edge4_Node000003_Node000005"><a xlink:title=" ">
<path fill="none" stroke="#63b8ff" d="M566.43,-274.75C572.85,-267.18 582.31,-256.05 590.12,-246.84"/>
<polygon fill="#63b8ff" stroke="#63b8ff" points="592.9,-248.98 596.71,-239.09 587.57,-244.45 592.9,-248.98"/>
</a>
</g>
</g>
<!-- Node6 -->
<g id="Node000006" class="node">
<title>Node6</title>
<g id="a_Node000006"><a xlink:title=" ">
<polygon fill="#e0e0e0" stroke="#999999" points="695,-239 645,-239 645,-220 695,-220 695,-239"/>
<text text-anchor="middle" x="670" y="-227" font-family="Helvetica,sans-Serif" font-size="10.00">cstring</text>
</a>
</g>
</g>
<!-- Node3&#45;&gt;Node6 -->
<g id="edge5_Node000003_Node000006" class="edge">
<title>Node3&#45;&gt;Node6</title>
<g id="a_edge5_Node000003_Node000006"><a xlink:title=" ">
<path fill="none" stroke="#63b8ff" d="M576.83,-274.98C594.61,-266.5 622.15,-253.35 642.68,-243.54"/>
<polygon fill="#63b8ff" stroke="#63b8ff" points="644.33,-246.64 651.84,-239.17 641.31,-240.32 644.33,-246.64"/>
</a>
</g>
</g>
<!-- Node7 -->
<g id="Node000007" class="node">
<title>Node7</title>
<g id="a_Node000007"><a xlink:title=" ">
<polygon fill="#e0e0e0" stroke="#999999" points="767,-239 713,-239 713,-220 767,-220 767,-239"/>
<text text-anchor="middle" x="740" y="-227" font-family="Helvetica,sans-Serif" font-size="10.00">dirent.h</text>
</a>
</g>
</g>
<!-- Node3&#45;&gt;Node7 -->
<g id="edge6_Node000003_Node000007" class="edge">
<title>Node3&#45;&gt;Node7</title>
<g id="a_edge6_Node000003_Node000007"><a xlink:title=" ">
<path fill="none" stroke="#63b8ff" d="M588.08,-274.98C619.23,-265.86 668.77,-251.36 702.76,-241.41"/>
<polygon fill="#63b8ff" stroke="#63b8ff" points="704.15,-244.64 712.77,-238.47 702.19,-237.93 704.15,-244.64"/>
</a>
</g>
</g>
<!-- Node8 -->
<g id="Node000008" class="node">
<title>Node8</title>
<g id="a_Node000008"><a xlink:title=" ">
<polygon fill="#e0e0e0" stroke="#999999" points="477.5,-129 422.5,-129 422.5,-110 477.5,-110 477.5,-129"/>
<text text-anchor="middle" x="450" y="-117" font-family="Helvetica,sans-Serif" font-size="10.00">fstream</text>
</a>
</g>
</g>
<!-- Node3&#45;&gt;Node8 -->
<g id="edge7_Node000003_Node000008" class="edge">
<title>Node3&#45;&gt;Node8</title>
<g id="a_edge7_Node000003_Node000008"><a xlink:title=" ">
<path fill="none" stroke="#63b8ff" d="M499.38,-280.05C439.92,-275.22 354.57,-264.04 334,-239 328.64,-232.48 329.07,-226.86 334,-220 363.28,-179.25 408.93,-222.58 441,-184 451.23,-171.69 452.81,-153.18 452.23,-139.32"/>
<polygon fill="#63b8ff" stroke="#63b8ff" points="455.69,-138.68 451.37,-129 448.71,-139.26 455.69,-138.68"/>
</a>
</g>
</g>
<!-- Node9 -->
<g id="Node000009" class="node">
<title>Node9</title>
<g id="a_Node000009"><a xlink:title=" ">
<polygon fill="#e0e0e0" stroke="#999999" points="575,-129 515,-129 515,-110 575,-110 575,-129"/>
<text text-anchor="middle" x="545" y="-117" font-family="Helvetica,sans-Serif" font-size="10.00">iostream</text>
</a>
</g>
</g>
<!-- Node3&#45;&gt;Node9 -->
<g id="edge8_Node000003_Node000009" class="edge">
<title>Node3&#45;&gt;Node9</title>
<g id="a_edge8_Node000003_Node000009"><a xlink:title=" ">
<path fill="none" stroke="#63b8ff" d="M618.61,-284.1C697.66,-282.92 822.14,-272.99 776,-220 699.69,-132.35 593.31,-271.65 517,-184 505.08,-170.3 516.9,-150.72 528.64,-136.94"/>
<polygon fill="#63b8ff" stroke="#63b8ff" points="531.55,-138.94 535.72,-129.2 526.39,-134.21 531.55,-138.94"/>
</a>
</g>
</g>
<!-- Node3&#45;&gt;Node10 -->
<g id="edge9_Node000003_Node000010" class="edge">
<title>Node3&#45;&gt;Node10</title>
<g id="a_edge9_Node000003_Node000010"><a xlink:title=" ">
<path fill="none" stroke="#63b8ff" d="M499.36,-279.15C412.87,-272.5 247.68,-258.49 108,-239 106.54,-238.8 105.05,-238.58 103.55,-238.35"/>
<polygon fill="#63b8ff" stroke="#63b8ff" points="103.99,-234.88 93.56,-236.74 102.88,-241.79 103.99,-234.88"/>
</a>
</g>
</g>
<!-- Node3&#45;&gt;Node11 -->
<g id="edge10_Node000003_Node000011" class="edge">
<title>Node3&#45;&gt;Node11</title>
<g id="a_edge10_Node000003_Node000011"><a xlink:title=" ">
<path fill="none" stroke="#63b8ff" d="M499.46,-281.39C377.89,-275.63 108.24,-254.95 57,-184 21.06,-134.23 70.97,-59.86 96.97,-27.06"/>
<polygon fill="#63b8ff" stroke="#63b8ff" points="99.69,-29.27 103.29,-19.31 94.26,-24.85 99.69,-29.27"/>
</a>
</g>
</g>
<!-- Node12 -->
<g id="Node000012" class="node">
<title>Node12</title>
<g id="a_Node000012"><a xlink:title=" ">
<polygon fill="#e0e0e0" stroke="#999999" points="407,-239 343,-239 343,-220 407,-220 407,-239"/>
<text text-anchor="middle" x="375" y="-227" font-family="Helvetica,sans-Serif" font-size="10.00">sys/stat.h</text>
</a>
</g>
</g>
<!-- Node3&#45;&gt;Node12 -->
<g id="edge11_Node000003_Node000012" class="edge">
<title>Node3&#45;&gt;Node12</title>
<g id="a_edge11_Node000003_Node000012"><a xlink:title=" ">
<path fill="none" stroke="#63b8ff" d="M529.44,-274.98C498.28,-266.01 449.03,-251.82 414.54,-241.89"/>
<polygon fill="#63b8ff" stroke="#63b8ff" points="415.37,-238.49 404.79,-239.08 413.43,-245.21 415.37,-238.49"/>
</a>
</g>
</g>
<!-- Node13 -->
<g id="Node000013" class="node">
<title>Node13</title>
<g id="a_Node000013"><a xlink:title=" ">
<polygon fill="#e0e0e0" stroke="#999999" points="497,-239 425,-239 425,-220 497,-220 497,-239"/>
<text text-anchor="middle" x="461" y="-227" font-family="Helvetica,sans-Serif" font-size="10.00">sys/types.h</text>
</a>
</g>
</g>
<!-- Node3&#45;&gt;Node13 -->
<g id="edge12_Node000003_Node000013" class="edge">
<title>Node3&#45;&gt;Node13</title>
<g id="a_edge12_Node000003_Node000013"><a xlink:title=" ">
<path fill="none" stroke="#63b8ff" d="M543.25,-274.98C527.77,-266.61 503.91,-253.7 485.86,-243.95"/>
<polygon fill="#63b8ff" stroke="#63b8ff" points="487.49,-240.85 477.03,-239.17 484.16,-247.01 487.49,-240.85"/>
</a>
</g>
</g>
<!-- Node3&#45;&gt;Node14 -->
<g id="edge13_Node000003_Node000014" class="edge">
<title>Node3&#45;&gt;Node14</title>
<g id="a_edge13_Node000003_Node000014"><a xlink:title=" ">
<path fill="none" stroke="#63b8ff" d="M507.03,-274.99C454.87,-266.34 372.26,-252.35 301,-239 299.54,-238.73 298.05,-238.44 296.54,-238.15"/>
<polygon fill="#63b8ff" stroke="#63b8ff" points="297.03,-234.68 286.54,-236.19 295.68,-241.55 297.03,-234.68"/>
</a>
</g>
</g>
<!-- Node3&#45;&gt;Node24 -->
<g id="edge31_Node000003_Node000024" class="edge">
<title>Node3&#45;&gt;Node24</title>
<g id="a_edge31_Node000003_Node000024"><a xlink:title=" ">
<path fill="none" stroke="#63b8ff" d="M607.36,-274.98C663.84,-265.04 756.65,-248.7 812.68,-238.83"/>
<polygon fill="#63b8ff" stroke="#63b8ff" points="813.45,-242.25 822.69,-237.07 812.24,-235.36 813.45,-242.25"/>
</a>
</g>
</g>
<!-- Node15 -->
<g id="Node000015" class="node">
<title>Node15</title>
<g id="a_Node000015"><a xlink:href="_log_outputter_console_8hpp.html" target="_top" xlink:title=" ">
<polygon fill="white" stroke="#666666" points="206,-184 66,-184 66,-165 206,-165 206,-184"/>
<text text-anchor="middle" x="136" y="-172" font-family="Helvetica,sans-Serif" font-size="10.00">LogOutputterConsole.hpp</text>
</a>
</g>
</g>
<!-- Node14&#45;&gt;Node15 -->
<g id="edge14_Node000014_Node000015" class="edge">
<title>Node14&#45;&gt;Node15</title>
<g id="a_edge14_Node000014_Node000015"><a xlink:title=" ">
<path fill="none" stroke="#63b8ff" d="M239.24,-219.98C219.27,-211.38 188.2,-197.99 165.35,-188.15"/>
<polygon fill="#63b8ff" stroke="#63b8ff" points="166.69,-184.91 156.12,-184.17 163.92,-191.34 166.69,-184.91"/>
</a>
</g>
</g>
<!-- Node21 -->
<g id="Node000021" class="node">
<title>Node21</title>
<g id="a_Node000021"><a xlink:href="_log_outputter_file_8hpp.html" target="_top" xlink:title=" ">
<polygon fill="white" stroke="#666666" points="431.5,-184 312.5,-184 312.5,-165 431.5,-165 431.5,-184"/>
<text text-anchor="middle" x="372" y="-172" font-family="Helvetica,sans-Serif" font-size="10.00">LogOutputterFile.hpp</text>
</a>
</g>
</g>
<!-- Node14&#45;&gt;Node21 -->
<g id="edge22_Node000014_Node000021" class="edge">
<title>Node14&#45;&gt;Node21</title>
<g id="a_edge22_Node000014_Node000021"><a xlink:title=" ">
<path fill="none" stroke="#63b8ff" d="M277.16,-219.98C295.25,-211.5 323.28,-198.35 344.19,-188.54"/>
<polygon fill="#63b8ff" stroke="#63b8ff" points="345.95,-191.59 353.51,-184.17 342.97,-185.25 345.95,-191.59"/>
</a>
</g>
</g>
<!-- Node22 -->
<g id="Node000022" class="node">
<title>Node22</title>
<g id="a_Node000022"><a xlink:href="_logger_8hpp.html" target="_top" xlink:title=" ">
<polygon fill="white" stroke="#666666" points="294,-184 224,-184 224,-165 294,-165 294,-184"/>
<text text-anchor="middle" x="259" y="-172" font-family="Helvetica,sans-Serif" font-size="10.00">Logger.hpp</text>
</a>
</g>
</g>
<!-- Node14&#45;&gt;Node22 -->
<g id="edge26_Node000014_Node000022" class="edge">
<title>Node14&#45;&gt;Node22</title>
<g id="a_edge26_Node000014_Node000022"><a xlink:title=" ">
<path fill="none" stroke="#63b8ff" d="M259,-219.75C259,-212.8 259,-202.85 259,-194.13"/>
<polygon fill="#63b8ff" stroke="#63b8ff" points="262.5,-194.09 259,-184.09 255.5,-194.09 262.5,-194.09"/>
</a>
</g>
</g>
<!-- Node15&#45;&gt;Node9 -->
<g id="edge15_Node000015_Node000009" class="edge">
<title>Node15&#45;&gt;Node9</title>
<g id="a_edge15_Node000015_Node000009"><a xlink:title=" ">
<path fill="none" stroke="#63b8ff" d="M206.31,-164.99C277.21,-156.32 389.78,-142.29 487,-129 492.81,-128.21 498.95,-127.34 504.97,-126.47"/>
<polygon fill="#63b8ff" stroke="#63b8ff" points="505.52,-129.93 514.91,-125.02 504.51,-123 505.52,-129.93"/>
</a>
</g>
</g>
<!-- Node16 -->
<g id="Node000016" class="node">
<title>Node16</title>
<g id="a_Node000016"><a xlink:title=" ">
<polygon fill="#e0e0e0" stroke="#999999" points="155,-129 117,-129 117,-110 155,-110 155,-129"/>
<text text-anchor="middle" x="136" y="-117" font-family="Helvetica,sans-Serif" font-size="10.00">map</text>
</a>
</g>
</g>
<!-- Node15&#45;&gt;Node16 -->
<g id="edge16_Node000015_Node000016" class="edge">
<title>Node15&#45;&gt;Node16</title>
<g id="a_edge16_Node000015_Node000016"><a xlink:title=" ">
<path fill="none" stroke="#63b8ff" d="M136,-164.75C136,-157.8 136,-147.85 136,-139.13"/>
<polygon fill="#63b8ff" stroke="#63b8ff" points="139.5,-139.09 136,-129.09 132.5,-139.09 139.5,-139.09"/>
</a>
</g>
</g>
<!-- Node17 -->
<g id="Node000017" class="node">
<title>Node17</title>
<g id="a_Node000017"><a xlink:href="_a_log_outputter_8hpp.html" target="_top" xlink:title=" ">
<polygon fill="white" stroke="#666666" points="394.5,-129 287.5,-129 287.5,-110 394.5,-110 394.5,-129"/>
<text text-anchor="middle" x="341" y="-117" font-family="Helvetica,sans-Serif" font-size="10.00">ALogOutputter.hpp</text>
</a>
</g>
</g>
<!-- Node15&#45;&gt;Node17 -->
<g id="edge17_Node000015_Node000017" class="edge">
<title>Node15&#45;&gt;Node17</title>
<g id="a_edge17_Node000015_Node000017"><a xlink:title=" ">
<path fill="none" stroke="#63b8ff" d="M168.94,-164.98C203.95,-155.93 259.47,-141.58 297.93,-131.64"/>
<polygon fill="#63b8ff" stroke="#63b8ff" points="299,-134.97 307.81,-129.08 297.25,-128.2 299,-134.97"/>
</a>
</g>
</g>
<!-- Node18 -->
<g id="Node000018" class="node">
<title>Node18</title>
<g id="a_Node000018"><a xlink:href="_log_data_8hpp.html" target="_top" xlink:title=" ">
<polygon fill="white" stroke="#666666" points="380,-74 302,-74 302,-55 380,-55 380,-74"/>
<text text-anchor="middle" x="341" y="-62" font-family="Helvetica,sans-Serif" font-size="10.00">LogData.hpp</text>
</a>
</g>
</g>
<!-- Node17&#45;&gt;Node18 -->
<g id="edge18_Node000017_Node000018" class="edge">
<title>Node17&#45;&gt;Node18</title>
<g id="a_edge18_Node000017_Node000018"><a xlink:title=" ">
<path fill="none" stroke="#63b8ff" d="M341,-109.75C341,-102.8 341,-92.85 341,-84.13"/>
<polygon fill="#63b8ff" stroke="#63b8ff" points="344.5,-84.09 341,-74.09 337.5,-84.09 344.5,-84.09"/>
</a>
</g>
</g>
<!-- Node18&#45;&gt;Node11 -->
<g id="edge21_Node000018_Node000011" class="edge">
<title>Node18&#45;&gt;Node11</title>
<g id="a_edge21_Node000018_Node000011"><a xlink:title=" ">
<path fill="none" stroke="#63b8ff" d="M304.05,-54.98C259.47,-44.71 185.27,-27.61 143.02,-17.88"/>
<polygon fill="#63b8ff" stroke="#63b8ff" points="143.79,-14.46 133.26,-15.63 142.21,-21.28 143.79,-14.46"/>
</a>
</g>
</g>
<!-- Node19 -->
<g id="Node000019" class="node">
<title>Node19</title>
<g id="a_Node000019"><a xlink:title=" ">
<polygon fill="#e0e0e0" stroke="#999999" points="581,-19 537,-19 537,0 581,0 581,-19"/>
<text text-anchor="middle" x="559" y="-7" font-family="Helvetica,sans-Serif" font-size="10.00">ctime</text>
</a>
</g>
</g>
<!-- Node18&#45;&gt;Node19 -->
<g id="edge19_Node000018_Node000019" class="edge">
<title>Node18&#45;&gt;Node19</title>
<g id="a_edge19_Node000018_Node000019"><a xlink:title=" ">
<path fill="none" stroke="#63b8ff" d="M376.03,-54.98C417.66,-44.86 486.55,-28.11 526.86,-18.31"/>
<polygon fill="#63b8ff" stroke="#63b8ff" points="527.82,-21.68 536.71,-15.92 526.16,-14.88 527.82,-21.68"/>
</a>
</g>
</g>
<!-- Node18&#45;&gt;Node20 -->
<g id="edge20_Node000018_Node000020" class="edge">
<title>Node18&#45;&gt;Node20</title>
<g id="a_edge20_Node000018_Node000020"><a xlink:title=" ">
<path fill="none" stroke="#63b8ff" d="M380.13,-60.63C506.11,-51.4 900.24,-22.5 1025.43,-13.33"/>
<polygon fill="#63b8ff" stroke="#63b8ff" points="1025.96,-16.8 1035.67,-12.58 1025.45,-9.82 1025.96,-16.8"/>
</a>
</g>
</g>
<!-- Node21&#45;&gt;Node8 -->
<g id="edge23_Node000021_Node000008" class="edge">
<title>Node21&#45;&gt;Node8</title>
<g id="a_edge23_Node000021_Node000008"><a xlink:title=" ">
<path fill="none" stroke="#63b8ff" d="M384.53,-164.98C396.4,-156.92 414.46,-144.65 428.61,-135.03"/>
<polygon fill="#63b8ff" stroke="#63b8ff" points="430.94,-137.69 437.24,-129.17 427,-131.9 430.94,-137.69"/>
</a>
</g>
</g>
<!-- Node21&#45;&gt;Node9 -->
<g id="edge24_Node000021_Node000009" class="edge">
<title>Node21&#45;&gt;Node9</title>
<g id="a_edge24_Node000021_Node000009"><a xlink:title=" ">
<path fill="none" stroke="#63b8ff" d="M399.8,-164.98C428.97,-156.05 475,-141.94 507.4,-132.02"/>
<polygon fill="#63b8ff" stroke="#63b8ff" points="508.45,-135.36 516.99,-129.08 506.4,-128.66 508.45,-135.36"/>
</a>
</g>
</g>
<!-- Node21&#45;&gt;Node17 -->
<g id="edge25_Node000021_Node000017" class="edge">
<title>Node21&#45;&gt;Node17</title>
<g id="a_edge25_Node000021_Node000017"><a xlink:title=" ">
<path fill="none" stroke="#63b8ff" d="M366.88,-164.75C362.64,-157.49 356.47,-146.95 351.22,-137.98"/>
<polygon fill="#63b8ff" stroke="#63b8ff" points="354.09,-135.95 346.02,-129.09 348.05,-139.49 354.09,-135.95"/>
</a>
</g>
</g>
<!-- Node22&#45;&gt;Node11 -->
<g id="edge27_Node000022_Node000011" class="edge">
<title>Node22&#45;&gt;Node11</title>
<g id="a_edge27_Node000022_Node000011"><a xlink:title=" ">
<path fill="none" stroke="#63b8ff" d="M251.04,-164.74C227.35,-138.65 157.01,-61.17 125.98,-27"/>
<polygon fill="#63b8ff" stroke="#63b8ff" points="128.31,-24.36 119,-19.31 123.13,-29.06 128.31,-24.36"/>
</a>
</g>
</g>
<!-- Node22&#45;&gt;Node17 -->
<g id="edge29_Node000022_Node000017" class="edge">
<title>Node22&#45;&gt;Node17</title>
<g id="a_edge29_Node000022_Node000017"><a xlink:title=" ">
<path fill="none" stroke="#63b8ff" d="M272.17,-164.98C284.77,-156.84 304,-144.41 318.94,-134.76"/>
<polygon fill="#63b8ff" stroke="#63b8ff" points="321.09,-137.54 327.59,-129.17 317.29,-131.66 321.09,-137.54"/>
</a>
</g>
</g>
<!-- Node22&#45;&gt;Node18 -->
<g id="edge30_Node000022_Node000018" class="edge">
<title>Node22&#45;&gt;Node18</title>
<g id="a_edge30_Node000022_Node000018"><a xlink:title=" ">
<path fill="none" stroke="#63b8ff" d="M259.95,-164.92C261.76,-151.95 266.66,-127.04 279,-110 288.16,-97.34 302.04,-86.9 314.35,-79.32"/>
<polygon fill="#63b8ff" stroke="#63b8ff" points="316.46,-82.15 323.35,-74.1 312.94,-76.09 316.46,-82.15"/>
</a>
</g>
</g>
<!-- Node22&#45;&gt;Node23 -->
<g id="edge28_Node000022_Node000023" class="edge">
<title>Node22&#45;&gt;Node23</title>
<g id="a_edge28_Node000022_Node000023"><a xlink:title=" ">
<path fill="none" stroke="#63b8ff" d="M294.3,-166.36C297.57,-165.84 300.84,-165.37 304,-165 624.37,-126.97 706.87,-146.78 1029,-129 1065.22,-127 1106.69,-124.45 1135.04,-122.67"/>
<polygon fill="#63b8ff" stroke="#63b8ff" points="1135.46,-126.15 1145.22,-122.02 1135.02,-119.16 1135.46,-126.15"/>
</a>
</g>
</g>
<!-- Node24&#45;&gt;Node9 -->
<g id="edge41_Node000024_Node000009" class="edge">
<title>Node24&#45;&gt;Node9</title>
<g id="a_edge41_Node000024_Node000009"><a xlink:title=" ">
<path fill="none" stroke="#63b8ff" d="M841.4,-219.9C804.96,-203.05 727.12,-167.15 721,-165 675.4,-148.97 621.27,-136.17 585.2,-128.49"/>
<polygon fill="#63b8ff" stroke="#63b8ff" points="585.57,-125 575.07,-126.37 584.14,-131.85 585.57,-125"/>
</a>
</g>
</g>
<!-- Node24&#45;&gt;Node19 -->
<g id="edge40_Node000024_Node000019" class="edge">
<title>Node24&#45;&gt;Node19</title>
<g id="a_edge40_Node000024_Node000019"><a xlink:title=" ">
<path fill="none" stroke="#63b8ff" d="M847.41,-219.69C834.66,-210.75 814.41,-196.49 797,-184 715.72,-125.67 619.67,-55.16 578.9,-25.16"/>
<polygon fill="#63b8ff" stroke="#63b8ff" points="580.97,-22.34 570.84,-19.23 576.82,-27.98 580.97,-22.34"/>
</a>
</g>
</g>
<!-- Node24&#45;&gt;Node20 -->
<g id="edge42_Node000024_Node000020" class="edge">
<title>Node24&#45;&gt;Node20</title>
<g id="a_edge42_Node000024_Node000020"><a xlink:title=" ">
<path fill="none" stroke="#63b8ff" d="M897.28,-224.57C945.55,-218.67 1025.79,-205.82 1045,-184 1083.5,-140.27 1074.89,-64.36 1068.21,-29.28"/>
<polygon fill="#63b8ff" stroke="#63b8ff" points="1071.55,-28.13 1066.09,-19.05 1064.69,-29.55 1071.55,-28.13"/>
</a>
</g>
</g>
<!-- Node24&#45;&gt;Node23 -->
<g id="edge44_Node000024_Node000023" class="edge">
<title>Node24&#45;&gt;Node23</title>
<g id="a_edge44_Node000024_Node000023"><a xlink:title=" ">
<path fill="none" stroke="#63b8ff" d="M897.24,-225.53C941.77,-220.95 1017.83,-209.82 1078,-184 1105.99,-171.99 1134.12,-150.59 1151.54,-135.98"/>
<polygon fill="#63b8ff" stroke="#63b8ff" points="1153.87,-138.59 1159.18,-129.43 1149.32,-133.28 1153.87,-138.59"/>
</a>
</g>
</g>
<!-- Node25 -->
<g id="Node000025" class="node">
<title>Node25</title>
<g id="a_Node000025"><a xlink:href="_method_8hpp.html" target="_top" xlink:title=" ">
<polygon fill="white" stroke="#666666" points="600,-184 526,-184 526,-165 600,-165 600,-184"/>
<text text-anchor="middle" x="563" y="-172" font-family="Helvetica,sans-Serif" font-size="10.00">Method.hpp</text>
</a>
</g>
</g>
<!-- Node24&#45;&gt;Node25 -->
<g id="edge32_Node000024_Node000025" class="edge">
<title>Node24&#45;&gt;Node25</title>
<g id="a_edge32_Node000024_Node000025"><a xlink:title=" ">
<path fill="none" stroke="#63b8ff" d="M822.72,-221.9C775.77,-213.57 692.35,-198.76 610.21,-184.03"/>
<polygon fill="#63b8ff" stroke="#63b8ff" points="610.66,-180.56 600.2,-182.24 609.42,-187.45 610.66,-180.56"/>
</a>
</g>
</g>
<!-- Node26 -->
<g id="Node000026" class="node">
<title>Node26</title>
<g id="a_Node000026"><a xlink:href="_status_code_8hpp.html" target="_top" xlink:title=" ">
<polygon fill="white" stroke="#666666" points="711.5,-184 618.5,-184 618.5,-165 711.5,-165 711.5,-184"/>
<text text-anchor="middle" x="665" y="-172" font-family="Helvetica,sans-Serif" font-size="10.00">StatusCode.hpp</text>
</a>
</g>
</g>
<!-- Node24&#45;&gt;Node26 -->
<g id="edge34_Node000024_Node000026" class="edge">
<title>Node24&#45;&gt;Node26</title>
<g id="a_edge34_Node000024_Node000026"><a xlink:title=" ">
<path fill="none" stroke="#63b8ff" d="M828.67,-219.98C795.51,-210.97 743,-196.7 706.44,-186.76"/>
<polygon fill="#63b8ff" stroke="#63b8ff" points="707.14,-183.33 696.58,-184.08 705.31,-190.08 707.14,-183.33"/>
</a>
</g>
</g>
<!-- Node27 -->
<g id="Node000027" class="node">
<title>Node27</title>
<g id="a_Node000027"><a xlink:href="constants_8hpp.html" target="_top" xlink:title=" ">
<polygon fill="white" stroke="#666666" points="1035.5,-184 950.5,-184 950.5,-165 1035.5,-165 1035.5,-184"/>
<text text-anchor="middle" x="993" y="-172" font-family="Helvetica,sans-Serif" font-size="10.00">constants.hpp</text>
</a>
</g>
</g>
<!-- Node24&#45;&gt;Node27 -->
<g id="edge36_Node000024_Node000027" class="edge">
<title>Node24&#45;&gt;Node27</title>
<g id="a_edge36_Node000024_Node000027"><a xlink:title=" ">
<path fill="none" stroke="#63b8ff" d="M881.37,-219.98C903.15,-211.3 937.16,-197.75 961.92,-187.88"/>
<polygon fill="#63b8ff" stroke="#63b8ff" points="963.25,-191.12 971.24,-184.17 960.66,-184.62 963.25,-191.12"/>
</a>
</g>
</g>
<!-- Node29 -->
<g id="Node000029" class="node">
<title>Node29</title>
<g id="a_Node000029"><a xlink:title=" ">
<polygon fill="#e0e0e0" stroke="#999999" points="1194,-184 1130,-184 1130,-165 1194,-165 1194,-184"/>
<text text-anchor="middle" x="1162" y="-172" font-family="Helvetica,sans-Serif" font-size="10.00">algorithm</text>
</a>
</g>
</g>
<!-- Node24&#45;&gt;Node29 -->
<g id="edge38_Node000024_Node000029" class="edge">
<title>Node24&#45;&gt;Node29</title>
<g id="a_edge38_Node000024_Node000029"><a xlink:title=" ">
<path fill="none" stroke="#63b8ff" d="M897.33,-222.14C947.2,-213.61 1038.3,-197.93 1116,-184 1117.26,-183.77 1118.54,-183.54 1119.83,-183.31"/>
<polygon fill="#63b8ff" stroke="#63b8ff" points="1120.63,-186.72 1129.84,-181.49 1119.37,-179.84 1120.63,-186.72"/>
</a>
</g>
</g>
<!-- Node30 -->
<g id="Node000030" class="node">
<title>Node30</title>
<g id="a_Node000030"><a xlink:title=" ">
<polygon fill="#e0e0e0" stroke="#999999" points="858,-184 806,-184 806,-165 858,-165 858,-184"/>
<text text-anchor="middle" x="832" y="-172" font-family="Helvetica,sans-Serif" font-size="10.00">cassert</text>
</a>
</g>
</g>
<!-- Node24&#45;&gt;Node30 -->
<g id="edge39_Node000024_Node000030" class="edge">
<title>Node24&#45;&gt;Node30</title>
<g id="a_edge39_Node000024_Node000030"><a xlink:title=" ">
<path fill="none" stroke="#63b8ff" d="M855.38,-219.75C851.54,-212.49 845.98,-201.95 841.24,-192.98"/>
<polygon fill="#63b8ff" stroke="#63b8ff" points="844.3,-191.3 836.54,-184.09 838.11,-194.57 844.3,-191.3"/>
</a>
</g>
</g>
<!-- Node31 -->
<g id="Node000031" class="node">
<title>Node31</title>
<g id="a_Node000031"><a xlink:title=" ">
<polygon fill="#e0e0e0" stroke="#999999" points="932,-184 876,-184 876,-165 932,-165 932,-184"/>
<text text-anchor="middle" x="904" y="-172" font-family="Helvetica,sans-Serif" font-size="10.00">unistd.h</text>
</a>
</g>
</g>
<!-- Node24&#45;&gt;Node31 -->
<g id="edge43_Node000024_Node000031" class="edge">
<title>Node24&#45;&gt;Node31</title>
<g id="a_edge43_Node000024_Node000031"><a xlink:title=" ">
<path fill="none" stroke="#63b8ff" d="M867.27,-219.75C873.54,-212.18 882.79,-201.05 890.43,-191.84"/>
<polygon fill="#63b8ff" stroke="#63b8ff" points="893.17,-194.02 896.87,-184.09 887.79,-189.55 893.17,-194.02"/>
</a>
</g>
</g>
<!-- Node25&#45;&gt;Node9 -->
<g id="edge33_Node000025_Node000009" class="edge">
<title>Node25&#45;&gt;Node9</title>
<g id="a_edge33_Node000025_Node000009"><a xlink:title=" ">
<path fill="none" stroke="#63b8ff" d="M560.03,-164.75C557.64,-157.72 554.21,-147.62 551.23,-138.84"/>
<polygon fill="#63b8ff" stroke="#63b8ff" points="554.45,-137.43 547.92,-129.09 547.82,-139.68 554.45,-137.43"/>
</a>
</g>
</g>
<!-- Node26&#45;&gt;Node9 -->
<g id="edge35_Node000026_Node000009" class="edge">
<title>Node26&#45;&gt;Node9</title>
<g id="a_edge35_Node000026_Node000009"><a xlink:title=" ">
<path fill="none" stroke="#63b8ff" d="M645.72,-164.98C626.33,-156.42 596.19,-143.11 573.93,-133.28"/>
<polygon fill="#63b8ff" stroke="#63b8ff" points="575.19,-130.01 564.63,-129.17 572.36,-136.41 575.19,-130.01"/>
</a>
</g>
</g>
<!-- Node28 -->
<g id="Node000028" class="node">
<title>Node28</title>
<g id="a_Node000028"><a xlink:title=" ">
<polygon fill="#e0e0e0" stroke="#999999" points="1019.5,-129 966.5,-129 966.5,-110 1019.5,-110 1019.5,-129"/>
<text text-anchor="middle" x="993" y="-117" font-family="Helvetica,sans-Serif" font-size="10.00">cstddef</text>
</a>
</g>
</g>
<!-- Node27&#45;&gt;Node28 -->
<g id="edge37_Node000027_Node000028" class="edge">
<title>Node27&#45;&gt;Node28</title>
<g id="a_edge37_Node000027_Node000028"><a xlink:title=" ">
<path fill="none" stroke="#63b8ff" d="M993,-164.75C993,-157.8 993,-147.85 993,-139.13"/>
<polygon fill="#63b8ff" stroke="#63b8ff" points="996.5,-139.09 993,-129.09 989.5,-139.09 996.5,-139.09"/>
</a>
</g>
</g>
<!-- Node32&#45;&gt;Node3 -->
<g id="edge46_Node000032_Node000003" class="edge">
<title>Node32&#45;&gt;Node3</title>
<g id="a_edge46_Node000032_Node000003"><a xlink:title=" ">
<path fill="none" stroke="#63b8ff" d="M947.25,-333.47C874.05,-324.42 719.49,-305.33 629.02,-294.15"/>
<polygon fill="#63b8ff" stroke="#63b8ff" points="629.2,-290.65 618.85,-292.89 628.35,-297.59 629.2,-290.65"/>
</a>
</g>
</g>
<!-- Node32&#45;&gt;Node23 -->
<g id="edge47_Node000032_Node000023" class="edge">
<title>Node32&#45;&gt;Node23</title>
<g id="a_edge47_Node000032_Node000023"><a xlink:title=" ">
<path fill="none" stroke="#63b8ff" d="M1012.4,-329.91C1059.85,-311.69 1163.37,-264.14 1203,-184 1211.17,-167.48 1198.66,-148.93 1186.57,-136.17"/>
<polygon fill="#63b8ff" stroke="#63b8ff" points="1188.89,-133.53 1179.29,-129.04 1183.99,-138.53 1188.89,-133.53"/>
</a>
</g>
</g>
<!-- Node32&#45;&gt;Node29 -->
<g id="edge48_Node000032_Node000029" class="edge">
<title>Node32&#45;&gt;Node29</title>
<g id="a_edge48_Node000032_Node000029"><a xlink:title=" ">
<path fill="none" stroke="#63b8ff" d="M997.35,-329.74C1025.44,-303.42 1109.32,-224.85 1145.3,-191.14"/>
<polygon fill="#63b8ff" stroke="#63b8ff" points="1147.69,-193.7 1152.6,-184.31 1142.91,-188.59 1147.69,-193.7"/>
</a>
</g>
</g>
</g>
</svg>

<g id="navigator" transform="translate(0 0)" fill="#404254">
  <rect fill="#f2f5e9" fill-opacity="0.5" stroke="#606060" stroke-width=".5" x="0" y="0" width="60" height="60"/>
  <use id="zoomplus" xlink:href="#zoomPlus" x="17" y="9" onmousedown="handleZoom(evt,'in')"/>
  <use id="zoomminus" xlink:href="#zoomMin" x="42" y="9" onmousedown="handleZoom(evt,'out')"/>
  <use id="reset" xlink:href="#resetDef" x="30" y="36" onmousedown="handleReset()"/>
   <use id="arrowup" xlink:href="#arrowUp" x="0" y="0" onmousedown="handlePan(0,-1)"/>
  <use id="arrowright" xlink:href="#arrowRight" x="0" y="0" onmousedown="handlePan(1,0)"/>
  <use id="arrowdown" xlink:href="#arrowDown" x="0" y="0" onmousedown="handlePan(0,1)"/>
  <use id="arrowleft" xlink:href="#arrowLeft" x="0" y="0" onmousedown="handlePan(-1,0)"/>
</g>
<svg viewBox="0 0 15 15" width="100%" height="30px" preserveAspectRatio="xMaxYMin meet">
 <g id="arrow_out" transform="scale(0.3 0.3)">
  <a xlink:href="_autoindex_handler_8cpp__incl_org.svg" target="_base">
   <rect id="button" ry="5" rx="5" y="6" x="6" height="38" width="38"
        fill="#f2f5e9" fill-opacity="0.5" stroke="#606060" stroke-width="1.0"/>
   <path id="arrow"
     d="M 11.500037,31.436501 C 11.940474,20.09759 22.043105,11.32322 32.158766,21.979434 L 37.068811,17.246167 C 37.068811,17.246167 37.088388,32 37.088388,32 L 22.160133,31.978069 C 22.160133,31.978069 26.997745,27.140456 26.997745,27.140456 C 18.528582,18.264221 13.291696,25.230495 11.500037,31.436501 z"
     style="fill:#404040;"/>
  </a>
 </g>
</svg>

<style type='text/css'>
<![CDATA[
[data-mouse-over-selected='false'] { opacity: 0.7; }
[data-mouse-over-selected='true']  { opacity: 1.0; }
]]>
</style>
<script type="application/ecmascript"><![CDATA[
document.addEventListener('DOMContentLoaded', (event) => {
  highlightEdges();
  highlightAdjacentNodes();
});
]]></script>
</svg>
