<?xml version="1.0" encoding="UTF-8" standalone="no"?>
<!DOCTYPE svg PUBLIC "-//W3C//DTD SVG 1.1//EN"
 "http://www.w3.org/Graphics/SVG/1.1/DTD/svg11.dtd">
<!-- Generated by graphviz version 2.43.0 (0)
 -->
<!-- Title: src/AutoindexHandler.cpp Pages: 1 -->
<!--zoomable 467 -->

<svg id="main" version="1.1" xmlns="http://www.w3.org/2000/svg" xmlns:xlink="http://www.w3.org/1999/xlink" xml:space="preserve" onload="init(evt)">
<style type="text/css"><![CDATA[
.node, .edge {opacity: 0.7;}
.node.selected, .edge.selected {opacity: 1;}
.edge:hover path { stroke: red; }
.edge:hover polygon { stroke: red; fill: red; }
]]></style>

<defs>
  <circle id="rim" cx="0" cy="0" r="7"/>
  <circle id="rim2" cx="0" cy="0" r="3.5"/>
  <g id="zoomPlus">
    <use xlink:href="#rim" fill="#404040"><set attributeName="fill" to="#808080" begin="zoomplus.mouseover" end="zoomplus.mouseout"/></use>
    <path d="M-4,0h8M0,-4v8" fill="none" stroke="white" stroke-width="1.5" pointer-events="none"/>
  </g>
  <g id="zoomMin">
    <use xlink:href="#rim" fill="#404040"><set attributeName="fill" to="#808080" begin="zoomminus.mouseover" end="zoomminus.mouseout"/></use>
    <path d="M-4,0h8" fill="none" stroke="white" stroke-width="1.5" pointer-events="none"/>
  </g>
  <g id="arrowUp" transform="translate(30 24)">
    <use xlink:href="#rim"/>
    <path pointer-events="none" fill="none" stroke="white" stroke-width="1.5" d="M0,-3.0v7 M-2.5,-0.5L0,-3.0L2.5,-0.5"/>
  </g>
  <g id="arrowRight" transform="rotate(90) translate(36 -43)">
    <use xlink:href="#rim"/>
    <path pointer-events="none" fill="none" stroke="white" stroke-width="1.5" d="M0,-3.0v7 M-2.5,-0.5L0,-3.0L2.5,-0.5"/>
  </g>
  <g id="arrowDown" transform="rotate(180) translate(-30 -48)">
    <use xlink:href="#rim"/>
    <path pointer-events="none" fill="none" stroke="white" stroke-width="1.5" d="M0,-3.0v7 M-2.5,-0.5L0,-3.0L2.5,-0.5"/>
  </g>
  <g id="arrowLeft" transform="rotate(270) translate(-36 17)">
    <use xlink:href="#rim"/>
    <path pointer-events="none" fill="none" stroke="white" stroke-width="1.5" d="M0,-3.0v7 M-2.5,-0.5L0,-3.0L2.5,-0.5"/>
  </g>
  <g id="resetDef">
    <use xlink:href="#rim2" fill="#404040"><set attributeName="fill" to="#808080" begin="reset.mouseover" end="reset.mouseout"/></use>
  </g>
</defs>
<script type="application/ecmascript">
var viewWidth = 1449;
var viewHeight = 467;
var sectionId = 'dynsection-0';
</script>
<script type="application/ecmascript" xlink:href="svg.min.js"/>
<svg id="graph" class="graph">
<g id="viewport">
<title>src/AutoindexHandler.cpp</title>
<!-- Node1 -->
<g id="Node000001" class="node">
<title>Node1</title>
<g id="a_Node000001"><a xlink:title=" ">
<polygon fill="#999999" stroke="#666666" points="787.5,-459 646.5,-459 646.5,-440 787.5,-440 787.5,-459"/>
<text text-anchor="middle" x="717" y="-447" font-family="Helvetica,sans-Serif" font-size="10.00">src/AutoindexHandler.cpp</text>
</a>
</g>
</g>
<!-- Node2 -->
<g id="Node000002" class="node">
<title>Node2</title>
<g id="a_Node000002"><a xlink:href="_autoindex_handler_8hpp.html" target="_top" xlink:title=" ">
<polygon fill="white" stroke="#666666" points="779.5,-404 654.5,-404 654.5,-385 779.5,-385 779.5,-404"/>
<text text-anchor="middle" x="717" y="-392" font-family="Helvetica,sans-Serif" font-size="10.00">AutoindexHandler.hpp</text>
</a>
</g>
</g>
<!-- Node1&#45;&gt;Node2 -->
<g id="edge1_Node000001_Node000002" class="edge">
<title>Node1&#45;&gt;Node2</title>
<g id="a_edge1_Node000001_Node000002"><a xlink:title=" ">
<path fill="none" stroke="#63b8ff" d="M717,-439.75C717,-432.8 717,-422.85 717,-414.13"/>
<polygon fill="#63b8ff" stroke="#63b8ff" points="720.5,-414.09 717,-404.09 713.5,-414.09 720.5,-414.09"/>
</a>
</g>
</g>
<!-- Node3 -->
<g id="Node000003" class="node">
<title>Node3</title>
<g id="a_Node000003"><a xlink:href="_directory_8hpp.html" target="_top" xlink:title=" ">
<polygon fill="white" stroke="#666666" points="784.5,-349 703.5,-349 703.5,-330 784.5,-330 784.5,-349"/>
<text text-anchor="middle" x="744" y="-337" font-family="Helvetica,sans-Serif" font-size="10.00">Directory.hpp</text>
</a>
</g>
</g>
<!-- Node2&#45;&gt;Node3 -->
<g id="edge2_Node000002_Node000003" class="edge">
<title>Node2&#45;&gt;Node3</title>
<g id="a_edge2_Node000002_Node000003"><a xlink:title=" ">
<path fill="none" stroke="#63b8ff" d="M721.46,-384.75C725.12,-377.57 730.41,-367.18 734.95,-358.27"/>
<polygon fill="#63b8ff" stroke="#63b8ff" points="738.2,-359.59 739.62,-349.09 731.97,-356.41 738.2,-359.59"/>
</a>
</g>
</g>
<!-- Node4 -->
<g id="Node000004" class="node">
<title>Node4</title>
<g id="a_Node000004"><a xlink:href="_file_system_ops_8hpp.html" target="_top" xlink:title=" ">
<polygon fill="white" stroke="#666666" points="547,-294 437,-294 437,-275 547,-275 547,-294"/>
<text text-anchor="middle" x="492" y="-282" font-family="Helvetica,sans-Serif" font-size="10.00">FileSystemOps.hpp</text>
</a>
</g>
</g>
<!-- Node2&#45;&gt;Node4 -->
<g id="edge50_Node000002_Node000004" class="edge">
<title>Node2&#45;&gt;Node4</title>
<g id="a_edge50_Node000002_Node000004"><a xlink:title=" ">
<path fill="none" stroke="#63b8ff" d="M698.97,-384.84C659.54,-365.92 565.47,-320.77 518.97,-298.45"/>
<polygon fill="#63b8ff" stroke="#63b8ff" points="520.34,-295.22 509.81,-294.05 517.31,-301.53 520.34,-295.22"/>
</a>
</g>
</g>
<!-- Node11 -->
<g id="Node000011" class="node">
<title>Node11</title>
<g id="a_Node000011"><a xlink:title=" ">
<polygon fill="#e0e0e0" stroke="#999999" points="93.5,-239 28.5,-239 28.5,-220 93.5,-220 93.5,-239"/>
<text text-anchor="middle" x="61" y="-227" font-family="Helvetica,sans-Serif" font-size="10.00">stdexcept</text>
</a>
</g>
</g>
<!-- Node2&#45;&gt;Node11 -->
<g id="edge54_Node000002_Node000011" class="edge">
<title>Node2&#45;&gt;Node11</title>
<g id="a_edge54_Node000002_Node000011"><a xlink:title=" ">
<path fill="none" stroke="#63b8ff" d="M682.65,-384.97C572.12,-357.5 225.73,-271.43 103.9,-241.16"/>
<polygon fill="#63b8ff" stroke="#63b8ff" points="104.38,-237.67 93.83,-238.66 102.69,-244.47 104.38,-237.67"/>
</a>
</g>
</g>
<!-- Node12 -->
<g id="Node000012" class="node">
<title>Node12</title>
<g id="a_Node000012"><a xlink:title=" ">
<polygon fill="#e0e0e0" stroke="#999999" points="459,-19 415,-19 415,0 459,0 459,-19"/>
<text text-anchor="middle" x="437" y="-7" font-family="Helvetica,sans-Serif" font-size="10.00">string</text>
</a>
</g>
</g>
<!-- Node2&#45;&gt;Node12 -->
<g id="edge55_Node000002_Node000012" class="edge">
<title>Node2&#45;&gt;Node12</title>
<g id="a_edge55_Node000002_Node000012"><a xlink:title=" ">
<path fill="none" stroke="#63b8ff" d="M654.31,-390.61C479.61,-381.74 0,-351.39 0,-285.5 0,-285.5 0,-285.5 0,-118.5 0,-35.18 303.18,-15.73 404.48,-11.56"/>
<polygon fill="#63b8ff" stroke="#63b8ff" points="404.87,-15.05 414.73,-11.16 404.6,-8.05 404.87,-15.05"/>
</a>
</g>
</g>
<!-- Node15 -->
<g id="Node000015" class="node">
<title>Node15</title>
<g id="a_Node000015"><a xlink:href="_log_8hpp.html" target="_top" xlink:title=" ">
<polygon fill="white" stroke="#666666" points="685.5,-239 630.5,-239 630.5,-220 685.5,-220 685.5,-239"/>
<text text-anchor="middle" x="658" y="-227" font-family="Helvetica,sans-Serif" font-size="10.00">Log.hpp</text>
</a>
</g>
</g>
<!-- Node2&#45;&gt;Node15 -->
<g id="edge51_Node000002_Node000015" class="edge">
<title>Node2&#45;&gt;Node15</title>
<g id="a_edge51_Node000002_Node000015"><a xlink:title=" ">
<path fill="none" stroke="#63b8ff" d="M712.2,-384.82C707.44,-375.98 700.13,-361.8 695,-349 681.17,-314.46 669.16,-272.61 662.81,-249.02"/>
<polygon fill="#63b8ff" stroke="#63b8ff" points="666.18,-248.06 660.24,-239.29 659.41,-249.85 666.18,-248.06"/>
</a>
</g>
</g>
<!-- Node21 -->
<g id="Node000021" class="node">
<title>Node21</title>
<g id="a_Node000021"><a xlink:title=" ">
<polygon fill="#e0e0e0" stroke="#999999" points="1167,-19 1111,-19 1111,0 1167,0 1167,-19"/>
<text text-anchor="middle" x="1139" y="-7" font-family="Helvetica,sans-Serif" font-size="10.00">sstream</text>
</a>
</g>
</g>
<!-- Node2&#45;&gt;Node21 -->
<g id="edge53_Node000002_Node000021" class="edge">
<title>Node2&#45;&gt;Node21</title>
<g id="a_edge53_Node000002_Node000021"><a xlink:title=" ">
<path fill="none" stroke="#63b8ff" d="M779.8,-394.28C884.02,-394.3 1098.7,-388.88 1275,-349 1352.04,-331.57 1441,-364.49 1441,-285.5 1441,-285.5 1441,-285.5 1441,-118.5 1441,-63.15 1258.84,-28.63 1177.47,-15.97"/>
<polygon fill="#63b8ff" stroke="#63b8ff" points="1177.55,-12.45 1167.14,-14.4 1176.5,-19.37 1177.55,-12.45"/>
</a>
</g>
</g>
<!-- Node24 -->
<g id="Node000024" class="node">
<title>Node24</title>
<g id="a_Node000024"><a xlink:title=" ">
<polygon fill="#e0e0e0" stroke="#999999" points="1388.5,-129 1341.5,-129 1341.5,-110 1388.5,-110 1388.5,-129"/>
<text text-anchor="middle" x="1365" y="-117" font-family="Helvetica,sans-Serif" font-size="10.00">vector</text>
</a>
</g>
</g>
<!-- Node2&#45;&gt;Node24 -->
<g id="edge56_Node000002_Node000024" class="edge">
<title>Node2&#45;&gt;Node24</title>
<g id="a_edge56_Node000002_Node000024"><a xlink:title=" ">
<path fill="none" stroke="#63b8ff" d="M779.7,-390.18C949.04,-380.38 1403,-348.27 1403,-285.5 1403,-285.5 1403,-285.5 1403,-228.5 1403,-195.02 1386.55,-158.84 1375.3,-138.01"/>
<polygon fill="#63b8ff" stroke="#63b8ff" points="1378.24,-136.1 1370.28,-129.1 1372.13,-139.53 1378.24,-136.1"/>
</a>
</g>
</g>
<!-- Node25 -->
<g id="Node000025" class="node">
<title>Node25</title>
<g id="a_Node000025"><a xlink:href="utilities_8hpp.html" target="_top" xlink:title=" ">
<polygon fill="white" stroke="#666666" points="1021,-239 947,-239 947,-220 1021,-220 1021,-239"/>
<text text-anchor="middle" x="984" y="-227" font-family="Helvetica,sans-Serif" font-size="10.00">utilities.hpp</text>
</a>
</g>
</g>
<!-- Node2&#45;&gt;Node25 -->
<g id="edge52_Node000002_Node000025" class="edge">
<title>Node2&#45;&gt;Node25</title>
<g id="a_edge52_Node000002_Node000025"><a xlink:title=" ">
<path fill="none" stroke="#63b8ff" d="M732.14,-384.95C747.73,-376.1 772.69,-361.8 794,-349 855.19,-312.25 926.33,-267.27 961.68,-244.76"/>
<polygon fill="#63b8ff" stroke="#63b8ff" points="963.72,-247.61 970.27,-239.28 959.96,-241.71 963.72,-247.61"/>
</a>
</g>
</g>
<!-- Node3&#45;&gt;Node4 -->
<g id="edge3_Node000003_Node000004" class="edge">
<title>Node3&#45;&gt;Node4</title>
<g id="a_edge3_Node000003_Node000004"><a xlink:title=" ">
<path fill="none" stroke="#63b8ff" d="M703.51,-329.98C659.83,-320.8 590.19,-306.15 542.85,-296.19"/>
<polygon fill="#63b8ff" stroke="#63b8ff" points="543.31,-292.72 532.81,-294.08 541.87,-299.57 543.31,-292.72"/>
</a>
</g>
</g>
<!-- Node3&#45;&gt;Node24 -->
<g id="edge49_Node000003_Node000024" class="edge">
<title>Node3&#45;&gt;Node24</title>
<g id="a_edge49_Node000003_Node000024"><a xlink:title=" ">
<path fill="none" stroke="#63b8ff" d="M784.85,-336.44C884.27,-329.65 1143.39,-301.11 1317,-184 1334.13,-172.45 1347.62,-152.73 1355.88,-138.33"/>
<polygon fill="#63b8ff" stroke="#63b8ff" points="1359.05,-139.83 1360.75,-129.37 1352.9,-136.49 1359.05,-139.83"/>
</a>
</g>
</g>
<!-- Node31 -->
<g id="Node000031" class="node">
<title>Node31</title>
<g id="a_Node000031"><a xlink:title=" ">
<polygon fill="#e0e0e0" stroke="#999999" points="799,-184 735,-184 735,-165 799,-165 799,-184"/>
<text text-anchor="middle" x="767" y="-172" font-family="Helvetica,sans-Serif" font-size="10.00">algorithm</text>
</a>
</g>
</g>
<!-- Node3&#45;&gt;Node31 -->
<g id="edge48_Node000003_Node000031" class="edge">
<title>Node3&#45;&gt;Node31</title>
<g id="a_edge48_Node000003_Node000031"><a xlink:title=" ">
<path fill="none" stroke="#63b8ff" d="M745.24,-329.74C748.84,-304.2 759.39,-229.43 764.36,-194.23"/>
<polygon fill="#63b8ff" stroke="#63b8ff" points="767.83,-194.7 765.76,-184.31 760.89,-193.72 767.83,-194.7"/>
</a>
</g>
</g>
<!-- Node5 -->
<g id="Node000005" class="node">
<title>Node5</title>
<g id="a_Node000005"><a xlink:title=" ">
<polygon fill="#e0e0e0" stroke="#999999" points="249.5,-239 202.5,-239 202.5,-220 249.5,-220 249.5,-239"/>
<text text-anchor="middle" x="226" y="-227" font-family="Helvetica,sans-Serif" font-size="10.00">cerrno</text>
</a>
</g>
</g>
<!-- Node4&#45;&gt;Node5 -->
<g id="edge4_Node000004_Node000005" class="edge">
<title>Node4&#45;&gt;Node5</title>
<g id="a_edge4_Node000004_Node000005"><a xlink:title=" ">
<path fill="none" stroke="#63b8ff" d="M446.5,-275C400.43,-266.3 327.16,-252.22 264,-239 262.55,-238.7 261.08,-238.38 259.58,-238.06"/>
<polygon fill="#63b8ff" stroke="#63b8ff" points="260.21,-234.62 249.7,-235.91 258.72,-241.46 260.21,-234.62"/>
</a>
</g>
</g>
<!-- Node6 -->
<g id="Node000006" class="node">
<title>Node6</title>
<g id="a_Node000006"><a xlink:title=" ">
<polygon fill="#e0e0e0" stroke="#999999" points="352,-239 306,-239 306,-220 352,-220 352,-239"/>
<text text-anchor="middle" x="329" y="-227" font-family="Helvetica,sans-Serif" font-size="10.00">cstdio</text>
</a>
</g>
</g>
<!-- Node4&#45;&gt;Node6 -->
<g id="edge5_Node000004_Node000006" class="edge">
<title>Node4&#45;&gt;Node6</title>
<g id="a_edge5_Node000004_Node000006"><a xlink:title=" ">
<path fill="none" stroke="#63b8ff" d="M465.81,-274.98C437.59,-265.81 392.63,-251.19 362.01,-241.23"/>
<polygon fill="#63b8ff" stroke="#63b8ff" points="362.81,-237.81 352.22,-238.05 360.65,-244.47 362.81,-237.81"/>
</a>
</g>
</g>
<!-- Node7 -->
<g id="Node000007" class="node">
<title>Node7</title>
<g id="a_Node000007"><a xlink:title=" ">
<polygon fill="#e0e0e0" stroke="#999999" points="420,-239 370,-239 370,-220 420,-220 420,-239"/>
<text text-anchor="middle" x="395" y="-227" font-family="Helvetica,sans-Serif" font-size="10.00">cstring</text>
</a>
</g>
</g>
<!-- Node4&#45;&gt;Node7 -->
<g id="edge6_Node000004_Node000007" class="edge">
<title>Node4&#45;&gt;Node7</title>
<g id="a_edge6_Node000004_Node000007"><a xlink:title=" ">
<path fill="none" stroke="#63b8ff" d="M476.42,-274.98C461.23,-266.69 437.9,-253.94 420.1,-244.22"/>
<polygon fill="#63b8ff" stroke="#63b8ff" points="421.32,-240.89 410.87,-239.17 417.97,-247.04 421.32,-240.89"/>
</a>
</g>
</g>
<!-- Node8 -->
<g id="Node000008" class="node">
<title>Node8</title>
<g id="a_Node000008"><a xlink:title=" ">
<polygon fill="#e0e0e0" stroke="#999999" points="492,-239 438,-239 438,-220 492,-220 492,-239"/>
<text text-anchor="middle" x="465" y="-227" font-family="Helvetica,sans-Serif" font-size="10.00">dirent.h</text>
</a>
</g>
</g>
<!-- Node4&#45;&gt;Node8 -->
<g id="edge7_Node000004_Node000008" class="edge">
<title>Node4&#45;&gt;Node8</title>
<g id="a_edge7_Node000004_Node000008"><a xlink:title=" ">
<path fill="none" stroke="#63b8ff" d="M487.54,-274.75C483.88,-267.57 478.59,-257.18 474.05,-248.27"/>
<polygon fill="#63b8ff" stroke="#63b8ff" points="477.03,-246.41 469.38,-239.09 470.8,-249.59 477.03,-246.41"/>
</a>
</g>
</g>
<!-- Node9 -->
<g id="Node000009" class="node">
<title>Node9</title>
<g id="a_Node000009"><a xlink:title=" ">
<polygon fill="#e0e0e0" stroke="#999999" points="365.5,-129 310.5,-129 310.5,-110 365.5,-110 365.5,-129"/>
<text text-anchor="middle" x="338" y="-117" font-family="Helvetica,sans-Serif" font-size="10.00">fstream</text>
</a>
</g>
</g>
<!-- Node4&#45;&gt;Node9 -->
<g id="edge8_Node000004_Node000009" class="edge">
<title>Node4&#45;&gt;Node9</title>
<g id="a_edge8_Node000004_Node000009"><a xlink:title=" ">
<path fill="none" stroke="#63b8ff" d="M436.64,-278.47C385.27,-272.52 314.21,-260.58 297,-239 272.35,-208.09 303.3,-161.41 323.37,-136.88"/>
<polygon fill="#63b8ff" stroke="#63b8ff" points="326.1,-139.08 329.91,-129.19 320.77,-134.54 326.1,-139.08"/>
</a>
</g>
</g>
<!-- Node10 -->
<g id="Node000010" class="node">
<title>Node10</title>
<g id="a_Node000010"><a xlink:title=" ">
<polygon fill="#e0e0e0" stroke="#999999" points="753,-129 693,-129 693,-110 753,-110 753,-129"/>
<text text-anchor="middle" x="723" y="-117" font-family="Helvetica,sans-Serif" font-size="10.00">iostream</text>
</a>
</g>
</g>
<!-- Node4&#45;&gt;Node10 -->
<g id="edge9_Node000004_Node000010" class="edge">
<title>Node4&#45;&gt;Node10</title>
<g id="a_edge9_Node000004_Node000010"><a xlink:title=" ">
<path fill="none" stroke="#63b8ff" d="M547.06,-278.02C599.81,-271.64 674.36,-259.31 695,-239 721.91,-212.52 724.9,-165.33 724.25,-139.2"/>
<polygon fill="#63b8ff" stroke="#63b8ff" points="727.74,-138.95 723.79,-129.12 720.75,-139.27 727.74,-138.95"/>
</a>
</g>
</g>
<!-- Node4&#45;&gt;Node11 -->
<g id="edge10_Node000004_Node000011" class="edge">
<title>Node4&#45;&gt;Node11</title>
<g id="a_edge10_Node000004_Node000011"><a xlink:title=" ">
<path fill="none" stroke="#63b8ff" d="M436.72,-278.68C363.11,-271.93 228.66,-258.44 103.64,-238.96"/>
<polygon fill="#63b8ff" stroke="#63b8ff" points="103.93,-235.46 93.51,-237.37 102.84,-242.38 103.93,-235.46"/>
</a>
</g>
</g>
<!-- Node4&#45;&gt;Node12 -->
<g id="edge11_Node000004_Node000012" class="edge">
<title>Node4&#45;&gt;Node12</title>
<g id="a_edge11_Node000004_Node000012"><a xlink:title=" ">
<path fill="none" stroke="#63b8ff" d="M496.85,-274.99C503.73,-261.66 514.12,-235.74 501,-220 444,-151.64 362.84,-250.78 304,-184 282.24,-159.3 286.11,-139.35 301,-110 322.81,-67.02 372.87,-38.15 405.79,-23.03"/>
<polygon fill="#63b8ff" stroke="#63b8ff" points="407.26,-26.21 414.99,-18.96 404.43,-19.81 407.26,-26.21"/>
</a>
</g>
</g>
<!-- Node13 -->
<g id="Node000013" class="node">
<title>Node13</title>
<g id="a_Node000013"><a xlink:title=" ">
<polygon fill="#e0e0e0" stroke="#999999" points="612,-239 548,-239 548,-220 612,-220 612,-239"/>
<text text-anchor="middle" x="580" y="-227" font-family="Helvetica,sans-Serif" font-size="10.00">sys/stat.h</text>
</a>
</g>
</g>
<!-- Node4&#45;&gt;Node13 -->
<g id="edge12_Node000004_Node000013" class="edge">
<title>Node4&#45;&gt;Node13</title>
<g id="a_edge12_Node000004_Node000013"><a xlink:title=" ">
<path fill="none" stroke="#63b8ff" d="M506.14,-274.98C519.79,-266.77 540.69,-254.18 556.78,-244.49"/>
<polygon fill="#63b8ff" stroke="#63b8ff" points="558.84,-247.33 565.6,-239.17 555.23,-241.33 558.84,-247.33"/>
</a>
</g>
</g>
<!-- Node14 -->
<g id="Node000014" class="node">
<title>Node14</title>
<g id="a_Node000014"><a xlink:title=" ">
<polygon fill="#e0e0e0" stroke="#999999" points="184,-239 112,-239 112,-220 184,-220 184,-239"/>
<text text-anchor="middle" x="148" y="-227" font-family="Helvetica,sans-Serif" font-size="10.00">sys/types.h</text>
</a>
</g>
</g>
<!-- Node4&#45;&gt;Node14 -->
<g id="edge13_Node000004_Node000014" class="edge">
<title>Node4&#45;&gt;Node14</title>
<g id="a_edge13_Node000004_Node000014"><a xlink:title=" ">
<path fill="none" stroke="#63b8ff" d="M436.79,-275.94C378.82,-267.85 284.77,-254.32 194.21,-239.15"/>
<polygon fill="#63b8ff" stroke="#63b8ff" points="194.77,-235.7 184.33,-237.49 193.61,-242.6 194.77,-235.7"/>
</a>
</g>
</g>
<!-- Node4&#45;&gt;Node15 -->
<g id="edge14_Node000004_Node000015" class="edge">
<title>Node4&#45;&gt;Node15</title>
<g id="a_edge14_Node000004_Node000015"><a xlink:title=" ">
<path fill="none" stroke="#63b8ff" d="M518.67,-274.98C546.54,-266.09 590.45,-252.07 621.52,-242.15"/>
<polygon fill="#63b8ff" stroke="#63b8ff" points="622.66,-245.46 631.12,-239.08 620.53,-238.79 622.66,-245.46"/>
</a>
</g>
</g>
<!-- Node4&#45;&gt;Node25 -->
<g id="edge32_Node000004_Node000025" class="edge">
<title>Node4&#45;&gt;Node25</title>
<g id="a_edge32_Node000004_Node000025"><a xlink:title=" ">
<path fill="none" stroke="#63b8ff" d="M547.01,-277.57C644.31,-267.09 845.14,-245.46 936.67,-235.6"/>
<polygon fill="#63b8ff" stroke="#63b8ff" points="937.19,-239.06 946.76,-234.51 936.44,-232.1 937.19,-239.06"/>
</a>
</g>
</g>
<!-- Node16 -->
<g id="Node000016" class="node">
<title>Node16</title>
<g id="a_Node000016"><a xlink:href="_log_outputter_console_8hpp.html" target="_top" xlink:title=" ">
<polygon fill="white" stroke="#666666" points="591,-184 451,-184 451,-165 591,-165 591,-184"/>
<text text-anchor="middle" x="521" y="-172" font-family="Helvetica,sans-Serif" font-size="10.00">LogOutputterConsole.hpp</text>
</a>
</g>
</g>
<!-- Node15&#45;&gt;Node16 -->
<g id="edge15_Node000015_Node000016" class="edge">
<title>Node15&#45;&gt;Node16</title>
<g id="a_edge15_Node000015_Node000016"><a xlink:title=" ">
<path fill="none" stroke="#63b8ff" d="M635.99,-219.98C613.55,-211.3 578.52,-197.75 553.01,-187.88"/>
<polygon fill="#63b8ff" stroke="#63b8ff" points="554,-184.51 543.41,-184.17 551.48,-191.04 554,-184.51"/>
</a>
</g>
</g>
<!-- Node22 -->
<g id="Node000022" class="node">
<title>Node22</title>
<g id="a_Node000022"><a xlink:href="_log_outputter_file_8hpp.html" target="_top" xlink:title=" ">
<polygon fill="white" stroke="#666666" points="432.5,-184 313.5,-184 313.5,-165 432.5,-165 432.5,-184"/>
<text text-anchor="middle" x="373" y="-172" font-family="Helvetica,sans-Serif" font-size="10.00">LogOutputterFile.hpp</text>
</a>
</g>
</g>
<!-- Node15&#45;&gt;Node22 -->
<g id="edge23_Node000015_Node000022" class="edge">
<title>Node15&#45;&gt;Node22</title>
<g id="a_edge23_Node000015_Node000022"><a xlink:title=" ">
<path fill="none" stroke="#63b8ff" d="M630.15,-221.95C627.07,-221.27 623.97,-220.61 621,-220 557.85,-207.09 485.24,-194.3 434.97,-185.77"/>
<polygon fill="#63b8ff" stroke="#63b8ff" points="435.36,-182.28 424.91,-184.06 434.19,-189.18 435.36,-182.28"/>
</a>
</g>
</g>
<!-- Node23 -->
<g id="Node000023" class="node">
<title>Node23</title>
<g id="a_Node000023"><a xlink:href="_logger_8hpp.html" target="_top" xlink:title=" ">
<polygon fill="white" stroke="#666666" points="679,-184 609,-184 609,-165 679,-165 679,-184"/>
<text text-anchor="middle" x="644" y="-172" font-family="Helvetica,sans-Serif" font-size="10.00">Logger.hpp</text>
</a>
</g>
</g>
<!-- Node15&#45;&gt;Node23 -->
<g id="edge27_Node000015_Node000023" class="edge">
<title>Node15&#45;&gt;Node23</title>
<g id="a_edge27_Node000015_Node000023"><a xlink:title=" ">
<path fill="none" stroke="#63b8ff" d="M655.69,-219.75C653.83,-212.72 651.16,-202.62 648.85,-193.84"/>
<polygon fill="#63b8ff" stroke="#63b8ff" points="652.21,-192.86 646.27,-184.09 645.44,-194.65 652.21,-192.86"/>
</a>
</g>
</g>
<!-- Node16&#45;&gt;Node10 -->
<g id="edge16_Node000016_Node000010" class="edge">
<title>Node16&#45;&gt;Node10</title>
<g id="a_edge16_Node000016_Node000010"><a xlink:title=" ">
<path fill="none" stroke="#63b8ff" d="M553.45,-164.98C588.77,-155.72 645.27,-140.89 683.23,-130.93"/>
<polygon fill="#63b8ff" stroke="#63b8ff" points="684.15,-134.31 692.93,-128.39 682.37,-127.54 684.15,-134.31"/>
</a>
</g>
</g>
<!-- Node17 -->
<g id="Node000017" class="node">
<title>Node17</title>
<g id="a_Node000017"><a xlink:title=" ">
<polygon fill="#e0e0e0" stroke="#999999" points="599,-129 561,-129 561,-110 599,-110 599,-129"/>
<text text-anchor="middle" x="580" y="-117" font-family="Helvetica,sans-Serif" font-size="10.00">map</text>
</a>
</g>
</g>
<!-- Node16&#45;&gt;Node17 -->
<g id="edge17_Node000016_Node000017" class="edge">
<title>Node16&#45;&gt;Node17</title>
<g id="a_edge17_Node000016_Node000017"><a xlink:title=" ">
<path fill="none" stroke="#63b8ff" d="M530.48,-164.98C539.2,-157.15 552.34,-145.34 562.9,-135.86"/>
<polygon fill="#63b8ff" stroke="#63b8ff" points="565.25,-138.46 570.35,-129.17 560.57,-133.25 565.25,-138.46"/>
</a>
</g>
</g>
<!-- Node18 -->
<g id="Node000018" class="node">
<title>Node18</title>
<g id="a_Node000018"><a xlink:href="_a_log_outputter_8hpp.html" target="_top" xlink:title=" ">
<polygon fill="white" stroke="#666666" points="542.5,-129 435.5,-129 435.5,-110 542.5,-110 542.5,-129"/>
<text text-anchor="middle" x="489" y="-117" font-family="Helvetica,sans-Serif" font-size="10.00">ALogOutputter.hpp</text>
</a>
</g>
</g>
<!-- Node16&#45;&gt;Node18 -->
<g id="edge18_Node000016_Node000018" class="edge">
<title>Node16&#45;&gt;Node18</title>
<g id="a_edge18_Node000016_Node000018"><a xlink:title=" ">
<path fill="none" stroke="#63b8ff" d="M515.72,-164.75C511.29,-157.42 504.84,-146.73 499.38,-137.7"/>
<polygon fill="#63b8ff" stroke="#63b8ff" points="502.35,-135.84 494.19,-129.09 496.36,-139.46 502.35,-135.84"/>
</a>
</g>
</g>
<!-- Node19 -->
<g id="Node000019" class="node">
<title>Node19</title>
<g id="a_Node000019"><a xlink:href="_log_data_8hpp.html" target="_top" xlink:title=" ">
<polygon fill="white" stroke="#666666" points="733,-74 655,-74 655,-55 733,-55 733,-74"/>
<text text-anchor="middle" x="694" y="-62" font-family="Helvetica,sans-Serif" font-size="10.00">LogData.hpp</text>
</a>
</g>
</g>
<!-- Node18&#45;&gt;Node19 -->
<g id="edge19_Node000018_Node000019" class="edge">
<title>Node18&#45;&gt;Node19</title>
<g id="a_edge19_Node000018_Node000019"><a xlink:title=" ">
<path fill="none" stroke="#63b8ff" d="M521.94,-109.98C556.95,-100.93 612.47,-86.58 650.93,-76.64"/>
<polygon fill="#63b8ff" stroke="#63b8ff" points="652,-79.97 660.81,-74.08 650.25,-73.2 652,-79.97"/>
</a>
</g>
</g>
<!-- Node19&#45;&gt;Node12 -->
<g id="edge22_Node000019_Node000012" class="edge">
<title>Node19&#45;&gt;Node12</title>
<g id="a_edge22_Node000019_Node000012"><a xlink:title=" ">
<path fill="none" stroke="#63b8ff" d="M654.97,-55.45C604.18,-44.98 516.39,-26.87 469.21,-17.14"/>
<polygon fill="#63b8ff" stroke="#63b8ff" points="469.74,-13.68 459.24,-15.09 468.32,-20.53 469.74,-13.68"/>
</a>
</g>
</g>
<!-- Node20 -->
<g id="Node000020" class="node">
<title>Node20</title>
<g id="a_Node000020"><a xlink:title=" ">
<polygon fill="#e0e0e0" stroke="#999999" points="847,-19 803,-19 803,0 847,0 847,-19"/>
<text text-anchor="middle" x="825" y="-7" font-family="Helvetica,sans-Serif" font-size="10.00">ctime</text>
</a>
</g>
</g>
<!-- Node19&#45;&gt;Node20 -->
<g id="edge20_Node000019_Node000020" class="edge">
<title>Node19&#45;&gt;Node20</title>
<g id="a_edge20_Node000019_Node000020"><a xlink:title=" ">
<path fill="none" stroke="#63b8ff" d="M715.05,-54.98C736.41,-46.34 769.7,-32.87 794.06,-23.02"/>
<polygon fill="#63b8ff" stroke="#63b8ff" points="795.61,-26.17 803.57,-19.17 792.99,-19.68 795.61,-26.17"/>
</a>
</g>
</g>
<!-- Node19&#45;&gt;Node21 -->
<g id="edge21_Node000019_Node000021" class="edge">
<title>Node19&#45;&gt;Node21</title>
<g id="a_edge21_Node000019_Node000021"><a xlink:title=" ">
<path fill="none" stroke="#63b8ff" d="M733.1,-58.84C817.71,-48.77 1016.9,-25.04 1100.74,-15.06"/>
<polygon fill="#63b8ff" stroke="#63b8ff" points="1101.33,-18.51 1110.85,-13.85 1100.5,-11.56 1101.33,-18.51"/>
</a>
</g>
</g>
<!-- Node22&#45;&gt;Node9 -->
<g id="edge24_Node000022_Node000009" class="edge">
<title>Node22&#45;&gt;Node9</title>
<g id="a_edge24_Node000022_Node000009"><a xlink:title=" ">
<path fill="none" stroke="#63b8ff" d="M367.22,-164.75C362.38,-157.42 355.32,-146.73 349.36,-137.7"/>
<polygon fill="#63b8ff" stroke="#63b8ff" points="352.1,-135.5 343.67,-129.09 346.26,-139.36 352.1,-135.5"/>
</a>
</g>
</g>
<!-- Node22&#45;&gt;Node10 -->
<g id="edge25_Node000022_Node000010" class="edge">
<title>Node22&#45;&gt;Node10</title>
<g id="a_edge25_Node000022_Node000010"><a xlink:title=" ">
<path fill="none" stroke="#63b8ff" d="M429.23,-164.98C500.11,-154.25 620.2,-136.07 682.61,-126.62"/>
<polygon fill="#63b8ff" stroke="#63b8ff" points="683.48,-130.02 692.85,-125.07 682.44,-123.1 683.48,-130.02"/>
</a>
</g>
</g>
<!-- Node22&#45;&gt;Node18 -->
<g id="edge26_Node000022_Node000018" class="edge">
<title>Node22&#45;&gt;Node18</title>
<g id="a_edge26_Node000022_Node000018"><a xlink:title=" ">
<path fill="none" stroke="#63b8ff" d="M391.64,-164.98C410.3,-156.46 439.25,-143.23 460.74,-133.41"/>
<polygon fill="#63b8ff" stroke="#63b8ff" points="462.38,-136.51 470.02,-129.17 459.47,-130.14 462.38,-136.51"/>
</a>
</g>
</g>
<!-- Node23&#45;&gt;Node12 -->
<g id="edge28_Node000023_Node000012" class="edge">
<title>Node23&#45;&gt;Node12</title>
<g id="a_edge28_Node000023_Node000012"><a xlink:title=" ">
<path fill="none" stroke="#63b8ff" d="M640.78,-164.76C635.57,-151.58 624.22,-126.4 608,-110 567.1,-68.64 505.47,-38.45 468.44,-22.76"/>
<polygon fill="#63b8ff" stroke="#63b8ff" points="469.72,-19.5 459.14,-18.9 467.04,-25.97 469.72,-19.5"/>
</a>
</g>
</g>
<!-- Node23&#45;&gt;Node18 -->
<g id="edge30_Node000023_Node000018" class="edge">
<title>Node23&#45;&gt;Node18</title>
<g id="a_edge30_Node000023_Node000018"><a xlink:title=" ">
<path fill="none" stroke="#63b8ff" d="M619.1,-164.98C593.3,-156.16 552.78,-142.31 523.82,-132.41"/>
<polygon fill="#63b8ff" stroke="#63b8ff" points="524.69,-129.01 514.1,-129.08 522.43,-135.63 524.69,-129.01"/>
</a>
</g>
</g>
<!-- Node23&#45;&gt;Node19 -->
<g id="edge31_Node000023_Node000019" class="edge">
<title>Node23&#45;&gt;Node19</title>
<g id="a_edge31_Node000023_Node000019"><a xlink:title=" ">
<path fill="none" stroke="#63b8ff" d="M648.09,-164.66C656.3,-146.93 674.91,-106.73 685.75,-83.32"/>
<polygon fill="#63b8ff" stroke="#63b8ff" points="688.97,-84.7 689.99,-74.16 682.61,-81.76 688.97,-84.7"/>
</a>
</g>
</g>
<!-- Node23&#45;&gt;Node24 -->
<g id="edge29_Node000023_Node000024" class="edge">
<title>Node23&#45;&gt;Node24</title>
<g id="a_edge29_Node000023_Node000024"><a xlink:title=" ">
<path fill="none" stroke="#63b8ff" d="M679.08,-169.52C693.59,-167.96 710.59,-166.25 726,-165 992.07,-143.33 1064.42,-171.21 1331.36,-128.95"/>
<polygon fill="#63b8ff" stroke="#63b8ff" points="1332.03,-132.39 1341.35,-127.35 1330.92,-125.47 1332.03,-132.39"/>
</a>
</g>
</g>
<!-- Node25&#45;&gt;Node10 -->
<g id="edge44_Node000025_Node000010" class="edge">
<title>Node25&#45;&gt;Node10</title>
<g id="a_edge44_Node000025_Node000010"><a xlink:title=" ">
<path fill="none" stroke="#63b8ff" d="M975,-219.71C960.46,-205.98 930.34,-179.53 900,-165 855.6,-143.73 799.88,-131.88 762.95,-125.86"/>
<polygon fill="#63b8ff" stroke="#63b8ff" points="763.48,-122.4 753.06,-124.31 762.4,-129.32 763.48,-122.4"/>
</a>
</g>
</g>
<!-- Node25&#45;&gt;Node20 -->
<g id="edge43_Node000025_Node000020" class="edge">
<title>Node25&#45;&gt;Node20</title>
<g id="a_edge43_Node000025_Node000020"><a xlink:title=" ">
<path fill="none" stroke="#63b8ff" d="M977.77,-219.95C954.07,-187.47 869.34,-71.29 837.35,-27.43"/>
<polygon fill="#63b8ff" stroke="#63b8ff" points="840.08,-25.24 831.36,-19.22 834.43,-29.37 840.08,-25.24"/>
</a>
</g>
</g>
<!-- Node25&#45;&gt;Node21 -->
<g id="edge45_Node000025_Node000021" class="edge">
<title>Node25&#45;&gt;Node21</title>
<g id="a_edge45_Node000025_Node000021"><a xlink:title=" ">
<path fill="none" stroke="#63b8ff" d="M1021.01,-226.98C1052.43,-223.58 1096.12,-213.42 1120,-184 1156.54,-138.98 1149.07,-64.31 1142.97,-29.48"/>
<polygon fill="#63b8ff" stroke="#63b8ff" points="1146.33,-28.46 1141.01,-19.3 1139.46,-29.78 1146.33,-28.46"/>
</a>
</g>
</g>
<!-- Node25&#45;&gt;Node24 -->
<g id="edge47_Node000025_Node000024" class="edge">
<title>Node25&#45;&gt;Node24</title>
<g id="a_edge47_Node000025_Node000024"><a xlink:title=" ">
<path fill="none" stroke="#63b8ff" d="M1021.48,-229.46C1080.88,-229.6 1199.11,-224.19 1289,-184 1313.63,-172.99 1336.63,-151.61 1350.73,-136.72"/>
<polygon fill="#63b8ff" stroke="#63b8ff" points="1353.43,-138.96 1357.61,-129.22 1348.27,-134.22 1353.43,-138.96"/>
</a>
</g>
</g>
<!-- Node26 -->
<g id="Node000026" class="node">
<title>Node26</title>
<g id="a_Node000026"><a xlink:href="_method_8hpp.html" target="_top" xlink:title=" ">
<polygon fill="white" stroke="#666666" points="891,-184 817,-184 817,-165 891,-165 891,-184"/>
<text text-anchor="middle" x="854" y="-172" font-family="Helvetica,sans-Serif" font-size="10.00">Method.hpp</text>
</a>
</g>
</g>
<!-- Node25&#45;&gt;Node26 -->
<g id="edge33_Node000025_Node000026" class="edge">
<title>Node25&#45;&gt;Node26</title>
<g id="a_edge33_Node000025_Node000026"><a xlink:title=" ">
<path fill="none" stroke="#63b8ff" d="M963.11,-219.98C941.92,-211.34 908.87,-197.87 884.7,-188.02"/>
<polygon fill="#63b8ff" stroke="#63b8ff" points="885.85,-184.7 875.27,-184.17 883.21,-191.19 885.85,-184.7"/>
</a>
</g>
</g>
<!-- Node27 -->
<g id="Node000027" class="node">
<title>Node27</title>
<g id="a_Node000027"><a xlink:href="_status_code_8hpp.html" target="_top" xlink:title=" ">
<polygon fill="white" stroke="#666666" points="1260.5,-184 1167.5,-184 1167.5,-165 1260.5,-165 1260.5,-184"/>
<text text-anchor="middle" x="1214" y="-172" font-family="Helvetica,sans-Serif" font-size="10.00">StatusCode.hpp</text>
</a>
</g>
</g>
<!-- Node25&#45;&gt;Node27 -->
<g id="edge35_Node000025_Node000027" class="edge">
<title>Node25&#45;&gt;Node27</title>
<g id="a_edge35_Node000025_Node000027"><a xlink:title=" ">
<path fill="none" stroke="#63b8ff" d="M1020.95,-219.98C1060.57,-210.86 1123.59,-196.33 1166.77,-186.38"/>
<polygon fill="#63b8ff" stroke="#63b8ff" points="1167.8,-189.74 1176.76,-184.08 1166.23,-182.92 1167.8,-189.74"/>
</a>
</g>
</g>
<!-- Node28 -->
<g id="Node000028" class="node">
<title>Node28</title>
<g id="a_Node000028"><a xlink:href="constants_8hpp.html" target="_top" xlink:title=" ">
<polygon fill="white" stroke="#666666" points="1323.5,-129 1238.5,-129 1238.5,-110 1323.5,-110 1323.5,-129"/>
<text text-anchor="middle" x="1281" y="-117" font-family="Helvetica,sans-Serif" font-size="10.00">constants.hpp</text>
</a>
</g>
</g>
<!-- Node25&#45;&gt;Node28 -->
<g id="edge40_Node000025_Node000028" class="edge">
<title>Node25&#45;&gt;Node28</title>
<g id="a_edge40_Node000025_Node000028"><a xlink:title=" ">
<path fill="none" stroke="#63b8ff" d="M1021.15,-227.92C1090.42,-226.02 1235.42,-217.99 1270,-184 1281.58,-172.61 1283.57,-153.72 1283.11,-139.49"/>
<polygon fill="#63b8ff" stroke="#63b8ff" points="1286.59,-139.03 1282.36,-129.32 1279.61,-139.55 1286.59,-139.03"/>
</a>
</g>
</g>
<!-- Node25&#45;&gt;Node31 -->
<g id="edge41_Node000025_Node000031" class="edge">
<title>Node25&#45;&gt;Node31</title>
<g id="a_edge41_Node000025_Node000031"><a xlink:title=" ">
<path fill="none" stroke="#63b8ff" d="M949.14,-219.98C911.03,-210.68 849.99,-195.77 809.2,-185.81"/>
<polygon fill="#63b8ff" stroke="#63b8ff" points="809.84,-182.36 799.3,-183.39 808.18,-189.16 809.84,-182.36"/>
</a>
</g>
</g>
<!-- Node32 -->
<g id="Node000032" class="node">
<title>Node32</title>
<g id="a_Node000032"><a xlink:title=" ">
<polygon fill="#e0e0e0" stroke="#999999" points="1037,-184 985,-184 985,-165 1037,-165 1037,-184"/>
<text text-anchor="middle" x="1011" y="-172" font-family="Helvetica,sans-Serif" font-size="10.00">cassert</text>
</a>
</g>
</g>
<!-- Node25&#45;&gt;Node32 -->
<g id="edge42_Node000025_Node000032" class="edge">
<title>Node25&#45;&gt;Node32</title>
<g id="a_edge42_Node000025_Node000032"><a xlink:title=" ">
<path fill="none" stroke="#63b8ff" d="M988.46,-219.75C992.12,-212.57 997.41,-202.18 1001.95,-193.27"/>
<polygon fill="#63b8ff" stroke="#63b8ff" points="1005.2,-194.59 1006.62,-184.09 998.97,-191.41 1005.2,-194.59"/>
</a>
</g>
</g>
<!-- Node33 -->
<g id="Node000033" class="node">
<title>Node33</title>
<g id="a_Node000033"><a xlink:title=" ">
<polygon fill="#e0e0e0" stroke="#999999" points="1111,-184 1055,-184 1055,-165 1111,-165 1111,-184"/>
<text text-anchor="middle" x="1083" y="-172" font-family="Helvetica,sans-Serif" font-size="10.00">unistd.h</text>
</a>
</g>
</g>
<!-- Node25&#45;&gt;Node33 -->
<g id="edge46_Node000025_Node000033" class="edge">
<title>Node25&#45;&gt;Node33</title>
<g id="a_edge46_Node000025_Node000033"><a xlink:title=" ">
<path fill="none" stroke="#63b8ff" d="M999.91,-219.98C1015.55,-211.61 1039.66,-198.7 1057.88,-188.95"/>
<polygon fill="#63b8ff" stroke="#63b8ff" points="1059.64,-191.98 1066.8,-184.17 1056.34,-185.8 1059.64,-191.98"/>
</a>
</g>
</g>
<!-- Node26&#45;&gt;Node10 -->
<g id="edge34_Node000026_Node000010" class="edge">
<title>Node26&#45;&gt;Node10</title>
<g id="a_edge34_Node000026_Node000010"><a xlink:title=" ">
<path fill="none" stroke="#63b8ff" d="M832.95,-164.98C811.59,-156.34 778.3,-142.87 753.94,-133.02"/>
<polygon fill="#63b8ff" stroke="#63b8ff" points="755.01,-129.68 744.43,-129.17 752.39,-136.17 755.01,-129.68"/>
</a>
</g>
</g>
<!-- Node27&#45;&gt;Node10 -->
<g id="edge39_Node000027_Node000010" class="edge">
<title>Node27&#45;&gt;Node10</title>
<g id="a_edge39_Node000027_Node000010"><a xlink:title=" ">
<path fill="none" stroke="#63b8ff" d="M1167.37,-168.47C1071.46,-158.11 853.56,-134.59 763.31,-124.85"/>
<polygon fill="#63b8ff" stroke="#63b8ff" points="763.52,-121.35 753.21,-123.76 762.77,-128.31 763.52,-121.35"/>
</a>
</g>
</g>
<!-- Node27&#45;&gt;Node28 -->
<g id="edge36_Node000027_Node000028" class="edge">
<title>Node27&#45;&gt;Node28</title>
<g id="a_edge36_Node000027_Node000028"><a xlink:title=" ">
<path fill="none" stroke="#63b8ff" d="M1224.76,-164.98C1234.77,-157.07 1249.89,-145.11 1261.93,-135.58"/>
<polygon fill="#63b8ff" stroke="#63b8ff" points="1264.37,-138.12 1270.04,-129.17 1260.03,-132.63 1264.37,-138.12"/>
</a>
</g>
</g>
<!-- Node30 -->
<g id="Node000030" class="node">
<title>Node30</title>
<g id="a_Node000030"><a xlink:title=" ">
<polygon fill="#e0e0e0" stroke="#999999" points="1220.5,-129 1171.5,-129 1171.5,-110 1220.5,-110 1220.5,-129"/>
<text text-anchor="middle" x="1196" y="-117" font-family="Helvetica,sans-Serif" font-size="10.00">cstdlib</text>
</a>
</g>
</g>
<!-- Node27&#45;&gt;Node30 -->
<g id="edge38_Node000027_Node000030" class="edge">
<title>Node27&#45;&gt;Node30</title>
<g id="a_edge38_Node000027_Node000030"><a xlink:title=" ">
<path fill="none" stroke="#63b8ff" d="M1211.03,-164.75C1208.64,-157.72 1205.21,-147.62 1202.23,-138.84"/>
<polygon fill="#63b8ff" stroke="#63b8ff" points="1205.45,-137.43 1198.92,-129.09 1198.82,-139.68 1205.45,-137.43"/>
</a>
</g>
</g>
<!-- Node29 -->
<g id="Node000029" class="node">
<title>Node29</title>
<g id="a_Node000029"><a xlink:title=" ">
<polygon fill="#e0e0e0" stroke="#999999" points="1307.5,-74 1254.5,-74 1254.5,-55 1307.5,-55 1307.5,-74"/>
<text text-anchor="middle" x="1281" y="-62" font-family="Helvetica,sans-Serif" font-size="10.00">cstddef</text>
</a>
</g>
</g>
<!-- Node28&#45;&gt;Node29 -->
<g id="edge37_Node000028_Node000029" class="edge">
<title>Node28&#45;&gt;Node29</title>
<g id="a_edge37_Node000028_Node000029"><a xlink:title=" ">
<path fill="none" stroke="#63b8ff" d="M1281,-109.75C1281,-102.8 1281,-92.85 1281,-84.13"/>
<polygon fill="#63b8ff" stroke="#63b8ff" points="1284.5,-84.09 1281,-74.09 1277.5,-84.09 1284.5,-84.09"/>
</a>
</g>
</g>
</g>
</svg>

<g id="navigator" transform="translate(0 0)" fill="#404254">
  <rect fill="#f2f5e9" fill-opacity="0.5" stroke="#606060" stroke-width=".5" x="0" y="0" width="60" height="60"/>
  <use id="zoomplus" xlink:href="#zoomPlus" x="17" y="9" onmousedown="handleZoom(evt,'in')"/>
  <use id="zoomminus" xlink:href="#zoomMin" x="42" y="9" onmousedown="handleZoom(evt,'out')"/>
  <use id="reset" xlink:href="#resetDef" x="30" y="36" onmousedown="handleReset()"/>
   <use id="arrowup" xlink:href="#arrowUp" x="0" y="0" onmousedown="handlePan(0,-1)"/>
  <use id="arrowright" xlink:href="#arrowRight" x="0" y="0" onmousedown="handlePan(1,0)"/>
  <use id="arrowdown" xlink:href="#arrowDown" x="0" y="0" onmousedown="handlePan(0,1)"/>
  <use id="arrowleft" xlink:href="#arrowLeft" x="0" y="0" onmousedown="handlePan(-1,0)"/>
</g>
<svg viewBox="0 0 15 15" width="100%" height="30px" preserveAspectRatio="xMaxYMin meet">
 <g id="arrow_out" transform="scale(0.3 0.3)">
  <a xlink:href="_autoindex_handler_8cpp__incl_org.svg" target="_base">
   <rect id="button" ry="5" rx="5" y="6" x="6" height="38" width="38"
        fill="#f2f5e9" fill-opacity="0.5" stroke="#606060" stroke-width="1.0"/>
   <path id="arrow"
     d="M 11.500037,31.436501 C 11.940474,20.09759 22.043105,11.32322 32.158766,21.979434 L 37.068811,17.246167 C 37.068811,17.246167 37.088388,32 37.088388,32 L 22.160133,31.978069 C 22.160133,31.978069 26.997745,27.140456 26.997745,27.140456 C 18.528582,18.264221 13.291696,25.230495 11.500037,31.436501 z"
     style="fill:#404040;"/>
  </a>
 </g>
</svg>

<style type='text/css'>
<![CDATA[
[data-mouse-over-selected='false'] { opacity: 0.7; }
[data-mouse-over-selected='true']  { opacity: 1.0; }
]]>
</style>
<script type="application/ecmascript"><![CDATA[
document.addEventListener('DOMContentLoaded', (event) => {
  highlightEdges();
  highlightAdjacentNodes();
});
]]></script>
</svg>
