<?xml version="1.0" encoding="UTF-8" standalone="no"?>
<!DOCTYPE svg PUBLIC "-//W3C//DTD SVG 1.1//EN"
 "http://www.w3.org/Graphics/SVG/1.1/DTD/svg11.dtd">
<!-- Generated by graphviz version 2.43.0 (0)
 -->
<!-- Title: hasValidServerConfig Pages: 1 -->
<!--zoomable 956 -->

<svg id="main" version="1.1" xmlns="http://www.w3.org/2000/svg" xmlns:xlink="http://www.w3.org/1999/xlink" xml:space="preserve" onload="init(evt)">
<style type="text/css"><![CDATA[
.node, .edge {opacity: 0.7;}
.node.selected, .edge.selected {opacity: 1;}
.edge:hover path { stroke: red; }
.edge:hover polygon { stroke: red; fill: red; }
]]></style>

<defs>
  <circle id="rim" cx="0" cy="0" r="7"/>
  <circle id="rim2" cx="0" cy="0" r="3.5"/>
  <g id="zoomPlus">
    <use xlink:href="#rim" fill="#404040"><set attributeName="fill" to="#808080" begin="zoomplus.mouseover" end="zoomplus.mouseout"/></use>
    <path d="M-4,0h8M0,-4v8" fill="none" stroke="white" stroke-width="1.5" pointer-events="none"/>
  </g>
  <g id="zoomMin">
    <use xlink:href="#rim" fill="#404040"><set attributeName="fill" to="#808080" begin="zoomminus.mouseover" end="zoomminus.mouseout"/></use>
    <path d="M-4,0h8" fill="none" stroke="white" stroke-width="1.5" pointer-events="none"/>
  </g>
  <g id="arrowUp" transform="translate(30 24)">
    <use xlink:href="#rim"/>
    <path pointer-events="none" fill="none" stroke="white" stroke-width="1.5" d="M0,-3.0v7 M-2.5,-0.5L0,-3.0L2.5,-0.5"/>
  </g>
  <g id="arrowRight" transform="rotate(90) translate(36 -43)">
    <use xlink:href="#rim"/>
    <path pointer-events="none" fill="none" stroke="white" stroke-width="1.5" d="M0,-3.0v7 M-2.5,-0.5L0,-3.0L2.5,-0.5"/>
  </g>
  <g id="arrowDown" transform="rotate(180) translate(-30 -48)">
    <use xlink:href="#rim"/>
    <path pointer-events="none" fill="none" stroke="white" stroke-width="1.5" d="M0,-3.0v7 M-2.5,-0.5L0,-3.0L2.5,-0.5"/>
  </g>
  <g id="arrowLeft" transform="rotate(270) translate(-36 17)">
    <use xlink:href="#rim"/>
    <path pointer-events="none" fill="none" stroke="white" stroke-width="1.5" d="M0,-3.0v7 M-2.5,-0.5L0,-3.0L2.5,-0.5"/>
  </g>
  <g id="resetDef">
    <use xlink:href="#rim2" fill="#404040"><set attributeName="fill" to="#808080" begin="reset.mouseover" end="reset.mouseout"/></use>
  </g>
</defs>
<script type="application/ecmascript">
var viewWidth = 1436;
var viewHeight = 956;
var sectionId = 'dynsection-5';
</script>
<script type="application/ecmascript" xlink:href="svg.min.js"/>
<svg id="graph" class="graph">
<g id="viewport">
<title>hasValidServerConfig</title>
<!-- Node1 -->
<g id="Node000001" class="node">
<title>Node1</title>
<g id="a_Node000001"><a xlink:title="Selects the server configuration for a connection.">
<polygon fill="#999999" stroke="#666666" points="1428,-241 1308,-241 1308,-222 1428,-222 1428,-241"/>
<text text-anchor="middle" x="1368" y="-229" font-family="Helvetica,sans-Serif" font-size="10.00">hasValidServerConfig</text>
</a>
</g>
</g>
<!-- Node2 -->
<g id="Node000002" class="node">
<title>Node2</title>
<g id="a_Node000002"><a xlink:href="_connection_8cpp.html#a1787b72853fa3a6146cea621fa1d0d65" target="_top" xlink:title="Clears the state of a given Connection object and resets its attributes.">
<polygon fill="white" stroke="#666666" points="1233.5,-593 1138.5,-593 1138.5,-574 1233.5,-574 1233.5,-593"/>
<text text-anchor="middle" x="1186" y="-581" font-family="Helvetica,sans-Serif" font-size="10.00">clearConnection</text>
</a>
</g>
</g>
<!-- Node1&#45;&gt;Node2 -->
<g id="edge1_Node000001_Node000002" class="edge">
<title>Node1&#45;&gt;Node2</title>
<g id="a_edge1_Node000001_Node000002"><a xlink:title=" ">
<path fill="none" stroke="#63b8ff" d="M1358.64,-250.87C1342.73,-287.42 1306.55,-368.9 1272,-435.5 1244.3,-488.89 1207.08,-550.67 1192.86,-573.96"/>
<polygon fill="#63b8ff" stroke="#63b8ff" points="1361.98,-251.98 1362.74,-241.41 1355.55,-249.19 1361.98,-251.98"/>
</a>
</g>
</g>
<!-- Node25 -->
<g id="Node000025" class="node">
<title>Node25</title>
<g id="a_Node000025"><a xlink:href="struct_connection.html#a5dff3aa403f5ab67949640234868aa71" target="_top" xlink:title="Construct a new Connection:: Connection object.">
<polygon fill="white" stroke="#666666" points="1252,-426 1120,-426 1120,-407 1252,-407 1252,-426"/>
<text text-anchor="middle" x="1186" y="-414" font-family="Helvetica,sans-Serif" font-size="10.00">Connection::Connection</text>
</a>
</g>
</g>
<!-- Node1&#45;&gt;Node25 -->
<g id="edge26_Node000001_Node000025" class="edge">
<title>Node1&#45;&gt;Node25</title>
<g id="a_edge26_Node000001_Node000025"><a xlink:title=" ">
<path fill="none" stroke="#63b8ff" d="M1361.72,-250.94C1351.07,-286.28 1323.5,-360.86 1272,-398.5 1266.03,-402.86 1259.24,-406.21 1252.14,-408.78"/>
<polygon fill="#63b8ff" stroke="#63b8ff" points="1365.09,-251.89 1364.49,-241.32 1358.36,-249.96 1365.09,-251.89"/>
</a>
</g>
</g>
<!-- Node26 -->
<g id="Node000026" class="node">
<title>Node26</title>
<g id="a_Node000026"><a xlink:href="_server_8cpp.html#a83350eae81b96dd7b301d1238268ffdb" target="_top" xlink:title="Handles the complete request header received from a client.">
<polygon fill="white" stroke="#666666" points="1272,-389 1100,-389 1100,-370 1272,-370 1272,-389"/>
<text text-anchor="middle" x="1186" y="-377" font-family="Helvetica,sans-Serif" font-size="10.00">handleCompleteRequestHeader</text>
</a>
</g>
</g>
<!-- Node1&#45;&gt;Node26 -->
<g id="edge27_Node000001_Node000026" class="edge">
<title>Node1&#45;&gt;Node26</title>
<g id="a_edge27_Node000001_Node000026"><a xlink:title=" ">
<path fill="none" stroke="#63b8ff" d="M1358.61,-250.61C1344.9,-279.47 1314.85,-333.78 1272,-361.5 1266.81,-364.86 1261.1,-367.6 1255.17,-369.85"/>
<polygon fill="#63b8ff" stroke="#63b8ff" points="1361.93,-251.77 1362.92,-241.22 1355.57,-248.85 1361.93,-251.77"/>
</a>
</g>
</g>
<!-- Node42 -->
<g id="Node000042" class="node">
<title>Node42</title>
<g id="a_Node000042"><a xlink:href="test__select_server_config_8cpp.html#adc15bde973a5f46b885169098fa5997a" target="_top" xlink:title=" ">
<polygon fill="white" stroke="#666666" points="1212,-352 1160,-352 1160,-333 1212,-333 1212,-352"/>
<text text-anchor="middle" x="1186" y="-340" font-family="Helvetica,sans-Serif" font-size="10.00">TEST_F</text>
</a>
</g>
</g>
<!-- Node1&#45;&gt;Node42 -->
<g id="edge44_Node000001_Node000042" class="edge">
<title>Node1&#45;&gt;Node42</title>
<g id="a_edge44_Node000001_Node000042"><a xlink:title=" ">
<path fill="none" stroke="#63b8ff" d="M1353.93,-249.43C1337.36,-270.79 1306.72,-305.91 1272,-324.5 1253.38,-334.47 1229.71,-338.92 1212.07,-340.9"/>
<polygon fill="#63b8ff" stroke="#63b8ff" points="1356.91,-251.29 1360.15,-241.21 1351.33,-247.07 1356.91,-251.29"/>
</a>
</g>
</g>
<!-- Node43 -->
<g id="Node000043" class="node">
<title>Node43</title>
<g id="a_Node000043"><a xlink:href="test__select_server_config_8cpp.html#aa80c537de3fe8c307ee8fd3275f7f581" target="_top" xlink:title=" ">
<polygon fill="white" stroke="#666666" points="1212,-315 1160,-315 1160,-296 1212,-296 1212,-315"/>
<text text-anchor="middle" x="1186" y="-303" font-family="Helvetica,sans-Serif" font-size="10.00">TEST_F</text>
</a>
</g>
</g>
<!-- Node1&#45;&gt;Node43 -->
<g id="edge45_Node000001_Node000043" class="edge">
<title>Node1&#45;&gt;Node43</title>
<g id="a_edge45_Node000001_Node000043"><a xlink:title=" ">
<path fill="none" stroke="#63b8ff" d="M1345.54,-246.9C1326.93,-259.57 1298.84,-277.07 1272,-287.5 1252.6,-295.04 1229.41,-299.68 1212.16,-302.36"/>
<polygon fill="#63b8ff" stroke="#63b8ff" points="1347.64,-249.7 1353.87,-241.13 1343.65,-243.95 1347.64,-249.7"/>
</a>
</g>
</g>
<!-- Node44 -->
<g id="Node000044" class="node">
<title>Node44</title>
<g id="a_Node000044"><a xlink:href="test__select_server_config_8cpp.html#a680c67620664bac3978d4d4bdca1649f" target="_top" xlink:title=" ">
<polygon fill="white" stroke="#666666" points="1212,-278 1160,-278 1160,-259 1212,-259 1212,-278"/>
<text text-anchor="middle" x="1186" y="-266" font-family="Helvetica,sans-Serif" font-size="10.00">TEST_F</text>
</a>
</g>
</g>
<!-- Node1&#45;&gt;Node44 -->
<g id="edge46_Node000001_Node000044" class="edge">
<title>Node1&#45;&gt;Node44</title>
<g id="a_edge46_Node000001_Node000044"><a xlink:title=" ">
<path fill="none" stroke="#63b8ff" d="M1310.64,-243.08C1277.61,-249.87 1237.51,-258.12 1212.12,-263.34"/>
<polygon fill="#63b8ff" stroke="#63b8ff" points="1311.56,-246.47 1320.65,-241.03 1310.15,-239.61 1311.56,-246.47"/>
</a>
</g>
</g>
<!-- Node45 -->
<g id="Node000045" class="node">
<title>Node45</title>
<g id="a_Node000045"><a xlink:href="test__select_server_config_8cpp.html#a506658e17e80d9ca8d33703b470c5117" target="_top" xlink:title=" ">
<polygon fill="white" stroke="#666666" points="1212,-241 1160,-241 1160,-222 1212,-222 1212,-241"/>
<text text-anchor="middle" x="1186" y="-229" font-family="Helvetica,sans-Serif" font-size="10.00">TEST_F</text>
</a>
</g>
</g>
<!-- Node1&#45;&gt;Node45 -->
<g id="edge47_Node000001_Node000045" class="edge">
<title>Node1&#45;&gt;Node45</title>
<g id="a_edge47_Node000001_Node000045"><a xlink:title=" ">
<path fill="none" stroke="#63b8ff" d="M1297.54,-231.5C1267.56,-231.5 1234.36,-231.5 1212.25,-231.5"/>
<polygon fill="#63b8ff" stroke="#63b8ff" points="1297.56,-235 1307.56,-231.5 1297.56,-228 1297.56,-235"/>
</a>
</g>
</g>
<!-- Node46 -->
<g id="Node000046" class="node">
<title>Node46</title>
<g id="a_Node000046"><a xlink:href="test__select_server_config_8cpp.html#aec18c67e802fb0a0dd05844d6d603f82" target="_top" xlink:title=" ">
<polygon fill="white" stroke="#666666" points="1212,-204 1160,-204 1160,-185 1212,-185 1212,-204"/>
<text text-anchor="middle" x="1186" y="-192" font-family="Helvetica,sans-Serif" font-size="10.00">TEST_F</text>
</a>
</g>
</g>
<!-- Node1&#45;&gt;Node46 -->
<g id="edge48_Node000001_Node000046" class="edge">
<title>Node1&#45;&gt;Node46</title>
<g id="a_edge48_Node000001_Node000046"><a xlink:title=" ">
<path fill="none" stroke="#63b8ff" d="M1310.64,-219.92C1277.61,-213.13 1237.51,-204.88 1212.12,-199.66"/>
<polygon fill="#63b8ff" stroke="#63b8ff" points="1310.15,-223.39 1320.65,-221.97 1311.56,-216.53 1310.15,-223.39"/>
</a>
</g>
</g>
<!-- Node47 -->
<g id="Node000047" class="node">
<title>Node47</title>
<g id="a_Node000047"><a xlink:href="test__select_server_config_8cpp.html#a9a8ca5de03897934efe044c9e7ebd335" target="_top" xlink:title=" ">
<polygon fill="white" stroke="#666666" points="1212,-167 1160,-167 1160,-148 1212,-148 1212,-167"/>
<text text-anchor="middle" x="1186" y="-155" font-family="Helvetica,sans-Serif" font-size="10.00">TEST_F</text>
</a>
</g>
</g>
<!-- Node1&#45;&gt;Node47 -->
<g id="edge49_Node000001_Node000047" class="edge">
<title>Node1&#45;&gt;Node47</title>
<g id="a_edge49_Node000001_Node000047"><a xlink:title=" ">
<path fill="none" stroke="#63b8ff" d="M1345.54,-216.1C1326.93,-203.43 1298.84,-185.93 1272,-175.5 1252.6,-167.96 1229.41,-163.32 1212.16,-160.64"/>
<polygon fill="#63b8ff" stroke="#63b8ff" points="1343.65,-219.05 1353.87,-221.87 1347.64,-213.3 1343.65,-219.05"/>
</a>
</g>
</g>
<!-- Node48 -->
<g id="Node000048" class="node">
<title>Node48</title>
<g id="a_Node000048"><a xlink:href="test__select_server_config_8cpp.html#a978ebf5ea8c6dd3f31a76d15b081724d" target="_top" xlink:title=" ">
<polygon fill="white" stroke="#666666" points="1212,-130 1160,-130 1160,-111 1212,-111 1212,-130"/>
<text text-anchor="middle" x="1186" y="-118" font-family="Helvetica,sans-Serif" font-size="10.00">TEST_F</text>
</a>
</g>
</g>
<!-- Node1&#45;&gt;Node48 -->
<g id="edge50_Node000001_Node000048" class="edge">
<title>Node1&#45;&gt;Node48</title>
<g id="a_edge50_Node000001_Node000048"><a xlink:title=" ">
<path fill="none" stroke="#63b8ff" d="M1353.93,-213.57C1337.36,-192.21 1306.72,-157.09 1272,-138.5 1253.38,-128.53 1229.71,-124.08 1212.07,-122.1"/>
<polygon fill="#63b8ff" stroke="#63b8ff" points="1351.33,-215.93 1360.15,-221.79 1356.91,-211.71 1351.33,-215.93"/>
</a>
</g>
</g>
<!-- Node49 -->
<g id="Node000049" class="node">
<title>Node49</title>
<g id="a_Node000049"><a xlink:href="test__select_server_config_8cpp.html#aac42de510bf8960d38bfce2b22967612" target="_top" xlink:title=" ">
<polygon fill="white" stroke="#666666" points="1212,-93 1160,-93 1160,-74 1212,-74 1212,-93"/>
<text text-anchor="middle" x="1186" y="-81" font-family="Helvetica,sans-Serif" font-size="10.00">TEST_F</text>
</a>
</g>
</g>
<!-- Node1&#45;&gt;Node49 -->
<g id="edge51_Node000001_Node000049" class="edge">
<title>Node1&#45;&gt;Node49</title>
<g id="a_edge51_Node000001_Node000049"><a xlink:title=" ">
<path fill="none" stroke="#63b8ff" d="M1358.61,-212.39C1344.9,-183.53 1314.85,-129.22 1272,-101.5 1254.14,-89.95 1230.17,-85.66 1212.24,-84.14"/>
<polygon fill="#63b8ff" stroke="#63b8ff" points="1355.57,-214.15 1362.92,-221.78 1361.93,-211.23 1355.57,-214.15"/>
</a>
</g>
</g>
<!-- Node50 -->
<g id="Node000050" class="node">
<title>Node50</title>
<g id="a_Node000050"><a xlink:href="test__select_server_config_8cpp.html#ae4f11448b0a2361432e20b17fe79d927" target="_top" xlink:title=" ">
<polygon fill="white" stroke="#666666" points="1212,-56 1160,-56 1160,-37 1212,-37 1212,-56"/>
<text text-anchor="middle" x="1186" y="-44" font-family="Helvetica,sans-Serif" font-size="10.00">TEST_F</text>
</a>
</g>
</g>
<!-- Node1&#45;&gt;Node50 -->
<g id="edge52_Node000001_Node000050" class="edge">
<title>Node1&#45;&gt;Node50</title>
<g id="a_edge52_Node000001_Node000050"><a xlink:title=" ">
<path fill="none" stroke="#63b8ff" d="M1361.72,-212.06C1351.07,-176.72 1323.5,-102.14 1272,-64.5 1254.71,-51.86 1230.45,-47.71 1212.27,-46.51"/>
<polygon fill="#63b8ff" stroke="#63b8ff" points="1358.36,-213.04 1364.49,-221.68 1365.09,-211.11 1358.36,-213.04"/>
</a>
</g>
</g>
<!-- Node51 -->
<g id="Node000051" class="node">
<title>Node51</title>
<g id="a_Node000051"><a xlink:href="test__select_server_config_8cpp.html#a8f55c04a0a006591f309edb36ad435bc" target="_top" xlink:title=" ">
<polygon fill="white" stroke="#666666" points="1212,-19 1160,-19 1160,0 1212,0 1212,-19"/>
<text text-anchor="middle" x="1186" y="-7" font-family="Helvetica,sans-Serif" font-size="10.00">TEST_F</text>
</a>
</g>
</g>
<!-- Node1&#45;&gt;Node51 -->
<g id="edge53_Node000001_Node000051" class="edge">
<title>Node1&#45;&gt;Node51</title>
<g id="a_edge53_Node000001_Node000051"><a xlink:title=" ">
<path fill="none" stroke="#63b8ff" d="M1363.84,-211.9C1356.13,-170.81 1332.37,-75.51 1272,-27.5 1255.12,-14.07 1230.57,-10.03 1212.2,-9.08"/>
<polygon fill="#63b8ff" stroke="#63b8ff" points="1360.43,-212.72 1365.6,-221.96 1367.32,-211.51 1360.43,-212.72"/>
</a>
</g>
</g>
<!-- Node3 -->
<g id="Node000003" class="node">
<title>Node3</title>
<g id="a_Node000003"><a xlink:href="_server_8cpp.html#a43e9e764c97aacfc12f233b33ffa3342" target="_top" xlink:title="Sends the response to a client connection.">
<polygon fill="white" stroke="#666666" points="1062.5,-724 921.5,-724 921.5,-705 1062.5,-705 1062.5,-724"/>
<text text-anchor="middle" x="992" y="-712" font-family="Helvetica,sans-Serif" font-size="10.00">connectionSendResponse</text>
</a>
</g>
</g>
<!-- Node2&#45;&gt;Node3 -->
<g id="edge2_Node000002_Node000003" class="edge">
<title>Node2&#45;&gt;Node3</title>
<g id="a_edge2_Node000002_Node000003"><a xlink:title=" ">
<path fill="none" stroke="#63b8ff" d="M1162.58,-598.79C1122.62,-626.06 1040.17,-682.32 1007.14,-704.85"/>
<polygon fill="#63b8ff" stroke="#63b8ff" points="1164.59,-601.66 1170.88,-593.13 1160.65,-595.88 1164.59,-601.66"/>
</a>
</g>
</g>
<!-- Node4 -->
<g id="Node000004" class="node">
<title>Node4</title>
<g id="a_Node000004"><a xlink:href="_server_8cpp.html#a9b6964fe44b1605c00c0f211a7f42896" target="_top" xlink:title="Builds the response for a client connection.">
<polygon fill="white" stroke="#666666" points="884,-856 742,-856 742,-837 884,-837 884,-856"/>
<text text-anchor="middle" x="813" y="-844" font-family="Helvetica,sans-Serif" font-size="10.00">connectionBuildResponse</text>
</a>
</g>
</g>
<!-- Node3&#45;&gt;Node4 -->
<g id="edge3_Node000003_Node000004" class="edge">
<title>Node3&#45;&gt;Node4</title>
<g id="a_edge3_Node000003_Node000004"><a xlink:title=" ">
<path fill="none" stroke="#63b8ff" d="M973.03,-730.81C952.27,-749.33 916.76,-780 884,-803.5 866.62,-815.97 845.57,-828.59 831.12,-836.9"/>
<polygon fill="#63b8ff" stroke="#63b8ff" points="975.37,-733.41 980.47,-724.13 970.69,-728.2 975.37,-733.41"/>
</a>
</g>
</g>
<!-- Node6 -->
<g id="Node000006" class="node">
<title>Node6</title>
<g id="a_Node000006"><a xlink:href="_server_8cpp.html#afb62203471d9a64b23d0267d5a4a261a" target="_top" xlink:title="Handle a client connection.">
<polygon fill="white" stroke="#666666" points="525,-837 421,-837 421,-818 525,-818 525,-837"/>
<text text-anchor="middle" x="473" y="-825" font-family="Helvetica,sans-Serif" font-size="10.00">handleConnection</text>
</a>
</g>
</g>
<!-- Node3&#45;&gt;Node6 -->
<g id="edge21_Node000003_Node000006" class="edge">
<title>Node3&#45;&gt;Node6</title>
<g id="a_edge21_Node000003_Node000006"><a xlink:title=" ">
<path fill="none" stroke="#63b8ff" d="M968.34,-729.48C947.37,-742.56 914.87,-760.91 884,-770.5 745.91,-813.39 703.7,-786.16 561,-809.5 546.39,-811.89 530.5,-815.02 516.35,-818"/>
<polygon fill="#63b8ff" stroke="#63b8ff" points="970.29,-732.38 976.85,-724.06 966.53,-726.48 970.29,-732.38"/>
</a>
</g>
</g>
<!-- Node21 -->
<g id="Node000021" class="node">
<title>Node21</title>
<g id="a_Node000021"><a xlink:href="test__connection_send_response_8cpp.html#a824593e26c42b4efd63e5d15e5bc8cb2" target="_top" xlink:title=" ">
<polygon fill="white" stroke="#666666" points="839,-761 787,-761 787,-742 839,-742 839,-761"/>
<text text-anchor="middle" x="813" y="-749" font-family="Helvetica,sans-Serif" font-size="10.00">TEST_F</text>
</a>
</g>
</g>
<!-- Node3&#45;&gt;Node21 -->
<g id="edge22_Node000003_Node000021" class="edge">
<title>Node3&#45;&gt;Node21</title>
<g id="a_edge22_Node000003_Node000021"><a xlink:title=" ">
<path fill="none" stroke="#63b8ff" d="M935.23,-726.16C903.03,-732.89 864.1,-741.03 839.2,-746.23"/>
<polygon fill="#63b8ff" stroke="#63b8ff" points="936.35,-729.5 945.42,-724.03 934.91,-722.65 936.35,-729.5"/>
</a>
</g>
</g>
<!-- Node22 -->
<g id="Node000022" class="node">
<title>Node22</title>
<g id="a_Node000022"><a xlink:href="test__connection_send_response_8cpp.html#ae51efb039114ce1ecc536678298e3ac3" target="_top" xlink:title=" ">
<polygon fill="white" stroke="#666666" points="839,-724 787,-724 787,-705 839,-705 839,-724"/>
<text text-anchor="middle" x="813" y="-712" font-family="Helvetica,sans-Serif" font-size="10.00">TEST_F</text>
</a>
</g>
</g>
<!-- Node3&#45;&gt;Node22 -->
<g id="edge23_Node000003_Node000022" class="edge">
<title>Node3&#45;&gt;Node22</title>
<g id="a_edge23_Node000003_Node000022"><a xlink:title=" ">
<path fill="none" stroke="#63b8ff" d="M911,-714.5C884.96,-714.5 857.92,-714.5 839.03,-714.5"/>
<polygon fill="#63b8ff" stroke="#63b8ff" points="911.3,-718 921.3,-714.5 911.3,-711 911.3,-718"/>
</a>
</g>
</g>
<!-- Node23 -->
<g id="Node000023" class="node">
<title>Node23</title>
<g id="a_Node000023"><a xlink:href="test__connection_send_response_8cpp.html#a21c07341abaaa0409856bcd3c99f91d8" target="_top" xlink:title=" ">
<polygon fill="white" stroke="#666666" points="839,-687 787,-687 787,-668 839,-668 839,-687"/>
<text text-anchor="middle" x="813" y="-675" font-family="Helvetica,sans-Serif" font-size="10.00">TEST_F</text>
</a>
</g>
</g>
<!-- Node3&#45;&gt;Node23 -->
<g id="edge24_Node000003_Node000023" class="edge">
<title>Node3&#45;&gt;Node23</title>
<g id="a_edge24_Node000003_Node000023"><a xlink:title=" ">
<path fill="none" stroke="#63b8ff" d="M935.23,-702.84C903.03,-696.11 864.1,-687.97 839.2,-682.77"/>
<polygon fill="#63b8ff" stroke="#63b8ff" points="934.91,-706.35 945.42,-704.97 936.35,-699.5 934.91,-706.35"/>
</a>
</g>
</g>
<!-- Node24 -->
<g id="Node000024" class="node">
<title>Node24</title>
<g id="a_Node000024"><a xlink:href="test__connection_send_response_8cpp.html#ac0244b587995b8cde69686452c3c41c8" target="_top" xlink:title=" ">
<polygon fill="white" stroke="#666666" points="839,-650 787,-650 787,-631 839,-631 839,-650"/>
<text text-anchor="middle" x="813" y="-638" font-family="Helvetica,sans-Serif" font-size="10.00">TEST_F</text>
</a>
</g>
</g>
<!-- Node3&#45;&gt;Node24 -->
<g id="edge25_Node000003_Node000024" class="edge">
<title>Node3&#45;&gt;Node24</title>
<g id="a_edge25_Node000003_Node000024"><a xlink:title=" ">
<path fill="none" stroke="#63b8ff" d="M966.11,-699.8C944.85,-687.72 913.18,-670.81 884,-659.5 869.44,-653.85 852.56,-649.22 839.03,-645.94"/>
<polygon fill="#63b8ff" stroke="#63b8ff" points="964.41,-702.86 974.82,-704.82 967.9,-696.8 964.41,-702.86"/>
</a>
</g>
</g>
<!-- Node5 -->
<g id="Node000005" class="node">
<title>Node5</title>
<g id="a_Node000005"><a xlink:href="_server_8cpp.html#ad132a77471376bd48681070a795df914" target="_top" xlink:title="Handles a timeout for a client connection.">
<polygon fill="white" stroke="#666666" points="706,-913 561,-913 561,-894 706,-894 706,-913"/>
<text text-anchor="middle" x="633.5" y="-901" font-family="Helvetica,sans-Serif" font-size="10.00">connectionHandleTimeout</text>
</a>
</g>
</g>
<!-- Node4&#45;&gt;Node5 -->
<g id="edge4_Node000004_Node000005" class="edge">
<title>Node4&#45;&gt;Node5</title>
<g id="a_edge4_Node000004_Node000005"><a xlink:title=" ">
<path fill="none" stroke="#63b8ff" d="M772.59,-859.16C739.87,-869.66 694.04,-884.38 664.31,-893.93"/>
<polygon fill="#63b8ff" stroke="#63b8ff" points="773.84,-862.43 782.29,-856.04 771.7,-855.77 773.84,-862.43"/>
</a>
</g>
</g>
<!-- Node4&#45;&gt;Node6 -->
<g id="edge19_Node000004_Node000006" class="edge">
<title>Node4&#45;&gt;Node6</title>
<g id="a_edge19_Node000004_Node000006"><a xlink:title=" ">
<path fill="none" stroke="#63b8ff" d="M731.7,-850.87C682.32,-852.48 617.83,-852.63 561,-846.5 543.78,-844.64 524.98,-840.77 509.27,-837.01"/>
<polygon fill="#63b8ff" stroke="#63b8ff" points="732.13,-854.36 742,-850.51 731.88,-847.37 732.13,-854.36"/>
</a>
</g>
</g>
<!-- Node20 -->
<g id="Node000020" class="node">
<title>Node20</title>
<g id="a_Node000020"><a xlink:href="test__connection_build_response_8cpp.html#a19ea1eb978dc0699fb834666e9671d31" target="_top" xlink:title=" ">
<polygon fill="white" stroke="#666666" points="659.5,-837 607.5,-837 607.5,-818 659.5,-818 659.5,-837"/>
<text text-anchor="middle" x="633.5" y="-825" font-family="Helvetica,sans-Serif" font-size="10.00">TEST_F</text>
</a>
</g>
</g>
<!-- Node4&#45;&gt;Node20 -->
<g id="edge20_Node000004_Node000020" class="edge">
<title>Node4&#45;&gt;Node20</title>
<g id="a_edge20_Node000004_Node000020"><a xlink:title=" ">
<path fill="none" stroke="#63b8ff" d="M731.88,-837.92C705.69,-835.12 678.49,-832.21 659.52,-830.18"/>
<polygon fill="#63b8ff" stroke="#63b8ff" points="731.53,-841.41 741.85,-838.99 732.28,-834.45 731.53,-841.41"/>
</a>
</g>
</g>
<!-- Node5&#45;&gt;Node6 -->
<g id="edge5_Node000005_Node000006" class="edge">
<title>Node5&#45;&gt;Node6</title>
<g id="a_edge5_Node000005_Node000006"><a xlink:title=" ">
<path fill="none" stroke="#63b8ff" d="M589.46,-890.72C579.94,-887.44 570,-883.64 561,-879.5 533.99,-867.07 504.72,-848.39 487.95,-837.13"/>
<polygon fill="#63b8ff" stroke="#63b8ff" points="588.59,-894.12 599.18,-893.96 590.8,-887.48 588.59,-894.12"/>
</a>
</g>
</g>
<!-- Node19 -->
<g id="Node000019" class="node">
<title>Node19</title>
<g id="a_Node000019"><a xlink:href="test__connection_handle_timeout_8cpp.html#a765fc141efbbfb6992b25391d64dbf9c" target="_top" xlink:title=" ">
<polygon fill="white" stroke="#666666" points="499,-913 447,-913 447,-894 499,-894 499,-913"/>
<text text-anchor="middle" x="473" y="-901" font-family="Helvetica,sans-Serif" font-size="10.00">TEST_F</text>
</a>
</g>
</g>
<!-- Node5&#45;&gt;Node19 -->
<g id="edge18_Node000005_Node000019" class="edge">
<title>Node5&#45;&gt;Node19</title>
<g id="a_edge18_Node000005_Node000019"><a xlink:title=" ">
<path fill="none" stroke="#63b8ff" d="M550.61,-903.5C531.94,-903.5 513.46,-903.5 499.33,-903.5"/>
<polygon fill="#63b8ff" stroke="#63b8ff" points="550.67,-907 560.67,-903.5 550.67,-900 550.67,-907"/>
</a>
</g>
</g>
<!-- Node7 -->
<g id="Node000007" class="node">
<title>Node7</title>
<g id="a_Node000007"><a xlink:href="_server_8cpp.html#af9f4479a6262c17deef89938118d27f4" target="_top" xlink:title="Accepts new connections or handles existing ones.">
<polygon fill="white" stroke="#666666" points="385,-837 308,-837 308,-818 385,-818 385,-837"/>
<text text-anchor="middle" x="346.5" y="-825" font-family="Helvetica,sans-Serif" font-size="10.00">handleEvent</text>
</a>
</g>
</g>
<!-- Node6&#45;&gt;Node7 -->
<g id="edge6_Node000006_Node000007" class="edge">
<title>Node6&#45;&gt;Node7</title>
<g id="a_edge6_Node000006_Node000007"><a xlink:title=" ">
<path fill="none" stroke="#63b8ff" d="M410.49,-827.5C401.8,-827.5 393.1,-827.5 385.05,-827.5"/>
<polygon fill="#63b8ff" stroke="#63b8ff" points="410.64,-831 420.64,-827.5 410.64,-824 410.64,-831"/>
</a>
</g>
</g>
<!-- Node8 -->
<g id="Node000008" class="node">
<title>Node8</title>
<g id="a_Node000008"><a xlink:href="_server_8cpp.html#ab66b27c2186daacb15a6b13dd43be31b" target="_top" xlink:title="Runs the main event loop with a server object.">
<polygon fill="white" stroke="#666666" points="141,-948 77,-948 77,-929 141,-929 141,-948"/>
<text text-anchor="middle" x="109" y="-936" font-family="Helvetica,sans-Serif" font-size="10.00">runServer</text>
</a>
</g>
</g>
<!-- Node7&#45;&gt;Node8 -->
<g id="edge7_Node000007_Node000008" class="edge">
<title>Node7&#45;&gt;Node8</title>
<g id="a_edge7_Node000007_Node000008"><a xlink:title=" ">
<path fill="none" stroke="#63b8ff" d="M336.54,-846.2C324.96,-868.1 302.59,-903.54 272,-920.5 231.04,-943.21 175.34,-944.08 141.07,-941.86"/>
<polygon fill="#63b8ff" stroke="#63b8ff" points="339.7,-847.71 341.09,-837.21 333.45,-844.55 339.7,-847.71"/>
</a>
</g>
</g>
<!-- Node10 -->
<g id="Node000010" class="node">
<title>Node10</title>
<g id="a_Node000010"><a xlink:href="_server_8cpp.html#a115ecd76e344c1007bedc48b9bbdc0fa" target="_top" xlink:title="Performs a graceful shutdown of the server.">
<polygon fill="#fff0f0" stroke="red" points="272,-911 177,-911 177,-892 272,-892 272,-911"/>
<text text-anchor="middle" x="224.5" y="-899" font-family="Helvetica,sans-Serif" font-size="10.00">shutdownServer</text>
</a>
</g>
</g>
<!-- Node7&#45;&gt;Node10 -->
<g id="edge9_Node000007_Node000010" class="edge">
<title>Node7&#45;&gt;Node10</title>
<g id="a_edge9_Node000007_Node000010"><a xlink:title=" ">
<path fill="none" stroke="#63b8ff" d="M327.12,-843.85C312.83,-855.96 292.13,-872.24 272,-883.5 266.41,-886.63 260.17,-889.45 254.11,-891.89"/>
<polygon fill="#63b8ff" stroke="#63b8ff" points="329.45,-846.46 334.73,-837.28 324.87,-841.17 329.45,-846.46"/>
</a>
</g>
</g>
<!-- Node14 -->
<g id="Node000014" class="node">
<title>Node14</title>
<g id="a_Node000014"><a xlink:href="test__handle_event_8cpp.html#a6b02b237de8284e0c133cf8411401e71" target="_top" xlink:title=" ">
<polygon fill="white" stroke="#666666" points="250.5,-874 198.5,-874 198.5,-855 250.5,-855 250.5,-874"/>
<text text-anchor="middle" x="224.5" y="-862" font-family="Helvetica,sans-Serif" font-size="10.00">TEST_F</text>
</a>
</g>
</g>
<!-- Node7&#45;&gt;Node14 -->
<g id="edge13_Node000007_Node000014" class="edge">
<title>Node7&#45;&gt;Node14</title>
<g id="a_edge13_Node000007_Node000014"><a xlink:title=" ">
<path fill="none" stroke="#63b8ff" d="M304.92,-840.01C286.94,-845.56 266.35,-851.9 250.64,-856.75"/>
<polygon fill="#63b8ff" stroke="#63b8ff" points="306.07,-843.32 314.6,-837.03 304.01,-836.63 306.07,-843.32"/>
</a>
</g>
</g>
<!-- Node15 -->
<g id="Node000015" class="node">
<title>Node15</title>
<g id="a_Node000015"><a xlink:href="test__handle_event_8cpp.html#a2d9ba98f6de6c5e0452b99c6f764e1b4" target="_top" xlink:title=" ">
<polygon fill="white" stroke="#666666" points="250.5,-837 198.5,-837 198.5,-818 250.5,-818 250.5,-837"/>
<text text-anchor="middle" x="224.5" y="-825" font-family="Helvetica,sans-Serif" font-size="10.00">TEST_F</text>
</a>
</g>
</g>
<!-- Node7&#45;&gt;Node15 -->
<g id="edge14_Node000007_Node000015" class="edge">
<title>Node7&#45;&gt;Node15</title>
<g id="a_edge14_Node000007_Node000015"><a xlink:title=" ">
<path fill="none" stroke="#63b8ff" d="M297.51,-827.5C281.41,-827.5 264.11,-827.5 250.5,-827.5"/>
<polygon fill="#63b8ff" stroke="#63b8ff" points="297.86,-831 307.86,-827.5 297.86,-824 297.86,-831"/>
</a>
</g>
</g>
<!-- Node16 -->
<g id="Node000016" class="node">
<title>Node16</title>
<g id="a_Node000016"><a xlink:href="test__handle_event_8cpp.html#ac379b830f0bc030cee7bfb4dc8ef2a06" target="_top" xlink:title=" ">
<polygon fill="white" stroke="#666666" points="250.5,-800 198.5,-800 198.5,-781 250.5,-781 250.5,-800"/>
<text text-anchor="middle" x="224.5" y="-788" font-family="Helvetica,sans-Serif" font-size="10.00">TEST_F</text>
</a>
</g>
</g>
<!-- Node7&#45;&gt;Node16 -->
<g id="edge15_Node000007_Node000016" class="edge">
<title>Node7&#45;&gt;Node16</title>
<g id="a_edge15_Node000007_Node000016"><a xlink:title=" ">
<path fill="none" stroke="#63b8ff" d="M304.92,-814.99C286.94,-809.44 266.35,-803.1 250.64,-798.25"/>
<polygon fill="#63b8ff" stroke="#63b8ff" points="304.01,-818.37 314.6,-817.97 306.07,-811.68 304.01,-818.37"/>
</a>
</g>
</g>
<!-- Node17 -->
<g id="Node000017" class="node">
<title>Node17</title>
<g id="a_Node000017"><a xlink:href="test__handle_event_8cpp.html#a174d935df4191823bf4798918aa794ee" target="_top" xlink:title=" ">
<polygon fill="white" stroke="#666666" points="250.5,-763 198.5,-763 198.5,-744 250.5,-744 250.5,-763"/>
<text text-anchor="middle" x="224.5" y="-751" font-family="Helvetica,sans-Serif" font-size="10.00">TEST_F</text>
</a>
</g>
</g>
<!-- Node7&#45;&gt;Node17 -->
<g id="edge16_Node000007_Node000017" class="edge">
<title>Node7&#45;&gt;Node17</title>
<g id="a_edge16_Node000007_Node000017"><a xlink:title=" ">
<path fill="none" stroke="#63b8ff" d="M326.6,-811.24C312.28,-799.45 291.75,-783.68 272,-772.5 265.32,-768.72 257.74,-765.29 250.67,-762.42"/>
<polygon fill="#63b8ff" stroke="#63b8ff" points="324.74,-814.24 334.66,-817.98 329.24,-808.88 324.74,-814.24"/>
</a>
</g>
</g>
<!-- Node18 -->
<g id="Node000018" class="node">
<title>Node18</title>
<g id="a_Node000018"><a xlink:href="test__handle_event_8cpp.html#a00f6ce6db41fce20edc0e6febca98965" target="_top" xlink:title=" ">
<polygon fill="white" stroke="#666666" points="250.5,-726 198.5,-726 198.5,-707 250.5,-707 250.5,-726"/>
<text text-anchor="middle" x="224.5" y="-714" font-family="Helvetica,sans-Serif" font-size="10.00">TEST_F</text>
</a>
</g>
</g>
<!-- Node7&#45;&gt;Node18 -->
<g id="edge17_Node000007_Node000018" class="edge">
<title>Node7&#45;&gt;Node18</title>
<g id="a_edge17_Node000007_Node000018"><a xlink:title=" ">
<path fill="none" stroke="#63b8ff" d="M334.85,-809.15C322.18,-788.72 299.27,-755.9 272,-735.5 265.72,-730.8 258.1,-727.05 250.87,-724.18"/>
<polygon fill="#63b8ff" stroke="#63b8ff" points="331.92,-811.06 340.08,-817.82 337.91,-807.45 331.92,-811.06"/>
</a>
</g>
</g>
<!-- Node9 -->
<g id="Node000009" class="node">
<title>Node9</title>
<g id="a_Node000009"><a xlink:href="main_8cpp.html#ad53223b8779f25caeddb70a3b9172967" target="_top" xlink:title=" ">
<polygon fill="white" stroke="#666666" points="41,-948 0,-948 0,-929 41,-929 41,-948"/>
<text text-anchor="middle" x="20.5" y="-936" font-family="Helvetica,sans-Serif" font-size="10.00">main</text>
</a>
</g>
</g>
<!-- Node8&#45;&gt;Node9 -->
<g id="edge8_Node000008_Node000009" class="edge">
<title>Node8&#45;&gt;Node9</title>
<g id="a_edge8_Node000008_Node000009"><a xlink:title=" ">
<path fill="none" stroke="#63b8ff" d="M66.5,-938.5C57.64,-938.5 48.68,-938.5 41.11,-938.5"/>
<polygon fill="#63b8ff" stroke="#63b8ff" points="66.77,-942 76.77,-938.5 66.77,-935 66.77,-942"/>
</a>
</g>
</g>
<!-- Node10&#45;&gt;Node8 -->
<g id="edge10_Node000010_Node000008" class="edge">
<title>Node10&#45;&gt;Node8</title>
<g id="a_edge10_Node000010_Node000008"><a xlink:title=" ">
<path fill="none" stroke="#63b8ff" d="M184.42,-914.24C169.7,-919.04 153.23,-924.41 139.52,-928.88"/>
<polygon fill="#63b8ff" stroke="#63b8ff" points="185.85,-917.46 194.27,-911.03 183.68,-910.8 185.85,-917.46"/>
</a>
</g>
</g>
<!-- Node11 -->
<g id="Node000011" class="node">
<title>Node11</title>
<g id="a_Node000011"><a xlink:href="test__shutdown_server_8cpp.html#a6462dc91a572c9969b759806ed15590b" target="_top" xlink:title=" ">
<polygon fill="white" stroke="#666666" points="135,-911 83,-911 83,-892 135,-892 135,-911"/>
<text text-anchor="middle" x="109" y="-899" font-family="Helvetica,sans-Serif" font-size="10.00">TEST_F</text>
</a>
</g>
</g>
<!-- Node10&#45;&gt;Node11 -->
<g id="edge11_Node000010_Node000011" class="edge">
<title>Node10&#45;&gt;Node11</title>
<g id="a_edge11_Node000010_Node000011"><a xlink:title=" ">
<path fill="none" stroke="#63b8ff" d="M166.63,-901.5C155.63,-901.5 144.64,-901.5 135.3,-901.5"/>
<polygon fill="#63b8ff" stroke="#63b8ff" points="166.68,-905 176.68,-901.5 166.68,-898 166.68,-905"/>
</a>
</g>
</g>
<!-- Node12 -->
<g id="Node000012" class="node">
<title>Node12</title>
<g id="a_Node000012"><a xlink:href="test__shutdown_server_8cpp.html#a69fea7b0fb329821fdd955271edc65ee" target="_top" xlink:title=" ">
<polygon fill="white" stroke="#666666" points="135,-874 83,-874 83,-855 135,-855 135,-874"/>
<text text-anchor="middle" x="109" y="-862" font-family="Helvetica,sans-Serif" font-size="10.00">TEST_F</text>
</a>
</g>
</g>
<!-- Node10&#45;&gt;Node12 -->
<g id="edge12_Node000010_Node000012" class="edge">
<title>Node10&#45;&gt;Node12</title>
<g id="a_edge12_Node000010_Node000012"><a xlink:title=" ">
<path fill="none" stroke="#63b8ff" d="M184.47,-888.78C168.18,-883.47 149.74,-877.45 135.28,-872.74"/>
<polygon fill="#63b8ff" stroke="#63b8ff" points="183.68,-892.2 194.27,-891.97 185.85,-885.54 183.68,-892.2"/>
</a>
</g>
</g>
<!-- Node27 -->
<g id="Node000027" class="node">
<title>Node27</title>
<g id="a_Node000027"><a xlink:href="_server_8cpp.html#aa45d6529fd7be9b7adf788a9679ae34b" target="_top" xlink:title="Receive request header from a client.">
<polygon fill="white" stroke="#666666" points="1064,-537 920,-537 920,-518 1064,-518 1064,-537"/>
<text text-anchor="middle" x="992" y="-525" font-family="Helvetica,sans-Serif" font-size="10.00">connectionReceiveHeader</text>
</a>
</g>
</g>
<!-- Node26&#45;&gt;Node27 -->
<g id="edge28_Node000026_Node000027" class="edge">
<title>Node26&#45;&gt;Node27</title>
<g id="a_edge28_Node000026_Node000027"><a xlink:title=" ">
<path fill="none" stroke="#63b8ff" d="M1104.89,-394.55C1103.18,-395.77 1101.55,-397.09 1100,-398.5 1061.65,-433.41 1101.85,-474.04 1064,-509.5 1060.38,-512.89 1056.22,-515.67 1051.76,-517.93"/>
<polygon fill="#63b8ff" stroke="#63b8ff" points="1107.11,-397.29 1113.9,-389.15 1103.52,-391.29 1107.11,-397.29"/>
</a>
</g>
</g>
<!-- Node33 -->
<g id="Node000033" class="node">
<title>Node33</title>
<g id="a_Node000033"><a xlink:href="test__handle_complete_request_header_8cpp.html#a04308ae6ca27d5aac2ee1ae95e818f78" target="_top" xlink:title=" ">
<polygon fill="white" stroke="#666666" points="1018,-500 966,-500 966,-481 1018,-481 1018,-500"/>
<text text-anchor="middle" x="992" y="-488" font-family="Helvetica,sans-Serif" font-size="10.00">TEST_F</text>
</a>
</g>
</g>
<!-- Node26&#45;&gt;Node33 -->
<g id="edge35_Node000026_Node000033" class="edge">
<title>Node26&#45;&gt;Node33</title>
<g id="a_edge35_Node000026_Node000033"><a xlink:title=" ">
<path fill="none" stroke="#63b8ff" d="M1106.96,-393.72C1104.54,-395.17 1102.2,-396.76 1100,-398.5 1071.31,-421.18 1092.37,-449.41 1064,-472.5 1051.08,-483.02 1032.79,-487.48 1018.01,-489.34"/>
<polygon fill="#63b8ff" stroke="#63b8ff" points="1108.8,-396.71 1116.13,-389.06 1105.63,-390.47 1108.8,-396.71"/>
</a>
</g>
</g>
<!-- Node34 -->
<g id="Node000034" class="node">
<title>Node34</title>
<g id="a_Node000034"><a xlink:href="test__handle_complete_request_header_8cpp.html#a00d3c07453ceb8ca6576a951222a7829" target="_top" xlink:title=" ">
<polygon fill="white" stroke="#666666" points="1018,-463 966,-463 966,-444 1018,-444 1018,-463"/>
<text text-anchor="middle" x="992" y="-451" font-family="Helvetica,sans-Serif" font-size="10.00">TEST_F</text>
</a>
</g>
</g>
<!-- Node26&#45;&gt;Node34 -->
<g id="edge36_Node000026_Node000034" class="edge">
<title>Node26&#45;&gt;Node34</title>
<g id="a_edge36_Node000026_Node000034"><a xlink:title=" ">
<path fill="none" stroke="#63b8ff" d="M1113.12,-392.35C1108.57,-394.14 1104.15,-396.18 1100,-398.5 1079.97,-409.69 1083.87,-424.03 1064,-435.5 1050.01,-443.58 1032.43,-448.07 1018.26,-450.55"/>
<polygon fill="#63b8ff" stroke="#63b8ff" points="1114.34,-395.63 1122.62,-389.02 1112.02,-389.03 1114.34,-395.63"/>
</a>
</g>
</g>
<!-- Node35 -->
<g id="Node000035" class="node">
<title>Node35</title>
<g id="a_Node000035"><a xlink:href="test__handle_complete_request_header_8cpp.html#a739ac2f372ed080518c9ed3fc1365fbb" target="_top" xlink:title=" ">
<polygon fill="white" stroke="#666666" points="1018,-426 966,-426 966,-407 1018,-407 1018,-426"/>
<text text-anchor="middle" x="992" y="-414" font-family="Helvetica,sans-Serif" font-size="10.00">TEST_F</text>
</a>
</g>
</g>
<!-- Node26&#45;&gt;Node35 -->
<g id="edge37_Node000026_Node000035" class="edge">
<title>Node26&#45;&gt;Node35</title>
<g id="a_edge37_Node000026_Node000035"><a xlink:title=" ">
<path fill="none" stroke="#63b8ff" d="M1125.62,-390.94C1089.54,-397.9 1045.35,-406.41 1018.19,-411.65"/>
<polygon fill="#63b8ff" stroke="#63b8ff" points="1126.4,-394.36 1135.56,-389.03 1125.07,-387.48 1126.4,-394.36"/>
</a>
</g>
</g>
<!-- Node36 -->
<g id="Node000036" class="node">
<title>Node36</title>
<g id="a_Node000036"><a xlink:href="test__handle_complete_request_header_8cpp.html#a41eb7e7a9579a02f45e0d1c867697058" target="_top" xlink:title=" ">
<polygon fill="white" stroke="#666666" points="1018,-389 966,-389 966,-370 1018,-370 1018,-389"/>
<text text-anchor="middle" x="992" y="-377" font-family="Helvetica,sans-Serif" font-size="10.00">TEST_F</text>
</a>
</g>
</g>
<!-- Node26&#45;&gt;Node36 -->
<g id="edge38_Node000026_Node000036" class="edge">
<title>Node26&#45;&gt;Node36</title>
<g id="a_edge38_Node000026_Node000036"><a xlink:title=" ">
<path fill="none" stroke="#63b8ff" d="M1089.82,-379.5C1063.34,-379.5 1036.78,-379.5 1018.19,-379.5"/>
<polygon fill="#63b8ff" stroke="#63b8ff" points="1089.95,-383 1099.95,-379.5 1089.95,-376 1089.95,-383"/>
</a>
</g>
</g>
<!-- Node37 -->
<g id="Node000037" class="node">
<title>Node37</title>
<g id="a_Node000037"><a xlink:href="test__handle_complete_request_header_8cpp.html#aabe4d1cee9e0a7c2d66aa6d1b7d5c7cd" target="_top" xlink:title=" ">
<polygon fill="white" stroke="#666666" points="1018,-352 966,-352 966,-333 1018,-333 1018,-352"/>
<text text-anchor="middle" x="992" y="-340" font-family="Helvetica,sans-Serif" font-size="10.00">TEST_F</text>
</a>
</g>
</g>
<!-- Node26&#45;&gt;Node37 -->
<g id="edge39_Node000026_Node000037" class="edge">
<title>Node26&#45;&gt;Node37</title>
<g id="a_edge39_Node000026_Node000037"><a xlink:title=" ">
<path fill="none" stroke="#63b8ff" d="M1125.62,-368.06C1089.54,-361.1 1045.35,-352.59 1018.19,-347.35"/>
<polygon fill="#63b8ff" stroke="#63b8ff" points="1125.07,-371.52 1135.56,-369.97 1126.4,-364.64 1125.07,-371.52"/>
</a>
</g>
</g>
<!-- Node38 -->
<g id="Node000038" class="node">
<title>Node38</title>
<g id="a_Node000038"><a xlink:href="test__handle_complete_request_header_8cpp.html#a5705d4672adfefa8169bd3e9406e75f6" target="_top" xlink:title=" ">
<polygon fill="white" stroke="#666666" points="1018,-315 966,-315 966,-296 1018,-296 1018,-315"/>
<text text-anchor="middle" x="992" y="-303" font-family="Helvetica,sans-Serif" font-size="10.00">TEST_F</text>
</a>
</g>
</g>
<!-- Node26&#45;&gt;Node38 -->
<g id="edge40_Node000026_Node000038" class="edge">
<title>Node26&#45;&gt;Node38</title>
<g id="a_edge40_Node000026_Node000038"><a xlink:title=" ">
<path fill="none" stroke="#63b8ff" d="M1110.33,-366.42C1106.76,-364.95 1103.3,-363.32 1100,-361.5 1079.91,-350.42 1083.79,-336.1 1064,-324.5 1050.02,-316.3 1032.44,-311.56 1018.27,-308.87"/>
<polygon fill="#63b8ff" stroke="#63b8ff" points="1109.36,-369.8 1119.96,-369.94 1111.77,-363.22 1109.36,-369.8"/>
</a>
</g>
</g>
<!-- Node39 -->
<g id="Node000039" class="node">
<title>Node39</title>
<g id="a_Node000039"><a xlink:href="test__handle_complete_request_header_8cpp.html#a63c4237c8b0edef77a20f599133d77d4" target="_top" xlink:title=" ">
<polygon fill="white" stroke="#666666" points="1018,-278 966,-278 966,-259 1018,-259 1018,-278"/>
<text text-anchor="middle" x="992" y="-266" font-family="Helvetica,sans-Serif" font-size="10.00">TEST_F</text>
</a>
</g>
</g>
<!-- Node26&#45;&gt;Node39 -->
<g id="edge41_Node000026_Node000039" class="edge">
<title>Node26&#45;&gt;Node39</title>
<g id="a_edge41_Node000026_Node000039"><a xlink:title=" ">
<path fill="none" stroke="#63b8ff" d="M1105,-365.02C1103.28,-363.93 1101.6,-362.75 1100,-361.5 1071.18,-338.98 1092.21,-310.77 1064,-287.5 1051.11,-276.86 1032.82,-272.14 1018.03,-270.06"/>
<polygon fill="#63b8ff" stroke="#63b8ff" points="1103.58,-368.23 1114.05,-369.88 1106.89,-362.06 1103.58,-368.23"/>
</a>
</g>
</g>
<!-- Node40 -->
<g id="Node000040" class="node">
<title>Node40</title>
<g id="a_Node000040"><a xlink:href="test__handle_complete_request_header_8cpp.html#a7e6245bb424d27191d406b619a2fe40b" target="_top" xlink:title=" ">
<polygon fill="white" stroke="#666666" points="1018,-241 966,-241 966,-222 1018,-222 1018,-241"/>
<text text-anchor="middle" x="992" y="-229" font-family="Helvetica,sans-Serif" font-size="10.00">TEST_F</text>
</a>
</g>
</g>
<!-- Node26&#45;&gt;Node40 -->
<g id="edge42_Node000026_Node000040" class="edge">
<title>Node26&#45;&gt;Node40</title>
<g id="a_edge42_Node000026_Node000040"><a xlink:title=" ">
<path fill="none" stroke="#63b8ff" d="M1103.6,-364.46C1102.36,-363.53 1101.16,-362.54 1100,-361.5 1061.45,-326.8 1101.62,-286.2 1064,-250.5 1051.78,-238.9 1033.29,-234.22 1018.24,-232.39"/>
<polygon fill="#63b8ff" stroke="#63b8ff" points="1101.96,-367.57 1112.29,-369.9 1105.67,-361.63 1101.96,-367.57"/>
</a>
</g>
</g>
<!-- Node41 -->
<g id="Node000041" class="node">
<title>Node41</title>
<g id="a_Node000041"><a xlink:href="test__handle_complete_request_header_8cpp.html#a81f58aa1f3c7c6dde6c93f27c83618d7" target="_top" xlink:title=" ">
<polygon fill="white" stroke="#666666" points="1018,-204 966,-204 966,-185 1018,-185 1018,-204"/>
<text text-anchor="middle" x="992" y="-192" font-family="Helvetica,sans-Serif" font-size="10.00">TEST_F</text>
</a>
</g>
</g>
<!-- Node26&#45;&gt;Node41 -->
<g id="edge43_Node000026_Node000041" class="edge">
<title>Node26&#45;&gt;Node41</title>
<g id="a_edge43_Node000026_Node000041"><a xlink:title=" ">
<path fill="none" stroke="#63b8ff" d="M1102.93,-364.13C1101.92,-363.29 1100.94,-362.42 1100,-361.5 1051.15,-314.01 1111.9,-260.94 1064,-212.5 1052.11,-200.47 1033.41,-196.09 1018.19,-194.64"/>
<polygon fill="#63b8ff" stroke="#63b8ff" points="1100.98,-367.03 1111.21,-369.78 1104.92,-361.25 1100.98,-367.03"/>
</a>
</g>
</g>
<!-- Node27&#45;&gt;Node6 -->
<g id="edge29_Node000027_Node000006" class="edge">
<title>Node27&#45;&gt;Node6</title>
<g id="a_edge29_Node000027_Node000006"><a xlink:title=" ">
<path fill="none" stroke="#63b8ff" d="M966.5,-542.25C945.26,-554.57 913.4,-571.92 884,-583.5 823.1,-607.48 800.63,-593.41 742,-622.5 629.18,-678.47 516.83,-785.02 483.74,-817.72"/>
<polygon fill="#63b8ff" stroke="#63b8ff" points="968.34,-545.23 975.19,-537.15 964.8,-539.2 968.34,-545.23"/>
</a>
</g>
</g>
<!-- Node28 -->
<g id="Node000028" class="node">
<title>Node28</title>
<g id="a_Node000028"><a xlink:href="test__connection_receive_header_8cpp.html#ae40546436ca5ae6d8af1f754dfff4a98" target="_top" xlink:title=" ">
<polygon fill="white" stroke="#666666" points="839,-574 787,-574 787,-555 839,-555 839,-574"/>
<text text-anchor="middle" x="813" y="-562" font-family="Helvetica,sans-Serif" font-size="10.00">TEST_F</text>
</a>
</g>
</g>
<!-- Node27&#45;&gt;Node28 -->
<g id="edge30_Node000027_Node000028" class="edge">
<title>Node27&#45;&gt;Node28</title>
<g id="a_edge30_Node000027_Node000028"><a xlink:title=" ">
<path fill="none" stroke="#63b8ff" d="M935.23,-539.16C903.03,-545.89 864.1,-554.03 839.2,-559.23"/>
<polygon fill="#63b8ff" stroke="#63b8ff" points="936.35,-542.5 945.42,-537.03 934.91,-535.65 936.35,-542.5"/>
</a>
</g>
</g>
<!-- Node29 -->
<g id="Node000029" class="node">
<title>Node29</title>
<g id="a_Node000029"><a xlink:href="test__connection_receive_header_8cpp.html#a0952222a64d85993a5b3d9022826859c" target="_top" xlink:title=" ">
<polygon fill="white" stroke="#666666" points="839,-537 787,-537 787,-518 839,-518 839,-537"/>
<text text-anchor="middle" x="813" y="-525" font-family="Helvetica,sans-Serif" font-size="10.00">TEST_F</text>
</a>
</g>
</g>
<!-- Node27&#45;&gt;Node29 -->
<g id="edge31_Node000027_Node000029" class="edge">
<title>Node27&#45;&gt;Node29</title>
<g id="a_edge31_Node000027_Node000029"><a xlink:title=" ">
<path fill="none" stroke="#63b8ff" d="M909.69,-527.5C884.23,-527.5 857.97,-527.5 839.41,-527.5"/>
<polygon fill="#63b8ff" stroke="#63b8ff" points="909.77,-531 919.77,-527.5 909.77,-524 909.77,-531"/>
</a>
</g>
</g>
<!-- Node30 -->
<g id="Node000030" class="node">
<title>Node30</title>
<g id="a_Node000030"><a xlink:href="test__connection_receive_header_8cpp.html#a492a1135a23e13de8b412f266f5422dd" target="_top" xlink:title=" ">
<polygon fill="white" stroke="#666666" points="839,-500 787,-500 787,-481 839,-481 839,-500"/>
<text text-anchor="middle" x="813" y="-488" font-family="Helvetica,sans-Serif" font-size="10.00">TEST_F</text>
</a>
</g>
</g>
<!-- Node27&#45;&gt;Node30 -->
<g id="edge32_Node000027_Node000030" class="edge">
<title>Node27&#45;&gt;Node30</title>
<g id="a_edge32_Node000027_Node000030"><a xlink:title=" ">
<path fill="none" stroke="#63b8ff" d="M935.23,-515.84C903.03,-509.11 864.1,-500.97 839.2,-495.77"/>
<polygon fill="#63b8ff" stroke="#63b8ff" points="934.91,-519.35 945.42,-517.97 936.35,-512.5 934.91,-519.35"/>
</a>
</g>
</g>
<!-- Node31 -->
<g id="Node000031" class="node">
<title>Node31</title>
<g id="a_Node000031"><a xlink:href="test__connection_receive_header_8cpp.html#a42aad638a3786700de9108d63bbba850" target="_top" xlink:title=" ">
<polygon fill="white" stroke="#666666" points="839,-463 787,-463 787,-444 839,-444 839,-463"/>
<text text-anchor="middle" x="813" y="-451" font-family="Helvetica,sans-Serif" font-size="10.00">TEST_F</text>
</a>
</g>
</g>
<!-- Node27&#45;&gt;Node31 -->
<g id="edge33_Node000027_Node000031" class="edge">
<title>Node27&#45;&gt;Node31</title>
<g id="a_edge33_Node000027_Node000031"><a xlink:title=" ">
<path fill="none" stroke="#63b8ff" d="M929.64,-514.31C926.31,-512.87 923.07,-511.27 920,-509.5 900.13,-498.03 903.77,-484.14 884,-472.5 870.33,-464.45 853.16,-459.72 839.24,-457"/>
<polygon fill="#63b8ff" stroke="#63b8ff" points="928.66,-517.68 939.25,-517.98 931.16,-511.14 928.66,-517.68"/>
</a>
</g>
</g>
<!-- Node32 -->
<g id="Node000032" class="node">
<title>Node32</title>
<g id="a_Node000032"><a xlink:href="test__connection_receive_header_8cpp.html#aa34cc8553c29e19d06c302699e916a3e" target="_top" xlink:title=" ">
<polygon fill="white" stroke="#666666" points="839,-426 787,-426 787,-407 839,-407 839,-426"/>
<text text-anchor="middle" x="813" y="-414" font-family="Helvetica,sans-Serif" font-size="10.00">TEST_F</text>
</a>
</g>
</g>
<!-- Node27&#45;&gt;Node32 -->
<g id="edge34_Node000027_Node000032" class="edge">
<title>Node27&#45;&gt;Node32</title>
<g id="a_edge34_Node000027_Node000032"><a xlink:title=" ">
<path fill="none" stroke="#63b8ff" d="M924.88,-513.04C923.18,-511.94 921.55,-510.76 920,-509.5 891.63,-486.41 912.17,-458.82 884,-435.5 871.39,-425.06 853.54,-420.32 839.02,-418.19"/>
<polygon fill="#63b8ff" stroke="#63b8ff" points="923.33,-516.18 933.79,-517.86 926.66,-510.02 923.33,-516.18"/>
</a>
</g>
</g>
</g>
</svg>

<g id="navigator" transform="translate(0 0)" fill="#404254">
  <rect fill="#f2f5e9" fill-opacity="0.5" stroke="#606060" stroke-width=".5" x="0" y="0" width="60" height="60"/>
  <use id="zoomplus" xlink:href="#zoomPlus" x="17" y="9" onmousedown="handleZoom(evt,'in')"/>
  <use id="zoomminus" xlink:href="#zoomMin" x="42" y="9" onmousedown="handleZoom(evt,'out')"/>
  <use id="reset" xlink:href="#resetDef" x="30" y="36" onmousedown="handleReset()"/>
   <use id="arrowup" xlink:href="#arrowUp" x="0" y="0" onmousedown="handlePan(0,-1)"/>
  <use id="arrowright" xlink:href="#arrowRight" x="0" y="0" onmousedown="handlePan(1,0)"/>
  <use id="arrowdown" xlink:href="#arrowDown" x="0" y="0" onmousedown="handlePan(0,1)"/>
  <use id="arrowleft" xlink:href="#arrowLeft" x="0" y="0" onmousedown="handlePan(-1,0)"/>
</g>
<svg viewBox="0 0 15 15" width="100%" height="30px" preserveAspectRatio="xMaxYMin meet">
 <g id="arrow_out" transform="scale(0.3 0.3)">
  <a xlink:href="_connection_8cpp_a354192f8dd87ca049cf8b7e6de9000da_icgraph_org.svg" target="_base">
   <rect id="button" ry="5" rx="5" y="6" x="6" height="38" width="38"
        fill="#f2f5e9" fill-opacity="0.5" stroke="#606060" stroke-width="1.0"/>
   <path id="arrow"
     d="M 11.500037,31.436501 C 11.940474,20.09759 22.043105,11.32322 32.158766,21.979434 L 37.068811,17.246167 C 37.068811,17.246167 37.088388,32 37.088388,32 L 22.160133,31.978069 C 22.160133,31.978069 26.997745,27.140456 26.997745,27.140456 C 18.528582,18.264221 13.291696,25.230495 11.500037,31.436501 z"
     style="fill:#404040;"/>
  </a>
 </g>
</svg>

<style type='text/css'>
<![CDATA[
[data-mouse-over-selected='false'] { opacity: 0.7; }
[data-mouse-over-selected='true']  { opacity: 1.0; }
]]>
</style>
<script type="application/ecmascript"><![CDATA[
document.addEventListener('DOMContentLoaded', (event) => {
  highlightEdges();
  highlightAdjacentNodes();
});
]]></script>
</svg>
