<?xml version="1.0" encoding="UTF-8" standalone="no"?>
<!DOCTYPE svg PUBLIC "-//W3C//DTD SVG 1.1//EN"
 "http://www.w3.org/Graphics/SVG/1.1/DTD/svg11.dtd">
<!-- Generated by graphviz version 2.43.0 (0)
 -->
<!-- Title: inc/ConfigFile.hpp Pages: 1 -->
<svg width="3014pt" height="445pt"
 viewBox="0.00 0.00 3013.50 445.00" xmlns="http://www.w3.org/2000/svg" xmlns:xlink="http://www.w3.org/1999/xlink">
<g id="graph0" class="graph" transform="scale(1 1) rotate(0) translate(4 441)">
<title>inc/ConfigFile.hpp</title>
<!-- Node1 -->
<g id="Node000001" class="node">
<title>Node1</title>
<g id="a_Node000001"><a xlink:title=" ">
<polygon fill="#999999" stroke="#666666" points="1343.5,-437 1240.5,-437 1240.5,-418 1343.5,-418 1343.5,-437"/>
<text text-anchor="middle" x="1292" y="-425" font-family="Helvetica,sans-Serif" font-size="10.00">inc/ConfigFile.hpp</text>
</a>
</g>
</g>
<!-- Node2 -->
<g id="Node000002" class="node">
<title>Node2</title>
<g id="a_Node000002"><a xlink:href="_c_g_i_handler_8hpp.html" target="_top" xlink:title=" ">
<polygon fill="white" stroke="#666666" points="1226,-321.5 1116,-321.5 1116,-302.5 1226,-302.5 1226,-321.5"/>
<text text-anchor="middle" x="1171" y="-309.5" font-family="Helvetica,sans-Serif" font-size="10.00">inc/CGIHandler.hpp</text>
</a>
</g>
</g>
<!-- Node1&#45;&gt;Node2 -->
<g id="edge1_Node000001_Node000002" class="edge">
<title>Node1&#45;&gt;Node2</title>
<g id="a_edge1_Node000001_Node000002"><a xlink:title=" ">
<path fill="none" stroke="#63b8ff" d="M1275.39,-410.92C1249.54,-386.67 1200.53,-340.7 1180.2,-321.63"/>
<polygon fill="#63b8ff" stroke="#63b8ff" points="1273.22,-413.68 1282.91,-417.97 1278.01,-408.57 1273.22,-413.68"/>
</a>
</g>
</g>
<!-- Node3 -->
<g id="Node000003" class="node">
<title>Node3</title>
<g id="a_Node000003"><a xlink:href="_server_8hpp.html" target="_top" xlink:title=" ">
<polygon fill="white" stroke="#666666" points="1574,-140 1488,-140 1488,-121 1574,-121 1574,-140"/>
<text text-anchor="middle" x="1531" y="-128" font-family="Helvetica,sans-Serif" font-size="10.00">inc/Server.hpp</text>
</a>
</g>
</g>
<!-- Node1&#45;&gt;Node3 -->
<g id="edge54_Node000001_Node000003" class="edge">
<title>Node1&#45;&gt;Node3</title>
<g id="a_edge54_Node000001_Node000003"><a xlink:title=" ">
<path fill="none" stroke="#63b8ff" d="M1298.85,-408.21C1316.89,-362.41 1370.15,-241.75 1453,-176 1471.69,-161.17 1495.9,-148.17 1512.35,-140.11"/>
<polygon fill="#63b8ff" stroke="#63b8ff" points="1295.51,-407.13 1295.19,-417.72 1302.04,-409.64 1295.51,-407.13"/>
</a>
</g>
</g>
<!-- Node4 -->
<g id="Node000004" class="node">
<title>Node4</title>
<g id="a_Node000004"><a xlink:href="_config_file_parser_8hpp.html" target="_top" xlink:title=" ">
<polygon fill="white" stroke="#666666" points="228,-79.5 96,-79.5 96,-60.5 228,-60.5 228,-79.5"/>
<text text-anchor="middle" x="162" y="-67.5" font-family="Helvetica,sans-Serif" font-size="10.00">inc/ConfigFileParser.hpp</text>
</a>
</g>
</g>
<!-- Node1&#45;&gt;Node4 -->
<g id="edge26_Node000001_Node000004" class="edge">
<title>Node1&#45;&gt;Node4</title>
<g id="a_edge26_Node000001_Node000004"><a xlink:title=" ">
<path fill="none" stroke="#63b8ff" d="M1230.08,-426.62C998.68,-426.28 198,-417.55 198,-313 198,-313 198,-313 198,-184.5 198,-143.57 176.46,-98.06 166.71,-79.54"/>
<polygon fill="#63b8ff" stroke="#63b8ff" points="1230.33,-430.12 1240.34,-426.63 1230.34,-423.12 1230.33,-430.12"/>
</a>
</g>
</g>
<!-- Node12 -->
<g id="Node000012" class="node">
<title>Node12</title>
<g id="a_Node000012"><a xlink:href="test__connection_receive_header_8cpp.html" target="_top" xlink:title=" ">
<polygon fill="white" stroke="#666666" points="401.5,-85 246.5,-85 246.5,-55 401.5,-55 401.5,-85"/>
<text text-anchor="start" x="254.5" y="-73" font-family="Helvetica,sans-Serif" font-size="10.00">test/test_connectionReceive</text>
<text text-anchor="middle" x="324" y="-62" font-family="Helvetica,sans-Serif" font-size="10.00">Header.cpp</text>
</a>
</g>
</g>
<!-- Node1&#45;&gt;Node12 -->
<g id="edge62_Node000001_Node000012" class="edge">
<title>Node1&#45;&gt;Node12</title>
<g id="a_edge62_Node000001_Node000012"><a xlink:title=" ">
<path fill="none" stroke="#63b8ff" d="M1230.13,-427.44C1120.97,-427.88 887.61,-423.3 696,-382 608.58,-363.16 507,-402.42 507,-313 507,-313 507,-313 507,-184.5 507,-129.17 445.84,-99.88 394.23,-85.01"/>
<polygon fill="#63b8ff" stroke="#63b8ff" points="1230.32,-430.94 1240.3,-427.39 1230.28,-423.94 1230.32,-430.94"/>
</a>
</g>
</g>
<!-- Node17 -->
<g id="Node000017" class="node">
<title>Node17</title>
<g id="a_Node000017"><a xlink:href="test__init_virtual_servers_8cpp.html" target="_top" xlink:title=" ">
<polygon fill="white" stroke="#666666" points="586.5,-79.5 419.5,-79.5 419.5,-60.5 586.5,-60.5 586.5,-79.5"/>
<text text-anchor="middle" x="503" y="-67.5" font-family="Helvetica,sans-Serif" font-size="10.00">test/test_initVirtualServers.cpp</text>
</a>
</g>
</g>
<!-- Node1&#45;&gt;Node17 -->
<g id="edge63_Node000001_Node000017" class="edge">
<title>Node1&#45;&gt;Node17</title>
<g id="a_edge63_Node000001_Node000017"><a xlink:title=" ">
<path fill="none" stroke="#63b8ff" d="M1229.99,-423.11C1056.7,-412.82 580,-378.55 580,-313 580,-313 580,-313 580,-184.5 580,-138.31 535.78,-96.94 514.36,-79.62"/>
<polygon fill="#63b8ff" stroke="#63b8ff" points="1230.03,-426.62 1240.22,-423.71 1230.44,-419.63 1230.03,-426.62"/>
</a>
</g>
</g>
<!-- Node18 -->
<g id="Node000018" class="node">
<title>Node18</title>
<g id="a_Node000018"><a xlink:href="test__is_duplicate_server_8cpp.html" target="_top" xlink:title=" ">
<polygon fill="white" stroke="#666666" points="772,-79.5 604,-79.5 604,-60.5 772,-60.5 772,-79.5"/>
<text text-anchor="middle" x="688" y="-67.5" font-family="Helvetica,sans-Serif" font-size="10.00">test/test_isDuplicateServer.cpp</text>
</a>
</g>
</g>
<!-- Node1&#45;&gt;Node18 -->
<g id="edge64_Node000001_Node000018" class="edge">
<title>Node1&#45;&gt;Node18</title>
<g id="a_edge64_Node000001_Node000018"><a xlink:title=" ">
<path fill="none" stroke="#63b8ff" d="M1230.17,-426.35C1088.79,-424.33 754,-409.39 754,-313 754,-313 754,-313 754,-184.5 754,-140.05 715.71,-97.46 697.46,-79.69"/>
<polygon fill="#63b8ff" stroke="#63b8ff" points="1230.37,-429.85 1240.41,-426.48 1230.46,-422.85 1230.37,-429.85"/>
</a>
</g>
</g>
<!-- Node19 -->
<g id="Node000019" class="node">
<title>Node19</title>
<g id="a_Node000019"><a xlink:href="test__register_c_g_i_file_descriptor_8cpp.html" target="_top" xlink:title=" ">
<polygon fill="white" stroke="#666666" points="924,-85 790,-85 790,-55 924,-55 924,-85"/>
<text text-anchor="start" x="798" y="-73" font-family="Helvetica,sans-Serif" font-size="10.00">test/test_registerCGIFile</text>
<text text-anchor="middle" x="857" y="-62" font-family="Helvetica,sans-Serif" font-size="10.00">Descriptor.cpp</text>
</a>
</g>
</g>
<!-- Node1&#45;&gt;Node19 -->
<g id="edge65_Node000001_Node000019" class="edge">
<title>Node1&#45;&gt;Node19</title>
<g id="a_edge65_Node000001_Node000019"><a xlink:title=" ">
<path fill="none" stroke="#63b8ff" d="M1230.35,-423.71C1140.88,-418.85 980.05,-406.91 928,-382 888.31,-363 857,-357 857,-313 857,-313 857,-313 857,-184.5 857,-148.83 857,-106.86 857,-85.33"/>
<polygon fill="#63b8ff" stroke="#63b8ff" points="1230.2,-427.2 1240.37,-424.24 1230.57,-420.21 1230.2,-427.2"/>
</a>
</g>
</g>
<!-- Node20 -->
<g id="Node000020" class="node">
<title>Node20</title>
<g id="a_Node000020"><a xlink:href="test__register_connection_8cpp.html" target="_top" xlink:title=" ">
<polygon fill="white" stroke="#666666" points="1117.5,-79.5 942.5,-79.5 942.5,-60.5 1117.5,-60.5 1117.5,-79.5"/>
<text text-anchor="middle" x="1030" y="-67.5" font-family="Helvetica,sans-Serif" font-size="10.00">test/test_registerConnection.cpp</text>
</a>
</g>
</g>
<!-- Node1&#45;&gt;Node20 -->
<g id="edge66_Node000001_Node000020" class="edge">
<title>Node1&#45;&gt;Node20</title>
<g id="a_edge66_Node000001_Node000020"><a xlink:title=" ">
<path fill="none" stroke="#63b8ff" d="M1230.41,-427C1165.95,-425.43 1063.06,-416.9 982,-382 936.67,-362.48 895,-362.35 895,-313 895,-313 895,-313 895,-184.5 895,-128.16 964.74,-94.17 1003.97,-79.51"/>
<polygon fill="#63b8ff" stroke="#63b8ff" points="1230.34,-430.5 1240.41,-427.2 1230.48,-423.51 1230.34,-430.5"/>
</a>
</g>
</g>
<!-- Node21 -->
<g id="Node000021" class="node">
<title>Node21</title>
<g id="a_Node000021"><a xlink:href="test__register_virtual_server_8cpp.html" target="_top" xlink:title=" ">
<polygon fill="white" stroke="#666666" points="1268,-85 1136,-85 1136,-55 1268,-55 1268,-85"/>
<text text-anchor="start" x="1144" y="-73" font-family="Helvetica,sans-Serif" font-size="10.00">test/test_registerVirtual</text>
<text text-anchor="middle" x="1202" y="-62" font-family="Helvetica,sans-Serif" font-size="10.00">Server.cpp</text>
</a>
</g>
</g>
<!-- Node1&#45;&gt;Node21 -->
<g id="edge67_Node000001_Node000021" class="edge">
<title>Node1&#45;&gt;Node21</title>
<g id="a_edge67_Node000001_Node000021"><a xlink:title=" ">
<path fill="none" stroke="#63b8ff" d="M1230.24,-419.83C1127.59,-407.02 933,-374.6 933,-313 933,-313 933,-313 933,-184.5 933,-140.53 1056.56,-104.03 1136.2,-85.07"/>
<polygon fill="#63b8ff" stroke="#63b8ff" points="1229.83,-423.31 1240.18,-421.05 1230.68,-416.36 1229.83,-423.31"/>
</a>
</g>
</g>
<!-- Node25 -->
<g id="Node000025" class="node">
<title>Node25</title>
<g id="a_Node000025"><a xlink:href="test___c_g_i_handler_8cpp.html" target="_top" xlink:title=" ">
<polygon fill="white" stroke="#666666" points="1098.5,-255.5 961.5,-255.5 961.5,-236.5 1098.5,-236.5 1098.5,-255.5"/>
<text text-anchor="middle" x="1030" y="-243.5" font-family="Helvetica,sans-Serif" font-size="10.00">test/test_CGIHandler.cpp</text>
</a>
</g>
</g>
<!-- Node1&#45;&gt;Node25 -->
<g id="edge58_Node000001_Node000025" class="edge">
<title>Node1&#45;&gt;Node25</title>
<g id="a_edge58_Node000001_Node000025"><a xlink:title=" ">
<path fill="none" stroke="#63b8ff" d="M1261.84,-413.81C1223.75,-397.01 1157.14,-365.04 1107,-327 1077.67,-304.75 1049.24,-271.17 1036.7,-255.55"/>
<polygon fill="#63b8ff" stroke="#63b8ff" points="1260.77,-417.16 1271.34,-417.94 1263.57,-410.74 1260.77,-417.16"/>
</a>
</g>
</g>
<!-- Node26 -->
<g id="Node000026" class="node">
<title>Node26</title>
<g id="a_Node000026"><a xlink:href="_connection_8hpp.html" target="_top" xlink:title=" ">
<polygon fill="white" stroke="#666666" points="1506,-382 1396,-382 1396,-363 1506,-363 1506,-382"/>
<text text-anchor="middle" x="1451" y="-370" font-family="Helvetica,sans-Serif" font-size="10.00">inc/Connection.hpp</text>
</a>
</g>
</g>
<!-- Node1&#45;&gt;Node26 -->
<g id="edge27_Node000001_Node000026" class="edge">
<title>Node1&#45;&gt;Node26</title>
<g id="a_edge27_Node000001_Node000026"><a xlink:title=" ">
<path fill="none" stroke="#63b8ff" d="M1327.1,-414.8C1356.78,-404.91 1398.6,-390.97 1425.25,-382.08"/>
<polygon fill="#63b8ff" stroke="#63b8ff" points="1325.93,-411.5 1317.55,-417.98 1328.14,-418.14 1325.93,-411.5"/>
</a>
</g>
</g>
<!-- Node28 -->
<g id="Node000028" class="node">
<title>Node28</title>
<g id="a_Node000028"><a xlink:href="_response_builder_8hpp.html" target="_top" xlink:title=" ">
<polygon fill="white" stroke="#666666" points="2393,-195 2257,-195 2257,-176 2393,-176 2393,-195"/>
<text text-anchor="middle" x="2325" y="-183" font-family="Helvetica,sans-Serif" font-size="10.00">inc/ResponseBuilder.hpp</text>
</a>
</g>
</g>
<!-- Node1&#45;&gt;Node28 -->
<g id="edge53_Node000001_Node000028" class="edge">
<title>Node1&#45;&gt;Node28</title>
<g id="a_edge53_Node000001_Node000028"><a xlink:title=" ">
<path fill="none" stroke="#63b8ff" d="M1353.83,-426.66C1529.08,-426.56 2043.88,-422.56 2469,-382 2629.25,-366.71 2722.17,-449.17 2827,-327 2886.19,-258.02 2543.41,-210.79 2393.04,-193.64"/>
<polygon fill="#63b8ff" stroke="#63b8ff" points="1353.77,-423.15 1343.77,-426.66 1353.77,-430.15 1353.77,-423.15"/>
</a>
</g>
</g>
<!-- Node31 -->
<g id="Node000031" class="node">
<title>Node31</title>
<g id="a_Node000031"><a xlink:href="test___response_body_handler_8cpp.html" target="_top" xlink:title=" ">
<polygon fill="white" stroke="#666666" points="2069,-195 1877,-195 1877,-176 2069,-176 2069,-195"/>
<text text-anchor="middle" x="1973" y="-183" font-family="Helvetica,sans-Serif" font-size="10.00">test/test_ResponseBodyHandler.cpp</text>
</a>
</g>
</g>
<!-- Node1&#45;&gt;Node31 -->
<g id="edge60_Node000001_Node000031" class="edge">
<title>Node1&#45;&gt;Node31</title>
<g id="a_edge60_Node000001_Node000031"><a xlink:title=" ">
<path fill="none" stroke="#63b8ff" d="M1353.69,-424.44C1499.26,-419.28 1860.84,-404.55 1980,-382 2058.86,-367.08 2104.67,-391.82 2152,-327 2198.13,-263.82 2065.82,-214.33 2003.5,-195.14"/>
<polygon fill="#63b8ff" stroke="#63b8ff" points="1353.46,-420.95 1343.59,-424.8 1353.7,-427.95 1353.46,-420.95"/>
</a>
</g>
</g>
<!-- Node32 -->
<g id="Node000032" class="node">
<title>Node32</title>
<g id="a_Node000032"><a xlink:href="_target_resource_handler_8hpp.html" target="_top" xlink:title=" ">
<polygon fill="white" stroke="#666666" points="1728.5,-321.5 1561.5,-321.5 1561.5,-302.5 1728.5,-302.5 1728.5,-321.5"/>
<text text-anchor="middle" x="1645" y="-309.5" font-family="Helvetica,sans-Serif" font-size="10.00">inc/TargetResourceHandler.hpp</text>
</a>
</g>
</g>
<!-- Node1&#45;&gt;Node32 -->
<g id="edge55_Node000001_Node000032" class="edge">
<title>Node1&#45;&gt;Node32</title>
<g id="a_edge55_Node000001_Node000032"><a xlink:title=" ">
<path fill="none" stroke="#63b8ff" d="M1353.63,-419.12C1399.14,-412.5 1462.11,-400.86 1515,-382 1560.25,-365.87 1609.15,-336.22 1631.93,-321.6"/>
<polygon fill="#63b8ff" stroke="#63b8ff" points="1353.03,-415.67 1343.62,-420.54 1354.01,-422.6 1353.03,-415.67"/>
</a>
</g>
</g>
<!-- Node34 -->
<g id="Node000034" class="node">
<title>Node34</title>
<g id="a_Node000034"><a xlink:href="test___target_resource_handler_8cpp.html" target="_top" xlink:title=" ">
<polygon fill="white" stroke="#666666" points="2066.5,-261 1929.5,-261 1929.5,-231 2066.5,-231 2066.5,-261"/>
<text text-anchor="start" x="1937.5" y="-249" font-family="Helvetica,sans-Serif" font-size="10.00">test/test_TargetResource</text>
<text text-anchor="middle" x="1998" y="-238" font-family="Helvetica,sans-Serif" font-size="10.00">Handler.cpp</text>
</a>
</g>
</g>
<!-- Node1&#45;&gt;Node34 -->
<g id="edge61_Node000001_Node000034" class="edge">
<title>Node1&#45;&gt;Node34</title>
<g id="a_edge61_Node000001_Node000034"><a xlink:title=" ">
<path fill="none" stroke="#63b8ff" d="M1353.9,-423.86C1539.74,-415.29 2083.21,-385.41 2135,-327 2162.32,-296.19 2111.01,-274.08 2063.59,-261.02"/>
<polygon fill="#63b8ff" stroke="#63b8ff" points="1353.58,-420.37 1343.75,-424.32 1353.9,-427.36 1353.58,-420.37"/>
</a>
</g>
</g>
<!-- Node36 -->
<g id="Node000036" class="node">
<title>Node36</title>
<g id="a_Node000036"><a xlink:href="_log_ostream_inserters_8cpp.html" target="_top" xlink:title=" ">
<polygon fill="white" stroke="#666666" points="1940,-321.5 1784,-321.5 1784,-302.5 1940,-302.5 1940,-321.5"/>
<text text-anchor="middle" x="1862" y="-309.5" font-family="Helvetica,sans-Serif" font-size="10.00">src/LogOstreamInserters.cpp</text>
</a>
</g>
</g>
<!-- Node1&#45;&gt;Node36 -->
<g id="edge57_Node000001_Node000036" class="edge">
<title>Node1&#45;&gt;Node36</title>
<g id="a_edge57_Node000001_Node000036"><a xlink:title=" ">
<path fill="none" stroke="#63b8ff" d="M1353.91,-416.59C1406.05,-408.05 1482.56,-395.07 1549,-382 1649.73,-362.19 1767.85,-335.09 1825.96,-321.5"/>
<polygon fill="#63b8ff" stroke="#63b8ff" points="1353.12,-413.17 1343.81,-418.24 1354.25,-420.08 1353.12,-413.17"/>
</a>
</g>
</g>
<!-- Node37 -->
<g id="Node000037" class="node">
<title>Node37</title>
<g id="a_Node000037"><a xlink:href="test___ostream_inserters_8cpp.html" target="_top" xlink:title=" ">
<polygon fill="white" stroke="#666666" points="2125.5,-321.5 1958.5,-321.5 1958.5,-302.5 2125.5,-302.5 2125.5,-321.5"/>
<text text-anchor="middle" x="2042" y="-309.5" font-family="Helvetica,sans-Serif" font-size="10.00">test/test_OstreamInserters.cpp</text>
</a>
</g>
</g>
<!-- Node1&#45;&gt;Node37 -->
<g id="edge59_Node000001_Node000037" class="edge">
<title>Node1&#45;&gt;Node37</title>
<g id="a_edge59_Node000001_Node000037"><a xlink:title=" ">
<path fill="none" stroke="#63b8ff" d="M1353.93,-418.02C1417.3,-409.28 1518.57,-395.11 1606,-382 1744.88,-361.17 1908.34,-334.81 1990.03,-321.5"/>
<polygon fill="#63b8ff" stroke="#63b8ff" points="1353.14,-414.6 1343.71,-419.43 1354.1,-421.53 1353.14,-414.6"/>
</a>
</g>
</g>
<!-- Node38 -->
<g id="Node000038" class="node">
<title>Node38</title>
<g id="a_Node000038"><a xlink:href="_request_parser_8hpp.html" target="_top" xlink:title=" ">
<polygon fill="white" stroke="#666666" points="2460,-382 2336,-382 2336,-363 2460,-363 2460,-382"/>
<text text-anchor="middle" x="2398" y="-370" font-family="Helvetica,sans-Serif" font-size="10.00">inc/RequestParser.hpp</text>
</a>
</g>
</g>
<!-- Node1&#45;&gt;Node38 -->
<g id="edge47_Node000001_Node000038" class="edge">
<title>Node1&#45;&gt;Node38</title>
<g id="a_edge47_Node000001_Node000038"><a xlink:title=" ">
<path fill="none" stroke="#63b8ff" d="M1353.88,-423.53C1547.71,-414.25 2141.78,-385.78 2335.91,-376.48"/>
<polygon fill="#63b8ff" stroke="#63b8ff" points="1353.68,-420.04 1343.86,-424.01 1354.02,-427.03 1353.68,-420.04"/>
</a>
</g>
</g>
<!-- Node43 -->
<g id="Node000043" class="node">
<title>Node43</title>
<g id="a_Node000043"><a xlink:href="_config_file_8cpp.html" target="_top" xlink:title=" ">
<polygon fill="white" stroke="#666666" points="2976,-382 2874,-382 2874,-363 2976,-363 2976,-382"/>
<text text-anchor="middle" x="2925" y="-370" font-family="Helvetica,sans-Serif" font-size="10.00">src/ConfigFile.cpp</text>
</a>
</g>
</g>
<!-- Node1&#45;&gt;Node43 -->
<g id="edge56_Node000001_Node000043" class="edge">
<title>Node1&#45;&gt;Node43</title>
<g id="a_edge56_Node000001_Node000043"><a xlink:title=" ">
<path fill="none" stroke="#63b8ff" d="M1353.79,-427C1564.67,-428.23 2275.33,-428.4 2860,-382 2864.54,-381.64 2869.24,-381.18 2873.96,-380.67"/>
<polygon fill="#63b8ff" stroke="#63b8ff" points="1353.56,-423.5 1343.54,-426.94 1353.52,-430.5 1353.56,-423.5"/>
</a>
</g>
</g>
<!-- Node2&#45;&gt;Node3 -->
<g id="edge2_Node000002_Node000003" class="edge">
<title>Node2&#45;&gt;Node3</title>
<g id="a_edge2_Node000002_Node000003"><a xlink:title=" ">
<path fill="none" stroke="#63b8ff" d="M1191.43,-296.24C1204.31,-286.65 1221.08,-273.62 1235,-261 1273.66,-225.95 1270.38,-201.33 1316,-176 1370.16,-145.94 1442.19,-136.11 1487.58,-132.94"/>
<polygon fill="#63b8ff" stroke="#63b8ff" points="1189.2,-293.54 1183.22,-302.29 1193.35,-299.18 1189.2,-293.54"/>
</a>
</g>
</g>
<!-- Node24 -->
<g id="Node000024" class="node">
<title>Node24</title>
<g id="a_Node000024"><a xlink:href="_c_g_i_handler_8cpp.html" target="_top" xlink:title=" ">
<polygon fill="white" stroke="#666666" points="1225.5,-255.5 1116.5,-255.5 1116.5,-236.5 1225.5,-236.5 1225.5,-255.5"/>
<text text-anchor="middle" x="1171" y="-243.5" font-family="Helvetica,sans-Serif" font-size="10.00">src/CGIHandler.cpp</text>
</a>
</g>
</g>
<!-- Node2&#45;&gt;Node24 -->
<g id="edge24_Node000002_Node000024" class="edge">
<title>Node2&#45;&gt;Node24</title>
<g id="a_edge24_Node000002_Node000024"><a xlink:title=" ">
<path fill="none" stroke="#63b8ff" d="M1171,-292.08C1171,-280.13 1171,-265.22 1171,-255.91"/>
<polygon fill="#63b8ff" stroke="#63b8ff" points="1167.5,-292.37 1171,-302.37 1174.5,-292.37 1167.5,-292.37"/>
</a>
</g>
</g>
<!-- Node2&#45;&gt;Node25 -->
<g id="edge25_Node000002_Node000025" class="edge">
<title>Node2&#45;&gt;Node25</title>
<g id="a_edge25_Node000002_Node000025"><a xlink:title=" ">
<path fill="none" stroke="#63b8ff" d="M1142.79,-298.19C1115,-285.58 1073.31,-266.66 1049.16,-255.7"/>
<polygon fill="#63b8ff" stroke="#63b8ff" points="1141.43,-301.42 1151.98,-302.37 1144.32,-295.05 1141.43,-301.42"/>
</a>
</g>
</g>
<!-- Node3&#45;&gt;Node4 -->
<g id="edge3_Node000003_Node000004" class="edge">
<title>Node3&#45;&gt;Node4</title>
<g id="a_edge3_Node000003_Node000004"><a xlink:title=" ">
<path fill="none" stroke="#63b8ff" d="M1477.54,-128.73C1265.51,-125.53 483.37,-112.08 237,-85 225.41,-83.73 212.93,-81.67 201.54,-79.53"/>
<polygon fill="#63b8ff" stroke="#63b8ff" points="1477.73,-132.24 1487.79,-128.89 1477.84,-125.24 1477.73,-132.24"/>
</a>
</g>
</g>
<!-- Node6 -->
<g id="Node000006" class="node">
<title>Node6</title>
<g id="a_Node000006"><a xlink:href="main_8cpp.html" target="_top" xlink:title=" ">
<polygon fill="white" stroke="#666666" points="1036.5,-19 957.5,-19 957.5,0 1036.5,0 1036.5,-19"/>
<text text-anchor="middle" x="997" y="-7" font-family="Helvetica,sans-Serif" font-size="10.00">src/main.cpp</text>
</a>
</g>
</g>
<!-- Node3&#45;&gt;Node6 -->
<g id="edge8_Node000003_Node000006" class="edge">
<title>Node3&#45;&gt;Node6</title>
<g id="a_edge8_Node000003_Node000006"><a xlink:title=" ">
<path fill="none" stroke="#63b8ff" d="M1570.14,-116.89C1585.03,-109.96 1600.46,-99.71 1609,-85 1615.7,-73.47 1618.08,-64.76 1609,-55 1570.05,-13.12 1165.79,-10.19 1036.52,-10.33"/>
<polygon fill="#63b8ff" stroke="#63b8ff" points="1568.34,-113.85 1560.5,-120.97 1571.08,-120.29 1568.34,-113.85"/>
</a>
</g>
</g>
<!-- Node8 -->
<g id="Node000008" class="node">
<title>Node8</title>
<g id="a_Node000008"><a xlink:href="_server_8cpp.html" target="_top" xlink:title=" ">
<polygon fill="white" stroke="#666666" points="1741.5,-79.5 1656.5,-79.5 1656.5,-60.5 1741.5,-60.5 1741.5,-79.5"/>
<text text-anchor="middle" x="1699" y="-67.5" font-family="Helvetica,sans-Serif" font-size="10.00">src/Server.cpp</text>
</a>
</g>
</g>
<!-- Node3&#45;&gt;Node8 -->
<g id="edge7_Node000003_Node000008" class="edge">
<title>Node3&#45;&gt;Node8</title>
<g id="a_edge7_Node000003_Node000008"><a xlink:title=" ">
<path fill="none" stroke="#63b8ff" d="M1564.97,-117.67C1597.46,-106.36 1645.66,-89.57 1674.54,-79.52"/>
<polygon fill="#63b8ff" stroke="#63b8ff" points="1563.72,-114.4 1555.43,-120.99 1566.02,-121.01 1563.72,-114.4"/>
</a>
</g>
</g>
<!-- Node9 -->
<g id="Node000009" class="node">
<title>Node9</title>
<g id="a_Node000009"><a xlink:href="test__accept_connections_8cpp.html" target="_top" xlink:title=" ">
<polygon fill="white" stroke="#666666" points="1934.5,-79.5 1759.5,-79.5 1759.5,-60.5 1934.5,-60.5 1934.5,-79.5"/>
<text text-anchor="middle" x="1847" y="-67.5" font-family="Helvetica,sans-Serif" font-size="10.00">test/test_acceptConnections.cpp</text>
</a>
</g>
</g>
<!-- Node3&#45;&gt;Node9 -->
<g id="edge9_Node000003_Node000009" class="edge">
<title>Node3&#45;&gt;Node9</title>
<g id="a_edge9_Node000003_Node000009"><a xlink:title=" ">
<path fill="none" stroke="#63b8ff" d="M1584.43,-119.61C1645.19,-108.36 1743.39,-90.18 1800.92,-79.53"/>
<polygon fill="#63b8ff" stroke="#63b8ff" points="1583.47,-116.23 1574.28,-121.49 1584.75,-123.11 1583.47,-116.23"/>
</a>
</g>
</g>
<!-- Node10 -->
<g id="Node000010" class="node">
<title>Node10</title>
<g id="a_Node000010"><a xlink:href="test__check_for_timeout_8cpp.html" target="_top" xlink:title=" ">
<polygon fill="white" stroke="#666666" points="2119.5,-79.5 1952.5,-79.5 1952.5,-60.5 2119.5,-60.5 2119.5,-79.5"/>
<text text-anchor="middle" x="2036" y="-67.5" font-family="Helvetica,sans-Serif" font-size="10.00">test/test_checkForTimeout.cpp</text>
</a>
</g>
</g>
<!-- Node3&#45;&gt;Node10 -->
<g id="edge10_Node000003_Node000010" class="edge">
<title>Node3&#45;&gt;Node10</title>
<g id="a_edge10_Node000003_Node000010"><a xlink:title=" ">
<path fill="none" stroke="#63b8ff" d="M1584.34,-124.5C1663.11,-116.96 1815.16,-101.74 1944,-85 1956.5,-83.38 1969.92,-81.44 1982.54,-79.54"/>
<polygon fill="#63b8ff" stroke="#63b8ff" points="1583.8,-121.04 1574.18,-125.47 1584.47,-128.01 1583.8,-121.04"/>
</a>
</g>
</g>
<!-- Node11 -->
<g id="Node000011" class="node">
<title>Node11</title>
<g id="a_Node000011"><a xlink:href="test__connection_receive_from_c_g_i_8cpp.html" target="_top" xlink:title=" ">
<polygon fill="white" stroke="#666666" points="1441.5,-85 1286.5,-85 1286.5,-55 1441.5,-55 1441.5,-85"/>
<text text-anchor="start" x="1294.5" y="-73" font-family="Helvetica,sans-Serif" font-size="10.00">test/test_connectionReceive</text>
<text text-anchor="middle" x="1364" y="-62" font-family="Helvetica,sans-Serif" font-size="10.00">FromCGI.cpp</text>
</a>
</g>
</g>
<!-- Node3&#45;&gt;Node11 -->
<g id="edge11_Node000003_Node000011" class="edge">
<title>Node3&#45;&gt;Node11</title>
<g id="a_edge11_Node000003_Node000011"><a xlink:title=" ">
<path fill="none" stroke="#63b8ff" d="M1496.98,-117.58C1470.09,-108.16 1432.51,-95 1404.15,-85.06"/>
<polygon fill="#63b8ff" stroke="#63b8ff" points="1496.12,-120.99 1506.72,-120.99 1498.44,-114.38 1496.12,-120.99"/>
</a>
</g>
</g>
<!-- Node3&#45;&gt;Node12 -->
<g id="edge12_Node000003_Node000012" class="edge">
<title>Node3&#45;&gt;Node12</title>
<g id="a_edge12_Node000003_Node000012"><a xlink:title=" ">
<path fill="none" stroke="#63b8ff" d="M1477.71,-129.68C1316.4,-129.74 819.35,-126.29 410,-85 407.29,-84.73 404.54,-84.42 401.76,-84.09"/>
<polygon fill="#63b8ff" stroke="#63b8ff" points="1477.85,-133.18 1487.85,-129.67 1477.84,-126.18 1477.85,-133.18"/>
</a>
</g>
</g>
<!-- Node13 -->
<g id="Node000013" class="node">
<title>Node13</title>
<g id="a_Node000013"><a xlink:href="test__connection_send_response_8cpp.html" target="_top" xlink:title=" ">
<polygon fill="white" stroke="#666666" points="2278,-85 2138,-85 2138,-55 2278,-55 2278,-85"/>
<text text-anchor="start" x="2146" y="-73" font-family="Helvetica,sans-Serif" font-size="10.00">test/test_connectionSend</text>
<text text-anchor="middle" x="2208" y="-62" font-family="Helvetica,sans-Serif" font-size="10.00">Response.cpp</text>
</a>
</g>
</g>
<!-- Node3&#45;&gt;Node13 -->
<g id="edge13_Node000003_Node000013" class="edge">
<title>Node3&#45;&gt;Node13</title>
<g id="a_edge13_Node000003_Node000013"><a xlink:title=" ">
<path fill="none" stroke="#63b8ff" d="M1584.3,-127.34C1689.02,-122.71 1928.82,-110.12 2129,-85 2131.9,-84.64 2134.86,-84.24 2137.84,-83.81"/>
<polygon fill="#63b8ff" stroke="#63b8ff" points="1584.14,-123.85 1574.3,-127.78 1584.44,-130.84 1584.14,-123.85"/>
</a>
</g>
</g>
<!-- Node14 -->
<g id="Node000014" class="node">
<title>Node14</title>
<g id="a_Node000014"><a xlink:href="test__connection_send_to_c_g_i_8cpp.html" target="_top" xlink:title=" ">
<polygon fill="white" stroke="#666666" points="1600,-85 1460,-85 1460,-55 1600,-55 1600,-85"/>
<text text-anchor="start" x="1468" y="-73" font-family="Helvetica,sans-Serif" font-size="10.00">test/test_connectionSend</text>
<text text-anchor="middle" x="1530" y="-62" font-family="Helvetica,sans-Serif" font-size="10.00">ToCGI.cpp</text>
</a>
</g>
</g>
<!-- Node3&#45;&gt;Node14 -->
<g id="edge14_Node000003_Node000014" class="edge">
<title>Node3&#45;&gt;Node14</title>
<g id="a_edge14_Node000003_Node000014"><a xlink:title=" ">
<path fill="none" stroke="#63b8ff" d="M1530.68,-110.65C1530.54,-102.36 1530.37,-92.78 1530.24,-85.11"/>
<polygon fill="#63b8ff" stroke="#63b8ff" points="1527.18,-110.93 1530.85,-120.87 1534.18,-110.81 1527.18,-110.93"/>
</a>
</g>
</g>
<!-- Node15 -->
<g id="Node000015" class="node">
<title>Node15</title>
<g id="a_Node000015"><a xlink:href="test__create_virtual_server_8cpp.html" target="_top" xlink:title=" ">
<polygon fill="white" stroke="#666666" points="2472,-79.5 2296,-79.5 2296,-60.5 2472,-60.5 2472,-79.5"/>
<text text-anchor="middle" x="2384" y="-67.5" font-family="Helvetica,sans-Serif" font-size="10.00">test/test_createVirtualServer.cpp</text>
</a>
</g>
</g>
<!-- Node3&#45;&gt;Node15 -->
<g id="edge15_Node000003_Node000015" class="edge">
<title>Node3&#45;&gt;Node15</title>
<g id="a_edge15_Node000003_Node000015"><a xlink:title=" ">
<path fill="none" stroke="#63b8ff" d="M1584.48,-127.91C1708.31,-123.88 2024.22,-111.65 2287,-85 2301.22,-83.56 2316.55,-81.55 2330.73,-79.51"/>
<polygon fill="#63b8ff" stroke="#63b8ff" points="1584.03,-124.42 1574.15,-128.24 1584.25,-131.42 1584.03,-124.42"/>
</a>
</g>
</g>
<!-- Node16 -->
<g id="Node000016" class="node">
<title>Node16</title>
<g id="a_Node000016"><a xlink:href="test__handle_complete_request_header_8cpp.html" target="_top" xlink:title=" ">
<polygon fill="white" stroke="#666666" points="2633.5,-85 2490.5,-85 2490.5,-55 2633.5,-55 2633.5,-85"/>
<text text-anchor="start" x="2498.5" y="-73" font-family="Helvetica,sans-Serif" font-size="10.00">test/test_handleComplete</text>
<text text-anchor="middle" x="2562" y="-62" font-family="Helvetica,sans-Serif" font-size="10.00">RequestHeader.cpp</text>
</a>
</g>
</g>
<!-- Node3&#45;&gt;Node16 -->
<g id="edge16_Node000003_Node000016" class="edge">
<title>Node3&#45;&gt;Node16</title>
<g id="a_edge16_Node000003_Node000016"><a xlink:title=" ">
<path fill="none" stroke="#63b8ff" d="M1584.6,-129.32C1729.53,-128.33 2141.14,-122.19 2481,-85 2483.98,-84.67 2487.01,-84.31 2490.08,-83.91"/>
<polygon fill="#63b8ff" stroke="#63b8ff" points="1584.21,-125.82 1574.23,-129.38 1584.25,-132.82 1584.21,-125.82"/>
</a>
</g>
</g>
<!-- Node3&#45;&gt;Node17 -->
<g id="edge17_Node000003_Node000017" class="edge">
<title>Node3&#45;&gt;Node17</title>
<g id="a_edge17_Node000003_Node000017"><a xlink:title=" ">
<path fill="none" stroke="#63b8ff" d="M1477.72,-128.9C1334.57,-126.86 929.81,-118.34 595,-85 581.17,-83.62 566.25,-81.59 552.54,-79.5"/>
<polygon fill="#63b8ff" stroke="#63b8ff" points="1477.92,-132.4 1487.97,-129.04 1478.02,-125.4 1477.92,-132.4"/>
</a>
</g>
</g>
<!-- Node3&#45;&gt;Node18 -->
<g id="edge18_Node000003_Node000018" class="edge">
<title>Node3&#45;&gt;Node18</title>
<g id="a_edge18_Node000003_Node000018"><a xlink:title=" ">
<path fill="none" stroke="#63b8ff" d="M1477.49,-127.98C1354.31,-124.12 1041.3,-112.26 781,-85 767.36,-83.57 752.66,-81.57 739.06,-79.53"/>
<polygon fill="#63b8ff" stroke="#63b8ff" points="1477.67,-131.49 1487.77,-128.3 1477.88,-124.49 1477.67,-131.49"/>
</a>
</g>
</g>
<!-- Node3&#45;&gt;Node19 -->
<g id="edge19_Node000003_Node000019" class="edge">
<title>Node3&#45;&gt;Node19</title>
<g id="a_edge19_Node000003_Node000019"><a xlink:title=" ">
<path fill="none" stroke="#63b8ff" d="M1477.68,-127.46C1372.94,-123.04 1133.1,-110.8 933,-85 930.07,-84.62 927.09,-84.21 924.08,-83.76"/>
<polygon fill="#63b8ff" stroke="#63b8ff" points="1477.55,-130.96 1487.69,-127.88 1477.84,-123.97 1477.55,-130.96"/>
</a>
</g>
</g>
<!-- Node3&#45;&gt;Node20 -->
<g id="edge20_Node000003_Node000020" class="edge">
<title>Node3&#45;&gt;Node20</title>
<g id="a_edge20_Node000003_Node000020"><a xlink:title=" ">
<path fill="none" stroke="#63b8ff" d="M1477.92,-124.23C1400.62,-116.42 1252.61,-100.98 1127,-85 1113.92,-83.34 1099.87,-81.4 1086.63,-79.5"/>
<polygon fill="#63b8ff" stroke="#63b8ff" points="1477.59,-127.71 1487.89,-125.23 1478.3,-120.75 1477.59,-127.71"/>
</a>
</g>
</g>
<!-- Node3&#45;&gt;Node21 -->
<g id="edge21_Node000003_Node000021" class="edge">
<title>Node3&#45;&gt;Node21</title>
<g id="a_edge21_Node000003_Node000021"><a xlink:title=" ">
<path fill="none" stroke="#63b8ff" d="M1477.7,-120.25C1426.49,-111.34 1346.92,-97.41 1278,-85 1274.83,-84.43 1271.59,-83.84 1268.31,-83.25"/>
<polygon fill="#63b8ff" stroke="#63b8ff" points="1477.1,-123.7 1487.56,-121.97 1478.3,-116.81 1477.1,-123.7"/>
</a>
</g>
</g>
<!-- Node22 -->
<g id="Node000022" class="node">
<title>Node22</title>
<g id="a_Node000022"><a xlink:href="test__select_server_config_8cpp.html" target="_top" xlink:title=" ">
<polygon fill="white" stroke="#666666" points="2826,-79.5 2652,-79.5 2652,-60.5 2826,-60.5 2826,-79.5"/>
<text text-anchor="middle" x="2739" y="-67.5" font-family="Helvetica,sans-Serif" font-size="10.00">test/test_selectServerConfig.cpp</text>
</a>
</g>
</g>
<!-- Node3&#45;&gt;Node22 -->
<g id="edge22_Node000003_Node000022" class="edge">
<title>Node3&#45;&gt;Node22</title>
<g id="a_edge22_Node000003_Node000022"><a xlink:title=" ">
<path fill="none" stroke="#63b8ff" d="M1584.11,-129.35C1744.33,-128.46 2236.85,-122.64 2643,-85 2657.42,-83.66 2672.99,-81.64 2687.3,-79.55"/>
<polygon fill="#63b8ff" stroke="#63b8ff" points="1584.02,-125.85 1574.04,-129.4 1584.06,-132.85 1584.02,-125.85"/>
</a>
</g>
</g>
<!-- Node23 -->
<g id="Node000023" class="node">
<title>Node23</title>
<g id="a_Node000023"><a xlink:href="test__shutdown_server_8cpp.html" target="_top" xlink:title=" ">
<polygon fill="white" stroke="#666666" points="3005.5,-79.5 2844.5,-79.5 2844.5,-60.5 3005.5,-60.5 3005.5,-79.5"/>
<text text-anchor="middle" x="2925" y="-67.5" font-family="Helvetica,sans-Serif" font-size="10.00">test/test_shutdownServer.cpp</text>
</a>
</g>
</g>
<!-- Node3&#45;&gt;Node23 -->
<g id="edge23_Node000003_Node000023" class="edge">
<title>Node3&#45;&gt;Node23</title>
<g id="a_edge23_Node000003_Node000023"><a xlink:title=" ">
<path fill="none" stroke="#63b8ff" d="M1584.31,-129.97C1762.13,-131.06 2351.04,-130.73 2835,-85 2848.7,-83.71 2863.48,-81.67 2877.03,-79.56"/>
<polygon fill="#63b8ff" stroke="#63b8ff" points="1584.2,-126.47 1574.18,-129.91 1584.15,-133.47 1584.2,-126.47"/>
</a>
</g>
</g>
<!-- Node5 -->
<g id="Node000005" class="node">
<title>Node5</title>
<g id="a_Node000005"><a xlink:href="_config_file_parser_8cpp.html" target="_top" xlink:title=" ">
<polygon fill="white" stroke="#666666" points="309.5,-19 178.5,-19 178.5,0 309.5,0 309.5,-19"/>
<text text-anchor="middle" x="244" y="-7" font-family="Helvetica,sans-Serif" font-size="10.00">src/ConfigFileParser.cpp</text>
</a>
</g>
</g>
<!-- Node4&#45;&gt;Node5 -->
<g id="edge4_Node000004_Node000005" class="edge">
<title>Node4&#45;&gt;Node5</title>
<g id="a_edge4_Node000004_Node000005"><a xlink:title=" ">
<path fill="none" stroke="#63b8ff" d="M182.54,-54.35C198.07,-43.27 218.87,-28.43 231.85,-19.17"/>
<polygon fill="#63b8ff" stroke="#63b8ff" points="180.21,-51.71 174.1,-60.37 184.27,-57.41 180.21,-51.71"/>
</a>
</g>
</g>
<!-- Node4&#45;&gt;Node6 -->
<g id="edge5_Node000004_Node000006" class="edge">
<title>Node4&#45;&gt;Node6</title>
<g id="a_edge5_Node000004_Node000006"><a xlink:title=" ">
<path fill="none" stroke="#63b8ff" d="M212.79,-58.62C220.87,-57.23 229.14,-55.96 237,-55 511.2,-21.52 844.24,-13.04 957.28,-11.06"/>
<polygon fill="#63b8ff" stroke="#63b8ff" points="211.95,-55.22 202.73,-60.43 213.19,-62.11 211.95,-55.22"/>
</a>
</g>
</g>
<!-- Node7 -->
<g id="Node000007" class="node">
<title>Node7</title>
<g id="a_Node000007"><a xlink:href="test___config_file_parser_8cpp.html" target="_top" xlink:title=" ">
<polygon fill="white" stroke="#666666" points="160,-19 0,-19 0,0 160,0 160,-19"/>
<text text-anchor="middle" x="80" y="-7" font-family="Helvetica,sans-Serif" font-size="10.00">test/test_ConfigFileParser.cpp</text>
</a>
</g>
</g>
<!-- Node4&#45;&gt;Node7 -->
<g id="edge6_Node000004_Node000007" class="edge">
<title>Node4&#45;&gt;Node7</title>
<g id="a_edge6_Node000004_Node000007"><a xlink:title=" ">
<path fill="none" stroke="#63b8ff" d="M141.46,-54.35C125.93,-43.27 105.13,-28.43 92.15,-19.17"/>
<polygon fill="#63b8ff" stroke="#63b8ff" points="139.73,-57.41 149.9,-60.37 143.79,-51.71 139.73,-57.41"/>
</a>
</g>
</g>
<!-- Node26&#45;&gt;Node2 -->
<g id="edge28_Node000026_Node000002" class="edge">
<title>Node26&#45;&gt;Node2</title>
<g id="a_edge28_Node000026_Node000002"><a xlink:title=" ">
<path fill="none" stroke="#63b8ff" d="M1400.23,-360.89C1346.16,-349.6 1261.66,-331.94 1211.76,-321.52"/>
<polygon fill="#63b8ff" stroke="#63b8ff" points="1399.78,-364.37 1410.29,-362.99 1401.21,-357.52 1399.78,-364.37"/>
</a>
</g>
</g>
<!-- Node26&#45;&gt;Node3 -->
<g id="edge35_Node000026_Node000003" class="edge">
<title>Node26&#45;&gt;Node3</title>
<g id="a_edge35_Node000026_Node000003"><a xlink:title=" ">
<path fill="none" stroke="#63b8ff" d="M1420.92,-358.18C1408.34,-350.91 1395.04,-340.59 1388,-327 1381.87,-315.16 1383.35,-309.5 1388,-297 1415.02,-224.4 1489.78,-162.41 1519.04,-140.23"/>
<polygon fill="#63b8ff" stroke="#63b8ff" points="1419.38,-361.32 1429.85,-362.93 1422.67,-355.14 1419.38,-361.32"/>
</a>
</g>
</g>
<!-- Node26&#45;&gt;Node11 -->
<g id="edge45_Node000026_Node000011" class="edge">
<title>Node26&#45;&gt;Node11</title>
<g id="a_edge45_Node000026_Node000011"><a xlink:title=" ">
<path fill="none" stroke="#63b8ff" d="M1393.22,-360.59C1335.09,-345.88 1254,-313.45 1254,-247 1254,-247 1254,-247 1254,-184.5 1254,-137.85 1302.51,-103.11 1335.1,-85.03"/>
<polygon fill="#63b8ff" stroke="#63b8ff" points="1392.52,-364.02 1403.06,-362.97 1394.16,-357.22 1392.52,-364.02"/>
</a>
</g>
</g>
<!-- Node26&#45;&gt;Node14 -->
<g id="edge46_Node000026_Node000014" class="edge">
<title>Node26&#45;&gt;Node14</title>
<g id="a_edge46_Node000026_Node000014"><a xlink:title=" ">
<path fill="none" stroke="#63b8ff" d="M1416.04,-358.82C1401.9,-351.76 1387.04,-341.42 1379,-327 1372.51,-315.35 1376.77,-310.15 1379,-297 1394.79,-203.71 1478.47,-117.92 1514.01,-85.11"/>
<polygon fill="#63b8ff" stroke="#63b8ff" points="1414.6,-362.01 1425.15,-362.99 1417.51,-355.64 1414.6,-362.01"/>
</a>
</g>
</g>
<!-- Node27 -->
<g id="Node000027" class="node">
<title>Node27</title>
<g id="a_Node000027"><a xlink:href="_response_body_handler_8hpp.html" target="_top" xlink:title=" ">
<polygon fill="white" stroke="#666666" points="1726,-255.5 1562,-255.5 1562,-236.5 1726,-236.5 1726,-255.5"/>
<text text-anchor="middle" x="1644" y="-243.5" font-family="Helvetica,sans-Serif" font-size="10.00">inc/ResponseBodyHandler.hpp</text>
</a>
</g>
</g>
<!-- Node26&#45;&gt;Node27 -->
<g id="edge29_Node000026_Node000027" class="edge">
<title>Node26&#45;&gt;Node27</title>
<g id="a_edge29_Node000026_Node000027"><a xlink:title=" ">
<path fill="none" stroke="#63b8ff" d="M1472.34,-357.14C1484.9,-348.57 1501,-337.38 1515,-327 1532.29,-314.19 1535.06,-308.89 1553,-297 1577.49,-280.77 1607.69,-264.93 1626.39,-255.57"/>
<polygon fill="#63b8ff" stroke="#63b8ff" points="1470.22,-354.35 1463.91,-362.86 1474.15,-360.14 1470.22,-354.35"/>
</a>
</g>
</g>
<!-- Node26&#45;&gt;Node32 -->
<g id="edge36_Node000026_Node000032" class="edge">
<title>Node26&#45;&gt;Node32</title>
<g id="a_edge36_Node000026_Node000032"><a xlink:title=" ">
<path fill="none" stroke="#63b8ff" d="M1489.26,-359.96C1526.78,-348.65 1583.12,-331.66 1616.76,-321.52"/>
<polygon fill="#63b8ff" stroke="#63b8ff" points="1487.77,-356.76 1479.21,-362.99 1489.79,-363.46 1487.77,-356.76"/>
</a>
</g>
</g>
<!-- Node26&#45;&gt;Node34 -->
<g id="edge44_Node000026_Node000034" class="edge">
<title>Node26&#45;&gt;Node34</title>
<g id="a_edge44_Node000026_Node000034"><a xlink:title=" ">
<path fill="none" stroke="#63b8ff" d="M1516.37,-370.99C1576.38,-368.33 1666.55,-358.7 1738,-327 1757.35,-318.41 1755.95,-306.23 1775,-297 1788.97,-290.23 1869.2,-273.06 1929.46,-260.72"/>
<polygon fill="#63b8ff" stroke="#63b8ff" points="1516.13,-367.49 1506.27,-371.38 1516.4,-374.49 1516.13,-367.49"/>
</a>
</g>
</g>
<!-- Node35 -->
<g id="Node000035" class="node">
<title>Node35</title>
<g id="a_Node000035"><a xlink:href="_connection_8cpp.html" target="_top" xlink:title=" ">
<polygon fill="white" stroke="#666666" points="1505.5,-321.5 1396.5,-321.5 1396.5,-302.5 1505.5,-302.5 1505.5,-321.5"/>
<text text-anchor="middle" x="1451" y="-309.5" font-family="Helvetica,sans-Serif" font-size="10.00">src/Connection.cpp</text>
</a>
</g>
</g>
<!-- Node26&#45;&gt;Node35 -->
<g id="edge41_Node000026_Node000035" class="edge">
<title>Node26&#45;&gt;Node35</title>
<g id="a_edge41_Node000026_Node000035"><a xlink:title=" ">
<path fill="none" stroke="#63b8ff" d="M1451,-352.66C1451,-342.24 1451,-329.8 1451,-321.67"/>
<polygon fill="#63b8ff" stroke="#63b8ff" points="1447.5,-352.87 1451,-362.87 1454.5,-352.87 1447.5,-352.87"/>
</a>
</g>
</g>
<!-- Node26&#45;&gt;Node36 -->
<g id="edge42_Node000026_Node000036" class="edge">
<title>Node26&#45;&gt;Node36</title>
<g id="a_edge42_Node000026_Node000036"><a xlink:title=" ">
<path fill="none" stroke="#63b8ff" d="M1516.09,-362.66C1580.58,-353.85 1682.16,-339.81 1770,-327 1781.83,-325.27 1794.51,-323.38 1806.56,-321.55"/>
<polygon fill="#63b8ff" stroke="#63b8ff" points="1515.5,-359.21 1506.07,-364.03 1516.45,-366.14 1515.5,-359.21"/>
</a>
</g>
</g>
<!-- Node26&#45;&gt;Node37 -->
<g id="edge43_Node000026_Node000037" class="edge">
<title>Node26&#45;&gt;Node37</title>
<g id="a_edge43_Node000026_Node000037"><a xlink:title=" ">
<path fill="none" stroke="#63b8ff" d="M1516.07,-366.94C1611.29,-359.99 1794.12,-345.56 1949,-327 1961.97,-325.45 1975.91,-323.5 1988.96,-321.55"/>
<polygon fill="#63b8ff" stroke="#63b8ff" points="1515.73,-363.46 1506.01,-367.67 1516.24,-370.44 1515.73,-363.46"/>
</a>
</g>
</g>
<!-- Node27&#45;&gt;Node28 -->
<g id="edge30_Node000027_Node000028" class="edge">
<title>Node27&#45;&gt;Node28</title>
<g id="a_edge30_Node000027_Node000028"><a xlink:title=" ">
<path fill="none" stroke="#63b8ff" d="M1705.53,-234.98C1715.69,-233.51 1726.13,-232.12 1736,-231 1923.99,-209.63 2146.94,-195.95 2256.82,-189.97"/>
<polygon fill="#63b8ff" stroke="#63b8ff" points="1704.87,-231.54 1695.49,-236.46 1705.89,-238.46 1704.87,-231.54"/>
</a>
</g>
</g>
<!-- Node30 -->
<g id="Node000030" class="node">
<title>Node30</title>
<g id="a_Node000030"><a xlink:href="_response_body_handler_8cpp.html" target="_top" xlink:title=" ">
<polygon fill="white" stroke="#666666" points="1726,-195 1562,-195 1562,-176 1726,-176 1726,-195"/>
<text text-anchor="middle" x="1644" y="-183" font-family="Helvetica,sans-Serif" font-size="10.00">src/ResponseBodyHandler.cpp</text>
</a>
</g>
</g>
<!-- Node27&#45;&gt;Node30 -->
<g id="edge33_Node000027_Node000030" class="edge">
<title>Node27&#45;&gt;Node30</title>
<g id="a_edge33_Node000027_Node000030"><a xlink:title=" ">
<path fill="none" stroke="#63b8ff" d="M1644,-226.16C1644,-215.74 1644,-203.3 1644,-195.17"/>
<polygon fill="#63b8ff" stroke="#63b8ff" points="1640.5,-226.37 1644,-236.37 1647.5,-226.37 1640.5,-226.37"/>
</a>
</g>
</g>
<!-- Node27&#45;&gt;Node31 -->
<g id="edge34_Node000027_Node000031" class="edge">
<title>Node27&#45;&gt;Node31</title>
<g id="a_edge34_Node000027_Node000031"><a xlink:title=" ">
<path fill="none" stroke="#63b8ff" d="M1701.69,-234.74C1765.11,-223.46 1865.87,-205.55 1925.1,-195.02"/>
<polygon fill="#63b8ff" stroke="#63b8ff" points="1701.07,-231.3 1691.84,-236.49 1702.3,-238.19 1701.07,-231.3"/>
</a>
</g>
</g>
<!-- Node28&#45;&gt;Node3 -->
<g id="edge31_Node000028_Node000003" class="edge">
<title>Node28&#45;&gt;Node3</title>
<g id="a_edge31_Node000028_Node000003"><a xlink:title=" ">
<path fill="none" stroke="#63b8ff" d="M2246.34,-176.28C2245.22,-176.19 2244.11,-176.09 2243,-176 1989.97,-154.99 1685.61,-139.09 1574.39,-133.59"/>
<polygon fill="#63b8ff" stroke="#63b8ff" points="2246.29,-179.79 2256.56,-177.19 2246.91,-172.82 2246.29,-179.79"/>
</a>
</g>
</g>
<!-- Node29 -->
<g id="Node000029" class="node">
<title>Node29</title>
<g id="a_Node000029"><a xlink:href="_response_builder_8cpp.html" target="_top" xlink:title=" ">
<polygon fill="white" stroke="#666666" points="2392.5,-140 2257.5,-140 2257.5,-121 2392.5,-121 2392.5,-140"/>
<text text-anchor="middle" x="2325" y="-128" font-family="Helvetica,sans-Serif" font-size="10.00">src/ResponseBuilder.cpp</text>
</a>
</g>
</g>
<!-- Node28&#45;&gt;Node29 -->
<g id="edge32_Node000028_Node000029" class="edge">
<title>Node28&#45;&gt;Node29</title>
<g id="a_edge32_Node000028_Node000029"><a xlink:title=" ">
<path fill="none" stroke="#63b8ff" d="M2325,-165.66C2325,-156.93 2325,-146.99 2325,-140.09"/>
<polygon fill="#63b8ff" stroke="#63b8ff" points="2321.5,-165.75 2325,-175.75 2328.5,-165.75 2321.5,-165.75"/>
</a>
</g>
</g>
<!-- Node32&#45;&gt;Node3 -->
<g id="edge38_Node000032_Node000003" class="edge">
<title>Node32&#45;&gt;Node3</title>
<g id="a_edge38_Node000032_Node000003"><a xlink:title=" ">
<path fill="none" stroke="#63b8ff" d="M1605.47,-298.7C1586.72,-290.86 1565.69,-278.76 1553,-261 1525.68,-222.78 1528.08,-162.22 1530.06,-140.02"/>
<polygon fill="#63b8ff" stroke="#63b8ff" points="1604.42,-302.05 1615.01,-302.42 1606.96,-295.53 1604.42,-302.05"/>
</a>
</g>
</g>
<!-- Node32&#45;&gt;Node27 -->
<g id="edge37_Node000032_Node000027" class="edge">
<title>Node32&#45;&gt;Node27</title>
<g id="a_edge37_Node000032_Node000027"><a xlink:title=" ">
<path fill="none" stroke="#63b8ff" d="M1644.7,-292.08C1644.52,-280.13 1644.28,-265.22 1644.14,-255.91"/>
<polygon fill="#63b8ff" stroke="#63b8ff" points="1641.21,-292.42 1644.87,-302.37 1648.21,-292.32 1641.21,-292.42"/>
</a>
</g>
</g>
<!-- Node33 -->
<g id="Node000033" class="node">
<title>Node33</title>
<g id="a_Node000033"><a xlink:href="_target_resource_handler_8cpp.html" target="_top" xlink:title=" ">
<polygon fill="white" stroke="#666666" points="1911.5,-255.5 1744.5,-255.5 1744.5,-236.5 1911.5,-236.5 1911.5,-255.5"/>
<text text-anchor="middle" x="1828" y="-243.5" font-family="Helvetica,sans-Serif" font-size="10.00">src/TargetResourceHandler.cpp</text>
</a>
</g>
</g>
<!-- Node32&#45;&gt;Node33 -->
<g id="edge39_Node000032_Node000033" class="edge">
<title>Node32&#45;&gt;Node33</title>
<g id="a_edge39_Node000032_Node000033"><a xlink:title=" ">
<path fill="none" stroke="#63b8ff" d="M1679.31,-299C1715.45,-286.36 1771.45,-266.78 1803.42,-255.6"/>
<polygon fill="#63b8ff" stroke="#63b8ff" points="1677.96,-295.76 1669.68,-302.37 1680.28,-302.37 1677.96,-295.76"/>
</a>
</g>
</g>
<!-- Node32&#45;&gt;Node34 -->
<g id="edge40_Node000032_Node000034" class="edge">
<title>Node32&#45;&gt;Node34</title>
<g id="a_edge40_Node000032_Node000034"><a xlink:title=" ">
<path fill="none" stroke="#63b8ff" d="M1702.42,-300.61C1758.25,-290.5 1845.45,-274.71 1921,-261 1923.67,-260.51 1926.4,-260.02 1929.15,-259.52"/>
<polygon fill="#63b8ff" stroke="#63b8ff" points="1701.59,-297.2 1692.37,-302.43 1702.84,-304.09 1701.59,-297.2"/>
</a>
</g>
</g>
<!-- Node38&#45;&gt;Node3 -->
<g id="edge48_Node000038_Node000003" class="edge">
<title>Node38&#45;&gt;Node3</title>
<g id="a_edge48_Node000038_Node000003"><a xlink:title=" ">
<path fill="none" stroke="#63b8ff" d="M2341.05,-360.61C2312.27,-353.62 2277.5,-342.82 2249,-327 2160.35,-277.79 2171.3,-215.69 2078,-176 1987.48,-137.49 1687.08,-132.15 1574.29,-131.53"/>
<polygon fill="#63b8ff" stroke="#63b8ff" points="2340.43,-364.06 2350.96,-362.93 2342.02,-357.25 2340.43,-364.06"/>
</a>
</g>
</g>
<!-- Node39 -->
<g id="Node000039" class="node">
<title>Node39</title>
<g id="a_Node000039"><a xlink:href="_request_parser_8cpp.html" target="_top" xlink:title=" ">
<polygon fill="white" stroke="#666666" points="2817.5,-321.5 2694.5,-321.5 2694.5,-302.5 2817.5,-302.5 2817.5,-321.5"/>
<text text-anchor="middle" x="2756" y="-309.5" font-family="Helvetica,sans-Serif" font-size="10.00">src/RequestParser.cpp</text>
</a>
</g>
</g>
<!-- Node38&#45;&gt;Node39 -->
<g id="edge49_Node000038_Node000039" class="edge">
<title>Node38&#45;&gt;Node39</title>
<g id="a_edge49_Node000038_Node000039"><a xlink:title=" ">
<path fill="none" stroke="#63b8ff" d="M2468.47,-361.5C2526.87,-353 2611.98,-340.11 2686,-327 2695.4,-325.34 2705.47,-323.41 2714.97,-321.52"/>
<polygon fill="#63b8ff" stroke="#63b8ff" points="2467.65,-358.08 2458.25,-362.98 2468.65,-365.01 2467.65,-358.08"/>
</a>
</g>
</g>
<!-- Node40 -->
<g id="Node000040" class="node">
<title>Node40</title>
<g id="a_Node000040"><a xlink:href="test__parse_body_8cpp.html" target="_top" xlink:title=" ">
<polygon fill="white" stroke="#666666" points="2390.5,-321.5 2257.5,-321.5 2257.5,-302.5 2390.5,-302.5 2390.5,-321.5"/>
<text text-anchor="middle" x="2324" y="-309.5" font-family="Helvetica,sans-Serif" font-size="10.00">test/test_parseBody.cpp</text>
</a>
</g>
</g>
<!-- Node38&#45;&gt;Node40 -->
<g id="edge50_Node000038_Node000040" class="edge">
<title>Node38&#45;&gt;Node40</title>
<g id="a_edge50_Node000038_Node000040"><a xlink:title=" ">
<path fill="none" stroke="#63b8ff" d="M2379.07,-356.54C2365.1,-345.49 2346.57,-330.84 2334.96,-321.67"/>
<polygon fill="#63b8ff" stroke="#63b8ff" points="2377.07,-359.41 2387.08,-362.87 2381.41,-353.92 2377.07,-359.41"/>
</a>
</g>
</g>
<!-- Node41 -->
<g id="Node000041" class="node">
<title>Node41</title>
<g id="a_Node000041"><a xlink:href="test__parse_header___headers_8cpp.html" target="_top" xlink:title=" ">
<polygon fill="white" stroke="#666666" points="2533.5,-327 2408.5,-327 2408.5,-297 2533.5,-297 2533.5,-327"/>
<text text-anchor="start" x="2416.5" y="-315" font-family="Helvetica,sans-Serif" font-size="10.00">test/test_parseHeader</text>
<text text-anchor="middle" x="2471" y="-304" font-family="Helvetica,sans-Serif" font-size="10.00">_Headers.cpp</text>
</a>
</g>
</g>
<!-- Node38&#45;&gt;Node41 -->
<g id="edge51_Node000038_Node000041" class="edge">
<title>Node38&#45;&gt;Node41</title>
<g id="a_edge51_Node000038_Node000041"><a xlink:title=" ">
<path fill="none" stroke="#63b8ff" d="M2416.72,-356.5C2428.01,-347.45 2442.3,-336 2453.39,-327.11"/>
<polygon fill="#63b8ff" stroke="#63b8ff" points="2414.39,-353.88 2408.77,-362.87 2418.76,-359.35 2414.39,-353.88"/>
</a>
</g>
</g>
<!-- Node42 -->
<g id="Node000042" class="node">
<title>Node42</title>
<g id="a_Node000042"><a xlink:href="test__parse_header___request_line_8cpp.html" target="_top" xlink:title=" ">
<polygon fill="white" stroke="#666666" points="2676.5,-327 2551.5,-327 2551.5,-297 2676.5,-297 2676.5,-327"/>
<text text-anchor="start" x="2559.5" y="-315" font-family="Helvetica,sans-Serif" font-size="10.00">test/test_parseHeader</text>
<text text-anchor="middle" x="2614" y="-304" font-family="Helvetica,sans-Serif" font-size="10.00">_RequestLine.cpp</text>
</a>
</g>
</g>
<!-- Node38&#45;&gt;Node42 -->
<g id="edge52_Node000038_Node000042" class="edge">
<title>Node38&#45;&gt;Node42</title>
<g id="a_edge52_Node000038_Node000042"><a xlink:title=" ">
<path fill="none" stroke="#63b8ff" d="M2439.28,-360.32C2474.2,-350.86 2524.42,-337.26 2562.07,-327.06"/>
<polygon fill="#63b8ff" stroke="#63b8ff" points="2438.15,-357 2429.41,-362.99 2439.98,-363.76 2438.15,-357"/>
</a>
</g>
</g>
</g>
</svg>
