<?xml version="1.0" encoding="UTF-8" standalone="no"?>
<!DOCTYPE svg PUBLIC "-//W3C//DTD SVG 1.1//EN"
 "http://www.w3.org/Graphics/SVG/1.1/DTD/svg11.dtd">
<!-- Generated by graphviz version 2.43.0 (0)
 -->
<!-- Title: inc/ConfigFile.hpp Pages: 1 -->
<svg width="553pt" height="137pt"
 viewBox="0.00 0.00 552.50 137.00" xmlns="http://www.w3.org/2000/svg" xmlns:xlink="http://www.w3.org/1999/xlink">
<g id="graph0" class="graph" transform="scale(1 1) rotate(0) translate(4 133)">
<title>inc/ConfigFile.hpp</title>
<!-- Node1 -->
<g id="Node000001" class="node">
<title>Node1</title>
<g id="a_Node000001"><a xlink:title=" ">
<polygon fill="#999999" stroke="#666666" points="353.5,-129 250.5,-129 250.5,-110 353.5,-110 353.5,-129"/>
<text text-anchor="middle" x="302" y="-117" font-family="Helvetica,sans-Serif" font-size="10.00">inc/ConfigFile.hpp</text>
</a>
</g>
</g>
<!-- Node2 -->
<g id="Node000002" class="node">
<title>Node2</title>
<g id="a_Node000002"><a xlink:href="_method_8hpp.html" target="_top" xlink:title=" ">
<polygon fill="white" stroke="#666666" points="74,-74 0,-74 0,-55 74,-55 74,-74"/>
<text text-anchor="middle" x="37" y="-62" font-family="Helvetica,sans-Serif" font-size="10.00">Method.hpp</text>
</a>
</g>
</g>
<!-- Node1&#45;&gt;Node2 -->
<g id="edge1_Node000001_Node000002" class="edge">
<title>Node1&#45;&gt;Node2</title>
<g id="a_edge1_Node000001_Node000002"><a xlink:title=" ">
<path fill="none" stroke="#63b8ff" d="M259.42,-109.98C211.52,-100.4 133.91,-84.88 84.19,-74.94"/>
<polygon fill="#63b8ff" stroke="#63b8ff" points="84.82,-71.5 74.33,-72.97 83.45,-78.36 84.82,-71.5"/>
</a>
</g>
</g>
<!-- Node3 -->
<g id="Node000003" class="node">
<title>Node3</title>
<g id="a_Node000003"><a xlink:href="_status_code_8hpp.html" target="_top" xlink:title=" ">
<polygon fill="white" stroke="#666666" points="185.5,-74 92.5,-74 92.5,-55 185.5,-55 185.5,-74"/>
<text text-anchor="middle" x="139" y="-62" font-family="Helvetica,sans-Serif" font-size="10.00">StatusCode.hpp</text>
</a>
</g>
</g>
<!-- Node1&#45;&gt;Node3 -->
<g id="edge2_Node000001_Node000003" class="edge">
<title>Node1&#45;&gt;Node3</title>
<g id="a_edge2_Node000001_Node000003"><a xlink:title=" ">
<path fill="none" stroke="#63b8ff" d="M275.81,-109.98C248.56,-101.13 205.7,-87.19 175.22,-77.28"/>
<polygon fill="#63b8ff" stroke="#63b8ff" points="175.99,-73.85 165.39,-74.08 173.82,-80.5 175.99,-73.85"/>
</a>
</g>
</g>
<!-- Node4 -->
<g id="Node000004" class="node">
<title>Node4</title>
<g id="a_Node000004"><a xlink:title=" ">
<polygon fill="#e0e0e0" stroke="#999999" points="206,-19 146,-19 146,0 206,0 206,-19"/>
<text text-anchor="middle" x="176" y="-7" font-family="Helvetica,sans-Serif" font-size="10.00">iostream</text>
</a>
</g>
</g>
<!-- Node1&#45;&gt;Node4 -->
<g id="edge5_Node000001_Node000004" class="edge">
<title>Node1&#45;&gt;Node4</title>
<g id="a_edge5_Node000001_Node000004"><a xlink:title=" ">
<path fill="none" stroke="#63b8ff" d="M286.65,-109.96C272.35,-101.67 250.76,-88.26 234,-74 217.21,-59.71 200.49,-40.78 189.35,-27.32"/>
<polygon fill="#63b8ff" stroke="#63b8ff" points="191.91,-24.92 182.89,-19.36 186.48,-29.33 191.91,-24.92"/>
</a>
</g>
</g>
<!-- Node5 -->
<g id="Node000005" class="node">
<title>Node5</title>
<g id="a_Node000005"><a xlink:title=" ">
<polygon fill="#e0e0e0" stroke="#999999" points="297.5,-74 242.5,-74 242.5,-55 297.5,-55 297.5,-74"/>
<text text-anchor="middle" x="270" y="-62" font-family="Helvetica,sans-Serif" font-size="10.00">fstream</text>
</a>
</g>
</g>
<!-- Node1&#45;&gt;Node5 -->
<g id="edge4_Node000001_Node000005" class="edge">
<title>Node1&#45;&gt;Node5</title>
<g id="a_edge4_Node000001_Node000005"><a xlink:title=" ">
<path fill="none" stroke="#63b8ff" d="M296.72,-109.75C292.29,-102.42 285.84,-91.73 280.38,-82.7"/>
<polygon fill="#63b8ff" stroke="#63b8ff" points="283.35,-80.84 275.19,-74.09 277.36,-84.46 283.35,-80.84"/>
</a>
</g>
</g>
<!-- Node6 -->
<g id="Node000006" class="node">
<title>Node6</title>
<g id="a_Node000006"><a xlink:title=" ">
<polygon fill="#e0e0e0" stroke="#999999" points="354,-74 316,-74 316,-55 354,-55 354,-74"/>
<text text-anchor="middle" x="335" y="-62" font-family="Helvetica,sans-Serif" font-size="10.00">map</text>
</a>
</g>
</g>
<!-- Node1&#45;&gt;Node6 -->
<g id="edge6_Node000001_Node000006" class="edge">
<title>Node1&#45;&gt;Node6</title>
<g id="a_edge6_Node000001_Node000006"><a xlink:title=" ">
<path fill="none" stroke="#63b8ff" d="M307.45,-109.75C312.01,-102.42 318.67,-91.73 324.29,-82.7"/>
<polygon fill="#63b8ff" stroke="#63b8ff" points="327.34,-84.43 329.65,-74.09 321.4,-80.73 327.34,-84.43"/>
</a>
</g>
</g>
<!-- Node7 -->
<g id="Node000007" class="node">
<title>Node7</title>
<g id="a_Node000007"><a xlink:title=" ">
<polygon fill="#e0e0e0" stroke="#999999" points="416,-74 372,-74 372,-55 416,-55 416,-74"/>
<text text-anchor="middle" x="394" y="-62" font-family="Helvetica,sans-Serif" font-size="10.00">string</text>
</a>
</g>
</g>
<!-- Node1&#45;&gt;Node7 -->
<g id="edge7_Node000001_Node000007" class="edge">
<title>Node1&#45;&gt;Node7</title>
<g id="a_edge7_Node000001_Node000007"><a xlink:title=" ">
<path fill="none" stroke="#63b8ff" d="M316.78,-109.98C331.18,-101.69 353.31,-88.94 370.19,-79.22"/>
<polygon fill="#63b8ff" stroke="#63b8ff" points="372.03,-82.19 378.95,-74.17 368.54,-76.13 372.03,-82.19"/>
</a>
</g>
</g>
<!-- Node8 -->
<g id="Node000008" class="node">
<title>Node8</title>
<g id="a_Node000008"><a xlink:title=" ">
<polygon fill="#e0e0e0" stroke="#999999" points="481.5,-74 434.5,-74 434.5,-55 481.5,-55 481.5,-74"/>
<text text-anchor="middle" x="458" y="-62" font-family="Helvetica,sans-Serif" font-size="10.00">vector</text>
</a>
</g>
</g>
<!-- Node1&#45;&gt;Node8 -->
<g id="edge8_Node000001_Node000008" class="edge">
<title>Node1&#45;&gt;Node8</title>
<g id="a_edge8_Node000001_Node000008"><a xlink:title=" ">
<path fill="none" stroke="#63b8ff" d="M327.06,-109.98C353.49,-101.01 395.27,-86.81 424.5,-76.88"/>
<polygon fill="#63b8ff" stroke="#63b8ff" points="425.93,-80.09 434.28,-73.56 423.68,-73.46 425.93,-80.09"/>
</a>
</g>
</g>
<!-- Node9 -->
<g id="Node000009" class="node">
<title>Node9</title>
<g id="a_Node000009"><a xlink:title=" ">
<polygon fill="#e0e0e0" stroke="#999999" points="544.5,-74 499.5,-74 499.5,-55 544.5,-55 544.5,-74"/>
<text text-anchor="middle" x="522" y="-62" font-family="Helvetica,sans-Serif" font-size="10.00">utility</text>
</a>
</g>
</g>
<!-- Node1&#45;&gt;Node9 -->
<g id="edge9_Node000001_Node000009" class="edge">
<title>Node1&#45;&gt;Node9</title>
<g id="a_edge9_Node000001_Node000009"><a xlink:title=" ">
<path fill="none" stroke="#63b8ff" d="M340.11,-109.96C376.26,-101.75 432.34,-88.79 489.42,-74.34"/>
<polygon fill="#63b8ff" stroke="#63b8ff" points="490.51,-77.67 499.34,-71.82 488.78,-70.89 490.51,-77.67"/>
</a>
</g>
</g>
<!-- Node3&#45;&gt;Node4 -->
<g id="edge3_Node000003_Node000004" class="edge">
<title>Node3&#45;&gt;Node4</title>
<g id="a_edge3_Node000003_Node000004"><a xlink:title=" ">
<path fill="none" stroke="#63b8ff" d="M145.11,-54.75C150.28,-47.34 157.85,-36.5 164.19,-27.41"/>
<polygon fill="#63b8ff" stroke="#63b8ff" points="167.15,-29.29 170,-19.09 161.41,-25.29 167.15,-29.29"/>
</a>
</g>
</g>
</g>
</svg>
