<?xml version="1.0" encoding="UTF-8" standalone="no"?>
<!DOCTYPE svg PUBLIC "-//W3C//DTD SVG 1.1//EN"
 "http://www.w3.org/Graphics/SVG/1.1/DTD/svg11.dtd">
<!-- Generated by graphviz version 2.43.0 (0)
 -->
<!-- Title: inc/Connection.hpp Pages: 1 -->
<!--zoomable 218 -->
<svg id="main" version="1.1" xmlns="http://www.w3.org/2000/svg" xmlns:xlink="http://www.w3.org/1999/xlink" xml:space="preserve" onload="init(evt)">
<style type="text/css"><![CDATA[
.edge:hover path { stroke: red; }
.edge:hover polygon { stroke: red; fill: red; }
]]></style>
<script type="text/javascript"><![CDATA[
var edges = document.getElementsByTagName('g');
if (edges && edges.length) {
  for (var i=0;i<edges.length;i++) {
    if (edges[i].id.substr(0,4)=='edge') {
      edges[i].setAttribute('class','edge');
    }
  }
}
]]></script>
        <defs>
                <circle id="rim" cx="0" cy="0" r="7"/>
                <circle id="rim2" cx="0" cy="0" r="3.5"/>
                <g id="zoomPlus">
                        <use xlink:href="#rim" fill="#404040">
                                <set attributeName="fill" to="#808080" begin="zoomplus.mouseover" end="zoomplus.mouseout"/>
                        </use>
                        <path d="M-4,0h8M0,-4v8" fill="none" stroke="white" stroke-width="1.5" pointer-events="none"/>
                </g>
                <g id="zoomMin">
                        <use xlink:href="#rim" fill="#404040">
                                <set attributeName="fill" to="#808080" begin="zoomminus.mouseover" end="zoomminus.mouseout"/>
                        </use>
                        <path d="M-4,0h8" fill="none" stroke="white" stroke-width="1.5" pointer-events="none"/>
                </g>
                <g id="dirArrow">
                        <path fill="none" stroke="white" stroke-width="1.5" d="M0,-3.0v7 M-2.5,-0.5L0,-3.0L2.5,-0.5"/>
                </g>
               <g id="resetDef">
                       <use xlink:href="#rim2" fill="#404040">
                               <set attributeName="fill" to="#808080" begin="reset.mouseover" end="reset.mouseout"/>
                       </use>
               </g>
        </defs>

<script type="text/javascript">
var viewWidth = 2341;
var viewHeight = 218;
var sectionId = 'dynsection-1';
</script>
<script xlink:href="svgpan.js"/>
<svg id="graph" class="graph">
<g id="viewport">
<title>inc/Connection.hpp</title>
<!-- Node1 -->
<g id="node1" class="node">
<title>Node1</title>
<g id="a_node1"><a xlink:title=" ">
<polygon fill="#bfbfbf" stroke="black" points="1328.5,-190.5 1328.5,-209.5 1438.5,-209.5 1438.5,-190.5 1328.5,-190.5"/>
<text text-anchor="middle" x="1383.5" y="-197.5" font-family="Helvetica,sans-Serif" font-size="10.00">inc/Connection.hpp</text>
</a>
</g>
</g>
<!-- Node2 -->
<g id="node2" class="node">
<title>Node2</title>
<g id="a_node2"><a xlink:href="_server_8hpp.html" target="_top" xlink:title=" ">
<polygon fill="none" stroke="black" points="1043.5,-73 1043.5,-92 1129.5,-92 1129.5,-73 1043.5,-73"/>
<text text-anchor="middle" x="1086.5" y="-80" font-family="Helvetica,sans-Serif" font-size="10.00">inc/Server.hpp</text>
</a>
</g>
</g>
<!-- Node1&#45;&gt;Node2 -->
<g id="edge1" class="edge">
<title>Node1&#45;&gt;Node2</title>
<path fill="none" stroke="midnightblue" d="M1318.21,-192.36C1256.36,-185.12 1168.73,-172.09 1139.5,-154 1114.76,-138.69 1097.55,-107.27 1090.32,-92.09"/>
<polygon fill="midnightblue" stroke="midnightblue" points="1317.95,-195.85 1328.28,-193.52 1318.75,-188.9 1317.95,-195.85"/>
</g>
<!-- Node17 -->
<g id="node17" class="node">
<title>Node17</title>
<g id="a_node17"><a xlink:href="_target_resource_handler_8hpp.html" target="_top" xlink:title=" ">
<polygon fill="none" stroke="black" points="1148,-134.5 1148,-153.5 1315,-153.5 1315,-134.5 1148,-134.5"/>
<text text-anchor="middle" x="1231.5" y="-141.5" font-family="Helvetica,sans-Serif" font-size="10.00">inc/TargetResourceHandler.hpp</text>
</a>
</g>
</g>
<!-- Node1&#45;&gt;Node17 -->
<g id="edge16" class="edge">
<title>Node1&#45;&gt;Node17</title>
<path fill="none" stroke="midnightblue" d="M1349.83,-187.04C1321.23,-176.88 1280.89,-162.55 1255.47,-153.52"/>
<polygon fill="midnightblue" stroke="midnightblue" points="1348.82,-190.39 1359.42,-190.44 1351.16,-183.8 1348.82,-190.39"/>
</g>
<!-- Node19 -->
<g id="node19" class="node">
<title>Node19</title>
<g id="a_node19"><a xlink:href="test___target_resource_handler_8cpp.html" target="_top" xlink:title=" ">
<polygon fill="none" stroke="black" points="1333,-67.5 1333,-97.5 1470,-97.5 1470,-67.5 1333,-67.5"/>
<text text-anchor="start" x="1341" y="-85.5" font-family="Helvetica,sans-Serif" font-size="10.00">test/test_TargetResource</text>
<text text-anchor="middle" x="1401.5" y="-74.5" font-family="Helvetica,sans-Serif" font-size="10.00">Handler.cpp</text>
</a>
</g>
</g>
<!-- Node1&#45;&gt;Node19 -->
<g id="edge23" class="edge">
<title>Node1&#45;&gt;Node19</title>
<path fill="none" stroke="midnightblue" d="M1371.67,-181.63C1364.24,-168.51 1357.01,-150.08 1362.5,-134 1367.22,-120.16 1377.44,-107.17 1386.24,-97.83"/>
<polygon fill="midnightblue" stroke="midnightblue" points="1368.7,-183.48 1376.94,-190.14 1374.65,-179.79 1368.7,-183.48"/>
</g>
<!-- Node20 -->
<g id="node20" class="node">
<title>Node20</title>
<g id="a_node20"><a xlink:href="_connection_8cpp.html" target="_top" xlink:title=" ">
<polygon fill="none" stroke="black" points="1371,-134.5 1371,-153.5 1480,-153.5 1480,-134.5 1371,-134.5"/>
<text text-anchor="middle" x="1425.5" y="-141.5" font-family="Helvetica,sans-Serif" font-size="10.00">src/Connection.cpp</text>
</a>
</g>
</g>
<!-- Node1&#45;&gt;Node20 -->
<g id="edge20" class="edge">
<title>Node1&#45;&gt;Node20</title>
<path fill="none" stroke="midnightblue" d="M1396.61,-182.14C1403.93,-172.74 1412.74,-161.4 1418.69,-153.75"/>
<polygon fill="midnightblue" stroke="midnightblue" points="1393.81,-180.04 1390.44,-190.08 1399.34,-184.34 1393.81,-180.04"/>
</g>
<!-- Node21 -->
<g id="node21" class="node">
<title>Node21</title>
<g id="a_node21"><a xlink:href="_log_ostream_inserters_8cpp.html" target="_top" xlink:title=" ">
<polygon fill="none" stroke="black" points="1498.5,-134.5 1498.5,-153.5 1654.5,-153.5 1654.5,-134.5 1498.5,-134.5"/>
<text text-anchor="middle" x="1576.5" y="-141.5" font-family="Helvetica,sans-Serif" font-size="10.00">src/LogOstreamInserters.cpp</text>
</a>
</g>
</g>
<!-- Node1&#45;&gt;Node21 -->
<g id="edge21" class="edge">
<title>Node1&#45;&gt;Node21</title>
<path fill="none" stroke="midnightblue" d="M1423.89,-187.7C1460.32,-177.51 1513.09,-162.74 1546.06,-153.52"/>
<polygon fill="midnightblue" stroke="midnightblue" points="1422.77,-184.38 1414.08,-190.44 1424.65,-191.12 1422.77,-184.38"/>
</g>
<!-- Node22 -->
<g id="node22" class="node">
<title>Node22</title>
<g id="a_node22"><a xlink:href="test___ostream_inserters_8cpp.html" target="_top" xlink:title=" ">
<polygon fill="none" stroke="black" points="1673,-134.5 1673,-153.5 1840,-153.5 1840,-134.5 1673,-134.5"/>
<text text-anchor="middle" x="1756.5" y="-141.5" font-family="Helvetica,sans-Serif" font-size="10.00">test/test_OstreamInserters.cpp</text>
</a>
</g>
</g>
<!-- Node1&#45;&gt;Node22 -->
<g id="edge22" class="edge">
<title>Node1&#45;&gt;Node22</title>
<path fill="none" stroke="midnightblue" d="M1448.6,-189.58C1518.86,-179.4 1629.76,-163.35 1697.54,-153.54"/>
<polygon fill="midnightblue" stroke="midnightblue" points="1447.93,-186.14 1438.54,-191.03 1448.94,-193.06 1447.93,-186.14"/>
</g>
<!-- Node3 -->
<g id="node3" class="node">
<title>Node3</title>
<g id="a_node3"><a xlink:href="main_8cpp.html" target="_top" xlink:title=" ">
<polygon fill="none" stroke="black" points="0,-6 0,-25 79,-25 79,-6 0,-6"/>
<text text-anchor="middle" x="39.5" y="-13" font-family="Helvetica,sans-Serif" font-size="10.00">src/main.cpp</text>
</a>
</g>
</g>
<!-- Node2&#45;&gt;Node3 -->
<g id="edge2" class="edge">
<title>Node2&#45;&gt;Node3</title>
<path fill="none" stroke="midnightblue" d="M1033.14,-80.51C853.52,-76.91 271.82,-63.01 87.5,-31 79.61,-29.63 71.19,-27.37 63.64,-25.04"/>
<polygon fill="midnightblue" stroke="midnightblue" points="1033.32,-84.01 1043.39,-80.71 1033.46,-77.02 1033.32,-84.01"/>
</g>
<!-- Node4 -->
<g id="node4" class="node">
<title>Node4</title>
<g id="a_node4"><a xlink:href="_server_8cpp.html" target="_top" xlink:title=" ">
<polygon fill="none" stroke="black" points="97,-6 97,-25 182,-25 182,-6 97,-6"/>
<text text-anchor="middle" x="139.5" y="-13" font-family="Helvetica,sans-Serif" font-size="10.00">src/Server.cpp</text>
</a>
</g>
</g>
<!-- Node2&#45;&gt;Node4 -->
<g id="edge3" class="edge">
<title>Node2&#45;&gt;Node4</title>
<path fill="none" stroke="midnightblue" d="M1033.39,-80.05C866.53,-75.23 354.26,-58.55 190.5,-31 182.24,-29.61 173.41,-27.38 165.45,-25.07"/>
<polygon fill="midnightblue" stroke="midnightblue" points="1033.31,-83.54 1043.41,-80.33 1033.51,-76.55 1033.31,-83.54"/>
</g>
<!-- Node5 -->
<g id="node5" class="node">
<title>Node5</title>
<g id="a_node5"><a xlink:href="test__accept_connections_8cpp.html" target="_top" xlink:title=" ">
<polygon fill="none" stroke="black" points="200,-6 200,-25 375,-25 375,-6 200,-6"/>
<text text-anchor="middle" x="287.5" y="-13" font-family="Helvetica,sans-Serif" font-size="10.00">test/test_acceptConnections.cpp</text>
</a>
</g>
</g>
<!-- Node2&#45;&gt;Node5 -->
<g id="edge4" class="edge">
<title>Node2&#45;&gt;Node5</title>
<path fill="none" stroke="midnightblue" d="M1033.02,-79.09C915.34,-73.47 625.21,-57.89 383.5,-31 369.09,-29.4 353.53,-27.23 339.22,-25.07"/>
<polygon fill="midnightblue" stroke="midnightblue" points="1033.04,-82.59 1043.19,-79.57 1033.37,-75.6 1033.04,-82.59"/>
</g>
<!-- Node6 -->
<g id="node6" class="node">
<title>Node6</title>
<g id="a_node6"><a xlink:href="test__check_for_timeout_8cpp.html" target="_top" xlink:title=" ">
<polygon fill="none" stroke="black" points="393,-6 393,-25 560,-25 560,-6 393,-6"/>
<text text-anchor="middle" x="476.5" y="-13" font-family="Helvetica,sans-Serif" font-size="10.00">test/test_checkForTimeout.cpp</text>
</a>
</g>
</g>
<!-- Node2&#45;&gt;Node6 -->
<g id="edge5" class="edge">
<title>Node2&#45;&gt;Node6</title>
<path fill="none" stroke="midnightblue" d="M1033.32,-77.36C939.34,-69.81 737.83,-52.58 568.5,-31 555.03,-29.28 540.49,-27.13 527.04,-25.02"/>
<polygon fill="midnightblue" stroke="midnightblue" points="1033.18,-80.86 1043.43,-78.17 1033.74,-73.88 1033.18,-80.86"/>
</g>
<!-- Node7 -->
<g id="node7" class="node">
<title>Node7</title>
<g id="a_node7"><a xlink:href="test__connection_receive_header_8cpp.html" target="_top" xlink:title=" ">
<polygon fill="none" stroke="black" points="578,-0.5 578,-30.5 733,-30.5 733,-0.5 578,-0.5"/>
<text text-anchor="start" x="586" y="-18.5" font-family="Helvetica,sans-Serif" font-size="10.00">test/test_connectionReceive</text>
<text text-anchor="middle" x="655.5" y="-7.5" font-family="Helvetica,sans-Serif" font-size="10.00">Header.cpp</text>
</a>
</g>
</g>
<!-- Node2&#45;&gt;Node7 -->
<g id="edge6" class="edge">
<title>Node2&#45;&gt;Node7</title>
<path fill="none" stroke="midnightblue" d="M1033.3,-74.02C965.66,-64.43 845.31,-47.11 742.5,-31 739.47,-30.53 736.39,-30.04 733.28,-29.54"/>
<polygon fill="midnightblue" stroke="midnightblue" points="1032.89,-77.49 1043.29,-75.43 1033.88,-70.56 1032.89,-77.49"/>
</g>
<!-- Node8 -->
<g id="node8" class="node">
<title>Node8</title>
<g id="a_node8"><a xlink:href="test__connection_send_response_8cpp.html" target="_top" xlink:title=" ">
<polygon fill="none" stroke="black" points="751.5,-0.5 751.5,-30.5 891.5,-30.5 891.5,-0.5 751.5,-0.5"/>
<text text-anchor="start" x="759.5" y="-18.5" font-family="Helvetica,sans-Serif" font-size="10.00">test/test_connectionSend</text>
<text text-anchor="middle" x="821.5" y="-7.5" font-family="Helvetica,sans-Serif" font-size="10.00">Response.cpp</text>
</a>
</g>
</g>
<!-- Node2&#45;&gt;Node8 -->
<g id="edge7" class="edge">
<title>Node2&#45;&gt;Node8</title>
<path fill="none" stroke="midnightblue" d="M1041.85,-70.55C996.99,-59.55 927.7,-42.55 878.82,-30.56"/>
<polygon fill="midnightblue" stroke="midnightblue" points="1041.04,-73.95 1051.58,-72.94 1042.71,-67.15 1041.04,-73.95"/>
</g>
<!-- Node9 -->
<g id="node9" class="node">
<title>Node9</title>
<g id="a_node9"><a xlink:href="test__create_virtual_server_8cpp.html" target="_top" xlink:title=" ">
<polygon fill="none" stroke="black" points="909.5,-6 909.5,-25 1085.5,-25 1085.5,-6 909.5,-6"/>
<text text-anchor="middle" x="997.5" y="-13" font-family="Helvetica,sans-Serif" font-size="10.00">test/test_createVirtualServer.cpp</text>
</a>
</g>
</g>
<!-- Node2&#45;&gt;Node9 -->
<g id="edge8" class="edge">
<title>Node2&#45;&gt;Node9</title>
<path fill="none" stroke="midnightblue" d="M1066.05,-66.57C1048.49,-53.74 1023.77,-35.69 1009.31,-25.13"/>
<polygon fill="midnightblue" stroke="midnightblue" points="1064.36,-69.66 1074.5,-72.73 1068.49,-64.01 1064.36,-69.66"/>
</g>
<!-- Node10 -->
<g id="node10" class="node">
<title>Node10</title>
<g id="a_node10"><a xlink:href="test__handle_complete_request_header_8cpp.html" target="_top" xlink:title=" ">
<polygon fill="none" stroke="black" points="1104,-0.5 1104,-30.5 1247,-30.5 1247,-0.5 1104,-0.5"/>
<text text-anchor="start" x="1112" y="-18.5" font-family="Helvetica,sans-Serif" font-size="10.00">test/test_handleComplete</text>
<text text-anchor="middle" x="1175.5" y="-7.5" font-family="Helvetica,sans-Serif" font-size="10.00">RequestHeader.cpp</text>
</a>
</g>
</g>
<!-- Node2&#45;&gt;Node10 -->
<g id="edge9" class="edge">
<title>Node2&#45;&gt;Node10</title>
<path fill="none" stroke="midnightblue" d="M1106.98,-66.54C1121.79,-55.73 1141.68,-41.2 1156.21,-30.59"/>
<polygon fill="midnightblue" stroke="midnightblue" points="1104.51,-64.01 1098.5,-72.73 1108.64,-69.66 1104.51,-64.01"/>
</g>
<!-- Node11 -->
<g id="node11" class="node">
<title>Node11</title>
<g id="a_node11"><a xlink:href="test__init_virtual_servers_8cpp.html" target="_top" xlink:title=" ">
<polygon fill="none" stroke="black" points="1265,-6 1265,-25 1432,-25 1432,-6 1265,-6"/>
<text text-anchor="middle" x="1348.5" y="-13" font-family="Helvetica,sans-Serif" font-size="10.00">test/test_initVirtualServers.cpp</text>
</a>
</g>
</g>
<!-- Node2&#45;&gt;Node11 -->
<g id="edge10" class="edge">
<title>Node2&#45;&gt;Node11</title>
<path fill="none" stroke="midnightblue" d="M1126.85,-70.33C1131.12,-69.18 1135.39,-68.06 1139.5,-67 1199.69,-51.5 1269.99,-34.8 1311.8,-25.02"/>
<polygon fill="midnightblue" stroke="midnightblue" points="1125.75,-67 1117.01,-72.99 1127.57,-73.76 1125.75,-67"/>
</g>
<!-- Node12 -->
<g id="node12" class="node">
<title>Node12</title>
<g id="a_node12"><a xlink:href="test__is_duplicate_server_8cpp.html" target="_top" xlink:title=" ">
<polygon fill="none" stroke="black" points="1449.5,-6 1449.5,-25 1617.5,-25 1617.5,-6 1449.5,-6"/>
<text text-anchor="middle" x="1533.5" y="-13" font-family="Helvetica,sans-Serif" font-size="10.00">test/test_isDuplicateServer.cpp</text>
</a>
</g>
</g>
<!-- Node2&#45;&gt;Node12 -->
<g id="edge11" class="edge">
<title>Node2&#45;&gt;Node12</title>
<path fill="none" stroke="midnightblue" d="M1124.65,-70.34C1129.62,-69.1 1134.66,-67.94 1139.5,-67 1272.17,-41.09 1307.6,-49.53 1441.5,-31 1454.47,-29.21 1468.45,-27.09 1481.49,-25.05"/>
<polygon fill="midnightblue" stroke="midnightblue" points="1123.43,-67.04 1114.65,-72.97 1125.21,-73.81 1123.43,-67.04"/>
</g>
<!-- Node13 -->
<g id="node13" class="node">
<title>Node13</title>
<g id="a_node13"><a xlink:href="test__register_connection_8cpp.html" target="_top" xlink:title=" ">
<polygon fill="none" stroke="black" points="1636,-6 1636,-25 1811,-25 1811,-6 1636,-6"/>
<text text-anchor="middle" x="1723.5" y="-13" font-family="Helvetica,sans-Serif" font-size="10.00">test/test_registerConnection.cpp</text>
</a>
</g>
</g>
<!-- Node2&#45;&gt;Node13 -->
<g id="edge12" class="edge">
<title>Node2&#45;&gt;Node13</title>
<path fill="none" stroke="midnightblue" d="M1123.69,-70.35C1128.96,-69.06 1134.34,-67.89 1139.5,-67 1353.39,-30.19 1410.8,-55.06 1626.5,-31 1641.14,-29.37 1656.96,-27.18 1671.49,-25"/>
<polygon fill="midnightblue" stroke="midnightblue" points="1122.57,-67.03 1113.78,-72.95 1124.34,-73.8 1122.57,-67.03"/>
</g>
<!-- Node14 -->
<g id="node14" class="node">
<title>Node14</title>
<g id="a_node14"><a xlink:href="test__register_virtual_server_8cpp.html" target="_top" xlink:title=" ">
<polygon fill="none" stroke="black" points="1829.5,-0.5 1829.5,-30.5 1961.5,-30.5 1961.5,-0.5 1829.5,-0.5"/>
<text text-anchor="start" x="1837.5" y="-18.5" font-family="Helvetica,sans-Serif" font-size="10.00">test/test_registerVirtual</text>
<text text-anchor="middle" x="1895.5" y="-7.5" font-family="Helvetica,sans-Serif" font-size="10.00">Server.cpp</text>
</a>
</g>
</g>
<!-- Node2&#45;&gt;Node14 -->
<g id="edge13" class="edge">
<title>Node2&#45;&gt;Node14</title>
<path fill="none" stroke="midnightblue" d="M1122.91,-70.44C1128.43,-69.09 1134.08,-67.87 1139.5,-67 1438.72,-18.73 1519.66,-67.85 1820.5,-31 1823.4,-30.65 1826.35,-30.24 1829.33,-29.81"/>
<polygon fill="midnightblue" stroke="midnightblue" points="1122,-67.06 1113.22,-72.99 1123.78,-73.83 1122,-67.06"/>
</g>
<!-- Node15 -->
<g id="node15" class="node">
<title>Node15</title>
<g id="a_node15"><a xlink:href="test__select_server_config_8cpp.html" target="_top" xlink:title=" ">
<polygon fill="none" stroke="black" points="1979.5,-6 1979.5,-25 2153.5,-25 2153.5,-6 1979.5,-6"/>
<text text-anchor="middle" x="2066.5" y="-13" font-family="Helvetica,sans-Serif" font-size="10.00">test/test_selectServerConfig.cpp</text>
</a>
</g>
</g>
<!-- Node2&#45;&gt;Node15 -->
<g id="edge14" class="edge">
<title>Node2&#45;&gt;Node15</title>
<path fill="none" stroke="midnightblue" d="M1122.9,-70.4C1128.42,-69.05 1134.08,-67.85 1139.5,-67 1504.74,-9.87 1602.54,-66.66 1970.5,-31 1985.6,-29.54 2001.95,-27.31 2016.8,-25.04"/>
<polygon fill="midnightblue" stroke="midnightblue" points="1121.99,-67.02 1113.21,-72.94 1123.77,-73.79 1121.99,-67.02"/>
</g>
<!-- Node16 -->
<g id="node16" class="node">
<title>Node16</title>
<g id="a_node16"><a xlink:href="test__shutdown_server_8cpp.html" target="_top" xlink:title=" ">
<polygon fill="none" stroke="black" points="2172,-6 2172,-25 2333,-25 2333,-6 2172,-6"/>
<text text-anchor="middle" x="2252.5" y="-13" font-family="Helvetica,sans-Serif" font-size="10.00">test/test_shutdownServer.cpp</text>
</a>
</g>
</g>
<!-- Node2&#45;&gt;Node16 -->
<g id="edge15" class="edge">
<title>Node2&#45;&gt;Node16</title>
<path fill="none" stroke="midnightblue" d="M1122.72,-70.4C1128.29,-69.04 1134.02,-67.83 1139.5,-67 1589.26,1.49 1709.71,-75.27 2162.5,-31 2176.83,-29.6 2192.35,-27.36 2206.4,-25.06"/>
<polygon fill="midnightblue" stroke="midnightblue" points="1121.71,-67.05 1112.93,-72.97 1123.49,-73.81 1121.71,-67.05"/>
</g>
<!-- Node17&#45;&gt;Node2 -->
<g id="edge17" class="edge">
<title>Node17&#45;&gt;Node2</title>
<path fill="none" stroke="midnightblue" d="M1201.36,-130.63C1173.19,-119.07 1131.88,-102.12 1107.24,-92.01"/>
<polygon fill="midnightblue" stroke="midnightblue" points="1200.14,-133.92 1210.73,-134.48 1202.8,-127.44 1200.14,-133.92"/>
</g>
<!-- Node18 -->
<g id="node18" class="node">
<title>Node18</title>
<g id="a_node18"><a xlink:href="_target_resource_handler_8cpp.html" target="_top" xlink:title=" ">
<polygon fill="none" stroke="black" points="1148,-73 1148,-92 1315,-92 1315,-73 1148,-73"/>
<text text-anchor="middle" x="1231.5" y="-80" font-family="Helvetica,sans-Serif" font-size="10.00">src/TargetResourceHandler.cpp</text>
</a>
</g>
</g>
<!-- Node17&#45;&gt;Node18 -->
<g id="edge18" class="edge">
<title>Node17&#45;&gt;Node18</title>
<path fill="none" stroke="midnightblue" d="M1231.5,-124.32C1231.5,-113.5 1231.5,-100.4 1231.5,-92.01"/>
<polygon fill="midnightblue" stroke="midnightblue" points="1228,-124.48 1231.5,-134.48 1235,-124.48 1228,-124.48"/>
</g>
<!-- Node17&#45;&gt;Node19 -->
<g id="edge19" class="edge">
<title>Node17&#45;&gt;Node19</title>
<path fill="none" stroke="midnightblue" d="M1265.49,-131.1C1293.15,-121.42 1332.25,-107.74 1361.43,-97.52"/>
<polygon fill="midnightblue" stroke="midnightblue" points="1264.14,-127.87 1255.86,-134.48 1266.45,-134.48 1264.14,-127.87"/>
</g>
</g>
</svg>
        <g id="navigator" transform="translate(0 0)" fill="#404254">
                <rect fill="#f2f5e9" fill-opacity="0.5" stroke="#606060" stroke-width=".5" x="0" y="0" width="60" height="60"/>
                <use id="zoomplus" xlink:href="#zoomPlus" x="17" y="9" onmousedown="handleZoom(evt,'in')"/>
                <use id="zoomminus" xlink:href="#zoomMin" x="42" y="9" onmousedown="handleZoom(evt,'out')"/>
                <use id="reset" xlink:href="#resetDef" x="30" y="36" onmousedown="handleReset()"/>
                <g id="arrowUp" xlink:href="#dirArrow" transform="translate(30 24)" onmousedown="handlePan(0,-1)">
                  <use xlink:href="#rim" fill="#404040">
                        <set attributeName="fill" to="#808080" begin="arrowUp.mouseover" end="arrowUp.mouseout"/>
                  </use>
                  <path fill="none" stroke="white" stroke-width="1.5" d="M0,-3.0v7 M-2.5,-0.5L0,-3.0L2.5,-0.5"/>
                </g>
                <g id="arrowRight" xlink:href="#dirArrow" transform="rotate(90) translate(36 -43)" onmousedown="handlePan(1,0)">
                  <use xlink:href="#rim" fill="#404040">
                        <set attributeName="fill" to="#808080" begin="arrowRight.mouseover" end="arrowRight.mouseout"/>
                  </use>
                  <path fill="none" stroke="white" stroke-width="1.5" d="M0,-3.0v7 M-2.5,-0.5L0,-3.0L2.5,-0.5"/>
                </g>
                <g id="arrowDown" xlink:href="#dirArrow" transform="rotate(180) translate(-30 -48)" onmousedown="handlePan(0,1)">
                  <use xlink:href="#rim" fill="#404040">
                        <set attributeName="fill" to="#808080" begin="arrowDown.mouseover" end="arrowDown.mouseout"/>
                  </use>
                  <path fill="none" stroke="white" stroke-width="1.5" d="M0,-3.0v7 M-2.5,-0.5L0,-3.0L2.5,-0.5"/>
                </g>
                <g id="arrowLeft" xlink:href="#dirArrow" transform="rotate(270) translate(-36 17)" onmousedown="handlePan(-1,0)">
                  <use xlink:href="#rim" fill="#404040">
                        <set attributeName="fill" to="#808080" begin="arrowLeft.mouseover" end="arrowLeft.mouseout"/>
                  </use>
                  <path fill="none" stroke="white" stroke-width="1.5" d="M0,-3.0v7 M-2.5,-0.5L0,-3.0L2.5,-0.5"/>
                </g>
        </g>
        <svg viewBox="0 0 15 15" width="100%" height="30px" preserveAspectRatio="xMaxYMin meet">
         <g id="arrow_out" transform="scale(0.3 0.3)">
          <a xlink:href="_connection_8hpp__dep__incl_org.svg" target="_base">
           <rect id="button" ry="5" rx="5" y="6" x="6" height="38" width="38"
                fill="#f2f5e9" fill-opacity="0.5" stroke="#606060" stroke-width="1.0"/>
           <path id="arrow"
             d="M 11.500037,31.436501 C 11.940474,20.09759 22.043105,11.32322 32.158766,21.979434 L 37.068811,17.246167 C 37.068811,17.246167 37.088388,32 37.088388,32 L 22.160133,31.978069 C 22.160133,31.978069 26.997745,27.140456 26.997745,27.140456 C 18.528582,18.264221 13.291696,25.230495 11.500037,31.436501 z"
             style="fill:#404040;"/>
          </a>
         </g>
        </svg>
</svg>
