<?xml version="1.0" encoding="UTF-8" standalone="no"?>
<!DOCTYPE svg PUBLIC "-//W3C//DTD SVG 1.1//EN"
 "http://www.w3.org/Graphics/SVG/1.1/DTD/svg11.dtd">
<!-- Generated by graphviz version 2.43.0 (0)
 -->
<!-- Title: clearConnection Pages: 1 -->
<svg width="442pt" height="66pt"
 viewBox="0.00 0.00 442.00 66.00" xmlns="http://www.w3.org/2000/svg" xmlns:xlink="http://www.w3.org/1999/xlink">
<g id="graph0" class="graph" transform="scale(1 1) rotate(0) translate(4 62)">
<title>clearConnection</title>
<!-- Node1 -->
<g id="node1" class="node">
<title>Node1</title>
<g id="a_node1"><a xlink:title="Clears the state of a given Connection object and resets its attributes.">
<polygon fill="#bfbfbf" stroke="black" points="0,-19.5 0,-38.5 95,-38.5 95,-19.5 0,-19.5"/>
<text text-anchor="middle" x="47.5" y="-26.5" font-family="Helvetica,sans-Serif" font-size="10.00">clearConnection</text>
</a>
</g>
</g>
<!-- Node2 -->
<g id="node2" class="node">
<title>Node2</title>
<g id="a_node2"><a xlink:href="namespacewebutils.html#ad74875f464c74bd45589002fc385605e" target="_top" xlink:title=" ">
<polygon fill="none" stroke="black" points="140.5,-38.5 140.5,-57.5 241.5,-57.5 241.5,-38.5 140.5,-38.5"/>
<text text-anchor="middle" x="191" y="-45.5" font-family="Helvetica,sans-Serif" font-size="10.00">webutils::closeFd</text>
</a>
</g>
</g>
<!-- Node1&#45;&gt;Node2 -->
<g id="edge1" class="edge">
<title>Node1&#45;&gt;Node2</title>
<path fill="none" stroke="midnightblue" d="M95.22,-35.27C106.43,-36.78 118.55,-38.41 130.26,-39.98"/>
<polygon fill="midnightblue" stroke="midnightblue" points="130.03,-43.48 140.41,-41.34 130.96,-36.54 130.03,-43.48"/>
</g>
<!-- Node3 -->
<g id="node3" class="node">
<title>Node3</title>
<g id="a_node3"><a xlink:href="_connection_8cpp.html#a354192f8dd87ca049cf8b7e6de9000da" target="_top" xlink:title="Selects the server configuration for a connection.">
<polygon fill="none" stroke="black" points="131,-0.5 131,-19.5 251,-19.5 251,-0.5 131,-0.5"/>
<text text-anchor="middle" x="191" y="-7.5" font-family="Helvetica,sans-Serif" font-size="10.00">hasValidServerConfig</text>
</a>
</g>
</g>
<!-- Node1&#45;&gt;Node3 -->
<g id="edge2" class="edge">
<title>Node1&#45;&gt;Node3</title>
<path fill="none" stroke="midnightblue" d="M95.22,-22.73C103.44,-21.62 112.15,-20.45 120.82,-19.29"/>
<polygon fill="midnightblue" stroke="midnightblue" points="121.51,-22.73 130.96,-17.93 120.58,-15.79 121.51,-22.73"/>
</g>
<!-- Node4 -->
<g id="node4" class="node">
<title>Node4</title>
<g id="a_node4"><a xlink:href="_connection_8cpp.html#ac4fdfd0273b5ff94aefbdc973ac49ead" target="_top" xlink:title="Find matching server configurations for a server socket.">
<polygon fill="none" stroke="black" points="287,-0.5 287,-19.5 434,-19.5 434,-0.5 287,-0.5"/>
<text text-anchor="middle" x="360.5" y="-7.5" font-family="Helvetica,sans-Serif" font-size="10.00">findMatchingServerConfigs</text>
</a>
</g>
</g>
<!-- Node3&#45;&gt;Node4 -->
<g id="edge3" class="edge">
<title>Node3&#45;&gt;Node4</title>
<path fill="none" stroke="midnightblue" d="M251.05,-10C259.38,-10 268.07,-10 276.74,-10"/>
<polygon fill="midnightblue" stroke="midnightblue" points="276.89,-13.5 286.89,-10 276.89,-6.5 276.89,-13.5"/>
</g>
</g>
</svg>
