<?xml version="1.0" encoding="UTF-8" standalone="no"?>
<!DOCTYPE svg PUBLIC "-//W3C//DTD SVG 1.1//EN"
 "http://www.w3.org/Graphics/SVG/1.1/DTD/svg11.dtd">
<!-- Generated by graphviz version 2.43.0 (0)
 -->
<!-- Title: clearConnection Pages: 1 -->
<svg width="1200pt" height="306pt"
 viewBox="0.00 0.00 1200.00 306.00" xmlns="http://www.w3.org/2000/svg" xmlns:xlink="http://www.w3.org/1999/xlink">
<g id="graph0" class="graph" transform="scale(1 1) rotate(0) translate(4 302)">
<title>clearConnection</title>
<!-- Node1 -->
<g id="Node000001" class="node">
<title>Node1</title>
<g id="a_Node000001"><a xlink:title="Clears the state of a given Connection object and resets its attributes.">
<polygon fill="#999999" stroke="#666666" points="1192,-111 1097,-111 1097,-92 1192,-92 1192,-111"/>
<text text-anchor="middle" x="1144.5" y="-99" font-family="Helvetica,sans-Serif" font-size="10.00">clearConnection</text>
</a>
</g>
</g>
<!-- Node2 -->
<g id="Node000002" class="node">
<title>Node2</title>
<g id="a_Node000002"><a xlink:href="_server_8cpp.html#a43e9e764c97aacfc12f233b33ffa3342" target="_top" xlink:title="Sends the response to a client connection.">
<polygon fill="white" stroke="#666666" points="1061,-111 920,-111 920,-92 1061,-92 1061,-111"/>
<text text-anchor="middle" x="990.5" y="-99" font-family="Helvetica,sans-Serif" font-size="10.00">connectionSendResponse</text>
</a>
</g>
</g>
<!-- Node1&#45;&gt;Node2 -->
<g id="edge1_Node000001_Node000002" class="edge">
<title>Node1&#45;&gt;Node2</title>
<g id="a_edge1_Node000001_Node000002"><a xlink:title=" ">
<path fill="none" stroke="#63b8ff" d="M1086.4,-101.5C1078.14,-101.5 1069.57,-101.5 1061.1,-101.5"/>
<polygon fill="#63b8ff" stroke="#63b8ff" points="1086.65,-105 1096.65,-101.5 1086.65,-98 1086.65,-105"/>
</a>
</g>
</g>
<!-- Node3 -->
<g id="Node000003" class="node">
<title>Node3</title>
<g id="a_Node000003"><a xlink:href="_server_8cpp.html#a9b6964fe44b1605c00c0f211a7f42896" target="_top" xlink:title="Builds the response for a client connection.">
<polygon fill="white" stroke="#666666" points="884,-167 742,-167 742,-148 884,-148 884,-167"/>
<text text-anchor="middle" x="813" y="-155" font-family="Helvetica,sans-Serif" font-size="10.00">connectionBuildResponse</text>
</a>
</g>
</g>
<!-- Node2&#45;&gt;Node3 -->
<g id="edge2_Node000002_Node000003" class="edge">
<title>Node2&#45;&gt;Node3</title>
<g id="a_edge2_Node000002_Node000003"><a xlink:title=" ">
<path fill="none" stroke="#63b8ff" d="M954.15,-114.61C933.77,-122 907.58,-131.18 884,-138.5 873.42,-141.79 861.84,-145.06 851.2,-147.94"/>
<polygon fill="#63b8ff" stroke="#63b8ff" points="955.46,-117.86 963.66,-111.15 953.07,-111.29 955.46,-117.86"/>
</a>
</g>
</g>
<!-- Node5 -->
<g id="Node000005" class="node">
<title>Node5</title>
<g id="a_Node000005"><a xlink:href="_server_8cpp.html#afb62203471d9a64b23d0267d5a4a261a" target="_top" xlink:title="Handle a client connection.">
<polygon fill="white" stroke="#666666" points="525,-186 421,-186 421,-167 525,-167 525,-186"/>
<text text-anchor="middle" x="473" y="-174" font-family="Helvetica,sans-Serif" font-size="10.00">handleConnection</text>
</a>
</g>
</g>
<!-- Node2&#45;&gt;Node5 -->
<g id="edge21_Node000002_Node000005" class="edge">
<title>Node2&#45;&gt;Node5</title>
<g id="a_edge21_Node000002_Node000005"><a xlink:title=" ">
<path fill="none" stroke="#63b8ff" d="M972.75,-118.32C953.33,-136.55 919.43,-164.64 884,-176.5 758.79,-218.42 599.76,-199.59 521.67,-186.04"/>
<polygon fill="#63b8ff" stroke="#63b8ff" points="975.38,-120.64 980.15,-111.18 970.53,-115.61 975.38,-120.64"/>
</a>
</g>
</g>
<!-- Node20 -->
<g id="Node000020" class="node">
<title>Node20</title>
<g id="a_Node000020"><a xlink:href="test__connection_send_response_8cpp.html#a824593e26c42b4efd63e5d15e5bc8cb2" target="_top" xlink:title=" ">
<polygon fill="white" stroke="#666666" points="839,-130 787,-130 787,-111 839,-111 839,-130"/>
<text text-anchor="middle" x="813" y="-118" font-family="Helvetica,sans-Serif" font-size="10.00">TEST_F</text>
</a>
</g>
</g>
<!-- Node2&#45;&gt;Node20 -->
<g id="edge22_Node000002_Node000020" class="edge">
<title>Node2&#45;&gt;Node20</title>
<g id="a_edge22_Node000002_Node000020"><a xlink:title=" ">
<path fill="none" stroke="#63b8ff" d="M909.77,-110.13C884.2,-112.9 857.7,-115.77 839.08,-117.78"/>
<polygon fill="#63b8ff" stroke="#63b8ff" points="910.32,-113.59 919.89,-109.04 909.57,-106.63 910.32,-113.59"/>
</a>
</g>
</g>
<!-- Node21 -->
<g id="Node000021" class="node">
<title>Node21</title>
<g id="a_Node000021"><a xlink:href="test__connection_send_response_8cpp.html#ae51efb039114ce1ecc536678298e3ac3" target="_top" xlink:title=" ">
<polygon fill="white" stroke="#666666" points="839,-93 787,-93 787,-74 839,-74 839,-93"/>
<text text-anchor="middle" x="813" y="-81" font-family="Helvetica,sans-Serif" font-size="10.00">TEST_F</text>
</a>
</g>
</g>
<!-- Node2&#45;&gt;Node21 -->
<g id="edge23_Node000002_Node000021" class="edge">
<title>Node2&#45;&gt;Node21</title>
<g id="a_edge23_Node000002_Node000021"><a xlink:title=" ">
<path fill="none" stroke="#63b8ff" d="M909.77,-93.32C884.2,-90.7 857.7,-87.98 839.08,-86.07"/>
<polygon fill="#63b8ff" stroke="#63b8ff" points="909.58,-96.82 919.89,-94.36 910.3,-89.86 909.58,-96.82"/>
</a>
</g>
</g>
<!-- Node22 -->
<g id="Node000022" class="node">
<title>Node22</title>
<g id="a_Node000022"><a xlink:href="test__connection_send_response_8cpp.html#a21c07341abaaa0409856bcd3c99f91d8" target="_top" xlink:title=" ">
<polygon fill="white" stroke="#666666" points="839,-56 787,-56 787,-37 839,-37 839,-56"/>
<text text-anchor="middle" x="813" y="-44" font-family="Helvetica,sans-Serif" font-size="10.00">TEST_F</text>
</a>
</g>
</g>
<!-- Node2&#45;&gt;Node22 -->
<g id="edge24_Node000002_Node000022" class="edge">
<title>Node2&#45;&gt;Node22</title>
<g id="a_edge24_Node000002_Node000022"><a xlink:title=" ">
<path fill="none" stroke="#63b8ff" d="M954.6,-88.42C934.17,-80.97 907.78,-71.71 884,-64.5 869.23,-60.02 852.49,-55.69 839.09,-52.4"/>
<polygon fill="#63b8ff" stroke="#63b8ff" points="953.53,-91.75 964.12,-91.91 955.94,-85.18 953.53,-91.75"/>
</a>
</g>
</g>
<!-- Node23 -->
<g id="Node000023" class="node">
<title>Node23</title>
<g id="a_Node000023"><a xlink:href="test__connection_send_response_8cpp.html#ac0244b587995b8cde69686452c3c41c8" target="_top" xlink:title=" ">
<polygon fill="white" stroke="#666666" points="839,-19 787,-19 787,0 839,0 839,-19"/>
<text text-anchor="middle" x="813" y="-7" font-family="Helvetica,sans-Serif" font-size="10.00">TEST_F</text>
</a>
</g>
</g>
<!-- Node2&#45;&gt;Node23 -->
<g id="edge25_Node000002_Node000023" class="edge">
<title>Node2&#45;&gt;Node23</title>
<g id="a_edge25_Node000002_Node000023"><a xlink:title=" ">
<path fill="none" stroke="#63b8ff" d="M970.87,-85.26C950.73,-68.51 917.07,-42.73 884,-27.5 869.75,-20.94 852.73,-16.49 839.04,-13.66"/>
<polygon fill="#63b8ff" stroke="#63b8ff" points="968.73,-88.04 978.63,-91.83 973.26,-82.7 968.73,-88.04"/>
</a>
</g>
</g>
<!-- Node4 -->
<g id="Node000004" class="node">
<title>Node4</title>
<g id="a_Node000004"><a xlink:href="_server_8cpp.html#ad132a77471376bd48681070a795df914" target="_top" xlink:title="Handles a timeout for a client connection.">
<polygon fill="white" stroke="#666666" points="706,-148 561,-148 561,-129 706,-129 706,-148"/>
<text text-anchor="middle" x="633.5" y="-136" font-family="Helvetica,sans-Serif" font-size="10.00">connectionHandleTimeout</text>
</a>
</g>
</g>
<!-- Node3&#45;&gt;Node4 -->
<g id="edge3_Node000003_Node000004" class="edge">
<title>Node3&#45;&gt;Node4</title>
<g id="a_edge3_Node000003_Node000004"><a xlink:title=" ">
<path fill="none" stroke="#63b8ff" d="M731.87,-148.92C723.3,-148.01 714.64,-147.08 706.18,-146.17"/>
<polygon fill="#63b8ff" stroke="#63b8ff" points="731.53,-152.41 741.85,-149.99 732.28,-145.45 731.53,-152.41"/>
</a>
</g>
</g>
<!-- Node3&#45;&gt;Node5 -->
<g id="edge19_Node000003_Node000005" class="edge">
<title>Node3&#45;&gt;Node5</title>
<g id="a_edge19_Node000003_Node000005"><a xlink:title=" ">
<path fill="none" stroke="#63b8ff" d="M731.91,-162C667.89,-165.6 580.09,-170.54 525.23,-173.62"/>
<polygon fill="#63b8ff" stroke="#63b8ff" points="732.18,-165.49 741.97,-161.44 731.79,-158.5 732.18,-165.49"/>
</a>
</g>
</g>
<!-- Node19 -->
<g id="Node000019" class="node">
<title>Node19</title>
<g id="a_Node000019"><a xlink:href="test__connection_build_response_8cpp.html#a19ea1eb978dc0699fb834666e9671d31" target="_top" xlink:title=" ">
<polygon fill="white" stroke="#666666" points="659.5,-111 607.5,-111 607.5,-92 659.5,-92 659.5,-111"/>
<text text-anchor="middle" x="633.5" y="-99" font-family="Helvetica,sans-Serif" font-size="10.00">TEST_F</text>
</a>
</g>
</g>
<!-- Node3&#45;&gt;Node19 -->
<g id="edge20_Node000003_Node000019" class="edge">
<title>Node3&#45;&gt;Node19</title>
<g id="a_edge20_Node000003_Node000019"><a xlink:title=" ">
<path fill="none" stroke="#63b8ff" d="M760.79,-145.01C754.39,-143.04 748,-140.86 742,-138.5 725.17,-131.87 722.89,-125.98 706,-119.5 691.06,-113.77 673.66,-109.35 659.77,-106.32"/>
<polygon fill="#63b8ff" stroke="#63b8ff" points="760.21,-148.49 770.79,-147.94 762.18,-141.77 760.21,-148.49"/>
</a>
</g>
</g>
<!-- Node4&#45;&gt;Node5 -->
<g id="edge4_Node000004_Node000005" class="edge">
<title>Node4&#45;&gt;Node5</title>
<g id="a_edge4_Node000004_Node000005"><a xlink:title=" ">
<path fill="none" stroke="#63b8ff" d="M582.58,-150.47C560.37,-155.79 534.58,-161.98 513.71,-166.98"/>
<polygon fill="#63b8ff" stroke="#63b8ff" points="583.6,-153.82 592.5,-148.09 581.96,-147.02 583.6,-153.82"/>
</a>
</g>
</g>
<!-- Node18 -->
<g id="Node000018" class="node">
<title>Node18</title>
<g id="a_Node000018"><a xlink:href="test__connection_handle_timeout_8cpp.html#a765fc141efbbfb6992b25391d64dbf9c" target="_top" xlink:title=" ">
<polygon fill="white" stroke="#666666" points="499,-148 447,-148 447,-129 499,-129 499,-148"/>
<text text-anchor="middle" x="473" y="-136" font-family="Helvetica,sans-Serif" font-size="10.00">TEST_F</text>
</a>
</g>
</g>
<!-- Node4&#45;&gt;Node18 -->
<g id="edge18_Node000004_Node000018" class="edge">
<title>Node4&#45;&gt;Node18</title>
<g id="a_edge18_Node000004_Node000018"><a xlink:title=" ">
<path fill="none" stroke="#63b8ff" d="M550.61,-138.5C531.94,-138.5 513.46,-138.5 499.33,-138.5"/>
<polygon fill="#63b8ff" stroke="#63b8ff" points="550.67,-142 560.67,-138.5 550.67,-135 550.67,-142"/>
</a>
</g>
</g>
<!-- Node6 -->
<g id="Node000006" class="node">
<title>Node6</title>
<g id="a_Node000006"><a xlink:href="_server_8cpp.html#af9f4479a6262c17deef89938118d27f4" target="_top" xlink:title="Accepts new connections or handles existing ones.">
<polygon fill="white" stroke="#666666" points="385,-186 308,-186 308,-167 385,-167 385,-186"/>
<text text-anchor="middle" x="346.5" y="-174" font-family="Helvetica,sans-Serif" font-size="10.00">handleEvent</text>
</a>
</g>
</g>
<!-- Node5&#45;&gt;Node6 -->
<g id="edge5_Node000005_Node000006" class="edge">
<title>Node5&#45;&gt;Node6</title>
<g id="a_edge5_Node000005_Node000006"><a xlink:title=" ">
<path fill="none" stroke="#63b8ff" d="M410.49,-176.5C401.8,-176.5 393.1,-176.5 385.05,-176.5"/>
<polygon fill="#63b8ff" stroke="#63b8ff" points="410.64,-180 420.64,-176.5 410.64,-173 410.64,-180"/>
</a>
</g>
</g>
<!-- Node7 -->
<g id="Node000007" class="node">
<title>Node7</title>
<g id="a_Node000007"><a xlink:href="_server_8cpp.html#ab66b27c2186daacb15a6b13dd43be31b" target="_top" xlink:title="Runs the main event loop with a server object.">
<polygon fill="white" stroke="#666666" points="141,-298 77,-298 77,-279 141,-279 141,-298"/>
<text text-anchor="middle" x="109" y="-286" font-family="Helvetica,sans-Serif" font-size="10.00">runServer</text>
</a>
</g>
</g>
<!-- Node6&#45;&gt;Node7 -->
<g id="edge6_Node000006_Node000007" class="edge">
<title>Node6&#45;&gt;Node7</title>
<g id="a_edge6_Node000006_Node000007"><a xlink:title=" ">
<path fill="none" stroke="#63b8ff" d="M336.52,-195.17C324.93,-217.04 302.54,-252.44 272,-269.5 231.08,-292.35 175.36,-293.6 141.08,-291.62"/>
<polygon fill="#63b8ff" stroke="#63b8ff" points="339.68,-196.69 341.08,-186.19 333.44,-193.52 339.68,-196.69"/>
</a>
</g>
</g>
<!-- Node9 -->
<g id="Node000009" class="node">
<title>Node9</title>
<g id="a_Node000009"><a xlink:href="_server_8cpp.html#a115ecd76e344c1007bedc48b9bbdc0fa" target="_top" xlink:title="Performs a graceful shutdown of the server.">
<polygon fill="white" stroke="#666666" points="272,-260 177,-260 177,-241 272,-241 272,-260"/>
<text text-anchor="middle" x="224.5" y="-248" font-family="Helvetica,sans-Serif" font-size="10.00">shutdownServer</text>
</a>
</g>
</g>
<!-- Node6&#45;&gt;Node9 -->
<g id="edge8_Node000006_Node000009" class="edge">
<title>Node6&#45;&gt;Node9</title>
<g id="a_edge8_Node000006_Node000009"><a xlink:title=" ">
<path fill="none" stroke="#63b8ff" d="M327.12,-192.85C312.83,-204.96 292.13,-221.24 272,-232.5 266.41,-235.63 260.17,-238.45 254.11,-240.89"/>
<polygon fill="#63b8ff" stroke="#63b8ff" points="329.45,-195.46 334.73,-186.28 324.87,-190.17 329.45,-195.46"/>
</a>
</g>
</g>
<!-- Node13 -->
<g id="Node000013" class="node">
<title>Node13</title>
<g id="a_Node000013"><a xlink:href="test__handle_event_8cpp.html#a6b02b237de8284e0c133cf8411401e71" target="_top" xlink:title=" ">
<polygon fill="white" stroke="#666666" points="250.5,-223 198.5,-223 198.5,-204 250.5,-204 250.5,-223"/>
<text text-anchor="middle" x="224.5" y="-211" font-family="Helvetica,sans-Serif" font-size="10.00">TEST_F</text>
</a>
</g>
</g>
<!-- Node6&#45;&gt;Node13 -->
<g id="edge13_Node000006_Node000013" class="edge">
<title>Node6&#45;&gt;Node13</title>
<g id="a_edge13_Node000006_Node000013"><a xlink:title=" ">
<path fill="none" stroke="#63b8ff" d="M304.92,-189.01C286.94,-194.56 266.35,-200.9 250.64,-205.75"/>
<polygon fill="#63b8ff" stroke="#63b8ff" points="306.07,-192.32 314.6,-186.03 304.01,-185.63 306.07,-192.32"/>
</a>
</g>
</g>
<!-- Node14 -->
<g id="Node000014" class="node">
<title>Node14</title>
<g id="a_Node000014"><a xlink:href="test__handle_event_8cpp.html#a2d9ba98f6de6c5e0452b99c6f764e1b4" target="_top" xlink:title=" ">
<polygon fill="white" stroke="#666666" points="250.5,-186 198.5,-186 198.5,-167 250.5,-167 250.5,-186"/>
<text text-anchor="middle" x="224.5" y="-174" font-family="Helvetica,sans-Serif" font-size="10.00">TEST_F</text>
</a>
</g>
</g>
<!-- Node6&#45;&gt;Node14 -->
<g id="edge14_Node000006_Node000014" class="edge">
<title>Node6&#45;&gt;Node14</title>
<g id="a_edge14_Node000006_Node000014"><a xlink:title=" ">
<path fill="none" stroke="#63b8ff" d="M297.51,-176.5C281.41,-176.5 264.11,-176.5 250.5,-176.5"/>
<polygon fill="#63b8ff" stroke="#63b8ff" points="297.86,-180 307.86,-176.5 297.86,-173 297.86,-180"/>
</a>
</g>
</g>
<!-- Node15 -->
<g id="Node000015" class="node">
<title>Node15</title>
<g id="a_Node000015"><a xlink:href="test__handle_event_8cpp.html#ac379b830f0bc030cee7bfb4dc8ef2a06" target="_top" xlink:title=" ">
<polygon fill="white" stroke="#666666" points="250.5,-149 198.5,-149 198.5,-130 250.5,-130 250.5,-149"/>
<text text-anchor="middle" x="224.5" y="-137" font-family="Helvetica,sans-Serif" font-size="10.00">TEST_F</text>
</a>
</g>
</g>
<!-- Node6&#45;&gt;Node15 -->
<g id="edge15_Node000006_Node000015" class="edge">
<title>Node6&#45;&gt;Node15</title>
<g id="a_edge15_Node000006_Node000015"><a xlink:title=" ">
<path fill="none" stroke="#63b8ff" d="M304.92,-163.99C286.94,-158.44 266.35,-152.1 250.64,-147.25"/>
<polygon fill="#63b8ff" stroke="#63b8ff" points="304.01,-167.37 314.6,-166.97 306.07,-160.68 304.01,-167.37"/>
</a>
</g>
</g>
<!-- Node16 -->
<g id="Node000016" class="node">
<title>Node16</title>
<g id="a_Node000016"><a xlink:href="test__handle_event_8cpp.html#a174d935df4191823bf4798918aa794ee" target="_top" xlink:title=" ">
<polygon fill="white" stroke="#666666" points="250.5,-112 198.5,-112 198.5,-93 250.5,-93 250.5,-112"/>
<text text-anchor="middle" x="224.5" y="-100" font-family="Helvetica,sans-Serif" font-size="10.00">TEST_F</text>
</a>
</g>
</g>
<!-- Node6&#45;&gt;Node16 -->
<g id="edge16_Node000006_Node000016" class="edge">
<title>Node6&#45;&gt;Node16</title>
<g id="a_edge16_Node000006_Node000016"><a xlink:title=" ">
<path fill="none" stroke="#63b8ff" d="M327.12,-160.15C312.83,-148.04 292.13,-131.76 272,-120.5 265.35,-116.78 257.78,-113.49 250.7,-110.77"/>
<polygon fill="#63b8ff" stroke="#63b8ff" points="324.87,-162.83 334.73,-166.72 329.45,-157.54 324.87,-162.83"/>
</a>
</g>
</g>
<!-- Node17 -->
<g id="Node000017" class="node">
<title>Node17</title>
<g id="a_Node000017"><a xlink:href="test__handle_event_8cpp.html#a00f6ce6db41fce20edc0e6febca98965" target="_top" xlink:title=" ">
<polygon fill="white" stroke="#666666" points="250.5,-75 198.5,-75 198.5,-56 250.5,-56 250.5,-75"/>
<text text-anchor="middle" x="224.5" y="-63" font-family="Helvetica,sans-Serif" font-size="10.00">TEST_F</text>
</a>
</g>
</g>
<!-- Node6&#45;&gt;Node17 -->
<g id="edge17_Node000006_Node000017" class="edge">
<title>Node6&#45;&gt;Node17</title>
<g id="a_edge17_Node000006_Node000017"><a xlink:title=" ">
<path fill="none" stroke="#63b8ff" d="M335.16,-158.17C322.64,-137.45 299.73,-103.96 272,-83.5 265.73,-78.87 258.12,-75.28 250.89,-72.56"/>
<polygon fill="#63b8ff" stroke="#63b8ff" points="332.23,-160.09 340.31,-166.95 338.27,-156.55 332.23,-160.09"/>
</a>
</g>
</g>
<!-- Node8 -->
<g id="Node000008" class="node">
<title>Node8</title>
<g id="a_Node000008"><a xlink:href="main_8cpp.html#ad53223b8779f25caeddb70a3b9172967" target="_top" xlink:title=" ">
<polygon fill="white" stroke="#666666" points="41,-298 0,-298 0,-279 41,-279 41,-298"/>
<text text-anchor="middle" x="20.5" y="-286" font-family="Helvetica,sans-Serif" font-size="10.00">main</text>
</a>
</g>
</g>
<!-- Node7&#45;&gt;Node8 -->
<g id="edge7_Node000007_Node000008" class="edge">
<title>Node7&#45;&gt;Node8</title>
<g id="a_edge7_Node000007_Node000008"><a xlink:title=" ">
<path fill="none" stroke="#63b8ff" d="M66.5,-288.5C57.64,-288.5 48.68,-288.5 41.11,-288.5"/>
<polygon fill="#63b8ff" stroke="#63b8ff" points="66.77,-292 76.77,-288.5 66.77,-285 66.77,-292"/>
</a>
</g>
</g>
<!-- Node9&#45;&gt;Node7 -->
<g id="edge9_Node000009_Node000007" class="edge">
<title>Node9&#45;&gt;Node7</title>
<g id="a_edge9_Node000009_Node000007"><a xlink:title=" ">
<path fill="none" stroke="#63b8ff" d="M185.19,-263.33C169.96,-268.42 152.74,-274.19 138.63,-278.91"/>
<polygon fill="#63b8ff" stroke="#63b8ff" points="186.49,-266.58 194.86,-260.09 184.27,-259.94 186.49,-266.58"/>
</a>
</g>
</g>
<!-- Node10 -->
<g id="Node000010" class="node">
<title>Node10</title>
<g id="a_Node000010"><a xlink:href="test__shutdown_server_8cpp.html#a6462dc91a572c9969b759806ed15590b" target="_top" xlink:title=" ">
<polygon fill="white" stroke="#666666" points="135,-261 83,-261 83,-242 135,-242 135,-261"/>
<text text-anchor="middle" x="109" y="-249" font-family="Helvetica,sans-Serif" font-size="10.00">TEST_F</text>
</a>
</g>
</g>
<!-- Node9&#45;&gt;Node10 -->
<g id="edge10_Node000009_Node000010" class="edge">
<title>Node9&#45;&gt;Node10</title>
<g id="a_edge10_Node000009_Node000010"><a xlink:title=" ">
<path fill="none" stroke="#63b8ff" d="M166.63,-251C155.63,-251.1 144.64,-251.19 135.3,-251.28"/>
<polygon fill="#63b8ff" stroke="#63b8ff" points="166.71,-254.5 176.68,-250.91 166.65,-247.5 166.71,-254.5"/>
</a>
</g>
</g>
<!-- Node11 -->
<g id="Node000011" class="node">
<title>Node11</title>
<g id="a_Node000011"><a xlink:href="test__shutdown_server_8cpp.html#a69fea7b0fb329821fdd955271edc65ee" target="_top" xlink:title=" ">
<polygon fill="white" stroke="#666666" points="135,-224 83,-224 83,-205 135,-205 135,-224"/>
<text text-anchor="middle" x="109" y="-212" font-family="Helvetica,sans-Serif" font-size="10.00">TEST_F</text>
</a>
</g>
</g>
<!-- Node9&#45;&gt;Node11 -->
<g id="edge11_Node000009_Node000011" class="edge">
<title>Node9&#45;&gt;Node11</title>
<g id="a_edge11_Node000009_Node000011"><a xlink:title=" ">
<path fill="none" stroke="#63b8ff" d="M183.67,-237.87C167.58,-232.76 149.49,-227.03 135.26,-222.51"/>
<polygon fill="#63b8ff" stroke="#63b8ff" points="182.79,-241.26 193.38,-240.95 184.91,-234.59 182.79,-241.26"/>
</a>
</g>
</g>
<!-- Node12 -->
<g id="Node000012" class="node">
<title>Node12</title>
<g id="a_Node000012"><a xlink:href="test__shutdown_server_8cpp.html#a224e0b58937c3db439ffeef179620439" target="_top" xlink:title=" ">
<polygon fill="white" stroke="#666666" points="135,-187 83,-187 83,-168 135,-168 135,-187"/>
<text text-anchor="middle" x="109" y="-175" font-family="Helvetica,sans-Serif" font-size="10.00">TEST_F</text>
</a>
</g>
</g>
<!-- Node9&#45;&gt;Node12 -->
<g id="edge12_Node000009_Node000012" class="edge">
<title>Node9&#45;&gt;Node12</title>
<g id="a_edge12_Node000009_Node000012"><a xlink:title=" ">
<path fill="none" stroke="#63b8ff" d="M183.79,-236.47C181.44,-235.23 179.16,-233.91 177,-232.5 158.04,-220.15 158.77,-210.51 141,-196.5 136.74,-193.14 131.84,-189.89 127.22,-187.06"/>
<polygon fill="#63b8ff" stroke="#63b8ff" points="182.54,-239.74 193.08,-240.83 185.52,-233.41 182.54,-239.74"/>
</a>
</g>
</g>
</g>
</svg>
