<?xml version="1.0" encoding="UTF-8" standalone="no"?>
<!DOCTYPE svg PUBLIC "-//W3C//DTD SVG 1.1//EN"
 "http://www.w3.org/Graphics/SVG/1.1/DTD/svg11.dtd">
<!-- Generated by graphviz version 2.43.0 (0)
 -->
<!-- Title: src/Connection.cpp Pages: 1 -->
<!--zoomable 252 -->
<svg id="main" version="1.1" xmlns="http://www.w3.org/2000/svg" xmlns:xlink="http://www.w3.org/1999/xlink" xml:space="preserve" onload="init(evt)">
<style type="text/css"><![CDATA[
.edge:hover path { stroke: red; }
.edge:hover polygon { stroke: red; fill: red; }
]]></style>
<script type="text/javascript"><![CDATA[
var edges = document.getElementsByTagName('g');
if (edges && edges.length) {
  for (var i=0;i<edges.length;i++) {
    if (edges[i].id.substr(0,4)=='edge') {
      edges[i].setAttribute('class','edge');
    }
  }
}
]]></script>
        <defs>
                <circle id="rim" cx="0" cy="0" r="7"/>
                <circle id="rim2" cx="0" cy="0" r="3.5"/>
                <g id="zoomPlus">
                        <use xlink:href="#rim" fill="#404040">
                                <set attributeName="fill" to="#808080" begin="zoomplus.mouseover" end="zoomplus.mouseout"/>
                        </use>
                        <path d="M-4,0h8M0,-4v8" fill="none" stroke="white" stroke-width="1.5" pointer-events="none"/>
                </g>
                <g id="zoomMin">
                        <use xlink:href="#rim" fill="#404040">
                                <set attributeName="fill" to="#808080" begin="zoomminus.mouseover" end="zoomminus.mouseout"/>
                        </use>
                        <path d="M-4,0h8" fill="none" stroke="white" stroke-width="1.5" pointer-events="none"/>
                </g>
                <g id="dirArrow">
                        <path fill="none" stroke="white" stroke-width="1.5" d="M0,-3.0v7 M-2.5,-0.5L0,-3.0L2.5,-0.5"/>
                </g>
               <g id="resetDef">
                       <use xlink:href="#rim2" fill="#404040">
                               <set attributeName="fill" to="#808080" begin="reset.mouseover" end="reset.mouseout"/>
                       </use>
               </g>
        </defs>

<script type="text/javascript">
var viewWidth = 631;
var viewHeight = 252;
var sectionId = 'dynsection-0';
</script>
<script xlink:href="svgpan.js"/>
<svg id="graph" class="graph">
<g id="viewport">
<title>src/Connection.cpp</title>
<!-- Node1 -->
<g id="node1" class="node">
<title>Node1</title>
<g id="a_node1"><a xlink:title=" ">
<polygon fill="#bfbfbf" stroke="black" points="455.96,-224.5 455.96,-243.5 564.96,-243.5 564.96,-224.5 455.96,-224.5"/>
<text text-anchor="middle" x="510.46" y="-231.5" font-family="Helvetica,sans-Serif" font-size="10.00">src/Connection.cpp</text>
</a>
</g>
</g>
<!-- Node2 -->
<g id="node2" class="node">
<title>Node2</title>
<g id="a_node2"><a xlink:href="_connection_8hpp.html" target="_top" xlink:title=" ">
<polygon fill="none" stroke="black" points="164.46,-168.5 164.46,-187.5 256.46,-187.5 256.46,-168.5 164.46,-168.5"/>
<text text-anchor="middle" x="210.46" y="-175.5" font-family="Helvetica,sans-Serif" font-size="10.00">Connection.hpp</text>
</a>
</g>
</g>
<!-- Node1&#45;&gt;Node2 -->
<g id="edge1" class="edge">
<title>Node1&#45;&gt;Node2</title>
<path fill="none" stroke="midnightblue" d="M462.92,-224.44C409.62,-214.85 323.25,-199.3 266.65,-189.11"/>
<polygon fill="midnightblue" stroke="midnightblue" points="267.25,-185.67 256.79,-187.34 266.01,-192.56 267.25,-185.67"/>
</g>
<!-- Node4 -->
<g id="node4" class="node">
<title>Node4</title>
<g id="a_node4"><a xlink:href="_config_file_8hpp.html" target="_top" xlink:title=" ">
<polygon fill="none" stroke="black" points="387.46,-56.5 387.46,-75.5 473.46,-75.5 473.46,-56.5 387.46,-56.5"/>
<text text-anchor="middle" x="430.46" y="-63.5" font-family="Helvetica,sans-Serif" font-size="10.00">ConfigFile.hpp</text>
</a>
</g>
</g>
<!-- Node1&#45;&gt;Node4 -->
<g id="edge19" class="edge">
<title>Node1&#45;&gt;Node4</title>
<path fill="none" stroke="midnightblue" d="M511.23,-224.33C512.68,-203.36 513.86,-148.9 491.46,-112 483.46,-98.82 470.01,-88.28 457.77,-80.72"/>
<polygon fill="midnightblue" stroke="midnightblue" points="459.17,-77.49 448.76,-75.53 455.68,-83.56 459.17,-77.49"/>
</g>
<!-- Node8 -->
<g id="node8" class="node">
<title>Node8</title>
<g id="a_node8"><a xlink:href="_status_code_8hpp.html" target="_top" xlink:title=" ">
<polygon fill="none" stroke="black" points="529.96,-56.5 529.96,-75.5 622.96,-75.5 622.96,-56.5 529.96,-56.5"/>
<text text-anchor="middle" x="576.46" y="-63.5" font-family="Helvetica,sans-Serif" font-size="10.00">StatusCode.hpp</text>
</a>
</g>
</g>
<!-- Node1&#45;&gt;Node8 -->
<g id="edge20" class="edge">
<title>Node1&#45;&gt;Node8</title>
<path fill="none" stroke="midnightblue" d="M514.01,-224.08C524.44,-197.83 555.17,-120.55 569.26,-85.12"/>
<polygon fill="midnightblue" stroke="midnightblue" points="572.61,-86.15 573.05,-75.57 566.11,-83.57 572.61,-86.15"/>
</g>
<!-- Node3 -->
<g id="node3" class="node">
<title>Node3</title>
<g id="a_node3"><a xlink:href="_h_t_t_p_request_8hpp.html" target="_top" xlink:title=" ">
<polygon fill="none" stroke="black" points="378.96,-112.5 378.96,-131.5 481.96,-131.5 481.96,-112.5 378.96,-112.5"/>
<text text-anchor="middle" x="430.46" y="-119.5" font-family="Helvetica,sans-Serif" font-size="10.00">HTTPRequest.hpp</text>
</a>
</g>
</g>
<!-- Node2&#45;&gt;Node3 -->
<g id="edge2" class="edge">
<title>Node2&#45;&gt;Node3</title>
<path fill="none" stroke="midnightblue" d="M245.32,-168.44C283.38,-159.1 344.42,-144.12 385.92,-133.93"/>
<polygon fill="midnightblue" stroke="midnightblue" points="386.89,-137.3 395.76,-131.52 385.22,-130.5 386.89,-137.3"/>
</g>
<!-- Node9 -->
<g id="node9" class="node">
<title>Node9</title>
<g id="a_node9"><a xlink:title=" ">
<polygon fill="none" stroke="#bfbfbf" points="287.46,-56.5 287.46,-75.5 331.46,-75.5 331.46,-56.5 287.46,-56.5"/>
<text text-anchor="middle" x="309.46" y="-63.5" font-family="Helvetica,sans-Serif" font-size="10.00">string</text>
</a>
</g>
</g>
<!-- Node2&#45;&gt;Node9 -->
<g id="edge17" class="edge">
<title>Node2&#45;&gt;Node9</title>
<path fill="none" stroke="midnightblue" d="M164.19,-176.69C91.9,-174.64 -35.18,-163.83 9.46,-112 43.78,-72.14 207.18,-67.09 277.34,-66.79"/>
<polygon fill="midnightblue" stroke="midnightblue" points="277.38,-70.29 287.38,-66.78 277.37,-63.29 277.38,-70.29"/>
</g>
<!-- Node10 -->
<g id="node10" class="node">
<title>Node10</title>
<g id="a_node10"><a xlink:href="_socket_8hpp.html" target="_top" xlink:title=" ">
<polygon fill="none" stroke="black" points="290.46,-112.5 290.46,-131.5 360.46,-131.5 360.46,-112.5 290.46,-112.5"/>
<text text-anchor="middle" x="325.46" y="-119.5" font-family="Helvetica,sans-Serif" font-size="10.00">Socket.hpp</text>
</a>
</g>
</g>
<!-- Node2&#45;&gt;Node10 -->
<g id="edge12" class="edge">
<title>Node2&#45;&gt;Node10</title>
<path fill="none" stroke="midnightblue" d="M228.68,-168.44C247.35,-159.68 276.62,-145.94 298.08,-135.86"/>
<polygon fill="midnightblue" stroke="midnightblue" points="299.76,-138.93 307.32,-131.52 296.78,-132.6 299.76,-138.93"/>
</g>
<!-- Node11 -->
<g id="node11" class="node">
<title>Node11</title>
<g id="a_node11"><a xlink:title=" ">
<polygon fill="none" stroke="#bfbfbf" points="18.96,-112.5 18.96,-131.5 71.96,-131.5 71.96,-112.5 18.96,-112.5"/>
<text text-anchor="middle" x="45.46" y="-119.5" font-family="Helvetica,sans-Serif" font-size="10.00">cstddef</text>
</a>
</g>
</g>
<!-- Node2&#45;&gt;Node11 -->
<g id="edge14" class="edge">
<title>Node2&#45;&gt;Node11</title>
<path fill="none" stroke="midnightblue" d="M184.31,-168.44C156.44,-159.32 112.11,-144.81 81.06,-134.65"/>
<polygon fill="midnightblue" stroke="midnightblue" points="82.07,-131.3 71.48,-131.52 79.9,-137.95 82.07,-131.3"/>
</g>
<!-- Node12 -->
<g id="node12" class="node">
<title>Node12</title>
<g id="a_node12"><a xlink:title=" ">
<polygon fill="none" stroke="#bfbfbf" points="90.46,-112.5 90.46,-131.5 136.46,-131.5 136.46,-112.5 90.46,-112.5"/>
<text text-anchor="middle" x="113.46" y="-119.5" font-family="Helvetica,sans-Serif" font-size="10.00">cstdio</text>
</a>
</g>
</g>
<!-- Node2&#45;&gt;Node12 -->
<g id="edge15" class="edge">
<title>Node2&#45;&gt;Node12</title>
<path fill="none" stroke="midnightblue" d="M194.87,-168.32C179.46,-159.74 155.65,-146.49 137.75,-136.52"/>
<polygon fill="midnightblue" stroke="midnightblue" points="139.44,-133.46 129.01,-131.65 136.04,-139.58 139.44,-133.46"/>
</g>
<!-- Node13 -->
<g id="node13" class="node">
<title>Node13</title>
<g id="a_node13"><a xlink:title=" ">
<polygon fill="none" stroke="#bfbfbf" points="154.46,-112.5 154.46,-131.5 198.46,-131.5 198.46,-112.5 154.46,-112.5"/>
<text text-anchor="middle" x="176.46" y="-119.5" font-family="Helvetica,sans-Serif" font-size="10.00">ctime</text>
</a>
</g>
</g>
<!-- Node2&#45;&gt;Node13 -->
<g id="edge16" class="edge">
<title>Node2&#45;&gt;Node13</title>
<path fill="none" stroke="midnightblue" d="M204.84,-168.08C200.09,-160.53 193.14,-149.49 187.31,-140.23"/>
<polygon fill="midnightblue" stroke="midnightblue" points="190.26,-138.35 181.97,-131.75 184.34,-142.08 190.26,-138.35"/>
</g>
<!-- Node14 -->
<g id="node14" class="node">
<title>Node14</title>
<g id="a_node14"><a xlink:title=" ">
<polygon fill="none" stroke="#bfbfbf" points="216.46,-112.5 216.46,-131.5 272.46,-131.5 272.46,-112.5 216.46,-112.5"/>
<text text-anchor="middle" x="244.46" y="-119.5" font-family="Helvetica,sans-Serif" font-size="10.00">unistd.h</text>
</a>
</g>
</g>
<!-- Node2&#45;&gt;Node14 -->
<g id="edge18" class="edge">
<title>Node2&#45;&gt;Node14</title>
<path fill="none" stroke="midnightblue" d="M216.07,-168.08C220.83,-160.53 227.78,-149.49 233.61,-140.23"/>
<polygon fill="midnightblue" stroke="midnightblue" points="236.58,-142.08 238.95,-131.75 230.66,-138.35 236.58,-142.08"/>
</g>
<!-- Node3&#45;&gt;Node4 -->
<g id="edge3" class="edge">
<title>Node3&#45;&gt;Node4</title>
<path fill="none" stroke="midnightblue" d="M430.46,-112.08C430.46,-105.01 430.46,-94.86 430.46,-85.99"/>
<polygon fill="midnightblue" stroke="midnightblue" points="433.96,-85.75 430.46,-75.75 426.96,-85.75 433.96,-85.75"/>
</g>
<!-- Node5 -->
<g id="node5" class="node">
<title>Node5</title>
<g id="a_node5"><a xlink:title=" ">
<polygon fill="none" stroke="#bfbfbf" points="471.46,-0.5 471.46,-19.5 531.46,-19.5 531.46,-0.5 471.46,-0.5"/>
<text text-anchor="middle" x="501.46" y="-7.5" font-family="Helvetica,sans-Serif" font-size="10.00">iostream</text>
</a>
</g>
</g>
<!-- Node3&#45;&gt;Node5 -->
<g id="edge9" class="edge">
<title>Node3&#45;&gt;Node5</title>
<path fill="none" stroke="midnightblue" d="M444.38,-112.31C456.16,-104.27 472.65,-91.27 482.46,-76 491.49,-61.93 496.35,-43.44 498.89,-29.78"/>
<polygon fill="midnightblue" stroke="midnightblue" points="502.39,-30.07 500.51,-19.64 495.47,-28.96 502.39,-30.07"/>
</g>
<!-- Node6 -->
<g id="node6" class="node">
<title>Node6</title>
<g id="a_node6"><a xlink:title=" ">
<polygon fill="none" stroke="#bfbfbf" points="345.46,-0.5 345.46,-19.5 383.46,-19.5 383.46,-0.5 345.46,-0.5"/>
<text text-anchor="middle" x="364.46" y="-7.5" font-family="Helvetica,sans-Serif" font-size="10.00">map</text>
</a>
</g>
</g>
<!-- Node3&#45;&gt;Node6 -->
<g id="edge10" class="edge">
<title>Node3&#45;&gt;Node6</title>
<path fill="none" stroke="midnightblue" d="M416.27,-112.48C404.31,-104.55 387.71,-91.61 378.46,-76 370.09,-61.88 366.7,-43.39 365.34,-29.75"/>
<polygon fill="midnightblue" stroke="midnightblue" points="368.82,-29.34 364.61,-19.62 361.84,-29.85 368.82,-29.34"/>
</g>
<!-- Node3&#45;&gt;Node8 -->
<g id="edge7" class="edge">
<title>Node3&#45;&gt;Node8</title>
<path fill="none" stroke="midnightblue" d="M453.59,-112.44C477.94,-103.44 516.47,-89.19 543.88,-79.05"/>
<polygon fill="midnightblue" stroke="midnightblue" points="545.27,-82.27 553.43,-75.52 542.84,-75.7 545.27,-82.27"/>
</g>
<!-- Node3&#45;&gt;Node9 -->
<g id="edge11" class="edge">
<title>Node3&#45;&gt;Node9</title>
<path fill="none" stroke="midnightblue" d="M411.29,-112.44C391.55,-103.64 360.57,-89.81 337.97,-79.72"/>
<polygon fill="midnightblue" stroke="midnightblue" points="339.1,-76.4 328.54,-75.52 336.25,-82.79 339.1,-76.4"/>
</g>
<!-- Node4&#45;&gt;Node5 -->
<g id="edge4" class="edge">
<title>Node4&#45;&gt;Node5</title>
<path fill="none" stroke="midnightblue" d="M441.87,-56.32C452.57,-48.18 468.8,-35.84 481.62,-26.09"/>
<polygon fill="midnightblue" stroke="midnightblue" points="484,-28.67 489.84,-19.83 479.77,-23.1 484,-28.67"/>
</g>
<!-- Node4&#45;&gt;Node6 -->
<g id="edge5" class="edge">
<title>Node4&#45;&gt;Node6</title>
<path fill="none" stroke="midnightblue" d="M419.86,-56.32C410,-48.26 395.11,-36.08 383.24,-26.37"/>
<polygon fill="midnightblue" stroke="midnightblue" points="385.21,-23.46 375.26,-19.83 380.78,-28.88 385.21,-23.46"/>
</g>
<!-- Node7 -->
<g id="node7" class="node">
<title>Node7</title>
<g id="a_node7"><a xlink:title=" ">
<polygon fill="none" stroke="#bfbfbf" points="405.96,-0.5 405.96,-19.5 452.96,-19.5 452.96,-0.5 405.96,-0.5"/>
<text text-anchor="middle" x="429.46" y="-7.5" font-family="Helvetica,sans-Serif" font-size="10.00">vector</text>
</a>
</g>
</g>
<!-- Node4&#45;&gt;Node7 -->
<g id="edge6" class="edge">
<title>Node4&#45;&gt;Node7</title>
<path fill="none" stroke="midnightblue" d="M430.29,-56.08C430.16,-49.01 429.98,-38.86 429.81,-29.99"/>
<polygon fill="midnightblue" stroke="midnightblue" points="433.31,-29.68 429.62,-19.75 426.31,-29.81 433.31,-29.68"/>
</g>
<!-- Node8&#45;&gt;Node5 -->
<g id="edge8" class="edge">
<title>Node8&#45;&gt;Node5</title>
<path fill="none" stroke="midnightblue" d="M564.41,-56.32C553,-48.11 535.63,-35.6 522.02,-25.81"/>
<polygon fill="midnightblue" stroke="midnightblue" points="523.89,-22.84 513.73,-19.83 519.8,-28.52 523.89,-22.84"/>
</g>
<!-- Node10&#45;&gt;Node9 -->
<g id="edge13" class="edge">
<title>Node10&#45;&gt;Node9</title>
<path fill="none" stroke="midnightblue" d="M322.82,-112.08C320.67,-104.85 317.58,-94.41 314.91,-85.4"/>
<polygon fill="midnightblue" stroke="midnightblue" points="318.25,-84.34 312.05,-75.75 311.54,-86.33 318.25,-84.34"/>
</g>
</g>
</svg>
        <g id="navigator" transform="translate(0 0)" fill="#404254">
                <rect fill="#f2f5e9" fill-opacity="0.5" stroke="#606060" stroke-width=".5" x="0" y="0" width="60" height="60"/>
                <use id="zoomplus" xlink:href="#zoomPlus" x="17" y="9" onmousedown="handleZoom(evt,'in')"/>
                <use id="zoomminus" xlink:href="#zoomMin" x="42" y="9" onmousedown="handleZoom(evt,'out')"/>
                <use id="reset" xlink:href="#resetDef" x="30" y="36" onmousedown="handleReset()"/>
                <g id="arrowUp" xlink:href="#dirArrow" transform="translate(30 24)" onmousedown="handlePan(0,-1)">
                  <use xlink:href="#rim" fill="#404040">
                        <set attributeName="fill" to="#808080" begin="arrowUp.mouseover" end="arrowUp.mouseout"/>
                  </use>
                  <path fill="none" stroke="white" stroke-width="1.5" d="M0,-3.0v7 M-2.5,-0.5L0,-3.0L2.5,-0.5"/>
                </g>
                <g id="arrowRight" xlink:href="#dirArrow" transform="rotate(90) translate(36 -43)" onmousedown="handlePan(1,0)">
                  <use xlink:href="#rim" fill="#404040">
                        <set attributeName="fill" to="#808080" begin="arrowRight.mouseover" end="arrowRight.mouseout"/>
                  </use>
                  <path fill="none" stroke="white" stroke-width="1.5" d="M0,-3.0v7 M-2.5,-0.5L0,-3.0L2.5,-0.5"/>
                </g>
                <g id="arrowDown" xlink:href="#dirArrow" transform="rotate(180) translate(-30 -48)" onmousedown="handlePan(0,1)">
                  <use xlink:href="#rim" fill="#404040">
                        <set attributeName="fill" to="#808080" begin="arrowDown.mouseover" end="arrowDown.mouseout"/>
                  </use>
                  <path fill="none" stroke="white" stroke-width="1.5" d="M0,-3.0v7 M-2.5,-0.5L0,-3.0L2.5,-0.5"/>
                </g>
                <g id="arrowLeft" xlink:href="#dirArrow" transform="rotate(270) translate(-36 17)" onmousedown="handlePan(-1,0)">
                  <use xlink:href="#rim" fill="#404040">
                        <set attributeName="fill" to="#808080" begin="arrowLeft.mouseover" end="arrowLeft.mouseout"/>
                  </use>
                  <path fill="none" stroke="white" stroke-width="1.5" d="M0,-3.0v7 M-2.5,-0.5L0,-3.0L2.5,-0.5"/>
                </g>
        </g>
        <svg viewBox="0 0 15 15" width="100%" height="30px" preserveAspectRatio="xMaxYMin meet">
         <g id="arrow_out" transform="scale(0.3 0.3)">
          <a xlink:href="_connection_8cpp__incl_org.svg" target="_base">
           <rect id="button" ry="5" rx="5" y="6" x="6" height="38" width="38"
                fill="#f2f5e9" fill-opacity="0.5" stroke="#606060" stroke-width="1.0"/>
           <path id="arrow"
             d="M 11.500037,31.436501 C 11.940474,20.09759 22.043105,11.32322 32.158766,21.979434 L 37.068811,17.246167 C 37.068811,17.246167 37.088388,32 37.088388,32 L 22.160133,31.978069 C 22.160133,31.978069 26.997745,27.140456 26.997745,27.140456 C 18.528582,18.264221 13.291696,25.230495 11.500037,31.436501 z"
             style="fill:#404040;"/>
          </a>
         </g>
        </svg>
</svg>
