<?xml version="1.0" encoding="UTF-8" standalone="no"?>
<!DOCTYPE svg PUBLIC "-//W3C//DTD SVG 1.1//EN"
 "http://www.w3.org/Graphics/SVG/1.1/DTD/svg11.dtd">
<!-- Generated by graphviz version 2.43.0 (0)
 -->
<!-- Title: inc/Connection.hpp Pages: 1 -->
<!--zoomable 330 -->
<svg id="main" version="1.1" xmlns="http://www.w3.org/2000/svg" xmlns:xlink="http://www.w3.org/1999/xlink" xml:space="preserve" onload="init(evt)">
<style type="text/css"><![CDATA[
.edge:hover path { stroke: red; }
.edge:hover polygon { stroke: red; fill: red; }
]]></style>
<script type="text/javascript"><![CDATA[
var edges = document.getElementsByTagName('g');
if (edges && edges.length) {
  for (var i=0;i<edges.length;i++) {
    if (edges[i].id.substr(0,4)=='edge') {
      edges[i].setAttribute('class','edge');
    }
  }
}
]]></script>
        <defs>
                <circle id="rim" cx="0" cy="0" r="7"/>
                <circle id="rim2" cx="0" cy="0" r="3.5"/>
                <g id="zoomPlus">
                        <use xlink:href="#rim" fill="#404040">
                                <set attributeName="fill" to="#808080" begin="zoomplus.mouseover" end="zoomplus.mouseout"/>
                        </use>
                        <path d="M-4,0h8M0,-4v8" fill="none" stroke="white" stroke-width="1.5" pointer-events="none"/>
                </g>
                <g id="zoomMin">
                        <use xlink:href="#rim" fill="#404040">
                                <set attributeName="fill" to="#808080" begin="zoomminus.mouseover" end="zoomminus.mouseout"/>
                        </use>
                        <path d="M-4,0h8" fill="none" stroke="white" stroke-width="1.5" pointer-events="none"/>
                </g>
                <g id="dirArrow">
                        <path fill="none" stroke="white" stroke-width="1.5" d="M0,-3.0v7 M-2.5,-0.5L0,-3.0L2.5,-0.5"/>
                </g>
               <g id="resetDef">
                       <use xlink:href="#rim2" fill="#404040">
                               <set attributeName="fill" to="#808080" begin="reset.mouseover" end="reset.mouseout"/>
                       </use>
               </g>
        </defs>

<script type="text/javascript">
var viewWidth = 2341;
var viewHeight = 330;
var sectionId = 'dynsection-1';
</script>
<script xlink:href="svgpan.js"/>
<svg id="graph" class="graph">
<g id="viewport">
<title>inc/Connection.hpp</title>
<!-- Node1 -->
<g id="node1" class="node">
<title>Node1</title>
<g id="a_node1"><a xlink:title=" ">
<polygon fill="#bfbfbf" stroke="black" points="1409.5,-302.5 1409.5,-321.5 1519.5,-321.5 1519.5,-302.5 1409.5,-302.5"/>
<text text-anchor="middle" x="1464.5" y="-309.5" font-family="Helvetica,sans-Serif" font-size="10.00">inc/Connection.hpp</text>
</a>
</g>
</g>
<!-- Node2 -->
<g id="node2" class="node">
<title>Node2</title>
<g id="a_node2"><a xlink:href="_response_body_handler_8hpp.html" target="_top" xlink:title=" ">
<polygon fill="none" stroke="black" points="894.5,-185 894.5,-204 1058.5,-204 1058.5,-185 894.5,-185"/>
<text text-anchor="middle" x="976.5" y="-192" font-family="Helvetica,sans-Serif" font-size="10.00">inc/ResponseBodyHandler.hpp</text>
</a>
</g>
</g>
<!-- Node1&#45;&gt;Node2 -->
<g id="edge1" class="edge">
<title>Node1&#45;&gt;Node2</title>
<path fill="none" stroke="midnightblue" d="M1399.42,-310.2C1326.06,-307.64 1204.06,-298.32 1104.5,-266 1058.65,-251.12 1010.35,-219.49 988.49,-204.17"/>
<polygon fill="midnightblue" stroke="midnightblue" points="1399.33,-313.7 1409.44,-310.52 1399.56,-306.71 1399.33,-313.7"/>
</g>
<!-- Node4 -->
<g id="node4" class="node">
<title>Node4</title>
<g id="a_node4"><a xlink:href="_server_8hpp.html" target="_top" xlink:title=" ">
<polygon fill="none" stroke="black" points="1043.5,-67.5 1043.5,-86.5 1129.5,-86.5 1129.5,-67.5 1043.5,-67.5"/>
<text text-anchor="middle" x="1086.5" y="-74.5" font-family="Helvetica,sans-Serif" font-size="10.00">inc/Server.hpp</text>
</a>
</g>
</g>
<!-- Node1&#45;&gt;Node4 -->
<g id="edge21" class="edge">
<title>Node1&#45;&gt;Node4</title>
<path fill="none" stroke="midnightblue" d="M1467.62,-292.2C1471.16,-264 1473.27,-210.68 1445.5,-179 1403.67,-131.29 1215.45,-97.43 1129.52,-84.18"/>
<polygon fill="midnightblue" stroke="midnightblue" points="1464.13,-291.9 1466.15,-302.3 1471.06,-292.91 1464.13,-291.9"/>
</g>
<!-- Node22 -->
<g id="node22" class="node">
<title>Node22</title>
<g id="a_node22"><a xlink:href="_target_resource_handler_8hpp.html" target="_top" xlink:title=" ">
<polygon fill="none" stroke="black" points="1114,-246.5 1114,-265.5 1281,-265.5 1281,-246.5 1114,-246.5"/>
<text text-anchor="middle" x="1197.5" y="-253.5" font-family="Helvetica,sans-Serif" font-size="10.00">inc/TargetResourceHandler.hpp</text>
</a>
</g>
</g>
<!-- Node1&#45;&gt;Node22 -->
<g id="edge22" class="edge">
<title>Node1&#45;&gt;Node22</title>
<path fill="none" stroke="midnightblue" d="M1412.14,-300.41C1361.68,-290.2 1286.3,-274.96 1239.61,-265.52"/>
<polygon fill="midnightblue" stroke="midnightblue" points="1411.7,-303.89 1422.19,-302.44 1413.09,-297.03 1411.7,-303.89"/>
</g>
<!-- Node24 -->
<g id="node24" class="node">
<title>Node24</title>
<g id="a_node24"><a xlink:href="test___target_resource_handler_8cpp.html" target="_top" xlink:title=" ">
<polygon fill="none" stroke="black" points="1299,-179.5 1299,-209.5 1436,-209.5 1436,-179.5 1299,-179.5"/>
<text text-anchor="start" x="1307" y="-197.5" font-family="Helvetica,sans-Serif" font-size="10.00">test/test_TargetResource</text>
<text text-anchor="middle" x="1367.5" y="-186.5" font-family="Helvetica,sans-Serif" font-size="10.00">Handler.cpp</text>
</a>
</g>
</g>
<!-- Node1&#45;&gt;Node24 -->
<g id="edge30" class="edge">
<title>Node1&#45;&gt;Node24</title>
<path fill="none" stroke="midnightblue" d="M1450.68,-294.54C1431.54,-271.75 1397.3,-230.98 1379.3,-209.55"/>
<polygon fill="midnightblue" stroke="midnightblue" points="1448.1,-296.91 1457.21,-302.32 1453.46,-292.41 1448.1,-296.91"/>
</g>
<!-- Node25 -->
<g id="node25" class="node">
<title>Node25</title>
<g id="a_node25"><a xlink:href="_connection_8cpp.html" target="_top" xlink:title=" ">
<polygon fill="none" stroke="black" points="1493,-246.5 1493,-265.5 1602,-265.5 1602,-246.5 1493,-246.5"/>
<text text-anchor="middle" x="1547.5" y="-253.5" font-family="Helvetica,sans-Serif" font-size="10.00">src/Connection.cpp</text>
</a>
</g>
</g>
<!-- Node1&#45;&gt;Node25 -->
<g id="edge27" class="edge">
<title>Node1&#45;&gt;Node25</title>
<path fill="none" stroke="midnightblue" d="M1486.6,-296.62C1501.76,-286.76 1521.38,-273.99 1534.2,-265.65"/>
<polygon fill="midnightblue" stroke="midnightblue" points="1484.31,-293.94 1477.84,-302.32 1488.13,-299.8 1484.31,-293.94"/>
</g>
<!-- Node26 -->
<g id="node26" class="node">
<title>Node26</title>
<g id="a_node26"><a xlink:href="_log_ostream_inserters_8cpp.html" target="_top" xlink:title=" ">
<polygon fill="none" stroke="black" points="1620.5,-246.5 1620.5,-265.5 1776.5,-265.5 1776.5,-246.5 1620.5,-246.5"/>
<text text-anchor="middle" x="1698.5" y="-253.5" font-family="Helvetica,sans-Serif" font-size="10.00">src/LogOstreamInserters.cpp</text>
</a>
</g>
</g>
<!-- Node1&#45;&gt;Node26 -->
<g id="edge28" class="edge">
<title>Node1&#45;&gt;Node26</title>
<path fill="none" stroke="midnightblue" d="M1511.5,-300.15C1555.72,-289.95 1621.02,-274.88 1661.6,-265.52"/>
<polygon fill="midnightblue" stroke="midnightblue" points="1510.53,-296.78 1501.58,-302.44 1512.11,-303.61 1510.53,-296.78"/>
</g>
<!-- Node27 -->
<g id="node27" class="node">
<title>Node27</title>
<g id="a_node27"><a xlink:href="test___ostream_inserters_8cpp.html" target="_top" xlink:title=" ">
<polygon fill="none" stroke="black" points="1795,-246.5 1795,-265.5 1962,-265.5 1962,-246.5 1795,-246.5"/>
<text text-anchor="middle" x="1878.5" y="-253.5" font-family="Helvetica,sans-Serif" font-size="10.00">test/test_OstreamInserters.cpp</text>
</a>
</g>
</g>
<!-- Node1&#45;&gt;Node27 -->
<g id="edge29" class="edge">
<title>Node1&#45;&gt;Node27</title>
<path fill="none" stroke="midnightblue" d="M1530.03,-302.45C1607.54,-292.34 1735.79,-275.61 1813.2,-265.52"/>
<polygon fill="midnightblue" stroke="midnightblue" points="1529.37,-299.01 1519.9,-303.77 1530.27,-305.95 1529.37,-299.01"/>
</g>
<!-- Node3 -->
<g id="node3" class="node">
<title>Node3</title>
<g id="a_node3"><a xlink:href="_response_builder_8hpp.html" target="_top" xlink:title=" ">
<polygon fill="none" stroke="black" points="530.5,-123.5 530.5,-142.5 666.5,-142.5 666.5,-123.5 530.5,-123.5"/>
<text text-anchor="middle" x="598.5" y="-130.5" font-family="Helvetica,sans-Serif" font-size="10.00">inc/ResponseBuilder.hpp</text>
</a>
</g>
</g>
<!-- Node2&#45;&gt;Node3 -->
<g id="edge2" class="edge">
<title>Node2&#45;&gt;Node3</title>
<path fill="none" stroke="midnightblue" d="M912.34,-183.4C839.26,-171.9 721.14,-153.3 652.56,-142.51"/>
<polygon fill="midnightblue" stroke="midnightblue" points="911.92,-186.88 922.34,-184.98 913.01,-179.96 911.92,-186.88"/>
</g>
<!-- Node20 -->
<g id="node20" class="node">
<title>Node20</title>
<g id="a_node20"><a xlink:href="_response_body_handler_8cpp.html" target="_top" xlink:title=" ">
<polygon fill="none" stroke="black" points="894.5,-123.5 894.5,-142.5 1058.5,-142.5 1058.5,-123.5 894.5,-123.5"/>
<text text-anchor="middle" x="976.5" y="-130.5" font-family="Helvetica,sans-Serif" font-size="10.00">src/ResponseBodyHandler.cpp</text>
</a>
</g>
</g>
<!-- Node2&#45;&gt;Node20 -->
<g id="edge19" class="edge">
<title>Node2&#45;&gt;Node20</title>
<path fill="none" stroke="midnightblue" d="M976.5,-174.82C976.5,-164 976.5,-150.9 976.5,-142.51"/>
<polygon fill="midnightblue" stroke="midnightblue" points="973,-174.98 976.5,-184.98 980,-174.98 973,-174.98"/>
</g>
<!-- Node21 -->
<g id="node21" class="node">
<title>Node21</title>
<g id="a_node21"><a xlink:href="test___response_body_handler_8cpp.html" target="_top" xlink:title=" ">
<polygon fill="none" stroke="black" points="684.5,-123.5 684.5,-142.5 876.5,-142.5 876.5,-123.5 684.5,-123.5"/>
<text text-anchor="middle" x="780.5" y="-130.5" font-family="Helvetica,sans-Serif" font-size="10.00">test/test_ResponseBodyHandler.cpp</text>
</a>
</g>
</g>
<!-- Node2&#45;&gt;Node21 -->
<g id="edge20" class="edge">
<title>Node2&#45;&gt;Node21</title>
<path fill="none" stroke="midnightblue" d="M938.71,-182.03C900.62,-170.46 842.71,-152.88 808.53,-142.51"/>
<polygon fill="midnightblue" stroke="midnightblue" points="937.83,-185.42 948.42,-184.98 939.87,-178.72 937.83,-185.42"/>
</g>
<!-- Node3&#45;&gt;Node4 -->
<g id="edge3" class="edge">
<title>Node3&#45;&gt;Node4</title>
<path fill="none" stroke="midnightblue" d="M676.6,-122.88C816.99,-107.02 970.15,-90.48 1043.29,-82.63"/>
<polygon fill="midnightblue" stroke="midnightblue" points="676.06,-119.42 666.52,-124.02 676.85,-126.38 676.06,-119.42"/>
</g>
<!-- Node19 -->
<g id="node19" class="node">
<title>Node19</title>
<g id="a_node19"><a xlink:href="_response_builder_8cpp.html" target="_top" xlink:title=" ">
<polygon fill="none" stroke="black" points="531,-67.5 531,-86.5 666,-86.5 666,-67.5 531,-67.5"/>
<text text-anchor="middle" x="598.5" y="-74.5" font-family="Helvetica,sans-Serif" font-size="10.00">src/ResponseBuilder.cpp</text>
</a>
</g>
</g>
<!-- Node3&#45;&gt;Node19 -->
<g id="edge18" class="edge">
<title>Node3&#45;&gt;Node19</title>
<path fill="none" stroke="midnightblue" d="M598.5,-112.8C598.5,-103.91 598.5,-93.78 598.5,-86.75"/>
<polygon fill="midnightblue" stroke="midnightblue" points="595,-113.08 598.5,-123.08 602,-113.08 595,-113.08"/>
</g>
<!-- Node5 -->
<g id="node5" class="node">
<title>Node5</title>
<g id="a_node5"><a xlink:href="main_8cpp.html" target="_top" xlink:title=" ">
<polygon fill="none" stroke="black" points="0,-6 0,-25 79,-25 79,-6 0,-6"/>
<text text-anchor="middle" x="39.5" y="-13" font-family="Helvetica,sans-Serif" font-size="10.00">src/main.cpp</text>
</a>
</g>
</g>
<!-- Node4&#45;&gt;Node5 -->
<g id="edge4" class="edge">
<title>Node4&#45;&gt;Node5</title>
<path fill="none" stroke="midnightblue" d="M1033.14,-74.37C839.56,-68.36 180.76,-46.93 87.5,-31 79.61,-29.65 71.19,-27.4 63.64,-25.07"/>
<polygon fill="midnightblue" stroke="midnightblue" points="1033.24,-77.88 1043.34,-74.69 1033.46,-70.88 1033.24,-77.88"/>
</g>
<!-- Node6 -->
<g id="node6" class="node">
<title>Node6</title>
<g id="a_node6"><a xlink:href="_server_8cpp.html" target="_top" xlink:title=" ">
<polygon fill="none" stroke="black" points="97,-6 97,-25 182,-25 182,-6 97,-6"/>
<text text-anchor="middle" x="139.5" y="-13" font-family="Helvetica,sans-Serif" font-size="10.00">src/Server.cpp</text>
</a>
</g>
</g>
<!-- Node4&#45;&gt;Node6 -->
<g id="edge5" class="edge">
<title>Node4&#45;&gt;Node6</title>
<path fill="none" stroke="midnightblue" d="M1033.39,-74.91C866.54,-71.25 354.29,-58.04 190.5,-31 182.14,-29.62 173.21,-27.36 165.19,-25.03"/>
<polygon fill="midnightblue" stroke="midnightblue" points="1033.33,-78.41 1043.41,-75.13 1033.49,-71.41 1033.33,-78.41"/>
</g>
<!-- Node7 -->
<g id="node7" class="node">
<title>Node7</title>
<g id="a_node7"><a xlink:href="test__accept_connections_8cpp.html" target="_top" xlink:title=" ">
<polygon fill="none" stroke="black" points="200,-6 200,-25 375,-25 375,-6 200,-6"/>
<text text-anchor="middle" x="287.5" y="-13" font-family="Helvetica,sans-Serif" font-size="10.00">test/test_acceptConnections.cpp</text>
</a>
</g>
</g>
<!-- Node4&#45;&gt;Node7 -->
<g id="edge6" class="edge">
<title>Node4&#45;&gt;Node7</title>
<path fill="none" stroke="midnightblue" d="M1033.01,-74.15C915.33,-69.73 625.18,-56.94 383.5,-31 368.92,-29.44 353.16,-27.26 338.71,-25.07"/>
<polygon fill="midnightblue" stroke="midnightblue" points="1033.07,-77.65 1043.19,-74.52 1033.33,-70.66 1033.07,-77.65"/>
</g>
<!-- Node8 -->
<g id="node8" class="node">
<title>Node8</title>
<g id="a_node8"><a xlink:href="test__check_for_timeout_8cpp.html" target="_top" xlink:title=" ">
<polygon fill="none" stroke="black" points="393,-6 393,-25 560,-25 560,-6 393,-6"/>
<text text-anchor="middle" x="476.5" y="-13" font-family="Helvetica,sans-Serif" font-size="10.00">test/test_checkForTimeout.cpp</text>
</a>
</g>
</g>
<!-- Node4&#45;&gt;Node8 -->
<g id="edge7" class="edge">
<title>Node4&#45;&gt;Node8</title>
<path fill="none" stroke="midnightblue" d="M1033.31,-72.61C939.31,-66.34 737.78,-51.67 568.5,-31 554.86,-29.33 540.13,-27.18 526.55,-25.04"/>
<polygon fill="midnightblue" stroke="midnightblue" points="1033.21,-76.11 1043.42,-73.28 1033.67,-69.12 1033.21,-76.11"/>
</g>
<!-- Node9 -->
<g id="node9" class="node">
<title>Node9</title>
<g id="a_node9"><a xlink:href="test__connection_receive_header_8cpp.html" target="_top" xlink:title=" ">
<polygon fill="none" stroke="black" points="578,-0.5 578,-30.5 733,-30.5 733,-0.5 578,-0.5"/>
<text text-anchor="start" x="586" y="-18.5" font-family="Helvetica,sans-Serif" font-size="10.00">test/test_connectionReceive</text>
<text text-anchor="middle" x="655.5" y="-7.5" font-family="Helvetica,sans-Serif" font-size="10.00">Header.cpp</text>
</a>
</g>
</g>
<!-- Node4&#45;&gt;Node9 -->
<g id="edge8" class="edge">
<title>Node4&#45;&gt;Node9</title>
<path fill="none" stroke="midnightblue" d="M1033.26,-69.62C965.59,-61.38 845.21,-46.27 742.5,-31 739.47,-30.55 736.38,-30.08 733.27,-29.6"/>
<polygon fill="midnightblue" stroke="midnightblue" points="1032.91,-73.11 1043.26,-70.84 1033.75,-66.16 1032.91,-73.11"/>
</g>
<!-- Node10 -->
<g id="node10" class="node">
<title>Node10</title>
<g id="a_node10"><a xlink:href="test__connection_send_response_8cpp.html" target="_top" xlink:title=" ">
<polygon fill="none" stroke="black" points="751.5,-0.5 751.5,-30.5 891.5,-30.5 891.5,-0.5 751.5,-0.5"/>
<text text-anchor="start" x="759.5" y="-18.5" font-family="Helvetica,sans-Serif" font-size="10.00">test/test_connectionSend</text>
<text text-anchor="middle" x="821.5" y="-7.5" font-family="Helvetica,sans-Serif" font-size="10.00">Response.cpp</text>
</a>
</g>
</g>
<!-- Node4&#45;&gt;Node10 -->
<g id="edge9" class="edge">
<title>Node4&#45;&gt;Node10</title>
<path fill="none" stroke="midnightblue" d="M1038.53,-65.23C995.23,-55.51 931.24,-41.14 883.96,-30.52"/>
<polygon fill="midnightblue" stroke="midnightblue" points="1038.01,-68.7 1048.53,-67.48 1039.54,-61.87 1038.01,-68.7"/>
</g>
<!-- Node11 -->
<g id="node11" class="node">
<title>Node11</title>
<g id="a_node11"><a xlink:href="test__create_virtual_server_8cpp.html" target="_top" xlink:title=" ">
<polygon fill="none" stroke="black" points="909.5,-6 909.5,-25 1085.5,-25 1085.5,-6 909.5,-6"/>
<text text-anchor="middle" x="997.5" y="-13" font-family="Helvetica,sans-Serif" font-size="10.00">test/test_createVirtualServer.cpp</text>
</a>
</g>
</g>
<!-- Node4&#45;&gt;Node11 -->
<g id="edge10" class="edge">
<title>Node4&#45;&gt;Node11</title>
<path fill="none" stroke="midnightblue" d="M1064.98,-61.61C1047.86,-50.17 1024.49,-34.55 1010.23,-25.01"/>
<polygon fill="midnightblue" stroke="midnightblue" points="1063.49,-64.83 1073.75,-67.48 1067.38,-59.01 1063.49,-64.83"/>
</g>
<!-- Node12 -->
<g id="node12" class="node">
<title>Node12</title>
<g id="a_node12"><a xlink:href="test__handle_complete_request_header_8cpp.html" target="_top" xlink:title=" ">
<polygon fill="none" stroke="black" points="1104,-0.5 1104,-30.5 1247,-30.5 1247,-0.5 1104,-0.5"/>
<text text-anchor="start" x="1112" y="-18.5" font-family="Helvetica,sans-Serif" font-size="10.00">test/test_handleComplete</text>
<text text-anchor="middle" x="1175.5" y="-7.5" font-family="Helvetica,sans-Serif" font-size="10.00">RequestHeader.cpp</text>
</a>
</g>
</g>
<!-- Node4&#45;&gt;Node12 -->
<g id="edge11" class="edge">
<title>Node4&#45;&gt;Node12</title>
<path fill="none" stroke="midnightblue" d="M1107.83,-61.74C1121.98,-52.28 1140.45,-39.93 1154.52,-30.52"/>
<polygon fill="midnightblue" stroke="midnightblue" points="1105.62,-59.01 1099.25,-67.48 1109.51,-64.83 1105.62,-59.01"/>
</g>
<!-- Node13 -->
<g id="node13" class="node">
<title>Node13</title>
<g id="a_node13"><a xlink:href="test__init_virtual_servers_8cpp.html" target="_top" xlink:title=" ">
<polygon fill="none" stroke="black" points="1265,-6 1265,-25 1432,-25 1432,-6 1265,-6"/>
<text text-anchor="middle" x="1348.5" y="-13" font-family="Helvetica,sans-Serif" font-size="10.00">test/test_initVirtualServers.cpp</text>
</a>
</g>
</g>
<!-- Node4&#45;&gt;Node13 -->
<g id="edge12" class="edge">
<title>Node4&#45;&gt;Node13</title>
<path fill="none" stroke="midnightblue" d="M1133.8,-65.26C1184.62,-53.72 1264.37,-35.61 1311.03,-25.01"/>
<polygon fill="midnightblue" stroke="midnightblue" points="1133.01,-61.85 1124.04,-67.48 1134.57,-68.67 1133.01,-61.85"/>
</g>
<!-- Node14 -->
<g id="node14" class="node">
<title>Node14</title>
<g id="a_node14"><a xlink:href="test__is_duplicate_server_8cpp.html" target="_top" xlink:title=" ">
<polygon fill="none" stroke="black" points="1449.5,-6 1449.5,-25 1617.5,-25 1617.5,-6 1449.5,-6"/>
<text text-anchor="middle" x="1533.5" y="-13" font-family="Helvetica,sans-Serif" font-size="10.00">test/test_isDuplicateServer.cpp</text>
</a>
</g>
</g>
<!-- Node4&#45;&gt;Node14 -->
<g id="edge13" class="edge">
<title>Node4&#45;&gt;Node14</title>
<path fill="none" stroke="midnightblue" d="M1139.99,-69.73C1209.53,-61.46 1334.73,-46.18 1441.5,-31 1454.31,-29.18 1468.09,-27.08 1481,-25.06"/>
<polygon fill="midnightblue" stroke="midnightblue" points="1139.25,-66.29 1129.73,-70.95 1140.07,-73.25 1139.25,-66.29"/>
</g>
<!-- Node15 -->
<g id="node15" class="node">
<title>Node15</title>
<g id="a_node15"><a xlink:href="test__register_connection_8cpp.html" target="_top" xlink:title=" ">
<polygon fill="none" stroke="black" points="1636,-6 1636,-25 1811,-25 1811,-6 1636,-6"/>
<text text-anchor="middle" x="1723.5" y="-13" font-family="Helvetica,sans-Serif" font-size="10.00">test/test_registerConnection.cpp</text>
</a>
</g>
</g>
<!-- Node4&#45;&gt;Node15 -->
<g id="edge14" class="edge">
<title>Node4&#45;&gt;Node15</title>
<path fill="none" stroke="midnightblue" d="M1139.78,-72.72C1236.8,-66.48 1448.66,-51.68 1626.5,-31 1640.88,-29.33 1656.4,-27.17 1670.72,-25.03"/>
<polygon fill="midnightblue" stroke="midnightblue" points="1139.4,-69.23 1129.64,-73.36 1139.85,-76.22 1139.4,-69.23"/>
</g>
<!-- Node16 -->
<g id="node16" class="node">
<title>Node16</title>
<g id="a_node16"><a xlink:href="test__register_virtual_server_8cpp.html" target="_top" xlink:title=" ">
<polygon fill="none" stroke="black" points="1829.5,-0.5 1829.5,-30.5 1961.5,-30.5 1961.5,-0.5 1829.5,-0.5"/>
<text text-anchor="start" x="1837.5" y="-18.5" font-family="Helvetica,sans-Serif" font-size="10.00">test/test_registerVirtual</text>
<text text-anchor="middle" x="1895.5" y="-7.5" font-family="Helvetica,sans-Serif" font-size="10.00">Server.cpp</text>
</a>
</g>
</g>
<!-- Node4&#45;&gt;Node16 -->
<g id="edge15" class="edge">
<title>Node4&#45;&gt;Node16</title>
<path fill="none" stroke="midnightblue" d="M1139.84,-75.1C1261.17,-72.53 1566.98,-63.14 1820.5,-31 1823.39,-30.63 1826.35,-30.22 1829.32,-29.78"/>
<polygon fill="midnightblue" stroke="midnightblue" points="1139.63,-71.6 1129.7,-75.31 1139.77,-78.6 1139.63,-71.6"/>
</g>
<!-- Node17 -->
<g id="node17" class="node">
<title>Node17</title>
<g id="a_node17"><a xlink:href="test__select_server_config_8cpp.html" target="_top" xlink:title=" ">
<polygon fill="none" stroke="black" points="1979.5,-6 1979.5,-25 2153.5,-25 2153.5,-6 1979.5,-6"/>
<text text-anchor="middle" x="2066.5" y="-13" font-family="Helvetica,sans-Serif" font-size="10.00">test/test_selectServerConfig.cpp</text>
</a>
</g>
</g>
<!-- Node4&#45;&gt;Node17 -->
<g id="edge16" class="edge">
<title>Node4&#45;&gt;Node17</title>
<path fill="none" stroke="midnightblue" d="M1140.14,-75.12C1278.18,-72.45 1656.82,-62.59 1970.5,-31 1985.43,-29.5 2001.58,-27.29 2016.3,-25.04"/>
<polygon fill="midnightblue" stroke="midnightblue" points="1139.78,-71.62 1129.85,-75.31 1139.91,-78.62 1139.78,-71.62"/>
</g>
<!-- Node18 -->
<g id="node18" class="node">
<title>Node18</title>
<g id="a_node18"><a xlink:href="test__shutdown_server_8cpp.html" target="_top" xlink:title=" ">
<polygon fill="none" stroke="black" points="2172,-6 2172,-25 2333,-25 2333,-6 2172,-6"/>
<text text-anchor="middle" x="2252.5" y="-13" font-family="Helvetica,sans-Serif" font-size="10.00">test/test_shutdownServer.cpp</text>
</a>
</g>
</g>
<!-- Node4&#45;&gt;Node18 -->
<g id="edge17" class="edge">
<title>Node4&#45;&gt;Node18</title>
<path fill="none" stroke="midnightblue" d="M1140.02,-75.99C1297.29,-75.48 1771.54,-70.53 2162.5,-31 2176.83,-29.55 2192.34,-27.3 2206.39,-25"/>
<polygon fill="midnightblue" stroke="midnightblue" points="1139.67,-72.49 1129.68,-76.02 1139.69,-79.49 1139.67,-72.49"/>
</g>
<!-- Node22&#45;&gt;Node2 -->
<g id="edge23" class="edge">
<title>Node22&#45;&gt;Node2</title>
<path fill="none" stroke="midnightblue" d="M1155.98,-243.82C1113.05,-232.26 1046.97,-214.47 1008.11,-204.01"/>
<polygon fill="midnightblue" stroke="midnightblue" points="1155.27,-247.25 1165.84,-246.48 1157.09,-240.5 1155.27,-247.25"/>
</g>
<!-- Node22&#45;&gt;Node4 -->
<g id="edge24" class="edge">
<title>Node22&#45;&gt;Node4</title>
<path fill="none" stroke="midnightblue" d="M1151.6,-242.99C1134.21,-236.14 1115.88,-225.68 1104.5,-210 1076.51,-171.44 1081.91,-109.46 1085.09,-86.73"/>
<polygon fill="midnightblue" stroke="midnightblue" points="1150.52,-246.32 1161.11,-246.44 1152.9,-239.74 1150.52,-246.32"/>
</g>
<!-- Node23 -->
<g id="node23" class="node">
<title>Node23</title>
<g id="a_node23"><a xlink:href="_target_resource_handler_8cpp.html" target="_top" xlink:title=" ">
<polygon fill="none" stroke="black" points="1114,-185 1114,-204 1281,-204 1281,-185 1114,-185"/>
<text text-anchor="middle" x="1197.5" y="-192" font-family="Helvetica,sans-Serif" font-size="10.00">src/TargetResourceHandler.cpp</text>
</a>
</g>
</g>
<!-- Node22&#45;&gt;Node23 -->
<g id="edge25" class="edge">
<title>Node22&#45;&gt;Node23</title>
<path fill="none" stroke="midnightblue" d="M1197.5,-236.32C1197.5,-225.5 1197.5,-212.4 1197.5,-204.01"/>
<polygon fill="midnightblue" stroke="midnightblue" points="1194,-236.48 1197.5,-246.48 1201,-236.48 1194,-236.48"/>
</g>
<!-- Node22&#45;&gt;Node24 -->
<g id="edge26" class="edge">
<title>Node22&#45;&gt;Node24</title>
<path fill="none" stroke="midnightblue" d="M1231.49,-243.1C1259.15,-233.42 1298.25,-219.74 1327.43,-209.52"/>
<polygon fill="midnightblue" stroke="midnightblue" points="1230.14,-239.87 1221.86,-246.48 1232.45,-246.48 1230.14,-239.87"/>
</g>
</g>
</svg>
        <g id="navigator" transform="translate(0 0)" fill="#404254">
                <rect fill="#f2f5e9" fill-opacity="0.5" stroke="#606060" stroke-width=".5" x="0" y="0" width="60" height="60"/>
                <use id="zoomplus" xlink:href="#zoomPlus" x="17" y="9" onmousedown="handleZoom(evt,'in')"/>
                <use id="zoomminus" xlink:href="#zoomMin" x="42" y="9" onmousedown="handleZoom(evt,'out')"/>
                <use id="reset" xlink:href="#resetDef" x="30" y="36" onmousedown="handleReset()"/>
                <g id="arrowUp" xlink:href="#dirArrow" transform="translate(30 24)" onmousedown="handlePan(0,-1)">
                  <use xlink:href="#rim" fill="#404040">
                        <set attributeName="fill" to="#808080" begin="arrowUp.mouseover" end="arrowUp.mouseout"/>
                  </use>
                  <path fill="none" stroke="white" stroke-width="1.5" d="M0,-3.0v7 M-2.5,-0.5L0,-3.0L2.5,-0.5"/>
                </g>
                <g id="arrowRight" xlink:href="#dirArrow" transform="rotate(90) translate(36 -43)" onmousedown="handlePan(1,0)">
                  <use xlink:href="#rim" fill="#404040">
                        <set attributeName="fill" to="#808080" begin="arrowRight.mouseover" end="arrowRight.mouseout"/>
                  </use>
                  <path fill="none" stroke="white" stroke-width="1.5" d="M0,-3.0v7 M-2.5,-0.5L0,-3.0L2.5,-0.5"/>
                </g>
                <g id="arrowDown" xlink:href="#dirArrow" transform="rotate(180) translate(-30 -48)" onmousedown="handlePan(0,1)">
                  <use xlink:href="#rim" fill="#404040">
                        <set attributeName="fill" to="#808080" begin="arrowDown.mouseover" end="arrowDown.mouseout"/>
                  </use>
                  <path fill="none" stroke="white" stroke-width="1.5" d="M0,-3.0v7 M-2.5,-0.5L0,-3.0L2.5,-0.5"/>
                </g>
                <g id="arrowLeft" xlink:href="#dirArrow" transform="rotate(270) translate(-36 17)" onmousedown="handlePan(-1,0)">
                  <use xlink:href="#rim" fill="#404040">
                        <set attributeName="fill" to="#808080" begin="arrowLeft.mouseover" end="arrowLeft.mouseout"/>
                  </use>
                  <path fill="none" stroke="white" stroke-width="1.5" d="M0,-3.0v7 M-2.5,-0.5L0,-3.0L2.5,-0.5"/>
                </g>
        </g>
        <svg viewBox="0 0 15 15" width="100%" height="30px" preserveAspectRatio="xMaxYMin meet">
         <g id="arrow_out" transform="scale(0.3 0.3)">
          <a xlink:href="_connection_8hpp__dep__incl_org.svg" target="_base">
           <rect id="button" ry="5" rx="5" y="6" x="6" height="38" width="38"
                fill="#f2f5e9" fill-opacity="0.5" stroke="#606060" stroke-width="1.0"/>
           <path id="arrow"
             d="M 11.500037,31.436501 C 11.940474,20.09759 22.043105,11.32322 32.158766,21.979434 L 37.068811,17.246167 C 37.068811,17.246167 37.088388,32 37.088388,32 L 22.160133,31.978069 C 22.160133,31.978069 26.997745,27.140456 26.997745,27.140456 C 18.528582,18.264221 13.291696,25.230495 11.500037,31.436501 z"
             style="fill:#404040;"/>
          </a>
         </g>
        </svg>
</svg>
