<?xml version="1.0" encoding="UTF-8" standalone="no"?>
<!DOCTYPE svg PUBLIC "-//W3C//DTD SVG 1.1//EN"
 "http://www.w3.org/Graphics/SVG/1.1/DTD/svg11.dtd">
<!-- Generated by graphviz version 2.43.0 (0)
 -->
<!-- Title: inc/Directory.hpp Pages: 1 -->
<svg width="1137pt" height="357pt"
 viewBox="0.00 0.00 1137.00 357.00" xmlns="http://www.w3.org/2000/svg" xmlns:xlink="http://www.w3.org/1999/xlink">
<g id="graph0" class="graph" transform="scale(1 1) rotate(0) translate(4 353)">
<title>inc/Directory.hpp</title>
<!-- Node1 -->
<g id="Node000001" class="node">
<title>Node1</title>
<g id="a_Node000001"><a xlink:title=" ">
<polygon fill="#999999" stroke="#666666" points="1129,-349 1031,-349 1031,-330 1129,-330 1129,-349"/>
<text text-anchor="middle" x="1080" y="-337" font-family="Helvetica,sans-Serif" font-size="10.00">inc/Directory.hpp</text>
</a>
</g>
</g>
<!-- Node2 -->
<g id="Node000002" class="node">
<title>Node2</title>
<g id="a_Node000002"><a xlink:href="_file_system_ops_8hpp.html" target="_top" xlink:title=" ">
<polygon fill="white" stroke="#666666" points="689,-294 579,-294 579,-275 689,-275 689,-294"/>
<text text-anchor="middle" x="634" y="-282" font-family="Helvetica,sans-Serif" font-size="10.00">FileSystemOps.hpp</text>
</a>
</g>
</g>
<!-- Node1&#45;&gt;Node2 -->
<g id="edge1_Node000001_Node000002" class="edge">
<title>Node1&#45;&gt;Node2</title>
<g id="a_edge1_Node000001_Node000002"><a xlink:title=" ">
<path fill="none" stroke="#63b8ff" d="M1030.99,-332.68C950.38,-323.1 789.73,-304.01 699.47,-293.28"/>
<polygon fill="#63b8ff" stroke="#63b8ff" points="699.69,-289.78 689.35,-292.08 698.87,-296.73 699.69,-289.78"/>
</a>
</g>
</g>
<!-- Node22 -->
<g id="Node000022" class="node">
<title>Node22</title>
<g id="a_Node000022"><a xlink:title=" ">
<polygon fill="#e0e0e0" stroke="#999999" points="931.5,-129 884.5,-129 884.5,-110 931.5,-110 931.5,-129"/>
<text text-anchor="middle" x="908" y="-117" font-family="Helvetica,sans-Serif" font-size="10.00">vector</text>
</a>
</g>
</g>
<!-- Node1&#45;&gt;Node22 -->
<g id="edge47_Node000001_Node000022" class="edge">
<title>Node1&#45;&gt;Node22</title>
<g id="a_edge47_Node000001_Node000022"><a xlink:title=" ">
<path fill="none" stroke="#63b8ff" d="M1084.82,-329.74C1099.33,-302.09 1139.13,-215.55 1099,-165 1079.77,-140.78 991.65,-128.52 942.09,-123.45"/>
<polygon fill="#63b8ff" stroke="#63b8ff" points="942.14,-119.94 931.85,-122.45 941.46,-126.9 942.14,-119.94"/>
</a>
</g>
</g>
<!-- Node29 -->
<g id="Node000029" class="node">
<title>Node29</title>
<g id="a_Node000029"><a xlink:title=" ">
<polygon fill="#e0e0e0" stroke="#999999" points="1090,-184 1026,-184 1026,-165 1090,-165 1090,-184"/>
<text text-anchor="middle" x="1058" y="-172" font-family="Helvetica,sans-Serif" font-size="10.00">algorithm</text>
</a>
</g>
</g>
<!-- Node1&#45;&gt;Node29 -->
<g id="edge46_Node000001_Node000029" class="edge">
<title>Node1&#45;&gt;Node29</title>
<g id="a_edge46_Node000001_Node000029"><a xlink:title=" ">
<path fill="none" stroke="#63b8ff" d="M1078.82,-329.74C1075.37,-304.2 1065.28,-229.43 1060.53,-194.23"/>
<polygon fill="#63b8ff" stroke="#63b8ff" points="1063.99,-193.75 1059.19,-184.31 1057.06,-194.69 1063.99,-193.75"/>
</a>
</g>
</g>
<!-- Node3 -->
<g id="Node000003" class="node">
<title>Node3</title>
<g id="a_Node000003"><a xlink:title=" ">
<polygon fill="#e0e0e0" stroke="#999999" points="500.5,-239 453.5,-239 453.5,-220 500.5,-220 500.5,-239"/>
<text text-anchor="middle" x="477" y="-227" font-family="Helvetica,sans-Serif" font-size="10.00">cerrno</text>
</a>
</g>
</g>
<!-- Node2&#45;&gt;Node3 -->
<g id="edge2_Node000002_Node000003" class="edge">
<title>Node2&#45;&gt;Node3</title>
<g id="a_edge2_Node000002_Node000003"><a xlink:title=" ">
<path fill="none" stroke="#63b8ff" d="M608.78,-274.98C582.1,-265.98 539.89,-251.73 510.45,-241.79"/>
<polygon fill="#63b8ff" stroke="#63b8ff" points="511.22,-238.36 500.62,-238.47 508.98,-244.99 511.22,-238.36"/>
</a>
</g>
</g>
<!-- Node4 -->
<g id="Node000004" class="node">
<title>Node4</title>
<g id="a_Node000004"><a xlink:title=" ">
<polygon fill="#e0e0e0" stroke="#999999" points="820,-239 774,-239 774,-220 820,-220 820,-239"/>
<text text-anchor="middle" x="797" y="-227" font-family="Helvetica,sans-Serif" font-size="10.00">cstdio</text>
</a>
</g>
</g>
<!-- Node2&#45;&gt;Node4 -->
<g id="edge3_Node000002_Node000004" class="edge">
<title>Node2&#45;&gt;Node4</title>
<g id="a_edge3_Node000002_Node000004"><a xlink:title=" ">
<path fill="none" stroke="#63b8ff" d="M660.19,-274.98C688.41,-265.81 733.37,-251.19 763.99,-241.23"/>
<polygon fill="#63b8ff" stroke="#63b8ff" points="765.35,-244.47 773.78,-238.05 763.19,-237.81 765.35,-244.47"/>
</a>
</g>
</g>
<!-- Node5 -->
<g id="Node000005" class="node">
<title>Node5</title>
<g id="a_Node000005"><a xlink:title=" ">
<polygon fill="#e0e0e0" stroke="#999999" points="980,-239 930,-239 930,-220 980,-220 980,-239"/>
<text text-anchor="middle" x="955" y="-227" font-family="Helvetica,sans-Serif" font-size="10.00">cstring</text>
</a>
</g>
</g>
<!-- Node2&#45;&gt;Node5 -->
<g id="edge4_Node000002_Node000005" class="edge">
<title>Node2&#45;&gt;Node5</title>
<g id="a_edge4_Node000002_Node000005"><a xlink:title=" ">
<path fill="none" stroke="#63b8ff" d="M689.02,-276.49C744.83,-269.03 833.9,-256.2 919.88,-239.07"/>
<polygon fill="#63b8ff" stroke="#63b8ff" points="920.7,-242.48 929.81,-237.07 919.31,-235.61 920.7,-242.48"/>
</a>
</g>
</g>
<!-- Node6 -->
<g id="Node000006" class="node">
<title>Node6</title>
<g id="a_Node000006"><a xlink:title=" ">
<polygon fill="#e0e0e0" stroke="#999999" points="1052,-239 998,-239 998,-220 1052,-220 1052,-239"/>
<text text-anchor="middle" x="1025" y="-227" font-family="Helvetica,sans-Serif" font-size="10.00">dirent.h</text>
</a>
</g>
</g>
<!-- Node2&#45;&gt;Node6 -->
<g id="edge5_Node000002_Node000006" class="edge">
<title>Node2&#45;&gt;Node6</title>
<g id="a_edge5_Node000002_Node000006"><a xlink:title=" ">
<path fill="none" stroke="#63b8ff" d="M689.01,-278.45C756.97,-271.8 876.3,-258.79 987.86,-239.03"/>
<polygon fill="#63b8ff" stroke="#63b8ff" points="988.71,-242.43 997.94,-237.22 987.48,-235.54 988.71,-242.43"/>
</a>
</g>
</g>
<!-- Node7 -->
<g id="Node000007" class="node">
<title>Node7</title>
<g id="a_Node000007"><a xlink:title=" ">
<polygon fill="#e0e0e0" stroke="#999999" points="118.5,-129 63.5,-129 63.5,-110 118.5,-110 118.5,-129"/>
<text text-anchor="middle" x="91" y="-117" font-family="Helvetica,sans-Serif" font-size="10.00">fstream</text>
</a>
</g>
</g>
<!-- Node2&#45;&gt;Node7 -->
<g id="edge6_Node000002_Node000007" class="edge">
<title>Node2&#45;&gt;Node7</title>
<g id="a_edge6_Node000002_Node000007"><a xlink:title=" ">
<path fill="none" stroke="#63b8ff" d="M578.74,-282.91C447.03,-280.18 120.87,-265.19 57,-184 45.37,-169.21 59.15,-149.87 72.5,-136.44"/>
<polygon fill="#63b8ff" stroke="#63b8ff" points="75.22,-138.69 80.11,-129.29 70.42,-133.58 75.22,-138.69"/>
</a>
</g>
</g>
<!-- Node8 -->
<g id="Node000008" class="node">
<title>Node8</title>
<g id="a_Node000008"><a xlink:title=" ">
<polygon fill="#e0e0e0" stroke="#999999" points="554,-129 494,-129 494,-110 554,-110 554,-129"/>
<text text-anchor="middle" x="524" y="-117" font-family="Helvetica,sans-Serif" font-size="10.00">iostream</text>
</a>
</g>
</g>
<!-- Node2&#45;&gt;Node8 -->
<g id="edge7_Node000002_Node000008" class="edge">
<title>Node2&#45;&gt;Node8</title>
<g id="a_edge7_Node000002_Node000008"><a xlink:title=" ">
<path fill="none" stroke="#63b8ff" d="M578.91,-278.05C529.22,-271.86 461.48,-259.81 445,-239 416.8,-203.39 469.77,-157.86 501.92,-134.99"/>
<polygon fill="#63b8ff" stroke="#63b8ff" points="504.11,-137.73 510.36,-129.16 500.14,-131.97 504.11,-137.73"/>
</a>
</g>
</g>
<!-- Node9 -->
<g id="Node000009" class="node">
<title>Node9</title>
<g id="a_Node000009"><a xlink:title=" ">
<polygon fill="#e0e0e0" stroke="#999999" points="583.5,-239 518.5,-239 518.5,-220 583.5,-220 583.5,-239"/>
<text text-anchor="middle" x="551" y="-227" font-family="Helvetica,sans-Serif" font-size="10.00">stdexcept</text>
</a>
</g>
</g>
<!-- Node2&#45;&gt;Node9 -->
<g id="edge8_Node000002_Node000009" class="edge">
<title>Node2&#45;&gt;Node9</title>
<g id="a_edge8_Node000002_Node000009"><a xlink:title=" ">
<path fill="none" stroke="#63b8ff" d="M620.66,-274.98C607.91,-266.84 588.45,-254.41 573.33,-244.76"/>
<polygon fill="#63b8ff" stroke="#63b8ff" points="574.89,-241.6 564.58,-239.17 571.12,-247.5 574.89,-241.6"/>
</a>
</g>
</g>
<!-- Node10 -->
<g id="Node000010" class="node">
<title>Node10</title>
<g id="a_Node000010"><a xlink:title=" ">
<polygon fill="#e0e0e0" stroke="#999999" points="419,-19 375,-19 375,0 419,0 419,-19"/>
<text text-anchor="middle" x="397" y="-7" font-family="Helvetica,sans-Serif" font-size="10.00">string</text>
</a>
</g>
</g>
<!-- Node2&#45;&gt;Node10 -->
<g id="edge9_Node000002_Node000010" class="edge">
<title>Node2&#45;&gt;Node10</title>
<g id="a_edge9_Node000002_Node000010"><a xlink:title=" ">
<path fill="none" stroke="#63b8ff" d="M578.89,-281.82C462.89,-277.79 197.13,-265.85 111,-239 56.74,-222.08 0,-232.34 0,-175.5 0,-175.5 0,-175.5 0,-118.5 0,-43.1 269.99,-18.61 364.67,-12.34"/>
<polygon fill="#63b8ff" stroke="#63b8ff" points="365.05,-15.83 374.8,-11.7 364.6,-8.84 365.05,-15.83"/>
</a>
</g>
</g>
<!-- Node11 -->
<g id="Node000011" class="node">
<title>Node11</title>
<g id="a_Node000011"><a xlink:title=" ">
<polygon fill="#e0e0e0" stroke="#999999" points="666,-239 602,-239 602,-220 666,-220 666,-239"/>
<text text-anchor="middle" x="634" y="-227" font-family="Helvetica,sans-Serif" font-size="10.00">sys/stat.h</text>
</a>
</g>
</g>
<!-- Node2&#45;&gt;Node11 -->
<g id="edge10_Node000002_Node000011" class="edge">
<title>Node2&#45;&gt;Node11</title>
<g id="a_edge10_Node000002_Node000011"><a xlink:title=" ">
<path fill="none" stroke="#63b8ff" d="M634,-274.75C634,-267.8 634,-257.85 634,-249.13"/>
<polygon fill="#63b8ff" stroke="#63b8ff" points="637.5,-249.09 634,-239.09 630.5,-249.09 637.5,-249.09"/>
</a>
</g>
</g>
<!-- Node12 -->
<g id="Node000012" class="node">
<title>Node12</title>
<g id="a_Node000012"><a xlink:title=" ">
<polygon fill="#e0e0e0" stroke="#999999" points="756,-239 684,-239 684,-220 756,-220 756,-239"/>
<text text-anchor="middle" x="720" y="-227" font-family="Helvetica,sans-Serif" font-size="10.00">sys/types.h</text>
</a>
</g>
</g>
<!-- Node2&#45;&gt;Node12 -->
<g id="edge11_Node000002_Node000012" class="edge">
<title>Node2&#45;&gt;Node12</title>
<g id="a_edge11_Node000002_Node000012"><a xlink:title=" ">
<path fill="none" stroke="#63b8ff" d="M647.82,-274.98C661.15,-266.77 681.58,-254.18 697.31,-244.49"/>
<polygon fill="#63b8ff" stroke="#63b8ff" points="699.25,-247.4 705.93,-239.17 695.58,-241.44 699.25,-247.4"/>
</a>
</g>
</g>
<!-- Node13 -->
<g id="Node000013" class="node">
<title>Node13</title>
<g id="a_Node000013"><a xlink:href="_log_8hpp.html" target="_top" xlink:title=" ">
<polygon fill="white" stroke="#666666" points="348.5,-239 293.5,-239 293.5,-220 348.5,-220 348.5,-239"/>
<text text-anchor="middle" x="321" y="-227" font-family="Helvetica,sans-Serif" font-size="10.00">Log.hpp</text>
</a>
</g>
</g>
<!-- Node2&#45;&gt;Node13 -->
<g id="edge12_Node000002_Node000013" class="edge">
<title>Node2&#45;&gt;Node13</title>
<g id="a_edge12_Node000002_Node000013"><a xlink:title=" ">
<path fill="none" stroke="#63b8ff" d="M583.71,-274.98C520.92,-264.35 414.92,-246.4 358.68,-236.88"/>
<polygon fill="#63b8ff" stroke="#63b8ff" points="359.22,-233.42 348.78,-235.2 358.06,-240.32 359.22,-233.42"/>
</a>
</g>
</g>
<!-- Node23 -->
<g id="Node000023" class="node">
<title>Node23</title>
<g id="a_Node000023"><a xlink:href="utilities_8hpp.html" target="_top" xlink:title=" ">
<polygon fill="white" stroke="#666666" points="912,-239 838,-239 838,-220 912,-220 912,-239"/>
<text text-anchor="middle" x="875" y="-227" font-family="Helvetica,sans-Serif" font-size="10.00">utilities.hpp</text>
</a>
</g>
</g>
<!-- Node2&#45;&gt;Node23 -->
<g id="edge30_Node000002_Node000023" class="edge">
<title>Node2&#45;&gt;Node23</title>
<g id="a_edge30_Node000002_Node000023"><a xlink:title=" ">
<path fill="none" stroke="#63b8ff" d="M672.72,-274.98C715.03,-265.68 782.8,-250.78 828.09,-240.82"/>
<polygon fill="#63b8ff" stroke="#63b8ff" points="828.94,-244.21 837.96,-238.65 827.44,-237.38 828.94,-244.21"/>
</a>
</g>
</g>
<!-- Node14 -->
<g id="Node000014" class="node">
<title>Node14</title>
<g id="a_Node000014"><a xlink:href="_log_outputter_console_8hpp.html" target="_top" xlink:title=" ">
<polygon fill="white" stroke="#666666" points="344,-184 204,-184 204,-165 344,-165 344,-184"/>
<text text-anchor="middle" x="274" y="-172" font-family="Helvetica,sans-Serif" font-size="10.00">LogOutputterConsole.hpp</text>
</a>
</g>
</g>
<!-- Node13&#45;&gt;Node14 -->
<g id="edge13_Node000013_Node000014" class="edge">
<title>Node13&#45;&gt;Node14</title>
<g id="a_edge13_Node000013_Node000014"><a xlink:title=" ">
<path fill="none" stroke="#63b8ff" d="M313.24,-219.75C306.53,-212.18 296.66,-201.05 288.49,-191.84"/>
<polygon fill="#63b8ff" stroke="#63b8ff" points="290.87,-189.25 281.62,-184.09 285.63,-193.89 290.87,-189.25"/>
</a>
</g>
</g>
<!-- Node20 -->
<g id="Node000020" class="node">
<title>Node20</title>
<g id="a_Node000020"><a xlink:href="_log_outputter_file_8hpp.html" target="_top" xlink:title=" ">
<polygon fill="white" stroke="#666666" points="185.5,-184 66.5,-184 66.5,-165 185.5,-165 185.5,-184"/>
<text text-anchor="middle" x="126" y="-172" font-family="Helvetica,sans-Serif" font-size="10.00">LogOutputterFile.hpp</text>
</a>
</g>
</g>
<!-- Node13&#45;&gt;Node20 -->
<g id="edge21_Node000013_Node000020" class="edge">
<title>Node13&#45;&gt;Node20</title>
<g id="a_edge21_Node000013_Node000020"><a xlink:title=" ">
<path fill="none" stroke="#63b8ff" d="M293.47,-221.02C260.61,-212.09 205.33,-197.06 167.33,-186.73"/>
<polygon fill="#63b8ff" stroke="#63b8ff" points="168.15,-183.33 157.58,-184.08 166.32,-190.08 168.15,-183.33"/>
</a>
</g>
</g>
<!-- Node21 -->
<g id="Node000021" class="node">
<title>Node21</title>
<g id="a_Node000021"><a xlink:href="_logger_8hpp.html" target="_top" xlink:title=" ">
<polygon fill="white" stroke="#666666" points="432,-184 362,-184 362,-165 432,-165 432,-184"/>
<text text-anchor="middle" x="397" y="-172" font-family="Helvetica,sans-Serif" font-size="10.00">Logger.hpp</text>
</a>
</g>
</g>
<!-- Node13&#45;&gt;Node21 -->
<g id="edge25_Node000013_Node000021" class="edge">
<title>Node13&#45;&gt;Node21</title>
<g id="a_edge25_Node000013_Node000021"><a xlink:title=" ">
<path fill="none" stroke="#63b8ff" d="M333.21,-219.98C344.78,-211.92 362.38,-199.65 376.16,-190.03"/>
<polygon fill="#63b8ff" stroke="#63b8ff" points="378.37,-192.76 384.57,-184.17 374.36,-187.02 378.37,-192.76"/>
</a>
</g>
</g>
<!-- Node14&#45;&gt;Node8 -->
<g id="edge14_Node000014_Node000008" class="edge">
<title>Node14&#45;&gt;Node8</title>
<g id="a_edge14_Node000014_Node000008"><a xlink:title=" ">
<path fill="none" stroke="#63b8ff" d="M314.17,-164.98C360.75,-155.11 437.09,-138.93 483.72,-129.04"/>
<polygon fill="#63b8ff" stroke="#63b8ff" points="484.7,-132.41 493.76,-126.91 483.25,-125.56 484.7,-132.41"/>
</a>
</g>
</g>
<!-- Node15 -->
<g id="Node000015" class="node">
<title>Node15</title>
<g id="a_Node000015"><a xlink:title=" ">
<polygon fill="#e0e0e0" stroke="#999999" points="369,-129 331,-129 331,-110 369,-110 369,-129"/>
<text text-anchor="middle" x="350" y="-117" font-family="Helvetica,sans-Serif" font-size="10.00">map</text>
</a>
</g>
</g>
<!-- Node14&#45;&gt;Node15 -->
<g id="edge15_Node000014_Node000015" class="edge">
<title>Node14&#45;&gt;Node15</title>
<g id="a_edge15_Node000014_Node000015"><a xlink:title=" ">
<path fill="none" stroke="#63b8ff" d="M286.21,-164.98C297.78,-156.92 315.38,-144.65 329.16,-135.03"/>
<polygon fill="#63b8ff" stroke="#63b8ff" points="331.37,-137.76 337.57,-129.17 327.36,-132.02 331.37,-137.76"/>
</a>
</g>
</g>
<!-- Node16 -->
<g id="Node000016" class="node">
<title>Node16</title>
<g id="a_Node000016"><a xlink:href="_a_log_outputter_8hpp.html" target="_top" xlink:title=" ">
<polygon fill="white" stroke="#666666" points="312.5,-129 205.5,-129 205.5,-110 312.5,-110 312.5,-129"/>
<text text-anchor="middle" x="259" y="-117" font-family="Helvetica,sans-Serif" font-size="10.00">ALogOutputter.hpp</text>
</a>
</g>
</g>
<!-- Node14&#45;&gt;Node16 -->
<g id="edge16_Node000014_Node000016" class="edge">
<title>Node14&#45;&gt;Node16</title>
<g id="a_edge16_Node000014_Node000016"><a xlink:title=" ">
<path fill="none" stroke="#63b8ff" d="M271.52,-164.75C269.54,-157.72 266.68,-147.62 264.19,-138.84"/>
<polygon fill="#63b8ff" stroke="#63b8ff" points="267.52,-137.76 261.43,-129.09 260.79,-139.66 267.52,-137.76"/>
</a>
</g>
</g>
<!-- Node17 -->
<g id="Node000017" class="node">
<title>Node17</title>
<g id="a_Node000017"><a xlink:href="_log_data_8hpp.html" target="_top" xlink:title=" ">
<polygon fill="white" stroke="#666666" points="503,-74 425,-74 425,-55 503,-55 503,-74"/>
<text text-anchor="middle" x="464" y="-62" font-family="Helvetica,sans-Serif" font-size="10.00">LogData.hpp</text>
</a>
</g>
</g>
<!-- Node16&#45;&gt;Node17 -->
<g id="edge17_Node000016_Node000017" class="edge">
<title>Node16&#45;&gt;Node17</title>
<g id="a_edge17_Node000016_Node000017"><a xlink:title=" ">
<path fill="none" stroke="#63b8ff" d="M291.94,-109.98C326.95,-100.93 382.47,-86.58 420.93,-76.64"/>
<polygon fill="#63b8ff" stroke="#63b8ff" points="422,-79.97 430.81,-74.08 420.25,-73.2 422,-79.97"/>
</a>
</g>
</g>
<!-- Node17&#45;&gt;Node10 -->
<g id="edge20_Node000017_Node000010" class="edge">
<title>Node17&#45;&gt;Node10</title>
<g id="a_edge20_Node000017_Node000010"><a xlink:title=" ">
<path fill="none" stroke="#63b8ff" d="M453.24,-54.98C443.23,-47.07 428.11,-35.11 416.07,-25.58"/>
<polygon fill="#63b8ff" stroke="#63b8ff" points="417.97,-22.63 407.96,-19.17 413.63,-28.12 417.97,-22.63"/>
</a>
</g>
</g>
<!-- Node18 -->
<g id="Node000018" class="node">
<title>Node18</title>
<g id="a_Node000018"><a xlink:title=" ">
<polygon fill="#e0e0e0" stroke="#999999" points="602,-19 558,-19 558,0 602,0 602,-19"/>
<text text-anchor="middle" x="580" y="-7" font-family="Helvetica,sans-Serif" font-size="10.00">ctime</text>
</a>
</g>
</g>
<!-- Node17&#45;&gt;Node18 -->
<g id="edge18_Node000017_Node000018" class="edge">
<title>Node17&#45;&gt;Node18</title>
<g id="a_edge18_Node000017_Node000018"><a xlink:title=" ">
<path fill="none" stroke="#63b8ff" d="M482.64,-54.98C501.3,-46.46 530.25,-33.23 551.74,-23.41"/>
<polygon fill="#63b8ff" stroke="#63b8ff" points="553.38,-26.51 561.02,-19.17 550.47,-20.14 553.38,-26.51"/>
</a>
</g>
</g>
<!-- Node19 -->
<g id="Node000019" class="node">
<title>Node19</title>
<g id="a_Node000019"><a xlink:title=" ">
<polygon fill="#e0e0e0" stroke="#999999" points="909,-19 853,-19 853,0 909,0 909,-19"/>
<text text-anchor="middle" x="881" y="-7" font-family="Helvetica,sans-Serif" font-size="10.00">sstream</text>
</a>
</g>
</g>
<!-- Node17&#45;&gt;Node19 -->
<g id="edge19_Node000017_Node000019" class="edge">
<title>Node17&#45;&gt;Node19</title>
<g id="a_edge19_Node000017_Node000019"><a xlink:title=" ">
<path fill="none" stroke="#63b8ff" d="M503.23,-58.51C583.17,-48.35 764.03,-25.37 842.96,-15.33"/>
<polygon fill="#63b8ff" stroke="#63b8ff" points="843.48,-18.8 852.96,-14.06 842.59,-11.85 843.48,-18.8"/>
</a>
</g>
</g>
<!-- Node20&#45;&gt;Node7 -->
<g id="edge22_Node000020_Node000007" class="edge">
<title>Node20&#45;&gt;Node7</title>
<g id="a_edge22_Node000020_Node000007"><a xlink:title=" ">
<path fill="none" stroke="#63b8ff" d="M120.22,-164.75C115.38,-157.42 108.32,-146.73 102.36,-137.7"/>
<polygon fill="#63b8ff" stroke="#63b8ff" points="105.1,-135.5 96.67,-129.09 99.26,-139.36 105.1,-135.5"/>
</a>
</g>
</g>
<!-- Node20&#45;&gt;Node8 -->
<g id="edge23_Node000020_Node000008" class="edge">
<title>Node20&#45;&gt;Node8</title>
<g id="a_edge23_Node000020_Node000008"><a xlink:title=" ">
<path fill="none" stroke="#63b8ff" d="M185.58,-165.57C267.68,-154.63 413.38,-135.23 483.75,-125.86"/>
<polygon fill="#63b8ff" stroke="#63b8ff" points="484.53,-129.29 493.98,-124.5 483.6,-122.35 484.53,-129.29"/>
</a>
</g>
</g>
<!-- Node20&#45;&gt;Node16 -->
<g id="edge24_Node000020_Node000016" class="edge">
<title>Node20&#45;&gt;Node16</title>
<g id="a_edge24_Node000020_Node000016"><a xlink:title=" ">
<path fill="none" stroke="#63b8ff" d="M147.37,-164.98C169.15,-156.3 203.16,-142.75 227.92,-132.88"/>
<polygon fill="#63b8ff" stroke="#63b8ff" points="229.25,-136.12 237.24,-129.17 226.66,-129.62 229.25,-136.12"/>
</a>
</g>
</g>
<!-- Node21&#45;&gt;Node10 -->
<g id="edge26_Node000021_Node000010" class="edge">
<title>Node21&#45;&gt;Node10</title>
<g id="a_edge26_Node000021_Node000010"><a xlink:title=" ">
<path fill="none" stroke="#63b8ff" d="M397,-164.74C397,-139.31 397,-65.08 397,-29.69"/>
<polygon fill="#63b8ff" stroke="#63b8ff" points="400.5,-29.31 397,-19.31 393.5,-29.31 400.5,-29.31"/>
</a>
</g>
</g>
<!-- Node21&#45;&gt;Node16 -->
<g id="edge28_Node000021_Node000016" class="edge">
<title>Node21&#45;&gt;Node16</title>
<g id="a_edge28_Node000021_Node000016"><a xlink:title=" ">
<path fill="none" stroke="#63b8ff" d="M374.83,-164.98C352.23,-156.3 316.94,-142.75 291.25,-132.88"/>
<polygon fill="#63b8ff" stroke="#63b8ff" points="292.17,-129.49 281.58,-129.17 289.66,-136.02 292.17,-129.49"/>
</a>
</g>
</g>
<!-- Node21&#45;&gt;Node17 -->
<g id="edge29_Node000021_Node000017" class="edge">
<title>Node21&#45;&gt;Node17</title>
<g id="a_edge29_Node000021_Node000017"><a xlink:title=" ">
<path fill="none" stroke="#63b8ff" d="M402.48,-164.66C413.58,-146.77 438.87,-106 453.33,-82.69"/>
<polygon fill="#63b8ff" stroke="#63b8ff" points="456.33,-84.5 458.63,-74.16 450.38,-80.81 456.33,-84.5"/>
</a>
</g>
</g>
<!-- Node21&#45;&gt;Node22 -->
<g id="edge27_Node000021_Node000022" class="edge">
<title>Node21&#45;&gt;Node22</title>
<g id="a_edge27_Node000021_Node000022"><a xlink:title=" ">
<path fill="none" stroke="#63b8ff" d="M432.1,-169.76C446.62,-168.24 463.62,-166.49 479,-165 652.07,-148.18 699.78,-159.42 874.3,-129.03"/>
<polygon fill="#63b8ff" stroke="#63b8ff" points="875.09,-132.45 884.33,-127.26 873.88,-125.55 875.09,-132.45"/>
</a>
</g>
</g>
<!-- Node23&#45;&gt;Node8 -->
<g id="edge42_Node000023_Node000008" class="edge">
<title>Node23&#45;&gt;Node8</title>
<g id="a_edge42_Node000023_Node000008"><a xlink:title=" ">
<path fill="none" stroke="#63b8ff" d="M837.85,-221.57C834.86,-221.03 831.88,-220.5 829,-220 731.39,-203 700.18,-222.76 609,-184 582.15,-172.59 555.99,-150.99 539.94,-136.18"/>
<polygon fill="#63b8ff" stroke="#63b8ff" points="542.18,-133.48 532.52,-129.14 537.37,-138.56 542.18,-133.48"/>
</a>
</g>
</g>
<!-- Node23&#45;&gt;Node18 -->
<g id="edge41_Node000023_Node000018" class="edge">
<title>Node23&#45;&gt;Node18</title>
<g id="a_edge41_Node000023_Node000018"><a xlink:title=" ">
<path fill="none" stroke="#63b8ff" d="M886.26,-219.94C910.36,-200.53 963.05,-151.62 941,-110 920.63,-71.55 900.46,-71.02 860,-55 775.01,-21.35 665.99,-13.1 612.52,-11.11"/>
<polygon fill="#63b8ff" stroke="#63b8ff" points="612.39,-7.6 602.28,-10.78 612.17,-14.6 612.39,-7.6"/>
</a>
</g>
</g>
<!-- Node23&#45;&gt;Node19 -->
<g id="edge43_Node000023_Node000019" class="edge">
<title>Node23&#45;&gt;Node19</title>
<g id="a_edge43_Node000023_Node000019"><a xlink:title=" ">
<path fill="none" stroke="#63b8ff" d="M912.17,-222.13C934.2,-216.23 960.39,-205.04 974,-184 1005.14,-135.86 1004.56,-103.51 974,-55 961.92,-35.83 939.04,-24.73 919,-18.42"/>
<polygon fill="#63b8ff" stroke="#63b8ff" points="919.73,-14.99 909.15,-15.61 917.81,-21.72 919.73,-14.99"/>
</a>
</g>
</g>
<!-- Node23&#45;&gt;Node22 -->
<g id="edge45_Node000023_Node000022" class="edge">
<title>Node23&#45;&gt;Node22</title>
<g id="a_edge45_Node000023_Node000022"><a xlink:title=" ">
<path fill="none" stroke="#63b8ff" d="M880.45,-220C885.77,-211.3 893.67,-197.22 898,-184 902.78,-169.4 905.31,-152.14 906.63,-139.3"/>
<polygon fill="#63b8ff" stroke="#63b8ff" points="910.12,-139.6 907.5,-129.34 903.15,-138.99 910.12,-139.6"/>
</a>
</g>
</g>
<!-- Node24 -->
<g id="Node000024" class="node">
<title>Node24</title>
<g id="a_Node000024"><a xlink:href="_method_8hpp.html" target="_top" xlink:title=" ">
<polygon fill="white" stroke="#666666" points="562,-184 488,-184 488,-165 562,-165 562,-184"/>
<text text-anchor="middle" x="525" y="-172" font-family="Helvetica,sans-Serif" font-size="10.00">Method.hpp</text>
</a>
</g>
</g>
<!-- Node23&#45;&gt;Node24 -->
<g id="edge31_Node000023_Node000024" class="edge">
<title>Node23&#45;&gt;Node24</title>
<g id="a_edge31_Node000023_Node000024"><a xlink:title=" ">
<path fill="none" stroke="#63b8ff" d="M837.87,-221.5C834.87,-220.98 831.89,-220.47 829,-220 716.91,-201.68 688.25,-201.34 576,-184 574.73,-183.8 573.44,-183.6 572.14,-183.4"/>
<polygon fill="#63b8ff" stroke="#63b8ff" points="572.46,-179.9 562.03,-181.78 571.35,-186.82 572.46,-179.9"/>
</a>
</g>
</g>
<!-- Node25 -->
<g id="Node000025" class="node">
<title>Node25</title>
<g id="a_Node000025"><a xlink:href="_status_code_8hpp.html" target="_top" xlink:title=" ">
<polygon fill="white" stroke="#666666" points="855.5,-184 762.5,-184 762.5,-165 855.5,-165 855.5,-184"/>
<text text-anchor="middle" x="809" y="-172" font-family="Helvetica,sans-Serif" font-size="10.00">StatusCode.hpp</text>
</a>
</g>
</g>
<!-- Node23&#45;&gt;Node25 -->
<g id="edge33_Node000023_Node000025" class="edge">
<title>Node23&#45;&gt;Node25</title>
<g id="a_edge33_Node000023_Node000025"><a xlink:title=" ">
<path fill="none" stroke="#63b8ff" d="M864.4,-219.98C854.54,-212.07 839.65,-200.11 827.78,-190.58"/>
<polygon fill="#63b8ff" stroke="#63b8ff" points="829.79,-187.7 819.8,-184.17 825.4,-193.16 829.79,-187.7"/>
</a>
</g>
</g>
<!-- Node26 -->
<g id="Node000026" class="node">
<title>Node26</title>
<g id="a_Node000026"><a xlink:href="constants_8hpp.html" target="_top" xlink:title=" ">
<polygon fill="white" stroke="#666666" points="866.5,-129 781.5,-129 781.5,-110 866.5,-110 866.5,-129"/>
<text text-anchor="middle" x="824" y="-117" font-family="Helvetica,sans-Serif" font-size="10.00">constants.hpp</text>
</a>
</g>
</g>
<!-- Node23&#45;&gt;Node26 -->
<g id="edge38_Node000023_Node000026" class="edge">
<title>Node23&#45;&gt;Node26</title>
<g id="a_edge38_Node000023_Node000026"><a xlink:title=" ">
<path fill="none" stroke="#63b8ff" d="M875.19,-219.82C875.14,-207.13 873.74,-183.09 865,-165 859.66,-153.96 850.67,-143.74 842.47,-135.88"/>
<polygon fill="#63b8ff" stroke="#63b8ff" points="844.75,-133.23 834.99,-129.13 840.06,-138.43 844.75,-133.23"/>
</a>
</g>
</g>
<!-- Node23&#45;&gt;Node29 -->
<g id="edge39_Node000023_Node000029" class="edge">
<title>Node23&#45;&gt;Node29</title>
<g id="a_edge39_Node000023_Node000029"><a xlink:title=" ">
<path fill="none" stroke="#63b8ff" d="M904.4,-219.98C935.39,-211.01 984.38,-196.82 1018.67,-186.89"/>
<polygon fill="#63b8ff" stroke="#63b8ff" points="1019.74,-190.23 1028.37,-184.08 1017.79,-183.5 1019.74,-190.23"/>
</a>
</g>
</g>
<!-- Node30 -->
<g id="Node000030" class="node">
<title>Node30</title>
<g id="a_Node000030"><a xlink:title=" ">
<polygon fill="#e0e0e0" stroke="#999999" points="670,-184 618,-184 618,-165 670,-165 670,-184"/>
<text text-anchor="middle" x="644" y="-172" font-family="Helvetica,sans-Serif" font-size="10.00">cassert</text>
</a>
</g>
</g>
<!-- Node23&#45;&gt;Node30 -->
<g id="edge40_Node000023_Node000030" class="edge">
<title>Node23&#45;&gt;Node30</title>
<g id="a_edge40_Node000023_Node000030"><a xlink:title=" ">
<path fill="none" stroke="#63b8ff" d="M837.75,-220.22C800.38,-211.87 740.89,-198.48 680.46,-184.32"/>
<polygon fill="#63b8ff" stroke="#63b8ff" points="680.9,-180.83 670.36,-181.95 679.3,-187.64 680.9,-180.83"/>
</a>
</g>
</g>
<!-- Node31 -->
<g id="Node000031" class="node">
<title>Node31</title>
<g id="a_Node000031"><a xlink:title=" ">
<polygon fill="#e0e0e0" stroke="#999999" points="744,-184 688,-184 688,-165 744,-165 744,-184"/>
<text text-anchor="middle" x="716" y="-172" font-family="Helvetica,sans-Serif" font-size="10.00">unistd.h</text>
</a>
</g>
</g>
<!-- Node23&#45;&gt;Node31 -->
<g id="edge44_Node000023_Node000031" class="edge">
<title>Node23&#45;&gt;Node31</title>
<g id="a_edge44_Node000023_Node000031"><a xlink:title=" ">
<path fill="none" stroke="#63b8ff" d="M849.45,-219.98C822.88,-211.13 781.06,-197.19 751.33,-187.28"/>
<polygon fill="#63b8ff" stroke="#63b8ff" points="752.34,-183.92 741.75,-184.08 750.13,-190.56 752.34,-183.92"/>
</a>
</g>
</g>
<!-- Node24&#45;&gt;Node8 -->
<g id="edge32_Node000024_Node000008" class="edge">
<title>Node24&#45;&gt;Node8</title>
<g id="a_edge32_Node000024_Node000008"><a xlink:title=" ">
<path fill="none" stroke="#63b8ff" d="M524.83,-164.75C524.7,-157.8 524.52,-147.85 524.35,-139.13"/>
<polygon fill="#63b8ff" stroke="#63b8ff" points="527.85,-139.02 524.16,-129.09 520.85,-139.15 527.85,-139.02"/>
</a>
</g>
</g>
<!-- Node25&#45;&gt;Node8 -->
<g id="edge37_Node000025_Node000008" class="edge">
<title>Node25&#45;&gt;Node8</title>
<g id="a_edge37_Node000025_Node000008"><a xlink:title=" ">
<path fill="none" stroke="#63b8ff" d="M763.21,-164.98C708.19,-154.75 616.74,-137.75 564.29,-127.99"/>
<polygon fill="#63b8ff" stroke="#63b8ff" points="564.81,-124.53 554.34,-126.14 563.53,-131.41 564.81,-124.53"/>
</a>
</g>
</g>
<!-- Node25&#45;&gt;Node26 -->
<g id="edge34_Node000025_Node000026" class="edge">
<title>Node25&#45;&gt;Node26</title>
<g id="a_edge34_Node000025_Node000026"><a xlink:title=" ">
<path fill="none" stroke="#63b8ff" d="M811.48,-164.75C813.46,-157.72 816.32,-147.62 818.81,-138.84"/>
<polygon fill="#63b8ff" stroke="#63b8ff" points="822.21,-139.66 821.57,-129.09 815.48,-137.76 822.21,-139.66"/>
</a>
</g>
</g>
<!-- Node28 -->
<g id="Node000028" class="node">
<title>Node28</title>
<g id="a_Node000028"><a xlink:title=" ">
<polygon fill="#e0e0e0" stroke="#999999" points="763.5,-129 714.5,-129 714.5,-110 763.5,-110 763.5,-129"/>
<text text-anchor="middle" x="739" y="-117" font-family="Helvetica,sans-Serif" font-size="10.00">cstdlib</text>
</a>
</g>
</g>
<!-- Node25&#45;&gt;Node28 -->
<g id="edge36_Node000025_Node000028" class="edge">
<title>Node25&#45;&gt;Node28</title>
<g id="a_edge36_Node000025_Node000028"><a xlink:title=" ">
<path fill="none" stroke="#63b8ff" d="M797.75,-164.98C787.2,-157 771.2,-144.88 758.56,-135.31"/>
<polygon fill="#63b8ff" stroke="#63b8ff" points="760.54,-132.42 750.45,-129.17 756.31,-138 760.54,-132.42"/>
</a>
</g>
</g>
<!-- Node27 -->
<g id="Node000027" class="node">
<title>Node27</title>
<g id="a_Node000027"><a xlink:title=" ">
<polygon fill="#e0e0e0" stroke="#999999" points="850.5,-74 797.5,-74 797.5,-55 850.5,-55 850.5,-74"/>
<text text-anchor="middle" x="824" y="-62" font-family="Helvetica,sans-Serif" font-size="10.00">cstddef</text>
</a>
</g>
</g>
<!-- Node26&#45;&gt;Node27 -->
<g id="edge35_Node000026_Node000027" class="edge">
<title>Node26&#45;&gt;Node27</title>
<g id="a_edge35_Node000026_Node000027"><a xlink:title=" ">
<path fill="none" stroke="#63b8ff" d="M824,-109.75C824,-102.8 824,-92.85 824,-84.13"/>
<polygon fill="#63b8ff" stroke="#63b8ff" points="827.5,-84.09 824,-74.09 820.5,-84.09 827.5,-84.09"/>
</a>
</g>
</g>
</g>
</svg>
