<?xml version="1.0" encoding="UTF-8" standalone="no"?>
<!DOCTYPE svg PUBLIC "-//W3C//DTD SVG 1.1//EN"
 "http://www.w3.org/Graphics/SVG/1.1/DTD/svg11.dtd">
<!-- Generated by graphviz version 2.43.0 (0)
 -->
<!-- Title: src/Directory.cpp Pages: 1 -->
<!--zoomable 412 -->

<svg id="main" version="1.1" xmlns="http://www.w3.org/2000/svg" xmlns:xlink="http://www.w3.org/1999/xlink" xml:space="preserve" onload="init(evt)">
<style type="text/css"><![CDATA[
.node, .edge {opacity: 0.7;}
.node.selected, .edge.selected {opacity: 1;}
.edge:hover path { stroke: red; }
.edge:hover polygon { stroke: red; fill: red; }
]]></style>

<defs>
  <circle id="rim" cx="0" cy="0" r="7"/>
  <circle id="rim2" cx="0" cy="0" r="3.5"/>
  <g id="zoomPlus">
    <use xlink:href="#rim" fill="#404040"><set attributeName="fill" to="#808080" begin="zoomplus.mouseover" end="zoomplus.mouseout"/></use>
    <path d="M-4,0h8M0,-4v8" fill="none" stroke="white" stroke-width="1.5" pointer-events="none"/>
  </g>
  <g id="zoomMin">
    <use xlink:href="#rim" fill="#404040"><set attributeName="fill" to="#808080" begin="zoomminus.mouseover" end="zoomminus.mouseout"/></use>
    <path d="M-4,0h8" fill="none" stroke="white" stroke-width="1.5" pointer-events="none"/>
  </g>
  <g id="arrowUp" transform="translate(30 24)">
    <use xlink:href="#rim"/>
    <path pointer-events="none" fill="none" stroke="white" stroke-width="1.5" d="M0,-3.0v7 M-2.5,-0.5L0,-3.0L2.5,-0.5"/>
  </g>
  <g id="arrowRight" transform="rotate(90) translate(36 -43)">
    <use xlink:href="#rim"/>
    <path pointer-events="none" fill="none" stroke="white" stroke-width="1.5" d="M0,-3.0v7 M-2.5,-0.5L0,-3.0L2.5,-0.5"/>
  </g>
  <g id="arrowDown" transform="rotate(180) translate(-30 -48)">
    <use xlink:href="#rim"/>
    <path pointer-events="none" fill="none" stroke="white" stroke-width="1.5" d="M0,-3.0v7 M-2.5,-0.5L0,-3.0L2.5,-0.5"/>
  </g>
  <g id="arrowLeft" transform="rotate(270) translate(-36 17)">
    <use xlink:href="#rim"/>
    <path pointer-events="none" fill="none" stroke="white" stroke-width="1.5" d="M0,-3.0v7 M-2.5,-0.5L0,-3.0L2.5,-0.5"/>
  </g>
  <g id="resetDef">
    <use xlink:href="#rim2" fill="#404040"><set attributeName="fill" to="#808080" begin="reset.mouseover" end="reset.mouseout"/></use>
  </g>
</defs>
<script type="application/ecmascript">
var viewWidth = 1143;
var viewHeight = 412;
var sectionId = 'dynsection-0';
</script>
<script type="application/ecmascript" xlink:href="svg.min.js"/>
<svg id="graph" class="graph">
<g id="viewport">
<title>src/Directory.cpp</title>
<!-- Node1 -->
<g id="Node000001" class="node">
<title>Node1</title>
<g id="a_Node000001"><a xlink:title=" ">
<polygon fill="#999999" stroke="#666666" points="1123.61,-404 1025.61,-404 1025.61,-385 1123.61,-385 1123.61,-404"/>
<text text-anchor="middle" x="1074.61" y="-392" font-family="Helvetica,sans-Serif" font-size="10.00">src/Directory.cpp</text>
</a>
</g>
</g>
<!-- Node2 -->
<g id="Node000002" class="node">
<title>Node2</title>
<g id="a_Node000002"><a xlink:href="_directory_8hpp.html" target="_top" xlink:title=" ">
<polygon fill="white" stroke="#666666" points="1115.11,-349 1034.11,-349 1034.11,-330 1115.11,-330 1115.11,-349"/>
<text text-anchor="middle" x="1074.61" y="-337" font-family="Helvetica,sans-Serif" font-size="10.00">Directory.hpp</text>
</a>
</g>
</g>
<!-- Node1&#45;&gt;Node2 -->
<g id="edge1_Node000001_Node000002" class="edge">
<title>Node1&#45;&gt;Node2</title>
<g id="a_edge1_Node000001_Node000002"><a xlink:title=" ">
<path fill="none" stroke="#63b8ff" d="M1074.61,-384.75C1074.61,-377.8 1074.61,-367.85 1074.61,-359.13"/>
<polygon fill="#63b8ff" stroke="#63b8ff" points="1078.11,-359.09 1074.61,-349.09 1071.11,-359.09 1078.11,-359.09"/>
</a>
</g>
</g>
<!-- Node3 -->
<g id="Node000003" class="node">
<title>Node3</title>
<g id="a_Node000003"><a xlink:href="_file_system_policy_8hpp.html" target="_top" xlink:title=" ">
<polygon fill="white" stroke="#666666" points="687.11,-294 568.11,-294 568.11,-275 687.11,-275 687.11,-294"/>
<text text-anchor="middle" x="627.61" y="-282" font-family="Helvetica,sans-Serif" font-size="10.00">FileSystemPolicy.hpp</text>
</a>
</g>
</g>
<!-- Node2&#45;&gt;Node3 -->
<g id="edge2_Node000002_Node000003" class="edge">
<title>Node2&#45;&gt;Node3</title>
<g id="a_edge2_Node000002_Node000003"><a xlink:title=" ">
<path fill="none" stroke="#63b8ff" d="M1033.75,-333.66C957.33,-324.6 791.97,-304.99 697.51,-293.79"/>
<polygon fill="#63b8ff" stroke="#63b8ff" points="697.81,-290.3 687.47,-292.6 696.99,-297.25 697.81,-290.3"/>
</a>
</g>
</g>
<!-- Node17 -->
<g id="Node000017" class="node">
<title>Node17</title>
<g id="a_Node000017"><a xlink:title=" ">
<polygon fill="#e0e0e0" stroke="#999999" points="1106.61,-184 1042.61,-184 1042.61,-165 1106.61,-165 1106.61,-184"/>
<text text-anchor="middle" x="1074.61" y="-172" font-family="Helvetica,sans-Serif" font-size="10.00">algorithm</text>
</a>
</g>
</g>
<!-- Node2&#45;&gt;Node17 -->
<g id="edge44_Node000002_Node000017" class="edge">
<title>Node2&#45;&gt;Node17</title>
<g id="a_edge44_Node000002_Node000017"><a xlink:title=" ">
<path fill="none" stroke="#63b8ff" d="M1074.61,-329.74C1074.61,-304.31 1074.61,-230.08 1074.61,-194.69"/>
<polygon fill="#63b8ff" stroke="#63b8ff" points="1078.11,-194.31 1074.61,-184.31 1071.11,-194.31 1078.11,-194.31"/>
</a>
</g>
</g>
<!-- Node22 -->
<g id="Node000022" class="node">
<title>Node22</title>
<g id="a_Node000022"><a xlink:title=" ">
<polygon fill="#e0e0e0" stroke="#999999" points="1038.11,-129 991.11,-129 991.11,-110 1038.11,-110 1038.11,-129"/>
<text text-anchor="middle" x="1014.61" y="-117" font-family="Helvetica,sans-Serif" font-size="10.00">vector</text>
</a>
</g>
</g>
<!-- Node2&#45;&gt;Node22 -->
<g id="edge43_Node000002_Node000022" class="edge">
<title>Node2&#45;&gt;Node22</title>
<g id="a_edge43_Node000002_Node000022"><a xlink:title=" ">
<path fill="none" stroke="#63b8ff" d="M1081,-329.76C1099.81,-302.88 1151.45,-219.96 1115.61,-165 1100.74,-142.21 1071.3,-131.01 1048.02,-125.56"/>
<polygon fill="#63b8ff" stroke="#63b8ff" points="1048.66,-122.12 1038.15,-123.49 1047.23,-128.97 1048.66,-122.12"/>
</a>
</g>
</g>
<!-- Node4 -->
<g id="Node000004" class="node">
<title>Node4</title>
<g id="a_Node000004"><a xlink:title=" ">
<polygon fill="#e0e0e0" stroke="#999999" points="973.61,-19 929.61,-19 929.61,0 973.61,0 973.61,-19"/>
<text text-anchor="middle" x="951.61" y="-7" font-family="Helvetica,sans-Serif" font-size="10.00">string</text>
</a>
</g>
</g>
<!-- Node3&#45;&gt;Node4 -->
<g id="edge3_Node000003_Node000004" class="edge">
<title>Node3&#45;&gt;Node4</title>
<g id="a_edge3_Node000003_Node000004"><a xlink:title=" ">
<path fill="none" stroke="#63b8ff" d="M687.26,-283.22C821.28,-280.98 1134.61,-266.06 1134.61,-175.5 1134.61,-175.5 1134.61,-175.5 1134.61,-118.5 1134.61,-49.3 1036.36,-23.53 983.84,-14.69"/>
<polygon fill="#63b8ff" stroke="#63b8ff" points="984.1,-11.19 973.68,-13.1 983.02,-18.11 984.1,-11.19"/>
</a>
</g>
</g>
<!-- Node5 -->
<g id="Node000005" class="node">
<title>Node5</title>
<g id="a_Node000005"><a xlink:title=" ">
<polygon fill="#e0e0e0" stroke="#999999" points="748.11,-239 701.11,-239 701.11,-220 748.11,-220 748.11,-239"/>
<text text-anchor="middle" x="724.61" y="-227" font-family="Helvetica,sans-Serif" font-size="10.00">cerrno</text>
</a>
</g>
</g>
<!-- Node3&#45;&gt;Node5 -->
<g id="edge4_Node000003_Node000005" class="edge">
<title>Node3&#45;&gt;Node5</title>
<g id="a_edge4_Node000003_Node000005"><a xlink:title=" ">
<path fill="none" stroke="#63b8ff" d="M643.19,-274.98C658.37,-266.69 681.7,-253.94 699.5,-244.22"/>
<polygon fill="#63b8ff" stroke="#63b8ff" points="701.64,-247.04 708.74,-239.17 698.28,-240.89 701.64,-247.04"/>
</a>
</g>
</g>
<!-- Node6 -->
<g id="Node000006" class="node">
<title>Node6</title>
<g id="a_Node000006"><a xlink:title=" ">
<polygon fill="#e0e0e0" stroke="#999999" points="816.61,-239 766.61,-239 766.61,-220 816.61,-220 816.61,-239"/>
<text text-anchor="middle" x="791.61" y="-227" font-family="Helvetica,sans-Serif" font-size="10.00">cstring</text>
</a>
</g>
</g>
<!-- Node3&#45;&gt;Node6 -->
<g id="edge5_Node000003_Node000006" class="edge">
<title>Node3&#45;&gt;Node6</title>
<g id="a_edge5_Node000003_Node000006"><a xlink:title=" ">
<path fill="none" stroke="#63b8ff" d="M653.95,-274.98C681.78,-265.99 725.78,-251.77 756.52,-241.84"/>
<polygon fill="#63b8ff" stroke="#63b8ff" points="757.96,-245.05 766.4,-238.65 755.81,-238.39 757.96,-245.05"/>
</a>
</g>
</g>
<!-- Node7 -->
<g id="Node000007" class="node">
<title>Node7</title>
<g id="a_Node000007"><a xlink:title=" ">
<polygon fill="#e0e0e0" stroke="#999999" points="898.61,-239 834.61,-239 834.61,-220 898.61,-220 898.61,-239"/>
<text text-anchor="middle" x="866.61" y="-227" font-family="Helvetica,sans-Serif" font-size="10.00">sys/stat.h</text>
</a>
</g>
</g>
<!-- Node3&#45;&gt;Node7 -->
<g id="edge6_Node000003_Node000007" class="edge">
<title>Node3&#45;&gt;Node7</title>
<g id="a_edge6_Node000003_Node000007"><a xlink:title=" ">
<path fill="none" stroke="#63b8ff" d="M666,-274.98C709.34,-265.37 779.62,-249.79 824.44,-239.85"/>
<polygon fill="#63b8ff" stroke="#63b8ff" points="825.43,-243.22 834.43,-237.63 823.91,-236.38 825.43,-243.22"/>
</a>
</g>
</g>
<!-- Node8 -->
<g id="Node000008" class="node">
<title>Node8</title>
<g id="a_Node000008"><a xlink:title=" ">
<polygon fill="#e0e0e0" stroke="#999999" points="660.11,-129 605.11,-129 605.11,-110 660.11,-110 660.11,-129"/>
<text text-anchor="middle" x="632.61" y="-117" font-family="Helvetica,sans-Serif" font-size="10.00">fstream</text>
</a>
</g>
</g>
<!-- Node3&#45;&gt;Node8 -->
<g id="edge7_Node000003_Node000008" class="edge">
<title>Node3&#45;&gt;Node8</title>
<g id="a_edge7_Node000003_Node000008"><a xlink:title=" ">
<path fill="none" stroke="#63b8ff" d="M624.52,-274.79C617.96,-255.07 603.91,-205.55 612.61,-165 614.58,-155.8 618.6,-146.2 622.53,-138.29"/>
<polygon fill="#63b8ff" stroke="#63b8ff" points="625.7,-139.79 627.29,-129.32 619.51,-136.51 625.7,-139.79"/>
</a>
</g>
</g>
<!-- Node9 -->
<g id="Node000009" class="node">
<title>Node9</title>
<g id="a_Node000009"><a xlink:title=" ">
<polygon fill="#e0e0e0" stroke="#999999" points="317.11,-239 252.11,-239 252.11,-220 317.11,-220 317.11,-239"/>
<text text-anchor="middle" x="284.61" y="-227" font-family="Helvetica,sans-Serif" font-size="10.00">stdexcept</text>
</a>
</g>
</g>
<!-- Node3&#45;&gt;Node9 -->
<g id="edge8_Node000003_Node000009" class="edge">
<title>Node3&#45;&gt;Node9</title>
<g id="a_edge8_Node000003_Node000009"><a xlink:title=" ">
<path fill="none" stroke="#63b8ff" d="M568.06,-275.64C509.43,-267.69 417.09,-254.6 327.23,-239.02"/>
<polygon fill="#63b8ff" stroke="#63b8ff" points="327.59,-235.53 317.13,-237.26 326.38,-242.43 327.59,-235.53"/>
</a>
</g>
</g>
<!-- Node10 -->
<g id="Node000010" class="node">
<title>Node10</title>
<g id="a_Node000010"><a xlink:title=" ">
<polygon fill="#e0e0e0" stroke="#999999" points="201.61,-129 141.61,-129 141.61,-110 201.61,-110 201.61,-129"/>
<text text-anchor="middle" x="171.61" y="-117" font-family="Helvetica,sans-Serif" font-size="10.00">iostream</text>
</a>
</g>
</g>
<!-- Node3&#45;&gt;Node10 -->
<g id="edge9_Node000003_Node000010" class="edge">
<title>Node3&#45;&gt;Node10</title>
<g id="a_edge9_Node000003_Node000010"><a xlink:title=" ">
<path fill="none" stroke="#63b8ff" d="M567.99,-283.62C426.36,-282.48 76.4,-270.75 7.61,-184 -27.2,-140.1 72.13,-126.51 131.2,-122.33"/>
<polygon fill="#63b8ff" stroke="#63b8ff" points="131.62,-125.81 141.37,-121.68 131.17,-118.83 131.62,-125.81"/>
</a>
</g>
</g>
<!-- Node11 -->
<g id="Node000011" class="node">
<title>Node11</title>
<g id="a_Node000011"><a xlink:title=" ">
<polygon fill="#e0e0e0" stroke="#999999" points="499.61,-239 427.61,-239 427.61,-220 499.61,-220 499.61,-239"/>
<text text-anchor="middle" x="463.61" y="-227" font-family="Helvetica,sans-Serif" font-size="10.00">sys/types.h</text>
</a>
</g>
</g>
<!-- Node3&#45;&gt;Node11 -->
<g id="edge10_Node000003_Node000011" class="edge">
<title>Node3&#45;&gt;Node11</title>
<g id="a_edge10_Node000003_Node000011"><a xlink:title=" ">
<path fill="none" stroke="#63b8ff" d="M601.26,-274.98C573.84,-266.13 530.71,-252.19 500.04,-242.28"/>
<polygon fill="#63b8ff" stroke="#63b8ff" points="500.75,-238.83 490.16,-239.08 498.6,-245.49 500.75,-238.83"/>
</a>
</g>
</g>
<!-- Node12 -->
<g id="Node000012" class="node">
<title>Node12</title>
<g id="a_Node000012"><a xlink:title=" ">
<polygon fill="#e0e0e0" stroke="#999999" points="571.61,-239 517.61,-239 517.61,-220 571.61,-220 571.61,-239"/>
<text text-anchor="middle" x="544.61" y="-227" font-family="Helvetica,sans-Serif" font-size="10.00">dirent.h</text>
</a>
</g>
</g>
<!-- Node3&#45;&gt;Node12 -->
<g id="edge11_Node000003_Node000012" class="edge">
<title>Node3&#45;&gt;Node12</title>
<g id="a_edge11_Node000003_Node000012"><a xlink:title=" ">
<path fill="none" stroke="#63b8ff" d="M614.27,-274.98C601.52,-266.84 582.05,-254.41 566.93,-244.76"/>
<polygon fill="#63b8ff" stroke="#63b8ff" points="568.5,-241.6 558.18,-239.17 564.73,-247.5 568.5,-241.6"/>
</a>
</g>
</g>
<!-- Node13 -->
<g id="Node000013" class="node">
<title>Node13</title>
<g id="a_Node000013"><a xlink:href="utilities_8hpp.html" target="_top" xlink:title=" ">
<polygon fill="white" stroke="#666666" points="409.61,-239 335.61,-239 335.61,-220 409.61,-220 409.61,-239"/>
<text text-anchor="middle" x="372.61" y="-227" font-family="Helvetica,sans-Serif" font-size="10.00">utilities.hpp</text>
</a>
</g>
</g>
<!-- Node3&#45;&gt;Node13 -->
<g id="edge12_Node000003_Node000013" class="edge">
<title>Node3&#45;&gt;Node13</title>
<g id="a_edge12_Node000003_Node000013"><a xlink:title=" ">
<path fill="none" stroke="#63b8ff" d="M586.64,-274.98C541.03,-265.51 467.45,-250.21 419.55,-240.26"/>
<polygon fill="#63b8ff" stroke="#63b8ff" points="420.25,-236.83 409.74,-238.22 418.82,-243.68 420.25,-236.83"/>
</a>
</g>
</g>
<!-- Node23 -->
<g id="Node000023" class="node">
<title>Node23</title>
<g id="a_Node000023"><a xlink:href="_log_8hpp.html" target="_top" xlink:title=" ">
<polygon fill="white" stroke="#666666" points="683.11,-239 628.11,-239 628.11,-220 683.11,-220 683.11,-239"/>
<text text-anchor="middle" x="655.61" y="-227" font-family="Helvetica,sans-Serif" font-size="10.00">Log.hpp</text>
</a>
</g>
</g>
<!-- Node3&#45;&gt;Node23 -->
<g id="edge25_Node000003_Node000023" class="edge">
<title>Node3&#45;&gt;Node23</title>
<g id="a_edge25_Node000003_Node000023"><a xlink:title=" ">
<path fill="none" stroke="#63b8ff" d="M632.23,-274.75C636.06,-267.49 641.63,-256.95 646.37,-247.98"/>
<polygon fill="#63b8ff" stroke="#63b8ff" points="649.49,-249.57 651.07,-239.09 643.3,-246.3 649.49,-249.57"/>
</a>
</g>
</g>
<!-- Node13&#45;&gt;Node10 -->
<g id="edge21_Node000013_Node000010" class="edge">
<title>Node13&#45;&gt;Node10</title>
<g id="a_edge21_Node000013_Node000010"><a xlink:title=" ">
<path fill="none" stroke="#63b8ff" d="M335.27,-221.39C274.45,-209.73 160.43,-187.46 157.61,-184 147.17,-171.18 153.25,-152.25 160.37,-138.39"/>
<polygon fill="#63b8ff" stroke="#63b8ff" points="163.61,-139.78 165.52,-129.36 157.53,-136.31 163.61,-139.78"/>
</a>
</g>
</g>
<!-- Node14 -->
<g id="Node000014" class="node">
<title>Node14</title>
<g id="a_Node000014"><a xlink:href="_method_8hpp.html" target="_top" xlink:title=" ">
<polygon fill="white" stroke="#666666" points="240.61,-184 166.61,-184 166.61,-165 240.61,-165 240.61,-184"/>
<text text-anchor="middle" x="203.61" y="-172" font-family="Helvetica,sans-Serif" font-size="10.00">Method.hpp</text>
</a>
</g>
</g>
<!-- Node13&#45;&gt;Node14 -->
<g id="edge13_Node000013_Node000014" class="edge">
<title>Node13&#45;&gt;Node14</title>
<g id="a_edge13_Node000013_Node000014"><a xlink:title=" ">
<path fill="none" stroke="#63b8ff" d="M345.45,-219.98C317.08,-211.09 272.37,-197.07 240.74,-187.15"/>
<polygon fill="#63b8ff" stroke="#63b8ff" points="241.56,-183.73 230.97,-184.08 239.47,-190.41 241.56,-183.73"/>
</a>
</g>
</g>
<!-- Node15 -->
<g id="Node000015" class="node">
<title>Node15</title>
<g id="a_Node000015"><a xlink:href="_status_code_8hpp.html" target="_top" xlink:title=" ">
<polygon fill="white" stroke="#666666" points="110.11,-184 17.11,-184 17.11,-165 110.11,-165 110.11,-184"/>
<text text-anchor="middle" x="63.61" y="-172" font-family="Helvetica,sans-Serif" font-size="10.00">StatusCode.hpp</text>
</a>
</g>
</g>
<!-- Node13&#45;&gt;Node15 -->
<g id="edge15_Node000013_Node000015" class="edge">
<title>Node13&#45;&gt;Node15</title>
<g id="a_edge15_Node000013_Node000015"><a xlink:title=" ">
<path fill="none" stroke="#63b8ff" d="M335.41,-221.74C332.1,-221.14 328.79,-220.56 325.61,-220 254.95,-207.61 173.48,-193.86 120.39,-184.96"/>
<polygon fill="#63b8ff" stroke="#63b8ff" points="120.93,-181.51 110.49,-183.31 119.77,-188.41 120.93,-181.51"/>
</a>
</g>
</g>
<!-- Node16 -->
<g id="Node000016" class="node">
<title>Node16</title>
<g id="a_Node000016"><a xlink:href="constants_8hpp.html" target="_top" xlink:title=" ">
<polygon fill="white" stroke="#666666" points="494.11,-184 409.11,-184 409.11,-165 494.11,-165 494.11,-184"/>
<text text-anchor="middle" x="451.61" y="-172" font-family="Helvetica,sans-Serif" font-size="10.00">constants.hpp</text>
</a>
</g>
</g>
<!-- Node13&#45;&gt;Node16 -->
<g id="edge17_Node000013_Node000016" class="edge">
<title>Node13&#45;&gt;Node16</title>
<g id="a_edge17_Node000013_Node000016"><a xlink:title=" ">
<path fill="none" stroke="#63b8ff" d="M385.3,-219.98C397.43,-211.84 415.96,-199.41 430.35,-189.76"/>
<polygon fill="#63b8ff" stroke="#63b8ff" points="432.33,-192.65 438.68,-184.17 428.43,-186.84 432.33,-192.65"/>
</a>
</g>
</g>
<!-- Node13&#45;&gt;Node17 -->
<g id="edge18_Node000013_Node000017" class="edge">
<title>Node13&#45;&gt;Node17</title>
<g id="a_edge18_Node000013_Node000017"><a xlink:title=" ">
<path fill="none" stroke="#63b8ff" d="M409.7,-221.24C412.71,-220.77 415.7,-220.35 418.61,-220 688.21,-187.26 759,-216.74 1028.61,-184 1029.88,-183.85 1031.16,-183.68 1032.46,-183.5"/>
<polygon fill="#63b8ff" stroke="#63b8ff" points="1033.16,-186.93 1042.51,-181.95 1032.1,-180.02 1033.16,-186.93"/>
</a>
</g>
</g>
<!-- Node18 -->
<g id="Node000018" class="node">
<title>Node18</title>
<g id="a_Node000018"><a xlink:title=" ">
<polygon fill="#e0e0e0" stroke="#999999" points="564.61,-184 512.61,-184 512.61,-165 564.61,-165 564.61,-184"/>
<text text-anchor="middle" x="538.61" y="-172" font-family="Helvetica,sans-Serif" font-size="10.00">cassert</text>
</a>
</g>
</g>
<!-- Node13&#45;&gt;Node18 -->
<g id="edge19_Node000013_Node000018" class="edge">
<title>Node13&#45;&gt;Node18</title>
<g id="a_edge19_Node000013_Node000018"><a xlink:title=" ">
<path fill="none" stroke="#63b8ff" d="M399.28,-219.98C427.39,-211.01 471.84,-196.82 502.95,-186.88"/>
<polygon fill="#63b8ff" stroke="#63b8ff" points="504.09,-190.2 512.55,-183.82 501.96,-183.53 504.09,-190.2"/>
</a>
</g>
</g>
<!-- Node19 -->
<g id="Node000019" class="node">
<title>Node19</title>
<g id="a_Node000019"><a xlink:title=" ">
<polygon fill="#e0e0e0" stroke="#999999" points="574.61,-19 530.61,-19 530.61,0 574.61,0 574.61,-19"/>
<text text-anchor="middle" x="552.61" y="-7" font-family="Helvetica,sans-Serif" font-size="10.00">ctime</text>
</a>
</g>
</g>
<!-- Node13&#45;&gt;Node19 -->
<g id="edge20_Node000013_Node000019" class="edge">
<title>Node13&#45;&gt;Node19</title>
<g id="a_edge20_Node000013_Node000019"><a xlink:title=" ">
<path fill="none" stroke="#63b8ff" d="M368.79,-219.73C357.4,-192.04 326.84,-105.4 366.61,-55 385.39,-31.19 472.08,-18.7 520.2,-13.5"/>
<polygon fill="#63b8ff" stroke="#63b8ff" points="520.82,-16.95 530.41,-12.44 520.1,-9.99 520.82,-16.95"/>
</a>
</g>
</g>
<!-- Node20 -->
<g id="Node000020" class="node">
<title>Node20</title>
<g id="a_Node000020"><a xlink:title=" ">
<polygon fill="#e0e0e0" stroke="#999999" points="752.61,-19 696.61,-19 696.61,0 752.61,0 752.61,-19"/>
<text text-anchor="middle" x="724.61" y="-7" font-family="Helvetica,sans-Serif" font-size="10.00">sstream</text>
</a>
</g>
</g>
<!-- Node13&#45;&gt;Node20 -->
<g id="edge22_Node000013_Node000020" class="edge">
<title>Node13&#45;&gt;Node20</title>
<g id="a_edge22_Node000013_Node000020"><a xlink:title=" ">
<path fill="none" stroke="#63b8ff" d="M374.44,-219.59C377.62,-206.19 385.33,-180.73 400.61,-165 482.6,-80.54 619.99,-36.6 686.39,-19.37"/>
<polygon fill="#63b8ff" stroke="#63b8ff" points="687.58,-22.68 696.42,-16.83 685.86,-15.89 687.58,-22.68"/>
</a>
</g>
</g>
<!-- Node21 -->
<g id="Node000021" class="node">
<title>Node21</title>
<g id="a_Node000021"><a xlink:title=" ">
<polygon fill="#e0e0e0" stroke="#999999" points="314.61,-184 258.61,-184 258.61,-165 314.61,-165 314.61,-184"/>
<text text-anchor="middle" x="286.61" y="-172" font-family="Helvetica,sans-Serif" font-size="10.00">unistd.h</text>
</a>
</g>
</g>
<!-- Node13&#45;&gt;Node21 -->
<g id="edge23_Node000013_Node000021" class="edge">
<title>Node13&#45;&gt;Node21</title>
<g id="a_edge23_Node000013_Node000021"><a xlink:title=" ">
<path fill="none" stroke="#63b8ff" d="M358.79,-219.98C345.45,-211.77 325.02,-199.18 309.3,-189.49"/>
<polygon fill="#63b8ff" stroke="#63b8ff" points="311.02,-186.44 300.67,-184.17 307.35,-192.4 311.02,-186.44"/>
</a>
</g>
</g>
<!-- Node13&#45;&gt;Node22 -->
<g id="edge24_Node000013_Node000022" class="edge">
<title>Node13&#45;&gt;Node22</title>
<g id="a_edge24_Node000013_Node000022"><a xlink:title=" ">
<path fill="none" stroke="#63b8ff" d="M409.7,-221.25C412.71,-220.78 415.7,-220.36 418.61,-220 482.36,-212.15 945.3,-223.95 995.61,-184 1008.83,-173.5 1013.14,-154.17 1014.4,-139.58"/>
<polygon fill="#63b8ff" stroke="#63b8ff" points="1017.92,-139.31 1014.88,-129.16 1010.93,-138.99 1017.92,-139.31"/>
</a>
</g>
</g>
<!-- Node14&#45;&gt;Node10 -->
<g id="edge14_Node000014_Node000010" class="edge">
<title>Node14&#45;&gt;Node10</title>
<g id="a_edge14_Node000014_Node000010"><a xlink:title=" ">
<path fill="none" stroke="#63b8ff" d="M198.32,-164.75C193.89,-157.42 187.44,-146.73 181.99,-137.7"/>
<polygon fill="#63b8ff" stroke="#63b8ff" points="184.96,-135.84 176.79,-129.09 178.96,-139.46 184.96,-135.84"/>
</a>
</g>
</g>
<!-- Node15&#45;&gt;Node10 -->
<g id="edge16_Node000015_Node000010" class="edge">
<title>Node15&#45;&gt;Node10</title>
<g id="a_edge16_Node000015_Node000010"><a xlink:title=" ">
<path fill="none" stroke="#63b8ff" d="M80.96,-164.98C98.17,-156.54 124.8,-143.47 144.75,-133.68"/>
<polygon fill="#63b8ff" stroke="#63b8ff" points="146.5,-136.72 153.94,-129.17 143.42,-130.43 146.5,-136.72"/>
</a>
</g>
</g>
<!-- Node24 -->
<g id="Node000024" class="node">
<title>Node24</title>
<g id="a_Node000024"><a xlink:href="_log_outputter_console_8hpp.html" target="_top" xlink:title=" ">
<polygon fill="white" stroke="#666666" points="898.61,-184 758.61,-184 758.61,-165 898.61,-165 898.61,-184"/>
<text text-anchor="middle" x="828.61" y="-172" font-family="Helvetica,sans-Serif" font-size="10.00">LogOutputterConsole.hpp</text>
</a>
</g>
</g>
<!-- Node23&#45;&gt;Node24 -->
<g id="edge26_Node000023_Node000024" class="edge">
<title>Node23&#45;&gt;Node24</title>
<g id="a_edge26_Node000023_Node000024"><a xlink:title=" ">
<path fill="none" stroke="#63b8ff" d="M683.4,-219.98C712.57,-211.05 758.61,-196.94 791.01,-187.02"/>
<polygon fill="#63b8ff" stroke="#63b8ff" points="792.06,-190.36 800.59,-184.08 790.01,-183.66 792.06,-190.36"/>
</a>
</g>
</g>
<!-- Node28 -->
<g id="Node000028" class="node">
<title>Node28</title>
<g id="a_Node000028"><a xlink:href="_log_outputter_file_8hpp.html" target="_top" xlink:title=" ">
<polygon fill="white" stroke="#666666" points="740.11,-184 621.11,-184 621.11,-165 740.11,-165 740.11,-184"/>
<text text-anchor="middle" x="680.61" y="-172" font-family="Helvetica,sans-Serif" font-size="10.00">LogOutputterFile.hpp</text>
</a>
</g>
</g>
<!-- Node23&#45;&gt;Node28 -->
<g id="edge34_Node000023_Node000028" class="edge">
<title>Node23&#45;&gt;Node28</title>
<g id="a_edge34_Node000023_Node000028"><a xlink:title=" ">
<path fill="none" stroke="#63b8ff" d="M659.73,-219.75C663.12,-212.57 668.02,-202.18 672.22,-193.27"/>
<polygon fill="#63b8ff" stroke="#63b8ff" points="675.45,-194.63 676.55,-184.09 669.12,-191.64 675.45,-194.63"/>
</a>
</g>
</g>
<!-- Node29 -->
<g id="Node000029" class="node">
<title>Node29</title>
<g id="a_Node000029"><a xlink:href="_logger_8hpp.html" target="_top" xlink:title=" ">
<polygon fill="white" stroke="#666666" points="986.61,-184 916.61,-184 916.61,-165 986.61,-165 986.61,-184"/>
<text text-anchor="middle" x="951.61" y="-172" font-family="Helvetica,sans-Serif" font-size="10.00">Logger.hpp</text>
</a>
</g>
</g>
<!-- Node23&#45;&gt;Node29 -->
<g id="edge38_Node000023_Node000029" class="edge">
<title>Node23&#45;&gt;Node29</title>
<g id="a_edge38_Node000023_Node000029"><a xlink:title=" ">
<path fill="none" stroke="#63b8ff" d="M683.45,-221.92C686.53,-221.24 689.63,-220.59 692.61,-220 784.48,-201.77 810.54,-201.21 906.42,-184.17"/>
<polygon fill="#63b8ff" stroke="#63b8ff" points="907.33,-187.56 916.56,-182.35 906.09,-180.67 907.33,-187.56"/>
</a>
</g>
</g>
<!-- Node24&#45;&gt;Node10 -->
<g id="edge27_Node000024_Node000010" class="edge">
<title>Node24&#45;&gt;Node10</title>
<g id="a_edge27_Node000024_Node000010"><a xlink:title=" ">
<path fill="none" stroke="#63b8ff" d="M758.41,-165.84C755.43,-165.55 752.49,-165.27 749.61,-165 547.92,-146.39 306.14,-129.54 211.94,-123.18"/>
<polygon fill="#63b8ff" stroke="#63b8ff" points="211.93,-119.67 201.72,-122.49 211.46,-126.66 211.93,-119.67"/>
</a>
</g>
</g>
<!-- Node25 -->
<g id="Node000025" class="node">
<title>Node25</title>
<g id="a_Node000025"><a xlink:title=" ">
<polygon fill="#e0e0e0" stroke="#999999" points="757.61,-129 719.61,-129 719.61,-110 757.61,-110 757.61,-129"/>
<text text-anchor="middle" x="738.61" y="-117" font-family="Helvetica,sans-Serif" font-size="10.00">map</text>
</a>
</g>
</g>
<!-- Node24&#45;&gt;Node25 -->
<g id="edge28_Node000024_Node000025" class="edge">
<title>Node24&#45;&gt;Node25</title>
<g id="a_edge28_Node000024_Node000025"><a xlink:title=" ">
<path fill="none" stroke="#63b8ff" d="M814.15,-164.98C800.19,-156.77 778.81,-144.18 762.36,-134.49"/>
<polygon fill="#63b8ff" stroke="#63b8ff" points="763.72,-131.23 753.33,-129.17 760.17,-137.26 763.72,-131.23"/>
</a>
</g>
</g>
<!-- Node26 -->
<g id="Node000026" class="node">
<title>Node26</title>
<g id="a_Node000026"><a xlink:href="_a_log_outputter_8hpp.html" target="_top" xlink:title=" ">
<polygon fill="white" stroke="#666666" points="883.11,-129 776.11,-129 776.11,-110 883.11,-110 883.11,-129"/>
<text text-anchor="middle" x="829.61" y="-117" font-family="Helvetica,sans-Serif" font-size="10.00">ALogOutputter.hpp</text>
</a>
</g>
</g>
<!-- Node24&#45;&gt;Node26 -->
<g id="edge29_Node000024_Node000026" class="edge">
<title>Node24&#45;&gt;Node26</title>
<g id="a_edge29_Node000024_Node000026"><a xlink:title=" ">
<path fill="none" stroke="#63b8ff" d="M828.77,-164.75C828.9,-157.8 829.09,-147.85 829.25,-139.13"/>
<polygon fill="#63b8ff" stroke="#63b8ff" points="832.75,-139.15 829.44,-129.09 825.76,-139.02 832.75,-139.15"/>
</a>
</g>
</g>
<!-- Node27 -->
<g id="Node000027" class="node">
<title>Node27</title>
<g id="a_Node000027"><a xlink:href="_log_data_8hpp.html" target="_top" xlink:title=" ">
<polygon fill="white" stroke="#666666" points="868.61,-74 790.61,-74 790.61,-55 868.61,-55 868.61,-74"/>
<text text-anchor="middle" x="829.61" y="-62" font-family="Helvetica,sans-Serif" font-size="10.00">LogData.hpp</text>
</a>
</g>
</g>
<!-- Node26&#45;&gt;Node27 -->
<g id="edge30_Node000026_Node000027" class="edge">
<title>Node26&#45;&gt;Node27</title>
<g id="a_edge30_Node000026_Node000027"><a xlink:title=" ">
<path fill="none" stroke="#63b8ff" d="M829.61,-109.75C829.61,-102.8 829.61,-92.85 829.61,-84.13"/>
<polygon fill="#63b8ff" stroke="#63b8ff" points="833.11,-84.09 829.61,-74.09 826.11,-84.09 833.11,-84.09"/>
</a>
</g>
</g>
<!-- Node27&#45;&gt;Node4 -->
<g id="edge33_Node000027_Node000004" class="edge">
<title>Node27&#45;&gt;Node4</title>
<g id="a_edge33_Node000027_Node000004"><a xlink:title=" ">
<path fill="none" stroke="#63b8ff" d="M849.21,-54.98C868.92,-46.42 899.56,-33.11 922.19,-23.28"/>
<polygon fill="#63b8ff" stroke="#63b8ff" points="923.87,-26.37 931.65,-19.17 921.08,-19.94 923.87,-26.37"/>
</a>
</g>
</g>
<!-- Node27&#45;&gt;Node19 -->
<g id="edge31_Node000027_Node000019" class="edge">
<title>Node27&#45;&gt;Node19</title>
<g id="a_edge31_Node000027_Node000019"><a xlink:title=" ">
<path fill="none" stroke="#63b8ff" d="M790.51,-56.02C735.37,-45.47 635.82,-26.42 584.74,-16.65"/>
<polygon fill="#63b8ff" stroke="#63b8ff" points="585.09,-13.15 574.61,-14.71 583.78,-20.03 585.09,-13.15"/>
</a>
</g>
</g>
<!-- Node27&#45;&gt;Node20 -->
<g id="edge32_Node000027_Node000020" class="edge">
<title>Node27&#45;&gt;Node20</title>
<g id="a_edge32_Node000027_Node000020"><a xlink:title=" ">
<path fill="none" stroke="#63b8ff" d="M812.74,-54.98C796,-46.54 770.11,-33.47 750.71,-23.68"/>
<polygon fill="#63b8ff" stroke="#63b8ff" points="752.29,-20.55 741.78,-19.17 749.13,-26.8 752.29,-20.55"/>
</a>
</g>
</g>
<!-- Node28&#45;&gt;Node8 -->
<g id="edge35_Node000028_Node000008" class="edge">
<title>Node28&#45;&gt;Node8</title>
<g id="a_edge35_Node000028_Node000008"><a xlink:title=" ">
<path fill="none" stroke="#63b8ff" d="M672.68,-164.75C665.76,-157.11 655.54,-145.82 647.15,-136.56"/>
<polygon fill="#63b8ff" stroke="#63b8ff" points="649.69,-134.15 640.38,-129.09 644.5,-138.85 649.69,-134.15"/>
</a>
</g>
</g>
<!-- Node28&#45;&gt;Node10 -->
<g id="edge36_Node000028_Node000010" class="edge">
<title>Node28&#45;&gt;Node10</title>
<g id="a_edge36_Node000028_Node000010"><a xlink:title=" ">
<path fill="none" stroke="#63b8ff" d="M620.97,-167.29C516.05,-156.37 301.11,-133.98 211.85,-124.69"/>
<polygon fill="#63b8ff" stroke="#63b8ff" points="212.16,-121.2 201.85,-123.65 211.44,-128.17 212.16,-121.2"/>
</a>
</g>
</g>
<!-- Node28&#45;&gt;Node26 -->
<g id="edge37_Node000028_Node000026" class="edge">
<title>Node28&#45;&gt;Node26</title>
<g id="a_edge37_Node000028_Node000026"><a xlink:title=" ">
<path fill="none" stroke="#63b8ff" d="M704.54,-164.98C729.16,-156.23 767.72,-142.51 795.52,-132.62"/>
<polygon fill="#63b8ff" stroke="#63b8ff" points="796.98,-135.82 805.23,-129.17 794.64,-129.22 796.98,-135.82"/>
</a>
</g>
</g>
<!-- Node29&#45;&gt;Node4 -->
<g id="edge39_Node000029_Node000004" class="edge">
<title>Node29&#45;&gt;Node4</title>
<g id="a_edge39_Node000029_Node000004"><a xlink:title=" ">
<path fill="none" stroke="#63b8ff" d="M951.61,-164.74C951.61,-139.31 951.61,-65.08 951.61,-29.69"/>
<polygon fill="#63b8ff" stroke="#63b8ff" points="955.11,-29.31 951.61,-19.31 948.11,-29.31 955.11,-29.31"/>
</a>
</g>
</g>
<!-- Node29&#45;&gt;Node22 -->
<g id="edge40_Node000029_Node000022" class="edge">
<title>Node29&#45;&gt;Node22</title>
<g id="a_edge40_Node000029_Node000022"><a xlink:title=" ">
<path fill="none" stroke="#63b8ff" d="M961.73,-164.98C971.04,-157.15 985.07,-145.34 996.34,-135.86"/>
<polygon fill="#63b8ff" stroke="#63b8ff" points="998.9,-138.29 1004.3,-129.17 994.39,-132.93 998.9,-138.29"/>
</a>
</g>
</g>
<!-- Node29&#45;&gt;Node26 -->
<g id="edge41_Node000029_Node000026" class="edge">
<title>Node29&#45;&gt;Node26</title>
<g id="a_edge41_Node000029_Node000026"><a xlink:title=" ">
<path fill="none" stroke="#63b8ff" d="M932,-164.98C912.29,-156.42 881.65,-143.11 859.02,-133.28"/>
<polygon fill="#63b8ff" stroke="#63b8ff" points="860.13,-129.94 849.56,-129.17 857.34,-136.37 860.13,-129.94"/>
</a>
</g>
</g>
<!-- Node29&#45;&gt;Node27 -->
<g id="edge42_Node000029_Node000027" class="edge">
<title>Node29&#45;&gt;Node27</title>
<g id="a_edge42_Node000029_Node000027"><a xlink:title=" ">
<path fill="none" stroke="#63b8ff" d="M944.48,-164.75C933.88,-151.98 913,-127.83 892.61,-110 879.87,-98.86 864.36,-87.88 851.92,-79.61"/>
<polygon fill="#63b8ff" stroke="#63b8ff" points="853.77,-76.64 843.48,-74.11 849.95,-82.5 853.77,-76.64"/>
</a>
</g>
</g>
</g>
</svg>

<g id="navigator" transform="translate(0 0)" fill="#404254">
  <rect fill="#f2f5e9" fill-opacity="0.5" stroke="#606060" stroke-width=".5" x="0" y="0" width="60" height="60"/>
  <use id="zoomplus" xlink:href="#zoomPlus" x="17" y="9" onmousedown="handleZoom(evt,'in')"/>
  <use id="zoomminus" xlink:href="#zoomMin" x="42" y="9" onmousedown="handleZoom(evt,'out')"/>
  <use id="reset" xlink:href="#resetDef" x="30" y="36" onmousedown="handleReset()"/>
   <use id="arrowup" xlink:href="#arrowUp" x="0" y="0" onmousedown="handlePan(0,-1)"/>
  <use id="arrowright" xlink:href="#arrowRight" x="0" y="0" onmousedown="handlePan(1,0)"/>
  <use id="arrowdown" xlink:href="#arrowDown" x="0" y="0" onmousedown="handlePan(0,1)"/>
  <use id="arrowleft" xlink:href="#arrowLeft" x="0" y="0" onmousedown="handlePan(-1,0)"/>
</g>
<svg viewBox="0 0 15 15" width="100%" height="30px" preserveAspectRatio="xMaxYMin meet">
 <g id="arrow_out" transform="scale(0.3 0.3)">
  <a xlink:href="_directory_8cpp__incl_org.svg" target="_base">
   <rect id="button" ry="5" rx="5" y="6" x="6" height="38" width="38"
        fill="#f2f5e9" fill-opacity="0.5" stroke="#606060" stroke-width="1.0"/>
   <path id="arrow"
     d="M 11.500037,31.436501 C 11.940474,20.09759 22.043105,11.32322 32.158766,21.979434 L 37.068811,17.246167 C 37.068811,17.246167 37.088388,32 37.088388,32 L 22.160133,31.978069 C 22.160133,31.978069 26.997745,27.140456 26.997745,27.140456 C 18.528582,18.264221 13.291696,25.230495 11.500037,31.436501 z"
     style="fill:#404040;"/>
  </a>
 </g>
</svg>

<style type='text/css'>
<![CDATA[
[data-mouse-over-selected='false'] { opacity: 0.7; }
[data-mouse-over-selected='true']  { opacity: 1.0; }
]]>
</style>
<script type="application/ecmascript"><![CDATA[
document.addEventListener('DOMContentLoaded', (event) => {
  highlightEdges();
  highlightAdjacentNodes();
});
]]></script>
</svg>
