<?xml version="1.0" encoding="UTF-8" standalone="no"?>
<!DOCTYPE svg PUBLIC "-//W3C//DTD SVG 1.1//EN"
 "http://www.w3.org/Graphics/SVG/1.1/DTD/svg11.dtd">
<!-- Generated by graphviz version 2.43.0 (0)
 -->
<!-- Title: inc/EpollWrapper.hpp Pages: 1 -->
<svg width="3135pt" height="214pt"
 viewBox="0.00 0.00 3135.00 214.00" xmlns="http://www.w3.org/2000/svg" xmlns:xlink="http://www.w3.org/1999/xlink">
<g id="graph0" class="graph" transform="scale(1 1) rotate(0) translate(4 210)">
<title>inc/EpollWrapper.hpp</title>
<!-- Node1 -->
<g id="Node000001" class="node">
<title>Node1</title>
<g id="a_Node000001"><a xlink:title=" ">
<polygon fill="#999999" stroke="#666666" points="1488,-206 1369,-206 1369,-187 1488,-187 1488,-206"/>
<text text-anchor="middle" x="1428.5" y="-194" font-family="Helvetica,sans-Serif" font-size="10.00">inc/EpollWrapper.hpp</text>
</a>
</g>
</g>
<!-- Node2 -->
<g id="Node000002" class="node">
<title>Node2</title>
<g id="a_Node000002"><a xlink:href="_mock_epoll_wrapper_8hpp.html" target="_top" xlink:title=" ">
<polygon fill="white" stroke="#666666" points="1351.5,-151 1205.5,-151 1205.5,-132 1351.5,-132 1351.5,-151"/>
<text text-anchor="middle" x="1278.5" y="-139" font-family="Helvetica,sans-Serif" font-size="10.00">inc/MockEpollWrapper.hpp</text>
</a>
</g>
</g>
<!-- Node1&#45;&gt;Node2 -->
<g id="edge1_Node000001_Node000002" class="edge">
<title>Node1&#45;&gt;Node2</title>
<g id="a_edge1_Node000001_Node000002"><a xlink:title=" ">
<path fill="none" stroke="#63b8ff" d="M1394.68,-183.55C1366.82,-173.71 1327.99,-159.98 1303.04,-151.17"/>
<polygon fill="#63b8ff" stroke="#63b8ff" points="1393.81,-186.95 1404.4,-186.98 1396.14,-180.35 1393.81,-186.95"/>
</a>
</g>
</g>
<!-- Node18 -->
<g id="Node000018" class="node">
<title>Node18</title>
<g id="a_Node000018"><a xlink:href="_server_8hpp.html" target="_top" xlink:title=" ">
<polygon fill="white" stroke="#666666" points="1471.5,-151 1385.5,-151 1385.5,-132 1471.5,-132 1471.5,-151"/>
<text text-anchor="middle" x="1428.5" y="-139" font-family="Helvetica,sans-Serif" font-size="10.00">inc/Server.hpp</text>
</a>
</g>
</g>
<!-- Node1&#45;&gt;Node18 -->
<g id="edge17_Node000001_Node000018" class="edge">
<title>Node1&#45;&gt;Node18</title>
<g id="a_edge17_Node000001_Node000018"><a xlink:title=" ">
<path fill="none" stroke="#63b8ff" d="M1428.5,-176.66C1428.5,-167.93 1428.5,-157.99 1428.5,-151.09"/>
<polygon fill="#63b8ff" stroke="#63b8ff" points="1425,-176.75 1428.5,-186.75 1432,-176.75 1425,-176.75"/>
</a>
</g>
</g>
<!-- Node25 -->
<g id="Node000025" class="node">
<title>Node25</title>
<g id="a_Node000025"><a xlink:href="_epoll_wrapper_8cpp.html" target="_top" xlink:title=" ">
<polygon fill="white" stroke="#666666" points="1609,-151 1490,-151 1490,-132 1609,-132 1609,-151"/>
<text text-anchor="middle" x="1549.5" y="-139" font-family="Helvetica,sans-Serif" font-size="10.00">src/EpollWrapper.cpp</text>
</a>
</g>
</g>
<!-- Node1&#45;&gt;Node25 -->
<g id="edge40_Node000001_Node000025" class="edge">
<title>Node1&#45;&gt;Node25</title>
<g id="a_edge40_Node000001_Node000025"><a xlink:title=" ">
<path fill="none" stroke="#63b8ff" d="M1457.27,-182.9C1479.62,-173.11 1510.02,-159.79 1529.71,-151.17"/>
<polygon fill="#63b8ff" stroke="#63b8ff" points="1455.7,-179.77 1447.94,-186.98 1458.5,-186.18 1455.7,-179.77"/>
</a>
</g>
</g>
<!-- Node3 -->
<g id="Node000003" class="node">
<title>Node3</title>
<g id="a_Node000003"><a xlink:href="test__accept_connections_8cpp.html" target="_top" xlink:title=" ">
<polygon fill="white" stroke="#666666" points="2235,-90.5 2038,-90.5 2038,-71.5 2235,-71.5 2235,-90.5"/>
<text text-anchor="middle" x="2136.5" y="-78.5" font-family="Helvetica,sans-Serif" font-size="10.00">test/unit/test_acceptConnections.cpp</text>
</a>
</g>
</g>
<!-- Node2&#45;&gt;Node3 -->
<g id="edge2_Node000002_Node000003" class="edge">
<title>Node2&#45;&gt;Node3</title>
<g id="a_edge2_Node000002_Node000003"><a xlink:title=" ">
<path fill="none" stroke="#63b8ff" d="M1361.78,-133.1C1366.76,-132.71 1371.7,-132.34 1376.5,-132 1665.99,-111.46 1739.51,-122.67 2028.5,-96 2044.22,-94.55 2061.18,-92.56 2076.89,-90.53"/>
<polygon fill="#63b8ff" stroke="#63b8ff" points="1361.22,-129.63 1351.53,-133.91 1361.77,-136.61 1361.22,-129.63"/>
</a>
</g>
</g>
<!-- Node4 -->
<g id="Node000004" class="node">
<title>Node4</title>
<g id="a_Node000004"><a xlink:href="test__check_for_timeout_8cpp.html" target="_top" xlink:title=" ">
<polygon fill="white" stroke="#666666" points="2441.5,-90.5 2253.5,-90.5 2253.5,-71.5 2441.5,-71.5 2441.5,-90.5"/>
<text text-anchor="middle" x="2347.5" y="-78.5" font-family="Helvetica,sans-Serif" font-size="10.00">test/unit/test_checkForTimeout.cpp</text>
</a>
</g>
</g>
<!-- Node2&#45;&gt;Node4 -->
<g id="edge3_Node000002_Node000004" class="edge">
<title>Node2&#45;&gt;Node4</title>
<g id="a_edge3_Node000002_Node000004"><a xlink:title=" ">
<path fill="none" stroke="#63b8ff" d="M1361.78,-133.02C1366.76,-132.65 1371.69,-132.31 1376.5,-132 1761.38,-107.33 1859.32,-129.76 2243.5,-96 2259.11,-94.63 2275.97,-92.6 2291.47,-90.51"/>
<polygon fill="#63b8ff" stroke="#63b8ff" points="1361.22,-129.55 1351.52,-133.8 1361.76,-136.53 1361.22,-129.55"/>
</a>
</g>
</g>
<!-- Node5 -->
<g id="Node000005" class="node">
<title>Node5</title>
<g id="a_Node000005"><a xlink:href="test__connection_receive_body_8cpp.html" target="_top" xlink:title=" ">
<polygon fill="white" stroke="#666666" points="2597,-96 2460,-96 2460,-66 2597,-66 2597,-96"/>
<text text-anchor="start" x="2468" y="-84" font-family="Helvetica,sans-Serif" font-size="10.00">test/unit/test_connection</text>
<text text-anchor="middle" x="2528.5" y="-73" font-family="Helvetica,sans-Serif" font-size="10.00">ReceiveBody.cpp</text>
</a>
</g>
</g>
<!-- Node2&#45;&gt;Node5 -->
<g id="edge4_Node000002_Node000005" class="edge">
<title>Node2&#45;&gt;Node5</title>
<g id="a_edge4_Node000002_Node000005"><a xlink:title=" ">
<path fill="none" stroke="#63b8ff" d="M1361.77,-132.97C1366.75,-132.62 1371.69,-132.29 1376.5,-132 1853.24,-103.36 1975.56,-146.32 2450.5,-96 2453.51,-95.68 2456.58,-95.31 2459.67,-94.91"/>
<polygon fill="#63b8ff" stroke="#63b8ff" points="1361.23,-129.5 1351.52,-133.74 1361.75,-136.48 1361.23,-129.5"/>
</a>
</g>
</g>
<!-- Node6 -->
<g id="Node000006" class="node">
<title>Node6</title>
<g id="a_Node000006"><a xlink:href="test__connection_receive_from_c_g_i_8cpp.html" target="_top" xlink:title=" ">
<polygon fill="white" stroke="#666666" points="137,-96 0,-96 0,-66 137,-66 137,-96"/>
<text text-anchor="start" x="8" y="-84" font-family="Helvetica,sans-Serif" font-size="10.00">test/unit/test_connection</text>
<text text-anchor="middle" x="68.5" y="-73" font-family="Helvetica,sans-Serif" font-size="10.00">ReceiveFromCGI.cpp</text>
</a>
</g>
</g>
<!-- Node2&#45;&gt;Node6 -->
<g id="edge5_Node000002_Node000006" class="edge">
<title>Node2&#45;&gt;Node6</title>
<g id="a_edge5_Node000002_Node000006"><a xlink:title=" ">
<path fill="none" stroke="#63b8ff" d="M1195.25,-141.22C1007.41,-141.99 536.5,-139.01 145.5,-96 142.8,-95.7 140.05,-95.37 137.28,-95"/>
<polygon fill="#63b8ff" stroke="#63b8ff" points="1195.35,-144.72 1205.33,-141.18 1195.32,-137.72 1195.35,-144.72"/>
</a>
</g>
</g>
<!-- Node7 -->
<g id="Node000007" class="node">
<title>Node7</title>
<g id="a_Node000007"><a xlink:href="test__connection_receive_header_8cpp.html" target="_top" xlink:title=" ">
<polygon fill="white" stroke="#666666" points="292,-96 155,-96 155,-66 292,-66 292,-96"/>
<text text-anchor="start" x="163" y="-84" font-family="Helvetica,sans-Serif" font-size="10.00">test/unit/test_connection</text>
<text text-anchor="middle" x="223.5" y="-73" font-family="Helvetica,sans-Serif" font-size="10.00">ReceiveHeader.cpp</text>
</a>
</g>
</g>
<!-- Node2&#45;&gt;Node7 -->
<g id="edge6_Node000002_Node000007" class="edge">
<title>Node2&#45;&gt;Node7</title>
<g id="a_edge6_Node000002_Node000007"><a xlink:title=" ">
<path fill="none" stroke="#63b8ff" d="M1195.15,-140.47C1025.96,-139.59 630.28,-133.31 300.5,-96 297.8,-95.69 295.05,-95.35 292.28,-94.98"/>
<polygon fill="#63b8ff" stroke="#63b8ff" points="1195.22,-143.97 1205.24,-140.52 1195.25,-136.97 1195.22,-143.97"/>
</a>
</g>
</g>
<!-- Node8 -->
<g id="Node000008" class="node">
<title>Node8</title>
<g id="a_Node000008"><a xlink:href="test__connection_send_response_8cpp.html" target="_top" xlink:title=" ">
<polygon fill="white" stroke="#666666" points="447,-96 310,-96 310,-66 447,-66 447,-96"/>
<text text-anchor="start" x="318" y="-84" font-family="Helvetica,sans-Serif" font-size="10.00">test/unit/test_connection</text>
<text text-anchor="middle" x="378.5" y="-73" font-family="Helvetica,sans-Serif" font-size="10.00">SendResponse.cpp</text>
</a>
</g>
</g>
<!-- Node2&#45;&gt;Node8 -->
<g id="edge7_Node000002_Node000008" class="edge">
<title>Node2&#45;&gt;Node8</title>
<g id="a_edge7_Node000002_Node000008"><a xlink:title=" ">
<path fill="none" stroke="#63b8ff" d="M1194.87,-139.45C1045.8,-136.8 724.56,-127.61 455.5,-96 452.8,-95.68 450.05,-95.33 447.28,-94.95"/>
<polygon fill="#63b8ff" stroke="#63b8ff" points="1195.24,-142.96 1205.3,-139.63 1195.36,-135.96 1195.24,-142.96"/>
</a>
</g>
</g>
<!-- Node9 -->
<g id="Node000009" class="node">
<title>Node9</title>
<g id="a_Node000009"><a xlink:href="test__connection_send_to_c_g_i_8cpp.html" target="_top" xlink:title=" ">
<polygon fill="white" stroke="#666666" points="602,-96 465,-96 465,-66 602,-66 602,-96"/>
<text text-anchor="start" x="473" y="-84" font-family="Helvetica,sans-Serif" font-size="10.00">test/unit/test_connection</text>
<text text-anchor="middle" x="533.5" y="-73" font-family="Helvetica,sans-Serif" font-size="10.00">SendToCGI.cpp</text>
</a>
</g>
</g>
<!-- Node2&#45;&gt;Node9 -->
<g id="edge8_Node000002_Node000009" class="edge">
<title>Node2&#45;&gt;Node9</title>
<g id="a_edge8_Node000002_Node000009"><a xlink:title=" ">
<path fill="none" stroke="#63b8ff" d="M1195.07,-137.98C1068.35,-133.47 819.95,-121.93 610.5,-96 607.8,-95.67 605.06,-95.3 602.29,-94.91"/>
<polygon fill="#63b8ff" stroke="#63b8ff" points="1194.98,-141.48 1205.1,-138.33 1195.23,-134.48 1194.98,-141.48"/>
</a>
</g>
</g>
<!-- Node10 -->
<g id="Node000010" class="node">
<title>Node10</title>
<g id="a_Node000010"><a xlink:href="test__create_virtual_server_8cpp.html" target="_top" xlink:title=" ">
<polygon fill="white" stroke="#666666" points="767,-96 620,-96 620,-66 767,-66 767,-96"/>
<text text-anchor="start" x="628" y="-84" font-family="Helvetica,sans-Serif" font-size="10.00">test/unit/test_createVirtual</text>
<text text-anchor="middle" x="693.5" y="-73" font-family="Helvetica,sans-Serif" font-size="10.00">Server.cpp</text>
</a>
</g>
</g>
<!-- Node2&#45;&gt;Node10 -->
<g id="edge9_Node000002_Node000010" class="edge">
<title>Node2&#45;&gt;Node10</title>
<g id="a_edge9_Node000002_Node000010"><a xlink:title=" ">
<path fill="none" stroke="#63b8ff" d="M1195.12,-135.13C1095.34,-128.23 923.33,-114.86 776.5,-96 773.46,-95.61 770.35,-95.19 767.22,-94.74"/>
<polygon fill="#63b8ff" stroke="#63b8ff" points="1194.93,-138.62 1205.14,-135.81 1195.41,-131.64 1194.93,-138.62"/>
</a>
</g>
</g>
<!-- Node11 -->
<g id="Node000011" class="node">
<title>Node11</title>
<g id="a_Node000011"><a xlink:href="test__handle_complete_request_header_8cpp.html" target="_top" xlink:title=" ">
<polygon fill="white" stroke="#666666" points="949.5,-96 785.5,-96 785.5,-66 949.5,-66 949.5,-96"/>
<text text-anchor="start" x="793.5" y="-84" font-family="Helvetica,sans-Serif" font-size="10.00">test/unit/test_handleComplete</text>
<text text-anchor="middle" x="867.5" y="-73" font-family="Helvetica,sans-Serif" font-size="10.00">RequestHeader.cpp</text>
</a>
</g>
</g>
<!-- Node2&#45;&gt;Node11 -->
<g id="edge10_Node000002_Node000011" class="edge">
<title>Node2&#45;&gt;Node11</title>
<g id="a_edge10_Node000002_Node000011"><a xlink:title=" ">
<path fill="none" stroke="#63b8ff" d="M1205.19,-130.61C1140.3,-121.79 1043.05,-108.38 958.5,-96 955.65,-95.58 952.76,-95.16 949.83,-94.72"/>
<polygon fill="#63b8ff" stroke="#63b8ff" points="1204.94,-134.11 1215.32,-131.99 1205.88,-127.17 1204.94,-134.11"/>
</a>
</g>
</g>
<!-- Node12 -->
<g id="Node000012" class="node">
<title>Node12</title>
<g id="a_Node000012"><a xlink:href="test__init_virtual_servers_8cpp.html" target="_top" xlink:title=" ">
<polygon fill="white" stroke="#666666" points="1099.5,-96 967.5,-96 967.5,-66 1099.5,-66 1099.5,-96"/>
<text text-anchor="start" x="975.5" y="-84" font-family="Helvetica,sans-Serif" font-size="10.00">test/unit/test_initVirtual</text>
<text text-anchor="middle" x="1033.5" y="-73" font-family="Helvetica,sans-Serif" font-size="10.00">Servers.cpp</text>
</a>
</g>
</g>
<!-- Node2&#45;&gt;Node12 -->
<g id="edge11_Node000002_Node000012" class="edge">
<title>Node2&#45;&gt;Node12</title>
<g id="a_edge11_Node000002_Node000012"><a xlink:title=" ">
<path fill="none" stroke="#63b8ff" d="M1232.95,-129.62C1193.3,-120.16 1135.56,-106.37 1092.4,-96.06"/>
<polygon fill="#63b8ff" stroke="#63b8ff" points="1232.34,-133.08 1242.87,-131.99 1233.96,-126.27 1232.34,-133.08"/>
</a>
</g>
</g>
<!-- Node13 -->
<g id="Node000013" class="node">
<title>Node13</title>
<g id="a_Node000013"><a xlink:href="test__is_duplicate_server_8cpp.html" target="_top" xlink:title=" ">
<polygon fill="white" stroke="#666666" points="1257,-96 1118,-96 1118,-66 1257,-66 1257,-96"/>
<text text-anchor="start" x="1126" y="-84" font-family="Helvetica,sans-Serif" font-size="10.00">test/unit/test_isDuplicate</text>
<text text-anchor="middle" x="1187.5" y="-73" font-family="Helvetica,sans-Serif" font-size="10.00">Server.cpp</text>
</a>
</g>
</g>
<!-- Node2&#45;&gt;Node13 -->
<g id="edge12_Node000002_Node000013" class="edge">
<title>Node2&#45;&gt;Node13</title>
<g id="a_edge12_Node000002_Node000013"><a xlink:title=" ">
<path fill="none" stroke="#63b8ff" d="M1256.4,-126.29C1242.15,-117.13 1223.68,-105.26 1209.46,-96.11"/>
<polygon fill="#63b8ff" stroke="#63b8ff" points="1254.77,-129.4 1265.07,-131.87 1258.55,-123.52 1254.77,-129.4"/>
</a>
</g>
</g>
<!-- Node14 -->
<g id="Node000014" class="node">
<title>Node14</title>
<g id="a_Node000014"><a xlink:href="test__register_c_g_i_file_descriptor_8cpp.html" target="_top" xlink:title=" ">
<polygon fill="white" stroke="#666666" points="1431.5,-96 1275.5,-96 1275.5,-66 1431.5,-66 1431.5,-96"/>
<text text-anchor="start" x="1283.5" y="-84" font-family="Helvetica,sans-Serif" font-size="10.00">test/unit/test_registerCGIFile</text>
<text text-anchor="middle" x="1353.5" y="-73" font-family="Helvetica,sans-Serif" font-size="10.00">Descriptor.cpp</text>
</a>
</g>
</g>
<!-- Node2&#45;&gt;Node14 -->
<g id="edge13_Node000002_Node000014" class="edge">
<title>Node2&#45;&gt;Node14</title>
<g id="a_edge13_Node000002_Node000014"><a xlink:title=" ">
<path fill="none" stroke="#63b8ff" d="M1297.73,-125.5C1309.33,-116.45 1324.01,-105 1335.4,-96.11"/>
<polygon fill="#63b8ff" stroke="#63b8ff" points="1295.3,-122.96 1289.57,-131.87 1299.6,-128.48 1295.3,-122.96"/>
</a>
</g>
</g>
<!-- Node15 -->
<g id="Node000015" class="node">
<title>Node15</title>
<g id="a_Node000015"><a xlink:href="test__register_connection_8cpp.html" target="_top" xlink:title=" ">
<polygon fill="white" stroke="#666666" points="1647,-90.5 1450,-90.5 1450,-71.5 1647,-71.5 1647,-90.5"/>
<text text-anchor="middle" x="1548.5" y="-78.5" font-family="Helvetica,sans-Serif" font-size="10.00">test/unit/test_registerConnection.cpp</text>
</a>
</g>
</g>
<!-- Node2&#45;&gt;Node15 -->
<g id="edge14_Node000002_Node000015" class="edge">
<title>Node2&#45;&gt;Node15</title>
<g id="a_edge14_Node000002_Node000015"><a xlink:title=" ">
<path fill="none" stroke="#63b8ff" d="M1327.78,-129.82C1379.93,-118.52 1461.18,-100.92 1509.19,-90.52"/>
<polygon fill="#63b8ff" stroke="#63b8ff" points="1326.79,-126.46 1317.76,-131.99 1328.27,-133.3 1326.79,-126.46"/>
</a>
</g>
</g>
<!-- Node16 -->
<g id="Node000016" class="node">
<title>Node16</title>
<g id="a_Node000016"><a xlink:href="test__register_virtual_server_8cpp.html" target="_top" xlink:title=" ">
<polygon fill="white" stroke="#666666" points="1819.5,-96 1665.5,-96 1665.5,-66 1819.5,-66 1819.5,-96"/>
<text text-anchor="start" x="1673.5" y="-84" font-family="Helvetica,sans-Serif" font-size="10.00">test/unit/test_registerVirtual</text>
<text text-anchor="middle" x="1742.5" y="-73" font-family="Helvetica,sans-Serif" font-size="10.00">Server.cpp</text>
</a>
</g>
</g>
<!-- Node2&#45;&gt;Node16 -->
<g id="edge15_Node000002_Node000016" class="edge">
<title>Node2&#45;&gt;Node16</title>
<g id="a_edge15_Node000002_Node000016"><a xlink:title=" ">
<path fill="none" stroke="#63b8ff" d="M1361.65,-131.7C1438.12,-123.37 1554.61,-110.07 1655.5,-96 1658.68,-95.56 1661.93,-95.09 1665.2,-94.61"/>
<polygon fill="#63b8ff" stroke="#63b8ff" points="1361.16,-128.23 1351.59,-132.79 1361.91,-135.19 1361.16,-128.23"/>
</a>
</g>
</g>
<!-- Node17 -->
<g id="Node000017" class="node">
<title>Node17</title>
<g id="a_Node000017"><a xlink:href="test__shutdown_server_8cpp.html" target="_top" xlink:title=" ">
<polygon fill="white" stroke="#666666" points="2019.5,-90.5 1837.5,-90.5 1837.5,-71.5 2019.5,-71.5 2019.5,-90.5"/>
<text text-anchor="middle" x="1928.5" y="-78.5" font-family="Helvetica,sans-Serif" font-size="10.00">test/unit/test_shutdownServer.cpp</text>
</a>
</g>
</g>
<!-- Node2&#45;&gt;Node17 -->
<g id="edge16_Node000002_Node000017" class="edge">
<title>Node2&#45;&gt;Node17</title>
<g id="a_edge16_Node000002_Node000017"><a xlink:title=" ">
<path fill="none" stroke="#63b8ff" d="M1361.79,-133.24C1366.77,-132.81 1371.7,-132.4 1376.5,-132 1577.33,-115.29 1628.18,-117.98 1828.5,-96 1842.61,-94.45 1857.81,-92.48 1871.99,-90.51"/>
<polygon fill="#63b8ff" stroke="#63b8ff" points="1361.21,-129.77 1351.54,-134.11 1361.8,-136.75 1361.21,-129.77"/>
</a>
</g>
</g>
<!-- Node18&#45;&gt;Node3 -->
<g id="edge24_Node000018_Node000003" class="edge">
<title>Node18&#45;&gt;Node3</title>
<g id="a_edge24_Node000018_Node000003"><a xlink:title=" ">
<path fill="none" stroke="#63b8ff" d="M1481.79,-131.97C1724.75,-104.69 1788.89,-119.38 2028.5,-96 2043.93,-94.49 2060.56,-92.52 2076.03,-90.52"/>
<polygon fill="#63b8ff" stroke="#63b8ff" points="1481.13,-128.52 1471.59,-133.13 1481.92,-135.48 1481.13,-128.52"/>
</a>
</g>
</g>
<!-- Node18&#45;&gt;Node4 -->
<g id="edge25_Node000018_Node000004" class="edge">
<title>Node18&#45;&gt;Node4</title>
<g id="a_edge25_Node000018_Node000004"><a xlink:title=" ">
<path fill="none" stroke="#63b8ff" d="M1481.66,-132.02C1819.86,-97.14 1908.7,-126.38 2243.5,-96 2258.92,-94.6 2275.57,-92.59 2290.93,-90.52"/>
<polygon fill="#63b8ff" stroke="#63b8ff" points="1481.16,-128.55 1471.58,-133.07 1481.89,-135.51 1481.16,-128.55"/>
</a>
</g>
</g>
<!-- Node18&#45;&gt;Node5 -->
<g id="edge26_Node000018_Node000005" class="edge">
<title>Node18&#45;&gt;Node5</title>
<g id="a_edge26_Node000018_Node000005"><a xlink:title=" ">
<path fill="none" stroke="#63b8ff" d="M1481.79,-132.02C1911.54,-89.94 2024.93,-141.86 2450.5,-96 2453.51,-95.68 2456.58,-95.3 2459.67,-94.89"/>
<polygon fill="#63b8ff" stroke="#63b8ff" points="1481.18,-128.56 1471.58,-133.03 1481.87,-135.53 1481.18,-128.56"/>
</a>
</g>
</g>
<!-- Node18&#45;&gt;Node6 -->
<g id="edge27_Node000018_Node000006" class="edge">
<title>Node18&#45;&gt;Node6</title>
<g id="a_edge27_Node000018_Node000006"><a xlink:title=" ">
<path fill="none" stroke="#63b8ff" d="M1375.23,-133.35C1370.26,-132.83 1365.29,-132.37 1360.5,-132 821.86,-90.45 682.78,-152.48 145.5,-96 142.8,-95.72 140.05,-95.39 137.27,-95.03"/>
<polygon fill="#63b8ff" stroke="#63b8ff" points="1375.07,-136.86 1385.4,-134.49 1375.84,-129.9 1375.07,-136.86"/>
</a>
</g>
</g>
<!-- Node18&#45;&gt;Node7 -->
<g id="edge28_Node000018_Node000007" class="edge">
<title>Node18&#45;&gt;Node7</title>
<g id="a_edge28_Node000018_Node000007"><a xlink:title=" ">
<path fill="none" stroke="#63b8ff" d="M1375.23,-133.38C1370.26,-132.85 1365.29,-132.38 1360.5,-132 890.59,-94.73 769.19,-146.3 300.5,-96 297.8,-95.71 295.05,-95.38 292.27,-95.02"/>
<polygon fill="#63b8ff" stroke="#63b8ff" points="1375.07,-136.88 1385.39,-134.52 1375.85,-129.92 1375.07,-136.88"/>
</a>
</g>
</g>
<!-- Node18&#45;&gt;Node8 -->
<g id="edge29_Node000018_Node000008" class="edge">
<title>Node18&#45;&gt;Node8</title>
<g id="a_edge29_Node000018_Node000008"><a xlink:title=" ">
<path fill="none" stroke="#63b8ff" d="M1375.23,-133.41C1370.26,-132.87 1365.29,-132.39 1360.5,-132 959.31,-99.01 855.62,-140.11 455.5,-96 452.8,-95.7 450.05,-95.37 447.28,-95"/>
<polygon fill="#63b8ff" stroke="#63b8ff" points="1375.06,-136.91 1385.39,-134.55 1375.85,-129.95 1375.06,-136.91"/>
</a>
</g>
</g>
<!-- Node18&#45;&gt;Node9 -->
<g id="edge30_Node000018_Node000009" class="edge">
<title>Node18&#45;&gt;Node9</title>
<g id="a_edge30_Node000018_Node000009"><a xlink:title=" ">
<path fill="none" stroke="#63b8ff" d="M1375.23,-133.45C1370.25,-132.91 1365.29,-132.41 1360.5,-132 1028.02,-103.28 942.05,-133.93 610.5,-96 607.8,-95.69 605.05,-95.35 602.28,-94.97"/>
<polygon fill="#63b8ff" stroke="#63b8ff" points="1375.05,-136.95 1385.39,-134.61 1375.85,-130 1375.05,-136.95"/>
</a>
</g>
</g>
<!-- Node18&#45;&gt;Node10 -->
<g id="edge31_Node000018_Node000010" class="edge">
<title>Node18&#45;&gt;Node10</title>
<g id="a_edge31_Node000018_Node000010"><a xlink:title=" ">
<path fill="none" stroke="#63b8ff" d="M1375.22,-133.52C1370.25,-132.96 1365.28,-132.45 1360.5,-132 1101.57,-107.86 1034.85,-125.67 776.5,-96 773.45,-95.65 770.34,-95.26 767.21,-94.85"/>
<polygon fill="#63b8ff" stroke="#63b8ff" points="1375.04,-137.02 1385.38,-134.7 1375.85,-130.07 1375.04,-137.02"/>
</a>
</g>
</g>
<!-- Node18&#45;&gt;Node11 -->
<g id="edge32_Node000018_Node000011" class="edge">
<title>Node18&#45;&gt;Node11</title>
<g id="a_edge32_Node000018_Node000011"><a xlink:title=" ">
<path fill="none" stroke="#63b8ff" d="M1375.21,-133.66C1370.24,-133.07 1365.28,-132.51 1360.5,-132 1182.14,-112.87 1136.57,-117.65 958.5,-96 955.64,-95.65 952.74,-95.29 949.81,-94.9"/>
<polygon fill="#63b8ff" stroke="#63b8ff" points="1375.01,-137.16 1385.36,-134.88 1375.85,-130.21 1375.01,-137.16"/>
</a>
</g>
</g>
<!-- Node18&#45;&gt;Node12 -->
<g id="edge33_Node000018_Node000012" class="edge">
<title>Node18&#45;&gt;Node12</title>
<g id="a_edge33_Node000018_Node000012"><a xlink:title=" ">
<path fill="none" stroke="#63b8ff" d="M1375.26,-133.86C1311.66,-125.76 1202.11,-111.24 1108.5,-96 1105.62,-95.53 1102.69,-95.04 1099.72,-94.53"/>
<polygon fill="#63b8ff" stroke="#63b8ff" points="1375.08,-137.37 1385.44,-135.16 1375.97,-130.43 1375.08,-137.37"/>
</a>
</g>
</g>
<!-- Node18&#45;&gt;Node13 -->
<g id="edge34_Node000018_Node000013" class="edge">
<title>Node18&#45;&gt;Node13</title>
<g id="a_edge34_Node000018_Node000013"><a xlink:title=" ">
<path fill="none" stroke="#63b8ff" d="M1383.45,-129.56C1344.45,-120.1 1287.81,-106.35 1245.44,-96.06"/>
<polygon fill="#63b8ff" stroke="#63b8ff" points="1382.91,-133.04 1393.46,-131.99 1384.56,-126.23 1382.91,-133.04"/>
</a>
</g>
</g>
<!-- Node18&#45;&gt;Node14 -->
<g id="edge35_Node000018_Node000014" class="edge">
<title>Node18&#45;&gt;Node14</title>
<g id="a_edge35_Node000018_Node000014"><a xlink:title=" ">
<path fill="none" stroke="#63b8ff" d="M1409.27,-125.5C1397.67,-116.45 1382.99,-105 1371.6,-96.11"/>
<polygon fill="#63b8ff" stroke="#63b8ff" points="1407.4,-128.48 1417.43,-131.87 1411.7,-122.96 1407.4,-128.48"/>
</a>
</g>
</g>
<!-- Node18&#45;&gt;Node15 -->
<g id="edge36_Node000018_Node000015" class="edge">
<title>Node18&#45;&gt;Node15</title>
<g id="a_edge36_Node000018_Node000015"><a xlink:title=" ">
<path fill="none" stroke="#63b8ff" d="M1455.2,-127.48C1478.33,-116.21 1511.11,-100.23 1531.03,-90.52"/>
<polygon fill="#63b8ff" stroke="#63b8ff" points="1453.4,-124.47 1445.95,-131.99 1456.47,-130.76 1453.4,-124.47"/>
</a>
</g>
</g>
<!-- Node18&#45;&gt;Node16 -->
<g id="edge37_Node000018_Node000016" class="edge">
<title>Node18&#45;&gt;Node16</title>
<g id="a_edge37_Node000018_Node000016"><a xlink:title=" ">
<path fill="none" stroke="#63b8ff" d="M1481.64,-130.6C1532.56,-121.11 1609.93,-106.7 1667.2,-96.03"/>
<polygon fill="#63b8ff" stroke="#63b8ff" points="1480.69,-127.22 1471.5,-132.49 1481.97,-134.1 1480.69,-127.22"/>
</a>
</g>
</g>
<!-- Node18&#45;&gt;Node17 -->
<g id="edge39_Node000018_Node000017" class="edge">
<title>Node18&#45;&gt;Node17</title>
<g id="a_edge39_Node000018_Node000017"><a xlink:title=" ">
<path fill="none" stroke="#63b8ff" d="M1481.94,-131.88C1636.38,-111.58 1677.46,-114.38 1828.5,-96 1841.99,-94.36 1856.47,-92.43 1870.12,-90.53"/>
<polygon fill="#63b8ff" stroke="#63b8ff" points="1481.05,-128.47 1471.6,-133.25 1481.97,-135.41 1481.05,-128.47"/>
</a>
</g>
</g>
<!-- Node19 -->
<g id="Node000019" class="node">
<title>Node19</title>
<g id="a_Node000019"><a xlink:href="_config_file_parser_8hpp.html" target="_top" xlink:title=" ">
<polygon fill="white" stroke="#666666" points="3052.5,-90.5 2920.5,-90.5 2920.5,-71.5 3052.5,-71.5 3052.5,-90.5"/>
<text text-anchor="middle" x="2986.5" y="-78.5" font-family="Helvetica,sans-Serif" font-size="10.00">inc/ConfigFileParser.hpp</text>
</a>
</g>
</g>
<!-- Node18&#45;&gt;Node19 -->
<g id="edge18_Node000018_Node000019" class="edge">
<title>Node18&#45;&gt;Node19</title>
<g id="a_edge18_Node000018_Node000019"><a xlink:title=" ">
<path fill="none" stroke="#63b8ff" d="M1481.88,-132.03C2115.7,-73.51 2282.19,-162.22 2911.5,-96 2923.22,-94.77 2935.86,-92.7 2947.36,-90.53"/>
<polygon fill="#63b8ff" stroke="#63b8ff" points="1481.2,-128.58 1471.57,-132.99 1481.85,-135.55 1481.2,-128.58"/>
</a>
</g>
</g>
<!-- Node21 -->
<g id="Node000021" class="node">
<title>Node21</title>
<g id="a_Node000021"><a xlink:href="main_8cpp.html" target="_top" xlink:title=" ">
<polygon fill="white" stroke="#666666" points="2784,-24.5 2705,-24.5 2705,-5.5 2784,-5.5 2784,-24.5"/>
<text text-anchor="middle" x="2744.5" y="-12.5" font-family="Helvetica,sans-Serif" font-size="10.00">src/main.cpp</text>
</a>
</g>
</g>
<!-- Node18&#45;&gt;Node21 -->
<g id="edge23_Node000018_Node000021" class="edge">
<title>Node18&#45;&gt;Node21</title>
<g id="a_edge23_Node000018_Node000021"><a xlink:title=" ">
<path fill="none" stroke="#63b8ff" d="M1481.68,-132.18C1644.25,-120.68 2490.4,-137.21 2605.5,-96 2626.09,-88.63 2625.97,-77.61 2644.5,-66 2671.15,-49.31 2704.11,-33.72 2724.73,-24.52"/>
<polygon fill="#63b8ff" stroke="#63b8ff" points="1481.25,-128.7 1471.57,-133.02 1481.83,-135.68 1481.25,-128.7"/>
</a>
</g>
</g>
<!-- Node23 -->
<g id="Node000023" class="node">
<title>Node23</title>
<g id="a_Node000023"><a xlink:href="_server_8cpp.html" target="_top" xlink:title=" ">
<polygon fill="white" stroke="#666666" points="2739,-90.5 2654,-90.5 2654,-71.5 2739,-71.5 2739,-90.5"/>
<text text-anchor="middle" x="2696.5" y="-78.5" font-family="Helvetica,sans-Serif" font-size="10.00">src/Server.cpp</text>
</a>
</g>
</g>
<!-- Node18&#45;&gt;Node23 -->
<g id="edge22_Node000018_Node000023" class="edge">
<title>Node18&#45;&gt;Node23</title>
<g id="a_edge22_Node000018_Node000023"><a xlink:title=" ">
<path fill="none" stroke="#63b8ff" d="M1481.84,-132.03C1995.26,-83.42 2132.26,-165.39 2639.5,-96 2648.49,-94.77 2658.11,-92.7 2666.85,-90.53"/>
<polygon fill="#63b8ff" stroke="#63b8ff" points="1481.19,-128.57 1471.57,-133.01 1481.86,-135.54 1481.19,-128.57"/>
</a>
</g>
</g>
<!-- Node24 -->
<g id="Node000024" class="node">
<title>Node24</title>
<g id="a_Node000024"><a xlink:href="test__select_server_config_8cpp.html" target="_top" xlink:title=" ">
<polygon fill="white" stroke="#666666" points="2902,-96 2757,-96 2757,-66 2902,-66 2902,-96"/>
<text text-anchor="start" x="2765" y="-84" font-family="Helvetica,sans-Serif" font-size="10.00">test/unit/test_selectServer</text>
<text text-anchor="middle" x="2829.5" y="-73" font-family="Helvetica,sans-Serif" font-size="10.00">Config.cpp</text>
</a>
</g>
</g>
<!-- Node18&#45;&gt;Node24 -->
<g id="edge38_Node000018_Node000024" class="edge">
<title>Node18&#45;&gt;Node24</title>
<g id="a_edge38_Node000018_Node000024"><a xlink:title=" ">
<path fill="none" stroke="#63b8ff" d="M1481.54,-132.06C2043.01,-79.29 2190.19,-151.22 2747.5,-96 2750.52,-95.7 2753.59,-95.36 2756.69,-94.98"/>
<polygon fill="#63b8ff" stroke="#63b8ff" points="1481.2,-128.58 1471.57,-133 1481.86,-135.54 1481.2,-128.58"/>
</a>
</g>
</g>
<!-- Node20 -->
<g id="Node000020" class="node">
<title>Node20</title>
<g id="a_Node000020"><a xlink:href="_config_file_parser_8cpp.html" target="_top" xlink:title=" ">
<polygon fill="white" stroke="#666666" points="3127,-24.5 2996,-24.5 2996,-5.5 3127,-5.5 3127,-24.5"/>
<text text-anchor="middle" x="3061.5" y="-12.5" font-family="Helvetica,sans-Serif" font-size="10.00">src/ConfigFileParser.cpp</text>
</a>
</g>
</g>
<!-- Node19&#45;&gt;Node20 -->
<g id="edge19_Node000019_Node000020" class="edge">
<title>Node19&#45;&gt;Node20</title>
<g id="a_edge19_Node000019_Node000020"><a xlink:title=" ">
<path fill="none" stroke="#63b8ff" d="M3004.45,-64.68C3019.01,-52.26 3039.02,-35.18 3051.06,-24.91"/>
<polygon fill="#63b8ff" stroke="#63b8ff" points="3001.95,-62.22 2996.61,-71.37 3006.49,-67.54 3001.95,-62.22"/>
</a>
</g>
</g>
<!-- Node19&#45;&gt;Node21 -->
<g id="edge20_Node000019_Node000021" class="edge">
<title>Node19&#45;&gt;Node21</title>
<g id="a_edge20_Node000019_Node000021"><a xlink:title=" ">
<path fill="none" stroke="#63b8ff" d="M2944.39,-68.86C2896.66,-56.24 2819.88,-35.94 2776.69,-24.51"/>
<polygon fill="#63b8ff" stroke="#63b8ff" points="2943.55,-72.26 2954.11,-71.44 2945.34,-65.49 2943.55,-72.26"/>
</a>
</g>
</g>
<!-- Node22 -->
<g id="Node000022" class="node">
<title>Node22</title>
<g id="a_Node000022"><a xlink:href="test___config_file_parser_8cpp.html" target="_top" xlink:title=" ">
<polygon fill="white" stroke="#666666" points="2977.5,-30 2845.5,-30 2845.5,0 2977.5,0 2977.5,-30"/>
<text text-anchor="start" x="2853.5" y="-18" font-family="Helvetica,sans-Serif" font-size="10.00">test/unit/test_ConfigFile</text>
<text text-anchor="middle" x="2911.5" y="-7" font-family="Helvetica,sans-Serif" font-size="10.00">Parser.cpp</text>
</a>
</g>
</g>
<!-- Node19&#45;&gt;Node22 -->
<g id="edge21_Node000019_Node000022" class="edge">
<title>Node19&#45;&gt;Node22</title>
<g id="a_edge21_Node000019_Node000022"><a xlink:title=" ">
<path fill="none" stroke="#63b8ff" d="M2968.59,-64.71C2956.28,-54.21 2940.05,-40.36 2928.04,-30.12"/>
<polygon fill="#63b8ff" stroke="#63b8ff" points="2966.51,-67.54 2976.39,-71.37 2971.05,-62.22 2966.51,-67.54"/>
</a>
</g>
</g>
</g>
</svg>
