<?xml version="1.0" encoding="UTF-8" standalone="no"?>
<!DOCTYPE svg PUBLIC "-//W3C//DTD SVG 1.1//EN"
 "http://www.w3.org/Graphics/SVG/1.1/DTD/svg11.dtd">
<!-- Generated by graphviz version 2.43.0 (0)
 -->
<!-- Title: inc/FileSystemPolicy.hpp Pages: 1 -->
<svg width="3115pt" height="442pt"
 viewBox="0.00 0.00 3114.50 442.00" xmlns="http://www.w3.org/2000/svg" xmlns:xlink="http://www.w3.org/1999/xlink">
<g id="graph0" class="graph" transform="scale(1 1) rotate(0) translate(4 438)">
<title>inc/FileSystemPolicy.hpp</title>
<!-- Node1 -->
<g id="node1" class="node">
<title>Node1</title>
<g id="a_node1"><a xlink:title=" ">
<polygon fill="#bfbfbf" stroke="black" points="1609.5,-414.5 1609.5,-433.5 1746.5,-433.5 1746.5,-414.5 1609.5,-414.5"/>
<text text-anchor="middle" x="1678" y="-421.5" font-family="Helvetica,sans-Serif" font-size="10.00">inc/FileSystemPolicy.hpp</text>
</a>
</g>
</g>
<!-- Node2 -->
<g id="node2" class="node">
<title>Node2</title>
<g id="a_node2"><a xlink:href="_autoindex_handler_8hpp.html" target="_top" xlink:title=" ">
<polygon fill="none" stroke="black" points="1695,-302.5 1695,-321.5 1837,-321.5 1837,-302.5 1695,-302.5"/>
<text text-anchor="middle" x="1766" y="-309.5" font-family="Helvetica,sans-Serif" font-size="10.00">inc/AutoindexHandler.hpp</text>
</a>
</g>
</g>
<!-- Node1&#45;&gt;Node2 -->
<g id="edge1" class="edge">
<title>Node1&#45;&gt;Node2</title>
<path fill="none" stroke="midnightblue" d="M1686.48,-405.23C1693.42,-391.61 1704.03,-372.7 1716,-358 1727.51,-343.87 1743.56,-330.25 1754.34,-321.77"/>
<polygon fill="midnightblue" stroke="midnightblue" points="1683.21,-403.95 1681.92,-414.47 1689.49,-407.05 1683.21,-403.95"/>
</g>
<!-- Node3 -->
<g id="node3" class="node">
<title>Node3</title>
<g id="a_node3"><a xlink:href="_response_body_handler_8hpp.html" target="_top" xlink:title=" ">
<polygon fill="none" stroke="black" points="1576,-241 1576,-260 1740,-260 1740,-241 1576,-241"/>
<text text-anchor="middle" x="1658" y="-248" font-family="Helvetica,sans-Serif" font-size="10.00">inc/ResponseBodyHandler.hpp</text>
</a>
</g>
</g>
<!-- Node1&#45;&gt;Node3 -->
<g id="edge38" class="edge">
<title>Node1&#45;&gt;Node3</title>
<path fill="none" stroke="midnightblue" d="M1675.77,-403.85C1671.44,-366.73 1662.06,-286.33 1658.99,-260.02"/>
<polygon fill="midnightblue" stroke="midnightblue" points="1672.35,-404.73 1676.98,-414.26 1679.3,-403.92 1672.35,-404.73"/>
</g>
<!-- Node4 -->
<g id="node4" class="node">
<title>Node4</title>
<g id="a_node4"><a xlink:href="_response_builder_8hpp.html" target="_top" xlink:title=" ">
<polygon fill="none" stroke="black" points="1576,-179.5 1576,-198.5 1712,-198.5 1712,-179.5 1576,-179.5"/>
<text text-anchor="middle" x="1644" y="-186.5" font-family="Helvetica,sans-Serif" font-size="10.00">inc/ResponseBuilder.hpp</text>
</a>
</g>
</g>
<!-- Node1&#45;&gt;Node4 -->
<g id="edge39" class="edge">
<title>Node1&#45;&gt;Node4</title>
<path fill="none" stroke="midnightblue" d="M1606.48,-412.54C1526.37,-396.55 1400.37,-357.57 1344,-266 1336.78,-254.27 1335.01,-245.44 1344,-235 1373.3,-200.98 1496.64,-192.31 1575.77,-190.32"/>
<polygon fill="midnightblue" stroke="midnightblue" points="1606.02,-416.02 1616.5,-414.47 1607.34,-409.15 1606.02,-416.02"/>
</g>
<!-- Node5 -->
<g id="node5" class="node">
<title>Node5</title>
<g id="a_node5"><a xlink:href="_server_8hpp.html" target="_top" xlink:title=" ">
<polygon fill="none" stroke="black" points="1488,-123.5 1488,-142.5 1574,-142.5 1574,-123.5 1488,-123.5"/>
<text text-anchor="middle" x="1531" y="-130.5" font-family="Helvetica,sans-Serif" font-size="10.00">inc/Server.hpp</text>
</a>
</g>
</g>
<!-- Node1&#45;&gt;Node5 -->
<g id="edge40" class="edge">
<title>Node1&#45;&gt;Node5</title>
<path fill="none" stroke="midnightblue" d="M1599.09,-416.79C1485.13,-405.61 1288,-377.02 1288,-313 1288,-313 1288,-313 1288,-249.5 1288,-162.03 1418.01,-140.73 1487.84,-135.59"/>
<polygon fill="midnightblue" stroke="midnightblue" points="1598.89,-420.29 1609.17,-417.75 1599.55,-413.32 1598.89,-420.29"/>
</g>
<!-- Node31 -->
<g id="node31" class="node">
<title>Node31</title>
<g id="a_node31"><a xlink:href="_directory_8hpp.html" target="_top" xlink:title=" ">
<polygon fill="none" stroke="black" points="1725,-358.5 1725,-377.5 1823,-377.5 1823,-358.5 1725,-358.5"/>
<text text-anchor="middle" x="1774" y="-365.5" font-family="Helvetica,sans-Serif" font-size="10.00">inc/Directory.hpp</text>
</a>
</g>
</g>
<!-- Node1&#45;&gt;Node31 -->
<g id="edge31" class="edge">
<title>Node1&#45;&gt;Node31</title>
<path fill="none" stroke="midnightblue" d="M1702.57,-409.18C1720.24,-399.24 1743.51,-386.15 1758.61,-377.65"/>
<polygon fill="midnightblue" stroke="midnightblue" points="1700.42,-406.37 1693.42,-414.32 1703.86,-412.47 1700.42,-406.37"/>
</g>
<!-- Node33 -->
<g id="node33" class="node">
<title>Node33</title>
<g id="a_node33"><a xlink:href="_mock_file_system_policy_8hpp.html" target="_top" xlink:title=" ">
<polygon fill="none" stroke="black" points="2019.5,-302.5 2019.5,-321.5 2182.5,-321.5 2182.5,-302.5 2019.5,-302.5"/>
<text text-anchor="middle" x="2101" y="-309.5" font-family="Helvetica,sans-Serif" font-size="10.00">inc/MockFileSystemPolicy.hpp</text>
</a>
</g>
</g>
<!-- Node1&#45;&gt;Node33 -->
<g id="edge34" class="edge">
<title>Node1&#45;&gt;Node33</title>
<path fill="none" stroke="midnightblue" d="M1724.87,-411.91C1755.82,-403.96 1796.97,-392.17 1832,-378 1849.69,-370.84 1852,-364.34 1870,-358 1921.64,-339.82 1982.51,-328.35 2028.8,-321.53"/>
<polygon fill="midnightblue" stroke="midnightblue" points="1723.63,-408.62 1714.79,-414.46 1725.34,-415.4 1723.63,-408.62"/>
</g>
<!-- Node35 -->
<g id="node35" class="node">
<title>Node35</title>
<g id="a_node35"><a xlink:href="_target_resource_handler_8hpp.html" target="_top" xlink:title=" ">
<polygon fill="none" stroke="black" points="1464.5,-302.5 1464.5,-321.5 1631.5,-321.5 1631.5,-302.5 1464.5,-302.5"/>
<text text-anchor="middle" x="1548" y="-309.5" font-family="Helvetica,sans-Serif" font-size="10.00">inc/TargetResourceHandler.hpp</text>
</a>
</g>
</g>
<!-- Node1&#45;&gt;Node35 -->
<g id="edge41" class="edge">
<title>Node1&#45;&gt;Node35</title>
<path fill="none" stroke="midnightblue" d="M1660.05,-407.82C1632.37,-384.39 1580.13,-340.19 1558.15,-321.59"/>
<polygon fill="midnightblue" stroke="midnightblue" points="1657.9,-410.58 1667.8,-414.37 1662.43,-405.24 1657.9,-410.58"/>
</g>
<!-- Node37 -->
<g id="node37" class="node">
<title>Node37</title>
<g id="a_node37"><a xlink:href="_file_system_policy_8cpp.html" target="_top" xlink:title=" ">
<polygon fill="none" stroke="black" points="1879,-358.5 1879,-377.5 2015,-377.5 2015,-358.5 1879,-358.5"/>
<text text-anchor="middle" x="1947" y="-365.5" font-family="Helvetica,sans-Serif" font-size="10.00">src/FileSystemPolicy.cpp</text>
</a>
</g>
</g>
<!-- Node1&#45;&gt;Node37 -->
<g id="edge46" class="edge">
<title>Node1&#45;&gt;Node37</title>
<path fill="none" stroke="midnightblue" d="M1730.44,-412.47C1781.28,-402.27 1857.44,-386.98 1904.58,-377.52"/>
<polygon fill="midnightblue" stroke="midnightblue" points="1729.74,-409.04 1720.62,-414.44 1731.12,-415.91 1729.74,-409.04"/>
</g>
<!-- Node2&#45;&gt;Node3 -->
<g id="edge2" class="edge">
<title>Node2&#45;&gt;Node3</title>
<path fill="none" stroke="midnightblue" d="M1741.6,-297.56C1720.7,-286.04 1691.24,-269.81 1673.45,-260.01"/>
<polygon fill="midnightblue" stroke="midnightblue" points="1740.08,-300.72 1750.53,-302.48 1743.46,-294.58 1740.08,-300.72"/>
</g>
<!-- Node29 -->
<g id="node29" class="node">
<title>Node29</title>
<g id="a_node29"><a xlink:href="_autoindex_handler_8cpp.html" target="_top" xlink:title=" ">
<polygon fill="none" stroke="black" points="1758.5,-241 1758.5,-260 1899.5,-260 1899.5,-241 1758.5,-241"/>
<text text-anchor="middle" x="1829" y="-248" font-family="Helvetica,sans-Serif" font-size="10.00">src/AutoindexHandler.cpp</text>
</a>
</g>
</g>
<!-- Node2&#45;&gt;Node29 -->
<g id="edge29" class="edge">
<title>Node2&#45;&gt;Node29</title>
<path fill="none" stroke="midnightblue" d="M1782.6,-295.32C1794.57,-284.02 1810.27,-269.19 1819.99,-260.01"/>
<polygon fill="midnightblue" stroke="midnightblue" points="1779.89,-293.06 1775.03,-302.48 1784.7,-298.15 1779.89,-293.06"/>
</g>
<!-- Node30 -->
<g id="node30" class="node">
<title>Node30</title>
<g id="a_node30"><a xlink:href="test___autoindex_handler_8cpp.html" target="_top" xlink:title=" ">
<polygon fill="none" stroke="black" points="2073,-241 2073,-260 2243,-260 2243,-241 2073,-241"/>
<text text-anchor="middle" x="2158" y="-248" font-family="Helvetica,sans-Serif" font-size="10.00">test/test_AutoindexHandler.cpp</text>
</a>
</g>
</g>
<!-- Node2&#45;&gt;Node30 -->
<g id="edge30" class="edge">
<title>Node2&#45;&gt;Node30</title>
<path fill="none" stroke="midnightblue" d="M1833.02,-300.94C1893.43,-291.86 1984.67,-278.11 2064,-266 2076.57,-264.08 2090.08,-262.01 2102.83,-260.04"/>
<polygon fill="midnightblue" stroke="midnightblue" points="1832.23,-297.52 1822.86,-302.47 1833.27,-304.44 1832.23,-297.52"/>
</g>
<!-- Node3&#45;&gt;Node4 -->
<g id="edge3" class="edge">
<title>Node3&#45;&gt;Node4</title>
<path fill="none" stroke="midnightblue" d="M1653.68,-231.16C1651.12,-220.27 1648,-206.99 1646,-198.51"/>
<polygon fill="midnightblue" stroke="midnightblue" points="1650.3,-232.04 1655.99,-240.98 1657.11,-230.44 1650.3,-232.04"/>
</g>
<!-- Node27 -->
<g id="node27" class="node">
<title>Node27</title>
<g id="a_node27"><a xlink:href="_response_body_handler_8cpp.html" target="_top" xlink:title=" ">
<polygon fill="none" stroke="black" points="1730,-179.5 1730,-198.5 1894,-198.5 1894,-179.5 1730,-179.5"/>
<text text-anchor="middle" x="1812" y="-186.5" font-family="Helvetica,sans-Serif" font-size="10.00">src/ResponseBodyHandler.cpp</text>
</a>
</g>
</g>
<!-- Node3&#45;&gt;Node27 -->
<g id="edge27" class="edge">
<title>Node3&#45;&gt;Node27</title>
<path fill="none" stroke="midnightblue" d="M1689.62,-237.28C1719.55,-225.72 1763.69,-208.66 1789.98,-198.51"/>
<polygon fill="midnightblue" stroke="midnightblue" points="1688.13,-234.11 1680.06,-240.98 1690.65,-240.64 1688.13,-234.11"/>
</g>
<!-- Node28 -->
<g id="node28" class="node">
<title>Node28</title>
<g id="a_node28"><a xlink:href="test___response_body_handler_8cpp.html" target="_top" xlink:title=" ">
<polygon fill="none" stroke="black" points="2043,-179.5 2043,-198.5 2235,-198.5 2235,-179.5 2043,-179.5"/>
<text text-anchor="middle" x="2139" y="-186.5" font-family="Helvetica,sans-Serif" font-size="10.00">test/test_ResponseBodyHandler.cpp</text>
</a>
</g>
</g>
<!-- Node3&#45;&gt;Node28 -->
<g id="edge28" class="edge">
<title>Node3&#45;&gt;Node28</title>
<path fill="none" stroke="midnightblue" d="M1718.89,-239.43C1728.94,-237.87 1739.25,-236.34 1749,-235 1854.68,-220.49 1976.9,-206.9 2055.94,-198.53"/>
<polygon fill="midnightblue" stroke="midnightblue" points="1718.3,-235.98 1708.96,-240.98 1719.38,-242.89 1718.3,-235.98"/>
</g>
<!-- Node4&#45;&gt;Node5 -->
<g id="edge4" class="edge">
<title>Node4&#45;&gt;Node5</title>
<path fill="none" stroke="midnightblue" d="M1617,-175.1C1595.89,-165.01 1567.14,-151.27 1548.82,-142.52"/>
<polygon fill="midnightblue" stroke="midnightblue" points="1615.56,-178.29 1626.09,-179.44 1618.58,-171.97 1615.56,-178.29"/>
</g>
<!-- Node26 -->
<g id="node26" class="node">
<title>Node26</title>
<g id="a_node26"><a xlink:href="_response_builder_8cpp.html" target="_top" xlink:title=" ">
<polygon fill="none" stroke="black" points="1592.5,-123.5 1592.5,-142.5 1727.5,-142.5 1727.5,-123.5 1592.5,-123.5"/>
<text text-anchor="middle" x="1660" y="-130.5" font-family="Helvetica,sans-Serif" font-size="10.00">src/ResponseBuilder.cpp</text>
</a>
</g>
</g>
<!-- Node4&#45;&gt;Node26 -->
<g id="edge26" class="edge">
<title>Node4&#45;&gt;Node26</title>
<path fill="none" stroke="midnightblue" d="M1649.51,-169.4C1652.19,-160.36 1655.28,-149.94 1657.41,-142.75"/>
<polygon fill="midnightblue" stroke="midnightblue" points="1646.13,-168.5 1646.64,-179.08 1652.84,-170.49 1646.13,-168.5"/>
</g>
<!-- Node6 -->
<g id="node6" class="node">
<title>Node6</title>
<g id="a_node6"><a xlink:href="_config_file_parser_8hpp.html" target="_top" xlink:title=" ">
<polygon fill="none" stroke="black" points="192,-62 192,-81 324,-81 324,-62 192,-62"/>
<text text-anchor="middle" x="258" y="-69" font-family="Helvetica,sans-Serif" font-size="10.00">inc/ConfigFileParser.hpp</text>
</a>
</g>
</g>
<!-- Node5&#45;&gt;Node6 -->
<g id="edge5" class="edge">
<title>Node5&#45;&gt;Node6</title>
<path fill="none" stroke="midnightblue" d="M1477.76,-132.39C1310.47,-133.09 780.71,-131.39 345,-87 331.14,-85.59 316.14,-83.35 302.56,-81.05"/>
<polygon fill="midnightblue" stroke="midnightblue" points="1477.8,-135.89 1487.78,-132.34 1477.77,-128.89 1477.8,-135.89"/>
</g>
<!-- Node8 -->
<g id="node8" class="node">
<title>Node8</title>
<g id="a_node8"><a xlink:href="main_8cpp.html" target="_top" xlink:title=" ">
<polygon fill="none" stroke="black" points="327.5,-0.5 327.5,-19.5 406.5,-19.5 406.5,-0.5 327.5,-0.5"/>
<text text-anchor="middle" x="367" y="-7.5" font-family="Helvetica,sans-Serif" font-size="10.00">src/main.cpp</text>
</a>
</g>
</g>
<!-- Node5&#45;&gt;Node8 -->
<g id="edge9" class="edge">
<title>Node5&#45;&gt;Node8</title>
<path fill="none" stroke="midnightblue" d="M1477.87,-131.8C1256.8,-130.73 419.33,-124.21 378,-87 358.98,-69.87 362.3,-35.69 365.15,-19.66"/>
<polygon fill="midnightblue" stroke="midnightblue" points="1477.91,-135.3 1487.93,-131.85 1477.94,-128.3 1477.91,-135.3"/>
</g>
<!-- Node10 -->
<g id="node10" class="node">
<title>Node10</title>
<g id="a_node10"><a xlink:href="_server_8cpp.html" target="_top" xlink:title=" ">
<polygon fill="none" stroke="black" points="387.5,-62 387.5,-81 472.5,-81 472.5,-62 387.5,-62"/>
<text text-anchor="middle" x="430" y="-69" font-family="Helvetica,sans-Serif" font-size="10.00">src/Server.cpp</text>
</a>
</g>
</g>
<!-- Node5&#45;&gt;Node10 -->
<g id="edge10" class="edge">
<title>Node5&#45;&gt;Node10</title>
<path fill="none" stroke="midnightblue" d="M1477.73,-131.36C1292.33,-128.89 676.02,-118.46 481,-87 472.64,-85.65 463.7,-83.4 455.68,-81.07"/>
<polygon fill="midnightblue" stroke="midnightblue" points="1477.73,-134.86 1487.78,-131.5 1477.82,-127.86 1477.73,-134.86"/>
</g>
<!-- Node11 -->
<g id="node11" class="node">
<title>Node11</title>
<g id="a_node11"><a xlink:href="test__accept_connections_8cpp.html" target="_top" xlink:title=" ">
<polygon fill="none" stroke="black" points="490.5,-62 490.5,-81 665.5,-81 665.5,-62 490.5,-62"/>
<text text-anchor="middle" x="578" y="-69" font-family="Helvetica,sans-Serif" font-size="10.00">test/test_acceptConnections.cpp</text>
</a>
</g>
</g>
<!-- Node5&#45;&gt;Node11 -->
<g id="edge11" class="edge">
<title>Node5&#45;&gt;Node11</title>
<path fill="none" stroke="midnightblue" d="M1477.56,-131C1342.56,-128.09 977.01,-117.77 674,-87 659.08,-85.48 642.92,-83.27 628.2,-81.03"/>
<polygon fill="midnightblue" stroke="midnightblue" points="1477.56,-134.5 1487.63,-131.22 1477.71,-127.5 1477.56,-134.5"/>
</g>
<!-- Node12 -->
<g id="node12" class="node">
<title>Node12</title>
<g id="a_node12"><a xlink:href="test__check_for_timeout_8cpp.html" target="_top" xlink:title=" ">
<polygon fill="none" stroke="black" points="683.5,-62 683.5,-81 850.5,-81 850.5,-62 683.5,-62"/>
<text text-anchor="middle" x="767" y="-69" font-family="Helvetica,sans-Serif" font-size="10.00">test/test_checkForTimeout.cpp</text>
</a>
</g>
</g>
<!-- Node5&#45;&gt;Node12 -->
<g id="edge12" class="edge">
<title>Node5&#45;&gt;Node12</title>
<path fill="none" stroke="midnightblue" d="M1477.44,-130.04C1363.41,-125.52 1088.31,-112.7 859,-87 845.02,-85.43 829.92,-83.26 816.07,-81.07"/>
<polygon fill="midnightblue" stroke="midnightblue" points="1477.51,-133.55 1487.64,-130.44 1477.79,-126.55 1477.51,-133.55"/>
</g>
<!-- Node13 -->
<g id="node13" class="node">
<title>Node13</title>
<g id="a_node13"><a xlink:href="test__connection_receive_from_c_g_i_8cpp.html" target="_top" xlink:title=" ">
<polygon fill="none" stroke="black" points="868.5,-56.5 868.5,-86.5 1023.5,-86.5 1023.5,-56.5 868.5,-56.5"/>
<text text-anchor="start" x="876.5" y="-74.5" font-family="Helvetica,sans-Serif" font-size="10.00">test/test_connectionReceive</text>
<text text-anchor="middle" x="946" y="-63.5" font-family="Helvetica,sans-Serif" font-size="10.00">FromCGI.cpp</text>
</a>
</g>
</g>
<!-- Node5&#45;&gt;Node13 -->
<g id="edge13" class="edge">
<title>Node5&#45;&gt;Node13</title>
<path fill="none" stroke="midnightblue" d="M1477.71,-128.55C1386.29,-122.33 1193.77,-107.9 1032,-87 1029.3,-86.65 1026.55,-86.28 1023.78,-85.89"/>
<polygon fill="midnightblue" stroke="midnightblue" points="1477.61,-132.05 1487.83,-129.23 1478.08,-125.07 1477.61,-132.05"/>
</g>
<!-- Node14 -->
<g id="node14" class="node">
<title>Node14</title>
<g id="a_node14"><a xlink:href="test__connection_receive_header_8cpp.html" target="_top" xlink:title=" ">
<polygon fill="none" stroke="black" points="1041.5,-56.5 1041.5,-86.5 1196.5,-86.5 1196.5,-56.5 1041.5,-56.5"/>
<text text-anchor="start" x="1049.5" y="-74.5" font-family="Helvetica,sans-Serif" font-size="10.00">test/test_connectionReceive</text>
<text text-anchor="middle" x="1119" y="-63.5" font-family="Helvetica,sans-Serif" font-size="10.00">Header.cpp</text>
</a>
</g>
</g>
<!-- Node5&#45;&gt;Node14 -->
<g id="edge14" class="edge">
<title>Node5&#45;&gt;Node14</title>
<path fill="none" stroke="midnightblue" d="M1477.92,-125.11C1413.52,-116.64 1301.68,-101.59 1206,-87 1202.97,-86.54 1199.89,-86.06 1196.77,-85.57"/>
<polygon fill="midnightblue" stroke="midnightblue" points="1477.47,-128.58 1487.84,-126.41 1478.38,-121.64 1477.47,-128.58"/>
</g>
<!-- Node15 -->
<g id="node15" class="node">
<title>Node15</title>
<g id="a_node15"><a xlink:href="test__connection_send_response_8cpp.html" target="_top" xlink:title=" ">
<polygon fill="none" stroke="black" points="1215,-56.5 1215,-86.5 1355,-86.5 1355,-56.5 1215,-56.5"/>
<text text-anchor="start" x="1223" y="-74.5" font-family="Helvetica,sans-Serif" font-size="10.00">test/test_connectionSend</text>
<text text-anchor="middle" x="1285" y="-63.5" font-family="Helvetica,sans-Serif" font-size="10.00">Response.cpp</text>
</a>
</g>
</g>
<!-- Node5&#45;&gt;Node15 -->
<g id="edge15" class="edge">
<title>Node5&#45;&gt;Node15</title>
<path fill="none" stroke="midnightblue" d="M1485.96,-121.11C1445.77,-111.39 1386.69,-97.1 1342.98,-86.52"/>
<polygon fill="midnightblue" stroke="midnightblue" points="1485.21,-124.53 1495.75,-123.48 1486.86,-117.72 1485.21,-124.53"/>
</g>
<!-- Node16 -->
<g id="node16" class="node">
<title>Node16</title>
<g id="a_node16"><a xlink:href="test__connection_send_to_c_g_i_8cpp.html" target="_top" xlink:title=" ">
<polygon fill="none" stroke="black" points="1373,-56.5 1373,-86.5 1513,-86.5 1513,-56.5 1373,-56.5"/>
<text text-anchor="start" x="1381" y="-74.5" font-family="Helvetica,sans-Serif" font-size="10.00">test/test_connectionSend</text>
<text text-anchor="middle" x="1443" y="-63.5" font-family="Helvetica,sans-Serif" font-size="10.00">ToCGI.cpp</text>
</a>
</g>
</g>
<!-- Node5&#45;&gt;Node16 -->
<g id="edge16" class="edge">
<title>Node5&#45;&gt;Node16</title>
<path fill="none" stroke="midnightblue" d="M1509.91,-117.74C1495.92,-108.28 1477.65,-95.93 1463.74,-86.52"/>
<polygon fill="midnightblue" stroke="midnightblue" points="1508.15,-120.77 1518.39,-123.48 1512.07,-114.97 1508.15,-120.77"/>
</g>
<!-- Node17 -->
<g id="node17" class="node">
<title>Node17</title>
<g id="a_node17"><a xlink:href="test__create_virtual_server_8cpp.html" target="_top" xlink:title=" ">
<polygon fill="none" stroke="black" points="1531,-62 1531,-81 1707,-81 1707,-62 1531,-62"/>
<text text-anchor="middle" x="1619" y="-69" font-family="Helvetica,sans-Serif" font-size="10.00">test/test_createVirtualServer.cpp</text>
</a>
</g>
</g>
<!-- Node5&#45;&gt;Node17 -->
<g id="edge17" class="edge">
<title>Node5&#45;&gt;Node17</title>
<path fill="none" stroke="midnightblue" d="M1552.28,-117.61C1569.2,-106.17 1592.31,-90.55 1606.42,-81.01"/>
<polygon fill="midnightblue" stroke="midnightblue" points="1549.93,-114.97 1543.61,-123.48 1553.85,-120.77 1549.93,-114.97"/>
</g>
<!-- Node18 -->
<g id="node18" class="node">
<title>Node18</title>
<g id="a_node18"><a xlink:href="test__handle_complete_request_header_8cpp.html" target="_top" xlink:title=" ">
<polygon fill="none" stroke="black" points="1725.5,-56.5 1725.5,-86.5 1868.5,-86.5 1868.5,-56.5 1725.5,-56.5"/>
<text text-anchor="start" x="1733.5" y="-74.5" font-family="Helvetica,sans-Serif" font-size="10.00">test/test_handleComplete</text>
<text text-anchor="middle" x="1797" y="-63.5" font-family="Helvetica,sans-Serif" font-size="10.00">RequestHeader.cpp</text>
</a>
</g>
</g>
<!-- Node5&#45;&gt;Node18 -->
<g id="edge18" class="edge">
<title>Node5&#45;&gt;Node18</title>
<path fill="none" stroke="midnightblue" d="M1578.87,-121.29C1622.34,-111.57 1686.74,-97.16 1734.31,-86.52"/>
<polygon fill="midnightblue" stroke="midnightblue" points="1578.11,-117.88 1569.11,-123.48 1579.63,-124.71 1578.11,-117.88"/>
</g>
<!-- Node19 -->
<g id="node19" class="node">
<title>Node19</title>
<g id="a_node19"><a xlink:href="test__init_virtual_servers_8cpp.html" target="_top" xlink:title=" ">
<polygon fill="none" stroke="black" points="1886.5,-62 1886.5,-81 2053.5,-81 2053.5,-62 1886.5,-62"/>
<text text-anchor="middle" x="1970" y="-69" font-family="Helvetica,sans-Serif" font-size="10.00">test/test_initVirtualServers.cpp</text>
</a>
</g>
</g>
<!-- Node5&#45;&gt;Node19 -->
<g id="edge19" class="edge">
<title>Node5&#45;&gt;Node19</title>
<path fill="none" stroke="midnightblue" d="M1584.14,-122.9C1715.37,-103.8 1750.38,-104.84 1878,-87 1890.97,-85.19 1904.94,-83.07 1917.99,-81.02"/>
<polygon fill="midnightblue" stroke="midnightblue" points="1583.49,-119.45 1574.1,-124.37 1584.51,-126.38 1583.49,-119.45"/>
</g>
<!-- Node20 -->
<g id="node20" class="node">
<title>Node20</title>
<g id="a_node20"><a xlink:href="test__is_duplicate_server_8cpp.html" target="_top" xlink:title=" ">
<polygon fill="none" stroke="black" points="2071,-62 2071,-81 2239,-81 2239,-62 2071,-62"/>
<text text-anchor="middle" x="2155" y="-69" font-family="Helvetica,sans-Serif" font-size="10.00">test/test_isDuplicateServer.cpp</text>
</a>
</g>
</g>
<!-- Node5&#45;&gt;Node20 -->
<g id="edge20" class="edge">
<title>Node5&#45;&gt;Node20</title>
<path fill="none" stroke="midnightblue" d="M1584.02,-122.99C1797.02,-97.17 1853.71,-111.3 2063,-87 2076.81,-85.4 2091.73,-83.23 2105.45,-81.07"/>
<polygon fill="midnightblue" stroke="midnightblue" points="1583.58,-119.52 1574.08,-124.21 1584.43,-126.47 1583.58,-119.52"/>
</g>
<!-- Node21 -->
<g id="node21" class="node">
<title>Node21</title>
<g id="a_node21"><a xlink:href="test__register_c_g_i_file_descriptor_8cpp.html" target="_top" xlink:title=" ">
<polygon fill="none" stroke="black" points="2257,-56.5 2257,-86.5 2391,-86.5 2391,-56.5 2257,-56.5"/>
<text text-anchor="start" x="2265" y="-74.5" font-family="Helvetica,sans-Serif" font-size="10.00">test/test_registerCGIFile</text>
<text text-anchor="middle" x="2324" y="-63.5" font-family="Helvetica,sans-Serif" font-size="10.00">Descriptor.cpp</text>
</a>
</g>
</g>
<!-- Node5&#45;&gt;Node21 -->
<g id="edge21" class="edge">
<title>Node5&#45;&gt;Node21</title>
<path fill="none" stroke="midnightblue" d="M1584.2,-123.01C1878.87,-90.44 1957.49,-122.41 2248,-87 2250.93,-86.64 2253.92,-86.24 2256.94,-85.8"/>
<polygon fill="midnightblue" stroke="midnightblue" points="1583.62,-119.55 1574.07,-124.14 1584.4,-126.51 1583.62,-119.55"/>
</g>
<!-- Node22 -->
<g id="node22" class="node">
<title>Node22</title>
<g id="a_node22"><a xlink:href="test__register_connection_8cpp.html" target="_top" xlink:title=" ">
<polygon fill="none" stroke="black" points="2409.5,-62 2409.5,-81 2584.5,-81 2584.5,-62 2409.5,-62"/>
<text text-anchor="middle" x="2497" y="-69" font-family="Helvetica,sans-Serif" font-size="10.00">test/test_registerConnection.cpp</text>
</a>
</g>
</g>
<!-- Node5&#45;&gt;Node22 -->
<g id="edge22" class="edge">
<title>Node5&#45;&gt;Node22</title>
<path fill="none" stroke="midnightblue" d="M1584.04,-123.04C1946.07,-84.61 2041.49,-121.6 2400,-87 2415.25,-85.53 2431.77,-83.3 2446.78,-81.03"/>
<polygon fill="midnightblue" stroke="midnightblue" points="1583.64,-119.56 1574.07,-124.11 1584.39,-126.52 1583.64,-119.56"/>
</g>
<!-- Node23 -->
<g id="node23" class="node">
<title>Node23</title>
<g id="a_node23"><a xlink:href="test__register_virtual_server_8cpp.html" target="_top" xlink:title=" ">
<polygon fill="none" stroke="black" points="2603,-56.5 2603,-86.5 2735,-86.5 2735,-56.5 2603,-56.5"/>
<text text-anchor="start" x="2611" y="-74.5" font-family="Helvetica,sans-Serif" font-size="10.00">test/test_registerVirtual</text>
<text text-anchor="middle" x="2669" y="-63.5" font-family="Helvetica,sans-Serif" font-size="10.00">Server.cpp</text>
</a>
</g>
</g>
<!-- Node5&#45;&gt;Node23 -->
<g id="edge23" class="edge">
<title>Node5&#45;&gt;Node23</title>
<path fill="none" stroke="midnightblue" d="M1584.04,-123.06C2031.94,-77.45 2150.54,-137.45 2594,-87 2596.9,-86.67 2599.85,-86.29 2602.83,-85.87"/>
<polygon fill="midnightblue" stroke="midnightblue" points="1583.66,-119.58 1574.07,-124.08 1584.37,-126.54 1583.66,-119.58"/>
</g>
<!-- Node24 -->
<g id="node24" class="node">
<title>Node24</title>
<g id="a_node24"><a xlink:href="test__select_server_config_8cpp.html" target="_top" xlink:title=" ">
<polygon fill="none" stroke="black" points="2753,-62 2753,-81 2927,-81 2927,-62 2753,-62"/>
<text text-anchor="middle" x="2840" y="-69" font-family="Helvetica,sans-Serif" font-size="10.00">test/test_selectServerConfig.cpp</text>
</a>
</g>
</g>
<!-- Node5&#45;&gt;Node24 -->
<g id="edge24" class="edge">
<title>Node5&#45;&gt;Node24</title>
<path fill="none" stroke="midnightblue" d="M1584.35,-123.03C2098.38,-71.67 2233.25,-133.33 2744,-87 2759.44,-85.6 2776.19,-83.33 2791.3,-81"/>
<polygon fill="midnightblue" stroke="midnightblue" points="1583.66,-119.58 1574.07,-124.07 1584.37,-126.55 1583.66,-119.58"/>
</g>
<!-- Node25 -->
<g id="node25" class="node">
<title>Node25</title>
<g id="a_node25"><a xlink:href="test__shutdown_server_8cpp.html" target="_top" xlink:title=" ">
<polygon fill="none" stroke="black" points="2945.5,-62 2945.5,-81 3106.5,-81 3106.5,-62 2945.5,-62"/>
<text text-anchor="middle" x="3026" y="-69" font-family="Helvetica,sans-Serif" font-size="10.00">test/test_shutdownServer.cpp</text>
</a>
</g>
</g>
<!-- Node5&#45;&gt;Node25 -->
<g id="edge25" class="edge">
<title>Node5&#45;&gt;Node25</title>
<path fill="none" stroke="midnightblue" d="M1584.26,-123.05C2183.36,-64.44 2340.43,-142.65 2936,-87 2950.5,-85.65 2966.2,-83.39 2980.37,-81.06"/>
<polygon fill="midnightblue" stroke="midnightblue" points="1583.67,-119.59 1574.06,-124.05 1584.36,-126.55 1583.67,-119.59"/>
</g>
<!-- Node7 -->
<g id="node7" class="node">
<title>Node7</title>
<g id="a_node7"><a xlink:href="_config_file_parser_8cpp.html" target="_top" xlink:title=" ">
<polygon fill="none" stroke="black" points="178.5,-0.5 178.5,-19.5 309.5,-19.5 309.5,-0.5 178.5,-0.5"/>
<text text-anchor="middle" x="244" y="-7.5" font-family="Helvetica,sans-Serif" font-size="10.00">src/ConfigFileParser.cpp</text>
</a>
</g>
</g>
<!-- Node6&#45;&gt;Node7 -->
<g id="edge6" class="edge">
<title>Node6&#45;&gt;Node7</title>
<path fill="none" stroke="midnightblue" d="M253.68,-52.16C251.12,-41.27 248,-27.99 246,-19.51"/>
<polygon fill="midnightblue" stroke="midnightblue" points="250.3,-53.04 255.99,-61.98 257.11,-51.44 250.3,-53.04"/>
</g>
<!-- Node6&#45;&gt;Node8 -->
<g id="edge7" class="edge">
<title>Node6&#45;&gt;Node8</title>
<path fill="none" stroke="midnightblue" d="M282.63,-57.06C303.72,-45.54 333.46,-29.31 351.41,-19.51"/>
<polygon fill="midnightblue" stroke="midnightblue" points="280.72,-54.11 273.62,-61.98 284.07,-60.26 280.72,-54.11"/>
</g>
<!-- Node9 -->
<g id="node9" class="node">
<title>Node9</title>
<g id="a_node9"><a xlink:href="test___config_file_parser_8cpp.html" target="_top" xlink:title=" ">
<polygon fill="none" stroke="black" points="0,-0.5 0,-19.5 160,-19.5 160,-0.5 0,-0.5"/>
<text text-anchor="middle" x="80" y="-7.5" font-family="Helvetica,sans-Serif" font-size="10.00">test/test_ConfigFileParser.cpp</text>
</a>
</g>
</g>
<!-- Node6&#45;&gt;Node9 -->
<g id="edge8" class="edge">
<title>Node6&#45;&gt;Node9</title>
<path fill="none" stroke="midnightblue" d="M222.79,-58.73C188.19,-47.17 136.23,-29.8 105.46,-19.51"/>
<polygon fill="midnightblue" stroke="midnightblue" points="221.9,-62.12 232.5,-61.98 224.12,-55.49 221.9,-62.12"/>
</g>
<!-- Node31&#45;&gt;Node2 -->
<g id="edge32" class="edge">
<title>Node31&#45;&gt;Node2</title>
<path fill="none" stroke="midnightblue" d="M1771.2,-348.1C1769.87,-339.14 1768.35,-328.86 1767.3,-321.75"/>
<polygon fill="midnightblue" stroke="midnightblue" points="1767.75,-348.7 1772.68,-358.08 1774.68,-347.68 1767.75,-348.7"/>
</g>
<!-- Node32 -->
<g id="node32" class="node">
<title>Node32</title>
<g id="a_node32"><a xlink:href="_directory_8cpp.html" target="_top" xlink:title=" ">
<polygon fill="none" stroke="black" points="1855,-302.5 1855,-321.5 1953,-321.5 1953,-302.5 1855,-302.5"/>
<text text-anchor="middle" x="1904" y="-309.5" font-family="Helvetica,sans-Serif" font-size="10.00">src/Directory.cpp</text>
</a>
</g>
</g>
<!-- Node31&#45;&gt;Node32 -->
<g id="edge33" class="edge">
<title>Node31&#45;&gt;Node32</title>
<path fill="none" stroke="midnightblue" d="M1804.09,-354.5C1828.46,-344.38 1862.14,-330.39 1883.5,-321.52"/>
<polygon fill="midnightblue" stroke="midnightblue" points="1802.49,-351.38 1794.6,-358.44 1805.18,-357.84 1802.49,-351.38"/>
</g>
<!-- Node33&#45;&gt;Node28 -->
<g id="edge36" class="edge">
<title>Node33&#45;&gt;Node28</title>
<path fill="none" stroke="midnightblue" d="M2192.54,-303.12C2215.53,-296.52 2237.69,-285.19 2252,-266 2260.23,-254.95 2259.73,-246.4 2252,-235 2239.02,-215.86 2216.47,-204.86 2194.91,-198.54"/>
<polygon fill="midnightblue" stroke="midnightblue" points="2191.47,-299.78 2182.67,-305.67 2193.22,-306.56 2191.47,-299.78"/>
</g>
<!-- Node33&#45;&gt;Node30 -->
<g id="edge35" class="edge">
<title>Node33&#45;&gt;Node30</title>
<path fill="none" stroke="midnightblue" d="M2116.33,-295C2127.12,-283.74 2141.14,-269.1 2149.85,-260.01"/>
<polygon fill="midnightblue" stroke="midnightblue" points="2113.56,-292.83 2109.17,-302.48 2118.61,-297.68 2113.56,-292.83"/>
</g>
<!-- Node34 -->
<g id="node34" class="node">
<title>Node34</title>
<g id="a_node34"><a xlink:href="test___target_resource_handler_8cpp.html" target="_top" xlink:title=" ">
<polygon fill="none" stroke="black" points="1917.5,-235.5 1917.5,-265.5 2054.5,-265.5 2054.5,-235.5 1917.5,-235.5"/>
<text text-anchor="start" x="1925.5" y="-253.5" font-family="Helvetica,sans-Serif" font-size="10.00">test/test_TargetResource</text>
<text text-anchor="middle" x="1986" y="-242.5" font-family="Helvetica,sans-Serif" font-size="10.00">Handler.cpp</text>
</a>
</g>
</g>
<!-- Node33&#45;&gt;Node34 -->
<g id="edge37" class="edge">
<title>Node33&#45;&gt;Node34</title>
<path fill="none" stroke="midnightblue" d="M2075.5,-297.81C2056.99,-288.23 2031.98,-275.29 2013.1,-265.52"/>
<polygon fill="midnightblue" stroke="midnightblue" points="2074.03,-300.99 2084.52,-302.48 2077.25,-294.77 2074.03,-300.99"/>
</g>
<!-- Node35&#45;&gt;Node3 -->
<g id="edge42" class="edge">
<title>Node35&#45;&gt;Node3</title>
<path fill="none" stroke="midnightblue" d="M1572.57,-297.71C1593.87,-286.19 1624.07,-269.86 1642.27,-260.01"/>
<polygon fill="midnightblue" stroke="midnightblue" points="1570.89,-294.64 1563.76,-302.48 1574.22,-300.8 1570.89,-294.64"/>
</g>
<!-- Node35&#45;&gt;Node5 -->
<g id="edge43" class="edge">
<title>Node35&#45;&gt;Node5</title>
<path fill="none" stroke="midnightblue" d="M1546.21,-292.35C1542.58,-254.6 1534.49,-170.36 1531.85,-142.87"/>
<polygon fill="midnightblue" stroke="midnightblue" points="1542.74,-292.84 1547.18,-302.46 1549.71,-292.17 1542.74,-292.84"/>
</g>
<!-- Node35&#45;&gt;Node34 -->
<g id="edge45" class="edge">
<title>Node35&#45;&gt;Node34</title>
<path fill="none" stroke="midnightblue" d="M1637.88,-301.37C1711.05,-293.15 1816.92,-280.39 1909,-266 1911.69,-265.58 1914.43,-265.14 1917.19,-264.68"/>
<polygon fill="midnightblue" stroke="midnightblue" points="1637.33,-297.91 1627.78,-302.5 1638.11,-304.86 1637.33,-297.91"/>
</g>
<!-- Node36 -->
<g id="node36" class="node">
<title>Node36</title>
<g id="a_node36"><a xlink:href="_target_resource_handler_8cpp.html" target="_top" xlink:title=" ">
<polygon fill="none" stroke="black" points="1353.5,-241 1353.5,-260 1520.5,-260 1520.5,-241 1353.5,-241"/>
<text text-anchor="middle" x="1437" y="-248" font-family="Helvetica,sans-Serif" font-size="10.00">src/TargetResourceHandler.cpp</text>
</a>
</g>
</g>
<!-- Node35&#45;&gt;Node36 -->
<g id="edge44" class="edge">
<title>Node35&#45;&gt;Node36</title>
<path fill="none" stroke="midnightblue" d="M1523.21,-297.71C1501.71,-286.19 1471.24,-269.86 1452.87,-260.01"/>
<polygon fill="midnightblue" stroke="midnightblue" points="1521.63,-300.84 1532.1,-302.48 1524.94,-294.67 1521.63,-300.84"/>
</g>
</g>
</svg>
