<?xml version="1.0" encoding="UTF-8" standalone="no"?>
<!DOCTYPE svg PUBLIC "-//W3C//DTD SVG 1.1//EN"
 "http://www.w3.org/Graphics/SVG/1.1/DTD/svg11.dtd">
<!-- Generated by graphviz version 2.43.0 (0)
 -->
<!-- Title: inc/FileWriteHandler.hpp Pages: 1 -->
<svg width="1525pt" height="412pt"
 viewBox="0.00 0.00 1524.77 412.00" xmlns="http://www.w3.org/2000/svg" xmlns:xlink="http://www.w3.org/1999/xlink">
<g id="graph0" class="graph" transform="scale(1 1) rotate(0) translate(4 408)">
<title>inc/FileWriteHandler.hpp</title>
<!-- Node1 -->
<g id="Node000001" class="node">
<title>Node1</title>
<g id="a_Node000001"><a xlink:title=" ">
<polygon fill="#999999" stroke="#666666" points="1107.77,-404 971.77,-404 971.77,-385 1107.77,-385 1107.77,-404"/>
<text text-anchor="middle" x="1039.77" y="-392" font-family="Helvetica,sans-Serif" font-size="10.00">inc/FileWriteHandler.hpp</text>
</a>
</g>
</g>
<!-- Node2 -->
<g id="Node000002" class="node">
<title>Node2</title>
<g id="a_Node000002"><a xlink:href="_directory_8hpp.html" target="_top" xlink:title=" ">
<polygon fill="white" stroke="#666666" points="377.27,-349 296.27,-349 296.27,-330 377.27,-330 377.27,-349"/>
<text text-anchor="middle" x="336.77" y="-337" font-family="Helvetica,sans-Serif" font-size="10.00">Directory.hpp</text>
</a>
</g>
</g>
<!-- Node1&#45;&gt;Node2 -->
<g id="edge1_Node000001_Node000002" class="edge">
<title>Node1&#45;&gt;Node2</title>
<g id="a_edge1_Node000001_Node000002"><a xlink:title=" ">
<path fill="none" stroke="#63b8ff" d="M971.72,-388.37C831.12,-377.77 511.36,-353.66 387.29,-344.31"/>
<polygon fill="#63b8ff" stroke="#63b8ff" points="387.53,-340.82 377.3,-343.56 387.01,-347.8 387.53,-340.82"/>
</a>
</g>
</g>
<!-- Node3 -->
<g id="Node000003" class="node">
<title>Node3</title>
<g id="a_Node000003"><a xlink:href="_file_system_policy_8hpp.html" target="_top" xlink:title=" ">
<polygon fill="white" stroke="#666666" points="1099.27,-294 980.27,-294 980.27,-275 1099.27,-275 1099.27,-294"/>
<text text-anchor="middle" x="1039.77" y="-282" font-family="Helvetica,sans-Serif" font-size="10.00">FileSystemPolicy.hpp</text>
</a>
</g>
</g>
<!-- Node1&#45;&gt;Node3 -->
<g id="edge44_Node000001_Node000003" class="edge">
<title>Node1&#45;&gt;Node3</title>
<g id="a_edge44_Node000001_Node000003"><a xlink:title=" ">
<path fill="none" stroke="#63b8ff" d="M1039.77,-384.66C1039.77,-367.17 1039.77,-327.8 1039.77,-304.27"/>
<polygon fill="#63b8ff" stroke="#63b8ff" points="1043.27,-304.16 1039.77,-294.16 1036.27,-304.16 1043.27,-304.16"/>
</a>
</g>
</g>
<!-- Node4 -->
<g id="Node000004" class="node">
<title>Node4</title>
<g id="a_Node000004"><a xlink:title=" ">
<polygon fill="#e0e0e0" stroke="#999999" points="952.77,-19 908.77,-19 908.77,0 952.77,0 952.77,-19"/>
<text text-anchor="middle" x="930.77" y="-7" font-family="Helvetica,sans-Serif" font-size="10.00">string</text>
</a>
</g>
</g>
<!-- Node1&#45;&gt;Node4 -->
<g id="edge49_Node000001_Node000004" class="edge">
<title>Node1&#45;&gt;Node4</title>
<g id="a_edge49_Node000001_Node000004"><a xlink:title=" ">
<path fill="none" stroke="#63b8ff" d="M1107.86,-392.52C1239.65,-386.64 1516.77,-353.16 1516.77,-175.5 1516.77,-175.5 1516.77,-175.5 1516.77,-118.5 1516.77,-61.76 1086.43,-22.96 963.31,-13.01"/>
<polygon fill="#63b8ff" stroke="#63b8ff" points="963.27,-9.5 953.02,-12.19 962.71,-16.48 963.27,-9.5"/>
</a>
</g>
</g>
<!-- Node9 -->
<g id="Node000009" class="node">
<title>Node9</title>
<g id="a_Node000009"><a xlink:title=" ">
<polygon fill="#e0e0e0" stroke="#999999" points="1450.27,-239 1385.27,-239 1385.27,-220 1450.27,-220 1450.27,-239"/>
<text text-anchor="middle" x="1417.77" y="-227" font-family="Helvetica,sans-Serif" font-size="10.00">stdexcept</text>
</a>
</g>
</g>
<!-- Node1&#45;&gt;Node9 -->
<g id="edge48_Node000001_Node000009" class="edge">
<title>Node1&#45;&gt;Node9</title>
<g id="a_edge48_Node000001_Node000009"><a xlink:title=" ">
<path fill="none" stroke="#63b8ff" d="M1059.56,-384.97C1121.93,-358.07 1314.61,-274.98 1388.5,-243.12"/>
<polygon fill="#63b8ff" stroke="#63b8ff" points="1389.92,-246.32 1397.72,-239.15 1387.15,-239.89 1389.92,-246.32"/>
</a>
</g>
</g>
<!-- Node13 -->
<g id="Node000013" class="node">
<title>Node13</title>
<g id="a_Node000013"><a xlink:href="utilities_8hpp.html" target="_top" xlink:title=" ">
<polygon fill="white" stroke="#666666" points="437.77,-239 363.77,-239 363.77,-220 437.77,-220 437.77,-239"/>
<text text-anchor="middle" x="400.77" y="-227" font-family="Helvetica,sans-Serif" font-size="10.00">utilities.hpp</text>
</a>
</g>
</g>
<!-- Node1&#45;&gt;Node13 -->
<g id="edge46_Node000001_Node000013" class="edge">
<title>Node1&#45;&gt;Node13</title>
<g id="a_edge46_Node000001_Node000013"><a xlink:title=" ">
<path fill="none" stroke="#63b8ff" d="M1006.31,-384.97C899.14,-357.63 564.36,-272.23 444.22,-241.58"/>
<polygon fill="#63b8ff" stroke="#63b8ff" points="444.83,-238.13 434.28,-239.05 443.1,-244.91 444.83,-238.13"/>
</a>
</g>
</g>
<!-- Node20 -->
<g id="Node000020" class="node">
<title>Node20</title>
<g id="a_Node000020"><a xlink:title=" ">
<polygon fill="#e0e0e0" stroke="#999999" points="615.77,-19 559.77,-19 559.77,0 615.77,0 615.77,-19"/>
<text text-anchor="middle" x="587.77" y="-7" font-family="Helvetica,sans-Serif" font-size="10.00">sstream</text>
</a>
</g>
</g>
<!-- Node1&#45;&gt;Node20 -->
<g id="edge47_Node000001_Node000020" class="edge">
<title>Node1&#45;&gt;Node20</title>
<g id="a_edge47_Node000001_Node000020"><a xlink:title=" ">
<path fill="none" stroke="#63b8ff" d="M1107.95,-390.2C1249.21,-380.78 1553.17,-345.7 1459.77,-220 1357.08,-81.8 780.97,-26.02 626.1,-13.4"/>
<polygon fill="#63b8ff" stroke="#63b8ff" points="626.35,-9.91 616.1,-12.6 625.79,-16.89 626.35,-9.91"/>
</a>
</g>
</g>
<!-- Node23 -->
<g id="Node000023" class="node">
<title>Node23</title>
<g id="a_Node000023"><a xlink:href="_log_8hpp.html" target="_top" xlink:title=" ">
<polygon fill="white" stroke="#666666" points="875.27,-239 820.27,-239 820.27,-220 875.27,-220 875.27,-239"/>
<text text-anchor="middle" x="847.77" y="-227" font-family="Helvetica,sans-Serif" font-size="10.00">Log.hpp</text>
</a>
</g>
</g>
<!-- Node1&#45;&gt;Node23 -->
<g id="edge45_Node000001_Node000023" class="edge">
<title>Node1&#45;&gt;Node23</title>
<g id="a_edge45_Node000001_Node000023"><a xlink:title=" ">
<path fill="none" stroke="#63b8ff" d="M1029.72,-384.97C999.01,-358.9 906.14,-280.06 866.27,-246.21"/>
<polygon fill="#63b8ff" stroke="#63b8ff" points="868.08,-243.15 858.19,-239.34 863.54,-248.48 868.08,-243.15"/>
</a>
</g>
</g>
<!-- Node2&#45;&gt;Node3 -->
<g id="edge2_Node000002_Node000003" class="edge">
<title>Node2&#45;&gt;Node3</title>
<g id="a_edge2_Node000002_Node000003"><a xlink:title=" ">
<path fill="none" stroke="#63b8ff" d="M377.35,-335.44C492.85,-326.73 824.43,-301.73 969.92,-290.77"/>
<polygon fill="#63b8ff" stroke="#63b8ff" points="970.36,-294.24 980.07,-290 969.83,-287.26 970.36,-294.24"/>
</a>
</g>
</g>
<!-- Node17 -->
<g id="Node000017" class="node">
<title>Node17</title>
<g id="a_Node000017"><a xlink:title=" ">
<polygon fill="#e0e0e0" stroke="#999999" points="76.77,-184 12.77,-184 12.77,-165 76.77,-165 76.77,-184"/>
<text text-anchor="middle" x="44.77" y="-172" font-family="Helvetica,sans-Serif" font-size="10.00">algorithm</text>
</a>
</g>
</g>
<!-- Node2&#45;&gt;Node17 -->
<g id="edge43_Node000002_Node000017" class="edge">
<title>Node2&#45;&gt;Node17</title>
<g id="a_edge43_Node000002_Node000017"><a xlink:title=" ">
<path fill="none" stroke="#63b8ff" d="M321.48,-329.97C273.79,-303.35 127.49,-221.67 69.15,-189.11"/>
<polygon fill="#63b8ff" stroke="#63b8ff" points="70.69,-185.96 60.26,-184.15 67.28,-192.08 70.69,-185.96"/>
</a>
</g>
</g>
<!-- Node22 -->
<g id="Node000022" class="node">
<title>Node22</title>
<g id="a_Node000022"><a xlink:title=" ">
<polygon fill="#e0e0e0" stroke="#999999" points="236.27,-129 189.27,-129 189.27,-110 236.27,-110 236.27,-129"/>
<text text-anchor="middle" x="212.77" y="-117" font-family="Helvetica,sans-Serif" font-size="10.00">vector</text>
</a>
</g>
</g>
<!-- Node2&#45;&gt;Node22 -->
<g id="edge42_Node000002_Node000022" class="edge">
<title>Node2&#45;&gt;Node22</title>
<g id="a_edge42_Node000002_Node000022"><a xlink:title=" ">
<path fill="none" stroke="#63b8ff" d="M296.24,-333.78C222.49,-322.74 68.03,-287.76 3.77,-184 -0.68,-176.82 -1.55,-171.56 3.77,-165 25.43,-138.24 125.56,-126.89 178.98,-122.67"/>
<polygon fill="#63b8ff" stroke="#63b8ff" points="179.29,-126.16 189,-121.92 178.77,-119.18 179.29,-126.16"/>
</a>
</g>
</g>
<!-- Node3&#45;&gt;Node4 -->
<g id="edge3_Node000003_Node000004" class="edge">
<title>Node3&#45;&gt;Node4</title>
<g id="a_edge3_Node000003_Node000004"><a xlink:title=" ">
<path fill="none" stroke="#63b8ff" d="M1034.79,-274.66C1028.28,-261.78 1018.78,-237.49 1028.77,-220 1044.38,-192.66 1065.77,-204.37 1089.77,-184 1143.46,-138.43 1227.01,-108.97 1181.77,-55 1154.21,-22.13 1024.45,-13.52 963.08,-11.28"/>
<polygon fill="#63b8ff" stroke="#63b8ff" points="962.92,-7.77 952.81,-10.94 962.69,-14.77 962.92,-7.77"/>
</a>
</g>
</g>
<!-- Node5 -->
<g id="Node000005" class="node">
<title>Node5</title>
<g id="a_Node000005"><a xlink:title=" ">
<polygon fill="#e0e0e0" stroke="#999999" points="1367.27,-239 1320.27,-239 1320.27,-220 1367.27,-220 1367.27,-239"/>
<text text-anchor="middle" x="1343.77" y="-227" font-family="Helvetica,sans-Serif" font-size="10.00">cerrno</text>
</a>
</g>
</g>
<!-- Node3&#45;&gt;Node5 -->
<g id="edge4_Node000003_Node000005" class="edge">
<title>Node3&#45;&gt;Node5</title>
<g id="a_edge4_Node000003_Node000005"><a xlink:title=" ">
<path fill="none" stroke="#63b8ff" d="M1099.53,-275.25C1152.37,-267.61 1231.73,-255.26 1310,-238.99"/>
<polygon fill="#63b8ff" stroke="#63b8ff" points="1310.97,-242.37 1320.03,-236.88 1309.53,-235.51 1310.97,-242.37"/>
</a>
</g>
</g>
<!-- Node6 -->
<g id="Node000006" class="node">
<title>Node6</title>
<g id="a_Node000006"><a xlink:title=" ">
<polygon fill="#e0e0e0" stroke="#999999" points="981.77,-239 931.77,-239 931.77,-220 981.77,-220 981.77,-239"/>
<text text-anchor="middle" x="956.77" y="-227" font-family="Helvetica,sans-Serif" font-size="10.00">cstring</text>
</a>
</g>
</g>
<!-- Node3&#45;&gt;Node6 -->
<g id="edge5_Node000003_Node000006" class="edge">
<title>Node3&#45;&gt;Node6</title>
<g id="a_edge5_Node000003_Node000006"><a xlink:title=" ">
<path fill="none" stroke="#63b8ff" d="M1026.43,-274.98C1013.68,-266.84 994.22,-254.41 979.1,-244.76"/>
<polygon fill="#63b8ff" stroke="#63b8ff" points="980.66,-241.6 970.35,-239.17 976.89,-247.5 980.66,-241.6"/>
</a>
</g>
</g>
<!-- Node7 -->
<g id="Node000007" class="node">
<title>Node7</title>
<g id="a_Node000007"><a xlink:title=" ">
<polygon fill="#e0e0e0" stroke="#999999" points="1101.77,-239 1037.77,-239 1037.77,-220 1101.77,-220 1101.77,-239"/>
<text text-anchor="middle" x="1069.77" y="-227" font-family="Helvetica,sans-Serif" font-size="10.00">sys/stat.h</text>
</a>
</g>
</g>
<!-- Node3&#45;&gt;Node7 -->
<g id="edge6_Node000003_Node000007" class="edge">
<title>Node3&#45;&gt;Node7</title>
<g id="a_edge6_Node000003_Node000007"><a xlink:title=" ">
<path fill="none" stroke="#63b8ff" d="M1044.72,-274.75C1048.83,-267.49 1054.79,-256.95 1059.87,-247.98"/>
<polygon fill="#63b8ff" stroke="#63b8ff" points="1063.03,-249.52 1064.91,-239.09 1056.93,-246.07 1063.03,-249.52"/>
</a>
</g>
</g>
<!-- Node8 -->
<g id="Node000008" class="node">
<title>Node8</title>
<g id="a_Node000008"><a xlink:title=" ">
<polygon fill="#e0e0e0" stroke="#999999" points="1085.27,-129 1030.27,-129 1030.27,-110 1085.27,-110 1085.27,-129"/>
<text text-anchor="middle" x="1057.77" y="-117" font-family="Helvetica,sans-Serif" font-size="10.00">fstream</text>
</a>
</g>
</g>
<!-- Node3&#45;&gt;Node8 -->
<g id="edge7_Node000003_Node000008" class="edge">
<title>Node3&#45;&gt;Node8</title>
<g id="a_edge7_Node000003_Node000008"><a xlink:title=" ">
<path fill="none" stroke="#63b8ff" d="M1065.27,-274.9C1081.46,-267.96 1101.12,-256.44 1110.77,-239 1117.79,-226.32 1118.74,-191.38 1105.77,-165 1099.95,-153.17 1089.55,-142.92 1079.91,-135.25"/>
<polygon fill="#63b8ff" stroke="#63b8ff" points="1081.89,-132.36 1071.77,-129.2 1077.71,-137.98 1081.89,-132.36"/>
</a>
</g>
</g>
<!-- Node3&#45;&gt;Node9 -->
<g id="edge8_Node000003_Node000009" class="edge">
<title>Node3&#45;&gt;Node9</title>
<g id="a_edge8_Node000003_Node000009"><a xlink:title=" ">
<path fill="none" stroke="#63b8ff" d="M1099.32,-276.97C1164.71,-269.5 1273,-256.25 1375.26,-239.16"/>
<polygon fill="#63b8ff" stroke="#63b8ff" points="1375.86,-242.6 1385.14,-237.49 1374.69,-235.7 1375.86,-242.6"/>
</a>
</g>
</g>
<!-- Node10 -->
<g id="Node000010" class="node">
<title>Node10</title>
<g id="a_Node000010"><a xlink:title=" ">
<polygon fill="#e0e0e0" stroke="#999999" points="909.77,-129 849.77,-129 849.77,-110 909.77,-110 909.77,-129"/>
<text text-anchor="middle" x="879.77" y="-117" font-family="Helvetica,sans-Serif" font-size="10.00">iostream</text>
</a>
</g>
</g>
<!-- Node3&#45;&gt;Node10 -->
<g id="edge9_Node000003_Node000010" class="edge">
<title>Node3&#45;&gt;Node10</title>
<g id="a_edge9_Node000003_Node000010"><a xlink:title=" ">
<path fill="none" stroke="#63b8ff" d="M989.95,-274.97C948.79,-265.71 900.47,-248.33 922.77,-220 966.43,-164.53 1115.69,-220.26 1071.77,-165 1053.2,-141.63 970.75,-129.45 920.13,-124.05"/>
<polygon fill="#63b8ff" stroke="#63b8ff" points="920.45,-120.57 910.15,-123.04 919.74,-127.53 920.45,-120.57"/>
</a>
</g>
</g>
<!-- Node11 -->
<g id="Node000011" class="node">
<title>Node11</title>
<g id="a_Node000011"><a xlink:title=" ">
<polygon fill="#e0e0e0" stroke="#999999" points="1229.77,-239 1157.77,-239 1157.77,-220 1229.77,-220 1229.77,-239"/>
<text text-anchor="middle" x="1193.77" y="-227" font-family="Helvetica,sans-Serif" font-size="10.00">sys/types.h</text>
</a>
</g>
</g>
<!-- Node3&#45;&gt;Node11 -->
<g id="edge10_Node000003_Node000011" class="edge">
<title>Node3&#45;&gt;Node11</title>
<g id="a_edge10_Node000003_Node000011"><a xlink:title=" ">
<path fill="none" stroke="#63b8ff" d="M1064.51,-274.98C1090.14,-266.16 1130.4,-252.31 1159.17,-242.41"/>
<polygon fill="#63b8ff" stroke="#63b8ff" points="1160.51,-245.65 1168.83,-239.08 1158.24,-239.03 1160.51,-245.65"/>
</a>
</g>
</g>
<!-- Node12 -->
<g id="Node000012" class="node">
<title>Node12</title>
<g id="a_Node000012"><a xlink:title=" ">
<polygon fill="#e0e0e0" stroke="#999999" points="1301.77,-239 1247.77,-239 1247.77,-220 1301.77,-220 1301.77,-239"/>
<text text-anchor="middle" x="1274.77" y="-227" font-family="Helvetica,sans-Serif" font-size="10.00">dirent.h</text>
</a>
</g>
</g>
<!-- Node3&#45;&gt;Node12 -->
<g id="edge11_Node000003_Node000012" class="edge">
<title>Node3&#45;&gt;Node12</title>
<g id="a_edge11_Node000003_Node000012"><a xlink:title=" ">
<path fill="none" stroke="#63b8ff" d="M1078.69,-274.94C1116.79,-266.53 1176.74,-253.21 1237.84,-239.19"/>
<polygon fill="#63b8ff" stroke="#63b8ff" points="1238.69,-242.59 1247.65,-236.94 1237.12,-235.77 1238.69,-242.59"/>
</a>
</g>
</g>
<!-- Node3&#45;&gt;Node13 -->
<g id="edge12_Node000003_Node000013" class="edge">
<title>Node3&#45;&gt;Node13</title>
<g id="a_edge12_Node000003_Node000013"><a xlink:title=" ">
<path fill="none" stroke="#63b8ff" d="M980.23,-278.56C854.19,-268.11 562.63,-243.93 448.14,-234.43"/>
<polygon fill="#63b8ff" stroke="#63b8ff" points="448.2,-230.92 437.95,-233.58 447.62,-237.9 448.2,-230.92"/>
</a>
</g>
</g>
<!-- Node3&#45;&gt;Node23 -->
<g id="edge24_Node000003_Node000023" class="edge">
<title>Node3&#45;&gt;Node23</title>
<g id="a_edge24_Node000003_Node000023"><a xlink:title=" ">
<path fill="none" stroke="#63b8ff" d="M1008.92,-274.98C975.2,-265.68 921.18,-250.76 885.09,-240.8"/>
<polygon fill="#63b8ff" stroke="#63b8ff" points="885.99,-237.42 875.42,-238.13 884.13,-244.17 885.99,-237.42"/>
</a>
</g>
</g>
<!-- Node13&#45;&gt;Node10 -->
<g id="edge20_Node000013_Node000010" class="edge">
<title>Node13&#45;&gt;Node10</title>
<g id="a_edge20_Node000013_Node000010"><a xlink:title=" ">
<path fill="none" stroke="#63b8ff" d="M437.98,-226.45C521.68,-221.49 722.43,-207.45 785.77,-184 815.45,-173.01 844.91,-150.8 862.73,-135.78"/>
<polygon fill="#63b8ff" stroke="#63b8ff" points="865.22,-138.25 870.49,-129.07 860.64,-132.96 865.22,-138.25"/>
</a>
</g>
</g>
<!-- Node14 -->
<g id="Node000014" class="node">
<title>Node14</title>
<g id="a_Node000014"><a xlink:href="_method_8hpp.html" target="_top" xlink:title=" ">
<polygon fill="white" stroke="#666666" points="388.77,-184 314.77,-184 314.77,-165 388.77,-165 388.77,-184"/>
<text text-anchor="middle" x="351.77" y="-172" font-family="Helvetica,sans-Serif" font-size="10.00">Method.hpp</text>
</a>
</g>
</g>
<!-- Node13&#45;&gt;Node14 -->
<g id="edge13_Node000013_Node000014" class="edge">
<title>Node13&#45;&gt;Node14</title>
<g id="a_edge13_Node000013_Node000014"><a xlink:title=" ">
<path fill="none" stroke="#63b8ff" d="M392.68,-219.75C385.61,-212.11 375.18,-200.82 366.62,-191.56"/>
<polygon fill="#63b8ff" stroke="#63b8ff" points="369.07,-189.06 359.71,-184.09 363.93,-193.81 369.07,-189.06"/>
</a>
</g>
</g>
<!-- Node15 -->
<g id="Node000015" class="node">
<title>Node15</title>
<g id="a_Node000015"><a xlink:href="_status_code_8hpp.html" target="_top" xlink:title=" ">
<polygon fill="white" stroke="#666666" points="926.27,-184 833.27,-184 833.27,-165 926.27,-165 926.27,-184"/>
<text text-anchor="middle" x="879.77" y="-172" font-family="Helvetica,sans-Serif" font-size="10.00">StatusCode.hpp</text>
</a>
</g>
</g>
<!-- Node13&#45;&gt;Node15 -->
<g id="edge14_Node000013_Node000015" class="edge">
<title>Node13&#45;&gt;Node15</title>
<g id="a_edge14_Node000013_Node000015"><a xlink:title=" ">
<path fill="none" stroke="#63b8ff" d="M438,-224.94C511.08,-217.88 678.43,-201.24 818.77,-184 820.23,-183.82 821.71,-183.64 823.2,-183.45"/>
<polygon fill="#63b8ff" stroke="#63b8ff" points="823.7,-186.91 833.16,-182.15 822.79,-179.97 823.7,-186.91"/>
</a>
</g>
</g>
<!-- Node16 -->
<g id="Node000016" class="node">
<title>Node16</title>
<g id="a_Node000016"><a xlink:href="constants_8hpp.html" target="_top" xlink:title=" ">
<polygon fill="white" stroke="#666666" points="492.27,-184 407.27,-184 407.27,-165 492.27,-165 492.27,-184"/>
<text text-anchor="middle" x="449.77" y="-172" font-family="Helvetica,sans-Serif" font-size="10.00">constants.hpp</text>
</a>
</g>
</g>
<!-- Node13&#45;&gt;Node16 -->
<g id="edge16_Node000013_Node000016" class="edge">
<title>Node13&#45;&gt;Node16</title>
<g id="a_edge16_Node000013_Node000016"><a xlink:title=" ">
<path fill="none" stroke="#63b8ff" d="M408.86,-219.75C415.92,-212.11 426.36,-200.82 434.92,-191.56"/>
<polygon fill="#63b8ff" stroke="#63b8ff" points="437.61,-193.81 441.83,-184.09 432.47,-189.06 437.61,-193.81"/>
</a>
</g>
</g>
<!-- Node13&#45;&gt;Node17 -->
<g id="edge17_Node000013_Node000017" class="edge">
<title>Node13&#45;&gt;Node17</title>
<g id="a_edge17_Node000013_Node000017"><a xlink:title=" ">
<path fill="none" stroke="#63b8ff" d="M363.47,-223.64C305.18,-215.93 188.95,-200.11 90.77,-184 89.51,-183.79 88.22,-183.58 86.93,-183.36"/>
<polygon fill="#63b8ff" stroke="#63b8ff" points="87.36,-179.88 76.91,-181.61 86.16,-186.78 87.36,-179.88"/>
</a>
</g>
</g>
<!-- Node18 -->
<g id="Node000018" class="node">
<title>Node18</title>
<g id="a_Node000018"><a xlink:title=" ">
<polygon fill="#e0e0e0" stroke="#999999" points="184.77,-184 132.77,-184 132.77,-165 184.77,-165 184.77,-184"/>
<text text-anchor="middle" x="158.77" y="-172" font-family="Helvetica,sans-Serif" font-size="10.00">cassert</text>
</a>
</g>
</g>
<!-- Node13&#45;&gt;Node18 -->
<g id="edge18_Node000013_Node000018" class="edge">
<title>Node13&#45;&gt;Node18</title>
<g id="a_edge18_Node000013_Node000018"><a xlink:title=" ">
<path fill="none" stroke="#63b8ff" d="M363.75,-220.39C317.93,-210.36 240.41,-193.38 194.97,-183.43"/>
<polygon fill="#63b8ff" stroke="#63b8ff" points="195.49,-179.96 184.97,-181.24 193.99,-186.8 195.49,-179.96"/>
</a>
</g>
</g>
<!-- Node19 -->
<g id="Node000019" class="node">
<title>Node19</title>
<g id="a_Node000019"><a xlink:title=" ">
<polygon fill="#e0e0e0" stroke="#999999" points="334.77,-19 290.77,-19 290.77,0 334.77,0 334.77,-19"/>
<text text-anchor="middle" x="312.77" y="-7" font-family="Helvetica,sans-Serif" font-size="10.00">ctime</text>
</a>
</g>
</g>
<!-- Node13&#45;&gt;Node19 -->
<g id="edge19_Node000013_Node000019" class="edge">
<title>Node13&#45;&gt;Node19</title>
<g id="a_edge19_Node000013_Node000019"><a xlink:title=" ">
<path fill="none" stroke="#63b8ff" d="M363.71,-228.23C295.48,-226.86 154.18,-219.68 123.77,-184 66.08,-116.31 213.37,-48.66 280.97,-22.17"/>
<polygon fill="#63b8ff" stroke="#63b8ff" points="282.26,-25.42 290.34,-18.56 279.75,-18.89 282.26,-25.42"/>
</a>
</g>
</g>
<!-- Node13&#45;&gt;Node20 -->
<g id="edge21_Node000013_Node000020" class="edge">
<title>Node13&#45;&gt;Node20</title>
<g id="a_edge21_Node000013_Node000020"><a xlink:title=" ">
<path fill="none" stroke="#63b8ff" d="M438.21,-220.08C459.29,-213.54 484.55,-202.38 500.77,-184 540.39,-139.08 508.03,-105.8 539.77,-55 546.85,-43.67 557.55,-33.36 567.05,-25.53"/>
<polygon fill="#63b8ff" stroke="#63b8ff" points="569.26,-28.24 574.97,-19.31 564.94,-22.73 569.26,-28.24"/>
</a>
</g>
</g>
<!-- Node21 -->
<g id="Node000021" class="node">
<title>Node21</title>
<g id="a_Node000021"><a xlink:title=" ">
<polygon fill="#e0e0e0" stroke="#999999" points="296.77,-184 240.77,-184 240.77,-165 296.77,-165 296.77,-184"/>
<text text-anchor="middle" x="268.77" y="-172" font-family="Helvetica,sans-Serif" font-size="10.00">unistd.h</text>
</a>
</g>
</g>
<!-- Node13&#45;&gt;Node21 -->
<g id="edge22_Node000013_Node000021" class="edge">
<title>Node13&#45;&gt;Node21</title>
<g id="a_edge22_Node000013_Node000021"><a xlink:title=" ">
<path fill="none" stroke="#63b8ff" d="M379.56,-219.98C358.04,-211.34 324.49,-197.87 299.94,-188.02"/>
<polygon fill="#63b8ff" stroke="#63b8ff" points="300.95,-184.65 290.36,-184.17 298.34,-191.14 300.95,-184.65"/>
</a>
</g>
</g>
<!-- Node13&#45;&gt;Node22 -->
<g id="edge23_Node000013_Node000022" class="edge">
<title>Node13&#45;&gt;Node22</title>
<g id="a_edge23_Node000013_Node000022"><a xlink:title=" ">
<path fill="none" stroke="#63b8ff" d="M363.43,-228.73C325.39,-226.92 267.1,-218.17 231.77,-184 219.76,-172.38 215.26,-153.52 213.62,-139.36"/>
<polygon fill="#63b8ff" stroke="#63b8ff" points="217.09,-138.94 212.82,-129.25 210.12,-139.49 217.09,-138.94"/>
</a>
</g>
</g>
<!-- Node15&#45;&gt;Node10 -->
<g id="edge15_Node000015_Node000010" class="edge">
<title>Node15&#45;&gt;Node10</title>
<g id="a_edge15_Node000015_Node000010"><a xlink:title=" ">
<path fill="none" stroke="#63b8ff" d="M879.77,-164.75C879.77,-157.8 879.77,-147.85 879.77,-139.13"/>
<polygon fill="#63b8ff" stroke="#63b8ff" points="883.27,-139.09 879.77,-129.09 876.27,-139.09 883.27,-139.09"/>
</a>
</g>
</g>
<!-- Node24 -->
<g id="Node000024" class="node">
<title>Node24</title>
<g id="a_Node000024"><a xlink:href="_log_outputter_console_8hpp.html" target="_top" xlink:title=" ">
<polygon fill="white" stroke="#666666" points="776.77,-184 636.77,-184 636.77,-165 776.77,-165 776.77,-184"/>
<text text-anchor="middle" x="706.77" y="-172" font-family="Helvetica,sans-Serif" font-size="10.00">LogOutputterConsole.hpp</text>
</a>
</g>
</g>
<!-- Node23&#45;&gt;Node24 -->
<g id="edge25_Node000023_Node000024" class="edge">
<title>Node23&#45;&gt;Node24</title>
<g id="a_edge25_Node000023_Node000024"><a xlink:title=" ">
<path fill="none" stroke="#63b8ff" d="M825.11,-219.98C801.92,-211.27 765.65,-197.63 739.37,-187.75"/>
<polygon fill="#63b8ff" stroke="#63b8ff" points="740.43,-184.41 729.83,-184.17 737.96,-190.97 740.43,-184.41"/>
</a>
</g>
</g>
<!-- Node28 -->
<g id="Node000028" class="node">
<title>Node28</title>
<g id="a_Node000028"><a xlink:href="_log_outputter_file_8hpp.html" target="_top" xlink:title=" ">
<polygon fill="white" stroke="#666666" points="1063.27,-184 944.27,-184 944.27,-165 1063.27,-165 1063.27,-184"/>
<text text-anchor="middle" x="1003.77" y="-172" font-family="Helvetica,sans-Serif" font-size="10.00">LogOutputterFile.hpp</text>
</a>
</g>
</g>
<!-- Node23&#45;&gt;Node28 -->
<g id="edge33_Node000023_Node000028" class="edge">
<title>Node23&#45;&gt;Node28</title>
<g id="a_edge33_Node000023_Node000028"><a xlink:title=" ">
<path fill="none" stroke="#63b8ff" d="M872.83,-219.98C898.8,-211.16 939.58,-197.31 968.73,-187.41"/>
<polygon fill="#63b8ff" stroke="#63b8ff" points="970.16,-190.61 978.51,-184.08 967.91,-183.99 970.16,-190.61"/>
</a>
</g>
</g>
<!-- Node29 -->
<g id="Node000029" class="node">
<title>Node29</title>
<g id="a_Node000029"><a xlink:href="_logger_8hpp.html" target="_top" xlink:title=" ">
<polygon fill="white" stroke="#666666" points="618.77,-184 548.77,-184 548.77,-165 618.77,-165 618.77,-184"/>
<text text-anchor="middle" x="583.77" y="-172" font-family="Helvetica,sans-Serif" font-size="10.00">Logger.hpp</text>
</a>
</g>
</g>
<!-- Node23&#45;&gt;Node29 -->
<g id="edge37_Node000023_Node000029" class="edge">
<title>Node23&#45;&gt;Node29</title>
<g id="a_edge37_Node000023_Node000029"><a xlink:title=" ">
<path fill="none" stroke="#63b8ff" d="M820.01,-222.93C774.62,-213.81 684.06,-195.64 629.2,-184.62"/>
<polygon fill="#63b8ff" stroke="#63b8ff" points="629.55,-181.12 619.06,-182.58 628.17,-187.98 629.55,-181.12"/>
</a>
</g>
</g>
<!-- Node24&#45;&gt;Node10 -->
<g id="edge26_Node000024_Node000010" class="edge">
<title>Node24&#45;&gt;Node10</title>
<g id="a_edge26_Node000024_Node000010"><a xlink:title=" ">
<path fill="none" stroke="#63b8ff" d="M734.56,-164.98C763.73,-156.05 809.77,-141.94 842.17,-132.02"/>
<polygon fill="#63b8ff" stroke="#63b8ff" points="843.22,-135.36 851.75,-129.08 841.17,-128.66 843.22,-135.36"/>
</a>
</g>
</g>
<!-- Node25 -->
<g id="Node000025" class="node">
<title>Node25</title>
<g id="a_Node000025"><a xlink:title=" ">
<polygon fill="#e0e0e0" stroke="#999999" points="824.77,-129 786.77,-129 786.77,-110 824.77,-110 824.77,-129"/>
<text text-anchor="middle" x="805.77" y="-117" font-family="Helvetica,sans-Serif" font-size="10.00">map</text>
</a>
</g>
</g>
<!-- Node24&#45;&gt;Node25 -->
<g id="edge27_Node000024_Node000025" class="edge">
<title>Node24&#45;&gt;Node25</title>
<g id="a_edge27_Node000024_Node000025"><a xlink:title=" ">
<path fill="none" stroke="#63b8ff" d="M722.67,-164.98C738.31,-156.61 762.42,-143.7 780.65,-133.95"/>
<polygon fill="#63b8ff" stroke="#63b8ff" points="782.41,-136.98 789.57,-129.17 779.1,-130.8 782.41,-136.98"/>
</a>
</g>
</g>
<!-- Node26 -->
<g id="Node000026" class="node">
<title>Node26</title>
<g id="a_Node000026"><a xlink:href="_a_log_outputter_8hpp.html" target="_top" xlink:title=" ">
<polygon fill="white" stroke="#666666" points="768.27,-129 661.27,-129 661.27,-110 768.27,-110 768.27,-129"/>
<text text-anchor="middle" x="714.77" y="-117" font-family="Helvetica,sans-Serif" font-size="10.00">ALogOutputter.hpp</text>
</a>
</g>
</g>
<!-- Node24&#45;&gt;Node26 -->
<g id="edge28_Node000024_Node000026" class="edge">
<title>Node24&#45;&gt;Node26</title>
<g id="a_edge28_Node000024_Node000026"><a xlink:title=" ">
<path fill="none" stroke="#63b8ff" d="M708.09,-164.75C709.14,-157.8 710.64,-147.85 711.96,-139.13"/>
<polygon fill="#63b8ff" stroke="#63b8ff" points="715.44,-139.5 713.47,-129.09 708.52,-138.45 715.44,-139.5"/>
</a>
</g>
</g>
<!-- Node27 -->
<g id="Node000027" class="node">
<title>Node27</title>
<g id="a_Node000027"><a xlink:href="_log_data_8hpp.html" target="_top" xlink:title=" ">
<polygon fill="white" stroke="#666666" points="626.77,-74 548.77,-74 548.77,-55 626.77,-55 626.77,-74"/>
<text text-anchor="middle" x="587.77" y="-62" font-family="Helvetica,sans-Serif" font-size="10.00">LogData.hpp</text>
</a>
</g>
</g>
<!-- Node26&#45;&gt;Node27 -->
<g id="edge29_Node000026_Node000027" class="edge">
<title>Node26&#45;&gt;Node27</title>
<g id="a_edge29_Node000026_Node000027"><a xlink:title=" ">
<path fill="none" stroke="#63b8ff" d="M694.36,-109.98C673.75,-101.38 641.66,-87.99 618.07,-78.15"/>
<polygon fill="#63b8ff" stroke="#63b8ff" points="619.12,-74.79 608.54,-74.17 616.42,-81.25 619.12,-74.79"/>
</a>
</g>
</g>
<!-- Node27&#45;&gt;Node4 -->
<g id="edge32_Node000027_Node000004" class="edge">
<title>Node27&#45;&gt;Node4</title>
<g id="a_edge32_Node000027_Node000004"><a xlink:title=" ">
<path fill="none" stroke="#63b8ff" d="M626.84,-57.2C631.53,-56.46 636.26,-55.71 640.77,-55 734.41,-40.31 845.15,-23.46 898.65,-15.36"/>
<polygon fill="#63b8ff" stroke="#63b8ff" points="899.2,-18.81 908.57,-13.85 898.16,-11.89 899.2,-18.81"/>
</a>
</g>
</g>
<!-- Node27&#45;&gt;Node19 -->
<g id="edge30_Node000027_Node000019" class="edge">
<title>Node27&#45;&gt;Node19</title>
<g id="a_edge30_Node000027_Node000019"><a xlink:title=" ">
<path fill="none" stroke="#63b8ff" d="M548.66,-55.96C493.98,-45.42 395.69,-26.48 344.98,-16.71"/>
<polygon fill="#63b8ff" stroke="#63b8ff" points="345.4,-13.22 334.92,-14.77 344.07,-20.1 345.4,-13.22"/>
</a>
</g>
</g>
<!-- Node27&#45;&gt;Node20 -->
<g id="edge31_Node000027_Node000020" class="edge">
<title>Node27&#45;&gt;Node20</title>
<g id="a_edge31_Node000027_Node000020"><a xlink:title=" ">
<path fill="none" stroke="#63b8ff" d="M587.77,-54.75C587.77,-47.8 587.77,-37.85 587.77,-29.13"/>
<polygon fill="#63b8ff" stroke="#63b8ff" points="591.27,-29.09 587.77,-19.09 584.27,-29.09 591.27,-29.09"/>
</a>
</g>
</g>
<!-- Node28&#45;&gt;Node8 -->
<g id="edge34_Node000028_Node000008" class="edge">
<title>Node28&#45;&gt;Node8</title>
<g id="a_edge34_Node000028_Node000008"><a xlink:title=" ">
<path fill="none" stroke="#63b8ff" d="M1012.69,-164.75C1020.55,-157.03 1032.2,-145.6 1041.69,-136.28"/>
<polygon fill="#63b8ff" stroke="#63b8ff" points="1044.33,-138.59 1049.02,-129.09 1039.43,-133.6 1044.33,-138.59"/>
</a>
</g>
</g>
<!-- Node28&#45;&gt;Node10 -->
<g id="edge35_Node000028_Node000010" class="edge">
<title>Node28&#45;&gt;Node10</title>
<g id="a_edge35_Node000028_Node000010"><a xlink:title=" ">
<path fill="none" stroke="#63b8ff" d="M983.85,-164.98C963.72,-156.38 932.39,-142.99 909.36,-133.15"/>
<polygon fill="#63b8ff" stroke="#63b8ff" points="910.62,-129.88 900.05,-129.17 907.87,-136.32 910.62,-129.88"/>
</a>
</g>
</g>
<!-- Node28&#45;&gt;Node26 -->
<g id="edge36_Node000028_Node000026" class="edge">
<title>Node28&#45;&gt;Node26</title>
<g id="a_edge36_Node000028_Node000026"><a xlink:title=" ">
<path fill="none" stroke="#63b8ff" d="M957.34,-164.98C906.82,-155.72 826.03,-140.9 771.72,-130.94"/>
<polygon fill="#63b8ff" stroke="#63b8ff" points="772.03,-127.44 761.56,-129.08 770.77,-134.33 772.03,-127.44"/>
</a>
</g>
</g>
<!-- Node29&#45;&gt;Node4 -->
<g id="edge38_Node000029_Node000004" class="edge">
<title>Node29&#45;&gt;Node4</title>
<g id="a_edge38_Node000029_Node000004"><a xlink:title=" ">
<path fill="none" stroke="#63b8ff" d="M590.85,-164.92C602.36,-151.5 626.38,-125.46 651.77,-110 733.72,-60.11 844.4,-30.09 898.41,-17.48"/>
<polygon fill="#63b8ff" stroke="#63b8ff" points="899.46,-20.83 908.43,-15.19 897.9,-14 899.46,-20.83"/>
</a>
</g>
</g>
<!-- Node29&#45;&gt;Node22 -->
<g id="edge39_Node000029_Node000022" class="edge">
<title>Node29&#45;&gt;Node22</title>
<g id="a_edge39_Node000029_Node000022"><a xlink:title=" ">
<path fill="none" stroke="#63b8ff" d="M548.53,-168.47C477.13,-158.27 316.25,-135.28 246.3,-125.29"/>
<polygon fill="#63b8ff" stroke="#63b8ff" points="246.67,-121.81 236.27,-123.86 245.68,-128.74 246.67,-121.81"/>
</a>
</g>
</g>
<!-- Node29&#45;&gt;Node26 -->
<g id="edge40_Node000029_Node000026" class="edge">
<title>Node29&#45;&gt;Node26</title>
<g id="a_edge40_Node000029_Node000026"><a xlink:title=" ">
<path fill="none" stroke="#63b8ff" d="M604.82,-164.98C626.17,-156.34 659.47,-142.87 683.83,-133.02"/>
<polygon fill="#63b8ff" stroke="#63b8ff" points="685.38,-136.17 693.34,-129.17 682.75,-129.68 685.38,-136.17"/>
</a>
</g>
</g>
<!-- Node29&#45;&gt;Node27 -->
<g id="edge41_Node000029_Node000027" class="edge">
<title>Node29&#45;&gt;Node27</title>
<g id="a_edge41_Node000029_Node000027"><a xlink:title=" ">
<path fill="none" stroke="#63b8ff" d="M584.1,-164.66C584.74,-147.17 586.2,-107.8 587.07,-84.27"/>
<polygon fill="#63b8ff" stroke="#63b8ff" points="590.57,-84.28 587.45,-74.16 583.58,-84.02 590.57,-84.28"/>
</a>
</g>
</g>
</g>
</svg>
