<?xml version="1.0" encoding="UTF-8" standalone="no"?>
<!DOCTYPE svg PUBLIC "-//W3C//DTD SVG 1.1//EN"
 "http://www.w3.org/Graphics/SVG/1.1/DTD/svg11.dtd">
<!-- Generated by graphviz version 2.43.0 (0)
 -->
<!-- Title: src/FileSystemPolicy.cpp Pages: 1 -->
<!--zoomable 357 -->

<svg id="main" version="1.1" xmlns="http://www.w3.org/2000/svg" xmlns:xlink="http://www.w3.org/1999/xlink" xml:space="preserve" onload="init(evt)">
<style type="text/css"><![CDATA[
.node, .edge {opacity: 0.7;}
.node.selected, .edge.selected {opacity: 1;}
.edge:hover path { stroke: red; }
.edge:hover polygon { stroke: red; fill: red; }
]]></style>

<defs>
  <circle id="rim" cx="0" cy="0" r="7"/>
  <circle id="rim2" cx="0" cy="0" r="3.5"/>
  <g id="zoomPlus">
    <use xlink:href="#rim" fill="#404040"><set attributeName="fill" to="#808080" begin="zoomplus.mouseover" end="zoomplus.mouseout"/></use>
    <path d="M-4,0h8M0,-4v8" fill="none" stroke="white" stroke-width="1.5" pointer-events="none"/>
  </g>
  <g id="zoomMin">
    <use xlink:href="#rim" fill="#404040"><set attributeName="fill" to="#808080" begin="zoomminus.mouseover" end="zoomminus.mouseout"/></use>
    <path d="M-4,0h8" fill="none" stroke="white" stroke-width="1.5" pointer-events="none"/>
  </g>
  <g id="arrowUp" transform="translate(30 24)">
    <use xlink:href="#rim"/>
    <path pointer-events="none" fill="none" stroke="white" stroke-width="1.5" d="M0,-3.0v7 M-2.5,-0.5L0,-3.0L2.5,-0.5"/>
  </g>
  <g id="arrowRight" transform="rotate(90) translate(36 -43)">
    <use xlink:href="#rim"/>
    <path pointer-events="none" fill="none" stroke="white" stroke-width="1.5" d="M0,-3.0v7 M-2.5,-0.5L0,-3.0L2.5,-0.5"/>
  </g>
  <g id="arrowDown" transform="rotate(180) translate(-30 -48)">
    <use xlink:href="#rim"/>
    <path pointer-events="none" fill="none" stroke="white" stroke-width="1.5" d="M0,-3.0v7 M-2.5,-0.5L0,-3.0L2.5,-0.5"/>
  </g>
  <g id="arrowLeft" transform="rotate(270) translate(-36 17)">
    <use xlink:href="#rim"/>
    <path pointer-events="none" fill="none" stroke="white" stroke-width="1.5" d="M0,-3.0v7 M-2.5,-0.5L0,-3.0L2.5,-0.5"/>
  </g>
  <g id="resetDef">
    <use xlink:href="#rim2" fill="#404040"><set attributeName="fill" to="#808080" begin="reset.mouseover" end="reset.mouseout"/></use>
  </g>
</defs>
<script type="application/ecmascript">
var viewWidth = 1396;
var viewHeight = 357;
var sectionId = 'dynsection-0';
</script>
<script type="application/ecmascript" xlink:href="svg.min.js"/>
<svg id="graph" class="graph">
<g id="viewport">
<title>src/FileSystemPolicy.cpp</title>
<!-- Node1 -->
<g id="Node000001" class="node">
<title>Node1</title>
<g id="a_Node000001"><a xlink:title=" ">
<polygon fill="#999999" stroke="#666666" points="688.5,-349 552.5,-349 552.5,-330 688.5,-330 688.5,-349"/>
<text text-anchor="middle" x="620.5" y="-337" font-family="Helvetica,sans-Serif" font-size="10.00">src/FileSystemPolicy.cpp</text>
</a>
</g>
</g>
<!-- Node2 -->
<g id="Node000002" class="node">
<title>Node2</title>
<g id="a_Node000002"><a xlink:href="_file_system_policy_8hpp.html" target="_top" xlink:title=" ">
<polygon fill="white" stroke="#666666" points="680,-294 561,-294 561,-275 680,-275 680,-294"/>
<text text-anchor="middle" x="620.5" y="-282" font-family="Helvetica,sans-Serif" font-size="10.00">FileSystemPolicy.hpp</text>
</a>
</g>
</g>
<!-- Node1&#45;&gt;Node2 -->
<g id="edge1_Node000001_Node000002" class="edge">
<title>Node1&#45;&gt;Node2</title>
<g id="a_edge1_Node000001_Node000002"><a xlink:title=" ">
<path fill="none" stroke="#63b8ff" d="M620.5,-329.75C620.5,-322.8 620.5,-312.85 620.5,-304.13"/>
<polygon fill="#63b8ff" stroke="#63b8ff" points="624,-304.09 620.5,-294.09 617,-304.09 624,-304.09"/>
</a>
</g>
</g>
<!-- Node3 -->
<g id="Node000003" class="node">
<title>Node3</title>
<g id="a_Node000003"><a xlink:title=" ">
<polygon fill="#e0e0e0" stroke="#999999" points="142,-239 95,-239 95,-220 142,-220 142,-239"/>
<text text-anchor="middle" x="118.5" y="-227" font-family="Helvetica,sans-Serif" font-size="10.00">cerrno</text>
</a>
</g>
</g>
<!-- Node2&#45;&gt;Node3 -->
<g id="edge2_Node000002_Node000003" class="edge">
<title>Node2&#45;&gt;Node3</title>
<g id="a_edge2_Node000002_Node000003"><a xlink:title=" ">
<path fill="none" stroke="#63b8ff" d="M560.87,-280.85C473.31,-276.31 304.76,-265.03 152.22,-238.83"/>
<polygon fill="#63b8ff" stroke="#63b8ff" points="152.65,-235.35 142.2,-237.08 151.45,-242.25 152.65,-235.35"/>
</a>
</g>
</g>
<!-- Node4 -->
<g id="Node000004" class="node">
<title>Node4</title>
<g id="a_Node000004"><a xlink:title=" ">
<polygon fill="#e0e0e0" stroke="#999999" points="206.5,-239 160.5,-239 160.5,-220 206.5,-220 206.5,-239"/>
<text text-anchor="middle" x="183.5" y="-227" font-family="Helvetica,sans-Serif" font-size="10.00">cstdio</text>
</a>
</g>
</g>
<!-- Node2&#45;&gt;Node4 -->
<g id="edge3_Node000002_Node000004" class="edge">
<title>Node2&#45;&gt;Node4</title>
<g id="a_edge3_Node000002_Node000004"><a xlink:title=" ">
<path fill="none" stroke="#63b8ff" d="M560.73,-279.75C483.36,-274.28 344.3,-262.31 216.77,-238.98"/>
<polygon fill="#63b8ff" stroke="#63b8ff" points="217.3,-235.51 206.83,-237.13 216.02,-242.4 217.3,-235.51"/>
</a>
</g>
</g>
<!-- Node5 -->
<g id="Node000005" class="node">
<title>Node5</title>
<g id="a_Node000005"><a xlink:title=" ">
<polygon fill="#e0e0e0" stroke="#999999" points="274.5,-239 224.5,-239 224.5,-220 274.5,-220 274.5,-239"/>
<text text-anchor="middle" x="249.5" y="-227" font-family="Helvetica,sans-Serif" font-size="10.00">cstring</text>
</a>
</g>
</g>
<!-- Node2&#45;&gt;Node5 -->
<g id="edge4_Node000002_Node000005" class="edge">
<title>Node2&#45;&gt;Node5</title>
<g id="a_edge4_Node000002_Node000005"><a xlink:title=" ">
<path fill="none" stroke="#63b8ff" d="M560.82,-277.69C495.32,-270.85 386.92,-258.17 284.57,-239.01"/>
<polygon fill="#63b8ff" stroke="#63b8ff" points="285.16,-235.56 274.68,-237.13 283.85,-242.44 285.16,-235.56"/>
</a>
</g>
</g>
<!-- Node6 -->
<g id="Node000006" class="node">
<title>Node6</title>
<g id="a_Node000006"><a xlink:title=" ">
<polygon fill="#e0e0e0" stroke="#999999" points="346.5,-239 292.5,-239 292.5,-220 346.5,-220 346.5,-239"/>
<text text-anchor="middle" x="319.5" y="-227" font-family="Helvetica,sans-Serif" font-size="10.00">dirent.h</text>
</a>
</g>
</g>
<!-- Node2&#45;&gt;Node6 -->
<g id="edge5_Node000002_Node000006" class="edge">
<title>Node2&#45;&gt;Node6</title>
<g id="a_edge5_Node000002_Node000006"><a xlink:title=" ">
<path fill="none" stroke="#63b8ff" d="M567.12,-274.92C514.49,-266.34 431.82,-252.49 360.5,-239 359.25,-238.76 357.99,-238.52 356.71,-238.27"/>
<polygon fill="#63b8ff" stroke="#63b8ff" points="357.31,-234.82 346.82,-236.3 355.94,-241.69 357.31,-234.82"/>
</a>
</g>
</g>
<!-- Node7 -->
<g id="Node000007" class="node">
<title>Node7</title>
<g id="a_Node000007"><a xlink:title=" ">
<polygon fill="#e0e0e0" stroke="#999999" points="55,-129 0,-129 0,-110 55,-110 55,-129"/>
<text text-anchor="middle" x="27.5" y="-117" font-family="Helvetica,sans-Serif" font-size="10.00">fstream</text>
</a>
</g>
</g>
<!-- Node2&#45;&gt;Node7 -->
<g id="edge6_Node000002_Node000007" class="edge">
<title>Node2&#45;&gt;Node7</title>
<g id="a_edge6_Node000002_Node000007"><a xlink:title=" ">
<path fill="none" stroke="#63b8ff" d="M560.56,-276.26C514.12,-269.57 448.62,-257.79 393.5,-239 375.63,-232.91 373.57,-225.48 355.5,-220 232.9,-182.82 178.33,-251.6 69.5,-184 52.7,-173.56 41.18,-153.62 34.52,-138.86"/>
<polygon fill="#63b8ff" stroke="#63b8ff" points="37.59,-137.13 30.52,-129.24 31.13,-139.81 37.59,-137.13"/>
</a>
</g>
</g>
<!-- Node8 -->
<g id="Node000008" class="node">
<title>Node8</title>
<g id="a_Node000008"><a xlink:title=" ">
<polygon fill="#e0e0e0" stroke="#999999" points="671.5,-129 611.5,-129 611.5,-110 671.5,-110 671.5,-129"/>
<text text-anchor="middle" x="641.5" y="-117" font-family="Helvetica,sans-Serif" font-size="10.00">iostream</text>
</a>
</g>
</g>
<!-- Node2&#45;&gt;Node8 -->
<g id="edge7_Node000002_Node000008" class="edge">
<title>Node2&#45;&gt;Node8</title>
<g id="a_edge7_Node000002_Node000008"><a xlink:title=" ">
<path fill="none" stroke="#63b8ff" d="M633.11,-274.89C654.32,-259.54 696.38,-225.19 712.5,-184 715.58,-176.14 716.59,-172.39 712.5,-165 704.66,-150.83 690.21,-140.57 676.39,-133.5"/>
<polygon fill="#63b8ff" stroke="#63b8ff" points="677.55,-130.18 667.01,-129.1 674.58,-136.52 677.55,-130.18"/>
</a>
</g>
</g>
<!-- Node9 -->
<g id="Node000009" class="node">
<title>Node9</title>
<g id="a_Node000009"><a xlink:title=" ">
<polygon fill="#e0e0e0" stroke="#999999" points="1215,-239 1150,-239 1150,-220 1215,-220 1215,-239"/>
<text text-anchor="middle" x="1182.5" y="-227" font-family="Helvetica,sans-Serif" font-size="10.00">stdexcept</text>
</a>
</g>
</g>
<!-- Node2&#45;&gt;Node9 -->
<g id="edge8_Node000002_Node000009" class="edge">
<title>Node2&#45;&gt;Node9</title>
<g id="a_edge8_Node000002_Node000009"><a xlink:title=" ">
<path fill="none" stroke="#63b8ff" d="M680.17,-280.15C776.32,-274.34 971.38,-260.88 1135.5,-239 1136.96,-238.8 1138.45,-238.6 1139.95,-238.38"/>
<polygon fill="#63b8ff" stroke="#63b8ff" points="1140.62,-241.81 1149.95,-236.79 1139.52,-234.9 1140.62,-241.81"/>
</a>
</g>
</g>
<!-- Node10 -->
<g id="Node000010" class="node">
<title>Node10</title>
<g id="a_Node000010"><a xlink:title=" ">
<polygon fill="#e0e0e0" stroke="#999999" points="1150.5,-19 1106.5,-19 1106.5,0 1150.5,0 1150.5,-19"/>
<text text-anchor="middle" x="1128.5" y="-7" font-family="Helvetica,sans-Serif" font-size="10.00">string</text>
</a>
</g>
</g>
<!-- Node2&#45;&gt;Node10 -->
<g id="edge9_Node000002_Node000010" class="edge">
<title>Node2&#45;&gt;Node10</title>
<g id="a_edge9_Node000002_Node000010"><a xlink:title=" ">
<path fill="none" stroke="#63b8ff" d="M680.14,-282.36C810.33,-278.43 1113.12,-261.03 1172.5,-184 1209.44,-136.08 1164.74,-60.7 1141.22,-27.34"/>
<polygon fill="#63b8ff" stroke="#63b8ff" points="1143.94,-25.13 1135.23,-19.1 1138.28,-29.25 1143.94,-25.13"/>
</a>
</g>
</g>
<!-- Node11 -->
<g id="Node000011" class="node">
<title>Node11</title>
<g id="a_Node000011"><a xlink:title=" ">
<polygon fill="#e0e0e0" stroke="#999999" points="1297.5,-239 1233.5,-239 1233.5,-220 1297.5,-220 1297.5,-239"/>
<text text-anchor="middle" x="1265.5" y="-227" font-family="Helvetica,sans-Serif" font-size="10.00">sys/stat.h</text>
</a>
</g>
</g>
<!-- Node2&#45;&gt;Node11 -->
<g id="edge10_Node000002_Node000011" class="edge">
<title>Node2&#45;&gt;Node11</title>
<g id="a_edge10_Node000002_Node000011"><a xlink:title=" ">
<path fill="none" stroke="#63b8ff" d="M680.36,-281.69C787.4,-277.87 1018.78,-267.07 1223.31,-238.98"/>
<polygon fill="#63b8ff" stroke="#63b8ff" points="1223.92,-242.43 1233.34,-237.58 1222.95,-235.49 1223.92,-242.43"/>
</a>
</g>
</g>
<!-- Node12 -->
<g id="Node000012" class="node">
<title>Node12</title>
<g id="a_Node000012"><a xlink:title=" ">
<polygon fill="#e0e0e0" stroke="#999999" points="1387.5,-239 1315.5,-239 1315.5,-220 1387.5,-220 1387.5,-239"/>
<text text-anchor="middle" x="1351.5" y="-227" font-family="Helvetica,sans-Serif" font-size="10.00">sys/types.h</text>
</a>
</g>
</g>
<!-- Node2&#45;&gt;Node12 -->
<g id="edge11_Node000002_Node000012" class="edge">
<title>Node2&#45;&gt;Node12</title>
<g id="a_edge11_Node000002_Node000012"><a xlink:title=" ">
<path fill="none" stroke="#63b8ff" d="M680.38,-282.07C798.17,-278.72 1068.41,-268.41 1305.04,-239.03"/>
<polygon fill="#63b8ff" stroke="#63b8ff" points="1305.72,-242.47 1315.21,-237.75 1304.85,-235.52 1305.72,-242.47"/>
</a>
</g>
</g>
<!-- Node13 -->
<g id="Node000013" class="node">
<title>Node13</title>
<g id="a_Node000013"><a xlink:href="_log_8hpp.html" target="_top" xlink:title=" ">
<polygon fill="white" stroke="#666666" points="954,-239 899,-239 899,-220 954,-220 954,-239"/>
<text text-anchor="middle" x="926.5" y="-227" font-family="Helvetica,sans-Serif" font-size="10.00">Log.hpp</text>
</a>
</g>
</g>
<!-- Node2&#45;&gt;Node13 -->
<g id="edge12_Node000002_Node000013" class="edge">
<title>Node2&#45;&gt;Node13</title>
<g id="a_edge12_Node000002_Node000013"><a xlink:title=" ">
<path fill="none" stroke="#63b8ff" d="M669.66,-274.98C730.77,-264.4 833.71,-246.57 888.89,-237.01"/>
<polygon fill="#63b8ff" stroke="#63b8ff" points="889.68,-240.43 898.94,-235.27 888.49,-233.53 889.68,-240.43"/>
</a>
</g>
</g>
<!-- Node23 -->
<g id="Node000023" class="node">
<title>Node23</title>
<g id="a_Node000023"><a xlink:href="utilities_8hpp.html" target="_top" xlink:title=" ">
<polygon fill="white" stroke="#666666" points="476.5,-239 402.5,-239 402.5,-220 476.5,-220 476.5,-239"/>
<text text-anchor="middle" x="439.5" y="-227" font-family="Helvetica,sans-Serif" font-size="10.00">utilities.hpp</text>
</a>
</g>
</g>
<!-- Node2&#45;&gt;Node23 -->
<g id="edge30_Node000002_Node000023" class="edge">
<title>Node2&#45;&gt;Node23</title>
<g id="a_edge30_Node000002_Node000023"><a xlink:title=" ">
<path fill="none" stroke="#63b8ff" d="M591.42,-274.98C560.9,-266.05 512.74,-251.94 478.84,-242.02"/>
<polygon fill="#63b8ff" stroke="#63b8ff" points="479.39,-238.53 468.81,-239.08 477.42,-245.25 479.39,-238.53"/>
</a>
</g>
</g>
<!-- Node14 -->
<g id="Node000014" class="node">
<title>Node14</title>
<g id="a_Node000014"><a xlink:href="_log_outputter_console_8hpp.html" target="_top" xlink:title=" ">
<polygon fill="white" stroke="#666666" points="1075.5,-184 935.5,-184 935.5,-165 1075.5,-165 1075.5,-184"/>
<text text-anchor="middle" x="1005.5" y="-172" font-family="Helvetica,sans-Serif" font-size="10.00">LogOutputterConsole.hpp</text>
</a>
</g>
</g>
<!-- Node13&#45;&gt;Node14 -->
<g id="edge13_Node000013_Node000014" class="edge">
<title>Node13&#45;&gt;Node14</title>
<g id="a_edge13_Node000013_Node000014"><a xlink:title=" ">
<path fill="none" stroke="#63b8ff" d="M939.19,-219.98C951.33,-211.84 969.86,-199.41 984.25,-189.76"/>
<polygon fill="#63b8ff" stroke="#63b8ff" points="986.22,-192.65 992.58,-184.17 982.32,-186.84 986.22,-192.65"/>
</a>
</g>
</g>
<!-- Node20 -->
<g id="Node000020" class="node">
<title>Node20</title>
<g id="a_Node000020"><a xlink:href="_log_outputter_file_8hpp.html" target="_top" xlink:title=" ">
<polygon fill="white" stroke="#666666" points="917,-184 798,-184 798,-165 917,-165 917,-184"/>
<text text-anchor="middle" x="857.5" y="-172" font-family="Helvetica,sans-Serif" font-size="10.00">LogOutputterFile.hpp</text>
</a>
</g>
</g>
<!-- Node13&#45;&gt;Node20 -->
<g id="edge21_Node000013_Node000020" class="edge">
<title>Node13&#45;&gt;Node20</title>
<g id="a_edge21_Node000013_Node000020"><a xlink:title=" ">
<path fill="none" stroke="#63b8ff" d="M915.41,-219.98C905.01,-212 889.24,-199.88 876.78,-190.31"/>
<polygon fill="#63b8ff" stroke="#63b8ff" points="878.85,-187.49 868.79,-184.17 874.59,-193.04 878.85,-187.49"/>
</a>
</g>
</g>
<!-- Node21 -->
<g id="Node000021" class="node">
<title>Node21</title>
<g id="a_Node000021"><a xlink:href="_logger_8hpp.html" target="_top" xlink:title=" ">
<polygon fill="white" stroke="#666666" points="1163.5,-184 1093.5,-184 1093.5,-165 1163.5,-165 1163.5,-184"/>
<text text-anchor="middle" x="1128.5" y="-172" font-family="Helvetica,sans-Serif" font-size="10.00">Logger.hpp</text>
</a>
</g>
</g>
<!-- Node13&#45;&gt;Node21 -->
<g id="edge25_Node000013_Node000021" class="edge">
<title>Node13&#45;&gt;Node21</title>
<g id="a_edge25_Node000013_Node000021"><a xlink:title=" ">
<path fill="none" stroke="#63b8ff" d="M954.16,-221.24C988.16,-212.32 1046.2,-197.09 1085.9,-186.68"/>
<polygon fill="#63b8ff" stroke="#63b8ff" points="1087.04,-190 1095.83,-184.07 1085.27,-183.23 1087.04,-190"/>
</a>
</g>
</g>
<!-- Node14&#45;&gt;Node8 -->
<g id="edge14_Node000014_Node000008" class="edge">
<title>Node14&#45;&gt;Node8</title>
<g id="a_edge14_Node000014_Node000008"><a xlink:title=" ">
<path fill="none" stroke="#63b8ff" d="M947.02,-164.98C872.77,-154.17 746.61,-135.8 682.1,-126.41"/>
<polygon fill="#63b8ff" stroke="#63b8ff" points="682.32,-122.91 671.92,-124.93 681.31,-129.83 682.32,-122.91"/>
</a>
</g>
</g>
<!-- Node15 -->
<g id="Node000015" class="node">
<title>Node15</title>
<g id="a_Node000015"><a xlink:title=" ">
<polygon fill="#e0e0e0" stroke="#999999" points="1034.5,-129 996.5,-129 996.5,-110 1034.5,-110 1034.5,-129"/>
<text text-anchor="middle" x="1015.5" y="-117" font-family="Helvetica,sans-Serif" font-size="10.00">map</text>
</a>
</g>
</g>
<!-- Node14&#45;&gt;Node15 -->
<g id="edge15_Node000014_Node000015" class="edge">
<title>Node14&#45;&gt;Node15</title>
<g id="a_edge15_Node000014_Node000015"><a xlink:title=" ">
<path fill="none" stroke="#63b8ff" d="M1007.15,-164.75C1008.46,-157.8 1010.34,-147.85 1011.98,-139.13"/>
<polygon fill="#63b8ff" stroke="#63b8ff" points="1015.46,-139.56 1013.88,-129.09 1008.59,-138.27 1015.46,-139.56"/>
</a>
</g>
</g>
<!-- Node16 -->
<g id="Node000016" class="node">
<title>Node16</title>
<g id="a_Node000016"><a xlink:href="_a_log_outputter_8hpp.html" target="_top" xlink:title=" ">
<polygon fill="white" stroke="#666666" points="978,-129 871,-129 871,-110 978,-110 978,-129"/>
<text text-anchor="middle" x="924.5" y="-117" font-family="Helvetica,sans-Serif" font-size="10.00">ALogOutputter.hpp</text>
</a>
</g>
</g>
<!-- Node14&#45;&gt;Node16 -->
<g id="edge16_Node000014_Node000016" class="edge">
<title>Node14&#45;&gt;Node16</title>
<g id="a_edge16_Node000014_Node000016"><a xlink:title=" ">
<path fill="none" stroke="#63b8ff" d="M992.49,-164.98C980.04,-156.84 961.04,-144.41 946.29,-134.76"/>
<polygon fill="#63b8ff" stroke="#63b8ff" points="948.04,-131.72 937.75,-129.17 944.2,-137.57 948.04,-131.72"/>
</a>
</g>
</g>
<!-- Node17 -->
<g id="Node000017" class="node">
<title>Node17</title>
<g id="a_Node000017"><a xlink:href="_log_data_8hpp.html" target="_top" xlink:title=" ">
<polygon fill="white" stroke="#666666" points="963.5,-74 885.5,-74 885.5,-55 963.5,-55 963.5,-74"/>
<text text-anchor="middle" x="924.5" y="-62" font-family="Helvetica,sans-Serif" font-size="10.00">LogData.hpp</text>
</a>
</g>
</g>
<!-- Node16&#45;&gt;Node17 -->
<g id="edge17_Node000016_Node000017" class="edge">
<title>Node16&#45;&gt;Node17</title>
<g id="a_edge17_Node000016_Node000017"><a xlink:title=" ">
<path fill="none" stroke="#63b8ff" d="M924.5,-109.75C924.5,-102.8 924.5,-92.85 924.5,-84.13"/>
<polygon fill="#63b8ff" stroke="#63b8ff" points="928,-84.09 924.5,-74.09 921,-84.09 928,-84.09"/>
</a>
</g>
</g>
<!-- Node17&#45;&gt;Node10 -->
<g id="edge20_Node000017_Node000010" class="edge">
<title>Node17&#45;&gt;Node10</title>
<g id="a_edge20_Node000017_Node000010"><a xlink:title=" ">
<path fill="none" stroke="#63b8ff" d="M957.28,-54.98C995.57,-45.03 1058.52,-28.68 1096.49,-18.82"/>
<polygon fill="#63b8ff" stroke="#63b8ff" points="1097.69,-22.12 1106.49,-16.22 1095.93,-15.34 1097.69,-22.12"/>
</a>
</g>
</g>
<!-- Node18 -->
<g id="Node000018" class="node">
<title>Node18</title>
<g id="a_Node000018"><a xlink:title=" ">
<polygon fill="#e0e0e0" stroke="#999999" points="278.5,-19 234.5,-19 234.5,0 278.5,0 278.5,-19"/>
<text text-anchor="middle" x="256.5" y="-7" font-family="Helvetica,sans-Serif" font-size="10.00">ctime</text>
</a>
</g>
</g>
<!-- Node17&#45;&gt;Node18 -->
<g id="edge18_Node000017_Node000018" class="edge">
<title>Node17&#45;&gt;Node18</title>
<g id="a_edge18_Node000017_Node000018"><a xlink:title=" ">
<path fill="none" stroke="#63b8ff" d="M885.21,-60.38C764.36,-50.79 399.68,-21.86 288.82,-13.06"/>
<polygon fill="#63b8ff" stroke="#63b8ff" points="288.85,-9.56 278.6,-12.25 288.3,-16.53 288.85,-9.56"/>
</a>
</g>
</g>
<!-- Node19 -->
<g id="Node000019" class="node">
<title>Node19</title>
<g id="a_Node000019"><a xlink:title=" ">
<polygon fill="#e0e0e0" stroke="#999999" points="552.5,-19 496.5,-19 496.5,0 552.5,0 552.5,-19"/>
<text text-anchor="middle" x="524.5" y="-7" font-family="Helvetica,sans-Serif" font-size="10.00">sstream</text>
</a>
</g>
</g>
<!-- Node17&#45;&gt;Node19 -->
<g id="edge19_Node000017_Node000019" class="edge">
<title>Node17&#45;&gt;Node19</title>
<g id="a_edge19_Node000017_Node000019"><a xlink:title=" ">
<path fill="none" stroke="#63b8ff" d="M885.42,-58.32C808.63,-48.15 638.93,-25.66 562.78,-15.57"/>
<polygon fill="#63b8ff" stroke="#63b8ff" points="563.05,-12.08 552.68,-14.23 562.13,-19.02 563.05,-12.08"/>
</a>
</g>
</g>
<!-- Node20&#45;&gt;Node7 -->
<g id="edge22_Node000020_Node000007" class="edge">
<title>Node20&#45;&gt;Node7</title>
<g id="a_edge22_Node000020_Node000007"><a xlink:title=" ">
<path fill="none" stroke="#63b8ff" d="M797.81,-169.69C636.76,-159.4 196.66,-131.3 65.12,-122.9"/>
<polygon fill="#63b8ff" stroke="#63b8ff" points="65.33,-119.41 55.12,-122.26 64.88,-126.39 65.33,-119.41"/>
</a>
</g>
</g>
<!-- Node20&#45;&gt;Node8 -->
<g id="edge23_Node000020_Node000008" class="edge">
<title>Node20&#45;&gt;Node8</title>
<g id="a_edge23_Node000020_Node000008"><a xlink:title=" ">
<path fill="none" stroke="#63b8ff" d="M822.8,-164.98C784.21,-155.52 721.98,-140.25 681.41,-130.29"/>
<polygon fill="#63b8ff" stroke="#63b8ff" points="682.13,-126.87 671.59,-127.88 680.47,-133.67 682.13,-126.87"/>
</a>
</g>
</g>
<!-- Node20&#45;&gt;Node16 -->
<g id="edge24_Node000020_Node000016" class="edge">
<title>Node20&#45;&gt;Node16</title>
<g id="a_edge24_Node000020_Node000016"><a xlink:title=" ">
<path fill="none" stroke="#63b8ff" d="M868.26,-164.98C878.27,-157.07 893.39,-145.11 905.43,-135.58"/>
<polygon fill="#63b8ff" stroke="#63b8ff" points="907.87,-138.12 913.54,-129.17 903.53,-132.63 907.87,-138.12"/>
</a>
</g>
</g>
<!-- Node21&#45;&gt;Node10 -->
<g id="edge26_Node000021_Node000010" class="edge">
<title>Node21&#45;&gt;Node10</title>
<g id="a_edge26_Node000021_Node000010"><a xlink:title=" ">
<path fill="none" stroke="#63b8ff" d="M1128.5,-164.74C1128.5,-139.31 1128.5,-65.08 1128.5,-29.69"/>
<polygon fill="#63b8ff" stroke="#63b8ff" points="1132,-29.31 1128.5,-19.31 1125,-29.31 1132,-29.31"/>
</a>
</g>
</g>
<!-- Node21&#45;&gt;Node16 -->
<g id="edge28_Node000021_Node000016" class="edge">
<title>Node21&#45;&gt;Node16</title>
<g id="a_edge28_Node000021_Node000016"><a xlink:title=" ">
<path fill="none" stroke="#63b8ff" d="M1095.72,-164.98C1060.88,-155.93 1005.63,-141.58 967.36,-131.64"/>
<polygon fill="#63b8ff" stroke="#63b8ff" points="968.09,-128.21 957.53,-129.08 966.33,-134.98 968.09,-128.21"/>
</a>
</g>
</g>
<!-- Node21&#45;&gt;Node17 -->
<g id="edge29_Node000021_Node000017" class="edge">
<title>Node21&#45;&gt;Node17</title>
<g id="a_edge29_Node000021_Node000017"><a xlink:title=" ">
<path fill="none" stroke="#63b8ff" d="M1118.92,-164.89C1103.81,-151.66 1073.09,-126.15 1043.5,-110 1018.26,-96.22 987.86,-84.93 964.11,-77.18"/>
<polygon fill="#63b8ff" stroke="#63b8ff" points="964.96,-73.77 954.37,-74.07 962.83,-80.44 964.96,-73.77"/>
</a>
</g>
</g>
<!-- Node22 -->
<g id="Node000022" class="node">
<title>Node22</title>
<g id="a_Node000022"><a xlink:title=" ">
<polygon fill="#e0e0e0" stroke="#999999" points="804,-129 757,-129 757,-110 804,-110 804,-129"/>
<text text-anchor="middle" x="780.5" y="-117" font-family="Helvetica,sans-Serif" font-size="10.00">vector</text>
</a>
</g>
</g>
<!-- Node21&#45;&gt;Node22 -->
<g id="edge27_Node000021_Node000022" class="edge">
<title>Node21&#45;&gt;Node22</title>
<g id="a_edge27_Node000021_Node000022"><a xlink:title=" ">
<path fill="none" stroke="#63b8ff" d="M1093.46,-166.58C1090.43,-166.03 1087.41,-165.49 1084.5,-165 986.68,-148.4 870.51,-132.43 814.31,-124.94"/>
<polygon fill="#63b8ff" stroke="#63b8ff" points="814.58,-121.44 804.21,-123.6 813.66,-128.38 814.58,-121.44"/>
</a>
</g>
</g>
<!-- Node23&#45;&gt;Node8 -->
<g id="edge40_Node000023_Node000008" class="edge">
<title>Node23&#45;&gt;Node8</title>
<g id="a_edge40_Node000023_Node000008"><a xlink:title=" ">
<path fill="none" stroke="#63b8ff" d="M433.63,-219.63C425.59,-206.28 413.57,-180.88 426.5,-165 448.09,-138.48 545.04,-127.27 601.1,-122.94"/>
<polygon fill="#63b8ff" stroke="#63b8ff" points="601.68,-126.41 611.4,-122.19 601.17,-119.43 601.68,-126.41"/>
</a>
</g>
</g>
<!-- Node23&#45;&gt;Node18 -->
<g id="edge39_Node000023_Node000018" class="edge">
<title>Node23&#45;&gt;Node18</title>
<g id="a_edge39_Node000023_Node000018"><a xlink:title=" ">
<path fill="none" stroke="#63b8ff" d="M402.47,-222.22C397.77,-221.45 393.02,-220.7 388.5,-220 331.94,-211.3 171.03,-227.2 133.5,-184 85.49,-128.73 185.64,-54.99 233.24,-24.55"/>
<polygon fill="#63b8ff" stroke="#63b8ff" points="235.39,-27.34 242,-19.06 231.67,-21.41 235.39,-27.34"/>
</a>
</g>
</g>
<!-- Node23&#45;&gt;Node19 -->
<g id="edge41_Node000023_Node000019" class="edge">
<title>Node23&#45;&gt;Node19</title>
<g id="a_edge41_Node000023_Node000019"><a xlink:title=" ">
<path fill="none" stroke="#63b8ff" d="M402.47,-222.23C397.77,-221.47 393.02,-220.71 388.5,-220 333.48,-211.42 176.94,-226.11 140.5,-184 134.97,-177.61 135.77,-172 140.5,-165 220,-47.32 405.6,-19.26 486.11,-12.58"/>
<polygon fill="#63b8ff" stroke="#63b8ff" points="486.59,-16.05 496.3,-11.8 486.06,-9.07 486.59,-16.05"/>
</a>
</g>
</g>
<!-- Node23&#45;&gt;Node22 -->
<g id="edge43_Node000023_Node000022" class="edge">
<title>Node23&#45;&gt;Node22</title>
<g id="a_edge43_Node000023_Node000022"><a xlink:title=" ">
<path fill="none" stroke="#63b8ff" d="M476.88,-229.13C531.46,-228.62 634.91,-222.09 712.5,-184 735.04,-172.93 755.29,-151.88 767.71,-137.06"/>
<polygon fill="#63b8ff" stroke="#63b8ff" points="770.52,-139.16 774.08,-129.18 765.07,-134.76 770.52,-139.16"/>
</a>
</g>
</g>
<!-- Node24 -->
<g id="Node000024" class="node">
<title>Node24</title>
<g id="a_Node000024"><a xlink:href="_method_8hpp.html" target="_top" xlink:title=" ">
<polygon fill="white" stroke="#666666" points="509.5,-184 435.5,-184 435.5,-165 509.5,-165 509.5,-184"/>
<text text-anchor="middle" x="472.5" y="-172" font-family="Helvetica,sans-Serif" font-size="10.00">Method.hpp</text>
</a>
</g>
</g>
<!-- Node23&#45;&gt;Node24 -->
<g id="edge31_Node000023_Node000024" class="edge">
<title>Node23&#45;&gt;Node24</title>
<g id="a_edge31_Node000023_Node000024"><a xlink:title=" ">
<path fill="none" stroke="#63b8ff" d="M444.95,-219.75C449.51,-212.42 456.17,-201.73 461.79,-192.7"/>
<polygon fill="#63b8ff" stroke="#63b8ff" points="464.84,-194.43 467.15,-184.09 458.9,-190.73 464.84,-194.43"/>
</a>
</g>
</g>
<!-- Node25 -->
<g id="Node000025" class="node">
<title>Node25</title>
<g id="a_Node000025"><a xlink:href="_status_code_8hpp.html" target="_top" xlink:title=" ">
<polygon fill="white" stroke="#666666" points="621,-184 528,-184 528,-165 621,-165 621,-184"/>
<text text-anchor="middle" x="574.5" y="-172" font-family="Helvetica,sans-Serif" font-size="10.00">StatusCode.hpp</text>
</a>
</g>
</g>
<!-- Node23&#45;&gt;Node25 -->
<g id="edge33_Node000023_Node000025" class="edge">
<title>Node23&#45;&gt;Node25</title>
<g id="a_edge33_Node000023_Node000025"><a xlink:title=" ">
<path fill="none" stroke="#63b8ff" d="M461.19,-219.98C483.3,-211.3 517.82,-197.75 542.95,-187.88"/>
<polygon fill="#63b8ff" stroke="#63b8ff" points="544.39,-191.08 552.42,-184.17 541.83,-184.57 544.39,-191.08"/>
</a>
</g>
</g>
<!-- Node26 -->
<g id="Node000026" class="node">
<title>Node26</title>
<g id="a_Node000026"><a xlink:href="constants_8hpp.html" target="_top" xlink:title=" ">
<polygon fill="white" stroke="#666666" points="379,-184 294,-184 294,-165 379,-165 379,-184"/>
<text text-anchor="middle" x="336.5" y="-172" font-family="Helvetica,sans-Serif" font-size="10.00">constants.hpp</text>
</a>
</g>
</g>
<!-- Node23&#45;&gt;Node26 -->
<g id="edge35_Node000023_Node000026" class="edge">
<title>Node23&#45;&gt;Node26</title>
<g id="a_edge35_Node000023_Node000026"><a xlink:title=" ">
<path fill="none" stroke="#63b8ff" d="M422.95,-219.98C406.61,-211.57 381.37,-198.59 362.37,-188.81"/>
<polygon fill="#63b8ff" stroke="#63b8ff" points="363.84,-185.63 353.35,-184.17 360.64,-191.86 363.84,-185.63"/>
</a>
</g>
</g>
<!-- Node28 -->
<g id="Node000028" class="node">
<title>Node28</title>
<g id="a_Node000028"><a xlink:title=" ">
<polygon fill="#e0e0e0" stroke="#999999" points="703.5,-184 639.5,-184 639.5,-165 703.5,-165 703.5,-184"/>
<text text-anchor="middle" x="671.5" y="-172" font-family="Helvetica,sans-Serif" font-size="10.00">algorithm</text>
</a>
</g>
</g>
<!-- Node23&#45;&gt;Node28 -->
<g id="edge37_Node000023_Node000028" class="edge">
<title>Node23&#45;&gt;Node28</title>
<g id="a_edge37_Node000023_Node000028"><a xlink:title=" ">
<path fill="none" stroke="#63b8ff" d="M476.52,-220.04C518.21,-210.52 585.82,-195.07 629.46,-185.1"/>
<polygon fill="#63b8ff" stroke="#63b8ff" points="630.5,-188.46 639.47,-182.82 628.94,-181.63 630.5,-188.46"/>
</a>
</g>
</g>
<!-- Node29 -->
<g id="Node000029" class="node">
<title>Node29</title>
<g id="a_Node000029"><a xlink:title=" ">
<polygon fill="#e0e0e0" stroke="#999999" points="201.5,-184 149.5,-184 149.5,-165 201.5,-165 201.5,-184"/>
<text text-anchor="middle" x="175.5" y="-172" font-family="Helvetica,sans-Serif" font-size="10.00">cassert</text>
</a>
</g>
</g>
<!-- Node23&#45;&gt;Node29 -->
<g id="edge38_Node000023_Node000029" class="edge">
<title>Node23&#45;&gt;Node29</title>
<g id="a_edge38_Node000023_Node000029"><a xlink:title=" ">
<path fill="none" stroke="#63b8ff" d="M402.11,-221.78C358.63,-213.85 284.48,-199.96 211.64,-184.17"/>
<polygon fill="#63b8ff" stroke="#63b8ff" points="212.36,-180.75 201.84,-182.04 210.87,-187.59 212.36,-180.75"/>
</a>
</g>
</g>
<!-- Node30 -->
<g id="Node000030" class="node">
<title>Node30</title>
<g id="a_Node000030"><a xlink:title=" ">
<polygon fill="#e0e0e0" stroke="#999999" points="275.5,-184 219.5,-184 219.5,-165 275.5,-165 275.5,-184"/>
<text text-anchor="middle" x="247.5" y="-172" font-family="Helvetica,sans-Serif" font-size="10.00">unistd.h</text>
</a>
</g>
</g>
<!-- Node23&#45;&gt;Node30 -->
<g id="edge42_Node000023_Node000030" class="edge">
<title>Node23&#45;&gt;Node30</title>
<g id="a_edge42_Node000023_Node000030"><a xlink:title=" ">
<path fill="none" stroke="#63b8ff" d="M408.65,-219.98C375.13,-210.73 321.53,-195.94 285.45,-185.98"/>
<polygon fill="#63b8ff" stroke="#63b8ff" points="286.34,-182.59 275.77,-183.3 284.48,-189.34 286.34,-182.59"/>
</a>
</g>
</g>
<!-- Node24&#45;&gt;Node8 -->
<g id="edge32_Node000024_Node000008" class="edge">
<title>Node24&#45;&gt;Node8</title>
<g id="a_edge32_Node000024_Node000008"><a xlink:title=" ">
<path fill="none" stroke="#63b8ff" d="M499.65,-164.98C528.03,-156.09 572.73,-142.07 604.36,-132.15"/>
<polygon fill="#63b8ff" stroke="#63b8ff" points="605.64,-135.41 614.13,-129.08 603.55,-128.73 605.64,-135.41"/>
</a>
</g>
</g>
<!-- Node25&#45;&gt;Node8 -->
<g id="edge34_Node000025_Node000008" class="edge">
<title>Node25&#45;&gt;Node8</title>
<g id="a_edge34_Node000025_Node000008"><a xlink:title=" ">
<path fill="none" stroke="#63b8ff" d="M585.26,-164.98C595.27,-157.07 610.39,-145.11 622.43,-135.58"/>
<polygon fill="#63b8ff" stroke="#63b8ff" points="624.87,-138.12 630.54,-129.17 620.53,-132.63 624.87,-138.12"/>
</a>
</g>
</g>
<!-- Node27 -->
<g id="Node000027" class="node">
<title>Node27</title>
<g id="a_Node000027"><a xlink:title=" ">
<polygon fill="#e0e0e0" stroke="#999999" points="363,-129 310,-129 310,-110 363,-110 363,-129"/>
<text text-anchor="middle" x="336.5" y="-117" font-family="Helvetica,sans-Serif" font-size="10.00">cstddef</text>
</a>
</g>
</g>
<!-- Node26&#45;&gt;Node27 -->
<g id="edge36_Node000026_Node000027" class="edge">
<title>Node26&#45;&gt;Node27</title>
<g id="a_edge36_Node000026_Node000027"><a xlink:title=" ">
<path fill="none" stroke="#63b8ff" d="M336.5,-164.75C336.5,-157.8 336.5,-147.85 336.5,-139.13"/>
<polygon fill="#63b8ff" stroke="#63b8ff" points="340,-139.09 336.5,-129.09 333,-139.09 340,-139.09"/>
</a>
</g>
</g>
</g>
</svg>

<g id="navigator" transform="translate(0 0)" fill="#404254">
  <rect fill="#f2f5e9" fill-opacity="0.5" stroke="#606060" stroke-width=".5" x="0" y="0" width="60" height="60"/>
  <use id="zoomplus" xlink:href="#zoomPlus" x="17" y="9" onmousedown="handleZoom(evt,'in')"/>
  <use id="zoomminus" xlink:href="#zoomMin" x="42" y="9" onmousedown="handleZoom(evt,'out')"/>
  <use id="reset" xlink:href="#resetDef" x="30" y="36" onmousedown="handleReset()"/>
   <use id="arrowup" xlink:href="#arrowUp" x="0" y="0" onmousedown="handlePan(0,-1)"/>
  <use id="arrowright" xlink:href="#arrowRight" x="0" y="0" onmousedown="handlePan(1,0)"/>
  <use id="arrowdown" xlink:href="#arrowDown" x="0" y="0" onmousedown="handlePan(0,1)"/>
  <use id="arrowleft" xlink:href="#arrowLeft" x="0" y="0" onmousedown="handlePan(-1,0)"/>
</g>
<svg viewBox="0 0 15 15" width="100%" height="30px" preserveAspectRatio="xMaxYMin meet">
 <g id="arrow_out" transform="scale(0.3 0.3)">
  <a xlink:href="_file_system_policy_8cpp__incl_org.svg" target="_base">
   <rect id="button" ry="5" rx="5" y="6" x="6" height="38" width="38"
        fill="#f2f5e9" fill-opacity="0.5" stroke="#606060" stroke-width="1.0"/>
   <path id="arrow"
     d="M 11.500037,31.436501 C 11.940474,20.09759 22.043105,11.32322 32.158766,21.979434 L 37.068811,17.246167 C 37.068811,17.246167 37.088388,32 37.088388,32 L 22.160133,31.978069 C 22.160133,31.978069 26.997745,27.140456 26.997745,27.140456 C 18.528582,18.264221 13.291696,25.230495 11.500037,31.436501 z"
     style="fill:#404040;"/>
  </a>
 </g>
</svg>

<style type='text/css'>
<![CDATA[
[data-mouse-over-selected='false'] { opacity: 0.7; }
[data-mouse-over-selected='true']  { opacity: 1.0; }
]]>
</style>
<script type="application/ecmascript"><![CDATA[
document.addEventListener('DOMContentLoaded', (event) => {
  highlightEdges();
  highlightAdjacentNodes();
});
]]></script>
</svg>
