<?xml version="1.0" encoding="UTF-8" standalone="no"?>
<!DOCTYPE svg PUBLIC "-//W3C//DTD SVG 1.1//EN"
 "http://www.w3.org/Graphics/SVG/1.1/DTD/svg11.dtd">
<!-- Generated by graphviz version 2.43.0 (0)
 -->
<!-- Title: inc/FileSystemPolicy.hpp Pages: 1 -->
<!--zoomable 386 -->
<svg id="main" version="1.1" xmlns="http://www.w3.org/2000/svg" xmlns:xlink="http://www.w3.org/1999/xlink" xml:space="preserve" onload="init(evt)">
<style type="text/css"><![CDATA[
.edge:hover path { stroke: red; }
.edge:hover polygon { stroke: red; fill: red; }
]]></style>
<script type="text/javascript"><![CDATA[
var edges = document.getElementsByTagName('g');
if (edges && edges.length) {
  for (var i=0;i<edges.length;i++) {
    if (edges[i].id.substr(0,4)=='edge') {
      edges[i].setAttribute('class','edge');
    }
  }
}
]]></script>
        <defs>
                <circle id="rim" cx="0" cy="0" r="7"/>
                <circle id="rim2" cx="0" cy="0" r="3.5"/>
                <g id="zoomPlus">
                        <use xlink:href="#rim" fill="#404040">
                                <set attributeName="fill" to="#808080" begin="zoomplus.mouseover" end="zoomplus.mouseout"/>
                        </use>
                        <path d="M-4,0h8M0,-4v8" fill="none" stroke="white" stroke-width="1.5" pointer-events="none"/>
                </g>
                <g id="zoomMin">
                        <use xlink:href="#rim" fill="#404040">
                                <set attributeName="fill" to="#808080" begin="zoomminus.mouseover" end="zoomminus.mouseout"/>
                        </use>
                        <path d="M-4,0h8" fill="none" stroke="white" stroke-width="1.5" pointer-events="none"/>
                </g>
                <g id="dirArrow">
                        <path fill="none" stroke="white" stroke-width="1.5" d="M0,-3.0v7 M-2.5,-0.5L0,-3.0L2.5,-0.5"/>
                </g>
               <g id="resetDef">
                       <use xlink:href="#rim2" fill="#404040">
                               <set attributeName="fill" to="#808080" begin="reset.mouseover" end="reset.mouseout"/>
                       </use>
               </g>
        </defs>

<script type="text/javascript">
var viewWidth = 2824;
var viewHeight = 386;
var sectionId = 'dynsection-1';
</script>
<script xlink:href="svgpan.js"/>
<svg id="graph" class="graph">
<g id="viewport">
<title>inc/FileSystemPolicy.hpp</title>
<!-- Node1 -->
<g id="node1" class="node">
<title>Node1</title>
<g id="a_node1"><a xlink:title=" ">
<polygon fill="#bfbfbf" stroke="black" points="1407,-358.5 1407,-377.5 1544,-377.5 1544,-358.5 1407,-358.5"/>
<text text-anchor="middle" x="1475.5" y="-365.5" font-family="Helvetica,sans-Serif" font-size="10.00">inc/FileSystemPolicy.hpp</text>
</a>
</g>
</g>
<!-- Node2 -->
<g id="node2" class="node">
<title>Node2</title>
<g id="a_node2"><a xlink:href="_autoindex_handler_8hpp.html" target="_top" xlink:title=" ">
<polygon fill="none" stroke="black" points="1492.5,-246.5 1492.5,-265.5 1634.5,-265.5 1634.5,-246.5 1492.5,-246.5"/>
<text text-anchor="middle" x="1563.5" y="-253.5" font-family="Helvetica,sans-Serif" font-size="10.00">inc/AutoindexHandler.hpp</text>
</a>
</g>
</g>
<!-- Node1&#45;&gt;Node2 -->
<g id="edge1" class="edge">
<title>Node1&#45;&gt;Node2</title>
<path fill="none" stroke="midnightblue" d="M1483.98,-349.23C1490.92,-335.61 1501.53,-316.7 1513.5,-302 1525.01,-287.87 1541.06,-274.25 1551.84,-265.77"/>
<polygon fill="midnightblue" stroke="midnightblue" points="1480.71,-347.95 1479.42,-358.47 1486.99,-351.05 1480.71,-347.95"/>
</g>
<!-- Node3 -->
<g id="node3" class="node">
<title>Node3</title>
<g id="a_node3"><a xlink:href="_response_body_handler_8hpp.html" target="_top" xlink:title=" ">
<polygon fill="none" stroke="black" points="1373.5,-185 1373.5,-204 1537.5,-204 1537.5,-185 1373.5,-185"/>
<text text-anchor="middle" x="1455.5" y="-192" font-family="Helvetica,sans-Serif" font-size="10.00">inc/ResponseBodyHandler.hpp</text>
</a>
</g>
</g>
<!-- Node1&#45;&gt;Node3 -->
<g id="edge34" class="edge">
<title>Node1&#45;&gt;Node3</title>
<path fill="none" stroke="midnightblue" d="M1473.27,-347.85C1468.94,-310.73 1459.56,-230.33 1456.49,-204.02"/>
<polygon fill="midnightblue" stroke="midnightblue" points="1469.85,-348.73 1474.48,-358.26 1476.8,-347.92 1469.85,-348.73"/>
</g>
<!-- Node4 -->
<g id="node4" class="node">
<title>Node4</title>
<g id="a_node4"><a xlink:href="_response_builder_8hpp.html" target="_top" xlink:title=" ">
<polygon fill="none" stroke="black" points="1373.5,-123.5 1373.5,-142.5 1509.5,-142.5 1509.5,-123.5 1373.5,-123.5"/>
<text text-anchor="middle" x="1441.5" y="-130.5" font-family="Helvetica,sans-Serif" font-size="10.00">inc/ResponseBuilder.hpp</text>
</a>
</g>
</g>
<!-- Node1&#45;&gt;Node4 -->
<g id="edge35" class="edge">
<title>Node1&#45;&gt;Node4</title>
<path fill="none" stroke="midnightblue" d="M1403.98,-356.54C1323.87,-340.55 1197.87,-301.57 1141.5,-210 1134.28,-198.27 1132.51,-189.44 1141.5,-179 1170.8,-144.98 1294.14,-136.31 1373.27,-134.32"/>
<polygon fill="midnightblue" stroke="midnightblue" points="1403.52,-360.02 1414,-358.47 1404.84,-353.15 1403.52,-360.02"/>
</g>
<!-- Node5 -->
<g id="node5" class="node">
<title>Node5</title>
<g id="a_node5"><a xlink:href="_server_8hpp.html" target="_top" xlink:title=" ">
<polygon fill="none" stroke="black" points="1285.5,-67.5 1285.5,-86.5 1371.5,-86.5 1371.5,-67.5 1285.5,-67.5"/>
<text text-anchor="middle" x="1328.5" y="-74.5" font-family="Helvetica,sans-Serif" font-size="10.00">inc/Server.hpp</text>
</a>
</g>
</g>
<!-- Node1&#45;&gt;Node5 -->
<g id="edge36" class="edge">
<title>Node1&#45;&gt;Node5</title>
<path fill="none" stroke="midnightblue" d="M1396.59,-360.79C1282.63,-349.61 1085.5,-321.02 1085.5,-257 1085.5,-257 1085.5,-257 1085.5,-193.5 1085.5,-106.03 1215.51,-84.73 1285.34,-79.59"/>
<polygon fill="midnightblue" stroke="midnightblue" points="1396.39,-364.29 1406.67,-361.75 1397.05,-357.32 1396.39,-364.29"/>
</g>
<!-- Node28 -->
<g id="node28" class="node">
<title>Node28</title>
<g id="a_node28"><a xlink:href="_directory_8hpp.html" target="_top" xlink:title=" ">
<polygon fill="none" stroke="black" points="1522.5,-302.5 1522.5,-321.5 1620.5,-321.5 1620.5,-302.5 1522.5,-302.5"/>
<text text-anchor="middle" x="1571.5" y="-309.5" font-family="Helvetica,sans-Serif" font-size="10.00">inc/Directory.hpp</text>
</a>
</g>
</g>
<!-- Node1&#45;&gt;Node28 -->
<g id="edge27" class="edge">
<title>Node1&#45;&gt;Node28</title>
<path fill="none" stroke="midnightblue" d="M1500.07,-353.18C1517.74,-343.24 1541.01,-330.15 1556.11,-321.65"/>
<polygon fill="midnightblue" stroke="midnightblue" points="1497.92,-350.37 1490.92,-358.32 1501.36,-356.47 1497.92,-350.37"/>
</g>
<!-- Node30 -->
<g id="node30" class="node">
<title>Node30</title>
<g id="a_node30"><a xlink:href="_mock_file_system_policy_8hpp.html" target="_top" xlink:title=" ">
<polygon fill="none" stroke="black" points="1817,-246.5 1817,-265.5 1980,-265.5 1980,-246.5 1817,-246.5"/>
<text text-anchor="middle" x="1898.5" y="-253.5" font-family="Helvetica,sans-Serif" font-size="10.00">inc/MockFileSystemPolicy.hpp</text>
</a>
</g>
</g>
<!-- Node1&#45;&gt;Node30 -->
<g id="edge30" class="edge">
<title>Node1&#45;&gt;Node30</title>
<path fill="none" stroke="midnightblue" d="M1522.37,-355.91C1553.32,-347.96 1594.47,-336.17 1629.5,-322 1647.19,-314.84 1649.5,-308.34 1667.5,-302 1719.14,-283.82 1780.01,-272.35 1826.3,-265.53"/>
<polygon fill="midnightblue" stroke="midnightblue" points="1521.13,-352.62 1512.29,-358.46 1522.84,-359.4 1521.13,-352.62"/>
</g>
<!-- Node32 -->
<g id="node32" class="node">
<title>Node32</title>
<g id="a_node32"><a xlink:href="_target_resource_handler_8hpp.html" target="_top" xlink:title=" ">
<polygon fill="none" stroke="black" points="1262,-246.5 1262,-265.5 1429,-265.5 1429,-246.5 1262,-246.5"/>
<text text-anchor="middle" x="1345.5" y="-253.5" font-family="Helvetica,sans-Serif" font-size="10.00">inc/TargetResourceHandler.hpp</text>
</a>
</g>
</g>
<!-- Node1&#45;&gt;Node32 -->
<g id="edge37" class="edge">
<title>Node1&#45;&gt;Node32</title>
<path fill="none" stroke="midnightblue" d="M1457.55,-351.82C1429.87,-328.39 1377.63,-284.19 1355.65,-265.59"/>
<polygon fill="midnightblue" stroke="midnightblue" points="1455.4,-354.58 1465.3,-358.37 1459.93,-349.24 1455.4,-354.58"/>
</g>
<!-- Node34 -->
<g id="node34" class="node">
<title>Node34</title>
<g id="a_node34"><a xlink:href="_file_system_policy_8cpp.html" target="_top" xlink:title=" ">
<polygon fill="none" stroke="black" points="1676.5,-302.5 1676.5,-321.5 1812.5,-321.5 1812.5,-302.5 1676.5,-302.5"/>
<text text-anchor="middle" x="1744.5" y="-309.5" font-family="Helvetica,sans-Serif" font-size="10.00">src/FileSystemPolicy.cpp</text>
</a>
</g>
</g>
<!-- Node1&#45;&gt;Node34 -->
<g id="edge42" class="edge">
<title>Node1&#45;&gt;Node34</title>
<path fill="none" stroke="midnightblue" d="M1527.94,-356.47C1578.78,-346.27 1654.94,-330.98 1702.08,-321.52"/>
<polygon fill="midnightblue" stroke="midnightblue" points="1527.24,-353.04 1518.12,-358.44 1528.62,-359.91 1527.24,-353.04"/>
</g>
<!-- Node2&#45;&gt;Node3 -->
<g id="edge2" class="edge">
<title>Node2&#45;&gt;Node3</title>
<path fill="none" stroke="midnightblue" d="M1539.1,-241.56C1518.2,-230.04 1488.74,-213.81 1470.95,-204.01"/>
<polygon fill="midnightblue" stroke="midnightblue" points="1537.58,-244.72 1548.03,-246.48 1540.96,-238.58 1537.58,-244.72"/>
</g>
<!-- Node26 -->
<g id="node26" class="node">
<title>Node26</title>
<g id="a_node26"><a xlink:href="_autoindex_handler_8cpp.html" target="_top" xlink:title=" ">
<polygon fill="none" stroke="black" points="1556,-185 1556,-204 1697,-204 1697,-185 1556,-185"/>
<text text-anchor="middle" x="1626.5" y="-192" font-family="Helvetica,sans-Serif" font-size="10.00">src/AutoindexHandler.cpp</text>
</a>
</g>
</g>
<!-- Node2&#45;&gt;Node26 -->
<g id="edge25" class="edge">
<title>Node2&#45;&gt;Node26</title>
<path fill="none" stroke="midnightblue" d="M1580.1,-239.32C1592.07,-228.02 1607.77,-213.19 1617.49,-204.01"/>
<polygon fill="midnightblue" stroke="midnightblue" points="1577.39,-237.06 1572.53,-246.48 1582.2,-242.15 1577.39,-237.06"/>
</g>
<!-- Node27 -->
<g id="node27" class="node">
<title>Node27</title>
<g id="a_node27"><a xlink:href="test___autoindex_handler_8cpp.html" target="_top" xlink:title=" ">
<polygon fill="none" stroke="black" points="1870.5,-185 1870.5,-204 2040.5,-204 2040.5,-185 1870.5,-185"/>
<text text-anchor="middle" x="1955.5" y="-192" font-family="Helvetica,sans-Serif" font-size="10.00">test/test_AutoindexHandler.cpp</text>
</a>
</g>
</g>
<!-- Node2&#45;&gt;Node27 -->
<g id="edge26" class="edge">
<title>Node2&#45;&gt;Node27</title>
<path fill="none" stroke="midnightblue" d="M1630.52,-244.94C1690.93,-235.86 1782.17,-222.11 1861.5,-210 1874.07,-208.08 1887.58,-206.01 1900.33,-204.04"/>
<polygon fill="midnightblue" stroke="midnightblue" points="1629.73,-241.52 1620.36,-246.47 1630.77,-248.44 1629.73,-241.52"/>
</g>
<!-- Node3&#45;&gt;Node4 -->
<g id="edge3" class="edge">
<title>Node3&#45;&gt;Node4</title>
<path fill="none" stroke="midnightblue" d="M1451.18,-175.16C1448.62,-164.27 1445.5,-150.99 1443.5,-142.51"/>
<polygon fill="midnightblue" stroke="midnightblue" points="1447.8,-176.04 1453.49,-184.98 1454.61,-174.44 1447.8,-176.04"/>
</g>
<!-- Node24 -->
<g id="node24" class="node">
<title>Node24</title>
<g id="a_node24"><a xlink:href="_response_body_handler_8cpp.html" target="_top" xlink:title=" ">
<polygon fill="none" stroke="black" points="1527.5,-123.5 1527.5,-142.5 1691.5,-142.5 1691.5,-123.5 1527.5,-123.5"/>
<text text-anchor="middle" x="1609.5" y="-130.5" font-family="Helvetica,sans-Serif" font-size="10.00">src/ResponseBodyHandler.cpp</text>
</a>
</g>
</g>
<!-- Node3&#45;&gt;Node24 -->
<g id="edge23" class="edge">
<title>Node3&#45;&gt;Node24</title>
<path fill="none" stroke="midnightblue" d="M1487.12,-181.28C1517.05,-169.72 1561.19,-152.66 1587.48,-142.51"/>
<polygon fill="midnightblue" stroke="midnightblue" points="1485.63,-178.11 1477.56,-184.98 1488.15,-184.64 1485.63,-178.11"/>
</g>
<!-- Node25 -->
<g id="node25" class="node">
<title>Node25</title>
<g id="a_node25"><a xlink:href="test___response_body_handler_8cpp.html" target="_top" xlink:title=" ">
<polygon fill="none" stroke="black" points="1840.5,-123.5 1840.5,-142.5 2032.5,-142.5 2032.5,-123.5 1840.5,-123.5"/>
<text text-anchor="middle" x="1936.5" y="-130.5" font-family="Helvetica,sans-Serif" font-size="10.00">test/test_ResponseBodyHandler.cpp</text>
</a>
</g>
</g>
<!-- Node3&#45;&gt;Node25 -->
<g id="edge24" class="edge">
<title>Node3&#45;&gt;Node25</title>
<path fill="none" stroke="midnightblue" d="M1516.39,-183.43C1526.44,-181.87 1536.75,-180.34 1546.5,-179 1652.18,-164.49 1774.4,-150.9 1853.44,-142.53"/>
<polygon fill="midnightblue" stroke="midnightblue" points="1515.8,-179.98 1506.46,-184.98 1516.88,-186.89 1515.8,-179.98"/>
</g>
<!-- Node4&#45;&gt;Node5 -->
<g id="edge4" class="edge">
<title>Node4&#45;&gt;Node5</title>
<path fill="none" stroke="midnightblue" d="M1414.5,-119.1C1393.39,-109.01 1364.64,-95.27 1346.32,-86.52"/>
<polygon fill="midnightblue" stroke="midnightblue" points="1413.06,-122.29 1423.59,-123.44 1416.08,-115.97 1413.06,-122.29"/>
</g>
<!-- Node23 -->
<g id="node23" class="node">
<title>Node23</title>
<g id="a_node23"><a xlink:href="_response_builder_8cpp.html" target="_top" xlink:title=" ">
<polygon fill="none" stroke="black" points="1390,-67.5 1390,-86.5 1525,-86.5 1525,-67.5 1390,-67.5"/>
<text text-anchor="middle" x="1457.5" y="-74.5" font-family="Helvetica,sans-Serif" font-size="10.00">src/ResponseBuilder.cpp</text>
</a>
</g>
</g>
<!-- Node4&#45;&gt;Node23 -->
<g id="edge22" class="edge">
<title>Node4&#45;&gt;Node23</title>
<path fill="none" stroke="midnightblue" d="M1447.01,-113.4C1449.69,-104.36 1452.78,-93.94 1454.91,-86.75"/>
<polygon fill="midnightblue" stroke="midnightblue" points="1443.63,-112.5 1444.14,-123.08 1450.34,-114.49 1443.63,-112.5"/>
</g>
<!-- Node6 -->
<g id="node6" class="node">
<title>Node6</title>
<g id="a_node6"><a xlink:href="main_8cpp.html" target="_top" xlink:title=" ">
<polygon fill="none" stroke="black" points="0,-6 0,-25 79,-25 79,-6 0,-6"/>
<text text-anchor="middle" x="39.5" y="-13" font-family="Helvetica,sans-Serif" font-size="10.00">src/main.cpp</text>
</a>
</g>
</g>
<!-- Node5&#45;&gt;Node6 -->
<g id="edge5" class="edge">
<title>Node5&#45;&gt;Node6</title>
<path fill="none" stroke="midnightblue" d="M1275.1,-75.89C1068.47,-75.17 321.23,-69.87 87.5,-31 79.6,-29.69 71.18,-27.44 63.63,-25.11"/>
<polygon fill="midnightblue" stroke="midnightblue" points="1275.37,-79.39 1285.39,-75.92 1275.4,-72.39 1275.37,-79.39"/>
</g>
<!-- Node7 -->
<g id="node7" class="node">
<title>Node7</title>
<g id="a_node7"><a xlink:href="_server_8cpp.html" target="_top" xlink:title=" ">
<polygon fill="none" stroke="black" points="97,-6 97,-25 182,-25 182,-6 97,-6"/>
<text text-anchor="middle" x="139.5" y="-13" font-family="Helvetica,sans-Serif" font-size="10.00">src/Server.cpp</text>
</a>
</g>
</g>
<!-- Node5&#45;&gt;Node7 -->
<g id="edge6" class="edge">
<title>Node5&#45;&gt;Node7</title>
<path fill="none" stroke="midnightblue" d="M1275.38,-75.57C1080.28,-73.73 403.54,-65 190.5,-31 182.05,-29.65 173,-27.37 164.92,-25.01"/>
<polygon fill="midnightblue" stroke="midnightblue" points="1275.35,-79.07 1285.39,-75.66 1275.42,-72.07 1275.35,-79.07"/>
</g>
<!-- Node8 -->
<g id="node8" class="node">
<title>Node8</title>
<g id="a_node8"><a xlink:href="test__accept_connections_8cpp.html" target="_top" xlink:title=" ">
<polygon fill="none" stroke="black" points="200,-6 200,-25 375,-25 375,-6 200,-6"/>
<text text-anchor="middle" x="287.5" y="-13" font-family="Helvetica,sans-Serif" font-size="10.00">test/test_acceptConnections.cpp</text>
</a>
</g>
</g>
<!-- Node5&#45;&gt;Node8 -->
<g id="edge7" class="edge">
<title>Node5&#45;&gt;Node8</title>
<path fill="none" stroke="midnightblue" d="M1274.71,-75.36C1130.19,-73.24 721.55,-64.49 383.5,-31 368.57,-29.52 352.42,-27.32 337.7,-25.07"/>
<polygon fill="midnightblue" stroke="midnightblue" points="1275.01,-78.87 1285.06,-75.51 1275.11,-71.87 1275.01,-78.87"/>
</g>
<!-- Node9 -->
<g id="node9" class="node">
<title>Node9</title>
<g id="a_node9"><a xlink:href="test__check_for_timeout_8cpp.html" target="_top" xlink:title=" ">
<polygon fill="none" stroke="black" points="393,-6 393,-25 560,-25 560,-6 393,-6"/>
<text text-anchor="middle" x="476.5" y="-13" font-family="Helvetica,sans-Serif" font-size="10.00">test/test_checkForTimeout.cpp</text>
</a>
</g>
</g>
<!-- Node5&#45;&gt;Node9 -->
<g id="edge8" class="edge">
<title>Node5&#45;&gt;Node9</title>
<path fill="none" stroke="midnightblue" d="M1275.09,-74.62C1150.82,-71.03 832.76,-59.58 568.5,-31 554.35,-29.47 539.06,-27.28 525.08,-25.06"/>
<polygon fill="midnightblue" stroke="midnightblue" points="1275.01,-78.12 1285.1,-74.91 1275.21,-71.12 1275.01,-78.12"/>
</g>
<!-- Node10 -->
<g id="node10" class="node">
<title>Node10</title>
<g id="a_node10"><a xlink:href="test__connection_receive_from_c_g_i_8cpp.html" target="_top" xlink:title=" ">
<polygon fill="none" stroke="black" points="578,-0.5 578,-30.5 733,-30.5 733,-0.5 578,-0.5"/>
<text text-anchor="start" x="586" y="-18.5" font-family="Helvetica,sans-Serif" font-size="10.00">test/test_connectionReceive</text>
<text text-anchor="middle" x="655.5" y="-7.5" font-family="Helvetica,sans-Serif" font-size="10.00">FromCGI.cpp</text>
</a>
</g>
</g>
<!-- Node5&#45;&gt;Node10 -->
<g id="edge9" class="edge">
<title>Node5&#45;&gt;Node10</title>
<path fill="none" stroke="midnightblue" d="M1275.11,-73.53C1171.79,-68.39 937.42,-54.98 741.5,-31 738.79,-30.67 736.04,-30.31 733.27,-29.94"/>
<polygon fill="midnightblue" stroke="midnightblue" points="1275.13,-77.03 1285.29,-74.03 1275.47,-70.04 1275.13,-77.03"/>
</g>
<!-- Node11 -->
<g id="node11" class="node">
<title>Node11</title>
<g id="a_node11"><a xlink:href="test__connection_receive_header_8cpp.html" target="_top" xlink:title=" ">
<polygon fill="none" stroke="black" points="751,-0.5 751,-30.5 906,-30.5 906,-0.5 751,-0.5"/>
<text text-anchor="start" x="759" y="-18.5" font-family="Helvetica,sans-Serif" font-size="10.00">test/test_connectionReceive</text>
<text text-anchor="middle" x="828.5" y="-7.5" font-family="Helvetica,sans-Serif" font-size="10.00">Header.cpp</text>
</a>
</g>
</g>
<!-- Node5&#45;&gt;Node11 -->
<g id="edge10" class="edge">
<title>Node5&#45;&gt;Node11</title>
<path fill="none" stroke="midnightblue" d="M1275.13,-71.16C1196.32,-63.79 1044.23,-48.73 915.5,-31 912.47,-30.58 909.38,-30.14 906.25,-29.68"/>
<polygon fill="midnightblue" stroke="midnightblue" points="1275.01,-74.66 1285.29,-72.1 1275.66,-67.69 1275.01,-74.66"/>
</g>
<!-- Node12 -->
<g id="node12" class="node">
<title>Node12</title>
<g id="a_node12"><a xlink:href="test__connection_send_response_8cpp.html" target="_top" xlink:title=" ">
<polygon fill="none" stroke="black" points="924.5,-0.5 924.5,-30.5 1064.5,-30.5 1064.5,-0.5 924.5,-0.5"/>
<text text-anchor="start" x="932.5" y="-18.5" font-family="Helvetica,sans-Serif" font-size="10.00">test/test_connectionSend</text>
<text text-anchor="middle" x="994.5" y="-7.5" font-family="Helvetica,sans-Serif" font-size="10.00">Response.cpp</text>
</a>
</g>
</g>
<!-- Node5&#45;&gt;Node12 -->
<g id="edge11" class="edge">
<title>Node5&#45;&gt;Node12</title>
<path fill="none" stroke="midnightblue" d="M1275.25,-66.71C1223.64,-57.69 1143.18,-43.54 1073.5,-31 1070.62,-30.48 1067.68,-29.95 1064.71,-29.41"/>
<polygon fill="midnightblue" stroke="midnightblue" points="1274.72,-70.17 1285.17,-68.45 1275.92,-63.28 1274.72,-70.17"/>
</g>
<!-- Node13 -->
<g id="node13" class="node">
<title>Node13</title>
<g id="a_node13"><a xlink:href="test__connection_send_to_c_g_i_8cpp.html" target="_top" xlink:title=" ">
<polygon fill="none" stroke="black" points="1082.5,-0.5 1082.5,-30.5 1222.5,-30.5 1222.5,-0.5 1082.5,-0.5"/>
<text text-anchor="start" x="1090.5" y="-18.5" font-family="Helvetica,sans-Serif" font-size="10.00">test/test_connectionSend</text>
<text text-anchor="middle" x="1152.5" y="-7.5" font-family="Helvetica,sans-Serif" font-size="10.00">ToCGI.cpp</text>
</a>
</g>
</g>
<!-- Node5&#45;&gt;Node13 -->
<g id="edge12" class="edge">
<title>Node5&#45;&gt;Node13</title>
<path fill="none" stroke="midnightblue" d="M1293.69,-64.23C1265.03,-54.54 1224.32,-40.78 1193.98,-30.52"/>
<polygon fill="midnightblue" stroke="midnightblue" points="1292.69,-67.59 1303.28,-67.48 1294.93,-60.96 1292.69,-67.59"/>
</g>
<!-- Node14 -->
<g id="node14" class="node">
<title>Node14</title>
<g id="a_node14"><a xlink:href="test__create_virtual_server_8cpp.html" target="_top" xlink:title=" ">
<polygon fill="none" stroke="black" points="1240.5,-6 1240.5,-25 1416.5,-25 1416.5,-6 1240.5,-6"/>
<text text-anchor="middle" x="1328.5" y="-13" font-family="Helvetica,sans-Serif" font-size="10.00">test/test_createVirtualServer.cpp</text>
</a>
</g>
</g>
<!-- Node5&#45;&gt;Node14 -->
<g id="edge13" class="edge">
<title>Node5&#45;&gt;Node14</title>
<path fill="none" stroke="midnightblue" d="M1328.5,-57.32C1328.5,-46.5 1328.5,-33.4 1328.5,-25.01"/>
<polygon fill="midnightblue" stroke="midnightblue" points="1325,-57.48 1328.5,-67.48 1332,-57.48 1325,-57.48"/>
</g>
<!-- Node15 -->
<g id="node15" class="node">
<title>Node15</title>
<g id="a_node15"><a xlink:href="test__handle_complete_request_header_8cpp.html" target="_top" xlink:title=" ">
<polygon fill="none" stroke="black" points="1435,-0.5 1435,-30.5 1578,-30.5 1578,-0.5 1435,-0.5"/>
<text text-anchor="start" x="1443" y="-18.5" font-family="Helvetica,sans-Serif" font-size="10.00">test/test_handleComplete</text>
<text text-anchor="middle" x="1506.5" y="-7.5" font-family="Helvetica,sans-Serif" font-size="10.00">RequestHeader.cpp</text>
</a>
</g>
</g>
<!-- Node5&#45;&gt;Node15 -->
<g id="edge14" class="edge">
<title>Node5&#45;&gt;Node15</title>
<path fill="none" stroke="midnightblue" d="M1363.71,-64.23C1392.69,-54.54 1433.86,-40.78 1464.55,-30.52"/>
<polygon fill="midnightblue" stroke="midnightblue" points="1362.38,-60.99 1354,-67.48 1364.6,-67.62 1362.38,-60.99"/>
</g>
<!-- Node16 -->
<g id="node16" class="node">
<title>Node16</title>
<g id="a_node16"><a xlink:href="test__init_virtual_servers_8cpp.html" target="_top" xlink:title=" ">
<polygon fill="none" stroke="black" points="1596,-6 1596,-25 1763,-25 1763,-6 1596,-6"/>
<text text-anchor="middle" x="1679.5" y="-13" font-family="Helvetica,sans-Serif" font-size="10.00">test/test_initVirtualServers.cpp</text>
</a>
</g>
</g>
<!-- Node5&#45;&gt;Node16 -->
<g id="edge15" class="edge">
<title>Node5&#45;&gt;Node16</title>
<path fill="none" stroke="midnightblue" d="M1381.49,-66.84C1474.57,-50.93 1571.24,-34.66 1628.7,-25.02"/>
<polygon fill="midnightblue" stroke="midnightblue" points="1380.9,-63.39 1371.63,-68.52 1382.07,-70.29 1380.9,-63.39"/>
</g>
<!-- Node17 -->
<g id="node17" class="node">
<title>Node17</title>
<g id="a_node17"><a xlink:href="test__is_duplicate_server_8cpp.html" target="_top" xlink:title=" ">
<polygon fill="none" stroke="black" points="1780.5,-6 1780.5,-25 1948.5,-25 1948.5,-6 1780.5,-6"/>
<text text-anchor="middle" x="1864.5" y="-13" font-family="Helvetica,sans-Serif" font-size="10.00">test/test_isDuplicateServer.cpp</text>
</a>
</g>
</g>
<!-- Node5&#45;&gt;Node17 -->
<g id="edge16" class="edge">
<title>Node5&#45;&gt;Node17</title>
<path fill="none" stroke="midnightblue" d="M1381.6,-66.96C1555.66,-44.37 1602.11,-52.23 1772.5,-31 1785.98,-29.32 1800.52,-27.18 1813.97,-25.07"/>
<polygon fill="midnightblue" stroke="midnightblue" points="1381.05,-63.5 1371.59,-68.27 1381.96,-70.44 1381.05,-63.5"/>
</g>
<!-- Node18 -->
<g id="node18" class="node">
<title>Node18</title>
<g id="a_node18"><a xlink:href="test__register_c_g_i_file_descriptor_8cpp.html" target="_top" xlink:title=" ">
<polygon fill="none" stroke="black" points="1966.5,-0.5 1966.5,-30.5 2100.5,-30.5 2100.5,-0.5 1966.5,-0.5"/>
<text text-anchor="start" x="1974.5" y="-18.5" font-family="Helvetica,sans-Serif" font-size="10.00">test/test_registerCGIFile</text>
<text text-anchor="middle" x="2033.5" y="-7.5" font-family="Helvetica,sans-Serif" font-size="10.00">Descriptor.cpp</text>
</a>
</g>
</g>
<!-- Node5&#45;&gt;Node18 -->
<g id="edge17" class="edge">
<title>Node5&#45;&gt;Node18</title>
<path fill="none" stroke="midnightblue" d="M1381.54,-67.01C1637.42,-37.7 1705.81,-62.73 1957.5,-31 1960.43,-30.63 1963.42,-30.22 1966.44,-29.77"/>
<polygon fill="midnightblue" stroke="midnightblue" points="1381.11,-63.54 1371.58,-68.17 1381.91,-70.49 1381.11,-63.54"/>
</g>
<!-- Node19 -->
<g id="node19" class="node">
<title>Node19</title>
<g id="a_node19"><a xlink:href="test__register_connection_8cpp.html" target="_top" xlink:title=" ">
<polygon fill="none" stroke="black" points="2119,-6 2119,-25 2294,-25 2294,-6 2119,-6"/>
<text text-anchor="middle" x="2206.5" y="-13" font-family="Helvetica,sans-Serif" font-size="10.00">test/test_registerConnection.cpp</text>
</a>
</g>
</g>
<!-- Node5&#45;&gt;Node19 -->
<g id="edge18" class="edge">
<title>Node5&#45;&gt;Node19</title>
<path fill="none" stroke="midnightblue" d="M1381.69,-67.02C1704.66,-31.92 1790,-62.69 2109.5,-31 2124.67,-29.5 2141.08,-27.27 2156.02,-25.01"/>
<polygon fill="midnightblue" stroke="midnightblue" points="1381.13,-63.56 1371.57,-68.13 1381.9,-70.51 1381.13,-63.56"/>
</g>
<!-- Node20 -->
<g id="node20" class="node">
<title>Node20</title>
<g id="a_node20"><a xlink:href="test__register_virtual_server_8cpp.html" target="_top" xlink:title=" ">
<polygon fill="none" stroke="black" points="2312.5,-0.5 2312.5,-30.5 2444.5,-30.5 2444.5,-0.5 2312.5,-0.5"/>
<text text-anchor="start" x="2320.5" y="-18.5" font-family="Helvetica,sans-Serif" font-size="10.00">test/test_registerVirtual</text>
<text text-anchor="middle" x="2378.5" y="-7.5" font-family="Helvetica,sans-Serif" font-size="10.00">Server.cpp</text>
</a>
</g>
</g>
<!-- Node5&#45;&gt;Node20 -->
<g id="edge19" class="edge">
<title>Node5&#45;&gt;Node20</title>
<path fill="none" stroke="midnightblue" d="M1381.59,-67.04C1790.51,-24.77 1898.96,-77.72 2303.5,-31 2306.4,-30.67 2309.35,-30.28 2312.33,-29.86"/>
<polygon fill="midnightblue" stroke="midnightblue" points="1381.15,-63.57 1371.57,-68.09 1381.88,-70.53 1381.15,-63.57"/>
</g>
<!-- Node21 -->
<g id="node21" class="node">
<title>Node21</title>
<g id="a_node21"><a xlink:href="test__select_server_config_8cpp.html" target="_top" xlink:title=" ">
<polygon fill="none" stroke="black" points="2462.5,-6 2462.5,-25 2636.5,-25 2636.5,-6 2462.5,-6"/>
<text text-anchor="middle" x="2549.5" y="-13" font-family="Helvetica,sans-Serif" font-size="10.00">test/test_selectServerConfig.cpp</text>
</a>
</g>
</g>
<!-- Node5&#45;&gt;Node21 -->
<g id="edge20" class="edge">
<title>Node5&#45;&gt;Node21</title>
<path fill="none" stroke="midnightblue" d="M1381.78,-67.03C1856.92,-18.99 1981.71,-74.4 2453.5,-31 2468.77,-29.6 2485.32,-27.36 2500.3,-25.06"/>
<polygon fill="midnightblue" stroke="midnightblue" points="1381.16,-63.58 1371.57,-68.08 1381.87,-70.54 1381.16,-63.58"/>
</g>
<!-- Node22 -->
<g id="node22" class="node">
<title>Node22</title>
<g id="a_node22"><a xlink:href="test__shutdown_server_8cpp.html" target="_top" xlink:title=" ">
<polygon fill="none" stroke="black" points="2655,-6 2655,-25 2816,-25 2816,-6 2655,-6"/>
<text text-anchor="middle" x="2735.5" y="-13" font-family="Helvetica,sans-Serif" font-size="10.00">test/test_shutdownServer.cpp</text>
</a>
</g>
</g>
<!-- Node5&#45;&gt;Node22 -->
<g id="edge21" class="edge">
<title>Node5&#45;&gt;Node22</title>
<path fill="none" stroke="midnightblue" d="M1381.52,-67.07C1941.86,-11.75 2088.82,-83.54 2645.5,-31 2660,-29.63 2675.7,-27.37 2689.86,-25.04"/>
<polygon fill="midnightblue" stroke="midnightblue" points="1381.17,-63.58 1371.57,-68.06 1381.86,-70.55 1381.17,-63.58"/>
</g>
<!-- Node28&#45;&gt;Node2 -->
<g id="edge28" class="edge">
<title>Node28&#45;&gt;Node2</title>
<path fill="none" stroke="midnightblue" d="M1568.7,-292.1C1567.37,-283.14 1565.85,-272.86 1564.8,-265.75"/>
<polygon fill="midnightblue" stroke="midnightblue" points="1565.25,-292.7 1570.18,-302.08 1572.18,-291.68 1565.25,-292.7"/>
</g>
<!-- Node29 -->
<g id="node29" class="node">
<title>Node29</title>
<g id="a_node29"><a xlink:href="_directory_8cpp.html" target="_top" xlink:title=" ">
<polygon fill="none" stroke="black" points="1652.5,-246.5 1652.5,-265.5 1750.5,-265.5 1750.5,-246.5 1652.5,-246.5"/>
<text text-anchor="middle" x="1701.5" y="-253.5" font-family="Helvetica,sans-Serif" font-size="10.00">src/Directory.cpp</text>
</a>
</g>
</g>
<!-- Node28&#45;&gt;Node29 -->
<g id="edge29" class="edge">
<title>Node28&#45;&gt;Node29</title>
<path fill="none" stroke="midnightblue" d="M1601.59,-298.5C1625.96,-288.38 1659.64,-274.39 1681,-265.52"/>
<polygon fill="midnightblue" stroke="midnightblue" points="1599.99,-295.38 1592.1,-302.44 1602.68,-301.84 1599.99,-295.38"/>
</g>
<!-- Node30&#45;&gt;Node25 -->
<g id="edge32" class="edge">
<title>Node30&#45;&gt;Node25</title>
<path fill="none" stroke="midnightblue" d="M1990.04,-247.12C2013.03,-240.52 2035.19,-229.19 2049.5,-210 2057.73,-198.95 2057.23,-190.4 2049.5,-179 2036.52,-159.86 2013.97,-148.86 1992.41,-142.54"/>
<polygon fill="midnightblue" stroke="midnightblue" points="1988.97,-243.78 1980.17,-249.67 1990.72,-250.56 1988.97,-243.78"/>
</g>
<!-- Node30&#45;&gt;Node27 -->
<g id="edge31" class="edge">
<title>Node30&#45;&gt;Node27</title>
<path fill="none" stroke="midnightblue" d="M1913.83,-239C1924.62,-227.74 1938.64,-213.1 1947.35,-204.01"/>
<polygon fill="midnightblue" stroke="midnightblue" points="1911.06,-236.83 1906.67,-246.48 1916.11,-241.68 1911.06,-236.83"/>
</g>
<!-- Node31 -->
<g id="node31" class="node">
<title>Node31</title>
<g id="a_node31"><a xlink:href="test___target_resource_handler_8cpp.html" target="_top" xlink:title=" ">
<polygon fill="none" stroke="black" points="1715,-179.5 1715,-209.5 1852,-209.5 1852,-179.5 1715,-179.5"/>
<text text-anchor="start" x="1723" y="-197.5" font-family="Helvetica,sans-Serif" font-size="10.00">test/test_TargetResource</text>
<text text-anchor="middle" x="1783.5" y="-186.5" font-family="Helvetica,sans-Serif" font-size="10.00">Handler.cpp</text>
</a>
</g>
</g>
<!-- Node30&#45;&gt;Node31 -->
<g id="edge33" class="edge">
<title>Node30&#45;&gt;Node31</title>
<path fill="none" stroke="midnightblue" d="M1873,-241.81C1854.49,-232.23 1829.48,-219.29 1810.6,-209.52"/>
<polygon fill="midnightblue" stroke="midnightblue" points="1871.53,-244.99 1882.02,-246.48 1874.75,-238.77 1871.53,-244.99"/>
</g>
<!-- Node32&#45;&gt;Node3 -->
<g id="edge38" class="edge">
<title>Node32&#45;&gt;Node3</title>
<path fill="none" stroke="midnightblue" d="M1370.07,-241.71C1391.37,-230.19 1421.57,-213.86 1439.77,-204.01"/>
<polygon fill="midnightblue" stroke="midnightblue" points="1368.39,-238.64 1361.26,-246.48 1371.72,-244.8 1368.39,-238.64"/>
</g>
<!-- Node32&#45;&gt;Node5 -->
<g id="edge39" class="edge">
<title>Node32&#45;&gt;Node5</title>
<path fill="none" stroke="midnightblue" d="M1343.71,-236.35C1340.08,-198.6 1331.99,-114.36 1329.35,-86.87"/>
<polygon fill="midnightblue" stroke="midnightblue" points="1340.24,-236.84 1344.68,-246.46 1347.21,-236.17 1340.24,-236.84"/>
</g>
<!-- Node32&#45;&gt;Node31 -->
<g id="edge41" class="edge">
<title>Node32&#45;&gt;Node31</title>
<path fill="none" stroke="midnightblue" d="M1435.38,-245.37C1508.55,-237.15 1614.42,-224.39 1706.5,-210 1709.19,-209.58 1711.93,-209.14 1714.69,-208.68"/>
<polygon fill="midnightblue" stroke="midnightblue" points="1434.83,-241.91 1425.28,-246.5 1435.61,-248.86 1434.83,-241.91"/>
</g>
<!-- Node33 -->
<g id="node33" class="node">
<title>Node33</title>
<g id="a_node33"><a xlink:href="_target_resource_handler_8cpp.html" target="_top" xlink:title=" ">
<polygon fill="none" stroke="black" points="1151,-185 1151,-204 1318,-204 1318,-185 1151,-185"/>
<text text-anchor="middle" x="1234.5" y="-192" font-family="Helvetica,sans-Serif" font-size="10.00">src/TargetResourceHandler.cpp</text>
</a>
</g>
</g>
<!-- Node32&#45;&gt;Node33 -->
<g id="edge40" class="edge">
<title>Node32&#45;&gt;Node33</title>
<path fill="none" stroke="midnightblue" d="M1320.71,-241.71C1299.21,-230.19 1268.74,-213.86 1250.37,-204.01"/>
<polygon fill="midnightblue" stroke="midnightblue" points="1319.13,-244.84 1329.6,-246.48 1322.44,-238.67 1319.13,-244.84"/>
</g>
</g>
</svg>
        <g id="navigator" transform="translate(0 0)" fill="#404254">
                <rect fill="#f2f5e9" fill-opacity="0.5" stroke="#606060" stroke-width=".5" x="0" y="0" width="60" height="60"/>
                <use id="zoomplus" xlink:href="#zoomPlus" x="17" y="9" onmousedown="handleZoom(evt,'in')"/>
                <use id="zoomminus" xlink:href="#zoomMin" x="42" y="9" onmousedown="handleZoom(evt,'out')"/>
                <use id="reset" xlink:href="#resetDef" x="30" y="36" onmousedown="handleReset()"/>
                <g id="arrowUp" xlink:href="#dirArrow" transform="translate(30 24)" onmousedown="handlePan(0,-1)">
                  <use xlink:href="#rim" fill="#404040">
                        <set attributeName="fill" to="#808080" begin="arrowUp.mouseover" end="arrowUp.mouseout"/>
                  </use>
                  <path fill="none" stroke="white" stroke-width="1.5" d="M0,-3.0v7 M-2.5,-0.5L0,-3.0L2.5,-0.5"/>
                </g>
                <g id="arrowRight" xlink:href="#dirArrow" transform="rotate(90) translate(36 -43)" onmousedown="handlePan(1,0)">
                  <use xlink:href="#rim" fill="#404040">
                        <set attributeName="fill" to="#808080" begin="arrowRight.mouseover" end="arrowRight.mouseout"/>
                  </use>
                  <path fill="none" stroke="white" stroke-width="1.5" d="M0,-3.0v7 M-2.5,-0.5L0,-3.0L2.5,-0.5"/>
                </g>
                <g id="arrowDown" xlink:href="#dirArrow" transform="rotate(180) translate(-30 -48)" onmousedown="handlePan(0,1)">
                  <use xlink:href="#rim" fill="#404040">
                        <set attributeName="fill" to="#808080" begin="arrowDown.mouseover" end="arrowDown.mouseout"/>
                  </use>
                  <path fill="none" stroke="white" stroke-width="1.5" d="M0,-3.0v7 M-2.5,-0.5L0,-3.0L2.5,-0.5"/>
                </g>
                <g id="arrowLeft" xlink:href="#dirArrow" transform="rotate(270) translate(-36 17)" onmousedown="handlePan(-1,0)">
                  <use xlink:href="#rim" fill="#404040">
                        <set attributeName="fill" to="#808080" begin="arrowLeft.mouseover" end="arrowLeft.mouseout"/>
                  </use>
                  <path fill="none" stroke="white" stroke-width="1.5" d="M0,-3.0v7 M-2.5,-0.5L0,-3.0L2.5,-0.5"/>
                </g>
        </g>
        <svg viewBox="0 0 15 15" width="100%" height="30px" preserveAspectRatio="xMaxYMin meet">
         <g id="arrow_out" transform="scale(0.3 0.3)">
          <a xlink:href="_file_system_policy_8hpp__dep__incl_org.svg" target="_base">
           <rect id="button" ry="5" rx="5" y="6" x="6" height="38" width="38"
                fill="#f2f5e9" fill-opacity="0.5" stroke="#606060" stroke-width="1.0"/>
           <path id="arrow"
             d="M 11.500037,31.436501 C 11.940474,20.09759 22.043105,11.32322 32.158766,21.979434 L 37.068811,17.246167 C 37.068811,17.246167 37.088388,32 37.088388,32 L 22.160133,31.978069 C 22.160133,31.978069 26.997745,27.140456 26.997745,27.140456 C 18.528582,18.264221 13.291696,25.230495 11.500037,31.436501 z"
             style="fill:#404040;"/>
          </a>
         </g>
        </svg>
</svg>
