<?xml version="1.0" encoding="UTF-8" standalone="no"?>
<!DOCTYPE svg PUBLIC "-//W3C//DTD SVG 1.1//EN"
 "http://www.w3.org/Graphics/SVG/1.1/DTD/svg11.dtd">
<!-- Generated by graphviz version 2.43.0 (0)
 -->
<!-- Title: inc/HTTPRequest.hpp Pages: 1 -->
<!--zoomable 467 -->

<svg id="main" version="1.1" xmlns="http://www.w3.org/2000/svg" xmlns:xlink="http://www.w3.org/1999/xlink" xml:space="preserve" onload="init(evt)">
<style type="text/css"><![CDATA[
.node, .edge {opacity: 0.7;}
.node.selected, .edge.selected {opacity: 1;}
.edge:hover path { stroke: red; }
.edge:hover polygon { stroke: red; fill: red; }
]]></style>

<defs>
  <circle id="rim" cx="0" cy="0" r="7"/>
  <circle id="rim2" cx="0" cy="0" r="3.5"/>
  <g id="zoomPlus">
    <use xlink:href="#rim" fill="#404040"><set attributeName="fill" to="#808080" begin="zoomplus.mouseover" end="zoomplus.mouseout"/></use>
    <path d="M-4,0h8M0,-4v8" fill="none" stroke="white" stroke-width="1.5" pointer-events="none"/>
  </g>
  <g id="zoomMin">
    <use xlink:href="#rim" fill="#404040"><set attributeName="fill" to="#808080" begin="zoomminus.mouseover" end="zoomminus.mouseout"/></use>
    <path d="M-4,0h8" fill="none" stroke="white" stroke-width="1.5" pointer-events="none"/>
  </g>
  <g id="arrowUp" transform="translate(30 24)">
    <use xlink:href="#rim"/>
    <path pointer-events="none" fill="none" stroke="white" stroke-width="1.5" d="M0,-3.0v7 M-2.5,-0.5L0,-3.0L2.5,-0.5"/>
  </g>
  <g id="arrowRight" transform="rotate(90) translate(36 -43)">
    <use xlink:href="#rim"/>
    <path pointer-events="none" fill="none" stroke="white" stroke-width="1.5" d="M0,-3.0v7 M-2.5,-0.5L0,-3.0L2.5,-0.5"/>
  </g>
  <g id="arrowDown" transform="rotate(180) translate(-30 -48)">
    <use xlink:href="#rim"/>
    <path pointer-events="none" fill="none" stroke="white" stroke-width="1.5" d="M0,-3.0v7 M-2.5,-0.5L0,-3.0L2.5,-0.5"/>
  </g>
  <g id="arrowLeft" transform="rotate(270) translate(-36 17)">
    <use xlink:href="#rim"/>
    <path pointer-events="none" fill="none" stroke="white" stroke-width="1.5" d="M0,-3.0v7 M-2.5,-0.5L0,-3.0L2.5,-0.5"/>
  </g>
  <g id="resetDef">
    <use xlink:href="#rim2" fill="#404040"><set attributeName="fill" to="#808080" begin="reset.mouseover" end="reset.mouseout"/></use>
  </g>
</defs>
<script type="application/ecmascript">
var viewWidth = 3151;
var viewHeight = 467;
var sectionId = 'dynsection-1';
</script>
<script type="application/ecmascript" xlink:href="svg.min.js"/>
<svg id="graph" class="graph">
<g id="viewport">
<title>inc/HTTPRequest.hpp</title>
<!-- Node1 -->
<g id="Node000001" class="node">
<title>Node1</title>
<g id="a_Node000001"><a xlink:title=" ">
<polygon fill="#999999" stroke="#666666" points="1063.5,-459 943.5,-459 943.5,-440 1063.5,-440 1063.5,-459"/>
<text text-anchor="middle" x="1003.5" y="-447" font-family="Helvetica,sans-Serif" font-size="10.00">inc/HTTPRequest.hpp</text>
</a>
</g>
</g>
<!-- Node2 -->
<g id="Node000002" class="node">
<title>Node2</title>
<g id="a_Node000002"><a xlink:href="_c_g_i_handler_8hpp.html" target="_top" xlink:title=" ">
<polygon fill="white" stroke="#666666" points="286.5,-343.5 176.5,-343.5 176.5,-324.5 286.5,-324.5 286.5,-343.5"/>
<text text-anchor="middle" x="231.5" y="-331.5" font-family="Helvetica,sans-Serif" font-size="10.00">inc/CGIHandler.hpp</text>
</a>
</g>
</g>
<!-- Node1&#45;&gt;Node2 -->
<g id="edge1_Node000001_Node000002" class="edge">
<title>Node1&#45;&gt;Node2</title>
<g id="a_edge1_Node000001_Node000002"><a xlink:title=" ">
<path fill="none" stroke="#63b8ff" d="M933.1,-446.19C834.1,-442.07 648.4,-431.19 492.5,-404 405.23,-388.78 304.56,-358.42 257.84,-343.58"/>
<polygon fill="#63b8ff" stroke="#63b8ff" points="933.15,-449.69 943.28,-446.6 933.43,-442.7 933.15,-449.69"/>
</a>
</g>
</g>
<!-- Node25 -->
<g id="Node000025" class="node">
<title>Node25</title>
<g id="a_Node000025"><a xlink:href="test___c_g_i_handler_8cpp.html" target="_top" xlink:title=" ">
<polygon fill="white" stroke="#666666" points="159,-277.5 0,-277.5 0,-258.5 159,-258.5 159,-277.5"/>
<text text-anchor="middle" x="79.5" y="-265.5" font-family="Helvetica,sans-Serif" font-size="10.00">test/unit/test_CGIHandler.cpp</text>
</a>
</g>
</g>
<!-- Node1&#45;&gt;Node25 -->
<g id="edge56_Node000001_Node000025" class="edge">
<title>Node1&#45;&gt;Node25</title>
<g id="a_edge56_Node000001_Node000025"><a xlink:title=" ">
<path fill="none" stroke="#63b8ff" d="M933.07,-446.54C756.59,-440.61 300.11,-418.77 167.5,-349 132.05,-330.35 99.79,-294.02 86.25,-277.52"/>
<polygon fill="#63b8ff" stroke="#63b8ff" points="933.17,-450.04 943.28,-446.87 933.4,-443.04 933.17,-450.04"/>
</a>
</g>
</g>
<!-- Node26 -->
<g id="Node000026" class="node">
<title>Node26</title>
<g id="a_Node000026"><a xlink:href="_connection_8hpp.html" target="_top" xlink:title=" ">
<polygon fill="white" stroke="#666666" points="611.5,-404 501.5,-404 501.5,-385 611.5,-385 611.5,-404"/>
<text text-anchor="middle" x="556.5" y="-392" font-family="Helvetica,sans-Serif" font-size="10.00">inc/Connection.hpp</text>
</a>
</g>
</g>
<!-- Node1&#45;&gt;Node26 -->
<g id="edge26_Node000001_Node000026" class="edge">
<title>Node1&#45;&gt;Node26</title>
<g id="a_edge26_Node000001_Node000026"><a xlink:title=" ">
<path fill="none" stroke="#63b8ff" d="M933.21,-440.17C844.22,-429.61 692.74,-411.65 611.63,-402.04"/>
<polygon fill="#63b8ff" stroke="#63b8ff" points="932.87,-443.65 943.22,-441.35 933.7,-436.7 932.87,-443.65"/>
</a>
</g>
</g>
<!-- Node28 -->
<g id="Node000028" class="node">
<title>Node28</title>
<g id="a_Node000028"><a xlink:href="_response_builder_8hpp.html" target="_top" xlink:title=" ">
<polygon fill="white" stroke="#666666" points="1999.5,-211.5 1863.5,-211.5 1863.5,-192.5 1999.5,-192.5 1999.5,-211.5"/>
<text text-anchor="middle" x="1931.5" y="-199.5" font-family="Helvetica,sans-Serif" font-size="10.00">inc/ResponseBuilder.hpp</text>
</a>
</g>
</g>
<!-- Node1&#45;&gt;Node28 -->
<g id="edge52_Node000001_Node000028" class="edge">
<title>Node1&#45;&gt;Node28</title>
<g id="a_edge52_Node000001_Node000028"><a xlink:title=" ">
<path fill="none" stroke="#63b8ff" d="M1073.9,-445.09C1271.56,-434.9 1821.14,-402.03 1881.5,-349 1923.77,-311.86 1930.34,-237.41 1931.33,-211.85"/>
<polygon fill="#63b8ff" stroke="#63b8ff" points="1073.44,-441.61 1063.64,-445.62 1073.8,-448.6 1073.44,-441.61"/>
</a>
</g>
</g>
<!-- Node31 -->
<g id="Node000031" class="node">
<title>Node31</title>
<g id="a_Node000031"><a xlink:href="test___response_body_handler_8cpp.html" target="_top" xlink:title=" ">
<polygon fill="white" stroke="#666666" points="1276.5,-217 1120.5,-217 1120.5,-187 1276.5,-187 1276.5,-217"/>
<text text-anchor="start" x="1128.5" y="-205" font-family="Helvetica,sans-Serif" font-size="10.00">test/unit/test_ResponseBody</text>
<text text-anchor="middle" x="1198.5" y="-194" font-family="Helvetica,sans-Serif" font-size="10.00">Handler.cpp</text>
</a>
</g>
</g>
<!-- Node1&#45;&gt;Node31 -->
<g id="edge58_Node000001_Node000031" class="edge">
<title>Node1&#45;&gt;Node31</title>
<g id="a_edge58_Node000001_Node000031"><a xlink:title=" ">
<path fill="none" stroke="#63b8ff" d="M1045.73,-436.74C1087,-422.9 1148.07,-395.66 1179.5,-349 1207.21,-307.87 1203.83,-245.23 1200.57,-217.31"/>
<polygon fill="#63b8ff" stroke="#63b8ff" points="1044.4,-433.49 1035.95,-439.9 1046.55,-440.16 1044.4,-433.49"/>
</a>
</g>
</g>
<!-- Node32 -->
<g id="Node000032" class="node">
<title>Node32</title>
<g id="a_Node000032"><a xlink:href="_target_resource_handler_8hpp.html" target="_top" xlink:title=" ">
<polygon fill="white" stroke="#666666" points="751,-343.5 584,-343.5 584,-324.5 751,-324.5 751,-343.5"/>
<text text-anchor="middle" x="667.5" y="-331.5" font-family="Helvetica,sans-Serif" font-size="10.00">inc/TargetResourceHandler.hpp</text>
</a>
</g>
</g>
<!-- Node1&#45;&gt;Node32 -->
<g id="edge53_Node000001_Node000032" class="edge">
<title>Node1&#45;&gt;Node32</title>
<g id="a_edge53_Node000001_Node000032"><a xlink:title=" ">
<path fill="none" stroke="#63b8ff" d="M968.45,-436.66C900.55,-413.72 752.57,-363.74 693.05,-343.63"/>
<polygon fill="#63b8ff" stroke="#63b8ff" points="967.65,-440.08 978.25,-439.97 969.89,-433.45 967.65,-440.08"/>
</a>
</g>
</g>
<!-- Node36 -->
<g id="Node000036" class="node">
<title>Node36</title>
<g id="a_Node000036"><a xlink:href="_log_ostream_inserters_8cpp.html" target="_top" xlink:title=" ">
<polygon fill="white" stroke="#666666" points="962.5,-343.5 806.5,-343.5 806.5,-324.5 962.5,-324.5 962.5,-343.5"/>
<text text-anchor="middle" x="884.5" y="-331.5" font-family="Helvetica,sans-Serif" font-size="10.00">src/LogOstreamInserters.cpp</text>
</a>
</g>
</g>
<!-- Node1&#45;&gt;Node36 -->
<g id="edge55_Node000001_Node000036" class="edge">
<title>Node1&#45;&gt;Node36</title>
<g id="a_edge55_Node000001_Node000036"><a xlink:title=" ">
<path fill="none" stroke="#63b8ff" d="M987.17,-432.92C961.74,-408.67 913.55,-362.7 893.55,-343.63"/>
<polygon fill="#63b8ff" stroke="#63b8ff" points="984.9,-435.6 994.56,-439.97 989.73,-430.53 984.9,-435.6"/>
</a>
</g>
</g>
<!-- Node37 -->
<g id="Node000037" class="node">
<title>Node37</title>
<g id="a_Node000037"><a xlink:href="test___ostream_inserters_8cpp.html" target="_top" xlink:title=" ">
<polygon fill="white" stroke="#666666" points="1170,-343.5 981,-343.5 981,-324.5 1170,-324.5 1170,-343.5"/>
<text text-anchor="middle" x="1075.5" y="-331.5" font-family="Helvetica,sans-Serif" font-size="10.00">test/unit/test_OstreamInserters.cpp</text>
</a>
</g>
</g>
<!-- Node1&#45;&gt;Node37 -->
<g id="edge57_Node000001_Node000037" class="edge">
<title>Node1&#45;&gt;Node37</title>
<g id="a_edge57_Node000001_Node000037"><a xlink:title=" ">
<path fill="none" stroke="#63b8ff" d="M1014.4,-431.32C1030.02,-406.69 1058.19,-362.29 1070.03,-343.63"/>
<polygon fill="#63b8ff" stroke="#63b8ff" points="1011.31,-429.65 1008.91,-439.97 1017.22,-433.4 1011.31,-429.65"/>
</a>
</g>
</g>
<!-- Node38 -->
<g id="Node000038" class="node">
<title>Node38</title>
<g id="a_Node000038"><a xlink:href="_request_parser_8hpp.html" target="_top" xlink:title=" ">
<polygon fill="white" stroke="#666666" points="1602.5,-404 1478.5,-404 1478.5,-385 1602.5,-385 1602.5,-404"/>
<text text-anchor="middle" x="1540.5" y="-392" font-family="Helvetica,sans-Serif" font-size="10.00">inc/RequestParser.hpp</text>
</a>
</g>
</g>
<!-- Node1&#45;&gt;Node38 -->
<g id="edge46_Node000001_Node000038" class="edge">
<title>Node1&#45;&gt;Node38</title>
<g id="a_edge46_Node000001_Node000038"><a xlink:title=" ">
<path fill="none" stroke="#63b8ff" d="M1073.78,-441.56C1179.48,-431.13 1377.68,-411.57 1478.37,-401.63"/>
<polygon fill="#63b8ff" stroke="#63b8ff" points="1073.15,-438.11 1063.54,-442.57 1073.83,-445.08 1073.15,-438.11"/>
</a>
</g>
</g>
<!-- Node43 -->
<g id="Node000043" class="node">
<title>Node43</title>
<g id="a_Node000043"><a xlink:href="_h_t_t_p_request_8cpp.html" target="_top" xlink:title=" ">
<polygon fill="white" stroke="#666666" points="2065,-404 1946,-404 1946,-385 2065,-385 2065,-404"/>
<text text-anchor="middle" x="2005.5" y="-392" font-family="Helvetica,sans-Serif" font-size="10.00">src/HTTPRequest.cpp</text>
</a>
</g>
</g>
<!-- Node1&#45;&gt;Node43 -->
<g id="edge54_Node000001_Node000043" class="edge">
<title>Node1&#45;&gt;Node43</title>
<g id="a_edge54_Node000001_Node000043"><a xlink:title=" ">
<path fill="none" stroke="#63b8ff" d="M1073.9,-446.72C1229.02,-442.45 1611.89,-429.99 1931.5,-404 1936.14,-403.62 1940.94,-403.18 1945.76,-402.71"/>
<polygon fill="#63b8ff" stroke="#63b8ff" points="1073.47,-443.23 1063.57,-447 1073.66,-450.23 1073.47,-443.23"/>
</a>
</g>
</g>
<!-- Node3 -->
<g id="Node000003" class="node">
<title>Node3</title>
<g id="a_Node000003"><a xlink:href="_server_8hpp.html" target="_top" xlink:title=" ">
<polygon fill="white" stroke="#666666" points="1682.5,-151 1596.5,-151 1596.5,-132 1682.5,-132 1682.5,-151"/>
<text text-anchor="middle" x="1639.5" y="-139" font-family="Helvetica,sans-Serif" font-size="10.00">inc/Server.hpp</text>
</a>
</g>
</g>
<!-- Node2&#45;&gt;Node3 -->
<g id="edge2_Node000002_Node000003" class="edge">
<title>Node2&#45;&gt;Node3</title>
<g id="a_edge2_Node000002_Node000003"><a xlink:title=" ">
<path fill="none" stroke="#63b8ff" d="M251.43,-318.17C294.74,-286.92 401.84,-214.88 504.5,-187 611.19,-158.03 1401.89,-145.67 1596.38,-143.05"/>
<polygon fill="#63b8ff" stroke="#63b8ff" points="249.19,-315.47 243.18,-324.19 253.32,-321.12 249.19,-315.47"/>
</a>
</g>
</g>
<!-- Node24 -->
<g id="Node000024" class="node">
<title>Node24</title>
<g id="a_Node000024"><a xlink:href="_c_g_i_handler_8cpp.html" target="_top" xlink:title=" ">
<polygon fill="white" stroke="#666666" points="286,-277.5 177,-277.5 177,-258.5 286,-258.5 286,-277.5"/>
<text text-anchor="middle" x="231.5" y="-265.5" font-family="Helvetica,sans-Serif" font-size="10.00">src/CGIHandler.cpp</text>
</a>
</g>
</g>
<!-- Node2&#45;&gt;Node24 -->
<g id="edge24_Node000002_Node000024" class="edge">
<title>Node2&#45;&gt;Node24</title>
<g id="a_edge24_Node000002_Node000024"><a xlink:title=" ">
<path fill="none" stroke="#63b8ff" d="M231.5,-314.08C231.5,-302.13 231.5,-287.22 231.5,-277.91"/>
<polygon fill="#63b8ff" stroke="#63b8ff" points="228,-314.37 231.5,-324.37 235,-314.37 228,-314.37"/>
</a>
</g>
</g>
<!-- Node2&#45;&gt;Node25 -->
<g id="edge25_Node000002_Node000025" class="edge">
<title>Node2&#45;&gt;Node25</title>
<g id="a_edge25_Node000002_Node000025"><a xlink:title=" ">
<path fill="none" stroke="#63b8ff" d="M201.48,-320.36C171.52,-307.75 126.3,-288.71 100.16,-277.7"/>
<polygon fill="#63b8ff" stroke="#63b8ff" points="200.43,-323.71 211,-324.37 203.14,-317.26 200.43,-323.71"/>
</a>
</g>
</g>
<!-- Node4 -->
<g id="Node000004" class="node">
<title>Node4</title>
<g id="a_Node000004"><a xlink:href="_config_file_parser_8hpp.html" target="_top" xlink:title=" ">
<polygon fill="white" stroke="#666666" points="2424.5,-90.5 2292.5,-90.5 2292.5,-71.5 2424.5,-71.5 2424.5,-90.5"/>
<text text-anchor="middle" x="2358.5" y="-78.5" font-family="Helvetica,sans-Serif" font-size="10.00">inc/ConfigFileParser.hpp</text>
</a>
</g>
</g>
<!-- Node3&#45;&gt;Node4 -->
<g id="edge3_Node000003_Node000004" class="edge">
<title>Node3&#45;&gt;Node4</title>
<g id="a_edge3_Node000003_Node000004"><a xlink:title=" ">
<path fill="none" stroke="#63b8ff" d="M1692.85,-138.9C1803.4,-135.12 2065.41,-123.8 2283.5,-96 2294.54,-94.59 2306.41,-92.6 2317.37,-90.56"/>
<polygon fill="#63b8ff" stroke="#63b8ff" points="1692.5,-135.41 1682.63,-139.24 1692.74,-142.4 1692.5,-135.41"/>
</a>
</g>
</g>
<!-- Node6 -->
<g id="Node000006" class="node">
<title>Node6</title>
<g id="a_Node000006"><a xlink:href="main_8cpp.html" target="_top" xlink:title=" ">
<polygon fill="white" stroke="#666666" points="2506,-24.5 2427,-24.5 2427,-5.5 2506,-5.5 2506,-24.5"/>
<text text-anchor="middle" x="2466.5" y="-12.5" font-family="Helvetica,sans-Serif" font-size="10.00">src/main.cpp</text>
</a>
</g>
</g>
<!-- Node3&#45;&gt;Node6 -->
<g id="edge8_Node000003_Node000006" class="edge">
<title>Node3&#45;&gt;Node6</title>
<g id="a_edge8_Node000003_Node000006"><a xlink:title=" ">
<path fill="none" stroke="#63b8ff" d="M1692.69,-138.28C1868.16,-130.85 2418.37,-106.75 2433.5,-96 2457.38,-79.03 2464.03,-41.5 2465.84,-24.57"/>
<polygon fill="#63b8ff" stroke="#63b8ff" points="1692.5,-134.78 1682.66,-138.7 1692.8,-141.78 1692.5,-134.78"/>
</a>
</g>
</g>
<!-- Node8 -->
<g id="Node000008" class="node">
<title>Node8</title>
<g id="a_Node000008"><a xlink:href="_server_8cpp.html" target="_top" xlink:title=" ">
<polygon fill="white" stroke="#666666" points="2566,-90.5 2481,-90.5 2481,-71.5 2566,-71.5 2566,-90.5"/>
<text text-anchor="middle" x="2523.5" y="-78.5" font-family="Helvetica,sans-Serif" font-size="10.00">src/Server.cpp</text>
</a>
</g>
</g>
<!-- Node3&#45;&gt;Node8 -->
<g id="edge7_Node000003_Node000008" class="edge">
<title>Node3&#45;&gt;Node8</title>
<g id="a_edge7_Node000003_Node000008"><a xlink:title=" ">
<path fill="none" stroke="#63b8ff" d="M1692.53,-138.22C1863.01,-130.83 2390.36,-107.3 2466.5,-96 2475.27,-94.7 2484.66,-92.67 2493.24,-90.55"/>
<polygon fill="#63b8ff" stroke="#63b8ff" points="1692.38,-134.73 1682.54,-138.66 1692.68,-141.72 1692.38,-134.73"/>
</a>
</g>
</g>
<!-- Node9 -->
<g id="Node000009" class="node">
<title>Node9</title>
<g id="a_Node000009"><a xlink:href="test__accept_connections_8cpp.html" target="_top" xlink:title=" ">
<polygon fill="white" stroke="#666666" points="2781,-90.5 2584,-90.5 2584,-71.5 2781,-71.5 2781,-90.5"/>
<text text-anchor="middle" x="2682.5" y="-78.5" font-family="Helvetica,sans-Serif" font-size="10.00">test/unit/test_acceptConnections.cpp</text>
</a>
</g>
</g>
<!-- Node3&#45;&gt;Node9 -->
<g id="edge9_Node000003_Node000009" class="edge">
<title>Node3&#45;&gt;Node9</title>
<g id="a_edge9_Node000003_Node000009"><a xlink:title=" ">
<path fill="none" stroke="#63b8ff" d="M1692.81,-138.22C1878.13,-130.27 2487.73,-103.81 2575.5,-96 2591.36,-94.59 2608.49,-92.57 2624.29,-90.5"/>
<polygon fill="#63b8ff" stroke="#63b8ff" points="1692.61,-134.73 1682.77,-138.65 1692.91,-141.72 1692.61,-134.73"/>
</a>
</g>
</g>
<!-- Node10 -->
<g id="Node000010" class="node">
<title>Node10</title>
<g id="a_Node000010"><a xlink:href="test__check_for_timeout_8cpp.html" target="_top" xlink:title=" ">
<polygon fill="white" stroke="#666666" points="2987.5,-90.5 2799.5,-90.5 2799.5,-71.5 2987.5,-71.5 2987.5,-90.5"/>
<text text-anchor="middle" x="2893.5" y="-78.5" font-family="Helvetica,sans-Serif" font-size="10.00">test/unit/test_checkForTimeout.cpp</text>
</a>
</g>
</g>
<!-- Node3&#45;&gt;Node10 -->
<g id="edge10_Node000003_Node000010" class="edge">
<title>Node3&#45;&gt;Node10</title>
<g id="a_edge10_Node000003_Node000010"><a xlink:title=" ">
<path fill="none" stroke="#63b8ff" d="M1692.65,-138.4C1736.37,-136.67 1799.95,-134.16 1855.5,-132 2271.05,-115.82 2376.2,-132.05 2790.5,-96 2806.05,-94.65 2822.85,-92.61 2838.28,-90.51"/>
<polygon fill="#63b8ff" stroke="#63b8ff" points="1692.38,-134.9 1682.53,-138.8 1692.66,-141.9 1692.38,-134.9"/>
</a>
</g>
</g>
<!-- Node11 -->
<g id="Node000011" class="node">
<title>Node11</title>
<g id="a_Node000011"><a xlink:href="test__connection_receive_from_c_g_i_8cpp.html" target="_top" xlink:title=" ">
<polygon fill="white" stroke="#666666" points="383,-96 246,-96 246,-66 383,-66 383,-96"/>
<text text-anchor="start" x="254" y="-84" font-family="Helvetica,sans-Serif" font-size="10.00">test/unit/test_connection</text>
<text text-anchor="middle" x="314.5" y="-73" font-family="Helvetica,sans-Serif" font-size="10.00">ReceiveFromCGI.cpp</text>
</a>
</g>
</g>
<!-- Node3&#45;&gt;Node11 -->
<g id="edge11_Node000003_Node000011" class="edge">
<title>Node3&#45;&gt;Node11</title>
<g id="a_edge11_Node000003_Node000011"><a xlink:title=" ">
<path fill="none" stroke="#63b8ff" d="M1586.22,-139.62C1379.27,-136.07 628.51,-121.64 391.5,-96 388.8,-95.71 386.05,-95.38 383.28,-95.01"/>
<polygon fill="#63b8ff" stroke="#63b8ff" points="1586.17,-143.12 1596.23,-139.8 1586.29,-136.13 1586.17,-143.12"/>
</a>
</g>
</g>
<!-- Node12 -->
<g id="Node000012" class="node">
<title>Node12</title>
<g id="a_Node000012"><a xlink:href="test__connection_receive_header_8cpp.html" target="_top" xlink:title=" ">
<polygon fill="white" stroke="#666666" points="3143,-96 3006,-96 3006,-66 3143,-66 3143,-96"/>
<text text-anchor="start" x="3014" y="-84" font-family="Helvetica,sans-Serif" font-size="10.00">test/unit/test_connection</text>
<text text-anchor="middle" x="3074.5" y="-73" font-family="Helvetica,sans-Serif" font-size="10.00">ReceiveHeader.cpp</text>
</a>
</g>
</g>
<!-- Node3&#45;&gt;Node12 -->
<g id="edge12_Node000003_Node000012" class="edge">
<title>Node3&#45;&gt;Node12</title>
<g id="a_edge12_Node000003_Node000012"><a xlink:title=" ">
<path fill="none" stroke="#63b8ff" d="M1692.65,-138.29C1736.36,-136.51 1799.95,-133.97 1855.5,-132 2362.54,-114.02 2491.91,-148.96 2996.5,-96 2999.51,-95.68 3002.58,-95.32 3005.67,-94.92"/>
<polygon fill="#63b8ff" stroke="#63b8ff" points="1692.38,-134.8 1682.53,-138.71 1692.66,-141.8 1692.38,-134.8"/>
</a>
</g>
</g>
<!-- Node13 -->
<g id="Node000013" class="node">
<title>Node13</title>
<g id="a_Node000013"><a xlink:href="test__connection_send_response_8cpp.html" target="_top" xlink:title=" ">
<polygon fill="white" stroke="#666666" points="693,-96 556,-96 556,-66 693,-66 693,-96"/>
<text text-anchor="start" x="564" y="-84" font-family="Helvetica,sans-Serif" font-size="10.00">test/unit/test_connection</text>
<text text-anchor="middle" x="624.5" y="-73" font-family="Helvetica,sans-Serif" font-size="10.00">SendResponse.cpp</text>
</a>
</g>
</g>
<!-- Node3&#45;&gt;Node13 -->
<g id="edge13_Node000003_Node000013" class="edge">
<title>Node3&#45;&gt;Node13</title>
<g id="a_edge13_Node000003_Node000013"><a xlink:title=" ">
<path fill="none" stroke="#63b8ff" d="M1586.11,-140.39C1442.68,-139.58 1037.2,-133.82 702.5,-96 699.49,-95.66 696.43,-95.28 693.33,-94.86"/>
<polygon fill="#63b8ff" stroke="#63b8ff" points="1586.36,-143.89 1596.38,-140.44 1586.4,-136.89 1586.36,-143.89"/>
</a>
</g>
</g>
<!-- Node14 -->
<g id="Node000014" class="node">
<title>Node14</title>
<g id="a_Node000014"><a xlink:href="test__connection_send_to_c_g_i_8cpp.html" target="_top" xlink:title=" ">
<polygon fill="white" stroke="#666666" points="538,-96 401,-96 401,-66 538,-66 538,-96"/>
<text text-anchor="start" x="409" y="-84" font-family="Helvetica,sans-Serif" font-size="10.00">test/unit/test_connection</text>
<text text-anchor="middle" x="469.5" y="-73" font-family="Helvetica,sans-Serif" font-size="10.00">SendToCGI.cpp</text>
</a>
</g>
</g>
<!-- Node3&#45;&gt;Node14 -->
<g id="edge14_Node000003_Node000014" class="edge">
<title>Node3&#45;&gt;Node14</title>
<g id="a_edge14_Node000003_Node000014"><a xlink:title=" ">
<path fill="none" stroke="#63b8ff" d="M1585.99,-140.91C1427.13,-141.56 944.6,-139.52 547.5,-96 544.49,-95.67 541.42,-95.29 538.33,-94.88"/>
<polygon fill="#63b8ff" stroke="#63b8ff" points="1586.43,-144.4 1596.42,-140.86 1586.4,-137.4 1586.43,-144.4"/>
</a>
</g>
</g>
<!-- Node15 -->
<g id="Node000015" class="node">
<title>Node15</title>
<g id="a_Node000015"><a xlink:href="test__create_virtual_server_8cpp.html" target="_top" xlink:title=" ">
<polygon fill="white" stroke="#666666" points="858,-96 711,-96 711,-66 858,-66 858,-96"/>
<text text-anchor="start" x="719" y="-84" font-family="Helvetica,sans-Serif" font-size="10.00">test/unit/test_createVirtual</text>
<text text-anchor="middle" x="784.5" y="-73" font-family="Helvetica,sans-Serif" font-size="10.00">Server.cpp</text>
</a>
</g>
</g>
<!-- Node3&#45;&gt;Node15 -->
<g id="edge15_Node000003_Node000015" class="edge">
<title>Node3&#45;&gt;Node15</title>
<g id="a_edge15_Node000003_Node000015"><a xlink:title=" ">
<path fill="none" stroke="#63b8ff" d="M1586.14,-139.44C1460.51,-136.49 1136.42,-126.34 867.5,-96 864.45,-95.66 861.34,-95.27 858.21,-94.86"/>
<polygon fill="#63b8ff" stroke="#63b8ff" points="1586.18,-142.94 1596.25,-139.67 1586.34,-135.94 1586.18,-142.94"/>
</a>
</g>
</g>
<!-- Node16 -->
<g id="Node000016" class="node">
<title>Node16</title>
<g id="a_Node000016"><a xlink:href="test__handle_complete_request_header_8cpp.html" target="_top" xlink:title=" ">
<polygon fill="white" stroke="#666666" points="1040.5,-96 876.5,-96 876.5,-66 1040.5,-66 1040.5,-96"/>
<text text-anchor="start" x="884.5" y="-84" font-family="Helvetica,sans-Serif" font-size="10.00">test/unit/test_handleComplete</text>
<text text-anchor="middle" x="958.5" y="-73" font-family="Helvetica,sans-Serif" font-size="10.00">RequestHeader.cpp</text>
</a>
</g>
</g>
<!-- Node3&#45;&gt;Node16 -->
<g id="edge16_Node000003_Node000016" class="edge">
<title>Node3&#45;&gt;Node16</title>
<g id="a_edge16_Node000003_Node000016"><a xlink:title=" ">
<path fill="none" stroke="#63b8ff" d="M1586.26,-137.87C1482.66,-132.44 1246.83,-118.59 1049.5,-96 1046.64,-95.67 1043.74,-95.32 1040.8,-94.95"/>
<polygon fill="#63b8ff" stroke="#63b8ff" points="1586.29,-141.37 1596.46,-138.4 1586.65,-134.38 1586.29,-141.37"/>
</a>
</g>
</g>
<!-- Node17 -->
<g id="Node000017" class="node">
<title>Node17</title>
<g id="a_Node000017"><a xlink:href="test__init_virtual_servers_8cpp.html" target="_top" xlink:title=" ">
<polygon fill="white" stroke="#666666" points="1190.5,-96 1058.5,-96 1058.5,-66 1190.5,-66 1190.5,-96"/>
<text text-anchor="start" x="1066.5" y="-84" font-family="Helvetica,sans-Serif" font-size="10.00">test/unit/test_initVirtual</text>
<text text-anchor="middle" x="1124.5" y="-73" font-family="Helvetica,sans-Serif" font-size="10.00">Servers.cpp</text>
</a>
</g>
</g>
<!-- Node3&#45;&gt;Node17 -->
<g id="edge17_Node000003_Node000017" class="edge">
<title>Node3&#45;&gt;Node17</title>
<g id="a_edge17_Node000003_Node000017"><a xlink:title=" ">
<path fill="none" stroke="#63b8ff" d="M1586.2,-136.5C1503.42,-129.97 1339.05,-115.75 1200.5,-96 1197.31,-95.55 1194.05,-95.05 1190.77,-94.53"/>
<polygon fill="#63b8ff" stroke="#63b8ff" points="1586.12,-140.01 1596.36,-137.3 1586.67,-133.03 1586.12,-140.01"/>
</a>
</g>
</g>
<!-- Node18 -->
<g id="Node000018" class="node">
<title>Node18</title>
<g id="a_Node000018"><a xlink:href="test__is_duplicate_server_8cpp.html" target="_top" xlink:title=" ">
<polygon fill="white" stroke="#666666" points="1348,-96 1209,-96 1209,-66 1348,-66 1348,-96"/>
<text text-anchor="start" x="1217" y="-84" font-family="Helvetica,sans-Serif" font-size="10.00">test/unit/test_isDuplicate</text>
<text text-anchor="middle" x="1278.5" y="-73" font-family="Helvetica,sans-Serif" font-size="10.00">Server.cpp</text>
</a>
</g>
</g>
<!-- Node3&#45;&gt;Node18 -->
<g id="edge18_Node000003_Node000018" class="edge">
<title>Node3&#45;&gt;Node18</title>
<g id="a_edge18_Node000003_Node000018"><a xlink:title=" ">
<path fill="none" stroke="#63b8ff" d="M1586.29,-132.41C1529.56,-123.71 1437.11,-109.33 1357.5,-96 1354.48,-95.49 1351.39,-94.97 1348.27,-94.44"/>
<polygon fill="#63b8ff" stroke="#63b8ff" points="1586.05,-135.91 1596.46,-133.97 1587.11,-128.99 1586.05,-135.91"/>
</a>
</g>
</g>
<!-- Node19 -->
<g id="Node000019" class="node">
<title>Node19</title>
<g id="a_Node000019"><a xlink:href="test__register_c_g_i_file_descriptor_8cpp.html" target="_top" xlink:title=" ">
<polygon fill="white" stroke="#666666" points="1522.5,-96 1366.5,-96 1366.5,-66 1522.5,-66 1522.5,-96"/>
<text text-anchor="start" x="1374.5" y="-84" font-family="Helvetica,sans-Serif" font-size="10.00">test/unit/test_registerCGIFile</text>
<text text-anchor="middle" x="1444.5" y="-73" font-family="Helvetica,sans-Serif" font-size="10.00">Descriptor.cpp</text>
</a>
</g>
</g>
<!-- Node3&#45;&gt;Node19 -->
<g id="edge19_Node000003_Node000019" class="edge">
<title>Node3&#45;&gt;Node19</title>
<g id="a_edge19_Node000003_Node000019"><a xlink:title=" ">
<path fill="none" stroke="#63b8ff" d="M1601.42,-129.08C1569.93,-119.63 1525.08,-106.17 1491.38,-96.06"/>
<polygon fill="#63b8ff" stroke="#63b8ff" points="1600.56,-132.47 1611.15,-131.99 1602.57,-125.77 1600.56,-132.47"/>
</a>
</g>
</g>
<!-- Node20 -->
<g id="Node000020" class="node">
<title>Node20</title>
<g id="a_Node000020"><a xlink:href="test__register_connection_8cpp.html" target="_top" xlink:title=" ">
<polygon fill="white" stroke="#666666" points="1738,-90.5 1541,-90.5 1541,-71.5 1738,-71.5 1738,-90.5"/>
<text text-anchor="middle" x="1639.5" y="-78.5" font-family="Helvetica,sans-Serif" font-size="10.00">test/unit/test_registerConnection.cpp</text>
</a>
</g>
</g>
<!-- Node3&#45;&gt;Node20 -->
<g id="edge20_Node000003_Node000020" class="edge">
<title>Node3&#45;&gt;Node20</title>
<g id="a_edge20_Node000003_Node000020"><a xlink:title=" ">
<path fill="none" stroke="#63b8ff" d="M1639.5,-121.66C1639.5,-111.24 1639.5,-98.8 1639.5,-90.67"/>
<polygon fill="#63b8ff" stroke="#63b8ff" points="1636,-121.87 1639.5,-131.87 1643,-121.87 1636,-121.87"/>
</a>
</g>
</g>
<!-- Node21 -->
<g id="Node000021" class="node">
<title>Node21</title>
<g id="a_Node000021"><a xlink:href="test__register_virtual_server_8cpp.html" target="_top" xlink:title=" ">
<polygon fill="white" stroke="#666666" points="1910.5,-96 1756.5,-96 1756.5,-66 1910.5,-66 1910.5,-96"/>
<text text-anchor="start" x="1764.5" y="-84" font-family="Helvetica,sans-Serif" font-size="10.00">test/unit/test_registerVirtual</text>
<text text-anchor="middle" x="1833.5" y="-73" font-family="Helvetica,sans-Serif" font-size="10.00">Server.cpp</text>
</a>
</g>
</g>
<!-- Node3&#45;&gt;Node21 -->
<g id="edge21_Node000003_Node000021" class="edge">
<title>Node3&#45;&gt;Node21</title>
<g id="a_edge21_Node000003_Node000021"><a xlink:title=" ">
<path fill="none" stroke="#63b8ff" d="M1677.38,-129.08C1708.71,-119.63 1753.34,-106.17 1786.86,-96.06"/>
<polygon fill="#63b8ff" stroke="#63b8ff" points="1676.27,-125.76 1667.71,-131.99 1678.29,-132.46 1676.27,-125.76"/>
</a>
</g>
</g>
<!-- Node22 -->
<g id="Node000022" class="node">
<title>Node22</title>
<g id="a_Node000022"><a xlink:href="test__select_server_config_8cpp.html" target="_top" xlink:title=" ">
<polygon fill="white" stroke="#666666" points="2074,-96 1929,-96 1929,-66 2074,-66 2074,-96"/>
<text text-anchor="start" x="1937" y="-84" font-family="Helvetica,sans-Serif" font-size="10.00">test/unit/test_selectServer</text>
<text text-anchor="middle" x="2001.5" y="-73" font-family="Helvetica,sans-Serif" font-size="10.00">Config.cpp</text>
</a>
</g>
</g>
<!-- Node3&#45;&gt;Node22 -->
<g id="edge22_Node000003_Node000022" class="edge">
<title>Node3&#45;&gt;Node22</title>
<g id="a_edge22_Node000003_Node000022"><a xlink:title=" ">
<path fill="none" stroke="#63b8ff" d="M1692.8,-132.22C1749.15,-123.41 1840.63,-109 1919.5,-96 1922.49,-95.51 1925.55,-95 1928.63,-94.49"/>
<polygon fill="#63b8ff" stroke="#63b8ff" points="1692.04,-128.79 1682.7,-133.79 1693.12,-135.71 1692.04,-128.79"/>
</a>
</g>
</g>
<!-- Node23 -->
<g id="Node000023" class="node">
<title>Node23</title>
<g id="a_Node000023"><a xlink:href="test__shutdown_server_8cpp.html" target="_top" xlink:title=" ">
<polygon fill="white" stroke="#666666" points="2274.5,-90.5 2092.5,-90.5 2092.5,-71.5 2274.5,-71.5 2274.5,-90.5"/>
<text text-anchor="middle" x="2183.5" y="-78.5" font-family="Helvetica,sans-Serif" font-size="10.00">test/unit/test_shutdownServer.cpp</text>
</a>
</g>
</g>
<!-- Node3&#45;&gt;Node23 -->
<g id="edge23_Node000003_Node000023" class="edge">
<title>Node3&#45;&gt;Node23</title>
<g id="a_edge23_Node000003_Node000023"><a xlink:title=" ">
<path fill="none" stroke="#63b8ff" d="M1692.73,-135.84C1776.13,-128.4 1942.66,-112.91 2083.5,-96 2097.08,-94.37 2111.66,-92.43 2125.38,-90.53"/>
<polygon fill="#63b8ff" stroke="#63b8ff" points="1692.39,-132.36 1682.73,-136.73 1693.01,-139.33 1692.39,-132.36"/>
</a>
</g>
</g>
<!-- Node5 -->
<g id="Node000005" class="node">
<title>Node5</title>
<g id="a_Node000005"><a xlink:href="_config_file_parser_8cpp.html" target="_top" xlink:title=" ">
<polygon fill="white" stroke="#666666" points="2409,-24.5 2278,-24.5 2278,-5.5 2409,-5.5 2409,-24.5"/>
<text text-anchor="middle" x="2343.5" y="-12.5" font-family="Helvetica,sans-Serif" font-size="10.00">src/ConfigFileParser.cpp</text>
</a>
</g>
</g>
<!-- Node4&#45;&gt;Node5 -->
<g id="edge4_Node000004_Node000005" class="edge">
<title>Node4&#45;&gt;Node5</title>
<g id="a_edge4_Node000004_Node000005"><a xlink:title=" ">
<path fill="none" stroke="#63b8ff" d="M2354.15,-61.45C2351.34,-49.43 2347.79,-34.32 2345.59,-24.91"/>
<polygon fill="#63b8ff" stroke="#63b8ff" points="2350.79,-62.43 2356.48,-71.37 2357.6,-60.83 2350.79,-62.43"/>
</a>
</g>
</g>
<!-- Node4&#45;&gt;Node6 -->
<g id="edge5_Node000004_Node000006" class="edge">
<title>Node4&#45;&gt;Node6</title>
<g id="a_edge5_Node000004_Node000006"><a xlink:title=" ">
<path fill="none" stroke="#63b8ff" d="M2381.8,-66.19C2403.06,-53.59 2433.81,-35.37 2451.82,-24.7"/>
<polygon fill="#63b8ff" stroke="#63b8ff" points="2379.88,-63.26 2373.07,-71.37 2383.45,-69.28 2379.88,-63.26"/>
</a>
</g>
</g>
<!-- Node7 -->
<g id="Node000007" class="node">
<title>Node7</title>
<g id="a_Node000007"><a xlink:href="test___config_file_parser_8cpp.html" target="_top" xlink:title=" ">
<polygon fill="white" stroke="#666666" points="2259.5,-30 2127.5,-30 2127.5,0 2259.5,0 2259.5,-30"/>
<text text-anchor="start" x="2135.5" y="-18" font-family="Helvetica,sans-Serif" font-size="10.00">test/unit/test_ConfigFile</text>
<text text-anchor="middle" x="2193.5" y="-7" font-family="Helvetica,sans-Serif" font-size="10.00">Parser.cpp</text>
</a>
</g>
</g>
<!-- Node4&#45;&gt;Node7 -->
<g id="edge6_Node000004_Node000007" class="edge">
<title>Node4&#45;&gt;Node7</title>
<g id="a_edge6_Node000004_Node000007"><a xlink:title=" ">
<path fill="none" stroke="#63b8ff" d="M2326.65,-67.65C2298.96,-56.9 2258.84,-41.35 2229.89,-30.12"/>
<polygon fill="#63b8ff" stroke="#63b8ff" points="2325.66,-71.02 2336.25,-71.37 2328.19,-64.49 2325.66,-71.02"/>
</a>
</g>
</g>
<!-- Node26&#45;&gt;Node2 -->
<g id="edge27_Node000026_Node000002" class="edge">
<title>Node26&#45;&gt;Node2</title>
<g id="a_edge27_Node000026_Node000002"><a xlink:title=" ">
<path fill="none" stroke="#63b8ff" d="M494.89,-383.29C442.98,-374.57 366.79,-361.48 300.5,-349 291.49,-347.3 281.84,-345.4 272.69,-343.55"/>
<polygon fill="#63b8ff" stroke="#63b8ff" points="494.5,-386.77 504.94,-384.97 495.65,-379.87 494.5,-386.77"/>
</a>
</g>
</g>
<!-- Node26&#45;&gt;Node3 -->
<g id="edge34_Node000026_Node000003" class="edge">
<title>Node26&#45;&gt;Node3</title>
<g id="a_edge34_Node000026_Node000003"><a xlink:title=" ">
<path fill="none" stroke="#63b8ff" d="M546.67,-375.82C532.03,-346.86 509.12,-288.94 537.5,-253 604.35,-168.36 1400.56,-147.2 1596.26,-143.27"/>
<polygon fill="#63b8ff" stroke="#63b8ff" points="543.63,-377.57 551.4,-384.77 549.82,-374.3 543.63,-377.57"/>
</a>
</g>
</g>
<!-- Node26&#45;&gt;Node11 -->
<g id="edge44_Node000026_Node000011" class="edge">
<title>Node26&#45;&gt;Node11</title>
<g id="a_edge44_Node000026_Node000011"><a xlink:title=" ">
<path fill="none" stroke="#63b8ff" d="M491.38,-384.14C429.73,-374.71 344.91,-360 333.5,-349 307.2,-323.63 314.5,-305.54 314.5,-269 314.5,-269 314.5,-269 314.5,-201 314.5,-163.19 314.5,-118.63 314.5,-96.29"/>
<polygon fill="#63b8ff" stroke="#63b8ff" points="491.04,-387.63 501.45,-385.67 492.09,-380.71 491.04,-387.63"/>
</a>
</g>
</g>
<!-- Node26&#45;&gt;Node14 -->
<g id="edge45_Node000026_Node000014" class="edge">
<title>Node26&#45;&gt;Node14</title>
<g id="a_edge45_Node000026_Node000014"><a xlink:title=" ">
<path fill="none" stroke="#63b8ff" d="M539,-377.81C516.56,-355.87 480.5,-313.66 480.5,-269 480.5,-269 480.5,-269 480.5,-201 480.5,-163.03 474.88,-118.54 471.67,-96.25"/>
<polygon fill="#63b8ff" stroke="#63b8ff" points="536.89,-380.63 546.56,-384.95 541.69,-375.54 536.89,-380.63"/>
</a>
</g>
</g>
<!-- Node27 -->
<g id="Node000027" class="node">
<title>Node27</title>
<g id="a_Node000027"><a xlink:href="_response_body_handler_8hpp.html" target="_top" xlink:title=" ">
<polygon fill="white" stroke="#666666" points="1109.5,-277.5 945.5,-277.5 945.5,-258.5 1109.5,-258.5 1109.5,-277.5"/>
<text text-anchor="middle" x="1027.5" y="-265.5" font-family="Helvetica,sans-Serif" font-size="10.00">inc/ResponseBodyHandler.hpp</text>
</a>
</g>
</g>
<!-- Node26&#45;&gt;Node27 -->
<g id="edge28_Node000026_Node000027" class="edge">
<title>Node26&#45;&gt;Node27</title>
<g id="a_edge28_Node000026_Node000027"><a xlink:title=" ">
<path fill="none" stroke="#63b8ff" d="M621.55,-387.14C662.91,-381.24 716.73,-370.04 760.5,-349 779.58,-339.83 778.42,-328.16 797.5,-319 828.3,-304.21 917.03,-287.4 974.84,-277.53"/>
<polygon fill="#63b8ff" stroke="#63b8ff" points="621.02,-383.68 611.58,-388.5 621.96,-390.62 621.02,-383.68"/>
</a>
</g>
</g>
<!-- Node26&#45;&gt;Node32 -->
<g id="edge35_Node000026_Node000032" class="edge">
<title>Node26&#45;&gt;Node32</title>
<g id="a_edge35_Node000026_Node000032"><a xlink:title=" ">
<path fill="none" stroke="#63b8ff" d="M581.97,-380.08C603.21,-368.88 632.83,-353.27 651.05,-343.67"/>
<polygon fill="#63b8ff" stroke="#63b8ff" points="580.09,-377.11 572.88,-384.87 583.36,-383.3 580.09,-377.11"/>
</a>
</g>
</g>
<!-- Node34 -->
<g id="Node000034" class="node">
<title>Node34</title>
<g id="a_Node000034"><a xlink:href="test___target_resource_handler_8cpp.html" target="_top" xlink:title=" ">
<polygon fill="white" stroke="#666666" points="705,-283 546,-283 546,-253 705,-253 705,-283"/>
<text text-anchor="start" x="554" y="-271" font-family="Helvetica,sans-Serif" font-size="10.00">test/unit/test_TargetResource</text>
<text text-anchor="middle" x="625.5" y="-260" font-family="Helvetica,sans-Serif" font-size="10.00">Handler.cpp</text>
</a>
</g>
</g>
<!-- Node26&#45;&gt;Node34 -->
<g id="edge43_Node000026_Node000034" class="edge">
<title>Node26&#45;&gt;Node34</title>
<g id="a_edge43_Node000026_Node000034"><a xlink:title=" ">
<path fill="none" stroke="#63b8ff" d="M558.49,-374.61C560.79,-358.89 565.62,-336.36 575.5,-319 583.4,-305.13 596.17,-292.45 606.82,-283.33"/>
<polygon fill="#63b8ff" stroke="#63b8ff" points="555,-374.32 557.23,-384.68 561.95,-375.19 555,-374.32"/>
</a>
</g>
</g>
<!-- Node35 -->
<g id="Node000035" class="node">
<title>Node35</title>
<g id="a_Node000035"><a xlink:href="_connection_8cpp.html" target="_top" xlink:title=" ">
<polygon fill="white" stroke="#666666" points="452,-343.5 343,-343.5 343,-324.5 452,-324.5 452,-343.5"/>
<text text-anchor="middle" x="397.5" y="-331.5" font-family="Helvetica,sans-Serif" font-size="10.00">src/Connection.cpp</text>
</a>
</g>
</g>
<!-- Node26&#45;&gt;Node35 -->
<g id="edge40_Node000026_Node000035" class="edge">
<title>Node26&#45;&gt;Node35</title>
<g id="a_edge40_Node000026_Node000035"><a xlink:title=" ">
<path fill="none" stroke="#63b8ff" d="M523.95,-381.52C493.21,-370.21 447.86,-353.53 420.65,-343.52"/>
<polygon fill="#63b8ff" stroke="#63b8ff" points="522.79,-384.83 533.38,-384.99 525.2,-378.26 522.79,-384.83"/>
</a>
</g>
</g>
<!-- Node26&#45;&gt;Node36 -->
<g id="edge41_Node000026_Node000036" class="edge">
<title>Node26&#45;&gt;Node36</title>
<g id="a_edge41_Node000026_Node000036"><a xlink:title=" ">
<path fill="none" stroke="#63b8ff" d="M614.4,-383.17C677.66,-371.89 777.81,-354.03 836.75,-343.52"/>
<polygon fill="#63b8ff" stroke="#63b8ff" points="613.42,-379.79 604.19,-384.99 614.65,-386.68 613.42,-379.79"/>
</a>
</g>
</g>
<!-- Node26&#45;&gt;Node37 -->
<g id="edge42_Node000026_Node000037" class="edge">
<title>Node26&#45;&gt;Node37</title>
<g id="a_edge42_Node000026_Node000037"><a xlink:title=" ">
<path fill="none" stroke="#63b8ff" d="M621.74,-387.05C703.54,-378.85 848.01,-363.93 971.5,-349 985.34,-347.33 1000.19,-345.4 1014.22,-343.53"/>
<polygon fill="#63b8ff" stroke="#63b8ff" points="621.2,-383.59 611.6,-388.07 621.9,-390.56 621.2,-383.59"/>
</a>
</g>
</g>
<!-- Node27&#45;&gt;Node28 -->
<g id="edge29_Node000027_Node000028" class="edge">
<title>Node27&#45;&gt;Node28</title>
<g id="a_edge29_Node000027_Node000028"><a xlink:title=" ">
<path fill="none" stroke="#63b8ff" d="M1119.8,-260.47C1301.8,-247.58 1703.16,-219.17 1863.44,-207.82"/>
<polygon fill="#63b8ff" stroke="#63b8ff" points="1119.45,-256.98 1109.72,-261.18 1119.94,-263.96 1119.45,-256.98"/>
</a>
</g>
</g>
<!-- Node30 -->
<g id="Node000030" class="node">
<title>Node30</title>
<g id="a_Node000030"><a xlink:href="_response_body_handler_8cpp.html" target="_top" xlink:title=" ">
<polygon fill="white" stroke="#666666" points="1102.5,-211.5 938.5,-211.5 938.5,-192.5 1102.5,-192.5 1102.5,-211.5"/>
<text text-anchor="middle" x="1020.5" y="-199.5" font-family="Helvetica,sans-Serif" font-size="10.00">src/ResponseBodyHandler.cpp</text>
</a>
</g>
</g>
<!-- Node27&#45;&gt;Node30 -->
<g id="edge32_Node000027_Node000030" class="edge">
<title>Node27&#45;&gt;Node30</title>
<g id="a_edge32_Node000027_Node000030"><a xlink:title=" ">
<path fill="none" stroke="#63b8ff" d="M1025.43,-248.08C1024.12,-236.13 1022.49,-221.22 1021.47,-211.91"/>
<polygon fill="#63b8ff" stroke="#63b8ff" points="1021.99,-248.81 1026.56,-258.37 1028.95,-248.05 1021.99,-248.81"/>
</a>
</g>
</g>
<!-- Node27&#45;&gt;Node31 -->
<g id="edge33_Node000027_Node000031" class="edge">
<title>Node27&#45;&gt;Node31</title>
<g id="a_edge33_Node000027_Node000031"><a xlink:title=" ">
<path fill="none" stroke="#63b8ff" d="M1060.13,-254.79C1088.84,-244.04 1130.65,-228.4 1160.78,-217.12"/>
<polygon fill="#63b8ff" stroke="#63b8ff" points="1058.7,-251.59 1050.56,-258.37 1061.15,-258.14 1058.7,-251.59"/>
</a>
</g>
</g>
<!-- Node28&#45;&gt;Node3 -->
<g id="edge30_Node000028_Node000003" class="edge">
<title>Node28&#45;&gt;Node3</title>
<g id="a_edge30_Node000028_Node000003"><a xlink:title=" ">
<path fill="none" stroke="#63b8ff" d="M1878.9,-190.46C1822.54,-179.17 1734.15,-161.46 1682.01,-151.02"/>
<polygon fill="#63b8ff" stroke="#63b8ff" points="1878.55,-193.96 1889.04,-192.49 1879.92,-187.1 1878.55,-193.96"/>
</a>
</g>
</g>
<!-- Node29 -->
<g id="Node000029" class="node">
<title>Node29</title>
<g id="a_Node000029"><a xlink:href="_response_builder_8cpp.html" target="_top" xlink:title=" ">
<polygon fill="white" stroke="#666666" points="1999,-151 1864,-151 1864,-132 1999,-132 1999,-151"/>
<text text-anchor="middle" x="1931.5" y="-139" font-family="Helvetica,sans-Serif" font-size="10.00">src/ResponseBuilder.cpp</text>
</a>
</g>
</g>
<!-- Node28&#45;&gt;Node29 -->
<g id="edge31_Node000028_Node000029" class="edge">
<title>Node28&#45;&gt;Node29</title>
<g id="a_edge31_Node000028_Node000029"><a xlink:title=" ">
<path fill="none" stroke="#63b8ff" d="M1931.5,-182.16C1931.5,-171.74 1931.5,-159.3 1931.5,-151.17"/>
<polygon fill="#63b8ff" stroke="#63b8ff" points="1928,-182.37 1931.5,-192.37 1935,-182.37 1928,-182.37"/>
</a>
</g>
</g>
<!-- Node32&#45;&gt;Node3 -->
<g id="edge37_Node000032_Node000003" class="edge">
<title>Node32&#45;&gt;Node3</title>
<g id="a_edge37_Node000032_Node000003"><a xlink:title=" ">
<path fill="none" stroke="#63b8ff" d="M682.69,-317.08C702.52,-296.55 736.49,-262.37 751.5,-253 823.07,-208.32 846.96,-204.49 929.5,-187 1057.87,-159.79 1462.34,-147.09 1596.09,-143.56"/>
<polygon fill="#63b8ff" stroke="#63b8ff" points="680.02,-314.81 675.61,-324.45 685.06,-319.66 680.02,-314.81"/>
</a>
</g>
</g>
<!-- Node32&#45;&gt;Node27 -->
<g id="edge36_Node000032_Node000027" class="edge">
<title>Node32&#45;&gt;Node27</title>
<g id="a_edge36_Node000032_Node000027"><a xlink:title=" ">
<path fill="none" stroke="#63b8ff" d="M725.74,-322.65C796.35,-310.09 914.02,-289.17 979.61,-277.51"/>
<polygon fill="#63b8ff" stroke="#63b8ff" points="724.91,-319.24 715.68,-324.44 726.14,-326.13 724.91,-319.24"/>
</a>
</g>
</g>
<!-- Node33 -->
<g id="Node000033" class="node">
<title>Node33</title>
<g id="a_Node000033"><a xlink:href="_target_resource_handler_8cpp.html" target="_top" xlink:title=" ">
<polygon fill="white" stroke="#666666" points="927,-277.5 760,-277.5 760,-258.5 927,-258.5 927,-277.5"/>
<text text-anchor="middle" x="843.5" y="-265.5" font-family="Helvetica,sans-Serif" font-size="10.00">src/TargetResourceHandler.cpp</text>
</a>
</g>
</g>
<!-- Node32&#45;&gt;Node33 -->
<g id="edge38_Node000032_Node000033" class="edge">
<title>Node32&#45;&gt;Node33</title>
<g id="a_edge38_Node000032_Node000033"><a xlink:title=" ">
<path fill="none" stroke="#63b8ff" d="M700.94,-320.84C735.71,-308.2 789.25,-288.73 819.86,-277.6"/>
<polygon fill="#63b8ff" stroke="#63b8ff" points="699.44,-317.66 691.24,-324.37 701.83,-324.24 699.44,-317.66"/>
</a>
</g>
</g>
<!-- Node32&#45;&gt;Node34 -->
<g id="edge39_Node000032_Node000034" class="edge">
<title>Node32&#45;&gt;Node34</title>
<g id="a_edge39_Node000032_Node000034"><a xlink:title=" ">
<path fill="none" stroke="#63b8ff" d="M656.29,-315.92C649.62,-305.76 641.25,-293.01 634.92,-283.36"/>
<polygon fill="#63b8ff" stroke="#63b8ff" points="653.42,-317.93 661.84,-324.37 659.28,-314.09 653.42,-317.93"/>
</a>
</g>
</g>
<!-- Node38&#45;&gt;Node3 -->
<g id="edge47_Node000038_Node000003" class="edge">
<title>Node38&#45;&gt;Node3</title>
<g id="a_edge47_Node000038_Node000003"><a xlink:title=" ">
<path fill="none" stroke="#63b8ff" d="M1612.78,-394C1697.11,-392.86 1829.05,-385.13 1860.5,-349 1933.77,-264.84 1733.12,-178.11 1662.82,-151.07"/>
<polygon fill="#63b8ff" stroke="#63b8ff" points="1612.7,-390.5 1602.74,-394.11 1612.78,-397.5 1612.7,-390.5"/>
</a>
</g>
</g>
<!-- Node39 -->
<g id="Node000039" class="node">
<title>Node39</title>
<g id="a_Node000039"><a xlink:href="_request_parser_8cpp.html" target="_top" xlink:title=" ">
<polygon fill="white" stroke="#666666" points="1678,-343.5 1555,-343.5 1555,-324.5 1678,-324.5 1678,-343.5"/>
<text text-anchor="middle" x="1616.5" y="-331.5" font-family="Helvetica,sans-Serif" font-size="10.00">src/RequestParser.cpp</text>
</a>
</g>
</g>
<!-- Node38&#45;&gt;Node39 -->
<g id="edge48_Node000038_Node000039" class="edge">
<title>Node38&#45;&gt;Node39</title>
<g id="a_edge48_Node000038_Node000039"><a xlink:title=" ">
<path fill="none" stroke="#63b8ff" d="M1559.94,-378.54C1574.29,-367.49 1593.32,-352.84 1605.24,-343.67"/>
<polygon fill="#63b8ff" stroke="#63b8ff" points="1557.5,-375.99 1551.71,-384.87 1561.77,-381.54 1557.5,-375.99"/>
</a>
</g>
</g>
<!-- Node40 -->
<g id="Node000040" class="node">
<title>Node40</title>
<g id="a_Node000040"><a xlink:href="test__parse_body_8cpp.html" target="_top" xlink:title=" ">
<polygon fill="white" stroke="#666666" points="1851,-343.5 1696,-343.5 1696,-324.5 1851,-324.5 1851,-343.5"/>
<text text-anchor="middle" x="1773.5" y="-331.5" font-family="Helvetica,sans-Serif" font-size="10.00">test/unit/test_parseBody.cpp</text>
</a>
</g>
</g>
<!-- Node38&#45;&gt;Node40 -->
<g id="edge49_Node000038_Node000040" class="edge">
<title>Node38&#45;&gt;Node40</title>
<g id="a_edge49_Node000038_Node000040"><a xlink:title=" ">
<path fill="none" stroke="#63b8ff" d="M1584.16,-382.54C1629.2,-371.23 1698.49,-353.83 1739.58,-343.52"/>
<polygon fill="#63b8ff" stroke="#63b8ff" points="1583.23,-379.16 1574.38,-384.99 1584.93,-385.95 1583.23,-379.16"/>
</a>
</g>
</g>
<!-- Node41 -->
<g id="Node000041" class="node">
<title>Node41</title>
<g id="a_Node000041"><a xlink:href="test__parse_header___headers_8cpp.html" target="_top" xlink:title=" ">
<polygon fill="white" stroke="#666666" points="1372.5,-349 1226.5,-349 1226.5,-319 1372.5,-319 1372.5,-349"/>
<text text-anchor="start" x="1234.5" y="-337" font-family="Helvetica,sans-Serif" font-size="10.00">test/unit/test_parseHeader</text>
<text text-anchor="middle" x="1299.5" y="-326" font-family="Helvetica,sans-Serif" font-size="10.00">_Headers.cpp</text>
</a>
</g>
</g>
<!-- Node38&#45;&gt;Node41 -->
<g id="edge50_Node000038_Node000041" class="edge">
<title>Node38&#45;&gt;Node41</title>
<g id="a_edge50_Node000038_Node000041"><a xlink:title=" ">
<path fill="none" stroke="#63b8ff" d="M1495.45,-382.56C1456.45,-373.1 1399.81,-359.35 1357.44,-349.06"/>
<polygon fill="#63b8ff" stroke="#63b8ff" points="1494.91,-386.04 1505.46,-384.99 1496.56,-379.23 1494.91,-386.04"/>
</a>
</g>
</g>
<!-- Node42 -->
<g id="Node000042" class="node">
<title>Node42</title>
<g id="a_Node000042"><a xlink:href="test__parse_header___request_line_8cpp.html" target="_top" xlink:title=" ">
<polygon fill="white" stroke="#666666" points="1536.5,-349 1390.5,-349 1390.5,-319 1536.5,-319 1536.5,-349"/>
<text text-anchor="start" x="1398.5" y="-337" font-family="Helvetica,sans-Serif" font-size="10.00">test/unit/test_parseHeader</text>
<text text-anchor="middle" x="1463.5" y="-326" font-family="Helvetica,sans-Serif" font-size="10.00">_RequestLine.cpp</text>
</a>
</g>
</g>
<!-- Node38&#45;&gt;Node42 -->
<g id="edge51_Node000038_Node000042" class="edge">
<title>Node38&#45;&gt;Node42</title>
<g id="a_edge51_Node000038_Node000042"><a xlink:title=" ">
<path fill="none" stroke="#63b8ff" d="M1521.11,-378.77C1509.15,-369.68 1493.89,-358.09 1482.08,-349.11"/>
<polygon fill="#63b8ff" stroke="#63b8ff" points="1519.06,-381.61 1529.14,-384.87 1523.29,-376.03 1519.06,-381.61"/>
</a>
</g>
</g>
</g>
</svg>

<g id="navigator" transform="translate(0 0)" fill="#404254">
  <rect fill="#f2f5e9" fill-opacity="0.5" stroke="#606060" stroke-width=".5" x="0" y="0" width="60" height="60"/>
  <use id="zoomplus" xlink:href="#zoomPlus" x="17" y="9" onmousedown="handleZoom(evt,'in')"/>
  <use id="zoomminus" xlink:href="#zoomMin" x="42" y="9" onmousedown="handleZoom(evt,'out')"/>
  <use id="reset" xlink:href="#resetDef" x="30" y="36" onmousedown="handleReset()"/>
   <use id="arrowup" xlink:href="#arrowUp" x="0" y="0" onmousedown="handlePan(0,-1)"/>
  <use id="arrowright" xlink:href="#arrowRight" x="0" y="0" onmousedown="handlePan(1,0)"/>
  <use id="arrowdown" xlink:href="#arrowDown" x="0" y="0" onmousedown="handlePan(0,1)"/>
  <use id="arrowleft" xlink:href="#arrowLeft" x="0" y="0" onmousedown="handlePan(-1,0)"/>
</g>
<svg viewBox="0 0 15 15" width="100%" height="30px" preserveAspectRatio="xMaxYMin meet">
 <g id="arrow_out" transform="scale(0.3 0.3)">
  <a xlink:href="_h_t_t_p_request_8hpp__dep__incl_org.svg" target="_base">
   <rect id="button" ry="5" rx="5" y="6" x="6" height="38" width="38"
        fill="#f2f5e9" fill-opacity="0.5" stroke="#606060" stroke-width="1.0"/>
   <path id="arrow"
     d="M 11.500037,31.436501 C 11.940474,20.09759 22.043105,11.32322 32.158766,21.979434 L 37.068811,17.246167 C 37.068811,17.246167 37.088388,32 37.088388,32 L 22.160133,31.978069 C 22.160133,31.978069 26.997745,27.140456 26.997745,27.140456 C 18.528582,18.264221 13.291696,25.230495 11.500037,31.436501 z"
     style="fill:#404040;"/>
  </a>
 </g>
</svg>

<style type='text/css'>
<![CDATA[
[data-mouse-over-selected='false'] { opacity: 0.7; }
[data-mouse-over-selected='true']  { opacity: 1.0; }
]]>
</style>
<script type="application/ecmascript"><![CDATA[
document.addEventListener('DOMContentLoaded', (event) => {
  highlightEdges();
  highlightAdjacentNodes();
});
]]></script>
</svg>
