<?xml version="1.0" encoding="UTF-8" standalone="no"?>
<!DOCTYPE svg PUBLIC "-//W3C//DTD SVG 1.1//EN"
 "http://www.w3.org/Graphics/SVG/1.1/DTD/svg11.dtd">
<!-- Generated by graphviz version 2.43.0 (0)
 -->
<!-- Title: inc/HTTPResponse.hpp Pages: 1 -->
<svg width="309pt" height="140pt"
 viewBox="0.00 0.00 309.00 140.00" xmlns="http://www.w3.org/2000/svg" xmlns:xlink="http://www.w3.org/1999/xlink">
<g id="graph0" class="graph" transform="scale(1 1) rotate(0) translate(4 136)">
<title>inc/HTTPResponse.hpp</title>
<!-- Node1 -->
<g id="node1" class="node">
<title>Node1</title>
<g id="a_node1"><a xlink:title=" ">
<polygon fill="#bfbfbf" stroke="black" points="69.5,-112.5 69.5,-131.5 197.5,-131.5 197.5,-112.5 69.5,-112.5"/>
<text text-anchor="middle" x="133.5" y="-119.5" font-family="Helvetica,sans-Serif" font-size="10.00">inc/HTTPResponse.hpp</text>
</a>
</g>
</g>
<!-- Node2 -->
<g id="node2" class="node">
<title>Node2</title>
<g id="a_node2"><a xlink:href="_status_code_8hpp.html" target="_top" xlink:title=" ">
<polygon fill="none" stroke="black" points="0,-56.5 0,-75.5 93,-75.5 93,-56.5 0,-56.5"/>
<text text-anchor="middle" x="46.5" y="-63.5" font-family="Helvetica,sans-Serif" font-size="10.00">StatusCode.hpp</text>
</a>
</g>
</g>
<!-- Node1&#45;&gt;Node2 -->
<g id="edge1" class="edge">
<title>Node1&#45;&gt;Node2</title>
<path fill="none" stroke="midnightblue" d="M119.52,-112.32C105.95,-103.9 85.12,-90.97 69.18,-81.07"/>
<polygon fill="midnightblue" stroke="midnightblue" points="70.79,-77.95 60.44,-75.65 67.09,-83.9 70.79,-77.95"/>
</g>
<!-- Node3 -->
<g id="node3" class="node">
<title>Node3</title>
<g id="a_node3"><a xlink:title=" ">
<polygon fill="none" stroke="#bfbfbf" points="111.5,-56.5 111.5,-75.5 155.5,-75.5 155.5,-56.5 111.5,-56.5"/>
<text text-anchor="middle" x="133.5" y="-63.5" font-family="Helvetica,sans-Serif" font-size="10.00">string</text>
</a>
</g>
</g>
<!-- Node1&#45;&gt;Node3 -->
<g id="edge2" class="edge">
<title>Node1&#45;&gt;Node3</title>
<path fill="none" stroke="midnightblue" d="M133.5,-112.08C133.5,-105.01 133.5,-94.86 133.5,-85.99"/>
<polygon fill="midnightblue" stroke="midnightblue" points="137,-85.75 133.5,-75.75 130,-85.75 137,-85.75"/>
</g>
<!-- Node4 -->
<g id="node4" class="node">
<title>Node4</title>
<g id="a_node4"><a xlink:href="_config_file_8hpp.html" target="_top" xlink:title=" ">
<polygon fill="none" stroke="black" points="173.5,-56.5 173.5,-75.5 259.5,-75.5 259.5,-56.5 173.5,-56.5"/>
<text text-anchor="middle" x="216.5" y="-63.5" font-family="Helvetica,sans-Serif" font-size="10.00">ConfigFile.hpp</text>
</a>
</g>
</g>
<!-- Node1&#45;&gt;Node4 -->
<g id="edge3" class="edge">
<title>Node1&#45;&gt;Node4</title>
<path fill="none" stroke="midnightblue" d="M146.84,-112.32C159.66,-103.98 179.28,-91.21 194.44,-81.35"/>
<polygon fill="midnightblue" stroke="midnightblue" points="196.72,-84.04 203.2,-75.65 192.91,-78.17 196.72,-84.04"/>
</g>
<!-- Node5 -->
<g id="node5" class="node">
<title>Node5</title>
<g id="a_node5"><a xlink:title=" ">
<polygon fill="none" stroke="#bfbfbf" points="119.5,-0.5 119.5,-19.5 179.5,-19.5 179.5,-0.5 119.5,-0.5"/>
<text text-anchor="middle" x="149.5" y="-7.5" font-family="Helvetica,sans-Serif" font-size="10.00">iostream</text>
</a>
</g>
</g>
<!-- Node4&#45;&gt;Node5 -->
<g id="edge4" class="edge">
<title>Node4&#45;&gt;Node5</title>
<path fill="none" stroke="midnightblue" d="M205.74,-56.32C195.73,-48.26 180.61,-36.08 168.57,-26.37"/>
<polygon fill="midnightblue" stroke="midnightblue" points="170.44,-23.38 160.46,-19.83 166.05,-28.83 170.44,-23.38"/>
</g>
<!-- Node6 -->
<g id="node6" class="node">
<title>Node6</title>
<g id="a_node6"><a xlink:title=" ">
<polygon fill="none" stroke="#bfbfbf" points="197.5,-0.5 197.5,-19.5 235.5,-19.5 235.5,-0.5 197.5,-0.5"/>
<text text-anchor="middle" x="216.5" y="-7.5" font-family="Helvetica,sans-Serif" font-size="10.00">map</text>
</a>
</g>
</g>
<!-- Node4&#45;&gt;Node6 -->
<g id="edge5" class="edge">
<title>Node4&#45;&gt;Node6</title>
<path fill="none" stroke="midnightblue" d="M216.5,-56.08C216.5,-49.01 216.5,-38.86 216.5,-29.99"/>
<polygon fill="midnightblue" stroke="midnightblue" points="220,-29.75 216.5,-19.75 213,-29.75 220,-29.75"/>
</g>
<!-- Node7 -->
<g id="node7" class="node">
<title>Node7</title>
<g id="a_node7"><a xlink:title=" ">
<polygon fill="none" stroke="#bfbfbf" points="254,-0.5 254,-19.5 301,-19.5 301,-0.5 254,-0.5"/>
<text text-anchor="middle" x="277.5" y="-7.5" font-family="Helvetica,sans-Serif" font-size="10.00">vector</text>
</a>
</g>
</g>
<!-- Node4&#45;&gt;Node7 -->
<g id="edge6" class="edge">
<title>Node4&#45;&gt;Node7</title>
<path fill="none" stroke="midnightblue" d="M226.3,-56.32C235.32,-48.34 248.91,-36.31 259.82,-26.65"/>
<polygon fill="midnightblue" stroke="midnightblue" points="262.35,-29.08 267.52,-19.83 257.71,-23.84 262.35,-29.08"/>
</g>
</g>
</svg>
