<?xml version="1.0" encoding="UTF-8" standalone="no"?>
<!DOCTYPE svg PUBLIC "-//W3C//DTD SVG 1.1//EN"
 "http://www.w3.org/Graphics/SVG/1.1/DTD/svg11.dtd">
<!-- Generated by graphviz version 2.43.0 (0)
 -->
<!-- Title: inc/HTTPRequest.hpp Pages: 1 -->
<svg width="3040pt" height="397pt"
 viewBox="0.00 0.00 3039.50 397.00" xmlns="http://www.w3.org/2000/svg" xmlns:xlink="http://www.w3.org/1999/xlink">
<g id="graph0" class="graph" transform="scale(1 1) rotate(0) translate(4 393)">
<title>inc/HTTPRequest.hpp</title>
<!-- Node1 -->
<g id="node1" class="node">
<title>Node1</title>
<g id="a_node1"><a xlink:title=" ">
<polygon fill="#bfbfbf" stroke="black" points="914.5,-369.5 914.5,-388.5 1034.5,-388.5 1034.5,-369.5 914.5,-369.5"/>
<text text-anchor="middle" x="974.5" y="-376.5" font-family="Helvetica,sans-Serif" font-size="10.00">inc/HTTPRequest.hpp</text>
</a>
</g>
</g>
<!-- Node2 -->
<g id="node2" class="node">
<title>Node2</title>
<g id="a_node2"><a xlink:href="_c_g_i_handler_8hpp.html" target="_top" xlink:title=" ">
<polygon fill="none" stroke="black" points="154.5,-252 154.5,-271 264.5,-271 264.5,-252 154.5,-252"/>
<text text-anchor="middle" x="209.5" y="-259" font-family="Helvetica,sans-Serif" font-size="10.00">inc/CGIHandler.hpp</text>
</a>
</g>
</g>
<!-- Node1&#45;&gt;Node2 -->
<g id="edge1" class="edge">
<title>Node1&#45;&gt;Node2</title>
<path fill="none" stroke="midnightblue" d="M904.25,-375.6C806.38,-371.38 623.77,-360.33 470.5,-333 382.71,-317.35 281.46,-286.09 235.09,-271.02"/>
<polygon fill="midnightblue" stroke="midnightblue" points="904.17,-379.1 914.31,-376.02 904.47,-372.11 904.17,-379.1"/>
</g>
<!-- Node22 -->
<g id="node22" class="node">
<title>Node22</title>
<g id="a_node22"><a xlink:href="test___c_g_i_handler_8cpp.html" target="_top" xlink:title=" ">
<polygon fill="none" stroke="black" points="0,-185 0,-204 137,-204 137,-185 0,-185"/>
<text text-anchor="middle" x="68.5" y="-192" font-family="Helvetica,sans-Serif" font-size="10.00">test/test_CGIHandler.cpp</text>
</a>
</g>
</g>
<!-- Node1&#45;&gt;Node22 -->
<g id="edge52" class="edge">
<title>Node1&#45;&gt;Node22</title>
<path fill="none" stroke="midnightblue" d="M904.04,-376.3C792.23,-372.79 567.58,-362.43 379.5,-333 273.85,-316.47 238.07,-330.54 145.5,-277 112.81,-258.09 85.45,-221.04 74.11,-204.2"/>
<polygon fill="midnightblue" stroke="midnightblue" points="904.07,-379.8 914.17,-376.61 904.28,-372.81 904.07,-379.8"/>
</g>
<!-- Node23 -->
<g id="node23" class="node">
<title>Node23</title>
<g id="a_node23"><a xlink:href="_connection_8hpp.html" target="_top" xlink:title=" ">
<polygon fill="none" stroke="black" points="479.5,-313.5 479.5,-332.5 589.5,-332.5 589.5,-313.5 479.5,-313.5"/>
<text text-anchor="middle" x="534.5" y="-320.5" font-family="Helvetica,sans-Serif" font-size="10.00">inc/Connection.hpp</text>
</a>
</g>
</g>
<!-- Node1&#45;&gt;Node23 -->
<g id="edge22" class="edge">
<title>Node1&#45;&gt;Node23</title>
<path fill="none" stroke="midnightblue" d="M904.14,-369.37C816.67,-358.63 669.2,-340.53 589.53,-330.75"/>
<polygon fill="midnightblue" stroke="midnightblue" points="903.89,-372.86 914.24,-370.6 904.74,-365.91 903.89,-372.86"/>
</g>
<!-- Node25 -->
<g id="node25" class="node">
<title>Node25</title>
<g id="a_node25"><a xlink:href="_response_builder_8hpp.html" target="_top" xlink:title=" ">
<polygon fill="none" stroke="black" points="1754.5,-123.5 1754.5,-142.5 1890.5,-142.5 1890.5,-123.5 1754.5,-123.5"/>
<text text-anchor="middle" x="1822.5" y="-130.5" font-family="Helvetica,sans-Serif" font-size="10.00">inc/ResponseBuilder.hpp</text>
</a>
</g>
</g>
<!-- Node1&#45;&gt;Node25 -->
<g id="edge48" class="edge">
<title>Node1&#45;&gt;Node25</title>
<path fill="none" stroke="midnightblue" d="M1044.6,-378.9C1218.79,-379.64 1664.87,-372.01 1771.5,-277 1812.83,-240.18 1820.67,-167.54 1822.15,-142.63"/>
<polygon fill="midnightblue" stroke="midnightblue" points="1044.54,-375.4 1034.52,-378.84 1044.5,-382.4 1044.54,-375.4"/>
</g>
<!-- Node28 -->
<g id="node28" class="node">
<title>Node28</title>
<g id="a_node28"><a xlink:href="test___response_body_handler_8cpp.html" target="_top" xlink:title=" ">
<polygon fill="none" stroke="black" points="1057.5,-123.5 1057.5,-142.5 1249.5,-142.5 1249.5,-123.5 1057.5,-123.5"/>
<text text-anchor="middle" x="1153.5" y="-130.5" font-family="Helvetica,sans-Serif" font-size="10.00">test/test_ResponseBodyHandler.cpp</text>
</a>
</g>
</g>
<!-- Node1&#45;&gt;Node28 -->
<g id="edge54" class="edge">
<title>Node1&#45;&gt;Node28</title>
<path fill="none" stroke="midnightblue" d="M1010.76,-365.88C1048.61,-351.19 1106.42,-322.58 1135.5,-277 1163.49,-233.12 1157.88,-166.14 1154.79,-142.57"/>
<polygon fill="midnightblue" stroke="midnightblue" points="1009.26,-362.7 1001.12,-369.49 1011.71,-369.26 1009.26,-362.7"/>
</g>
<!-- Node29 -->
<g id="node29" class="node">
<title>Node29</title>
<g id="a_node29"><a xlink:href="_target_resource_handler_8hpp.html" target="_top" xlink:title=" ">
<polygon fill="none" stroke="black" points="562,-252 562,-271 729,-271 729,-252 562,-252"/>
<text text-anchor="middle" x="645.5" y="-259" font-family="Helvetica,sans-Serif" font-size="10.00">inc/TargetResourceHandler.hpp</text>
</a>
</g>
</g>
<!-- Node1&#45;&gt;Node29 -->
<g id="edge49" class="edge">
<title>Node1&#45;&gt;Node29</title>
<path fill="none" stroke="midnightblue" d="M940.45,-366.05C873.94,-342.7 728.22,-291.54 670.12,-271.14"/>
<polygon fill="midnightblue" stroke="midnightblue" points="939.45,-369.4 950.04,-369.41 941.76,-362.8 939.45,-369.4"/>
</g>
<!-- Node33 -->
<g id="node33" class="node">
<title>Node33</title>
<g id="a_node33"><a xlink:href="_log_ostream_inserters_8cpp.html" target="_top" xlink:title=" ">
<polygon fill="none" stroke="black" points="784.5,-252 784.5,-271 940.5,-271 940.5,-252 784.5,-252"/>
<text text-anchor="middle" x="862.5" y="-259" font-family="Helvetica,sans-Serif" font-size="10.00">src/LogOstreamInserters.cpp</text>
</a>
</g>
</g>
<!-- Node1&#45;&gt;Node33 -->
<g id="edge51" class="edge">
<title>Node1&#45;&gt;Node33</title>
<path fill="none" stroke="midnightblue" d="M958.81,-361.82C934.8,-337.06 889.76,-290.61 871.02,-271.28"/>
<polygon fill="midnightblue" stroke="midnightblue" points="956.61,-364.58 966.08,-369.32 961.63,-359.7 956.61,-364.58"/>
</g>
<!-- Node34 -->
<g id="node34" class="node">
<title>Node34</title>
<g id="a_node34"><a xlink:href="test___ostream_inserters_8cpp.html" target="_top" xlink:title=" ">
<polygon fill="none" stroke="black" points="959,-252 959,-271 1126,-271 1126,-252 959,-252"/>
<text text-anchor="middle" x="1042.5" y="-259" font-family="Helvetica,sans-Serif" font-size="10.00">test/test_OstreamInserters.cpp</text>
</a>
</g>
</g>
<!-- Node1&#45;&gt;Node34 -->
<g id="edge53" class="edge">
<title>Node1&#45;&gt;Node34</title>
<path fill="none" stroke="midnightblue" d="M984.8,-360.51C999.55,-335.46 1026.15,-290.27 1037.33,-271.28"/>
<polygon fill="midnightblue" stroke="midnightblue" points="981.67,-358.93 979.61,-369.32 987.7,-362.48 981.67,-358.93"/>
</g>
<!-- Node35 -->
<g id="node35" class="node">
<title>Node35</title>
<g id="a_node35"><a xlink:href="_request_parser_8hpp.html" target="_top" xlink:title=" ">
<polygon fill="none" stroke="black" points="1396.5,-313.5 1396.5,-332.5 1520.5,-332.5 1520.5,-313.5 1396.5,-313.5"/>
<text text-anchor="middle" x="1458.5" y="-320.5" font-family="Helvetica,sans-Serif" font-size="10.00">inc/RequestParser.hpp</text>
</a>
</g>
</g>
<!-- Node1&#45;&gt;Node35 -->
<g id="edge42" class="edge">
<title>Node1&#45;&gt;Node35</title>
<path fill="none" stroke="midnightblue" d="M1044.86,-370.15C1139.43,-359.6 1306.06,-341.01 1396.27,-330.94"/>
<polygon fill="midnightblue" stroke="midnightblue" points="1044.37,-366.68 1034.82,-371.27 1045.15,-373.64 1044.37,-366.68"/>
</g>
<!-- Node40 -->
<g id="node40" class="node">
<title>Node40</title>
<g id="a_node40"><a xlink:href="_h_t_t_p_request_8cpp.html" target="_top" xlink:title=" ">
<polygon fill="none" stroke="black" points="1837,-313.5 1837,-332.5 1956,-332.5 1956,-313.5 1837,-313.5"/>
<text text-anchor="middle" x="1896.5" y="-320.5" font-family="Helvetica,sans-Serif" font-size="10.00">src/HTTPRequest.cpp</text>
</a>
</g>
</g>
<!-- Node1&#45;&gt;Node40 -->
<g id="edge50" class="edge">
<title>Node1&#45;&gt;Node40</title>
<path fill="none" stroke="midnightblue" d="M1044.87,-375.88C1190.32,-371.16 1534.57,-358.12 1822.5,-333 1827.14,-332.6 1831.94,-332.13 1836.76,-331.62"/>
<polygon fill="midnightblue" stroke="midnightblue" points="1044.63,-372.39 1034.75,-376.21 1044.85,-379.39 1044.63,-372.39"/>
</g>
<!-- Node3 -->
<g id="node3" class="node">
<title>Node3</title>
<g id="a_node3"><a xlink:href="_server_8hpp.html" target="_top" xlink:title=" ">
<polygon fill="none" stroke="black" points="1567.5,-67.5 1567.5,-86.5 1653.5,-86.5 1653.5,-67.5 1567.5,-67.5"/>
<text text-anchor="middle" x="1610.5" y="-74.5" font-family="Helvetica,sans-Serif" font-size="10.00">inc/Server.hpp</text>
</a>
</g>
</g>
<!-- Node2&#45;&gt;Node3 -->
<g id="edge2" class="edge">
<title>Node2&#45;&gt;Node3</title>
<path fill="none" stroke="midnightblue" d="M230.2,-246.12C274.2,-216.49 381.3,-149.19 482.5,-123 588.81,-95.49 1373.56,-81.66 1567.34,-78.64"/>
<polygon fill="midnightblue" stroke="midnightblue" points="228.09,-243.33 221.79,-251.85 232.03,-249.11 228.09,-243.33"/>
</g>
<!-- Node21 -->
<g id="node21" class="node">
<title>Node21</title>
<g id="a_node21"><a xlink:href="_c_g_i_handler_8cpp.html" target="_top" xlink:title=" ">
<polygon fill="none" stroke="black" points="155,-185 155,-204 264,-204 264,-185 155,-185"/>
<text text-anchor="middle" x="209.5" y="-192" font-family="Helvetica,sans-Serif" font-size="10.00">src/CGIHandler.cpp</text>
</a>
</g>
</g>
<!-- Node2&#45;&gt;Node21 -->
<g id="edge20" class="edge">
<title>Node2&#45;&gt;Node21</title>
<path fill="none" stroke="midnightblue" d="M209.5,-241.54C209.5,-229.17 209.5,-213.62 209.5,-204.13"/>
<polygon fill="midnightblue" stroke="midnightblue" points="206,-241.73 209.5,-251.73 213,-241.73 206,-241.73"/>
</g>
<!-- Node2&#45;&gt;Node22 -->
<g id="edge21" class="edge">
<title>Node2&#45;&gt;Node22</title>
<path fill="none" stroke="midnightblue" d="M181.54,-247.61C153.62,-234.74 111.46,-215.31 87.3,-204.17"/>
<polygon fill="midnightblue" stroke="midnightblue" points="180.23,-250.86 190.78,-251.87 183.16,-244.5 180.23,-250.86"/>
</g>
<!-- Node4 -->
<g id="node4" class="node">
<title>Node4</title>
<g id="a_node4"><a xlink:href="main_8cpp.html" target="_top" xlink:title=" ">
<polygon fill="none" stroke="black" points="2140,-6 2140,-25 2219,-25 2219,-6 2140,-6"/>
<text text-anchor="middle" x="2179.5" y="-13" font-family="Helvetica,sans-Serif" font-size="10.00">src/main.cpp</text>
</a>
</g>
</g>
<!-- Node3&#45;&gt;Node4 -->
<g id="edge3" class="edge">
<title>Node3&#45;&gt;Node4</title>
<path fill="none" stroke="midnightblue" d="M1663.68,-72.04C1787.2,-62.74 2086.41,-39.66 2131.5,-31 2139.19,-29.52 2147.41,-27.29 2154.83,-25.02"/>
<polygon fill="midnightblue" stroke="midnightblue" points="1663.4,-68.55 1653.69,-72.79 1663.93,-75.53 1663.4,-68.55"/>
</g>
<!-- Node5 -->
<g id="node5" class="node">
<title>Node5</title>
<g id="a_node5"><a xlink:href="_server_8cpp.html" target="_top" xlink:title=" ">
<polygon fill="none" stroke="black" points="2237,-6 2237,-25 2322,-25 2322,-6 2237,-6"/>
<text text-anchor="middle" x="2279.5" y="-13" font-family="Helvetica,sans-Serif" font-size="10.00">src/Server.cpp</text>
</a>
</g>
</g>
<!-- Node3&#45;&gt;Node5 -->
<g id="edge4" class="edge">
<title>Node3&#45;&gt;Node5</title>
<path fill="none" stroke="midnightblue" d="M1663.59,-72.43C1808.33,-62.66 2200.89,-35.88 2228.5,-31 2236.66,-29.56 2245.38,-27.34 2253.27,-25.07"/>
<polygon fill="midnightblue" stroke="midnightblue" points="1663.35,-68.94 1653.61,-73.1 1663.82,-75.92 1663.35,-68.94"/>
</g>
<!-- Node6 -->
<g id="node6" class="node">
<title>Node6</title>
<g id="a_node6"><a xlink:href="test__accept_connections_8cpp.html" target="_top" xlink:title=" ">
<polygon fill="none" stroke="black" points="2340,-6 2340,-25 2515,-25 2515,-6 2340,-6"/>
<text text-anchor="middle" x="2427.5" y="-13" font-family="Helvetica,sans-Serif" font-size="10.00">test/test_acceptConnections.cpp</text>
</a>
</g>
</g>
<!-- Node3&#45;&gt;Node6 -->
<g id="edge5" class="edge">
<title>Node3&#45;&gt;Node6</title>
<path fill="none" stroke="midnightblue" d="M1663.73,-72.42C1688.84,-70.75 1719.21,-68.74 1746.5,-67 2006.46,-50.4 2072.46,-58.48 2331.5,-31 2346.25,-29.44 2362.2,-27.23 2376.79,-25.02"/>
<polygon fill="midnightblue" stroke="midnightblue" points="1663.42,-68.93 1653.68,-73.09 1663.89,-75.92 1663.42,-68.93"/>
</g>
<!-- Node7 -->
<g id="node7" class="node">
<title>Node7</title>
<g id="a_node7"><a xlink:href="test__check_for_timeout_8cpp.html" target="_top" xlink:title=" ">
<polygon fill="none" stroke="black" points="2533,-6 2533,-25 2700,-25 2700,-6 2533,-6"/>
<text text-anchor="middle" x="2616.5" y="-13" font-family="Helvetica,sans-Serif" font-size="10.00">test/test_checkForTimeout.cpp</text>
</a>
</g>
</g>
<!-- Node3&#45;&gt;Node7 -->
<g id="edge6" class="edge">
<title>Node3&#45;&gt;Node7</title>
<path fill="none" stroke="midnightblue" d="M1663.72,-72.23C1688.82,-70.52 1719.19,-68.54 1746.5,-67 2092.1,-47.57 2180.13,-66 2524.5,-31 2538.98,-29.53 2554.65,-27.3 2568.88,-25.03"/>
<polygon fill="midnightblue" stroke="midnightblue" points="1663.4,-68.75 1653.67,-72.92 1663.88,-75.73 1663.4,-68.75"/>
</g>
<!-- Node8 -->
<g id="node8" class="node">
<title>Node8</title>
<g id="a_node8"><a xlink:href="test__connection_receive_from_c_g_i_8cpp.html" target="_top" xlink:title=" ">
<polygon fill="none" stroke="black" points="215,-0.5 215,-30.5 370,-30.5 370,-0.5 215,-0.5"/>
<text text-anchor="start" x="223" y="-18.5" font-family="Helvetica,sans-Serif" font-size="10.00">test/test_connectionReceive</text>
<text text-anchor="middle" x="292.5" y="-7.5" font-family="Helvetica,sans-Serif" font-size="10.00">FromCGI.cpp</text>
</a>
</g>
</g>
<!-- Node3&#45;&gt;Node8 -->
<g id="edge7" class="edge">
<title>Node3&#45;&gt;Node8</title>
<path fill="none" stroke="midnightblue" d="M1557.28,-76.49C1385.96,-77.56 833.53,-76.94 379.5,-31 376.45,-30.69 373.35,-30.34 370.22,-29.96"/>
<polygon fill="midnightblue" stroke="midnightblue" points="1557.32,-79.99 1567.3,-76.43 1557.27,-72.99 1557.32,-79.99"/>
</g>
<!-- Node9 -->
<g id="node9" class="node">
<title>Node9</title>
<g id="a_node9"><a xlink:href="test__connection_receive_header_8cpp.html" target="_top" xlink:title=" ">
<polygon fill="none" stroke="black" points="2718,-0.5 2718,-30.5 2873,-30.5 2873,-0.5 2718,-0.5"/>
<text text-anchor="start" x="2726" y="-18.5" font-family="Helvetica,sans-Serif" font-size="10.00">test/test_connectionReceive</text>
<text text-anchor="middle" x="2795.5" y="-7.5" font-family="Helvetica,sans-Serif" font-size="10.00">Header.cpp</text>
</a>
</g>
</g>
<!-- Node3&#45;&gt;Node9 -->
<g id="edge8" class="edge">
<title>Node3&#45;&gt;Node9</title>
<path fill="none" stroke="midnightblue" d="M1663.72,-72.12C1688.82,-70.39 1719.19,-68.41 1746.5,-67 2174.23,-44.86 2283.44,-74.7 2709.5,-31 2712.21,-30.72 2714.97,-30.41 2717.75,-30.07"/>
<polygon fill="midnightblue" stroke="midnightblue" points="1663.39,-68.64 1653.66,-72.83 1663.88,-75.62 1663.39,-68.64"/>
</g>
<!-- Node10 -->
<g id="node10" class="node">
<title>Node10</title>
<g id="a_node10"><a xlink:href="test__connection_send_response_8cpp.html" target="_top" xlink:title=" ">
<polygon fill="none" stroke="black" points="2891.5,-0.5 2891.5,-30.5 3031.5,-30.5 3031.5,-0.5 2891.5,-0.5"/>
<text text-anchor="start" x="2899.5" y="-18.5" font-family="Helvetica,sans-Serif" font-size="10.00">test/test_connectionSend</text>
<text text-anchor="middle" x="2961.5" y="-7.5" font-family="Helvetica,sans-Serif" font-size="10.00">Response.cpp</text>
</a>
</g>
</g>
<!-- Node3&#45;&gt;Node10 -->
<g id="edge9" class="edge">
<title>Node3&#45;&gt;Node10</title>
<path fill="none" stroke="midnightblue" d="M1663.71,-72.05C1688.81,-70.3 1719.18,-68.34 1746.5,-67 2251.04,-42.32 2380.23,-84.75 2882.5,-31 2885.41,-30.69 2888.38,-30.33 2891.37,-29.94"/>
<polygon fill="midnightblue" stroke="midnightblue" points="1663.39,-68.57 1653.66,-72.76 1663.88,-75.55 1663.39,-68.57"/>
</g>
<!-- Node11 -->
<g id="node11" class="node">
<title>Node11</title>
<g id="a_node11"><a xlink:href="test__connection_send_to_c_g_i_8cpp.html" target="_top" xlink:title=" ">
<polygon fill="none" stroke="black" points="388.5,-0.5 388.5,-30.5 528.5,-30.5 528.5,-0.5 388.5,-0.5"/>
<text text-anchor="start" x="396.5" y="-18.5" font-family="Helvetica,sans-Serif" font-size="10.00">test/test_connectionSend</text>
<text text-anchor="middle" x="458.5" y="-7.5" font-family="Helvetica,sans-Serif" font-size="10.00">ToCGI.cpp</text>
</a>
</g>
</g>
<!-- Node3&#45;&gt;Node11 -->
<g id="edge10" class="edge">
<title>Node3&#45;&gt;Node11</title>
<path fill="none" stroke="midnightblue" d="M1557.09,-76.39C1400.14,-76.97 926.92,-74.69 537.5,-31 534.59,-30.67 531.63,-30.3 528.64,-29.9"/>
<polygon fill="midnightblue" stroke="midnightblue" points="1557.42,-79.89 1567.4,-76.35 1557.39,-72.89 1557.42,-79.89"/>
</g>
<!-- Node12 -->
<g id="node12" class="node">
<title>Node12</title>
<g id="a_node12"><a xlink:href="test__create_virtual_server_8cpp.html" target="_top" xlink:title=" ">
<polygon fill="none" stroke="black" points="546.5,-6 546.5,-25 722.5,-25 722.5,-6 546.5,-6"/>
<text text-anchor="middle" x="634.5" y="-13" font-family="Helvetica,sans-Serif" font-size="10.00">test/test_createVirtualServer.cpp</text>
</a>
</g>
</g>
<!-- Node3&#45;&gt;Node12 -->
<g id="edge11" class="edge">
<title>Node3&#45;&gt;Node12</title>
<path fill="none" stroke="midnightblue" d="M1557.23,-75.04C1420.14,-72.2 1044.09,-61.97 732.5,-31 717.27,-29.49 700.78,-27.27 685.76,-25.03"/>
<polygon fill="midnightblue" stroke="midnightblue" points="1557.38,-78.55 1567.45,-75.25 1557.52,-71.55 1557.38,-78.55"/>
</g>
<!-- Node13 -->
<g id="node13" class="node">
<title>Node13</title>
<g id="a_node13"><a xlink:href="test__handle_complete_request_header_8cpp.html" target="_top" xlink:title=" ">
<polygon fill="none" stroke="black" points="741,-0.5 741,-30.5 884,-30.5 884,-0.5 741,-0.5"/>
<text text-anchor="start" x="749" y="-18.5" font-family="Helvetica,sans-Serif" font-size="10.00">test/test_handleComplete</text>
<text text-anchor="middle" x="812.5" y="-7.5" font-family="Helvetica,sans-Serif" font-size="10.00">RequestHeader.cpp</text>
</a>
</g>
</g>
<!-- Node3&#45;&gt;Node13 -->
<g id="edge12" class="edge">
<title>Node3&#45;&gt;Node13</title>
<path fill="none" stroke="midnightblue" d="M1556.77,-74.73C1437.2,-71.44 1140.21,-60.73 893.5,-31 890.52,-30.64 887.49,-30.24 884.42,-29.82"/>
<polygon fill="midnightblue" stroke="midnightblue" points="1557.01,-78.24 1567.1,-75.01 1557.2,-71.24 1557.01,-78.24"/>
</g>
<!-- Node14 -->
<g id="node14" class="node">
<title>Node14</title>
<g id="a_node14"><a xlink:href="test__init_virtual_servers_8cpp.html" target="_top" xlink:title=" ">
<polygon fill="none" stroke="black" points="902,-6 902,-25 1069,-25 1069,-6 902,-6"/>
<text text-anchor="middle" x="985.5" y="-13" font-family="Helvetica,sans-Serif" font-size="10.00">test/test_initVirtualServers.cpp</text>
</a>
</g>
</g>
<!-- Node3&#45;&gt;Node14 -->
<g id="edge13" class="edge">
<title>Node3&#45;&gt;Node14</title>
<path fill="none" stroke="midnightblue" d="M1557.16,-72.77C1461.05,-66.68 1252.51,-52.15 1077.5,-31 1063.86,-29.35 1049.13,-27.2 1035.54,-25.06"/>
<polygon fill="midnightblue" stroke="midnightblue" points="1557.01,-76.27 1567.21,-73.41 1557.45,-69.29 1557.01,-76.27"/>
</g>
<!-- Node15 -->
<g id="node15" class="node">
<title>Node15</title>
<g id="a_node15"><a xlink:href="test__is_duplicate_server_8cpp.html" target="_top" xlink:title=" ">
<polygon fill="none" stroke="black" points="1086.5,-6 1086.5,-25 1254.5,-25 1254.5,-6 1086.5,-6"/>
<text text-anchor="middle" x="1170.5" y="-13" font-family="Helvetica,sans-Serif" font-size="10.00">test/test_isDuplicateServer.cpp</text>
</a>
</g>
</g>
<!-- Node3&#45;&gt;Node15 -->
<g id="edge14" class="edge">
<title>Node3&#45;&gt;Node15</title>
<path fill="none" stroke="midnightblue" d="M1557.39,-69.54C1489.25,-61.16 1367.46,-45.84 1263.5,-31 1250.56,-29.15 1236.62,-27.04 1223.58,-25.02"/>
<polygon fill="midnightblue" stroke="midnightblue" points="1557.09,-73.03 1567.44,-70.78 1557.95,-66.08 1557.09,-73.03"/>
</g>
<!-- Node16 -->
<g id="node16" class="node">
<title>Node16</title>
<g id="a_node16"><a xlink:href="test__register_c_g_i_file_descriptor_8cpp.html" target="_top" xlink:title=" ">
<polygon fill="none" stroke="black" points="1272.5,-0.5 1272.5,-30.5 1406.5,-30.5 1406.5,-0.5 1272.5,-0.5"/>
<text text-anchor="start" x="1280.5" y="-18.5" font-family="Helvetica,sans-Serif" font-size="10.00">test/test_registerCGIFile</text>
<text text-anchor="middle" x="1339.5" y="-7.5" font-family="Helvetica,sans-Serif" font-size="10.00">Descriptor.cpp</text>
</a>
</g>
</g>
<!-- Node3&#45;&gt;Node16 -->
<g id="edge15" class="edge">
<title>Node3&#45;&gt;Node16</title>
<path fill="none" stroke="midnightblue" d="M1561.73,-65.29C1517.44,-55.57 1451.83,-41.16 1403.37,-30.52"/>
<polygon fill="midnightblue" stroke="midnightblue" points="1561.15,-68.75 1571.67,-67.48 1562.66,-61.91 1561.15,-68.75"/>
</g>
<!-- Node17 -->
<g id="node17" class="node">
<title>Node17</title>
<g id="a_node17"><a xlink:href="test__register_connection_8cpp.html" target="_top" xlink:title=" ">
<polygon fill="none" stroke="black" points="1425,-6 1425,-25 1600,-25 1600,-6 1425,-6"/>
<text text-anchor="middle" x="1512.5" y="-13" font-family="Helvetica,sans-Serif" font-size="10.00">test/test_registerConnection.cpp</text>
</a>
</g>
</g>
<!-- Node3&#45;&gt;Node17 -->
<g id="edge16" class="edge">
<title>Node3&#45;&gt;Node17</title>
<path fill="none" stroke="midnightblue" d="M1587.84,-62.24C1568.91,-50.75 1542.51,-34.72 1526.51,-25.01"/>
<polygon fill="midnightblue" stroke="midnightblue" points="1586.09,-65.28 1596.46,-67.48 1589.73,-59.29 1586.09,-65.28"/>
</g>
<!-- Node18 -->
<g id="node18" class="node">
<title>Node18</title>
<g id="a_node18"><a xlink:href="test__register_virtual_server_8cpp.html" target="_top" xlink:title=" ">
<polygon fill="none" stroke="black" points="1618.5,-0.5 1618.5,-30.5 1750.5,-30.5 1750.5,-0.5 1618.5,-0.5"/>
<text text-anchor="start" x="1626.5" y="-18.5" font-family="Helvetica,sans-Serif" font-size="10.00">test/test_registerVirtual</text>
<text text-anchor="middle" x="1684.5" y="-7.5" font-family="Helvetica,sans-Serif" font-size="10.00">Server.cpp</text>
</a>
</g>
</g>
<!-- Node3&#45;&gt;Node18 -->
<g id="edge17" class="edge">
<title>Node3&#45;&gt;Node18</title>
<path fill="none" stroke="midnightblue" d="M1628.91,-61.2C1640.58,-51.81 1655.58,-39.75 1667.06,-30.52"/>
<polygon fill="midnightblue" stroke="midnightblue" points="1626.7,-58.48 1621.1,-67.48 1631.09,-63.94 1626.7,-58.48"/>
</g>
<!-- Node19 -->
<g id="node19" class="node">
<title>Node19</title>
<g id="a_node19"><a xlink:href="test__select_server_config_8cpp.html" target="_top" xlink:title=" ">
<polygon fill="none" stroke="black" points="1768.5,-6 1768.5,-25 1942.5,-25 1942.5,-6 1768.5,-6"/>
<text text-anchor="middle" x="1855.5" y="-13" font-family="Helvetica,sans-Serif" font-size="10.00">test/test_selectServerConfig.cpp</text>
</a>
</g>
</g>
<!-- Node3&#45;&gt;Node19 -->
<g id="edge18" class="edge">
<title>Node3&#45;&gt;Node19</title>
<path fill="none" stroke="midnightblue" d="M1655.33,-65.11C1702.88,-53.57 1777.01,-35.56 1820.46,-25.01"/>
<polygon fill="midnightblue" stroke="midnightblue" points="1654.49,-61.71 1645.6,-67.48 1656.15,-68.52 1654.49,-61.71"/>
</g>
<!-- Node20 -->
<g id="node20" class="node">
<title>Node20</title>
<g id="a_node20"><a xlink:href="test__shutdown_server_8cpp.html" target="_top" xlink:title=" ">
<polygon fill="none" stroke="black" points="1961,-6 1961,-25 2122,-25 2122,-6 1961,-6"/>
<text text-anchor="middle" x="2041.5" y="-13" font-family="Helvetica,sans-Serif" font-size="10.00">test/test_shutdownServer.cpp</text>
</a>
</g>
</g>
<!-- Node3&#45;&gt;Node20 -->
<g id="edge19" class="edge">
<title>Node3&#45;&gt;Node20</title>
<path fill="none" stroke="midnightblue" d="M1663.95,-69.43C1731.14,-61.05 1849.99,-45.87 1951.5,-31 1964.03,-29.16 1977.51,-27.06 1990.14,-25.03"/>
<polygon fill="midnightblue" stroke="midnightblue" points="1663.11,-66 1653.62,-70.71 1663.97,-72.95 1663.11,-66"/>
</g>
<!-- Node23&#45;&gt;Node2 -->
<g id="edge23" class="edge">
<title>Node23&#45;&gt;Node2</title>
<path fill="none" stroke="midnightblue" d="M472.87,-311.76C420.95,-302.98 344.76,-289.78 278.5,-277 268.88,-275.15 258.54,-273.03 248.86,-271.01"/>
<polygon fill="midnightblue" stroke="midnightblue" points="472.48,-315.24 482.92,-313.45 473.64,-308.34 472.48,-315.24"/>
</g>
<!-- Node23&#45;&gt;Node3 -->
<g id="edge30" class="edge">
<title>Node23&#45;&gt;Node3</title>
<path fill="none" stroke="midnightblue" d="M524.88,-304.36C510.29,-274.93 487.18,-215.45 516.5,-179 583.51,-95.67 1372.59,-80.83 1567.28,-78.43"/>
<polygon fill="midnightblue" stroke="midnightblue" points="521.88,-306.17 529.59,-313.43 528.09,-302.94 521.88,-306.17"/>
</g>
<!-- Node23&#45;&gt;Node8 -->
<g id="edge38" class="edge">
<title>Node23&#45;&gt;Node8</title>
<path fill="none" stroke="midnightblue" d="M469.37,-312.5C407.7,-302.93 322.88,-288.04 311.5,-277 284.81,-251.1 292.5,-232.69 292.5,-195.5 292.5,-195.5 292.5,-195.5 292.5,-132 292.5,-95.51 292.5,-52.52 292.5,-30.72"/>
<polygon fill="midnightblue" stroke="midnightblue" points="469.02,-315.99 479.44,-314.05 470.09,-309.07 469.02,-315.99"/>
</g>
<!-- Node23&#45;&gt;Node11 -->
<g id="edge39" class="edge">
<title>Node23&#45;&gt;Node11</title>
<path fill="none" stroke="midnightblue" d="M517.3,-306.3C494.88,-284.02 458.5,-240.88 458.5,-195.5 458.5,-195.5 458.5,-195.5 458.5,-132 458.5,-95.51 458.5,-52.52 458.5,-30.72"/>
<polygon fill="midnightblue" stroke="midnightblue" points="514.93,-308.87 524.56,-313.27 519.78,-303.82 514.93,-308.87"/>
</g>
<!-- Node24 -->
<g id="node24" class="node">
<title>Node24</title>
<g id="a_node24"><a xlink:href="_response_body_handler_8hpp.html" target="_top" xlink:title=" ">
<polygon fill="none" stroke="black" points="903.5,-185 903.5,-204 1067.5,-204 1067.5,-185 903.5,-185"/>
<text text-anchor="middle" x="985.5" y="-192" font-family="Helvetica,sans-Serif" font-size="10.00">inc/ResponseBodyHandler.hpp</text>
</a>
</g>
</g>
<!-- Node23&#45;&gt;Node24 -->
<g id="edge24" class="edge">
<title>Node23&#45;&gt;Node24</title>
<path fill="none" stroke="midnightblue" d="M599.66,-315.69C641.08,-309.77 694.91,-298.45 738.5,-277 757.75,-267.53 756.34,-255.65 775.5,-246 803.88,-231.7 886.74,-214.2 939.5,-204"/>
<polygon fill="midnightblue" stroke="midnightblue" points="599.12,-312.23 589.69,-317.05 600.07,-319.17 599.12,-312.23"/>
</g>
<!-- Node23&#45;&gt;Node29 -->
<g id="edge31" class="edge">
<title>Node23&#45;&gt;Node29</title>
<path fill="none" stroke="midnightblue" d="M559.29,-308.71C580.79,-297.19 611.26,-280.86 629.63,-271.01"/>
<polygon fill="midnightblue" stroke="midnightblue" points="557.56,-305.67 550.4,-313.48 560.87,-311.84 557.56,-305.67"/>
</g>
<!-- Node31 -->
<g id="node31" class="node">
<title>Node31</title>
<g id="a_node31"><a xlink:href="test___target_resource_handler_8cpp.html" target="_top" xlink:title=" ">
<polygon fill="none" stroke="black" points="525,-179.5 525,-209.5 662,-209.5 662,-179.5 525,-179.5"/>
<text text-anchor="start" x="533" y="-197.5" font-family="Helvetica,sans-Serif" font-size="10.00">test/test_TargetResource</text>
<text text-anchor="middle" x="593.5" y="-186.5" font-family="Helvetica,sans-Serif" font-size="10.00">Handler.cpp</text>
</a>
</g>
</g>
<!-- Node23&#45;&gt;Node31 -->
<g id="edge41" class="edge">
<title>Node23&#45;&gt;Node31</title>
<path fill="none" stroke="midnightblue" d="M536.96,-303.01C539.54,-287.15 544.51,-264.26 553.5,-246 560.12,-232.55 570.77,-219.35 579.42,-209.81"/>
<polygon fill="midnightblue" stroke="midnightblue" points="533.46,-302.75 535.48,-313.15 540.39,-303.76 533.46,-302.75"/>
</g>
<!-- Node32 -->
<g id="node32" class="node">
<title>Node32</title>
<g id="a_node32"><a xlink:href="_connection_8cpp.html" target="_top" xlink:title=" ">
<polygon fill="none" stroke="black" points="321,-252 321,-271 430,-271 430,-252 321,-252"/>
<text text-anchor="middle" x="375.5" y="-259" font-family="Helvetica,sans-Serif" font-size="10.00">src/Connection.cpp</text>
</a>
</g>
</g>
<!-- Node23&#45;&gt;Node32 -->
<g id="edge36" class="edge">
<title>Node23&#45;&gt;Node32</title>
<path fill="none" stroke="midnightblue" d="M502.25,-309.93C471.35,-298.37 425.49,-281.21 398.24,-271.01"/>
<polygon fill="midnightblue" stroke="midnightblue" points="501.13,-313.25 511.72,-313.48 503.58,-306.69 501.13,-313.25"/>
</g>
<!-- Node23&#45;&gt;Node33 -->
<g id="edge37" class="edge">
<title>Node23&#45;&gt;Node33</title>
<path fill="none" stroke="midnightblue" d="M591.35,-311.69C654.84,-300.17 756.45,-281.74 815.59,-271.01"/>
<polygon fill="midnightblue" stroke="midnightblue" points="590.71,-308.25 581.49,-313.48 591.96,-315.13 590.71,-308.25"/>
</g>
<!-- Node23&#45;&gt;Node34 -->
<g id="edge40" class="edge">
<title>Node23&#45;&gt;Node34</title>
<path fill="none" stroke="midnightblue" d="M599.8,-315.87C681.64,-307.97 826.17,-293.29 949.5,-277 962.78,-275.25 977.1,-273.13 990.42,-271.06"/>
<polygon fill="midnightblue" stroke="midnightblue" points="599.26,-312.41 589.64,-316.85 599.93,-319.37 599.26,-312.41"/>
</g>
<!-- Node24&#45;&gt;Node25 -->
<g id="edge25" class="edge">
<title>Node24&#45;&gt;Node25</title>
<path fill="none" stroke="midnightblue" d="M1077.82,-186.94C1247.42,-174.88 1604.9,-149.47 1754.45,-138.84"/>
<polygon fill="midnightblue" stroke="midnightblue" points="1077.39,-183.46 1067.66,-187.66 1077.88,-190.44 1077.39,-183.46"/>
</g>
<!-- Node27 -->
<g id="node27" class="node">
<title>Node27</title>
<g id="a_node27"><a xlink:href="_response_body_handler_8cpp.html" target="_top" xlink:title=" ">
<polygon fill="none" stroke="black" points="875.5,-123.5 875.5,-142.5 1039.5,-142.5 1039.5,-123.5 875.5,-123.5"/>
<text text-anchor="middle" x="957.5" y="-130.5" font-family="Helvetica,sans-Serif" font-size="10.00">src/ResponseBodyHandler.cpp</text>
</a>
</g>
</g>
<!-- Node24&#45;&gt;Node27 -->
<g id="edge28" class="edge">
<title>Node24&#45;&gt;Node27</title>
<path fill="none" stroke="midnightblue" d="M977.19,-175.83C972.01,-164.83 965.58,-151.16 961.5,-142.51"/>
<polygon fill="midnightblue" stroke="midnightblue" points="974.06,-177.42 981.49,-184.98 980.4,-174.44 974.06,-177.42"/>
</g>
<!-- Node24&#45;&gt;Node28 -->
<g id="edge29" class="edge">
<title>Node24&#45;&gt;Node28</title>
<path fill="none" stroke="midnightblue" d="M1019.15,-181.58C1051.8,-170.02 1100.55,-152.75 1129.47,-142.51"/>
<polygon fill="midnightblue" stroke="midnightblue" points="1017.83,-178.34 1009.57,-184.98 1020.17,-184.94 1017.83,-178.34"/>
</g>
<!-- Node25&#45;&gt;Node3 -->
<g id="edge26" class="edge">
<title>Node25&#45;&gt;Node3</title>
<path fill="none" stroke="midnightblue" d="M1779.15,-120.96C1739.11,-110.76 1680.47,-95.82 1643.93,-86.52"/>
<polygon fill="midnightblue" stroke="midnightblue" points="1778.35,-124.37 1788.91,-123.44 1780.08,-117.58 1778.35,-124.37"/>
</g>
<!-- Node26 -->
<g id="node26" class="node">
<title>Node26</title>
<g id="a_node26"><a xlink:href="_response_builder_8cpp.html" target="_top" xlink:title=" ">
<polygon fill="none" stroke="black" points="1755,-67.5 1755,-86.5 1890,-86.5 1890,-67.5 1755,-67.5"/>
<text text-anchor="middle" x="1822.5" y="-74.5" font-family="Helvetica,sans-Serif" font-size="10.00">src/ResponseBuilder.cpp</text>
</a>
</g>
</g>
<!-- Node25&#45;&gt;Node26 -->
<g id="edge27" class="edge">
<title>Node25&#45;&gt;Node26</title>
<path fill="none" stroke="midnightblue" d="M1822.5,-112.8C1822.5,-103.91 1822.5,-93.78 1822.5,-86.75"/>
<polygon fill="midnightblue" stroke="midnightblue" points="1819,-113.08 1822.5,-123.08 1826,-113.08 1819,-113.08"/>
</g>
<!-- Node29&#45;&gt;Node3 -->
<g id="edge33" class="edge">
<title>Node29&#45;&gt;Node3</title>
<path fill="none" stroke="midnightblue" d="M655.16,-243.03C666.12,-224.7 685.61,-196.19 709.5,-179 769.63,-135.72 793.92,-137.83 866.5,-123 1002,-95.32 1429.91,-82.49 1567.47,-79.01"/>
<polygon fill="midnightblue" stroke="midnightblue" points="652.06,-241.4 650.1,-251.81 658.13,-244.89 652.06,-241.4"/>
</g>
<!-- Node29&#45;&gt;Node24 -->
<g id="edge32" class="edge">
<title>Node29&#45;&gt;Node24</title>
<path fill="none" stroke="midnightblue" d="M700.23,-250.04C767.1,-237.25 878.96,-215.87 940.87,-204.03"/>
<polygon fill="midnightblue" stroke="midnightblue" points="699.46,-246.62 690.3,-251.94 700.78,-253.5 699.46,-246.62"/>
</g>
<!-- Node30 -->
<g id="node30" class="node">
<title>Node30</title>
<g id="a_node30"><a xlink:href="_target_resource_handler_8cpp.html" target="_top" xlink:title=" ">
<polygon fill="none" stroke="black" points="718,-185 718,-204 885,-204 885,-185 718,-185"/>
<text text-anchor="middle" x="801.5" y="-192" font-family="Helvetica,sans-Serif" font-size="10.00">src/TargetResourceHandler.cpp</text>
</a>
</g>
</g>
<!-- Node29&#45;&gt;Node30 -->
<g id="edge34" class="edge">
<title>Node29&#45;&gt;Node30</title>
<path fill="none" stroke="midnightblue" d="M675.62,-247.95C706.51,-235.08 753.73,-215.4 780.7,-204.17"/>
<polygon fill="midnightblue" stroke="midnightblue" points="674.1,-244.79 666.22,-251.87 676.79,-251.25 674.1,-244.79"/>
</g>
<!-- Node29&#45;&gt;Node31 -->
<g id="edge35" class="edge">
<title>Node29&#45;&gt;Node31</title>
<path fill="none" stroke="midnightblue" d="M632.04,-243.67C623.58,-233.09 612.78,-219.6 604.77,-209.59"/>
<polygon fill="midnightblue" stroke="midnightblue" points="629.51,-246.11 638.49,-251.73 634.97,-241.74 629.51,-246.11"/>
</g>
<!-- Node35&#45;&gt;Node3 -->
<g id="edge43" class="edge">
<title>Node35&#45;&gt;Node3</title>
<path fill="none" stroke="midnightblue" d="M1530.97,-321.26C1608.35,-318.75 1723.63,-309.47 1751.5,-277 1810.65,-208.08 1671.69,-114.94 1625.08,-86.56"/>
<polygon fill="midnightblue" stroke="midnightblue" points="1530.68,-317.76 1520.78,-321.56 1530.88,-324.76 1530.68,-317.76"/>
</g>
<!-- Node36 -->
<g id="node36" class="node">
<title>Node36</title>
<g id="a_node36"><a xlink:href="_request_parser_8cpp.html" target="_top" xlink:title=" ">
<polygon fill="none" stroke="black" points="1468,-252 1468,-271 1591,-271 1591,-252 1468,-252"/>
<text text-anchor="middle" x="1529.5" y="-259" font-family="Helvetica,sans-Serif" font-size="10.00">src/RequestParser.cpp</text>
</a>
</g>
</g>
<!-- Node35&#45;&gt;Node36 -->
<g id="edge44" class="edge">
<title>Node35&#45;&gt;Node36</title>
<path fill="none" stroke="midnightblue" d="M1476.43,-306.97C1490.01,-295.59 1508.18,-280.37 1519.35,-271.01"/>
<polygon fill="midnightblue" stroke="midnightblue" points="1474.09,-304.37 1468.67,-313.48 1478.59,-309.73 1474.09,-304.37"/>
</g>
<!-- Node37 -->
<g id="node37" class="node">
<title>Node37</title>
<g id="a_node37"><a xlink:href="test__parse_body_8cpp.html" target="_top" xlink:title=" ">
<polygon fill="none" stroke="black" points="1609,-252 1609,-271 1742,-271 1742,-252 1609,-252"/>
<text text-anchor="middle" x="1675.5" y="-259" font-family="Helvetica,sans-Serif" font-size="10.00">test/test_parseBody.cpp</text>
</a>
</g>
</g>
<!-- Node35&#45;&gt;Node37 -->
<g id="edge45" class="edge">
<title>Node35&#45;&gt;Node37</title>
<path fill="none" stroke="midnightblue" d="M1499.27,-310.82C1541.42,-299.26 1606.3,-281.47 1644.47,-271.01"/>
<polygon fill="midnightblue" stroke="midnightblue" points="1498.31,-307.46 1489.59,-313.48 1500.16,-314.21 1498.31,-307.46"/>
</g>
<!-- Node38 -->
<g id="node38" class="node">
<title>Node38</title>
<g id="a_node38"><a xlink:href="test__parse_header___headers_8cpp.html" target="_top" xlink:title=" ">
<polygon fill="none" stroke="black" points="1182,-246.5 1182,-276.5 1307,-276.5 1307,-246.5 1182,-246.5"/>
<text text-anchor="start" x="1190" y="-264.5" font-family="Helvetica,sans-Serif" font-size="10.00">test/test_parseHeader</text>
<text text-anchor="middle" x="1244.5" y="-253.5" font-family="Helvetica,sans-Serif" font-size="10.00">_Headers.cpp</text>
</a>
</g>
</g>
<!-- Node35&#45;&gt;Node38 -->
<g id="edge46" class="edge">
<title>Node35&#45;&gt;Node38</title>
<path fill="none" stroke="midnightblue" d="M1417.98,-310.73C1383.05,-301.02 1332.48,-286.96 1294.94,-276.52"/>
<polygon fill="midnightblue" stroke="midnightblue" points="1417.27,-314.17 1427.84,-313.48 1419.14,-307.42 1417.27,-314.17"/>
</g>
<!-- Node39 -->
<g id="node39" class="node">
<title>Node39</title>
<g id="a_node39"><a xlink:href="test__parse_header___request_line_8cpp.html" target="_top" xlink:title=" ">
<polygon fill="none" stroke="black" points="1325,-246.5 1325,-276.5 1450,-276.5 1450,-246.5 1325,-246.5"/>
<text text-anchor="start" x="1333" y="-264.5" font-family="Helvetica,sans-Serif" font-size="10.00">test/test_parseHeader</text>
<text text-anchor="middle" x="1387.5" y="-253.5" font-family="Helvetica,sans-Serif" font-size="10.00">_RequestLine.cpp</text>
</a>
</g>
</g>
<!-- Node35&#45;&gt;Node39 -->
<g id="edge47" class="edge">
<title>Node35&#45;&gt;Node39</title>
<path fill="none" stroke="midnightblue" d="M1440.51,-306.92C1429.36,-297.58 1415.14,-285.66 1404.23,-276.52"/>
<polygon fill="midnightblue" stroke="midnightblue" points="1438.41,-309.73 1448.33,-313.48 1442.91,-304.37 1438.41,-309.73"/>
</g>
</g>
</svg>
