<?xml version="1.0" encoding="UTF-8" standalone="no"?>
<!DOCTYPE svg PUBLIC "-//W3C//DTD SVG 1.1//EN"
 "http://www.w3.org/Graphics/SVG/1.1/DTD/svg11.dtd">
<!-- Generated by graphviz version 2.43.0 (0)
 -->
<!-- Title: inc/HTTPResponse.hpp Pages: 1 -->
<svg width="1987pt" height="274pt"
 viewBox="0.00 0.00 1987.00 274.00" xmlns="http://www.w3.org/2000/svg" xmlns:xlink="http://www.w3.org/1999/xlink">
<g id="graph0" class="graph" transform="scale(1 1) rotate(0) translate(4 270)">
<title>inc/HTTPResponse.hpp</title>
<!-- Node1 -->
<g id="node1" class="node">
<title>Node1</title>
<g id="a_node1"><a xlink:title=" ">
<polygon fill="#bfbfbf" stroke="black" points="1021.5,-246.5 1021.5,-265.5 1149.5,-265.5 1149.5,-246.5 1021.5,-246.5"/>
<text text-anchor="middle" x="1085.5" y="-253.5" font-family="Helvetica,sans-Serif" font-size="10.00">inc/HTTPResponse.hpp</text>
</a>
</g>
</g>
<!-- Node2 -->
<g id="node2" class="node">
<title>Node2</title>
<g id="a_node2"><a xlink:href="_response_body_handler_8hpp.html" target="_top" xlink:title=" ">
<polygon fill="none" stroke="black" points="753.5,-190.5 753.5,-209.5 917.5,-209.5 917.5,-190.5 753.5,-190.5"/>
<text text-anchor="middle" x="835.5" y="-197.5" font-family="Helvetica,sans-Serif" font-size="10.00">inc/ResponseBodyHandler.hpp</text>
</a>
</g>
</g>
<!-- Node1&#45;&gt;Node2 -->
<g id="edge1" class="edge">
<title>Node1&#45;&gt;Node2</title>
<path fill="none" stroke="midnightblue" d="M1035.88,-244.28C988.63,-234.08 918.46,-218.92 874.93,-209.52"/>
<polygon fill="midnightblue" stroke="midnightblue" points="1035.37,-247.75 1045.89,-246.44 1036.85,-240.91 1035.37,-247.75"/>
</g>
<!-- Node3 -->
<g id="node3" class="node">
<title>Node3</title>
<g id="a_node3"><a xlink:href="_response_builder_8hpp.html" target="_top" xlink:title=" ">
<polygon fill="none" stroke="black" points="906.5,-129 906.5,-148 1042.5,-148 1042.5,-129 906.5,-129"/>
<text text-anchor="middle" x="974.5" y="-136" font-family="Helvetica,sans-Serif" font-size="10.00">inc/ResponseBuilder.hpp</text>
</a>
</g>
</g>
<!-- Node1&#45;&gt;Node3 -->
<g id="edge19" class="edge">
<title>Node1&#45;&gt;Node3</title>
<path fill="none" stroke="midnightblue" d="M1043.05,-242.93C1025.44,-235.94 1006.19,-225.39 993.5,-210 978.5,-191.81 975.27,-162.84 974.62,-148.35"/>
<polygon fill="midnightblue" stroke="midnightblue" points="1042.02,-246.28 1052.61,-246.45 1044.44,-239.71 1042.02,-246.28"/>
</g>
<!-- Node19 -->
<g id="node19" class="node">
<title>Node19</title>
<g id="a_node19"><a xlink:href="test___response_body_handler_8cpp.html" target="_top" xlink:title=" ">
<polygon fill="none" stroke="black" points="514.5,-129 514.5,-148 706.5,-148 706.5,-129 514.5,-129"/>
<text text-anchor="middle" x="610.5" y="-136" font-family="Helvetica,sans-Serif" font-size="10.00">test/test_ResponseBodyHandler.cpp</text>
</a>
</g>
</g>
<!-- Node1&#45;&gt;Node19 -->
<g id="edge26" class="edge">
<title>Node1&#45;&gt;Node19</title>
<path fill="none" stroke="midnightblue" d="M1011.11,-252.71C940.91,-248.8 833.46,-238.28 744.5,-210 696.9,-194.87 646.14,-163.36 623.14,-148.12"/>
<polygon fill="midnightblue" stroke="midnightblue" points="1011.02,-256.21 1021.19,-253.24 1011.39,-249.22 1011.02,-256.21"/>
</g>
<!-- Node20 -->
<g id="node20" class="node">
<title>Node20</title>
<g id="a_node20"><a xlink:href="_target_resource_handler_8hpp.html" target="_top" xlink:title=" ">
<polygon fill="none" stroke="black" points="1002,-190.5 1002,-209.5 1169,-209.5 1169,-190.5 1002,-190.5"/>
<text text-anchor="middle" x="1085.5" y="-197.5" font-family="Helvetica,sans-Serif" font-size="10.00">inc/TargetResourceHandler.hpp</text>
</a>
</g>
</g>
<!-- Node1&#45;&gt;Node20 -->
<g id="edge20" class="edge">
<title>Node1&#45;&gt;Node20</title>
<path fill="none" stroke="midnightblue" d="M1085.5,-235.8C1085.5,-226.91 1085.5,-216.78 1085.5,-209.75"/>
<polygon fill="midnightblue" stroke="midnightblue" points="1082,-236.08 1085.5,-246.08 1089,-236.08 1082,-236.08"/>
</g>
<!-- Node22 -->
<g id="node22" class="node">
<title>Node22</title>
<g id="a_node22"><a xlink:href="test___target_resource_handler_8cpp.html" target="_top" xlink:title=" ">
<polygon fill="none" stroke="black" points="1246,-123.5 1246,-153.5 1383,-153.5 1383,-123.5 1246,-123.5"/>
<text text-anchor="start" x="1254" y="-141.5" font-family="Helvetica,sans-Serif" font-size="10.00">test/test_TargetResource</text>
<text text-anchor="middle" x="1314.5" y="-130.5" font-family="Helvetica,sans-Serif" font-size="10.00">Handler.cpp</text>
</a>
</g>
</g>
<!-- Node1&#45;&gt;Node22 -->
<g id="edge27" class="edge">
<title>Node1&#45;&gt;Node22</title>
<path fill="none" stroke="midnightblue" d="M1112.79,-241.91C1131.15,-233.04 1155.86,-220.98 1177.5,-210 1194.52,-201.36 1198.55,-198.78 1215.5,-190 1239.48,-177.57 1266.84,-163.63 1286.71,-153.55"/>
<polygon fill="midnightblue" stroke="midnightblue" points="1111.05,-238.87 1103.56,-246.36 1114.09,-245.17 1111.05,-238.87"/>
</g>
<!-- Node23 -->
<g id="node23" class="node">
<title>Node23</title>
<g id="a_node23"><a xlink:href="_log_ostream_inserters_8cpp.html" target="_top" xlink:title=" ">
<polygon fill="none" stroke="black" points="1224.5,-190.5 1224.5,-209.5 1380.5,-209.5 1380.5,-190.5 1224.5,-190.5"/>
<text text-anchor="middle" x="1302.5" y="-197.5" font-family="Helvetica,sans-Serif" font-size="10.00">src/LogOstreamInserters.cpp</text>
</a>
</g>
</g>
<!-- Node1&#45;&gt;Node23 -->
<g id="edge24" class="edge">
<title>Node1&#45;&gt;Node23</title>
<path fill="none" stroke="midnightblue" d="M1129.61,-244.02C1170.6,-233.82 1230.8,-218.84 1268.28,-209.52"/>
<polygon fill="midnightblue" stroke="midnightblue" points="1128.74,-240.63 1119.88,-246.44 1130.43,-247.43 1128.74,-240.63"/>
</g>
<!-- Node24 -->
<g id="node24" class="node">
<title>Node24</title>
<g id="a_node24"><a xlink:href="test___ostream_inserters_8cpp.html" target="_top" xlink:title=" ">
<polygon fill="none" stroke="black" points="1399,-190.5 1399,-209.5 1566,-209.5 1566,-190.5 1399,-190.5"/>
<text text-anchor="middle" x="1482.5" y="-197.5" font-family="Helvetica,sans-Serif" font-size="10.00">test/test_OstreamInserters.cpp</text>
</a>
</g>
</g>
<!-- Node1&#45;&gt;Node24 -->
<g id="edge25" class="edge">
<title>Node1&#45;&gt;Node24</title>
<path fill="none" stroke="midnightblue" d="M1158.71,-245.04C1233.69,-234.84 1349.01,-219.16 1419.89,-209.52"/>
<polygon fill="midnightblue" stroke="midnightblue" points="1157.84,-241.63 1148.41,-246.44 1158.79,-248.56 1157.84,-241.63"/>
</g>
<!-- Node2&#45;&gt;Node3 -->
<g id="edge2" class="edge">
<title>Node2&#45;&gt;Node3</title>
<path fill="none" stroke="midnightblue" d="M864.75,-186.48C891.75,-174.92 931.1,-158.08 954.62,-148.01"/>
<polygon fill="midnightblue" stroke="midnightblue" points="863.23,-183.32 855.42,-190.48 865.99,-189.76 863.23,-183.32"/>
</g>
<!-- Node18 -->
<g id="node18" class="node">
<title>Node18</title>
<g id="a_node18"><a xlink:href="_response_body_handler_8cpp.html" target="_top" xlink:title=" ">
<polygon fill="none" stroke="black" points="724.5,-129 724.5,-148 888.5,-148 888.5,-129 724.5,-129"/>
<text text-anchor="middle" x="806.5" y="-136" font-family="Helvetica,sans-Serif" font-size="10.00">src/ResponseBodyHandler.cpp</text>
</a>
</g>
</g>
<!-- Node2&#45;&gt;Node18 -->
<g id="edge17" class="edge">
<title>Node2&#45;&gt;Node18</title>
<path fill="none" stroke="midnightblue" d="M826.89,-181.33C821.53,-170.33 814.87,-156.66 810.65,-148.01"/>
<polygon fill="midnightblue" stroke="midnightblue" points="823.82,-183.02 831.35,-190.48 830.11,-179.95 823.82,-183.02"/>
</g>
<!-- Node2&#45;&gt;Node19 -->
<g id="edge18" class="edge">
<title>Node2&#45;&gt;Node19</title>
<path fill="none" stroke="midnightblue" d="M793.51,-187.9C749.81,-176.34 682.33,-158.5 642.68,-148.01"/>
<polygon fill="midnightblue" stroke="midnightblue" points="792.7,-191.3 803.26,-190.48 794.49,-184.53 792.7,-191.3"/>
</g>
<!-- Node4 -->
<g id="node4" class="node">
<title>Node4</title>
<g id="a_node4"><a xlink:href="_server_8hpp.html" target="_top" xlink:title=" ">
<polygon fill="none" stroke="black" points="866.5,-67.5 866.5,-86.5 952.5,-86.5 952.5,-67.5 866.5,-67.5"/>
<text text-anchor="middle" x="909.5" y="-74.5" font-family="Helvetica,sans-Serif" font-size="10.00">inc/Server.hpp</text>
</a>
</g>
</g>
<!-- Node3&#45;&gt;Node4 -->
<g id="edge3" class="edge">
<title>Node3&#45;&gt;Node4</title>
<path fill="none" stroke="midnightblue" d="M957.73,-122.15C945.34,-110.81 928.92,-95.78 918.8,-86.51"/>
<polygon fill="midnightblue" stroke="midnightblue" points="955.45,-124.8 965.19,-128.98 960.17,-119.64 955.45,-124.8"/>
</g>
<!-- Node17 -->
<g id="node17" class="node">
<title>Node17</title>
<g id="a_node17"><a xlink:href="_response_builder_8cpp.html" target="_top" xlink:title=" ">
<polygon fill="none" stroke="black" points="971,-67.5 971,-86.5 1106,-86.5 1106,-67.5 971,-67.5"/>
<text text-anchor="middle" x="1038.5" y="-74.5" font-family="Helvetica,sans-Serif" font-size="10.00">src/ResponseBuilder.cpp</text>
</a>
</g>
</g>
<!-- Node3&#45;&gt;Node17 -->
<g id="edge16" class="edge">
<title>Node3&#45;&gt;Node17</title>
<path fill="none" stroke="midnightblue" d="M991.01,-122.15C1003.21,-110.81 1019.37,-95.78 1029.35,-86.51"/>
<polygon fill="midnightblue" stroke="midnightblue" points="988.61,-119.6 983.67,-128.98 993.38,-124.73 988.61,-119.6"/>
</g>
<!-- Node5 -->
<g id="node5" class="node">
<title>Node5</title>
<g id="a_node5"><a xlink:href="main_8cpp.html" target="_top" xlink:title=" ">
<polygon fill="none" stroke="black" points="0,-6 0,-25 79,-25 79,-6 0,-6"/>
<text text-anchor="middle" x="39.5" y="-13" font-family="Helvetica,sans-Serif" font-size="10.00">src/main.cpp</text>
</a>
</g>
</g>
<!-- Node4&#45;&gt;Node5 -->
<g id="edge4" class="edge">
<title>Node4&#45;&gt;Node5</title>
<path fill="none" stroke="midnightblue" d="M856.06,-74.74C698.24,-70.75 236.02,-57.11 87.5,-31 79.61,-29.61 71.19,-27.35 63.65,-25.02"/>
<polygon fill="midnightblue" stroke="midnightblue" points="856.36,-78.25 866.45,-75 856.54,-71.25 856.36,-78.25"/>
</g>
<!-- Node6 -->
<g id="node6" class="node">
<title>Node6</title>
<g id="a_node6"><a xlink:href="_server_8cpp.html" target="_top" xlink:title=" ">
<polygon fill="none" stroke="black" points="97,-6 97,-25 182,-25 182,-6 97,-6"/>
<text text-anchor="middle" x="139.5" y="-13" font-family="Helvetica,sans-Serif" font-size="10.00">src/Server.cpp</text>
</a>
</g>
</g>
<!-- Node4&#45;&gt;Node6 -->
<g id="edge5" class="edge">
<title>Node4&#45;&gt;Node6</title>
<path fill="none" stroke="midnightblue" d="M856.15,-76.55C736.25,-76.94 436.65,-73.19 190.5,-31 182.24,-29.58 173.41,-27.34 165.46,-25.04"/>
<polygon fill="midnightblue" stroke="midnightblue" points="856.19,-80.05 866.18,-76.51 856.16,-73.05 856.19,-80.05"/>
</g>
<!-- Node7 -->
<g id="node7" class="node">
<title>Node7</title>
<g id="a_node7"><a xlink:href="test__accept_connections_8cpp.html" target="_top" xlink:title=" ">
<polygon fill="none" stroke="black" points="200,-6 200,-25 375,-25 375,-6 200,-6"/>
<text text-anchor="middle" x="287.5" y="-13" font-family="Helvetica,sans-Serif" font-size="10.00">test/test_acceptConnections.cpp</text>
</a>
</g>
</g>
<!-- Node4&#45;&gt;Node7 -->
<g id="edge6" class="edge">
<title>Node4&#45;&gt;Node7</title>
<path fill="none" stroke="midnightblue" d="M856.23,-72.58C761.11,-66.23 555.89,-51.37 383.5,-31 369.27,-29.32 353.91,-27.16 339.73,-25.02"/>
<polygon fill="midnightblue" stroke="midnightblue" points="856.24,-76.09 866.45,-73.26 856.7,-69.11 856.24,-76.09"/>
</g>
<!-- Node8 -->
<g id="node8" class="node">
<title>Node8</title>
<g id="a_node8"><a xlink:href="test__check_for_timeout_8cpp.html" target="_top" xlink:title=" ">
<polygon fill="none" stroke="black" points="393,-6 393,-25 560,-25 560,-6 393,-6"/>
<text text-anchor="middle" x="476.5" y="-13" font-family="Helvetica,sans-Serif" font-size="10.00">test/test_checkForTimeout.cpp</text>
</a>
</g>
</g>
<!-- Node4&#45;&gt;Node8 -->
<g id="edge7" class="edge">
<title>Node4&#45;&gt;Node8</title>
<path fill="none" stroke="midnightblue" d="M856.06,-69.37C788.88,-60.94 670.04,-45.7 568.5,-31 555.7,-29.15 541.91,-27.04 529.01,-25.01"/>
<polygon fill="midnightblue" stroke="midnightblue" points="856.03,-72.89 866.39,-70.66 856.9,-65.95 856.03,-72.89"/>
</g>
<!-- Node9 -->
<g id="node9" class="node">
<title>Node9</title>
<g id="a_node9"><a xlink:href="test__connection_receive_header_8cpp.html" target="_top" xlink:title=" ">
<polygon fill="none" stroke="black" points="578,-0.5 578,-30.5 733,-30.5 733,-0.5 578,-0.5"/>
<text text-anchor="start" x="586" y="-18.5" font-family="Helvetica,sans-Serif" font-size="10.00">test/test_connectionReceive</text>
<text text-anchor="middle" x="655.5" y="-7.5" font-family="Helvetica,sans-Serif" font-size="10.00">Header.cpp</text>
</a>
</g>
</g>
<!-- Node4&#45;&gt;Node9 -->
<g id="edge8" class="edge">
<title>Node4&#45;&gt;Node9</title>
<path fill="none" stroke="midnightblue" d="M863.26,-65.17C821.76,-55.45 760.59,-41.12 715.36,-30.52"/>
<polygon fill="midnightblue" stroke="midnightblue" points="862.57,-68.6 873.11,-67.48 864.17,-61.79 862.57,-68.6"/>
</g>
<!-- Node10 -->
<g id="node10" class="node">
<title>Node10</title>
<g id="a_node10"><a xlink:href="test__connection_send_response_8cpp.html" target="_top" xlink:title=" ">
<polygon fill="none" stroke="black" points="751.5,-0.5 751.5,-30.5 891.5,-30.5 891.5,-0.5 751.5,-0.5"/>
<text text-anchor="start" x="759.5" y="-18.5" font-family="Helvetica,sans-Serif" font-size="10.00">test/test_connectionSend</text>
<text text-anchor="middle" x="821.5" y="-7.5" font-family="Helvetica,sans-Serif" font-size="10.00">Response.cpp</text>
</a>
</g>
</g>
<!-- Node4&#45;&gt;Node10 -->
<g id="edge9" class="edge">
<title>Node4&#45;&gt;Node10</title>
<path fill="none" stroke="midnightblue" d="M888.41,-61.74C874.42,-52.28 856.15,-39.93 842.24,-30.52"/>
<polygon fill="midnightblue" stroke="midnightblue" points="886.65,-64.77 896.89,-67.48 890.57,-58.97 886.65,-64.77"/>
</g>
<!-- Node11 -->
<g id="node11" class="node">
<title>Node11</title>
<g id="a_node11"><a xlink:href="test__create_virtual_server_8cpp.html" target="_top" xlink:title=" ">
<polygon fill="none" stroke="black" points="909.5,-6 909.5,-25 1085.5,-25 1085.5,-6 909.5,-6"/>
<text text-anchor="middle" x="997.5" y="-13" font-family="Helvetica,sans-Serif" font-size="10.00">test/test_createVirtualServer.cpp</text>
</a>
</g>
</g>
<!-- Node4&#45;&gt;Node11 -->
<g id="edge10" class="edge">
<title>Node4&#45;&gt;Node11</title>
<path fill="none" stroke="midnightblue" d="M930.78,-61.61C947.7,-50.17 970.81,-34.55 984.92,-25.01"/>
<polygon fill="midnightblue" stroke="midnightblue" points="928.43,-58.97 922.11,-67.48 932.35,-64.77 928.43,-58.97"/>
</g>
<!-- Node12 -->
<g id="node12" class="node">
<title>Node12</title>
<g id="a_node12"><a xlink:href="test__init_virtual_servers_8cpp.html" target="_top" xlink:title=" ">
<polygon fill="none" stroke="black" points="1103,-6 1103,-25 1270,-25 1270,-6 1103,-6"/>
<text text-anchor="middle" x="1186.5" y="-13" font-family="Helvetica,sans-Serif" font-size="10.00">test/test_initVirtualServers.cpp</text>
</a>
</g>
</g>
<!-- Node4&#45;&gt;Node12 -->
<g id="edge11" class="edge">
<title>Node4&#45;&gt;Node12</title>
<path fill="none" stroke="midnightblue" d="M959.17,-65.33C1012.89,-53.79 1097.45,-35.63 1146.89,-25.01"/>
<polygon fill="midnightblue" stroke="midnightblue" points="958.23,-61.95 949.19,-67.48 959.7,-68.8 958.23,-61.95"/>
</g>
<!-- Node13 -->
<g id="node13" class="node">
<title>Node13</title>
<g id="a_node13"><a xlink:href="test__is_duplicate_server_8cpp.html" target="_top" xlink:title=" ">
<polygon fill="none" stroke="black" points="1287.5,-6 1287.5,-25 1455.5,-25 1455.5,-6 1287.5,-6"/>
<text text-anchor="middle" x="1371.5" y="-13" font-family="Helvetica,sans-Serif" font-size="10.00">test/test_isDuplicateServer.cpp</text>
</a>
</g>
</g>
<!-- Node4&#45;&gt;Node13 -->
<g id="edge12" class="edge">
<title>Node4&#45;&gt;Node13</title>
<path fill="none" stroke="midnightblue" d="M962.52,-66.93C1103.98,-47 1141.71,-49.65 1279.5,-31 1292.64,-29.22 1306.8,-27.09 1319.98,-25.03"/>
<polygon fill="midnightblue" stroke="midnightblue" points="962.01,-63.47 952.6,-68.34 962.99,-70.4 962.01,-63.47"/>
</g>
<!-- Node14 -->
<g id="node14" class="node">
<title>Node14</title>
<g id="a_node14"><a xlink:href="test__register_connection_8cpp.html" target="_top" xlink:title=" ">
<polygon fill="none" stroke="black" points="1474,-6 1474,-25 1649,-25 1649,-6 1474,-6"/>
<text text-anchor="middle" x="1561.5" y="-13" font-family="Helvetica,sans-Serif" font-size="10.00">test/test_registerConnection.cpp</text>
</a>
</g>
</g>
<!-- Node4&#45;&gt;Node14 -->
<g id="edge13" class="edge">
<title>Node4&#45;&gt;Node14</title>
<path fill="none" stroke="midnightblue" d="M962.64,-66.98C1185.7,-40.31 1244.99,-55.23 1464.5,-31 1479.14,-29.38 1494.96,-27.21 1509.49,-25.03"/>
<polygon fill="midnightblue" stroke="midnightblue" points="962.09,-63.53 952.58,-68.2 962.93,-70.48 962.09,-63.53"/>
</g>
<!-- Node15 -->
<g id="node15" class="node">
<title>Node15</title>
<g id="a_node15"><a xlink:href="test__register_virtual_server_8cpp.html" target="_top" xlink:title=" ">
<polygon fill="none" stroke="black" points="1667.5,-0.5 1667.5,-30.5 1799.5,-30.5 1799.5,-0.5 1667.5,-0.5"/>
<text text-anchor="start" x="1675.5" y="-18.5" font-family="Helvetica,sans-Serif" font-size="10.00">test/test_registerVirtual</text>
<text text-anchor="middle" x="1733.5" y="-7.5" font-family="Helvetica,sans-Serif" font-size="10.00">Server.cpp</text>
</a>
</g>
</g>
<!-- Node4&#45;&gt;Node15 -->
<g id="edge14" class="edge">
<title>Node4&#45;&gt;Node15</title>
<path fill="none" stroke="midnightblue" d="M962.71,-67.01C1271.53,-33.25 1353.9,-68.13 1658.5,-31 1661.4,-30.65 1664.35,-30.25 1667.33,-29.81"/>
<polygon fill="midnightblue" stroke="midnightblue" points="962.13,-63.56 952.57,-68.14 962.9,-70.51 962.13,-63.56"/>
</g>
<!-- Node16 -->
<g id="node16" class="node">
<title>Node16</title>
<g id="a_node16"><a xlink:href="test__shutdown_server_8cpp.html" target="_top" xlink:title=" ">
<polygon fill="none" stroke="black" points="1818,-6 1818,-25 1979,-25 1979,-6 1818,-6"/>
<text text-anchor="middle" x="1898.5" y="-13" font-family="Helvetica,sans-Serif" font-size="10.00">test/test_shutdownServer.cpp</text>
</a>
</g>
</g>
<!-- Node4&#45;&gt;Node16 -->
<g id="edge15" class="edge">
<title>Node4&#45;&gt;Node16</title>
<path fill="none" stroke="midnightblue" d="M962.62,-67.04C1337.87,-27.52 1436.93,-68.7 1808.5,-31 1822.67,-29.56 1838,-27.34 1851.93,-25.07"/>
<polygon fill="midnightblue" stroke="midnightblue" points="962.14,-63.57 952.57,-68.11 962.88,-70.53 962.14,-63.57"/>
</g>
<!-- Node20&#45;&gt;Node3 -->
<g id="edge21" class="edge">
<title>Node20&#45;&gt;Node3</title>
<path fill="none" stroke="midnightblue" d="M1060.71,-185.71C1039.21,-174.19 1008.74,-157.86 990.37,-148.01"/>
<polygon fill="midnightblue" stroke="midnightblue" points="1059.13,-188.84 1069.6,-190.48 1062.44,-182.67 1059.13,-188.84"/>
</g>
<!-- Node21 -->
<g id="node21" class="node">
<title>Node21</title>
<g id="a_node21"><a xlink:href="_target_resource_handler_8cpp.html" target="_top" xlink:title=" ">
<polygon fill="none" stroke="black" points="1061,-129 1061,-148 1228,-148 1228,-129 1061,-129"/>
<text text-anchor="middle" x="1144.5" y="-136" font-family="Helvetica,sans-Serif" font-size="10.00">src/TargetResourceHandler.cpp</text>
</a>
</g>
</g>
<!-- Node20&#45;&gt;Node21 -->
<g id="edge22" class="edge">
<title>Node20&#45;&gt;Node21</title>
<path fill="none" stroke="midnightblue" d="M1101.04,-183.32C1112.25,-172.02 1126.96,-157.19 1136.06,-148.01"/>
<polygon fill="midnightblue" stroke="midnightblue" points="1098.51,-180.91 1093.95,-190.48 1103.48,-185.84 1098.51,-180.91"/>
</g>
<!-- Node20&#45;&gt;Node22 -->
<g id="edge23" class="edge">
<title>Node20&#45;&gt;Node22</title>
<path fill="none" stroke="midnightblue" d="M1128.38,-187.86C1165.77,-178.14 1220.18,-164.01 1260.53,-153.52"/>
<polygon fill="midnightblue" stroke="midnightblue" points="1127.11,-184.57 1118.31,-190.48 1128.87,-191.35 1127.11,-184.57"/>
</g>
</g>
</svg>
