<?xml version="1.0" encoding="UTF-8" standalone="no"?>
<!DOCTYPE svg PUBLIC "-//W3C//DTD SVG 1.1//EN"
 "http://www.w3.org/Graphics/SVG/1.1/DTD/svg11.dtd">
<!-- Generated by graphviz version 2.43.0 (0)
 -->
<!-- Title: inc/HTTPResponse.hpp Pages: 1 -->
<svg width="490pt" height="196pt"
 viewBox="0.00 0.00 489.50 196.00" xmlns="http://www.w3.org/2000/svg" xmlns:xlink="http://www.w3.org/1999/xlink">
<g id="graph0" class="graph" transform="scale(1 1) rotate(0) translate(4 192)">
<title>inc/HTTPResponse.hpp</title>
<!-- Node1 -->
<g id="node1" class="node">
<title>Node1</title>
<g id="a_node1"><a xlink:title=" ">
<polygon fill="#bfbfbf" stroke="black" points="129,-168.5 129,-187.5 257,-187.5 257,-168.5 129,-168.5"/>
<text text-anchor="middle" x="193" y="-175.5" font-family="Helvetica,sans-Serif" font-size="10.00">inc/HTTPResponse.hpp</text>
</a>
</g>
</g>
<!-- Node2 -->
<g id="node2" class="node">
<title>Node2</title>
<g id="a_node2"><a xlink:href="_status_code_8hpp.html" target="_top" xlink:title=" ">
<polygon fill="none" stroke="black" points="388.5,-56.5 388.5,-75.5 481.5,-75.5 481.5,-56.5 388.5,-56.5"/>
<text text-anchor="middle" x="435" y="-63.5" font-family="Helvetica,sans-Serif" font-size="10.00">StatusCode.hpp</text>
</a>
</g>
</g>
<!-- Node1&#45;&gt;Node2 -->
<g id="edge1" class="edge">
<title>Node1&#45;&gt;Node2</title>
<path fill="none" stroke="midnightblue" d="M211.99,-168.37C254.4,-149.09 357,-102.45 406.86,-79.79"/>
<polygon fill="midnightblue" stroke="midnightblue" points="408.44,-82.92 416.1,-75.59 405.55,-76.54 408.44,-82.92"/>
</g>
<!-- Node4 -->
<g id="node4" class="node">
<title>Node4</title>
<g id="a_node4"><a xlink:title=" ">
<polygon fill="none" stroke="#bfbfbf" points="0,-56.5 0,-75.5 44,-75.5 44,-56.5 0,-56.5"/>
<text text-anchor="middle" x="22" y="-63.5" font-family="Helvetica,sans-Serif" font-size="10.00">string</text>
</a>
</g>
</g>
<!-- Node1&#45;&gt;Node4 -->
<g id="edge3" class="edge">
<title>Node1&#45;&gt;Node4</title>
<path fill="none" stroke="midnightblue" d="M179.58,-168.37C150.24,-149.49 80.12,-104.38 44.13,-81.24"/>
<polygon fill="midnightblue" stroke="midnightblue" points="45.66,-78.06 35.36,-75.59 41.87,-83.95 45.66,-78.06"/>
</g>
<!-- Node5 -->
<g id="node5" class="node">
<title>Node5</title>
<g id="a_node5"><a xlink:href="_config_file_8hpp.html" target="_top" xlink:title=" ">
<polygon fill="none" stroke="black" points="150,-112.5 150,-131.5 236,-131.5 236,-112.5 150,-112.5"/>
<text text-anchor="middle" x="193" y="-119.5" font-family="Helvetica,sans-Serif" font-size="10.00">ConfigFile.hpp</text>
</a>
</g>
</g>
<!-- Node1&#45;&gt;Node5 -->
<g id="edge4" class="edge">
<title>Node1&#45;&gt;Node5</title>
<path fill="none" stroke="midnightblue" d="M193,-168.08C193,-161.01 193,-150.86 193,-141.99"/>
<polygon fill="midnightblue" stroke="midnightblue" points="196.5,-141.75 193,-131.75 189.5,-141.75 196.5,-141.75"/>
</g>
<!-- Node3 -->
<g id="node3" class="node">
<title>Node3</title>
<g id="a_node3"><a xlink:title=" ">
<polygon fill="none" stroke="#bfbfbf" points="223,-0.5 223,-19.5 283,-19.5 283,-0.5 223,-0.5"/>
<text text-anchor="middle" x="253" y="-7.5" font-family="Helvetica,sans-Serif" font-size="10.00">iostream</text>
</a>
</g>
</g>
<!-- Node2&#45;&gt;Node3 -->
<g id="edge2" class="edge">
<title>Node2&#45;&gt;Node3</title>
<path fill="none" stroke="midnightblue" d="M406.16,-56.44C375.14,-47.24 325.67,-32.56 291.38,-22.39"/>
<polygon fill="midnightblue" stroke="midnightblue" points="292.29,-19.01 281.7,-19.52 290.29,-25.72 292.29,-19.01"/>
</g>
<!-- Node5&#45;&gt;Node2 -->
<g id="edge6" class="edge">
<title>Node5&#45;&gt;Node2</title>
<path fill="none" stroke="midnightblue" d="M231.35,-112.44C273.47,-103.04 341.21,-87.93 386.87,-77.74"/>
<polygon fill="midnightblue" stroke="midnightblue" points="387.84,-81.11 396.83,-75.52 386.31,-74.28 387.84,-81.11"/>
</g>
<!-- Node5&#45;&gt;Node3 -->
<g id="edge8" class="edge">
<title>Node5&#45;&gt;Node3</title>
<path fill="none" stroke="midnightblue" d="M154.87,-112.47C117.88,-102.38 70.16,-83.42 91,-56 105.72,-36.64 169.92,-23.41 212.94,-16.54"/>
<polygon fill="midnightblue" stroke="midnightblue" points="213.5,-20 222.85,-15.01 212.43,-13.08 213.5,-20"/>
</g>
<!-- Node5&#45;&gt;Node4 -->
<g id="edge10" class="edge">
<title>Node5&#45;&gt;Node4</title>
<path fill="none" stroke="midnightblue" d="M165.9,-112.44C135.48,-102.84 86.16,-87.26 53.9,-77.07"/>
<polygon fill="midnightblue" stroke="midnightblue" points="54.66,-73.64 44.07,-73.97 52.56,-80.32 54.66,-73.64"/>
</g>
<!-- Node6 -->
<g id="node6" class="node">
<title>Node6</title>
<g id="a_node6"><a xlink:href="_method_8hpp.html" target="_top" xlink:title=" ">
<polygon fill="none" stroke="black" points="296,-56.5 296,-75.5 370,-75.5 370,-56.5 296,-56.5"/>
<text text-anchor="middle" x="333" y="-63.5" font-family="Helvetica,sans-Serif" font-size="10.00">Method.hpp</text>
</a>
</g>
</g>
<!-- Node5&#45;&gt;Node6 -->
<g id="edge5" class="edge">
<title>Node5&#45;&gt;Node6</title>
<path fill="none" stroke="midnightblue" d="M215.18,-112.44C238.43,-103.48 275.15,-89.31 301.42,-79.18"/>
<polygon fill="midnightblue" stroke="midnightblue" points="302.85,-82.38 310.92,-75.52 300.33,-75.85 302.85,-82.38"/>
</g>
<!-- Node7 -->
<g id="node7" class="node">
<title>Node7</title>
<g id="a_node7"><a xlink:title=" ">
<polygon fill="none" stroke="#bfbfbf" points="100.5,-56.5 100.5,-75.5 155.5,-75.5 155.5,-56.5 100.5,-56.5"/>
<text text-anchor="middle" x="128" y="-63.5" font-family="Helvetica,sans-Serif" font-size="10.00">fstream</text>
</a>
</g>
</g>
<!-- Node5&#45;&gt;Node7 -->
<g id="edge7" class="edge">
<title>Node5&#45;&gt;Node7</title>
<path fill="none" stroke="midnightblue" d="M182.56,-112.32C172.85,-104.26 158.18,-92.08 146.5,-82.37"/>
<polygon fill="midnightblue" stroke="midnightblue" points="148.56,-79.53 138.63,-75.83 144.09,-84.92 148.56,-79.53"/>
</g>
<!-- Node8 -->
<g id="node8" class="node">
<title>Node8</title>
<g id="a_node8"><a xlink:title=" ">
<polygon fill="none" stroke="#bfbfbf" points="174,-56.5 174,-75.5 212,-75.5 212,-56.5 174,-56.5"/>
<text text-anchor="middle" x="193" y="-63.5" font-family="Helvetica,sans-Serif" font-size="10.00">map</text>
</a>
</g>
</g>
<!-- Node5&#45;&gt;Node8 -->
<g id="edge9" class="edge">
<title>Node5&#45;&gt;Node8</title>
<path fill="none" stroke="midnightblue" d="M193,-112.08C193,-105.01 193,-94.86 193,-85.99"/>
<polygon fill="midnightblue" stroke="midnightblue" points="196.5,-85.75 193,-75.75 189.5,-85.75 196.5,-85.75"/>
</g>
<!-- Node9 -->
<g id="node9" class="node">
<title>Node9</title>
<g id="a_node9"><a xlink:title=" ">
<polygon fill="none" stroke="#bfbfbf" points="230.5,-56.5 230.5,-75.5 277.5,-75.5 277.5,-56.5 230.5,-56.5"/>
<text text-anchor="middle" x="254" y="-63.5" font-family="Helvetica,sans-Serif" font-size="10.00">vector</text>
</a>
</g>
</g>
<!-- Node5&#45;&gt;Node9 -->
<g id="edge11" class="edge">
<title>Node5&#45;&gt;Node9</title>
<path fill="none" stroke="midnightblue" d="M202.8,-112.32C211.82,-104.34 225.41,-92.31 236.32,-82.65"/>
<polygon fill="midnightblue" stroke="midnightblue" points="238.85,-85.08 244.02,-75.83 234.21,-79.84 238.85,-85.08"/>
</g>
</g>
</svg>
