<?xml version="1.0" encoding="UTF-8" standalone="no"?>
<!DOCTYPE svg PUBLIC "-//W3C//DTD SVG 1.1//EN"
 "http://www.w3.org/Graphics/SVG/1.1/DTD/svg11.dtd">
<!-- Generated by graphviz version 2.43.0 (0)
 -->
<!-- Title: inc/Log.hpp Pages: 1 -->
<svg width="2304pt" height="341pt"
 viewBox="0.00 0.00 2304.00 341.00" xmlns="http://www.w3.org/2000/svg" xmlns:xlink="http://www.w3.org/1999/xlink">
<g id="graph0" class="graph" transform="scale(1 1) rotate(0) translate(4 337)">
<title>inc/Log.hpp</title>
<!-- Node1 -->
<g id="node1" class="node">
<title>Node1</title>
<g id="a_node1"><a xlink:title=" ">
<polygon fill="#bfbfbf" stroke="black" points="1241.5,-313.5 1241.5,-332.5 1313.5,-332.5 1313.5,-313.5 1241.5,-313.5"/>
<text text-anchor="middle" x="1277.5" y="-320.5" font-family="Helvetica,sans-Serif" font-size="10.00">inc/Log.hpp</text>
</a>
</g>
</g>
<!-- Node2 -->
<g id="node2" class="node">
<title>Node2</title>
<g id="a_node2"><a xlink:href="_epoll_wrapper_8hpp.html" target="_top" xlink:title=" ">
<polygon fill="none" stroke="black" points="782,-129 782,-148 901,-148 901,-129 782,-129"/>
<text text-anchor="middle" x="841.5" y="-136" font-family="Helvetica,sans-Serif" font-size="10.00">inc/EpollWrapper.hpp</text>
</a>
</g>
</g>
<!-- Node1&#45;&gt;Node2 -->
<g id="edge1" class="edge">
<title>Node1&#45;&gt;Node2</title>
<path fill="none" stroke="midnightblue" d="M1231.44,-312.67C1196.74,-304.96 1148.34,-292.74 1107.5,-277 1006.61,-238.11 894.06,-171.64 855.41,-148.09"/>
<polygon fill="midnightblue" stroke="midnightblue" points="1230.78,-316.11 1241.29,-314.82 1232.27,-309.27 1230.78,-316.11"/>
</g>
<!-- Node14 -->
<g id="node14" class="node">
<title>Node14</title>
<g id="a_node14"><a xlink:href="_server_8hpp.html" target="_top" xlink:title=" ">
<polygon fill="none" stroke="black" points="1129.5,-67.5 1129.5,-86.5 1215.5,-86.5 1215.5,-67.5 1129.5,-67.5"/>
<text text-anchor="middle" x="1172.5" y="-74.5" font-family="Helvetica,sans-Serif" font-size="10.00">inc/Server.hpp</text>
</a>
</g>
</g>
<!-- Node1&#45;&gt;Node14 -->
<g id="edge42" class="edge">
<title>Node1&#45;&gt;Node14</title>
<path fill="none" stroke="midnightblue" d="M1231.41,-316.26C1206.88,-310.59 1178.7,-299.34 1163.5,-277 1121.48,-215.24 1156.78,-116.03 1168.83,-86.53"/>
<polygon fill="midnightblue" stroke="midnightblue" points="1230.8,-319.7 1241.3,-318.29 1232.22,-312.85 1230.8,-319.7"/>
</g>
<!-- Node18 -->
<g id="node18" class="node">
<title>Node18</title>
<g id="a_node18"><a xlink:href="_request_parser_8hpp.html" target="_top" xlink:title=" ">
<polygon fill="none" stroke="black" points="1618.5,-257.5 1618.5,-276.5 1742.5,-276.5 1742.5,-257.5 1618.5,-257.5"/>
<text text-anchor="middle" x="1680.5" y="-264.5" font-family="Helvetica,sans-Serif" font-size="10.00">inc/RequestParser.hpp</text>
</a>
</g>
</g>
<!-- Node1&#45;&gt;Node18 -->
<g id="edge27" class="edge">
<title>Node1&#45;&gt;Node18</title>
<path fill="none" stroke="midnightblue" d="M1323.81,-315.79C1396.36,-306.07 1536.9,-287.24 1618.23,-276.34"/>
<polygon fill="midnightblue" stroke="midnightblue" points="1323.06,-312.36 1313.62,-317.16 1323.99,-319.3 1323.06,-312.36"/>
</g>
<!-- Node19 -->
<g id="node19" class="node">
<title>Node19</title>
<g id="a_node19"><a xlink:href="_response_builder_8hpp.html" target="_top" xlink:title=" ">
<polygon fill="none" stroke="black" points="1520.5,-129 1520.5,-148 1656.5,-148 1656.5,-129 1520.5,-129"/>
<text text-anchor="middle" x="1588.5" y="-136" font-family="Helvetica,sans-Serif" font-size="10.00">inc/ResponseBuilder.hpp</text>
</a>
</g>
</g>
<!-- Node1&#45;&gt;Node19 -->
<g id="edge41" class="edge">
<title>Node1&#45;&gt;Node19</title>
<path fill="none" stroke="midnightblue" d="M1296.05,-306.72C1328.61,-280.41 1398.86,-225.92 1464.5,-190 1496.92,-172.26 1536.9,-157.07 1562.55,-148.11"/>
<polygon fill="midnightblue" stroke="midnightblue" points="1293.44,-304.33 1287.9,-313.36 1297.86,-309.76 1293.44,-304.33"/>
</g>
<!-- Node28 -->
<g id="node28" class="node">
<title>Node28</title>
<g id="a_node28"><a xlink:href="signal_handler_8hpp.html" target="_top" xlink:title=" ">
<polygon fill="none" stroke="black" points="1172.5,-257.5 1172.5,-276.5 1294.5,-276.5 1294.5,-257.5 1172.5,-257.5"/>
<text text-anchor="middle" x="1233.5" y="-264.5" font-family="Helvetica,sans-Serif" font-size="10.00">inc/signalHandler.hpp</text>
</a>
</g>
</g>
<!-- Node1&#45;&gt;Node28 -->
<g id="edge43" class="edge">
<title>Node1&#45;&gt;Node28</title>
<path fill="none" stroke="midnightblue" d="M1263.77,-305.14C1256.1,-295.74 1246.87,-284.4 1240.63,-276.75"/>
<polygon fill="midnightblue" stroke="midnightblue" points="1261.2,-307.54 1270.23,-313.08 1266.63,-303.12 1261.2,-307.54"/>
</g>
<!-- Node29 -->
<g id="node29" class="node">
<title>Node29</title>
<g id="a_node29"><a xlink:href="signal_handler_8cpp.html" target="_top" xlink:title=" ">
<polygon fill="none" stroke="black" points="1258,-196 1258,-215 1379,-215 1379,-196 1258,-196"/>
<text text-anchor="middle" x="1318.5" y="-203" font-family="Helvetica,sans-Serif" font-size="10.00">src/signalHandler.cpp</text>
</a>
</g>
</g>
<!-- Node1&#45;&gt;Node29 -->
<g id="edge62" class="edge">
<title>Node1&#45;&gt;Node29</title>
<path fill="none" stroke="midnightblue" d="M1289.09,-304.9C1294.15,-296.75 1299.78,-286.69 1303.5,-277 1311.67,-255.74 1315.8,-229.08 1317.51,-215.44"/>
<polygon fill="midnightblue" stroke="midnightblue" points="1286.05,-303.15 1283.54,-313.45 1291.92,-306.96 1286.05,-303.15"/>
</g>
<!-- Node30 -->
<g id="node30" class="node">
<title>Node30</title>
<g id="a_node30"><a xlink:href="_socket_policy_8hpp.html" target="_top" xlink:title=" ">
<polygon fill="none" stroke="black" points="992,-129 992,-148 1107,-148 1107,-129 992,-129"/>
<text text-anchor="middle" x="1049.5" y="-136" font-family="Helvetica,sans-Serif" font-size="10.00">inc/SocketPolicy.hpp</text>
</a>
</g>
</g>
<!-- Node1&#45;&gt;Node30 -->
<g id="edge47" class="edge">
<title>Node1&#45;&gt;Node30</title>
<path fill="none" stroke="midnightblue" d="M1231.27,-316.71C1200.09,-311.16 1159.5,-299.87 1130.5,-277 1085.03,-241.14 1059.82,-172.19 1052.09,-148.08"/>
<polygon fill="midnightblue" stroke="midnightblue" points="1231.02,-320.22 1241.46,-318.38 1232.16,-313.31 1231.02,-320.22"/>
</g>
<!-- Node33 -->
<g id="node33" class="node">
<title>Node33</title>
<g id="a_node33"><a xlink:href="_log_init_8cpp.html" target="_top" xlink:title=" ">
<polygon fill="none" stroke="black" points="1761,-257.5 1761,-276.5 1848,-276.5 1848,-257.5 1761,-257.5"/>
<text text-anchor="middle" x="1804.5" y="-264.5" font-family="Helvetica,sans-Serif" font-size="10.00">src/LogInit.cpp</text>
</a>
</g>
</g>
<!-- Node1&#45;&gt;Node33 -->
<g id="edge61" class="edge">
<title>Node1&#45;&gt;Node33</title>
<path fill="none" stroke="midnightblue" d="M1323.66,-318.75C1408.57,-312.52 1595.15,-297.67 1751.5,-277 1754.55,-276.6 1757.7,-276.15 1760.87,-275.67"/>
<polygon fill="midnightblue" stroke="midnightblue" points="1323.3,-315.27 1313.58,-319.49 1323.8,-322.25 1323.3,-315.27"/>
</g>
<!-- Node3 -->
<g id="node3" class="node">
<title>Node3</title>
<g id="a_node3"><a xlink:href="_mock_epoll_wrapper_8hpp.html" target="_top" xlink:title=" ">
<polygon fill="none" stroke="black" points="535.5,-67.5 535.5,-86.5 681.5,-86.5 681.5,-67.5 535.5,-67.5"/>
<text text-anchor="middle" x="608.5" y="-74.5" font-family="Helvetica,sans-Serif" font-size="10.00">inc/MockEpollWrapper.hpp</text>
</a>
</g>
</g>
<!-- Node2&#45;&gt;Node3 -->
<g id="edge2" class="edge">
<title>Node2&#45;&gt;Node3</title>
<path fill="none" stroke="midnightblue" d="M798.3,-126.47C753.06,-114.91 682.97,-97.02 641.82,-86.51"/>
<polygon fill="midnightblue" stroke="midnightblue" points="797.56,-129.89 808.12,-128.98 799.29,-123.11 797.56,-129.89"/>
</g>
<!-- Node2&#45;&gt;Node14 -->
<g id="edge13" class="edge">
<title>Node2&#45;&gt;Node14</title>
<path fill="none" stroke="midnightblue" d="M899.1,-127.15C964.73,-115.35 1070.48,-96.34 1129.38,-85.75"/>
<polygon fill="midnightblue" stroke="midnightblue" points="898.15,-123.76 888.92,-128.98 899.39,-130.65 898.15,-123.76"/>
</g>
<!-- Node17 -->
<g id="node17" class="node">
<title>Node17</title>
<g id="a_node17"><a xlink:href="_epoll_wrapper_8cpp.html" target="_top" xlink:title=" ">
<polygon fill="none" stroke="black" points="700,-67.5 700,-86.5 819,-86.5 819,-67.5 700,-67.5"/>
<text text-anchor="middle" x="759.5" y="-74.5" font-family="Helvetica,sans-Serif" font-size="10.00">src/EpollWrapper.cpp</text>
</a>
</g>
</g>
<!-- Node2&#45;&gt;Node17 -->
<g id="edge26" class="edge">
<title>Node2&#45;&gt;Node17</title>
<path fill="none" stroke="midnightblue" d="M821.23,-122.79C805.5,-111.38 784.25,-95.96 771.23,-86.51"/>
<polygon fill="midnightblue" stroke="midnightblue" points="819.6,-125.93 829.75,-128.98 823.71,-120.27 819.6,-125.93"/>
</g>
<!-- Node4 -->
<g id="node4" class="node">
<title>Node4</title>
<g id="a_node4"><a xlink:href="test__accept_connections_8cpp.html" target="_top" xlink:title=" ">
<polygon fill="none" stroke="black" points="1240,-6 1240,-25 1415,-25 1415,-6 1240,-6"/>
<text text-anchor="middle" x="1327.5" y="-13" font-family="Helvetica,sans-Serif" font-size="10.00">test/test_acceptConnections.cpp</text>
</a>
</g>
</g>
<!-- Node3&#45;&gt;Node4 -->
<g id="edge3" class="edge">
<title>Node3&#45;&gt;Node4</title>
<path fill="none" stroke="midnightblue" d="M691.88,-66.92C931.81,-46.17 994.62,-56.45 1230.5,-31 1245.23,-29.41 1261.15,-27.23 1275.75,-25.04"/>
<polygon fill="midnightblue" stroke="midnightblue" points="691.46,-63.44 681.8,-67.8 692.07,-70.41 691.46,-63.44"/>
</g>
<!-- Node5 -->
<g id="node5" class="node">
<title>Node5</title>
<g id="a_node5"><a xlink:href="test__check_for_timeout_8cpp.html" target="_top" xlink:title=" ">
<polygon fill="none" stroke="black" points="1433,-6 1433,-25 1600,-25 1600,-6 1433,-6"/>
<text text-anchor="middle" x="1516.5" y="-13" font-family="Helvetica,sans-Serif" font-size="10.00">test/test_checkForTimeout.cpp</text>
</a>
</g>
</g>
<!-- Node3&#45;&gt;Node5 -->
<g id="edge4" class="edge">
<title>Node3&#45;&gt;Node5</title>
<path fill="none" stroke="midnightblue" d="M691.99,-66.93C1017.38,-41.66 1102.35,-63.83 1423.5,-31 1437.97,-29.52 1453.62,-27.32 1467.88,-25.07"/>
<polygon fill="midnightblue" stroke="midnightblue" points="691.49,-63.46 681.8,-67.73 692.04,-70.44 691.49,-63.46"/>
</g>
<!-- Node6 -->
<g id="node6" class="node">
<title>Node6</title>
<g id="a_node6"><a xlink:href="test__connection_receive_header_8cpp.html" target="_top" xlink:title=" ">
<polygon fill="none" stroke="black" points="0,-0.5 0,-30.5 155,-30.5 155,-0.5 0,-0.5"/>
<text text-anchor="start" x="8" y="-18.5" font-family="Helvetica,sans-Serif" font-size="10.00">test/test_connectionReceive</text>
<text text-anchor="middle" x="77.5" y="-7.5" font-family="Helvetica,sans-Serif" font-size="10.00">Header.cpp</text>
</a>
</g>
</g>
<!-- Node3&#45;&gt;Node6 -->
<g id="edge5" class="edge">
<title>Node3&#45;&gt;Node6</title>
<path fill="none" stroke="midnightblue" d="M525.19,-69.16C435.82,-61.45 289.83,-47.78 164.5,-31 161.46,-30.59 158.37,-30.16 155.25,-29.71"/>
<polygon fill="midnightblue" stroke="midnightblue" points="525,-72.66 535.26,-70.03 525.6,-65.68 525,-72.66"/>
</g>
<!-- Node7 -->
<g id="node7" class="node">
<title>Node7</title>
<g id="a_node7"><a xlink:href="test__connection_send_response_8cpp.html" target="_top" xlink:title=" ">
<polygon fill="none" stroke="black" points="173.5,-0.5 173.5,-30.5 313.5,-30.5 313.5,-0.5 173.5,-0.5"/>
<text text-anchor="start" x="181.5" y="-18.5" font-family="Helvetica,sans-Serif" font-size="10.00">test/test_connectionSend</text>
<text text-anchor="middle" x="243.5" y="-7.5" font-family="Helvetica,sans-Serif" font-size="10.00">Response.cpp</text>
</a>
</g>
</g>
<!-- Node3&#45;&gt;Node7 -->
<g id="edge6" class="edge">
<title>Node3&#45;&gt;Node7</title>
<path fill="none" stroke="midnightblue" d="M541.32,-65.92C483.31,-57.1 397.29,-43.75 322.5,-31 319.61,-30.51 316.67,-30 313.69,-29.48"/>
<polygon fill="midnightblue" stroke="midnightblue" points="541.04,-69.42 551.45,-67.46 542.09,-62.5 541.04,-69.42"/>
</g>
<!-- Node8 -->
<g id="node8" class="node">
<title>Node8</title>
<g id="a_node8"><a xlink:href="test__create_virtual_server_8cpp.html" target="_top" xlink:title=" ">
<polygon fill="none" stroke="black" points="331.5,-6 331.5,-25 507.5,-25 507.5,-6 331.5,-6"/>
<text text-anchor="middle" x="419.5" y="-13" font-family="Helvetica,sans-Serif" font-size="10.00">test/test_createVirtualServer.cpp</text>
</a>
</g>
</g>
<!-- Node3&#45;&gt;Node8 -->
<g id="edge7" class="edge">
<title>Node3&#45;&gt;Node8</title>
<path fill="none" stroke="midnightblue" d="M571.59,-64.38C534.85,-52.82 479.35,-35.34 446.53,-25.01"/>
<polygon fill="midnightblue" stroke="midnightblue" points="570.83,-67.81 581.42,-67.48 572.93,-61.13 570.83,-67.81"/>
</g>
<!-- Node9 -->
<g id="node9" class="node">
<title>Node9</title>
<g id="a_node9"><a xlink:href="test__init_virtual_servers_8cpp.html" target="_top" xlink:title=" ">
<polygon fill="none" stroke="black" points="525,-6 525,-25 692,-25 692,-6 525,-6"/>
<text text-anchor="middle" x="608.5" y="-13" font-family="Helvetica,sans-Serif" font-size="10.00">test/test_initVirtualServers.cpp</text>
</a>
</g>
</g>
<!-- Node3&#45;&gt;Node9 -->
<g id="edge8" class="edge">
<title>Node3&#45;&gt;Node9</title>
<path fill="none" stroke="midnightblue" d="M608.5,-57.32C608.5,-46.5 608.5,-33.4 608.5,-25.01"/>
<polygon fill="midnightblue" stroke="midnightblue" points="605,-57.48 608.5,-67.48 612,-57.48 605,-57.48"/>
</g>
<!-- Node10 -->
<g id="node10" class="node">
<title>Node10</title>
<g id="a_node10"><a xlink:href="test__is_duplicate_server_8cpp.html" target="_top" xlink:title=" ">
<polygon fill="none" stroke="black" points="709.5,-6 709.5,-25 877.5,-25 877.5,-6 709.5,-6"/>
<text text-anchor="middle" x="793.5" y="-13" font-family="Helvetica,sans-Serif" font-size="10.00">test/test_isDuplicateServer.cpp</text>
</a>
</g>
</g>
<!-- Node3&#45;&gt;Node10 -->
<g id="edge9" class="edge">
<title>Node3&#45;&gt;Node10</title>
<path fill="none" stroke="midnightblue" d="M644.63,-64.38C680.59,-52.82 734.92,-35.34 767.04,-25.01"/>
<polygon fill="midnightblue" stroke="midnightblue" points="643.45,-61.08 635.01,-67.48 645.6,-67.75 643.45,-61.08"/>
</g>
<!-- Node11 -->
<g id="node11" class="node">
<title>Node11</title>
<g id="a_node11"><a xlink:href="test__register_connection_8cpp.html" target="_top" xlink:title=" ">
<polygon fill="none" stroke="black" points="896,-6 896,-25 1071,-25 1071,-6 896,-6"/>
<text text-anchor="middle" x="983.5" y="-13" font-family="Helvetica,sans-Serif" font-size="10.00">test/test_registerConnection.cpp</text>
</a>
</g>
</g>
<!-- Node3&#45;&gt;Node11 -->
<g id="edge10" class="edge">
<title>Node3&#45;&gt;Node11</title>
<path fill="none" stroke="midnightblue" d="M672.15,-65.9C744.65,-54.4 861.83,-35.8 929.87,-25.01"/>
<polygon fill="midnightblue" stroke="midnightblue" points="671.56,-62.45 662.23,-67.48 672.65,-69.36 671.56,-62.45"/>
</g>
<!-- Node12 -->
<g id="node12" class="node">
<title>Node12</title>
<g id="a_node12"><a xlink:href="test__register_virtual_server_8cpp.html" target="_top" xlink:title=" ">
<polygon fill="none" stroke="black" points="1089.5,-0.5 1089.5,-30.5 1221.5,-30.5 1221.5,-0.5 1089.5,-0.5"/>
<text text-anchor="start" x="1097.5" y="-18.5" font-family="Helvetica,sans-Serif" font-size="10.00">test/test_registerVirtual</text>
<text text-anchor="middle" x="1155.5" y="-7.5" font-family="Helvetica,sans-Serif" font-size="10.00">Server.cpp</text>
</a>
</g>
</g>
<!-- Node3&#45;&gt;Node12 -->
<g id="edge11" class="edge">
<title>Node3&#45;&gt;Node12</title>
<path fill="none" stroke="midnightblue" d="M691.77,-66.89C864.94,-49.73 910.77,-54.85 1079.5,-31 1082.69,-30.55 1085.95,-30.05 1089.24,-29.53"/>
<polygon fill="midnightblue" stroke="midnightblue" points="691.41,-63.41 681.81,-67.89 692.11,-70.38 691.41,-63.41"/>
</g>
<!-- Node13 -->
<g id="node13" class="node">
<title>Node13</title>
<g id="a_node13"><a xlink:href="test__shutdown_server_8cpp.html" target="_top" xlink:title=" ">
<polygon fill="none" stroke="black" points="1618,-6 1618,-25 1779,-25 1779,-6 1618,-6"/>
<text text-anchor="middle" x="1698.5" y="-13" font-family="Helvetica,sans-Serif" font-size="10.00">test/test_shutdownServer.cpp</text>
</a>
</g>
</g>
<!-- Node3&#45;&gt;Node13 -->
<g id="edge12" class="edge">
<title>Node3&#45;&gt;Node13</title>
<path fill="none" stroke="midnightblue" d="M691.79,-66.96C1099.39,-37.26 1205.48,-71.22 1608.5,-31 1622.83,-29.57 1638.35,-27.32 1652.39,-25.02"/>
<polygon fill="midnightblue" stroke="midnightblue" points="691.51,-63.47 681.79,-67.7 692.02,-70.45 691.51,-63.47"/>
</g>
<!-- Node14&#45;&gt;Node4 -->
<g id="edge16" class="edge">
<title>Node14&#45;&gt;Node4</title>
<path fill="none" stroke="midnightblue" d="M1204.33,-63.78C1234.45,-52.22 1278.88,-35.16 1305.33,-25.01"/>
<polygon fill="midnightblue" stroke="midnightblue" points="1202.79,-60.62 1194.71,-67.48 1205.3,-67.16 1202.79,-60.62"/>
</g>
<!-- Node14&#45;&gt;Node5 -->
<g id="edge17" class="edge">
<title>Node14&#45;&gt;Node5</title>
<path fill="none" stroke="midnightblue" d="M1225.91,-66.76C1291.93,-55.34 1403.37,-36.07 1467.35,-25"/>
<polygon fill="midnightblue" stroke="midnightblue" points="1224.98,-63.37 1215.72,-68.52 1226.17,-70.27 1224.98,-63.37"/>
</g>
<!-- Node14&#45;&gt;Node6 -->
<g id="edge18" class="edge">
<title>Node14&#45;&gt;Node6</title>
<path fill="none" stroke="midnightblue" d="M1119.8,-67.03C1119.7,-67.02 1119.6,-67.01 1119.5,-67 697,-23.35 587.06,-74 164.5,-31 161.45,-30.69 158.35,-30.34 155.22,-29.96"/>
<polygon fill="midnightblue" stroke="midnightblue" points="1119.12,-70.47 1129.47,-68.21 1119.96,-63.52 1119.12,-70.47"/>
</g>
<!-- Node14&#45;&gt;Node7 -->
<g id="edge19" class="edge">
<title>Node14&#45;&gt;Node7</title>
<path fill="none" stroke="midnightblue" d="M1119.8,-67.03C1119.7,-67.02 1119.6,-67.01 1119.5,-67 766.93,-29.25 674.81,-71.1 322.5,-31 319.59,-30.67 316.63,-30.29 313.64,-29.89"/>
<polygon fill="midnightblue" stroke="midnightblue" points="1119.11,-70.47 1129.46,-68.24 1119.97,-63.53 1119.11,-70.47"/>
</g>
<!-- Node14&#45;&gt;Node8 -->
<g id="edge20" class="edge">
<title>Node14&#45;&gt;Node8</title>
<path fill="none" stroke="midnightblue" d="M1119.8,-67.03C1119.7,-67.02 1119.6,-67.01 1119.5,-67 852.32,-36.44 782.95,-59.11 515.5,-31 500.75,-29.45 484.79,-27.25 470.21,-25.03"/>
<polygon fill="midnightblue" stroke="midnightblue" points="1119.09,-70.47 1129.46,-68.29 1119.99,-63.53 1119.09,-70.47"/>
</g>
<!-- Node14&#45;&gt;Node9 -->
<g id="edge21" class="edge">
<title>Node14&#45;&gt;Node9</title>
<path fill="none" stroke="midnightblue" d="M1119.8,-67.04C1119.7,-67.03 1119.6,-67.01 1119.5,-67 934.1,-43.33 886.04,-53.56 700.5,-31 686.86,-29.34 672.13,-27.18 658.55,-25.05"/>
<polygon fill="midnightblue" stroke="midnightblue" points="1119.06,-70.47 1129.45,-68.38 1120.02,-63.54 1119.06,-70.47"/>
</g>
<!-- Node14&#45;&gt;Node10 -->
<g id="edge22" class="edge">
<title>Node14&#45;&gt;Node10</title>
<path fill="none" stroke="midnightblue" d="M1119.8,-67.05C1119.7,-67.03 1119.6,-67.02 1119.5,-67 1016.07,-50.23 990.04,-47.07 886.5,-31 874.07,-29.07 860.7,-26.99 848.08,-25.02"/>
<polygon fill="midnightblue" stroke="midnightblue" points="1118.98,-70.46 1129.41,-68.63 1120.11,-63.55 1118.98,-70.46"/>
</g>
<!-- Node14&#45;&gt;Node11 -->
<g id="edge23" class="edge">
<title>Node14&#45;&gt;Node11</title>
<path fill="none" stroke="midnightblue" d="M1135.59,-64.38C1098.85,-52.82 1043.35,-35.34 1010.53,-25.01"/>
<polygon fill="midnightblue" stroke="midnightblue" points="1134.83,-67.81 1145.42,-67.48 1136.93,-61.13 1134.83,-67.81"/>
</g>
<!-- Node14&#45;&gt;Node12 -->
<g id="edge24" class="edge">
<title>Node14&#45;&gt;Node12</title>
<path fill="none" stroke="midnightblue" d="M1167.3,-57.82C1164.8,-49.04 1161.84,-38.68 1159.51,-30.52"/>
<polygon fill="midnightblue" stroke="midnightblue" points="1163.95,-58.82 1170.06,-67.48 1170.68,-56.9 1163.95,-58.82"/>
</g>
<!-- Node14&#45;&gt;Node13 -->
<g id="edge25" class="edge">
<title>Node14&#45;&gt;Node13</title>
<path fill="none" stroke="midnightblue" d="M1225.69,-67.49C1226.97,-67.32 1228.24,-67.16 1229.5,-67 1397.37,-45.8 1440.66,-52.47 1608.5,-31 1621.69,-29.31 1635.91,-27.17 1649.07,-25.06"/>
<polygon fill="midnightblue" stroke="midnightblue" points="1225.14,-64.04 1215.72,-68.89 1226.11,-70.97 1225.14,-64.04"/>
</g>
<!-- Node15 -->
<g id="node15" class="node">
<title>Node15</title>
<g id="a_node15"><a xlink:href="main_8cpp.html" target="_top" xlink:title=" ">
<polygon fill="none" stroke="black" points="1797,-6 1797,-25 1876,-25 1876,-6 1797,-6"/>
<text text-anchor="middle" x="1836.5" y="-13" font-family="Helvetica,sans-Serif" font-size="10.00">src/main.cpp</text>
</a>
</g>
</g>
<!-- Node14&#45;&gt;Node15 -->
<g id="edge14" class="edge">
<title>Node14&#45;&gt;Node15</title>
<path fill="none" stroke="midnightblue" d="M1226.02,-75.93C1333.4,-74.94 1582.38,-68.41 1787.5,-31 1795.44,-29.55 1803.93,-27.3 1811.57,-25"/>
<polygon fill="midnightblue" stroke="midnightblue" points="1225.74,-72.43 1215.77,-76.01 1225.8,-79.43 1225.74,-72.43"/>
</g>
<!-- Node16 -->
<g id="node16" class="node">
<title>Node16</title>
<g id="a_node16"><a xlink:href="_server_8cpp.html" target="_top" xlink:title=" ">
<polygon fill="none" stroke="black" points="1894,-6 1894,-25 1979,-25 1979,-6 1894,-6"/>
<text text-anchor="middle" x="1936.5" y="-13" font-family="Helvetica,sans-Serif" font-size="10.00">src/Server.cpp</text>
</a>
</g>
</g>
<!-- Node14&#45;&gt;Node16 -->
<g id="edge15" class="edge">
<title>Node14&#45;&gt;Node16</title>
<path fill="none" stroke="midnightblue" d="M1226.23,-74.06C1369.42,-68.65 1757.91,-52.41 1884.5,-31 1892.91,-29.58 1901.91,-27.33 1910.02,-25.03"/>
<polygon fill="midnightblue" stroke="midnightblue" points="1225.81,-70.57 1215.95,-74.44 1226.07,-77.57 1225.81,-70.57"/>
</g>
<!-- Node18&#45;&gt;Node14 -->
<g id="edge31" class="edge">
<title>Node18&#45;&gt;Node14</title>
<path fill="none" stroke="midnightblue" d="M1609.33,-255.78C1566.63,-248.52 1511.63,-237.16 1464.5,-221 1407.23,-201.36 1240.93,-114.24 1188.52,-86.51"/>
<polygon fill="midnightblue" stroke="midnightblue" points="1608.92,-259.26 1619.36,-257.45 1610.07,-252.35 1608.92,-259.26"/>
</g>
<!-- Node18&#45;&gt;Node19 -->
<g id="edge28" class="edge">
<title>Node18&#45;&gt;Node19</title>
<path fill="none" stroke="midnightblue" d="M1668.22,-249.12C1648.39,-221.86 1610.01,-169.08 1594.87,-148.26"/>
<polygon fill="midnightblue" stroke="midnightblue" points="1665.46,-251.28 1674.18,-257.31 1671.13,-247.16 1665.46,-251.28"/>
</g>
<!-- Node21 -->
<g id="node21" class="node">
<title>Node21</title>
<g id="a_node21"><a xlink:href="_target_resource_handler_8hpp.html" target="_top" xlink:title=" ">
<polygon fill="none" stroke="black" points="1950,-196 1950,-215 2117,-215 2117,-196 1950,-196"/>
<text text-anchor="middle" x="2033.5" y="-203" font-family="Helvetica,sans-Serif" font-size="10.00">inc/TargetResourceHandler.hpp</text>
</a>
</g>
</g>
<!-- Node18&#45;&gt;Node21 -->
<g id="edge32" class="edge">
<title>Node18&#45;&gt;Node21</title>
<path fill="none" stroke="midnightblue" d="M1741.26,-255.76C1809.56,-244.25 1919.23,-225.76 1983.02,-215.01"/>
<polygon fill="midnightblue" stroke="midnightblue" points="1740.36,-252.36 1731.08,-257.48 1741.52,-259.26 1740.36,-252.36"/>
</g>
<!-- Node23 -->
<g id="node23" class="node">
<title>Node23</title>
<g id="a_node23"><a xlink:href="test___target_resource_handler_8cpp.html" target="_top" xlink:title=" ">
<polygon fill="none" stroke="black" points="2076,-123.5 2076,-153.5 2213,-153.5 2213,-123.5 2076,-123.5"/>
<text text-anchor="start" x="2084" y="-141.5" font-family="Helvetica,sans-Serif" font-size="10.00">test/test_TargetResource</text>
<text text-anchor="middle" x="2144.5" y="-130.5" font-family="Helvetica,sans-Serif" font-size="10.00">Handler.cpp</text>
</a>
</g>
</g>
<!-- Node18&#45;&gt;Node23 -->
<g id="edge40" class="edge">
<title>Node18&#45;&gt;Node23</title>
<path fill="none" stroke="midnightblue" d="M1752.99,-257.05C1850.32,-249.63 2064.87,-274.05 2125.5,-221 2144.63,-204.26 2146.49,-172.32 2145.74,-153.79"/>
<polygon fill="midnightblue" stroke="midnightblue" points="1752.46,-253.58 1742.83,-257.99 1753.11,-260.55 1752.46,-253.58"/>
</g>
<!-- Node24 -->
<g id="node24" class="node">
<title>Node24</title>
<g id="a_node24"><a xlink:href="_request_parser_8cpp.html" target="_top" xlink:title=" ">
<polygon fill="none" stroke="black" points="2173,-196 2173,-215 2296,-215 2296,-196 2173,-196"/>
<text text-anchor="middle" x="2234.5" y="-203" font-family="Helvetica,sans-Serif" font-size="10.00">src/RequestParser.cpp</text>
</a>
</g>
</g>
<!-- Node18&#45;&gt;Node24 -->
<g id="edge36" class="edge">
<title>Node18&#45;&gt;Node24</title>
<path fill="none" stroke="midnightblue" d="M1752.94,-256.89C1933.78,-237.87 1981.89,-245.6 2158.5,-221 2170.07,-219.39 2182.56,-217.2 2194,-215.01"/>
<polygon fill="midnightblue" stroke="midnightblue" points="1752.4,-253.43 1742.82,-257.96 1753.14,-260.39 1752.4,-253.43"/>
</g>
<!-- Node25 -->
<g id="node25" class="node">
<title>Node25</title>
<g id="a_node25"><a xlink:href="test__parse_body_8cpp.html" target="_top" xlink:title=" ">
<polygon fill="none" stroke="black" points="1474,-196 1474,-215 1607,-215 1607,-196 1474,-196"/>
<text text-anchor="middle" x="1540.5" y="-203" font-family="Helvetica,sans-Serif" font-size="10.00">test/test_parseBody.cpp</text>
</a>
</g>
</g>
<!-- Node18&#45;&gt;Node25 -->
<g id="edge37" class="edge">
<title>Node18&#45;&gt;Node25</title>
<path fill="none" stroke="midnightblue" d="M1651.04,-253.48C1623.85,-241.92 1584.21,-225.08 1560.52,-215.01"/>
<polygon fill="midnightblue" stroke="midnightblue" points="1649.87,-256.78 1660.44,-257.48 1652.61,-250.34 1649.87,-256.78"/>
</g>
<!-- Node26 -->
<g id="node26" class="node">
<title>Node26</title>
<g id="a_node26"><a xlink:href="test__parse_header___headers_8cpp.html" target="_top" xlink:title=" ">
<polygon fill="none" stroke="black" points="1664,-190.5 1664,-220.5 1789,-220.5 1789,-190.5 1664,-190.5"/>
<text text-anchor="start" x="1672" y="-208.5" font-family="Helvetica,sans-Serif" font-size="10.00">test/test_parseHeader</text>
<text text-anchor="middle" x="1726.5" y="-197.5" font-family="Helvetica,sans-Serif" font-size="10.00">_Headers.cpp</text>
</a>
</g>
</g>
<!-- Node18&#45;&gt;Node26 -->
<g id="edge38" class="edge">
<title>Node18&#45;&gt;Node26</title>
<path fill="none" stroke="midnightblue" d="M1693.23,-249.53C1700.28,-240.42 1708.94,-229.21 1715.66,-220.52"/>
<polygon fill="midnightblue" stroke="midnightblue" points="1690.44,-247.42 1687.09,-257.48 1695.98,-251.7 1690.44,-247.42"/>
</g>
<!-- Node27 -->
<g id="node27" class="node">
<title>Node27</title>
<g id="a_node27"><a xlink:href="test__parse_header___request_line_8cpp.html" target="_top" xlink:title=" ">
<polygon fill="none" stroke="black" points="1807,-190.5 1807,-220.5 1932,-220.5 1932,-190.5 1807,-190.5"/>
<text text-anchor="start" x="1815" y="-208.5" font-family="Helvetica,sans-Serif" font-size="10.00">test/test_parseHeader</text>
<text text-anchor="middle" x="1869.5" y="-197.5" font-family="Helvetica,sans-Serif" font-size="10.00">_RequestLine.cpp</text>
</a>
</g>
</g>
<!-- Node18&#45;&gt;Node27 -->
<g id="edge39" class="edge">
<title>Node18&#45;&gt;Node27</title>
<path fill="none" stroke="midnightblue" d="M1717.48,-254.36C1748.28,-244.66 1792.23,-230.83 1824.96,-220.52"/>
<polygon fill="midnightblue" stroke="midnightblue" points="1716.07,-251.13 1707.58,-257.48 1718.17,-257.81 1716.07,-251.13"/>
</g>
<!-- Node19&#45;&gt;Node14 -->
<g id="edge29" class="edge">
<title>Node19&#45;&gt;Node14</title>
<path fill="none" stroke="midnightblue" d="M1518.9,-127.55C1432.38,-115.17 1287.34,-94.43 1215.51,-84.15"/>
<polygon fill="midnightblue" stroke="midnightblue" points="1518.5,-131.02 1528.9,-128.98 1519.49,-124.09 1518.5,-131.02"/>
</g>
<!-- Node20 -->
<g id="node20" class="node">
<title>Node20</title>
<g id="a_node20"><a xlink:href="_response_builder_8cpp.html" target="_top" xlink:title=" ">
<polygon fill="none" stroke="black" points="1521,-67.5 1521,-86.5 1656,-86.5 1656,-67.5 1521,-67.5"/>
<text text-anchor="middle" x="1588.5" y="-74.5" font-family="Helvetica,sans-Serif" font-size="10.00">src/ResponseBuilder.cpp</text>
</a>
</g>
</g>
<!-- Node19&#45;&gt;Node20 -->
<g id="edge30" class="edge">
<title>Node19&#45;&gt;Node20</title>
<path fill="none" stroke="midnightblue" d="M1588.5,-118.82C1588.5,-108 1588.5,-94.9 1588.5,-86.51"/>
<polygon fill="midnightblue" stroke="midnightblue" points="1585,-118.98 1588.5,-128.98 1592,-118.98 1585,-118.98"/>
</g>
<!-- Node21&#45;&gt;Node19 -->
<g id="edge33" class="edge">
<title>Node21&#45;&gt;Node19</title>
<path fill="none" stroke="midnightblue" d="M1969.42,-194.41C1959.74,-192.91 1949.86,-191.4 1940.5,-190 1838.54,-174.74 1719.81,-157.9 1649.58,-148.03"/>
<polygon fill="midnightblue" stroke="midnightblue" points="1969,-197.88 1979.42,-195.95 1970.08,-190.96 1969,-197.88"/>
</g>
<!-- Node22 -->
<g id="node22" class="node">
<title>Node22</title>
<g id="a_node22"><a xlink:href="_target_resource_handler_8cpp.html" target="_top" xlink:title=" ">
<polygon fill="none" stroke="black" points="1891,-129 1891,-148 2058,-148 2058,-129 1891,-129"/>
<text text-anchor="middle" x="1974.5" y="-136" font-family="Helvetica,sans-Serif" font-size="10.00">src/TargetResourceHandler.cpp</text>
</a>
</g>
</g>
<!-- Node21&#45;&gt;Node22 -->
<g id="edge34" class="edge">
<title>Node21&#45;&gt;Node22</title>
<path fill="none" stroke="midnightblue" d="M2018.65,-188.13C2007.11,-175.42 1991.56,-158.3 1982.33,-148.13"/>
<polygon fill="midnightblue" stroke="midnightblue" points="2016.23,-190.68 2025.54,-195.73 2021.41,-185.98 2016.23,-190.68"/>
</g>
<!-- Node21&#45;&gt;Node23 -->
<g id="edge35" class="edge">
<title>Node21&#45;&gt;Node23</title>
<path fill="none" stroke="midnightblue" d="M2057.23,-190.6C2075.87,-179.69 2101.72,-164.55 2120.44,-153.59"/>
<polygon fill="midnightblue" stroke="midnightblue" points="2055.33,-187.66 2048.47,-195.73 2058.87,-193.7 2055.33,-187.66"/>
</g>
<!-- Node28&#45;&gt;Node13 -->
<g id="edge46" class="edge">
<title>Node28&#45;&gt;Node13</title>
<path fill="none" stroke="midnightblue" d="M1232.66,-247.31C1232.89,-230.62 1235.7,-206.35 1248.5,-190 1328.03,-88.38 1390.31,-111.32 1511.5,-67 1561.4,-48.75 1620.94,-33.79 1659.21,-25.01"/>
<polygon fill="midnightblue" stroke="midnightblue" points="1229.17,-247.52 1232.84,-257.46 1236.17,-247.4 1229.17,-247.52"/>
</g>
<!-- Node28&#45;&gt;Node14 -->
<g id="edge44" class="edge">
<title>Node28&#45;&gt;Node14</title>
<path fill="none" stroke="midnightblue" d="M1225.94,-248.16C1222.57,-239.95 1218.66,-230.05 1215.5,-221 1197.96,-170.83 1180.94,-109.31 1174.85,-86.79"/>
<polygon fill="midnightblue" stroke="midnightblue" points="1222.74,-249.58 1229.82,-257.46 1229.2,-246.88 1222.74,-249.58"/>
</g>
<!-- Node28&#45;&gt;Node29 -->
<g id="edge45" class="edge">
<title>Node28&#45;&gt;Node29</title>
<path fill="none" stroke="midnightblue" d="M1254.05,-251.61C1270.4,-240.17 1292.72,-224.55 1306.34,-215.01"/>
<polygon fill="midnightblue" stroke="midnightblue" points="1251.86,-248.87 1245.68,-257.48 1255.88,-254.61 1251.86,-248.87"/>
</g>
<!-- Node30&#45;&gt;Node14 -->
<g id="edge59" class="edge">
<title>Node30&#45;&gt;Node14</title>
<path fill="none" stroke="midnightblue" d="M1076.33,-124.52C1100.19,-112.98 1134.37,-96.44 1154.91,-86.51"/>
<polygon fill="midnightblue" stroke="midnightblue" points="1074.6,-121.47 1067.12,-128.98 1077.65,-127.77 1074.6,-121.47"/>
</g>
<!-- Node31 -->
<g id="node31" class="node">
<title>Node31</title>
<g id="a_node31"><a xlink:href="_mock_socket_policy_8hpp.html" target="_top" xlink:title=" ">
<polygon fill="none" stroke="black" points="970,-67.5 970,-86.5 1111,-86.5 1111,-67.5 970,-67.5"/>
<text text-anchor="middle" x="1040.5" y="-74.5" font-family="Helvetica,sans-Serif" font-size="10.00">inc/MockSocketPolicy.hpp</text>
</a>
</g>
</g>
<!-- Node30&#45;&gt;Node31 -->
<g id="edge48" class="edge">
<title>Node30&#45;&gt;Node31</title>
<path fill="none" stroke="midnightblue" d="M1046.67,-118.82C1045.04,-108 1043.06,-94.9 1041.79,-86.51"/>
<polygon fill="midnightblue" stroke="midnightblue" points="1043.25,-119.61 1048.21,-128.98 1050.18,-118.56 1043.25,-119.61"/>
</g>
<!-- Node32 -->
<g id="node32" class="node">
<title>Node32</title>
<g id="a_node32"><a xlink:href="_socket_policy_8cpp.html" target="_top" xlink:title=" ">
<polygon fill="none" stroke="black" points="837.5,-67.5 837.5,-86.5 951.5,-86.5 951.5,-67.5 837.5,-67.5"/>
<text text-anchor="middle" x="894.5" y="-74.5" font-family="Helvetica,sans-Serif" font-size="10.00">src/SocketPolicy.cpp</text>
</a>
</g>
</g>
<!-- Node30&#45;&gt;Node32 -->
<g id="edge60" class="edge">
<title>Node30&#45;&gt;Node32</title>
<path fill="none" stroke="midnightblue" d="M1017.67,-125.28C987.55,-113.72 943.12,-96.66 916.67,-86.51"/>
<polygon fill="midnightblue" stroke="midnightblue" points="1016.7,-128.66 1027.29,-128.98 1019.21,-122.12 1016.7,-128.66"/>
</g>
<!-- Node31&#45;&gt;Node4 -->
<g id="edge49" class="edge">
<title>Node31&#45;&gt;Node4</title>
<path fill="none" stroke="midnightblue" d="M1091.62,-65.4C1147.26,-53.87 1235.13,-35.65 1286.46,-25.01"/>
<polygon fill="midnightblue" stroke="midnightblue" points="1090.7,-62.02 1081.62,-67.48 1092.12,-68.87 1090.7,-62.02"/>
</g>
<!-- Node31&#45;&gt;Node5 -->
<g id="edge50" class="edge">
<title>Node31&#45;&gt;Node5</title>
<path fill="none" stroke="midnightblue" d="M1121.15,-66.89C1215.77,-56.13 1366.94,-38.73 1423.5,-31 1436.61,-29.21 1450.74,-27.1 1463.92,-25.05"/>
<polygon fill="midnightblue" stroke="midnightblue" points="1120.57,-63.43 1111.03,-68.04 1121.36,-70.38 1120.57,-63.43"/>
</g>
<!-- Node31&#45;&gt;Node6 -->
<g id="edge51" class="edge">
<title>Node31&#45;&gt;Node6</title>
<path fill="none" stroke="midnightblue" d="M959.84,-67.01C605.75,-39.72 513.42,-67.83 164.5,-31 161.45,-30.68 158.35,-30.32 155.23,-29.93"/>
<polygon fill="midnightblue" stroke="midnightblue" points="959.61,-70.5 969.85,-67.79 960.16,-63.53 959.61,-70.5"/>
</g>
<!-- Node31&#45;&gt;Node7 -->
<g id="edge52" class="edge">
<title>Node31&#45;&gt;Node7</title>
<path fill="none" stroke="midnightblue" d="M959.66,-66.99C675.76,-43.61 601.2,-64.31 322.5,-31 319.59,-30.65 316.63,-30.26 313.64,-29.84"/>
<polygon fill="midnightblue" stroke="midnightblue" points="959.59,-70.49 969.85,-67.84 960.18,-63.52 959.59,-70.49"/>
</g>
<!-- Node31&#45;&gt;Node8 -->
<g id="edge53" class="edge">
<title>Node31&#45;&gt;Node8</title>
<path fill="none" stroke="midnightblue" d="M959.67,-66.95C761.28,-48.1 709.33,-53.45 515.5,-31 501.27,-29.35 485.9,-27.2 471.73,-25.06"/>
<polygon fill="midnightblue" stroke="midnightblue" points="959.55,-70.46 969.84,-67.93 960.22,-63.49 959.55,-70.46"/>
</g>
<!-- Node31&#45;&gt;Node9 -->
<g id="edge54" class="edge">
<title>Node31&#45;&gt;Node9</title>
<path fill="none" stroke="midnightblue" d="M962.03,-66.17C893.07,-57.4 790.04,-43.98 700.5,-31 687.7,-29.14 673.91,-27.03 661.01,-25.01"/>
<polygon fill="midnightblue" stroke="midnightblue" points="962.01,-69.7 972.38,-67.49 962.9,-62.76 962.01,-69.7"/>
</g>
<!-- Node31&#45;&gt;Node10 -->
<g id="edge55" class="edge">
<title>Node31&#45;&gt;Node10</title>
<path fill="none" stroke="midnightblue" d="M995.31,-65.11C947.37,-53.57 872.63,-35.56 828.82,-25.01"/>
<polygon fill="midnightblue" stroke="midnightblue" points="994.57,-68.54 1005.11,-67.48 996.21,-61.73 994.57,-68.54"/>
</g>
<!-- Node31&#45;&gt;Node11 -->
<g id="edge56" class="edge">
<title>Node31&#45;&gt;Node11</title>
<path fill="none" stroke="midnightblue" d="M1025.17,-60C1014.38,-48.74 1000.36,-34.1 991.65,-25.01"/>
<polygon fill="midnightblue" stroke="midnightblue" points="1022.89,-62.68 1032.33,-67.48 1027.94,-57.83 1022.89,-62.68"/>
</g>
<!-- Node31&#45;&gt;Node12 -->
<g id="edge57" class="edge">
<title>Node31&#45;&gt;Node12</title>
<path fill="none" stroke="midnightblue" d="M1066,-62.81C1084.51,-53.23 1109.52,-40.29 1128.4,-30.52"/>
<polygon fill="midnightblue" stroke="midnightblue" points="1064.25,-59.77 1056.98,-67.48 1067.47,-65.99 1064.25,-59.77"/>
</g>
<!-- Node31&#45;&gt;Node13 -->
<g id="edge58" class="edge">
<title>Node31&#45;&gt;Node13</title>
<path fill="none" stroke="midnightblue" d="M1121.3,-66.97C1338.76,-47.12 1395.77,-55.94 1608.5,-31 1622.18,-29.4 1636.95,-27.21 1650.5,-25.02"/>
<polygon fill="midnightblue" stroke="midnightblue" points="1120.79,-63.5 1111.16,-67.9 1121.43,-70.47 1120.79,-63.5"/>
</g>
</g>
</svg>
