<?xml version="1.0" encoding="UTF-8" standalone="no"?>
<!DOCTYPE svg PUBLIC "-//W3C//DTD SVG 1.1//EN"
 "http://www.w3.org/Graphics/SVG/1.1/DTD/svg11.dtd">
<!-- Generated by graphviz version 2.43.0 (0)
 -->
<!-- Title: src/LogOstreamInserters.cpp Pages: 1 -->
<svg width="1083pt" height="247pt"
 viewBox="0.00 0.00 1083.13 247.00" xmlns="http://www.w3.org/2000/svg" xmlns:xlink="http://www.w3.org/1999/xlink">
<g id="graph0" class="graph" transform="scale(1 1) rotate(0) translate(4 243)">
<title>src/LogOstreamInserters.cpp</title>
<!-- Node1 -->
<g id="Node000001" class="node">
<title>Node1</title>
<g id="a_Node000001"><a xlink:title=" ">
<polygon fill="#999999" stroke="#666666" points="550.1,-239 394.1,-239 394.1,-220 550.1,-220 550.1,-239"/>
<text text-anchor="middle" x="472.1" y="-227" font-family="Helvetica,sans-Serif" font-size="10.00">src/LogOstreamInserters.cpp</text>
</a>
</g>
</g>
<!-- Node2 -->
<g id="Node000002" class="node">
<title>Node2</title>
<g id="a_Node000002"><a xlink:href="_config_file_8hpp.html" target="_top" xlink:title=" ">
<polygon fill="white" stroke="#666666" points="419.1,-129 333.1,-129 333.1,-110 419.1,-110 419.1,-129"/>
<text text-anchor="middle" x="376.1" y="-117" font-family="Helvetica,sans-Serif" font-size="10.00">ConfigFile.hpp</text>
</a>
</g>
</g>
<!-- Node1&#45;&gt;Node2 -->
<g id="edge1_Node000001_Node000002" class="edge">
<title>Node1&#45;&gt;Node2</title>
<g id="a_edge1_Node000001_Node000002"><a xlink:title=" ">
<path fill="none" stroke="#63b8ff" d="M464.24,-219.66C448.13,-201.54 411.13,-159.91 390.56,-136.77"/>
<polygon fill="#63b8ff" stroke="#63b8ff" points="393.06,-134.31 383.8,-129.16 387.82,-138.96 393.06,-134.31"/>
</a>
</g>
</g>
<!-- Node5 -->
<g id="Node000005" class="node">
<title>Node5</title>
<g id="a_Node000005"><a xlink:href="_status_code_8hpp.html" target="_top" xlink:title=" ">
<polygon fill="white" stroke="#666666" points="106.6,-74 13.6,-74 13.6,-55 106.6,-55 106.6,-74"/>
<text text-anchor="middle" x="60.1" y="-62" font-family="Helvetica,sans-Serif" font-size="10.00">StatusCode.hpp</text>
</a>
</g>
</g>
<!-- Node1&#45;&gt;Node5 -->
<g id="edge42_Node000001_Node000005" class="edge">
<title>Node1&#45;&gt;Node5</title>
<g id="a_edge42_Node000001_Node000005"><a xlink:title=" ">
<path fill="none" stroke="#63b8ff" d="M448.24,-219.85C423.63,-210.91 384.16,-196.54 350.1,-184 284.25,-159.75 267.05,-155.56 202.1,-129 161.85,-112.54 116.06,-91.67 87.62,-78.44"/>
<polygon fill="#63b8ff" stroke="#63b8ff" points="88.86,-75.16 78.32,-74.1 85.9,-81.5 88.86,-75.16"/>
</a>
</g>
</g>
<!-- Node12 -->
<g id="Node000012" class="node">
<title>Node12</title>
<g id="a_Node000012"><a xlink:title=" ">
<polygon fill="#e0e0e0" stroke="#999999" points="661.6,-74 614.6,-74 614.6,-55 661.6,-55 661.6,-74"/>
<text text-anchor="middle" x="638.1" y="-62" font-family="Helvetica,sans-Serif" font-size="10.00">vector</text>
</a>
</g>
</g>
<!-- Node1&#45;&gt;Node12 -->
<g id="edge44_Node000001_Node000012" class="edge">
<title>Node1&#45;&gt;Node12</title>
<g id="a_edge44_Node000001_Node000012"><a xlink:title=" ">
<path fill="none" stroke="#63b8ff" d="M541.99,-219.95C566.22,-213.66 591.66,-202.78 609.1,-184 634.6,-156.54 638.7,-110.45 638.81,-84.58"/>
<polygon fill="#63b8ff" stroke="#63b8ff" points="642.3,-84.2 638.64,-74.26 635.3,-84.32 642.3,-84.2"/>
</a>
</g>
</g>
<!-- Node13 -->
<g id="Node000013" class="node">
<title>Node13</title>
<g id="a_Node000013"><a xlink:href="_connection_8hpp.html" target="_top" xlink:title=" ">
<polygon fill="white" stroke="#666666" points="600.1,-184 508.1,-184 508.1,-165 600.1,-165 600.1,-184"/>
<text text-anchor="middle" x="554.1" y="-172" font-family="Helvetica,sans-Serif" font-size="10.00">Connection.hpp</text>
</a>
</g>
</g>
<!-- Node1&#45;&gt;Node13 -->
<g id="edge14_Node000001_Node000013" class="edge">
<title>Node1&#45;&gt;Node13</title>
<g id="a_edge14_Node000001_Node000013"><a xlink:title=" ">
<path fill="none" stroke="#63b8ff" d="M485.27,-219.98C497.87,-211.84 517.1,-199.41 532.04,-189.76"/>
<polygon fill="#63b8ff" stroke="#63b8ff" points="534.19,-192.54 540.69,-184.17 530.39,-186.66 534.19,-192.54"/>
</a>
</g>
</g>
<!-- Node14 -->
<g id="Node000014" class="node">
<title>Node14</title>
<g id="a_Node000014"><a xlink:href="_h_t_t_p_request_8hpp.html" target="_top" xlink:title=" ">
<polygon fill="white" stroke="#666666" points="314.6,-129 211.6,-129 211.6,-110 314.6,-110 314.6,-129"/>
<text text-anchor="middle" x="263.1" y="-117" font-family="Helvetica,sans-Serif" font-size="10.00">HTTPRequest.hpp</text>
</a>
</g>
</g>
<!-- Node1&#45;&gt;Node14 -->
<g id="edge40_Node000001_Node000014" class="edge">
<title>Node1&#45;&gt;Node14</title>
<g id="a_edge40_Node000001_Node000014"><a xlink:title=" ">
<path fill="none" stroke="#63b8ff" d="M455.35,-219.84C418.88,-201 332.08,-156.14 288.7,-133.73"/>
<polygon fill="#63b8ff" stroke="#63b8ff" points="290.13,-130.53 279.64,-129.05 286.92,-136.75 290.13,-130.53"/>
</a>
</g>
</g>
<!-- Node15 -->
<g id="Node000015" class="node">
<title>Node15</title>
<g id="a_Node000015"><a xlink:href="_socket_8hpp.html" target="_top" xlink:title=" ">
<polygon fill="white" stroke="#666666" points="507.1,-129 437.1,-129 437.1,-110 507.1,-110 507.1,-129"/>
<text text-anchor="middle" x="472.1" y="-117" font-family="Helvetica,sans-Serif" font-size="10.00">Socket.hpp</text>
</a>
</g>
</g>
<!-- Node1&#45;&gt;Node15 -->
<g id="edge41_Node000001_Node000015" class="edge">
<title>Node1&#45;&gt;Node15</title>
<g id="a_edge41_Node000001_Node000015"><a xlink:title=" ">
<path fill="none" stroke="#63b8ff" d="M472.1,-219.66C472.1,-202.17 472.1,-162.8 472.1,-139.27"/>
<polygon fill="#63b8ff" stroke="#63b8ff" points="475.6,-139.16 472.1,-129.16 468.6,-139.16 475.6,-139.16"/>
</a>
</g>
</g>
<!-- Node18 -->
<g id="Node000018" class="node">
<title>Node18</title>
<g id="a_Node000018"><a xlink:title=" ">
<polygon fill="#e0e0e0" stroke="#999999" points="1062.1,-74 1010.1,-74 1010.1,-55 1062.1,-55 1062.1,-74"/>
<text text-anchor="middle" x="1036.1" y="-62" font-family="Helvetica,sans-Serif" font-size="10.00">cassert</text>
</a>
</g>
</g>
<!-- Node1&#45;&gt;Node18 -->
<g id="edge43_Node000001_Node000018" class="edge">
<title>Node1&#45;&gt;Node18</title>
<g id="a_edge43_Node000001_Node000018"><a xlink:title=" ">
<path fill="none" stroke="#63b8ff" d="M503.7,-219.99C566.06,-203.12 709.3,-164.06 829.1,-129 889.43,-111.34 959.26,-89.66 1000.44,-76.75"/>
<polygon fill="#63b8ff" stroke="#63b8ff" points="1001.53,-80.07 1010.02,-73.74 999.43,-73.39 1001.53,-80.07"/>
</a>
</g>
</g>
<!-- Node3 -->
<g id="Node000003" class="node">
<title>Node3</title>
<g id="a_Node000003"><a xlink:href="_method_8hpp.html" target="_top" xlink:title=" ">
<polygon fill="white" stroke="#666666" points="319.1,-74 245.1,-74 245.1,-55 319.1,-55 319.1,-74"/>
<text text-anchor="middle" x="282.1" y="-62" font-family="Helvetica,sans-Serif" font-size="10.00">Method.hpp</text>
</a>
</g>
</g>
<!-- Node2&#45;&gt;Node3 -->
<g id="edge2_Node000002_Node000003" class="edge">
<title>Node2&#45;&gt;Node3</title>
<g id="a_edge2_Node000002_Node000003"><a xlink:title=" ">
<path fill="none" stroke="#63b8ff" d="M361,-109.98C346.28,-101.69 323.68,-88.94 306.43,-79.22"/>
<polygon fill="#63b8ff" stroke="#63b8ff" points="307.91,-76.03 297.48,-74.17 304.47,-82.13 307.91,-76.03"/>
</a>
</g>
</g>
<!-- Node4 -->
<g id="Node000004" class="node">
<title>Node4</title>
<g id="a_Node000004"><a xlink:title=" ">
<polygon fill="#e0e0e0" stroke="#999999" points="312.1,-19 252.1,-19 252.1,0 312.1,0 312.1,-19"/>
<text text-anchor="middle" x="282.1" y="-7" font-family="Helvetica,sans-Serif" font-size="10.00">iostream</text>
</a>
</g>
</g>
<!-- Node2&#45;&gt;Node4 -->
<g id="edge9_Node000002_Node000004" class="edge">
<title>Node2&#45;&gt;Node4</title>
<g id="a_edge9_Node000002_Node000004"><a xlink:title=" ">
<path fill="none" stroke="#63b8ff" d="M384.85,-109.69C396.52,-96.84 414.35,-72.6 402.1,-55 384.27,-29.36 349.84,-18.46 322.43,-13.85"/>
<polygon fill="#63b8ff" stroke="#63b8ff" points="322.71,-10.35 312.31,-12.37 321.7,-17.28 322.71,-10.35"/>
</a>
</g>
</g>
<!-- Node2&#45;&gt;Node5 -->
<g id="edge4_Node000002_Node000005" class="edge">
<title>Node2&#45;&gt;Node5</title>
<g id="a_edge4_Node000002_Node000005"><a xlink:title=" ">
<path fill="none" stroke="#63b8ff" d="M332.82,-111.24C276.7,-101.83 178.68,-85.39 116.7,-74.99"/>
<polygon fill="#63b8ff" stroke="#63b8ff" points="117.14,-71.52 106.7,-73.32 115.99,-78.42 117.14,-71.52"/>
</a>
</g>
</g>
<!-- Node6 -->
<g id="Node000006" class="node">
<title>Node6</title>
<g id="a_Node000006"><a xlink:href="constants_8hpp.html" target="_top" xlink:title=" ">
<polygon fill="white" stroke="#666666" points="596.6,-74 511.6,-74 511.6,-55 596.6,-55 596.6,-74"/>
<text text-anchor="middle" x="554.1" y="-62" font-family="Helvetica,sans-Serif" font-size="10.00">constants.hpp</text>
</a>
</g>
</g>
<!-- Node2&#45;&gt;Node6 -->
<g id="edge6_Node000002_Node000006" class="edge">
<title>Node2&#45;&gt;Node6</title>
<g id="a_edge6_Node000002_Node000006"><a xlink:title=" ">
<path fill="none" stroke="#63b8ff" d="M404.7,-109.98C434.71,-101.05 482.08,-86.94 515.42,-77.02"/>
<polygon fill="#63b8ff" stroke="#63b8ff" points="516.69,-80.29 525.28,-74.08 514.69,-73.58 516.69,-80.29"/>
</a>
</g>
</g>
<!-- Node8 -->
<g id="Node000008" class="node">
<title>Node8</title>
<g id="a_Node000008"><a xlink:title=" ">
<polygon fill="#e0e0e0" stroke="#999999" points="392.6,-74 337.6,-74 337.6,-55 392.6,-55 392.6,-74"/>
<text text-anchor="middle" x="365.1" y="-62" font-family="Helvetica,sans-Serif" font-size="10.00">fstream</text>
</a>
</g>
</g>
<!-- Node2&#45;&gt;Node8 -->
<g id="edge8_Node000002_Node000008" class="edge">
<title>Node2&#45;&gt;Node8</title>
<g id="a_edge8_Node000002_Node000008"><a xlink:title=" ">
<path fill="none" stroke="#63b8ff" d="M374.28,-109.75C372.84,-102.8 370.78,-92.85 368.97,-84.13"/>
<polygon fill="#63b8ff" stroke="#63b8ff" points="372.34,-83.17 366.88,-74.09 365.49,-84.59 372.34,-83.17"/>
</a>
</g>
</g>
<!-- Node9 -->
<g id="Node000009" class="node">
<title>Node9</title>
<g id="a_Node000009"><a xlink:title=" ">
<polygon fill="#e0e0e0" stroke="#999999" points="163.1,-74 125.1,-74 125.1,-55 163.1,-55 163.1,-74"/>
<text text-anchor="middle" x="144.1" y="-62" font-family="Helvetica,sans-Serif" font-size="10.00">map</text>
</a>
</g>
</g>
<!-- Node2&#45;&gt;Node9 -->
<g id="edge10_Node000002_Node000009" class="edge">
<title>Node2&#45;&gt;Node9</title>
<g id="a_edge10_Node000002_Node000009"><a xlink:title=" ">
<path fill="none" stroke="#63b8ff" d="M332.88,-110.12C293.53,-102.25 233.64,-89.7 173.05,-74.09"/>
<polygon fill="#63b8ff" stroke="#63b8ff" points="173.88,-70.69 163.32,-71.56 172.12,-77.46 173.88,-70.69"/>
</a>
</g>
</g>
<!-- Node10 -->
<g id="Node000010" class="node">
<title>Node10</title>
<g id="a_Node000010"><a xlink:title=" ">
<polygon fill="#e0e0e0" stroke="#999999" points="493.1,-74 449.1,-74 449.1,-55 493.1,-55 493.1,-74"/>
<text text-anchor="middle" x="471.1" y="-62" font-family="Helvetica,sans-Serif" font-size="10.00">string</text>
</a>
</g>
</g>
<!-- Node2&#45;&gt;Node10 -->
<g id="edge11_Node000002_Node000010" class="edge">
<title>Node2&#45;&gt;Node10</title>
<g id="a_edge11_Node000002_Node000010"><a xlink:title=" ">
<path fill="none" stroke="#63b8ff" d="M391.36,-109.98C406.23,-101.69 429.08,-88.94 446.52,-79.22"/>
<polygon fill="#63b8ff" stroke="#63b8ff" points="448.53,-82.1 455.56,-74.17 445.12,-75.99 448.53,-82.1"/>
</a>
</g>
</g>
<!-- Node11 -->
<g id="Node000011" class="node">
<title>Node11</title>
<g id="a_Node000011"><a xlink:title=" ">
<polygon fill="#e0e0e0" stroke="#999999" points="226.6,-74 181.6,-74 181.6,-55 226.6,-55 226.6,-74"/>
<text text-anchor="middle" x="204.1" y="-62" font-family="Helvetica,sans-Serif" font-size="10.00">utility</text>
</a>
</g>
</g>
<!-- Node2&#45;&gt;Node11 -->
<g id="edge12_Node000002_Node000011" class="edge">
<title>Node2&#45;&gt;Node11</title>
<g id="a_edge12_Node000002_Node000011"><a xlink:title=" ">
<path fill="none" stroke="#63b8ff" d="M348.47,-109.98C317.96,-100.58 268.91,-85.47 236.58,-75.51"/>
<polygon fill="#63b8ff" stroke="#63b8ff" points="237.31,-72.07 226.72,-72.47 235.25,-78.76 237.31,-72.07"/>
</a>
</g>
</g>
<!-- Node2&#45;&gt;Node12 -->
<g id="edge13_Node000002_Node000012" class="edge">
<title>Node2&#45;&gt;Node12</title>
<g id="a_edge13_Node000002_Node000012"><a xlink:title=" ">
<path fill="none" stroke="#63b8ff" d="M419.52,-111.01C463.82,-103.17 534.75,-90.06 604.54,-74.24"/>
<polygon fill="#63b8ff" stroke="#63b8ff" points="605.41,-77.64 614.38,-71.99 603.85,-70.81 605.41,-77.64"/>
</a>
</g>
</g>
<!-- Node3&#45;&gt;Node4 -->
<g id="edge3_Node000003_Node000004" class="edge">
<title>Node3&#45;&gt;Node4</title>
<g id="a_edge3_Node000003_Node000004"><a xlink:title=" ">
<path fill="none" stroke="#63b8ff" d="M282.1,-54.75C282.1,-47.8 282.1,-37.85 282.1,-29.13"/>
<polygon fill="#63b8ff" stroke="#63b8ff" points="285.6,-29.09 282.1,-19.09 278.6,-29.09 285.6,-29.09"/>
</a>
</g>
</g>
<!-- Node5&#45;&gt;Node4 -->
<g id="edge5_Node000005_Node000004" class="edge">
<title>Node5&#45;&gt;Node4</title>
<g id="a_edge5_Node000005_Node000004"><a xlink:title=" ">
<path fill="none" stroke="#63b8ff" d="M95.77,-54.98C135.74,-45.44 200.38,-30.01 242.06,-20.06"/>
<polygon fill="#63b8ff" stroke="#63b8ff" points="242.96,-23.44 251.87,-17.72 241.33,-16.64 242.96,-23.44"/>
</a>
</g>
</g>
<!-- Node7 -->
<g id="Node000007" class="node">
<title>Node7</title>
<g id="a_Node000007"><a xlink:title=" ">
<polygon fill="#e0e0e0" stroke="#999999" points="848.6,-19 795.6,-19 795.6,0 848.6,0 848.6,-19"/>
<text text-anchor="middle" x="822.1" y="-7" font-family="Helvetica,sans-Serif" font-size="10.00">cstddef</text>
</a>
</g>
</g>
<!-- Node6&#45;&gt;Node7 -->
<g id="edge7_Node000006_Node000007" class="edge">
<title>Node6&#45;&gt;Node7</title>
<g id="a_edge7_Node000006_Node000007"><a xlink:title=" ">
<path fill="none" stroke="#63b8ff" d="M596.86,-55.04C649.01,-44.73 736.28,-27.47 785.48,-17.74"/>
<polygon fill="#63b8ff" stroke="#63b8ff" points="786.24,-21.16 795.37,-15.79 784.88,-14.29 786.24,-21.16"/>
</a>
</g>
</g>
<!-- Node13&#45;&gt;Node2 -->
<g id="edge15_Node000013_Node000002" class="edge">
<title>Node13&#45;&gt;Node2</title>
<g id="a_edge15_Node000013_Node000002"><a xlink:title=" ">
<path fill="none" stroke="#63b8ff" d="M525.5,-164.98C495.49,-156.05 448.12,-141.94 414.78,-132.02"/>
<polygon fill="#63b8ff" stroke="#63b8ff" points="415.51,-128.58 404.92,-129.08 413.51,-135.29 415.51,-128.58"/>
</a>
</g>
</g>
<!-- Node13&#45;&gt;Node7 -->
<g id="edge35_Node000013_Node000007" class="edge">
<title>Node13&#45;&gt;Node7</title>
<g id="a_edge35_Node000013_Node000007"><a xlink:title=" ">
<path fill="none" stroke="#63b8ff" d="M600.52,-171.94C716.29,-166.98 1012.65,-147.22 1071.1,-74 1076.37,-67.4 1076.52,-61.48 1071.1,-55 1044.52,-23.25 921.97,-14.13 859.27,-11.53"/>
<polygon fill="#63b8ff" stroke="#63b8ff" points="859.15,-8.02 849.02,-11.14 858.88,-15.01 859.15,-8.02"/>
</a>
</g>
</g>
<!-- Node13&#45;&gt;Node10 -->
<g id="edge38_Node000013_Node000010" class="edge">
<title>Node13&#45;&gt;Node10</title>
<g id="a_edge38_Node000013_Node000010"><a xlink:title=" ">
<path fill="none" stroke="#63b8ff" d="M549.81,-164.84C543.36,-152.2 530.37,-128.2 516.1,-110 507.9,-99.54 497.4,-89.03 488.61,-80.85"/>
<polygon fill="#63b8ff" stroke="#63b8ff" points="490.88,-78.19 481.12,-74.07 486.18,-83.38 490.88,-78.19"/>
</a>
</g>
</g>
<!-- Node13&#45;&gt;Node14 -->
<g id="edge16_Node000013_Node000014" class="edge">
<title>Node13&#45;&gt;Node14</title>
<g id="a_edge16_Node000013_Node000014"><a xlink:title=" ">
<path fill="none" stroke="#63b8ff" d="M507.99,-165.1C457,-155.81 374.8,-140.84 319.88,-130.84"/>
<polygon fill="#63b8ff" stroke="#63b8ff" points="320.42,-127.38 309.96,-129.03 319.17,-134.27 320.42,-127.38"/>
</a>
</g>
</g>
<!-- Node13&#45;&gt;Node15 -->
<g id="edge22_Node000013_Node000015" class="edge">
<title>Node13&#45;&gt;Node15</title>
<g id="a_edge22_Node000013_Node000015"><a xlink:title=" ">
<path fill="none" stroke="#63b8ff" d="M540.93,-164.98C528.33,-156.84 509.1,-144.41 494.16,-134.76"/>
<polygon fill="#63b8ff" stroke="#63b8ff" points="495.81,-131.66 485.51,-129.17 492.01,-137.54 495.81,-131.66"/>
</a>
</g>
</g>
<!-- Node16 -->
<g id="Node000016" class="node">
<title>Node16</title>
<g id="a_Node000016"><a xlink:href="utilities_8hpp.html" target="_top" xlink:title=" ">
<polygon fill="white" stroke="#666666" points="739.1,-129 665.1,-129 665.1,-110 739.1,-110 739.1,-129"/>
<text text-anchor="middle" x="702.1" y="-117" font-family="Helvetica,sans-Serif" font-size="10.00">utilities.hpp</text>
</a>
</g>
</g>
<!-- Node13&#45;&gt;Node16 -->
<g id="edge24_Node000013_Node000016" class="edge">
<title>Node13&#45;&gt;Node16</title>
<g id="a_edge24_Node000013_Node000016"><a xlink:title=" ">
<path fill="none" stroke="#63b8ff" d="M577.88,-164.98C602.33,-156.23 640.63,-142.51 668.25,-132.62"/>
<polygon fill="#63b8ff" stroke="#63b8ff" points="669.65,-135.84 677.89,-129.17 667.29,-129.25 669.65,-135.84"/>
</a>
</g>
</g>
<!-- Node19 -->
<g id="Node000019" class="node">
<title>Node19</title>
<g id="a_Node000019"><a xlink:title=" ">
<polygon fill="#e0e0e0" stroke="#999999" points="918.1,-74 874.1,-74 874.1,-55 918.1,-55 918.1,-74"/>
<text text-anchor="middle" x="896.1" y="-62" font-family="Helvetica,sans-Serif" font-size="10.00">ctime</text>
</a>
</g>
</g>
<!-- Node13&#45;&gt;Node19 -->
<g id="edge37_Node000013_Node000019" class="edge">
<title>Node13&#45;&gt;Node19</title>
<g id="a_edge37_Node000013_Node000019"><a xlink:title=" ">
<path fill="none" stroke="#63b8ff" d="M600.2,-165.35C639.91,-157.76 698.5,-145.19 748.1,-129 791.8,-114.74 840.42,-92.61 869.61,-78.59"/>
<polygon fill="#63b8ff" stroke="#63b8ff" points="871.25,-81.68 878.73,-74.17 868.2,-75.38 871.25,-81.68"/>
</a>
</g>
</g>
<!-- Node21 -->
<g id="Node000021" class="node">
<title>Node21</title>
<g id="a_Node000021"><a xlink:title=" ">
<polygon fill="#e0e0e0" stroke="#999999" points="992.1,-74 936.1,-74 936.1,-55 992.1,-55 992.1,-74"/>
<text text-anchor="middle" x="964.1" y="-62" font-family="Helvetica,sans-Serif" font-size="10.00">unistd.h</text>
</a>
</g>
</g>
<!-- Node13&#45;&gt;Node21 -->
<g id="edge39_Node000013_Node000021" class="edge">
<title>Node13&#45;&gt;Node21</title>
<g id="a_edge39_Node000013_Node000021"><a xlink:title=" ">
<path fill="none" stroke="#63b8ff" d="M600.36,-166.77C647.52,-159.41 722.59,-146.31 786.1,-129 838.97,-114.59 898.62,-91.96 933.69,-77.96"/>
<polygon fill="#63b8ff" stroke="#63b8ff" points="935.36,-81.06 943.33,-74.08 932.75,-74.57 935.36,-81.06"/>
</a>
</g>
</g>
<!-- Node22 -->
<g id="Node000022" class="node">
<title>Node22</title>
<g id="a_Node000022"><a xlink:title=" ">
<polygon fill="#e0e0e0" stroke="#999999" points="609.1,-129 563.1,-129 563.1,-110 609.1,-110 609.1,-129"/>
<text text-anchor="middle" x="586.1" y="-117" font-family="Helvetica,sans-Serif" font-size="10.00">cstdio</text>
</a>
</g>
</g>
<!-- Node13&#45;&gt;Node22 -->
<g id="edge36_Node000013_Node000022" class="edge">
<title>Node13&#45;&gt;Node22</title>
<g id="a_edge36_Node000013_Node000022"><a xlink:title=" ">
<path fill="none" stroke="#63b8ff" d="M559.38,-164.75C563.81,-157.42 570.26,-146.73 575.72,-137.7"/>
<polygon fill="#63b8ff" stroke="#63b8ff" points="578.74,-139.46 580.91,-129.09 572.75,-135.84 578.74,-139.46"/>
</a>
</g>
</g>
<!-- Node14&#45;&gt;Node3 -->
<g id="edge17_Node000014_Node000003" class="edge">
<title>Node14&#45;&gt;Node3</title>
<g id="a_edge17_Node000014_Node000003"><a xlink:title=" ">
<path fill="none" stroke="#63b8ff" d="M266.24,-109.75C268.78,-102.65 272.46,-92.4 275.63,-83.56"/>
<polygon fill="#63b8ff" stroke="#63b8ff" points="278.94,-84.68 279.02,-74.09 272.35,-82.32 278.94,-84.68"/>
</a>
</g>
</g>
<!-- Node14&#45;&gt;Node4 -->
<g id="edge19_Node000014_Node000004" class="edge">
<title>Node14&#45;&gt;Node4</title>
<g id="a_edge19_Node000014_Node000004"><a xlink:title=" ">
<path fill="none" stroke="#63b8ff" d="M211.48,-117.21C143.65,-114.3 30.08,-104.83 4.1,-74 -1.34,-67.54 -1.38,-61.43 4.1,-55 34.19,-19.71 172.42,-12.29 241.94,-10.81"/>
<polygon fill="#63b8ff" stroke="#63b8ff" points="242.14,-14.31 252.08,-10.62 242.01,-7.31 242.14,-14.31"/>
</a>
</g>
</g>
<!-- Node14&#45;&gt;Node5 -->
<g id="edge18_Node000014_Node000005" class="edge">
<title>Node14&#45;&gt;Node5</title>
<g id="a_edge18_Node000014_Node000005"><a xlink:title=" ">
<path fill="none" stroke="#63b8ff" d="M230.48,-109.98C195.81,-100.93 140.84,-86.58 102.75,-76.64"/>
<polygon fill="#63b8ff" stroke="#63b8ff" points="103.53,-73.22 92.97,-74.08 101.76,-79.99 103.53,-73.22"/>
</a>
</g>
</g>
<!-- Node14&#45;&gt;Node9 -->
<g id="edge20_Node000014_Node000009" class="edge">
<title>Node14&#45;&gt;Node9</title>
<g id="a_edge20_Node000014_Node000009"><a xlink:title=" ">
<path fill="none" stroke="#63b8ff" d="M243.98,-109.98C224.64,-101.37 194.51,-87.95 172.4,-78.1"/>
<polygon fill="#63b8ff" stroke="#63b8ff" points="173.73,-74.87 163.17,-73.99 170.88,-81.26 173.73,-74.87"/>
</a>
</g>
</g>
<!-- Node14&#45;&gt;Node10 -->
<g id="edge21_Node000014_Node000010" class="edge">
<title>Node14&#45;&gt;Node10</title>
<g id="a_edge21_Node000014_Node000010"><a xlink:title=" ">
<path fill="none" stroke="#63b8ff" d="M296.52,-109.98C335.67,-100.01 400.1,-83.59 438.77,-73.74"/>
<polygon fill="#63b8ff" stroke="#63b8ff" points="440.13,-77 448.96,-71.14 438.4,-70.22 440.13,-77"/>
</a>
</g>
</g>
<!-- Node15&#45;&gt;Node10 -->
<g id="edge23_Node000015_Node000010" class="edge">
<title>Node15&#45;&gt;Node10</title>
<g id="a_edge23_Node000015_Node000010"><a xlink:title=" ">
<path fill="none" stroke="#63b8ff" d="M471.93,-109.75C471.8,-102.8 471.62,-92.85 471.45,-84.13"/>
<polygon fill="#63b8ff" stroke="#63b8ff" points="474.95,-84.02 471.26,-74.09 467.95,-84.15 474.95,-84.02"/>
</a>
</g>
</g>
<!-- Node16&#45;&gt;Node3 -->
<g id="edge25_Node000016_Node000003" class="edge">
<title>Node16&#45;&gt;Node3</title>
<g id="a_edge25_Node000016_Node000003"><a xlink:title=" ">
<path fill="none" stroke="#63b8ff" d="M664.91,-114.38C587.19,-105.73 408.81,-85.61 329.31,-74.07"/>
<polygon fill="#63b8ff" stroke="#63b8ff" points="329.63,-70.58 319.22,-72.57 328.6,-77.5 329.63,-70.58"/>
</a>
</g>
</g>
<!-- Node16&#45;&gt;Node4 -->
<g id="edge31_Node000016_Node000004" class="edge">
<title>Node16&#45;&gt;Node4</title>
<g id="a_edge31_Node000016_Node000004"><a xlink:title=" ">
<path fill="none" stroke="#63b8ff" d="M700.59,-109.81C697.66,-95.72 689.73,-68.17 671.1,-55 615.69,-15.84 410.14,-10.69 322.31,-10.33"/>
<polygon fill="#63b8ff" stroke="#63b8ff" points="322.21,-6.83 312.2,-10.3 322.19,-13.83 322.21,-6.83"/>
</a>
</g>
</g>
<!-- Node16&#45;&gt;Node5 -->
<g id="edge26_Node000016_Node000005" class="edge">
<title>Node16&#45;&gt;Node5</title>
<g id="a_edge26_Node000016_Node000005"><a xlink:title=" ">
<path fill="none" stroke="#63b8ff" d="M664.91,-114.5C650.32,-112.99 633.43,-111.33 618.1,-110 398.51,-91.02 340.11,-98.57 116.88,-73.99"/>
<polygon fill="#63b8ff" stroke="#63b8ff" points="117.14,-70.5 106.81,-72.87 116.37,-77.46 117.14,-70.5"/>
</a>
</g>
</g>
<!-- Node16&#45;&gt;Node6 -->
<g id="edge27_Node000016_Node000006" class="edge">
<title>Node16&#45;&gt;Node6</title>
<g id="a_edge27_Node000016_Node000006"><a xlink:title=" ">
<path fill="none" stroke="#63b8ff" d="M678.32,-109.98C653.87,-101.23 615.57,-87.51 587.95,-77.62"/>
<polygon fill="#63b8ff" stroke="#63b8ff" points="588.91,-74.25 578.31,-74.17 586.55,-80.84 588.91,-74.25"/>
</a>
</g>
</g>
<!-- Node16&#45;&gt;Node12 -->
<g id="edge34_Node000016_Node000012" class="edge">
<title>Node16&#45;&gt;Node12</title>
<g id="a_edge34_Node000016_Node000012"><a xlink:title=" ">
<path fill="none" stroke="#63b8ff" d="M691.82,-109.98C682.26,-102.07 667.82,-90.11 656.32,-80.58"/>
<polygon fill="#63b8ff" stroke="#63b8ff" points="658.5,-77.85 648.57,-74.17 654.04,-83.24 658.5,-77.85"/>
</a>
</g>
</g>
<!-- Node17 -->
<g id="Node000017" class="node">
<title>Node17</title>
<g id="a_Node000017"><a xlink:title=" ">
<polygon fill="#e0e0e0" stroke="#999999" points="856.1,-74 792.1,-74 792.1,-55 856.1,-55 856.1,-74"/>
<text text-anchor="middle" x="824.1" y="-62" font-family="Helvetica,sans-Serif" font-size="10.00">algorithm</text>
</a>
</g>
</g>
<!-- Node16&#45;&gt;Node17 -->
<g id="edge28_Node000016_Node000017" class="edge">
<title>Node16&#45;&gt;Node17</title>
<g id="a_edge28_Node000016_Node000017"><a xlink:title=" ">
<path fill="none" stroke="#63b8ff" d="M721.7,-109.98C741.42,-101.42 772.05,-88.11 794.68,-78.28"/>
<polygon fill="#63b8ff" stroke="#63b8ff" points="796.36,-81.37 804.14,-74.17 793.58,-74.94 796.36,-81.37"/>
</a>
</g>
</g>
<!-- Node16&#45;&gt;Node18 -->
<g id="edge29_Node000016_Node000018" class="edge">
<title>Node16&#45;&gt;Node18</title>
<g id="a_edge29_Node000016_Node000018"><a xlink:title=" ">
<path fill="none" stroke="#63b8ff" d="M739.11,-114.09C793.95,-107.31 900.22,-93.26 999.85,-74.09"/>
<polygon fill="#63b8ff" stroke="#63b8ff" points="1000.64,-77.51 1009.78,-72.16 999.3,-70.64 1000.64,-77.51"/>
</a>
</g>
</g>
<!-- Node16&#45;&gt;Node19 -->
<g id="edge30_Node000016_Node000019" class="edge">
<title>Node16&#45;&gt;Node19</title>
<g id="a_edge30_Node000016_Node000019"><a xlink:title=" ">
<path fill="none" stroke="#63b8ff" d="M733.35,-109.98C764.18,-101.57 812.91,-88.28 864.15,-74.26"/>
<polygon fill="#63b8ff" stroke="#63b8ff" points="865.36,-77.55 874.09,-71.54 863.52,-70.8 865.36,-77.55"/>
</a>
</g>
</g>
<!-- Node20 -->
<g id="Node000020" class="node">
<title>Node20</title>
<g id="a_Node000020"><a xlink:title=" ">
<polygon fill="#e0e0e0" stroke="#999999" points="774.1,-74 718.1,-74 718.1,-55 774.1,-55 774.1,-74"/>
<text text-anchor="middle" x="746.1" y="-62" font-family="Helvetica,sans-Serif" font-size="10.00">sstream</text>
</a>
</g>
</g>
<!-- Node16&#45;&gt;Node20 -->
<g id="edge32_Node000016_Node000020" class="edge">
<title>Node16&#45;&gt;Node20</title>
<g id="a_edge32_Node000016_Node000020"><a xlink:title=" ">
<path fill="none" stroke="#63b8ff" d="M709.37,-109.75C715.64,-102.18 724.89,-91.05 732.53,-81.84"/>
<polygon fill="#63b8ff" stroke="#63b8ff" points="735.27,-84.02 738.97,-74.09 729.89,-79.55 735.27,-84.02"/>
</a>
</g>
</g>
<!-- Node16&#45;&gt;Node21 -->
<g id="edge33_Node000016_Node000021" class="edge">
<title>Node16&#45;&gt;Node21</title>
<g id="a_edge33_Node000016_Node000021"><a xlink:title=" ">
<path fill="none" stroke="#63b8ff" d="M739.2,-111.52C781.85,-103.42 854.22,-89.43 925.75,-74.24"/>
<polygon fill="#63b8ff" stroke="#63b8ff" points="926.79,-77.6 935.84,-72.09 925.33,-70.75 926.79,-77.6"/>
</a>
</g>
</g>
</g>
</svg>
