<?xml version="1.0" encoding="UTF-8" standalone="no"?>
<!DOCTYPE svg PUBLIC "-//W3C//DTD SVG 1.1//EN"
 "http://www.w3.org/Graphics/SVG/1.1/DTD/svg11.dtd">
<!-- Generated by graphviz version 2.43.0 (0)
 -->
<!-- Title: src/LogOstreamInserters.cpp Pages: 1 -->
<!--zoomable 252 -->
<svg id="main" version="1.1" xmlns="http://www.w3.org/2000/svg" xmlns:xlink="http://www.w3.org/1999/xlink" xml:space="preserve" onload="init(evt)">
<style type="text/css"><![CDATA[
.edge:hover path { stroke: red; }
.edge:hover polygon { stroke: red; fill: red; }
]]></style>
<script type="text/javascript"><![CDATA[
var edges = document.getElementsByTagName('g');
if (edges && edges.length) {
  for (var i=0;i<edges.length;i++) {
    if (edges[i].id.substr(0,4)=='edge') {
      edges[i].setAttribute('class','edge');
    }
  }
}
]]></script>
        <defs>
                <circle id="rim" cx="0" cy="0" r="7"/>
                <circle id="rim2" cx="0" cy="0" r="3.5"/>
                <g id="zoomPlus">
                        <use xlink:href="#rim" fill="#404040">
                                <set attributeName="fill" to="#808080" begin="zoomplus.mouseover" end="zoomplus.mouseout"/>
                        </use>
                        <path d="M-4,0h8M0,-4v8" fill="none" stroke="white" stroke-width="1.5" pointer-events="none"/>
                </g>
                <g id="zoomMin">
                        <use xlink:href="#rim" fill="#404040">
                                <set attributeName="fill" to="#808080" begin="zoomminus.mouseover" end="zoomminus.mouseout"/>
                        </use>
                        <path d="M-4,0h8" fill="none" stroke="white" stroke-width="1.5" pointer-events="none"/>
                </g>
                <g id="dirArrow">
                        <path fill="none" stroke="white" stroke-width="1.5" d="M0,-3.0v7 M-2.5,-0.5L0,-3.0L2.5,-0.5"/>
                </g>
               <g id="resetDef">
                       <use xlink:href="#rim2" fill="#404040">
                               <set attributeName="fill" to="#808080" begin="reset.mouseover" end="reset.mouseout"/>
                       </use>
               </g>
        </defs>

<script type="text/javascript">
var viewWidth = 1010;
var viewHeight = 252;
var sectionId = 'dynsection-0';
</script>
<script xlink:href="svgpan.js"/>
<svg id="graph" class="graph">
<g id="viewport">
<title>src/LogOstreamInserters.cpp</title>
<!-- Node1 -->
<g id="node1" class="node">
<title>Node1</title>
<g id="a_node1"><a xlink:title=" ">
<polygon fill="#bfbfbf" stroke="black" points="300.95,-224.5 300.95,-243.5 456.95,-243.5 456.95,-224.5 300.95,-224.5"/>
<text text-anchor="middle" x="378.95" y="-231.5" font-family="Helvetica,sans-Serif" font-size="10.00">src/LogOstreamInserters.cpp</text>
</a>
</g>
</g>
<!-- Node2 -->
<g id="node2" class="node">
<title>Node2</title>
<g id="a_node2"><a xlink:href="_config_file_8hpp.html" target="_top" xlink:title=" ">
<polygon fill="none" stroke="black" points="239.95,-112.5 239.95,-131.5 325.95,-131.5 325.95,-112.5 239.95,-112.5"/>
<text text-anchor="middle" x="282.95" y="-119.5" font-family="Helvetica,sans-Serif" font-size="10.00">ConfigFile.hpp</text>
</a>
</g>
</g>
<!-- Node1&#45;&gt;Node2 -->
<g id="edge1" class="edge">
<title>Node1&#45;&gt;Node2</title>
<path fill="none" stroke="midnightblue" d="M371.41,-224.37C355.43,-206.05 317.9,-163.05 297.23,-139.36"/>
<polygon fill="midnightblue" stroke="midnightblue" points="299.66,-136.82 290.44,-131.59 294.38,-141.43 299.66,-136.82"/>
</g>
<!-- Node4 -->
<g id="node4" class="node">
<title>Node4</title>
<g id="a_node4"><a xlink:href="_status_code_8hpp.html" target="_top" xlink:title=" ">
<polygon fill="none" stroke="black" points="73.45,-56.5 73.45,-75.5 166.45,-75.5 166.45,-56.5 73.45,-56.5"/>
<text text-anchor="middle" x="119.95" y="-63.5" font-family="Helvetica,sans-Serif" font-size="10.00">StatusCode.hpp</text>
</a>
</g>
</g>
<!-- Node1&#45;&gt;Node4 -->
<g id="edge38" class="edge">
<title>Node1&#45;&gt;Node4</title>
<path fill="none" stroke="midnightblue" d="M300.77,-227.4C237.19,-218.23 151.32,-194.27 108.95,-132 99.52,-118.14 104.47,-98.87 110.45,-84.91"/>
<polygon fill="midnightblue" stroke="midnightblue" points="113.63,-86.37 114.78,-75.84 107.31,-83.35 113.63,-86.37"/>
</g>
<!-- Node9 -->
<g id="node9" class="node">
<title>Node9</title>
<g id="a_node9"><a xlink:title=" ">
<polygon fill="none" stroke="#bfbfbf" points="450.45,-56.5 450.45,-75.5 497.45,-75.5 497.45,-56.5 450.45,-56.5"/>
<text text-anchor="middle" x="473.95" y="-63.5" font-family="Helvetica,sans-Serif" font-size="10.00">vector</text>
</a>
</g>
</g>
<!-- Node1&#45;&gt;Node9 -->
<g id="edge40" class="edge">
<title>Node1&#45;&gt;Node9</title>
<path fill="none" stroke="midnightblue" d="M457.02,-226.64C517.95,-216.96 598.21,-192.7 634.95,-132 639.55,-124.4 640.32,-119.08 634.95,-112 634.45,-111.35 554.4,-89.19 507.38,-76.21"/>
<polygon fill="midnightblue" stroke="midnightblue" points="508.18,-72.8 497.61,-73.52 506.32,-79.55 508.18,-72.8"/>
</g>
<!-- Node10 -->
<g id="node10" class="node">
<title>Node10</title>
<g id="a_node10"><a xlink:href="_connection_8hpp.html" target="_top" xlink:title=" ">
<polygon fill="none" stroke="black" points="426.95,-168.5 426.95,-187.5 518.95,-187.5 518.95,-168.5 426.95,-168.5"/>
<text text-anchor="middle" x="472.95" y="-175.5" font-family="Helvetica,sans-Serif" font-size="10.00">Connection.hpp</text>
</a>
</g>
</g>
<!-- Node1&#45;&gt;Node10 -->
<g id="edge10" class="edge">
<title>Node1&#45;&gt;Node10</title>
<path fill="none" stroke="midnightblue" d="M394.05,-224.32C408.85,-215.82 431.64,-202.73 448.93,-192.8"/>
<polygon fill="midnightblue" stroke="midnightblue" points="450.95,-195.67 457.88,-187.65 447.47,-189.6 450.95,-195.67"/>
</g>
<!-- Node11 -->
<g id="node11" class="node">
<title>Node11</title>
<g id="a_node11"><a xlink:href="_h_t_t_p_request_8hpp.html" target="_top" xlink:title=" ">
<polygon fill="none" stroke="black" points="118.45,-112.5 118.45,-131.5 221.45,-131.5 221.45,-112.5 118.45,-112.5"/>
<text text-anchor="middle" x="169.95" y="-119.5" font-family="Helvetica,sans-Serif" font-size="10.00">HTTPRequest.hpp</text>
</a>
</g>
</g>
<!-- Node1&#45;&gt;Node11 -->
<g id="edge36" class="edge">
<title>Node1&#45;&gt;Node11</title>
<path fill="none" stroke="midnightblue" d="M362.55,-224.37C326.22,-205.25 238.78,-159.23 195.33,-136.36"/>
<polygon fill="midnightblue" stroke="midnightblue" points="196.75,-133.15 186.27,-131.59 193.49,-139.35 196.75,-133.15"/>
</g>
<!-- Node12 -->
<g id="node12" class="node">
<title>Node12</title>
<g id="a_node12"><a xlink:href="_socket_8hpp.html" target="_top" xlink:title=" ">
<polygon fill="none" stroke="black" points="343.95,-112.5 343.95,-131.5 413.95,-131.5 413.95,-112.5 343.95,-112.5"/>
<text text-anchor="middle" x="378.95" y="-119.5" font-family="Helvetica,sans-Serif" font-size="10.00">Socket.hpp</text>
</a>
</g>
</g>
<!-- Node1&#45;&gt;Node12 -->
<g id="edge37" class="edge">
<title>Node1&#45;&gt;Node12</title>
<path fill="none" stroke="midnightblue" d="M378.95,-224.37C378.95,-206.62 378.95,-165.67 378.95,-141.6"/>
<polygon fill="midnightblue" stroke="midnightblue" points="382.45,-141.59 378.95,-131.59 375.45,-141.59 382.45,-141.59"/>
</g>
<!-- Node16 -->
<g id="node16" class="node">
<title>Node16</title>
<g id="a_node16"><a xlink:title=" ">
<polygon fill="none" stroke="#bfbfbf" points="949.95,-56.5 949.95,-75.5 1001.95,-75.5 1001.95,-56.5 949.95,-56.5"/>
<text text-anchor="middle" x="975.95" y="-63.5" font-family="Helvetica,sans-Serif" font-size="10.00">cassert</text>
</a>
</g>
</g>
<!-- Node1&#45;&gt;Node16 -->
<g id="edge39" class="edge">
<title>Node1&#45;&gt;Node16</title>
<path fill="none" stroke="midnightblue" d="M427.01,-224.46C472.72,-216.08 543.31,-202.49 603.95,-188 694.14,-166.45 716.84,-160.95 804.95,-132 855.06,-115.53 912.13,-93.07 946.04,-79.32"/>
<polygon fill="midnightblue" stroke="midnightblue" points="947.43,-82.54 955.37,-75.52 944.79,-76.05 947.43,-82.54"/>
</g>
<!-- Node3 -->
<g id="node3" class="node">
<title>Node3</title>
<g id="a_node3"><a xlink:href="_method_8hpp.html" target="_top" xlink:title=" ">
<polygon fill="none" stroke="black" points="257.95,-56.5 257.95,-75.5 331.95,-75.5 331.95,-56.5 257.95,-56.5"/>
<text text-anchor="middle" x="294.95" y="-63.5" font-family="Helvetica,sans-Serif" font-size="10.00">Method.hpp</text>
</a>
</g>
</g>
<!-- Node2&#45;&gt;Node3 -->
<g id="edge2" class="edge">
<title>Node2&#45;&gt;Node3</title>
<path fill="none" stroke="midnightblue" d="M284.93,-112.08C286.52,-104.93 288.8,-94.64 290.79,-85.69"/>
<polygon fill="midnightblue" stroke="midnightblue" points="294.25,-86.27 293,-75.75 287.42,-84.75 294.25,-86.27"/>
</g>
<!-- Node2&#45;&gt;Node4 -->
<g id="edge3" class="edge">
<title>Node2&#45;&gt;Node4</title>
<path fill="none" stroke="midnightblue" d="M257.12,-112.44C229.7,-103.36 186.17,-88.94 155.51,-78.78"/>
<polygon fill="midnightblue" stroke="midnightblue" points="156.25,-75.34 145.65,-75.52 154.04,-81.98 156.25,-75.34"/>
</g>
<!-- Node5 -->
<g id="node5" class="node">
<title>Node5</title>
<g id="a_node5"><a xlink:title=" ">
<polygon fill="none" stroke="#bfbfbf" points="209.95,-0.5 209.95,-19.5 269.95,-19.5 269.95,-0.5 209.95,-0.5"/>
<text text-anchor="middle" x="239.95" y="-7.5" font-family="Helvetica,sans-Serif" font-size="10.00">iostream</text>
</a>
</g>
</g>
<!-- Node2&#45;&gt;Node5 -->
<g id="edge6" class="edge">
<title>Node2&#45;&gt;Node5</title>
<path fill="none" stroke="midnightblue" d="M300.64,-112.47C322.59,-100.68 355.44,-78.33 340.95,-56 327.44,-35.2 301.84,-23.93 279.79,-17.87"/>
<polygon fill="midnightblue" stroke="midnightblue" points="280.52,-14.45 269.97,-15.44 278.83,-21.24 280.52,-14.45"/>
</g>
<!-- Node6 -->
<g id="node6" class="node">
<title>Node6</title>
<g id="a_node6"><a xlink:title=" ">
<polygon fill="none" stroke="#bfbfbf" points="184.45,-56.5 184.45,-75.5 239.45,-75.5 239.45,-56.5 184.45,-56.5"/>
<text text-anchor="middle" x="211.95" y="-63.5" font-family="Helvetica,sans-Serif" font-size="10.00">fstream</text>
</a>
</g>
</g>
<!-- Node2&#45;&gt;Node6 -->
<g id="edge5" class="edge">
<title>Node2&#45;&gt;Node6</title>
<path fill="none" stroke="midnightblue" d="M271.54,-112.32C260.84,-104.18 244.61,-91.84 231.78,-82.09"/>
<polygon fill="midnightblue" stroke="midnightblue" points="233.64,-79.1 223.56,-75.83 229.4,-84.67 233.64,-79.1"/>
</g>
<!-- Node7 -->
<g id="node7" class="node">
<title>Node7</title>
<g id="a_node7"><a xlink:title=" ">
<polygon fill="none" stroke="#bfbfbf" points="16.95,-56.5 16.95,-75.5 54.95,-75.5 54.95,-56.5 16.95,-56.5"/>
<text text-anchor="middle" x="35.95" y="-63.5" font-family="Helvetica,sans-Serif" font-size="10.00">map</text>
</a>
</g>
</g>
<!-- Node2&#45;&gt;Node7 -->
<g id="edge7" class="edge">
<title>Node2&#45;&gt;Node7</title>
<path fill="none" stroke="midnightblue" d="M239.82,-113.57C197.51,-105.95 130.99,-93.15 64.89,-76.03"/>
<polygon fill="midnightblue" stroke="midnightblue" points="65.71,-72.63 55.15,-73.47 63.93,-79.4 65.71,-72.63"/>
</g>
<!-- Node8 -->
<g id="node8" class="node">
<title>Node8</title>
<g id="a_node8"><a xlink:title=" ">
<polygon fill="none" stroke="#bfbfbf" points="387.95,-56.5 387.95,-75.5 431.95,-75.5 431.95,-56.5 387.95,-56.5"/>
<text text-anchor="middle" x="409.95" y="-63.5" font-family="Helvetica,sans-Serif" font-size="10.00">string</text>
</a>
</g>
</g>
<!-- Node2&#45;&gt;Node8 -->
<g id="edge8" class="edge">
<title>Node2&#45;&gt;Node8</title>
<path fill="none" stroke="midnightblue" d="M303.07,-112.44C323.97,-103.56 356.88,-89.56 380.66,-79.45"/>
<polygon fill="midnightblue" stroke="midnightblue" points="382.08,-82.65 389.92,-75.52 379.34,-76.21 382.08,-82.65"/>
</g>
<!-- Node2&#45;&gt;Node9 -->
<g id="edge9" class="edge">
<title>Node2&#45;&gt;Node9</title>
<path fill="none" stroke="midnightblue" d="M313.21,-112.44C347.77,-102.67 404.17,-86.73 440.14,-76.56"/>
<polygon fill="midnightblue" stroke="midnightblue" points="441.49,-79.81 450.16,-73.73 439.58,-73.08 441.49,-79.81"/>
</g>
<!-- Node4&#45;&gt;Node5 -->
<g id="edge4" class="edge">
<title>Node4&#45;&gt;Node5</title>
<path fill="none" stroke="midnightblue" d="M138.96,-56.44C158.53,-47.64 189.25,-33.81 211.67,-23.72"/>
<polygon fill="midnightblue" stroke="midnightblue" points="213.34,-26.81 221.02,-19.52 210.47,-20.43 213.34,-26.81"/>
</g>
<!-- Node10&#45;&gt;Node2 -->
<g id="edge11" class="edge">
<title>Node10&#45;&gt;Node2</title>
<path fill="none" stroke="midnightblue" d="M442.84,-168.44C410.32,-159.2 358.37,-144.44 322.55,-134.26"/>
<polygon fill="midnightblue" stroke="midnightblue" points="323.49,-130.88 312.91,-131.52 321.57,-137.62 323.49,-130.88"/>
</g>
<!-- Node10&#45;&gt;Node8 -->
<g id="edge34" class="edge">
<title>Node10&#45;&gt;Node8</title>
<path fill="none" stroke="midnightblue" d="M468,-168.37C457.65,-150.3 433.53,-108.18 419.86,-84.31"/>
<polygon fill="midnightblue" stroke="midnightblue" points="422.87,-82.53 414.87,-75.59 416.8,-86.01 422.87,-82.53"/>
</g>
<!-- Node10&#45;&gt;Node11 -->
<g id="edge12" class="edge">
<title>Node10&#45;&gt;Node11</title>
<path fill="none" stroke="midnightblue" d="M426.93,-168.8C373.59,-159.29 285.63,-143.62 227.74,-133.3"/>
<polygon fill="midnightblue" stroke="midnightblue" points="228.11,-129.81 217.65,-131.5 226.88,-136.7 228.11,-129.81"/>
</g>
<!-- Node10&#45;&gt;Node12 -->
<g id="edge18" class="edge">
<title>Node10&#45;&gt;Node12</title>
<path fill="none" stroke="midnightblue" d="M457.84,-168.32C443.04,-159.82 420.25,-146.73 402.96,-136.8"/>
<polygon fill="midnightblue" stroke="midnightblue" points="404.43,-133.6 394.01,-131.65 400.94,-139.67 404.43,-133.6"/>
</g>
<!-- Node13 -->
<g id="node13" class="node">
<title>Node13</title>
<g id="a_node13"><a xlink:href="utilities_8hpp.html" target="_top" xlink:title=" ">
<polygon fill="none" stroke="black" points="681.95,-112.5 681.95,-131.5 755.95,-131.5 755.95,-112.5 681.95,-112.5"/>
<text text-anchor="middle" x="718.95" y="-119.5" font-family="Helvetica,sans-Serif" font-size="10.00">utilities.hpp</text>
</a>
</g>
</g>
<!-- Node10&#45;&gt;Node13 -->
<g id="edge20" class="edge">
<title>Node10&#45;&gt;Node13</title>
<path fill="none" stroke="midnightblue" d="M511.93,-168.44C555.34,-158.91 625.52,-143.51 671.94,-133.32"/>
<polygon fill="midnightblue" stroke="midnightblue" points="672.74,-136.73 681.76,-131.16 671.24,-129.89 672.74,-136.73"/>
</g>
<!-- Node17 -->
<g id="node17" class="node">
<title>Node17</title>
<g id="a_node17"><a xlink:title=" ">
<polygon fill="none" stroke="#bfbfbf" points="887.95,-56.5 887.95,-75.5 931.95,-75.5 931.95,-56.5 887.95,-56.5"/>
<text text-anchor="middle" x="909.95" y="-63.5" font-family="Helvetica,sans-Serif" font-size="10.00">ctime</text>
</a>
</g>
</g>
<!-- Node10&#45;&gt;Node17 -->
<g id="edge33" class="edge">
<title>Node10&#45;&gt;Node17</title>
<path fill="none" stroke="midnightblue" d="M519.05,-173.74C577.31,-168.75 680.21,-157.02 764.95,-132 808.97,-119 857.02,-95.44 885.26,-80.54"/>
<polygon fill="midnightblue" stroke="midnightblue" points="887.22,-83.46 894.39,-75.66 883.92,-77.29 887.22,-83.46"/>
</g>
<!-- Node19 -->
<g id="node19" class="node">
<title>Node19</title>
<g id="a_node19"><a xlink:title=" ">
<polygon fill="none" stroke="#bfbfbf" points="515.95,-56.5 515.95,-75.5 571.95,-75.5 571.95,-56.5 515.95,-56.5"/>
<text text-anchor="middle" x="543.95" y="-63.5" font-family="Helvetica,sans-Serif" font-size="10.00">unistd.h</text>
</a>
</g>
</g>
<!-- Node10&#45;&gt;Node19 -->
<g id="edge35" class="edge">
<title>Node10&#45;&gt;Node19</title>
<path fill="none" stroke="midnightblue" d="M486.86,-168.31C498.65,-160.27 515.14,-147.27 524.95,-132 533.98,-117.93 538.84,-99.44 541.38,-85.78"/>
<polygon fill="midnightblue" stroke="midnightblue" points="544.87,-86.07 543,-75.64 537.96,-84.96 544.87,-86.07"/>
</g>
<!-- Node20 -->
<g id="node20" class="node">
<title>Node20</title>
<g id="a_node20"><a xlink:title=" ">
<polygon fill="none" stroke="#bfbfbf" points="572.45,-112.5 572.45,-131.5 625.45,-131.5 625.45,-112.5 572.45,-112.5"/>
<text text-anchor="middle" x="598.95" y="-119.5" font-family="Helvetica,sans-Serif" font-size="10.00">cstddef</text>
</a>
</g>
</g>
<!-- Node10&#45;&gt;Node20 -->
<g id="edge31" class="edge">
<title>Node10&#45;&gt;Node20</title>
<path fill="none" stroke="midnightblue" d="M492.91,-168.44C513.56,-159.6 546.01,-145.69 569.58,-135.59"/>
<polygon fill="midnightblue" stroke="midnightblue" points="571.26,-138.67 579.07,-131.52 568.5,-132.24 571.26,-138.67"/>
</g>
<!-- Node21 -->
<g id="node21" class="node">
<title>Node21</title>
<g id="a_node21"><a xlink:title=" ">
<polygon fill="none" stroke="#bfbfbf" points="469.95,-112.5 469.95,-131.5 515.95,-131.5 515.95,-112.5 469.95,-112.5"/>
<text text-anchor="middle" x="492.95" y="-119.5" font-family="Helvetica,sans-Serif" font-size="10.00">cstdio</text>
</a>
</g>
</g>
<!-- Node10&#45;&gt;Node21 -->
<g id="edge32" class="edge">
<title>Node10&#45;&gt;Node21</title>
<path fill="none" stroke="midnightblue" d="M476.25,-168.08C478.93,-160.85 482.79,-150.41 486.13,-141.4"/>
<polygon fill="midnightblue" stroke="midnightblue" points="489.51,-142.34 489.7,-131.75 482.95,-139.91 489.51,-142.34"/>
</g>
<!-- Node11&#45;&gt;Node3 -->
<g id="edge13" class="edge">
<title>Node11&#45;&gt;Node3</title>
<path fill="none" stroke="midnightblue" d="M189.75,-112.44C210.23,-103.6 242.43,-89.69 265.81,-79.59"/>
<polygon fill="midnightblue" stroke="midnightblue" points="267.44,-82.7 275.23,-75.52 264.66,-76.27 267.44,-82.7"/>
</g>
<!-- Node11&#45;&gt;Node4 -->
<g id="edge14" class="edge">
<title>Node11&#45;&gt;Node4</title>
<path fill="none" stroke="midnightblue" d="M161.69,-112.08C154.48,-104.3 143.84,-92.8 135.1,-83.37"/>
<polygon fill="midnightblue" stroke="midnightblue" points="137.41,-80.71 128.05,-75.75 132.27,-85.47 137.41,-80.71"/>
</g>
<!-- Node11&#45;&gt;Node5 -->
<g id="edge15" class="edge">
<title>Node11&#45;&gt;Node5</title>
<path fill="none" stroke="midnightblue" d="M118.36,-117.59C59.31,-111.73 -25.22,-96.21 7.95,-56 31.77,-27.11 139.58,-16.54 199.48,-12.85"/>
<polygon fill="midnightblue" stroke="midnightblue" points="199.95,-16.33 209.73,-12.26 199.54,-9.34 199.95,-16.33"/>
</g>
<!-- Node11&#45;&gt;Node7 -->
<g id="edge16" class="edge">
<title>Node11&#45;&gt;Node7</title>
<path fill="none" stroke="midnightblue" d="M148.71,-112.44C126.04,-103.31 89.98,-88.77 64.75,-78.61"/>
<polygon fill="midnightblue" stroke="midnightblue" points="65.92,-75.31 55.34,-74.82 63.31,-81.8 65.92,-75.31"/>
</g>
<!-- Node11&#45;&gt;Node8 -->
<g id="edge17" class="edge">
<title>Node11&#45;&gt;Node8</title>
<path fill="none" stroke="midnightblue" d="M207.97,-112.44C254.96,-101.87 334.07,-84.07 378.04,-74.18"/>
<polygon fill="midnightblue" stroke="midnightblue" points="378.92,-77.57 387.9,-71.96 377.38,-70.74 378.92,-77.57"/>
</g>
<!-- Node12&#45;&gt;Node8 -->
<g id="edge19" class="edge">
<title>Node12&#45;&gt;Node8</title>
<path fill="none" stroke="midnightblue" d="M384.07,-112.08C388.35,-104.61 394.6,-93.72 399.89,-84.52"/>
<polygon fill="midnightblue" stroke="midnightblue" points="402.98,-86.17 404.92,-75.75 396.91,-82.68 402.98,-86.17"/>
</g>
<!-- Node13&#45;&gt;Node3 -->
<g id="edge21" class="edge">
<title>Node13&#45;&gt;Node3</title>
<path fill="none" stroke="midnightblue" d="M681.69,-116.26C604.48,-106.42 427.15,-83.84 342.11,-73.01"/>
<polygon fill="midnightblue" stroke="midnightblue" points="342.33,-69.51 331.97,-71.71 341.44,-76.45 342.33,-69.51"/>
</g>
<!-- Node13&#45;&gt;Node4 -->
<g id="edge22" class="edge">
<title>Node13&#45;&gt;Node4</title>
<path fill="none" stroke="midnightblue" d="M681.75,-116.78C667.17,-115.19 650.28,-113.42 634.95,-112 434.48,-93.4 380.85,-100.03 176.8,-76"/>
<polygon fill="midnightblue" stroke="midnightblue" points="177,-72.5 166.66,-74.8 176.17,-79.45 177,-72.5"/>
</g>
<!-- Node13&#45;&gt;Node5 -->
<g id="edge27" class="edge">
<title>Node13&#45;&gt;Node5</title>
<path fill="none" stroke="midnightblue" d="M698.86,-112.39C678.54,-103.59 646.33,-89.35 618.95,-76 601.79,-67.64 599.13,-61.78 580.95,-56 476.1,-22.66 345.54,-14 280.59,-11.77"/>
<polygon fill="midnightblue" stroke="midnightblue" points="280.47,-8.26 270.37,-11.45 280.25,-15.26 280.47,-8.26"/>
</g>
<!-- Node13&#45;&gt;Node9 -->
<g id="edge30" class="edge">
<title>Node13&#45;&gt;Node9</title>
<path fill="none" stroke="midnightblue" d="M681.65,-113.75C641.19,-105.74 574.46,-92.11 507.56,-76.04"/>
<polygon fill="midnightblue" stroke="midnightblue" points="508.24,-72.6 497.7,-73.65 506.59,-79.41 508.24,-72.6"/>
</g>
<!-- Node14 -->
<g id="node14" class="node">
<title>Node14</title>
<g id="a_node14"><a xlink:href="constants_8hpp.html" target="_top" xlink:title=" ">
<polygon fill="none" stroke="black" points="702.45,-56.5 702.45,-75.5 787.45,-75.5 787.45,-56.5 702.45,-56.5"/>
<text text-anchor="middle" x="744.95" y="-63.5" font-family="Helvetica,sans-Serif" font-size="10.00">constants.hpp</text>
</a>
</g>
</g>
<!-- Node13&#45;&gt;Node14 -->
<g id="edge23" class="edge">
<title>Node13&#45;&gt;Node14</title>
<path fill="none" stroke="midnightblue" d="M723.24,-112.08C726.8,-104.69 731.97,-93.95 736.37,-84.81"/>
<polygon fill="midnightblue" stroke="midnightblue" points="739.55,-86.28 740.73,-75.75 733.24,-83.24 739.55,-86.28"/>
</g>
<!-- Node15 -->
<g id="node15" class="node">
<title>Node15</title>
<g id="a_node15"><a xlink:title=" ">
<polygon fill="none" stroke="#bfbfbf" points="805.95,-56.5 805.95,-75.5 869.95,-75.5 869.95,-56.5 805.95,-56.5"/>
<text text-anchor="middle" x="837.95" y="-63.5" font-family="Helvetica,sans-Serif" font-size="10.00">algorithm</text>
</a>
</g>
</g>
<!-- Node13&#45;&gt;Node15 -->
<g id="edge24" class="edge">
<title>Node13&#45;&gt;Node15</title>
<path fill="none" stroke="midnightblue" d="M737.8,-112.44C757.21,-103.64 787.68,-89.81 809.91,-79.72"/>
<polygon fill="midnightblue" stroke="midnightblue" points="811.52,-82.84 819.18,-75.52 808.63,-76.46 811.52,-82.84"/>
</g>
<!-- Node13&#45;&gt;Node16 -->
<g id="edge25" class="edge">
<title>Node13&#45;&gt;Node16</title>
<path fill="none" stroke="midnightblue" d="M756,-114.1C798.19,-106.1 869.41,-92.2 939.7,-76.2"/>
<polygon fill="midnightblue" stroke="midnightblue" points="940.64,-79.57 949.61,-73.93 939.08,-72.75 940.64,-79.57"/>
</g>
<!-- Node13&#45;&gt;Node17 -->
<g id="edge26" class="edge">
<title>Node13&#45;&gt;Node17</title>
<path fill="none" stroke="midnightblue" d="M749.64,-112.45C779.91,-104 827.76,-90.59 878.16,-76.21"/>
<polygon fill="midnightblue" stroke="midnightblue" points="879.28,-79.53 887.94,-73.41 877.36,-72.8 879.28,-79.53"/>
</g>
<!-- Node18 -->
<g id="node18" class="node">
<title>Node18</title>
<g id="a_node18"><a xlink:title=" ">
<polygon fill="none" stroke="#bfbfbf" points="627.95,-56.5 627.95,-75.5 683.95,-75.5 683.95,-56.5 627.95,-56.5"/>
<text text-anchor="middle" x="655.95" y="-63.5" font-family="Helvetica,sans-Serif" font-size="10.00">sstream</text>
</a>
</g>
</g>
<!-- Node13&#45;&gt;Node18 -->
<g id="edge28" class="edge">
<title>Node13&#45;&gt;Node18</title>
<path fill="none" stroke="midnightblue" d="M708.82,-112.32C699.42,-104.26 685.2,-92.08 673.88,-82.37"/>
<polygon fill="midnightblue" stroke="midnightblue" points="676.12,-79.68 666.25,-75.83 671.57,-85 676.12,-79.68"/>
</g>
<!-- Node13&#45;&gt;Node19 -->
<g id="edge29" class="edge">
<title>Node13&#45;&gt;Node19</title>
<path fill="none" stroke="midnightblue" d="M691.22,-112.44C661.52,-103.28 614.23,-88.69 581.28,-78.52"/>
<polygon fill="midnightblue" stroke="midnightblue" points="582.13,-75.12 571.55,-75.52 580.07,-81.81 582.13,-75.12"/>
</g>
</g>
</svg>
        <g id="navigator" transform="translate(0 0)" fill="#404254">
                <rect fill="#f2f5e9" fill-opacity="0.5" stroke="#606060" stroke-width=".5" x="0" y="0" width="60" height="60"/>
                <use id="zoomplus" xlink:href="#zoomPlus" x="17" y="9" onmousedown="handleZoom(evt,'in')"/>
                <use id="zoomminus" xlink:href="#zoomMin" x="42" y="9" onmousedown="handleZoom(evt,'out')"/>
                <use id="reset" xlink:href="#resetDef" x="30" y="36" onmousedown="handleReset()"/>
                <g id="arrowUp" xlink:href="#dirArrow" transform="translate(30 24)" onmousedown="handlePan(0,-1)">
                  <use xlink:href="#rim" fill="#404040">
                        <set attributeName="fill" to="#808080" begin="arrowUp.mouseover" end="arrowUp.mouseout"/>
                  </use>
                  <path fill="none" stroke="white" stroke-width="1.5" d="M0,-3.0v7 M-2.5,-0.5L0,-3.0L2.5,-0.5"/>
                </g>
                <g id="arrowRight" xlink:href="#dirArrow" transform="rotate(90) translate(36 -43)" onmousedown="handlePan(1,0)">
                  <use xlink:href="#rim" fill="#404040">
                        <set attributeName="fill" to="#808080" begin="arrowRight.mouseover" end="arrowRight.mouseout"/>
                  </use>
                  <path fill="none" stroke="white" stroke-width="1.5" d="M0,-3.0v7 M-2.5,-0.5L0,-3.0L2.5,-0.5"/>
                </g>
                <g id="arrowDown" xlink:href="#dirArrow" transform="rotate(180) translate(-30 -48)" onmousedown="handlePan(0,1)">
                  <use xlink:href="#rim" fill="#404040">
                        <set attributeName="fill" to="#808080" begin="arrowDown.mouseover" end="arrowDown.mouseout"/>
                  </use>
                  <path fill="none" stroke="white" stroke-width="1.5" d="M0,-3.0v7 M-2.5,-0.5L0,-3.0L2.5,-0.5"/>
                </g>
                <g id="arrowLeft" xlink:href="#dirArrow" transform="rotate(270) translate(-36 17)" onmousedown="handlePan(-1,0)">
                  <use xlink:href="#rim" fill="#404040">
                        <set attributeName="fill" to="#808080" begin="arrowLeft.mouseover" end="arrowLeft.mouseout"/>
                  </use>
                  <path fill="none" stroke="white" stroke-width="1.5" d="M0,-3.0v7 M-2.5,-0.5L0,-3.0L2.5,-0.5"/>
                </g>
        </g>
        <svg viewBox="0 0 15 15" width="100%" height="30px" preserveAspectRatio="xMaxYMin meet">
         <g id="arrow_out" transform="scale(0.3 0.3)">
          <a xlink:href="_log_ostream_inserters_8cpp__incl_org.svg" target="_base">
           <rect id="button" ry="5" rx="5" y="6" x="6" height="38" width="38"
                fill="#f2f5e9" fill-opacity="0.5" stroke="#606060" stroke-width="1.0"/>
           <path id="arrow"
             d="M 11.500037,31.436501 C 11.940474,20.09759 22.043105,11.32322 32.158766,21.979434 L 37.068811,17.246167 C 37.068811,17.246167 37.088388,32 37.088388,32 L 22.160133,31.978069 C 22.160133,31.978069 26.997745,27.140456 26.997745,27.140456 C 18.528582,18.264221 13.291696,25.230495 11.500037,31.436501 z"
             style="fill:#404040;"/>
          </a>
         </g>
        </svg>
</svg>
