<?xml version="1.0" encoding="UTF-8" standalone="no"?>
<!DOCTYPE svg PUBLIC "-//W3C//DTD SVG 1.1//EN"
 "http://www.w3.org/Graphics/SVG/1.1/DTD/svg11.dtd">
<!-- Generated by graphviz version 2.43.0 (0)
 -->
<!-- Title: src/LogOstreamInserters.cpp Pages: 1 -->
<!--zoomable 247 -->

<svg id="main" version="1.1" xmlns="http://www.w3.org/2000/svg" xmlns:xlink="http://www.w3.org/1999/xlink" xml:space="preserve" onload="init(evt)">
<style type="text/css"><![CDATA[
.node, .edge {opacity: 0.7;}
.node.selected, .edge.selected {opacity: 1;}
.edge:hover path { stroke: red; }
.edge:hover polygon { stroke: red; fill: red; }
]]></style>

<defs>
  <circle id="rim" cx="0" cy="0" r="7"/>
  <circle id="rim2" cx="0" cy="0" r="3.5"/>
  <g id="zoomPlus">
    <use xlink:href="#rim" fill="#404040"><set attributeName="fill" to="#808080" begin="zoomplus.mouseover" end="zoomplus.mouseout"/></use>
    <path d="M-4,0h8M0,-4v8" fill="none" stroke="white" stroke-width="1.5" pointer-events="none"/>
  </g>
  <g id="zoomMin">
    <use xlink:href="#rim" fill="#404040"><set attributeName="fill" to="#808080" begin="zoomminus.mouseover" end="zoomminus.mouseout"/></use>
    <path d="M-4,0h8" fill="none" stroke="white" stroke-width="1.5" pointer-events="none"/>
  </g>
  <g id="arrowUp" transform="translate(30 24)">
    <use xlink:href="#rim"/>
    <path pointer-events="none" fill="none" stroke="white" stroke-width="1.5" d="M0,-3.0v7 M-2.5,-0.5L0,-3.0L2.5,-0.5"/>
  </g>
  <g id="arrowRight" transform="rotate(90) translate(36 -43)">
    <use xlink:href="#rim"/>
    <path pointer-events="none" fill="none" stroke="white" stroke-width="1.5" d="M0,-3.0v7 M-2.5,-0.5L0,-3.0L2.5,-0.5"/>
  </g>
  <g id="arrowDown" transform="rotate(180) translate(-30 -48)">
    <use xlink:href="#rim"/>
    <path pointer-events="none" fill="none" stroke="white" stroke-width="1.5" d="M0,-3.0v7 M-2.5,-0.5L0,-3.0L2.5,-0.5"/>
  </g>
  <g id="arrowLeft" transform="rotate(270) translate(-36 17)">
    <use xlink:href="#rim"/>
    <path pointer-events="none" fill="none" stroke="white" stroke-width="1.5" d="M0,-3.0v7 M-2.5,-0.5L0,-3.0L2.5,-0.5"/>
  </g>
  <g id="resetDef">
    <use xlink:href="#rim2" fill="#404040"><set attributeName="fill" to="#808080" begin="reset.mouseover" end="reset.mouseout"/></use>
  </g>
</defs>
<script type="application/ecmascript">
var viewWidth = 1113;
var viewHeight = 247;
var sectionId = 'dynsection-0';
</script>
<script type="application/ecmascript" xlink:href="svg.min.js"/>
<svg id="graph" class="graph">
<g id="viewport">
<title>src/LogOstreamInserters.cpp</title>
<!-- Node1 -->
<g id="Node000001" class="node">
<title>Node1</title>
<g id="a_Node000001"><a xlink:title=" ">
<polygon fill="#999999" stroke="#666666" points="560.72,-239 404.72,-239 404.72,-220 560.72,-220 560.72,-239"/>
<text text-anchor="middle" x="482.72" y="-227" font-family="Helvetica,sans-Serif" font-size="10.00">src/LogOstreamInserters.cpp</text>
</a>
</g>
</g>
<!-- Node2 -->
<g id="Node000002" class="node">
<title>Node2</title>
<g id="a_Node000002"><a xlink:href="_config_file_8hpp.html" target="_top" xlink:title=" ">
<polygon fill="white" stroke="#666666" points="429.72,-129 343.72,-129 343.72,-110 429.72,-110 429.72,-129"/>
<text text-anchor="middle" x="386.72" y="-117" font-family="Helvetica,sans-Serif" font-size="10.00">ConfigFile.hpp</text>
</a>
</g>
</g>
<!-- Node1&#45;&gt;Node2 -->
<g id="edge1_Node000001_Node000002" class="edge">
<title>Node1&#45;&gt;Node2</title>
<g id="a_edge1_Node000001_Node000002"><a xlink:title=" ">
<path fill="none" stroke="#63b8ff" d="M474.86,-219.66C458.75,-201.54 421.75,-159.91 401.18,-136.77"/>
<polygon fill="#63b8ff" stroke="#63b8ff" points="403.68,-134.31 394.42,-129.16 398.44,-138.96 403.68,-134.31"/>
</a>
</g>
</g>
<!-- Node5 -->
<g id="Node000005" class="node">
<title>Node5</title>
<g id="a_Node000005"><a xlink:href="_status_code_8hpp.html" target="_top" xlink:title=" ">
<polygon fill="white" stroke="#666666" points="111.22,-74 18.22,-74 18.22,-55 111.22,-55 111.22,-74"/>
<text text-anchor="middle" x="64.72" y="-62" font-family="Helvetica,sans-Serif" font-size="10.00">StatusCode.hpp</text>
</a>
</g>
</g>
<!-- Node1&#45;&gt;Node5 -->
<g id="edge43_Node000001_Node000005" class="edge">
<title>Node1&#45;&gt;Node5</title>
<g id="a_edge43_Node000001_Node000005"><a xlink:title=" ">
<path fill="none" stroke="#63b8ff" d="M458.86,-219.85C434.26,-210.91 394.78,-196.54 360.72,-184 294.87,-159.75 277.87,-155.06 212.72,-129 170.74,-112.21 122.74,-91.29 93.07,-78.16"/>
<polygon fill="#63b8ff" stroke="#63b8ff" points="94.31,-74.88 83.75,-74.02 91.47,-81.28 94.31,-74.88"/>
</a>
</g>
</g>
<!-- Node12 -->
<g id="Node000012" class="node">
<title>Node12</title>
<g id="a_Node000012"><a xlink:title=" ">
<polygon fill="#e0e0e0" stroke="#999999" points="563.22,-74 516.22,-74 516.22,-55 563.22,-55 563.22,-74"/>
<text text-anchor="middle" x="539.72" y="-62" font-family="Helvetica,sans-Serif" font-size="10.00">vector</text>
</a>
</g>
</g>
<!-- Node1&#45;&gt;Node12 -->
<g id="edge45_Node000001_Node000012" class="edge">
<title>Node1&#45;&gt;Node12</title>
<g id="a_edge45_Node000001_Node000012"><a xlink:title=" ">
<path fill="none" stroke="#63b8ff" d="M487.25,-219.96C496.05,-203.05 515.57,-163.91 526.72,-129 531.43,-114.24 534.84,-96.99 536.98,-84.2"/>
<polygon fill="#63b8ff" stroke="#63b8ff" points="540.44,-84.7 538.53,-74.28 533.53,-83.62 540.44,-84.7"/>
</a>
</g>
</g>
<!-- Node13 -->
<g id="Node000013" class="node">
<title>Node13</title>
<g id="a_Node000013"><a xlink:href="_connection_8hpp.html" target="_top" xlink:title=" ">
<polygon fill="white" stroke="#666666" points="714.72,-184 622.72,-184 622.72,-165 714.72,-165 714.72,-184"/>
<text text-anchor="middle" x="668.72" y="-172" font-family="Helvetica,sans-Serif" font-size="10.00">Connection.hpp</text>
</a>
</g>
</g>
<!-- Node1&#45;&gt;Node13 -->
<g id="edge14_Node000001_Node000013" class="edge">
<title>Node1&#45;&gt;Node13</title>
<g id="a_edge14_Node000001_Node000013"><a xlink:title=" ">
<path fill="none" stroke="#63b8ff" d="M512.6,-219.98C544.1,-211.01 593.89,-196.82 628.75,-186.89"/>
<polygon fill="#63b8ff" stroke="#63b8ff" points="629.94,-190.19 638.6,-184.08 628.03,-183.46 629.94,-190.19"/>
</a>
</g>
</g>
<!-- Node14 -->
<g id="Node000014" class="node">
<title>Node14</title>
<g id="a_Node000014"><a xlink:href="_h_t_t_p_request_8hpp.html" target="_top" xlink:title=" ">
<polygon fill="white" stroke="#666666" points="325.22,-129 222.22,-129 222.22,-110 325.22,-110 325.22,-129"/>
<text text-anchor="middle" x="273.72" y="-117" font-family="Helvetica,sans-Serif" font-size="10.00">HTTPRequest.hpp</text>
</a>
</g>
</g>
<!-- Node1&#45;&gt;Node14 -->
<g id="edge41_Node000001_Node000014" class="edge">
<title>Node1&#45;&gt;Node14</title>
<g id="a_edge41_Node000001_Node000014"><a xlink:title=" ">
<path fill="none" stroke="#63b8ff" d="M465.97,-219.84C429.5,-201 342.7,-156.14 299.32,-133.73"/>
<polygon fill="#63b8ff" stroke="#63b8ff" points="300.75,-130.53 290.26,-129.05 297.54,-136.75 300.75,-130.53"/>
</a>
</g>
</g>
<!-- Node15 -->
<g id="Node000015" class="node">
<title>Node15</title>
<g id="a_Node000015"><a xlink:href="_socket_8hpp.html" target="_top" xlink:title=" ">
<polygon fill="white" stroke="#666666" points="517.72,-129 447.72,-129 447.72,-110 517.72,-110 517.72,-129"/>
<text text-anchor="middle" x="482.72" y="-117" font-family="Helvetica,sans-Serif" font-size="10.00">Socket.hpp</text>
</a>
</g>
</g>
<!-- Node1&#45;&gt;Node15 -->
<g id="edge42_Node000001_Node000015" class="edge">
<title>Node1&#45;&gt;Node15</title>
<g id="a_edge42_Node000001_Node000015"><a xlink:title=" ">
<path fill="none" stroke="#63b8ff" d="M482.72,-219.66C482.72,-202.17 482.72,-162.8 482.72,-139.27"/>
<polygon fill="#63b8ff" stroke="#63b8ff" points="486.22,-139.16 482.72,-129.16 479.22,-139.16 486.22,-139.16"/>
</a>
</g>
</g>
<!-- Node18 -->
<g id="Node000018" class="node">
<title>Node18</title>
<g id="a_Node000018"><a xlink:title=" ">
<polygon fill="#e0e0e0" stroke="#999999" points="1104.72,-74 1052.72,-74 1052.72,-55 1104.72,-55 1104.72,-74"/>
<text text-anchor="middle" x="1078.72" y="-62" font-family="Helvetica,sans-Serif" font-size="10.00">cassert</text>
</a>
</g>
</g>
<!-- Node1&#45;&gt;Node18 -->
<g id="edge44_Node000001_Node000018" class="edge">
<title>Node1&#45;&gt;Node18</title>
<g id="a_edge44_Node000001_Node000018"><a xlink:title=" ">
<path fill="none" stroke="#63b8ff" d="M556.07,-220C650.86,-207.46 819.97,-179.83 956.72,-129 993.08,-115.49 1032.41,-93.56 1056.31,-79.33"/>
<polygon fill="#63b8ff" stroke="#63b8ff" points="1058.21,-82.27 1064.97,-74.11 1054.6,-76.28 1058.21,-82.27"/>
</a>
</g>
</g>
<!-- Node3 -->
<g id="Node000003" class="node">
<title>Node3</title>
<g id="a_Node000003"><a xlink:href="_method_8hpp.html" target="_top" xlink:title=" ">
<polygon fill="white" stroke="#666666" points="371.72,-74 297.72,-74 297.72,-55 371.72,-55 371.72,-74"/>
<text text-anchor="middle" x="334.72" y="-62" font-family="Helvetica,sans-Serif" font-size="10.00">Method.hpp</text>
</a>
</g>
</g>
<!-- Node2&#45;&gt;Node3 -->
<g id="edge2_Node000002_Node000003" class="edge">
<title>Node2&#45;&gt;Node3</title>
<g id="a_edge2_Node000002_Node000003"><a xlink:title=" ">
<path fill="none" stroke="#63b8ff" d="M378.13,-109.75C370.56,-102.03 359.34,-90.6 350.21,-81.28"/>
<polygon fill="#63b8ff" stroke="#63b8ff" points="352.65,-78.78 343.15,-74.09 347.65,-83.68 352.65,-78.78"/>
</a>
</g>
</g>
<!-- Node4 -->
<g id="Node000004" class="node">
<title>Node4</title>
<g id="a_Node000004"><a xlink:title=" ">
<polygon fill="#e0e0e0" stroke="#999999" points="225.72,-19 165.72,-19 165.72,0 225.72,0 225.72,-19"/>
<text text-anchor="middle" x="195.72" y="-7" font-family="Helvetica,sans-Serif" font-size="10.00">iostream</text>
</a>
</g>
</g>
<!-- Node2&#45;&gt;Node4 -->
<g id="edge9_Node000002_Node000004" class="edge">
<title>Node2&#45;&gt;Node4</title>
<g id="a_edge9_Node000002_Node000004"><a xlink:title=" ">
<path fill="none" stroke="#63b8ff" d="M345.15,-109.98C297.34,-99.83 224.19,-83.12 214.72,-74 202.69,-62.41 198.19,-43.54 196.55,-29.38"/>
<polygon fill="#63b8ff" stroke="#63b8ff" points="200.03,-28.96 195.76,-19.26 193.05,-29.5 200.03,-28.96"/>
</a>
</g>
</g>
<!-- Node2&#45;&gt;Node5 -->
<g id="edge4_Node000002_Node000005" class="edge">
<title>Node2&#45;&gt;Node5</title>
<g id="a_edge4_Node000002_Node000005"><a xlink:title=" ">
<path fill="none" stroke="#63b8ff" d="M343.63,-111.41C286.41,-101.99 185.19,-85.33 121.71,-74.88"/>
<polygon fill="#63b8ff" stroke="#63b8ff" points="121.91,-71.37 111.47,-73.19 120.77,-78.27 121.91,-71.37"/>
</a>
</g>
</g>
<!-- Node6 -->
<g id="Node000006" class="node">
<title>Node6</title>
<g id="a_Node000006"><a xlink:href="constants_8hpp.html" target="_top" xlink:title=" ">
<polygon fill="white" stroke="#666666" points="666.22,-74 581.22,-74 581.22,-55 666.22,-55 666.22,-74"/>
<text text-anchor="middle" x="623.72" y="-62" font-family="Helvetica,sans-Serif" font-size="10.00">constants.hpp</text>
</a>
</g>
</g>
<!-- Node2&#45;&gt;Node6 -->
<g id="edge6_Node000002_Node000006" class="edge">
<title>Node2&#45;&gt;Node6</title>
<g id="a_edge6_Node000002_Node000006"><a xlink:title=" ">
<path fill="none" stroke="#63b8ff" d="M424.8,-109.98C465.71,-100.84 530.83,-86.27 575.34,-76.32"/>
<polygon fill="#63b8ff" stroke="#63b8ff" points="576.35,-79.68 585.34,-74.08 574.82,-72.85 576.35,-79.68"/>
</a>
</g>
</g>
<!-- Node8 -->
<g id="Node000008" class="node">
<title>Node8</title>
<g id="a_Node000008"><a xlink:title=" ">
<polygon fill="#e0e0e0" stroke="#999999" points="279.22,-74 224.22,-74 224.22,-55 279.22,-55 279.22,-74"/>
<text text-anchor="middle" x="251.72" y="-62" font-family="Helvetica,sans-Serif" font-size="10.00">fstream</text>
</a>
</g>
</g>
<!-- Node2&#45;&gt;Node8 -->
<g id="edge8_Node000002_Node000008" class="edge">
<title>Node2&#45;&gt;Node8</title>
<g id="a_edge8_Node000002_Node000008"><a xlink:title=" ">
<path fill="none" stroke="#63b8ff" d="M365.03,-109.98C342.92,-101.3 308.4,-87.75 283.27,-77.88"/>
<polygon fill="#63b8ff" stroke="#63b8ff" points="284.39,-74.57 273.8,-74.17 281.83,-81.08 284.39,-74.57"/>
</a>
</g>
</g>
<!-- Node9 -->
<g id="Node000009" class="node">
<title>Node9</title>
<g id="a_Node000009"><a xlink:title=" ">
<polygon fill="#e0e0e0" stroke="#999999" points="167.72,-74 129.72,-74 129.72,-55 167.72,-55 167.72,-74"/>
<text text-anchor="middle" x="148.72" y="-62" font-family="Helvetica,sans-Serif" font-size="10.00">map</text>
</a>
</g>
</g>
<!-- Node2&#45;&gt;Node9 -->
<g id="edge10_Node000002_Node000009" class="edge">
<title>Node2&#45;&gt;Node9</title>
<g id="a_edge10_Node000002_Node000009"><a xlink:title=" ">
<path fill="none" stroke="#63b8ff" d="M345,-109.93C303.5,-101.3 238.06,-87.37 181.72,-74 180.46,-73.7 179.17,-73.39 177.87,-73.07"/>
<polygon fill="#63b8ff" stroke="#63b8ff" points="178.44,-69.61 167.88,-70.57 176.73,-76.4 178.44,-69.61"/>
</a>
</g>
</g>
<!-- Node10 -->
<g id="Node000010" class="node">
<title>Node10</title>
<g id="a_Node000010"><a xlink:title=" ">
<polygon fill="#e0e0e0" stroke="#999999" points="497.72,-74 453.72,-74 453.72,-55 497.72,-55 497.72,-74"/>
<text text-anchor="middle" x="475.72" y="-62" font-family="Helvetica,sans-Serif" font-size="10.00">string</text>
</a>
</g>
</g>
<!-- Node2&#45;&gt;Node10 -->
<g id="edge11_Node000002_Node000010" class="edge">
<title>Node2&#45;&gt;Node10</title>
<g id="a_edge11_Node000002_Node000010"><a xlink:title=" ">
<path fill="none" stroke="#63b8ff" d="M401.02,-109.98C414.82,-101.77 435.96,-89.18 452.23,-79.49"/>
<polygon fill="#63b8ff" stroke="#63b8ff" points="454.36,-82.29 461.16,-74.17 450.78,-76.28 454.36,-82.29"/>
</a>
</g>
</g>
<!-- Node11 -->
<g id="Node000011" class="node">
<title>Node11</title>
<g id="a_Node000011"><a xlink:title=" ">
<polygon fill="#e0e0e0" stroke="#999999" points="435.22,-74 390.22,-74 390.22,-55 435.22,-55 435.22,-74"/>
<text text-anchor="middle" x="412.72" y="-62" font-family="Helvetica,sans-Serif" font-size="10.00">utility</text>
</a>
</g>
</g>
<!-- Node2&#45;&gt;Node11 -->
<g id="edge12_Node000002_Node000011" class="edge">
<title>Node2&#45;&gt;Node11</title>
<g id="a_edge12_Node000002_Node000011"><a xlink:title=" ">
<path fill="none" stroke="#63b8ff" d="M391.01,-109.75C394.53,-102.57 399.63,-92.18 404,-83.27"/>
<polygon fill="#63b8ff" stroke="#63b8ff" points="407.24,-84.61 408.51,-74.09 400.96,-81.53 407.24,-84.61"/>
</a>
</g>
</g>
<!-- Node2&#45;&gt;Node12 -->
<g id="edge13_Node000002_Node000012" class="edge">
<title>Node2&#45;&gt;Node12</title>
<g id="a_edge13_Node000002_Node000012"><a xlink:title=" ">
<path fill="none" stroke="#63b8ff" d="M411.3,-109.98C437.14,-101.03 477.95,-86.9 506.62,-76.97"/>
<polygon fill="#63b8ff" stroke="#63b8ff" points="507.9,-80.23 516.2,-73.65 505.61,-73.61 507.9,-80.23"/>
</a>
</g>
</g>
<!-- Node3&#45;&gt;Node4 -->
<g id="edge3_Node000003_Node000004" class="edge">
<title>Node3&#45;&gt;Node4</title>
<g id="a_edge3_Node000003_Node000004"><a xlink:title=" ">
<path fill="none" stroke="#63b8ff" d="M312.39,-54.98C289.52,-46.27 253.76,-32.63 227.86,-22.75"/>
<polygon fill="#63b8ff" stroke="#63b8ff" points="229.05,-19.46 218.46,-19.17 226.56,-26 229.05,-19.46"/>
</a>
</g>
</g>
<!-- Node5&#45;&gt;Node4 -->
<g id="edge5_Node000005_Node000004" class="edge">
<title>Node5&#45;&gt;Node4</title>
<g id="a_edge5_Node000005_Node000004"><a xlink:title=" ">
<path fill="none" stroke="#63b8ff" d="M85.77,-54.98C107.13,-46.34 140.43,-32.87 164.78,-23.02"/>
<polygon fill="#63b8ff" stroke="#63b8ff" points="166.33,-26.17 174.29,-19.17 163.71,-19.68 166.33,-26.17"/>
</a>
</g>
</g>
<!-- Node7 -->
<g id="Node000007" class="node">
<title>Node7</title>
<g id="a_Node000007"><a xlink:title=" ">
<polygon fill="#e0e0e0" stroke="#999999" points="850.22,-19 797.22,-19 797.22,0 850.22,0 850.22,-19"/>
<text text-anchor="middle" x="823.72" y="-7" font-family="Helvetica,sans-Serif" font-size="10.00">cstddef</text>
</a>
</g>
</g>
<!-- Node6&#45;&gt;Node7 -->
<g id="edge7_Node000006_Node000007" class="edge">
<title>Node6&#45;&gt;Node7</title>
<g id="a_edge7_Node000006_Node000007"><a xlink:title=" ">
<path fill="none" stroke="#63b8ff" d="M655.85,-54.98C691.68,-45.49 749.52,-30.16 787.08,-20.21"/>
<polygon fill="#63b8ff" stroke="#63b8ff" points="788.34,-23.5 797.11,-17.55 786.54,-16.73 788.34,-23.5"/>
</a>
</g>
</g>
<!-- Node13&#45;&gt;Node2 -->
<g id="edge15_Node000013_Node000002" class="edge">
<title>Node13&#45;&gt;Node2</title>
<g id="a_edge15_Node000013_Node000002"><a xlink:title=" ">
<path fill="none" stroke="#63b8ff" d="M623.41,-164.98C573.39,-155.58 492.94,-140.46 439.95,-130.5"/>
<polygon fill="#63b8ff" stroke="#63b8ff" points="440.54,-127.05 430.06,-128.65 439.25,-133.93 440.54,-127.05"/>
</a>
</g>
</g>
<!-- Node13&#45;&gt;Node7 -->
<g id="edge36_Node000013_Node000007" class="edge">
<title>Node13&#45;&gt;Node7</title>
<g id="a_edge36_Node000013_Node000007"><a xlink:title=" ">
<path fill="none" stroke="#63b8ff" d="M715.15,-170.27C765.84,-165.59 848.72,-154.48 915.72,-129 959.54,-112.34 982.79,-114.89 1005.72,-74 1036.75,-18.68 922.07,-10.47 860.43,-9.93"/>
<polygon fill="#63b8ff" stroke="#63b8ff" points="860.31,-6.43 850.3,-9.91 860.29,-13.43 860.31,-6.43"/>
</a>
</g>
</g>
<!-- Node13&#45;&gt;Node10 -->
<g id="edge39_Node000013_Node000010" class="edge">
<title>Node13&#45;&gt;Node10</title>
<g id="a_edge39_Node000013_Node000010"><a xlink:title=" ">
<path fill="none" stroke="#63b8ff" d="M653.25,-164.84C619.71,-146.08 540.09,-101.52 499.86,-79.01"/>
<polygon fill="#63b8ff" stroke="#63b8ff" points="501.43,-75.88 490.99,-74.05 498.01,-81.98 501.43,-75.88"/>
</a>
</g>
</g>
<!-- Node13&#45;&gt;Node14 -->
<g id="edge16_Node000013_Node000014" class="edge">
<title>Node13&#45;&gt;Node14</title>
<g id="a_edge16_Node000013_Node000014"><a xlink:title=" ">
<path fill="none" stroke="#63b8ff" d="M622.51,-167.43C560,-159.2 444.71,-143.96 335.51,-129.1"/>
<polygon fill="#63b8ff" stroke="#63b8ff" points="335.68,-125.59 325.3,-127.71 334.74,-132.53 335.68,-125.59"/>
</a>
</g>
</g>
<!-- Node13&#45;&gt;Node15 -->
<g id="edge22_Node000013_Node000015" class="edge">
<title>Node13&#45;&gt;Node15</title>
<g id="a_edge22_Node000013_Node000015"><a xlink:title=" ">
<path fill="none" stroke="#63b8ff" d="M638.84,-164.98C607.34,-156.01 557.55,-141.82 522.69,-131.89"/>
<polygon fill="#63b8ff" stroke="#63b8ff" points="523.41,-128.46 512.84,-129.08 521.5,-135.19 523.41,-128.46"/>
</a>
</g>
</g>
<!-- Node16 -->
<g id="Node000016" class="node">
<title>Node16</title>
<g id="a_Node000016"><a xlink:href="utilities_8hpp.html" target="_top" xlink:title=" ">
<polygon fill="white" stroke="#666666" points="705.72,-129 631.72,-129 631.72,-110 705.72,-110 705.72,-129"/>
<text text-anchor="middle" x="668.72" y="-117" font-family="Helvetica,sans-Serif" font-size="10.00">utilities.hpp</text>
</a>
</g>
</g>
<!-- Node13&#45;&gt;Node16 -->
<g id="edge24_Node000013_Node000016" class="edge">
<title>Node13&#45;&gt;Node16</title>
<g id="a_edge24_Node000013_Node000016"><a xlink:title=" ">
<path fill="none" stroke="#63b8ff" d="M668.72,-164.75C668.72,-157.8 668.72,-147.85 668.72,-139.13"/>
<polygon fill="#63b8ff" stroke="#63b8ff" points="672.22,-139.09 668.72,-129.09 665.22,-139.09 672.22,-139.09"/>
</a>
</g>
</g>
<!-- Node19 -->
<g id="Node000019" class="node">
<title>Node19</title>
<g id="a_Node000019"><a xlink:title=" ">
<polygon fill="#e0e0e0" stroke="#999999" points="922.72,-74 878.72,-74 878.72,-55 922.72,-55 922.72,-74"/>
<text text-anchor="middle" x="900.72" y="-62" font-family="Helvetica,sans-Serif" font-size="10.00">ctime</text>
</a>
</g>
</g>
<!-- Node13&#45;&gt;Node19 -->
<g id="edge38_Node000013_Node000019" class="edge">
<title>Node13&#45;&gt;Node19</title>
<g id="a_edge38_Node000013_Node000019"><a xlink:title=" ">
<path fill="none" stroke="#63b8ff" d="M677.93,-164.88C692.79,-151.4 723.47,-125.28 753.72,-110 764.12,-104.75 828.84,-85.92 868.86,-74.51"/>
<polygon fill="#63b8ff" stroke="#63b8ff" points="870.04,-77.81 878.7,-71.71 868.12,-71.08 870.04,-77.81"/>
</a>
</g>
</g>
<!-- Node21 -->
<g id="Node000021" class="node">
<title>Node21</title>
<g id="a_Node000021"><a xlink:title=" ">
<polygon fill="#e0e0e0" stroke="#999999" points="996.72,-74 940.72,-74 940.72,-55 996.72,-55 996.72,-74"/>
<text text-anchor="middle" x="968.72" y="-62" font-family="Helvetica,sans-Serif" font-size="10.00">unistd.h</text>
</a>
</g>
</g>
<!-- Node13&#45;&gt;Node21 -->
<g id="edge40_Node000013_Node000021" class="edge">
<title>Node13&#45;&gt;Node21</title>
<g id="a_edge40_Node000013_Node000021"><a xlink:title=" ">
<path fill="none" stroke="#63b8ff" d="M714.85,-170.21C760.32,-165.57 830.9,-154.61 886.72,-129 912.4,-117.22 937.41,-96.02 952.92,-81.37"/>
<polygon fill="#63b8ff" stroke="#63b8ff" points="955.77,-83.49 960.51,-74.01 950.89,-78.47 955.77,-83.49"/>
</a>
</g>
</g>
<!-- Node22 -->
<g id="Node000022" class="node">
<title>Node22</title>
<g id="a_Node000022"><a xlink:title=" ">
<polygon fill="#e0e0e0" stroke="#999999" points="813.22,-129 762.22,-129 762.22,-110 813.22,-110 813.22,-129"/>
<text text-anchor="middle" x="787.72" y="-117" font-family="Helvetica,sans-Serif" font-size="10.00">csignal</text>
</a>
</g>
</g>
<!-- Node13&#45;&gt;Node22 -->
<g id="edge35_Node000013_Node000022" class="edge">
<title>Node13&#45;&gt;Node22</title>
<g id="a_edge35_Node000013_Node000022"><a xlink:title=" ">
<path fill="none" stroke="#63b8ff" d="M687.84,-164.98C707.07,-156.42 736.95,-143.11 759.03,-133.28"/>
<polygon fill="#63b8ff" stroke="#63b8ff" points="760.54,-136.44 768.25,-129.17 757.69,-130.04 760.54,-136.44"/>
</a>
</g>
</g>
<!-- Node23 -->
<g id="Node000023" class="node">
<title>Node23</title>
<g id="a_Node000023"><a xlink:title=" ">
<polygon fill="#e0e0e0" stroke="#999999" points="877.72,-129 831.72,-129 831.72,-110 877.72,-110 877.72,-129"/>
<text text-anchor="middle" x="854.72" y="-117" font-family="Helvetica,sans-Serif" font-size="10.00">cstdio</text>
</a>
</g>
</g>
<!-- Node13&#45;&gt;Node23 -->
<g id="edge37_Node000013_Node000023" class="edge">
<title>Node13&#45;&gt;Node23</title>
<g id="a_edge37_Node000013_Node000023"><a xlink:title=" ">
<path fill="none" stroke="#63b8ff" d="M698.6,-164.98C732.35,-155.37 787.07,-139.78 821.96,-129.84"/>
<polygon fill="#63b8ff" stroke="#63b8ff" points="823.01,-133.18 831.67,-127.07 821.09,-126.44 823.01,-133.18"/>
</a>
</g>
</g>
<!-- Node14&#45;&gt;Node3 -->
<g id="edge17_Node000014_Node000003" class="edge">
<title>Node14&#45;&gt;Node3</title>
<g id="a_edge17_Node000014_Node000003"><a xlink:title=" ">
<path fill="none" stroke="#63b8ff" d="M283.52,-109.98C292.54,-102.15 306.13,-90.34 317.04,-80.86"/>
<polygon fill="#63b8ff" stroke="#63b8ff" points="319.49,-83.37 324.74,-74.17 314.9,-78.09 319.49,-83.37"/>
</a>
</g>
</g>
<!-- Node14&#45;&gt;Node4 -->
<g id="edge19_Node000014_Node000004" class="edge">
<title>Node14&#45;&gt;Node4</title>
<g id="a_edge19_Node000014_Node000004"><a xlink:title=" ">
<path fill="none" stroke="#63b8ff" d="M222.09,-117.44C152.85,-114.8 35.5,-105.65 8.72,-74 -33.11,-24.56 88.6,-13.51 155.29,-11.11"/>
<polygon fill="#63b8ff" stroke="#63b8ff" points="155.59,-14.6 165.48,-10.8 155.38,-7.61 155.59,-14.6"/>
</a>
</g>
</g>
<!-- Node14&#45;&gt;Node5 -->
<g id="edge18_Node000014_Node000005" class="edge">
<title>Node14&#45;&gt;Node5</title>
<g id="a_edge18_Node000014_Node000005"><a xlink:title=" ">
<path fill="none" stroke="#63b8ff" d="M240.14,-109.98C204.37,-100.91 147.6,-86.52 108.38,-76.57"/>
<polygon fill="#63b8ff" stroke="#63b8ff" points="109.12,-73.15 98.56,-74.08 107.4,-79.93 109.12,-73.15"/>
</a>
</g>
</g>
<!-- Node14&#45;&gt;Node9 -->
<g id="edge20_Node000014_Node000009" class="edge">
<title>Node14&#45;&gt;Node9</title>
<g id="a_edge20_Node000014_Node000009"><a xlink:title=" ">
<path fill="none" stroke="#63b8ff" d="M253.64,-109.98C232.98,-101.23 200.63,-87.51 177.31,-77.62"/>
<polygon fill="#63b8ff" stroke="#63b8ff" points="178.51,-74.33 167.93,-73.65 175.77,-80.77 178.51,-74.33"/>
</a>
</g>
</g>
<!-- Node14&#45;&gt;Node10 -->
<g id="edge21_Node000014_Node000010" class="edge">
<title>Node14&#45;&gt;Node10</title>
<g id="a_edge21_Node000014_Node000010"><a xlink:title=" ">
<path fill="none" stroke="#63b8ff" d="M307.18,-109.93C339.65,-101.58 390.59,-88.41 443.76,-74.23"/>
<polygon fill="#63b8ff" stroke="#63b8ff" points="444.96,-77.53 453.71,-71.57 443.15,-70.77 444.96,-77.53"/>
</a>
</g>
</g>
<!-- Node15&#45;&gt;Node10 -->
<g id="edge23_Node000015_Node000010" class="edge">
<title>Node15&#45;&gt;Node10</title>
<g id="a_edge23_Node000015_Node000010"><a xlink:title=" ">
<path fill="none" stroke="#63b8ff" d="M481.56,-109.75C480.65,-102.8 479.33,-92.85 478.18,-84.13"/>
<polygon fill="#63b8ff" stroke="#63b8ff" points="481.63,-83.54 476.85,-74.09 474.69,-84.46 481.63,-83.54"/>
</a>
</g>
</g>
<!-- Node16&#45;&gt;Node3 -->
<g id="edge25_Node000016_Node000003" class="edge">
<title>Node16&#45;&gt;Node3</title>
<g id="a_edge25_Node000016_Node000003"><a xlink:title=" ">
<path fill="none" stroke="#63b8ff" d="M631.52,-113.04C578.57,-105.19 478.18,-90.08 381.82,-73.98"/>
<polygon fill="#63b8ff" stroke="#63b8ff" points="382.35,-70.52 371.91,-72.31 381.19,-77.42 382.35,-70.52"/>
</a>
</g>
</g>
<!-- Node16&#45;&gt;Node4 -->
<g id="edge31_Node000016_Node000004" class="edge">
<title>Node16&#45;&gt;Node4</title>
<g id="a_edge31_Node000016_Node000004"><a xlink:title=" ">
<path fill="none" stroke="#63b8ff" d="M673.33,-109.84C679.84,-96.29 689.47,-70.08 675.72,-55 646.33,-22.76 346.35,-13.52 236.09,-11.2"/>
<polygon fill="#63b8ff" stroke="#63b8ff" points="236.1,-7.7 226.03,-10.99 235.96,-14.7 236.1,-7.7"/>
</a>
</g>
</g>
<!-- Node16&#45;&gt;Node5 -->
<g id="edge26_Node000016_Node000005" class="edge">
<title>Node16&#45;&gt;Node5</title>
<g id="a_edge26_Node000016_Node000005"><a xlink:title=" ">
<path fill="none" stroke="#63b8ff" d="M631.42,-116.37C544.19,-111.19 319.85,-96.77 121.46,-74"/>
<polygon fill="#63b8ff" stroke="#63b8ff" points="121.77,-70.51 111.44,-72.84 120.97,-77.47 121.77,-70.51"/>
</a>
</g>
</g>
<!-- Node16&#45;&gt;Node6 -->
<g id="edge27_Node000016_Node000006" class="edge">
<title>Node16&#45;&gt;Node6</title>
<g id="a_edge27_Node000016_Node000006"><a xlink:title=" ">
<path fill="none" stroke="#63b8ff" d="M661.29,-109.75C654.87,-102.18 645.41,-91.05 637.6,-81.84"/>
<polygon fill="#63b8ff" stroke="#63b8ff" points="640.15,-79.45 631.01,-74.09 634.82,-83.98 640.15,-79.45"/>
</a>
</g>
</g>
<!-- Node16&#45;&gt;Node12 -->
<g id="edge34_Node000016_Node000012" class="edge">
<title>Node16&#45;&gt;Node12</title>
<g id="a_edge34_Node000016_Node000012"><a xlink:title=" ">
<path fill="none" stroke="#63b8ff" d="M647.99,-109.98C626.96,-101.34 594.17,-87.87 570.18,-78.02"/>
<polygon fill="#63b8ff" stroke="#63b8ff" points="571.4,-74.73 560.82,-74.17 568.74,-81.21 571.4,-74.73"/>
</a>
</g>
</g>
<!-- Node17 -->
<g id="Node000017" class="node">
<title>Node17</title>
<g id="a_Node000017"><a xlink:title=" ">
<polygon fill="#e0e0e0" stroke="#999999" points="860.72,-74 796.72,-74 796.72,-55 860.72,-55 860.72,-74"/>
<text text-anchor="middle" x="828.72" y="-62" font-family="Helvetica,sans-Serif" font-size="10.00">algorithm</text>
</a>
</g>
</g>
<!-- Node16&#45;&gt;Node17 -->
<g id="edge28_Node000016_Node000017" class="edge">
<title>Node16&#45;&gt;Node17</title>
<g id="a_edge28_Node000016_Node000017"><a xlink:title=" ">
<path fill="none" stroke="#63b8ff" d="M694.43,-109.98C721.17,-101.13 763.25,-87.19 793.17,-77.28"/>
<polygon fill="#63b8ff" stroke="#63b8ff" points="794.42,-80.55 802.81,-74.08 792.22,-73.9 794.42,-80.55"/>
</a>
</g>
</g>
<!-- Node16&#45;&gt;Node18 -->
<g id="edge29_Node000016_Node000018" class="edge">
<title>Node16&#45;&gt;Node18</title>
<g id="a_edge29_Node000016_Node000018"><a xlink:title=" ">
<path fill="none" stroke="#63b8ff" d="M705.83,-113.7C784.05,-103.59 965.03,-80.2 1042.48,-70.18"/>
<polygon fill="#63b8ff" stroke="#63b8ff" points="1043.23,-73.62 1052.7,-68.86 1042.34,-66.67 1043.23,-73.62"/>
</a>
</g>
</g>
<!-- Node16&#45;&gt;Node19 -->
<g id="edge30_Node000016_Node000019" class="edge">
<title>Node16&#45;&gt;Node19</title>
<g id="a_edge30_Node000016_Node000019"><a xlink:title=" ">
<path fill="none" stroke="#63b8ff" d="M705.9,-110.85C744.28,-102.82 806.14,-89.53 868.41,-74.23"/>
<polygon fill="#63b8ff" stroke="#63b8ff" points="869.54,-77.56 878.4,-71.76 867.86,-70.76 869.54,-77.56"/>
</a>
</g>
</g>
<!-- Node20 -->
<g id="Node000020" class="node">
<title>Node20</title>
<g id="a_Node000020"><a xlink:title=" ">
<polygon fill="#e0e0e0" stroke="#999999" points="778.72,-74 722.72,-74 722.72,-55 778.72,-55 778.72,-74"/>
<text text-anchor="middle" x="750.72" y="-62" font-family="Helvetica,sans-Serif" font-size="10.00">sstream</text>
</a>
</g>
</g>
<!-- Node16&#45;&gt;Node20 -->
<g id="edge32_Node000016_Node000020" class="edge">
<title>Node16&#45;&gt;Node20</title>
<g id="a_edge32_Node000016_Node000020"><a xlink:title=" ">
<path fill="none" stroke="#63b8ff" d="M681.89,-109.98C694.49,-101.84 713.72,-89.41 728.66,-79.76"/>
<polygon fill="#63b8ff" stroke="#63b8ff" points="730.81,-82.54 737.31,-74.17 727.01,-76.66 730.81,-82.54"/>
</a>
</g>
</g>
<!-- Node16&#45;&gt;Node21 -->
<g id="edge33_Node000016_Node000021" class="edge">
<title>Node16&#45;&gt;Node21</title>
<g id="a_edge33_Node000016_Node000021"><a xlink:title=" ">
<path fill="none" stroke="#63b8ff" d="M705.87,-112.91C755.02,-105.37 844.6,-91.09 930.56,-74.14"/>
<polygon fill="#63b8ff" stroke="#63b8ff" points="931.35,-77.55 940.47,-72.17 929.98,-70.68 931.35,-77.55"/>
</a>
</g>
</g>
</g>
</svg>

<g id="navigator" transform="translate(0 0)" fill="#404254">
  <rect fill="#f2f5e9" fill-opacity="0.5" stroke="#606060" stroke-width=".5" x="0" y="0" width="60" height="60"/>
  <use id="zoomplus" xlink:href="#zoomPlus" x="17" y="9" onmousedown="handleZoom(evt,'in')"/>
  <use id="zoomminus" xlink:href="#zoomMin" x="42" y="9" onmousedown="handleZoom(evt,'out')"/>
  <use id="reset" xlink:href="#resetDef" x="30" y="36" onmousedown="handleReset()"/>
   <use id="arrowup" xlink:href="#arrowUp" x="0" y="0" onmousedown="handlePan(0,-1)"/>
  <use id="arrowright" xlink:href="#arrowRight" x="0" y="0" onmousedown="handlePan(1,0)"/>
  <use id="arrowdown" xlink:href="#arrowDown" x="0" y="0" onmousedown="handlePan(0,1)"/>
  <use id="arrowleft" xlink:href="#arrowLeft" x="0" y="0" onmousedown="handlePan(-1,0)"/>
</g>
<svg viewBox="0 0 15 15" width="100%" height="30px" preserveAspectRatio="xMaxYMin meet">
 <g id="arrow_out" transform="scale(0.3 0.3)">
  <a xlink:href="_log_ostream_inserters_8cpp__incl_org.svg" target="_base">
   <rect id="button" ry="5" rx="5" y="6" x="6" height="38" width="38"
        fill="#f2f5e9" fill-opacity="0.5" stroke="#606060" stroke-width="1.0"/>
   <path id="arrow"
     d="M 11.500037,31.436501 C 11.940474,20.09759 22.043105,11.32322 32.158766,21.979434 L 37.068811,17.246167 C 37.068811,17.246167 37.088388,32 37.088388,32 L 22.160133,31.978069 C 22.160133,31.978069 26.997745,27.140456 26.997745,27.140456 C 18.528582,18.264221 13.291696,25.230495 11.500037,31.436501 z"
     style="fill:#404040;"/>
  </a>
 </g>
</svg>

<style type='text/css'>
<![CDATA[
[data-mouse-over-selected='false'] { opacity: 0.7; }
[data-mouse-over-selected='true']  { opacity: 1.0; }
]]>
</style>
<script type="application/ecmascript"><![CDATA[
document.addEventListener('DOMContentLoaded', (event) => {
  highlightEdges();
  highlightAdjacentNodes();
});
]]></script>
</svg>
