<?xml version="1.0" encoding="UTF-8" standalone="no"?>
<!DOCTYPE svg PUBLIC "-//W3C//DTD SVG 1.1//EN"
 "http://www.w3.org/Graphics/SVG/1.1/DTD/svg11.dtd">
<!-- Generated by graphviz version 2.43.0 (0)
 -->
<!-- Title: src/LogOstreamInserters.cpp Pages: 1 -->
<svg width="416pt" height="196pt"
 viewBox="0.00 0.00 416.00 196.00" xmlns="http://www.w3.org/2000/svg" xmlns:xlink="http://www.w3.org/1999/xlink">
<g id="graph0" class="graph" transform="scale(1 1) rotate(0) translate(4 192)">
<title>src/LogOstreamInserters.cpp</title>
<!-- Node1 -->
<g id="node1" class="node">
<title>Node1</title>
<g id="a_node1"><a xlink:title=" ">
<polygon fill="#bfbfbf" stroke="black" points="167,-168.5 167,-187.5 323,-187.5 323,-168.5 167,-168.5"/>
<text text-anchor="middle" x="245" y="-175.5" font-family="Helvetica,sans-Serif" font-size="10.00">src/LogOstreamInserters.cpp</text>
</a>
</g>
</g>
<!-- Node2 -->
<g id="node2" class="node">
<title>Node2</title>
<g id="a_node2"><a xlink:href="_config_file_8hpp.html" target="_top" xlink:title=" ">
<polygon fill="none" stroke="black" points="42,-56.5 42,-75.5 128,-75.5 128,-56.5 42,-56.5"/>
<text text-anchor="middle" x="85" y="-63.5" font-family="Helvetica,sans-Serif" font-size="10.00">ConfigFile.hpp</text>
</a>
</g>
</g>
<!-- Node1&#45;&gt;Node2 -->
<g id="edge1" class="edge">
<title>Node1&#45;&gt;Node2</title>
<path fill="none" stroke="midnightblue" d="M170.92,-168.46C125.35,-161.51 73.07,-149.88 59,-132 47.67,-117.6 58.69,-97.63 69.68,-83.63"/>
<polygon fill="midnightblue" stroke="midnightblue" points="72.52,-85.69 76.31,-75.8 67.18,-81.17 72.52,-85.69"/>
</g>
<!-- Node6 -->
<g id="node6" class="node">
<title>Node6</title>
<g id="a_node6"><a xlink:href="_h_t_t_p_request_8hpp.html" target="_top" xlink:title=" ">
<polygon fill="none" stroke="black" points="68.5,-112.5 68.5,-131.5 171.5,-131.5 171.5,-112.5 68.5,-112.5"/>
<text text-anchor="middle" x="120" y="-119.5" font-family="Helvetica,sans-Serif" font-size="10.00">HTTPRequest.hpp</text>
</a>
</g>
</g>
<!-- Node1&#45;&gt;Node6 -->
<g id="edge5" class="edge">
<title>Node1&#45;&gt;Node6</title>
<path fill="none" stroke="midnightblue" d="M225.19,-168.44C204.71,-159.6 172.52,-145.69 149.14,-135.59"/>
<polygon fill="midnightblue" stroke="midnightblue" points="150.28,-132.27 139.71,-131.52 147.51,-138.7 150.28,-132.27"/>
</g>
<!-- Node7 -->
<g id="node7" class="node">
<title>Node7</title>
<g id="a_node7"><a xlink:href="_status_code_8hpp.html" target="_top" xlink:title=" ">
<polygon fill="none" stroke="black" points="246.5,-56.5 246.5,-75.5 339.5,-75.5 339.5,-56.5 246.5,-56.5"/>
<text text-anchor="middle" x="293" y="-63.5" font-family="Helvetica,sans-Serif" font-size="10.00">StatusCode.hpp</text>
</a>
</g>
</g>
<!-- Node1&#45;&gt;Node7 -->
<g id="edge16" class="edge">
<title>Node1&#45;&gt;Node7</title>
<path fill="none" stroke="midnightblue" d="M266.48,-168.36C281.39,-161.09 300.11,-149.12 309,-132 316.76,-117.06 310.62,-98.22 303.82,-84.67"/>
<polygon fill="midnightblue" stroke="midnightblue" points="306.85,-82.93 298.94,-75.88 300.73,-86.32 306.85,-82.93"/>
</g>
<!-- Node9 -->
<g id="node9" class="node">
<title>Node9</title>
<g id="a_node9"><a xlink:href="_h_t_t_p_response_8hpp.html" target="_top" xlink:title=" ">
<polygon fill="none" stroke="black" points="190,-112.5 190,-131.5 300,-131.5 300,-112.5 190,-112.5"/>
<text text-anchor="middle" x="245" y="-119.5" font-family="Helvetica,sans-Serif" font-size="10.00">HTTPResponse.hpp</text>
</a>
</g>
</g>
<!-- Node1&#45;&gt;Node9 -->
<g id="edge12" class="edge">
<title>Node1&#45;&gt;Node9</title>
<path fill="none" stroke="midnightblue" d="M245,-168.08C245,-161.01 245,-150.86 245,-141.99"/>
<polygon fill="midnightblue" stroke="midnightblue" points="248.5,-141.75 245,-131.75 241.5,-141.75 248.5,-141.75"/>
</g>
<!-- Node10 -->
<g id="node10" class="node">
<title>Node10</title>
<g id="a_node10"><a xlink:title=" ">
<polygon fill="none" stroke="#bfbfbf" points="356,-112.5 356,-131.5 408,-131.5 408,-112.5 356,-112.5"/>
<text text-anchor="middle" x="382" y="-119.5" font-family="Helvetica,sans-Serif" font-size="10.00">cassert</text>
</a>
</g>
</g>
<!-- Node1&#45;&gt;Node10 -->
<g id="edge17" class="edge">
<title>Node1&#45;&gt;Node10</title>
<path fill="none" stroke="midnightblue" d="M266.71,-168.44C289.35,-159.52 325.07,-145.44 350.75,-135.32"/>
<polygon fill="midnightblue" stroke="midnightblue" points="352.37,-138.44 360.39,-131.52 349.81,-131.93 352.37,-138.44"/>
</g>
<!-- Node3 -->
<g id="node3" class="node">
<title>Node3</title>
<g id="a_node3"><a xlink:title=" ">
<polygon fill="none" stroke="#bfbfbf" points="126,-0.5 126,-19.5 186,-19.5 186,-0.5 126,-0.5"/>
<text text-anchor="middle" x="156" y="-7.5" font-family="Helvetica,sans-Serif" font-size="10.00">iostream</text>
</a>
</g>
</g>
<!-- Node2&#45;&gt;Node3 -->
<g id="edge2" class="edge">
<title>Node2&#45;&gt;Node3</title>
<path fill="none" stroke="midnightblue" d="M96.41,-56.32C107.11,-48.18 123.34,-35.84 136.16,-26.09"/>
<polygon fill="midnightblue" stroke="midnightblue" points="138.54,-28.67 144.39,-19.83 134.31,-23.1 138.54,-28.67"/>
</g>
<!-- Node4 -->
<g id="node4" class="node">
<title>Node4</title>
<g id="a_node4"><a xlink:title=" ">
<polygon fill="none" stroke="#bfbfbf" points="0,-0.5 0,-19.5 38,-19.5 38,-0.5 0,-0.5"/>
<text text-anchor="middle" x="19" y="-7.5" font-family="Helvetica,sans-Serif" font-size="10.00">map</text>
</a>
</g>
</g>
<!-- Node2&#45;&gt;Node4 -->
<g id="edge3" class="edge">
<title>Node2&#45;&gt;Node4</title>
<path fill="none" stroke="midnightblue" d="M74.4,-56.32C64.54,-48.26 49.65,-36.08 37.78,-26.37"/>
<polygon fill="midnightblue" stroke="midnightblue" points="39.75,-23.46 29.8,-19.83 35.32,-28.88 39.75,-23.46"/>
</g>
<!-- Node5 -->
<g id="node5" class="node">
<title>Node5</title>
<g id="a_node5"><a xlink:title=" ">
<polygon fill="none" stroke="#bfbfbf" points="60.5,-0.5 60.5,-19.5 107.5,-19.5 107.5,-0.5 60.5,-0.5"/>
<text text-anchor="middle" x="84" y="-7.5" font-family="Helvetica,sans-Serif" font-size="10.00">vector</text>
</a>
</g>
</g>
<!-- Node2&#45;&gt;Node5 -->
<g id="edge4" class="edge">
<title>Node2&#45;&gt;Node5</title>
<path fill="none" stroke="midnightblue" d="M84.83,-56.08C84.7,-49.01 84.52,-38.86 84.35,-29.99"/>
<polygon fill="midnightblue" stroke="midnightblue" points="87.85,-29.68 84.16,-19.75 80.85,-29.81 87.85,-29.68"/>
</g>
<!-- Node6&#45;&gt;Node2 -->
<g id="edge6" class="edge">
<title>Node6&#45;&gt;Node2</title>
<path fill="none" stroke="midnightblue" d="M114.22,-112.08C109.33,-104.53 102.17,-93.49 96.17,-84.23"/>
<polygon fill="midnightblue" stroke="midnightblue" points="99.05,-82.24 90.67,-75.75 93.17,-86.05 99.05,-82.24"/>
</g>
<!-- Node6&#45;&gt;Node3 -->
<g id="edge9" class="edge">
<title>Node6&#45;&gt;Node3</title>
<path fill="none" stroke="midnightblue" d="M123.46,-112.44C127.04,-103.44 132.71,-88.83 137,-76 142.19,-60.49 147.34,-42.65 150.97,-29.59"/>
<polygon fill="midnightblue" stroke="midnightblue" points="154.36,-30.47 153.63,-19.9 147.61,-28.62 154.36,-30.47"/>
</g>
<!-- Node6&#45;&gt;Node4 -->
<g id="edge10" class="edge">
<title>Node6&#45;&gt;Node4</title>
<path fill="none" stroke="midnightblue" d="M88.99,-112.41C70.03,-105.58 46.84,-94.1 33,-76 22.92,-62.82 19.75,-43.95 18.9,-29.93"/>
<polygon fill="midnightblue" stroke="midnightblue" points="22.39,-29.44 18.64,-19.53 15.39,-29.61 22.39,-29.44"/>
</g>
<!-- Node6&#45;&gt;Node7 -->
<g id="edge7" class="edge">
<title>Node6&#45;&gt;Node7</title>
<path fill="none" stroke="midnightblue" d="M147.41,-112.44C176.77,-103.28 223.52,-88.69 256.1,-78.52"/>
<polygon fill="midnightblue" stroke="midnightblue" points="257.21,-81.84 265.72,-75.52 255.13,-75.16 257.21,-81.84"/>
</g>
<!-- Node8 -->
<g id="node8" class="node">
<title>Node8</title>
<g id="a_node8"><a xlink:title=" ">
<polygon fill="none" stroke="#bfbfbf" points="184,-56.5 184,-75.5 228,-75.5 228,-56.5 184,-56.5"/>
<text text-anchor="middle" x="206" y="-63.5" font-family="Helvetica,sans-Serif" font-size="10.00">string</text>
</a>
</g>
</g>
<!-- Node6&#45;&gt;Node8 -->
<g id="edge11" class="edge">
<title>Node6&#45;&gt;Node8</title>
<path fill="none" stroke="midnightblue" d="M133.82,-112.32C147.23,-103.9 167.82,-90.97 183.59,-81.07"/>
<polygon fill="midnightblue" stroke="midnightblue" points="185.61,-83.94 192.22,-75.65 181.89,-78.01 185.61,-83.94"/>
</g>
<!-- Node7&#45;&gt;Node3 -->
<g id="edge8" class="edge">
<title>Node7&#45;&gt;Node3</title>
<path fill="none" stroke="midnightblue" d="M271.29,-56.44C248.65,-47.52 212.93,-33.44 187.25,-23.32"/>
<polygon fill="midnightblue" stroke="midnightblue" points="188.19,-19.93 177.61,-19.52 185.63,-26.44 188.19,-19.93"/>
</g>
<!-- Node9&#45;&gt;Node2 -->
<g id="edge15" class="edge">
<title>Node9&#45;&gt;Node2</title>
<path fill="none" stroke="midnightblue" d="M219.65,-112.44C192.73,-103.36 150,-88.94 119.91,-78.78"/>
<polygon fill="midnightblue" stroke="midnightblue" points="120.83,-75.4 110.23,-75.52 118.59,-82.03 120.83,-75.4"/>
</g>
<!-- Node9&#45;&gt;Node7 -->
<g id="edge13" class="edge">
<title>Node9&#45;&gt;Node7</title>
<path fill="none" stroke="midnightblue" d="M252.93,-112.08C259.85,-104.3 270.07,-92.8 278.45,-83.37"/>
<polygon fill="midnightblue" stroke="midnightblue" points="281.19,-85.55 285.22,-75.75 275.96,-80.9 281.19,-85.55"/>
</g>
<!-- Node9&#45;&gt;Node8 -->
<g id="edge14" class="edge">
<title>Node9&#45;&gt;Node8</title>
<path fill="none" stroke="midnightblue" d="M238.56,-112.08C233.05,-104.46 224.97,-93.26 218.24,-83.94"/>
<polygon fill="midnightblue" stroke="midnightblue" points="221.01,-81.81 212.32,-75.75 215.34,-85.91 221.01,-81.81"/>
</g>
</g>
</svg>
