<?xml version="1.0" encoding="UTF-8" standalone="no"?>
<!DOCTYPE svg PUBLIC "-//W3C//DTD SVG 1.1//EN"
 "http://www.w3.org/Graphics/SVG/1.1/DTD/svg11.dtd">
<!-- Generated by graphviz version 2.43.0 (0)
 -->
<!-- Title: inc/Method.hpp Pages: 1 -->
<svg width="2650pt" height="453pt"
 viewBox="0.00 0.00 2650.00 453.00" xmlns="http://www.w3.org/2000/svg" xmlns:xlink="http://www.w3.org/1999/xlink">
<g id="graph0" class="graph" transform="scale(1 1) rotate(0) translate(4 449)">
<title>inc/Method.hpp</title>
<!-- Node1 -->
<g id="node1" class="node">
<title>Node1</title>
<g id="a_node1"><a xlink:title=" ">
<polygon fill="#bfbfbf" stroke="black" points="1326.5,-425.5 1326.5,-444.5 1418.5,-444.5 1418.5,-425.5 1326.5,-425.5"/>
<text text-anchor="middle" x="1372.5" y="-432.5" font-family="Helvetica,sans-Serif" font-size="10.00">inc/Method.hpp</text>
</a>
</g>
</g>
<!-- Node2 -->
<g id="node2" class="node">
<title>Node2</title>
<g id="a_node2"><a xlink:href="_config_file_8hpp.html" target="_top" xlink:title=" ">
<polygon fill="none" stroke="black" points="927,-369.5 927,-388.5 1030,-388.5 1030,-369.5 927,-369.5"/>
<text text-anchor="middle" x="978.5" y="-376.5" font-family="Helvetica,sans-Serif" font-size="10.00">inc/ConfigFile.hpp</text>
</a>
</g>
</g>
<!-- Node1&#45;&gt;Node2 -->
<g id="edge1" class="edge">
<title>Node1&#45;&gt;Node2</title>
<path fill="none" stroke="midnightblue" d="M1316.22,-426.29C1239.81,-415.81 1104.3,-397.24 1030.29,-387.1"/>
<polygon fill="midnightblue" stroke="midnightblue" points="1315.76,-429.76 1326.14,-427.65 1316.71,-422.82 1315.76,-429.76"/>
</g>
<!-- Node39 -->
<g id="node39" class="node">
<title>Node39</title>
<g id="a_node39"><a xlink:href="_h_t_t_p_request_8hpp.html" target="_top" xlink:title=" ">
<polygon fill="none" stroke="black" points="1706.5,-369.5 1706.5,-388.5 1826.5,-388.5 1826.5,-369.5 1706.5,-369.5"/>
<text text-anchor="middle" x="1766.5" y="-376.5" font-family="Helvetica,sans-Serif" font-size="10.00">inc/HTTPRequest.hpp</text>
</a>
</g>
</g>
<!-- Node1&#45;&gt;Node39 -->
<g id="edge56" class="edge">
<title>Node1&#45;&gt;Node39</title>
<path fill="none" stroke="midnightblue" d="M1428.86,-426.28C1502.44,-416.19 1630.69,-398.61 1706.17,-388.27"/>
<polygon fill="midnightblue" stroke="midnightblue" points="1428.29,-422.82 1418.86,-427.65 1429.24,-429.76 1428.29,-422.82"/>
</g>
<!-- Node3 -->
<g id="node3" class="node">
<title>Node3</title>
<g id="a_node3"><a xlink:href="_config_file_parser_8hpp.html" target="_top" xlink:title=" ">
<polygon fill="none" stroke="black" points="684.5,-313.5 684.5,-332.5 816.5,-332.5 816.5,-313.5 684.5,-313.5"/>
<text text-anchor="middle" x="750.5" y="-320.5" font-family="Helvetica,sans-Serif" font-size="10.00">inc/ConfigFileParser.hpp</text>
</a>
</g>
</g>
<!-- Node2&#45;&gt;Node3 -->
<g id="edge2" class="edge">
<title>Node2&#45;&gt;Node3</title>
<path fill="none" stroke="midnightblue" d="M932.43,-367.09C889.35,-356.89 825.91,-341.86 786.46,-332.52"/>
<polygon fill="midnightblue" stroke="midnightblue" points="931.84,-370.54 942.37,-369.44 933.45,-363.73 931.84,-370.54"/>
</g>
<!-- Node7 -->
<g id="node7" class="node">
<title>Node7</title>
<g id="a_node7"><a xlink:href="_connection_8hpp.html" target="_top" xlink:title=" ">
<polygon fill="none" stroke="black" points="1342.5,-313.5 1342.5,-332.5 1452.5,-332.5 1452.5,-313.5 1342.5,-313.5"/>
<text text-anchor="middle" x="1397.5" y="-320.5" font-family="Helvetica,sans-Serif" font-size="10.00">inc/Connection.hpp</text>
</a>
</g>
</g>
<!-- Node2&#45;&gt;Node7 -->
<g id="edge6" class="edge">
<title>Node2&#45;&gt;Node7</title>
<path fill="none" stroke="midnightblue" d="M1040.43,-370.02C1122.08,-359.5 1264.47,-341.14 1342.5,-331.09"/>
<polygon fill="midnightblue" stroke="midnightblue" points="1039.77,-366.57 1030.3,-371.32 1040.66,-373.52 1039.77,-366.57"/>
</g>
<!-- Node9 -->
<g id="node9" class="node">
<title>Node9</title>
<g id="a_node9"><a xlink:href="_response_builder_8hpp.html" target="_top" xlink:title=" ">
<polygon fill="none" stroke="black" points="2076.5,-123.5 2076.5,-142.5 2212.5,-142.5 2212.5,-123.5 2076.5,-123.5"/>
<text text-anchor="middle" x="2144.5" y="-130.5" font-family="Helvetica,sans-Serif" font-size="10.00">inc/ResponseBuilder.hpp</text>
</a>
</g>
</g>
<!-- Node2&#45;&gt;Node9 -->
<g id="edge43" class="edge">
<title>Node2&#45;&gt;Node9</title>
<path fill="none" stroke="midnightblue" d="M985.96,-359.7C1005.35,-312.55 1056.99,-189.84 1073.5,-179 1119.7,-148.68 2012.4,-147.21 2067.5,-143 2070.32,-142.78 2073.19,-142.54 2076.09,-142.28"/>
<polygon fill="midnightblue" stroke="midnightblue" points="982.69,-358.44 982.14,-369.02 989.17,-361.09 982.69,-358.44"/>
</g>
<!-- Node10 -->
<g id="node10" class="node">
<title>Node10</title>
<g id="a_node10"><a xlink:href="_server_8hpp.html" target="_top" xlink:title=" ">
<polygon fill="none" stroke="black" points="1205.5,-67.5 1205.5,-86.5 1291.5,-86.5 1291.5,-67.5 1205.5,-67.5"/>
<text text-anchor="middle" x="1248.5" y="-74.5" font-family="Helvetica,sans-Serif" font-size="10.00">inc/Server.hpp</text>
</a>
</g>
</g>
<!-- Node2&#45;&gt;Node10 -->
<g id="edge44" class="edge">
<title>Node2&#45;&gt;Node10</title>
<path fill="none" stroke="midnightblue" d="M968.85,-360.47C957.59,-338.33 940.5,-298.75 940.5,-262.5 940.5,-262.5 940.5,-262.5 940.5,-193.5 940.5,-137.61 1120.58,-99.66 1205.35,-84.89"/>
<polygon fill="midnightblue" stroke="midnightblue" points="965.77,-362.13 973.53,-369.34 971.96,-358.86 965.77,-362.13"/>
</g>
<!-- Node14 -->
<g id="node14" class="node">
<title>Node14</title>
<g id="a_node14"><a xlink:href="test__connection_receive_header_8cpp.html" target="_top" xlink:title=" ">
<polygon fill="none" stroke="black" points="715,-0.5 715,-30.5 870,-30.5 870,-0.5 715,-0.5"/>
<text text-anchor="start" x="723" y="-18.5" font-family="Helvetica,sans-Serif" font-size="10.00">test/test_connectionReceive</text>
<text text-anchor="middle" x="792.5" y="-7.5" font-family="Helvetica,sans-Serif" font-size="10.00">Header.cpp</text>
</a>
</g>
</g>
<!-- Node2&#45;&gt;Node14 -->
<g id="edge48" class="edge">
<title>Node2&#45;&gt;Node14</title>
<path fill="none" stroke="midnightblue" d="M916.66,-374.72C795.05,-366.58 536.5,-340.14 536.5,-262.5 536.5,-262.5 536.5,-262.5 536.5,-132 536.5,-88.97 658.19,-50.37 733.77,-30.55"/>
<polygon fill="midnightblue" stroke="midnightblue" points="916.73,-378.24 926.93,-375.39 917.18,-371.25 916.73,-378.24"/>
</g>
<!-- Node18 -->
<g id="node18" class="node">
<title>Node18</title>
<g id="a_node18"><a xlink:href="test__init_virtual_servers_8cpp.html" target="_top" xlink:title=" ">
<polygon fill="none" stroke="black" points="0,-6 0,-25 167,-25 167,-6 0,-6"/>
<text text-anchor="middle" x="83.5" y="-13" font-family="Helvetica,sans-Serif" font-size="10.00">test/test_initVirtualServers.cpp</text>
</a>
</g>
</g>
<!-- Node2&#45;&gt;Node18 -->
<g id="edge49" class="edge">
<title>Node2&#45;&gt;Node18</title>
<path fill="none" stroke="midnightblue" d="M916.46,-378.55C794.05,-378.7 526.32,-374.14 445.5,-333 408.57,-314.2 384.5,-303.93 384.5,-262.5 384.5,-262.5 384.5,-262.5 384.5,-132 384.5,-78.9 219.13,-41.06 133.54,-25.03"/>
<polygon fill="midnightblue" stroke="midnightblue" points="916.79,-382.05 926.78,-378.52 916.77,-375.05 916.79,-382.05"/>
</g>
<!-- Node19 -->
<g id="node19" class="node">
<title>Node19</title>
<g id="a_node19"><a xlink:href="test__is_duplicate_server_8cpp.html" target="_top" xlink:title=" ">
<polygon fill="none" stroke="black" points="184.5,-6 184.5,-25 352.5,-25 352.5,-6 184.5,-6"/>
<text text-anchor="middle" x="268.5" y="-13" font-family="Helvetica,sans-Serif" font-size="10.00">test/test_isDuplicateServer.cpp</text>
</a>
</g>
</g>
<!-- Node2&#45;&gt;Node19 -->
<g id="edge50" class="edge">
<title>Node2&#45;&gt;Node19</title>
<path fill="none" stroke="midnightblue" d="M916.52,-377.93C801.38,-376.91 559.46,-370.22 485.5,-333 447.96,-314.11 422.5,-304.52 422.5,-262.5 422.5,-262.5 422.5,-262.5 422.5,-132 422.5,-101.2 420.09,-88.96 398.5,-67 376.6,-44.73 343.76,-32.08 316.57,-25.01"/>
<polygon fill="midnightblue" stroke="midnightblue" points="916.56,-381.44 926.59,-378.01 916.62,-374.44 916.56,-381.44"/>
</g>
<!-- Node20 -->
<g id="node20" class="node">
<title>Node20</title>
<g id="a_node20"><a xlink:href="test__register_connection_8cpp.html" target="_top" xlink:title=" ">
<polygon fill="none" stroke="black" points="371,-6 371,-25 546,-25 546,-6 371,-6"/>
<text text-anchor="middle" x="458.5" y="-13" font-family="Helvetica,sans-Serif" font-size="10.00">test/test_registerConnection.cpp</text>
</a>
</g>
</g>
<!-- Node2&#45;&gt;Node20 -->
<g id="edge52" class="edge">
<title>Node2&#45;&gt;Node20</title>
<path fill="none" stroke="midnightblue" d="M916.63,-377.04C809.72,-374.52 595.42,-365.45 528.5,-333 489.33,-314 460.5,-306.03 460.5,-262.5 460.5,-262.5 460.5,-262.5 460.5,-132 460.5,-92.09 459.29,-44.44 458.75,-25.19"/>
<polygon fill="midnightblue" stroke="midnightblue" points="916.87,-380.54 926.95,-377.27 917.03,-373.55 916.87,-380.54"/>
</g>
<!-- Node21 -->
<g id="node21" class="node">
<title>Node21</title>
<g id="a_node21"><a xlink:href="test__register_virtual_server_8cpp.html" target="_top" xlink:title=" ">
<polygon fill="none" stroke="black" points="564.5,-0.5 564.5,-30.5 696.5,-30.5 696.5,-0.5 564.5,-0.5"/>
<text text-anchor="start" x="572.5" y="-18.5" font-family="Helvetica,sans-Serif" font-size="10.00">test/test_registerVirtual</text>
<text text-anchor="middle" x="630.5" y="-7.5" font-family="Helvetica,sans-Serif" font-size="10.00">Server.cpp</text>
</a>
</g>
</g>
<!-- Node2&#45;&gt;Node21 -->
<g id="edge53" class="edge">
<title>Node2&#45;&gt;Node21</title>
<path fill="none" stroke="midnightblue" d="M916.54,-375.56C819.71,-371 637.52,-359.16 578.5,-333 535.17,-313.8 498.5,-309.89 498.5,-262.5 498.5,-262.5 498.5,-262.5 498.5,-132 498.5,-81.45 554,-47.89 593.03,-30.55"/>
<polygon fill="midnightblue" stroke="midnightblue" points="916.62,-379.07 926.77,-376.03 916.94,-372.08 916.62,-379.07"/>
</g>
<!-- Node26 -->
<g id="node26" class="node">
<title>Node26</title>
<g id="a_node26"><a xlink:href="test___response_body_handler_8cpp.html" target="_top" xlink:title=" ">
<polygon fill="none" stroke="black" points="1684.5,-123.5 1684.5,-142.5 1876.5,-142.5 1876.5,-123.5 1684.5,-123.5"/>
<text text-anchor="middle" x="1780.5" y="-130.5" font-family="Helvetica,sans-Serif" font-size="10.00">test/test_ResponseBodyHandler.cpp</text>
</a>
</g>
</g>
<!-- Node2&#45;&gt;Node26 -->
<g id="edge54" class="edge">
<title>Node2&#45;&gt;Node26</title>
<path fill="none" stroke="midnightblue" d="M977.92,-359.31C977.81,-318.88 983.87,-223.39 1040.5,-179 1090.01,-140.2 1495.47,-134.41 1684.34,-133.85"/>
<polygon fill="midnightblue" stroke="midnightblue" points="974.42,-359.42 978.09,-369.36 981.42,-359.31 974.42,-359.42"/>
</g>
<!-- Node27 -->
<g id="node27" class="node">
<title>Node27</title>
<g id="a_node27"><a xlink:href="_target_resource_handler_8hpp.html" target="_top" xlink:title=" ">
<polygon fill="none" stroke="black" points="1158,-252 1158,-271 1325,-271 1325,-252 1158,-252"/>
<text text-anchor="middle" x="1241.5" y="-259" font-family="Helvetica,sans-Serif" font-size="10.00">inc/TargetResourceHandler.hpp</text>
</a>
</g>
</g>
<!-- Node2&#45;&gt;Node27 -->
<g id="edge45" class="edge">
<title>Node2&#45;&gt;Node27</title>
<path fill="none" stroke="midnightblue" d="M1016.17,-366.33C1041.96,-357.96 1076.74,-345.92 1106.5,-333 1151.61,-313.41 1202.44,-285.07 1226.86,-271.04"/>
<polygon fill="midnightblue" stroke="midnightblue" points="1014.86,-363.08 1006.41,-369.47 1017,-369.74 1014.86,-363.08"/>
</g>
<!-- Node29 -->
<g id="node29" class="node">
<title>Node29</title>
<g id="a_node29"><a xlink:href="test___target_resource_handler_8cpp.html" target="_top" xlink:title=" ">
<polygon fill="none" stroke="black" points="1083,-179.5 1083,-209.5 1220,-209.5 1220,-179.5 1083,-179.5"/>
<text text-anchor="start" x="1091" y="-197.5" font-family="Helvetica,sans-Serif" font-size="10.00">test/test_TargetResource</text>
<text text-anchor="middle" x="1151.5" y="-186.5" font-family="Helvetica,sans-Serif" font-size="10.00">Handler.cpp</text>
</a>
</g>
</g>
<!-- Node2&#45;&gt;Node29 -->
<g id="edge55" class="edge">
<title>Node2&#45;&gt;Node29</title>
<path fill="none" stroke="midnightblue" d="M1014.01,-365.71C1031.84,-358.27 1052.91,-347.4 1068.5,-333 1108.03,-296.49 1135.13,-236.88 1146.08,-209.75"/>
<polygon fill="midnightblue" stroke="midnightblue" points="1012.49,-362.55 1004.49,-369.5 1015.08,-369.05 1012.49,-362.55"/>
</g>
<!-- Node31 -->
<g id="node31" class="node">
<title>Node31</title>
<g id="a_node31"><a xlink:href="_log_ostream_inserters_8cpp.html" target="_top" xlink:title=" ">
<polygon fill="none" stroke="black" points="1508.5,-252 1508.5,-271 1664.5,-271 1664.5,-252 1508.5,-252"/>
<text text-anchor="middle" x="1586.5" y="-259" font-family="Helvetica,sans-Serif" font-size="10.00">src/LogOstreamInserters.cpp</text>
</a>
</g>
</g>
<!-- Node2&#45;&gt;Node31 -->
<g id="edge47" class="edge">
<title>Node2&#45;&gt;Node31</title>
<path fill="none" stroke="midnightblue" d="M1040.34,-375.46C1152.39,-370.32 1384.53,-357.08 1461.5,-333 1506.92,-318.79 1554.15,-286.54 1575.2,-271.08"/>
<polygon fill="midnightblue" stroke="midnightblue" points="1040.04,-371.97 1030.2,-375.91 1040.35,-378.96 1040.04,-371.97"/>
</g>
<!-- Node32 -->
<g id="node32" class="node">
<title>Node32</title>
<g id="a_node32"><a xlink:href="test___ostream_inserters_8cpp.html" target="_top" xlink:title=" ">
<polygon fill="none" stroke="black" points="1683,-252 1683,-271 1850,-271 1850,-252 1683,-252"/>
<text text-anchor="middle" x="1766.5" y="-259" font-family="Helvetica,sans-Serif" font-size="10.00">test/test_OstreamInserters.cpp</text>
</a>
</g>
</g>
<!-- Node2&#45;&gt;Node32 -->
<g id="edge51" class="edge">
<title>Node2&#45;&gt;Node32</title>
<path fill="none" stroke="midnightblue" d="M1040.3,-376.1C1138.32,-372.31 1335.15,-361.58 1499.5,-333 1589.24,-317.4 1692.85,-286.12 1740.31,-271.03"/>
<polygon fill="midnightblue" stroke="midnightblue" points="1040.14,-372.6 1030.27,-376.48 1040.4,-379.6 1040.14,-372.6"/>
</g>
<!-- Node33 -->
<g id="node33" class="node">
<title>Node33</title>
<g id="a_node33"><a xlink:href="_request_parser_8hpp.html" target="_top" xlink:title=" ">
<polygon fill="none" stroke="black" points="2019.5,-313.5 2019.5,-332.5 2143.5,-332.5 2143.5,-313.5 2019.5,-313.5"/>
<text text-anchor="middle" x="2081.5" y="-320.5" font-family="Helvetica,sans-Serif" font-size="10.00">inc/RequestParser.hpp</text>
</a>
</g>
</g>
<!-- Node2&#45;&gt;Node33 -->
<g id="edge37" class="edge">
<title>Node2&#45;&gt;Node33</title>
<path fill="none" stroke="midnightblue" d="M1040.49,-374.97C1233.98,-365.49 1825.37,-336.54 2019.23,-327.05"/>
<polygon fill="midnightblue" stroke="midnightblue" points="1040.04,-371.48 1030.22,-375.47 1040.38,-378.47 1040.04,-371.48"/>
</g>
<!-- Node38 -->
<g id="node38" class="node">
<title>Node38</title>
<g id="a_node38"><a xlink:href="_config_file_8cpp.html" target="_top" xlink:title=" ">
<polygon fill="none" stroke="black" points="254.5,-313.5 254.5,-332.5 356.5,-332.5 356.5,-313.5 254.5,-313.5"/>
<text text-anchor="middle" x="305.5" y="-320.5" font-family="Helvetica,sans-Serif" font-size="10.00">src/ConfigFile.cpp</text>
</a>
</g>
</g>
<!-- Node2&#45;&gt;Node38 -->
<g id="edge46" class="edge">
<title>Node2&#45;&gt;Node38</title>
<path fill="none" stroke="midnightblue" d="M916.5,-374.72C806.39,-368.6 569.58,-354.13 370.5,-333 365.97,-332.52 361.27,-331.97 356.56,-331.38"/>
<polygon fill="midnightblue" stroke="midnightblue" points="916.57,-378.23 926.75,-375.28 916.96,-371.24 916.57,-378.23"/>
</g>
<!-- Node4 -->
<g id="node4" class="node">
<title>Node4</title>
<g id="a_node4"><a xlink:href="_config_file_parser_8cpp.html" target="_top" xlink:title=" ">
<polygon fill="none" stroke="black" points="603,-252 603,-271 734,-271 734,-252 603,-252"/>
<text text-anchor="middle" x="668.5" y="-259" font-family="Helvetica,sans-Serif" font-size="10.00">src/ConfigFileParser.cpp</text>
</a>
</g>
</g>
<!-- Node3&#45;&gt;Node4 -->
<g id="edge3" class="edge">
<title>Node3&#45;&gt;Node4</title>
<path fill="none" stroke="midnightblue" d="M730.23,-307.29C714.5,-295.88 693.25,-280.46 680.23,-271.01"/>
<polygon fill="midnightblue" stroke="midnightblue" points="728.6,-310.43 738.75,-313.48 732.71,-304.77 728.6,-310.43"/>
</g>
<!-- Node5 -->
<g id="node5" class="node">
<title>Node5</title>
<g id="a_node5"><a xlink:href="main_8cpp.html" target="_top" xlink:title=" ">
<polygon fill="none" stroke="black" points="888,-6 888,-25 967,-25 967,-6 888,-6"/>
<text text-anchor="middle" x="927.5" y="-13" font-family="Helvetica,sans-Serif" font-size="10.00">src/main.cpp</text>
</a>
</g>
</g>
<!-- Node3&#45;&gt;Node5 -->
<g id="edge4" class="edge">
<title>Node3&#45;&gt;Node5</title>
<path fill="none" stroke="midnightblue" d="M674.02,-316.34C645.21,-310.43 614.39,-298.96 593.5,-277 567.87,-250.05 574.5,-232.69 574.5,-195.5 574.5,-195.5 574.5,-195.5 574.5,-132 574.5,-123.49 814.87,-50.37 898.91,-25.07"/>
<polygon fill="midnightblue" stroke="midnightblue" points="673.64,-319.83 684.11,-318.2 674.91,-312.94 673.64,-319.83"/>
</g>
<!-- Node6 -->
<g id="node6" class="node">
<title>Node6</title>
<g id="a_node6"><a xlink:href="test___config_file_parser_8cpp.html" target="_top" xlink:title=" ">
<polygon fill="none" stroke="black" points="752.5,-252 752.5,-271 912.5,-271 912.5,-252 752.5,-252"/>
<text text-anchor="middle" x="832.5" y="-259" font-family="Helvetica,sans-Serif" font-size="10.00">test/test_ConfigFileParser.cpp</text>
</a>
</g>
</g>
<!-- Node3&#45;&gt;Node6 -->
<g id="edge5" class="edge">
<title>Node3&#45;&gt;Node6</title>
<path fill="none" stroke="midnightblue" d="M770.77,-307.29C786.5,-295.88 807.75,-280.46 820.77,-271.01"/>
<polygon fill="midnightblue" stroke="midnightblue" points="768.29,-304.77 762.25,-313.48 772.4,-310.43 768.29,-304.77"/>
</g>
<!-- Node8 -->
<g id="node8" class="node">
<title>Node8</title>
<g id="a_node8"><a xlink:href="_response_body_handler_8hpp.html" target="_top" xlink:title=" ">
<polygon fill="none" stroke="black" points="1978.5,-185 1978.5,-204 2142.5,-204 2142.5,-185 1978.5,-185"/>
<text text-anchor="middle" x="2060.5" y="-192" font-family="Helvetica,sans-Serif" font-size="10.00">inc/ResponseBodyHandler.hpp</text>
</a>
</g>
</g>
<!-- Node7&#45;&gt;Node8 -->
<g id="edge7" class="edge">
<title>Node7&#45;&gt;Node8</title>
<path fill="none" stroke="midnightblue" d="M1418.48,-307.42C1430.83,-298.74 1446.68,-287.42 1460.5,-277 1478.18,-263.67 1478.94,-254.23 1499.5,-246 1584.33,-212.05 1844.25,-200.76 1978.44,-197.13"/>
<polygon fill="midnightblue" stroke="midnightblue" points="1416.37,-304.62 1410.19,-313.22 1420.39,-310.36 1416.37,-304.62"/>
</g>
<!-- Node7&#45;&gt;Node10 -->
<g id="edge27" class="edge">
<title>Node7&#45;&gt;Node10</title>
<path fill="none" stroke="midnightblue" d="M1332.19,-322.27C1276.75,-319.9 1196.7,-310.2 1135.5,-277 1099.84,-257.65 1088.3,-247.78 1073.5,-210 1047.2,-142.85 1155.73,-102.79 1213.88,-86.5"/>
<polygon fill="midnightblue" stroke="midnightblue" points="1332.12,-325.77 1342.24,-322.63 1332.38,-318.77 1332.12,-325.77"/>
</g>
<!-- Node7&#45;&gt;Node27 -->
<g id="edge28" class="edge">
<title>Node7&#45;&gt;Node27</title>
<path fill="none" stroke="midnightblue" d="M1365.47,-309.78C1335.15,-298.22 1290.43,-281.16 1263.81,-271.01"/>
<polygon fill="midnightblue" stroke="midnightblue" points="1364.56,-313.18 1375.15,-313.48 1367.05,-306.64 1364.56,-313.18"/>
</g>
<!-- Node7&#45;&gt;Node29 -->
<g id="edge36" class="edge">
<title>Node7&#45;&gt;Node29</title>
<path fill="none" stroke="midnightblue" d="M1332.2,-319.4C1266.43,-315.24 1171.49,-304.52 1148.5,-277 1132.8,-258.2 1139.69,-227.59 1145.81,-209.72"/>
<polygon fill="midnightblue" stroke="midnightblue" points="1332.3,-322.91 1342.49,-320.01 1332.72,-315.92 1332.3,-322.91"/>
</g>
<!-- Node30 -->
<g id="node30" class="node">
<title>Node30</title>
<g id="a_node30"><a xlink:href="_connection_8cpp.html" target="_top" xlink:title=" ">
<polygon fill="none" stroke="black" points="1343,-252 1343,-271 1452,-271 1452,-252 1343,-252"/>
<text text-anchor="middle" x="1397.5" y="-259" font-family="Helvetica,sans-Serif" font-size="10.00">src/Connection.cpp</text>
</a>
</g>
</g>
<!-- Node7&#45;&gt;Node30 -->
<g id="edge33" class="edge">
<title>Node7&#45;&gt;Node30</title>
<path fill="none" stroke="midnightblue" d="M1397.5,-303.32C1397.5,-292.5 1397.5,-279.4 1397.5,-271.01"/>
<polygon fill="midnightblue" stroke="midnightblue" points="1394,-303.48 1397.5,-313.48 1401,-303.48 1394,-303.48"/>
</g>
<!-- Node7&#45;&gt;Node31 -->
<g id="edge34" class="edge">
<title>Node7&#45;&gt;Node31</title>
<path fill="none" stroke="midnightblue" d="M1434.41,-310.38C1471.15,-298.82 1526.65,-281.34 1559.47,-271.01"/>
<polygon fill="midnightblue" stroke="midnightblue" points="1433.07,-307.13 1424.58,-313.48 1435.17,-313.81 1433.07,-307.13"/>
</g>
<!-- Node7&#45;&gt;Node32 -->
<g id="edge35" class="edge">
<title>Node7&#45;&gt;Node32</title>
<path fill="none" stroke="midnightblue" d="M1460.57,-311.83C1531.94,-300.32 1646.92,-281.78 1713.73,-271.01"/>
<polygon fill="midnightblue" stroke="midnightblue" points="1459.68,-308.43 1450.37,-313.48 1460.8,-315.34 1459.68,-308.43"/>
</g>
<!-- Node8&#45;&gt;Node9 -->
<g id="edge8" class="edge">
<title>Node8&#45;&gt;Node9</title>
<path fill="none" stroke="midnightblue" d="M2080.81,-179.11C2096.97,-167.67 2119.02,-152.05 2132.49,-142.51"/>
<polygon fill="midnightblue" stroke="midnightblue" points="2078.67,-176.34 2072.54,-184.98 2082.72,-182.05 2078.67,-176.34"/>
</g>
<!-- Node25 -->
<g id="node25" class="node">
<title>Node25</title>
<g id="a_node25"><a xlink:href="_response_body_handler_8cpp.html" target="_top" xlink:title=" ">
<polygon fill="none" stroke="black" points="1894.5,-123.5 1894.5,-142.5 2058.5,-142.5 2058.5,-123.5 1894.5,-123.5"/>
<text text-anchor="middle" x="1976.5" y="-130.5" font-family="Helvetica,sans-Serif" font-size="10.00">src/ResponseBodyHandler.cpp</text>
</a>
</g>
</g>
<!-- Node8&#45;&gt;Node25 -->
<g id="edge25" class="edge">
<title>Node8&#45;&gt;Node25</title>
<path fill="none" stroke="midnightblue" d="M2040.19,-179.11C2024.03,-167.67 2001.98,-152.05 1988.51,-142.51"/>
<polygon fill="midnightblue" stroke="midnightblue" points="2038.28,-182.05 2048.46,-184.98 2042.33,-176.34 2038.28,-182.05"/>
</g>
<!-- Node8&#45;&gt;Node26 -->
<g id="edge26" class="edge">
<title>Node8&#45;&gt;Node26</title>
<path fill="none" stroke="midnightblue" d="M2010.29,-182.83C1955.99,-171.29 1870.51,-153.13 1820.54,-142.51"/>
<polygon fill="midnightblue" stroke="midnightblue" points="2009.87,-186.32 2020.38,-184.98 2011.33,-179.47 2009.87,-186.32"/>
</g>
<!-- Node9&#45;&gt;Node10 -->
<g id="edge9" class="edge">
<title>Node9&#45;&gt;Node10</title>
<path fill="none" stroke="midnightblue" d="M2065.8,-122.9C1763.32,-97.27 1412.23,-83.65 1291.63,-79.44"/>
<polygon fill="midnightblue" stroke="midnightblue" points="2065.83,-126.42 2076.09,-123.78 2066.42,-119.44 2065.83,-126.42"/>
</g>
<!-- Node24 -->
<g id="node24" class="node">
<title>Node24</title>
<g id="a_node24"><a xlink:href="_response_builder_8cpp.html" target="_top" xlink:title=" ">
<polygon fill="none" stroke="black" points="2077,-67.5 2077,-86.5 2212,-86.5 2212,-67.5 2077,-67.5"/>
<text text-anchor="middle" x="2144.5" y="-74.5" font-family="Helvetica,sans-Serif" font-size="10.00">src/ResponseBuilder.cpp</text>
</a>
</g>
</g>
<!-- Node9&#45;&gt;Node24 -->
<g id="edge24" class="edge">
<title>Node9&#45;&gt;Node24</title>
<path fill="none" stroke="midnightblue" d="M2144.5,-112.8C2144.5,-103.91 2144.5,-93.78 2144.5,-86.75"/>
<polygon fill="midnightblue" stroke="midnightblue" points="2141,-113.08 2144.5,-123.08 2148,-113.08 2141,-113.08"/>
</g>
<!-- Node10&#45;&gt;Node5 -->
<g id="edge10" class="edge">
<title>Node10&#45;&gt;Node5</title>
<path fill="none" stroke="midnightblue" d="M1195.2,-69.3C1139.88,-61.87 1051.04,-48.56 975.5,-31 968.29,-29.32 960.58,-27.16 953.49,-25.02"/>
<polygon fill="midnightblue" stroke="midnightblue" points="1194.76,-72.78 1205.13,-70.62 1195.68,-65.84 1194.76,-72.78"/>
</g>
<!-- Node11 -->
<g id="node11" class="node">
<title>Node11</title>
<g id="a_node11"><a xlink:href="_server_8cpp.html" target="_top" xlink:title=" ">
<polygon fill="none" stroke="black" points="1712,-6 1712,-25 1797,-25 1797,-6 1712,-6"/>
<text text-anchor="middle" x="1754.5" y="-13" font-family="Helvetica,sans-Serif" font-size="10.00">src/Server.cpp</text>
</a>
</g>
</g>
<!-- Node10&#45;&gt;Node11 -->
<g id="edge11" class="edge">
<title>Node10&#45;&gt;Node11</title>
<path fill="none" stroke="midnightblue" d="M1301.94,-73.7C1387.25,-69.37 1559.2,-57.87 1702.5,-31 1710.61,-29.48 1719.28,-27.29 1727.18,-25.07"/>
<polygon fill="midnightblue" stroke="midnightblue" points="1301.54,-70.22 1291.73,-74.21 1301.89,-77.21 1301.54,-70.22"/>
</g>
<!-- Node12 -->
<g id="node12" class="node">
<title>Node12</title>
<g id="a_node12"><a xlink:href="test__accept_connections_8cpp.html" target="_top" xlink:title=" ">
<polygon fill="none" stroke="black" points="1815,-6 1815,-25 1990,-25 1990,-6 1815,-6"/>
<text text-anchor="middle" x="1902.5" y="-13" font-family="Helvetica,sans-Serif" font-size="10.00">test/test_acceptConnections.cpp</text>
</a>
</g>
</g>
<!-- Node10&#45;&gt;Node12 -->
<g id="edge12" class="edge">
<title>Node10&#45;&gt;Node12</title>
<path fill="none" stroke="midnightblue" d="M1301.65,-72.91C1400.87,-66.87 1620.96,-52.22 1805.5,-31 1819.96,-29.34 1835.59,-27.17 1849.98,-25.01"/>
<polygon fill="midnightblue" stroke="midnightblue" points="1301.35,-69.42 1291.58,-73.52 1301.77,-76.41 1301.35,-69.42"/>
</g>
<!-- Node13 -->
<g id="node13" class="node">
<title>Node13</title>
<g id="a_node13"><a xlink:href="test__check_for_timeout_8cpp.html" target="_top" xlink:title=" ">
<polygon fill="none" stroke="black" points="2008,-6 2008,-25 2175,-25 2175,-6 2008,-6"/>
<text text-anchor="middle" x="2091.5" y="-13" font-family="Helvetica,sans-Serif" font-size="10.00">test/test_checkForTimeout.cpp</text>
</a>
</g>
</g>
<!-- Node10&#45;&gt;Node13 -->
<g id="edge13" class="edge">
<title>Node10&#45;&gt;Node13</title>
<path fill="none" stroke="midnightblue" d="M1302.1,-74.56C1425.47,-70.87 1738.95,-59.27 1999.5,-31 2013.65,-29.47 2028.94,-27.27 2042.92,-25.05"/>
<polygon fill="midnightblue" stroke="midnightblue" points="1301.69,-71.07 1291.8,-74.87 1301.9,-78.07 1301.69,-71.07"/>
</g>
<!-- Node10&#45;&gt;Node14 -->
<g id="edge14" class="edge">
<title>Node10&#45;&gt;Node14</title>
<path fill="none" stroke="midnightblue" d="M1195.23,-70.3C1123.24,-62.42 990.96,-47.31 878.5,-31 875.8,-30.61 873.06,-30.2 870.29,-29.78"/>
<polygon fill="midnightblue" stroke="midnightblue" points="1195.08,-73.8 1205.4,-71.41 1195.84,-66.85 1195.08,-73.8"/>
</g>
<!-- Node15 -->
<g id="node15" class="node">
<title>Node15</title>
<g id="a_node15"><a xlink:href="test__connection_send_response_8cpp.html" target="_top" xlink:title=" ">
<polygon fill="none" stroke="black" points="2193.5,-0.5 2193.5,-30.5 2333.5,-30.5 2333.5,-0.5 2193.5,-0.5"/>
<text text-anchor="start" x="2201.5" y="-18.5" font-family="Helvetica,sans-Serif" font-size="10.00">test/test_connectionSend</text>
<text text-anchor="middle" x="2263.5" y="-7.5" font-family="Helvetica,sans-Serif" font-size="10.00">Response.cpp</text>
</a>
</g>
</g>
<!-- Node10&#45;&gt;Node15 -->
<g id="edge15" class="edge">
<title>Node10&#45;&gt;Node15</title>
<path fill="none" stroke="midnightblue" d="M1301.84,-75.92C1445.14,-75.18 1850.24,-69.54 2184.5,-31 2187.41,-30.66 2190.37,-30.29 2193.36,-29.88"/>
<polygon fill="midnightblue" stroke="midnightblue" points="1301.57,-72.42 1291.58,-75.97 1301.6,-79.42 1301.57,-72.42"/>
</g>
<!-- Node16 -->
<g id="node16" class="node">
<title>Node16</title>
<g id="a_node16"><a xlink:href="test__create_virtual_server_8cpp.html" target="_top" xlink:title=" ">
<polygon fill="none" stroke="black" points="984.5,-6 984.5,-25 1160.5,-25 1160.5,-6 984.5,-6"/>
<text text-anchor="middle" x="1072.5" y="-13" font-family="Helvetica,sans-Serif" font-size="10.00">test/test_createVirtualServer.cpp</text>
</a>
</g>
</g>
<!-- Node10&#45;&gt;Node16 -->
<g id="edge16" class="edge">
<title>Node10&#45;&gt;Node16</title>
<path fill="none" stroke="midnightblue" d="M1213.69,-64.23C1179.48,-52.67 1128.1,-35.3 1097.67,-25.01"/>
<polygon fill="midnightblue" stroke="midnightblue" points="1212.69,-67.59 1223.28,-67.48 1214.93,-60.96 1212.69,-67.59"/>
</g>
<!-- Node17 -->
<g id="node17" class="node">
<title>Node17</title>
<g id="a_node17"><a xlink:href="test__handle_complete_request_header_8cpp.html" target="_top" xlink:title=" ">
<polygon fill="none" stroke="black" points="1179,-0.5 1179,-30.5 1322,-30.5 1322,-0.5 1179,-0.5"/>
<text text-anchor="start" x="1187" y="-18.5" font-family="Helvetica,sans-Serif" font-size="10.00">test/test_handleComplete</text>
<text text-anchor="middle" x="1250.5" y="-7.5" font-family="Helvetica,sans-Serif" font-size="10.00">RequestHeader.cpp</text>
</a>
</g>
</g>
<!-- Node10&#45;&gt;Node17 -->
<g id="edge17" class="edge">
<title>Node10&#45;&gt;Node17</title>
<path fill="none" stroke="midnightblue" d="M1249.13,-57.23C1249.42,-48.59 1249.76,-38.5 1250.03,-30.52"/>
<polygon fill="midnightblue" stroke="midnightblue" points="1245.62,-57.36 1248.79,-67.48 1252.62,-57.6 1245.62,-57.36"/>
</g>
<!-- Node10&#45;&gt;Node18 -->
<g id="edge18" class="edge">
<title>Node10&#45;&gt;Node18</title>
<path fill="none" stroke="midnightblue" d="M1195.14,-75.92C1038.32,-75.21 565.44,-69.78 175.5,-31 161.02,-29.56 145.35,-27.34 131.12,-25.07"/>
<polygon fill="midnightblue" stroke="midnightblue" points="1195.43,-79.42 1205.44,-75.96 1195.46,-72.42 1195.43,-79.42"/>
</g>
<!-- Node10&#45;&gt;Node19 -->
<g id="edge19" class="edge">
<title>Node10&#45;&gt;Node19</title>
<path fill="none" stroke="midnightblue" d="M1195.16,-75.23C1057.05,-72.8 676.54,-63.46 361.5,-31 347.03,-29.51 331.38,-27.3 317.13,-25.06"/>
<polygon fill="midnightblue" stroke="midnightblue" points="1195.4,-78.73 1205.46,-75.4 1195.52,-71.73 1195.4,-78.73"/>
</g>
<!-- Node10&#45;&gt;Node20 -->
<g id="edge20" class="edge">
<title>Node10&#45;&gt;Node20</title>
<path fill="none" stroke="midnightblue" d="M1195.35,-74.06C1079.08,-69.5 793.47,-56.47 555.5,-31 540.69,-29.41 524.67,-27.22 510,-25.02"/>
<polygon fill="midnightblue" stroke="midnightblue" points="1195.28,-77.56 1205.41,-74.45 1195.55,-70.57 1195.28,-77.56"/>
</g>
<!-- Node10&#45;&gt;Node21 -->
<g id="edge21" class="edge">
<title>Node10&#45;&gt;Node21</title>
<path fill="none" stroke="midnightblue" d="M1195.2,-73.5C1097.66,-68.5 884.07,-55.59 705.5,-31 702.61,-30.6 699.66,-30.17 696.69,-29.7"/>
<polygon fill="midnightblue" stroke="midnightblue" points="1195.22,-77.01 1205.39,-74.02 1195.58,-70.02 1195.22,-77.01"/>
</g>
<!-- Node22 -->
<g id="node22" class="node">
<title>Node22</title>
<g id="a_node22"><a xlink:href="test__select_server_config_8cpp.html" target="_top" xlink:title=" ">
<polygon fill="none" stroke="black" points="1340.5,-6 1340.5,-25 1514.5,-25 1514.5,-6 1340.5,-6"/>
<text text-anchor="middle" x="1427.5" y="-13" font-family="Helvetica,sans-Serif" font-size="10.00">test/test_selectServerConfig.cpp</text>
</a>
</g>
</g>
<!-- Node10&#45;&gt;Node22 -->
<g id="edge22" class="edge">
<title>Node10&#45;&gt;Node22</title>
<path fill="none" stroke="midnightblue" d="M1283.9,-64.23C1318.7,-52.67 1370.95,-35.3 1401.9,-25.01"/>
<polygon fill="midnightblue" stroke="midnightblue" points="1282.53,-61 1274.15,-67.48 1284.74,-67.64 1282.53,-61"/>
</g>
<!-- Node23 -->
<g id="node23" class="node">
<title>Node23</title>
<g id="a_node23"><a xlink:href="test__shutdown_server_8cpp.html" target="_top" xlink:title=" ">
<polygon fill="none" stroke="black" points="1533,-6 1533,-25 1694,-25 1694,-6 1533,-6"/>
<text text-anchor="middle" x="1613.5" y="-13" font-family="Helvetica,sans-Serif" font-size="10.00">test/test_shutdownServer.cpp</text>
</a>
</g>
</g>
<!-- Node10&#45;&gt;Node23 -->
<g id="edge23" class="edge">
<title>Node10&#45;&gt;Node23</title>
<path fill="none" stroke="midnightblue" d="M1302.1,-67.26C1371.64,-55.93 1492.2,-36.27 1561.13,-25.04"/>
<polygon fill="midnightblue" stroke="midnightblue" points="1301.11,-63.88 1291.8,-68.94 1302.24,-70.79 1301.11,-63.88"/>
</g>
<!-- Node27&#45;&gt;Node8 -->
<g id="edge29" class="edge">
<title>Node27&#45;&gt;Node8</title>
<path fill="none" stroke="midnightblue" d="M1300.48,-250.43C1311.44,-248.78 1322.8,-247.21 1333.5,-246 1566.54,-219.59 1843.29,-204.95 1978.25,-198.88"/>
<polygon fill="midnightblue" stroke="midnightblue" points="1299.92,-246.97 1290.57,-251.96 1300.99,-253.89 1299.92,-246.97"/>
</g>
<!-- Node27&#45;&gt;Node10 -->
<g id="edge30" class="edge">
<title>Node27&#45;&gt;Node10</title>
<path fill="none" stroke="midnightblue" d="M1242.24,-241.22C1243.74,-202.06 1247.1,-114.59 1248.17,-86.71"/>
<polygon fill="midnightblue" stroke="midnightblue" points="1238.72,-241.57 1241.84,-251.7 1245.72,-241.84 1238.72,-241.57"/>
</g>
<!-- Node28 -->
<g id="node28" class="node">
<title>Node28</title>
<g id="a_node28"><a xlink:href="_target_resource_handler_8cpp.html" target="_top" xlink:title=" ">
<polygon fill="none" stroke="black" points="1276,-185 1276,-204 1443,-204 1443,-185 1276,-185"/>
<text text-anchor="middle" x="1359.5" y="-192" font-family="Helvetica,sans-Serif" font-size="10.00">src/TargetResourceHandler.cpp</text>
</a>
</g>
</g>
<!-- Node27&#45;&gt;Node28 -->
<g id="edge31" class="edge">
<title>Node27&#45;&gt;Node28</title>
<path fill="none" stroke="midnightblue" d="M1266.39,-246.79C1289.78,-233.9 1324.06,-215.02 1343.84,-204.13"/>
<polygon fill="midnightblue" stroke="midnightblue" points="1264.48,-243.84 1257.41,-251.73 1267.86,-249.97 1264.48,-243.84"/>
</g>
<!-- Node27&#45;&gt;Node29 -->
<g id="edge32" class="edge">
<title>Node27&#45;&gt;Node29</title>
<path fill="none" stroke="midnightblue" d="M1221.21,-245.85C1206.19,-235 1185.84,-220.3 1171.01,-209.59"/>
<polygon fill="midnightblue" stroke="midnightblue" points="1219.21,-248.72 1229.36,-251.73 1223.3,-243.04 1219.21,-248.72"/>
</g>
<!-- Node33&#45;&gt;Node10 -->
<g id="edge38" class="edge">
<title>Node33&#45;&gt;Node10</title>
<path fill="none" stroke="midnightblue" d="M2153.88,-317.9C2252.51,-311.57 2419.07,-297.9 2437.5,-277 2446.61,-266.66 2444.42,-257.91 2437.5,-246 2381.98,-150.49 2327.61,-153.74 2221.5,-123 2131.5,-96.93 1468.09,-82.27 1291.55,-78.81"/>
<polygon fill="midnightblue" stroke="midnightblue" points="2153.43,-314.42 2143.67,-318.55 2153.87,-321.41 2153.43,-314.42"/>
</g>
<!-- Node34 -->
<g id="node34" class="node">
<title>Node34</title>
<g id="a_node34"><a xlink:href="_request_parser_8cpp.html" target="_top" xlink:title=" ">
<polygon fill="none" stroke="black" points="2305,-252 2305,-271 2428,-271 2428,-252 2305,-252"/>
<text text-anchor="middle" x="2366.5" y="-259" font-family="Helvetica,sans-Serif" font-size="10.00">src/RequestParser.cpp</text>
</a>
</g>
</g>
<!-- Node33&#45;&gt;Node34 -->
<g id="edge39" class="edge">
<title>Node33&#45;&gt;Node34</title>
<path fill="none" stroke="midnightblue" d="M2132.26,-311.4C2187.51,-299.87 2274.77,-281.65 2325.74,-271.01"/>
<polygon fill="midnightblue" stroke="midnightblue" points="2131.41,-308.01 2122.33,-313.48 2132.84,-314.86 2131.41,-308.01"/>
</g>
<!-- Node35 -->
<g id="node35" class="node">
<title>Node35</title>
<g id="a_node35"><a xlink:href="test__parse_body_8cpp.html" target="_top" xlink:title=" ">
<polygon fill="none" stroke="black" points="1868,-252 1868,-271 2001,-271 2001,-252 1868,-252"/>
<text text-anchor="middle" x="1934.5" y="-259" font-family="Helvetica,sans-Serif" font-size="10.00">test/test_parseBody.cpp</text>
</a>
</g>
</g>
<!-- Node33&#45;&gt;Node35 -->
<g id="edge40" class="edge">
<title>Node33&#45;&gt;Node35</title>
<path fill="none" stroke="midnightblue" d="M2050.94,-309.63C2022.38,-298.07 1980.5,-281.12 1955.52,-271.01"/>
<polygon fill="midnightblue" stroke="midnightblue" points="2049.86,-312.97 2060.44,-313.48 2052.48,-306.48 2049.86,-312.97"/>
</g>
<!-- Node36 -->
<g id="node36" class="node">
<title>Node36</title>
<g id="a_node36"><a xlink:href="test__parse_header___headers_8cpp.html" target="_top" xlink:title=" ">
<polygon fill="none" stroke="black" points="2019,-246.5 2019,-276.5 2144,-276.5 2144,-246.5 2019,-246.5"/>
<text text-anchor="start" x="2027" y="-264.5" font-family="Helvetica,sans-Serif" font-size="10.00">test/test_parseHeader</text>
<text text-anchor="middle" x="2081.5" y="-253.5" font-family="Helvetica,sans-Serif" font-size="10.00">_Headers.cpp</text>
</a>
</g>
</g>
<!-- Node33&#45;&gt;Node36 -->
<g id="edge41" class="edge">
<title>Node33&#45;&gt;Node36</title>
<path fill="none" stroke="midnightblue" d="M2081.5,-303.23C2081.5,-294.59 2081.5,-284.5 2081.5,-276.52"/>
<polygon fill="midnightblue" stroke="midnightblue" points="2078,-303.48 2081.5,-313.48 2085,-303.48 2078,-303.48"/>
</g>
<!-- Node37 -->
<g id="node37" class="node">
<title>Node37</title>
<g id="a_node37"><a xlink:href="test__parse_header___request_line_8cpp.html" target="_top" xlink:title=" ">
<polygon fill="none" stroke="black" points="2162,-246.5 2162,-276.5 2287,-276.5 2287,-246.5 2162,-246.5"/>
<text text-anchor="start" x="2170" y="-264.5" font-family="Helvetica,sans-Serif" font-size="10.00">test/test_parseHeader</text>
<text text-anchor="middle" x="2224.5" y="-253.5" font-family="Helvetica,sans-Serif" font-size="10.00">_RequestLine.cpp</text>
</a>
</g>
</g>
<!-- Node33&#45;&gt;Node37 -->
<g id="edge42" class="edge">
<title>Node33&#45;&gt;Node37</title>
<path fill="none" stroke="midnightblue" d="M2111.33,-309.59C2134.51,-299.94 2166.68,-286.56 2190.8,-276.52"/>
<polygon fill="midnightblue" stroke="midnightblue" points="2109.88,-306.4 2101.99,-313.48 2112.57,-312.86 2109.88,-306.4"/>
</g>
<!-- Node39&#45;&gt;Node7 -->
<g id="edge57" class="edge">
<title>Node39&#45;&gt;Node7</title>
<path fill="none" stroke="midnightblue" d="M1697.87,-367.96C1627.09,-357.6 1518.08,-341.65 1452.68,-332.08"/>
<polygon fill="midnightblue" stroke="midnightblue" points="1697.63,-371.46 1708.03,-369.44 1698.64,-364.53 1697.63,-371.46"/>
</g>
<!-- Node39&#45;&gt;Node9 -->
<g id="edge59" class="edge">
<title>Node39&#45;&gt;Node9</title>
<path fill="none" stroke="midnightblue" d="M1836.79,-377.23C1974.24,-374.99 2273.61,-366.32 2370.5,-333 2412.93,-318.41 2433.33,-316.56 2454.5,-277 2506.59,-179.67 2318.8,-148.27 2212.6,-138.39"/>
<polygon fill="midnightblue" stroke="midnightblue" points="1836.73,-373.73 1826.78,-377.38 1836.84,-380.73 1836.73,-373.73"/>
</g>
<!-- Node39&#45;&gt;Node26 -->
<g id="edge64" class="edge">
<title>Node39&#45;&gt;Node26</title>
<path fill="none" stroke="midnightblue" d="M1837.1,-378.68C1993.76,-378.49 2362.51,-368.16 2437.5,-277 2446.25,-266.36 2446.86,-256.11 2437.5,-246 2402.06,-207.73 2020.29,-221.87 1969.5,-210 1903.03,-194.47 1829.36,-159.16 1797.13,-142.72"/>
<polygon fill="midnightblue" stroke="midnightblue" points="1836.65,-375.18 1826.65,-378.67 1836.65,-382.18 1836.65,-375.18"/>
</g>
<!-- Node39&#45;&gt;Node27 -->
<g id="edge60" class="edge">
<title>Node39&#45;&gt;Node27</title>
<path fill="none" stroke="midnightblue" d="M1696.05,-375.32C1590.7,-370.53 1397.64,-358.52 1333.5,-333 1297.98,-318.86 1264.51,-286.88 1249.61,-271.32"/>
<polygon fill="midnightblue" stroke="midnightblue" points="1696.13,-378.83 1706.28,-375.77 1696.44,-371.83 1696.13,-378.83"/>
</g>
<!-- Node39&#45;&gt;Node31 -->
<g id="edge62" class="edge">
<title>Node39&#45;&gt;Node31</title>
<path fill="none" stroke="midnightblue" d="M1744.24,-363.72C1706.51,-339.51 1631.09,-291.11 1600.19,-271.28"/>
<polygon fill="midnightblue" stroke="midnightblue" points="1742.66,-366.86 1752.97,-369.32 1746.44,-360.97 1742.66,-366.86"/>
</g>
<!-- Node39&#45;&gt;Node32 -->
<g id="edge63" class="edge">
<title>Node39&#45;&gt;Node32</title>
<path fill="none" stroke="midnightblue" d="M1766.5,-359.16C1766.5,-333.87 1766.5,-289.94 1766.5,-271.28"/>
<polygon fill="midnightblue" stroke="midnightblue" points="1763,-359.32 1766.5,-369.32 1770,-359.32 1763,-359.32"/>
</g>
<!-- Node39&#45;&gt;Node33 -->
<g id="edge58" class="edge">
<title>Node39&#45;&gt;Node33</title>
<path fill="none" stroke="midnightblue" d="M1826.42,-367.73C1885.95,-357.52 1976.16,-342.06 2031.82,-332.52"/>
<polygon fill="midnightblue" stroke="midnightblue" points="1825.68,-364.3 1816.41,-369.44 1826.86,-371.2 1825.68,-364.3"/>
</g>
<!-- Node40 -->
<g id="node40" class="node">
<title>Node40</title>
<g id="a_node40"><a xlink:href="_h_t_t_p_request_8cpp.html" target="_top" xlink:title=" ">
<polygon fill="none" stroke="black" points="2523,-313.5 2523,-332.5 2642,-332.5 2642,-313.5 2523,-313.5"/>
<text text-anchor="middle" x="2582.5" y="-320.5" font-family="Helvetica,sans-Serif" font-size="10.00">src/HTTPRequest.cpp</text>
</a>
</g>
</g>
<!-- Node39&#45;&gt;Node40 -->
<g id="edge61" class="edge">
<title>Node39&#45;&gt;Node40</title>
<path fill="none" stroke="midnightblue" d="M1837.07,-375.14C1969.08,-369.48 2262.3,-355.42 2508.5,-333 2513.14,-332.58 2517.94,-332.1 2522.76,-331.58"/>
<polygon fill="midnightblue" stroke="midnightblue" points="1836.55,-371.66 1826.7,-375.58 1836.84,-378.66 1836.55,-371.66"/>
</g>
</g>
</svg>
