<?xml version="1.0" encoding="UTF-8" standalone="no"?>
<!DOCTYPE svg PUBLIC "-//W3C//DTD SVG 1.1//EN"
 "http://www.w3.org/Graphics/SVG/1.1/DTD/svg11.dtd">
<!-- Generated by graphviz version 2.43.0 (0)
 -->
<!-- Title: inc/Method.hpp Pages: 1 -->
<svg width="2626pt" height="442pt"
 viewBox="0.00 0.00 2625.64 442.00" xmlns="http://www.w3.org/2000/svg" xmlns:xlink="http://www.w3.org/1999/xlink">
<g id="graph0" class="graph" transform="scale(1 1) rotate(0) translate(4 438)">
<title>inc/Method.hpp</title>
<!-- Node1 -->
<g id="node1" class="node">
<title>Node1</title>
<g id="a_node1"><a xlink:title=" ">
<polygon fill="#bfbfbf" stroke="black" points="1066.64,-414.5 1066.64,-433.5 1158.64,-433.5 1158.64,-414.5 1066.64,-414.5"/>
<text text-anchor="middle" x="1112.64" y="-421.5" font-family="Helvetica,sans-Serif" font-size="10.00">inc/Method.hpp</text>
</a>
</g>
</g>
<!-- Node2 -->
<g id="node2" class="node">
<title>Node2</title>
<g id="a_node2"><a xlink:href="_config_file_8hpp.html" target="_top" xlink:title=" ">
<polygon fill="none" stroke="black" points="1061.14,-358.5 1061.14,-377.5 1164.14,-377.5 1164.14,-358.5 1061.14,-358.5"/>
<text text-anchor="middle" x="1112.64" y="-365.5" font-family="Helvetica,sans-Serif" font-size="10.00">inc/ConfigFile.hpp</text>
</a>
</g>
</g>
<!-- Node1&#45;&gt;Node2 -->
<g id="edge1" class="edge">
<title>Node1&#45;&gt;Node2</title>
<path fill="none" stroke="midnightblue" d="M1112.64,-403.8C1112.64,-394.91 1112.64,-384.78 1112.64,-377.75"/>
<polygon fill="midnightblue" stroke="midnightblue" points="1109.14,-404.08 1112.64,-414.08 1116.14,-404.08 1109.14,-404.08"/>
</g>
<!-- Node3 -->
<g id="node3" class="node">
<title>Node3</title>
<g id="a_node3"><a xlink:href="_config_file_parser_8hpp.html" target="_top" xlink:title=" ">
<polygon fill="none" stroke="black" points="124.64,-302.5 124.64,-321.5 256.64,-321.5 256.64,-302.5 124.64,-302.5"/>
<text text-anchor="middle" x="190.64" y="-309.5" font-family="Helvetica,sans-Serif" font-size="10.00">inc/ConfigFileParser.hpp</text>
</a>
</g>
</g>
<!-- Node2&#45;&gt;Node3 -->
<g id="edge2" class="edge">
<title>Node2&#45;&gt;Node3</title>
<path fill="none" stroke="midnightblue" d="M1051.04,-363.39C884.85,-353.66 428.28,-326.92 256.85,-316.88"/>
<polygon fill="midnightblue" stroke="midnightblue" points="1050.91,-366.89 1061.1,-363.98 1051.32,-359.9 1050.91,-366.89"/>
</g>
<!-- Node5 -->
<g id="node5" class="node">
<title>Node5</title>
<g id="a_node5"><a xlink:href="main_8cpp.html" target="_top" xlink:title=" ">
<polygon fill="none" stroke="black" points="327.14,-6 327.14,-25 406.14,-25 406.14,-6 327.14,-6"/>
<text text-anchor="middle" x="366.64" y="-13" font-family="Helvetica,sans-Serif" font-size="10.00">src/main.cpp</text>
</a>
</g>
</g>
<!-- Node2&#45;&gt;Node5 -->
<g id="edge57" class="edge">
<title>Node2&#45;&gt;Node5</title>
<path fill="none" stroke="midnightblue" d="M1050.91,-365.66C892.3,-361.83 479.07,-349.33 423.64,-322 389.18,-305.01 366.64,-295.42 366.64,-257 366.64,-257 366.64,-257 366.64,-137.5 366.64,-95.28 366.64,-44.76 366.64,-25.01"/>
<polygon fill="midnightblue" stroke="midnightblue" points="1050.9,-369.16 1060.98,-365.9 1051.07,-362.16 1050.9,-369.16"/>
</g>
<!-- Node7 -->
<g id="node7" class="node">
<title>Node7</title>
<g id="a_node7"><a xlink:href="_h_t_t_p_request_8hpp.html" target="_top" xlink:title=" ">
<polygon fill="none" stroke="black" points="1328.64,-302.5 1328.64,-321.5 1448.64,-321.5 1448.64,-302.5 1328.64,-302.5"/>
<text text-anchor="middle" x="1388.64" y="-309.5" font-family="Helvetica,sans-Serif" font-size="10.00">inc/HTTPRequest.hpp</text>
</a>
</g>
</g>
<!-- Node2&#45;&gt;Node7 -->
<g id="edge6" class="edge">
<title>Node2&#45;&gt;Node7</title>
<path fill="none" stroke="midnightblue" d="M1166.44,-356.47C1218.61,-346.27 1296.75,-330.98 1345.11,-321.52"/>
<polygon fill="midnightblue" stroke="midnightblue" points="1165.52,-353.09 1156.38,-358.44 1166.86,-359.96 1165.52,-353.09"/>
</g>
<!-- Node9 -->
<g id="node9" class="node">
<title>Node9</title>
<g id="a_node9"><a xlink:href="_server_8hpp.html" target="_top" xlink:title=" ">
<polygon fill="none" stroke="black" points="1293.64,-67.5 1293.64,-86.5 1379.64,-86.5 1379.64,-67.5 1293.64,-67.5"/>
<text text-anchor="middle" x="1336.64" y="-74.5" font-family="Helvetica,sans-Serif" font-size="10.00">inc/Server.hpp</text>
</a>
</g>
</g>
<!-- Node2&#45;&gt;Node9 -->
<g id="edge52" class="edge">
<title>Node2&#45;&gt;Node9</title>
<path fill="none" stroke="midnightblue" d="M1174.59,-366.72C1423.27,-365.35 2338.05,-357.87 2387.64,-322 2412.59,-303.95 2411.64,-287.8 2411.64,-257 2411.64,-257 2411.64,-257 2411.64,-199 2411.64,-163.58 2415.76,-144.55 2387.64,-123 2347.05,-91.9 1572.82,-80.77 1379.9,-78.48"/>
<polygon fill="midnightblue" stroke="midnightblue" points="1174.27,-363.22 1164.29,-366.77 1174.31,-370.22 1174.27,-363.22"/>
</g>
<!-- Node10 -->
<g id="node10" class="node">
<title>Node10</title>
<g id="a_node10"><a xlink:href="_server_8cpp.html" target="_top" xlink:title=" ">
<polygon fill="none" stroke="black" points="424.14,-6 424.14,-25 509.14,-25 509.14,-6 424.14,-6"/>
<text text-anchor="middle" x="466.64" y="-13" font-family="Helvetica,sans-Serif" font-size="10.00">src/Server.cpp</text>
</a>
</g>
</g>
<!-- Node2&#45;&gt;Node10 -->
<g id="edge60" class="edge">
<title>Node2&#45;&gt;Node10</title>
<path fill="none" stroke="midnightblue" d="M1050.89,-365.4C898.59,-361.08 513.59,-347.73 461.64,-322 427.21,-304.94 404.64,-295.42 404.64,-257 404.64,-257 404.64,-257 404.64,-137.5 404.64,-90.76 441.73,-43.94 458.54,-25.12"/>
<polygon fill="midnightblue" stroke="midnightblue" points="1050.92,-368.9 1061.01,-365.69 1051.11,-361.91 1050.92,-368.9"/>
</g>
<!-- Node11 -->
<g id="node11" class="node">
<title>Node11</title>
<g id="a_node11"><a xlink:href="test__accept_connections_8cpp.html" target="_top" xlink:title=" ">
<polygon fill="none" stroke="black" points="527.14,-6 527.14,-25 702.14,-25 702.14,-6 527.14,-6"/>
<text text-anchor="middle" x="614.64" y="-13" font-family="Helvetica,sans-Serif" font-size="10.00">test/test_acceptConnections.cpp</text>
</a>
</g>
</g>
<!-- Node2&#45;&gt;Node11 -->
<g id="edge61" class="edge">
<title>Node2&#45;&gt;Node11</title>
<path fill="none" stroke="midnightblue" d="M1050.61,-364.97C905.42,-359.84 552.11,-345.14 503.64,-322 467.89,-304.93 442.64,-296.62 442.64,-257 442.64,-257 442.64,-257 442.64,-137.5 442.64,-72.15 526.73,-39.03 577.32,-25.02"/>
<polygon fill="midnightblue" stroke="midnightblue" points="1050.58,-368.47 1060.69,-365.32 1050.82,-361.47 1050.58,-368.47"/>
</g>
<!-- Node16 -->
<g id="node16" class="node">
<title>Node16</title>
<g id="a_node16"><a xlink:href="test__init_virtual_servers_8cpp.html" target="_top" xlink:title=" ">
<polygon fill="none" stroke="black" points="720.14,-6 720.14,-25 887.14,-25 887.14,-6 720.14,-6"/>
<text text-anchor="middle" x="803.64" y="-13" font-family="Helvetica,sans-Serif" font-size="10.00">test/test_initVirtualServers.cpp</text>
</a>
</g>
</g>
<!-- Node2&#45;&gt;Node16 -->
<g id="edge62" class="edge">
<title>Node2&#45;&gt;Node16</title>
<path fill="none" stroke="midnightblue" d="M1051.11,-364.21C936.63,-358.56 695.23,-344.38 614.64,-322 550.86,-304.29 480.64,-323.19 480.64,-257 480.64,-257 480.64,-257 480.64,-137.5 480.64,-80.46 659.5,-41.31 751.03,-25.01"/>
<polygon fill="midnightblue" stroke="midnightblue" points="1050.96,-367.71 1061.12,-364.7 1051.3,-360.72 1050.96,-367.71"/>
</g>
<!-- Node17 -->
<g id="node17" class="node">
<title>Node17</title>
<g id="a_node17"><a xlink:href="test__is_duplicate_server_8cpp.html" target="_top" xlink:title=" ">
<polygon fill="none" stroke="black" points="904.64,-6 904.64,-25 1072.64,-25 1072.64,-6 904.64,-6"/>
<text text-anchor="middle" x="988.64" y="-13" font-family="Helvetica,sans-Serif" font-size="10.00">test/test_isDuplicateServer.cpp</text>
</a>
</g>
</g>
<!-- Node2&#45;&gt;Node17 -->
<g id="edge63" class="edge">
<title>Node2&#45;&gt;Node17</title>
<path fill="none" stroke="midnightblue" d="M1050.85,-362C898.78,-348.88 518.64,-310.7 518.64,-257 518.64,-257 518.64,-257 518.64,-137.5 518.64,-95.21 807.66,-44.84 932.42,-25.07"/>
<polygon fill="midnightblue" stroke="midnightblue" points="1050.71,-365.5 1060.97,-362.87 1051.3,-358.53 1050.71,-365.5"/>
</g>
<!-- Node18 -->
<g id="node18" class="node">
<title>Node18</title>
<g id="a_node18"><a xlink:href="test__register_connection_8cpp.html" target="_top" xlink:title=" ">
<polygon fill="none" stroke="black" points="1907.14,-6 1907.14,-25 2082.14,-25 2082.14,-6 1907.14,-6"/>
<text text-anchor="middle" x="1994.64" y="-13" font-family="Helvetica,sans-Serif" font-size="10.00">test/test_registerConnection.cpp</text>
</a>
</g>
</g>
<!-- Node2&#45;&gt;Node18 -->
<g id="edge65" class="edge">
<title>Node2&#45;&gt;Node18</title>
<path fill="none" stroke="midnightblue" d="M1174.31,-366.49C1425.01,-364.22 2356.87,-353.69 2410.64,-322 2439.67,-304.9 2449.64,-290.69 2449.64,-257 2449.64,-257 2449.64,-257 2449.64,-137.5 2449.64,-62.3 2214.59,-32.69 2082.37,-21.98"/>
<polygon fill="midnightblue" stroke="midnightblue" points="1174.26,-362.99 1164.29,-366.58 1174.32,-369.99 1174.26,-362.99"/>
</g>
<!-- Node19 -->
<g id="node19" class="node">
<title>Node19</title>
<g id="a_node19"><a xlink:href="test__register_virtual_server_8cpp.html" target="_top" xlink:title=" ">
<polygon fill="none" stroke="black" points="2314.64,-0.5 2314.64,-30.5 2446.64,-30.5 2446.64,-0.5 2314.64,-0.5"/>
<text text-anchor="start" x="2322.64" y="-18.5" font-family="Helvetica,sans-Serif" font-size="10.00">test/test_registerVirtual</text>
<text text-anchor="middle" x="2380.64" y="-7.5" font-family="Helvetica,sans-Serif" font-size="10.00">Server.cpp</text>
</a>
</g>
</g>
<!-- Node2&#45;&gt;Node19 -->
<g id="edge66" class="edge">
<title>Node2&#45;&gt;Node19</title>
<path fill="none" stroke="midnightblue" d="M1174.59,-366.35C1428.63,-363.48 2379.81,-350.85 2436.64,-322 2469.38,-305.38 2487.64,-293.72 2487.64,-257 2487.64,-257 2487.64,-257 2487.64,-137.5 2487.64,-88.57 2437.93,-50.12 2406.27,-30.6"/>
<polygon fill="midnightblue" stroke="midnightblue" points="1174.4,-362.85 1164.44,-366.46 1174.48,-369.85 1174.4,-362.85"/>
</g>
<!-- Node20 -->
<g id="node20" class="node">
<title>Node20</title>
<g id="a_node20"><a xlink:href="_connection_8cpp.html" target="_top" xlink:title=" ">
<polygon fill="none" stroke="black" points="1315.14,-190.5 1315.14,-209.5 1424.14,-209.5 1424.14,-190.5 1315.14,-190.5"/>
<text text-anchor="middle" x="1369.64" y="-197.5" font-family="Helvetica,sans-Serif" font-size="10.00">src/Connection.cpp</text>
</a>
</g>
</g>
<!-- Node2&#45;&gt;Node20 -->
<g id="edge55" class="edge">
<title>Node2&#45;&gt;Node20</title>
<path fill="none" stroke="midnightblue" d="M1134.54,-352.85C1186.24,-319.46 1314.61,-236.55 1356.32,-209.61"/>
<polygon fill="midnightblue" stroke="midnightblue" points="1132.6,-349.94 1126.1,-358.31 1136.4,-355.82 1132.6,-349.94"/>
</g>
<!-- Node21 -->
<g id="node21" class="node">
<title>Node21</title>
<g id="a_node21"><a xlink:href="_log_ostream_inserters_8cpp.html" target="_top" xlink:title=" ">
<polygon fill="none" stroke="black" points="1140.64,-190.5 1140.64,-209.5 1296.64,-209.5 1296.64,-190.5 1140.64,-190.5"/>
<text text-anchor="middle" x="1218.64" y="-197.5" font-family="Helvetica,sans-Serif" font-size="10.00">src/LogOstreamInserters.cpp</text>
</a>
</g>
</g>
<!-- Node2&#45;&gt;Node21 -->
<g id="edge56" class="edge">
<title>Node2&#45;&gt;Node21</title>
<path fill="none" stroke="midnightblue" d="M1123.94,-349.31C1146.54,-313.92 1196.57,-235.56 1213.17,-209.57"/>
<polygon fill="midnightblue" stroke="midnightblue" points="1120.77,-347.76 1118.34,-358.08 1126.67,-351.53 1120.77,-347.76"/>
</g>
<!-- Node22 -->
<g id="node22" class="node">
<title>Node22</title>
<g id="a_node22"><a xlink:href="test___ostream_inserters_8cpp.html" target="_top" xlink:title=" ">
<polygon fill="none" stroke="black" points="1480.14,-190.5 1480.14,-209.5 1647.14,-209.5 1647.14,-190.5 1480.14,-190.5"/>
<text text-anchor="middle" x="1563.64" y="-197.5" font-family="Helvetica,sans-Serif" font-size="10.00">test/test_OstreamInserters.cpp</text>
</a>
</g>
</g>
<!-- Node2&#45;&gt;Node22 -->
<g id="edge64" class="edge">
<title>Node2&#45;&gt;Node22</title>
<path fill="none" stroke="midnightblue" d="M1174.6,-364.15C1260.33,-359.32 1409.96,-347.46 1457.64,-322 1508.64,-294.77 1546.47,-232.46 1559.08,-209.61"/>
<polygon fill="midnightblue" stroke="midnightblue" points="1174.26,-360.66 1164.47,-364.7 1174.65,-367.65 1174.26,-360.66"/>
</g>
<!-- Node24 -->
<g id="node24" class="node">
<title>Node24</title>
<g id="a_node24"><a xlink:href="_response_builder_8hpp.html" target="_top" xlink:title=" ">
<polygon fill="none" stroke="black" points="731.64,-129 731.64,-148 867.64,-148 867.64,-129 731.64,-129"/>
<text text-anchor="middle" x="799.64" y="-136" font-family="Helvetica,sans-Serif" font-size="10.00">inc/ResponseBuilder.hpp</text>
</a>
</g>
</g>
<!-- Node2&#45;&gt;Node24 -->
<g id="edge51" class="edge">
<title>Node2&#45;&gt;Node24</title>
<path fill="none" stroke="midnightblue" d="M1050.82,-364.22C959.67,-357.8 786.24,-336.5 658.64,-266 622.54,-246.05 603.01,-246.93 584.64,-210 580.68,-202.04 579.12,-196.97 584.64,-190 590.06,-183.16 696.44,-160.52 757.49,-148.01"/>
<polygon fill="midnightblue" stroke="midnightblue" points="1050.77,-367.73 1060.99,-364.9 1051.24,-360.74 1050.77,-367.73"/>
</g>
<!-- Node25 -->
<g id="node25" class="node">
<title>Node25</title>
<g id="a_node25"><a xlink:href="_response_builder_8cpp.html" target="_top" xlink:title=" ">
<polygon fill="none" stroke="black" points="816.14,-67.5 816.14,-86.5 951.14,-86.5 951.14,-67.5 816.14,-67.5"/>
<text text-anchor="middle" x="883.64" y="-74.5" font-family="Helvetica,sans-Serif" font-size="10.00">src/ResponseBuilder.cpp</text>
</a>
</g>
</g>
<!-- Node2&#45;&gt;Node25 -->
<g id="edge59" class="edge">
<title>Node2&#45;&gt;Node25</title>
<path fill="none" stroke="midnightblue" d="M1174.57,-364.88C1428.11,-355.81 2373.64,-317.89 2373.64,-257 2373.64,-257 2373.64,-257 2373.64,-199 2373.64,-126.66 1243.02,-88.53 951.54,-79.91"/>
<polygon fill="midnightblue" stroke="midnightblue" points="1174.29,-361.39 1164.43,-365.24 1174.54,-368.38 1174.29,-361.39"/>
</g>
<!-- Node26 -->
<g id="node26" class="node">
<title>Node26</title>
<g id="a_node26"><a xlink:href="_target_resource_handler_8hpp.html" target="_top" xlink:title=" ">
<polygon fill="none" stroke="black" points="622.14,-190.5 622.14,-209.5 789.14,-209.5 789.14,-190.5 622.14,-190.5"/>
<text text-anchor="middle" x="705.64" y="-197.5" font-family="Helvetica,sans-Serif" font-size="10.00">inc/TargetResourceHandler.hpp</text>
</a>
</g>
</g>
<!-- Node2&#45;&gt;Node26 -->
<g id="edge53" class="edge">
<title>Node2&#45;&gt;Node26</title>
<path fill="none" stroke="midnightblue" d="M1082.25,-354.6C1003.45,-322.47 794.08,-237.07 726.79,-209.62"/>
<polygon fill="midnightblue" stroke="midnightblue" points="1081.04,-357.89 1091.62,-358.42 1083.68,-351.41 1081.04,-357.89"/>
</g>
<!-- Node28 -->
<g id="node28" class="node">
<title>Node28</title>
<g id="a_node28"><a xlink:href="test___target_resource_handler_8cpp.html" target="_top" xlink:title=" ">
<polygon fill="none" stroke="black" points="886.14,-123.5 886.14,-153.5 1023.14,-153.5 1023.14,-123.5 886.14,-123.5"/>
<text text-anchor="start" x="894.14" y="-141.5" font-family="Helvetica,sans-Serif" font-size="10.00">test/test_TargetResource</text>
<text text-anchor="middle" x="954.64" y="-130.5" font-family="Helvetica,sans-Serif" font-size="10.00">Handler.cpp</text>
</a>
</g>
</g>
<!-- Node2&#45;&gt;Node28 -->
<g id="edge68" class="edge">
<title>Node2&#45;&gt;Node28</title>
<path fill="none" stroke="midnightblue" d="M1050.83,-356.89C928.96,-335.57 664.93,-281.95 612.64,-210 565.23,-144.76 425.39,-226.67 876.64,-154 879.63,-153.52 882.69,-153.01 885.77,-152.49"/>
<polygon fill="midnightblue" stroke="midnightblue" points="1050.31,-360.36 1060.77,-358.62 1051.51,-353.46 1050.31,-360.36"/>
</g>
<!-- Node33 -->
<g id="node33" class="node">
<title>Node33</title>
<g id="a_node33"><a xlink:href="_h_t_t_p_response_8hpp.html" target="_top" xlink:title=" ">
<polygon fill="none" stroke="black" points="887.64,-246.5 887.64,-265.5 1015.64,-265.5 1015.64,-246.5 887.64,-246.5"/>
<text text-anchor="middle" x="951.64" y="-253.5" font-family="Helvetica,sans-Serif" font-size="10.00">inc/HTTPResponse.hpp</text>
</a>
</g>
</g>
<!-- Node2&#45;&gt;Node33 -->
<g id="edge40" class="edge">
<title>Node2&#45;&gt;Node33</title>
<path fill="none" stroke="midnightblue" d="M1091.73,-352.71C1057.81,-329.53 991.79,-284.43 964.22,-265.59"/>
<polygon fill="midnightblue" stroke="midnightblue" points="1089.78,-355.62 1100.01,-358.37 1093.73,-349.84 1089.78,-355.62"/>
</g>
<!-- Node35 -->
<g id="node35" class="node">
<title>Node35</title>
<g id="a_node35"><a xlink:href="_response_body_handler_8cpp.html" target="_top" xlink:title=" ">
<polygon fill="none" stroke="black" points="1256.64,-129 1256.64,-148 1420.64,-148 1420.64,-129 1256.64,-129"/>
<text text-anchor="middle" x="1338.64" y="-136" font-family="Helvetica,sans-Serif" font-size="10.00">src/ResponseBodyHandler.cpp</text>
</a>
</g>
</g>
<!-- Node2&#45;&gt;Node35 -->
<g id="edge58" class="edge">
<title>Node2&#45;&gt;Node35</title>
<path fill="none" stroke="midnightblue" d="M1174.49,-363.64C1409.88,-350.25 2240.51,-297.08 2316.64,-210 2322.49,-203.31 2322.76,-196.45 2316.64,-190 2285.98,-157.72 1650.53,-144.45 1420.69,-140.7"/>
<polygon fill="midnightblue" stroke="midnightblue" points="1174.18,-360.16 1164.39,-364.22 1174.57,-367.14 1174.18,-360.16"/>
</g>
<!-- Node36 -->
<g id="node36" class="node">
<title>Node36</title>
<g id="a_node36"><a xlink:href="test___response_body_handler_8cpp.html" target="_top" xlink:title=" ">
<polygon fill="none" stroke="black" points="1041.64,-129 1041.64,-148 1233.64,-148 1233.64,-129 1041.64,-129"/>
<text text-anchor="middle" x="1137.64" y="-136" font-family="Helvetica,sans-Serif" font-size="10.00">test/test_ResponseBodyHandler.cpp</text>
</a>
</g>
</g>
<!-- Node2&#45;&gt;Node36 -->
<g id="edge67" class="edge">
<title>Node2&#45;&gt;Node36</title>
<path fill="none" stroke="midnightblue" d="M1114.62,-347.89C1118,-315.42 1125.15,-247.44 1131.64,-190 1133.31,-175.26 1135.37,-158.12 1136.59,-148.07"/>
<polygon fill="midnightblue" stroke="midnightblue" points="1111.11,-347.85 1113.56,-358.16 1118.07,-348.57 1111.11,-347.85"/>
</g>
<!-- Node37 -->
<g id="node37" class="node">
<title>Node37</title>
<g id="a_node37"><a xlink:href="_config_file_8cpp.html" target="_top" xlink:title=" ">
<polygon fill="none" stroke="black" points="2515.64,-302.5 2515.64,-321.5 2617.64,-321.5 2617.64,-302.5 2515.64,-302.5"/>
<text text-anchor="middle" x="2566.64" y="-309.5" font-family="Helvetica,sans-Serif" font-size="10.00">src/ConfigFile.cpp</text>
</a>
</g>
</g>
<!-- Node2&#45;&gt;Node37 -->
<g id="edge54" class="edge">
<title>Node2&#45;&gt;Node37</title>
<path fill="none" stroke="midnightblue" d="M1174.2,-367.31C1369.12,-367.8 1990.03,-365.59 2501.64,-322 2506.18,-321.61 2510.89,-321.13 2515.6,-320.58"/>
<polygon fill="midnightblue" stroke="midnightblue" points="1174.16,-363.81 1164.15,-367.28 1174.14,-370.81 1174.16,-363.81"/>
</g>
<!-- Node4 -->
<g id="node4" class="node">
<title>Node4</title>
<g id="a_node4"><a xlink:href="_config_file_parser_8cpp.html" target="_top" xlink:title=" ">
<polygon fill="none" stroke="black" points="207.14,-246.5 207.14,-265.5 338.14,-265.5 338.14,-246.5 207.14,-246.5"/>
<text text-anchor="middle" x="272.64" y="-253.5" font-family="Helvetica,sans-Serif" font-size="10.00">src/ConfigFileParser.cpp</text>
</a>
</g>
</g>
<!-- Node3&#45;&gt;Node4 -->
<g id="edge3" class="edge">
<title>Node3&#45;&gt;Node4</title>
<path fill="none" stroke="midnightblue" d="M212.48,-296.62C227.45,-286.76 246.84,-273.99 259.5,-265.65"/>
<polygon fill="midnightblue" stroke="midnightblue" points="210.24,-293.9 203.82,-302.32 214.09,-299.75 210.24,-293.9"/>
</g>
<!-- Node3&#45;&gt;Node5 -->
<g id="edge4" class="edge">
<title>Node3&#45;&gt;Node5</title>
<path fill="none" stroke="midnightblue" d="M114.48,-307.38C81.49,-302.04 44.76,-290.45 19.64,-266 -1.93,-245.01 0.64,-231.1 0.64,-201 0.64,-201 0.64,-201 0.64,-137.5 0.64,-69.32 232.49,-33.02 327.13,-21.04"/>
<polygon fill="midnightblue" stroke="midnightblue" points="114.18,-310.87 124.58,-308.84 115.19,-303.95 114.18,-310.87"/>
</g>
<!-- Node6 -->
<g id="node6" class="node">
<title>Node6</title>
<g id="a_node6"><a xlink:href="test___config_file_parser_8cpp.html" target="_top" xlink:title=" ">
<polygon fill="none" stroke="black" points="28.64,-246.5 28.64,-265.5 188.64,-265.5 188.64,-246.5 28.64,-246.5"/>
<text text-anchor="middle" x="108.64" y="-253.5" font-family="Helvetica,sans-Serif" font-size="10.00">test/test_ConfigFileParser.cpp</text>
</a>
</g>
</g>
<!-- Node3&#45;&gt;Node6 -->
<g id="edge5" class="edge">
<title>Node3&#45;&gt;Node6</title>
<path fill="none" stroke="midnightblue" d="M168.81,-296.62C153.83,-286.76 134.44,-273.99 121.78,-265.65"/>
<polygon fill="midnightblue" stroke="midnightblue" points="167.19,-299.75 177.47,-302.32 171.04,-293.9 167.19,-299.75"/>
</g>
<!-- Node8 -->
<g id="node8" class="node">
<title>Node8</title>
<g id="a_node8"><a xlink:href="_connection_8hpp.html" target="_top" xlink:title=" ">
<polygon fill="none" stroke="black" points="1333.64,-246.5 1333.64,-265.5 1443.64,-265.5 1443.64,-246.5 1333.64,-246.5"/>
<text text-anchor="middle" x="1388.64" y="-253.5" font-family="Helvetica,sans-Serif" font-size="10.00">inc/Connection.hpp</text>
</a>
</g>
</g>
<!-- Node7&#45;&gt;Node8 -->
<g id="edge7" class="edge">
<title>Node7&#45;&gt;Node8</title>
<path fill="none" stroke="midnightblue" d="M1388.64,-291.8C1388.64,-282.91 1388.64,-272.78 1388.64,-265.75"/>
<polygon fill="midnightblue" stroke="midnightblue" points="1385.14,-292.08 1388.64,-302.08 1392.14,-292.08 1385.14,-292.08"/>
</g>
<!-- Node7&#45;&gt;Node21 -->
<g id="edge38" class="edge">
<title>Node7&#45;&gt;Node21</title>
<path fill="none" stroke="midnightblue" d="M1366.56,-296.71C1330.74,-273.53 1261.03,-228.43 1231.92,-209.59"/>
<polygon fill="midnightblue" stroke="midnightblue" points="1365.01,-299.87 1375.3,-302.37 1368.81,-294 1365.01,-299.87"/>
</g>
<!-- Node7&#45;&gt;Node22 -->
<g id="edge39" class="edge">
<title>Node7&#45;&gt;Node22</title>
<path fill="none" stroke="midnightblue" d="M1410.9,-297.01C1447.63,-273.92 1519.88,-228.51 1549.97,-209.59"/>
<polygon fill="midnightblue" stroke="midnightblue" points="1408.98,-294.08 1402.37,-302.37 1412.7,-300.01 1408.98,-294.08"/>
</g>
<!-- Node23 -->
<g id="node23" class="node">
<title>Node23</title>
<g id="a_node23"><a xlink:href="_request_parser_8hpp.html" target="_top" xlink:title=" ">
<polygon fill="none" stroke="black" points="1734.64,-246.5 1734.64,-265.5 1858.64,-265.5 1858.64,-246.5 1734.64,-246.5"/>
<text text-anchor="middle" x="1796.64" y="-253.5" font-family="Helvetica,sans-Serif" font-size="10.00">inc/RequestParser.hpp</text>
</a>
</g>
</g>
<!-- Node7&#45;&gt;Node23 -->
<g id="edge23" class="edge">
<title>Node7&#45;&gt;Node23</title>
<path fill="none" stroke="midnightblue" d="M1459.01,-301.69C1536.64,-291.41 1660.36,-275.04 1734.52,-265.22"/>
<polygon fill="midnightblue" stroke="midnightblue" points="1458.3,-298.25 1448.84,-303.03 1459.22,-305.19 1458.3,-298.25"/>
</g>
<!-- Node8&#45;&gt;Node9 -->
<g id="edge8" class="edge">
<title>Node8&#45;&gt;Node9</title>
<path fill="none" stroke="midnightblue" d="M1409.81,-240.04C1418.98,-232.26 1428.72,-221.88 1433.64,-210 1441.28,-191.56 1449.41,-152.53 1429.64,-123 1417.17,-104.37 1394.7,-93.2 1374.98,-86.65"/>
<polygon fill="midnightblue" stroke="midnightblue" points="1407.39,-237.49 1401.71,-246.44 1411.72,-242.99 1407.39,-237.49"/>
</g>
<!-- Node8&#45;&gt;Node20 -->
<g id="edge20" class="edge">
<title>Node8&#45;&gt;Node20</title>
<path fill="none" stroke="midnightblue" d="M1382.1,-236.4C1378.92,-227.36 1375.25,-216.94 1372.72,-209.75"/>
<polygon fill="midnightblue" stroke="midnightblue" points="1378.88,-237.81 1385.5,-246.08 1385.49,-235.49 1378.88,-237.81"/>
</g>
<!-- Node8&#45;&gt;Node21 -->
<g id="edge21" class="edge">
<title>Node8&#45;&gt;Node21</title>
<path fill="none" stroke="midnightblue" d="M1351.82,-243.3C1319.79,-233.13 1274.13,-218.62 1245.45,-209.52"/>
<polygon fill="midnightblue" stroke="midnightblue" points="1351.11,-246.75 1361.71,-246.44 1353.23,-240.08 1351.11,-246.75"/>
</g>
<!-- Node8&#45;&gt;Node22 -->
<g id="edge22" class="edge">
<title>Node8&#45;&gt;Node22</title>
<path fill="none" stroke="midnightblue" d="M1426.12,-243.44C1459.11,-233.26 1506.4,-218.66 1536.04,-209.52"/>
<polygon fill="midnightblue" stroke="midnightblue" points="1424.89,-240.15 1416.37,-246.44 1426.96,-246.84 1424.89,-240.15"/>
</g>
<!-- Node9&#45;&gt;Node5 -->
<g id="edge9" class="edge">
<title>Node9&#45;&gt;Node5</title>
<path fill="none" stroke="midnightblue" d="M1283.15,-75.11C1112.65,-71.99 583.34,-60.14 414.64,-31 406.75,-29.64 398.33,-27.38 390.78,-25.05"/>
<polygon fill="midnightblue" stroke="midnightblue" points="1283.32,-78.61 1293.38,-75.29 1283.44,-71.61 1283.32,-78.61"/>
</g>
<!-- Node9&#45;&gt;Node10 -->
<g id="edge10" class="edge">
<title>Node9&#45;&gt;Node10</title>
<path fill="none" stroke="midnightblue" d="M1283.14,-74.61C1125.69,-70.28 665.74,-55.81 517.64,-31 509.29,-29.6 500.35,-27.33 492.33,-25.01"/>
<polygon fill="midnightblue" stroke="midnightblue" points="1283.42,-78.12 1293.51,-74.89 1283.61,-71.12 1283.42,-78.12"/>
</g>
<!-- Node9&#45;&gt;Node11 -->
<g id="edge11" class="edge">
<title>Node9&#45;&gt;Node11</title>
<path fill="none" stroke="midnightblue" d="M1283.26,-73.57C1175.02,-68.34 922.03,-54.53 710.64,-31 696.24,-29.4 680.67,-27.23 666.36,-25.07"/>
<polygon fill="midnightblue" stroke="midnightblue" points="1283.12,-77.07 1293.28,-74.05 1283.46,-70.08 1283.12,-77.07"/>
</g>
<!-- Node12 -->
<g id="node12" class="node">
<title>Node12</title>
<g id="a_node12"><a xlink:href="test__check_for_timeout_8cpp.html" target="_top" xlink:title=" ">
<polygon fill="none" stroke="black" points="1442.14,-6 1442.14,-25 1609.14,-25 1609.14,-6 1442.14,-6"/>
<text text-anchor="middle" x="1525.64" y="-13" font-family="Helvetica,sans-Serif" font-size="10.00">test/test_checkForTimeout.cpp</text>
</a>
</g>
</g>
<!-- Node9&#45;&gt;Node12 -->
<g id="edge12" class="edge">
<title>Node9&#45;&gt;Node12</title>
<path fill="none" stroke="midnightblue" d="M1373.55,-64.38C1410.29,-52.82 1465.8,-35.34 1498.61,-25.01"/>
<polygon fill="midnightblue" stroke="midnightblue" points="1372.21,-61.13 1363.72,-67.48 1374.31,-67.81 1372.21,-61.13"/>
</g>
<!-- Node13 -->
<g id="node13" class="node">
<title>Node13</title>
<g id="a_node13"><a xlink:href="test__connection_receive_header_8cpp.html" target="_top" xlink:title=" ">
<polygon fill="none" stroke="black" points="1627.14,-0.5 1627.14,-30.5 1782.14,-30.5 1782.14,-0.5 1627.14,-0.5"/>
<text text-anchor="start" x="1635.14" y="-18.5" font-family="Helvetica,sans-Serif" font-size="10.00">test/test_connectionReceive</text>
<text text-anchor="middle" x="1704.64" y="-7.5" font-family="Helvetica,sans-Serif" font-size="10.00">Header.cpp</text>
</a>
</g>
</g>
<!-- Node9&#45;&gt;Node13 -->
<g id="edge13" class="edge">
<title>Node9&#45;&gt;Node13</title>
<path fill="none" stroke="midnightblue" d="M1389.82,-67.66C1446.53,-58.73 1538.96,-44.07 1618.64,-31 1621.33,-30.56 1624.07,-30.11 1626.83,-29.65"/>
<polygon fill="midnightblue" stroke="midnightblue" points="1388.99,-64.24 1379.66,-69.26 1390.08,-71.16 1388.99,-64.24"/>
</g>
<!-- Node14 -->
<g id="node14" class="node">
<title>Node14</title>
<g id="a_node14"><a xlink:href="test__connection_send_response_8cpp.html" target="_top" xlink:title=" ">
<polygon fill="none" stroke="black" points="1090.64,-0.5 1090.64,-30.5 1230.64,-30.5 1230.64,-0.5 1090.64,-0.5"/>
<text text-anchor="start" x="1098.64" y="-18.5" font-family="Helvetica,sans-Serif" font-size="10.00">test/test_connectionSend</text>
<text text-anchor="middle" x="1160.64" y="-7.5" font-family="Helvetica,sans-Serif" font-size="10.00">Response.cpp</text>
</a>
</g>
</g>
<!-- Node9&#45;&gt;Node14 -->
<g id="edge14" class="edge">
<title>Node9&#45;&gt;Node14</title>
<path fill="none" stroke="midnightblue" d="M1301.83,-64.23C1273.17,-54.54 1232.47,-40.78 1202.12,-30.52"/>
<polygon fill="midnightblue" stroke="midnightblue" points="1300.83,-67.59 1311.43,-67.48 1303.07,-60.96 1300.83,-67.59"/>
</g>
<!-- Node15 -->
<g id="node15" class="node">
<title>Node15</title>
<g id="a_node15"><a xlink:href="test__create_virtual_server_8cpp.html" target="_top" xlink:title=" ">
<polygon fill="none" stroke="black" points="1248.64,-6 1248.64,-25 1424.64,-25 1424.64,-6 1248.64,-6"/>
<text text-anchor="middle" x="1336.64" y="-13" font-family="Helvetica,sans-Serif" font-size="10.00">test/test_createVirtualServer.cpp</text>
</a>
</g>
</g>
<!-- Node9&#45;&gt;Node15 -->
<g id="edge15" class="edge">
<title>Node9&#45;&gt;Node15</title>
<path fill="none" stroke="midnightblue" d="M1336.64,-57.32C1336.64,-46.5 1336.64,-33.4 1336.64,-25.01"/>
<polygon fill="midnightblue" stroke="midnightblue" points="1333.14,-57.48 1336.64,-67.48 1340.14,-57.48 1333.14,-57.48"/>
</g>
<!-- Node9&#45;&gt;Node16 -->
<g id="edge16" class="edge">
<title>Node9&#45;&gt;Node16</title>
<path fill="none" stroke="midnightblue" d="M1283.16,-71.49C1200.08,-64.28 1035.07,-49.09 895.64,-31 882.33,-29.27 867.98,-27.14 854.67,-25.05"/>
<polygon fill="midnightblue" stroke="midnightblue" points="1283.1,-75 1293.36,-72.37 1283.7,-68.03 1283.1,-75"/>
</g>
<!-- Node9&#45;&gt;Node17 -->
<g id="edge17" class="edge">
<title>Node9&#45;&gt;Node17</title>
<path fill="none" stroke="midnightblue" d="M1283.75,-66.96C1217.2,-55.58 1103.73,-36.18 1038.59,-25.04"/>
<polygon fill="midnightblue" stroke="midnightblue" points="1283.17,-70.41 1293.62,-68.64 1284.35,-63.51 1283.17,-70.41"/>
</g>
<!-- Node9&#45;&gt;Node18 -->
<g id="edge18" class="edge">
<title>Node9&#45;&gt;Node18</title>
<path fill="none" stroke="midnightblue" d="M1389.96,-71.18C1503.14,-60.94 1768.36,-36.96 1906.88,-24.44"/>
<polygon fill="midnightblue" stroke="midnightblue" points="1389.46,-67.71 1379.82,-72.1 1390.09,-74.68 1389.46,-67.71"/>
</g>
<!-- Node9&#45;&gt;Node19 -->
<g id="edge19" class="edge">
<title>Node9&#45;&gt;Node19</title>
<path fill="none" stroke="midnightblue" d="M1389.84,-72.97C1564.77,-63 2122.01,-31.24 2314.49,-20.27"/>
<polygon fill="midnightblue" stroke="midnightblue" points="1389.63,-69.47 1379.84,-73.54 1390.03,-76.46 1389.63,-69.47"/>
</g>
<!-- Node23&#45;&gt;Node9 -->
<g id="edge28" class="edge">
<title>Node23&#45;&gt;Node9</title>
<path fill="none" stroke="midnightblue" d="M1869.27,-253.2C1985.87,-248.98 2197.98,-235.06 2158.64,-190 2106.75,-130.56 1541.45,-90.82 1379.66,-80.6"/>
<polygon fill="midnightblue" stroke="midnightblue" points="1868.86,-249.72 1858.98,-253.56 1869.1,-256.71 1868.86,-249.72"/>
</g>
<!-- Node23&#45;&gt;Node24 -->
<g id="edge24" class="edge">
<title>Node23&#45;&gt;Node24</title>
<path fill="none" stroke="midnightblue" d="M1763.53,-242.83C1741.83,-234.46 1713.06,-222.61 1688.64,-210 1673.74,-202.3 1672.65,-194.99 1656.64,-190 1491,-138.33 1048.99,-174.1 876.64,-154 864.35,-152.57 851.06,-150.32 839.05,-148.02"/>
<polygon fill="midnightblue" stroke="midnightblue" points="1762.38,-246.13 1772.97,-246.42 1764.87,-239.59 1762.38,-246.13"/>
</g>
<!-- Node23&#45;&gt;Node26 -->
<g id="edge29" class="edge">
<title>Node23&#45;&gt;Node26</title>
<path fill="none" stroke="midnightblue" d="M1724.36,-251.42C1529.93,-241.8 996.55,-215.4 789.43,-205.15"/>
<polygon fill="midnightblue" stroke="midnightblue" points="1724.3,-254.92 1734.46,-251.92 1724.65,-247.93 1724.3,-254.92"/>
</g>
<!-- Node23&#45;&gt;Node28 -->
<g id="edge34" class="edge">
<title>Node23&#45;&gt;Node28</title>
<path fill="none" stroke="midnightblue" d="M1775.49,-240.58C1749.52,-223.18 1706.7,-195.55 1688.64,-190 1549.09,-147.09 1177.6,-171.38 1032.64,-154 1029.63,-153.64 1026.57,-153.23 1023.47,-152.79"/>
<polygon fill="midnightblue" stroke="midnightblue" points="1773.66,-243.57 1783.91,-246.26 1777.57,-237.76 1773.66,-243.57"/>
</g>
<!-- Node29 -->
<g id="node29" class="node">
<title>Node29</title>
<g id="a_node29"><a xlink:href="_request_parser_8cpp.html" target="_top" xlink:title=" ">
<polygon fill="none" stroke="black" points="2026.14,-190.5 2026.14,-209.5 2149.14,-209.5 2149.14,-190.5 2026.14,-190.5"/>
<text text-anchor="middle" x="2087.64" y="-197.5" font-family="Helvetica,sans-Serif" font-size="10.00">src/RequestParser.cpp</text>
</a>
</g>
</g>
<!-- Node23&#45;&gt;Node29 -->
<g id="edge33" class="edge">
<title>Node23&#45;&gt;Node29</title>
<path fill="none" stroke="midnightblue" d="M1852.68,-244.6C1907.68,-234.4 1990.54,-219.02 2041.75,-209.52"/>
<polygon fill="midnightblue" stroke="midnightblue" points="1851.95,-241.18 1842.75,-246.44 1853.22,-248.06 1851.95,-241.18"/>
</g>
<!-- Node30 -->
<g id="node30" class="node">
<title>Node30</title>
<g id="a_node30"><a xlink:href="test_body_8cpp.html" target="_top" xlink:title=" ">
<polygon fill="none" stroke="black" points="2206.14,-190.5 2206.14,-209.5 2307.14,-209.5 2307.14,-190.5 2206.14,-190.5"/>
<text text-anchor="middle" x="2256.64" y="-197.5" font-family="Helvetica,sans-Serif" font-size="10.00">test/testBody.cpp</text>
</a>
</g>
</g>
<!-- Node23&#45;&gt;Node30 -->
<g id="edge35" class="edge">
<title>Node23&#45;&gt;Node30</title>
<path fill="none" stroke="midnightblue" d="M1869.32,-247.25C1948.61,-238.68 2079.25,-224.18 2191.64,-210 2196.28,-209.42 2201.09,-208.79 2205.92,-208.14"/>
<polygon fill="midnightblue" stroke="midnightblue" points="1868.52,-243.82 1858.95,-248.37 1869.27,-250.78 1868.52,-243.82"/>
</g>
<!-- Node31 -->
<g id="node31" class="node">
<title>Node31</title>
<g id="a_node31"><a xlink:href="test_header_8cpp.html" target="_top" xlink:title=" ">
<polygon fill="none" stroke="black" points="1740.64,-190.5 1740.64,-209.5 1852.64,-209.5 1852.64,-190.5 1740.64,-190.5"/>
<text text-anchor="middle" x="1796.64" y="-197.5" font-family="Helvetica,sans-Serif" font-size="10.00">test/testHeader.cpp</text>
</a>
</g>
</g>
<!-- Node23&#45;&gt;Node31 -->
<g id="edge36" class="edge">
<title>Node23&#45;&gt;Node31</title>
<path fill="none" stroke="midnightblue" d="M1796.64,-235.8C1796.64,-226.91 1796.64,-216.78 1796.64,-209.75"/>
<polygon fill="midnightblue" stroke="midnightblue" points="1793.14,-236.08 1796.64,-246.08 1800.14,-236.08 1793.14,-236.08"/>
</g>
<!-- Node32 -->
<g id="node32" class="node">
<title>Node32</title>
<g id="a_node32"><a xlink:href="test_request_line_8cpp.html" target="_top" xlink:title=" ">
<polygon fill="none" stroke="black" points="1871.14,-190.5 1871.14,-209.5 2008.14,-209.5 2008.14,-190.5 1871.14,-190.5"/>
<text text-anchor="middle" x="1939.64" y="-197.5" font-family="Helvetica,sans-Serif" font-size="10.00">test/testRequestLine.cpp</text>
</a>
</g>
</g>
<!-- Node23&#45;&gt;Node32 -->
<g id="edge37" class="edge">
<title>Node23&#45;&gt;Node32</title>
<path fill="none" stroke="midnightblue" d="M1828.67,-242.91C1855.55,-232.75 1893.28,-218.51 1917.09,-209.52"/>
<polygon fill="midnightblue" stroke="midnightblue" points="1827.42,-239.64 1819.3,-246.44 1829.89,-246.19 1827.42,-239.64"/>
</g>
<!-- Node24&#45;&gt;Node5 -->
<g id="edge26" class="edge">
<title>Node24&#45;&gt;Node5</title>
<path fill="none" stroke="midnightblue" d="M758.02,-126.33C687.31,-107.28 539.25,-67.05 414.64,-31 408.12,-29.11 401.12,-27.03 394.53,-25.05"/>
<polygon fill="midnightblue" stroke="midnightblue" points="757.31,-129.76 767.88,-128.98 759.13,-123.01 757.31,-129.76"/>
</g>
<!-- Node24&#45;&gt;Node9 -->
<g id="edge25" class="edge">
<title>Node24&#45;&gt;Node9</title>
<path fill="none" stroke="midnightblue" d="M850.97,-127.18C859.52,-125.65 868.32,-124.19 876.64,-123 1029.16,-101.22 1211.65,-86.8 1293.36,-80.95"/>
<polygon fill="midnightblue" stroke="midnightblue" points="850.29,-123.75 841.09,-129 851.56,-130.63 850.29,-123.75"/>
</g>
<!-- Node24&#45;&gt;Node25 -->
<g id="edge27" class="edge">
<title>Node24&#45;&gt;Node25</title>
<path fill="none" stroke="midnightblue" d="M819.95,-123.11C836.11,-111.67 858.17,-96.05 871.63,-86.51"/>
<polygon fill="midnightblue" stroke="midnightblue" points="817.81,-120.34 811.68,-128.98 821.86,-126.05 817.81,-120.34"/>
</g>
<!-- Node26&#45;&gt;Node24 -->
<g id="edge30" class="edge">
<title>Node26&#45;&gt;Node24</title>
<path fill="none" stroke="midnightblue" d="M727.87,-184.93C745.99,-173.46 770.99,-157.63 786.2,-148.01"/>
<polygon fill="midnightblue" stroke="midnightblue" points="725.69,-182.17 719.11,-190.48 729.43,-188.08 725.69,-182.17"/>
</g>
<!-- Node27 -->
<g id="node27" class="node">
<title>Node27</title>
<g id="a_node27"><a xlink:href="_target_resource_handler_8cpp.html" target="_top" xlink:title=" ">
<polygon fill="none" stroke="black" points="546.14,-129 546.14,-148 713.14,-148 713.14,-129 546.14,-129"/>
<text text-anchor="middle" x="629.64" y="-136" font-family="Helvetica,sans-Serif" font-size="10.00">src/TargetResourceHandler.cpp</text>
</a>
</g>
</g>
<!-- Node26&#45;&gt;Node27 -->
<g id="edge31" class="edge">
<title>Node26&#45;&gt;Node27</title>
<path fill="none" stroke="midnightblue" d="M686.86,-184.29C672.28,-172.88 652.58,-157.46 640.51,-148.01"/>
<polygon fill="midnightblue" stroke="midnightblue" points="684.72,-187.07 694.75,-190.48 689.04,-181.55 684.72,-187.07"/>
</g>
<!-- Node26&#45;&gt;Node28 -->
<g id="edge32" class="edge">
<title>Node26&#45;&gt;Node28</title>
<path fill="none" stroke="midnightblue" d="M751.23,-188.11C791.91,-178.39 851.71,-164.1 895.96,-153.52"/>
<polygon fill="midnightblue" stroke="midnightblue" points="750.23,-184.75 741.32,-190.48 751.86,-191.56 750.23,-184.75"/>
</g>
<!-- Node33&#45;&gt;Node21 -->
<g id="edge47" class="edge">
<title>Node33&#45;&gt;Node21</title>
<path fill="none" stroke="midnightblue" d="M1004.01,-244.41C1054.47,-234.2 1129.84,-218.96 1176.53,-209.52"/>
<polygon fill="midnightblue" stroke="midnightblue" points="1003.06,-241.03 993.95,-246.44 1004.44,-247.89 1003.06,-241.03"/>
</g>
<!-- Node33&#45;&gt;Node22 -->
<g id="edge48" class="edge">
<title>Node33&#45;&gt;Node22</title>
<path fill="none" stroke="midnightblue" d="M1025.78,-248.46C1140.37,-238.35 1359.83,-218.98 1479.96,-208.38"/>
<polygon fill="midnightblue" stroke="midnightblue" points="1025.35,-244.98 1015.69,-249.35 1025.96,-251.96 1025.35,-244.98"/>
</g>
<!-- Node33&#45;&gt;Node24 -->
<g id="edge45" class="edge">
<title>Node33&#45;&gt;Node24</title>
<path fill="none" stroke="midnightblue" d="M924.4,-241.65C908.67,-233.43 888.86,-222.15 872.64,-210 846.41,-190.35 819.76,-162.04 807.15,-148.02"/>
<polygon fill="midnightblue" stroke="midnightblue" points="923.1,-244.92 933.6,-246.36 926.29,-238.69 923.1,-244.92"/>
</g>
<!-- Node33&#45;&gt;Node26 -->
<g id="edge46" class="edge">
<title>Node33&#45;&gt;Node26</title>
<path fill="none" stroke="midnightblue" d="M902.81,-244.28C856.33,-234.08 787.28,-218.92 744.44,-209.52"/>
<polygon fill="midnightblue" stroke="midnightblue" points="902.14,-247.72 912.66,-246.44 903.65,-240.88 902.14,-247.72"/>
</g>
<!-- Node33&#45;&gt;Node28 -->
<g id="edge50" class="edge">
<title>Node33&#45;&gt;Node28</title>
<path fill="none" stroke="midnightblue" d="M918.2,-242.3C893.69,-230.86 866.63,-212.41 878.64,-190 887.4,-173.66 904.03,-161.71 919.5,-153.55"/>
<polygon fill="midnightblue" stroke="midnightblue" points="916.82,-245.52 927.38,-246.34 919.64,-239.11 916.82,-245.52"/>
</g>
<!-- Node34 -->
<g id="node34" class="node">
<title>Node34</title>
<g id="a_node34"><a xlink:href="_response_body_handler_8hpp.html" target="_top" xlink:title=" ">
<polygon fill="none" stroke="black" points="920.64,-190.5 920.64,-209.5 1084.64,-209.5 1084.64,-190.5 920.64,-190.5"/>
<text text-anchor="middle" x="1002.64" y="-197.5" font-family="Helvetica,sans-Serif" font-size="10.00">inc/ResponseBodyHandler.hpp</text>
</a>
</g>
</g>
<!-- Node33&#45;&gt;Node34 -->
<g id="edge41" class="edge">
<title>Node33&#45;&gt;Node34</title>
<path fill="none" stroke="midnightblue" d="M967.02,-238.72C976.01,-229.2 987,-217.56 994.38,-209.75"/>
<polygon fill="midnightblue" stroke="midnightblue" points="964.39,-236.41 960.06,-246.08 969.47,-241.22 964.39,-236.41"/>
</g>
<!-- Node33&#45;&gt;Node36 -->
<g id="edge49" class="edge">
<title>Node33&#45;&gt;Node36</title>
<path fill="none" stroke="midnightblue" d="M931.62,-239.89C915.98,-226.25 898.87,-205.94 911.64,-190 922.4,-176.57 1019.9,-158.51 1083.27,-148.02"/>
<polygon fill="midnightblue" stroke="midnightblue" points="929.54,-242.71 939.49,-246.35 933.98,-237.3 929.54,-242.71"/>
</g>
<!-- Node34&#45;&gt;Node24 -->
<g id="edge42" class="edge">
<title>Node34&#45;&gt;Node24</title>
<path fill="none" stroke="midnightblue" d="M963.76,-187.6C924.31,-176.04 864.15,-158.41 828.67,-148.01"/>
<polygon fill="midnightblue" stroke="midnightblue" points="962.98,-191.02 973.56,-190.48 964.95,-184.3 962.98,-191.02"/>
</g>
<!-- Node34&#45;&gt;Node35 -->
<g id="edge43" class="edge">
<title>Node34&#45;&gt;Node35</title>
<path fill="none" stroke="midnightblue" d="M1060.87,-188.69C1125.92,-177.17 1230,-158.74 1290.59,-148.01"/>
<polygon fill="midnightblue" stroke="midnightblue" points="1060.02,-185.28 1050.78,-190.48 1061.24,-192.18 1060.02,-185.28"/>
</g>
<!-- Node34&#45;&gt;Node36 -->
<g id="edge44" class="edge">
<title>Node34&#45;&gt;Node36</title>
<path fill="none" stroke="midnightblue" d="M1031.4,-186.33C1057.6,-174.78 1095.6,-158.03 1118.34,-148.01"/>
<polygon fill="midnightblue" stroke="midnightblue" points="1029.72,-183.24 1021.98,-190.48 1032.55,-189.64 1029.72,-183.24"/>
</g>
</g>
</svg>
