<?xml version="1.0" encoding="UTF-8" standalone="no"?>
<!DOCTYPE svg PUBLIC "-//W3C//DTD SVG 1.1//EN"
 "http://www.w3.org/Graphics/SVG/1.1/DTD/svg11.dtd">
<!-- Generated by graphviz version 2.43.0 (0)
 -->
<!-- Title: inc/MockSocketPolicy.hpp Pages: 1 -->
<svg width="1299pt" height="364pt"
 viewBox="0.00 0.00 1299.00 364.00" xmlns="http://www.w3.org/2000/svg" xmlns:xlink="http://www.w3.org/1999/xlink">
<g id="graph0" class="graph" transform="scale(1 1) rotate(0) translate(4 360)">
<title>inc/MockSocketPolicy.hpp</title>
<!-- Node1 -->
<g id="node1" class="node">
<title>Node1</title>
<g id="a_node1"><a xlink:title=" ">
<polygon fill="#bfbfbf" stroke="black" points="690.5,-336.5 690.5,-355.5 831.5,-355.5 831.5,-336.5 690.5,-336.5"/>
<text text-anchor="middle" x="761" y="-343.5" font-family="Helvetica,sans-Serif" font-size="10.00">inc/MockSocketPolicy.hpp</text>
</a>
</g>
</g>
<!-- Node2 -->
<g id="node2" class="node">
<title>Node2</title>
<g id="a_node2"><a xlink:title=" ">
<polygon fill="none" stroke="#bfbfbf" points="608.5,-280.5 608.5,-299.5 703.5,-299.5 703.5,-280.5 608.5,-280.5"/>
<text text-anchor="middle" x="656" y="-287.5" font-family="Helvetica,sans-Serif" font-size="10.00">gmock/gmock.h</text>
</a>
</g>
</g>
<!-- Node1&#45;&gt;Node2 -->
<g id="edge1" class="edge">
<title>Node1&#45;&gt;Node2</title>
<path fill="none" stroke="midnightblue" d="M744.13,-336.32C727.29,-327.66 701.19,-314.24 681.76,-304.25"/>
<polygon fill="midnightblue" stroke="midnightblue" points="683.32,-301.12 672.83,-299.65 680.12,-307.34 683.32,-301.12"/>
</g>
<!-- Node3 -->
<g id="node3" class="node">
<title>Node3</title>
<g id="a_node3"><a xlink:title=" ">
<polygon fill="none" stroke="#bfbfbf" points="722,-280.5 722,-299.5 800,-299.5 800,-280.5 722,-280.5"/>
<text text-anchor="middle" x="761" y="-287.5" font-family="Helvetica,sans-Serif" font-size="10.00">gtest/gtest.h</text>
</a>
</g>
</g>
<!-- Node1&#45;&gt;Node3 -->
<g id="edge2" class="edge">
<title>Node1&#45;&gt;Node3</title>
<path fill="none" stroke="midnightblue" d="M761,-336.08C761,-329.01 761,-318.86 761,-309.99"/>
<polygon fill="midnightblue" stroke="midnightblue" points="764.5,-309.75 761,-299.75 757.5,-309.75 764.5,-309.75"/>
</g>
<!-- Node4 -->
<g id="node4" class="node">
<title>Node4</title>
<g id="a_node4"><a xlink:href="_socket_policy_8hpp.html" target="_top" xlink:title=" ">
<polygon fill="none" stroke="black" points="818,-280.5 818,-299.5 916,-299.5 916,-280.5 818,-280.5"/>
<text text-anchor="middle" x="867" y="-287.5" font-family="Helvetica,sans-Serif" font-size="10.00">SocketPolicy.hpp</text>
</a>
</g>
</g>
<!-- Node1&#45;&gt;Node4 -->
<g id="edge3" class="edge">
<title>Node1&#45;&gt;Node4</title>
<path fill="none" stroke="midnightblue" d="M778.03,-336.32C795.03,-327.66 821.38,-314.24 840.99,-304.25"/>
<polygon fill="midnightblue" stroke="midnightblue" points="842.69,-307.31 850.01,-299.65 839.51,-301.08 842.69,-307.31"/>
</g>
<!-- Node5 -->
<g id="node5" class="node">
<title>Node5</title>
<g id="a_node5"><a xlink:href="_log_8hpp.html" target="_top" xlink:title=" ">
<polygon fill="none" stroke="black" points="360.5,-224.5 360.5,-243.5 415.5,-243.5 415.5,-224.5 360.5,-224.5"/>
<text text-anchor="middle" x="388" y="-231.5" font-family="Helvetica,sans-Serif" font-size="10.00">Log.hpp</text>
</a>
</g>
</g>
<!-- Node4&#45;&gt;Node5 -->
<g id="edge4" class="edge">
<title>Node4&#45;&gt;Node5</title>
<path fill="none" stroke="midnightblue" d="M817.98,-281.23C814.94,-280.8 811.93,-280.38 809,-280 667.98,-261.53 499.64,-245.28 425.83,-238.44"/>
<polygon fill="midnightblue" stroke="midnightblue" points="425.92,-234.93 415.64,-237.5 425.27,-241.9 425.92,-234.93"/>
</g>
<!-- Node13 -->
<g id="node13" class="node">
<title>Node13</title>
<g id="a_node13"><a xlink:title=" ">
<polygon fill="none" stroke="#bfbfbf" points="95,-0.5 95,-19.5 139,-19.5 139,-0.5 95,-0.5"/>
<text text-anchor="middle" x="117" y="-7.5" font-family="Helvetica,sans-Serif" font-size="10.00">string</text>
</a>
</g>
</g>
<!-- Node4&#45;&gt;Node13 -->
<g id="edge39" class="edge">
<title>Node4&#45;&gt;Node13</title>
<path fill="none" stroke="midnightblue" d="M817.99,-281.13C814.95,-280.72 811.94,-280.34 809,-280 606.19,-256.33 552.65,-276.06 351,-244 236.34,-225.77 98,-295.1 98,-179 98,-179 98,-179 98,-121 98,-88.49 106.16,-51.35 111.78,-29.61"/>
<polygon fill="midnightblue" stroke="midnightblue" points="115.22,-30.32 114.44,-19.75 108.46,-28.5 115.22,-30.32"/>
</g>
<!-- Node18 -->
<g id="node18" class="node">
<title>Node18</title>
<g id="a_node18"><a xlink:href="_socket_8hpp.html" target="_top" xlink:title=" ">
<polygon fill="none" stroke="black" points="0,-56.5 0,-75.5 70,-75.5 70,-56.5 0,-56.5"/>
<text text-anchor="middle" x="35" y="-63.5" font-family="Helvetica,sans-Serif" font-size="10.00">Socket.hpp</text>
</a>
</g>
</g>
<!-- Node4&#45;&gt;Node18 -->
<g id="edge22" class="edge">
<title>Node4&#45;&gt;Node18</title>
<path fill="none" stroke="midnightblue" d="M818,-281.03C814.96,-280.65 811.94,-280.3 809,-280 728.76,-271.81 146.96,-294.41 84,-244 35.71,-205.34 32.47,-123.62 33.73,-86.31"/>
<polygon fill="midnightblue" stroke="midnightblue" points="37.25,-86.03 34.25,-75.87 30.26,-85.68 37.25,-86.03"/>
</g>
<!-- Node19 -->
<g id="node19" class="node">
<title>Node19</title>
<g id="a_node19"><a xlink:href="utilities_8hpp.html" target="_top" xlink:title=" ">
<polygon fill="none" stroke="black" points="713,-224.5 713,-243.5 787,-243.5 787,-224.5 713,-224.5"/>
<text text-anchor="middle" x="750" y="-231.5" font-family="Helvetica,sans-Serif" font-size="10.00">utilities.hpp</text>
</a>
</g>
</g>
<!-- Node4&#45;&gt;Node19 -->
<g id="edge24" class="edge">
<title>Node4&#45;&gt;Node19</title>
<path fill="none" stroke="midnightblue" d="M848.46,-280.44C829.38,-271.64 799.43,-257.81 777.56,-247.72"/>
<polygon fill="midnightblue" stroke="midnightblue" points="779,-244.53 768.45,-243.52 776.07,-250.88 779,-244.53"/>
</g>
<!-- Node23 -->
<g id="node23" class="node">
<title>Node23</title>
<g id="a_node23"><a xlink:title=" ">
<polygon fill="none" stroke="#bfbfbf" points="961,-168.5 961,-187.5 1013,-187.5 1013,-168.5 961,-168.5"/>
<text text-anchor="middle" x="987" y="-175.5" font-family="Helvetica,sans-Serif" font-size="10.00">cassert</text>
</a>
</g>
</g>
<!-- Node4&#45;&gt;Node23 -->
<g id="edge34" class="edge">
<title>Node4&#45;&gt;Node23</title>
<path fill="none" stroke="midnightblue" d="M856.86,-280.47C842.7,-267.52 820.2,-242.44 834,-224 841.14,-214.46 907.9,-197.39 950.84,-187.24"/>
<polygon fill="midnightblue" stroke="midnightblue" points="951.73,-190.63 960.67,-184.94 950.13,-183.81 951.73,-190.63"/>
</g>
<!-- Node24 -->
<g id="node24" class="node">
<title>Node24</title>
<g id="a_node24"><a xlink:title=" ">
<polygon fill="none" stroke="#bfbfbf" points="843.5,-224.5 843.5,-243.5 890.5,-243.5 890.5,-224.5 843.5,-224.5"/>
<text text-anchor="middle" x="867" y="-231.5" font-family="Helvetica,sans-Serif" font-size="10.00">cerrno</text>
</a>
</g>
</g>
<!-- Node4&#45;&gt;Node24 -->
<g id="edge35" class="edge">
<title>Node4&#45;&gt;Node24</title>
<path fill="none" stroke="midnightblue" d="M867,-280.08C867,-273.01 867,-262.86 867,-253.99"/>
<polygon fill="midnightblue" stroke="midnightblue" points="870.5,-253.75 867,-243.75 863.5,-253.75 870.5,-253.75"/>
</g>
<!-- Node25 -->
<g id="node25" class="node">
<title>Node25</title>
<g id="a_node25"><a xlink:title=" ">
<polygon fill="none" stroke="#bfbfbf" points="909,-224.5 909,-243.5 959,-243.5 959,-224.5 909,-224.5"/>
<text text-anchor="middle" x="934" y="-231.5" font-family="Helvetica,sans-Serif" font-size="10.00">cstring</text>
</a>
</g>
</g>
<!-- Node4&#45;&gt;Node25 -->
<g id="edge36" class="edge">
<title>Node4&#45;&gt;Node25</title>
<path fill="none" stroke="midnightblue" d="M877.76,-280.32C887.77,-272.26 902.89,-260.08 914.93,-250.37"/>
<polygon fill="midnightblue" stroke="midnightblue" points="917.45,-252.83 923.04,-243.83 913.06,-247.38 917.45,-252.83"/>
</g>
<!-- Node26 -->
<g id="node26" class="node">
<title>Node26</title>
<g id="a_node26"><a xlink:title=" ">
<polygon fill="none" stroke="#bfbfbf" points="977.5,-224.5 977.5,-243.5 1030.5,-243.5 1030.5,-224.5 977.5,-224.5"/>
<text text-anchor="middle" x="1004" y="-231.5" font-family="Helvetica,sans-Serif" font-size="10.00">netdb.h</text>
</a>
</g>
</g>
<!-- Node4&#45;&gt;Node26 -->
<g id="edge37" class="edge">
<title>Node4&#45;&gt;Node26</title>
<path fill="none" stroke="midnightblue" d="M888.71,-280.44C911.35,-271.52 947.07,-257.44 972.75,-247.32"/>
<polygon fill="midnightblue" stroke="midnightblue" points="974.37,-250.44 982.39,-243.52 971.81,-243.93 974.37,-250.44"/>
</g>
<!-- Node27 -->
<g id="node27" class="node">
<title>Node27</title>
<g id="a_node27"><a xlink:title=" ">
<polygon fill="none" stroke="#bfbfbf" points="1049,-224.5 1049,-243.5 1121,-243.5 1121,-224.5 1049,-224.5"/>
<text text-anchor="middle" x="1085" y="-231.5" font-family="Helvetica,sans-Serif" font-size="10.00">netinet/in.h</text>
</a>
</g>
</g>
<!-- Node4&#45;&gt;Node27 -->
<g id="edge38" class="edge">
<title>Node4&#45;&gt;Node27</title>
<path fill="none" stroke="midnightblue" d="M901.54,-280.44C939.25,-271.1 999.74,-256.12 1040.86,-245.93"/>
<polygon fill="midnightblue" stroke="midnightblue" points="1041.75,-249.32 1050.62,-243.52 1040.07,-242.52 1041.75,-249.32"/>
</g>
<!-- Node28 -->
<g id="node28" class="node">
<title>Node28</title>
<g id="a_node28"><a xlink:title=" ">
<polygon fill="none" stroke="#bfbfbf" points="1139.5,-224.5 1139.5,-243.5 1216.5,-243.5 1216.5,-224.5 1139.5,-224.5"/>
<text text-anchor="middle" x="1178" y="-231.5" font-family="Helvetica,sans-Serif" font-size="10.00">sys/socket.h</text>
</a>
</g>
</g>
<!-- Node4&#45;&gt;Node28 -->
<g id="edge40" class="edge">
<title>Node4&#45;&gt;Node28</title>
<path fill="none" stroke="midnightblue" d="M916.48,-280.77C967.21,-272.29 1048.65,-258.51 1129.17,-244.12"/>
<polygon fill="midnightblue" stroke="midnightblue" points="1130.27,-247.48 1139.5,-242.27 1129.04,-240.59 1130.27,-247.48"/>
</g>
<!-- Node29 -->
<g id="node29" class="node">
<title>Node29</title>
<g id="a_node29"><a xlink:title=" ">
<polygon fill="none" stroke="#bfbfbf" points="1235,-224.5 1235,-243.5 1291,-243.5 1291,-224.5 1235,-224.5"/>
<text text-anchor="middle" x="1263" y="-231.5" font-family="Helvetica,sans-Serif" font-size="10.00">unistd.h</text>
</a>
</g>
</g>
<!-- Node4&#45;&gt;Node29 -->
<g id="edge41" class="edge">
<title>Node4&#45;&gt;Node29</title>
<path fill="none" stroke="midnightblue" d="M916.05,-284.64C983.46,-278.25 1108.68,-264.98 1224.67,-244.06"/>
<polygon fill="midnightblue" stroke="midnightblue" points="1225.58,-247.45 1234.79,-242.21 1224.32,-240.57 1225.58,-247.45"/>
</g>
<!-- Node6 -->
<g id="node6" class="node">
<title>Node6</title>
<g id="a_node6"><a xlink:href="_log_outputter_console_8hpp.html" target="_top" xlink:title=" ">
<polygon fill="none" stroke="black" points="392,-168.5 392,-187.5 532,-187.5 532,-168.5 392,-168.5"/>
<text text-anchor="middle" x="462" y="-175.5" font-family="Helvetica,sans-Serif" font-size="10.00">LogOutputterConsole.hpp</text>
</a>
</g>
</g>
<!-- Node5&#45;&gt;Node6 -->
<g id="edge5" class="edge">
<title>Node5&#45;&gt;Node6</title>
<path fill="none" stroke="midnightblue" d="M399.89,-224.32C411.15,-216.11 428.29,-203.6 441.71,-193.81"/>
<polygon fill="midnightblue" stroke="midnightblue" points="443.88,-196.56 449.89,-187.83 439.75,-190.9 443.88,-196.56"/>
</g>
<!-- Node14 -->
<g id="node14" class="node">
<title>Node14</title>
<g id="a_node14"><a xlink:href="_log_outputter_file_8hpp.html" target="_top" xlink:title=" ">
<polygon fill="none" stroke="black" points="254.5,-168.5 254.5,-187.5 373.5,-187.5 373.5,-168.5 254.5,-168.5"/>
<text text-anchor="middle" x="314" y="-175.5" font-family="Helvetica,sans-Serif" font-size="10.00">LogOutputterFile.hpp</text>
</a>
</g>
</g>
<!-- Node5&#45;&gt;Node14 -->
<g id="edge13" class="edge">
<title>Node5&#45;&gt;Node14</title>
<path fill="none" stroke="midnightblue" d="M376.11,-224.32C364.85,-216.11 347.71,-203.6 334.29,-193.81"/>
<polygon fill="midnightblue" stroke="midnightblue" points="336.25,-190.9 326.11,-187.83 332.12,-196.56 336.25,-190.9"/>
</g>
<!-- Node16 -->
<g id="node16" class="node">
<title>Node16</title>
<g id="a_node16"><a xlink:href="_logger_8hpp.html" target="_top" xlink:title=" ">
<polygon fill="none" stroke="black" points="128,-168.5 128,-187.5 198,-187.5 198,-168.5 128,-168.5"/>
<text text-anchor="middle" x="163" y="-175.5" font-family="Helvetica,sans-Serif" font-size="10.00">Logger.hpp</text>
</a>
</g>
</g>
<!-- Node5&#45;&gt;Node16 -->
<g id="edge17" class="edge">
<title>Node5&#45;&gt;Node16</title>
<path fill="none" stroke="midnightblue" d="M360.41,-226.38C322.45,-217.27 253.64,-200.75 208.12,-189.83"/>
<polygon fill="midnightblue" stroke="midnightblue" points="208.76,-186.38 198.22,-187.45 207.13,-193.19 208.76,-186.38"/>
</g>
<!-- Node7 -->
<g id="node7" class="node">
<title>Node7</title>
<g id="a_node7"><a xlink:title=" ">
<polygon fill="none" stroke="#bfbfbf" points="545,-112.5 545,-131.5 605,-131.5 605,-112.5 545,-112.5"/>
<text text-anchor="middle" x="575" y="-119.5" font-family="Helvetica,sans-Serif" font-size="10.00">iostream</text>
</a>
</g>
</g>
<!-- Node6&#45;&gt;Node7 -->
<g id="edge6" class="edge">
<title>Node6&#45;&gt;Node7</title>
<path fill="none" stroke="midnightblue" d="M479.91,-168.44C498.25,-159.68 527.01,-145.94 548.09,-135.86"/>
<polygon fill="midnightblue" stroke="midnightblue" points="549.67,-138.99 557.18,-131.52 546.65,-132.67 549.67,-138.99"/>
</g>
<!-- Node8 -->
<g id="node8" class="node">
<title>Node8</title>
<g id="a_node8"><a xlink:title=" ">
<polygon fill="none" stroke="#bfbfbf" points="466,-112.5 466,-131.5 504,-131.5 504,-112.5 466,-112.5"/>
<text text-anchor="middle" x="485" y="-119.5" font-family="Helvetica,sans-Serif" font-size="10.00">map</text>
</a>
</g>
</g>
<!-- Node6&#45;&gt;Node8 -->
<g id="edge7" class="edge">
<title>Node6&#45;&gt;Node8</title>
<path fill="none" stroke="midnightblue" d="M465.8,-168.08C468.91,-160.77 473.42,-150.18 477.29,-141.1"/>
<polygon fill="midnightblue" stroke="midnightblue" points="480.57,-142.32 481.27,-131.75 474.13,-139.58 480.57,-142.32"/>
</g>
<!-- Node9 -->
<g id="node9" class="node">
<title>Node9</title>
<g id="a_node9"><a xlink:href="_a_log_outputter_8hpp.html" target="_top" xlink:title=" ">
<polygon fill="none" stroke="black" points="267.5,-112.5 267.5,-131.5 374.5,-131.5 374.5,-112.5 267.5,-112.5"/>
<text text-anchor="middle" x="321" y="-119.5" font-family="Helvetica,sans-Serif" font-size="10.00">ALogOutputter.hpp</text>
</a>
</g>
</g>
<!-- Node6&#45;&gt;Node9 -->
<g id="edge8" class="edge">
<title>Node6&#45;&gt;Node9</title>
<path fill="none" stroke="midnightblue" d="M439.66,-168.44C416.25,-159.48 379.26,-145.31 352.81,-135.18"/>
<polygon fill="midnightblue" stroke="midnightblue" points="353.83,-131.82 343.24,-131.52 351.32,-138.36 353.83,-131.82"/>
</g>
<!-- Node10 -->
<g id="node10" class="node">
<title>Node10</title>
<g id="a_node10"><a xlink:href="_log_data_8hpp.html" target="_top" xlink:title=" ">
<polygon fill="none" stroke="black" points="282,-56.5 282,-75.5 360,-75.5 360,-56.5 282,-56.5"/>
<text text-anchor="middle" x="321" y="-63.5" font-family="Helvetica,sans-Serif" font-size="10.00">LogData.hpp</text>
</a>
</g>
</g>
<!-- Node9&#45;&gt;Node10 -->
<g id="edge9" class="edge">
<title>Node9&#45;&gt;Node10</title>
<path fill="none" stroke="midnightblue" d="M321,-112.08C321,-105.01 321,-94.86 321,-85.99"/>
<polygon fill="midnightblue" stroke="midnightblue" points="324.5,-85.75 321,-75.75 317.5,-85.75 324.5,-85.75"/>
</g>
<!-- Node11 -->
<g id="node11" class="node">
<title>Node11</title>
<g id="a_node11"><a xlink:title=" ">
<polygon fill="none" stroke="#bfbfbf" points="775,-0.5 775,-19.5 819,-19.5 819,-0.5 775,-0.5"/>
<text text-anchor="middle" x="797" y="-7.5" font-family="Helvetica,sans-Serif" font-size="10.00">ctime</text>
</a>
</g>
</g>
<!-- Node10&#45;&gt;Node11 -->
<g id="edge10" class="edge">
<title>Node10&#45;&gt;Node11</title>
<path fill="none" stroke="midnightblue" d="M360.36,-60.54C452.42,-50.09 680.4,-24.23 764.85,-14.65"/>
<polygon fill="midnightblue" stroke="midnightblue" points="765.34,-18.11 774.88,-13.51 764.55,-11.16 765.34,-18.11"/>
</g>
<!-- Node12 -->
<g id="node12" class="node">
<title>Node12</title>
<g id="a_node12"><a xlink:title=" ">
<polygon fill="none" stroke="#bfbfbf" points="429,-0.5 429,-19.5 485,-19.5 485,-0.5 429,-0.5"/>
<text text-anchor="middle" x="457" y="-7.5" font-family="Helvetica,sans-Serif" font-size="10.00">sstream</text>
</a>
</g>
</g>
<!-- Node10&#45;&gt;Node12 -->
<g id="edge11" class="edge">
<title>Node10&#45;&gt;Node12</title>
<path fill="none" stroke="midnightblue" d="M342.55,-56.44C365.03,-47.52 400.49,-33.44 425.98,-23.32"/>
<polygon fill="midnightblue" stroke="midnightblue" points="427.55,-26.46 435.55,-19.52 424.97,-19.95 427.55,-26.46"/>
</g>
<!-- Node10&#45;&gt;Node13 -->
<g id="edge12" class="edge">
<title>Node10&#45;&gt;Node13</title>
<path fill="none" stroke="midnightblue" d="M288.68,-56.44C250.47,-46.33 187.29,-29.61 149.16,-19.51"/>
<polygon fill="midnightblue" stroke="midnightblue" points="149.68,-16.03 139.11,-16.85 147.88,-22.8 149.68,-16.03"/>
</g>
<!-- Node14&#45;&gt;Node7 -->
<g id="edge15" class="edge">
<title>Node14&#45;&gt;Node7</title>
<path fill="none" stroke="midnightblue" d="M355.36,-168.44C404.61,-158.25 486.3,-141.35 534.96,-131.28"/>
<polygon fill="midnightblue" stroke="midnightblue" points="535.74,-134.7 544.82,-129.24 534.32,-127.84 535.74,-134.7"/>
</g>
<!-- Node14&#45;&gt;Node9 -->
<g id="edge16" class="edge">
<title>Node14&#45;&gt;Node9</title>
<path fill="none" stroke="midnightblue" d="M315.16,-168.08C316.08,-160.93 317.42,-150.64 318.58,-141.69"/>
<polygon fill="midnightblue" stroke="midnightblue" points="322.05,-142.12 319.87,-131.75 315.11,-141.22 322.05,-142.12"/>
</g>
<!-- Node15 -->
<g id="node15" class="node">
<title>Node15</title>
<g id="a_node15"><a xlink:title=" ">
<polygon fill="none" stroke="#bfbfbf" points="392.5,-112.5 392.5,-131.5 447.5,-131.5 447.5,-112.5 392.5,-112.5"/>
<text text-anchor="middle" x="420" y="-119.5" font-family="Helvetica,sans-Serif" font-size="10.00">fstream</text>
</a>
</g>
</g>
<!-- Node14&#45;&gt;Node15 -->
<g id="edge14" class="edge">
<title>Node14&#45;&gt;Node15</title>
<path fill="none" stroke="midnightblue" d="M331.03,-168.32C348.03,-159.66 374.38,-146.24 393.99,-136.25"/>
<polygon fill="midnightblue" stroke="midnightblue" points="395.69,-139.31 403.01,-131.65 392.51,-133.08 395.69,-139.31"/>
</g>
<!-- Node16&#45;&gt;Node9 -->
<g id="edge20" class="edge">
<title>Node16&#45;&gt;Node9</title>
<path fill="none" stroke="midnightblue" d="M188.04,-168.44C214.62,-159.36 256.81,-144.94 286.52,-134.78"/>
<polygon fill="midnightblue" stroke="midnightblue" points="287.75,-138.06 296.08,-131.52 285.49,-131.44 287.75,-138.06"/>
</g>
<!-- Node16&#45;&gt;Node10 -->
<g id="edge21" class="edge">
<title>Node16&#45;&gt;Node10</title>
<path fill="none" stroke="midnightblue" d="M164.77,-168.12C167.99,-154.24 176.08,-127.39 193,-112 214.76,-92.2 245.77,-81.01 271.81,-74.74"/>
<polygon fill="midnightblue" stroke="midnightblue" points="272.88,-78.08 281.88,-72.49 271.36,-71.25 272.88,-78.08"/>
</g>
<!-- Node16&#45;&gt;Node13 -->
<g id="edge18" class="edge">
<title>Node16&#45;&gt;Node13</title>
<path fill="none" stroke="midnightblue" d="M160.53,-168.08C153.29,-141.95 132.02,-65.21 122.15,-29.58"/>
<polygon fill="midnightblue" stroke="midnightblue" points="125.42,-28.27 119.37,-19.57 118.67,-30.14 125.42,-28.27"/>
</g>
<!-- Node17 -->
<g id="node17" class="node">
<title>Node17</title>
<g id="a_node17"><a xlink:title=" ">
<polygon fill="none" stroke="#bfbfbf" points="202.5,-112.5 202.5,-131.5 249.5,-131.5 249.5,-112.5 202.5,-112.5"/>
<text text-anchor="middle" x="226" y="-119.5" font-family="Helvetica,sans-Serif" font-size="10.00">vector</text>
</a>
</g>
</g>
<!-- Node16&#45;&gt;Node17 -->
<g id="edge19" class="edge">
<title>Node16&#45;&gt;Node17</title>
<path fill="none" stroke="midnightblue" d="M173.12,-168.32C182.53,-160.26 196.74,-148.08 208.07,-138.37"/>
<polygon fill="midnightblue" stroke="midnightblue" points="210.38,-141 215.69,-131.83 205.82,-135.68 210.38,-141"/>
</g>
<!-- Node18&#45;&gt;Node13 -->
<g id="edge23" class="edge">
<title>Node18&#45;&gt;Node13</title>
<path fill="none" stroke="midnightblue" d="M48.17,-56.32C60.85,-47.98 80.23,-35.21 95.21,-25.35"/>
<polygon fill="midnightblue" stroke="midnightblue" points="97.43,-28.08 103.86,-19.65 93.58,-22.23 97.43,-28.08"/>
</g>
<!-- Node19&#45;&gt;Node7 -->
<g id="edge31" class="edge">
<title>Node19&#45;&gt;Node7</title>
<path fill="none" stroke="midnightblue" d="M779.59,-224.47C812.64,-213.49 858.94,-192.83 838,-168 810.01,-134.81 681.97,-126.1 615.43,-123.81"/>
<polygon fill="midnightblue" stroke="midnightblue" points="615.41,-120.31 605.3,-123.5 615.19,-127.31 615.41,-120.31"/>
</g>
<!-- Node19&#45;&gt;Node11 -->
<g id="edge30" class="edge">
<title>Node19&#45;&gt;Node11</title>
<path fill="none" stroke="midnightblue" d="M787.17,-227.7C829.39,-220.83 894.33,-207.39 909,-188 944.39,-141.21 941.85,-104.61 909,-56 891.29,-29.79 855.52,-18.84 829.15,-14.27"/>
<polygon fill="midnightblue" stroke="midnightblue" points="829.62,-10.81 819.21,-12.77 828.57,-17.73 829.62,-10.81"/>
</g>
<!-- Node19&#45;&gt;Node12 -->
<g id="edge32" class="edge">
<title>Node19&#45;&gt;Node12</title>
<path fill="none" stroke="midnightblue" d="M787.23,-225.46C824.93,-216.02 875.02,-197.42 855,-168 771.93,-45.93 577.89,-18.77 495.3,-12.73"/>
<polygon fill="midnightblue" stroke="midnightblue" points="495.32,-9.22 485.11,-12.05 494.85,-16.21 495.32,-9.22"/>
</g>
<!-- Node19&#45;&gt;Node17 -->
<g id="edge33" class="edge">
<title>Node19&#45;&gt;Node17</title>
<path fill="none" stroke="midnightblue" d="M712.79,-232.07C602.2,-228.99 280.96,-217.54 245,-188 231.53,-176.94 227.29,-156.9 226.11,-141.98"/>
<polygon fill="midnightblue" stroke="midnightblue" points="229.6,-141.66 225.69,-131.81 222.6,-141.94 229.6,-141.66"/>
</g>
<!-- Node20 -->
<g id="node20" class="node">
<title>Node20</title>
<g id="a_node20"><a xlink:href="_status_code_8hpp.html" target="_top" xlink:title=" ">
<polygon fill="none" stroke="black" points="550.5,-168.5 550.5,-187.5 643.5,-187.5 643.5,-168.5 550.5,-168.5"/>
<text text-anchor="middle" x="597" y="-175.5" font-family="Helvetica,sans-Serif" font-size="10.00">StatusCode.hpp</text>
</a>
</g>
</g>
<!-- Node19&#45;&gt;Node20 -->
<g id="edge25" class="edge">
<title>Node19&#45;&gt;Node20</title>
<path fill="none" stroke="midnightblue" d="M725.76,-224.44C700.13,-215.4 659.51,-201.06 630.76,-190.92"/>
<polygon fill="midnightblue" stroke="midnightblue" points="631.72,-187.54 621.13,-187.52 629.39,-194.15 631.72,-187.54"/>
</g>
<!-- Node21 -->
<g id="node21" class="node">
<title>Node21</title>
<g id="a_node21"><a xlink:href="constants_8hpp.html" target="_top" xlink:title=" ">
<polygon fill="none" stroke="black" points="661.5,-168.5 661.5,-187.5 746.5,-187.5 746.5,-168.5 661.5,-168.5"/>
<text text-anchor="middle" x="704" y="-175.5" font-family="Helvetica,sans-Serif" font-size="10.00">constants.hpp</text>
</a>
</g>
</g>
<!-- Node19&#45;&gt;Node21 -->
<g id="edge27" class="edge">
<title>Node19&#45;&gt;Node21</title>
<path fill="none" stroke="midnightblue" d="M742.4,-224.08C735.77,-216.3 725.98,-204.8 717.94,-195.37"/>
<polygon fill="midnightblue" stroke="midnightblue" points="720.6,-193.09 711.45,-187.75 715.27,-197.63 720.6,-193.09"/>
</g>
<!-- Node22 -->
<g id="node22" class="node">
<title>Node22</title>
<g id="a_node22"><a xlink:title=" ">
<polygon fill="none" stroke="#bfbfbf" points="765,-168.5 765,-187.5 829,-187.5 829,-168.5 765,-168.5"/>
<text text-anchor="middle" x="797" y="-175.5" font-family="Helvetica,sans-Serif" font-size="10.00">algorithm</text>
</a>
</g>
</g>
<!-- Node19&#45;&gt;Node22 -->
<g id="edge28" class="edge">
<title>Node19&#45;&gt;Node22</title>
<path fill="none" stroke="midnightblue" d="M757.76,-224.08C764.54,-216.3 774.54,-204.8 782.76,-195.37"/>
<polygon fill="midnightblue" stroke="midnightblue" points="785.46,-197.59 789.38,-187.75 780.18,-193 785.46,-197.59"/>
</g>
<!-- Node19&#45;&gt;Node23 -->
<g id="edge29" class="edge">
<title>Node19&#45;&gt;Node23</title>
<path fill="none" stroke="midnightblue" d="M787.03,-224.56C831.84,-214.35 906.77,-197.28 951.08,-187.18"/>
<polygon fill="midnightblue" stroke="midnightblue" points="951.87,-190.59 960.85,-184.96 950.32,-183.77 951.87,-190.59"/>
</g>
<!-- Node20&#45;&gt;Node7 -->
<g id="edge26" class="edge">
<title>Node20&#45;&gt;Node7</title>
<path fill="none" stroke="midnightblue" d="M593.37,-168.08C590.39,-160.77 586.07,-150.18 582.38,-141.1"/>
<polygon fill="midnightblue" stroke="midnightblue" points="585.58,-139.69 578.57,-131.75 579.1,-142.33 585.58,-139.69"/>
</g>
</g>
</svg>
