<?xml version="1.0" encoding="UTF-8" standalone="no"?>
<!DOCTYPE svg PUBLIC "-//W3C//DTD SVG 1.1//EN"
 "http://www.w3.org/Graphics/SVG/1.1/DTD/svg11.dtd">
<!-- Generated by graphviz version 2.43.0 (0)
 -->
<!-- Title: inc/MockFileSystemOps.hpp Pages: 1 -->
<svg width="3613pt" height="159pt"
 viewBox="0.00 0.00 3612.50 159.00" xmlns="http://www.w3.org/2000/svg" xmlns:xlink="http://www.w3.org/1999/xlink">
<g id="graph0" class="graph" transform="scale(1 1) rotate(0) translate(4 155)">
<title>inc/MockFileSystemOps.hpp</title>
<!-- Node1 -->
<g id="Node000001" class="node">
<title>Node1</title>
<g id="a_Node000001"><a xlink:title=" ">
<polygon fill="#999999" stroke="#666666" points="2153.5,-151 1999.5,-151 1999.5,-132 2153.5,-132 2153.5,-151"/>
<text text-anchor="middle" x="2076.5" y="-139" font-family="Helvetica,sans-Serif" font-size="10.00">inc/MockFileSystemOps.hpp</text>
</a>
</g>
</g>
<!-- Node2 -->
<g id="Node000002" class="node">
<title>Node2</title>
<g id="a_Node000002"><a xlink:href="test__helpers_8hpp.html" target="_top" xlink:title=" ">
<polygon fill="white" stroke="#666666" points="1735,-90.5 1620,-90.5 1620,-71.5 1735,-71.5 1735,-90.5"/>
<text text-anchor="middle" x="1677.5" y="-78.5" font-family="Helvetica,sans-Serif" font-size="10.00">inc/test_helpers.hpp</text>
</a>
</g>
</g>
<!-- Node1&#45;&gt;Node2 -->
<g id="edge1_Node000001_Node000002" class="edge">
<title>Node1&#45;&gt;Node2</title>
<g id="a_edge1_Node000001_Node000002"><a xlink:title=" ">
<path fill="none" stroke="#63b8ff" d="M1990.99,-130.77C1923.78,-122.71 1827.92,-110.29 1744.5,-96 1735.25,-94.42 1725.32,-92.48 1716.03,-90.55"/>
<polygon fill="#63b8ff" stroke="#63b8ff" points="1990.76,-134.27 2001.1,-131.98 1991.59,-127.32 1990.76,-134.27"/>
</a>
</g>
</g>
<!-- Node3 -->
<g id="Node000003" class="node">
<title>Node3</title>
<g id="a_Node000003"><a xlink:href="test___c_g_i_handler_8cpp.html" target="_top" xlink:title=" ">
<polygon fill="white" stroke="#666666" points="159,-24.5 0,-24.5 0,-5.5 159,-5.5 159,-24.5"/>
<text text-anchor="middle" x="79.5" y="-12.5" font-family="Helvetica,sans-Serif" font-size="10.00">test/unit/test_CGIHandler.cpp</text>
</a>
</g>
</g>
<!-- Node1&#45;&gt;Node3 -->
<g id="edge24_Node000001_Node000003" class="edge">
<title>Node1&#45;&gt;Node3</title>
<g id="a_edge24_Node000001_Node000003"><a xlink:title=" ">
<path fill="none" stroke="#63b8ff" d="M1989.33,-138.5C1718.59,-131.63 868.39,-105.13 168.5,-30 155.44,-28.6 141.36,-26.61 128.35,-24.57"/>
<polygon fill="#63b8ff" stroke="#63b8ff" points="1989.4,-142 1999.49,-138.75 1989.58,-135 1989.4,-142"/>
</a>
</g>
</g>
<!-- Node24 -->
<g id="Node000024" class="node">
<title>Node24</title>
<g id="a_Node000024"><a xlink:href="test___autoindex_handler_8cpp.html" target="_top" xlink:title=" ">
<polygon fill="white" stroke="#666666" points="1887.5,-96 1753.5,-96 1753.5,-66 1887.5,-66 1887.5,-96"/>
<text text-anchor="start" x="1761.5" y="-84" font-family="Helvetica,sans-Serif" font-size="10.00">test/unit/test_Autoindex</text>
<text text-anchor="middle" x="1820.5" y="-73" font-family="Helvetica,sans-Serif" font-size="10.00">Handler.cpp</text>
</a>
</g>
</g>
<!-- Node1&#45;&gt;Node24 -->
<g id="edge23_Node000001_Node000024" class="edge">
<title>Node1&#45;&gt;Node24</title>
<g id="a_edge23_Node000001_Node000024"><a xlink:title=" ">
<path fill="none" stroke="#63b8ff" d="M2029.43,-129.74C1987.98,-120.27 1927.34,-106.41 1882.05,-96.06"/>
<polygon fill="#63b8ff" stroke="#63b8ff" points="2028.75,-133.18 2039.28,-131.99 2030.31,-126.35 2028.75,-133.18"/>
</a>
</g>
</g>
<!-- Node25 -->
<g id="Node000025" class="node">
<title>Node25</title>
<g id="a_Node000025"><a xlink:href="test___delete_handler_8cpp.html" target="_top" xlink:title=" ">
<polygon fill="white" stroke="#666666" points="2079.5,-90.5 1905.5,-90.5 1905.5,-71.5 2079.5,-71.5 2079.5,-90.5"/>
<text text-anchor="middle" x="1992.5" y="-78.5" font-family="Helvetica,sans-Serif" font-size="10.00">test/unit/test_DeleteHandler.cpp</text>
</a>
</g>
</g>
<!-- Node1&#45;&gt;Node25 -->
<g id="edge25_Node000001_Node000025" class="edge">
<title>Node1&#45;&gt;Node25</title>
<g id="a_edge25_Node000001_Node000025"><a xlink:title=" ">
<path fill="none" stroke="#63b8ff" d="M2055.46,-125.85C2039.55,-114.77 2018.24,-99.93 2004.95,-90.67"/>
<polygon fill="#63b8ff" stroke="#63b8ff" points="2053.9,-129.03 2064.11,-131.87 2057.9,-123.28 2053.9,-129.03"/>
</a>
</g>
</g>
<!-- Node26 -->
<g id="Node000026" class="node">
<title>Node26</title>
<g id="a_Node000026"><a xlink:href="test___file_write_handler_8cpp.html" target="_top" xlink:title=" ">
<polygon fill="white" stroke="#666666" points="2225.5,-96 2097.5,-96 2097.5,-66 2225.5,-66 2225.5,-96"/>
<text text-anchor="start" x="2105.5" y="-84" font-family="Helvetica,sans-Serif" font-size="10.00">test/unit/test_FileWrite</text>
<text text-anchor="middle" x="2161.5" y="-73" font-family="Helvetica,sans-Serif" font-size="10.00">Handler.cpp</text>
</a>
</g>
</g>
<!-- Node1&#45;&gt;Node26 -->
<g id="edge26_Node000001_Node000026" class="edge">
<title>Node1&#45;&gt;Node26</title>
<g id="a_edge26_Node000001_Node000026"><a xlink:title=" ">
<path fill="none" stroke="#63b8ff" d="M2097.52,-126.03C2110.79,-116.9 2127.83,-105.17 2140.99,-96.11"/>
<polygon fill="#63b8ff" stroke="#63b8ff" points="2095.3,-123.32 2089.04,-131.87 2099.26,-129.08 2095.3,-123.32"/>
</a>
</g>
</g>
<!-- Node27 -->
<g id="Node000027" class="node">
<title>Node27</title>
<g id="a_Node000027"><a xlink:href="test___response_body_handler_8cpp.html" target="_top" xlink:title=" ">
<polygon fill="white" stroke="#666666" points="2399.5,-96 2243.5,-96 2243.5,-66 2399.5,-66 2399.5,-96"/>
<text text-anchor="start" x="2251.5" y="-84" font-family="Helvetica,sans-Serif" font-size="10.00">test/unit/test_ResponseBody</text>
<text text-anchor="middle" x="2321.5" y="-73" font-family="Helvetica,sans-Serif" font-size="10.00">Handler.cpp</text>
</a>
</g>
</g>
<!-- Node1&#45;&gt;Node27 -->
<g id="edge27_Node000001_Node000027" class="edge">
<title>Node1&#45;&gt;Node27</title>
<g id="a_edge27_Node000001_Node000027"><a xlink:title=" ">
<path fill="none" stroke="#63b8ff" d="M2122.05,-129.62C2161.7,-120.16 2219.44,-106.37 2262.6,-96.06"/>
<polygon fill="#63b8ff" stroke="#63b8ff" points="2121.04,-126.27 2112.13,-131.99 2122.66,-133.08 2121.04,-126.27"/>
</a>
</g>
</g>
<!-- Node28 -->
<g id="Node000028" class="node">
<title>Node28</title>
<g id="a_Node000028"><a xlink:href="test___response_builder_8cpp.html" target="_top" xlink:title=" ">
<polygon fill="white" stroke="#666666" points="2603,-90.5 2418,-90.5 2418,-71.5 2603,-71.5 2603,-90.5"/>
<text text-anchor="middle" x="2510.5" y="-78.5" font-family="Helvetica,sans-Serif" font-size="10.00">test/unit/test_ResponseBuilder.cpp</text>
</a>
</g>
</g>
<!-- Node1&#45;&gt;Node28 -->
<g id="edge28_Node000001_Node000028" class="edge">
<title>Node1&#45;&gt;Node28</title>
<g id="a_edge28_Node000001_Node000028"><a xlink:title=" ">
<path fill="none" stroke="#63b8ff" d="M2150.55,-130.64C2217.83,-121.67 2319.84,-108.03 2408.5,-96 2421.52,-94.23 2435.47,-92.33 2448.74,-90.51"/>
<polygon fill="#63b8ff" stroke="#63b8ff" points="2149.91,-127.2 2140.46,-131.99 2150.84,-134.14 2149.91,-127.2"/>
</a>
</g>
</g>
<!-- Node29 -->
<g id="Node000029" class="node">
<title>Node29</title>
<g id="a_Node000029"><a xlink:href="test___target_resource_handler_8cpp.html" target="_top" xlink:title=" ">
<polygon fill="white" stroke="#666666" points="2780,-96 2621,-96 2621,-66 2780,-66 2780,-96"/>
<text text-anchor="start" x="2629" y="-84" font-family="Helvetica,sans-Serif" font-size="10.00">test/unit/test_TargetResource</text>
<text text-anchor="middle" x="2700.5" y="-73" font-family="Helvetica,sans-Serif" font-size="10.00">Handler.cpp</text>
</a>
</g>
</g>
<!-- Node1&#45;&gt;Node29 -->
<g id="edge29_Node000001_Node000029" class="edge">
<title>Node1&#45;&gt;Node29</title>
<g id="a_edge29_Node000001_Node000029"><a xlink:title=" ">
<path fill="none" stroke="#63b8ff" d="M2163.94,-135.26C2270.22,-128.43 2454.89,-115.05 2612.5,-96 2615.26,-95.67 2618.08,-95.31 2620.91,-94.94"/>
<polygon fill="#63b8ff" stroke="#63b8ff" points="2163.66,-131.77 2153.91,-135.9 2164.11,-138.76 2163.66,-131.77"/>
</a>
</g>
</g>
<!-- Node2&#45;&gt;Node3 -->
<g id="edge2_Node000002_Node000003" class="edge">
<title>Node2&#45;&gt;Node3</title>
<g id="a_edge2_Node000002_Node000003"><a xlink:title=" ">
<path fill="none" stroke="#63b8ff" d="M1609.4,-78.86C1354.12,-74.4 454.04,-57.08 168.5,-30 154.95,-28.71 140.33,-26.69 126.94,-24.57"/>
<polygon fill="#63b8ff" stroke="#63b8ff" points="1609.58,-82.36 1619.64,-79.04 1609.7,-75.36 1609.58,-82.36"/>
</a>
</g>
</g>
<!-- Node4 -->
<g id="Node000004" class="node">
<title>Node4</title>
<g id="a_Node000004"><a xlink:href="test__accept_connections_8cpp.html" target="_top" xlink:title=" ">
<polygon fill="white" stroke="#666666" points="374,-24.5 177,-24.5 177,-5.5 374,-5.5 374,-24.5"/>
<text text-anchor="middle" x="275.5" y="-12.5" font-family="Helvetica,sans-Serif" font-size="10.00">test/unit/test_acceptConnections.cpp</text>
</a>
</g>
</g>
<!-- Node2&#45;&gt;Node4 -->
<g id="edge3_Node000002_Node000004" class="edge">
<title>Node2&#45;&gt;Node4</title>
<g id="a_edge3_Node000002_Node000004"><a xlink:title=" ">
<path fill="none" stroke="#63b8ff" d="M1609.75,-79.54C1417.4,-77.75 851.52,-69.3 383.5,-30 367.3,-28.64 349.79,-26.61 333.69,-24.52"/>
<polygon fill="#63b8ff" stroke="#63b8ff" points="1609.96,-83.04 1619.99,-79.63 1610.02,-76.04 1609.96,-83.04"/>
</a>
</g>
</g>
<!-- Node5 -->
<g id="Node000005" class="node">
<title>Node5</title>
<g id="a_Node000005"><a xlink:href="test__check_for_timeout_8cpp.html" target="_top" xlink:title=" ">
<polygon fill="white" stroke="#666666" points="580.5,-24.5 392.5,-24.5 392.5,-5.5 580.5,-5.5 580.5,-24.5"/>
<text text-anchor="middle" x="486.5" y="-12.5" font-family="Helvetica,sans-Serif" font-size="10.00">test/unit/test_checkForTimeout.cpp</text>
</a>
</g>
</g>
<!-- Node2&#45;&gt;Node5 -->
<g id="edge4_Node000002_Node000005" class="edge">
<title>Node2&#45;&gt;Node5</title>
<g id="a_edge4_Node000002_Node000005"><a xlink:title=" ">
<path fill="none" stroke="#63b8ff" d="M1609.81,-78.95C1438.72,-75.85 975.17,-64.67 590.5,-30 575.08,-28.61 558.43,-26.6 543.07,-24.53"/>
<polygon fill="#63b8ff" stroke="#63b8ff" points="1609.87,-82.45 1619.93,-79.13 1609.99,-75.45 1609.87,-82.45"/>
</a>
</g>
</g>
<!-- Node6 -->
<g id="Node000006" class="node">
<title>Node6</title>
<g id="a_Node000006"><a xlink:href="test__connection_build_response_8cpp.html" target="_top" xlink:title=" ">
<polygon fill="white" stroke="#666666" points="736,-30 599,-30 599,0 736,0 736,-30"/>
<text text-anchor="start" x="607" y="-18" font-family="Helvetica,sans-Serif" font-size="10.00">test/unit/test_connection</text>
<text text-anchor="middle" x="667.5" y="-7" font-family="Helvetica,sans-Serif" font-size="10.00">BuildResponse.cpp</text>
</a>
</g>
</g>
<!-- Node2&#45;&gt;Node6 -->
<g id="edge5_Node000002_Node000006" class="edge">
<title>Node2&#45;&gt;Node6</title>
<g id="a_edge5_Node000002_Node000006"><a xlink:title=" ">
<path fill="none" stroke="#63b8ff" d="M1609.5,-79.24C1455.3,-76.87 1067.46,-67.38 745.5,-30 742.49,-29.65 739.43,-29.26 736.33,-28.83"/>
<polygon fill="#63b8ff" stroke="#63b8ff" points="1609.7,-82.74 1619.75,-79.39 1609.81,-75.74 1609.7,-82.74"/>
</a>
</g>
</g>
<!-- Node7 -->
<g id="Node000007" class="node">
<title>Node7</title>
<g id="a_Node000007"><a xlink:href="test__connection_handle_timeout_8cpp.html" target="_top" xlink:title=" ">
<polygon fill="white" stroke="#666666" points="891,-30 754,-30 754,0 891,0 891,-30"/>
<text text-anchor="start" x="762" y="-18" font-family="Helvetica,sans-Serif" font-size="10.00">test/unit/test_connection</text>
<text text-anchor="middle" x="822.5" y="-7" font-family="Helvetica,sans-Serif" font-size="10.00">HandleTimeout.cpp</text>
</a>
</g>
</g>
<!-- Node2&#45;&gt;Node7 -->
<g id="edge6_Node000002_Node000007" class="edge">
<title>Node2&#45;&gt;Node7</title>
<g id="a_edge6_Node000002_Node000007"><a xlink:title=" ">
<path fill="none" stroke="#63b8ff" d="M1609.57,-78.22C1474.21,-74.09 1161.41,-61.71 900.5,-30 897.5,-29.63 894.43,-29.23 891.34,-28.79"/>
<polygon fill="#63b8ff" stroke="#63b8ff" points="1609.68,-81.72 1619.78,-78.52 1609.89,-74.72 1609.68,-81.72"/>
</a>
</g>
</g>
<!-- Node8 -->
<g id="Node000008" class="node">
<title>Node8</title>
<g id="a_Node000008"><a xlink:href="test__connection_receive_body_8cpp.html" target="_top" xlink:title=" ">
<polygon fill="white" stroke="#666666" points="1046,-30 909,-30 909,0 1046,0 1046,-30"/>
<text text-anchor="start" x="917" y="-18" font-family="Helvetica,sans-Serif" font-size="10.00">test/unit/test_connection</text>
<text text-anchor="middle" x="977.5" y="-7" font-family="Helvetica,sans-Serif" font-size="10.00">ReceiveBody.cpp</text>
</a>
</g>
</g>
<!-- Node2&#45;&gt;Node8 -->
<g id="edge7_Node000002_Node000008" class="edge">
<title>Node2&#45;&gt;Node8</title>
<g id="a_edge7_Node000002_Node000008"><a xlink:title=" ">
<path fill="none" stroke="#63b8ff" d="M1609.83,-76.72C1495.33,-70.7 1256.25,-56.02 1055.5,-30 1052.5,-29.61 1049.44,-29.19 1046.35,-28.73"/>
<polygon fill="#63b8ff" stroke="#63b8ff" points="1609.68,-80.22 1619.85,-77.25 1610.05,-73.23 1609.68,-80.22"/>
</a>
</g>
</g>
<!-- Node9 -->
<g id="Node000009" class="node">
<title>Node9</title>
<g id="a_Node000009"><a xlink:href="test__connection_receive_from_c_g_i_8cpp.html" target="_top" xlink:title=" ">
<polygon fill="white" stroke="#666666" points="1201,-30 1064,-30 1064,0 1201,0 1201,-30"/>
<text text-anchor="start" x="1072" y="-18" font-family="Helvetica,sans-Serif" font-size="10.00">test/unit/test_connection</text>
<text text-anchor="middle" x="1132.5" y="-7" font-family="Helvetica,sans-Serif" font-size="10.00">ReceiveFromCGI.cpp</text>
</a>
</g>
</g>
<!-- Node2&#45;&gt;Node9 -->
<g id="edge8_Node000002_Node000009" class="edge">
<title>Node2&#45;&gt;Node9</title>
<g id="a_edge8_Node000002_Node000009"><a xlink:title=" ">
<path fill="none" stroke="#63b8ff" d="M1609.64,-74.26C1518.59,-66.2 1351.95,-50.24 1210.5,-30 1207.5,-29.57 1204.45,-29.11 1201.36,-28.63"/>
<polygon fill="#63b8ff" stroke="#63b8ff" points="1609.55,-77.76 1619.82,-75.15 1610.17,-70.79 1609.55,-77.76"/>
</a>
</g>
</g>
<!-- Node10 -->
<g id="Node000010" class="node">
<title>Node10</title>
<g id="a_Node000010"><a xlink:href="test__connection_receive_header_8cpp.html" target="_top" xlink:title=" ">
<polygon fill="white" stroke="#666666" points="1356,-30 1219,-30 1219,0 1356,0 1356,-30"/>
<text text-anchor="start" x="1227" y="-18" font-family="Helvetica,sans-Serif" font-size="10.00">test/unit/test_connection</text>
<text text-anchor="middle" x="1287.5" y="-7" font-family="Helvetica,sans-Serif" font-size="10.00">ReceiveHeader.cpp</text>
</a>
</g>
</g>
<!-- Node2&#45;&gt;Node10 -->
<g id="edge9_Node000002_Node000010" class="edge">
<title>Node2&#45;&gt;Node10</title>
<g id="a_edge9_Node000002_Node000010"><a xlink:title=" ">
<path fill="none" stroke="#63b8ff" d="M1612,-69.87C1548.83,-60.01 1450.54,-44.45 1365.5,-30 1362.52,-29.49 1359.47,-28.97 1356.39,-28.44"/>
<polygon fill="#63b8ff" stroke="#63b8ff" points="1611.8,-73.38 1622.22,-71.46 1612.87,-66.46 1611.8,-73.38"/>
</a>
</g>
</g>
<!-- Node11 -->
<g id="Node000011" class="node">
<title>Node11</title>
<g id="a_Node000011"><a xlink:href="test__connection_send_response_8cpp.html" target="_top" xlink:title=" ">
<polygon fill="white" stroke="#666666" points="1511,-30 1374,-30 1374,0 1511,0 1511,-30"/>
<text text-anchor="start" x="1382" y="-18" font-family="Helvetica,sans-Serif" font-size="10.00">test/unit/test_connection</text>
<text text-anchor="middle" x="1442.5" y="-7" font-family="Helvetica,sans-Serif" font-size="10.00">SendResponse.cpp</text>
</a>
</g>
</g>
<!-- Node2&#45;&gt;Node11 -->
<g id="edge10_Node000002_Node000011" class="edge">
<title>Node2&#45;&gt;Node11</title>
<g id="a_edge10_Node000002_Node000011"><a xlink:title=" ">
<path fill="none" stroke="#63b8ff" d="M1635.97,-68.69C1596.47,-57.93 1536.92,-41.72 1494.33,-30.12"/>
<polygon fill="#63b8ff" stroke="#63b8ff" points="1635.24,-72.12 1645.81,-71.37 1637.08,-65.36 1635.24,-72.12"/>
</a>
</g>
</g>
<!-- Node12 -->
<g id="Node000012" class="node">
<title>Node12</title>
<g id="a_Node000012"><a xlink:href="test__connection_send_to_c_g_i_8cpp.html" target="_top" xlink:title=" ">
<polygon fill="white" stroke="#666666" points="1666,-30 1529,-30 1529,0 1666,0 1666,-30"/>
<text text-anchor="start" x="1537" y="-18" font-family="Helvetica,sans-Serif" font-size="10.00">test/unit/test_connection</text>
<text text-anchor="middle" x="1597.5" y="-7" font-family="Helvetica,sans-Serif" font-size="10.00">SendToCGI.cpp</text>
</a>
</g>
</g>
<!-- Node2&#45;&gt;Node12 -->
<g id="edge11_Node000002_Node000012" class="edge">
<title>Node2&#45;&gt;Node12</title>
<g id="a_edge11_Node000002_Node000012"><a xlink:title=" ">
<path fill="none" stroke="#63b8ff" d="M1658.77,-65.02C1645.59,-54.48 1628.07,-40.46 1615.14,-30.12"/>
<polygon fill="#63b8ff" stroke="#63b8ff" points="1656.72,-67.85 1666.71,-71.37 1661.09,-62.39 1656.72,-67.85"/>
</a>
</g>
</g>
<!-- Node13 -->
<g id="Node000013" class="node">
<title>Node13</title>
<g id="a_Node000013"><a xlink:href="test__create_virtual_server_8cpp.html" target="_top" xlink:title=" ">
<polygon fill="white" stroke="#666666" points="1831,-30 1684,-30 1684,0 1831,0 1831,-30"/>
<text text-anchor="start" x="1692" y="-18" font-family="Helvetica,sans-Serif" font-size="10.00">test/unit/test_createVirtual</text>
<text text-anchor="middle" x="1757.5" y="-7" font-family="Helvetica,sans-Serif" font-size="10.00">Server.cpp</text>
</a>
</g>
</g>
<!-- Node2&#45;&gt;Node13 -->
<g id="edge12_Node000002_Node000013" class="edge">
<title>Node2&#45;&gt;Node13</title>
<g id="a_edge12_Node000002_Node000013"><a xlink:title=" ">
<path fill="none" stroke="#63b8ff" d="M1696.23,-65.02C1709.41,-54.48 1726.93,-40.46 1739.86,-30.12"/>
<polygon fill="#63b8ff" stroke="#63b8ff" points="1693.91,-62.39 1688.29,-71.37 1698.28,-67.85 1693.91,-62.39"/>
</a>
</g>
</g>
<!-- Node14 -->
<g id="Node000014" class="node">
<title>Node14</title>
<g id="a_Node000014"><a xlink:href="test__handle_body_8cpp.html" target="_top" xlink:title=" ">
<polygon fill="white" stroke="#666666" points="2010,-24.5 1849,-24.5 1849,-5.5 2010,-5.5 2010,-24.5"/>
<text text-anchor="middle" x="1929.5" y="-12.5" font-family="Helvetica,sans-Serif" font-size="10.00">test/unit/test_handleBody.cpp</text>
</a>
</g>
</g>
<!-- Node2&#45;&gt;Node14 -->
<g id="edge13_Node000002_Node000014" class="edge">
<title>Node2&#45;&gt;Node14</title>
<g id="a_edge13_Node000002_Node000014"><a xlink:title=" ">
<path fill="none" stroke="#63b8ff" d="M1721.04,-68.94C1770.72,-56.32 1850.91,-35.96 1895.98,-24.51"/>
<polygon fill="#63b8ff" stroke="#63b8ff" points="1720.06,-65.58 1711.22,-71.44 1721.78,-72.37 1720.06,-65.58"/>
</a>
</g>
</g>
<!-- Node15 -->
<g id="Node000015" class="node">
<title>Node15</title>
<g id="a_Node000015"><a xlink:href="test__handle_complete_request_header_8cpp.html" target="_top" xlink:title=" ">
<polygon fill="white" stroke="#666666" points="2192.5,-30 2028.5,-30 2028.5,0 2192.5,0 2192.5,-30"/>
<text text-anchor="start" x="2036.5" y="-18" font-family="Helvetica,sans-Serif" font-size="10.00">test/unit/test_handleComplete</text>
<text text-anchor="middle" x="2110.5" y="-7" font-family="Helvetica,sans-Serif" font-size="10.00">RequestHeader.cpp</text>
</a>
</g>
</g>
<!-- Node2&#45;&gt;Node15 -->
<g id="edge14_Node000002_Node000015" class="edge">
<title>Node2&#45;&gt;Node15</title>
<g id="a_edge14_Node000002_Node000015"><a xlink:title=" ">
<path fill="none" stroke="#63b8ff" d="M1726.23,-69.37C1732.37,-68.16 1738.57,-67.01 1744.5,-66 1866.03,-45.38 1897.47,-47.37 2019.5,-30 2022.35,-29.59 2025.25,-29.18 2028.17,-28.75"/>
<polygon fill="#63b8ff" stroke="#63b8ff" points="1725.13,-66.02 1716.02,-71.43 1726.52,-72.88 1725.13,-66.02"/>
</a>
</g>
</g>
<!-- Node16 -->
<g id="Node000016" class="node">
<title>Node16</title>
<g id="a_Node000016"><a xlink:href="test__handle_event_8cpp.html" target="_top" xlink:title=" ">
<polygon fill="white" stroke="#666666" points="2376,-24.5 2211,-24.5 2211,-5.5 2376,-5.5 2376,-24.5"/>
<text text-anchor="middle" x="2293.5" y="-12.5" font-family="Helvetica,sans-Serif" font-size="10.00">test/unit/test_handleEvent.cpp</text>
</a>
</g>
</g>
<!-- Node2&#45;&gt;Node16 -->
<g id="edge15_Node000002_Node000016" class="edge">
<title>Node2&#45;&gt;Node16</title>
<g id="a_edge15_Node000002_Node000016"><a xlink:title=" ">
<path fill="none" stroke="#63b8ff" d="M1724.06,-69.48C1730.89,-68.16 1737.86,-66.95 1744.5,-66 1946.18,-37.11 1999.1,-53.34 2201.5,-30 2214.66,-28.48 2228.83,-26.5 2242.01,-24.51"/>
<polygon fill="#63b8ff" stroke="#63b8ff" points="1723.33,-66.05 1714.21,-71.45 1724.7,-72.92 1723.33,-66.05"/>
</a>
</g>
</g>
<!-- Node17 -->
<g id="Node000017" class="node">
<title>Node17</title>
<g id="a_Node000017"><a xlink:href="test__helpers_8cpp.html" target="_top" xlink:title=" ">
<polygon fill="white" stroke="#666666" points="2534.5,-24.5 2394.5,-24.5 2394.5,-5.5 2534.5,-5.5 2534.5,-24.5"/>
<text text-anchor="middle" x="2464.5" y="-12.5" font-family="Helvetica,sans-Serif" font-size="10.00">test/unit/test_helpers.cpp</text>
</a>
</g>
</g>
<!-- Node2&#45;&gt;Node17 -->
<g id="edge16_Node000002_Node000017" class="edge">
<title>Node2&#45;&gt;Node17</title>
<g id="a_edge16_Node000002_Node000017"><a xlink:title=" ">
<path fill="none" stroke="#63b8ff" d="M1723.56,-69.43C1730.54,-68.1 1737.69,-66.9 1744.5,-66 2027.39,-28.71 2102.07,-62.95 2385.5,-30 2397.26,-28.63 2409.92,-26.63 2421.59,-24.56"/>
<polygon fill="#63b8ff" stroke="#63b8ff" points="1722.61,-66.05 1713.49,-71.45 1723.99,-72.92 1722.61,-66.05"/>
</a>
</g>
</g>
<!-- Node18 -->
<g id="Node000018" class="node">
<title>Node18</title>
<g id="a_Node000018"><a xlink:href="test__init_virtual_servers_8cpp.html" target="_top" xlink:title=" ">
<polygon fill="white" stroke="#666666" points="2684.5,-30 2552.5,-30 2552.5,0 2684.5,0 2684.5,-30"/>
<text text-anchor="start" x="2560.5" y="-18" font-family="Helvetica,sans-Serif" font-size="10.00">test/unit/test_initVirtual</text>
<text text-anchor="middle" x="2618.5" y="-7" font-family="Helvetica,sans-Serif" font-size="10.00">Servers.cpp</text>
</a>
</g>
</g>
<!-- Node2&#45;&gt;Node18 -->
<g id="edge17_Node000002_Node000018" class="edge">
<title>Node2&#45;&gt;Node18</title>
<g id="a_edge17_Node000002_Node000018"><a xlink:title=" ">
<path fill="none" stroke="#63b8ff" d="M1723.3,-69.41C1730.37,-68.07 1737.61,-66.87 1744.5,-66 2097.18,-21.5 2190.37,-70.71 2543.5,-30 2546.39,-29.67 2549.35,-29.29 2552.32,-28.87"/>
<polygon fill="#63b8ff" stroke="#63b8ff" points="1722.25,-66.05 1713.13,-71.44 1723.63,-72.91 1722.25,-66.05"/>
</a>
</g>
</g>
<!-- Node19 -->
<g id="Node000019" class="node">
<title>Node19</title>
<g id="a_Node000019"><a xlink:href="test__is_duplicate_server_8cpp.html" target="_top" xlink:title=" ">
<polygon fill="white" stroke="#666666" points="2842,-30 2703,-30 2703,0 2842,0 2842,-30"/>
<text text-anchor="start" x="2711" y="-18" font-family="Helvetica,sans-Serif" font-size="10.00">test/unit/test_isDuplicate</text>
<text text-anchor="middle" x="2772.5" y="-7" font-family="Helvetica,sans-Serif" font-size="10.00">Server.cpp</text>
</a>
</g>
</g>
<!-- Node2&#45;&gt;Node19 -->
<g id="edge18_Node000002_Node000019" class="edge">
<title>Node2&#45;&gt;Node19</title>
<g id="a_edge18_Node000002_Node000019"><a xlink:title=" ">
<path fill="none" stroke="#63b8ff" d="M1723.06,-69.41C1730.2,-68.06 1737.53,-66.85 1744.5,-66 2163.45,-14.65 2273.82,-74.93 2693.5,-30 2696.55,-29.67 2699.65,-29.3 2702.79,-28.89"/>
<polygon fill="#63b8ff" stroke="#63b8ff" points="1721.9,-66.07 1712.78,-71.47 1723.27,-72.94 1721.9,-66.07"/>
</a>
</g>
</g>
<!-- Node20 -->
<g id="Node000020" class="node">
<title>Node20</title>
<g id="a_Node000020"><a xlink:href="test__register_c_g_i_file_descriptor_8cpp.html" target="_top" xlink:title=" ">
<polygon fill="white" stroke="#666666" points="3016.5,-30 2860.5,-30 2860.5,0 3016.5,0 3016.5,-30"/>
<text text-anchor="start" x="2868.5" y="-18" font-family="Helvetica,sans-Serif" font-size="10.00">test/unit/test_registerCGIFile</text>
<text text-anchor="middle" x="2938.5" y="-7" font-family="Helvetica,sans-Serif" font-size="10.00">Descriptor.cpp</text>
</a>
</g>
</g>
<!-- Node2&#45;&gt;Node20 -->
<g id="edge19_Node000002_Node000020" class="edge">
<title>Node2&#45;&gt;Node20</title>
<g id="a_edge19_Node000002_Node000020"><a xlink:title=" ">
<path fill="none" stroke="#63b8ff" d="M1723.05,-69.38C1730.2,-68.03 1737.52,-66.84 1744.5,-66 2233.26,-7.44 2361.51,-77.2 2851.5,-30 2854.39,-29.72 2857.34,-29.41 2860.31,-29.06"/>
<polygon fill="#63b8ff" stroke="#63b8ff" points="1721.9,-66.04 1712.78,-71.43 1723.27,-72.9 1721.9,-66.04"/>
</a>
</g>
</g>
<!-- Node21 -->
<g id="Node000021" class="node">
<title>Node21</title>
<g id="a_Node000021"><a xlink:href="test__register_connection_8cpp.html" target="_top" xlink:title=" ">
<polygon fill="white" stroke="#666666" points="3232,-24.5 3035,-24.5 3035,-5.5 3232,-5.5 3232,-24.5"/>
<text text-anchor="middle" x="3133.5" y="-12.5" font-family="Helvetica,sans-Serif" font-size="10.00">test/unit/test_registerConnection.cpp</text>
</a>
</g>
</g>
<!-- Node2&#45;&gt;Node21 -->
<g id="edge20_Node000002_Node000021" class="edge">
<title>Node2&#45;&gt;Node21</title>
<g id="a_edge20_Node000002_Node000021"><a xlink:title=" ">
<path fill="none" stroke="#63b8ff" d="M1722.3,-69.49C1729.68,-68.09 1737.28,-66.85 1744.5,-66 2310.16,0.51 2457.7,-74.67 3025.5,-30 3041.99,-28.7 3059.83,-26.66 3076.16,-24.53"/>
<polygon fill="#63b8ff" stroke="#63b8ff" points="1721.54,-66.07 1712.43,-71.48 1722.92,-72.94 1721.54,-66.07"/>
</a>
</g>
</g>
<!-- Node22 -->
<g id="Node000022" class="node">
<title>Node22</title>
<g id="a_Node000022"><a xlink:href="test__register_virtual_server_8cpp.html" target="_top" xlink:title=" ">
<polygon fill="white" stroke="#666666" points="3404.5,-30 3250.5,-30 3250.5,0 3404.5,0 3404.5,-30"/>
<text text-anchor="start" x="3258.5" y="-18" font-family="Helvetica,sans-Serif" font-size="10.00">test/unit/test_registerVirtual</text>
<text text-anchor="middle" x="3327.5" y="-7" font-family="Helvetica,sans-Serif" font-size="10.00">Server.cpp</text>
</a>
</g>
</g>
<!-- Node2&#45;&gt;Node22 -->
<g id="edge21_Node000002_Node000022" class="edge">
<title>Node2&#45;&gt;Node22</title>
<g id="a_edge21_Node000002_Node000022"><a xlink:title=" ">
<path fill="none" stroke="#63b8ff" d="M1722.3,-69.47C1729.68,-68.07 1737.28,-66.83 1744.5,-66 2405.63,10.38 2578.83,-91.61 3241.5,-30 3244.36,-29.73 3247.27,-29.43 3250.21,-29.1"/>
<polygon fill="#63b8ff" stroke="#63b8ff" points="1721.54,-66.05 1712.42,-71.45 1722.92,-72.91 1721.54,-66.05"/>
</a>
</g>
</g>
<!-- Node23 -->
<g id="Node000023" class="node">
<title>Node23</title>
<g id="a_Node000023"><a xlink:href="test__shutdown_server_8cpp.html" target="_top" xlink:title=" ">
<polygon fill="white" stroke="#666666" points="3604.5,-24.5 3422.5,-24.5 3422.5,-5.5 3604.5,-5.5 3604.5,-24.5"/>
<text text-anchor="middle" x="3513.5" y="-12.5" font-family="Helvetica,sans-Serif" font-size="10.00">test/unit/test_shutdownServer.cpp</text>
</a>
</g>
</g>
<!-- Node2&#45;&gt;Node23 -->
<g id="edge22_Node000002_Node000023" class="edge">
<title>Node2&#45;&gt;Node23</title>
<g id="a_edge22_Node000002_Node000023"><a xlink:title=" ">
<path fill="none" stroke="#63b8ff" d="M1722.3,-69.45C1729.68,-68.06 1737.28,-66.83 1744.5,-66 2481.65,18.24 2673.94,-89.54 3413.5,-30 3429.05,-28.75 3445.88,-26.67 3461.21,-24.5"/>
<polygon fill="#63b8ff" stroke="#63b8ff" points="1721.54,-66.03 1712.42,-71.43 1722.92,-72.9 1721.54,-66.03"/>
</a>
</g>
</g>
</g>
</svg>
