<?xml version="1.0" encoding="UTF-8" standalone="no"?>
<!DOCTYPE svg PUBLIC "-//W3C//DTD SVG 1.1//EN"
 "http://www.w3.org/Graphics/SVG/1.1/DTD/svg11.dtd">
<!-- Generated by graphviz version 2.43.0 (0)
 -->
<!-- Title: test/unit/inc/MockFileSystemOps.hpp Pages: 1 -->
<!--zoomable 170 -->

<svg id="main" version="1.1" xmlns="http://www.w3.org/2000/svg" xmlns:xlink="http://www.w3.org/1999/xlink" xml:space="preserve" onload="init(evt)">
<style type="text/css"><![CDATA[
.node, .edge {opacity: 0.7;}
.node.selected, .edge.selected {opacity: 1;}
.edge:hover path { stroke: red; }
.edge:hover polygon { stroke: red; fill: red; }
]]></style>

<defs>
  <circle id="rim" cx="0" cy="0" r="7"/>
  <circle id="rim2" cx="0" cy="0" r="3.5"/>
  <g id="zoomPlus">
    <use xlink:href="#rim" fill="#404040"><set attributeName="fill" to="#808080" begin="zoomplus.mouseover" end="zoomplus.mouseout"/></use>
    <path d="M-4,0h8M0,-4v8" fill="none" stroke="white" stroke-width="1.5" pointer-events="none"/>
  </g>
  <g id="zoomMin">
    <use xlink:href="#rim" fill="#404040"><set attributeName="fill" to="#808080" begin="zoomminus.mouseover" end="zoomminus.mouseout"/></use>
    <path d="M-4,0h8" fill="none" stroke="white" stroke-width="1.5" pointer-events="none"/>
  </g>
  <g id="arrowUp" transform="translate(30 24)">
    <use xlink:href="#rim"/>
    <path pointer-events="none" fill="none" stroke="white" stroke-width="1.5" d="M0,-3.0v7 M-2.5,-0.5L0,-3.0L2.5,-0.5"/>
  </g>
  <g id="arrowRight" transform="rotate(90) translate(36 -43)">
    <use xlink:href="#rim"/>
    <path pointer-events="none" fill="none" stroke="white" stroke-width="1.5" d="M0,-3.0v7 M-2.5,-0.5L0,-3.0L2.5,-0.5"/>
  </g>
  <g id="arrowDown" transform="rotate(180) translate(-30 -48)">
    <use xlink:href="#rim"/>
    <path pointer-events="none" fill="none" stroke="white" stroke-width="1.5" d="M0,-3.0v7 M-2.5,-0.5L0,-3.0L2.5,-0.5"/>
  </g>
  <g id="arrowLeft" transform="rotate(270) translate(-36 17)">
    <use xlink:href="#rim"/>
    <path pointer-events="none" fill="none" stroke="white" stroke-width="1.5" d="M0,-3.0v7 M-2.5,-0.5L0,-3.0L2.5,-0.5"/>
  </g>
  <g id="resetDef">
    <use xlink:href="#rim2" fill="#404040"><set attributeName="fill" to="#808080" begin="reset.mouseover" end="reset.mouseout"/></use>
  </g>
</defs>
<script type="application/ecmascript">
var viewWidth = 3330;
var viewHeight = 170;
var sectionId = 'dynsection-1';
</script>
<script type="application/ecmascript" xlink:href="svg.min.js"/>
<svg id="graph" class="graph">
<g id="viewport">
<title>test/unit/inc/MockFileSystemOps.hpp</title>
<!-- Node1 -->
<g id="Node000001" class="node">
<title>Node1</title>
<g id="a_Node000001"><a xlink:title=" ">
<polygon fill="#999999" stroke="#666666" points="2097.5,-162 1939.5,-162 1939.5,-132 2097.5,-132 2097.5,-162"/>
<text text-anchor="start" x="1947.5" y="-150" font-family="Helvetica,sans-Serif" font-size="10.00">test/unit/inc/MockFileSystem</text>
<text text-anchor="middle" x="2018.5" y="-139" font-family="Helvetica,sans-Serif" font-size="10.00">Ops.hpp</text>
</a>
</g>
</g>
<!-- Node2 -->
<g id="Node000002" class="node">
<title>Node2</title>
<g id="a_Node000002"><a xlink:href="test__helpers_8hpp.html" target="_top" xlink:title=" ">
<polygon fill="white" stroke="#666666" points="1728.5,-96 1632.5,-96 1632.5,-66 1728.5,-66 1728.5,-96"/>
<text text-anchor="start" x="1640.5" y="-84" font-family="Helvetica,sans-Serif" font-size="10.00">test/unit/inc/test</text>
<text text-anchor="middle" x="1680.5" y="-73" font-family="Helvetica,sans-Serif" font-size="10.00">_helpers.hpp</text>
</a>
</g>
</g>
<!-- Node1&#45;&gt;Node2 -->
<g id="edge1_Node000001_Node000002" class="edge">
<title>Node1&#45;&gt;Node2</title>
<g id="a_edge1_Node000001_Node000002"><a xlink:title=" ">
<path fill="none" stroke="#63b8ff" d="M1929.11,-131.45C1874,-122.13 1801.97,-109.31 1738.5,-96 1735.26,-95.32 1731.92,-94.59 1728.56,-93.84"/>
<polygon fill="#63b8ff" stroke="#63b8ff" points="1928.76,-134.94 1939.2,-133.15 1929.92,-128.03 1928.76,-134.94"/>
</a>
</g>
</g>
<!-- Node3 -->
<g id="Node000003" class="node">
<title>Node3</title>
<g id="a_Node000003"><a xlink:href="test___c_g_i_handler_8cpp.html" target="_top" xlink:title=" ">
<polygon fill="white" stroke="#666666" points="97,-30 0,-30 0,0 97,0 97,-30"/>
<text text-anchor="start" x="8" y="-18" font-family="Helvetica,sans-Serif" font-size="10.00">test/unit/src/test</text>
<text text-anchor="middle" x="48.5" y="-7" font-family="Helvetica,sans-Serif" font-size="10.00">_CGIHandler.cpp</text>
</a>
</g>
</g>
<!-- Node1&#45;&gt;Node3 -->
<g id="edge24_Node000001_Node000003" class="edge">
<title>Node1&#45;&gt;Node3</title>
<g id="a_edge24_Node000001_Node000003"><a xlink:title=" ">
<path fill="none" stroke="#63b8ff" d="M1928.92,-146.15C1654.62,-145.43 802.59,-134.29 106.5,-30 103.43,-29.54 100.28,-28.99 97.11,-28.39"/>
<polygon fill="#63b8ff" stroke="#63b8ff" points="1929.2,-149.65 1939.21,-146.18 1929.22,-142.65 1929.2,-149.65"/>
</a>
</g>
</g>
<!-- Node24 -->
<g id="Node000024" class="node">
<title>Node24</title>
<g id="a_Node000024"><a xlink:href="test___autoindex_handler_8cpp.html" target="_top" xlink:title=" ">
<polygon fill="white" stroke="#666666" points="1876,-96 1747,-96 1747,-66 1876,-66 1876,-96"/>
<text text-anchor="start" x="1755" y="-84" font-family="Helvetica,sans-Serif" font-size="10.00">test/unit/src/test</text>
<text text-anchor="middle" x="1811.5" y="-73" font-family="Helvetica,sans-Serif" font-size="10.00">_AutoindexHandler.cpp</text>
</a>
</g>
</g>
<!-- Node1&#45;&gt;Node24 -->
<g id="edge23_Node000001_Node000024" class="edge">
<title>Node1&#45;&gt;Node24</title>
<g id="a_edge23_Node000001_Node000024"><a xlink:title=" ">
<path fill="none" stroke="#63b8ff" d="M1963.48,-128.99C1930.17,-118.69 1888.21,-105.72 1856.82,-96.01"/>
<polygon fill="#63b8ff" stroke="#63b8ff" points="1962.49,-132.34 1973.07,-131.95 1964.55,-125.66 1962.49,-132.34"/>
</a>
</g>
</g>
<!-- Node25 -->
<g id="Node000025" class="node">
<title>Node25</title>
<g id="a_Node000025"><a xlink:href="test___delete_handler_8cpp.html" target="_top" xlink:title=" ">
<polygon fill="white" stroke="#666666" points="2006.5,-96 1894.5,-96 1894.5,-66 2006.5,-66 2006.5,-96"/>
<text text-anchor="start" x="1902.5" y="-84" font-family="Helvetica,sans-Serif" font-size="10.00">test/unit/src/test</text>
<text text-anchor="middle" x="1950.5" y="-73" font-family="Helvetica,sans-Serif" font-size="10.00">_DeleteHandler.cpp</text>
</a>
</g>
</g>
<!-- Node1&#45;&gt;Node25 -->
<g id="edge25_Node000001_Node000025" class="edge">
<title>Node1&#45;&gt;Node25</title>
<g id="a_edge25_Node000001_Node000025"><a xlink:title=" ">
<path fill="none" stroke="#63b8ff" d="M1996.11,-124.92C1986.08,-115.49 1974.52,-104.61 1965.55,-96.16"/>
<polygon fill="#63b8ff" stroke="#63b8ff" points="1993.73,-127.49 2003.41,-131.8 1998.53,-122.39 1993.73,-127.49"/>
</a>
</g>
</g>
<!-- Node26 -->
<g id="Node000026" class="node">
<title>Node26</title>
<g id="a_Node000026"><a xlink:href="test___file_write_handler_8cpp.html" target="_top" xlink:title=" ">
<polygon fill="white" stroke="#666666" points="2148,-96 2025,-96 2025,-66 2148,-66 2148,-96"/>
<text text-anchor="start" x="2033" y="-84" font-family="Helvetica,sans-Serif" font-size="10.00">test/unit/src/test</text>
<text text-anchor="middle" x="2086.5" y="-73" font-family="Helvetica,sans-Serif" font-size="10.00">_FileWriteHandler.cpp</text>
</a>
</g>
</g>
<!-- Node1&#45;&gt;Node26 -->
<g id="edge26_Node000001_Node000026" class="edge">
<title>Node1&#45;&gt;Node26</title>
<g id="a_edge26_Node000001_Node000026"><a xlink:title=" ">
<path fill="none" stroke="#63b8ff" d="M2040.89,-124.92C2050.92,-115.49 2062.48,-104.61 2071.45,-96.16"/>
<polygon fill="#63b8ff" stroke="#63b8ff" points="2038.47,-122.39 2033.59,-131.8 2043.27,-127.49 2038.47,-122.39"/>
</a>
</g>
</g>
<!-- Node27 -->
<g id="Node000027" class="node">
<title>Node27</title>
<g id="a_Node000027"><a xlink:href="test___response_body_handler_8cpp.html" target="_top" xlink:title=" ">
<polygon fill="white" stroke="#666666" points="2318.5,-96 2166.5,-96 2166.5,-66 2318.5,-66 2318.5,-96"/>
<text text-anchor="start" x="2174.5" y="-84" font-family="Helvetica,sans-Serif" font-size="10.00">test/unit/src/test</text>
<text text-anchor="middle" x="2242.5" y="-73" font-family="Helvetica,sans-Serif" font-size="10.00">_ResponseBodyHandler.cpp</text>
</a>
</g>
</g>
<!-- Node1&#45;&gt;Node27 -->
<g id="edge27_Node000001_Node000027" class="edge">
<title>Node1&#45;&gt;Node27</title>
<g id="a_edge27_Node000001_Node000027"><a xlink:title=" ">
<path fill="none" stroke="#63b8ff" d="M2077.57,-129.12C2113.69,-118.8 2159.34,-105.76 2193.46,-96.01"/>
<polygon fill="#63b8ff" stroke="#63b8ff" points="2076.31,-125.84 2067.66,-131.95 2078.23,-132.57 2076.31,-125.84"/>
</a>
</g>
</g>
<!-- Node28 -->
<g id="Node000028" class="node">
<title>Node28</title>
<g id="a_Node000028"><a xlink:href="test___response_builder_8cpp.html" target="_top" xlink:title=" ">
<polygon fill="white" stroke="#666666" points="2460,-96 2337,-96 2337,-66 2460,-66 2460,-96"/>
<text text-anchor="start" x="2345" y="-84" font-family="Helvetica,sans-Serif" font-size="10.00">test/unit/src/test</text>
<text text-anchor="middle" x="2398.5" y="-73" font-family="Helvetica,sans-Serif" font-size="10.00">_ResponseBuilder.cpp</text>
</a>
</g>
</g>
<!-- Node1&#45;&gt;Node28 -->
<g id="edge28_Node000001_Node000028" class="edge">
<title>Node1&#45;&gt;Node28</title>
<g id="a_edge28_Node000001_Node000028"><a xlink:title=" ">
<path fill="none" stroke="#63b8ff" d="M2107.8,-132.38C2169.58,-122.75 2253.65,-109.25 2327.5,-96 2330.59,-95.45 2333.76,-94.87 2336.95,-94.27"/>
<polygon fill="#63b8ff" stroke="#63b8ff" points="2107.03,-128.96 2097.69,-133.95 2108.11,-135.87 2107.03,-128.96"/>
</a>
</g>
</g>
<!-- Node29 -->
<g id="Node000029" class="node">
<title>Node29</title>
<g id="a_Node000029"><a xlink:href="test___target_resource_handler_8cpp.html" target="_top" xlink:title=" ">
<polygon fill="white" stroke="#666666" points="2633,-96 2478,-96 2478,-66 2633,-66 2633,-96"/>
<text text-anchor="start" x="2486" y="-84" font-family="Helvetica,sans-Serif" font-size="10.00">test/unit/src/test</text>
<text text-anchor="middle" x="2555.5" y="-73" font-family="Helvetica,sans-Serif" font-size="10.00">_TargetResourceHandler.cpp</text>
</a>
</g>
</g>
<!-- Node1&#45;&gt;Node29 -->
<g id="edge29_Node000001_Node000029" class="edge">
<title>Node1&#45;&gt;Node29</title>
<g id="a_edge29_Node000001_Node000029"><a xlink:title=" ">
<path fill="none" stroke="#63b8ff" d="M2107.69,-137.47C2198.79,-128.43 2344.24,-113.13 2469.5,-96 2472.2,-95.63 2474.94,-95.24 2477.71,-94.85"/>
<polygon fill="#63b8ff" stroke="#63b8ff" points="2107.28,-133.99 2097.68,-138.46 2107.97,-140.95 2107.28,-133.99"/>
</a>
</g>
</g>
<!-- Node2&#45;&gt;Node3 -->
<g id="edge2_Node000002_Node000003" class="edge">
<title>Node2&#45;&gt;Node3</title>
<g id="a_edge2_Node000002_Node000003"><a xlink:title=" ">
<path fill="none" stroke="#63b8ff" d="M1622.22,-78.86C1355.61,-73.53 258.65,-50.56 106.5,-30 103.42,-29.58 100.27,-29.07 97.1,-28.5"/>
<polygon fill="#63b8ff" stroke="#63b8ff" points="1622.39,-82.36 1632.46,-79.06 1622.53,-75.36 1622.39,-82.36"/>
</a>
</g>
</g>
<!-- Node4 -->
<g id="Node000004" class="node">
<title>Node4</title>
<g id="a_Node000004"><a xlink:href="test__accept_connections_8cpp.html" target="_top" xlink:title=" ">
<polygon fill="white" stroke="#666666" points="249.5,-30 115.5,-30 115.5,0 249.5,0 249.5,-30"/>
<text text-anchor="start" x="123.5" y="-18" font-family="Helvetica,sans-Serif" font-size="10.00">test/unit/src/test</text>
<text text-anchor="middle" x="182.5" y="-7" font-family="Helvetica,sans-Serif" font-size="10.00">_acceptConnections.cpp</text>
</a>
</g>
</g>
<!-- Node2&#45;&gt;Node4 -->
<g id="edge3_Node000002_Node000004" class="edge">
<title>Node2&#45;&gt;Node4</title>
<g id="a_edge3_Node000002_Node000004"><a xlink:title=" ">
<path fill="none" stroke="#63b8ff" d="M1622.01,-79.09C1389.4,-75.3 529.38,-59.55 258.5,-30 255.57,-29.68 252.57,-29.31 249.56,-28.91"/>
<polygon fill="#63b8ff" stroke="#63b8ff" points="1622.24,-82.6 1632.29,-79.26 1622.35,-75.6 1622.24,-82.6"/>
</a>
</g>
</g>
<!-- Node5 -->
<g id="Node000005" class="node">
<title>Node5</title>
<g id="a_Node000005"><a xlink:href="test__check_for_timeout_8cpp.html" target="_top" xlink:title=" ">
<polygon fill="white" stroke="#666666" points="393.5,-30 267.5,-30 267.5,0 393.5,0 393.5,-30"/>
<text text-anchor="start" x="275.5" y="-18" font-family="Helvetica,sans-Serif" font-size="10.00">test/unit/src/test</text>
<text text-anchor="middle" x="330.5" y="-7" font-family="Helvetica,sans-Serif" font-size="10.00">_checkForTimeout.cpp</text>
</a>
</g>
</g>
<!-- Node2&#45;&gt;Node5 -->
<g id="edge4_Node000002_Node000005" class="edge">
<title>Node2&#45;&gt;Node5</title>
<g id="a_edge4_Node000002_Node000005"><a xlink:title=" ">
<path fill="none" stroke="#63b8ff" d="M1621.96,-78.88C1404.65,-74.53 644.36,-57.65 403.5,-30 400.29,-29.63 397.02,-29.2 393.72,-28.73"/>
<polygon fill="#63b8ff" stroke="#63b8ff" points="1622.13,-82.38 1632.2,-79.08 1622.27,-75.38 1622.13,-82.38"/>
</a>
</g>
</g>
<!-- Node6 -->
<g id="Node000006" class="node">
<title>Node6</title>
<g id="a_Node000006"><a xlink:href="test__connection_build_response_8cpp.html" target="_top" xlink:title=" ">
<polygon fill="white" stroke="#666666" points="579,-30 412,-30 412,0 579,0 579,-30"/>
<text text-anchor="start" x="420" y="-18" font-family="Helvetica,sans-Serif" font-size="10.00">test/unit/src/test</text>
<text text-anchor="middle" x="495.5" y="-7" font-family="Helvetica,sans-Serif" font-size="10.00">_connectionBuildResponse.cpp</text>
</a>
</g>
</g>
<!-- Node2&#45;&gt;Node6 -->
<g id="edge5_Node000002_Node000006" class="edge">
<title>Node2&#45;&gt;Node6</title>
<g id="a_edge5_Node000002_Node000006"><a xlink:title=" ">
<path fill="none" stroke="#63b8ff" d="M1622.16,-79.45C1458.65,-77.47 982.17,-68.54 588.5,-30 585.41,-29.7 582.27,-29.36 579.1,-29"/>
<polygon fill="#63b8ff" stroke="#63b8ff" points="1622.43,-82.96 1632.47,-79.58 1622.52,-75.96 1622.43,-82.96"/>
</a>
</g>
</g>
<!-- Node7 -->
<g id="Node000007" class="node">
<title>Node7</title>
<g id="a_Node000007"><a xlink:href="test__connection_handle_timeout_8cpp.html" target="_top" xlink:title=" ">
<polygon fill="white" stroke="#666666" points="767.5,-30 597.5,-30 597.5,0 767.5,0 767.5,-30"/>
<text text-anchor="start" x="605.5" y="-18" font-family="Helvetica,sans-Serif" font-size="10.00">test/unit/src/test</text>
<text text-anchor="middle" x="682.5" y="-7" font-family="Helvetica,sans-Serif" font-size="10.00">_connectionHandleTimeout.cpp</text>
</a>
</g>
</g>
<!-- Node2&#45;&gt;Node7 -->
<g id="edge6_Node000002_Node000007" class="edge">
<title>Node2&#45;&gt;Node7</title>
<g id="a_edge6_Node000002_Node000007"><a xlink:title=" ">
<path fill="none" stroke="#63b8ff" d="M1621.99,-78.64C1477.92,-74.88 1094.58,-62.41 776.5,-30 773.55,-29.7 770.54,-29.37 767.51,-29.02"/>
<polygon fill="#63b8ff" stroke="#63b8ff" points="1622.27,-82.15 1632.36,-78.91 1622.45,-75.15 1622.27,-82.15"/>
</a>
</g>
</g>
<!-- Node8 -->
<g id="Node000008" class="node">
<title>Node8</title>
<g id="a_Node000008"><a xlink:href="test__connection_receive_body_8cpp.html" target="_top" xlink:title=" ">
<polygon fill="white" stroke="#666666" points="943.5,-30 785.5,-30 785.5,0 943.5,0 943.5,-30"/>
<text text-anchor="start" x="793.5" y="-18" font-family="Helvetica,sans-Serif" font-size="10.00">test/unit/src/test</text>
<text text-anchor="middle" x="864.5" y="-7" font-family="Helvetica,sans-Serif" font-size="10.00">_connectionReceiveBody.cpp</text>
</a>
</g>
</g>
<!-- Node2&#45;&gt;Node8 -->
<g id="edge7_Node000002_Node000008" class="edge">
<title>Node2&#45;&gt;Node8</title>
<g id="a_edge7_Node000002_Node000008"><a xlink:title=" ">
<path fill="none" stroke="#63b8ff" d="M1622.22,-77.76C1498.53,-72.63 1200.74,-58.21 952.5,-30 949.58,-29.67 946.61,-29.31 943.61,-28.93"/>
<polygon fill="#63b8ff" stroke="#63b8ff" points="1622.1,-81.26 1632.24,-78.18 1622.39,-74.27 1622.1,-81.26"/>
</a>
</g>
</g>
<!-- Node9 -->
<g id="Node000009" class="node">
<title>Node9</title>
<g id="a_Node000009"><a xlink:href="test__connection_receive_from_c_g_i_8cpp.html" target="_top" xlink:title=" ">
<polygon fill="white" stroke="#666666" points="1137.5,-30 961.5,-30 961.5,0 1137.5,0 1137.5,-30"/>
<text text-anchor="start" x="969.5" y="-18" font-family="Helvetica,sans-Serif" font-size="10.00">test/unit/src/test</text>
<text text-anchor="middle" x="1049.5" y="-7" font-family="Helvetica,sans-Serif" font-size="10.00">_connectionReceiveFromCGI.cpp</text>
</a>
</g>
</g>
<!-- Node2&#45;&gt;Node9 -->
<g id="edge8_Node000002_Node000009" class="edge">
<title>Node2&#45;&gt;Node9</title>
<g id="a_edge8_Node000002_Node000009"><a xlink:title=" ">
<path fill="none" stroke="#63b8ff" d="M1622.15,-75.5C1523.86,-67.7 1319.08,-50.52 1146.5,-30 1143.54,-29.65 1140.54,-29.28 1137.5,-28.9"/>
<polygon fill="#63b8ff" stroke="#63b8ff" points="1621.94,-78.99 1632.18,-76.29 1622.49,-72.01 1621.94,-78.99"/>
</a>
</g>
</g>
<!-- Node10 -->
<g id="Node000010" class="node">
<title>Node10</title>
<g id="a_Node000010"><a xlink:href="test__connection_receive_header_8cpp.html" target="_top" xlink:title=" ">
<polygon fill="white" stroke="#666666" points="1324,-30 1155,-30 1155,0 1324,0 1324,-30"/>
<text text-anchor="start" x="1163" y="-18" font-family="Helvetica,sans-Serif" font-size="10.00">test/unit/src/test</text>
<text text-anchor="middle" x="1239.5" y="-7" font-family="Helvetica,sans-Serif" font-size="10.00">_connectionReceiveHeader.cpp</text>
</a>
</g>
</g>
<!-- Node2&#45;&gt;Node10 -->
<g id="edge9_Node000002_Node000010" class="edge">
<title>Node2&#45;&gt;Node10</title>
<g id="a_edge9_Node000002_Node000010"><a xlink:title=" ">
<path fill="none" stroke="#63b8ff" d="M1622.28,-71.7C1553.33,-61.84 1435.03,-44.88 1333.5,-30 1330.4,-29.55 1327.24,-29.08 1324.05,-28.61"/>
<polygon fill="#63b8ff" stroke="#63b8ff" points="1622.1,-75.21 1632.5,-73.16 1623.09,-68.28 1622.1,-75.21"/>
</a>
</g>
</g>
<!-- Node11 -->
<g id="Node000011" class="node">
<title>Node11</title>
<g id="a_Node000011"><a xlink:href="test__connection_send_response_8cpp.html" target="_top" xlink:title=" ">
<polygon fill="white" stroke="#666666" points="1509,-30 1342,-30 1342,0 1509,0 1509,-30"/>
<text text-anchor="start" x="1350" y="-18" font-family="Helvetica,sans-Serif" font-size="10.00">test/unit/src/test</text>
<text text-anchor="middle" x="1425.5" y="-7" font-family="Helvetica,sans-Serif" font-size="10.00">_connectionSendResponse.cpp</text>
</a>
</g>
</g>
<!-- Node2&#45;&gt;Node11 -->
<g id="edge10_Node000002_Node000011" class="edge">
<title>Node2&#45;&gt;Node11</title>
<g id="a_edge10_Node000002_Node000011"><a xlink:title=" ">
<path fill="none" stroke="#63b8ff" d="M1622.38,-65.41C1580.14,-54.81 1523.31,-40.55 1481.56,-30.07"/>
<polygon fill="#63b8ff" stroke="#63b8ff" points="1621.69,-68.85 1632.24,-67.89 1623.39,-62.06 1621.69,-68.85"/>
</a>
</g>
</g>
<!-- Node12 -->
<g id="Node000012" class="node">
<title>Node12</title>
<g id="a_Node000012"><a xlink:href="test__connection_send_to_c_g_i_8cpp.html" target="_top" xlink:title=" ">
<polygon fill="white" stroke="#666666" points="1674,-30 1527,-30 1527,0 1674,0 1674,-30"/>
<text text-anchor="start" x="1535" y="-18" font-family="Helvetica,sans-Serif" font-size="10.00">test/unit/src/test</text>
<text text-anchor="middle" x="1600.5" y="-7" font-family="Helvetica,sans-Serif" font-size="10.00">_connectionSendToCGI.cpp</text>
</a>
</g>
</g>
<!-- Node2&#45;&gt;Node12 -->
<g id="edge11_Node000002_Node000012" class="edge">
<title>Node2&#45;&gt;Node12</title>
<g id="a_edge11_Node000002_Node000012"><a xlink:title=" ">
<path fill="none" stroke="#63b8ff" d="M1654.85,-59.48C1642.89,-49.91 1628.97,-38.77 1618.2,-30.16"/>
<polygon fill="#63b8ff" stroke="#63b8ff" points="1652.75,-62.28 1662.75,-65.8 1657.12,-56.82 1652.75,-62.28"/>
</a>
</g>
</g>
<!-- Node13 -->
<g id="Node000013" class="node">
<title>Node13</title>
<g id="a_Node000013"><a xlink:href="test__create_virtual_server_8cpp.html" target="_top" xlink:title=" ">
<polygon fill="white" stroke="#666666" points="1828.5,-30 1692.5,-30 1692.5,0 1828.5,0 1828.5,-30"/>
<text text-anchor="start" x="1700.5" y="-18" font-family="Helvetica,sans-Serif" font-size="10.00">test/unit/src/test</text>
<text text-anchor="middle" x="1760.5" y="-7" font-family="Helvetica,sans-Serif" font-size="10.00">_createVirtualServer.cpp</text>
</a>
</g>
</g>
<!-- Node2&#45;&gt;Node13 -->
<g id="edge12_Node000002_Node000013" class="edge">
<title>Node2&#45;&gt;Node13</title>
<g id="a_edge12_Node000002_Node000013"><a xlink:title=" ">
<path fill="none" stroke="#63b8ff" d="M1706.15,-59.48C1718.11,-49.91 1732.03,-38.77 1742.8,-30.16"/>
<polygon fill="#63b8ff" stroke="#63b8ff" points="1703.88,-56.82 1698.25,-65.8 1708.25,-62.28 1703.88,-56.82"/>
</a>
</g>
</g>
<!-- Node14 -->
<g id="Node000014" class="node">
<title>Node14</title>
<g id="a_Node000014"><a xlink:href="test__handle_body_8cpp.html" target="_top" xlink:title=" ">
<polygon fill="white" stroke="#666666" points="1944.5,-30 1846.5,-30 1846.5,0 1944.5,0 1944.5,-30"/>
<text text-anchor="start" x="1854.5" y="-18" font-family="Helvetica,sans-Serif" font-size="10.00">test/unit/src/test</text>
<text text-anchor="middle" x="1895.5" y="-7" font-family="Helvetica,sans-Serif" font-size="10.00">_handleBody.cpp</text>
</a>
</g>
</g>
<!-- Node2&#45;&gt;Node14 -->
<g id="edge13_Node000002_Node000014" class="edge">
<title>Node2&#45;&gt;Node14</title>
<g id="a_edge13_Node000002_Node000014"><a xlink:title=" ">
<path fill="none" stroke="#63b8ff" d="M1737.65,-62.99C1772.24,-52.69 1815.83,-39.72 1848.43,-30.01"/>
<polygon fill="#63b8ff" stroke="#63b8ff" points="1736.27,-59.75 1727.68,-65.95 1738.27,-66.46 1736.27,-59.75"/>
</a>
</g>
</g>
<!-- Node15 -->
<g id="Node000015" class="node">
<title>Node15</title>
<g id="a_Node000015"><a xlink:href="test__handle_complete_request_header_8cpp.html" target="_top" xlink:title=" ">
<polygon fill="white" stroke="#666666" points="2160,-30 1963,-30 1963,0 2160,0 2160,-30"/>
<text text-anchor="start" x="1971" y="-18" font-family="Helvetica,sans-Serif" font-size="10.00">test/unit/src/test</text>
<text text-anchor="middle" x="2061.5" y="-7" font-family="Helvetica,sans-Serif" font-size="10.00">_handleCompleteRequestHeader.cpp</text>
</a>
</g>
</g>
<!-- Node2&#45;&gt;Node15 -->
<g id="edge14_Node000002_Node000015" class="edge">
<title>Node2&#45;&gt;Node15</title>
<g id="a_edge14_Node000002_Node000015"><a xlink:title=" ">
<path fill="none" stroke="#63b8ff" d="M1738.19,-66.06C1738.3,-66.04 1738.4,-66.02 1738.5,-66 1813.37,-51.2 1898.73,-38.15 1962.89,-29.09"/>
<polygon fill="#63b8ff" stroke="#63b8ff" points="1737.61,-62.61 1728.54,-68.08 1739.04,-69.46 1737.61,-62.61"/>
</a>
</g>
</g>
<!-- Node16 -->
<g id="Node000016" class="node">
<title>Node16</title>
<g id="a_Node000016"><a xlink:href="test__handle_event_8cpp.html" target="_top" xlink:title=" ">
<polygon fill="white" stroke="#666666" points="2281,-30 2178,-30 2178,0 2281,0 2281,-30"/>
<text text-anchor="start" x="2186" y="-18" font-family="Helvetica,sans-Serif" font-size="10.00">test/unit/src/test</text>
<text text-anchor="middle" x="2229.5" y="-7" font-family="Helvetica,sans-Serif" font-size="10.00">_handleEvent.cpp</text>
</a>
</g>
</g>
<!-- Node2&#45;&gt;Node16 -->
<g id="edge15_Node000002_Node000016" class="edge">
<title>Node2&#45;&gt;Node16</title>
<g id="a_edge15_Node000002_Node000016"><a xlink:title=" ">
<path fill="none" stroke="#63b8ff" d="M1738.91,-66.14C1930.06,-36.18 1982.87,-59.41 2169.5,-30 2172.25,-29.57 2175.06,-29.08 2177.88,-28.55"/>
<polygon fill="#63b8ff" stroke="#63b8ff" points="1738.13,-62.72 1728.81,-67.75 1739.23,-69.63 1738.13,-62.72"/>
</a>
</g>
</g>
<!-- Node17 -->
<g id="Node000017" class="node">
<title>Node17</title>
<g id="a_Node000017"><a xlink:href="test__helpers_8cpp.html" target="_top" xlink:title=" ">
<polygon fill="white" stroke="#666666" points="2395.5,-30 2299.5,-30 2299.5,0 2395.5,0 2395.5,-30"/>
<text text-anchor="start" x="2307.5" y="-18" font-family="Helvetica,sans-Serif" font-size="10.00">test/unit/src/test</text>
<text text-anchor="middle" x="2347.5" y="-7" font-family="Helvetica,sans-Serif" font-size="10.00">_helpers.cpp</text>
</a>
</g>
</g>
<!-- Node2&#45;&gt;Node17 -->
<g id="edge16_Node000002_Node000017" class="edge">
<title>Node2&#45;&gt;Node17</title>
<g id="a_edge16_Node000002_Node000017"><a xlink:title=" ">
<path fill="none" stroke="#63b8ff" d="M1738.7,-66.2C1983.33,-30.02 2050.72,-66.97 2290.5,-30 2293.42,-29.55 2296.41,-29.02 2299.42,-28.44"/>
<polygon fill="#63b8ff" stroke="#63b8ff" points="1738.17,-62.74 1728.8,-67.69 1739.21,-69.66 1738.17,-62.74"/>
</a>
</g>
</g>
<!-- Node18 -->
<g id="Node000018" class="node">
<title>Node18</title>
<g id="a_Node000018"><a xlink:href="test__init_virtual_servers_8cpp.html" target="_top" xlink:title=" ">
<polygon fill="white" stroke="#666666" points="2541,-30 2414,-30 2414,0 2541,0 2541,-30"/>
<text text-anchor="start" x="2422" y="-18" font-family="Helvetica,sans-Serif" font-size="10.00">test/unit/src/test</text>
<text text-anchor="middle" x="2477.5" y="-7" font-family="Helvetica,sans-Serif" font-size="10.00">_initVirtualServers.cpp</text>
</a>
</g>
</g>
<!-- Node2&#45;&gt;Node18 -->
<g id="edge17_Node000002_Node000018" class="edge">
<title>Node2&#45;&gt;Node18</title>
<g id="a_edge17_Node000002_Node000018"><a xlink:title=" ">
<path fill="none" stroke="#63b8ff" d="M1738.92,-66.17C2033.59,-24 2113.57,-65.59 2404.5,-30 2407.57,-29.62 2410.71,-29.2 2413.88,-28.73"/>
<polygon fill="#63b8ff" stroke="#63b8ff" points="1738.18,-62.74 1728.79,-67.64 1739.19,-69.67 1738.18,-62.74"/>
</a>
</g>
</g>
<!-- Node19 -->
<g id="Node000019" class="node">
<title>Node19</title>
<g id="a_Node000019"><a xlink:href="test__is_duplicate_server_8cpp.html" target="_top" xlink:title=" ">
<polygon fill="white" stroke="#666666" points="2687.5,-30 2559.5,-30 2559.5,0 2687.5,0 2687.5,-30"/>
<text text-anchor="start" x="2567.5" y="-18" font-family="Helvetica,sans-Serif" font-size="10.00">test/unit/src/test</text>
<text text-anchor="middle" x="2623.5" y="-7" font-family="Helvetica,sans-Serif" font-size="10.00">_isDuplicateServer.cpp</text>
</a>
</g>
</g>
<!-- Node2&#45;&gt;Node19 -->
<g id="edge18_Node000002_Node000019" class="edge">
<title>Node2&#45;&gt;Node19</title>
<g id="a_edge18_Node000002_Node000019"><a xlink:title=" ">
<path fill="none" stroke="#63b8ff" d="M1738.94,-66.18C2097.98,-16.43 2195.05,-71.74 2550.5,-30 2553.45,-29.65 2556.46,-29.26 2559.49,-28.82"/>
<polygon fill="#63b8ff" stroke="#63b8ff" points="1738.2,-62.75 1728.79,-67.61 1739.18,-69.68 1738.2,-62.75"/>
</a>
</g>
</g>
<!-- Node20 -->
<g id="Node000020" class="node">
<title>Node20</title>
<g id="a_Node000020"><a xlink:href="test__register_c_g_i_file_descriptor_8cpp.html" target="_top" xlink:title=" ">
<polygon fill="white" stroke="#666666" points="2869.5,-30 2705.5,-30 2705.5,0 2869.5,0 2869.5,-30"/>
<text text-anchor="start" x="2713.5" y="-18" font-family="Helvetica,sans-Serif" font-size="10.00">test/unit/src/test</text>
<text text-anchor="middle" x="2787.5" y="-7" font-family="Helvetica,sans-Serif" font-size="10.00">_registerCGIFileDescriptor.cpp</text>
</a>
</g>
</g>
<!-- Node2&#45;&gt;Node20 -->
<g id="edge19_Node000002_Node000020" class="edge">
<title>Node2&#45;&gt;Node20</title>
<g id="a_edge19_Node000002_Node000020"><a xlink:title=" ">
<path fill="none" stroke="#63b8ff" d="M1738.84,-66.2C2162.34,-8.7 2275.66,-70.15 2696.5,-30 2699.36,-29.73 2702.28,-29.42 2705.21,-29.09"/>
<polygon fill="#63b8ff" stroke="#63b8ff" points="1738.21,-62.76 1728.78,-67.58 1739.17,-69.69 1738.21,-62.76"/>
</a>
</g>
</g>
<!-- Node21 -->
<g id="Node000021" class="node">
<title>Node21</title>
<g id="a_Node000021"><a xlink:href="test__register_connection_8cpp.html" target="_top" xlink:title=" ">
<polygon fill="white" stroke="#666666" points="3021.5,-30 2887.5,-30 2887.5,0 3021.5,0 3021.5,-30"/>
<text text-anchor="start" x="2895.5" y="-18" font-family="Helvetica,sans-Serif" font-size="10.00">test/unit/src/test</text>
<text text-anchor="middle" x="2954.5" y="-7" font-family="Helvetica,sans-Serif" font-size="10.00">_registerConnection.cpp</text>
</a>
</g>
</g>
<!-- Node2&#45;&gt;Node21 -->
<g id="edge20_Node000002_Node000021" class="edge">
<title>Node2&#45;&gt;Node21</title>
<g id="a_edge20_Node000002_Node000021"><a xlink:title=" ">
<path fill="none" stroke="#63b8ff" d="M1738.86,-66.21C2242.64,0.7 2377.8,-83.71 2878.5,-30 2881.43,-29.69 2884.43,-29.32 2887.44,-28.92"/>
<polygon fill="#63b8ff" stroke="#63b8ff" points="1738.23,-62.76 1728.78,-67.56 1739.16,-69.7 1738.23,-62.76"/>
</a>
</g>
</g>
<!-- Node22 -->
<g id="Node000022" class="node">
<title>Node22</title>
<g id="a_Node000022"><a xlink:href="test__register_virtual_server_8cpp.html" target="_top" xlink:title=" ">
<polygon fill="white" stroke="#666666" points="3183,-30 3040,-30 3040,0 3183,0 3183,-30"/>
<text text-anchor="start" x="3048" y="-18" font-family="Helvetica,sans-Serif" font-size="10.00">test/unit/src/test</text>
<text text-anchor="middle" x="3111.5" y="-7" font-family="Helvetica,sans-Serif" font-size="10.00">_registerVirtualServer.cpp</text>
</a>
</g>
</g>
<!-- Node2&#45;&gt;Node22 -->
<g id="edge21_Node000002_Node000022" class="edge">
<title>Node2&#45;&gt;Node22</title>
<g id="a_edge21_Node000002_Node000022"><a xlink:title=" ">
<path fill="none" stroke="#63b8ff" d="M1738.91,-66.21C2309.7,8.68 2462.25,-86.73 3030.5,-30 3033.48,-29.7 3036.52,-29.36 3039.58,-28.98"/>
<polygon fill="#63b8ff" stroke="#63b8ff" points="1738.23,-62.77 1728.78,-67.55 1739.15,-69.71 1738.23,-62.77"/>
</a>
</g>
</g>
<!-- Node23 -->
<g id="Node000023" class="node">
<title>Node23</title>
<g id="a_Node000023"><a xlink:href="test__shutdown_server_8cpp.html" target="_top" xlink:title=" ">
<polygon fill="white" stroke="#666666" points="3321.5,-30 3201.5,-30 3201.5,0 3321.5,0 3321.5,-30"/>
<text text-anchor="start" x="3209.5" y="-18" font-family="Helvetica,sans-Serif" font-size="10.00">test/unit/src/test</text>
<text text-anchor="middle" x="3261.5" y="-7" font-family="Helvetica,sans-Serif" font-size="10.00">_shutdownServer.cpp</text>
</a>
</g>
</g>
<!-- Node2&#45;&gt;Node23 -->
<g id="edge22_Node000002_Node000023" class="edge">
<title>Node2&#45;&gt;Node23</title>
<g id="a_edge22_Node000002_Node000023"><a xlink:title=" ">
<path fill="none" stroke="#63b8ff" d="M1738.75,-66.23C2381.16,17.08 2553.46,-102.18 3192.5,-30 3195.42,-29.67 3198.39,-29.28 3201.39,-28.84"/>
<polygon fill="#63b8ff" stroke="#63b8ff" points="1738.24,-62.77 1728.78,-67.54 1739.15,-69.71 1738.24,-62.77"/>
</a>
</g>
</g>
</g>
</svg>

<g id="navigator" transform="translate(0 0)" fill="#404254">
  <rect fill="#f2f5e9" fill-opacity="0.5" stroke="#606060" stroke-width=".5" x="0" y="0" width="60" height="60"/>
  <use id="zoomplus" xlink:href="#zoomPlus" x="17" y="9" onmousedown="handleZoom(evt,'in')"/>
  <use id="zoomminus" xlink:href="#zoomMin" x="42" y="9" onmousedown="handleZoom(evt,'out')"/>
  <use id="reset" xlink:href="#resetDef" x="30" y="36" onmousedown="handleReset()"/>
   <use id="arrowup" xlink:href="#arrowUp" x="0" y="0" onmousedown="handlePan(0,-1)"/>
  <use id="arrowright" xlink:href="#arrowRight" x="0" y="0" onmousedown="handlePan(1,0)"/>
  <use id="arrowdown" xlink:href="#arrowDown" x="0" y="0" onmousedown="handlePan(0,1)"/>
  <use id="arrowleft" xlink:href="#arrowLeft" x="0" y="0" onmousedown="handlePan(-1,0)"/>
</g>
<svg viewBox="0 0 15 15" width="100%" height="30px" preserveAspectRatio="xMaxYMin meet">
 <g id="arrow_out" transform="scale(0.3 0.3)">
  <a xlink:href="_mock_file_system_ops_8hpp__dep__incl_org.svg" target="_base">
   <rect id="button" ry="5" rx="5" y="6" x="6" height="38" width="38"
        fill="#f2f5e9" fill-opacity="0.5" stroke="#606060" stroke-width="1.0"/>
   <path id="arrow"
     d="M 11.500037,31.436501 C 11.940474,20.09759 22.043105,11.32322 32.158766,21.979434 L 37.068811,17.246167 C 37.068811,17.246167 37.088388,32 37.088388,32 L 22.160133,31.978069 C 22.160133,31.978069 26.997745,27.140456 26.997745,27.140456 C 18.528582,18.264221 13.291696,25.230495 11.500037,31.436501 z"
     style="fill:#404040;"/>
  </a>
 </g>
</svg>

<style type='text/css'>
<![CDATA[
[data-mouse-over-selected='false'] { opacity: 0.7; }
[data-mouse-over-selected='true']  { opacity: 1.0; }
]]>
</style>
<script type="application/ecmascript"><![CDATA[
document.addEventListener('DOMContentLoaded', (event) => {
  highlightEdges();
  highlightAdjacentNodes();
});
]]></script>
</svg>
