<?xml version="1.0" encoding="UTF-8" standalone="no"?>
<!DOCTYPE svg PUBLIC "-//W3C//DTD SVG 1.1//EN"
 "http://www.w3.org/Graphics/SVG/1.1/DTD/svg11.dtd">
<!-- Generated by graphviz version 2.43.0 (0)
 -->
<!-- Title: inc/MockEpollWrapper.hpp Pages: 1 -->
<svg width="2432pt" height="95pt"
 viewBox="0.00 0.00 2432.00 95.00" xmlns="http://www.w3.org/2000/svg" xmlns:xlink="http://www.w3.org/1999/xlink">
<g id="graph0" class="graph" transform="scale(1 1) rotate(0) translate(4 91)">
<title>inc/MockEpollWrapper.hpp</title>
<!-- Node1 -->
<g id="node1" class="node">
<title>Node1</title>
<g id="a_node1"><a xlink:title=" ">
<polygon fill="#bfbfbf" stroke="black" points="1144.5,-67.5 1144.5,-86.5 1290.5,-86.5 1290.5,-67.5 1144.5,-67.5"/>
<text text-anchor="middle" x="1217.5" y="-74.5" font-family="Helvetica,sans-Serif" font-size="10.00">inc/MockEpollWrapper.hpp</text>
</a>
</g>
</g>
<!-- Node2 -->
<g id="node2" class="node">
<title>Node2</title>
<g id="a_node2"><a xlink:href="test__accept_connections_8cpp.html" target="_top" xlink:title=" ">
<polygon fill="none" stroke="black" points="0,-6 0,-25 175,-25 175,-6 0,-6"/>
<text text-anchor="middle" x="87.5" y="-13" font-family="Helvetica,sans-Serif" font-size="10.00">test/test_acceptConnections.cpp</text>
</a>
</g>
</g>
<!-- Node1&#45;&gt;Node2 -->
<g id="edge1" class="edge">
<title>Node1&#45;&gt;Node2</title>
<path fill="none" stroke="midnightblue" d="M1134.06,-75.38C958,-73.4 535.74,-65.17 183.5,-31 168.4,-29.54 152.05,-27.31 137.2,-25.04"/>
<polygon fill="midnightblue" stroke="midnightblue" points="1134.25,-78.88 1144.29,-75.49 1134.33,-71.88 1134.25,-78.88"/>
</g>
<!-- Node3 -->
<g id="node3" class="node">
<title>Node3</title>
<g id="a_node3"><a xlink:href="test__check_for_timeout_8cpp.html" target="_top" xlink:title=" ">
<polygon fill="none" stroke="black" points="193,-6 193,-25 360,-25 360,-6 193,-6"/>
<text text-anchor="middle" x="276.5" y="-13" font-family="Helvetica,sans-Serif" font-size="10.00">test/test_checkForTimeout.cpp</text>
</a>
</g>
</g>
<!-- Node1&#45;&gt;Node3 -->
<g id="edge2" class="edge">
<title>Node1&#45;&gt;Node3</title>
<path fill="none" stroke="midnightblue" d="M1134.12,-74.44C981.72,-70.95 648.14,-60.37 368.5,-31 354.19,-29.5 338.71,-27.29 324.6,-25.04"/>
<polygon fill="midnightblue" stroke="midnightblue" points="1134.26,-77.94 1144.33,-74.67 1134.42,-70.94 1134.26,-77.94"/>
</g>
<!-- Node4 -->
<g id="node4" class="node">
<title>Node4</title>
<g id="a_node4"><a xlink:href="test__connection_receive_from_c_g_i_8cpp.html" target="_top" xlink:title=" ">
<polygon fill="none" stroke="black" points="378,-0.5 378,-30.5 533,-30.5 533,-0.5 378,-0.5"/>
<text text-anchor="start" x="386" y="-18.5" font-family="Helvetica,sans-Serif" font-size="10.00">test/test_connectionReceive</text>
<text text-anchor="middle" x="455.5" y="-7.5" font-family="Helvetica,sans-Serif" font-size="10.00">FromCGI.cpp</text>
</a>
</g>
</g>
<!-- Node1&#45;&gt;Node4 -->
<g id="edge3" class="edge">
<title>Node1&#45;&gt;Node4</title>
<path fill="none" stroke="midnightblue" d="M1134.14,-73.15C1006.28,-68.17 754.19,-55.95 541.5,-31 538.79,-30.68 536.04,-30.34 533.27,-29.97"/>
<polygon fill="midnightblue" stroke="midnightblue" points="1134.13,-76.65 1144.25,-73.54 1134.4,-69.66 1134.13,-76.65"/>
</g>
<!-- Node5 -->
<g id="node5" class="node">
<title>Node5</title>
<g id="a_node5"><a xlink:href="test__connection_receive_header_8cpp.html" target="_top" xlink:title=" ">
<polygon fill="none" stroke="black" points="551,-0.5 551,-30.5 706,-30.5 706,-0.5 551,-0.5"/>
<text text-anchor="start" x="559" y="-18.5" font-family="Helvetica,sans-Serif" font-size="10.00">test/test_connectionReceive</text>
<text text-anchor="middle" x="628.5" y="-7.5" font-family="Helvetica,sans-Serif" font-size="10.00">Header.cpp</text>
</a>
</g>
</g>
<!-- Node1&#45;&gt;Node5 -->
<g id="edge4" class="edge">
<title>Node1&#45;&gt;Node5</title>
<path fill="none" stroke="midnightblue" d="M1134.13,-70.47C1034.36,-63.4 862.35,-49.79 715.5,-31 712.46,-30.61 709.37,-30.19 706.25,-29.76"/>
<polygon fill="midnightblue" stroke="midnightblue" points="1133.93,-73.96 1144.15,-71.17 1134.42,-66.98 1133.93,-73.96"/>
</g>
<!-- Node6 -->
<g id="node6" class="node">
<title>Node6</title>
<g id="a_node6"><a xlink:href="test__connection_send_response_8cpp.html" target="_top" xlink:title=" ">
<polygon fill="none" stroke="black" points="724.5,-0.5 724.5,-30.5 864.5,-30.5 864.5,-0.5 724.5,-0.5"/>
<text text-anchor="start" x="732.5" y="-18.5" font-family="Helvetica,sans-Serif" font-size="10.00">test/test_connectionSend</text>
<text text-anchor="middle" x="794.5" y="-7.5" font-family="Helvetica,sans-Serif" font-size="10.00">Response.cpp</text>
</a>
</g>
</g>
<!-- Node1&#45;&gt;Node6 -->
<g id="edge5" class="edge">
<title>Node1&#45;&gt;Node6</title>
<path fill="none" stroke="midnightblue" d="M1134.14,-66.31C1064.37,-57.91 962.25,-44.94 873.5,-31 870.61,-30.55 867.66,-30.07 864.68,-29.57"/>
<polygon fill="midnightblue" stroke="midnightblue" points="1133.85,-69.8 1144.2,-67.52 1134.69,-62.85 1133.85,-69.8"/>
</g>
<!-- Node7 -->
<g id="node7" class="node">
<title>Node7</title>
<g id="a_node7"><a xlink:href="test__connection_send_to_c_g_i_8cpp.html" target="_top" xlink:title=" ">
<polygon fill="none" stroke="black" points="882.5,-0.5 882.5,-30.5 1022.5,-30.5 1022.5,-0.5 882.5,-0.5"/>
<text text-anchor="start" x="890.5" y="-18.5" font-family="Helvetica,sans-Serif" font-size="10.00">test/test_connectionSend</text>
<text text-anchor="middle" x="952.5" y="-7.5" font-family="Helvetica,sans-Serif" font-size="10.00">ToCGI.cpp</text>
</a>
</g>
</g>
<!-- Node1&#45;&gt;Node7 -->
<g id="edge6" class="edge">
<title>Node1&#45;&gt;Node7</title>
<path fill="none" stroke="midnightblue" d="M1169.53,-65.23C1126.23,-55.51 1062.24,-41.14 1014.96,-30.52"/>
<polygon fill="midnightblue" stroke="midnightblue" points="1169.01,-68.7 1179.53,-67.48 1170.54,-61.87 1169.01,-68.7"/>
</g>
<!-- Node8 -->
<g id="node8" class="node">
<title>Node8</title>
<g id="a_node8"><a xlink:href="test__create_virtual_server_8cpp.html" target="_top" xlink:title=" ">
<polygon fill="none" stroke="black" points="1040.5,-6 1040.5,-25 1216.5,-25 1216.5,-6 1040.5,-6"/>
<text text-anchor="middle" x="1128.5" y="-13" font-family="Helvetica,sans-Serif" font-size="10.00">test/test_createVirtualServer.cpp</text>
</a>
</g>
</g>
<!-- Node1&#45;&gt;Node8 -->
<g id="edge7" class="edge">
<title>Node1&#45;&gt;Node8</title>
<path fill="none" stroke="midnightblue" d="M1195.98,-61.61C1178.86,-50.17 1155.49,-34.55 1141.23,-25.01"/>
<polygon fill="midnightblue" stroke="midnightblue" points="1194.49,-64.83 1204.75,-67.48 1198.38,-59.01 1194.49,-64.83"/>
</g>
<!-- Node9 -->
<g id="node9" class="node">
<title>Node9</title>
<g id="a_node9"><a xlink:href="test__handle_complete_request_header_8cpp.html" target="_top" xlink:title=" ">
<polygon fill="none" stroke="black" points="1235,-0.5 1235,-30.5 1378,-30.5 1378,-0.5 1235,-0.5"/>
<text text-anchor="start" x="1243" y="-18.5" font-family="Helvetica,sans-Serif" font-size="10.00">test/test_handleComplete</text>
<text text-anchor="middle" x="1306.5" y="-7.5" font-family="Helvetica,sans-Serif" font-size="10.00">RequestHeader.cpp</text>
</a>
</g>
</g>
<!-- Node1&#45;&gt;Node9 -->
<g id="edge8" class="edge">
<title>Node1&#45;&gt;Node9</title>
<path fill="none" stroke="midnightblue" d="M1238.83,-61.74C1252.98,-52.28 1271.45,-39.93 1285.52,-30.52"/>
<polygon fill="midnightblue" stroke="midnightblue" points="1236.62,-59.01 1230.25,-67.48 1240.51,-64.83 1236.62,-59.01"/>
</g>
<!-- Node10 -->
<g id="node10" class="node">
<title>Node10</title>
<g id="a_node10"><a xlink:href="test__init_virtual_servers_8cpp.html" target="_top" xlink:title=" ">
<polygon fill="none" stroke="black" points="1396,-6 1396,-25 1563,-25 1563,-6 1396,-6"/>
<text text-anchor="middle" x="1479.5" y="-13" font-family="Helvetica,sans-Serif" font-size="10.00">test/test_initVirtualServers.cpp</text>
</a>
</g>
</g>
<!-- Node1&#45;&gt;Node10 -->
<g id="edge9" class="edge">
<title>Node1&#45;&gt;Node10</title>
<path fill="none" stroke="midnightblue" d="M1264.8,-65.26C1315.62,-53.72 1395.37,-35.61 1442.03,-25.01"/>
<polygon fill="midnightblue" stroke="midnightblue" points="1264.01,-61.85 1255.04,-67.48 1265.57,-68.67 1264.01,-61.85"/>
</g>
<!-- Node11 -->
<g id="node11" class="node">
<title>Node11</title>
<g id="a_node11"><a xlink:href="test__is_duplicate_server_8cpp.html" target="_top" xlink:title=" ">
<polygon fill="none" stroke="black" points="1580.5,-6 1580.5,-25 1748.5,-25 1748.5,-6 1580.5,-6"/>
<text text-anchor="middle" x="1664.5" y="-13" font-family="Helvetica,sans-Serif" font-size="10.00">test/test_isDuplicateServer.cpp</text>
</a>
</g>
</g>
<!-- Node1&#45;&gt;Node11 -->
<g id="edge10" class="edge">
<title>Node1&#45;&gt;Node11</title>
<path fill="none" stroke="midnightblue" d="M1300.36,-66.22C1372.37,-57.54 1479.43,-44.23 1572.5,-31 1585.31,-29.18 1599.09,-27.08 1612,-25.06"/>
<polygon fill="midnightblue" stroke="midnightblue" points="1299.51,-62.79 1290,-67.46 1300.34,-69.74 1299.51,-62.79"/>
</g>
<!-- Node12 -->
<g id="node12" class="node">
<title>Node12</title>
<g id="a_node12"><a xlink:href="test__register_c_g_i_file_descriptor_8cpp.html" target="_top" xlink:title=" ">
<polygon fill="none" stroke="black" points="1766.5,-0.5 1766.5,-30.5 1900.5,-30.5 1900.5,-0.5 1766.5,-0.5"/>
<text text-anchor="start" x="1774.5" y="-18.5" font-family="Helvetica,sans-Serif" font-size="10.00">test/test_registerCGIFile</text>
<text text-anchor="middle" x="1833.5" y="-7.5" font-family="Helvetica,sans-Serif" font-size="10.00">Descriptor.cpp</text>
</a>
</g>
</g>
<!-- Node1&#45;&gt;Node12 -->
<g id="edge11" class="edge">
<title>Node1&#45;&gt;Node12</title>
<path fill="none" stroke="midnightblue" d="M1300.72,-71.79C1407.03,-65.79 1596.55,-53 1757.5,-31 1760.43,-30.6 1763.41,-30.16 1766.43,-29.69"/>
<polygon fill="midnightblue" stroke="midnightblue" points="1300.49,-68.3 1290.7,-72.35 1300.88,-75.29 1300.49,-68.3"/>
</g>
<!-- Node13 -->
<g id="node13" class="node">
<title>Node13</title>
<g id="a_node13"><a xlink:href="test__register_connection_8cpp.html" target="_top" xlink:title=" ">
<polygon fill="none" stroke="black" points="1919,-6 1919,-25 2094,-25 2094,-6 1919,-6"/>
<text text-anchor="middle" x="2006.5" y="-13" font-family="Helvetica,sans-Serif" font-size="10.00">test/test_registerConnection.cpp</text>
</a>
</g>
</g>
<!-- Node1&#45;&gt;Node13 -->
<g id="edge12" class="edge">
<title>Node1&#45;&gt;Node13</title>
<path fill="none" stroke="midnightblue" d="M1300.95,-72.82C1431.17,-67.36 1690.53,-54.44 1909.5,-31 1924.31,-29.41 1940.33,-27.22 1955,-25.01"/>
<polygon fill="midnightblue" stroke="midnightblue" points="1300.5,-69.34 1290.65,-73.25 1300.79,-76.33 1300.5,-69.34"/>
</g>
<!-- Node14 -->
<g id="node14" class="node">
<title>Node14</title>
<g id="a_node14"><a xlink:href="test__register_virtual_server_8cpp.html" target="_top" xlink:title=" ">
<polygon fill="none" stroke="black" points="2112.5,-0.5 2112.5,-30.5 2244.5,-30.5 2244.5,-0.5 2112.5,-0.5"/>
<text text-anchor="start" x="2120.5" y="-18.5" font-family="Helvetica,sans-Serif" font-size="10.00">test/test_registerVirtual</text>
<text text-anchor="middle" x="2178.5" y="-7.5" font-family="Helvetica,sans-Serif" font-size="10.00">Server.cpp</text>
</a>
</g>
</g>
<!-- Node1&#45;&gt;Node14 -->
<g id="edge13" class="edge">
<title>Node1&#45;&gt;Node14</title>
<path fill="none" stroke="midnightblue" d="M1300.81,-75.65C1458.22,-74.14 1809.89,-66.66 2103.5,-31 2106.4,-30.65 2109.35,-30.25 2112.33,-29.82"/>
<polygon fill="midnightblue" stroke="midnightblue" points="1300.7,-72.16 1290.73,-75.75 1300.76,-79.16 1300.7,-72.16"/>
</g>
<!-- Node15 -->
<g id="node15" class="node">
<title>Node15</title>
<g id="a_node15"><a xlink:href="test__shutdown_server_8cpp.html" target="_top" xlink:title=" ">
<polygon fill="none" stroke="black" points="2263,-6 2263,-25 2424,-25 2424,-6 2263,-6"/>
<text text-anchor="middle" x="2343.5" y="-13" font-family="Helvetica,sans-Serif" font-size="10.00">test/test_shutdownServer.cpp</text>
</a>
</g>
</g>
<!-- Node1&#45;&gt;Node15 -->
<g id="edge14" class="edge">
<title>Node1&#45;&gt;Node15</title>
<path fill="none" stroke="midnightblue" d="M1300.8,-75.66C1477.05,-74.23 1900.53,-66.98 2253.5,-31 2267.67,-29.56 2283,-27.33 2296.92,-25.06"/>
<polygon fill="midnightblue" stroke="midnightblue" points="1300.53,-72.17 1290.56,-75.74 1300.59,-79.16 1300.53,-72.17"/>
</g>
</g>
</svg>
