<?xml version="1.0" encoding="UTF-8" standalone="no"?>
<!DOCTYPE svg PUBLIC "-//W3C//DTD SVG 1.1//EN"
 "http://www.w3.org/Graphics/SVG/1.1/DTD/svg11.dtd">
<!-- Generated by graphviz version 2.43.0 (0)
 -->
<!-- Title: inc/MockSocketPolicy.hpp Pages: 1 -->
<svg width="1303pt" height="357pt"
 viewBox="0.00 0.00 1302.50 357.00" xmlns="http://www.w3.org/2000/svg" xmlns:xlink="http://www.w3.org/1999/xlink">
<g id="graph0" class="graph" transform="scale(1 1) rotate(0) translate(4 353)">
<title>inc/MockSocketPolicy.hpp</title>
<!-- Node1 -->
<g id="Node000001" class="node">
<title>Node1</title>
<g id="a_Node000001"><a xlink:title=" ">
<polygon fill="#999999" stroke="#666666" points="857.5,-349 716.5,-349 716.5,-330 857.5,-330 857.5,-349"/>
<text text-anchor="middle" x="787" y="-337" font-family="Helvetica,sans-Serif" font-size="10.00">inc/MockSocketPolicy.hpp</text>
</a>
</g>
</g>
<!-- Node2 -->
<g id="Node000002" class="node">
<title>Node2</title>
<g id="a_Node000002"><a xlink:title=" ">
<polygon fill="#e0e0e0" stroke="#999999" points="729.5,-294 634.5,-294 634.5,-275 729.5,-275 729.5,-294"/>
<text text-anchor="middle" x="682" y="-282" font-family="Helvetica,sans-Serif" font-size="10.00">gmock/gmock.h</text>
</a>
</g>
</g>
<!-- Node1&#45;&gt;Node2 -->
<g id="edge1_Node000001_Node000002" class="edge">
<title>Node1&#45;&gt;Node2</title>
<g id="a_edge1_Node000001_Node000002"><a xlink:title=" ">
<path fill="none" stroke="#63b8ff" d="M770.13,-329.98C753.39,-321.54 727.5,-308.47 708.11,-298.68"/>
<polygon fill="#63b8ff" stroke="#63b8ff" points="709.68,-295.55 699.18,-294.17 706.53,-301.8 709.68,-295.55"/>
</a>
</g>
</g>
<!-- Node3 -->
<g id="Node000003" class="node">
<title>Node3</title>
<g id="a_Node000003"><a xlink:title=" ">
<polygon fill="#e0e0e0" stroke="#999999" points="826,-294 748,-294 748,-275 826,-275 826,-294"/>
<text text-anchor="middle" x="787" y="-282" font-family="Helvetica,sans-Serif" font-size="10.00">gtest/gtest.h</text>
</a>
</g>
</g>
<!-- Node1&#45;&gt;Node3 -->
<g id="edge2_Node000001_Node000003" class="edge">
<title>Node1&#45;&gt;Node3</title>
<g id="a_edge2_Node000001_Node000003"><a xlink:title=" ">
<path fill="none" stroke="#63b8ff" d="M787,-329.75C787,-322.8 787,-312.85 787,-304.13"/>
<polygon fill="#63b8ff" stroke="#63b8ff" points="790.5,-304.09 787,-294.09 783.5,-304.09 790.5,-304.09"/>
</a>
</g>
</g>
<!-- Node4 -->
<g id="Node000004" class="node">
<title>Node4</title>
<g id="a_Node000004"><a xlink:href="_socket_policy_8hpp.html" target="_top" xlink:title=" ">
<polygon fill="white" stroke="#666666" points="942,-294 844,-294 844,-275 942,-275 942,-294"/>
<text text-anchor="middle" x="893" y="-282" font-family="Helvetica,sans-Serif" font-size="10.00">SocketPolicy.hpp</text>
</a>
</g>
</g>
<!-- Node1&#45;&gt;Node4 -->
<g id="edge3_Node000001_Node000004" class="edge">
<title>Node1&#45;&gt;Node4</title>
<g id="a_edge3_Node000001_Node000004"><a xlink:title=" ">
<path fill="none" stroke="#63b8ff" d="M804.03,-329.98C820.93,-321.54 847.06,-308.47 866.64,-298.68"/>
<polygon fill="#63b8ff" stroke="#63b8ff" points="868.28,-301.77 875.66,-294.17 865.15,-295.51 868.28,-301.77"/>
</a>
</g>
</g>
<!-- Node5 -->
<g id="Node000005" class="node">
<title>Node5</title>
<g id="a_Node000005"><a xlink:href="_log_8hpp.html" target="_top" xlink:title=" ">
<polygon fill="white" stroke="#666666" points="503.5,-239 448.5,-239 448.5,-220 503.5,-220 503.5,-239"/>
<text text-anchor="middle" x="476" y="-227" font-family="Helvetica,sans-Serif" font-size="10.00">Log.hpp</text>
</a>
</g>
</g>
<!-- Node4&#45;&gt;Node5 -->
<g id="edge4_Node000004_Node000005" class="edge">
<title>Node4&#45;&gt;Node5</title>
<g id="a_edge4_Node000004_Node000005"><a xlink:title=" ">
<path fill="none" stroke="#63b8ff" d="M843.96,-276.24C840.93,-275.81 837.92,-275.4 835,-275 717.97,-259.17 579.18,-242.59 513.73,-234.9"/>
<polygon fill="#63b8ff" stroke="#63b8ff" points="513.84,-231.39 503.5,-233.7 513.02,-238.34 513.84,-231.39"/>
</a>
</g>
</g>
<!-- Node13 -->
<g id="Node000013" class="node">
<title>Node13</title>
<g id="a_Node000013"><a xlink:title=" ">
<polygon fill="#e0e0e0" stroke="#999999" points="371,-19 327,-19 327,0 371,0 371,-19"/>
<text text-anchor="middle" x="349" y="-7" font-family="Helvetica,sans-Serif" font-size="10.00">string</text>
</a>
</g>
</g>
<!-- Node4&#45;&gt;Node13 -->
<g id="edge41_Node000004_Node000013" class="edge">
<title>Node4&#45;&gt;Node13</title>
<g id="a_edge41_Node000004_Node000013"><a xlink:title=" ">
<path fill="none" stroke="#63b8ff" d="M843.98,-276.12C840.94,-275.73 837.93,-275.35 835,-275 752.94,-265.26 98,-258.13 98,-175.5 98,-175.5 98,-175.5 98,-118.5 98,-24.39 248.74,-11.28 316.58,-10.15"/>
<polygon fill="#63b8ff" stroke="#63b8ff" points="316.76,-13.65 326.73,-10.06 316.69,-6.65 316.76,-13.65"/>
</a>
</g>
</g>
<!-- Node18 -->
<g id="Node000018" class="node">
<title>Node18</title>
<g id="a_Node000018"><a xlink:href="_socket_8hpp.html" target="_top" xlink:title=" ">
<polygon fill="white" stroke="#666666" points="70,-74 0,-74 0,-55 70,-55 70,-74"/>
<text text-anchor="middle" x="35" y="-62" font-family="Helvetica,sans-Serif" font-size="10.00">Socket.hpp</text>
</a>
</g>
</g>
<!-- Node4&#45;&gt;Node18 -->
<g id="edge22_Node000004_Node000018" class="edge">
<title>Node4&#45;&gt;Node18</title>
<g id="a_edge22_Node000004_Node000018"><a xlink:title=" ">
<path fill="none" stroke="#63b8ff" d="M843.99,-275.97C840.95,-275.61 837.94,-275.28 835,-275 751.85,-266.93 149.39,-290.99 84,-239 36.47,-201.21 32.84,-121.06 33.87,-84.45"/>
<polygon fill="#63b8ff" stroke="#63b8ff" points="37.37,-84.35 34.31,-74.2 30.38,-84.04 37.37,-84.35"/>
</a>
</g>
</g>
<!-- Node19 -->
<g id="Node000019" class="node">
<title>Node19</title>
<g id="a_Node000019"><a xlink:href="utilities_8hpp.html" target="_top" xlink:title=" ">
<polygon fill="white" stroke="#666666" points="827,-239 753,-239 753,-220 827,-220 827,-239"/>
<text text-anchor="middle" x="790" y="-227" font-family="Helvetica,sans-Serif" font-size="10.00">utilities.hpp</text>
</a>
</g>
</g>
<!-- Node4&#45;&gt;Node19 -->
<g id="edge24_Node000004_Node000019" class="edge">
<title>Node4&#45;&gt;Node19</title>
<g id="a_edge24_Node000004_Node000019"><a xlink:title=" ">
<path fill="none" stroke="#63b8ff" d="M876.45,-274.98C860.11,-266.57 834.87,-253.59 815.87,-243.81"/>
<polygon fill="#63b8ff" stroke="#63b8ff" points="817.34,-240.63 806.85,-239.17 814.14,-246.86 817.34,-240.63"/>
</a>
</g>
</g>
<!-- Node24 -->
<g id="Node000024" class="node">
<title>Node24</title>
<g id="a_Node000024"><a xlink:title=" ">
<polygon fill="#e0e0e0" stroke="#999999" points="1104,-184 1052,-184 1052,-165 1104,-165 1104,-184"/>
<text text-anchor="middle" x="1078" y="-172" font-family="Helvetica,sans-Serif" font-size="10.00">cassert</text>
</a>
</g>
</g>
<!-- Node4&#45;&gt;Node24 -->
<g id="edge36_Node000004_Node000024" class="edge">
<title>Node4&#45;&gt;Node24</title>
<g id="a_edge36_Node000004_Node000024"><a xlink:title=" ">
<path fill="none" stroke="#63b8ff" d="M886.94,-274.66C878.63,-261.35 866.12,-236.01 879,-220 923.85,-164.24 966.64,-197.77 1041.82,-184"/>
<polygon fill="#63b8ff" stroke="#63b8ff" points="1042.56,-187.42 1051.64,-181.97 1041.14,-180.57 1042.56,-187.42"/>
</a>
</g>
</g>
<!-- Node25 -->
<g id="Node000025" class="node">
<title>Node25</title>
<g id="a_Node000025"><a xlink:title=" ">
<polygon fill="#e0e0e0" stroke="#999999" points="1178,-184 1122,-184 1122,-165 1178,-165 1178,-184"/>
<text text-anchor="middle" x="1150" y="-172" font-family="Helvetica,sans-Serif" font-size="10.00">unistd.h</text>
</a>
</g>
</g>
<!-- Node4&#45;&gt;Node25 -->
<g id="edge43_Node000004_Node000025" class="edge">
<title>Node4&#45;&gt;Node25</title>
<g id="a_edge43_Node000004_Node000025"><a xlink:title=" ">
<path fill="none" stroke="#63b8ff" d="M893.07,-274.59C893.69,-260.71 897.04,-234.05 913,-220 978.41,-162.42 1021.41,-199.3 1111.69,-184.02"/>
<polygon fill="#63b8ff" stroke="#63b8ff" points="1112.56,-187.42 1121.75,-182.14 1111.27,-180.54 1112.56,-187.42"/>
</a>
</g>
</g>
<!-- Node26 -->
<g id="Node000026" class="node">
<title>Node26</title>
<g id="a_Node000026"><a xlink:title=" ">
<polygon fill="#e0e0e0" stroke="#999999" points="968.5,-239 921.5,-239 921.5,-220 968.5,-220 968.5,-239"/>
<text text-anchor="middle" x="945" y="-227" font-family="Helvetica,sans-Serif" font-size="10.00">cerrno</text>
</a>
</g>
</g>
<!-- Node4&#45;&gt;Node26 -->
<g id="edge37_Node000004_Node000026" class="edge">
<title>Node4&#45;&gt;Node26</title>
<g id="a_edge37_Node000004_Node000026"><a xlink:title=" ">
<path fill="none" stroke="#63b8ff" d="M901.59,-274.75C909.16,-267.03 920.38,-255.6 929.51,-246.28"/>
<polygon fill="#63b8ff" stroke="#63b8ff" points="932.07,-248.68 936.57,-239.09 927.07,-243.78 932.07,-248.68"/>
</a>
</g>
</g>
<!-- Node27 -->
<g id="Node000027" class="node">
<title>Node27</title>
<g id="a_Node000027"><a xlink:title=" ">
<polygon fill="#e0e0e0" stroke="#999999" points="1037,-239 987,-239 987,-220 1037,-220 1037,-239"/>
<text text-anchor="middle" x="1012" y="-227" font-family="Helvetica,sans-Serif" font-size="10.00">cstring</text>
</a>
</g>
</g>
<!-- Node4&#45;&gt;Node27 -->
<g id="edge38_Node000004_Node000027" class="edge">
<title>Node4&#45;&gt;Node27</title>
<g id="a_edge38_Node000004_Node000027"><a xlink:title=" ">
<path fill="none" stroke="#63b8ff" d="M912.12,-274.98C931.35,-266.42 961.23,-253.11 983.31,-243.28"/>
<polygon fill="#63b8ff" stroke="#63b8ff" points="984.82,-246.44 992.53,-239.17 981.97,-240.04 984.82,-246.44"/>
</a>
</g>
</g>
<!-- Node28 -->
<g id="Node000028" class="node">
<title>Node28</title>
<g id="a_Node000028"><a xlink:title=" ">
<polygon fill="#e0e0e0" stroke="#999999" points="1108.5,-239 1055.5,-239 1055.5,-220 1108.5,-220 1108.5,-239"/>
<text text-anchor="middle" x="1082" y="-227" font-family="Helvetica,sans-Serif" font-size="10.00">netdb.h</text>
</a>
</g>
</g>
<!-- Node4&#45;&gt;Node28 -->
<g id="edge39_Node000004_Node000028" class="edge">
<title>Node4&#45;&gt;Node28</title>
<g id="a_edge39_Node000004_Node000028"><a xlink:title=" ">
<path fill="none" stroke="#63b8ff" d="M923.37,-274.98C956.61,-265.66 1009.89,-250.72 1045.41,-240.76"/>
<polygon fill="#63b8ff" stroke="#63b8ff" points="1046.69,-244.04 1055.37,-237.97 1044.8,-237.3 1046.69,-244.04"/>
</a>
</g>
</g>
<!-- Node29 -->
<g id="Node000029" class="node">
<title>Node29</title>
<g id="a_Node000029"><a xlink:title=" ">
<polygon fill="#e0e0e0" stroke="#999999" points="1199,-239 1127,-239 1127,-220 1199,-220 1199,-239"/>
<text text-anchor="middle" x="1163" y="-227" font-family="Helvetica,sans-Serif" font-size="10.00">netinet/in.h</text>
</a>
</g>
</g>
<!-- Node4&#45;&gt;Node29 -->
<g id="edge40_Node000004_Node000029" class="edge">
<title>Node4&#45;&gt;Node29</title>
<g id="a_edge40_Node000004_Node000029"><a xlink:title=" ">
<path fill="none" stroke="#63b8ff" d="M936.38,-274.98C985.75,-265.29 1066.07,-249.53 1116.64,-239.6"/>
<polygon fill="#63b8ff" stroke="#63b8ff" points="1117.51,-243 1126.65,-237.63 1116.17,-236.13 1117.51,-243"/>
</a>
</g>
</g>
<!-- Node30 -->
<g id="Node000030" class="node">
<title>Node30</title>
<g id="a_Node000030"><a xlink:title=" ">
<polygon fill="#e0e0e0" stroke="#999999" points="1294.5,-239 1217.5,-239 1217.5,-220 1294.5,-220 1294.5,-239"/>
<text text-anchor="middle" x="1256" y="-227" font-family="Helvetica,sans-Serif" font-size="10.00">sys/socket.h</text>
</a>
</g>
</g>
<!-- Node4&#45;&gt;Node30 -->
<g id="edge42_Node000004_Node000030" class="edge">
<title>Node4&#45;&gt;Node30</title>
<g id="a_edge42_Node000004_Node000030"><a xlink:title=" ">
<path fill="none" stroke="#63b8ff" d="M942.19,-277.09C1002.24,-269.15 1107.15,-254.89 1207.26,-239.07"/>
<polygon fill="#63b8ff" stroke="#63b8ff" points="1207.92,-242.51 1217.25,-237.48 1206.82,-235.59 1207.92,-242.51"/>
</a>
</g>
</g>
<!-- Node6 -->
<g id="Node000006" class="node">
<title>Node6</title>
<g id="a_Node000006"><a xlink:href="_log_outputter_console_8hpp.html" target="_top" xlink:title=" ">
<polygon fill="white" stroke="#666666" points="266,-184 126,-184 126,-165 266,-165 266,-184"/>
<text text-anchor="middle" x="196" y="-172" font-family="Helvetica,sans-Serif" font-size="10.00">LogOutputterConsole.hpp</text>
</a>
</g>
</g>
<!-- Node5&#45;&gt;Node6 -->
<g id="edge5_Node000005_Node000006" class="edge">
<title>Node5&#45;&gt;Node6</title>
<g id="a_edge5_Node000005_Node000006"><a xlink:title=" ">
<path fill="none" stroke="#63b8ff" d="M448.39,-223.27C402.67,-214.62 310.43,-197.16 251.02,-185.92"/>
<polygon fill="#63b8ff" stroke="#63b8ff" points="251.53,-182.45 241.06,-184.03 250.23,-189.33 251.53,-182.45"/>
</a>
</g>
</g>
<!-- Node14 -->
<g id="Node000014" class="node">
<title>Node14</title>
<g id="a_Node000014"><a xlink:href="_log_outputter_file_8hpp.html" target="_top" xlink:title=" ">
<polygon fill="white" stroke="#666666" points="403.5,-184 284.5,-184 284.5,-165 403.5,-165 403.5,-184"/>
<text text-anchor="middle" x="344" y="-172" font-family="Helvetica,sans-Serif" font-size="10.00">LogOutputterFile.hpp</text>
</a>
</g>
</g>
<!-- Node5&#45;&gt;Node14 -->
<g id="edge13_Node000005_Node000014" class="edge">
<title>Node5&#45;&gt;Node14</title>
<g id="a_edge13_Node000005_Node000014"><a xlink:title=" ">
<path fill="none" stroke="#63b8ff" d="M454.79,-219.98C433.27,-211.34 399.72,-197.87 375.17,-188.02"/>
<polygon fill="#63b8ff" stroke="#63b8ff" points="376.18,-184.65 365.59,-184.17 373.57,-191.14 376.18,-184.65"/>
</a>
</g>
</g>
<!-- Node16 -->
<g id="Node000016" class="node">
<title>Node16</title>
<g id="a_Node000016"><a xlink:href="_logger_8hpp.html" target="_top" xlink:title=" ">
<polygon fill="white" stroke="#666666" points="642,-184 572,-184 572,-165 642,-165 642,-184"/>
<text text-anchor="middle" x="607" y="-172" font-family="Helvetica,sans-Serif" font-size="10.00">Logger.hpp</text>
</a>
</g>
</g>
<!-- Node5&#45;&gt;Node16 -->
<g id="edge17_Node000005_Node000016" class="edge">
<title>Node5&#45;&gt;Node16</title>
<g id="a_edge17_Node000005_Node000016"><a xlink:title=" ">
<path fill="none" stroke="#63b8ff" d="M497.05,-219.98C518.41,-211.34 551.7,-197.87 576.06,-188.02"/>
<polygon fill="#63b8ff" stroke="#63b8ff" points="577.61,-191.17 585.57,-184.17 574.99,-184.68 577.61,-191.17"/>
</a>
</g>
</g>
<!-- Node7 -->
<g id="Node000007" class="node">
<title>Node7</title>
<g id="a_Node000007"><a xlink:title=" ">
<polygon fill="#e0e0e0" stroke="#999999" points="432,-129 372,-129 372,-110 432,-110 432,-129"/>
<text text-anchor="middle" x="402" y="-117" font-family="Helvetica,sans-Serif" font-size="10.00">iostream</text>
</a>
</g>
</g>
<!-- Node6&#45;&gt;Node7 -->
<g id="edge6_Node000006_Node000007" class="edge">
<title>Node6&#45;&gt;Node7</title>
<g id="a_edge6_Node000006_Node000007"><a xlink:title=" ">
<path fill="none" stroke="#63b8ff" d="M229.1,-164.98C265.33,-155.66 323.4,-140.72 362.11,-130.76"/>
<polygon fill="#63b8ff" stroke="#63b8ff" points="363.19,-134.1 372,-128.22 361.44,-127.32 363.19,-134.1"/>
</a>
</g>
</g>
<!-- Node8 -->
<g id="Node000008" class="node">
<title>Node8</title>
<g id="a_Node000008"><a xlink:title=" ">
<polygon fill="#e0e0e0" stroke="#999999" points="215,-129 177,-129 177,-110 215,-110 215,-129"/>
<text text-anchor="middle" x="196" y="-117" font-family="Helvetica,sans-Serif" font-size="10.00">map</text>
</a>
</g>
</g>
<!-- Node6&#45;&gt;Node8 -->
<g id="edge7_Node000006_Node000008" class="edge">
<title>Node6&#45;&gt;Node8</title>
<g id="a_edge7_Node000006_Node000008"><a xlink:title=" ">
<path fill="none" stroke="#63b8ff" d="M196,-164.75C196,-157.8 196,-147.85 196,-139.13"/>
<polygon fill="#63b8ff" stroke="#63b8ff" points="199.5,-139.09 196,-129.09 192.5,-139.09 199.5,-139.09"/>
</a>
</g>
</g>
<!-- Node9 -->
<g id="Node000009" class="node">
<title>Node9</title>
<g id="a_Node000009"><a xlink:href="_a_log_outputter_8hpp.html" target="_top" xlink:title=" ">
<polygon fill="white" stroke="#666666" points="557.5,-129 450.5,-129 450.5,-110 557.5,-110 557.5,-129"/>
<text text-anchor="middle" x="504" y="-117" font-family="Helvetica,sans-Serif" font-size="10.00">ALogOutputter.hpp</text>
</a>
</g>
</g>
<!-- Node6&#45;&gt;Node9 -->
<g id="edge8_Node000006_Node000009" class="edge">
<title>Node6&#45;&gt;Node9</title>
<g id="a_edge8_Node000006_Node000009"><a xlink:title=" ">
<path fill="none" stroke="#63b8ff" d="M245.49,-164.98C299.63,-155.67 386.4,-140.74 444.28,-130.78"/>
<polygon fill="#63b8ff" stroke="#63b8ff" points="445.12,-134.18 454.38,-129.04 443.93,-127.28 445.12,-134.18"/>
</a>
</g>
</g>
<!-- Node10 -->
<g id="Node000010" class="node">
<title>Node10</title>
<g id="a_Node000010"><a xlink:href="_log_data_8hpp.html" target="_top" xlink:title=" ">
<polygon fill="white" stroke="#666666" points="692,-74 614,-74 614,-55 692,-55 692,-74"/>
<text text-anchor="middle" x="653" y="-62" font-family="Helvetica,sans-Serif" font-size="10.00">LogData.hpp</text>
</a>
</g>
</g>
<!-- Node9&#45;&gt;Node10 -->
<g id="edge9_Node000009_Node000010" class="edge">
<title>Node9&#45;&gt;Node10</title>
<g id="a_edge9_Node000009_Node000010"><a xlink:title=" ">
<path fill="none" stroke="#63b8ff" d="M527.94,-109.98C552.56,-101.23 591.12,-87.51 618.92,-77.62"/>
<polygon fill="#63b8ff" stroke="#63b8ff" points="620.38,-80.82 628.62,-74.17 618.03,-74.22 620.38,-80.82"/>
</a>
</g>
</g>
<!-- Node11 -->
<g id="Node000011" class="node">
<title>Node11</title>
<g id="a_Node000011"><a xlink:title=" ">
<polygon fill="#e0e0e0" stroke="#999999" points="720,-19 676,-19 676,0 720,0 720,-19"/>
<text text-anchor="middle" x="698" y="-7" font-family="Helvetica,sans-Serif" font-size="10.00">ctime</text>
</a>
</g>
</g>
<!-- Node10&#45;&gt;Node11 -->
<g id="edge10_Node000010_Node000011" class="edge">
<title>Node10&#45;&gt;Node11</title>
<g id="a_edge10_Node000010_Node000011"><a xlink:title=" ">
<path fill="none" stroke="#63b8ff" d="M660.43,-54.75C666.85,-47.18 676.31,-36.05 684.12,-26.84"/>
<polygon fill="#63b8ff" stroke="#63b8ff" points="686.9,-28.98 690.71,-19.09 681.57,-24.45 686.9,-28.98"/>
</a>
</g>
</g>
<!-- Node12 -->
<g id="Node000012" class="node">
<title>Node12</title>
<g id="a_Node000012"><a xlink:title=" ">
<polygon fill="#e0e0e0" stroke="#999999" points="916,-19 860,-19 860,0 916,0 916,-19"/>
<text text-anchor="middle" x="888" y="-7" font-family="Helvetica,sans-Serif" font-size="10.00">sstream</text>
</a>
</g>
</g>
<!-- Node10&#45;&gt;Node12 -->
<g id="edge11_Node000010_Node000012" class="edge">
<title>Node10&#45;&gt;Node12</title>
<g id="a_edge11_Node000010_Node000012"><a xlink:title=" ">
<path fill="none" stroke="#63b8ff" d="M690.76,-54.98C734.48,-45.12 806.09,-28.97 849.94,-19.08"/>
<polygon fill="#63b8ff" stroke="#63b8ff" points="850.94,-22.45 859.92,-16.83 849.4,-15.62 850.94,-22.45"/>
</a>
</g>
</g>
<!-- Node10&#45;&gt;Node13 -->
<g id="edge12_Node000010_Node000013" class="edge">
<title>Node10&#45;&gt;Node13</title>
<g id="a_edge12_Node000010_Node000013"><a xlink:title=" ">
<path fill="none" stroke="#63b8ff" d="M613.88,-56.68C553.17,-46.09 437.41,-25.91 381.21,-16.12"/>
<polygon fill="#63b8ff" stroke="#63b8ff" points="381.57,-12.63 371.12,-14.36 380.37,-19.52 381.57,-12.63"/>
</a>
</g>
</g>
<!-- Node14&#45;&gt;Node7 -->
<g id="edge15_Node000014_Node000007" class="edge">
<title>Node14&#45;&gt;Node7</title>
<g id="a_edge15_Node000014_Node000007"><a xlink:title=" ">
<path fill="none" stroke="#63b8ff" d="M353.32,-164.98C361.81,-157.23 374.56,-145.58 384.88,-136.14"/>
<polygon fill="#63b8ff" stroke="#63b8ff" points="387.49,-138.5 392.51,-129.17 382.77,-133.33 387.49,-138.5"/>
</a>
</g>
</g>
<!-- Node14&#45;&gt;Node9 -->
<g id="edge16_Node000014_Node000009" class="edge">
<title>Node14&#45;&gt;Node9</title>
<g id="a_edge16_Node000014_Node000009"><a xlink:title=" ">
<path fill="none" stroke="#63b8ff" d="M369.71,-164.98C396.45,-156.13 438.53,-142.19 468.45,-132.28"/>
<polygon fill="#63b8ff" stroke="#63b8ff" points="469.7,-135.55 478.09,-129.08 467.5,-128.9 469.7,-135.55"/>
</a>
</g>
</g>
<!-- Node15 -->
<g id="Node000015" class="node">
<title>Node15</title>
<g id="a_Node000015"><a xlink:title=" ">
<polygon fill="#e0e0e0" stroke="#999999" points="353.5,-129 298.5,-129 298.5,-110 353.5,-110 353.5,-129"/>
<text text-anchor="middle" x="326" y="-117" font-family="Helvetica,sans-Serif" font-size="10.00">fstream</text>
</a>
</g>
</g>
<!-- Node14&#45;&gt;Node15 -->
<g id="edge14_Node000014_Node000015" class="edge">
<title>Node14&#45;&gt;Node15</title>
<g id="a_edge14_Node000014_Node000015"><a xlink:title=" ">
<path fill="none" stroke="#63b8ff" d="M341.03,-164.75C338.64,-157.72 335.21,-147.62 332.23,-138.84"/>
<polygon fill="#63b8ff" stroke="#63b8ff" points="335.45,-137.43 328.92,-129.09 328.82,-139.68 335.45,-137.43"/>
</a>
</g>
</g>
<!-- Node16&#45;&gt;Node9 -->
<g id="edge20_Node000016_Node000009" class="edge">
<title>Node16&#45;&gt;Node9</title>
<g id="a_edge20_Node000016_Node000009"><a xlink:title=" ">
<path fill="none" stroke="#63b8ff" d="M590.45,-164.98C574.11,-156.57 548.87,-143.59 529.87,-133.81"/>
<polygon fill="#63b8ff" stroke="#63b8ff" points="531.34,-130.63 520.85,-129.17 528.14,-136.86 531.34,-130.63"/>
</a>
</g>
</g>
<!-- Node16&#45;&gt;Node10 -->
<g id="edge21_Node000016_Node000010" class="edge">
<title>Node16&#45;&gt;Node10</title>
<g id="a_edge21_Node000016_Node000010"><a xlink:title=" ">
<path fill="none" stroke="#63b8ff" d="M610.76,-164.66C618.28,-147.01 635.29,-107.09 645.28,-83.64"/>
<polygon fill="#63b8ff" stroke="#63b8ff" points="648.61,-84.73 649.31,-74.16 642.17,-81.99 648.61,-84.73"/>
</a>
</g>
</g>
<!-- Node16&#45;&gt;Node13 -->
<g id="edge18_Node000016_Node000013" class="edge">
<title>Node16&#45;&gt;Node13</title>
<g id="a_edge18_Node000016_Node000013"><a xlink:title=" ">
<path fill="none" stroke="#63b8ff" d="M603.23,-164.57C597.16,-151.13 584.05,-125.63 566,-110 510.05,-61.55 426.56,-32.27 381.18,-19"/>
<polygon fill="#63b8ff" stroke="#63b8ff" points="381.87,-15.56 371.3,-16.19 379.96,-22.29 381.87,-15.56"/>
</a>
</g>
</g>
<!-- Node17 -->
<g id="Node000017" class="node">
<title>Node17</title>
<g id="a_Node000017"><a xlink:title=" ">
<polygon fill="#e0e0e0" stroke="#999999" points="738.5,-129 691.5,-129 691.5,-110 738.5,-110 738.5,-129"/>
<text text-anchor="middle" x="715" y="-117" font-family="Helvetica,sans-Serif" font-size="10.00">vector</text>
</a>
</g>
</g>
<!-- Node16&#45;&gt;Node17 -->
<g id="edge19_Node000016_Node000017" class="edge">
<title>Node16&#45;&gt;Node17</title>
<g id="a_edge19_Node000016_Node000017"><a xlink:title=" ">
<path fill="none" stroke="#63b8ff" d="M624.35,-164.98C641.57,-156.54 668.2,-143.47 688.15,-133.68"/>
<polygon fill="#63b8ff" stroke="#63b8ff" points="689.9,-136.72 697.33,-129.17 686.81,-130.43 689.9,-136.72"/>
</a>
</g>
</g>
<!-- Node18&#45;&gt;Node13 -->
<g id="edge23_Node000018_Node000013" class="edge">
<title>Node18&#45;&gt;Node13</title>
<g id="a_edge23_Node000018_Node000013"><a xlink:title=" ">
<path fill="none" stroke="#63b8ff" d="M70.06,-57.39C74.75,-56.59 79.49,-55.77 84,-55 167.93,-40.67 266.89,-24.16 316.78,-15.85"/>
<polygon fill="#63b8ff" stroke="#63b8ff" points="317.37,-19.3 326.66,-14.21 316.22,-12.4 317.37,-19.3"/>
</a>
</g>
</g>
<!-- Node19&#45;&gt;Node7 -->
<g id="edge32_Node000019_Node000007" class="edge">
<title>Node19&#45;&gt;Node7</title>
<g id="a_edge32_Node000019_Node000007"><a xlink:title=" ">
<path fill="none" stroke="#63b8ff" d="M752.94,-227.17C675.99,-223.84 501.81,-213.23 451,-184 432.76,-173.51 418.98,-153.27 410.75,-138.46"/>
<polygon fill="#63b8ff" stroke="#63b8ff" points="413.68,-136.5 405.95,-129.25 407.47,-139.74 413.68,-136.5"/>
</a>
</g>
</g>
<!-- Node19&#45;&gt;Node11 -->
<g id="edge31_Node000019_Node000011" class="edge">
<title>Node19&#45;&gt;Node11</title>
<g id="a_edge31_Node000019_Node000011"><a xlink:title=" ">
<path fill="none" stroke="#63b8ff" d="M786.88,-219.87C782.46,-207.65 774.12,-184.62 767,-165 758.13,-140.55 757.21,-133.92 747,-110 734.52,-80.74 717.74,-47.81 707.41,-28.13"/>
<polygon fill="#63b8ff" stroke="#63b8ff" points="710.42,-26.34 702.65,-19.14 704.23,-29.61 710.42,-26.34"/>
</a>
</g>
</g>
<!-- Node19&#45;&gt;Node12 -->
<g id="edge33_Node000019_Node000012" class="edge">
<title>Node19&#45;&gt;Node12</title>
<g id="a_edge33_Node000019_Node000012"><a xlink:title=" ">
<path fill="none" stroke="#63b8ff" d="M827.14,-224.31C852.59,-219.28 884.6,-208.25 901,-184 933.53,-135.91 909.89,-62.24 896.08,-28.5"/>
<polygon fill="#63b8ff" stroke="#63b8ff" points="899.18,-26.85 892.03,-19.03 892.75,-29.6 899.18,-26.85"/>
</a>
</g>
</g>
<!-- Node19&#45;&gt;Node17 -->
<g id="edge35_Node000019_Node000017" class="edge">
<title>Node19&#45;&gt;Node17</title>
<g id="a_edge35_Node000019_Node000017"><a xlink:title=" ">
<path fill="none" stroke="#63b8ff" d="M783.86,-219.66C771.38,-201.69 742.88,-160.64 726.72,-137.38"/>
<polygon fill="#63b8ff" stroke="#63b8ff" points="729.59,-135.38 721.01,-129.16 723.84,-139.37 729.59,-135.38"/>
</a>
</g>
</g>
<!-- Node20 -->
<g id="Node000020" class="node">
<title>Node20</title>
<g id="a_Node000020"><a xlink:href="_method_8hpp.html" target="_top" xlink:title=" ">
<polygon fill="white" stroke="#666666" points="892,-184 818,-184 818,-165 892,-165 892,-184"/>
<text text-anchor="middle" x="855" y="-172" font-family="Helvetica,sans-Serif" font-size="10.00">Method.hpp</text>
</a>
</g>
</g>
<!-- Node19&#45;&gt;Node20 -->
<g id="edge25_Node000019_Node000020" class="edge">
<title>Node19&#45;&gt;Node20</title>
<g id="a_edge25_Node000019_Node000020"><a xlink:title=" ">
<path fill="none" stroke="#63b8ff" d="M800.44,-219.98C810.15,-212.07 824.82,-200.11 836.5,-190.58"/>
<polygon fill="#63b8ff" stroke="#63b8ff" points="838.83,-193.2 844.37,-184.17 834.4,-187.78 838.83,-193.2"/>
</a>
</g>
</g>
<!-- Node21 -->
<g id="Node000021" class="node">
<title>Node21</title>
<g id="a_Node000021"><a xlink:href="_status_code_8hpp.html" target="_top" xlink:title=" ">
<polygon fill="white" stroke="#666666" points="553.5,-184 460.5,-184 460.5,-165 553.5,-165 553.5,-184"/>
<text text-anchor="middle" x="507" y="-172" font-family="Helvetica,sans-Serif" font-size="10.00">StatusCode.hpp</text>
</a>
</g>
</g>
<!-- Node19&#45;&gt;Node21 -->
<g id="edge26_Node000019_Node000021" class="edge">
<title>Node19&#45;&gt;Node21</title>
<g id="a_edge26_Node000019_Node000021"><a xlink:title=" ">
<path fill="none" stroke="#63b8ff" d="M752.71,-221.52C704.25,-212.44 619.18,-196.51 562.96,-185.98"/>
<polygon fill="#63b8ff" stroke="#63b8ff" points="563.29,-182.48 552.81,-184.08 562,-189.36 563.29,-182.48"/>
</a>
</g>
</g>
<!-- Node22 -->
<g id="Node000022" class="node">
<title>Node22</title>
<g id="a_Node000022"><a xlink:href="constants_8hpp.html" target="_top" xlink:title=" ">
<polygon fill="white" stroke="#666666" points="1033.5,-184 948.5,-184 948.5,-165 1033.5,-165 1033.5,-184"/>
<text text-anchor="middle" x="991" y="-172" font-family="Helvetica,sans-Serif" font-size="10.00">constants.hpp</text>
</a>
</g>
</g>
<!-- Node19&#45;&gt;Node22 -->
<g id="edge28_Node000019_Node000022" class="edge">
<title>Node19&#45;&gt;Node22</title>
<g id="a_edge28_Node000019_Node000022"><a xlink:title=" ">
<path fill="none" stroke="#63b8ff" d="M822.29,-219.98C856.62,-210.93 911.06,-196.58 948.77,-186.64"/>
<polygon fill="#63b8ff" stroke="#63b8ff" points="949.68,-190.02 958.45,-184.08 947.89,-183.25 949.68,-190.02"/>
</a>
</g>
</g>
<!-- Node23 -->
<g id="Node000023" class="node">
<title>Node23</title>
<g id="a_Node000023"><a xlink:title=" ">
<polygon fill="#e0e0e0" stroke="#999999" points="724,-184 660,-184 660,-165 724,-165 724,-184"/>
<text text-anchor="middle" x="692" y="-172" font-family="Helvetica,sans-Serif" font-size="10.00">algorithm</text>
</a>
</g>
</g>
<!-- Node19&#45;&gt;Node23 -->
<g id="edge29_Node000019_Node000023" class="edge">
<title>Node19&#45;&gt;Node23</title>
<g id="a_edge29_Node000019_Node000023"><a xlink:title=" ">
<path fill="none" stroke="#63b8ff" d="M774.25,-219.98C758.77,-211.61 734.91,-198.7 716.86,-188.95"/>
<polygon fill="#63b8ff" stroke="#63b8ff" points="718.49,-185.85 708.03,-184.17 715.16,-192.01 718.49,-185.85"/>
</a>
</g>
</g>
<!-- Node19&#45;&gt;Node24 -->
<g id="edge30_Node000019_Node000024" class="edge">
<title>Node19&#45;&gt;Node24</title>
<g id="a_edge30_Node000019_Node000024"><a xlink:title=" ">
<path fill="none" stroke="#63b8ff" d="M827.3,-222.24C883.49,-212.77 988.22,-194.91 1041.69,-184.14"/>
<polygon fill="#63b8ff" stroke="#63b8ff" points="1042.58,-187.53 1051.67,-182.09 1041.17,-180.67 1042.58,-187.53"/>
</a>
</g>
</g>
<!-- Node19&#45;&gt;Node25 -->
<g id="edge34_Node000019_Node000025" class="edge">
<title>Node19&#45;&gt;Node25</title>
<g id="a_edge34_Node000019_Node000025"><a xlink:title=" ">
<path fill="none" stroke="#63b8ff" d="M827.47,-224.43C886.02,-217.84 1002.92,-203.73 1111.62,-184.11"/>
<polygon fill="#63b8ff" stroke="#63b8ff" points="1112.56,-187.5 1121.77,-182.26 1111.31,-180.61 1112.56,-187.5"/>
</a>
</g>
</g>
<!-- Node21&#45;&gt;Node7 -->
<g id="edge27_Node000021_Node000007" class="edge">
<title>Node21&#45;&gt;Node7</title>
<g id="a_edge27_Node000021_Node000007"><a xlink:title=" ">
<path fill="none" stroke="#63b8ff" d="M490.13,-164.98C473.39,-156.54 447.5,-143.47 428.11,-133.68"/>
<polygon fill="#63b8ff" stroke="#63b8ff" points="429.68,-130.55 419.18,-129.17 426.53,-136.8 429.68,-130.55"/>
</a>
</g>
</g>
</g>
</svg>
