<?xml version="1.0" encoding="UTF-8" standalone="no"?>
<!DOCTYPE svg PUBLIC "-//W3C//DTD SVG 1.1//EN"
 "http://www.w3.org/Graphics/SVG/1.1/DTD/svg11.dtd">
<!-- Generated by graphviz version 2.43.0 (0)
 -->
<!-- Title: inc/MockFileSystemOps.hpp Pages: 1 -->
<svg width="3436pt" height="159pt"
 viewBox="0.00 0.00 3435.50 159.00" xmlns="http://www.w3.org/2000/svg" xmlns:xlink="http://www.w3.org/1999/xlink">
<g id="graph0" class="graph" transform="scale(1 1) rotate(0) translate(4 155)">
<title>inc/MockFileSystemOps.hpp</title>
<!-- Node1 -->
<g id="Node000001" class="node">
<title>Node1</title>
<g id="a_Node000001"><a xlink:title=" ">
<polygon fill="#999999" stroke="#666666" points="2227.5,-151 2073.5,-151 2073.5,-132 2227.5,-132 2227.5,-151"/>
<text text-anchor="middle" x="2150.5" y="-139" font-family="Helvetica,sans-Serif" font-size="10.00">inc/MockFileSystemOps.hpp</text>
</a>
</g>
</g>
<!-- Node2 -->
<g id="Node000002" class="node">
<title>Node2</title>
<g id="a_Node000002"><a xlink:href="test__helpers_8hpp.html" target="_top" xlink:title=" ">
<polygon fill="white" stroke="#666666" points="1724,-90.5 1609,-90.5 1609,-71.5 1724,-71.5 1724,-90.5"/>
<text text-anchor="middle" x="1666.5" y="-78.5" font-family="Helvetica,sans-Serif" font-size="10.00">inc/test_helpers.hpp</text>
</a>
</g>
</g>
<!-- Node1&#45;&gt;Node2 -->
<g id="edge1_Node000001_Node000002" class="edge">
<title>Node1&#45;&gt;Node2</title>
<g id="a_edge1_Node000001_Node000002"><a xlink:title=" ">
<path fill="none" stroke="#63b8ff" d="M2063.26,-133.74C1978.67,-126.58 1846.84,-113.84 1733.5,-96 1723.87,-94.48 1713.54,-92.5 1703.94,-90.51"/>
<polygon fill="#63b8ff" stroke="#63b8ff" points="2063.08,-137.24 2073.34,-134.58 2063.67,-130.26 2063.08,-137.24"/>
</a>
</g>
</g>
<!-- Node23 -->
<g id="Node000023" class="node">
<title>Node23</title>
<g id="a_Node000023"><a xlink:href="test___autoindex_handler_8cpp.html" target="_top" xlink:title=" ">
<polygon fill="white" stroke="#666666" points="1876.5,-96 1742.5,-96 1742.5,-66 1876.5,-66 1876.5,-96"/>
<text text-anchor="start" x="1750.5" y="-84" font-family="Helvetica,sans-Serif" font-size="10.00">test/unit/test_Autoindex</text>
<text text-anchor="middle" x="1809.5" y="-73" font-family="Helvetica,sans-Serif" font-size="10.00">Handler.cpp</text>
</a>
</g>
</g>
<!-- Node1&#45;&gt;Node23 -->
<g id="edge22_Node000001_Node000023" class="edge">
<title>Node1&#45;&gt;Node23</title>
<g id="a_edge22_Node000001_Node000023"><a xlink:title=" ">
<path fill="none" stroke="#63b8ff" d="M2088.11,-130.31C2034.38,-121.46 1954.78,-108.2 1885.5,-96 1882.59,-95.49 1879.62,-94.96 1876.63,-94.42"/>
<polygon fill="#63b8ff" stroke="#63b8ff" points="2087.73,-133.79 2098.17,-131.96 2088.87,-126.89 2087.73,-133.79"/>
</a>
</g>
</g>
<!-- Node24 -->
<g id="Node000024" class="node">
<title>Node24</title>
<g id="a_Node000024"><a xlink:href="test___delete_handler_8cpp.html" target="_top" xlink:title=" ">
<polygon fill="white" stroke="#666666" points="2068.5,-90.5 1894.5,-90.5 1894.5,-71.5 2068.5,-71.5 2068.5,-90.5"/>
<text text-anchor="middle" x="1981.5" y="-78.5" font-family="Helvetica,sans-Serif" font-size="10.00">test/unit/test_DeleteHandler.cpp</text>
</a>
</g>
</g>
<!-- Node1&#45;&gt;Node24 -->
<g id="edge23_Node000001_Node000024" class="edge">
<title>Node1&#45;&gt;Node24</title>
<g id="a_edge23_Node000001_Node000024"><a xlink:title=" ">
<path fill="none" stroke="#63b8ff" d="M2116.33,-128.67C2083.64,-117.36 2035.15,-100.57 2006.1,-90.52"/>
<polygon fill="#63b8ff" stroke="#63b8ff" points="2115.33,-132.03 2125.93,-131.99 2117.62,-125.41 2115.33,-132.03"/>
</a>
</g>
</g>
<!-- Node25 -->
<g id="Node000025" class="node">
<title>Node25</title>
<g id="a_Node000025"><a xlink:href="test___file_write_handler_8cpp.html" target="_top" xlink:title=" ">
<polygon fill="white" stroke="#666666" points="2214.5,-96 2086.5,-96 2086.5,-66 2214.5,-66 2214.5,-96"/>
<text text-anchor="start" x="2094.5" y="-84" font-family="Helvetica,sans-Serif" font-size="10.00">test/unit/test_FileWrite</text>
<text text-anchor="middle" x="2150.5" y="-73" font-family="Helvetica,sans-Serif" font-size="10.00">Handler.cpp</text>
</a>
</g>
</g>
<!-- Node1&#45;&gt;Node25 -->
<g id="edge24_Node000001_Node000025" class="edge">
<title>Node1&#45;&gt;Node25</title>
<g id="a_edge24_Node000001_Node000025"><a xlink:title=" ">
<path fill="none" stroke="#63b8ff" d="M2150.5,-121.65C2150.5,-113.36 2150.5,-103.78 2150.5,-96.11"/>
<polygon fill="#63b8ff" stroke="#63b8ff" points="2147,-121.87 2150.5,-131.87 2154,-121.87 2147,-121.87"/>
</a>
</g>
</g>
<!-- Node26 -->
<g id="Node000026" class="node">
<title>Node26</title>
<g id="a_Node000026"><a xlink:href="test___response_body_handler_8cpp.html" target="_top" xlink:title=" ">
<polygon fill="white" stroke="#666666" points="2388.5,-96 2232.5,-96 2232.5,-66 2388.5,-66 2388.5,-96"/>
<text text-anchor="start" x="2240.5" y="-84" font-family="Helvetica,sans-Serif" font-size="10.00">test/unit/test_ResponseBody</text>
<text text-anchor="middle" x="2310.5" y="-73" font-family="Helvetica,sans-Serif" font-size="10.00">Handler.cpp</text>
</a>
</g>
</g>
<!-- Node1&#45;&gt;Node26 -->
<g id="edge25_Node000001_Node000026" class="edge">
<title>Node1&#45;&gt;Node26</title>
<g id="a_edge25_Node000001_Node000026"><a xlink:title=" ">
<path fill="none" stroke="#63b8ff" d="M2183.44,-128.46C2209.17,-119.05 2244.98,-105.95 2272.03,-96.06"/>
<polygon fill="#63b8ff" stroke="#63b8ff" points="2181.96,-125.27 2173.77,-131.99 2184.36,-131.85 2181.96,-125.27"/>
</a>
</g>
</g>
<!-- Node27 -->
<g id="Node000027" class="node">
<title>Node27</title>
<g id="a_Node000027"><a xlink:href="test___response_builder_8cpp.html" target="_top" xlink:title=" ">
<polygon fill="white" stroke="#666666" points="2592,-90.5 2407,-90.5 2407,-71.5 2592,-71.5 2592,-90.5"/>
<text text-anchor="middle" x="2499.5" y="-78.5" font-family="Helvetica,sans-Serif" font-size="10.00">test/unit/test_ResponseBuilder.cpp</text>
</a>
</g>
</g>
<!-- Node1&#45;&gt;Node27 -->
<g id="edge26_Node000001_Node000027" class="edge">
<title>Node1&#45;&gt;Node27</title>
<g id="a_edge26_Node000001_Node000027"><a xlink:title=" ">
<path fill="none" stroke="#63b8ff" d="M2211.28,-130.31C2278.54,-119.04 2385.73,-101.07 2448.69,-90.52"/>
<polygon fill="#63b8ff" stroke="#63b8ff" points="2210.53,-126.89 2201.25,-131.99 2211.69,-133.79 2210.53,-126.89"/>
</a>
</g>
</g>
<!-- Node28 -->
<g id="Node000028" class="node">
<title>Node28</title>
<g id="a_Node000028"><a xlink:href="test___target_resource_handler_8cpp.html" target="_top" xlink:title=" ">
<polygon fill="white" stroke="#666666" points="2769,-96 2610,-96 2610,-66 2769,-66 2769,-96"/>
<text text-anchor="start" x="2618" y="-84" font-family="Helvetica,sans-Serif" font-size="10.00">test/unit/test_TargetResource</text>
<text text-anchor="middle" x="2689.5" y="-73" font-family="Helvetica,sans-Serif" font-size="10.00">Handler.cpp</text>
</a>
</g>
</g>
<!-- Node1&#45;&gt;Node28 -->
<g id="edge27_Node000001_Node000028" class="edge">
<title>Node1&#45;&gt;Node28</title>
<g id="a_edge27_Node000001_Node000028"><a xlink:title=" ">
<path fill="none" stroke="#63b8ff" d="M2237.66,-133.45C2328.62,-125.72 2475.33,-112.25 2601.5,-96 2604.26,-95.64 2607.07,-95.27 2609.91,-94.88"/>
<polygon fill="#63b8ff" stroke="#63b8ff" points="2237.34,-129.96 2227.67,-134.29 2237.93,-136.94 2237.34,-129.96"/>
</a>
</g>
</g>
<!-- Node3 -->
<g id="Node000003" class="node">
<title>Node3</title>
<g id="a_Node000003"><a xlink:href="test__accept_connections_8cpp.html" target="_top" xlink:title=" ">
<polygon fill="white" stroke="#666666" points="197,-24.5 0,-24.5 0,-5.5 197,-5.5 197,-24.5"/>
<text text-anchor="middle" x="98.5" y="-12.5" font-family="Helvetica,sans-Serif" font-size="10.00">test/unit/test_acceptConnections.cpp</text>
</a>
</g>
</g>
<!-- Node2&#45;&gt;Node3 -->
<g id="edge2_Node000002_Node000003" class="edge">
<title>Node2&#45;&gt;Node3</title>
<g id="a_edge2_Node000002_Node000003"><a xlink:title=" ">
<path fill="none" stroke="#63b8ff" d="M1598.84,-79.96C1390.74,-79.34 741.88,-73.77 206.5,-30 190.2,-28.67 172.58,-26.64 156.4,-24.53"/>
<polygon fill="#63b8ff" stroke="#63b8ff" points="1598.99,-83.46 1609,-79.98 1599.01,-76.46 1598.99,-83.46"/>
</a>
</g>
</g>
<!-- Node4 -->
<g id="Node000004" class="node">
<title>Node4</title>
<g id="a_Node000004"><a xlink:href="test__check_for_timeout_8cpp.html" target="_top" xlink:title=" ">
<polygon fill="white" stroke="#666666" points="403.5,-24.5 215.5,-24.5 215.5,-5.5 403.5,-5.5 403.5,-24.5"/>
<text text-anchor="middle" x="309.5" y="-12.5" font-family="Helvetica,sans-Serif" font-size="10.00">test/unit/test_checkForTimeout.cpp</text>
</a>
</g>
</g>
<!-- Node2&#45;&gt;Node4 -->
<g id="edge3_Node000002_Node000004" class="edge">
<title>Node2&#45;&gt;Node4</title>
<g id="a_edge3_Node000002_Node000004"><a xlink:title=" ">
<path fill="none" stroke="#63b8ff" d="M1598.85,-79.57C1410.53,-77.87 864.33,-69.62 412.5,-30 397.04,-28.64 380.34,-26.62 364.98,-24.53"/>
<polygon fill="#63b8ff" stroke="#63b8ff" points="1598.85,-83.07 1608.88,-79.65 1598.91,-76.07 1598.85,-83.07"/>
</a>
</g>
</g>
<!-- Node5 -->
<g id="Node000005" class="node">
<title>Node5</title>
<g id="a_Node000005"><a xlink:href="test__connection_build_response_8cpp.html" target="_top" xlink:title=" ">
<polygon fill="white" stroke="#666666" points="559,-30 422,-30 422,0 559,0 559,-30"/>
<text text-anchor="start" x="430" y="-18" font-family="Helvetica,sans-Serif" font-size="10.00">test/unit/test_connection</text>
<text text-anchor="middle" x="490.5" y="-7" font-family="Helvetica,sans-Serif" font-size="10.00">BuildResponse.cpp</text>
</a>
</g>
</g>
<!-- Node2&#45;&gt;Node5 -->
<g id="edge4_Node000002_Node000005" class="edge">
<title>Node2&#45;&gt;Node5</title>
<g id="a_edge4_Node000002_Node000005"><a xlink:title=" ">
<path fill="none" stroke="#63b8ff" d="M1598.58,-80.08C1425.84,-79.58 955.98,-73.95 567.5,-30 564.8,-29.69 562.05,-29.35 559.28,-28.98"/>
<polygon fill="#63b8ff" stroke="#63b8ff" points="1598.78,-83.58 1608.79,-80.1 1598.8,-76.58 1598.78,-83.58"/>
</a>
</g>
</g>
<!-- Node6 -->
<g id="Node000006" class="node">
<title>Node6</title>
<g id="a_Node000006"><a xlink:href="test__connection_handle_timeout_8cpp.html" target="_top" xlink:title=" ">
<polygon fill="white" stroke="#666666" points="714,-30 577,-30 577,0 714,0 714,-30"/>
<text text-anchor="start" x="585" y="-18" font-family="Helvetica,sans-Serif" font-size="10.00">test/unit/test_connection</text>
<text text-anchor="middle" x="645.5" y="-7" font-family="Helvetica,sans-Serif" font-size="10.00">HandleTimeout.cpp</text>
</a>
</g>
</g>
<!-- Node2&#45;&gt;Node6 -->
<g id="edge5_Node000002_Node000006" class="edge">
<title>Node2&#45;&gt;Node6</title>
<g id="a_edge5_Node000002_Node000006"><a xlink:title=" ">
<path fill="none" stroke="#63b8ff" d="M1598.47,-79.35C1442.86,-77.23 1049.16,-68.19 722.5,-30 719.8,-29.68 717.05,-29.33 714.28,-28.95"/>
<polygon fill="#63b8ff" stroke="#63b8ff" points="1598.77,-82.86 1608.82,-79.49 1598.87,-75.86 1598.77,-82.86"/>
</a>
</g>
</g>
<!-- Node7 -->
<g id="Node000007" class="node">
<title>Node7</title>
<g id="a_Node000007"><a xlink:href="test__connection_receive_body_8cpp.html" target="_top" xlink:title=" ">
<polygon fill="white" stroke="#666666" points="869,-30 732,-30 732,0 869,0 869,-30"/>
<text text-anchor="start" x="740" y="-18" font-family="Helvetica,sans-Serif" font-size="10.00">test/unit/test_connection</text>
<text text-anchor="middle" x="800.5" y="-7" font-family="Helvetica,sans-Serif" font-size="10.00">ReceiveBody.cpp</text>
</a>
</g>
</g>
<!-- Node2&#45;&gt;Node7 -->
<g id="edge6_Node000002_Node000007" class="edge">
<title>Node2&#45;&gt;Node7</title>
<g id="a_edge6_Node000002_Node000007"><a xlink:title=" ">
<path fill="none" stroke="#63b8ff" d="M1598.54,-78.36C1461.64,-74.47 1143.06,-62.44 877.5,-30 874.8,-29.67 872.06,-29.31 869.29,-28.92"/>
<polygon fill="#63b8ff" stroke="#63b8ff" points="1598.78,-81.87 1608.87,-78.65 1598.97,-74.87 1598.78,-81.87"/>
</a>
</g>
</g>
<!-- Node8 -->
<g id="Node000008" class="node">
<title>Node8</title>
<g id="a_Node000008"><a xlink:href="test__connection_receive_from_c_g_i_8cpp.html" target="_top" xlink:title=" ">
<polygon fill="white" stroke="#666666" points="1024,-30 887,-30 887,0 1024,0 1024,-30"/>
<text text-anchor="start" x="895" y="-18" font-family="Helvetica,sans-Serif" font-size="10.00">test/unit/test_connection</text>
<text text-anchor="middle" x="955.5" y="-7" font-family="Helvetica,sans-Serif" font-size="10.00">ReceiveFromCGI.cpp</text>
</a>
</g>
</g>
<!-- Node2&#45;&gt;Node8 -->
<g id="edge7_Node000002_Node000008" class="edge">
<title>Node2&#45;&gt;Node8</title>
<g id="a_edge7_Node000002_Node000008"><a xlink:title=" ">
<path fill="none" stroke="#63b8ff" d="M1598.42,-76.89C1482.07,-71.08 1237.62,-56.67 1032.5,-30 1029.81,-29.65 1027.06,-29.27 1024.29,-28.86"/>
<polygon fill="#63b8ff" stroke="#63b8ff" points="1598.44,-80.4 1608.6,-77.4 1598.79,-73.41 1598.44,-80.4"/>
</a>
</g>
</g>
<!-- Node9 -->
<g id="Node000009" class="node">
<title>Node9</title>
<g id="a_Node000009"><a xlink:href="test__connection_receive_header_8cpp.html" target="_top" xlink:title=" ">
<polygon fill="white" stroke="#666666" points="1179,-30 1042,-30 1042,0 1179,0 1179,-30"/>
<text text-anchor="start" x="1050" y="-18" font-family="Helvetica,sans-Serif" font-size="10.00">test/unit/test_connection</text>
<text text-anchor="middle" x="1110.5" y="-7" font-family="Helvetica,sans-Serif" font-size="10.00">ReceiveHeader.cpp</text>
</a>
</g>
</g>
<!-- Node2&#45;&gt;Node9 -->
<g id="edge8_Node000002_Node000009" class="edge">
<title>Node2&#45;&gt;Node9</title>
<g id="a_edge8_Node000002_Node000009"><a xlink:title=" ">
<path fill="none" stroke="#63b8ff" d="M1598.7,-74.55C1505.71,-66.71 1333.5,-50.86 1187.5,-30 1184.81,-29.62 1182.07,-29.21 1179.3,-28.78"/>
<polygon fill="#63b8ff" stroke="#63b8ff" points="1598.56,-78.05 1608.82,-75.4 1599.14,-71.08 1598.56,-78.05"/>
</a>
</g>
</g>
<!-- Node10 -->
<g id="Node000010" class="node">
<title>Node10</title>
<g id="a_Node000010"><a xlink:href="test__connection_send_response_8cpp.html" target="_top" xlink:title=" ">
<polygon fill="white" stroke="#666666" points="1334,-30 1197,-30 1197,0 1334,0 1334,-30"/>
<text text-anchor="start" x="1205" y="-18" font-family="Helvetica,sans-Serif" font-size="10.00">test/unit/test_connection</text>
<text text-anchor="middle" x="1265.5" y="-7" font-family="Helvetica,sans-Serif" font-size="10.00">SendResponse.cpp</text>
</a>
</g>
</g>
<!-- Node2&#45;&gt;Node10 -->
<g id="edge9_Node000002_Node000010" class="edge">
<title>Node2&#45;&gt;Node10</title>
<g id="a_edge9_Node000002_Node000010"><a xlink:title=" ">
<path fill="none" stroke="#63b8ff" d="M1598.57,-70.06C1532.95,-60.32 1430.81,-44.84 1342.5,-30 1339.82,-29.55 1337.09,-29.08 1334.33,-28.61"/>
<polygon fill="#63b8ff" stroke="#63b8ff" points="1598.37,-73.57 1608.78,-71.57 1599.4,-66.64 1598.37,-73.57"/>
</a>
</g>
</g>
<!-- Node11 -->
<g id="Node000011" class="node">
<title>Node11</title>
<g id="a_Node000011"><a xlink:href="test__connection_send_to_c_g_i_8cpp.html" target="_top" xlink:title=" ">
<polygon fill="white" stroke="#666666" points="1489,-30 1352,-30 1352,0 1489,0 1489,-30"/>
<text text-anchor="start" x="1360" y="-18" font-family="Helvetica,sans-Serif" font-size="10.00">test/unit/test_connection</text>
<text text-anchor="middle" x="1420.5" y="-7" font-family="Helvetica,sans-Serif" font-size="10.00">SendToCGI.cpp</text>
</a>
</g>
</g>
<!-- Node2&#45;&gt;Node11 -->
<g id="edge10_Node000002_Node000011" class="edge">
<title>Node2&#45;&gt;Node11</title>
<g id="a_edge10_Node000002_Node000011"><a xlink:title=" ">
<path fill="none" stroke="#63b8ff" d="M1623.79,-68.89C1582.34,-58.1 1519.29,-41.7 1474.41,-30.02"/>
<polygon fill="#63b8ff" stroke="#63b8ff" points="1623.02,-72.3 1633.58,-71.44 1624.78,-65.53 1623.02,-72.3"/>
</a>
</g>
</g>
<!-- Node12 -->
<g id="Node000012" class="node">
<title>Node12</title>
<g id="a_Node000012"><a xlink:href="test__create_virtual_server_8cpp.html" target="_top" xlink:title=" ">
<polygon fill="white" stroke="#666666" points="1654,-30 1507,-30 1507,0 1654,0 1654,-30"/>
<text text-anchor="start" x="1515" y="-18" font-family="Helvetica,sans-Serif" font-size="10.00">test/unit/test_createVirtual</text>
<text text-anchor="middle" x="1580.5" y="-7" font-family="Helvetica,sans-Serif" font-size="10.00">Server.cpp</text>
</a>
</g>
</g>
<!-- Node2&#45;&gt;Node12 -->
<g id="edge11_Node000002_Node000012" class="edge">
<title>Node2&#45;&gt;Node12</title>
<g id="a_edge11_Node000002_Node000012"><a xlink:title=" ">
<path fill="none" stroke="#63b8ff" d="M1646.77,-65.32C1632.56,-54.74 1613.5,-40.56 1599.47,-30.12"/>
<polygon fill="#63b8ff" stroke="#63b8ff" points="1644.79,-68.21 1654.9,-71.37 1648.97,-62.59 1644.79,-68.21"/>
</a>
</g>
</g>
<!-- Node13 -->
<g id="Node000013" class="node">
<title>Node13</title>
<g id="a_Node000013"><a xlink:href="test__handle_body_8cpp.html" target="_top" xlink:title=" ">
<polygon fill="white" stroke="#666666" points="1833,-24.5 1672,-24.5 1672,-5.5 1833,-5.5 1833,-24.5"/>
<text text-anchor="middle" x="1752.5" y="-12.5" font-family="Helvetica,sans-Serif" font-size="10.00">test/unit/test_handleBody.cpp</text>
</a>
</g>
</g>
<!-- Node2&#45;&gt;Node13 -->
<g id="edge12_Node000002_Node000013" class="edge">
<title>Node2&#45;&gt;Node13</title>
<g id="a_edge12_Node000002_Node000013"><a xlink:title=" ">
<path fill="none" stroke="#63b8ff" d="M1686.21,-65.33C1703.07,-52.78 1726.79,-35.13 1740.81,-24.7"/>
<polygon fill="#63b8ff" stroke="#63b8ff" points="1684.03,-62.59 1678.1,-71.37 1688.21,-68.21 1684.03,-62.59"/>
</a>
</g>
</g>
<!-- Node14 -->
<g id="Node000014" class="node">
<title>Node14</title>
<g id="a_Node000014"><a xlink:href="test__handle_complete_request_header_8cpp.html" target="_top" xlink:title=" ">
<polygon fill="white" stroke="#666666" points="2015.5,-30 1851.5,-30 1851.5,0 2015.5,0 2015.5,-30"/>
<text text-anchor="start" x="1859.5" y="-18" font-family="Helvetica,sans-Serif" font-size="10.00">test/unit/test_handleComplete</text>
<text text-anchor="middle" x="1933.5" y="-7" font-family="Helvetica,sans-Serif" font-size="10.00">RequestHeader.cpp</text>
</a>
</g>
</g>
<!-- Node2&#45;&gt;Node14 -->
<g id="edge13_Node000002_Node000014" class="edge">
<title>Node2&#45;&gt;Node14</title>
<g id="a_edge13_Node000002_Node000014"><a xlink:title=" ">
<path fill="none" stroke="#63b8ff" d="M1712,-69.09C1756.97,-58.31 1825.97,-41.78 1874.99,-30.02"/>
<polygon fill="#63b8ff" stroke="#63b8ff" points="1711.14,-65.7 1702.23,-71.44 1712.77,-72.51 1711.14,-65.7"/>
</a>
</g>
</g>
<!-- Node15 -->
<g id="Node000015" class="node">
<title>Node15</title>
<g id="a_Node000015"><a xlink:href="test__handle_event_8cpp.html" target="_top" xlink:title=" ">
<polygon fill="white" stroke="#666666" points="2199,-24.5 2034,-24.5 2034,-5.5 2199,-5.5 2199,-24.5"/>
<text text-anchor="middle" x="2116.5" y="-12.5" font-family="Helvetica,sans-Serif" font-size="10.00">test/unit/test_handleEvent.cpp</text>
</a>
</g>
</g>
<!-- Node2&#45;&gt;Node15 -->
<g id="edge14_Node000002_Node000015" class="edge">
<title>Node2&#45;&gt;Node15</title>
<g id="a_edge14_Node000002_Node000015"><a xlink:title=" ">
<path fill="none" stroke="#63b8ff" d="M1714.54,-69.46C1720.9,-68.21 1727.35,-67.02 1733.5,-66 1862.06,-44.65 1895.4,-47.8 2024.5,-30 2036.66,-28.32 2049.71,-26.41 2062.05,-24.54"/>
<polygon fill="#63b8ff" stroke="#63b8ff" points="1713.77,-66.05 1704.66,-71.46 1715.16,-72.91 1713.77,-66.05"/>
</a>
</g>
</g>
<!-- Node16 -->
<g id="Node000016" class="node">
<title>Node16</title>
<g id="a_Node000016"><a xlink:href="test__helpers_8cpp.html" target="_top" xlink:title=" ">
<polygon fill="white" stroke="#666666" points="2357.5,-24.5 2217.5,-24.5 2217.5,-5.5 2357.5,-5.5 2357.5,-24.5"/>
<text text-anchor="middle" x="2287.5" y="-12.5" font-family="Helvetica,sans-Serif" font-size="10.00">test/unit/test_helpers.cpp</text>
</a>
</g>
</g>
<!-- Node2&#45;&gt;Node16 -->
<g id="edge15_Node000002_Node000016" class="edge">
<title>Node2&#45;&gt;Node16</title>
<g id="a_edge15_Node000002_Node000016"><a xlink:title=" ">
<path fill="none" stroke="#63b8ff" d="M1713.06,-69.46C1719.89,-68.15 1726.86,-66.94 1733.5,-66 1943.12,-36.28 1998.45,-56.5 2208.5,-30 2219.97,-28.55 2232.31,-26.57 2243.74,-24.56"/>
<polygon fill="#63b8ff" stroke="#63b8ff" points="1712.33,-66.03 1703.21,-71.43 1713.7,-72.9 1712.33,-66.03"/>
</a>
</g>
</g>
<!-- Node17 -->
<g id="Node000017" class="node">
<title>Node17</title>
<g id="a_Node000017"><a xlink:href="test__init_virtual_servers_8cpp.html" target="_top" xlink:title=" ">
<polygon fill="white" stroke="#666666" points="2507.5,-30 2375.5,-30 2375.5,0 2507.5,0 2507.5,-30"/>
<text text-anchor="start" x="2383.5" y="-18" font-family="Helvetica,sans-Serif" font-size="10.00">test/unit/test_initVirtual</text>
<text text-anchor="middle" x="2441.5" y="-7" font-family="Helvetica,sans-Serif" font-size="10.00">Servers.cpp</text>
</a>
</g>
</g>
<!-- Node2&#45;&gt;Node17 -->
<g id="edge16_Node000002_Node000017" class="edge">
<title>Node2&#45;&gt;Node17</title>
<g id="a_edge16_Node000002_Node000017"><a xlink:title=" ">
<path fill="none" stroke="#63b8ff" d="M1712.56,-69.44C1719.55,-68.11 1726.69,-66.9 1733.5,-66 2012.86,-29.08 2086.76,-63.92 2366.5,-30 2369.39,-29.65 2372.34,-29.26 2375.32,-28.83"/>
<polygon fill="#63b8ff" stroke="#63b8ff" points="1711.61,-66.06 1702.49,-71.45 1712.99,-72.92 1711.61,-66.06"/>
</a>
</g>
</g>
<!-- Node18 -->
<g id="Node000018" class="node">
<title>Node18</title>
<g id="a_Node000018"><a xlink:href="test__is_duplicate_server_8cpp.html" target="_top" xlink:title=" ">
<polygon fill="white" stroke="#666666" points="2665,-30 2526,-30 2526,0 2665,0 2665,-30"/>
<text text-anchor="start" x="2534" y="-18" font-family="Helvetica,sans-Serif" font-size="10.00">test/unit/test_isDuplicate</text>
<text text-anchor="middle" x="2595.5" y="-7" font-family="Helvetica,sans-Serif" font-size="10.00">Server.cpp</text>
</a>
</g>
</g>
<!-- Node2&#45;&gt;Node18 -->
<g id="edge17_Node000002_Node000018" class="edge">
<title>Node2&#45;&gt;Node18</title>
<g id="a_edge17_Node000002_Node000018"><a xlink:title=" ">
<path fill="none" stroke="#63b8ff" d="M1712.31,-69.42C1719.37,-68.08 1726.61,-66.87 1733.5,-66 2079.11,-22.23 2170.26,-68.47 2516.5,-30 2519.55,-29.66 2522.65,-29.28 2525.78,-28.86"/>
<polygon fill="#63b8ff" stroke="#63b8ff" points="1711.25,-66.06 1702.14,-71.45 1712.63,-72.92 1711.25,-66.06"/>
</a>
</g>
</g>
<!-- Node19 -->
<g id="Node000019" class="node">
<title>Node19</title>
<g id="a_Node000019"><a xlink:href="test__register_c_g_i_file_descriptor_8cpp.html" target="_top" xlink:title=" ">
<polygon fill="white" stroke="#666666" points="2839.5,-30 2683.5,-30 2683.5,0 2839.5,0 2839.5,-30"/>
<text text-anchor="start" x="2691.5" y="-18" font-family="Helvetica,sans-Serif" font-size="10.00">test/unit/test_registerCGIFile</text>
<text text-anchor="middle" x="2761.5" y="-7" font-family="Helvetica,sans-Serif" font-size="10.00">Descriptor.cpp</text>
</a>
</g>
</g>
<!-- Node2&#45;&gt;Node19 -->
<g id="edge18_Node000002_Node000019" class="edge">
<title>Node2&#45;&gt;Node19</title>
<g id="a_edge18_Node000002_Node000019"><a xlink:title=" ">
<path fill="none" stroke="#63b8ff" d="M1712.06,-69.41C1719.2,-68.06 1726.53,-66.86 1733.5,-66 2148.91,-15.02 2258.02,-71.32 2674.5,-30 2677.39,-29.71 2680.33,-29.39 2683.3,-29.04"/>
<polygon fill="#63b8ff" stroke="#63b8ff" points="1710.9,-66.08 1701.78,-71.47 1712.27,-72.94 1710.9,-66.08"/>
</a>
</g>
</g>
<!-- Node20 -->
<g id="Node000020" class="node">
<title>Node20</title>
<g id="a_Node000020"><a xlink:href="test__register_connection_8cpp.html" target="_top" xlink:title=" ">
<polygon fill="white" stroke="#666666" points="3055,-24.5 2858,-24.5 2858,-5.5 3055,-5.5 3055,-24.5"/>
<text text-anchor="middle" x="2956.5" y="-12.5" font-family="Helvetica,sans-Serif" font-size="10.00">test/unit/test_registerConnection.cpp</text>
</a>
</g>
</g>
<!-- Node2&#45;&gt;Node20 -->
<g id="edge19_Node000002_Node000020" class="edge">
<title>Node2&#45;&gt;Node20</title>
<g id="a_edge19_Node000002_Node000020"><a xlink:title=" ">
<path fill="none" stroke="#63b8ff" d="M1712.05,-69.38C1719.2,-68.03 1726.52,-66.84 1733.5,-66 2225.8,-7.07 2354.3,-69.92 2848.5,-30 2864.9,-28.68 2882.62,-26.63 2898.88,-24.52"/>
<polygon fill="#63b8ff" stroke="#63b8ff" points="1710.9,-66.04 1701.78,-71.43 1712.27,-72.9 1710.9,-66.04"/>
</a>
</g>
</g>
<!-- Node21 -->
<g id="Node000021" class="node">
<title>Node21</title>
<g id="a_Node000021"><a xlink:href="test__register_virtual_server_8cpp.html" target="_top" xlink:title=" ">
<polygon fill="white" stroke="#666666" points="3227.5,-30 3073.5,-30 3073.5,0 3227.5,0 3227.5,-30"/>
<text text-anchor="start" x="3081.5" y="-18" font-family="Helvetica,sans-Serif" font-size="10.00">test/unit/test_registerVirtual</text>
<text text-anchor="middle" x="3150.5" y="-7" font-family="Helvetica,sans-Serif" font-size="10.00">Server.cpp</text>
</a>
</g>
</g>
<!-- Node2&#45;&gt;Node21 -->
<g id="edge20_Node000002_Node000021" class="edge">
<title>Node2&#45;&gt;Node21</title>
<g id="a_edge20_Node000002_Node000021"><a xlink:title=" ">
<path fill="none" stroke="#63b8ff" d="M1711.3,-69.49C1718.68,-68.09 1726.28,-66.85 1733.5,-66 2321.26,2.8 2475.35,-85.67 3064.5,-30 3067.36,-29.73 3070.27,-29.42 3073.21,-29.08"/>
<polygon fill="#63b8ff" stroke="#63b8ff" points="1710.54,-66.07 1701.43,-71.47 1711.92,-72.93 1710.54,-66.07"/>
</a>
</g>
</g>
<!-- Node22 -->
<g id="Node000022" class="node">
<title>Node22</title>
<g id="a_Node000022"><a xlink:href="test__shutdown_server_8cpp.html" target="_top" xlink:title=" ">
<polygon fill="white" stroke="#666666" points="3427.5,-24.5 3245.5,-24.5 3245.5,-5.5 3427.5,-5.5 3427.5,-24.5"/>
<text text-anchor="middle" x="3336.5" y="-12.5" font-family="Helvetica,sans-Serif" font-size="10.00">test/unit/test_shutdownServer.cpp</text>
</a>
</g>
</g>
<!-- Node2&#45;&gt;Node22 -->
<g id="edge21_Node000002_Node000022" class="edge">
<title>Node2&#45;&gt;Node22</title>
<g id="a_edge21_Node000002_Node000022"><a xlink:title=" ">
<path fill="none" stroke="#63b8ff" d="M1711.3,-69.47C1718.68,-68.07 1726.28,-66.83 1733.5,-66 2397.28,10.65 2570.53,-84.41 3236.5,-30 3251.96,-28.74 3268.69,-26.67 3283.95,-24.51"/>
<polygon fill="#63b8ff" stroke="#63b8ff" points="1710.54,-66.05 1701.42,-71.45 1711.92,-72.91 1710.54,-66.05"/>
</a>
</g>
</g>
</g>
</svg>
