<?xml version="1.0" encoding="UTF-8" standalone="no"?>
<!DOCTYPE svg PUBLIC "-//W3C//DTD SVG 1.1//EN"
 "http://www.w3.org/Graphics/SVG/1.1/DTD/svg11.dtd">
<!-- Generated by graphviz version 2.43.0 (0)
 -->
<!-- Title: inc/MockProcessOps.hpp Pages: 1 -->
<!--zoomable 148 -->

<svg id="main" version="1.1" xmlns="http://www.w3.org/2000/svg" xmlns:xlink="http://www.w3.org/1999/xlink" xml:space="preserve" onload="init(evt)">
<style type="text/css"><![CDATA[
.node, .edge {opacity: 0.7;}
.node.selected, .edge.selected {opacity: 1;}
.edge:hover path { stroke: red; }
.edge:hover polygon { stroke: red; fill: red; }
]]></style>

<defs>
  <circle id="rim" cx="0" cy="0" r="7"/>
  <circle id="rim2" cx="0" cy="0" r="3.5"/>
  <g id="zoomPlus">
    <use xlink:href="#rim" fill="#404040"><set attributeName="fill" to="#808080" begin="zoomplus.mouseover" end="zoomplus.mouseout"/></use>
    <path d="M-4,0h8M0,-4v8" fill="none" stroke="white" stroke-width="1.5" pointer-events="none"/>
  </g>
  <g id="zoomMin">
    <use xlink:href="#rim" fill="#404040"><set attributeName="fill" to="#808080" begin="zoomminus.mouseover" end="zoomminus.mouseout"/></use>
    <path d="M-4,0h8" fill="none" stroke="white" stroke-width="1.5" pointer-events="none"/>
  </g>
  <g id="arrowUp" transform="translate(30 24)">
    <use xlink:href="#rim"/>
    <path pointer-events="none" fill="none" stroke="white" stroke-width="1.5" d="M0,-3.0v7 M-2.5,-0.5L0,-3.0L2.5,-0.5"/>
  </g>
  <g id="arrowRight" transform="rotate(90) translate(36 -43)">
    <use xlink:href="#rim"/>
    <path pointer-events="none" fill="none" stroke="white" stroke-width="1.5" d="M0,-3.0v7 M-2.5,-0.5L0,-3.0L2.5,-0.5"/>
  </g>
  <g id="arrowDown" transform="rotate(180) translate(-30 -48)">
    <use xlink:href="#rim"/>
    <path pointer-events="none" fill="none" stroke="white" stroke-width="1.5" d="M0,-3.0v7 M-2.5,-0.5L0,-3.0L2.5,-0.5"/>
  </g>
  <g id="arrowLeft" transform="rotate(270) translate(-36 17)">
    <use xlink:href="#rim"/>
    <path pointer-events="none" fill="none" stroke="white" stroke-width="1.5" d="M0,-3.0v7 M-2.5,-0.5L0,-3.0L2.5,-0.5"/>
  </g>
  <g id="resetDef">
    <use xlink:href="#rim2" fill="#404040"><set attributeName="fill" to="#808080" begin="reset.mouseover" end="reset.mouseout"/></use>
  </g>
</defs>
<script type="application/ecmascript">
var viewWidth = 3613;
var viewHeight = 148;
var sectionId = 'dynsection-1';
</script>
<script type="application/ecmascript" xlink:href="svg.min.js"/>
<svg id="graph" class="graph">
<g id="viewport">
<title>inc/MockProcessOps.hpp</title>
<!-- Node1 -->
<g id="Node000001" class="node">
<title>Node1</title>
<g id="a_Node000001"><a xlink:title=" ">
<polygon fill="#999999" stroke="#666666" points="987,-140 850,-140 850,-121 987,-121 987,-140"/>
<text text-anchor="middle" x="918.5" y="-128" font-family="Helvetica,sans-Serif" font-size="10.00">inc/MockProcessOps.hpp</text>
</a>
</g>
</g>
<!-- Node2 -->
<g id="Node000002" class="node">
<title>Node2</title>
<g id="a_Node000002"><a xlink:href="test__helpers_8hpp.html" target="_top" xlink:title=" ">
<polygon fill="white" stroke="#666666" points="1735,-85 1620,-85 1620,-66 1735,-66 1735,-85"/>
<text text-anchor="middle" x="1677.5" y="-73" font-family="Helvetica,sans-Serif" font-size="10.00">inc/test_helpers.hpp</text>
</a>
</g>
</g>
<!-- Node1&#45;&gt;Node2 -->
<g id="edge1_Node000001_Node000002" class="edge">
<title>Node1&#45;&gt;Node2</title>
<g id="a_edge1_Node000001_Node000002"><a xlink:title=" ">
<path fill="none" stroke="#63b8ff" d="M997.47,-123.99C1150.74,-113.28 1485.27,-89.92 1619.78,-80.53"/>
<polygon fill="#63b8ff" stroke="#63b8ff" points="996.93,-120.51 987.19,-124.7 997.41,-127.5 996.93,-120.51"/>
</a>
</g>
</g>
<!-- Node3 -->
<g id="Node000003" class="node">
<title>Node3</title>
<g id="a_Node000003"><a xlink:href="test___c_g_i_handler_8cpp.html" target="_top" xlink:title=" ">
<polygon fill="white" stroke="#666666" points="159,-24.5 0,-24.5 0,-5.5 159,-5.5 159,-24.5"/>
<text text-anchor="middle" x="79.5" y="-12.5" font-family="Helvetica,sans-Serif" font-size="10.00">test/unit/test_CGIHandler.cpp</text>
</a>
</g>
</g>
<!-- Node1&#45;&gt;Node3 -->
<g id="edge23_Node000001_Node000003" class="edge">
<title>Node1&#45;&gt;Node3</title>
<g id="a_edge23_Node000001_Node000003"><a xlink:title=" ">
<path fill="none" stroke="#63b8ff" d="M840.22,-119.75C703.7,-102.59 413.26,-65.48 168.5,-30 156.74,-28.29 144.11,-26.37 132.18,-24.5"/>
<polygon fill="#63b8ff" stroke="#63b8ff" points="839.81,-123.22 850.17,-121 840.69,-116.28 839.81,-123.22"/>
</a>
</g>
</g>
<!-- Node2&#45;&gt;Node3 -->
<g id="edge2_Node000002_Node000003" class="edge">
<title>Node2&#45;&gt;Node3</title>
<g id="a_edge2_Node000002_Node000003"><a xlink:title=" ">
<path fill="none" stroke="#63b8ff" d="M1609.4,-73.64C1354.12,-70.23 454.05,-56.56 168.5,-30 154.79,-28.73 140,-26.67 126.47,-24.53"/>
<polygon fill="#63b8ff" stroke="#63b8ff" points="1609.6,-77.14 1619.64,-73.77 1609.69,-70.14 1609.6,-77.14"/>
</a>
</g>
</g>
<!-- Node4 -->
<g id="Node000004" class="node">
<title>Node4</title>
<g id="a_Node000004"><a xlink:href="test__accept_connections_8cpp.html" target="_top" xlink:title=" ">
<polygon fill="white" stroke="#666666" points="374,-24.5 177,-24.5 177,-5.5 374,-5.5 374,-24.5"/>
<text text-anchor="middle" x="275.5" y="-12.5" font-family="Helvetica,sans-Serif" font-size="10.00">test/unit/test_acceptConnections.cpp</text>
</a>
</g>
</g>
<!-- Node2&#45;&gt;Node4 -->
<g id="edge3_Node000002_Node000004" class="edge">
<title>Node2&#45;&gt;Node4</title>
<g id="a_edge3_Node000002_Node000004"><a xlink:title=" ">
<path fill="none" stroke="#63b8ff" d="M1609.76,-74.42C1417.4,-73.72 851.53,-68.3 383.5,-30 367.2,-28.67 349.58,-26.64 333.4,-24.53"/>
<polygon fill="#63b8ff" stroke="#63b8ff" points="1609.98,-77.92 1619.99,-74.46 1610,-70.92 1609.98,-77.92"/>
</a>
</g>
</g>
<!-- Node5 -->
<g id="Node000005" class="node">
<title>Node5</title>
<g id="a_Node000005"><a xlink:href="test__check_for_timeout_8cpp.html" target="_top" xlink:title=" ">
<polygon fill="white" stroke="#666666" points="580.5,-24.5 392.5,-24.5 392.5,-5.5 580.5,-5.5 580.5,-24.5"/>
<text text-anchor="middle" x="486.5" y="-12.5" font-family="Helvetica,sans-Serif" font-size="10.00">test/unit/test_checkForTimeout.cpp</text>
</a>
</g>
</g>
<!-- Node2&#45;&gt;Node5 -->
<g id="edge4_Node000002_Node000005" class="edge">
<title>Node2&#45;&gt;Node5</title>
<g id="a_edge4_Node000002_Node000005"><a xlink:title=" ">
<path fill="none" stroke="#63b8ff" d="M1609.81,-73.91C1438.72,-71.95 975.18,-63.69 590.5,-30 574.89,-28.63 558.03,-26.6 542.53,-24.51"/>
<polygon fill="#63b8ff" stroke="#63b8ff" points="1609.89,-77.41 1619.93,-74.02 1609.97,-70.41 1609.89,-77.41"/>
</a>
</g>
</g>
<!-- Node6 -->
<g id="Node000006" class="node">
<title>Node6</title>
<g id="a_Node000006"><a xlink:href="test__connection_build_response_8cpp.html" target="_top" xlink:title=" ">
<polygon fill="white" stroke="#666666" points="736,-30 599,-30 599,0 736,0 736,-30"/>
<text text-anchor="start" x="607" y="-18" font-family="Helvetica,sans-Serif" font-size="10.00">test/unit/test_connection</text>
<text text-anchor="middle" x="667.5" y="-7" font-family="Helvetica,sans-Serif" font-size="10.00">BuildResponse.cpp</text>
</a>
</g>
</g>
<!-- Node2&#45;&gt;Node6 -->
<g id="edge5_Node000002_Node000006" class="edge">
<title>Node2&#45;&gt;Node6</title>
<g id="a_edge5_Node000002_Node000006"><a xlink:title=" ">
<path fill="none" stroke="#63b8ff" d="M1609.5,-74.27C1455.3,-73.1 1067.47,-66.43 745.5,-30 742.49,-29.66 739.43,-29.27 736.33,-28.85"/>
<polygon fill="#63b8ff" stroke="#63b8ff" points="1609.73,-77.77 1619.75,-74.34 1609.78,-70.77 1609.73,-77.77"/>
</a>
</g>
</g>
<!-- Node7 -->
<g id="Node000007" class="node">
<title>Node7</title>
<g id="a_Node000007"><a xlink:href="test__connection_handle_timeout_8cpp.html" target="_top" xlink:title=" ">
<polygon fill="white" stroke="#666666" points="891,-30 754,-30 754,0 891,0 891,-30"/>
<text text-anchor="start" x="762" y="-18" font-family="Helvetica,sans-Serif" font-size="10.00">test/unit/test_connection</text>
<text text-anchor="middle" x="822.5" y="-7" font-family="Helvetica,sans-Serif" font-size="10.00">HandleTimeout.cpp</text>
</a>
</g>
</g>
<!-- Node2&#45;&gt;Node7 -->
<g id="edge6_Node000002_Node000007" class="edge">
<title>Node2&#45;&gt;Node7</title>
<g id="a_edge6_Node000002_Node000007"><a xlink:title=" ">
<path fill="none" stroke="#63b8ff" d="M1609.57,-73.36C1474.21,-70.47 1161.41,-60.77 900.5,-30 897.49,-29.65 894.43,-29.25 891.34,-28.82"/>
<polygon fill="#63b8ff" stroke="#63b8ff" points="1609.71,-76.86 1619.78,-73.57 1609.86,-69.86 1609.71,-76.86"/>
</a>
</g>
</g>
<!-- Node8 -->
<g id="Node000008" class="node">
<title>Node8</title>
<g id="a_Node000008"><a xlink:href="test__connection_receive_body_8cpp.html" target="_top" xlink:title=" ">
<polygon fill="white" stroke="#666666" points="1046,-30 909,-30 909,0 1046,0 1046,-30"/>
<text text-anchor="start" x="917" y="-18" font-family="Helvetica,sans-Serif" font-size="10.00">test/unit/test_connection</text>
<text text-anchor="middle" x="977.5" y="-7" font-family="Helvetica,sans-Serif" font-size="10.00">ReceiveBody.cpp</text>
</a>
</g>
</g>
<!-- Node2&#45;&gt;Node8 -->
<g id="edge7_Node000002_Node000008" class="edge">
<title>Node2&#45;&gt;Node8</title>
<g id="a_edge7_Node000002_Node000008"><a xlink:title=" ">
<path fill="none" stroke="#63b8ff" d="M1609.82,-72.01C1495.32,-67.28 1256.23,-55.12 1055.5,-30 1052.5,-29.62 1049.43,-29.21 1046.34,-28.77"/>
<polygon fill="#63b8ff" stroke="#63b8ff" points="1609.71,-75.51 1619.85,-72.42 1610,-68.52 1609.71,-75.51"/>
</a>
</g>
</g>
<!-- Node9 -->
<g id="Node000009" class="node">
<title>Node9</title>
<g id="a_Node000009"><a xlink:href="test__connection_receive_from_c_g_i_8cpp.html" target="_top" xlink:title=" ">
<polygon fill="white" stroke="#666666" points="1201,-30 1064,-30 1064,0 1201,0 1201,-30"/>
<text text-anchor="start" x="1072" y="-18" font-family="Helvetica,sans-Serif" font-size="10.00">test/unit/test_connection</text>
<text text-anchor="middle" x="1132.5" y="-7" font-family="Helvetica,sans-Serif" font-size="10.00">ReceiveFromCGI.cpp</text>
</a>
</g>
</g>
<!-- Node2&#45;&gt;Node9 -->
<g id="edge8_Node000002_Node000009" class="edge">
<title>Node2&#45;&gt;Node9</title>
<g id="a_edge8_Node000002_Node000009"><a xlink:title=" ">
<path fill="none" stroke="#63b8ff" d="M1609.62,-69.8C1518.55,-63.09 1351.9,-49.39 1210.5,-30 1207.5,-29.59 1204.44,-29.14 1201.35,-28.68"/>
<polygon fill="#63b8ff" stroke="#63b8ff" points="1609.58,-73.31 1619.81,-70.54 1610.09,-66.32 1609.58,-73.31"/>
</a>
</g>
</g>
<!-- Node10 -->
<g id="Node000010" class="node">
<title>Node10</title>
<g id="a_Node000010"><a xlink:href="test__connection_receive_header_8cpp.html" target="_top" xlink:title=" ">
<polygon fill="white" stroke="#666666" points="1356,-30 1219,-30 1219,0 1356,0 1356,-30"/>
<text text-anchor="start" x="1227" y="-18" font-family="Helvetica,sans-Serif" font-size="10.00">test/unit/test_connection</text>
<text text-anchor="middle" x="1287.5" y="-7" font-family="Helvetica,sans-Serif" font-size="10.00">ReceiveHeader.cpp</text>
</a>
</g>
</g>
<!-- Node2&#45;&gt;Node10 -->
<g id="edge9_Node000002_Node000010" class="edge">
<title>Node2&#45;&gt;Node10</title>
<g id="a_edge9_Node000002_Node000010"><a xlink:title=" ">
<path fill="none" stroke="#63b8ff" d="M1609.66,-65.54C1546.38,-57.01 1449.42,-43.51 1365.5,-30 1362.51,-29.52 1359.46,-29.02 1356.38,-28.5"/>
<polygon fill="#63b8ff" stroke="#63b8ff" points="1609.52,-69.05 1619.9,-66.92 1610.46,-62.11 1609.52,-69.05"/>
</a>
</g>
</g>
<!-- Node11 -->
<g id="Node000011" class="node">
<title>Node11</title>
<g id="a_Node000011"><a xlink:href="test__connection_send_response_8cpp.html" target="_top" xlink:title=" ">
<polygon fill="white" stroke="#666666" points="1511,-30 1374,-30 1374,0 1511,0 1511,-30"/>
<text text-anchor="start" x="1382" y="-18" font-family="Helvetica,sans-Serif" font-size="10.00">test/unit/test_connection</text>
<text text-anchor="middle" x="1442.5" y="-7" font-family="Helvetica,sans-Serif" font-size="10.00">SendResponse.cpp</text>
</a>
</g>
</g>
<!-- Node2&#45;&gt;Node11 -->
<g id="edge10_Node000002_Node000011" class="edge">
<title>Node2&#45;&gt;Node11</title>
<g id="a_edge10_Node000002_Node000011"><a xlink:title=" ">
<path fill="none" stroke="#63b8ff" d="M1633.57,-63.56C1595.54,-54.1 1540.31,-40.35 1499,-30.06"/>
<polygon fill="#63b8ff" stroke="#63b8ff" points="1632.78,-66.97 1643.33,-65.99 1634.47,-60.18 1632.78,-66.97"/>
</a>
</g>
</g>
<!-- Node12 -->
<g id="Node000012" class="node">
<title>Node12</title>
<g id="a_Node000012"><a xlink:href="test__connection_send_to_c_g_i_8cpp.html" target="_top" xlink:title=" ">
<polygon fill="white" stroke="#666666" points="1666,-30 1529,-30 1529,0 1666,0 1666,-30"/>
<text text-anchor="start" x="1537" y="-18" font-family="Helvetica,sans-Serif" font-size="10.00">test/unit/test_connection</text>
<text text-anchor="middle" x="1597.5" y="-7" font-family="Helvetica,sans-Serif" font-size="10.00">SendToCGI.cpp</text>
</a>
</g>
</g>
<!-- Node2&#45;&gt;Node12 -->
<g id="edge11_Node000002_Node000012" class="edge">
<title>Node2&#45;&gt;Node12</title>
<g id="a_edge11_Node000002_Node000012"><a xlink:title=" ">
<path fill="none" stroke="#63b8ff" d="M1657.35,-59.77C1644.92,-50.68 1629.07,-39.09 1616.8,-30.11"/>
<polygon fill="#63b8ff" stroke="#63b8ff" points="1655.56,-62.79 1665.7,-65.87 1659.69,-57.14 1655.56,-62.79"/>
</a>
</g>
</g>
<!-- Node13 -->
<g id="Node000013" class="node">
<title>Node13</title>
<g id="a_Node000013"><a xlink:href="test__create_virtual_server_8cpp.html" target="_top" xlink:title=" ">
<polygon fill="white" stroke="#666666" points="1831,-30 1684,-30 1684,0 1831,0 1831,-30"/>
<text text-anchor="start" x="1692" y="-18" font-family="Helvetica,sans-Serif" font-size="10.00">test/unit/test_createVirtual</text>
<text text-anchor="middle" x="1757.5" y="-7" font-family="Helvetica,sans-Serif" font-size="10.00">Server.cpp</text>
</a>
</g>
</g>
<!-- Node2&#45;&gt;Node13 -->
<g id="edge12_Node000002_Node000013" class="edge">
<title>Node2&#45;&gt;Node13</title>
<g id="a_edge12_Node000002_Node000013"><a xlink:title=" ">
<path fill="none" stroke="#63b8ff" d="M1697.65,-59.77C1710.08,-50.68 1725.93,-39.09 1738.2,-30.11"/>
<polygon fill="#63b8ff" stroke="#63b8ff" points="1695.31,-57.14 1689.3,-65.87 1699.44,-62.79 1695.31,-57.14"/>
</a>
</g>
</g>
<!-- Node14 -->
<g id="Node000014" class="node">
<title>Node14</title>
<g id="a_Node000014"><a xlink:href="test__handle_body_8cpp.html" target="_top" xlink:title=" ">
<polygon fill="white" stroke="#666666" points="2010,-24.5 1849,-24.5 1849,-5.5 2010,-5.5 2010,-24.5"/>
<text text-anchor="middle" x="1929.5" y="-12.5" font-family="Helvetica,sans-Serif" font-size="10.00">test/unit/test_handleBody.cpp</text>
</a>
</g>
</g>
<!-- Node2&#45;&gt;Node14 -->
<g id="edge13_Node000002_Node000014" class="edge">
<title>Node2&#45;&gt;Node14</title>
<g id="a_edge13_Node000002_Node000014"><a xlink:title=" ">
<path fill="none" stroke="#63b8ff" d="M1724.11,-63.68C1772.8,-52.38 1848.19,-34.88 1892.81,-24.52"/>
<polygon fill="#63b8ff" stroke="#63b8ff" points="1723.09,-60.32 1714.14,-65.99 1724.68,-67.14 1723.09,-60.32"/>
</a>
</g>
</g>
<!-- Node15 -->
<g id="Node000015" class="node">
<title>Node15</title>
<g id="a_Node000015"><a xlink:href="test__handle_complete_request_header_8cpp.html" target="_top" xlink:title=" ">
<polygon fill="white" stroke="#666666" points="2192.5,-30 2028.5,-30 2028.5,0 2192.5,0 2192.5,-30"/>
<text text-anchor="start" x="2036.5" y="-18" font-family="Helvetica,sans-Serif" font-size="10.00">test/unit/test_handleComplete</text>
<text text-anchor="middle" x="2110.5" y="-7" font-family="Helvetica,sans-Serif" font-size="10.00">RequestHeader.cpp</text>
</a>
</g>
</g>
<!-- Node2&#45;&gt;Node15 -->
<g id="edge14_Node000002_Node000015" class="edge">
<title>Node2&#45;&gt;Node15</title>
<g id="a_edge14_Node000002_Node000015"><a xlink:title=" ">
<path fill="none" stroke="#63b8ff" d="M1745.34,-66.14C1814.39,-57.53 1924.49,-43.49 2019.5,-30 2022.35,-29.6 2025.25,-29.18 2028.17,-28.75"/>
<polygon fill="#63b8ff" stroke="#63b8ff" points="1744.53,-62.72 1735.04,-67.43 1745.4,-69.66 1744.53,-62.72"/>
</a>
</g>
</g>
<!-- Node16 -->
<g id="Node000016" class="node">
<title>Node16</title>
<g id="a_Node000016"><a xlink:href="test__handle_event_8cpp.html" target="_top" xlink:title=" ">
<polygon fill="white" stroke="#666666" points="2376,-24.5 2211,-24.5 2211,-5.5 2376,-5.5 2376,-24.5"/>
<text text-anchor="middle" x="2293.5" y="-12.5" font-family="Helvetica,sans-Serif" font-size="10.00">test/unit/test_handleEvent.cpp</text>
</a>
</g>
</g>
<!-- Node2&#45;&gt;Node16 -->
<g id="edge15_Node000002_Node000016" class="edge">
<title>Node2&#45;&gt;Node16</title>
<g id="a_edge15_Node000002_Node000016"><a xlink:title=" ">
<path fill="none" stroke="#63b8ff" d="M1745.27,-70.19C1845.27,-63.49 2038.19,-49.34 2201.5,-30 2214.5,-28.46 2228.48,-26.49 2241.52,-24.52"/>
<polygon fill="#63b8ff" stroke="#63b8ff" points="1744.75,-66.71 1735,-70.87 1745.21,-73.7 1744.75,-66.71"/>
</a>
</g>
</g>
<!-- Node17 -->
<g id="Node000017" class="node">
<title>Node17</title>
<g id="a_Node000017"><a xlink:href="test__helpers_8cpp.html" target="_top" xlink:title=" ">
<polygon fill="white" stroke="#666666" points="2534.5,-24.5 2394.5,-24.5 2394.5,-5.5 2534.5,-5.5 2534.5,-24.5"/>
<text text-anchor="middle" x="2464.5" y="-12.5" font-family="Helvetica,sans-Serif" font-size="10.00">test/unit/test_helpers.cpp</text>
</a>
</g>
</g>
<!-- Node2&#45;&gt;Node17 -->
<g id="edge16_Node000002_Node000017" class="edge">
<title>Node2&#45;&gt;Node17</title>
<g id="a_edge16_Node000002_Node000017"><a xlink:title=" ">
<path fill="none" stroke="#63b8ff" d="M1745.34,-72.78C1871.7,-69.01 2151.48,-58 2385.5,-30 2397.26,-28.59 2409.91,-26.58 2421.58,-24.51"/>
<polygon fill="#63b8ff" stroke="#63b8ff" points="1744.95,-69.29 1735.06,-73.08 1745.15,-76.28 1744.95,-69.29"/>
</a>
</g>
</g>
<!-- Node18 -->
<g id="Node000018" class="node">
<title>Node18</title>
<g id="a_Node000018"><a xlink:href="test__init_virtual_servers_8cpp.html" target="_top" xlink:title=" ">
<polygon fill="white" stroke="#666666" points="2684.5,-30 2552.5,-30 2552.5,0 2684.5,0 2684.5,-30"/>
<text text-anchor="start" x="2560.5" y="-18" font-family="Helvetica,sans-Serif" font-size="10.00">test/unit/test_initVirtual</text>
<text text-anchor="middle" x="2618.5" y="-7" font-family="Helvetica,sans-Serif" font-size="10.00">Servers.cpp</text>
</a>
</g>
</g>
<!-- Node2&#45;&gt;Node18 -->
<g id="edge17_Node000002_Node000018" class="edge">
<title>Node2&#45;&gt;Node18</title>
<g id="a_edge17_Node000002_Node000018"><a xlink:title=" ">
<path fill="none" stroke="#63b8ff" d="M1745.41,-74.08C1891.77,-72.5 2247.68,-65.05 2543.5,-30 2546.39,-29.66 2549.34,-29.27 2552.32,-28.85"/>
<polygon fill="#63b8ff" stroke="#63b8ff" points="1745.2,-70.58 1735.23,-74.18 1745.27,-77.58 1745.2,-70.58"/>
</a>
</g>
</g>
<!-- Node19 -->
<g id="Node000019" class="node">
<title>Node19</title>
<g id="a_Node000019"><a xlink:href="test__is_duplicate_server_8cpp.html" target="_top" xlink:title=" ">
<polygon fill="white" stroke="#666666" points="2842,-30 2703,-30 2703,0 2842,0 2842,-30"/>
<text text-anchor="start" x="2711" y="-18" font-family="Helvetica,sans-Serif" font-size="10.00">test/unit/test_isDuplicate</text>
<text text-anchor="middle" x="2772.5" y="-7" font-family="Helvetica,sans-Serif" font-size="10.00">Server.cpp</text>
</a>
</g>
</g>
<!-- Node2&#45;&gt;Node19 -->
<g id="edge18_Node000002_Node000019" class="edge">
<title>Node2&#45;&gt;Node19</title>
<g id="a_edge18_Node000002_Node000019"><a xlink:title=" ">
<path fill="none" stroke="#63b8ff" d="M1745.68,-74.6C1909.54,-74.18 2338.24,-69.09 2693.5,-30 2696.55,-29.66 2699.65,-29.28 2702.78,-28.87"/>
<polygon fill="#63b8ff" stroke="#63b8ff" points="1745.26,-71.11 1735.27,-74.63 1745.28,-78.11 1745.26,-71.11"/>
</a>
</g>
</g>
<!-- Node20 -->
<g id="Node000020" class="node">
<title>Node20</title>
<g id="a_Node000020"><a xlink:href="test__register_c_g_i_file_descriptor_8cpp.html" target="_top" xlink:title=" ">
<polygon fill="white" stroke="#666666" points="3016.5,-30 2860.5,-30 2860.5,0 3016.5,0 3016.5,-30"/>
<text text-anchor="start" x="2868.5" y="-18" font-family="Helvetica,sans-Serif" font-size="10.00">test/unit/test_registerCGIFile</text>
<text text-anchor="middle" x="2938.5" y="-7" font-family="Helvetica,sans-Serif" font-size="10.00">Descriptor.cpp</text>
</a>
</g>
</g>
<!-- Node2&#45;&gt;Node20 -->
<g id="edge19_Node000002_Node000020" class="edge">
<title>Node2&#45;&gt;Node20</title>
<g id="a_edge19_Node000002_Node000020"><a xlink:title=" ">
<path fill="none" stroke="#63b8ff" d="M1745.22,-74.81C1925.57,-75.01 2432.38,-71.51 2851.5,-30 2854.39,-29.71 2857.33,-29.39 2860.3,-29.04"/>
<polygon fill="#63b8ff" stroke="#63b8ff" points="1745.09,-71.31 1735.08,-74.79 1745.08,-78.31 1745.09,-71.31"/>
</a>
</g>
</g>
<!-- Node21 -->
<g id="Node000021" class="node">
<title>Node21</title>
<g id="a_Node000021"><a xlink:href="test__register_connection_8cpp.html" target="_top" xlink:title=" ">
<polygon fill="white" stroke="#666666" points="3232,-24.5 3035,-24.5 3035,-5.5 3232,-5.5 3232,-24.5"/>
<text text-anchor="middle" x="3133.5" y="-12.5" font-family="Helvetica,sans-Serif" font-size="10.00">test/unit/test_registerConnection.cpp</text>
</a>
</g>
</g>
<!-- Node2&#45;&gt;Node21 -->
<g id="edge20_Node000002_Node000021" class="edge">
<title>Node2&#45;&gt;Node21</title>
<g id="a_edge20_Node000002_Node000021"><a xlink:title=" ">
<path fill="none" stroke="#63b8ff" d="M1745.32,-74.56C1943.01,-74.23 2535.69,-69.74 3025.5,-30 3041.9,-28.67 3059.62,-26.63 3075.88,-24.51"/>
<polygon fill="#63b8ff" stroke="#63b8ff" points="1745.09,-71.06 1735.09,-74.57 1745.1,-78.06 1745.09,-71.06"/>
</a>
</g>
</g>
<!-- Node22 -->
<g id="Node000022" class="node">
<title>Node22</title>
<g id="a_Node000022"><a xlink:href="test__register_virtual_server_8cpp.html" target="_top" xlink:title=" ">
<polygon fill="white" stroke="#666666" points="3404.5,-30 3250.5,-30 3250.5,0 3404.5,0 3404.5,-30"/>
<text text-anchor="start" x="3258.5" y="-18" font-family="Helvetica,sans-Serif" font-size="10.00">test/unit/test_registerVirtual</text>
<text text-anchor="middle" x="3327.5" y="-7" font-family="Helvetica,sans-Serif" font-size="10.00">Server.cpp</text>
</a>
</g>
</g>
<!-- Node2&#45;&gt;Node22 -->
<g id="edge21_Node000002_Node000022" class="edge">
<title>Node2&#45;&gt;Node22</title>
<g id="a_edge21_Node000002_Node000022"><a xlink:title=" ">
<path fill="none" stroke="#63b8ff" d="M1745.48,-73.77C2006.49,-70.78 2944.63,-58.26 3241.5,-30 3244.36,-29.73 3247.27,-29.42 3250.21,-29.08"/>
<polygon fill="#63b8ff" stroke="#63b8ff" points="1745.34,-70.27 1735.38,-73.88 1745.42,-77.27 1745.34,-70.27"/>
</a>
</g>
</g>
<!-- Node23 -->
<g id="Node000023" class="node">
<title>Node23</title>
<g id="a_Node000023"><a xlink:href="test__shutdown_server_8cpp.html" target="_top" xlink:title=" ">
<polygon fill="white" stroke="#666666" points="3604.5,-24.5 3422.5,-24.5 3422.5,-5.5 3604.5,-5.5 3604.5,-24.5"/>
<text text-anchor="middle" x="3513.5" y="-12.5" font-family="Helvetica,sans-Serif" font-size="10.00">test/unit/test_shutdownServer.cpp</text>
</a>
</g>
</g>
<!-- Node2&#45;&gt;Node23 -->
<g id="edge22_Node000002_Node000023" class="edge">
<title>Node2&#45;&gt;Node23</title>
<g id="a_edge22_Node000002_Node000023"><a xlink:title=" ">
<path fill="none" stroke="#63b8ff" d="M1745.36,-73.79C2023.93,-70.72 3080.69,-57.47 3413.5,-30 3428.87,-28.73 3445.5,-26.68 3460.69,-24.53"/>
<polygon fill="#63b8ff" stroke="#63b8ff" points="1744.96,-70.3 1735,-73.9 1745.04,-77.29 1744.96,-70.3"/>
</a>
</g>
</g>
</g>
</svg>

<g id="navigator" transform="translate(0 0)" fill="#404254">
  <rect fill="#f2f5e9" fill-opacity="0.5" stroke="#606060" stroke-width=".5" x="0" y="0" width="60" height="60"/>
  <use id="zoomplus" xlink:href="#zoomPlus" x="17" y="9" onmousedown="handleZoom(evt,'in')"/>
  <use id="zoomminus" xlink:href="#zoomMin" x="42" y="9" onmousedown="handleZoom(evt,'out')"/>
  <use id="reset" xlink:href="#resetDef" x="30" y="36" onmousedown="handleReset()"/>
   <use id="arrowup" xlink:href="#arrowUp" x="0" y="0" onmousedown="handlePan(0,-1)"/>
  <use id="arrowright" xlink:href="#arrowRight" x="0" y="0" onmousedown="handlePan(1,0)"/>
  <use id="arrowdown" xlink:href="#arrowDown" x="0" y="0" onmousedown="handlePan(0,1)"/>
  <use id="arrowleft" xlink:href="#arrowLeft" x="0" y="0" onmousedown="handlePan(-1,0)"/>
</g>
<svg viewBox="0 0 15 15" width="100%" height="30px" preserveAspectRatio="xMaxYMin meet">
 <g id="arrow_out" transform="scale(0.3 0.3)">
  <a xlink:href="_mock_process_ops_8hpp__dep__incl_org.svg" target="_base">
   <rect id="button" ry="5" rx="5" y="6" x="6" height="38" width="38"
        fill="#f2f5e9" fill-opacity="0.5" stroke="#606060" stroke-width="1.0"/>
   <path id="arrow"
     d="M 11.500037,31.436501 C 11.940474,20.09759 22.043105,11.32322 32.158766,21.979434 L 37.068811,17.246167 C 37.068811,17.246167 37.088388,32 37.088388,32 L 22.160133,31.978069 C 22.160133,31.978069 26.997745,27.140456 26.997745,27.140456 C 18.528582,18.264221 13.291696,25.230495 11.500037,31.436501 z"
     style="fill:#404040;"/>
  </a>
 </g>
</svg>

<style type='text/css'>
<![CDATA[
[data-mouse-over-selected='false'] { opacity: 0.7; }
[data-mouse-over-selected='true']  { opacity: 1.0; }
]]>
</style>
<script type="application/ecmascript"><![CDATA[
document.addEventListener('DOMContentLoaded', (event) => {
  highlightEdges();
  highlightAdjacentNodes();
});
]]></script>
</svg>
