<?xml version="1.0" encoding="UTF-8" standalone="no"?>
<!DOCTYPE svg PUBLIC "-//W3C//DTD SVG 1.1//EN"
 "http://www.w3.org/Graphics/SVG/1.1/DTD/svg11.dtd">
<!-- Generated by graphviz version 2.43.0 (0)
 -->
<!-- Title: inc/ProcessOps.hpp Pages: 1 -->
<svg width="3416pt" height="258pt"
 viewBox="0.00 0.00 3416.00 258.00" xmlns="http://www.w3.org/2000/svg" xmlns:xlink="http://www.w3.org/1999/xlink">
<g id="graph0" class="graph" transform="scale(1 1) rotate(0) translate(4 254)">
<title>inc/ProcessOps.hpp</title>
<!-- Node1 -->
<g id="Node000001" class="node">
<title>Node1</title>
<g id="a_Node000001"><a xlink:title=" ">
<polygon fill="#999999" stroke="#666666" points="3186.5,-250 3075.5,-250 3075.5,-231 3186.5,-231 3186.5,-250"/>
<text text-anchor="middle" x="3131" y="-238" font-family="Helvetica,sans-Serif" font-size="10.00">inc/ProcessOps.hpp</text>
</a>
</g>
</g>
<!-- Node2 -->
<g id="Node000002" class="node">
<title>Node2</title>
<g id="a_Node000002"><a xlink:href="_c_g_i_handler_8hpp.html" target="_top" xlink:title=" ">
<polygon fill="white" stroke="#666666" points="3126,-195 3016,-195 3016,-176 3126,-176 3126,-195"/>
<text text-anchor="middle" x="3071" y="-183" font-family="Helvetica,sans-Serif" font-size="10.00">inc/CGIHandler.hpp</text>
</a>
</g>
</g>
<!-- Node1&#45;&gt;Node2 -->
<g id="edge1_Node000001_Node000002" class="edge">
<title>Node1&#45;&gt;Node2</title>
<g id="a_edge1_Node000001_Node000002"><a xlink:title=" ">
<path fill="none" stroke="#63b8ff" d="M3113.82,-224.32C3103.12,-214.87 3089.74,-203.06 3080.82,-195.17"/>
<polygon fill="#63b8ff" stroke="#63b8ff" points="3111.55,-226.99 3121.36,-230.98 3116.18,-221.74 3111.55,-226.99"/>
</a>
</g>
</g>
<!-- Node3 -->
<g id="Node000003" class="node">
<title>Node3</title>
<g id="a_Node000003"><a xlink:href="_server_8hpp.html" target="_top" xlink:title=" ">
<polygon fill="white" stroke="#666666" points="1747,-140 1661,-140 1661,-121 1747,-121 1747,-140"/>
<text text-anchor="middle" x="1704" y="-128" font-family="Helvetica,sans-Serif" font-size="10.00">inc/Server.hpp</text>
</a>
</g>
</g>
<!-- Node1&#45;&gt;Node3 -->
<g id="edge42_Node000001_Node000003" class="edge">
<title>Node1&#45;&gt;Node3</title>
<g id="a_edge42_Node000001_Node000003"><a xlink:title=" ">
<path fill="none" stroke="#63b8ff" d="M3065.38,-234.82C2953.62,-226.81 2719.17,-209.93 2521,-195 2225.21,-172.72 1869.29,-144.61 1747.39,-134.95"/>
<polygon fill="#63b8ff" stroke="#63b8ff" points="3065.26,-238.32 3075.48,-235.54 3065.76,-231.33 3065.26,-238.32"/>
</a>
</g>
</g>
<!-- Node6 -->
<g id="Node000006" class="node">
<title>Node6</title>
<g id="a_Node000006"><a xlink:href="main_8cpp.html" target="_top" xlink:title=" ">
<polygon fill="white" stroke="#666666" points="406.5,-19 327.5,-19 327.5,0 406.5,0 406.5,-19"/>
<text text-anchor="middle" x="367" y="-7" font-family="Helvetica,sans-Serif" font-size="10.00">src/main.cpp</text>
</a>
</g>
</g>
<!-- Node1&#45;&gt;Node6 -->
<g id="edge44_Node000001_Node000006" class="edge">
<title>Node1&#45;&gt;Node6</title>
<g id="a_edge44_Node000001_Node000006"><a xlink:title=" ">
<path fill="none" stroke="#63b8ff" d="M3152.67,-225.21C3200.13,-192.29 3304.9,-109.74 3251,-55 3224.85,-28.44 750.74,-12.78 406.56,-10.73"/>
<polygon fill="#63b8ff" stroke="#63b8ff" points="3150.56,-222.41 3144.26,-230.94 3154.5,-228.2 3150.56,-222.41"/>
</a>
</g>
</g>
<!-- Node25 -->
<g id="Node000025" class="node">
<title>Node25</title>
<g id="a_Node000025"><a xlink:href="test___c_g_i_handler_8cpp.html" target="_top" xlink:title=" ">
<polygon fill="white" stroke="#666666" points="3241.5,-79.5 3104.5,-79.5 3104.5,-60.5 3241.5,-60.5 3241.5,-79.5"/>
<text text-anchor="middle" x="3173" y="-67.5" font-family="Helvetica,sans-Serif" font-size="10.00">test/test_CGIHandler.cpp</text>
</a>
</g>
</g>
<!-- Node1&#45;&gt;Node25 -->
<g id="edge45_Node000001_Node000025" class="edge">
<title>Node1&#45;&gt;Node25</title>
<g id="a_edge45_Node000001_Node000025"><a xlink:title=" ">
<path fill="none" stroke="#63b8ff" d="M3135.68,-220.74C3144.71,-184.48 3164.27,-106.04 3170.81,-79.77"/>
<polygon fill="#63b8ff" stroke="#63b8ff" points="3132.16,-220.36 3133.14,-230.91 3138.96,-222.06 3132.16,-220.36"/>
</a>
</g>
</g>
<!-- Node26 -->
<g id="Node000026" class="node">
<title>Node26</title>
<g id="a_Node000026"><a xlink:href="_mock_process_ops_8hpp.html" target="_top" xlink:title=" ">
<polygon fill="white" stroke="#666666" points="2117.5,-140 1980.5,-140 1980.5,-121 2117.5,-121 2117.5,-140"/>
<text text-anchor="middle" x="2049" y="-128" font-family="Helvetica,sans-Serif" font-size="10.00">inc/MockProcessOps.hpp</text>
</a>
</g>
</g>
<!-- Node1&#45;&gt;Node26 -->
<g id="edge26_Node000001_Node000026" class="edge">
<title>Node1&#45;&gt;Node26</title>
<g id="a_edge26_Node000001_Node000026"><a xlink:title=" ">
<path fill="none" stroke="#63b8ff" d="M3065.25,-232.94C2873.02,-213.75 2313.25,-157.88 2117.53,-138.34"/>
<polygon fill="#63b8ff" stroke="#63b8ff" points="3065.18,-236.45 3075.48,-233.96 3065.88,-229.48 3065.18,-236.45"/>
</a>
</g>
</g>
<!-- Node27 -->
<g id="Node000027" class="node">
<title>Node27</title>
<g id="a_Node000027"><a xlink:href="_process_ops_8cpp.html" target="_top" xlink:title=" ">
<polygon fill="white" stroke="#666666" points="3408,-195 3298,-195 3298,-176 3408,-176 3408,-195"/>
<text text-anchor="middle" x="3353" y="-183" font-family="Helvetica,sans-Serif" font-size="10.00">src/ProcessOps.cpp</text>
</a>
</g>
</g>
<!-- Node1&#45;&gt;Node27 -->
<g id="edge43_Node000001_Node000027" class="edge">
<title>Node1&#45;&gt;Node27</title>
<g id="a_edge43_Node000001_Node000027"><a xlink:title=" ">
<path fill="none" stroke="#63b8ff" d="M3176.54,-228.63C3218.13,-218.7 3278.78,-204.22 3317.05,-195.08"/>
<polygon fill="#63b8ff" stroke="#63b8ff" points="3175.58,-225.26 3166.67,-230.98 3177.21,-232.07 3175.58,-225.26"/>
</a>
</g>
</g>
<!-- Node2&#45;&gt;Node3 -->
<g id="edge2_Node000002_Node000003" class="edge">
<title>Node2&#45;&gt;Node3</title>
<g id="a_edge2_Node000002_Node000003"><a xlink:title=" ">
<path fill="none" stroke="#63b8ff" d="M3005.45,-181.96C2766.39,-172.69 1945.07,-140.85 1747.16,-133.17"/>
<polygon fill="#63b8ff" stroke="#63b8ff" points="3005.59,-185.47 3015.72,-182.36 3005.86,-178.47 3005.59,-185.47"/>
</a>
</g>
</g>
<!-- Node24 -->
<g id="Node000024" class="node">
<title>Node24</title>
<g id="a_Node000024"><a xlink:href="_c_g_i_handler_8cpp.html" target="_top" xlink:title=" ">
<polygon fill="white" stroke="#666666" points="3106.5,-140 2997.5,-140 2997.5,-121 3106.5,-121 3106.5,-140"/>
<text text-anchor="middle" x="3052" y="-128" font-family="Helvetica,sans-Serif" font-size="10.00">src/CGIHandler.cpp</text>
</a>
</g>
</g>
<!-- Node2&#45;&gt;Node24 -->
<g id="edge24_Node000002_Node000024" class="edge">
<title>Node2&#45;&gt;Node24</title>
<g id="a_edge24_Node000002_Node000024"><a xlink:title=" ">
<path fill="none" stroke="#63b8ff" d="M3064.45,-166.24C3061.28,-157.37 3057.61,-147.14 3055.08,-140.09"/>
<polygon fill="#63b8ff" stroke="#63b8ff" points="3061.19,-167.52 3067.86,-175.75 3067.78,-165.15 3061.19,-167.52"/>
</a>
</g>
</g>
<!-- Node2&#45;&gt;Node25 -->
<g id="edge25_Node000002_Node000025" class="edge">
<title>Node2&#45;&gt;Node25</title>
<g id="a_edge25_Node000002_Node000025"><a xlink:title=" ">
<path fill="none" stroke="#63b8ff" d="M3087.54,-168.92C3096.22,-160.55 3106.92,-149.93 3116,-140 3135.08,-119.13 3155.84,-93.06 3166.25,-79.73"/>
<polygon fill="#63b8ff" stroke="#63b8ff" points="3085.05,-166.46 3080.23,-175.89 3089.88,-171.52 3085.05,-166.46"/>
</a>
</g>
</g>
<!-- Node4 -->
<g id="Node000004" class="node">
<title>Node4</title>
<g id="a_Node000004"><a xlink:href="_config_file_parser_8hpp.html" target="_top" xlink:title=" ">
<polygon fill="white" stroke="#666666" points="310,-79.5 178,-79.5 178,-60.5 310,-60.5 310,-79.5"/>
<text text-anchor="middle" x="244" y="-67.5" font-family="Helvetica,sans-Serif" font-size="10.00">inc/ConfigFileParser.hpp</text>
</a>
</g>
</g>
<!-- Node3&#45;&gt;Node4 -->
<g id="edge3_Node000003_Node000004" class="edge">
<title>Node3&#45;&gt;Node4</title>
<g id="a_edge3_Node000003_Node000004"><a xlink:title=" ">
<path fill="none" stroke="#63b8ff" d="M1650.64,-128.79C1430.04,-125.68 588.35,-112.26 324,-85 311.66,-83.73 298.35,-81.68 286.19,-79.53"/>
<polygon fill="#63b8ff" stroke="#63b8ff" points="1650.63,-132.29 1660.67,-128.93 1650.72,-125.29 1650.63,-132.29"/>
</a>
</g>
</g>
<!-- Node3&#45;&gt;Node6 -->
<g id="edge8_Node000003_Node000006" class="edge">
<title>Node3&#45;&gt;Node6</title>
<g id="a_edge8_Node000003_Node000006"><a xlink:title=" ">
<path fill="none" stroke="#63b8ff" d="M1650.8,-129.78C1406.57,-130.83 402.71,-132.25 357,-85 339.76,-67.18 353.62,-34.77 361.91,-19.25"/>
<polygon fill="#63b8ff" stroke="#63b8ff" points="1650.86,-133.28 1660.85,-129.74 1650.83,-126.28 1650.86,-133.28"/>
</a>
</g>
</g>
<!-- Node8 -->
<g id="Node000008" class="node">
<title>Node8</title>
<g id="a_Node000008"><a xlink:href="_server_8cpp.html" target="_top" xlink:title=" ">
<polygon fill="white" stroke="#666666" points="451.5,-79.5 366.5,-79.5 366.5,-60.5 451.5,-60.5 451.5,-79.5"/>
<text text-anchor="middle" x="409" y="-67.5" font-family="Helvetica,sans-Serif" font-size="10.00">src/Server.cpp</text>
</a>
</g>
</g>
<!-- Node3&#45;&gt;Node8 -->
<g id="edge7_Node000003_Node000008" class="edge">
<title>Node3&#45;&gt;Node8</title>
<g id="a_edge7_Node000003_Node000008"><a xlink:title=" ">
<path fill="none" stroke="#63b8ff" d="M1650.55,-129.2C1443.71,-127.79 695.67,-120.32 461,-85 452.77,-83.76 443.98,-81.69 436.01,-79.52"/>
<polygon fill="#63b8ff" stroke="#63b8ff" points="1650.82,-132.7 1660.84,-129.27 1650.87,-125.7 1650.82,-132.7"/>
</a>
</g>
</g>
<!-- Node9 -->
<g id="Node000009" class="node">
<title>Node9</title>
<g id="a_Node000009"><a xlink:href="test__accept_connections_8cpp.html" target="_top" xlink:title=" ">
<polygon fill="white" stroke="#666666" points="1512.5,-79.5 1337.5,-79.5 1337.5,-60.5 1512.5,-60.5 1512.5,-79.5"/>
<text text-anchor="middle" x="1425" y="-67.5" font-family="Helvetica,sans-Serif" font-size="10.00">test/test_acceptConnections.cpp</text>
</a>
</g>
</g>
<!-- Node3&#45;&gt;Node9 -->
<g id="edge9_Node000003_Node000009" class="edge">
<title>Node3&#45;&gt;Node9</title>
<g id="a_edge9_Node000003_Node000009"><a xlink:title=" ">
<path fill="none" stroke="#63b8ff" d="M1653.41,-118.89C1599.54,-107.6 1515.33,-89.94 1465.62,-79.52"/>
<polygon fill="#63b8ff" stroke="#63b8ff" points="1652.93,-122.37 1663.43,-120.99 1654.36,-115.52 1652.93,-122.37"/>
</a>
</g>
</g>
<!-- Node10 -->
<g id="Node000010" class="node">
<title>Node10</title>
<g id="a_Node000010"><a xlink:href="test__check_for_timeout_8cpp.html" target="_top" xlink:title=" ">
<polygon fill="white" stroke="#666666" points="1697.5,-79.5 1530.5,-79.5 1530.5,-60.5 1697.5,-60.5 1697.5,-79.5"/>
<text text-anchor="middle" x="1614" y="-67.5" font-family="Helvetica,sans-Serif" font-size="10.00">test/test_checkForTimeout.cpp</text>
</a>
</g>
</g>
<!-- Node3&#45;&gt;Node10 -->
<g id="edge10_Node000003_Node000010" class="edge">
<title>Node3&#45;&gt;Node10</title>
<g id="a_edge10_Node000003_Node000010"><a xlink:title=" ">
<path fill="none" stroke="#63b8ff" d="M1681.94,-115.16C1664.84,-104.05 1641.71,-89.01 1627.33,-79.67"/>
<polygon fill="#63b8ff" stroke="#63b8ff" points="1680.43,-118.35 1690.72,-120.87 1684.24,-112.48 1680.43,-118.35"/>
</a>
</g>
</g>
<!-- Node11 -->
<g id="Node000011" class="node">
<title>Node11</title>
<g id="a_Node000011"><a xlink:href="test__connection_receive_from_c_g_i_8cpp.html" target="_top" xlink:title=" ">
<polygon fill="white" stroke="#666666" points="1870.5,-85 1715.5,-85 1715.5,-55 1870.5,-55 1870.5,-85"/>
<text text-anchor="start" x="1723.5" y="-73" font-family="Helvetica,sans-Serif" font-size="10.00">test/test_connectionReceive</text>
<text text-anchor="middle" x="1793" y="-62" font-family="Helvetica,sans-Serif" font-size="10.00">FromCGI.cpp</text>
</a>
</g>
</g>
<!-- Node3&#45;&gt;Node11 -->
<g id="edge11_Node000003_Node000011" class="edge">
<title>Node3&#45;&gt;Node11</title>
<g id="a_edge11_Node000003_Node000011"><a xlink:title=" ">
<path fill="none" stroke="#63b8ff" d="M1725.61,-115.29C1739.55,-106.13 1757.61,-94.26 1771.53,-85.11"/>
<polygon fill="#63b8ff" stroke="#63b8ff" points="1723.57,-112.45 1717.13,-120.87 1727.41,-118.3 1723.57,-112.45"/>
</a>
</g>
</g>
<!-- Node12 -->
<g id="Node000012" class="node">
<title>Node12</title>
<g id="a_Node000012"><a xlink:href="test__connection_receive_header_8cpp.html" target="_top" xlink:title=" ">
<polygon fill="white" stroke="#666666" points="2043.5,-85 1888.5,-85 1888.5,-55 2043.5,-55 2043.5,-85"/>
<text text-anchor="start" x="1896.5" y="-73" font-family="Helvetica,sans-Serif" font-size="10.00">test/test_connectionReceive</text>
<text text-anchor="middle" x="1966" y="-62" font-family="Helvetica,sans-Serif" font-size="10.00">Header.cpp</text>
</a>
</g>
</g>
<!-- Node3&#45;&gt;Node12 -->
<g id="edge12_Node000003_Node000012" class="edge">
<title>Node3&#45;&gt;Node12</title>
<g id="a_edge12_Node000003_Node000012"><a xlink:title=" ">
<path fill="none" stroke="#63b8ff" d="M1751.92,-118.8C1794.42,-109.31 1856.8,-95.38 1903.26,-85.01"/>
<polygon fill="#63b8ff" stroke="#63b8ff" points="1751.09,-115.4 1742.1,-120.99 1752.62,-122.23 1751.09,-115.4"/>
</a>
</g>
</g>
<!-- Node13 -->
<g id="Node000013" class="node">
<title>Node13</title>
<g id="a_Node000013"><a xlink:href="test__connection_send_response_8cpp.html" target="_top" xlink:title=" ">
<polygon fill="white" stroke="#666666" points="2202,-85 2062,-85 2062,-55 2202,-55 2202,-85"/>
<text text-anchor="start" x="2070" y="-73" font-family="Helvetica,sans-Serif" font-size="10.00">test/test_connectionSend</text>
<text text-anchor="middle" x="2132" y="-62" font-family="Helvetica,sans-Serif" font-size="10.00">Response.cpp</text>
</a>
</g>
</g>
<!-- Node3&#45;&gt;Node13 -->
<g id="edge13_Node000003_Node000013" class="edge">
<title>Node3&#45;&gt;Node13</title>
<g id="a_edge13_Node000003_Node000013"><a xlink:title=" ">
<path fill="none" stroke="#63b8ff" d="M1757.19,-123.53C1825.72,-115.66 1948.47,-100.92 2053,-85 2055.89,-84.56 2058.84,-84.1 2061.82,-83.62"/>
<polygon fill="#63b8ff" stroke="#63b8ff" points="1756.61,-120.07 1747.08,-124.69 1757.41,-127.03 1756.61,-120.07"/>
</a>
</g>
</g>
<!-- Node14 -->
<g id="Node000014" class="node">
<title>Node14</title>
<g id="a_Node000014"><a xlink:href="test__connection_send_to_c_g_i_8cpp.html" target="_top" xlink:title=" ">
<polygon fill="white" stroke="#666666" points="2360,-85 2220,-85 2220,-55 2360,-55 2360,-85"/>
<text text-anchor="start" x="2228" y="-73" font-family="Helvetica,sans-Serif" font-size="10.00">test/test_connectionSend</text>
<text text-anchor="middle" x="2290" y="-62" font-family="Helvetica,sans-Serif" font-size="10.00">ToCGI.cpp</text>
</a>
</g>
</g>
<!-- Node3&#45;&gt;Node14 -->
<g id="edge14_Node000003_Node000014" class="edge">
<title>Node3&#45;&gt;Node14</title>
<g id="a_edge14_Node000003_Node000014"><a xlink:title=" ">
<path fill="none" stroke="#63b8ff" d="M1757.45,-126.36C1850.08,-120.57 2046.31,-106.78 2211,-85 2213.9,-84.62 2216.86,-84.2 2219.84,-83.76"/>
<polygon fill="#63b8ff" stroke="#63b8ff" points="1756.97,-122.88 1747.21,-126.99 1757.41,-129.87 1756.97,-122.88"/>
</a>
</g>
</g>
<!-- Node15 -->
<g id="Node000015" class="node">
<title>Node15</title>
<g id="a_Node000015"><a xlink:href="test__create_virtual_server_8cpp.html" target="_top" xlink:title=" ">
<polygon fill="white" stroke="#666666" points="2554,-79.5 2378,-79.5 2378,-60.5 2554,-60.5 2554,-79.5"/>
<text text-anchor="middle" x="2466" y="-67.5" font-family="Helvetica,sans-Serif" font-size="10.00">test/test_createVirtualServer.cpp</text>
</a>
</g>
</g>
<!-- Node3&#45;&gt;Node15 -->
<g id="edge15_Node000003_Node000015" class="edge">
<title>Node3&#45;&gt;Node15</title>
<g id="a_edge15_Node000003_Node000015"><a xlink:title=" ">
<path fill="none" stroke="#63b8ff" d="M1757.4,-127.32C1870.44,-122.39 2142.2,-108.92 2369,-85 2383.04,-83.52 2398.18,-81.53 2412.22,-79.51"/>
<polygon fill="#63b8ff" stroke="#63b8ff" points="1757.12,-123.82 1747.28,-127.75 1757.42,-130.82 1757.12,-123.82"/>
</a>
</g>
</g>
<!-- Node16 -->
<g id="Node000016" class="node">
<title>Node16</title>
<g id="a_Node000016"><a xlink:href="test__handle_complete_request_header_8cpp.html" target="_top" xlink:title=" ">
<polygon fill="white" stroke="#666666" points="2715.5,-85 2572.5,-85 2572.5,-55 2715.5,-55 2715.5,-85"/>
<text text-anchor="start" x="2580.5" y="-73" font-family="Helvetica,sans-Serif" font-size="10.00">test/test_handleComplete</text>
<text text-anchor="middle" x="2644" y="-62" font-family="Helvetica,sans-Serif" font-size="10.00">RequestHeader.cpp</text>
</a>
</g>
</g>
<!-- Node3&#45;&gt;Node16 -->
<g id="edge16_Node000003_Node000016" class="edge">
<title>Node3&#45;&gt;Node16</title>
<g id="a_edge16_Node000003_Node000016"><a xlink:title=" ">
<path fill="none" stroke="#63b8ff" d="M1757.25,-127.58C1919.4,-121.59 2405.62,-102.61 2563,-85 2565.98,-84.67 2569.01,-84.29 2572.07,-83.89"/>
<polygon fill="#63b8ff" stroke="#63b8ff" points="1756.91,-124.09 1747.04,-127.95 1757.17,-131.08 1756.91,-124.09"/>
</a>
</g>
</g>
<!-- Node17 -->
<g id="Node000017" class="node">
<title>Node17</title>
<g id="a_Node000017"><a xlink:href="test__init_virtual_servers_8cpp.html" target="_top" xlink:title=" ">
<polygon fill="white" stroke="#666666" points="2900.5,-79.5 2733.5,-79.5 2733.5,-60.5 2900.5,-60.5 2900.5,-79.5"/>
<text text-anchor="middle" x="2817" y="-67.5" font-family="Helvetica,sans-Serif" font-size="10.00">test/test_initVirtualServers.cpp</text>
</a>
</g>
</g>
<!-- Node3&#45;&gt;Node17 -->
<g id="edge17_Node000003_Node000017" class="edge">
<title>Node3&#45;&gt;Node17</title>
<g id="a_edge17_Node000003_Node000017"><a xlink:title=" ">
<path fill="none" stroke="#63b8ff" d="M1757.19,-127.52C1953.16,-120.17 2628.55,-94.41 2725,-85 2738.83,-83.65 2753.75,-81.63 2767.47,-79.54"/>
<polygon fill="#63b8ff" stroke="#63b8ff" points="1757,-124.02 1747.14,-127.89 1757.26,-131.02 1757,-124.02"/>
</a>
</g>
</g>
<!-- Node18 -->
<g id="Node000018" class="node">
<title>Node18</title>
<g id="a_Node000018"><a xlink:href="test__is_duplicate_server_8cpp.html" target="_top" xlink:title=" ">
<polygon fill="white" stroke="#666666" points="3086,-79.5 2918,-79.5 2918,-60.5 3086,-60.5 3086,-79.5"/>
<text text-anchor="middle" x="3002" y="-67.5" font-family="Helvetica,sans-Serif" font-size="10.00">test/test_isDuplicateServer.cpp</text>
</a>
</g>
</g>
<!-- Node3&#45;&gt;Node18 -->
<g id="edge18_Node000003_Node000018" class="edge">
<title>Node3&#45;&gt;Node18</title>
<g id="a_edge18_Node000003_Node000018"><a xlink:title=" ">
<path fill="none" stroke="#63b8ff" d="M1757.29,-127.7C1983.08,-120.07 2851.96,-90.47 2910,-85 2923.99,-83.68 2939.1,-81.64 2952.95,-79.52"/>
<polygon fill="#63b8ff" stroke="#63b8ff" points="1756.91,-124.21 1747.03,-128.05 1757.14,-131.21 1756.91,-124.21"/>
</a>
</g>
</g>
<!-- Node19 -->
<g id="Node000019" class="node">
<title>Node19</title>
<g id="a_Node000019"><a xlink:href="test__register_c_g_i_file_descriptor_8cpp.html" target="_top" xlink:title=" ">
<polygon fill="white" stroke="#666666" points="796,-85 662,-85 662,-55 796,-55 796,-85"/>
<text text-anchor="start" x="670" y="-73" font-family="Helvetica,sans-Serif" font-size="10.00">test/test_registerCGIFile</text>
<text text-anchor="middle" x="729" y="-62" font-family="Helvetica,sans-Serif" font-size="10.00">Descriptor.cpp</text>
</a>
</g>
</g>
<!-- Node3&#45;&gt;Node19 -->
<g id="edge19_Node000003_Node000019" class="edge">
<title>Node3&#45;&gt;Node19</title>
<g id="a_edge19_Node000003_Node000019"><a xlink:title=" ">
<path fill="none" stroke="#63b8ff" d="M1650.38,-129.32C1510.68,-128.32 1124.2,-122.13 805,-85 802.07,-84.66 799.08,-84.27 796.06,-83.85"/>
<polygon fill="#63b8ff" stroke="#63b8ff" points="1650.77,-132.82 1660.79,-129.39 1650.81,-125.82 1650.77,-132.82"/>
</a>
</g>
</g>
<!-- Node20 -->
<g id="Node000020" class="node">
<title>Node20</title>
<g id="a_Node000020"><a xlink:href="test__register_connection_8cpp.html" target="_top" xlink:title=" ">
<polygon fill="white" stroke="#666666" points="989.5,-79.5 814.5,-79.5 814.5,-60.5 989.5,-60.5 989.5,-79.5"/>
<text text-anchor="middle" x="902" y="-67.5" font-family="Helvetica,sans-Serif" font-size="10.00">test/test_registerConnection.cpp</text>
</a>
</g>
</g>
<!-- Node3&#45;&gt;Node20 -->
<g id="edge20_Node000003_Node000020" class="edge">
<title>Node3&#45;&gt;Node20</title>
<g id="a_edge20_Node000003_Node000020"><a xlink:title=" ">
<path fill="none" stroke="#63b8ff" d="M1650.81,-127.6C1533.09,-123.08 1241.75,-110.14 999,-85 984.87,-83.54 969.64,-81.54 955.52,-79.51"/>
<polygon fill="#63b8ff" stroke="#63b8ff" points="1650.86,-131.11 1660.98,-127.99 1651.12,-124.11 1650.86,-131.11"/>
</a>
</g>
</g>
<!-- Node21 -->
<g id="Node000021" class="node">
<title>Node21</title>
<g id="a_Node000021"><a xlink:href="test__register_virtual_server_8cpp.html" target="_top" xlink:title=" ">
<polygon fill="white" stroke="#666666" points="1140,-85 1008,-85 1008,-55 1140,-55 1140,-85"/>
<text text-anchor="start" x="1016" y="-73" font-family="Helvetica,sans-Serif" font-size="10.00">test/test_registerVirtual</text>
<text text-anchor="middle" x="1074" y="-62" font-family="Helvetica,sans-Serif" font-size="10.00">Server.cpp</text>
</a>
</g>
</g>
<!-- Node3&#45;&gt;Node21 -->
<g id="edge21_Node000003_Node000021" class="edge">
<title>Node3&#45;&gt;Node21</title>
<g id="a_edge21_Node000003_Node000021"><a xlink:title=" ">
<path fill="none" stroke="#63b8ff" d="M1650.59,-127.08C1551.41,-122.17 1332.24,-109.38 1149,-85 1146.11,-84.62 1143.17,-84.19 1140.19,-83.74"/>
<polygon fill="#63b8ff" stroke="#63b8ff" points="1650.5,-130.58 1660.66,-127.57 1650.84,-123.59 1650.5,-130.58"/>
</a>
</g>
</g>
<!-- Node22 -->
<g id="Node000022" class="node">
<title>Node22</title>
<g id="a_Node000022"><a xlink:href="test__select_server_config_8cpp.html" target="_top" xlink:title=" ">
<polygon fill="white" stroke="#666666" points="644,-79.5 470,-79.5 470,-60.5 644,-60.5 644,-79.5"/>
<text text-anchor="middle" x="557" y="-67.5" font-family="Helvetica,sans-Serif" font-size="10.00">test/test_selectServerConfig.cpp</text>
</a>
</g>
</g>
<!-- Node3&#45;&gt;Node22 -->
<g id="edge22_Node000003_Node000022" class="edge">
<title>Node3&#45;&gt;Node22</title>
<g id="a_edge22_Node000003_Node000022"><a xlink:title=" ">
<path fill="none" stroke="#63b8ff" d="M1650.68,-129.17C1496.06,-127.8 1034.26,-120.78 653,-85 638.58,-83.65 623.01,-81.62 608.7,-79.53"/>
<polygon fill="#63b8ff" stroke="#63b8ff" points="1650.82,-132.67 1660.84,-129.26 1650.87,-125.67 1650.82,-132.67"/>
</a>
</g>
</g>
<!-- Node23 -->
<g id="Node000023" class="node">
<title>Node23</title>
<g id="a_Node000023"><a xlink:href="test__shutdown_server_8cpp.html" target="_top" xlink:title=" ">
<polygon fill="white" stroke="#666666" points="1319.5,-79.5 1158.5,-79.5 1158.5,-60.5 1319.5,-60.5 1319.5,-79.5"/>
<text text-anchor="middle" x="1239" y="-67.5" font-family="Helvetica,sans-Serif" font-size="10.00">test/test_shutdownServer.cpp</text>
</a>
</g>
</g>
<!-- Node3&#45;&gt;Node23 -->
<g id="edge23_Node000003_Node000023" class="edge">
<title>Node3&#45;&gt;Node23</title>
<g id="a_edge23_Node000003_Node000023"><a xlink:title=" ">
<path fill="none" stroke="#63b8ff" d="M1650.48,-123.82C1577.49,-115.92 1442.67,-100.8 1328,-85 1316.07,-83.36 1303.26,-81.43 1291.19,-79.55"/>
<polygon fill="#63b8ff" stroke="#63b8ff" points="1650.47,-127.34 1660.79,-124.93 1651.23,-120.38 1650.47,-127.34"/>
</a>
</g>
</g>
<!-- Node5 -->
<g id="Node000005" class="node">
<title>Node5</title>
<g id="a_Node000005"><a xlink:href="_config_file_parser_8cpp.html" target="_top" xlink:title=" ">
<polygon fill="white" stroke="#666666" points="309.5,-19 178.5,-19 178.5,0 309.5,0 309.5,-19"/>
<text text-anchor="middle" x="244" y="-7" font-family="Helvetica,sans-Serif" font-size="10.00">src/ConfigFileParser.cpp</text>
</a>
</g>
</g>
<!-- Node4&#45;&gt;Node5 -->
<g id="edge4_Node000004_Node000005" class="edge">
<title>Node4&#45;&gt;Node5</title>
<g id="a_edge4_Node000004_Node000005"><a xlink:title=" ">
<path fill="none" stroke="#63b8ff" d="M244,-50.16C244,-39.74 244,-27.3 244,-19.17"/>
<polygon fill="#63b8ff" stroke="#63b8ff" points="240.5,-50.37 244,-60.37 247.5,-50.37 240.5,-50.37"/>
</a>
</g>
</g>
<!-- Node4&#45;&gt;Node6 -->
<g id="edge5_Node000004_Node000006" class="edge">
<title>Node4&#45;&gt;Node6</title>
<g id="a_edge5_Node000004_Node000006"><a xlink:title=" ">
<path fill="none" stroke="#63b8ff" d="M271.05,-56.13C294.78,-44.85 328.59,-28.77 349.09,-19.02"/>
<polygon fill="#63b8ff" stroke="#63b8ff" points="269.41,-53.04 261.89,-60.49 272.42,-59.36 269.41,-53.04"/>
</a>
</g>
</g>
<!-- Node7 -->
<g id="Node000007" class="node">
<title>Node7</title>
<g id="a_Node000007"><a xlink:href="test___config_file_parser_8cpp.html" target="_top" xlink:title=" ">
<polygon fill="white" stroke="#666666" points="160,-19 0,-19 0,0 160,0 160,-19"/>
<text text-anchor="middle" x="80" y="-7" font-family="Helvetica,sans-Serif" font-size="10.00">test/test_ConfigFileParser.cpp</text>
</a>
</g>
</g>
<!-- Node4&#45;&gt;Node7 -->
<g id="edge6_Node000004_Node000007" class="edge">
<title>Node4&#45;&gt;Node7</title>
<g id="a_edge6_Node000004_Node000007"><a xlink:title=" ">
<path fill="none" stroke="#63b8ff" d="M210.43,-57.02C178.72,-45.71 131.95,-29.03 103.88,-19.02"/>
<polygon fill="#63b8ff" stroke="#63b8ff" points="209.56,-60.43 220.15,-60.49 211.91,-53.84 209.56,-60.43"/>
</a>
</g>
</g>
<!-- Node26&#45;&gt;Node9 -->
<g id="edge28_Node000026_Node000009" class="edge">
<title>Node26&#45;&gt;Node9</title>
<g id="a_edge28_Node000026_Node000009"><a xlink:title=" ">
<path fill="none" stroke="#63b8ff" d="M1970.06,-124.35C1866.7,-117.26 1679.98,-103.27 1521,-85 1507.53,-83.45 1493.04,-81.49 1479.5,-79.53"/>
<polygon fill="#63b8ff" stroke="#63b8ff" points="1969.88,-127.85 1980.1,-125.03 1970.36,-120.86 1969.88,-127.85"/>
</a>
</g>
</g>
<!-- Node26&#45;&gt;Node10 -->
<g id="edge29_Node000026_Node000010" class="edge">
<title>Node26&#45;&gt;Node10</title>
<g id="a_edge29_Node000026_Node000010"><a xlink:title=" ">
<path fill="none" stroke="#63b8ff" d="M1970.28,-119.79C1900.71,-111.08 1796.53,-97.76 1706,-85 1694,-83.31 1681.14,-81.41 1668.94,-79.56"/>
<polygon fill="#63b8ff" stroke="#63b8ff" points="1969.93,-123.27 1980.28,-121.04 1970.79,-116.32 1969.93,-123.27"/>
</a>
</g>
</g>
<!-- Node26&#45;&gt;Node11 -->
<g id="edge30_Node000026_Node000011" class="edge">
<title>Node26&#45;&gt;Node11</title>
<g id="a_edge30_Node000026_Node000011"><a xlink:title=" ">
<path fill="none" stroke="#63b8ff" d="M2001.93,-118.74C1960.48,-109.27 1899.84,-95.41 1854.55,-85.06"/>
<polygon fill="#63b8ff" stroke="#63b8ff" points="2001.25,-122.18 2011.78,-120.99 2002.81,-115.35 2001.25,-122.18"/>
</a>
</g>
</g>
<!-- Node26&#45;&gt;Node12 -->
<g id="edge31_Node000026_Node000012" class="edge">
<title>Node26&#45;&gt;Node12</title>
<g id="a_edge31_Node000026_Node000012"><a xlink:title=" ">
<path fill="none" stroke="#63b8ff" d="M2028.47,-115.03C2015.52,-105.9 1998.88,-94.17 1986.03,-85.11"/>
<polygon fill="#63b8ff" stroke="#63b8ff" points="2026.56,-117.97 2036.75,-120.87 2030.6,-112.25 2026.56,-117.97"/>
</a>
</g>
</g>
<!-- Node26&#45;&gt;Node13 -->
<g id="edge32_Node000026_Node000013" class="edge">
<title>Node26&#45;&gt;Node13</title>
<g id="a_edge32_Node000026_Node000013"><a xlink:title=" ">
<path fill="none" stroke="#63b8ff" d="M2069.53,-115.03C2082.48,-105.9 2099.12,-94.17 2111.97,-85.11"/>
<polygon fill="#63b8ff" stroke="#63b8ff" points="2067.4,-112.25 2061.25,-120.87 2071.44,-117.97 2067.4,-112.25"/>
</a>
</g>
</g>
<!-- Node26&#45;&gt;Node14 -->
<g id="edge33_Node000026_Node000014" class="edge">
<title>Node26&#45;&gt;Node14</title>
<g id="a_edge33_Node000026_Node000014"><a xlink:title=" ">
<path fill="none" stroke="#63b8ff" d="M2094.05,-118.56C2133.05,-109.1 2189.69,-95.35 2232.06,-85.06"/>
<polygon fill="#63b8ff" stroke="#63b8ff" points="2092.94,-115.23 2084.04,-120.99 2094.59,-122.04 2092.94,-115.23"/>
</a>
</g>
</g>
<!-- Node26&#45;&gt;Node15 -->
<g id="edge34_Node000026_Node000015" class="edge">
<title>Node26&#45;&gt;Node15</title>
<g id="a_edge34_Node000026_Node000015"><a xlink:title=" ">
<path fill="none" stroke="#63b8ff" d="M2121.08,-119.59C2185.94,-110.64 2283.86,-97.06 2369,-85 2381.38,-83.25 2394.65,-81.34 2407.27,-79.53"/>
<polygon fill="#63b8ff" stroke="#63b8ff" points="2120.39,-116.15 2110.96,-120.98 2121.34,-123.08 2120.39,-116.15"/>
</a>
</g>
</g>
<!-- Node26&#45;&gt;Node16 -->
<g id="edge35_Node000026_Node000016" class="edge">
<title>Node26&#45;&gt;Node16</title>
<g id="a_edge35_Node000026_Node000016"><a xlink:title=" ">
<path fill="none" stroke="#63b8ff" d="M2127.92,-124.75C2229.01,-118.2 2409.49,-104.87 2563,-85 2566.11,-84.6 2569.29,-84.16 2572.5,-83.7"/>
<polygon fill="#63b8ff" stroke="#63b8ff" points="2127.54,-121.27 2117.79,-125.41 2127.99,-128.26 2127.54,-121.27"/>
</a>
</g>
</g>
<!-- Node26&#45;&gt;Node17 -->
<g id="edge36_Node000026_Node000017" class="edge">
<title>Node26&#45;&gt;Node17</title>
<g id="a_edge36_Node000026_Node000017"><a xlink:title=" ">
<path fill="none" stroke="#63b8ff" d="M2128.13,-126.48C2254.55,-121.17 2509.77,-108.42 2725,-85 2738.33,-83.55 2752.69,-81.57 2766.01,-79.55"/>
<polygon fill="#63b8ff" stroke="#63b8ff" points="2127.62,-123 2117.78,-126.91 2127.91,-129.99 2127.62,-123"/>
</a>
</g>
</g>
<!-- Node26&#45;&gt;Node18 -->
<g id="edge37_Node000026_Node000018" class="edge">
<title>Node26&#45;&gt;Node18</title>
<g id="a_edge37_Node000026_Node000018"><a xlink:title=" ">
<path fill="none" stroke="#63b8ff" d="M2127.69,-128.05C2279.38,-124.67 2622.69,-114.21 2910,-85 2923.66,-83.61 2938.39,-81.6 2951.98,-79.54"/>
<polygon fill="#63b8ff" stroke="#63b8ff" points="2127.46,-124.55 2117.54,-128.27 2127.61,-131.55 2127.46,-124.55"/>
</a>
</g>
</g>
<!-- Node26&#45;&gt;Node19 -->
<g id="edge38_Node000026_Node000019" class="edge">
<title>Node26&#45;&gt;Node19</title>
<g id="a_edge38_Node000026_Node000019"><a xlink:title=" ">
<path fill="none" stroke="#63b8ff" d="M1969.78,-126.99C1704.81,-118.54 862.87,-91.33 805,-85 802.07,-84.68 799.07,-84.31 796.06,-83.9"/>
<polygon fill="#63b8ff" stroke="#63b8ff" points="1969.98,-130.49 1980.08,-127.31 1970.2,-123.5 1969.98,-130.49"/>
</a>
</g>
</g>
<!-- Node26&#45;&gt;Node20 -->
<g id="edge39_Node000026_Node000020" class="edge">
<title>Node26&#45;&gt;Node20</title>
<g id="a_edge39_Node000026_Node000020"><a xlink:title=" ">
<path fill="none" stroke="#63b8ff" d="M1970.44,-127.2C1760.13,-120.88 1187.46,-102.55 999,-85 984.43,-83.64 968.7,-81.62 954.24,-79.53"/>
<polygon fill="#63b8ff" stroke="#63b8ff" points="1970.38,-130.7 1980.48,-127.5 1970.59,-123.7 1970.38,-130.7"/>
</a>
</g>
</g>
<!-- Node26&#45;&gt;Node21 -->
<g id="edge40_Node000026_Node000021" class="edge">
<title>Node26&#45;&gt;Node21</title>
<g id="a_edge40_Node000026_Node000021"><a xlink:title=" ">
<path fill="none" stroke="#63b8ff" d="M1970.25,-126.97C1781.43,-120.7 1306.9,-103.56 1149,-85 1146.11,-84.66 1143.16,-84.27 1140.18,-83.86"/>
<polygon fill="#63b8ff" stroke="#63b8ff" points="1970.27,-130.48 1980.38,-127.31 1970.5,-123.48 1970.27,-130.48"/>
</a>
</g>
</g>
<!-- Node26&#45;&gt;Node23 -->
<g id="edge41_Node000026_Node000023" class="edge">
<title>Node26&#45;&gt;Node23</title>
<g id="a_edge41_Node000026_Node000023"><a xlink:title=" ">
<path fill="none" stroke="#63b8ff" d="M1970.4,-127.08C1837.67,-122.45 1560.83,-110.44 1328,-85 1314.94,-83.57 1300.87,-81.57 1287.85,-79.53"/>
<polygon fill="#63b8ff" stroke="#63b8ff" points="1970.36,-130.58 1980.47,-127.43 1970.6,-123.58 1970.36,-130.58"/>
</a>
</g>
</g>
<!-- Node26&#45;&gt;Node25 -->
<g id="edge27_Node000026_Node000025" class="edge">
<title>Node26&#45;&gt;Node25</title>
<g id="a_edge27_Node000026_Node000025"><a xlink:title=" ">
<path fill="none" stroke="#63b8ff" d="M2127.91,-129.77C2302.69,-129.58 2735.42,-124.73 3095,-85 3106.9,-83.69 3119.72,-81.65 3131.46,-79.53"/>
<polygon fill="#63b8ff" stroke="#63b8ff" points="2127.78,-126.27 2117.78,-129.78 2127.78,-133.27 2127.78,-126.27"/>
</a>
</g>
</g>
</g>
</svg>
