<?xml version="1.0" encoding="UTF-8" standalone="no"?>
<!DOCTYPE svg PUBLIC "-//W3C//DTD SVG 1.1//EN"
 "http://www.w3.org/Graphics/SVG/1.1/DTD/svg11.dtd">
<!-- Generated by graphviz version 2.43.0 (0)
 -->
<!-- Title: inc/ProcessOps.hpp Pages: 1 -->
<!--zoomable 269 -->

<svg id="main" version="1.1" xmlns="http://www.w3.org/2000/svg" xmlns:xlink="http://www.w3.org/1999/xlink" xml:space="preserve" onload="init(evt)">
<style type="text/css"><![CDATA[
.node, .edge {opacity: 0.7;}
.node.selected, .edge.selected {opacity: 1;}
.edge:hover path { stroke: red; }
.edge:hover polygon { stroke: red; fill: red; }
]]></style>

<defs>
  <circle id="rim" cx="0" cy="0" r="7"/>
  <circle id="rim2" cx="0" cy="0" r="3.5"/>
  <g id="zoomPlus">
    <use xlink:href="#rim" fill="#404040"><set attributeName="fill" to="#808080" begin="zoomplus.mouseover" end="zoomplus.mouseout"/></use>
    <path d="M-4,0h8M0,-4v8" fill="none" stroke="white" stroke-width="1.5" pointer-events="none"/>
  </g>
  <g id="zoomMin">
    <use xlink:href="#rim" fill="#404040"><set attributeName="fill" to="#808080" begin="zoomminus.mouseover" end="zoomminus.mouseout"/></use>
    <path d="M-4,0h8" fill="none" stroke="white" stroke-width="1.5" pointer-events="none"/>
  </g>
  <g id="arrowUp" transform="translate(30 24)">
    <use xlink:href="#rim"/>
    <path pointer-events="none" fill="none" stroke="white" stroke-width="1.5" d="M0,-3.0v7 M-2.5,-0.5L0,-3.0L2.5,-0.5"/>
  </g>
  <g id="arrowRight" transform="rotate(90) translate(36 -43)">
    <use xlink:href="#rim"/>
    <path pointer-events="none" fill="none" stroke="white" stroke-width="1.5" d="M0,-3.0v7 M-2.5,-0.5L0,-3.0L2.5,-0.5"/>
  </g>
  <g id="arrowDown" transform="rotate(180) translate(-30 -48)">
    <use xlink:href="#rim"/>
    <path pointer-events="none" fill="none" stroke="white" stroke-width="1.5" d="M0,-3.0v7 M-2.5,-0.5L0,-3.0L2.5,-0.5"/>
  </g>
  <g id="arrowLeft" transform="rotate(270) translate(-36 17)">
    <use xlink:href="#rim"/>
    <path pointer-events="none" fill="none" stroke="white" stroke-width="1.5" d="M0,-3.0v7 M-2.5,-0.5L0,-3.0L2.5,-0.5"/>
  </g>
  <g id="resetDef">
    <use xlink:href="#rim2" fill="#404040"><set attributeName="fill" to="#808080" begin="reset.mouseover" end="reset.mouseout"/></use>
  </g>
</defs>
<script type="application/ecmascript">
var viewWidth = 3397;
var viewHeight = 269;
var sectionId = 'dynsection-1';
</script>
<script type="application/ecmascript" xlink:href="svg.min.js"/>
<svg id="graph" class="graph">
<g id="viewport">
<title>inc/ProcessOps.hpp</title>
<!-- Node1 -->
<g id="Node000001" class="node">
<title>Node1</title>
<g id="a_Node000001"><a xlink:title=" ">
<polygon fill="#999999" stroke="#666666" points="3157.5,-261 3046.5,-261 3046.5,-242 3157.5,-242 3157.5,-261"/>
<text text-anchor="middle" x="3102" y="-249" font-family="Helvetica,sans-Serif" font-size="10.00">inc/ProcessOps.hpp</text>
</a>
</g>
</g>
<!-- Node2 -->
<g id="Node000002" class="node">
<title>Node2</title>
<g id="a_Node000002"><a xlink:href="_c_g_i_handler_8hpp.html" target="_top" xlink:title=" ">
<polygon fill="white" stroke="#666666" points="3097,-206 2987,-206 2987,-187 3097,-187 3097,-206"/>
<text text-anchor="middle" x="3042" y="-194" font-family="Helvetica,sans-Serif" font-size="10.00">inc/CGIHandler.hpp</text>
</a>
</g>
</g>
<!-- Node1&#45;&gt;Node2 -->
<g id="edge1_Node000001_Node000002" class="edge">
<title>Node1&#45;&gt;Node2</title>
<g id="a_edge1_Node000001_Node000002"><a xlink:title=" ">
<path fill="none" stroke="#63b8ff" d="M3084.82,-235.32C3074.12,-225.87 3060.74,-214.06 3051.82,-206.17"/>
<polygon fill="#63b8ff" stroke="#63b8ff" points="3082.55,-237.99 3092.36,-241.98 3087.18,-232.74 3082.55,-237.99"/>
</a>
</g>
</g>
<!-- Node3 -->
<g id="Node000003" class="node">
<title>Node3</title>
<g id="a_Node000003"><a xlink:href="_server_8hpp.html" target="_top" xlink:title=" ">
<polygon fill="white" stroke="#666666" points="1811,-151 1725,-151 1725,-132 1811,-132 1811,-151"/>
<text text-anchor="middle" x="1768" y="-139" font-family="Helvetica,sans-Serif" font-size="10.00">inc/Server.hpp</text>
</a>
</g>
</g>
<!-- Node1&#45;&gt;Node3 -->
<g id="edge42_Node000001_Node000003" class="edge">
<title>Node1&#45;&gt;Node3</title>
<g id="a_edge42_Node000001_Node000003"><a xlink:title=" ">
<path fill="none" stroke="#63b8ff" d="M3036.23,-245.49C2929.97,-237.36 2713.96,-220.74 2531,-206 2256.74,-183.9 1927.14,-156.02 1811.02,-146.16"/>
<polygon fill="#63b8ff" stroke="#63b8ff" points="3036.23,-249 3046.47,-246.27 3036.77,-242.02 3036.23,-249"/>
</a>
</g>
</g>
<!-- Node6 -->
<g id="Node000006" class="node">
<title>Node6</title>
<g id="a_Node000006"><a xlink:href="main_8cpp.html" target="_top" xlink:title=" ">
<polygon fill="white" stroke="#666666" points="378.5,-24.5 299.5,-24.5 299.5,-5.5 378.5,-5.5 378.5,-24.5"/>
<text text-anchor="middle" x="339" y="-12.5" font-family="Helvetica,sans-Serif" font-size="10.00">src/main.cpp</text>
</a>
</g>
</g>
<!-- Node1&#45;&gt;Node6 -->
<g id="edge44_Node000001_Node000006" class="edge">
<title>Node1&#45;&gt;Node6</title>
<g id="a_edge44_Node000001_Node000006"><a xlink:title=" ">
<path fill="none" stroke="#63b8ff" d="M3125.21,-236.4C3176.04,-203.93 3288.35,-122.31 3233,-66 3180.58,-12.66 721.71,-15.29 378.59,-15.92"/>
<polygon fill="#63b8ff" stroke="#63b8ff" points="3123.1,-233.6 3116.49,-241.88 3126.82,-239.53 3123.1,-233.6"/>
</a>
</g>
</g>
<!-- Node25 -->
<g id="Node000025" class="node">
<title>Node25</title>
<g id="a_Node000025"><a xlink:href="test___c_g_i_handler_8cpp.html" target="_top" xlink:title=" ">
<polygon fill="white" stroke="#666666" points="3223.5,-90.5 3064.5,-90.5 3064.5,-71.5 3223.5,-71.5 3223.5,-90.5"/>
<text text-anchor="middle" x="3144" y="-78.5" font-family="Helvetica,sans-Serif" font-size="10.00">test/unit/test_CGIHandler.cpp</text>
</a>
</g>
</g>
<!-- Node1&#45;&gt;Node25 -->
<g id="edge45_Node000001_Node000025" class="edge">
<title>Node1&#45;&gt;Node25</title>
<g id="a_edge45_Node000001_Node000025"><a xlink:title=" ">
<path fill="none" stroke="#63b8ff" d="M3106.68,-231.74C3115.71,-195.48 3135.27,-117.04 3141.81,-90.77"/>
<polygon fill="#63b8ff" stroke="#63b8ff" points="3103.16,-231.36 3104.14,-241.91 3109.96,-233.06 3103.16,-231.36"/>
</a>
</g>
</g>
<!-- Node26 -->
<g id="Node000026" class="node">
<title>Node26</title>
<g id="a_Node000026"><a xlink:href="_mock_process_ops_8hpp.html" target="_top" xlink:title=" ">
<polygon fill="white" stroke="#666666" points="2158.5,-151 2021.5,-151 2021.5,-132 2158.5,-132 2158.5,-151"/>
<text text-anchor="middle" x="2090" y="-139" font-family="Helvetica,sans-Serif" font-size="10.00">inc/MockProcessOps.hpp</text>
</a>
</g>
</g>
<!-- Node1&#45;&gt;Node26 -->
<g id="edge26_Node000001_Node000026" class="edge">
<title>Node1&#45;&gt;Node26</title>
<g id="a_edge26_Node000001_Node000026"><a xlink:title=" ">
<path fill="none" stroke="#63b8ff" d="M3036.17,-243.47C2853.97,-224.03 2344.27,-169.64 2158.69,-149.83"/>
<polygon fill="#63b8ff" stroke="#63b8ff" points="3035.83,-246.96 3046.15,-244.54 3036.58,-240 3035.83,-246.96"/>
</a>
</g>
</g>
<!-- Node27 -->
<g id="Node000027" class="node">
<title>Node27</title>
<g id="a_Node000027"><a xlink:href="_process_ops_8cpp.html" target="_top" xlink:title=" ">
<polygon fill="white" stroke="#666666" points="3389,-206 3279,-206 3279,-187 3389,-187 3389,-206"/>
<text text-anchor="middle" x="3334" y="-194" font-family="Helvetica,sans-Serif" font-size="10.00">src/ProcessOps.cpp</text>
</a>
</g>
</g>
<!-- Node1&#45;&gt;Node27 -->
<g id="edge43_Node000001_Node000027" class="edge">
<title>Node1&#45;&gt;Node27</title>
<g id="a_edge43_Node000001_Node000027"><a xlink:title=" ">
<path fill="none" stroke="#63b8ff" d="M3149.04,-239.75C3192.52,-229.82 3256.27,-215.26 3296.43,-206.08"/>
<polygon fill="#63b8ff" stroke="#63b8ff" points="3148.24,-236.35 3139.27,-241.98 3149.8,-243.17 3148.24,-236.35"/>
</a>
</g>
</g>
<!-- Node2&#45;&gt;Node3 -->
<g id="edge2_Node000002_Node000003" class="edge">
<title>Node2&#45;&gt;Node3</title>
<g id="a_edge2_Node000002_Node000003"><a xlink:title=" ">
<path fill="none" stroke="#63b8ff" d="M2976.77,-192.79C2750.05,-183.35 1999.86,-152.15 1811.3,-144.3"/>
<polygon fill="#63b8ff" stroke="#63b8ff" points="2976.71,-196.29 2986.85,-193.21 2977,-189.29 2976.71,-196.29"/>
</a>
</g>
</g>
<!-- Node24 -->
<g id="Node000024" class="node">
<title>Node24</title>
<g id="a_Node000024"><a xlink:href="_c_g_i_handler_8cpp.html" target="_top" xlink:title=" ">
<polygon fill="white" stroke="#666666" points="3077.5,-151 2968.5,-151 2968.5,-132 3077.5,-132 3077.5,-151"/>
<text text-anchor="middle" x="3023" y="-139" font-family="Helvetica,sans-Serif" font-size="10.00">src/CGIHandler.cpp</text>
</a>
</g>
</g>
<!-- Node2&#45;&gt;Node24 -->
<g id="edge24_Node000002_Node000024" class="edge">
<title>Node2&#45;&gt;Node24</title>
<g id="a_edge24_Node000002_Node000024"><a xlink:title=" ">
<path fill="none" stroke="#63b8ff" d="M3035.45,-177.24C3032.28,-168.37 3028.61,-158.14 3026.08,-151.09"/>
<polygon fill="#63b8ff" stroke="#63b8ff" points="3032.19,-178.52 3038.86,-186.75 3038.78,-176.15 3032.19,-178.52"/>
</a>
</g>
</g>
<!-- Node2&#45;&gt;Node25 -->
<g id="edge25_Node000002_Node000025" class="edge">
<title>Node2&#45;&gt;Node25</title>
<g id="a_edge25_Node000002_Node000025"><a xlink:title=" ">
<path fill="none" stroke="#63b8ff" d="M3058.54,-179.92C3067.22,-171.55 3077.92,-160.93 3087,-151 3106.08,-130.13 3126.84,-104.06 3137.25,-90.73"/>
<polygon fill="#63b8ff" stroke="#63b8ff" points="3056.05,-177.46 3051.23,-186.89 3060.88,-182.52 3056.05,-177.46"/>
</a>
</g>
</g>
<!-- Node4 -->
<g id="Node000004" class="node">
<title>Node4</title>
<g id="a_Node000004"><a xlink:href="_config_file_parser_8hpp.html" target="_top" xlink:title=" ">
<polygon fill="white" stroke="#666666" points="282,-90.5 150,-90.5 150,-71.5 282,-71.5 282,-90.5"/>
<text text-anchor="middle" x="216" y="-78.5" font-family="Helvetica,sans-Serif" font-size="10.00">inc/ConfigFileParser.hpp</text>
</a>
</g>
</g>
<!-- Node3&#45;&gt;Node4 -->
<g id="edge3_Node000003_Node000004" class="edge">
<title>Node3&#45;&gt;Node4</title>
<g id="a_edge3_Node000003_Node000004"><a xlink:title=" ">
<path fill="none" stroke="#63b8ff" d="M1714.9,-139.91C1485.66,-137.23 579.54,-124.95 296,-96 283.66,-94.74 270.35,-92.69 258.19,-90.55"/>
<polygon fill="#63b8ff" stroke="#63b8ff" points="1714.95,-143.41 1724.99,-140.03 1715.03,-136.41 1714.95,-143.41"/>
</a>
</g>
</g>
<!-- Node3&#45;&gt;Node6 -->
<g id="edge8_Node000003_Node000006" class="edge">
<title>Node3&#45;&gt;Node6</title>
<g id="a_edge8_Node000003_Node000006"><a xlink:title=" ">
<path fill="none" stroke="#63b8ff" d="M1714.75,-139.86C1457.39,-136.64 353.59,-121.36 329,-96 310.29,-76.71 325.27,-41.35 333.93,-24.88"/>
<polygon fill="#63b8ff" stroke="#63b8ff" points="1714.92,-143.36 1724.96,-139.99 1715.01,-136.36 1714.92,-143.36"/>
</a>
</g>
</g>
<!-- Node8 -->
<g id="Node000008" class="node">
<title>Node8</title>
<g id="a_Node000008"><a xlink:href="_server_8cpp.html" target="_top" xlink:title=" ">
<polygon fill="white" stroke="#666666" points="423.5,-90.5 338.5,-90.5 338.5,-71.5 423.5,-71.5 423.5,-90.5"/>
<text text-anchor="middle" x="381" y="-78.5" font-family="Helvetica,sans-Serif" font-size="10.00">src/Server.cpp</text>
</a>
</g>
</g>
<!-- Node3&#45;&gt;Node8 -->
<g id="edge7_Node000003_Node000008" class="edge">
<title>Node3&#45;&gt;Node8</title>
<g id="a_edge7_Node000003_Node000008"><a xlink:title=" ">
<path fill="none" stroke="#63b8ff" d="M1714.87,-140.39C1498.83,-139.7 685.83,-134.52 432,-96 423.92,-94.77 415.3,-92.71 407.48,-90.53"/>
<polygon fill="#63b8ff" stroke="#63b8ff" points="1714.99,-143.89 1725,-140.42 1715.01,-136.89 1714.99,-143.89"/>
</a>
</g>
</g>
<!-- Node9 -->
<g id="Node000009" class="node">
<title>Node9</title>
<g id="a_Node000009"><a xlink:href="test__accept_connections_8cpp.html" target="_top" xlink:title=" ">
<polygon fill="white" stroke="#666666" points="1564.5,-90.5 1367.5,-90.5 1367.5,-71.5 1564.5,-71.5 1564.5,-90.5"/>
<text text-anchor="middle" x="1466" y="-78.5" font-family="Helvetica,sans-Serif" font-size="10.00">test/unit/test_acceptConnections.cpp</text>
</a>
</g>
</g>
<!-- Node3&#45;&gt;Node9 -->
<g id="edge9_Node000003_Node000009" class="edge">
<title>Node3&#45;&gt;Node9</title>
<g id="a_edge9_Node000003_Node000009"><a xlink:title=" ">
<path fill="none" stroke="#63b8ff" d="M1714.63,-130.16C1656.46,-118.89 1564.44,-101.07 1510.17,-90.56"/>
<polygon fill="#63b8ff" stroke="#63b8ff" points="1714.25,-133.65 1724.73,-132.12 1715.58,-126.78 1714.25,-133.65"/>
</a>
</g>
</g>
<!-- Node10 -->
<g id="Node000010" class="node">
<title>Node10</title>
<g id="a_Node000010"><a xlink:href="test__check_for_timeout_8cpp.html" target="_top" xlink:title=" ">
<polygon fill="white" stroke="#666666" points="1771,-90.5 1583,-90.5 1583,-71.5 1771,-71.5 1771,-90.5"/>
<text text-anchor="middle" x="1677" y="-78.5" font-family="Helvetica,sans-Serif" font-size="10.00">test/unit/test_checkForTimeout.cpp</text>
</a>
</g>
</g>
<!-- Node3&#45;&gt;Node10 -->
<g id="edge10_Node000003_Node000010" class="edge">
<title>Node3&#45;&gt;Node10</title>
<g id="a_edge10_Node000003_Node000010"><a xlink:title=" ">
<path fill="none" stroke="#63b8ff" d="M1745.69,-126.16C1728.4,-115.05 1705.02,-100.01 1690.48,-90.67"/>
<polygon fill="#63b8ff" stroke="#63b8ff" points="1744.27,-129.4 1754.57,-131.87 1748.05,-123.52 1744.27,-129.4"/>
</a>
</g>
</g>
<!-- Node11 -->
<g id="Node000011" class="node">
<title>Node11</title>
<g id="a_Node000011"><a xlink:href="test__connection_receive_from_c_g_i_8cpp.html" target="_top" xlink:title=" ">
<polygon fill="white" stroke="#666666" points="1926.5,-96 1789.5,-96 1789.5,-66 1926.5,-66 1926.5,-96"/>
<text text-anchor="start" x="1797.5" y="-84" font-family="Helvetica,sans-Serif" font-size="10.00">test/unit/test_connection</text>
<text text-anchor="middle" x="1858" y="-73" font-family="Helvetica,sans-Serif" font-size="10.00">ReceiveFromCGI.cpp</text>
</a>
</g>
</g>
<!-- Node3&#45;&gt;Node11 -->
<g id="edge11_Node000003_Node000011" class="edge">
<title>Node3&#45;&gt;Node11</title>
<g id="a_edge11_Node000003_Node000011"><a xlink:title=" ">
<path fill="none" stroke="#63b8ff" d="M1789.86,-126.29C1803.95,-117.13 1822.22,-105.26 1836.29,-96.11"/>
<polygon fill="#63b8ff" stroke="#63b8ff" points="1787.76,-123.48 1781.28,-131.87 1791.57,-129.35 1787.76,-123.48"/>
</a>
</g>
</g>
<!-- Node12 -->
<g id="Node000012" class="node">
<title>Node12</title>
<g id="a_Node000012"><a xlink:href="test__connection_receive_header_8cpp.html" target="_top" xlink:title=" ">
<polygon fill="white" stroke="#666666" points="2081.5,-96 1944.5,-96 1944.5,-66 2081.5,-66 2081.5,-96"/>
<text text-anchor="start" x="1952.5" y="-84" font-family="Helvetica,sans-Serif" font-size="10.00">test/unit/test_connection</text>
<text text-anchor="middle" x="2013" y="-73" font-family="Helvetica,sans-Serif" font-size="10.00">ReceiveHeader.cpp</text>
</a>
</g>
</g>
<!-- Node3&#45;&gt;Node12 -->
<g id="edge12_Node000003_Node000012" class="edge">
<title>Node3&#45;&gt;Node12</title>
<g id="a_edge12_Node000003_Node000012"><a xlink:title=" ">
<path fill="none" stroke="#63b8ff" d="M1813.55,-129.62C1853.2,-120.16 1910.94,-106.37 1954.1,-96.06"/>
<polygon fill="#63b8ff" stroke="#63b8ff" points="1812.54,-126.27 1803.63,-131.99 1814.16,-133.08 1812.54,-126.27"/>
</a>
</g>
</g>
<!-- Node13 -->
<g id="Node000013" class="node">
<title>Node13</title>
<g id="a_Node000013"><a xlink:href="test__connection_send_response_8cpp.html" target="_top" xlink:title=" ">
<polygon fill="white" stroke="#666666" points="2236.5,-96 2099.5,-96 2099.5,-66 2236.5,-66 2236.5,-96"/>
<text text-anchor="start" x="2107.5" y="-84" font-family="Helvetica,sans-Serif" font-size="10.00">test/unit/test_connection</text>
<text text-anchor="middle" x="2168" y="-73" font-family="Helvetica,sans-Serif" font-size="10.00">SendResponse.cpp</text>
</a>
</g>
</g>
<!-- Node3&#45;&gt;Node13 -->
<g id="edge13_Node000003_Node000013" class="edge">
<title>Node3&#45;&gt;Node13</title>
<g id="a_edge13_Node000003_Node000013"><a xlink:title=" ">
<path fill="none" stroke="#63b8ff" d="M1821.46,-133.85C1885.6,-125.7 1996.35,-111.12 2091,-96 2093.68,-95.57 2096.42,-95.12 2099.18,-94.66"/>
<polygon fill="#63b8ff" stroke="#63b8ff" points="1820.67,-130.42 1811.19,-135.15 1821.55,-137.37 1820.67,-130.42"/>
</a>
</g>
</g>
<!-- Node14 -->
<g id="Node000014" class="node">
<title>Node14</title>
<g id="a_Node000014"><a xlink:href="test__connection_send_to_c_g_i_8cpp.html" target="_top" xlink:title=" ">
<polygon fill="white" stroke="#666666" points="2391.5,-96 2254.5,-96 2254.5,-66 2391.5,-66 2391.5,-96"/>
<text text-anchor="start" x="2262.5" y="-84" font-family="Helvetica,sans-Serif" font-size="10.00">test/unit/test_connection</text>
<text text-anchor="middle" x="2323" y="-73" font-family="Helvetica,sans-Serif" font-size="10.00">SendToCGI.cpp</text>
</a>
</g>
</g>
<!-- Node3&#45;&gt;Node14 -->
<g id="edge14_Node000003_Node000014" class="edge">
<title>Node3&#45;&gt;Node14</title>
<g id="a_edge14_Node000003_Node000014"><a xlink:title=" ">
<path fill="none" stroke="#63b8ff" d="M1821.38,-137.05C1909.89,-131 2092.51,-117.06 2246,-96 2248.69,-95.63 2251.43,-95.23 2254.2,-94.82"/>
<polygon fill="#63b8ff" stroke="#63b8ff" points="1821.06,-133.57 1811.32,-137.74 1821.53,-140.55 1821.06,-133.57"/>
</a>
</g>
</g>
<!-- Node15 -->
<g id="Node000015" class="node">
<title>Node15</title>
<g id="a_Node000015"><a xlink:href="test__create_virtual_server_8cpp.html" target="_top" xlink:title=" ">
<polygon fill="white" stroke="#666666" points="2556.5,-96 2409.5,-96 2409.5,-66 2556.5,-66 2556.5,-96"/>
<text text-anchor="start" x="2417.5" y="-84" font-family="Helvetica,sans-Serif" font-size="10.00">test/unit/test_createVirtual</text>
<text text-anchor="middle" x="2483" y="-73" font-family="Helvetica,sans-Serif" font-size="10.00">Server.cpp</text>
</a>
</g>
</g>
<!-- Node3&#45;&gt;Node15 -->
<g id="edge15_Node000003_Node000015" class="edge">
<title>Node3&#45;&gt;Node15</title>
<g id="a_edge15_Node000003_Node000015"><a xlink:title=" ">
<path fill="none" stroke="#63b8ff" d="M1821.21,-138.54C1930.27,-134.13 2186.96,-121.73 2401,-96 2403.72,-95.67 2406.5,-95.32 2409.29,-94.94"/>
<polygon fill="#63b8ff" stroke="#63b8ff" points="1820.97,-135.05 1811.12,-138.94 1821.25,-142.04 1820.97,-135.05"/>
</a>
</g>
</g>
<!-- Node16 -->
<g id="Node000016" class="node">
<title>Node16</title>
<g id="a_Node000016"><a xlink:href="test__handle_complete_request_header_8cpp.html" target="_top" xlink:title=" ">
<polygon fill="white" stroke="#666666" points="2739,-96 2575,-96 2575,-66 2739,-66 2739,-96"/>
<text text-anchor="start" x="2583" y="-84" font-family="Helvetica,sans-Serif" font-size="10.00">test/unit/test_handleComplete</text>
<text text-anchor="middle" x="2657" y="-73" font-family="Helvetica,sans-Serif" font-size="10.00">RequestHeader.cpp</text>
</a>
</g>
</g>
<!-- Node3&#45;&gt;Node16 -->
<g id="edge16_Node000003_Node000016" class="edge">
<title>Node3&#45;&gt;Node16</title>
<g id="a_edge16_Node000003_Node000016"><a xlink:title=" ">
<path fill="none" stroke="#63b8ff" d="M1821.62,-138.19C1976.22,-131.42 2420.98,-111.16 2566,-96 2568.86,-95.7 2571.77,-95.37 2574.71,-95.03"/>
<polygon fill="#63b8ff" stroke="#63b8ff" points="1821.27,-134.7 1811.43,-138.63 1821.58,-141.7 1821.27,-134.7"/>
</a>
</g>
</g>
<!-- Node17 -->
<g id="Node000017" class="node">
<title>Node17</title>
<g id="a_Node000017"><a xlink:href="test__init_virtual_servers_8cpp.html" target="_top" xlink:title=" ">
<polygon fill="white" stroke="#666666" points="2889,-96 2757,-96 2757,-66 2889,-66 2889,-96"/>
<text text-anchor="start" x="2765" y="-84" font-family="Helvetica,sans-Serif" font-size="10.00">test/unit/test_initVirtual</text>
<text text-anchor="middle" x="2823" y="-73" font-family="Helvetica,sans-Serif" font-size="10.00">Servers.cpp</text>
</a>
</g>
</g>
<!-- Node3&#45;&gt;Node17 -->
<g id="edge17_Node000003_Node000017" class="edge">
<title>Node3&#45;&gt;Node17</title>
<g id="a_edge17_Node000003_Node000017"><a xlink:title=" ">
<path fill="none" stroke="#63b8ff" d="M1821.27,-138.52C2012.21,-131.34 2655.95,-106.63 2748,-96 2750.89,-95.67 2753.85,-95.29 2756.82,-94.87"/>
<polygon fill="#63b8ff" stroke="#63b8ff" points="1821.06,-135.02 1811.19,-138.89 1821.32,-142.02 1821.06,-135.02"/>
</a>
</g>
</g>
<!-- Node18 -->
<g id="Node000018" class="node">
<title>Node18</title>
<g id="a_Node000018"><a xlink:href="test__is_duplicate_server_8cpp.html" target="_top" xlink:title=" ">
<polygon fill="white" stroke="#666666" points="3046.5,-96 2907.5,-96 2907.5,-66 3046.5,-66 3046.5,-96"/>
<text text-anchor="start" x="2915.5" y="-84" font-family="Helvetica,sans-Serif" font-size="10.00">test/unit/test_isDuplicate</text>
<text text-anchor="middle" x="2977" y="-73" font-family="Helvetica,sans-Serif" font-size="10.00">Server.cpp</text>
</a>
</g>
</g>
<!-- Node3&#45;&gt;Node18 -->
<g id="edge18_Node000003_Node000018" class="edge">
<title>Node3&#45;&gt;Node18</title>
<g id="a_edge18_Node000003_Node000018"><a xlink:title=" ">
<path fill="none" stroke="#63b8ff" d="M1821.46,-138.6C2038.39,-130.85 2843.98,-101.82 2898,-96 2901.05,-95.67 2904.15,-95.3 2907.29,-94.88"/>
<polygon fill="#63b8ff" stroke="#63b8ff" points="1821.15,-135.11 1811.28,-138.96 1821.4,-142.1 1821.15,-135.11"/>
</a>
</g>
</g>
<!-- Node19 -->
<g id="Node000019" class="node">
<title>Node19</title>
<g id="a_Node000019"><a xlink:href="test__register_c_g_i_file_descriptor_8cpp.html" target="_top" xlink:title=" ">
<polygon fill="white" stroke="#666666" points="761,-96 605,-96 605,-66 761,-66 761,-96"/>
<text text-anchor="start" x="613" y="-84" font-family="Helvetica,sans-Serif" font-size="10.00">test/unit/test_registerCGIFile</text>
<text text-anchor="middle" x="683" y="-73" font-family="Helvetica,sans-Serif" font-size="10.00">Descriptor.cpp</text>
</a>
</g>
</g>
<!-- Node3&#45;&gt;Node19 -->
<g id="edge19_Node000003_Node000019" class="edge">
<title>Node3&#45;&gt;Node19</title>
<g id="a_edge19_Node000003_Node000019"><a xlink:title=" ">
<path fill="none" stroke="#63b8ff" d="M1714.29,-140.27C1564.47,-139.17 1129.3,-132.8 770,-96 767.11,-95.7 764.17,-95.37 761.2,-95.02"/>
<polygon fill="#63b8ff" stroke="#63b8ff" points="1714.56,-143.78 1724.58,-140.34 1714.61,-136.78 1714.56,-143.78"/>
</a>
</g>
</g>
<!-- Node20 -->
<g id="Node000020" class="node">
<title>Node20</title>
<g id="a_Node000020"><a xlink:href="test__register_connection_8cpp.html" target="_top" xlink:title=" ">
<polygon fill="white" stroke="#666666" points="976.5,-90.5 779.5,-90.5 779.5,-71.5 976.5,-71.5 976.5,-90.5"/>
<text text-anchor="middle" x="878" y="-78.5" font-family="Helvetica,sans-Serif" font-size="10.00">test/unit/test_registerConnection.cpp</text>
</a>
</g>
</g>
<!-- Node3&#45;&gt;Node20 -->
<g id="edge20_Node000003_Node000020" class="edge">
<title>Node3&#45;&gt;Node20</title>
<g id="a_edge20_Node000003_Node000020"><a xlink:title=" ">
<path fill="none" stroke="#63b8ff" d="M1714.48,-138.78C1587.71,-134.43 1259.27,-121.45 986,-96 970.28,-94.54 953.33,-92.54 937.61,-90.51"/>
<polygon fill="#63b8ff" stroke="#63b8ff" points="1714.57,-142.29 1724.68,-139.13 1714.81,-135.29 1714.57,-142.29"/>
</a>
</g>
</g>
<!-- Node21 -->
<g id="Node000021" class="node">
<title>Node21</title>
<g id="a_Node000021"><a xlink:href="test__register_virtual_server_8cpp.html" target="_top" xlink:title=" ">
<polygon fill="white" stroke="#666666" points="1149,-96 995,-96 995,-66 1149,-66 1149,-96"/>
<text text-anchor="start" x="1003" y="-84" font-family="Helvetica,sans-Serif" font-size="10.00">test/unit/test_registerVirtual</text>
<text text-anchor="middle" x="1072" y="-73" font-family="Helvetica,sans-Serif" font-size="10.00">Server.cpp</text>
</a>
</g>
</g>
<!-- Node3&#45;&gt;Node21 -->
<g id="edge21_Node000003_Node000021" class="edge">
<title>Node3&#45;&gt;Node21</title>
<g id="a_edge21_Node000003_Node000021"><a xlink:title=" ">
<path fill="none" stroke="#63b8ff" d="M1714.85,-138.21C1608.73,-133.28 1363.14,-120.13 1158,-96 1155.15,-95.66 1152.24,-95.3 1149.31,-94.92"/>
<polygon fill="#63b8ff" stroke="#63b8ff" points="1714.83,-141.71 1724.98,-138.67 1715.15,-134.72 1714.83,-141.71"/>
</a>
</g>
</g>
<!-- Node22 -->
<g id="Node000022" class="node">
<title>Node22</title>
<g id="a_Node000022"><a xlink:href="test__select_server_config_8cpp.html" target="_top" xlink:title=" ">
<polygon fill="white" stroke="#666666" points="586.5,-96 441.5,-96 441.5,-66 586.5,-66 586.5,-96"/>
<text text-anchor="start" x="449.5" y="-84" font-family="Helvetica,sans-Serif" font-size="10.00">test/unit/test_selectServer</text>
<text text-anchor="middle" x="514" y="-73" font-family="Helvetica,sans-Serif" font-size="10.00">Config.cpp</text>
</a>
</g>
</g>
<!-- Node3&#45;&gt;Node22 -->
<g id="edge22_Node000003_Node000022" class="edge">
<title>Node3&#45;&gt;Node22</title>
<g id="a_edge22_Node000003_Node000022"><a xlink:title=" ">
<path fill="none" stroke="#63b8ff" d="M1714.31,-140.96C1547.8,-141.85 1025.55,-140.63 596,-96 592.98,-95.69 589.91,-95.33 586.81,-94.94"/>
<polygon fill="#63b8ff" stroke="#63b8ff" points="1714.78,-144.46 1724.75,-140.9 1714.73,-137.46 1714.78,-144.46"/>
</a>
</g>
</g>
<!-- Node23 -->
<g id="Node000023" class="node">
<title>Node23</title>
<g id="a_Node000023"><a xlink:href="test__shutdown_server_8cpp.html" target="_top" xlink:title=" ">
<polygon fill="white" stroke="#666666" points="1349,-90.5 1167,-90.5 1167,-71.5 1349,-71.5 1349,-90.5"/>
<text text-anchor="middle" x="1258" y="-78.5" font-family="Helvetica,sans-Serif" font-size="10.00">test/unit/test_shutdownServer.cpp</text>
</a>
</g>
</g>
<!-- Node3&#45;&gt;Node23 -->
<g id="edge23_Node000003_Node000023" class="edge">
<title>Node3&#45;&gt;Node23</title>
<g id="a_edge23_Node000003_Node000023"><a xlink:title=" ">
<path fill="none" stroke="#63b8ff" d="M1714.76,-135.25C1636.5,-127.42 1485.84,-111.88 1358,-96 1344.6,-94.34 1330.22,-92.41 1316.65,-90.52"/>
<polygon fill="#63b8ff" stroke="#63b8ff" points="1714.56,-138.75 1724.86,-136.26 1715.26,-131.79 1714.56,-138.75"/>
</a>
</g>
</g>
<!-- Node5 -->
<g id="Node000005" class="node">
<title>Node5</title>
<g id="a_Node000005"><a xlink:href="_config_file_parser_8cpp.html" target="_top" xlink:title=" ">
<polygon fill="white" stroke="#666666" points="281.5,-24.5 150.5,-24.5 150.5,-5.5 281.5,-5.5 281.5,-24.5"/>
<text text-anchor="middle" x="216" y="-12.5" font-family="Helvetica,sans-Serif" font-size="10.00">src/ConfigFileParser.cpp</text>
</a>
</g>
</g>
<!-- Node4&#45;&gt;Node5 -->
<g id="edge4_Node000004_Node000005" class="edge">
<title>Node4&#45;&gt;Node5</title>
<g id="a_edge4_Node000004_Node000005"><a xlink:title=" ">
<path fill="none" stroke="#63b8ff" d="M216,-61.08C216,-49.13 216,-34.22 216,-24.91"/>
<polygon fill="#63b8ff" stroke="#63b8ff" points="212.5,-61.37 216,-71.37 219.5,-61.37 212.5,-61.37"/>
</a>
</g>
</g>
<!-- Node4&#45;&gt;Node6 -->
<g id="edge5_Node000004_Node000006" class="edge">
<title>Node4&#45;&gt;Node6</title>
<g id="a_edge5_Node000004_Node000006"><a xlink:title=" ">
<path fill="none" stroke="#63b8ff" d="M241.57,-66.69C265.8,-54.09 301.49,-35.51 322.28,-24.7"/>
<polygon fill="#63b8ff" stroke="#63b8ff" points="239.84,-63.65 232.59,-71.37 243.07,-69.86 239.84,-63.65"/>
</a>
</g>
</g>
<!-- Node7 -->
<g id="Node000007" class="node">
<title>Node7</title>
<g id="a_Node000007"><a xlink:href="test___config_file_parser_8cpp.html" target="_top" xlink:title=" ">
<polygon fill="white" stroke="#666666" points="132,-30 0,-30 0,0 132,0 132,-30"/>
<text text-anchor="start" x="8" y="-18" font-family="Helvetica,sans-Serif" font-size="10.00">test/unit/test_ConfigFile</text>
<text text-anchor="middle" x="66" y="-7" font-family="Helvetica,sans-Serif" font-size="10.00">Parser.cpp</text>
</a>
</g>
</g>
<!-- Node4&#45;&gt;Node7 -->
<g id="edge6_Node000004_Node000007" class="edge">
<title>Node4&#45;&gt;Node7</title>
<g id="a_edge6_Node000004_Node000007"><a xlink:title=" ">
<path fill="none" stroke="#63b8ff" d="M186.38,-67.36C161.23,-56.63 125.17,-41.25 99.08,-30.12"/>
<polygon fill="#63b8ff" stroke="#63b8ff" points="185.2,-70.66 195.77,-71.37 187.95,-64.23 185.2,-70.66"/>
</a>
</g>
</g>
<!-- Node26&#45;&gt;Node9 -->
<g id="edge28_Node000026_Node000009" class="edge">
<title>Node26&#45;&gt;Node9</title>
<g id="a_edge28_Node000026_Node000009"><a xlink:title=" ">
<path fill="none" stroke="#63b8ff" d="M2011.32,-134.77C1910.05,-127.15 1728.71,-112.69 1574,-96 1559.15,-94.4 1543.18,-92.45 1528.2,-90.53"/>
<polygon fill="#63b8ff" stroke="#63b8ff" points="2011.23,-138.27 2021.47,-135.53 2011.76,-131.29 2011.23,-138.27"/>
</a>
</g>
</g>
<!-- Node26&#45;&gt;Node10 -->
<g id="edge29_Node000026_Node000010" class="edge">
<title>Node26&#45;&gt;Node10</title>
<g id="a_edge29_Node000026_Node000010"><a xlink:title=" ">
<path fill="none" stroke="#63b8ff" d="M2020.03,-130.59C1940.57,-119.33 1812.25,-101.16 1737.13,-90.52"/>
<polygon fill="#63b8ff" stroke="#63b8ff" points="2019.55,-134.06 2029.95,-131.99 2020.54,-127.13 2019.55,-134.06"/>
</a>
</g>
</g>
<!-- Node26&#45;&gt;Node11 -->
<g id="edge30_Node000026_Node000011" class="edge">
<title>Node26&#45;&gt;Node11</title>
<g id="a_edge30_Node000026_Node000011"><a xlink:title=" ">
<path fill="none" stroke="#63b8ff" d="M2046.15,-129.44C2008.62,-119.98 1954.39,-106.3 1913.78,-96.06"/>
<polygon fill="#63b8ff" stroke="#63b8ff" points="2045.71,-132.94 2056.27,-131.99 2047.42,-126.15 2045.71,-132.94"/>
</a>
</g>
</g>
<!-- Node26&#45;&gt;Node12 -->
<g id="edge31_Node000026_Node000012" class="edge">
<title>Node26&#45;&gt;Node12</title>
<g id="a_edge31_Node000026_Node000012"><a xlink:title=" ">
<path fill="none" stroke="#63b8ff" d="M2070.61,-125.77C2058.65,-116.68 2043.39,-105.09 2031.58,-96.11"/>
<polygon fill="#63b8ff" stroke="#63b8ff" points="2068.56,-128.61 2078.64,-131.87 2072.79,-123.03 2068.56,-128.61"/>
</a>
</g>
</g>
<!-- Node26&#45;&gt;Node13 -->
<g id="edge32_Node000026_Node000013" class="edge">
<title>Node26&#45;&gt;Node13</title>
<g id="a_edge32_Node000026_Node000013"><a xlink:title=" ">
<path fill="none" stroke="#63b8ff" d="M2109.64,-125.77C2121.76,-116.68 2137.22,-105.09 2149.18,-96.11"/>
<polygon fill="#63b8ff" stroke="#63b8ff" points="2107.41,-123.07 2101.51,-131.87 2111.61,-128.67 2107.41,-123.07"/>
</a>
</g>
</g>
<!-- Node26&#45;&gt;Node14 -->
<g id="edge33_Node000026_Node000014" class="edge">
<title>Node26&#45;&gt;Node14</title>
<g id="a_edge33_Node000026_Node000014"><a xlink:title=" ">
<path fill="none" stroke="#63b8ff" d="M2134.04,-129.44C2171.73,-119.98 2226.2,-106.3 2266.98,-96.06"/>
<polygon fill="#63b8ff" stroke="#63b8ff" points="2132.73,-126.16 2123.88,-131.99 2134.43,-132.95 2132.73,-126.16"/>
</a>
</g>
</g>
<!-- Node26&#45;&gt;Node15 -->
<g id="edge34_Node000026_Node000015" class="edge">
<title>Node26&#45;&gt;Node15</title>
<g id="a_edge34_Node000026_Node000015"><a xlink:title=" ">
<path fill="none" stroke="#63b8ff" d="M2163.46,-130.56C2226.53,-121.89 2319.84,-108.73 2401,-96 2403.71,-95.57 2406.47,-95.14 2409.26,-94.69"/>
<polygon fill="#63b8ff" stroke="#63b8ff" points="2162.64,-127.14 2153.21,-131.96 2163.6,-134.07 2162.64,-127.14"/>
</a>
</g>
</g>
<!-- Node26&#45;&gt;Node16 -->
<g id="edge35_Node000026_Node000016" class="edge">
<title>Node26&#45;&gt;Node16</title>
<g id="a_edge35_Node000026_Node000016"><a xlink:title=" ">
<path fill="none" stroke="#63b8ff" d="M2168.77,-134.58C2263.3,-127.14 2426.52,-113.23 2566,-96 2568.86,-95.65 2571.76,-95.27 2574.69,-94.89"/>
<polygon fill="#63b8ff" stroke="#63b8ff" points="2168.41,-131.1 2158.72,-135.37 2168.96,-138.07 2168.41,-131.1"/>
</a>
</g>
</g>
<!-- Node26&#45;&gt;Node17 -->
<g id="edge36_Node000026_Node000017" class="edge">
<title>Node26&#45;&gt;Node17</title>
<g id="a_edge36_Node000026_Node000017"><a xlink:title=" ">
<path fill="none" stroke="#63b8ff" d="M2169.08,-138.14C2292.93,-133.77 2540.02,-122.35 2748,-96 2750.89,-95.63 2753.84,-95.23 2756.81,-94.79"/>
<polygon fill="#63b8ff" stroke="#63b8ff" points="2168.81,-134.65 2158.93,-138.49 2169.05,-141.64 2168.81,-134.65"/>
</a>
</g>
</g>
<!-- Node26&#45;&gt;Node18 -->
<g id="edge37_Node000026_Node000018" class="edge">
<title>Node26&#45;&gt;Node18</title>
<g id="a_edge37_Node000026_Node000018"><a xlink:title=" ">
<path fill="none" stroke="#63b8ff" d="M2168.73,-139.31C2313.54,-136.41 2631.73,-126.81 2898,-96 2901.04,-95.65 2904.15,-95.25 2907.28,-94.82"/>
<polygon fill="#63b8ff" stroke="#63b8ff" points="2168.54,-135.81 2158.61,-139.5 2168.67,-142.81 2168.54,-135.81"/>
</a>
</g>
</g>
<!-- Node26&#45;&gt;Node19 -->
<g id="edge38_Node000026_Node000019" class="edge">
<title>Node26&#45;&gt;Node19</title>
<g id="a_edge38_Node000026_Node000019"><a xlink:title=" ">
<path fill="none" stroke="#63b8ff" d="M2011.28,-137.98C1731.62,-129.01 801.02,-99.01 770,-96 767.11,-95.72 764.16,-95.4 761.19,-95.06"/>
<polygon fill="#63b8ff" stroke="#63b8ff" points="2011.24,-141.48 2021.35,-138.3 2011.46,-134.48 2011.24,-141.48"/>
</a>
</g>
</g>
<!-- Node26&#45;&gt;Node20 -->
<g id="edge39_Node000026_Node000020" class="edge">
<title>Node26&#45;&gt;Node20</title>
<g id="a_edge39_Node000026_Node000020"><a xlink:title=" ">
<path fill="none" stroke="#63b8ff" d="M2011.03,-137.72C1775.36,-129.38 1087.11,-104.57 986,-96 969.8,-94.63 952.29,-92.6 936.19,-90.5"/>
<polygon fill="#63b8ff" stroke="#63b8ff" points="2011.12,-141.23 2021.24,-138.08 2011.37,-134.23 2011.12,-141.23"/>
</a>
</g>
</g>
<!-- Node26&#45;&gt;Node21 -->
<g id="edge40_Node000026_Node000021" class="edge">
<title>Node26&#45;&gt;Node21</title>
<g id="a_edge40_Node000026_Node000021"><a xlink:title=" ">
<path fill="none" stroke="#63b8ff" d="M2011.23,-137.89C1817.66,-131.3 1322.51,-113.26 1158,-96 1155.14,-95.7 1152.23,-95.37 1149.3,-95.01"/>
<polygon fill="#63b8ff" stroke="#63b8ff" points="2011.21,-141.39 2021.33,-138.24 2011.45,-134.4 2011.21,-141.39"/>
</a>
</g>
</g>
<!-- Node26&#45;&gt;Node23 -->
<g id="edge41_Node000026_Node000023" class="edge">
<title>Node26&#45;&gt;Node23</title>
<g id="a_edge41_Node000026_Node000023"><a xlink:title=" ">
<path fill="none" stroke="#63b8ff" d="M2011.29,-137.74C1877.03,-132.58 1595.21,-119.78 1358,-96 1343.44,-94.54 1327.73,-92.54 1313.18,-90.51"/>
<polygon fill="#63b8ff" stroke="#63b8ff" points="2011.36,-141.25 2021.48,-138.13 2011.62,-134.25 2011.36,-141.25"/>
</a>
</g>
</g>
<!-- Node26&#45;&gt;Node25 -->
<g id="edge27_Node000026_Node000025" class="edge">
<title>Node26&#45;&gt;Node25</title>
<g id="a_edge27_Node000026_Node000025"><a xlink:title=" ">
<path fill="none" stroke="#63b8ff" d="M2168.77,-139.85C2333.77,-137.83 2727.59,-129.58 3056,-96 3069.24,-94.65 3083.51,-92.62 3096.63,-90.53"/>
<polygon fill="#63b8ff" stroke="#63b8ff" points="2168.67,-136.35 2158.71,-139.97 2168.75,-143.35 2168.67,-136.35"/>
</a>
</g>
</g>
</g>
</svg>

<g id="navigator" transform="translate(0 0)" fill="#404254">
  <rect fill="#f2f5e9" fill-opacity="0.5" stroke="#606060" stroke-width=".5" x="0" y="0" width="60" height="60"/>
  <use id="zoomplus" xlink:href="#zoomPlus" x="17" y="9" onmousedown="handleZoom(evt,'in')"/>
  <use id="zoomminus" xlink:href="#zoomMin" x="42" y="9" onmousedown="handleZoom(evt,'out')"/>
  <use id="reset" xlink:href="#resetDef" x="30" y="36" onmousedown="handleReset()"/>
   <use id="arrowup" xlink:href="#arrowUp" x="0" y="0" onmousedown="handlePan(0,-1)"/>
  <use id="arrowright" xlink:href="#arrowRight" x="0" y="0" onmousedown="handlePan(1,0)"/>
  <use id="arrowdown" xlink:href="#arrowDown" x="0" y="0" onmousedown="handlePan(0,1)"/>
  <use id="arrowleft" xlink:href="#arrowLeft" x="0" y="0" onmousedown="handlePan(-1,0)"/>
</g>
<svg viewBox="0 0 15 15" width="100%" height="30px" preserveAspectRatio="xMaxYMin meet">
 <g id="arrow_out" transform="scale(0.3 0.3)">
  <a xlink:href="_process_ops_8hpp__dep__incl_org.svg" target="_base">
   <rect id="button" ry="5" rx="5" y="6" x="6" height="38" width="38"
        fill="#f2f5e9" fill-opacity="0.5" stroke="#606060" stroke-width="1.0"/>
   <path id="arrow"
     d="M 11.500037,31.436501 C 11.940474,20.09759 22.043105,11.32322 32.158766,21.979434 L 37.068811,17.246167 C 37.068811,17.246167 37.088388,32 37.088388,32 L 22.160133,31.978069 C 22.160133,31.978069 26.997745,27.140456 26.997745,27.140456 C 18.528582,18.264221 13.291696,25.230495 11.500037,31.436501 z"
     style="fill:#404040;"/>
  </a>
 </g>
</svg>

<style type='text/css'>
<![CDATA[
[data-mouse-over-selected='false'] { opacity: 0.7; }
[data-mouse-over-selected='true']  { opacity: 1.0; }
]]>
</style>
<script type="application/ecmascript"><![CDATA[
document.addEventListener('DOMContentLoaded', (event) => {
  highlightEdges();
  highlightAdjacentNodes();
});
]]></script>
</svg>
