<?xml version="1.0" encoding="UTF-8" standalone="no"?>
<!DOCTYPE svg PUBLIC "-//W3C//DTD SVG 1.1//EN"
 "http://www.w3.org/Graphics/SVG/1.1/DTD/svg11.dtd">
<!-- Generated by graphviz version 2.43.0 (0)
 -->
<!-- Title: inc/RequestParser.hpp Pages: 1 -->
<!--zoomable 225 -->

<svg id="main" version="1.1" xmlns="http://www.w3.org/2000/svg" xmlns:xlink="http://www.w3.org/1999/xlink" xml:space="preserve" onload="init(evt)">
<style type="text/css"><![CDATA[
.node, .edge {opacity: 0.7;}
.node.selected, .edge.selected {opacity: 1;}
.edge:hover path { stroke: red; }
.edge:hover polygon { stroke: red; fill: red; }
]]></style>

<defs>
  <circle id="rim" cx="0" cy="0" r="7"/>
  <circle id="rim2" cx="0" cy="0" r="3.5"/>
  <g id="zoomPlus">
    <use xlink:href="#rim" fill="#404040"><set attributeName="fill" to="#808080" begin="zoomplus.mouseover" end="zoomplus.mouseout"/></use>
    <path d="M-4,0h8M0,-4v8" fill="none" stroke="white" stroke-width="1.5" pointer-events="none"/>
  </g>
  <g id="zoomMin">
    <use xlink:href="#rim" fill="#404040"><set attributeName="fill" to="#808080" begin="zoomminus.mouseover" end="zoomminus.mouseout"/></use>
    <path d="M-4,0h8" fill="none" stroke="white" stroke-width="1.5" pointer-events="none"/>
  </g>
  <g id="arrowUp" transform="translate(30 24)">
    <use xlink:href="#rim"/>
    <path pointer-events="none" fill="none" stroke="white" stroke-width="1.5" d="M0,-3.0v7 M-2.5,-0.5L0,-3.0L2.5,-0.5"/>
  </g>
  <g id="arrowRight" transform="rotate(90) translate(36 -43)">
    <use xlink:href="#rim"/>
    <path pointer-events="none" fill="none" stroke="white" stroke-width="1.5" d="M0,-3.0v7 M-2.5,-0.5L0,-3.0L2.5,-0.5"/>
  </g>
  <g id="arrowDown" transform="rotate(180) translate(-30 -48)">
    <use xlink:href="#rim"/>
    <path pointer-events="none" fill="none" stroke="white" stroke-width="1.5" d="M0,-3.0v7 M-2.5,-0.5L0,-3.0L2.5,-0.5"/>
  </g>
  <g id="arrowLeft" transform="rotate(270) translate(-36 17)">
    <use xlink:href="#rim"/>
    <path pointer-events="none" fill="none" stroke="white" stroke-width="1.5" d="M0,-3.0v7 M-2.5,-0.5L0,-3.0L2.5,-0.5"/>
  </g>
  <g id="resetDef">
    <use xlink:href="#rim2" fill="#404040"><set attributeName="fill" to="#808080" begin="reset.mouseover" end="reset.mouseout"/></use>
  </g>
</defs>
<script type="application/ecmascript">
var viewWidth = 3232;
var viewHeight = 225;
var sectionId = 'dynsection-1';
</script>
<script type="application/ecmascript" xlink:href="svg.min.js"/>
<svg id="graph" class="graph">
<g id="viewport">
<title>inc/RequestParser.hpp</title>
<!-- Node1 -->
<g id="Node000001" class="node">
<title>Node1</title>
<g id="a_Node000001"><a xlink:title=" ">
<polygon fill="#999999" stroke="#666666" points="1982.5,-217 1858.5,-217 1858.5,-198 1982.5,-198 1982.5,-217"/>
<text text-anchor="middle" x="1920.5" y="-205" font-family="Helvetica,sans-Serif" font-size="10.00">inc/RequestParser.hpp</text>
</a>
</g>
</g>
<!-- Node2 -->
<g id="Node000002" class="node">
<title>Node2</title>
<g id="a_Node000002"><a xlink:href="_server_8hpp.html" target="_top" xlink:title=" ">
<polygon fill="white" stroke="#666666" points="1616.5,-156.5 1530.5,-156.5 1530.5,-137.5 1616.5,-137.5 1616.5,-156.5"/>
<text text-anchor="middle" x="1573.5" y="-144.5" font-family="Helvetica,sans-Serif" font-size="10.00">inc/Server.hpp</text>
</a>
</g>
</g>
<!-- Node1&#45;&gt;Node2 -->
<g id="edge1_Node000001_Node000002" class="edge">
<title>Node1&#45;&gt;Node2</title>
<g id="a_edge1_Node000001_Node000002"><a xlink:title=" ">
<path fill="none" stroke="#63b8ff" d="M1848.4,-197.8C1788.65,-190.06 1701.64,-177.56 1626.5,-162 1619.04,-160.46 1611.07,-158.51 1603.64,-156.56"/>
<polygon fill="#63b8ff" stroke="#63b8ff" points="1848.13,-201.29 1858.49,-199.09 1849.02,-194.35 1848.13,-201.29"/>
</a>
</g>
</g>
<!-- Node24 -->
<g id="Node000024" class="node">
<title>Node24</title>
<g id="a_Node000024"><a xlink:href="_request_parser_8cpp.html" target="_top" xlink:title=" ">
<polygon fill="white" stroke="#666666" points="1758,-156.5 1635,-156.5 1635,-137.5 1758,-137.5 1758,-156.5"/>
<text text-anchor="middle" x="1696.5" y="-144.5" font-family="Helvetica,sans-Serif" font-size="10.00">src/RequestParser.cpp</text>
</a>
</g>
</g>
<!-- Node1&#45;&gt;Node24 -->
<g id="edge24_Node000001_Node000024" class="edge">
<title>Node1&#45;&gt;Node24</title>
<g id="a_edge24_Node000001_Node000024"><a xlink:title=" ">
<path fill="none" stroke="#63b8ff" d="M1877.98,-195.4C1834.67,-184.08 1768.45,-166.79 1729.11,-156.52"/>
<polygon fill="#63b8ff" stroke="#63b8ff" points="1877.37,-198.85 1887.93,-197.99 1879.14,-192.08 1877.37,-198.85"/>
</a>
</g>
</g>
<!-- Node25 -->
<g id="Node000025" class="node">
<title>Node25</title>
<g id="a_Node000025"><a xlink:href="test___multipart_formdata_8cpp.html" target="_top" xlink:title=" ">
<polygon fill="white" stroke="#666666" points="1904.5,-162 1776.5,-162 1776.5,-132 1904.5,-132 1904.5,-162"/>
<text text-anchor="start" x="1784.5" y="-150" font-family="Helvetica,sans-Serif" font-size="10.00">test/unit/test_Multipart</text>
<text text-anchor="middle" x="1840.5" y="-139" font-family="Helvetica,sans-Serif" font-size="10.00">Formdata.cpp</text>
</a>
</g>
</g>
<!-- Node1&#45;&gt;Node25 -->
<g id="edge25_Node000001_Node000025" class="edge">
<title>Node1&#45;&gt;Node25</title>
<g id="a_edge25_Node000001_Node000025"><a xlink:title=" ">
<path fill="none" stroke="#63b8ff" d="M1900.35,-191.77C1887.92,-182.68 1872.07,-171.09 1859.8,-162.11"/>
<polygon fill="#63b8ff" stroke="#63b8ff" points="1898.56,-194.79 1908.7,-197.87 1902.69,-189.14 1898.56,-194.79"/>
</a>
</g>
</g>
<!-- Node26 -->
<g id="Node000026" class="node">
<title>Node26</title>
<g id="a_Node000026"><a xlink:href="test__parse_body_8cpp.html" target="_top" xlink:title=" ">
<polygon fill="white" stroke="#666666" points="2078,-156.5 1923,-156.5 1923,-137.5 2078,-137.5 2078,-156.5"/>
<text text-anchor="middle" x="2000.5" y="-144.5" font-family="Helvetica,sans-Serif" font-size="10.00">test/unit/test_parseBody.cpp</text>
</a>
</g>
</g>
<!-- Node1&#45;&gt;Node26 -->
<g id="edge26_Node000001_Node000026" class="edge">
<title>Node1&#45;&gt;Node26</title>
<g id="a_edge26_Node000001_Node000026"><a xlink:title=" ">
<path fill="none" stroke="#63b8ff" d="M1940.54,-191.85C1955.69,-180.77 1975.98,-165.93 1988.65,-156.67"/>
<polygon fill="#63b8ff" stroke="#63b8ff" points="1938.31,-189.14 1932.3,-197.87 1942.44,-194.79 1938.31,-189.14"/>
</a>
</g>
</g>
<!-- Node27 -->
<g id="Node000027" class="node">
<title>Node27</title>
<g id="a_Node000027"><a xlink:href="test__parse_header___headers_8cpp.html" target="_top" xlink:title=" ">
<polygon fill="white" stroke="#666666" points="2242.5,-162 2096.5,-162 2096.5,-132 2242.5,-132 2242.5,-162"/>
<text text-anchor="start" x="2104.5" y="-150" font-family="Helvetica,sans-Serif" font-size="10.00">test/unit/test_parseHeader</text>
<text text-anchor="middle" x="2169.5" y="-139" font-family="Helvetica,sans-Serif" font-size="10.00">_Headers.cpp</text>
</a>
</g>
</g>
<!-- Node1&#45;&gt;Node27 -->
<g id="edge27_Node000001_Node000027" class="edge">
<title>Node1&#45;&gt;Node27</title>
<g id="a_edge27_Node000001_Node000027"><a xlink:title=" ">
<path fill="none" stroke="#63b8ff" d="M1966.54,-195.68C2006.85,-186.21 2065.68,-172.39 2109.64,-162.06"/>
<polygon fill="#63b8ff" stroke="#63b8ff" points="1965.64,-192.3 1956.71,-197.99 1967.24,-199.11 1965.64,-192.3"/>
</a>
</g>
</g>
<!-- Node28 -->
<g id="Node000028" class="node">
<title>Node28</title>
<g id="a_Node000028"><a xlink:href="test__parse_header___request_line_8cpp.html" target="_top" xlink:title=" ">
<polygon fill="white" stroke="#666666" points="2406.5,-162 2260.5,-162 2260.5,-132 2406.5,-132 2406.5,-162"/>
<text text-anchor="start" x="2268.5" y="-150" font-family="Helvetica,sans-Serif" font-size="10.00">test/unit/test_parseHeader</text>
<text text-anchor="middle" x="2333.5" y="-139" font-family="Helvetica,sans-Serif" font-size="10.00">_RequestLine.cpp</text>
</a>
</g>
</g>
<!-- Node1&#45;&gt;Node28 -->
<g id="edge28_Node000001_Node000028" class="edge">
<title>Node1&#45;&gt;Node28</title>
<g id="a_edge28_Node000001_Node000028"><a xlink:title=" ">
<path fill="none" stroke="#63b8ff" d="M1992.56,-197.56C2059.68,-189.06 2162.5,-175.58 2251.5,-162 2254.36,-161.56 2257.27,-161.11 2260.2,-160.65"/>
<polygon fill="#63b8ff" stroke="#63b8ff" points="1992,-194.1 1982.51,-198.83 1992.87,-201.05 1992,-194.1"/>
</a>
</g>
</g>
<!-- Node3 -->
<g id="Node000003" class="node">
<title>Node3</title>
<g id="a_Node000003"><a xlink:href="_config_file_parser_8hpp.html" target="_top" xlink:title=" ">
<polygon fill="white" stroke="#666666" points="296.5,-90.5 164.5,-90.5 164.5,-71.5 296.5,-71.5 296.5,-90.5"/>
<text text-anchor="middle" x="230.5" y="-78.5" font-family="Helvetica,sans-Serif" font-size="10.00">inc/ConfigFileParser.hpp</text>
</a>
</g>
</g>
<!-- Node2&#45;&gt;Node3 -->
<g id="edge2_Node000002_Node000003" class="edge">
<title>Node2&#45;&gt;Node3</title>
<g id="a_edge2_Node000002_Node000003"><a xlink:title=" ">
<path fill="none" stroke="#63b8ff" d="M1520.11,-146.16C1346.38,-146.18 781.67,-142.42 317.5,-96 304.26,-94.68 289.97,-92.63 276.87,-90.52"/>
<polygon fill="#63b8ff" stroke="#63b8ff" points="1520.26,-149.66 1530.26,-146.15 1520.26,-142.66 1520.26,-149.66"/>
</a>
</g>
</g>
<!-- Node5 -->
<g id="Node000005" class="node">
<title>Node5</title>
<g id="a_Node000005"><a xlink:href="main_8cpp.html" target="_top" xlink:title=" ">
<polygon fill="white" stroke="#666666" points="379,-24.5 300,-24.5 300,-5.5 379,-5.5 379,-24.5"/>
<text text-anchor="middle" x="339.5" y="-12.5" font-family="Helvetica,sans-Serif" font-size="10.00">src/main.cpp</text>
</a>
</g>
</g>
<!-- Node2&#45;&gt;Node5 -->
<g id="edge7_Node000002_Node000005" class="edge">
<title>Node2&#45;&gt;Node5</title>
<g id="a_edge7_Node000002_Node000005"><a xlink:title=" ">
<path fill="none" stroke="#63b8ff" d="M1520.23,-145.69C1290.69,-144.14 395.56,-135.54 351.5,-96 331.22,-77.8 334.79,-41.24 337.7,-24.6"/>
<polygon fill="#63b8ff" stroke="#63b8ff" points="1520.32,-149.19 1530.34,-145.76 1520.36,-142.19 1520.32,-149.19"/>
</a>
</g>
</g>
<!-- Node7 -->
<g id="Node000007" class="node">
<title>Node7</title>
<g id="a_Node000007"><a xlink:href="_server_8cpp.html" target="_top" xlink:title=" ">
<polygon fill="white" stroke="#666666" points="445,-90.5 360,-90.5 360,-71.5 445,-71.5 445,-90.5"/>
<text text-anchor="middle" x="402.5" y="-78.5" font-family="Helvetica,sans-Serif" font-size="10.00">src/Server.cpp</text>
</a>
</g>
</g>
<!-- Node2&#45;&gt;Node7 -->
<g id="edge6_Node000002_Node000007" class="edge">
<title>Node2&#45;&gt;Node7</title>
<g id="a_edge6_Node000002_Node000007"><a xlink:title=" ">
<path fill="none" stroke="#63b8ff" d="M1520.02,-145.16C1326.58,-141.87 663.72,-128.44 454.5,-96 446.37,-94.74 437.68,-92.69 429.79,-90.55"/>
<polygon fill="#63b8ff" stroke="#63b8ff" points="1520.15,-148.66 1530.21,-145.33 1520.27,-141.66 1520.15,-148.66"/>
</a>
</g>
</g>
<!-- Node8 -->
<g id="Node000008" class="node">
<title>Node8</title>
<g id="a_Node000008"><a xlink:href="test__accept_connections_8cpp.html" target="_top" xlink:title=" ">
<polygon fill="white" stroke="#666666" points="660,-90.5 463,-90.5 463,-71.5 660,-71.5 660,-90.5"/>
<text text-anchor="middle" x="561.5" y="-78.5" font-family="Helvetica,sans-Serif" font-size="10.00">test/unit/test_acceptConnections.cpp</text>
</a>
</g>
</g>
<!-- Node2&#45;&gt;Node8 -->
<g id="edge8_Node000002_Node000008" class="edge">
<title>Node2&#45;&gt;Node8</title>
<g id="a_edge8_Node000002_Node000008"><a xlink:title=" ">
<path fill="none" stroke="#63b8ff" d="M1520.11,-144.42C1380.24,-139.99 991.69,-125.75 669.5,-96 653.78,-94.55 636.82,-92.55 621.11,-90.53"/>
<polygon fill="#63b8ff" stroke="#63b8ff" points="1520.03,-147.92 1530.14,-144.74 1520.25,-140.92 1520.03,-147.92"/>
</a>
</g>
</g>
<!-- Node9 -->
<g id="Node000009" class="node">
<title>Node9</title>
<g id="a_Node000009"><a xlink:href="test__check_for_timeout_8cpp.html" target="_top" xlink:title=" ">
<polygon fill="white" stroke="#666666" points="866.5,-90.5 678.5,-90.5 678.5,-71.5 866.5,-71.5 866.5,-90.5"/>
<text text-anchor="middle" x="772.5" y="-78.5" font-family="Helvetica,sans-Serif" font-size="10.00">test/unit/test_checkForTimeout.cpp</text>
</a>
</g>
</g>
<!-- Node2&#45;&gt;Node9 -->
<g id="edge9_Node000002_Node000009" class="edge">
<title>Node2&#45;&gt;Node9</title>
<g id="a_edge9_Node000002_Node000009"><a xlink:title=" ">
<path fill="none" stroke="#63b8ff" d="M1520.08,-143.3C1403.19,-137.15 1116.06,-120.69 876.5,-96 861.73,-94.48 845.82,-92.51 831,-90.52"/>
<polygon fill="#63b8ff" stroke="#63b8ff" points="1520.02,-146.81 1530.19,-143.83 1520.39,-139.81 1520.02,-146.81"/>
</a>
</g>
</g>
<!-- Node10 -->
<g id="Node000010" class="node">
<title>Node10</title>
<g id="a_Node000010"><a xlink:href="test__connection_receive_body_8cpp.html" target="_top" xlink:title=" ">
<polygon fill="white" stroke="#666666" points="1022,-96 885,-96 885,-66 1022,-66 1022,-96"/>
<text text-anchor="start" x="893" y="-84" font-family="Helvetica,sans-Serif" font-size="10.00">test/unit/test_connection</text>
<text text-anchor="middle" x="953.5" y="-73" font-family="Helvetica,sans-Serif" font-size="10.00">ReceiveBody.cpp</text>
</a>
</g>
</g>
<!-- Node2&#45;&gt;Node10 -->
<g id="edge10_Node000002_Node000010" class="edge">
<title>Node2&#45;&gt;Node10</title>
<g id="a_edge10_Node000002_Node000010"><a xlink:title=" ">
<path fill="none" stroke="#63b8ff" d="M1520.33,-142.61C1423.04,-136.08 1209.94,-120.2 1031.5,-96 1028.5,-95.59 1025.44,-95.15 1022.35,-94.69"/>
<polygon fill="#63b8ff" stroke="#63b8ff" points="1520.29,-146.12 1530.5,-143.29 1520.75,-139.13 1520.29,-146.12"/>
</a>
</g>
</g>
<!-- Node11 -->
<g id="Node000011" class="node">
<title>Node11</title>
<g id="a_Node000011"><a xlink:href="test__connection_receive_from_c_g_i_8cpp.html" target="_top" xlink:title=" ">
<polygon fill="white" stroke="#666666" points="1177,-96 1040,-96 1040,-66 1177,-66 1177,-96"/>
<text text-anchor="start" x="1048" y="-84" font-family="Helvetica,sans-Serif" font-size="10.00">test/unit/test_connection</text>
<text text-anchor="middle" x="1108.5" y="-73" font-family="Helvetica,sans-Serif" font-size="10.00">ReceiveFromCGI.cpp</text>
</a>
</g>
</g>
<!-- Node2&#45;&gt;Node11 -->
<g id="edge11_Node000002_Node000011" class="edge">
<title>Node2&#45;&gt;Node11</title>
<g id="a_edge11_Node000002_Node000011"><a xlink:title=" ">
<path fill="none" stroke="#63b8ff" d="M1520.36,-139.97C1445.66,-131.31 1305.44,-114.35 1186.5,-96 1183.51,-95.54 1180.46,-95.05 1177.37,-94.55"/>
<polygon fill="#63b8ff" stroke="#63b8ff" points="1520.12,-143.47 1530.45,-141.14 1520.92,-136.51 1520.12,-143.47"/>
</a>
</g>
</g>
<!-- Node12 -->
<g id="Node000012" class="node">
<title>Node12</title>
<g id="a_Node000012"><a xlink:href="test__connection_receive_header_8cpp.html" target="_top" xlink:title=" ">
<polygon fill="white" stroke="#666666" points="1332,-96 1195,-96 1195,-66 1332,-66 1332,-96"/>
<text text-anchor="start" x="1203" y="-84" font-family="Helvetica,sans-Serif" font-size="10.00">test/unit/test_connection</text>
<text text-anchor="middle" x="1263.5" y="-73" font-family="Helvetica,sans-Serif" font-size="10.00">ReceiveHeader.cpp</text>
</a>
</g>
</g>
<!-- Node2&#45;&gt;Node12 -->
<g id="edge12_Node000002_Node000012" class="edge">
<title>Node2&#45;&gt;Node12</title>
<g id="a_edge12_Node000002_Node000012"><a xlink:title=" ">
<path fill="none" stroke="#63b8ff" d="M1521.98,-135.36C1469.8,-124.59 1388.83,-107.87 1331.43,-96.02"/>
<polygon fill="#63b8ff" stroke="#63b8ff" points="1521.51,-138.84 1532.01,-137.44 1522.93,-131.99 1521.51,-138.84"/>
</a>
</g>
</g>
<!-- Node13 -->
<g id="Node000013" class="node">
<title>Node13</title>
<g id="a_Node000013"><a xlink:href="test__connection_send_response_8cpp.html" target="_top" xlink:title=" ">
<polygon fill="white" stroke="#666666" points="1487,-96 1350,-96 1350,-66 1487,-66 1487,-96"/>
<text text-anchor="start" x="1358" y="-84" font-family="Helvetica,sans-Serif" font-size="10.00">test/unit/test_connection</text>
<text text-anchor="middle" x="1418.5" y="-73" font-family="Helvetica,sans-Serif" font-size="10.00">SendResponse.cpp</text>
</a>
</g>
</g>
<!-- Node2&#45;&gt;Node13 -->
<g id="edge13_Node000002_Node000013" class="edge">
<title>Node2&#45;&gt;Node13</title>
<g id="a_edge13_Node000002_Node000013"><a xlink:title=" ">
<path fill="none" stroke="#63b8ff" d="M1543.24,-133.5C1517.24,-122.77 1479.77,-107.3 1452.69,-96.12"/>
<polygon fill="#63b8ff" stroke="#63b8ff" points="1542.02,-136.79 1552.6,-137.37 1544.69,-130.32 1542.02,-136.79"/>
</a>
</g>
</g>
<!-- Node14 -->
<g id="Node000014" class="node">
<title>Node14</title>
<g id="a_Node000014"><a xlink:href="test__connection_send_to_c_g_i_8cpp.html" target="_top" xlink:title=" ">
<polygon fill="white" stroke="#666666" points="1642,-96 1505,-96 1505,-66 1642,-66 1642,-96"/>
<text text-anchor="start" x="1513" y="-84" font-family="Helvetica,sans-Serif" font-size="10.00">test/unit/test_connection</text>
<text text-anchor="middle" x="1573.5" y="-73" font-family="Helvetica,sans-Serif" font-size="10.00">SendToCGI.cpp</text>
</a>
</g>
</g>
<!-- Node2&#45;&gt;Node14 -->
<g id="edge14_Node000002_Node000014" class="edge">
<title>Node2&#45;&gt;Node14</title>
<g id="a_edge14_Node000002_Node000014"><a xlink:title=" ">
<path fill="none" stroke="#63b8ff" d="M1573.5,-127.35C1573.5,-117.47 1573.5,-105.51 1573.5,-96.36"/>
<polygon fill="#63b8ff" stroke="#63b8ff" points="1570,-127.37 1573.5,-137.37 1577,-127.37 1570,-127.37"/>
</a>
</g>
</g>
<!-- Node15 -->
<g id="Node000015" class="node">
<title>Node15</title>
<g id="a_Node000015"><a xlink:href="test__create_virtual_server_8cpp.html" target="_top" xlink:title=" ">
<polygon fill="white" stroke="#666666" points="1807,-96 1660,-96 1660,-66 1807,-66 1807,-96"/>
<text text-anchor="start" x="1668" y="-84" font-family="Helvetica,sans-Serif" font-size="10.00">test/unit/test_createVirtual</text>
<text text-anchor="middle" x="1733.5" y="-73" font-family="Helvetica,sans-Serif" font-size="10.00">Server.cpp</text>
</a>
</g>
</g>
<!-- Node2&#45;&gt;Node15 -->
<g id="edge15_Node000002_Node000015" class="edge">
<title>Node2&#45;&gt;Node15</title>
<g id="a_edge15_Node000002_Node000015"><a xlink:title=" ">
<path fill="none" stroke="#63b8ff" d="M1604.38,-133.65C1631.24,-122.9 1670.14,-107.35 1698.21,-96.12"/>
<polygon fill="#63b8ff" stroke="#63b8ff" points="1603.06,-130.41 1595.08,-137.37 1605.66,-136.9 1603.06,-130.41"/>
</a>
</g>
</g>
<!-- Node16 -->
<g id="Node000016" class="node">
<title>Node16</title>
<g id="a_Node000016"><a xlink:href="test__handle_complete_request_header_8cpp.html" target="_top" xlink:title=" ">
<polygon fill="white" stroke="#666666" points="1989.5,-96 1825.5,-96 1825.5,-66 1989.5,-66 1989.5,-96"/>
<text text-anchor="start" x="1833.5" y="-84" font-family="Helvetica,sans-Serif" font-size="10.00">test/unit/test_handleComplete</text>
<text text-anchor="middle" x="1907.5" y="-73" font-family="Helvetica,sans-Serif" font-size="10.00">RequestHeader.cpp</text>
</a>
</g>
</g>
<!-- Node2&#45;&gt;Node16 -->
<g id="edge16_Node000002_Node000016" class="edge">
<title>Node2&#45;&gt;Node16</title>
<g id="a_edge16_Node000002_Node000016"><a xlink:title=" ">
<path fill="none" stroke="#63b8ff" d="M1613.96,-134.95C1618.19,-133.9 1622.42,-132.9 1626.5,-132 1693.03,-117.32 1769.16,-103.98 1825.38,-94.79"/>
<polygon fill="#63b8ff" stroke="#63b8ff" points="1613.05,-131.57 1604.22,-137.43 1614.78,-138.35 1613.05,-131.57"/>
</a>
</g>
</g>
<!-- Node17 -->
<g id="Node000017" class="node">
<title>Node17</title>
<g id="a_Node000017"><a xlink:href="test__init_virtual_servers_8cpp.html" target="_top" xlink:title=" ">
<polygon fill="white" stroke="#666666" points="2139.5,-96 2007.5,-96 2007.5,-66 2139.5,-66 2139.5,-96"/>
<text text-anchor="start" x="2015.5" y="-84" font-family="Helvetica,sans-Serif" font-size="10.00">test/unit/test_initVirtual</text>
<text text-anchor="middle" x="2073.5" y="-73" font-family="Helvetica,sans-Serif" font-size="10.00">Servers.cpp</text>
</a>
</g>
</g>
<!-- Node2&#45;&gt;Node17 -->
<g id="edge17_Node000002_Node000017" class="edge">
<title>Node2&#45;&gt;Node17</title>
<g id="a_edge17_Node000002_Node000017"><a xlink:title=" ">
<path fill="none" stroke="#63b8ff" d="M1612.54,-134.93C1617.22,-133.83 1621.95,-132.82 1626.5,-132 1790,-102.69 1834.03,-119.26 1998.5,-96 2001.39,-95.59 2004.33,-95.15 2007.3,-94.68"/>
<polygon fill="#63b8ff" stroke="#63b8ff" points="1611.32,-131.62 1602.47,-137.44 1613.02,-138.41 1611.32,-131.62"/>
</a>
</g>
</g>
<!-- Node18 -->
<g id="Node000018" class="node">
<title>Node18</title>
<g id="a_Node000018"><a xlink:href="test__is_duplicate_server_8cpp.html" target="_top" xlink:title=" ">
<polygon fill="white" stroke="#666666" points="2297,-96 2158,-96 2158,-66 2297,-66 2297,-96"/>
<text text-anchor="start" x="2166" y="-84" font-family="Helvetica,sans-Serif" font-size="10.00">test/unit/test_isDuplicate</text>
<text text-anchor="middle" x="2227.5" y="-73" font-family="Helvetica,sans-Serif" font-size="10.00">Server.cpp</text>
</a>
</g>
</g>
<!-- Node2&#45;&gt;Node18 -->
<g id="edge18_Node000002_Node000018" class="edge">
<title>Node2&#45;&gt;Node18</title>
<g id="a_edge18_Node000002_Node000018"><a xlink:title=" ">
<path fill="none" stroke="#63b8ff" d="M1611.8,-134.97C1616.71,-133.82 1621.71,-132.79 1626.5,-132 1855.95,-94.13 1917.68,-124.33 2148.5,-96 2151.54,-95.63 2154.64,-95.21 2157.77,-94.77"/>
<polygon fill="#63b8ff" stroke="#63b8ff" points="1610.75,-131.62 1601.89,-137.44 1612.44,-138.42 1610.75,-131.62"/>
</a>
</g>
</g>
<!-- Node19 -->
<g id="Node000019" class="node">
<title>Node19</title>
<g id="a_Node000019"><a xlink:href="test__register_c_g_i_file_descriptor_8cpp.html" target="_top" xlink:title=" ">
<polygon fill="white" stroke="#666666" points="2471.5,-96 2315.5,-96 2315.5,-66 2471.5,-66 2471.5,-96"/>
<text text-anchor="start" x="2323.5" y="-84" font-family="Helvetica,sans-Serif" font-size="10.00">test/unit/test_registerCGIFile</text>
<text text-anchor="middle" x="2393.5" y="-73" font-family="Helvetica,sans-Serif" font-size="10.00">Descriptor.cpp</text>
</a>
</g>
</g>
<!-- Node2&#45;&gt;Node19 -->
<g id="edge19_Node000002_Node000019" class="edge">
<title>Node2&#45;&gt;Node19</title>
<g id="a_edge19_Node000002_Node000019"><a xlink:title=" ">
<path fill="none" stroke="#63b8ff" d="M1611.61,-134.94C1616.59,-133.79 1621.64,-132.76 1626.5,-132 1925.49,-85.11 2005.56,-128.09 2306.5,-96 2309.39,-95.69 2312.33,-95.35 2315.3,-94.99"/>
<polygon fill="#63b8ff" stroke="#63b8ff" points="1610.46,-131.62 1601.6,-137.43 1612.15,-138.41 1610.46,-131.62"/>
</a>
</g>
</g>
<!-- Node20 -->
<g id="Node000020" class="node">
<title>Node20</title>
<g id="a_Node000020"><a xlink:href="test__register_connection_8cpp.html" target="_top" xlink:title=" ">
<polygon fill="white" stroke="#666666" points="2687,-90.5 2490,-90.5 2490,-71.5 2687,-71.5 2687,-90.5"/>
<text text-anchor="middle" x="2588.5" y="-78.5" font-family="Helvetica,sans-Serif" font-size="10.00">test/unit/test_registerConnection.cpp</text>
</a>
</g>
</g>
<!-- Node2&#45;&gt;Node20 -->
<g id="edge20_Node000002_Node000020" class="edge">
<title>Node2&#45;&gt;Node20</title>
<g id="a_edge20_Node000002_Node000020"><a xlink:title=" ">
<path fill="none" stroke="#63b8ff" d="M1611.04,-135.02C1616.2,-133.82 1621.45,-132.76 1626.5,-132 2002.12,-75.16 2102,-128.45 2480.5,-96 2496.61,-94.62 2514,-92.6 2530.03,-90.52"/>
<polygon fill="#63b8ff" stroke="#63b8ff" points="1610.17,-131.63 1601.32,-137.44 1611.87,-138.42 1610.17,-131.63"/>
</a>
</g>
</g>
<!-- Node21 -->
<g id="Node000021" class="node">
<title>Node21</title>
<g id="a_Node000021"><a xlink:href="test__register_virtual_server_8cpp.html" target="_top" xlink:title=" ">
<polygon fill="white" stroke="#666666" points="2859.5,-96 2705.5,-96 2705.5,-66 2859.5,-66 2859.5,-96"/>
<text text-anchor="start" x="2713.5" y="-84" font-family="Helvetica,sans-Serif" font-size="10.00">test/unit/test_registerVirtual</text>
<text text-anchor="middle" x="2782.5" y="-73" font-family="Helvetica,sans-Serif" font-size="10.00">Server.cpp</text>
</a>
</g>
</g>
<!-- Node2&#45;&gt;Node21 -->
<g id="edge21_Node000002_Node000021" class="edge">
<title>Node2&#45;&gt;Node21</title>
<g id="a_edge21_Node000002_Node000021"><a xlink:title=" ">
<path fill="none" stroke="#63b8ff" d="M1610.86,-135.02C1616.07,-133.81 1621.39,-132.75 1626.5,-132 2097.27,-62.8 2222.94,-142.32 2696.5,-96 2699.36,-95.72 2702.27,-95.4 2705.21,-95.06"/>
<polygon fill="#63b8ff" stroke="#63b8ff" points="1609.89,-131.65 1601.04,-137.47 1611.59,-138.44 1609.89,-131.65"/>
</a>
</g>
</g>
<!-- Node22 -->
<g id="Node000022" class="node">
<title>Node22</title>
<g id="a_Node000022"><a xlink:href="test__select_server_config_8cpp.html" target="_top" xlink:title=" ">
<polygon fill="white" stroke="#666666" points="3023,-96 2878,-96 2878,-66 3023,-66 3023,-96"/>
<text text-anchor="start" x="2886" y="-84" font-family="Helvetica,sans-Serif" font-size="10.00">test/unit/test_selectServer</text>
<text text-anchor="middle" x="2950.5" y="-73" font-family="Helvetica,sans-Serif" font-size="10.00">Config.cpp</text>
</a>
</g>
</g>
<!-- Node2&#45;&gt;Node22 -->
<g id="edge22_Node000002_Node000022" class="edge">
<title>Node2&#45;&gt;Node22</title>
<g id="a_edge22_Node000002_Node000022"><a xlink:title=" ">
<path fill="none" stroke="#63b8ff" d="M1610.85,-135C1616.07,-133.79 1621.39,-132.74 1626.5,-132 2173.05,-52.96 2318.97,-150.6 2868.5,-96 2871.52,-95.7 2874.59,-95.36 2877.69,-94.97"/>
<polygon fill="#63b8ff" stroke="#63b8ff" points="1609.89,-131.63 1601.03,-137.45 1611.58,-138.42 1609.89,-131.63"/>
</a>
</g>
</g>
<!-- Node23 -->
<g id="Node000023" class="node">
<title>Node23</title>
<g id="a_Node000023"><a xlink:href="test__shutdown_server_8cpp.html" target="_top" xlink:title=" ">
<polygon fill="white" stroke="#666666" points="3223.5,-90.5 3041.5,-90.5 3041.5,-71.5 3223.5,-71.5 3223.5,-90.5"/>
<text text-anchor="middle" x="3132.5" y="-78.5" font-family="Helvetica,sans-Serif" font-size="10.00">test/unit/test_shutdownServer.cpp</text>
</a>
</g>
</g>
<!-- Node2&#45;&gt;Node23 -->
<g id="edge23_Node000002_Node000023" class="edge">
<title>Node2&#45;&gt;Node23</title>
<g id="a_edge23_Node000002_Node000023"><a xlink:title=" ">
<path fill="none" stroke="#63b8ff" d="M1610.85,-134.98C1616.07,-133.78 1621.39,-132.73 1626.5,-132 1935.9,-87.79 2721.01,-121.71 3032.5,-96 3047.87,-94.73 3064.5,-92.68 3079.69,-90.54"/>
<polygon fill="#63b8ff" stroke="#63b8ff" points="1609.89,-131.61 1601.03,-137.43 1611.58,-138.4 1609.89,-131.61"/>
</a>
</g>
</g>
<!-- Node4 -->
<g id="Node000004" class="node">
<title>Node4</title>
<g id="a_Node000004"><a xlink:href="_config_file_parser_8cpp.html" target="_top" xlink:title=" ">
<polygon fill="white" stroke="#666666" points="131,-24.5 0,-24.5 0,-5.5 131,-5.5 131,-24.5"/>
<text text-anchor="middle" x="65.5" y="-12.5" font-family="Helvetica,sans-Serif" font-size="10.00">src/ConfigFileParser.cpp</text>
</a>
</g>
</g>
<!-- Node3&#45;&gt;Node4 -->
<g id="edge3_Node000003_Node000004" class="edge">
<title>Node3&#45;&gt;Node4</title>
<g id="a_edge3_Node000003_Node000004"><a xlink:title=" ">
<path fill="none" stroke="#63b8ff" d="M198.73,-67.68C166.12,-55.03 116.24,-35.68 87.66,-24.6"/>
<polygon fill="#63b8ff" stroke="#63b8ff" points="197.66,-71.02 208.25,-71.37 200.19,-64.49 197.66,-71.02"/>
</a>
</g>
</g>
<!-- Node3&#45;&gt;Node5 -->
<g id="edge4_Node000003_Node000005" class="edge">
<title>Node3&#45;&gt;Node5</title>
<g id="a_edge4_Node000003_Node000005"><a xlink:title=" ">
<path fill="none" stroke="#63b8ff" d="M254.02,-66.19C275.47,-53.59 306.51,-35.37 324.68,-24.7"/>
<polygon fill="#63b8ff" stroke="#63b8ff" points="252.05,-63.29 245.2,-71.37 255.6,-69.32 252.05,-63.29"/>
</a>
</g>
</g>
<!-- Node6 -->
<g id="Node000006" class="node">
<title>Node6</title>
<g id="a_Node000006"><a xlink:href="test___config_file_parser_8cpp.html" target="_top" xlink:title=" ">
<polygon fill="white" stroke="#666666" points="281.5,-30 149.5,-30 149.5,0 281.5,0 281.5,-30"/>
<text text-anchor="start" x="157.5" y="-18" font-family="Helvetica,sans-Serif" font-size="10.00">test/unit/test_ConfigFile</text>
<text text-anchor="middle" x="215.5" y="-7" font-family="Helvetica,sans-Serif" font-size="10.00">Parser.cpp</text>
</a>
</g>
</g>
<!-- Node3&#45;&gt;Node6 -->
<g id="edge5_Node000003_Node000006" class="edge">
<title>Node3&#45;&gt;Node6</title>
<g id="a_edge5_Node000003_Node000006"><a xlink:title=" ">
<path fill="none" stroke="#63b8ff" d="M226.13,-61.35C223.81,-51.47 221.01,-39.51 218.87,-30.36"/>
<polygon fill="#63b8ff" stroke="#63b8ff" points="222.79,-62.43 228.48,-71.37 229.6,-60.83 222.79,-62.43"/>
</a>
</g>
</g>
</g>
</svg>

<g id="navigator" transform="translate(0 0)" fill="#404254">
  <rect fill="#f2f5e9" fill-opacity="0.5" stroke="#606060" stroke-width=".5" x="0" y="0" width="60" height="60"/>
  <use id="zoomplus" xlink:href="#zoomPlus" x="17" y="9" onmousedown="handleZoom(evt,'in')"/>
  <use id="zoomminus" xlink:href="#zoomMin" x="42" y="9" onmousedown="handleZoom(evt,'out')"/>
  <use id="reset" xlink:href="#resetDef" x="30" y="36" onmousedown="handleReset()"/>
   <use id="arrowup" xlink:href="#arrowUp" x="0" y="0" onmousedown="handlePan(0,-1)"/>
  <use id="arrowright" xlink:href="#arrowRight" x="0" y="0" onmousedown="handlePan(1,0)"/>
  <use id="arrowdown" xlink:href="#arrowDown" x="0" y="0" onmousedown="handlePan(0,1)"/>
  <use id="arrowleft" xlink:href="#arrowLeft" x="0" y="0" onmousedown="handlePan(-1,0)"/>
</g>
<svg viewBox="0 0 15 15" width="100%" height="30px" preserveAspectRatio="xMaxYMin meet">
 <g id="arrow_out" transform="scale(0.3 0.3)">
  <a xlink:href="_request_parser_8hpp__dep__incl_org.svg" target="_base">
   <rect id="button" ry="5" rx="5" y="6" x="6" height="38" width="38"
        fill="#f2f5e9" fill-opacity="0.5" stroke="#606060" stroke-width="1.0"/>
   <path id="arrow"
     d="M 11.500037,31.436501 C 11.940474,20.09759 22.043105,11.32322 32.158766,21.979434 L 37.068811,17.246167 C 37.068811,17.246167 37.088388,32 37.088388,32 L 22.160133,31.978069 C 22.160133,31.978069 26.997745,27.140456 26.997745,27.140456 C 18.528582,18.264221 13.291696,25.230495 11.500037,31.436501 z"
     style="fill:#404040;"/>
  </a>
 </g>
</svg>

<style type='text/css'>
<![CDATA[
[data-mouse-over-selected='false'] { opacity: 0.7; }
[data-mouse-over-selected='true']  { opacity: 1.0; }
]]>
</style>
<script type="application/ecmascript"><![CDATA[
document.addEventListener('DOMContentLoaded', (event) => {
  highlightEdges();
  highlightAdjacentNodes();
});
]]></script>
</svg>
