<?xml version="1.0" encoding="UTF-8" standalone="no"?>
<!DOCTYPE svg PUBLIC "-//W3C//DTD SVG 1.1//EN"
 "http://www.w3.org/Graphics/SVG/1.1/DTD/svg11.dtd">
<!-- Generated by graphviz version 2.43.0 (0)
 -->
<!-- Title: inc/RequestParser.hpp Pages: 1 -->
<svg width="2179pt" height="162pt"
 viewBox="0.00 0.00 2179.00 162.00" xmlns="http://www.w3.org/2000/svg" xmlns:xlink="http://www.w3.org/1999/xlink">
<g id="graph0" class="graph" transform="scale(1 1) rotate(0) translate(4 158)">
<title>inc/RequestParser.hpp</title>
<!-- Node1 -->
<g id="node1" class="node">
<title>Node1</title>
<g id="a_node1"><a xlink:title=" ">
<polygon fill="#bfbfbf" stroke="black" points="1204.5,-134.5 1204.5,-153.5 1328.5,-153.5 1328.5,-134.5 1204.5,-134.5"/>
<text text-anchor="middle" x="1266.5" y="-141.5" font-family="Helvetica,sans-Serif" font-size="10.00">inc/RequestParser.hpp</text>
</a>
</g>
</g>
<!-- Node2 -->
<g id="node2" class="node">
<title>Node2</title>
<g id="a_node2"><a xlink:href="_server_8hpp.html" target="_top" xlink:title=" ">
<polygon fill="none" stroke="black" points="954.5,-73 954.5,-92 1040.5,-92 1040.5,-73 954.5,-73"/>
<text text-anchor="middle" x="997.5" y="-80" font-family="Helvetica,sans-Serif" font-size="10.00">inc/Server.hpp</text>
</a>
</g>
</g>
<!-- Node1&#45;&gt;Node2 -->
<g id="edge1" class="edge">
<title>Node1&#45;&gt;Node2</title>
<path fill="none" stroke="midnightblue" d="M1211.77,-132.57C1167.98,-123.99 1105.09,-111.14 1050.5,-98 1042.99,-96.19 1034.92,-94.08 1027.41,-92.03"/>
<polygon fill="midnightblue" stroke="midnightblue" points="1211.16,-136.01 1221.64,-134.49 1212.5,-129.14 1211.16,-136.01"/>
</g>
<!-- Node16 -->
<g id="node16" class="node">
<title>Node16</title>
<g id="a_node16"><a xlink:href="_request_parser_8cpp.html" target="_top" xlink:title=" ">
<polygon fill="none" stroke="black" points="1059,-73 1059,-92 1182,-92 1182,-73 1059,-73"/>
<text text-anchor="middle" x="1120.5" y="-80" font-family="Helvetica,sans-Serif" font-size="10.00">src/RequestParser.cpp</text>
</a>
</g>
</g>
<!-- Node1&#45;&gt;Node16 -->
<g id="edge15" class="edge">
<title>Node1&#45;&gt;Node16</title>
<path fill="none" stroke="midnightblue" d="M1236.15,-130.63C1207.79,-119.07 1166.19,-102.12 1141.38,-92.01"/>
<polygon fill="midnightblue" stroke="midnightblue" points="1235,-133.94 1245.58,-134.48 1237.64,-127.46 1235,-133.94"/>
</g>
<!-- Node17 -->
<g id="node17" class="node">
<title>Node17</title>
<g id="a_node17"><a xlink:href="test__parse_body_8cpp.html" target="_top" xlink:title=" ">
<polygon fill="none" stroke="black" points="1200,-73 1200,-92 1333,-92 1333,-73 1200,-73"/>
<text text-anchor="middle" x="1266.5" y="-80" font-family="Helvetica,sans-Serif" font-size="10.00">test/test_parseBody.cpp</text>
</a>
</g>
</g>
<!-- Node1&#45;&gt;Node17 -->
<g id="edge16" class="edge">
<title>Node1&#45;&gt;Node17</title>
<path fill="none" stroke="midnightblue" d="M1266.5,-124.32C1266.5,-113.5 1266.5,-100.4 1266.5,-92.01"/>
<polygon fill="midnightblue" stroke="midnightblue" points="1263,-124.48 1266.5,-134.48 1270,-124.48 1263,-124.48"/>
</g>
<!-- Node18 -->
<g id="node18" class="node">
<title>Node18</title>
<g id="a_node18"><a xlink:href="test__parse_header___headers_8cpp.html" target="_top" xlink:title=" ">
<polygon fill="none" stroke="black" points="1351,-67.5 1351,-97.5 1476,-97.5 1476,-67.5 1351,-67.5"/>
<text text-anchor="start" x="1359" y="-85.5" font-family="Helvetica,sans-Serif" font-size="10.00">test/test_parseHeader</text>
<text text-anchor="middle" x="1413.5" y="-74.5" font-family="Helvetica,sans-Serif" font-size="10.00">_Headers.cpp</text>
</a>
</g>
</g>
<!-- Node1&#45;&gt;Node18 -->
<g id="edge17" class="edge">
<title>Node1&#45;&gt;Node18</title>
<path fill="none" stroke="midnightblue" d="M1296.84,-130.72C1320.7,-121.06 1353.95,-107.6 1378.86,-97.52"/>
<polygon fill="midnightblue" stroke="midnightblue" points="1295.52,-127.48 1287.56,-134.48 1298.14,-133.97 1295.52,-127.48"/>
</g>
<!-- Node19 -->
<g id="node19" class="node">
<title>Node19</title>
<g id="a_node19"><a xlink:href="test__parse_header___request_line_8cpp.html" target="_top" xlink:title=" ">
<polygon fill="none" stroke="black" points="1494,-67.5 1494,-97.5 1619,-97.5 1619,-67.5 1494,-67.5"/>
<text text-anchor="start" x="1502" y="-85.5" font-family="Helvetica,sans-Serif" font-size="10.00">test/test_parseHeader</text>
<text text-anchor="middle" x="1556.5" y="-74.5" font-family="Helvetica,sans-Serif" font-size="10.00">_RequestLine.cpp</text>
</a>
</g>
</g>
<!-- Node1&#45;&gt;Node19 -->
<g id="edge18" class="edge">
<title>Node1&#45;&gt;Node19</title>
<path fill="none" stroke="midnightblue" d="M1318.15,-132.4C1367.33,-122.31 1441.44,-107.11 1493.94,-96.34"/>
<polygon fill="midnightblue" stroke="midnightblue" points="1317.14,-129.04 1308.05,-134.48 1318.55,-135.89 1317.14,-129.04"/>
</g>
<!-- Node3 -->
<g id="node3" class="node">
<title>Node3</title>
<g id="a_node3"><a xlink:href="main_8cpp.html" target="_top" xlink:title=" ">
<polygon fill="none" stroke="black" points="0,-6 0,-25 79,-25 79,-6 0,-6"/>
<text text-anchor="middle" x="39.5" y="-13" font-family="Helvetica,sans-Serif" font-size="10.00">src/main.cpp</text>
</a>
</g>
</g>
<!-- Node2&#45;&gt;Node3 -->
<g id="edge2" class="edge">
<title>Node2&#45;&gt;Node3</title>
<path fill="none" stroke="midnightblue" d="M944.12,-80.2C775.21,-75.84 253.77,-60.3 87.5,-31 79.61,-29.61 71.2,-27.35 63.65,-25.02"/>
<polygon fill="midnightblue" stroke="midnightblue" points="944.17,-83.71 954.26,-80.46 944.35,-76.71 944.17,-83.71"/>
</g>
<!-- Node4 -->
<g id="node4" class="node">
<title>Node4</title>
<g id="a_node4"><a xlink:href="_server_8cpp.html" target="_top" xlink:title=" ">
<polygon fill="none" stroke="black" points="97,-6 97,-25 182,-25 182,-6 97,-6"/>
<text text-anchor="middle" x="139.5" y="-13" font-family="Helvetica,sans-Serif" font-size="10.00">src/Server.cpp</text>
</a>
</g>
</g>
<!-- Node2&#45;&gt;Node4 -->
<g id="edge3" class="edge">
<title>Node2&#45;&gt;Node4</title>
<path fill="none" stroke="midnightblue" d="M944.17,-82.09C814.25,-82.69 471.38,-79.14 190.5,-31 182.24,-29.58 173.41,-27.34 165.46,-25.04"/>
<polygon fill="midnightblue" stroke="midnightblue" points="944.28,-85.59 954.26,-82.04 944.24,-78.59 944.28,-85.59"/>
</g>
<!-- Node5 -->
<g id="node5" class="node">
<title>Node5</title>
<g id="a_node5"><a xlink:href="test__accept_connections_8cpp.html" target="_top" xlink:title=" ">
<polygon fill="none" stroke="black" points="200,-6 200,-25 375,-25 375,-6 200,-6"/>
<text text-anchor="middle" x="287.5" y="-13" font-family="Helvetica,sans-Serif" font-size="10.00">test/test_acceptConnections.cpp</text>
</a>
</g>
</g>
<!-- Node2&#45;&gt;Node5 -->
<g id="edge4" class="edge">
<title>Node2&#45;&gt;Node5</title>
<path fill="none" stroke="midnightblue" d="M944.03,-78.33C837.27,-71.72 590.16,-55.08 383.5,-31 369.27,-29.34 353.9,-27.19 339.73,-25.05"/>
<polygon fill="midnightblue" stroke="midnightblue" points="944.03,-81.83 954.22,-78.95 944.46,-74.85 944.03,-81.83"/>
</g>
<!-- Node6 -->
<g id="node6" class="node">
<title>Node6</title>
<g id="a_node6"><a xlink:href="test__check_for_timeout_8cpp.html" target="_top" xlink:title=" ">
<polygon fill="none" stroke="black" points="393,-6 393,-25 560,-25 560,-6 393,-6"/>
<text text-anchor="middle" x="476.5" y="-13" font-family="Helvetica,sans-Serif" font-size="10.00">test/test_checkForTimeout.cpp</text>
</a>
</g>
</g>
<!-- Node2&#45;&gt;Node6 -->
<g id="edge5" class="edge">
<title>Node2&#45;&gt;Node6</title>
<path fill="none" stroke="midnightblue" d="M944.22,-75.91C863.02,-67.23 703.51,-49.58 568.5,-31 555.53,-29.21 541.55,-27.11 528.51,-25.06"/>
<polygon fill="midnightblue" stroke="midnightblue" points="943.88,-79.39 954.19,-76.97 944.62,-72.43 943.88,-79.39"/>
</g>
<!-- Node7 -->
<g id="node7" class="node">
<title>Node7</title>
<g id="a_node7"><a xlink:href="test__connection_receive_header_8cpp.html" target="_top" xlink:title=" ">
<polygon fill="none" stroke="black" points="578,-0.5 578,-30.5 733,-30.5 733,-0.5 578,-0.5"/>
<text text-anchor="start" x="586" y="-18.5" font-family="Helvetica,sans-Serif" font-size="10.00">test/test_connectionReceive</text>
<text text-anchor="middle" x="655.5" y="-7.5" font-family="Helvetica,sans-Serif" font-size="10.00">Header.cpp</text>
</a>
</g>
</g>
<!-- Node2&#45;&gt;Node7 -->
<g id="edge6" class="edge">
<title>Node2&#45;&gt;Node7</title>
<path fill="none" stroke="midnightblue" d="M944.18,-71.37C886.45,-60.39 793.99,-42.82 729.31,-30.53"/>
<polygon fill="midnightblue" stroke="midnightblue" points="943.71,-74.84 954.19,-73.27 945.01,-67.96 943.71,-74.84"/>
</g>
<!-- Node8 -->
<g id="node8" class="node">
<title>Node8</title>
<g id="a_node8"><a xlink:href="test__connection_send_response_8cpp.html" target="_top" xlink:title=" ">
<polygon fill="none" stroke="black" points="751.5,-0.5 751.5,-30.5 891.5,-30.5 891.5,-0.5 751.5,-0.5"/>
<text text-anchor="start" x="759.5" y="-18.5" font-family="Helvetica,sans-Serif" font-size="10.00">test/test_connectionSend</text>
<text text-anchor="middle" x="821.5" y="-7.5" font-family="Helvetica,sans-Serif" font-size="10.00">Response.cpp</text>
</a>
</g>
</g>
<!-- Node2&#45;&gt;Node8 -->
<g id="edge7" class="edge">
<title>Node2&#45;&gt;Node8</title>
<path fill="none" stroke="midnightblue" d="M964.59,-69.35C934.76,-58.33 890.8,-42.09 859.48,-30.53"/>
<polygon fill="midnightblue" stroke="midnightblue" points="963.54,-72.69 974.13,-72.87 965.96,-66.12 963.54,-72.69"/>
</g>
<!-- Node9 -->
<g id="node9" class="node">
<title>Node9</title>
<g id="a_node9"><a xlink:href="test__create_virtual_server_8cpp.html" target="_top" xlink:title=" ">
<polygon fill="none" stroke="black" points="909.5,-6 909.5,-25 1085.5,-25 1085.5,-6 909.5,-6"/>
<text text-anchor="middle" x="997.5" y="-13" font-family="Helvetica,sans-Serif" font-size="10.00">test/test_createVirtualServer.cpp</text>
</a>
</g>
</g>
<!-- Node2&#45;&gt;Node9 -->
<g id="edge8" class="edge">
<title>Node2&#45;&gt;Node9</title>
<path fill="none" stroke="midnightblue" d="M997.5,-62.54C997.5,-50.17 997.5,-34.62 997.5,-25.13"/>
<polygon fill="midnightblue" stroke="midnightblue" points="994,-62.73 997.5,-72.73 1001,-62.73 994,-62.73"/>
</g>
<!-- Node10 -->
<g id="node10" class="node">
<title>Node10</title>
<g id="a_node10"><a xlink:href="test__init_virtual_servers_8cpp.html" target="_top" xlink:title=" ">
<polygon fill="none" stroke="black" points="1103,-6 1103,-25 1270,-25 1270,-6 1103,-6"/>
<text text-anchor="middle" x="1186.5" y="-13" font-family="Helvetica,sans-Serif" font-size="10.00">test/test_initVirtualServers.cpp</text>
</a>
</g>
</g>
<!-- Node2&#45;&gt;Node10 -->
<g id="edge9" class="edge">
<title>Node2&#45;&gt;Node10</title>
<path fill="none" stroke="midnightblue" d="M1032.1,-69.6C1069.57,-56.71 1128.43,-36.47 1161.6,-25.06"/>
<polygon fill="midnightblue" stroke="midnightblue" points="1030.92,-66.31 1022.6,-72.87 1033.19,-72.93 1030.92,-66.31"/>
</g>
<!-- Node11 -->
<g id="node11" class="node">
<title>Node11</title>
<g id="a_node11"><a xlink:href="test__is_duplicate_server_8cpp.html" target="_top" xlink:title=" ">
<polygon fill="none" stroke="black" points="1287.5,-6 1287.5,-25 1455.5,-25 1455.5,-6 1287.5,-6"/>
<text text-anchor="middle" x="1371.5" y="-13" font-family="Helvetica,sans-Serif" font-size="10.00">test/test_isDuplicateServer.cpp</text>
</a>
</g>
</g>
<!-- Node2&#45;&gt;Node11 -->
<g id="edge10" class="edge">
<title>Node2&#45;&gt;Node11</title>
<path fill="none" stroke="midnightblue" d="M1036.2,-70.38C1041,-69.16 1045.85,-68 1050.5,-67 1151.23,-45.37 1177.73,-47.02 1279.5,-31 1291.8,-29.06 1305.02,-26.98 1317.5,-25.01"/>
<polygon fill="midnightblue" stroke="midnightblue" points="1035.29,-67 1026.52,-72.94 1037.08,-73.77 1035.29,-67"/>
</g>
<!-- Node12 -->
<g id="node12" class="node">
<title>Node12</title>
<g id="a_node12"><a xlink:href="test__register_connection_8cpp.html" target="_top" xlink:title=" ">
<polygon fill="none" stroke="black" points="1474,-6 1474,-25 1649,-25 1649,-6 1474,-6"/>
<text text-anchor="middle" x="1561.5" y="-13" font-family="Helvetica,sans-Serif" font-size="10.00">test/test_registerConnection.cpp</text>
</a>
</g>
</g>
<!-- Node2&#45;&gt;Node12 -->
<g id="edge11" class="edge">
<title>Node2&#45;&gt;Node12</title>
<path fill="none" stroke="midnightblue" d="M1034.88,-70.37C1040.09,-69.09 1045.41,-67.91 1050.5,-67 1232.31,-34.5 1281.08,-52.66 1464.5,-31 1478.79,-29.31 1494.21,-27.16 1508.47,-25.03"/>
<polygon fill="midnightblue" stroke="midnightblue" points="1033.85,-67.02 1025.07,-72.95 1035.63,-73.8 1033.85,-67.02"/>
</g>
<!-- Node13 -->
<g id="node13" class="node">
<title>Node13</title>
<g id="a_node13"><a xlink:href="test__register_virtual_server_8cpp.html" target="_top" xlink:title=" ">
<polygon fill="none" stroke="black" points="1667.5,-0.5 1667.5,-30.5 1799.5,-30.5 1799.5,-0.5 1667.5,-0.5"/>
<text text-anchor="start" x="1675.5" y="-18.5" font-family="Helvetica,sans-Serif" font-size="10.00">test/test_registerVirtual</text>
<text text-anchor="middle" x="1733.5" y="-7.5" font-family="Helvetica,sans-Serif" font-size="10.00">Server.cpp</text>
</a>
</g>
</g>
<!-- Node2&#45;&gt;Node13 -->
<g id="edge12" class="edge">
<title>Node2&#45;&gt;Node13</title>
<path fill="none" stroke="midnightblue" d="M1034.51,-70.33C1039.83,-69.03 1045.28,-67.86 1050.5,-67 1317.6,-23.05 1389.92,-64.76 1658.5,-31 1661.39,-30.64 1664.35,-30.23 1667.32,-29.78"/>
<polygon fill="midnightblue" stroke="midnightblue" points="1033.28,-67.03 1024.5,-72.95 1035.06,-73.8 1033.28,-67.03"/>
</g>
<!-- Node14 -->
<g id="node14" class="node">
<title>Node14</title>
<g id="a_node14"><a xlink:href="test__select_server_config_8cpp.html" target="_top" xlink:title=" ">
<polygon fill="none" stroke="black" points="1817.5,-6 1817.5,-25 1991.5,-25 1991.5,-6 1817.5,-6"/>
<text text-anchor="middle" x="1904.5" y="-13" font-family="Helvetica,sans-Serif" font-size="10.00">test/test_selectServerConfig.cpp</text>
</a>
</g>
</g>
<!-- Node2&#45;&gt;Node14 -->
<g id="edge13" class="edge">
<title>Node2&#45;&gt;Node14</title>
<path fill="none" stroke="midnightblue" d="M1033.91,-70.42C1039.42,-69.06 1045.08,-67.86 1050.5,-67 1383.61,-14.18 1472.87,-64.23 1808.5,-31 1823.43,-29.52 1839.58,-27.32 1854.3,-25.07"/>
<polygon fill="midnightblue" stroke="midnightblue" points="1032.99,-67.04 1024.21,-72.96 1034.77,-73.81 1032.99,-67.04"/>
</g>
<!-- Node15 -->
<g id="node15" class="node">
<title>Node15</title>
<g id="a_node15"><a xlink:href="test__shutdown_server_8cpp.html" target="_top" xlink:title=" ">
<polygon fill="none" stroke="black" points="2010,-6 2010,-25 2171,-25 2171,-6 2010,-6"/>
<text text-anchor="middle" x="2090.5" y="-13" font-family="Helvetica,sans-Serif" font-size="10.00">test/test_shutdownServer.cpp</text>
</a>
</g>
</g>
<!-- Node2&#45;&gt;Node15 -->
<g id="edge14" class="edge">
<title>Node2&#45;&gt;Node15</title>
<path fill="none" stroke="midnightblue" d="M1033.72,-70.41C1039.3,-69.05 1045.02,-67.84 1050.5,-67 1468.12,-2.83 1580.04,-72.68 2000.5,-31 2014.83,-29.58 2030.35,-27.34 2044.39,-25.04"/>
<polygon fill="midnightblue" stroke="midnightblue" points="1032.71,-67.06 1023.93,-72.99 1034.49,-73.83 1032.71,-67.06"/>
</g>
</g>
</svg>
