<?xml version="1.0" encoding="UTF-8" standalone="no"?>
<!DOCTYPE svg PUBLIC "-//W3C//DTD SVG 1.1//EN"
 "http://www.w3.org/Graphics/SVG/1.1/DTD/svg11.dtd">
<!-- Generated by graphviz version 2.43.0 (0)
 -->
<!-- Title: inc/RequestParser.hpp Pages: 1 -->
<svg width="1016pt" height="263pt"
 viewBox="0.00 0.00 1016.00 263.00" xmlns="http://www.w3.org/2000/svg" xmlns:xlink="http://www.w3.org/1999/xlink">
<g id="graph0" class="graph" transform="scale(1 1) rotate(0) translate(4 259)">
<title>inc/RequestParser.hpp</title>
<!-- Node1 -->
<g id="node1" class="node">
<title>Node1</title>
<g id="a_node1"><a xlink:title=" ">
<polygon fill="#bfbfbf" stroke="black" points="434.5,-235.5 434.5,-254.5 558.5,-254.5 558.5,-235.5 434.5,-235.5"/>
<text text-anchor="middle" x="496.5" y="-242.5" font-family="Helvetica,sans-Serif" font-size="10.00">inc/RequestParser.hpp</text>
</a>
</g>
</g>
<!-- Node2 -->
<g id="node2" class="node">
<title>Node2</title>
<g id="a_node2"><a xlink:href="_response_builder_8hpp.html" target="_top" xlink:title=" ">
<polygon fill="none" stroke="black" points="117.5,-118 117.5,-137 253.5,-137 253.5,-118 117.5,-118"/>
<text text-anchor="middle" x="185.5" y="-125" font-family="Helvetica,sans-Serif" font-size="10.00">inc/ResponseBuilder.hpp</text>
</a>
</g>
</g>
<!-- Node1&#45;&gt;Node2 -->
<g id="edge1" class="edge">
<title>Node1&#45;&gt;Node2</title>
<path fill="none" stroke="midnightblue" d="M424.28,-243.19C372.42,-239.79 302.46,-229.22 248.5,-199 221.29,-183.76 199.77,-152.31 190.48,-137.1"/>
<polygon fill="midnightblue" stroke="midnightblue" points="424.21,-246.69 434.4,-243.78 424.62,-239.7 424.21,-246.69"/>
</g>
<!-- Node3 -->
<g id="node3" class="node">
<title>Node3</title>
<g id="a_node3"><a xlink:href="_server_8hpp.html" target="_top" xlink:title=" ">
<polygon fill="none" stroke="black" points="46.5,-56.5 46.5,-75.5 132.5,-75.5 132.5,-56.5 46.5,-56.5"/>
<text text-anchor="middle" x="89.5" y="-63.5" font-family="Helvetica,sans-Serif" font-size="10.00">inc/Server.hpp</text>
</a>
</g>
</g>
<!-- Node1&#45;&gt;Node3 -->
<g id="edge6" class="edge">
<title>Node1&#45;&gt;Node3</title>
<path fill="none" stroke="midnightblue" d="M424.13,-238.22C367.62,-232.28 287.69,-220.72 220.5,-199 167.54,-181.88 143.32,-186.41 108.5,-143 92.33,-122.84 89.7,-90.74 89.41,-75.53"/>
<polygon fill="midnightblue" stroke="midnightblue" points="424.1,-241.74 434.4,-239.27 424.81,-234.77 424.1,-241.74"/>
</g>
<!-- Node7 -->
<g id="node7" class="node">
<title>Node7</title>
<g id="a_node7"><a xlink:href="_target_resource_handler_8hpp.html" target="_top" xlink:title=" ">
<polygon fill="none" stroke="black" points="257,-179.5 257,-198.5 424,-198.5 424,-179.5 257,-179.5"/>
<text text-anchor="middle" x="340.5" y="-186.5" font-family="Helvetica,sans-Serif" font-size="10.00">inc/TargetResourceHandler.hpp</text>
</a>
</g>
</g>
<!-- Node1&#45;&gt;Node7 -->
<g id="edge7" class="edge">
<title>Node1&#45;&gt;Node7</title>
<path fill="none" stroke="midnightblue" d="M462.33,-232.17C432.96,-222 391.3,-207.59 365.1,-198.52"/>
<polygon fill="midnightblue" stroke="midnightblue" points="461.19,-235.48 471.78,-235.44 463.48,-228.86 461.19,-235.48"/>
</g>
<!-- Node9 -->
<g id="node9" class="node">
<title>Node9</title>
<g id="a_node9"><a xlink:href="test___target_resource_handler_8cpp.html" target="_top" xlink:title=" ">
<polygon fill="none" stroke="black" points="457,-112.5 457,-142.5 594,-142.5 594,-112.5 457,-112.5"/>
<text text-anchor="start" x="465" y="-130.5" font-family="Helvetica,sans-Serif" font-size="10.00">test/test_TargetResource</text>
<text text-anchor="middle" x="525.5" y="-119.5" font-family="Helvetica,sans-Serif" font-size="10.00">Handler.cpp</text>
</a>
</g>
</g>
<!-- Node1&#45;&gt;Node9 -->
<g id="edge12" class="edge">
<title>Node1&#45;&gt;Node9</title>
<path fill="none" stroke="midnightblue" d="M482.77,-227.35C473.62,-214.12 464.46,-195.22 471.5,-179 477.99,-164.05 491.33,-151.5 503.13,-142.65"/>
<polygon fill="midnightblue" stroke="midnightblue" points="480.1,-229.61 488.91,-235.49 485.69,-225.4 480.1,-229.61"/>
</g>
<!-- Node10 -->
<g id="node10" class="node">
<title>Node10</title>
<g id="a_node10"><a xlink:href="_request_parser_8cpp.html" target="_top" xlink:title=" ">
<polygon fill="none" stroke="black" points="480,-179.5 480,-198.5 603,-198.5 603,-179.5 480,-179.5"/>
<text text-anchor="middle" x="541.5" y="-186.5" font-family="Helvetica,sans-Serif" font-size="10.00">src/RequestParser.cpp</text>
</a>
</g>
</g>
<!-- Node1&#45;&gt;Node10 -->
<g id="edge11" class="edge">
<title>Node1&#45;&gt;Node10</title>
<path fill="none" stroke="midnightblue" d="M510.55,-227.14C518.39,-217.74 527.83,-206.4 534.21,-198.75"/>
<polygon fill="midnightblue" stroke="midnightblue" points="507.64,-225.16 503.93,-235.08 513.02,-229.64 507.64,-225.16"/>
</g>
<!-- Node11 -->
<g id="node11" class="node">
<title>Node11</title>
<g id="a_node11"><a xlink:href="test_body_8cpp.html" target="_top" xlink:title=" ">
<polygon fill="none" stroke="black" points="621,-179.5 621,-198.5 722,-198.5 722,-179.5 621,-179.5"/>
<text text-anchor="middle" x="671.5" y="-186.5" font-family="Helvetica,sans-Serif" font-size="10.00">test/testBody.cpp</text>
</a>
</g>
</g>
<!-- Node1&#45;&gt;Node11 -->
<g id="edge13" class="edge">
<title>Node1&#45;&gt;Node11</title>
<path fill="none" stroke="midnightblue" d="M533.97,-232.44C566.97,-222.26 614.26,-207.66 643.9,-198.52"/>
<polygon fill="midnightblue" stroke="midnightblue" points="532.75,-229.15 524.23,-235.44 534.82,-235.84 532.75,-229.15"/>
</g>
<!-- Node12 -->
<g id="node12" class="node">
<title>Node12</title>
<g id="a_node12"><a xlink:href="test_header_8cpp.html" target="_top" xlink:title=" ">
<polygon fill="none" stroke="black" points="740.5,-179.5 740.5,-198.5 852.5,-198.5 852.5,-179.5 740.5,-179.5"/>
<text text-anchor="middle" x="796.5" y="-186.5" font-family="Helvetica,sans-Serif" font-size="10.00">test/testHeader.cpp</text>
</a>
</g>
</g>
<!-- Node1&#45;&gt;Node12 -->
<g id="edge14" class="edge">
<title>Node1&#45;&gt;Node12</title>
<path fill="none" stroke="midnightblue" d="M553.92,-233.66C610.62,-223.46 696.29,-208.04 749.19,-198.52"/>
<polygon fill="midnightblue" stroke="midnightblue" points="553.26,-230.23 544.04,-235.44 554.5,-237.12 553.26,-230.23"/>
</g>
<!-- Node13 -->
<g id="node13" class="node">
<title>Node13</title>
<g id="a_node13"><a xlink:href="test_request_line_8cpp.html" target="_top" xlink:title=" ">
<polygon fill="none" stroke="black" points="871,-179.5 871,-198.5 1008,-198.5 1008,-179.5 871,-179.5"/>
<text text-anchor="middle" x="939.5" y="-186.5" font-family="Helvetica,sans-Serif" font-size="10.00">test/testRequestLine.cpp</text>
</a>
</g>
</g>
<!-- Node1&#45;&gt;Node13 -->
<g id="edge15" class="edge">
<title>Node1&#45;&gt;Node13</title>
<path fill="none" stroke="midnightblue" d="M568.74,-235.19C652.33,-225.01 788.96,-208.35 870.95,-198.36"/>
<polygon fill="midnightblue" stroke="midnightblue" points="568.07,-231.75 558.56,-236.43 568.91,-238.7 568.07,-231.75"/>
</g>
<!-- Node2&#45;&gt;Node3 -->
<g id="edge2" class="edge">
<title>Node2&#45;&gt;Node3</title>
<path fill="none" stroke="midnightblue" d="M163.05,-112.59C144.53,-101.1 118.83,-85.18 103.23,-75.51"/>
<polygon fill="midnightblue" stroke="midnightblue" points="161.4,-115.68 171.75,-117.98 165.09,-109.73 161.4,-115.68"/>
</g>
<!-- Node6 -->
<g id="node6" class="node">
<title>Node6</title>
<g id="a_node6"><a xlink:href="_response_builder_8cpp.html" target="_top" xlink:title=" ">
<polygon fill="none" stroke="black" points="151,-56.5 151,-75.5 286,-75.5 286,-56.5 151,-56.5"/>
<text text-anchor="middle" x="218.5" y="-63.5" font-family="Helvetica,sans-Serif" font-size="10.00">src/ResponseBuilder.cpp</text>
</a>
</g>
</g>
<!-- Node2&#45;&gt;Node6 -->
<g id="edge5" class="edge">
<title>Node2&#45;&gt;Node6</title>
<path fill="none" stroke="midnightblue" d="M195.11,-109.17C201.25,-98.11 208.93,-84.25 213.78,-75.51"/>
<polygon fill="midnightblue" stroke="midnightblue" points="192.02,-107.53 190.23,-117.98 198.14,-110.93 192.02,-107.53"/>
</g>
<!-- Node4 -->
<g id="node4" class="node">
<title>Node4</title>
<g id="a_node4"><a xlink:href="main_8cpp.html" target="_top" xlink:title=" ">
<polygon fill="none" stroke="black" points="0,-0.5 0,-19.5 79,-19.5 79,-0.5 0,-0.5"/>
<text text-anchor="middle" x="39.5" y="-7.5" font-family="Helvetica,sans-Serif" font-size="10.00">src/main.cpp</text>
</a>
</g>
</g>
<!-- Node3&#45;&gt;Node4 -->
<g id="edge3" class="edge">
<title>Node3&#45;&gt;Node4</title>
<path fill="none" stroke="midnightblue" d="M74.42,-48.72C65.61,-39.2 54.83,-27.56 47.6,-19.75"/>
<polygon fill="midnightblue" stroke="midnightblue" points="71.88,-51.12 81.24,-56.08 77.02,-46.37 71.88,-51.12"/>
</g>
<!-- Node5 -->
<g id="node5" class="node">
<title>Node5</title>
<g id="a_node5"><a xlink:href="_server_8cpp.html" target="_top" xlink:title=" ">
<polygon fill="none" stroke="black" points="97,-0.5 97,-19.5 182,-19.5 182,-0.5 97,-0.5"/>
<text text-anchor="middle" x="139.5" y="-7.5" font-family="Helvetica,sans-Serif" font-size="10.00">src/Server.cpp</text>
</a>
</g>
</g>
<!-- Node3&#45;&gt;Node5 -->
<g id="edge4" class="edge">
<title>Node3&#45;&gt;Node5</title>
<path fill="none" stroke="midnightblue" d="M104.58,-48.72C113.39,-39.2 124.17,-27.56 131.4,-19.75"/>
<polygon fill="midnightblue" stroke="midnightblue" points="101.98,-46.37 97.76,-56.08 107.12,-51.12 101.98,-46.37"/>
</g>
<!-- Node7&#45;&gt;Node2 -->
<g id="edge8" class="edge">
<title>Node7&#45;&gt;Node2</title>
<path fill="none" stroke="midnightblue" d="M308.67,-175.78C278.55,-164.22 234.12,-147.16 207.67,-137.01"/>
<polygon fill="midnightblue" stroke="midnightblue" points="307.7,-179.16 318.29,-179.48 310.21,-172.62 307.7,-179.16"/>
</g>
<!-- Node8 -->
<g id="node8" class="node">
<title>Node8</title>
<g id="a_node8"><a xlink:href="_target_resource_handler_8cpp.html" target="_top" xlink:title=" ">
<polygon fill="none" stroke="black" points="272,-118 272,-137 439,-137 439,-118 272,-118"/>
<text text-anchor="middle" x="355.5" y="-125" font-family="Helvetica,sans-Serif" font-size="10.00">src/TargetResourceHandler.cpp</text>
</a>
</g>
</g>
<!-- Node7&#45;&gt;Node8 -->
<g id="edge9" class="edge">
<title>Node7&#45;&gt;Node8</title>
<path fill="none" stroke="midnightblue" d="M345.12,-169.66C347.87,-158.77 351.22,-145.49 353.35,-137.01"/>
<polygon fill="midnightblue" stroke="midnightblue" points="341.7,-168.92 342.65,-179.48 348.49,-170.63 341.7,-168.92"/>
</g>
<!-- Node7&#45;&gt;Node9 -->
<g id="edge10" class="edge">
<title>Node7&#45;&gt;Node9</title>
<path fill="none" stroke="midnightblue" d="M376.7,-176.36C406.85,-166.66 449.86,-152.83 481.9,-142.52"/>
<polygon fill="midnightblue" stroke="midnightblue" points="375.45,-173.08 367.01,-179.48 377.6,-179.75 375.45,-173.08"/>
</g>
</g>
</svg>
