<?xml version="1.0" encoding="UTF-8" standalone="no"?>
<!DOCTYPE svg PUBLIC "-//W3C//DTD SVG 1.1//EN"
 "http://www.w3.org/Graphics/SVG/1.1/DTD/svg11.dtd">
<!-- Generated by graphviz version 2.43.0 (0)
 -->
<!-- Title: inc/RequestParser.hpp Pages: 1 -->
<svg width="3077pt" height="225pt"
 viewBox="0.00 0.00 3076.50 225.00" xmlns="http://www.w3.org/2000/svg" xmlns:xlink="http://www.w3.org/1999/xlink">
<g id="graph0" class="graph" transform="scale(1 1) rotate(0) translate(4 221)">
<title>inc/RequestParser.hpp</title>
<!-- Node1 -->
<g id="Node000001" class="node">
<title>Node1</title>
<g id="a_Node000001"><a xlink:title=" ">
<polygon fill="#999999" stroke="#666666" points="1840.5,-217 1716.5,-217 1716.5,-198 1840.5,-198 1840.5,-217"/>
<text text-anchor="middle" x="1778.5" y="-205" font-family="Helvetica,sans-Serif" font-size="10.00">inc/RequestParser.hpp</text>
</a>
</g>
</g>
<!-- Node2 -->
<g id="Node000002" class="node">
<title>Node2</title>
<g id="a_Node000002"><a xlink:href="_server_8hpp.html" target="_top" xlink:title=" ">
<polygon fill="white" stroke="#666666" points="1541.5,-156.5 1455.5,-156.5 1455.5,-137.5 1541.5,-137.5 1541.5,-156.5"/>
<text text-anchor="middle" x="1498.5" y="-144.5" font-family="Helvetica,sans-Serif" font-size="10.00">inc/Server.hpp</text>
</a>
</g>
</g>
<!-- Node1&#45;&gt;Node2 -->
<g id="edge1_Node000001_Node000002" class="edge">
<title>Node1&#45;&gt;Node2</title>
<g id="a_edge1_Node000001_Node000002"><a xlink:title=" ">
<path fill="none" stroke="#63b8ff" d="M1719.96,-196.1C1673.99,-187.67 1608.45,-175.09 1551.5,-162 1544.36,-160.36 1536.72,-158.44 1529.52,-156.55"/>
<polygon fill="#63b8ff" stroke="#63b8ff" points="1719.57,-199.59 1730.04,-197.94 1720.83,-192.7 1719.57,-199.59"/>
</a>
</g>
</g>
<!-- Node23 -->
<g id="Node000023" class="node">
<title>Node23</title>
<g id="a_Node000023"><a xlink:href="_request_parser_8cpp.html" target="_top" xlink:title=" ">
<polygon fill="white" stroke="#666666" points="1683,-156.5 1560,-156.5 1560,-137.5 1683,-137.5 1683,-156.5"/>
<text text-anchor="middle" x="1621.5" y="-144.5" font-family="Helvetica,sans-Serif" font-size="10.00">src/RequestParser.cpp</text>
</a>
</g>
</g>
<!-- Node1&#45;&gt;Node23 -->
<g id="edge23_Node000001_Node000023" class="edge">
<title>Node1&#45;&gt;Node23</title>
<g id="a_edge23_Node000001_Node000023"><a xlink:title=" ">
<path fill="none" stroke="#63b8ff" d="M1745.97,-194.38C1715.62,-183.07 1671.11,-166.49 1644.36,-156.52"/>
<polygon fill="#63b8ff" stroke="#63b8ff" points="1745.08,-197.78 1755.67,-197.99 1747.52,-191.22 1745.08,-197.78"/>
</a>
</g>
</g>
<!-- Node24 -->
<g id="Node000024" class="node">
<title>Node24</title>
<g id="a_Node000024"><a xlink:href="test__parse_body_8cpp.html" target="_top" xlink:title=" ">
<polygon fill="white" stroke="#666666" points="1856,-156.5 1701,-156.5 1701,-137.5 1856,-137.5 1856,-156.5"/>
<text text-anchor="middle" x="1778.5" y="-144.5" font-family="Helvetica,sans-Serif" font-size="10.00">test/unit/test_parseBody.cpp</text>
</a>
</g>
</g>
<!-- Node1&#45;&gt;Node24 -->
<g id="edge24_Node000001_Node000024" class="edge">
<title>Node1&#45;&gt;Node24</title>
<g id="a_edge24_Node000001_Node000024"><a xlink:title=" ">
<path fill="none" stroke="#63b8ff" d="M1778.5,-187.66C1778.5,-177.24 1778.5,-164.8 1778.5,-156.67"/>
<polygon fill="#63b8ff" stroke="#63b8ff" points="1775,-187.87 1778.5,-197.87 1782,-187.87 1775,-187.87"/>
</a>
</g>
</g>
<!-- Node25 -->
<g id="Node000025" class="node">
<title>Node25</title>
<g id="a_Node000025"><a xlink:href="test__parse_header___headers_8cpp.html" target="_top" xlink:title=" ">
<polygon fill="white" stroke="#666666" points="2020.5,-162 1874.5,-162 1874.5,-132 2020.5,-132 2020.5,-162"/>
<text text-anchor="start" x="1882.5" y="-150" font-family="Helvetica,sans-Serif" font-size="10.00">test/unit/test_parseHeader</text>
<text text-anchor="middle" x="1947.5" y="-139" font-family="Helvetica,sans-Serif" font-size="10.00">_Headers.cpp</text>
</a>
</g>
</g>
<!-- Node1&#45;&gt;Node25 -->
<g id="edge25_Node000001_Node000025" class="edge">
<title>Node1&#45;&gt;Node25</title>
<g id="a_edge25_Node000001_Node000025"><a xlink:title=" ">
<path fill="none" stroke="#63b8ff" d="M1812.57,-194.71C1839.8,-185.28 1878.05,-172.04 1906.87,-162.06"/>
<polygon fill="#63b8ff" stroke="#63b8ff" points="1811.38,-191.41 1803.07,-197.99 1813.67,-198.03 1811.38,-191.41"/>
</a>
</g>
</g>
<!-- Node26 -->
<g id="Node000026" class="node">
<title>Node26</title>
<g id="a_Node000026"><a xlink:href="test__parse_header___request_line_8cpp.html" target="_top" xlink:title=" ">
<polygon fill="white" stroke="#666666" points="2184.5,-162 2038.5,-162 2038.5,-132 2184.5,-132 2184.5,-162"/>
<text text-anchor="start" x="2046.5" y="-150" font-family="Helvetica,sans-Serif" font-size="10.00">test/unit/test_parseHeader</text>
<text text-anchor="middle" x="2111.5" y="-139" font-family="Helvetica,sans-Serif" font-size="10.00">_RequestLine.cpp</text>
</a>
</g>
</g>
<!-- Node1&#45;&gt;Node26 -->
<g id="edge26_Node000001_Node000026" class="edge">
<title>Node1&#45;&gt;Node26</title>
<g id="a_edge26_Node000001_Node000026"><a xlink:title=" ">
<path fill="none" stroke="#63b8ff" d="M1837.05,-196.21C1893.13,-186.36 1977.94,-171.46 2038.43,-160.84"/>
<polygon fill="#63b8ff" stroke="#63b8ff" points="1836.16,-192.82 1826.92,-197.99 1837.38,-199.71 1836.16,-192.82"/>
</a>
</g>
</g>
<!-- Node3 -->
<g id="Node000003" class="node">
<title>Node3</title>
<g id="a_Node000003"><a xlink:href="_config_file_parser_8hpp.html" target="_top" xlink:title=" ">
<polygon fill="white" stroke="#666666" points="296.5,-90.5 164.5,-90.5 164.5,-71.5 296.5,-71.5 296.5,-90.5"/>
<text text-anchor="middle" x="230.5" y="-78.5" font-family="Helvetica,sans-Serif" font-size="10.00">inc/ConfigFileParser.hpp</text>
</a>
</g>
</g>
<!-- Node2&#45;&gt;Node3 -->
<g id="edge2_Node000002_Node000003" class="edge">
<title>Node2&#45;&gt;Node3</title>
<g id="a_edge2_Node000002_Node000003"><a xlink:title=" ">
<path fill="none" stroke="#63b8ff" d="M1444.99,-145.96C1277.89,-145.38 751.04,-139.91 317.5,-96 304.41,-94.67 290.3,-92.66 277.32,-90.57"/>
<polygon fill="#63b8ff" stroke="#63b8ff" points="1445.46,-149.47 1455.47,-146 1445.48,-142.47 1445.46,-149.47"/>
</a>
</g>
</g>
<!-- Node5 -->
<g id="Node000005" class="node">
<title>Node5</title>
<g id="a_Node000005"><a xlink:href="main_8cpp.html" target="_top" xlink:title=" ">
<polygon fill="white" stroke="#666666" points="379,-24.5 300,-24.5 300,-5.5 379,-5.5 379,-24.5"/>
<text text-anchor="middle" x="339.5" y="-12.5" font-family="Helvetica,sans-Serif" font-size="10.00">src/main.cpp</text>
</a>
</g>
</g>
<!-- Node2&#45;&gt;Node5 -->
<g id="edge7_Node000002_Node000005" class="edge">
<title>Node2&#45;&gt;Node5</title>
<g id="a_edge7_Node000002_Node000005"><a xlink:title=" ">
<path fill="none" stroke="#63b8ff" d="M1445.28,-145.55C1224.81,-143.43 392.61,-132.99 351.5,-96 331.25,-77.78 334.8,-41.23 337.71,-24.6"/>
<polygon fill="#63b8ff" stroke="#63b8ff" points="1445.28,-149.05 1455.31,-145.64 1445.35,-142.05 1445.28,-149.05"/>
</a>
</g>
</g>
<!-- Node7 -->
<g id="Node000007" class="node">
<title>Node7</title>
<g id="a_Node000007"><a xlink:href="_server_8cpp.html" target="_top" xlink:title=" ">
<polygon fill="white" stroke="#666666" points="445,-90.5 360,-90.5 360,-71.5 445,-71.5 445,-90.5"/>
<text text-anchor="middle" x="402.5" y="-78.5" font-family="Helvetica,sans-Serif" font-size="10.00">src/Server.cpp</text>
</a>
</g>
</g>
<!-- Node2&#45;&gt;Node7 -->
<g id="edge6_Node000002_Node000007" class="edge">
<title>Node2&#45;&gt;Node7</title>
<g id="a_edge6_Node000002_Node000007"><a xlink:title=" ">
<path fill="none" stroke="#63b8ff" d="M1445.23,-144.96C1260.55,-141.13 648.48,-126.39 454.5,-96 446.37,-94.73 437.69,-92.67 429.79,-90.53"/>
<polygon fill="#63b8ff" stroke="#63b8ff" points="1445.17,-148.46 1455.24,-145.17 1445.32,-141.46 1445.17,-148.46"/>
</a>
</g>
</g>
<!-- Node8 -->
<g id="Node000008" class="node">
<title>Node8</title>
<g id="a_Node000008"><a xlink:href="test__accept_connections_8cpp.html" target="_top" xlink:title=" ">
<polygon fill="white" stroke="#666666" points="660,-90.5 463,-90.5 463,-71.5 660,-71.5 660,-90.5"/>
<text text-anchor="middle" x="561.5" y="-78.5" font-family="Helvetica,sans-Serif" font-size="10.00">test/unit/test_acceptConnections.cpp</text>
</a>
</g>
</g>
<!-- Node2&#45;&gt;Node8 -->
<g id="edge8_Node000002_Node000008" class="edge">
<title>Node2&#45;&gt;Node8</title>
<g id="a_edge8_Node000002_Node000008"><a xlink:title=" ">
<path fill="none" stroke="#63b8ff" d="M1445.04,-144.05C1313.12,-138.96 961.59,-123.71 669.5,-96 653.88,-94.52 637.03,-92.53 621.4,-90.51"/>
<polygon fill="#63b8ff" stroke="#63b8ff" points="1445.14,-147.56 1455.27,-144.44 1445.41,-140.56 1445.14,-147.56"/>
</a>
</g>
</g>
<!-- Node9 -->
<g id="Node000009" class="node">
<title>Node9</title>
<g id="a_Node000009"><a xlink:href="test__check_for_timeout_8cpp.html" target="_top" xlink:title=" ">
<polygon fill="white" stroke="#666666" points="866.5,-90.5 678.5,-90.5 678.5,-71.5 866.5,-71.5 866.5,-90.5"/>
<text text-anchor="middle" x="772.5" y="-78.5" font-family="Helvetica,sans-Serif" font-size="10.00">test/unit/test_checkForTimeout.cpp</text>
</a>
</g>
</g>
<!-- Node2&#45;&gt;Node9 -->
<g id="edge9_Node000002_Node000009" class="edge">
<title>Node2&#45;&gt;Node9</title>
<g id="a_edge9_Node000002_Node000009"><a xlink:title=" ">
<path fill="none" stroke="#63b8ff" d="M1445.17,-142.68C1337.51,-135.76 1086.55,-118.56 876.5,-96 861.92,-94.43 846.22,-92.47 831.56,-90.51"/>
<polygon fill="#63b8ff" stroke="#63b8ff" points="1445.24,-146.19 1455.44,-143.34 1445.69,-139.21 1445.24,-146.19"/>
</a>
</g>
</g>
<!-- Node10 -->
<g id="Node000010" class="node">
<title>Node10</title>
<g id="a_Node000010"><a xlink:href="test__connection_receive_from_c_g_i_8cpp.html" target="_top" xlink:title=" ">
<polygon fill="white" stroke="#666666" points="1022,-96 885,-96 885,-66 1022,-66 1022,-96"/>
<text text-anchor="start" x="893" y="-84" font-family="Helvetica,sans-Serif" font-size="10.00">test/unit/test_connection</text>
<text text-anchor="middle" x="953.5" y="-73" font-family="Helvetica,sans-Serif" font-size="10.00">ReceiveFromCGI.cpp</text>
</a>
</g>
</g>
<!-- Node2&#45;&gt;Node10 -->
<g id="edge10_Node000002_Node000010" class="edge">
<title>Node2&#45;&gt;Node10</title>
<g id="a_edge10_Node000002_Node000010"><a xlink:title=" ">
<path fill="none" stroke="#63b8ff" d="M1445.09,-141.52C1358.18,-133.96 1180.81,-117.37 1031.5,-96 1028.5,-95.57 1025.45,-95.11 1022.36,-94.63"/>
<polygon fill="#63b8ff" stroke="#63b8ff" points="1444.97,-145.03 1455.24,-142.4 1445.57,-138.05 1444.97,-145.03"/>
</a>
</g>
</g>
<!-- Node11 -->
<g id="Node000011" class="node">
<title>Node11</title>
<g id="a_Node000011"><a xlink:href="test__connection_receive_header_8cpp.html" target="_top" xlink:title=" ">
<polygon fill="white" stroke="#666666" points="1177,-96 1040,-96 1040,-66 1177,-66 1177,-96"/>
<text text-anchor="start" x="1048" y="-84" font-family="Helvetica,sans-Serif" font-size="10.00">test/unit/test_connection</text>
<text text-anchor="middle" x="1108.5" y="-73" font-family="Helvetica,sans-Serif" font-size="10.00">ReceiveHeader.cpp</text>
</a>
</g>
</g>
<!-- Node2&#45;&gt;Node11 -->
<g id="edge11_Node000002_Node000011" class="edge">
<title>Node2&#45;&gt;Node11</title>
<g id="a_edge11_Node000002_Node000011"><a xlink:title=" ">
<path fill="none" stroke="#63b8ff" d="M1445.35,-137.79C1383.21,-128.12 1277.31,-111.42 1186.5,-96 1183.52,-95.49 1180.47,-94.97 1177.39,-94.44"/>
<polygon fill="#63b8ff" stroke="#63b8ff" points="1444.89,-141.26 1455.31,-139.34 1445.96,-134.35 1444.89,-141.26"/>
</a>
</g>
</g>
<!-- Node12 -->
<g id="Node000012" class="node">
<title>Node12</title>
<g id="a_Node000012"><a xlink:href="test__connection_send_response_8cpp.html" target="_top" xlink:title=" ">
<polygon fill="white" stroke="#666666" points="1332,-96 1195,-96 1195,-66 1332,-66 1332,-96"/>
<text text-anchor="start" x="1203" y="-84" font-family="Helvetica,sans-Serif" font-size="10.00">test/unit/test_connection</text>
<text text-anchor="middle" x="1263.5" y="-73" font-family="Helvetica,sans-Serif" font-size="10.00">SendResponse.cpp</text>
</a>
</g>
</g>
<!-- Node2&#45;&gt;Node12 -->
<g id="edge12_Node000002_Node000012" class="edge">
<title>Node2&#45;&gt;Node12</title>
<g id="a_edge12_Node000002_Node000012"><a xlink:title=" ">
<path fill="none" stroke="#63b8ff" d="M1456.97,-134.69C1417.47,-123.93 1357.92,-107.72 1315.33,-96.12"/>
<polygon fill="#63b8ff" stroke="#63b8ff" points="1456.24,-138.12 1466.81,-137.37 1458.08,-131.36 1456.24,-138.12"/>
</a>
</g>
</g>
<!-- Node13 -->
<g id="Node000013" class="node">
<title>Node13</title>
<g id="a_Node000013"><a xlink:href="test__connection_send_to_c_g_i_8cpp.html" target="_top" xlink:title=" ">
<polygon fill="white" stroke="#666666" points="1487,-96 1350,-96 1350,-66 1487,-66 1487,-96"/>
<text text-anchor="start" x="1358" y="-84" font-family="Helvetica,sans-Serif" font-size="10.00">test/unit/test_connection</text>
<text text-anchor="middle" x="1418.5" y="-73" font-family="Helvetica,sans-Serif" font-size="10.00">SendToCGI.cpp</text>
</a>
</g>
</g>
<!-- Node2&#45;&gt;Node13 -->
<g id="edge13_Node000002_Node000013" class="edge">
<title>Node2&#45;&gt;Node13</title>
<g id="a_edge13_Node000002_Node000013"><a xlink:title=" ">
<path fill="none" stroke="#63b8ff" d="M1479.77,-131.02C1466.59,-120.48 1449.07,-106.46 1436.14,-96.12"/>
<polygon fill="#63b8ff" stroke="#63b8ff" points="1477.72,-133.85 1487.71,-137.37 1482.09,-128.39 1477.72,-133.85"/>
</a>
</g>
</g>
<!-- Node14 -->
<g id="Node000014" class="node">
<title>Node14</title>
<g id="a_Node000014"><a xlink:href="test__create_virtual_server_8cpp.html" target="_top" xlink:title=" ">
<polygon fill="white" stroke="#666666" points="1652,-96 1505,-96 1505,-66 1652,-66 1652,-96"/>
<text text-anchor="start" x="1513" y="-84" font-family="Helvetica,sans-Serif" font-size="10.00">test/unit/test_createVirtual</text>
<text text-anchor="middle" x="1578.5" y="-73" font-family="Helvetica,sans-Serif" font-size="10.00">Server.cpp</text>
</a>
</g>
</g>
<!-- Node2&#45;&gt;Node14 -->
<g id="edge14_Node000002_Node000014" class="edge">
<title>Node2&#45;&gt;Node14</title>
<g id="a_edge14_Node000002_Node000014"><a xlink:title=" ">
<path fill="none" stroke="#63b8ff" d="M1517.23,-131.02C1530.41,-120.48 1547.93,-106.46 1560.86,-96.12"/>
<polygon fill="#63b8ff" stroke="#63b8ff" points="1514.91,-128.39 1509.29,-137.37 1519.28,-133.85 1514.91,-128.39"/>
</a>
</g>
</g>
<!-- Node15 -->
<g id="Node000015" class="node">
<title>Node15</title>
<g id="a_Node000015"><a xlink:href="test__handle_complete_request_header_8cpp.html" target="_top" xlink:title=" ">
<polygon fill="white" stroke="#666666" points="1834.5,-96 1670.5,-96 1670.5,-66 1834.5,-66 1834.5,-96"/>
<text text-anchor="start" x="1678.5" y="-84" font-family="Helvetica,sans-Serif" font-size="10.00">test/unit/test_handleComplete</text>
<text text-anchor="middle" x="1752.5" y="-73" font-family="Helvetica,sans-Serif" font-size="10.00">RequestHeader.cpp</text>
</a>
</g>
</g>
<!-- Node2&#45;&gt;Node15 -->
<g id="edge15_Node000002_Node000015" class="edge">
<title>Node2&#45;&gt;Node15</title>
<g id="a_edge15_Node000002_Node000015"><a xlink:title=" ">
<path fill="none" stroke="#63b8ff" d="M1540.34,-134.89C1544.12,-133.9 1547.88,-132.93 1551.5,-132 1599.92,-119.58 1655.01,-105.91 1695.26,-96.01"/>
<polygon fill="#63b8ff" stroke="#63b8ff" points="1539.22,-131.56 1530.43,-137.49 1540.99,-138.34 1539.22,-131.56"/>
</a>
</g>
</g>
<!-- Node16 -->
<g id="Node000016" class="node">
<title>Node16</title>
<g id="a_Node000016"><a xlink:href="test__init_virtual_servers_8cpp.html" target="_top" xlink:title=" ">
<polygon fill="white" stroke="#666666" points="1984.5,-96 1852.5,-96 1852.5,-66 1984.5,-66 1984.5,-96"/>
<text text-anchor="start" x="1860.5" y="-84" font-family="Helvetica,sans-Serif" font-size="10.00">test/unit/test_initVirtual</text>
<text text-anchor="middle" x="1918.5" y="-73" font-family="Helvetica,sans-Serif" font-size="10.00">Servers.cpp</text>
</a>
</g>
</g>
<!-- Node2&#45;&gt;Node16 -->
<g id="edge16_Node000002_Node000016" class="edge">
<title>Node2&#45;&gt;Node16</title>
<g id="a_edge16_Node000002_Node000016"><a xlink:title=" ">
<path fill="none" stroke="#63b8ff" d="M1537.9,-134.96C1542.46,-133.87 1547.07,-132.85 1551.5,-132 1679.9,-107.25 1714.28,-116.01 1843.5,-96 1846.38,-95.55 1849.32,-95.08 1852.28,-94.59"/>
<polygon fill="#63b8ff" stroke="#63b8ff" points="1536.9,-131.61 1528.05,-137.44 1538.6,-138.4 1536.9,-131.61"/>
</a>
</g>
</g>
<!-- Node17 -->
<g id="Node000017" class="node">
<title>Node17</title>
<g id="a_Node000017"><a xlink:href="test__is_duplicate_server_8cpp.html" target="_top" xlink:title=" ">
<polygon fill="white" stroke="#666666" points="2142,-96 2003,-96 2003,-66 2142,-66 2142,-96"/>
<text text-anchor="start" x="2011" y="-84" font-family="Helvetica,sans-Serif" font-size="10.00">test/unit/test_isDuplicate</text>
<text text-anchor="middle" x="2072.5" y="-73" font-family="Helvetica,sans-Serif" font-size="10.00">Server.cpp</text>
</a>
</g>
</g>
<!-- Node2&#45;&gt;Node17 -->
<g id="edge17_Node000002_Node000017" class="edge">
<title>Node2&#45;&gt;Node17</title>
<g id="a_edge17_Node000002_Node000017"><a xlink:title=" ">
<path fill="none" stroke="#63b8ff" d="M1536.98,-134.99C1541.84,-133.85 1546.77,-132.81 1551.5,-132 1745.76,-98.7 1798.03,-121.22 1993.5,-96 1996.54,-95.61 1999.64,-95.18 2002.77,-94.72"/>
<polygon fill="#63b8ff" stroke="#63b8ff" points="1536.03,-131.62 1527.18,-137.43 1537.73,-138.41 1536.03,-131.62"/>
</a>
</g>
</g>
<!-- Node18 -->
<g id="Node000018" class="node">
<title>Node18</title>
<g id="a_Node000018"><a xlink:href="test__register_c_g_i_file_descriptor_8cpp.html" target="_top" xlink:title=" ">
<polygon fill="white" stroke="#666666" points="2316.5,-96 2160.5,-96 2160.5,-66 2316.5,-66 2316.5,-96"/>
<text text-anchor="start" x="2168.5" y="-84" font-family="Helvetica,sans-Serif" font-size="10.00">test/unit/test_registerCGIFile</text>
<text text-anchor="middle" x="2238.5" y="-73" font-family="Helvetica,sans-Serif" font-size="10.00">Descriptor.cpp</text>
</a>
</g>
</g>
<!-- Node2&#45;&gt;Node18 -->
<g id="edge18_Node000002_Node000018" class="edge">
<title>Node2&#45;&gt;Node18</title>
<g id="a_edge18_Node000002_Node000018"><a xlink:title=" ">
<path fill="none" stroke="#63b8ff" d="M1536.62,-134.97C1541.59,-133.81 1546.65,-132.78 1551.5,-132 1815.27,-89.68 1885.96,-125.26 2151.5,-96 2154.39,-95.68 2157.33,-95.33 2160.3,-94.96"/>
<polygon fill="#63b8ff" stroke="#63b8ff" points="1535.46,-131.65 1526.61,-137.47 1537.16,-138.44 1535.46,-131.65"/>
</a>
</g>
</g>
<!-- Node19 -->
<g id="Node000019" class="node">
<title>Node19</title>
<g id="a_Node000019"><a xlink:href="test__register_connection_8cpp.html" target="_top" xlink:title=" ">
<polygon fill="white" stroke="#666666" points="2532,-90.5 2335,-90.5 2335,-71.5 2532,-71.5 2532,-90.5"/>
<text text-anchor="middle" x="2433.5" y="-78.5" font-family="Helvetica,sans-Serif" font-size="10.00">test/unit/test_registerConnection.cpp</text>
</a>
</g>
</g>
<!-- Node2&#45;&gt;Node19 -->
<g id="edge19_Node000002_Node000019" class="edge">
<title>Node2&#45;&gt;Node19</title>
<g id="a_edge19_Node000002_Node000019"><a xlink:title=" ">
<path fill="none" stroke="#63b8ff" d="M1536.04,-135.04C1541.2,-133.84 1546.46,-132.77 1551.5,-132 1891.88,-79.73 1982.45,-126.16 2325.5,-96 2341.51,-94.59 2358.79,-92.58 2374.74,-90.51"/>
<polygon fill="#63b8ff" stroke="#63b8ff" points="1535.17,-131.65 1526.32,-137.47 1536.87,-138.44 1535.17,-131.65"/>
</a>
</g>
</g>
<!-- Node20 -->
<g id="Node000020" class="node">
<title>Node20</title>
<g id="a_Node000020"><a xlink:href="test__register_virtual_server_8cpp.html" target="_top" xlink:title=" ">
<polygon fill="white" stroke="#666666" points="2704.5,-96 2550.5,-96 2550.5,-66 2704.5,-66 2704.5,-96"/>
<text text-anchor="start" x="2558.5" y="-84" font-family="Helvetica,sans-Serif" font-size="10.00">test/unit/test_registerVirtual</text>
<text text-anchor="middle" x="2627.5" y="-73" font-family="Helvetica,sans-Serif" font-size="10.00">Server.cpp</text>
</a>
</g>
</g>
<!-- Node2&#45;&gt;Node20 -->
<g id="edge20_Node000002_Node000020" class="edge">
<title>Node2&#45;&gt;Node20</title>
<g id="a_edge20_Node000002_Node000020"><a xlink:title=" ">
<path fill="none" stroke="#63b8ff" d="M1535.86,-135.03C1541.07,-133.82 1546.39,-132.76 1551.5,-132 1987.02,-67.38 2103.36,-139.46 2541.5,-96 2544.36,-95.72 2547.27,-95.4 2550.2,-95.05"/>
<polygon fill="#63b8ff" stroke="#63b8ff" points="1534.89,-131.66 1526.04,-137.49 1536.59,-138.45 1534.89,-131.66"/>
</a>
</g>
</g>
<!-- Node21 -->
<g id="Node000021" class="node">
<title>Node21</title>
<g id="a_Node000021"><a xlink:href="test__select_server_config_8cpp.html" target="_top" xlink:title=" ">
<polygon fill="white" stroke="#666666" points="2868,-96 2723,-96 2723,-66 2868,-66 2868,-96"/>
<text text-anchor="start" x="2731" y="-84" font-family="Helvetica,sans-Serif" font-size="10.00">test/unit/test_selectServer</text>
<text text-anchor="middle" x="2795.5" y="-73" font-family="Helvetica,sans-Serif" font-size="10.00">Config.cpp</text>
</a>
</g>
</g>
<!-- Node2&#45;&gt;Node21 -->
<g id="edge21_Node000002_Node000021" class="edge">
<title>Node2&#45;&gt;Node21</title>
<g id="a_edge21_Node000002_Node000021"><a xlink:title=" ">
<path fill="none" stroke="#63b8ff" d="M1535.85,-135C1541.07,-133.8 1546.39,-132.74 1551.5,-132 2062.8,-57.54 2199.39,-147.6 2713.5,-96 2716.52,-95.7 2719.59,-95.35 2722.69,-94.97"/>
<polygon fill="#63b8ff" stroke="#63b8ff" points="1534.89,-131.64 1526.04,-137.46 1536.59,-138.43 1534.89,-131.64"/>
</a>
</g>
</g>
<!-- Node22 -->
<g id="Node000022" class="node">
<title>Node22</title>
<g id="a_Node000022"><a xlink:href="test__shutdown_server_8cpp.html" target="_top" xlink:title=" ">
<polygon fill="white" stroke="#666666" points="3068.5,-90.5 2886.5,-90.5 2886.5,-71.5 3068.5,-71.5 3068.5,-90.5"/>
<text text-anchor="middle" x="2977.5" y="-78.5" font-family="Helvetica,sans-Serif" font-size="10.00">test/unit/test_shutdownServer.cpp</text>
</a>
</g>
</g>
<!-- Node2&#45;&gt;Node22 -->
<g id="edge22_Node000002_Node000022" class="edge">
<title>Node2&#45;&gt;Node22</title>
<g id="a_edge22_Node000002_Node000022"><a xlink:title=" ">
<path fill="none" stroke="#63b8ff" d="M1535.85,-134.99C1541.07,-133.79 1546.39,-132.73 1551.5,-132 2135.06,-48.16 2289.98,-144.95 2877.5,-96 2892.87,-94.72 2909.49,-92.66 2924.69,-90.52"/>
<polygon fill="#63b8ff" stroke="#63b8ff" points="1534.89,-131.62 1526.03,-137.44 1536.58,-138.41 1534.89,-131.62"/>
</a>
</g>
</g>
<!-- Node4 -->
<g id="Node000004" class="node">
<title>Node4</title>
<g id="a_Node000004"><a xlink:href="_config_file_parser_8cpp.html" target="_top" xlink:title=" ">
<polygon fill="white" stroke="#666666" points="131,-24.5 0,-24.5 0,-5.5 131,-5.5 131,-24.5"/>
<text text-anchor="middle" x="65.5" y="-12.5" font-family="Helvetica,sans-Serif" font-size="10.00">src/ConfigFileParser.cpp</text>
</a>
</g>
</g>
<!-- Node3&#45;&gt;Node4 -->
<g id="edge3_Node000003_Node000004" class="edge">
<title>Node3&#45;&gt;Node4</title>
<g id="a_edge3_Node000003_Node000004"><a xlink:title=" ">
<path fill="none" stroke="#63b8ff" d="M198.73,-67.68C166.12,-55.03 116.24,-35.68 87.66,-24.6"/>
<polygon fill="#63b8ff" stroke="#63b8ff" points="197.66,-71.02 208.25,-71.37 200.19,-64.49 197.66,-71.02"/>
</a>
</g>
</g>
<!-- Node3&#45;&gt;Node5 -->
<g id="edge4_Node000003_Node000005" class="edge">
<title>Node3&#45;&gt;Node5</title>
<g id="a_edge4_Node000003_Node000005"><a xlink:title=" ">
<path fill="none" stroke="#63b8ff" d="M254.02,-66.19C275.47,-53.59 306.51,-35.37 324.68,-24.7"/>
<polygon fill="#63b8ff" stroke="#63b8ff" points="252.05,-63.29 245.2,-71.37 255.6,-69.32 252.05,-63.29"/>
</a>
</g>
</g>
<!-- Node6 -->
<g id="Node000006" class="node">
<title>Node6</title>
<g id="a_Node000006"><a xlink:href="test___config_file_parser_8cpp.html" target="_top" xlink:title=" ">
<polygon fill="white" stroke="#666666" points="281.5,-30 149.5,-30 149.5,0 281.5,0 281.5,-30"/>
<text text-anchor="start" x="157.5" y="-18" font-family="Helvetica,sans-Serif" font-size="10.00">test/unit/test_ConfigFile</text>
<text text-anchor="middle" x="215.5" y="-7" font-family="Helvetica,sans-Serif" font-size="10.00">Parser.cpp</text>
</a>
</g>
</g>
<!-- Node3&#45;&gt;Node6 -->
<g id="edge5_Node000003_Node000006" class="edge">
<title>Node3&#45;&gt;Node6</title>
<g id="a_edge5_Node000003_Node000006"><a xlink:title=" ">
<path fill="none" stroke="#63b8ff" d="M226.13,-61.35C223.81,-51.47 221.01,-39.51 218.87,-30.36"/>
<polygon fill="#63b8ff" stroke="#63b8ff" points="222.79,-62.43 228.48,-71.37 229.6,-60.83 222.79,-62.43"/>
</a>
</g>
</g>
</g>
</svg>
