<?xml version="1.0" encoding="UTF-8" standalone="no"?>
<!DOCTYPE svg PUBLIC "-//W3C//DTD SVG 1.1//EN"
 "http://www.w3.org/Graphics/SVG/1.1/DTD/svg11.dtd">
<!-- Generated by graphviz version 2.43.0 (0)
 -->
<!-- Title: inc/RequestParser.hpp Pages: 1 -->
<svg width="1217pt" height="308pt"
 viewBox="0.00 0.00 1216.91 308.00" xmlns="http://www.w3.org/2000/svg" xmlns:xlink="http://www.w3.org/1999/xlink">
<g id="graph0" class="graph" transform="scale(1 1) rotate(0) translate(4 304)">
<title>inc/RequestParser.hpp</title>
<!-- Node1 -->
<g id="node1" class="node">
<title>Node1</title>
<g id="a_node1"><a xlink:title=" ">
<polygon fill="#bfbfbf" stroke="black" points="706.41,-280.5 706.41,-299.5 830.41,-299.5 830.41,-280.5 706.41,-280.5"/>
<text text-anchor="middle" x="768.41" y="-287.5" font-family="Helvetica,sans-Serif" font-size="10.00">inc/RequestParser.hpp</text>
</a>
</g>
</g>
<!-- Node2 -->
<g id="node2" class="node">
<title>Node2</title>
<g id="a_node2"><a xlink:href="_config_file_8hpp.html" target="_top" xlink:title=" ">
<polygon fill="none" stroke="black" points="251.41,-168.5 251.41,-187.5 337.41,-187.5 337.41,-168.5 251.41,-168.5"/>
<text text-anchor="middle" x="294.41" y="-175.5" font-family="Helvetica,sans-Serif" font-size="10.00">ConfigFile.hpp</text>
</a>
</g>
</g>
<!-- Node1&#45;&gt;Node2 -->
<g id="edge1" class="edge">
<title>Node1&#45;&gt;Node2</title>
<path fill="none" stroke="midnightblue" d="M731.61,-280.46C646.29,-260.66 435.13,-211.66 340.99,-189.81"/>
<polygon fill="midnightblue" stroke="midnightblue" points="341.71,-186.39 331.18,-187.53 340.13,-193.2 341.71,-186.39"/>
</g>
<!-- Node4 -->
<g id="node4" class="node">
<title>Node4</title>
<g id="a_node4"><a xlink:href="_status_code_8hpp.html" target="_top" xlink:title=" ">
<polygon fill="none" stroke="black" points="179.91,-112.5 179.91,-131.5 272.91,-131.5 272.91,-112.5 179.91,-112.5"/>
<text text-anchor="middle" x="226.41" y="-119.5" font-family="Helvetica,sans-Serif" font-size="10.00">StatusCode.hpp</text>
</a>
</g>
</g>
<!-- Node1&#45;&gt;Node4 -->
<g id="edge34" class="edge">
<title>Node1&#45;&gt;Node4</title>
<path fill="none" stroke="midnightblue" d="M705.96,-285.5C581.15,-277.2 307.29,-251.99 242.41,-188 230.26,-176.02 226.78,-156.42 226.03,-141.86"/>
<polygon fill="midnightblue" stroke="midnightblue" points="229.52,-141.47 225.89,-131.52 222.52,-141.56 229.52,-141.47"/>
</g>
<!-- Node5 -->
<g id="node5" class="node">
<title>Node5</title>
<g id="a_node5"><a xlink:title=" ">
<polygon fill="none" stroke="#bfbfbf" points="251.41,-56.5 251.41,-75.5 311.41,-75.5 311.41,-56.5 251.41,-56.5"/>
<text text-anchor="middle" x="281.41" y="-63.5" font-family="Helvetica,sans-Serif" font-size="10.00">iostream</text>
</a>
</g>
</g>
<!-- Node1&#45;&gt;Node5 -->
<g id="edge45" class="edge">
<title>Node1&#45;&gt;Node5</title>
<path fill="none" stroke="midnightblue" d="M706.29,-287.94C566.5,-285.03 230.93,-274.95 122.41,-244 71.17,-229.39 44.72,-233.14 16.41,-188 -1.55,-159.38 -7.41,-137.8 14.41,-112 42.93,-78.27 173.48,-69.81 240.88,-67.7"/>
<polygon fill="midnightblue" stroke="midnightblue" points="241.23,-71.19 251.13,-67.41 241.03,-64.19 241.23,-71.19"/>
</g>
<!-- Node7 -->
<g id="node7" class="node">
<title>Node7</title>
<g id="a_node7"><a xlink:title=" ">
<polygon fill="none" stroke="#bfbfbf" points="123.41,-112.5 123.41,-131.5 161.41,-131.5 161.41,-112.5 123.41,-112.5"/>
<text text-anchor="middle" x="142.41" y="-119.5" font-family="Helvetica,sans-Serif" font-size="10.00">map</text>
</a>
</g>
</g>
<!-- Node1&#45;&gt;Node7 -->
<g id="edge46" class="edge">
<title>Node1&#45;&gt;Node7</title>
<path fill="none" stroke="midnightblue" d="M706.31,-286.74C598.16,-282.17 379.96,-269.99 308.41,-244 245.25,-221.07 185.15,-166.35 157.81,-139.06"/>
<polygon fill="midnightblue" stroke="midnightblue" points="160.21,-136.51 150.7,-131.83 155.22,-141.41 160.21,-136.51"/>
</g>
<!-- Node9 -->
<g id="node9" class="node">
<title>Node9</title>
<g id="a_node9"><a xlink:title=" ">
<polygon fill="none" stroke="#bfbfbf" points="719.91,-112.5 719.91,-131.5 766.91,-131.5 766.91,-112.5 719.91,-112.5"/>
<text text-anchor="middle" x="743.41" y="-119.5" font-family="Helvetica,sans-Serif" font-size="10.00">vector</text>
</a>
</g>
</g>
<!-- Node1&#45;&gt;Node9 -->
<g id="edge50" class="edge">
<title>Node1&#45;&gt;Node9</title>
<path fill="none" stroke="midnightblue" d="M767.06,-280.08C763.13,-253.95 751.57,-177.21 746.2,-141.58"/>
<polygon fill="midnightblue" stroke="midnightblue" points="749.65,-140.94 744.7,-131.57 742.72,-141.98 749.65,-140.94"/>
</g>
<!-- Node10 -->
<g id="node10" class="node">
<title>Node10</title>
<g id="a_node10"><a xlink:href="_h_t_t_p_request_8hpp.html" target="_top" xlink:title=" ">
<polygon fill="none" stroke="black" points="25.91,-168.5 25.91,-187.5 128.91,-187.5 128.91,-168.5 25.91,-168.5"/>
<text text-anchor="middle" x="77.41" y="-175.5" font-family="Helvetica,sans-Serif" font-size="10.00">HTTPRequest.hpp</text>
</a>
</g>
</g>
<!-- Node1&#45;&gt;Node10 -->
<g id="edge10" class="edge">
<title>Node1&#45;&gt;Node10</title>
<path fill="none" stroke="midnightblue" d="M706.26,-288.95C571.93,-288.12 258.69,-282.02 160.41,-244 133.08,-233.43 107.47,-210.66 92.12,-195.08"/>
<polygon fill="midnightblue" stroke="midnightblue" points="94.51,-192.51 85.07,-187.69 89.44,-197.35 94.51,-192.51"/>
</g>
<!-- Node11 -->
<g id="node11" class="node">
<title>Node11</title>
<g id="a_node11"><a xlink:href="_log_8hpp.html" target="_top" xlink:title=" ">
<polygon fill="none" stroke="black" points="602.91,-224.5 602.91,-243.5 657.91,-243.5 657.91,-224.5 602.91,-224.5"/>
<text text-anchor="middle" x="630.41" y="-231.5" font-family="Helvetica,sans-Serif" font-size="10.00">Log.hpp</text>
</a>
</g>
</g>
<!-- Node1&#45;&gt;Node11 -->
<g id="edge16" class="edge">
<title>Node1&#45;&gt;Node11</title>
<path fill="none" stroke="midnightblue" d="M746.54,-280.44C723.63,-271.48 687.43,-257.31 661.54,-247.18"/>
<polygon fill="midnightblue" stroke="midnightblue" points="662.76,-243.9 652.17,-243.52 660.21,-250.42 662.76,-243.9"/>
</g>
<!-- Node16 -->
<g id="node16" class="node">
<title>Node16</title>
<g id="a_node16"><a xlink:title=" ">
<polygon fill="none" stroke="#bfbfbf" points="843.41,-0.5 843.41,-19.5 899.41,-19.5 899.41,-0.5 843.41,-0.5"/>
<text text-anchor="middle" x="871.41" y="-7.5" font-family="Helvetica,sans-Serif" font-size="10.00">sstream</text>
</a>
</g>
</g>
<!-- Node1&#45;&gt;Node16 -->
<g id="edge47" class="edge">
<title>Node1&#45;&gt;Node16</title>
<path fill="none" stroke="midnightblue" d="M804.35,-280.44C828.61,-273.43 860.45,-261.74 884.41,-244 935.28,-206.32 951.71,-191.83 972.41,-132 988.46,-85.59 932.37,-44.79 897.4,-24.53"/>
<polygon fill="midnightblue" stroke="midnightblue" points="899.03,-21.44 888.59,-19.61 895.61,-27.55 899.03,-21.44"/>
</g>
<!-- Node19 -->
<g id="node19" class="node">
<title>Node19</title>
<g id="a_node19"><a xlink:href="error_8hpp.html" target="_top" xlink:title=" ">
<polygon fill="none" stroke="black" points="815.41,-224.5 815.41,-243.5 875.41,-243.5 875.41,-224.5 815.41,-224.5"/>
<text text-anchor="middle" x="845.41" y="-231.5" font-family="Helvetica,sans-Serif" font-size="10.00">error.hpp</text>
</a>
</g>
</g>
<!-- Node1&#45;&gt;Node19 -->
<g id="edge35" class="edge">
<title>Node1&#45;&gt;Node19</title>
<path fill="none" stroke="midnightblue" d="M780.78,-280.32C792.56,-272.06 810.54,-259.45 824.54,-249.63"/>
<polygon fill="midnightblue" stroke="midnightblue" points="826.89,-252.26 833.07,-243.65 822.87,-246.53 826.89,-252.26"/>
</g>
<!-- Node20 -->
<g id="node20" class="node">
<title>Node20</title>
<g id="a_node20"><a xlink:href="utilities_8hpp.html" target="_top" xlink:title=" ">
<polygon fill="none" stroke="black" points="777.41,-168.5 777.41,-187.5 851.41,-187.5 851.41,-168.5 777.41,-168.5"/>
<text text-anchor="middle" x="814.41" y="-175.5" font-family="Helvetica,sans-Serif" font-size="10.00">utilities.hpp</text>
</a>
</g>
</g>
<!-- Node1&#45;&gt;Node20 -->
<g id="edge36" class="edge">
<title>Node1&#45;&gt;Node20</title>
<path fill="none" stroke="midnightblue" d="M772.02,-280.37C779.51,-262.46 796.87,-220.92 806.9,-196.95"/>
<polygon fill="midnightblue" stroke="midnightblue" points="810.18,-198.17 810.81,-187.59 803.73,-195.47 810.18,-198.17"/>
</g>
<!-- Node22 -->
<g id="node22" class="node">
<title>Node22</title>
<g id="a_node22"><a xlink:title=" ">
<polygon fill="none" stroke="#bfbfbf" points="931.41,-224.5 931.41,-243.5 983.41,-243.5 983.41,-224.5 931.41,-224.5"/>
<text text-anchor="middle" x="957.41" y="-231.5" font-family="Helvetica,sans-Serif" font-size="10.00">cassert</text>
</a>
</g>
</g>
<!-- Node1&#45;&gt;Node22 -->
<g id="edge43" class="edge">
<title>Node1&#45;&gt;Node22</title>
<path fill="none" stroke="midnightblue" d="M798.35,-280.44C831.7,-270.92 885.59,-255.52 921.26,-245.33"/>
<polygon fill="midnightblue" stroke="midnightblue" points="922.6,-248.59 931.25,-242.47 920.67,-241.85 922.6,-248.59"/>
</g>
<!-- Node23 -->
<g id="node23" class="node">
<title>Node23</title>
<g id="a_node23"><a xlink:title=" ">
<polygon fill="none" stroke="#bfbfbf" points="1001.91,-224.5 1001.91,-243.5 1054.91,-243.5 1054.91,-224.5 1001.91,-224.5"/>
<text text-anchor="middle" x="1028.41" y="-231.5" font-family="Helvetica,sans-Serif" font-size="10.00">cstddef</text>
</a>
</g>
</g>
<!-- Node1&#45;&gt;Node23 -->
<g id="edge44" class="edge">
<title>Node1&#45;&gt;Node23</title>
<path fill="none" stroke="midnightblue" d="M814.01,-280.48C857.24,-272.27 924.23,-259.16 991.74,-244.07"/>
<polygon fill="midnightblue" stroke="midnightblue" points="992.72,-247.43 1001.7,-241.82 991.18,-240.6 992.72,-247.43"/>
</g>
<!-- Node24 -->
<g id="node24" class="node">
<title>Node24</title>
<g id="a_node24"><a xlink:title=" ">
<polygon fill="none" stroke="#bfbfbf" points="1072.91,-224.5 1072.91,-243.5 1137.91,-243.5 1137.91,-224.5 1072.91,-224.5"/>
<text text-anchor="middle" x="1105.41" y="-231.5" font-family="Helvetica,sans-Serif" font-size="10.00">stdexcept</text>
</a>
</g>
</g>
<!-- Node1&#45;&gt;Node24 -->
<g id="edge48" class="edge">
<title>Node1&#45;&gt;Node24</title>
<path fill="none" stroke="midnightblue" d="M830.68,-280.74C888.49,-272.79 977.16,-259.91 1062.88,-244.19"/>
<polygon fill="midnightblue" stroke="midnightblue" points="1063.57,-247.62 1072.77,-242.36 1062.3,-240.74 1063.57,-247.62"/>
</g>
<!-- Node25 -->
<g id="node25" class="node">
<title>Node25</title>
<g id="a_node25"><a xlink:title=" ">
<polygon fill="none" stroke="#bfbfbf" points="1155.91,-224.5 1155.91,-243.5 1208.91,-243.5 1208.91,-224.5 1155.91,-224.5"/>
<text text-anchor="middle" x="1182.41" y="-231.5" font-family="Helvetica,sans-Serif" font-size="10.00">stdint.h</text>
</a>
</g>
</g>
<!-- Node1&#45;&gt;Node25 -->
<g id="edge49" class="edge">
<title>Node1&#45;&gt;Node25</title>
<path fill="none" stroke="midnightblue" d="M830.5,-284.19C903.75,-277.94 1029.32,-265.45 1145.59,-244.14"/>
<polygon fill="midnightblue" stroke="midnightblue" points="1146.54,-247.52 1155.74,-242.25 1145.26,-240.64 1146.54,-247.52"/>
</g>
<!-- Node3 -->
<g id="node3" class="node">
<title>Node3</title>
<g id="a_node3"><a xlink:href="_method_8hpp.html" target="_top" xlink:title=" ">
<polygon fill="none" stroke="black" points="31.41,-112.5 31.41,-131.5 105.41,-131.5 105.41,-112.5 31.41,-112.5"/>
<text text-anchor="middle" x="68.41" y="-119.5" font-family="Helvetica,sans-Serif" font-size="10.00">Method.hpp</text>
</a>
</g>
</g>
<!-- Node2&#45;&gt;Node3 -->
<g id="edge2" class="edge">
<title>Node2&#45;&gt;Node3</title>
<path fill="none" stroke="midnightblue" d="M258.6,-168.44C219.42,-159.08 156.53,-144.06 113.89,-133.87"/>
<polygon fill="midnightblue" stroke="midnightblue" points="114.59,-130.44 104.05,-131.52 112.96,-137.24 114.59,-130.44"/>
</g>
<!-- Node2&#45;&gt;Node4 -->
<g id="edge3" class="edge">
<title>Node2&#45;&gt;Node4</title>
<path fill="none" stroke="midnightblue" d="M283.48,-168.32C273.23,-160.18 257.69,-147.84 245.4,-138.09"/>
<polygon fill="midnightblue" stroke="midnightblue" points="247.54,-135.31 237.53,-131.83 243.18,-140.79 247.54,-135.31"/>
</g>
<!-- Node2&#45;&gt;Node5 -->
<g id="edge6" class="edge">
<title>Node2&#45;&gt;Node5</title>
<path fill="none" stroke="midnightblue" d="M293.39,-168.37C291.29,-150.62 286.45,-109.67 283.6,-85.6"/>
<polygon fill="midnightblue" stroke="midnightblue" points="287.07,-85.11 282.42,-75.59 280.12,-85.93 287.07,-85.11"/>
</g>
<!-- Node6 -->
<g id="node6" class="node">
<title>Node6</title>
<g id="a_node6"><a xlink:title=" ">
<polygon fill="none" stroke="#bfbfbf" points="367.91,-112.5 367.91,-131.5 422.91,-131.5 422.91,-112.5 367.91,-112.5"/>
<text text-anchor="middle" x="395.41" y="-119.5" font-family="Helvetica,sans-Serif" font-size="10.00">fstream</text>
</a>
</g>
</g>
<!-- Node2&#45;&gt;Node6 -->
<g id="edge5" class="edge">
<title>Node2&#45;&gt;Node6</title>
<path fill="none" stroke="midnightblue" d="M310.63,-168.32C326.76,-159.7 351.71,-146.36 370.37,-136.39"/>
<polygon fill="midnightblue" stroke="midnightblue" points="372.05,-139.46 379.22,-131.65 368.75,-133.28 372.05,-139.46"/>
</g>
<!-- Node2&#45;&gt;Node7 -->
<g id="edge7" class="edge">
<title>Node2&#45;&gt;Node7</title>
<path fill="none" stroke="midnightblue" d="M270.32,-168.44C243.36,-158.87 199.71,-143.36 171.03,-133.17"/>
<polygon fill="midnightblue" stroke="midnightblue" points="172.16,-129.86 161.57,-129.81 169.82,-136.45 172.16,-129.86"/>
</g>
<!-- Node8 -->
<g id="node8" class="node">
<title>Node8</title>
<g id="a_node8"><a xlink:title=" ">
<polygon fill="none" stroke="#bfbfbf" points="474.41,-0.5 474.41,-19.5 518.41,-19.5 518.41,-0.5 474.41,-0.5"/>
<text text-anchor="middle" x="496.41" y="-7.5" font-family="Helvetica,sans-Serif" font-size="10.00">string</text>
</a>
</g>
</g>
<!-- Node2&#45;&gt;Node8 -->
<g id="edge8" class="edge">
<title>Node2&#45;&gt;Node8</title>
<path fill="none" stroke="midnightblue" d="M302.43,-168.17C314.34,-155.26 337.63,-130.73 359.41,-112 398.25,-78.59 447.33,-44.1 474.95,-25.32"/>
<polygon fill="midnightblue" stroke="midnightblue" points="477.13,-28.08 483.45,-19.58 473.21,-22.28 477.13,-28.08"/>
</g>
<!-- Node2&#45;&gt;Node9 -->
<g id="edge9" class="edge">
<title>Node2&#45;&gt;Node9</title>
<path fill="none" stroke="midnightblue" d="M337.51,-169.34C340.51,-168.87 343.5,-168.42 346.41,-168 480.35,-148.83 640.67,-132.75 709.4,-126.18"/>
<polygon fill="midnightblue" stroke="midnightblue" points="710,-129.64 719.63,-125.21 709.34,-122.67 710,-129.64"/>
</g>
<!-- Node4&#45;&gt;Node5 -->
<g id="edge4" class="edge">
<title>Node4&#45;&gt;Node5</title>
<path fill="none" stroke="midnightblue" d="M235.49,-112.08C243.58,-104.14 255.6,-92.34 265.32,-82.8"/>
<polygon fill="midnightblue" stroke="midnightblue" points="267.81,-85.25 272.49,-75.75 262.91,-80.26 267.81,-85.25"/>
</g>
<!-- Node10&#45;&gt;Node3 -->
<g id="edge11" class="edge">
<title>Node10&#45;&gt;Node3</title>
<path fill="none" stroke="midnightblue" d="M75.92,-168.08C74.73,-160.93 73.01,-150.64 71.52,-141.69"/>
<polygon fill="midnightblue" stroke="midnightblue" points="74.96,-141.04 69.86,-131.75 68.06,-142.19 74.96,-141.04"/>
</g>
<!-- Node10&#45;&gt;Node4 -->
<g id="edge12" class="edge">
<title>Node10&#45;&gt;Node4</title>
<path fill="none" stroke="midnightblue" d="M101.02,-168.44C125.86,-159.44 165.18,-145.19 193.16,-135.05"/>
<polygon fill="midnightblue" stroke="midnightblue" points="194.7,-138.21 202.91,-131.52 192.31,-131.63 194.7,-138.21"/>
</g>
<!-- Node10&#45;&gt;Node5 -->
<g id="edge13" class="edge">
<title>Node10&#45;&gt;Node5</title>
<path fill="none" stroke="midnightblue" d="M60.85,-168.39C39.05,-155.96 5.37,-132.25 22.41,-112 49.88,-79.35 175.41,-70.39 241.08,-67.93"/>
<polygon fill="midnightblue" stroke="midnightblue" points="241.21,-71.43 251.09,-67.59 240.97,-64.43 241.21,-71.43"/>
</g>
<!-- Node10&#45;&gt;Node7 -->
<g id="edge14" class="edge">
<title>Node10&#45;&gt;Node7</title>
<path fill="none" stroke="midnightblue" d="M87.85,-168.32C97.55,-160.26 112.22,-148.08 123.91,-138.37"/>
<polygon fill="midnightblue" stroke="midnightblue" points="126.32,-140.92 131.77,-131.83 121.84,-135.53 126.32,-140.92"/>
</g>
<!-- Node10&#45;&gt;Node8 -->
<g id="edge15" class="edge">
<title>Node10&#45;&gt;Node8</title>
<path fill="none" stroke="midnightblue" d="M57.79,-168.3C33.52,-156.33 -2.66,-133.77 14.41,-112 70.4,-40.58 364.99,-18.16 463.95,-12.58"/>
<polygon fill="midnightblue" stroke="midnightblue" points="464.44,-16.06 474.23,-12.02 464.06,-9.07 464.44,-16.06"/>
</g>
<!-- Node12 -->
<g id="node12" class="node">
<title>Node12</title>
<g id="a_node12"><a xlink:href="_log_outputter_console_8hpp.html" target="_top" xlink:title=" ">
<polygon fill="none" stroke="black" points="355.41,-168.5 355.41,-187.5 495.41,-187.5 495.41,-168.5 355.41,-168.5"/>
<text text-anchor="middle" x="425.41" y="-175.5" font-family="Helvetica,sans-Serif" font-size="10.00">LogOutputterConsole.hpp</text>
</a>
</g>
</g>
<!-- Node11&#45;&gt;Node12 -->
<g id="edge17" class="edge">
<title>Node11&#45;&gt;Node12</title>
<path fill="none" stroke="midnightblue" d="M602.76,-225.72C568.1,-216.59 508.34,-200.85 467.86,-190.18"/>
<polygon fill="midnightblue" stroke="midnightblue" points="468.58,-186.75 458.02,-187.59 466.79,-193.52 468.58,-186.75"/>
</g>
<!-- Node17 -->
<g id="node17" class="node">
<title>Node17</title>
<g id="a_node17"><a xlink:href="_log_outputter_file_8hpp.html" target="_top" xlink:title=" ">
<polygon fill="none" stroke="black" points="513.91,-168.5 513.91,-187.5 632.91,-187.5 632.91,-168.5 513.91,-168.5"/>
<text text-anchor="middle" x="573.41" y="-175.5" font-family="Helvetica,sans-Serif" font-size="10.00">LogOutputterFile.hpp</text>
</a>
</g>
</g>
<!-- Node11&#45;&gt;Node17 -->
<g id="edge25" class="edge">
<title>Node11&#45;&gt;Node17</title>
<path fill="none" stroke="midnightblue" d="M621.25,-224.32C612.9,-216.42 600.37,-204.55 590.23,-194.94"/>
<polygon fill="midnightblue" stroke="midnightblue" points="592.4,-192.17 582.73,-187.83 587.58,-197.25 592.4,-192.17"/>
</g>
<!-- Node18 -->
<g id="node18" class="node">
<title>Node18</title>
<g id="a_node18"><a xlink:href="_logger_8hpp.html" target="_top" xlink:title=" ">
<polygon fill="none" stroke="black" points="651.41,-168.5 651.41,-187.5 721.41,-187.5 721.41,-168.5 651.41,-168.5"/>
<text text-anchor="middle" x="686.41" y="-175.5" font-family="Helvetica,sans-Serif" font-size="10.00">Logger.hpp</text>
</a>
</g>
</g>
<!-- Node11&#45;&gt;Node18 -->
<g id="edge29" class="edge">
<title>Node11&#45;&gt;Node18</title>
<path fill="none" stroke="midnightblue" d="M639.4,-224.32C647.6,-216.42 659.91,-204.55 669.88,-194.94"/>
<polygon fill="midnightblue" stroke="midnightblue" points="672.48,-197.29 677.24,-187.83 667.62,-192.26 672.48,-197.29"/>
</g>
<!-- Node12&#45;&gt;Node5 -->
<g id="edge18" class="edge">
<title>Node12&#45;&gt;Node5</title>
<path fill="none" stroke="midnightblue" d="M429.72,-168.44C435.81,-155 444.89,-128.74 432.41,-112 407.11,-78.07 357.23,-68.71 321.73,-66.62"/>
<polygon fill="midnightblue" stroke="midnightblue" points="321.81,-63.12 311.67,-66.2 321.51,-70.12 321.81,-63.12"/>
</g>
<!-- Node12&#45;&gt;Node7 -->
<g id="edge19" class="edge">
<title>Node12&#45;&gt;Node7</title>
<path fill="none" stroke="midnightblue" d="M364.92,-168.47C313.18,-160.66 236.9,-147.9 171.41,-132 171.31,-131.98 171.21,-131.95 171.11,-131.93"/>
<polygon fill="midnightblue" stroke="midnightblue" points="172.22,-128.6 161.65,-129.34 170.38,-135.36 172.22,-128.6"/>
</g>
<!-- Node13 -->
<g id="node13" class="node">
<title>Node13</title>
<g id="a_node13"><a xlink:href="_a_log_outputter_8hpp.html" target="_top" xlink:title=" ">
<polygon fill="none" stroke="black" points="517.91,-112.5 517.91,-131.5 624.91,-131.5 624.91,-112.5 517.91,-112.5"/>
<text text-anchor="middle" x="571.41" y="-119.5" font-family="Helvetica,sans-Serif" font-size="10.00">ALogOutputter.hpp</text>
</a>
</g>
</g>
<!-- Node12&#45;&gt;Node13 -->
<g id="edge20" class="edge">
<title>Node12&#45;&gt;Node13</title>
<path fill="none" stroke="midnightblue" d="M448.54,-168.44C472.89,-159.44 511.41,-145.19 538.83,-135.05"/>
<polygon fill="midnightblue" stroke="midnightblue" points="540.22,-138.27 548.38,-131.52 537.79,-131.7 540.22,-138.27"/>
</g>
<!-- Node14 -->
<g id="node14" class="node">
<title>Node14</title>
<g id="a_node14"><a xlink:href="_log_data_8hpp.html" target="_top" xlink:title=" ">
<polygon fill="none" stroke="black" points="681.41,-56.5 681.41,-75.5 759.41,-75.5 759.41,-56.5 681.41,-56.5"/>
<text text-anchor="middle" x="720.41" y="-63.5" font-family="Helvetica,sans-Serif" font-size="10.00">LogData.hpp</text>
</a>
</g>
</g>
<!-- Node13&#45;&gt;Node14 -->
<g id="edge21" class="edge">
<title>Node13&#45;&gt;Node14</title>
<path fill="none" stroke="midnightblue" d="M595.02,-112.44C619.86,-103.44 659.18,-89.19 687.16,-79.05"/>
<polygon fill="midnightblue" stroke="midnightblue" points="688.7,-82.21 696.91,-75.52 686.31,-75.63 688.7,-82.21"/>
</g>
<!-- Node14&#45;&gt;Node8 -->
<g id="edge24" class="edge">
<title>Node14&#45;&gt;Node8</title>
<path fill="none" stroke="midnightblue" d="M684.91,-56.44C641.81,-46.05 569.75,-28.68 528.33,-18.7"/>
<polygon fill="midnightblue" stroke="midnightblue" points="529.03,-15.27 518.49,-16.32 527.39,-22.07 529.03,-15.27"/>
</g>
<!-- Node15 -->
<g id="node15" class="node">
<title>Node15</title>
<g id="a_node15"><a xlink:title=" ">
<polygon fill="none" stroke="#bfbfbf" points="739.41,-0.5 739.41,-19.5 783.41,-19.5 783.41,-0.5 739.41,-0.5"/>
<text text-anchor="middle" x="761.41" y="-7.5" font-family="Helvetica,sans-Serif" font-size="10.00">ctime</text>
</a>
</g>
</g>
<!-- Node14&#45;&gt;Node15 -->
<g id="edge22" class="edge">
<title>Node14&#45;&gt;Node15</title>
<path fill="none" stroke="midnightblue" d="M727.18,-56.08C732.97,-48.46 741.46,-37.26 748.54,-27.94"/>
<polygon fill="midnightblue" stroke="midnightblue" points="751.5,-29.83 754.76,-19.75 745.93,-25.6 751.5,-29.83"/>
</g>
<!-- Node14&#45;&gt;Node16 -->
<g id="edge23" class="edge">
<title>Node14&#45;&gt;Node16</title>
<path fill="none" stroke="midnightblue" d="M744.33,-56.44C769.62,-47.4 809.71,-33.06 838.09,-22.92"/>
<polygon fill="midnightblue" stroke="midnightblue" points="839.35,-26.18 847.59,-19.52 837,-19.59 839.35,-26.18"/>
</g>
<!-- Node17&#45;&gt;Node5 -->
<g id="edge27" class="edge">
<title>Node17&#45;&gt;Node5</title>
<path fill="none" stroke="midnightblue" d="M559.38,-168.33C536.9,-154.73 491.07,-128.27 449.41,-112 406.97,-95.43 356.19,-82.76 321.65,-75.15"/>
<polygon fill="midnightblue" stroke="midnightblue" points="321.99,-71.64 311.48,-72.95 320.51,-78.48 321.99,-71.64"/>
</g>
<!-- Node17&#45;&gt;Node6 -->
<g id="edge26" class="edge">
<title>Node17&#45;&gt;Node6</title>
<path fill="none" stroke="midnightblue" d="M545.2,-168.44C514.91,-159.25 466.61,-144.6 433.08,-134.43"/>
<polygon fill="midnightblue" stroke="midnightblue" points="433.77,-130.98 423.19,-131.43 431.74,-137.68 433.77,-130.98"/>
</g>
<!-- Node17&#45;&gt;Node13 -->
<g id="edge28" class="edge">
<title>Node17&#45;&gt;Node13</title>
<path fill="none" stroke="midnightblue" d="M573.08,-168.08C572.81,-161.01 572.44,-150.86 572.11,-141.99"/>
<polygon fill="midnightblue" stroke="midnightblue" points="575.6,-141.61 571.73,-131.75 568.6,-141.87 575.6,-141.61"/>
</g>
<!-- Node18&#45;&gt;Node8 -->
<g id="edge30" class="edge">
<title>Node18&#45;&gt;Node8</title>
<path fill="none" stroke="midnightblue" d="M680.64,-168.41C671.67,-155.37 653.4,-130.19 634.41,-112 597.46,-76.6 547.71,-43.09 519.15,-24.97"/>
<polygon fill="midnightblue" stroke="midnightblue" points="520.99,-21.99 510.66,-19.64 517.27,-27.92 520.99,-21.99"/>
</g>
<!-- Node18&#45;&gt;Node9 -->
<g id="edge31" class="edge">
<title>Node18&#45;&gt;Node9</title>
<path fill="none" stroke="midnightblue" d="M695.56,-168.32C703.91,-160.42 716.44,-148.55 726.58,-138.94"/>
<polygon fill="midnightblue" stroke="midnightblue" points="729.23,-141.25 734.08,-131.83 724.41,-136.17 729.23,-141.25"/>
</g>
<!-- Node18&#45;&gt;Node13 -->
<g id="edge32" class="edge">
<title>Node18&#45;&gt;Node13</title>
<path fill="none" stroke="midnightblue" d="M668.18,-168.44C649.51,-159.68 620.25,-145.94 598.79,-135.86"/>
<polygon fill="midnightblue" stroke="midnightblue" points="600.08,-132.6 589.54,-131.52 597.11,-138.93 600.08,-132.6"/>
</g>
<!-- Node18&#45;&gt;Node14 -->
<g id="edge33" class="edge">
<title>Node18&#45;&gt;Node14</title>
<path fill="none" stroke="midnightblue" d="M689.07,-168.37C694.59,-150.54 707.33,-109.3 714.76,-85.27"/>
<polygon fill="midnightblue" stroke="midnightblue" points="718.14,-86.18 717.75,-75.59 711.45,-84.11 718.14,-86.18"/>
</g>
<!-- Node20&#45;&gt;Node4 -->
<g id="edge37" class="edge">
<title>Node20&#45;&gt;Node4</title>
<path fill="none" stroke="midnightblue" d="M777.2,-172.87C762.62,-171.29 745.73,-169.51 730.41,-168 568.19,-152.07 376.36,-135.59 283.06,-127.73"/>
<polygon fill="midnightblue" stroke="midnightblue" points="283.25,-124.23 272.99,-126.88 282.66,-131.21 283.25,-124.23"/>
</g>
<!-- Node20&#45;&gt;Node5 -->
<g id="edge40" class="edge">
<title>Node20&#45;&gt;Node5</title>
<path fill="none" stroke="midnightblue" d="M812.18,-168.47C807.92,-154.06 797.15,-125.18 776.41,-112 738.4,-87.84 433.19,-73.16 321.86,-68.56"/>
<polygon fill="midnightblue" stroke="midnightblue" points="321.84,-65.06 311.71,-68.15 321.56,-72.05 321.84,-65.06"/>
</g>
<!-- Node20&#45;&gt;Node9 -->
<g id="edge42" class="edge">
<title>Node20&#45;&gt;Node9</title>
<path fill="none" stroke="midnightblue" d="M803,-168.32C792.3,-160.18 776.07,-147.84 763.24,-138.09"/>
<polygon fill="midnightblue" stroke="midnightblue" points="765.1,-135.1 755.02,-131.83 760.86,-140.67 765.1,-135.1"/>
</g>
<!-- Node20&#45;&gt;Node15 -->
<g id="edge39" class="edge">
<title>Node20&#45;&gt;Node15</title>
<path fill="none" stroke="midnightblue" d="M812.82,-168.49C810.4,-155.98 805.43,-131.96 799.41,-112 790.45,-82.36 777.22,-48.89 768.97,-28.89"/>
<polygon fill="midnightblue" stroke="midnightblue" points="772.13,-27.39 765.05,-19.51 765.67,-30.09 772.13,-27.39"/>
</g>
<!-- Node20&#45;&gt;Node16 -->
<g id="edge41" class="edge">
<title>Node20&#45;&gt;Node16</title>
<path fill="none" stroke="midnightblue" d="M817.47,-168.08C826.48,-141.83 853.02,-64.55 865.19,-29.12"/>
<polygon fill="midnightblue" stroke="midnightblue" points="868.53,-30.16 868.46,-19.57 861.91,-27.89 868.53,-30.16"/>
</g>
<!-- Node21 -->
<g id="node21" class="node">
<title>Node21</title>
<g id="a_node21"><a xlink:title=" ">
<polygon fill="none" stroke="#bfbfbf" points="899.41,-112.5 899.41,-131.5 963.41,-131.5 963.41,-112.5 899.41,-112.5"/>
<text text-anchor="middle" x="931.41" y="-119.5" font-family="Helvetica,sans-Serif" font-size="10.00">algorithm</text>
</a>
</g>
</g>
<!-- Node20&#45;&gt;Node21 -->
<g id="edge38" class="edge">
<title>Node20&#45;&gt;Node21</title>
<path fill="none" stroke="midnightblue" d="M832.94,-168.44C852.03,-159.64 881.98,-145.81 903.84,-135.72"/>
<polygon fill="midnightblue" stroke="midnightblue" points="905.34,-138.88 912.95,-131.52 902.41,-132.53 905.34,-138.88"/>
</g>
</g>
</svg>
