<?xml version="1.0" encoding="UTF-8" standalone="no"?>
<!DOCTYPE svg PUBLIC "-//W3C//DTD SVG 1.1//EN"
 "http://www.w3.org/Graphics/SVG/1.1/DTD/svg11.dtd">
<!-- Generated by graphviz version 2.43.0 (0)
 -->
<!-- Title: inc/RequestParser.hpp Pages: 1 -->
<!--zoomable 302 -->

<svg id="main" version="1.1" xmlns="http://www.w3.org/2000/svg" xmlns:xlink="http://www.w3.org/1999/xlink" xml:space="preserve" onload="init(evt)">
<style type="text/css"><![CDATA[
.node, .edge {opacity: 0.7;}
.node.selected, .edge.selected {opacity: 1;}
.edge:hover path { stroke: red; }
.edge:hover polygon { stroke: red; fill: red; }
]]></style>

<defs>
  <circle id="rim" cx="0" cy="0" r="7"/>
  <circle id="rim2" cx="0" cy="0" r="3.5"/>
  <g id="zoomPlus">
    <use xlink:href="#rim" fill="#404040"><set attributeName="fill" to="#808080" begin="zoomplus.mouseover" end="zoomplus.mouseout"/></use>
    <path d="M-4,0h8M0,-4v8" fill="none" stroke="white" stroke-width="1.5" pointer-events="none"/>
  </g>
  <g id="zoomMin">
    <use xlink:href="#rim" fill="#404040"><set attributeName="fill" to="#808080" begin="zoomminus.mouseover" end="zoomminus.mouseout"/></use>
    <path d="M-4,0h8" fill="none" stroke="white" stroke-width="1.5" pointer-events="none"/>
  </g>
  <g id="arrowUp" transform="translate(30 24)">
    <use xlink:href="#rim"/>
    <path pointer-events="none" fill="none" stroke="white" stroke-width="1.5" d="M0,-3.0v7 M-2.5,-0.5L0,-3.0L2.5,-0.5"/>
  </g>
  <g id="arrowRight" transform="rotate(90) translate(36 -43)">
    <use xlink:href="#rim"/>
    <path pointer-events="none" fill="none" stroke="white" stroke-width="1.5" d="M0,-3.0v7 M-2.5,-0.5L0,-3.0L2.5,-0.5"/>
  </g>
  <g id="arrowDown" transform="rotate(180) translate(-30 -48)">
    <use xlink:href="#rim"/>
    <path pointer-events="none" fill="none" stroke="white" stroke-width="1.5" d="M0,-3.0v7 M-2.5,-0.5L0,-3.0L2.5,-0.5"/>
  </g>
  <g id="arrowLeft" transform="rotate(270) translate(-36 17)">
    <use xlink:href="#rim"/>
    <path pointer-events="none" fill="none" stroke="white" stroke-width="1.5" d="M0,-3.0v7 M-2.5,-0.5L0,-3.0L2.5,-0.5"/>
  </g>
  <g id="resetDef">
    <use xlink:href="#rim2" fill="#404040"><set attributeName="fill" to="#808080" begin="reset.mouseover" end="reset.mouseout"/></use>
  </g>
</defs>
<script type="application/ecmascript">
var viewWidth = 1738;
var viewHeight = 302;
var sectionId = 'dynsection-0';
</script>
<script type="application/ecmascript" xlink:href="svg.min.js"/>
<svg id="graph" class="graph">
<g id="viewport">
<title>inc/RequestParser.hpp</title>
<!-- Node1 -->
<g id="Node000001" class="node">
<title>Node1</title>
<g id="a_Node000001"><a xlink:title=" ">
<polygon fill="#999999" stroke="#666666" points="1212.65,-294 1088.65,-294 1088.65,-275 1212.65,-275 1212.65,-294"/>
<text text-anchor="middle" x="1150.65" y="-282" font-family="Helvetica,sans-Serif" font-size="10.00">inc/RequestParser.hpp</text>
</a>
</g>
</g>
<!-- Node2 -->
<g id="Node000002" class="node">
<title>Node2</title>
<g id="a_Node000002"><a xlink:href="_config_file_8hpp.html" target="_top" xlink:title=" ">
<polygon fill="white" stroke="#666666" points="346.65,-239 260.65,-239 260.65,-220 346.65,-220 346.65,-239"/>
<text text-anchor="middle" x="303.65" y="-227" font-family="Helvetica,sans-Serif" font-size="10.00">ConfigFile.hpp</text>
</a>
</g>
</g>
<!-- Node1&#45;&gt;Node2 -->
<g id="edge1_Node000001_Node000002" class="edge">
<title>Node1&#45;&gt;Node2</title>
<g id="a_edge1_Node000001_Node000002"><a xlink:title=" ">
<path fill="none" stroke="#63b8ff" d="M1088.43,-279.78C963.54,-272.29 673.38,-254.74 429.65,-239 405.74,-237.46 379.29,-235.68 356.82,-234.15"/>
<polygon fill="#63b8ff" stroke="#63b8ff" points="357.01,-230.66 346.79,-233.47 356.53,-237.64 357.01,-230.66"/>
</a>
</g>
</g>
<!-- Node4 -->
<g id="Node000004" class="node">
<title>Node4</title>
<g id="a_Node000004"><a xlink:href="_status_code_8hpp.html" target="_top" xlink:title=" ">
<polygon fill="white" stroke="#666666" points="452.15,-184 359.15,-184 359.15,-165 452.15,-165 452.15,-184"/>
<text text-anchor="middle" x="405.65" y="-172" font-family="Helvetica,sans-Serif" font-size="10.00">StatusCode.hpp</text>
</a>
</g>
</g>
<!-- Node1&#45;&gt;Node4 -->
<g id="edge36_Node000001_Node000004" class="edge">
<title>Node1&#45;&gt;Node4</title>
<g id="a_edge36_Node000001_Node000004"><a xlink:title=" ">
<path fill="none" stroke="#63b8ff" d="M1088.6,-283.13C948.55,-281.67 611.84,-274.47 504.65,-239 473.18,-228.59 441.82,-205.86 423.08,-190.61"/>
<polygon fill="#63b8ff" stroke="#63b8ff" points="425.09,-187.73 415.18,-184.01 420.61,-193.1 425.09,-187.73"/>
</a>
</g>
</g>
<!-- Node5 -->
<g id="Node000005" class="node">
<title>Node5</title>
<g id="a_Node000005"><a xlink:title=" ">
<polygon fill="#e0e0e0" stroke="#999999" points="548.65,-129 488.65,-129 488.65,-110 548.65,-110 548.65,-129"/>
<text text-anchor="middle" x="518.65" y="-117" font-family="Helvetica,sans-Serif" font-size="10.00">iostream</text>
</a>
</g>
</g>
<!-- Node1&#45;&gt;Node5 -->
<g id="edge51_Node000001_Node000005" class="edge">
<title>Node1&#45;&gt;Node5</title>
<g id="a_edge51_Node000001_Node000005"><a xlink:title=" ">
<path fill="none" stroke="#63b8ff" d="M1088.53,-281.74C949.25,-276.51 617.92,-256.57 537.65,-184 525.25,-172.8 520.8,-153.88 519.28,-139.6"/>
<polygon fill="#63b8ff" stroke="#63b8ff" points="522.75,-139.11 518.58,-129.37 515.77,-139.59 522.75,-139.11"/>
</a>
</g>
</g>
<!-- Node7 -->
<g id="Node000007" class="node">
<title>Node7</title>
<g id="a_Node000007"><a xlink:title=" ">
<polygon fill="#e0e0e0" stroke="#999999" points="56.65,-129 18.65,-129 18.65,-110 56.65,-110 56.65,-129"/>
<text text-anchor="middle" x="37.65" y="-117" font-family="Helvetica,sans-Serif" font-size="10.00">map</text>
</a>
</g>
</g>
<!-- Node1&#45;&gt;Node7 -->
<g id="edge52_Node000001_Node000007" class="edge">
<title>Node1&#45;&gt;Node7</title>
<g id="a_edge52_Node000001_Node000007"><a xlink:title=" ">
<path fill="none" stroke="#63b8ff" d="M1088.62,-283.13C877.48,-281.54 194.64,-273.76 102.65,-239 66.28,-225.26 51.39,-219.08 34.65,-184 27.96,-169.99 29.52,-152.21 32.29,-139.03"/>
<polygon fill="#63b8ff" stroke="#63b8ff" points="35.71,-139.78 34.75,-129.23 28.92,-138.08 35.71,-139.78"/>
</a>
</g>
</g>
<!-- Node9 -->
<g id="Node000009" class="node">
<title>Node9</title>
<g id="a_Node000009"><a xlink:title=" ">
<polygon fill="#e0e0e0" stroke="#999999" points="1073.15,-129 1026.15,-129 1026.15,-110 1073.15,-110 1073.15,-129"/>
<text text-anchor="middle" x="1049.65" y="-117" font-family="Helvetica,sans-Serif" font-size="10.00">vector</text>
</a>
</g>
</g>
<!-- Node1&#45;&gt;Node9 -->
<g id="edge56_Node000001_Node000009" class="edge">
<title>Node1&#45;&gt;Node9</title>
<g id="a_edge56_Node000001_Node000009"><a xlink:title=" ">
<path fill="none" stroke="#63b8ff" d="M1177.94,-274.95C1230.34,-257.16 1336.39,-213.78 1295.65,-165 1269,-133.11 1144.56,-124.03 1083.55,-121.48"/>
<polygon fill="#63b8ff" stroke="#63b8ff" points="1083.41,-117.97 1073.28,-121.08 1083.14,-124.96 1083.41,-117.97"/>
</a>
</g>
</g>
<!-- Node11 -->
<g id="Node000011" class="node">
<title>Node11</title>
<g id="a_Node000011"><a xlink:href="constants_8hpp.html" target="_top" xlink:title=" ">
<polygon fill="white" stroke="#666666" points="1092.15,-184 1007.15,-184 1007.15,-165 1092.15,-165 1092.15,-184"/>
<text text-anchor="middle" x="1049.65" y="-172" font-family="Helvetica,sans-Serif" font-size="10.00">constants.hpp</text>
</a>
</g>
</g>
<!-- Node1&#45;&gt;Node11 -->
<g id="edge11_Node000001_Node000011" class="edge">
<title>Node1&#45;&gt;Node11</title>
<g id="a_edge11_Node000001_Node000011"><a xlink:title=" ">
<path fill="none" stroke="#63b8ff" d="M1141.25,-274.87C1131.78,-266.07 1116.87,-251.91 1104.65,-239 1090.15,-223.68 1074.48,-205.4 1063.58,-192.4"/>
<polygon fill="#63b8ff" stroke="#63b8ff" points="1065.97,-189.79 1056.88,-184.34 1060.59,-194.27 1065.97,-189.79"/>
</a>
</g>
</g>
<!-- Node12 -->
<g id="Node000012" class="node">
<title>Node12</title>
<g id="a_Node000012"><a xlink:href="_h_t_t_p_request_8hpp.html" target="_top" xlink:title=" ">
<polygon fill="white" stroke="#666666" points="215.15,-239 112.15,-239 112.15,-220 215.15,-220 215.15,-239"/>
<text text-anchor="middle" x="163.65" y="-227" font-family="Helvetica,sans-Serif" font-size="10.00">HTTPRequest.hpp</text>
</a>
</g>
</g>
<!-- Node1&#45;&gt;Node12 -->
<g id="edge12_Node000001_Node000012" class="edge">
<title>Node1&#45;&gt;Node12</title>
<g id="a_edge12_Node000001_Node000012"><a xlink:title=" ">
<path fill="none" stroke="#63b8ff" d="M1088.46,-281.43C942.33,-276.33 565.69,-261.93 251.65,-239 243.17,-238.38 234.25,-237.63 225.47,-236.84"/>
<polygon fill="#63b8ff" stroke="#63b8ff" points="225.54,-233.33 215.26,-235.89 224.9,-240.3 225.54,-233.33"/>
</a>
</g>
</g>
<!-- Node13 -->
<g id="Node000013" class="node">
<title>Node13</title>
<g id="a_Node000013"><a xlink:href="_log_8hpp.html" target="_top" xlink:title=" ">
<polygon fill="white" stroke="#666666" points="887.15,-239 832.15,-239 832.15,-220 887.15,-220 887.15,-239"/>
<text text-anchor="middle" x="859.65" y="-227" font-family="Helvetica,sans-Serif" font-size="10.00">Log.hpp</text>
</a>
</g>
</g>
<!-- Node1&#45;&gt;Node13 -->
<g id="edge18_Node000001_Node000013" class="edge">
<title>Node1&#45;&gt;Node13</title>
<g id="a_edge18_Node000001_Node000013"><a xlink:title=" ">
<path fill="none" stroke="#63b8ff" d="M1103.89,-274.98C1046.5,-264.53 950.32,-247.01 897.39,-237.37"/>
<polygon fill="#63b8ff" stroke="#63b8ff" points="897.87,-233.91 887.41,-235.56 896.62,-240.79 897.87,-233.91"/>
</a>
</g>
</g>
<!-- Node18 -->
<g id="Node000018" class="node">
<title>Node18</title>
<g id="a_Node000018"><a xlink:title=" ">
<polygon fill="#e0e0e0" stroke="#999999" points="1418.65,-19 1362.65,-19 1362.65,0 1418.65,0 1418.65,-19"/>
<text text-anchor="middle" x="1390.65" y="-7" font-family="Helvetica,sans-Serif" font-size="10.00">sstream</text>
</a>
</g>
</g>
<!-- Node1&#45;&gt;Node18 -->
<g id="edge53_Node000001_Node000018" class="edge">
<title>Node1&#45;&gt;Node18</title>
<g id="a_edge53_Node000001_Node000018"><a xlink:title=" ">
<path fill="none" stroke="#63b8ff" d="M1212.88,-280.57C1288.74,-275.93 1411.43,-264.62 1448.65,-239 1478.02,-218.78 1488.86,-199.45 1479.65,-165 1464.92,-109.92 1425.31,-54.13 1404.25,-27.15"/>
<polygon fill="#63b8ff" stroke="#63b8ff" points="1406.85,-24.8 1397.88,-19.15 1401.37,-29.16 1406.85,-24.8"/>
</a>
</g>
</g>
<!-- Node21 -->
<g id="Node000021" class="node">
<title>Node21</title>
<g id="a_Node000021"><a xlink:href="error_8hpp.html" target="_top" xlink:title=" ">
<polygon fill="white" stroke="#666666" points="1420.65,-239 1360.65,-239 1360.65,-220 1420.65,-220 1420.65,-239"/>
<text text-anchor="middle" x="1390.65" y="-227" font-family="Helvetica,sans-Serif" font-size="10.00">error.hpp</text>
</a>
</g>
</g>
<!-- Node1&#45;&gt;Node21 -->
<g id="edge37_Node000001_Node000021" class="edge">
<title>Node1&#45;&gt;Node21</title>
<g id="a_edge37_Node000001_Node000021"><a xlink:title=" ">
<path fill="none" stroke="#63b8ff" d="M1189.21,-274.98C1233.46,-265.21 1305.69,-249.26 1350.57,-239.35"/>
<polygon fill="#63b8ff" stroke="#63b8ff" points="1351.53,-242.72 1360.54,-237.15 1350.02,-235.89 1351.53,-242.72"/>
</a>
</g>
</g>
<!-- Node22 -->
<g id="Node000022" class="node">
<title>Node22</title>
<g id="a_Node000022"><a xlink:href="utilities_8hpp.html" target="_top" xlink:title=" ">
<polygon fill="white" stroke="#666666" points="1187.65,-239 1113.65,-239 1113.65,-220 1187.65,-220 1187.65,-239"/>
<text text-anchor="middle" x="1150.65" y="-227" font-family="Helvetica,sans-Serif" font-size="10.00">utilities.hpp</text>
</a>
</g>
</g>
<!-- Node1&#45;&gt;Node22 -->
<g id="edge38_Node000001_Node000022" class="edge">
<title>Node1&#45;&gt;Node22</title>
<g id="a_edge38_Node000001_Node000022"><a xlink:title=" ">
<path fill="none" stroke="#63b8ff" d="M1150.65,-274.75C1150.65,-267.8 1150.65,-257.85 1150.65,-249.13"/>
<polygon fill="#63b8ff" stroke="#63b8ff" points="1154.15,-249.09 1150.65,-239.09 1147.15,-249.09 1154.15,-249.09"/>
</a>
</g>
</g>
<!-- Node24 -->
<g id="Node000024" class="node">
<title>Node24</title>
<g id="a_Node000024"><a xlink:title=" ">
<polygon fill="#e0e0e0" stroke="#999999" points="1470.65,-184 1418.65,-184 1418.65,-165 1470.65,-165 1470.65,-184"/>
<text text-anchor="middle" x="1444.65" y="-172" font-family="Helvetica,sans-Serif" font-size="10.00">cassert</text>
</a>
</g>
</g>
<!-- Node1&#45;&gt;Node24 -->
<g id="edge49_Node000001_Node000024" class="edge">
<title>Node1&#45;&gt;Node24</title>
<g id="a_edge49_Node000001_Node000024"><a xlink:title=" ">
<path fill="none" stroke="#63b8ff" d="M1212.65,-281.46C1285.09,-277.78 1398.96,-267.5 1429.65,-239 1441.7,-227.81 1444.9,-208.89 1445.42,-194.6"/>
<polygon fill="#63b8ff" stroke="#63b8ff" points="1448.92,-194.36 1445.38,-184.38 1441.92,-194.39 1448.92,-194.36"/>
</a>
</g>
</g>
<!-- Node26 -->
<g id="Node000026" class="node">
<title>Node26</title>
<g id="a_Node000026"><a xlink:title=" ">
<polygon fill="#e0e0e0" stroke="#999999" points="1576.15,-239 1523.15,-239 1523.15,-220 1576.15,-220 1576.15,-239"/>
<text text-anchor="middle" x="1549.65" y="-227" font-family="Helvetica,sans-Serif" font-size="10.00">cstddef</text>
</a>
</g>
</g>
<!-- Node1&#45;&gt;Node26 -->
<g id="edge50_Node000001_Node000026" class="edge">
<title>Node1&#45;&gt;Node26</title>
<g id="a_edge50_Node000001_Node000026"><a xlink:title=" ">
<path fill="none" stroke="#63b8ff" d="M1212.95,-277.3C1284.55,-269.81 1405.46,-256.08 1508.65,-239 1509.94,-238.79 1511.25,-238.56 1512.57,-238.33"/>
<polygon fill="#63b8ff" stroke="#63b8ff" points="1513.62,-241.69 1522.8,-236.39 1512.32,-234.81 1513.62,-241.69"/>
</a>
</g>
</g>
<!-- Node27 -->
<g id="Node000027" class="node">
<title>Node27</title>
<g id="a_Node000027"><a xlink:title=" ">
<polygon fill="#e0e0e0" stroke="#999999" points="1659.15,-239 1594.15,-239 1594.15,-220 1659.15,-220 1659.15,-239"/>
<text text-anchor="middle" x="1626.65" y="-227" font-family="Helvetica,sans-Serif" font-size="10.00">stdexcept</text>
</a>
</g>
</g>
<!-- Node1&#45;&gt;Node27 -->
<g id="edge54_Node000001_Node000027" class="edge">
<title>Node1&#45;&gt;Node27</title>
<g id="a_edge54_Node000001_Node000027"><a xlink:title=" ">
<path fill="none" stroke="#63b8ff" d="M1212.85,-279.15C1295.53,-272.92 1446.32,-260.01 1584.13,-239.1"/>
<polygon fill="#63b8ff" stroke="#63b8ff" points="1584.67,-242.55 1594.03,-237.58 1583.61,-235.63 1584.67,-242.55"/>
</a>
</g>
</g>
<!-- Node28 -->
<g id="Node000028" class="node">
<title>Node28</title>
<g id="a_Node000028"><a xlink:title=" ">
<polygon fill="#e0e0e0" stroke="#999999" points="1730.15,-239 1677.15,-239 1677.15,-220 1730.15,-220 1730.15,-239"/>
<text text-anchor="middle" x="1703.65" y="-227" font-family="Helvetica,sans-Serif" font-size="10.00">stdint.h</text>
</a>
</g>
</g>
<!-- Node1&#45;&gt;Node28 -->
<g id="edge55_Node000001_Node000028" class="edge">
<title>Node1&#45;&gt;Node28</title>
<g id="a_edge55_Node000001_Node000028"><a xlink:title=" ">
<path fill="none" stroke="#63b8ff" d="M1212.82,-281.22C1308.54,-277.05 1497.83,-266.11 1666.9,-239.06"/>
<polygon fill="#63b8ff" stroke="#63b8ff" points="1667.67,-242.48 1676.98,-237.42 1666.55,-235.57 1667.67,-242.48"/>
</a>
</g>
</g>
<!-- Node3 -->
<g id="Node000003" class="node">
<title>Node3</title>
<g id="a_Node000003"><a xlink:href="_method_8hpp.html" target="_top" xlink:title=" ">
<polygon fill="white" stroke="#666666" points="340.65,-184 266.65,-184 266.65,-165 340.65,-165 340.65,-184"/>
<text text-anchor="middle" x="303.65" y="-172" font-family="Helvetica,sans-Serif" font-size="10.00">Method.hpp</text>
</a>
</g>
</g>
<!-- Node2&#45;&gt;Node3 -->
<g id="edge2_Node000002_Node000003" class="edge">
<title>Node2&#45;&gt;Node3</title>
<g id="a_edge2_Node000002_Node000003"><a xlink:title=" ">
<path fill="none" stroke="#63b8ff" d="M303.65,-219.75C303.65,-212.8 303.65,-202.85 303.65,-194.13"/>
<polygon fill="#63b8ff" stroke="#63b8ff" points="307.15,-194.09 303.65,-184.09 300.15,-194.09 307.15,-194.09"/>
</a>
</g>
</g>
<!-- Node2&#45;&gt;Node4 -->
<g id="edge3_Node000002_Node000004" class="edge">
<title>Node2&#45;&gt;Node4</title>
<g id="a_edge3_Node000002_Node000004"><a xlink:title=" ">
<path fill="none" stroke="#63b8ff" d="M320.03,-219.98C336.22,-211.57 361.21,-198.59 380.03,-188.81"/>
<polygon fill="#63b8ff" stroke="#63b8ff" points="381.7,-191.89 388.96,-184.17 378.47,-185.68 381.7,-191.89"/>
</a>
</g>
</g>
<!-- Node2&#45;&gt;Node5 -->
<g id="edge6_Node000002_Node000005" class="edge">
<title>Node2&#45;&gt;Node5</title>
<g id="a_edge6_Node000002_Node000005"><a xlink:title=" ">
<path fill="none" stroke="#63b8ff" d="M260.54,-219.99C220.45,-210.2 170.16,-191.92 193.65,-165 230.19,-123.11 400.02,-119.23 478.58,-119.75"/>
<polygon fill="#63b8ff" stroke="#63b8ff" points="478.56,-123.25 488.59,-119.84 478.62,-116.25 478.56,-123.25"/>
</a>
</g>
</g>
<!-- Node6 -->
<g id="Node000006" class="node">
<title>Node6</title>
<g id="a_Node000006"><a xlink:title=" ">
<polygon fill="#e0e0e0" stroke="#999999" points="677.15,-129 622.15,-129 622.15,-110 677.15,-110 677.15,-129"/>
<text text-anchor="middle" x="649.65" y="-117" font-family="Helvetica,sans-Serif" font-size="10.00">fstream</text>
</a>
</g>
</g>
<!-- Node2&#45;&gt;Node6 -->
<g id="edge5_Node000002_Node000006" class="edge">
<title>Node2&#45;&gt;Node6</title>
<g id="a_edge5_Node000002_Node000006"><a xlink:title=" ">
<path fill="none" stroke="#63b8ff" d="M335.86,-219.94C367.89,-211.32 418.36,-197.4 461.65,-184 515.94,-167.2 578.34,-145.68 615.84,-132.5"/>
<polygon fill="#63b8ff" stroke="#63b8ff" points="617.47,-135.64 625.73,-129.01 615.14,-129.04 617.47,-135.64"/>
</a>
</g>
</g>
<!-- Node2&#45;&gt;Node7 -->
<g id="edge7_Node000002_Node000007" class="edge">
<title>Node2&#45;&gt;Node7</title>
<g id="a_edge7_Node000002_Node000007"><a xlink:title=" ">
<path fill="none" stroke="#63b8ff" d="M260.35,-223.43C205.1,-216.33 113.28,-202.23 84.65,-184 67.16,-172.87 53.94,-152.75 46.04,-138.13"/>
<polygon fill="#63b8ff" stroke="#63b8ff" points="49.09,-136.4 41.44,-129.07 42.85,-139.57 49.09,-136.4"/>
</a>
</g>
</g>
<!-- Node8 -->
<g id="Node000008" class="node">
<title>Node8</title>
<g id="a_Node000008"><a xlink:title=" ">
<polygon fill="#e0e0e0" stroke="#999999" points="513.65,-19 469.65,-19 469.65,0 513.65,0 513.65,-19"/>
<text text-anchor="middle" x="491.65" y="-7" font-family="Helvetica,sans-Serif" font-size="10.00">string</text>
</a>
</g>
</g>
<!-- Node2&#45;&gt;Node8 -->
<g id="edge8_Node000002_Node000008" class="edge">
<title>Node2&#45;&gt;Node8</title>
<g id="a_edge8_Node000002_Node000008"><a xlink:title=" ">
<path fill="none" stroke="#63b8ff" d="M260.4,-222.39C218.67,-214.46 164.56,-197.59 184.65,-165 246.03,-65.4 393.49,-27.73 459.15,-15.56"/>
<polygon fill="#63b8ff" stroke="#63b8ff" points="460.09,-18.95 469.33,-13.76 458.87,-12.05 460.09,-18.95"/>
</a>
</g>
</g>
<!-- Node2&#45;&gt;Node9 -->
<g id="edge9_Node000002_Node000009" class="edge">
<title>Node2&#45;&gt;Node9</title>
<g id="a_edge9_Node000002_Node000009"><a xlink:title=" ">
<path fill="none" stroke="#63b8ff" d="M346.81,-228.59C474.1,-228.39 846.15,-224.29 959.65,-184 988.5,-173.76 1016.46,-151.49 1033.36,-136.25"/>
<polygon fill="#63b8ff" stroke="#63b8ff" points="1036.2,-138.39 1041.14,-129.02 1031.43,-133.26 1036.2,-138.39"/>
</a>
</g>
</g>
<!-- Node10 -->
<g id="Node000010" class="node">
<title>Node10</title>
<g id="a_Node000010"><a xlink:title=" ">
<polygon fill="#e0e0e0" stroke="#999999" points="248.15,-184 203.15,-184 203.15,-165 248.15,-165 248.15,-184"/>
<text text-anchor="middle" x="225.65" y="-172" font-family="Helvetica,sans-Serif" font-size="10.00">utility</text>
</a>
</g>
</g>
<!-- Node2&#45;&gt;Node10 -->
<g id="edge10_Node000002_Node000010" class="edge">
<title>Node2&#45;&gt;Node10</title>
<g id="a_edge10_Node000002_Node000010"><a xlink:title=" ">
<path fill="none" stroke="#63b8ff" d="M291.11,-219.98C279.24,-211.92 261.18,-199.65 247.03,-190.03"/>
<polygon fill="#63b8ff" stroke="#63b8ff" points="248.64,-186.9 238.41,-184.17 244.71,-192.69 248.64,-186.9"/>
</a>
</g>
</g>
<!-- Node4&#45;&gt;Node5 -->
<g id="edge4_Node000004_Node000005" class="edge">
<title>Node4&#45;&gt;Node5</title>
<g id="a_edge4_Node000004_Node000005"><a xlink:title=" ">
<path fill="none" stroke="#63b8ff" d="M423.8,-164.98C441.9,-156.5 469.93,-143.35 490.83,-133.54"/>
<polygon fill="#63b8ff" stroke="#63b8ff" points="492.59,-136.59 500.16,-129.17 489.62,-130.25 492.59,-136.59"/>
</a>
</g>
</g>
<!-- Node12&#45;&gt;Node3 -->
<g id="edge13_Node000012_Node000003" class="edge">
<title>Node12&#45;&gt;Node3</title>
<g id="a_edge13_Node000012_Node000003"><a xlink:title=" ">
<path fill="none" stroke="#63b8ff" d="M186.14,-219.98C209.17,-211.27 245.18,-197.63 271.28,-187.75"/>
<polygon fill="#63b8ff" stroke="#63b8ff" points="272.63,-190.98 280.74,-184.17 270.15,-184.44 272.63,-190.98"/>
</a>
</g>
</g>
<!-- Node12&#45;&gt;Node4 -->
<g id="edge14_Node000012_Node000004" class="edge">
<title>Node12&#45;&gt;Node4</title>
<g id="a_edge14_Node000012_Node000004"><a xlink:title=" ">
<path fill="none" stroke="#63b8ff" d="M202.53,-219.98C244.39,-210.82 311.07,-196.21 356.53,-186.26"/>
<polygon fill="#63b8ff" stroke="#63b8ff" points="357.44,-189.64 366.46,-184.08 355.94,-182.8 357.44,-189.64"/>
</a>
</g>
</g>
<!-- Node12&#45;&gt;Node5 -->
<g id="edge15_Node000012_Node000005" class="edge">
<title>Node12&#45;&gt;Node5</title>
<g id="a_edge15_Node000012_Node000005"><a xlink:title=" ">
<path fill="none" stroke="#63b8ff" d="M163.77,-219.94C164.46,-206.06 168.01,-178.78 184.65,-165 228.62,-128.57 399.78,-121.82 478.56,-120.67"/>
<polygon fill="#63b8ff" stroke="#63b8ff" points="478.63,-124.17 488.59,-120.55 478.55,-117.17 478.63,-124.17"/>
</a>
</g>
</g>
<!-- Node12&#45;&gt;Node7 -->
<g id="edge16_Node000012_Node000007" class="edge">
<title>Node12&#45;&gt;Node7</title>
<g id="a_edge16_Node000012_Node000007"><a xlink:title=" ">
<path fill="none" stroke="#63b8ff" d="M111.96,-221.04C88.54,-214.96 62.58,-203.95 46.65,-184 36.76,-171.63 35.08,-153.41 35.54,-139.66"/>
<polygon fill="#63b8ff" stroke="#63b8ff" points="39.05,-139.61 36.3,-129.38 32.07,-139.1 39.05,-139.61"/>
</a>
</g>
</g>
<!-- Node12&#45;&gt;Node8 -->
<g id="edge17_Node000012_Node000008" class="edge">
<title>Node12&#45;&gt;Node8</title>
<g id="a_edge17_Node000012_Node000008"><a xlink:title=" ">
<path fill="none" stroke="#63b8ff" d="M111.87,-220.6C86.08,-214.38 55.94,-203.37 34.65,-184 8.97,-160.64 -12.28,-136.91 9.65,-110 66.93,-39.68 360.67,-17.56 459.3,-12.06"/>
<polygon fill="#63b8ff" stroke="#63b8ff" points="459.75,-15.54 469.55,-11.51 459.37,-8.55 459.75,-15.54"/>
</a>
</g>
</g>
<!-- Node14 -->
<g id="Node000014" class="node">
<title>Node14</title>
<g id="a_Node000014"><a xlink:href="_log_outputter_console_8hpp.html" target="_top" xlink:title=" ">
<polygon fill="white" stroke="#666666" points="686.65,-184 546.65,-184 546.65,-165 686.65,-165 686.65,-184"/>
<text text-anchor="middle" x="616.65" y="-172" font-family="Helvetica,sans-Serif" font-size="10.00">LogOutputterConsole.hpp</text>
</a>
</g>
</g>
<!-- Node13&#45;&gt;Node14 -->
<g id="edge19_Node000013_Node000014" class="edge">
<title>Node13&#45;&gt;Node14</title>
<g id="a_edge19_Node000013_Node000014"><a xlink:title=" ">
<path fill="none" stroke="#63b8ff" d="M831.77,-222.42C791.3,-213.59 715.66,-197.1 665.73,-186.21"/>
<polygon fill="#63b8ff" stroke="#63b8ff" points="666.31,-182.75 655.79,-184.04 664.82,-189.59 666.31,-182.75"/>
</a>
</g>
</g>
<!-- Node19 -->
<g id="Node000019" class="node">
<title>Node19</title>
<g id="a_Node000019"><a xlink:href="_log_outputter_file_8hpp.html" target="_top" xlink:title=" ">
<polygon fill="white" stroke="#666666" points="862.15,-184 743.15,-184 743.15,-165 862.15,-165 862.15,-184"/>
<text text-anchor="middle" x="802.65" y="-172" font-family="Helvetica,sans-Serif" font-size="10.00">LogOutputterFile.hpp</text>
</a>
</g>
</g>
<!-- Node13&#45;&gt;Node19 -->
<g id="edge27_Node000013_Node000019" class="edge">
<title>Node13&#45;&gt;Node19</title>
<g id="a_edge27_Node000013_Node000019"><a xlink:title=" ">
<path fill="none" stroke="#63b8ff" d="M850.49,-219.98C842.14,-212.23 829.61,-200.58 819.47,-191.14"/>
<polygon fill="#63b8ff" stroke="#63b8ff" points="821.68,-188.42 811.97,-184.17 816.91,-193.54 821.68,-188.42"/>
</a>
</g>
</g>
<!-- Node20 -->
<g id="Node000020" class="node">
<title>Node20</title>
<g id="a_Node000020"><a xlink:href="_logger_8hpp.html" target="_top" xlink:title=" ">
<polygon fill="white" stroke="#666666" points="950.65,-184 880.65,-184 880.65,-165 950.65,-165 950.65,-184"/>
<text text-anchor="middle" x="915.65" y="-172" font-family="Helvetica,sans-Serif" font-size="10.00">Logger.hpp</text>
</a>
</g>
</g>
<!-- Node13&#45;&gt;Node20 -->
<g id="edge31_Node000013_Node000020" class="edge">
<title>Node13&#45;&gt;Node20</title>
<g id="a_edge31_Node000013_Node000020"><a xlink:title=" ">
<path fill="none" stroke="#63b8ff" d="M868.64,-219.98C876.84,-212.23 889.15,-200.58 899.12,-191.14"/>
<polygon fill="#63b8ff" stroke="#63b8ff" points="901.63,-193.59 906.48,-184.17 896.82,-188.5 901.63,-193.59"/>
</a>
</g>
</g>
<!-- Node14&#45;&gt;Node5 -->
<g id="edge20_Node000014_Node000005" class="edge">
<title>Node14&#45;&gt;Node5</title>
<g id="a_edge20_Node000014_Node000005"><a xlink:title=" ">
<path fill="none" stroke="#63b8ff" d="M600.9,-164.98C585.42,-156.61 561.55,-143.7 543.51,-133.95"/>
<polygon fill="#63b8ff" stroke="#63b8ff" points="545.14,-130.85 534.68,-129.17 541.81,-137.01 545.14,-130.85"/>
</a>
</g>
</g>
<!-- Node14&#45;&gt;Node7 -->
<g id="edge21_Node000014_Node000007" class="edge">
<title>Node14&#45;&gt;Node7</title>
<g id="a_edge21_Node000014_Node000007"><a xlink:title=" ">
<path fill="none" stroke="#63b8ff" d="M546.52,-167.08C419.2,-155.43 155.08,-131.25 66.97,-123.18"/>
<polygon fill="#63b8ff" stroke="#63b8ff" points="67.16,-119.69 56.89,-122.26 66.52,-126.66 67.16,-119.69"/>
</a>
</g>
</g>
<!-- Node15 -->
<g id="Node000015" class="node">
<title>Node15</title>
<g id="a_Node000015"><a xlink:href="_a_log_outputter_8hpp.html" target="_top" xlink:title=" ">
<polygon fill="white" stroke="#666666" points="856.15,-129 749.15,-129 749.15,-110 856.15,-110 856.15,-129"/>
<text text-anchor="middle" x="802.65" y="-117" font-family="Helvetica,sans-Serif" font-size="10.00">ALogOutputter.hpp</text>
</a>
</g>
</g>
<!-- Node14&#45;&gt;Node15 -->
<g id="edge22_Node000014_Node000015" class="edge">
<title>Node14&#45;&gt;Node15</title>
<g id="a_edge22_Node000014_Node000015"><a xlink:title=" ">
<path fill="none" stroke="#63b8ff" d="M646.53,-164.98C678.03,-156.01 727.81,-141.82 762.67,-131.89"/>
<polygon fill="#63b8ff" stroke="#63b8ff" points="763.87,-135.19 772.53,-129.08 761.95,-128.46 763.87,-135.19"/>
</a>
</g>
</g>
<!-- Node16 -->
<g id="Node000016" class="node">
<title>Node16</title>
<g id="a_Node000016"><a xlink:href="_log_data_8hpp.html" target="_top" xlink:title=" ">
<polygon fill="white" stroke="#666666" points="990.65,-74 912.65,-74 912.65,-55 990.65,-55 990.65,-74"/>
<text text-anchor="middle" x="951.65" y="-62" font-family="Helvetica,sans-Serif" font-size="10.00">LogData.hpp</text>
</a>
</g>
</g>
<!-- Node15&#45;&gt;Node16 -->
<g id="edge23_Node000015_Node000016" class="edge">
<title>Node15&#45;&gt;Node16</title>
<g id="a_edge23_Node000015_Node000016"><a xlink:title=" ">
<path fill="none" stroke="#63b8ff" d="M826.58,-109.98C851.2,-101.23 889.76,-87.51 917.56,-77.62"/>
<polygon fill="#63b8ff" stroke="#63b8ff" points="919.02,-80.82 927.27,-74.17 916.68,-74.22 919.02,-80.82"/>
</a>
</g>
</g>
<!-- Node16&#45;&gt;Node8 -->
<g id="edge26_Node000016_Node000008" class="edge">
<title>Node16&#45;&gt;Node8</title>
<g id="a_edge26_Node000016_Node000008"><a xlink:title=" ">
<path fill="none" stroke="#63b8ff" d="M912.6,-57.01C907.91,-56.3 903.17,-55.61 898.65,-55 759.56,-36.26 592.92,-19.96 523.96,-13.48"/>
<polygon fill="#63b8ff" stroke="#63b8ff" points="524.03,-9.97 513.75,-12.52 523.38,-16.94 524.03,-9.97"/>
</a>
</g>
</g>
<!-- Node17 -->
<g id="Node000017" class="node">
<title>Node17</title>
<g id="a_Node000017"><a xlink:title=" ">
<polygon fill="#e0e0e0" stroke="#999999" points="1154.65,-19 1110.65,-19 1110.65,0 1154.65,0 1154.65,-19"/>
<text text-anchor="middle" x="1132.65" y="-7" font-family="Helvetica,sans-Serif" font-size="10.00">ctime</text>
</a>
</g>
</g>
<!-- Node16&#45;&gt;Node17 -->
<g id="edge24_Node000016_Node000017" class="edge">
<title>Node16&#45;&gt;Node17</title>
<g id="a_edge24_Node000016_Node000017"><a xlink:title=" ">
<path fill="none" stroke="#63b8ff" d="M980.73,-54.98C1013.51,-45.39 1066.65,-29.82 1100.6,-19.88"/>
<polygon fill="#63b8ff" stroke="#63b8ff" points="1101.87,-23.16 1110.48,-16.99 1099.9,-16.44 1101.87,-23.16"/>
</a>
</g>
</g>
<!-- Node16&#45;&gt;Node18 -->
<g id="edge25_Node000016_Node000018" class="edge">
<title>Node16&#45;&gt;Node18</title>
<g id="a_edge25_Node000016_Node000018"><a xlink:title=" ">
<path fill="none" stroke="#63b8ff" d="M990.99,-58.75C1074.75,-48.64 1269.77,-25.09 1352.47,-15.11"/>
<polygon fill="#63b8ff" stroke="#63b8ff" points="1352.94,-18.58 1362.45,-13.9 1352.1,-11.63 1352.94,-18.58"/>
</a>
</g>
</g>
<!-- Node19&#45;&gt;Node5 -->
<g id="edge29_Node000019_Node000005" class="edge">
<title>Node19&#45;&gt;Node5</title>
<g id="a_edge29_Node000019_Node000005"><a xlink:title=" ">
<path fill="none" stroke="#63b8ff" d="M757.02,-164.98C702.19,-154.75 611.06,-137.75 558.79,-127.99"/>
<polygon fill="#63b8ff" stroke="#63b8ff" points="559.35,-124.54 548.88,-126.14 558.07,-131.42 559.35,-124.54"/>
</a>
</g>
</g>
<!-- Node19&#45;&gt;Node6 -->
<g id="edge28_Node000019_Node000006" class="edge">
<title>Node19&#45;&gt;Node6</title>
<g id="a_edge28_Node000019_Node000006"><a xlink:title=" ">
<path fill="none" stroke="#63b8ff" d="M778.06,-164.98C752.6,-156.16 712.6,-142.31 684.01,-132.41"/>
<polygon fill="#63b8ff" stroke="#63b8ff" points="685.01,-129.05 674.42,-129.08 682.72,-135.66 685.01,-129.05"/>
</a>
</g>
</g>
<!-- Node19&#45;&gt;Node15 -->
<g id="edge30_Node000019_Node000015" class="edge">
<title>Node19&#45;&gt;Node15</title>
<g id="a_edge30_Node000019_Node000015"><a xlink:title=" ">
<path fill="none" stroke="#63b8ff" d="M802.65,-164.75C802.65,-157.8 802.65,-147.85 802.65,-139.13"/>
<polygon fill="#63b8ff" stroke="#63b8ff" points="806.15,-139.09 802.65,-129.09 799.15,-139.09 806.15,-139.09"/>
</a>
</g>
</g>
<!-- Node20&#45;&gt;Node8 -->
<g id="edge32_Node000020_Node000008" class="edge">
<title>Node20&#45;&gt;Node8</title>
<g id="a_edge32_Node000020_Node000008"><a xlink:title=" ">
<path fill="none" stroke="#63b8ff" d="M911.12,-164.62C903.61,-150.79 887.21,-124.19 865.65,-110 754.82,-37.09 592.48,-17.46 524.01,-12.29"/>
<polygon fill="#63b8ff" stroke="#63b8ff" points="524.07,-8.79 513.85,-11.58 523.58,-15.77 524.07,-8.79"/>
</a>
</g>
</g>
<!-- Node20&#45;&gt;Node9 -->
<g id="edge33_Node000020_Node000009" class="edge">
<title>Node20&#45;&gt;Node9</title>
<g id="a_edge33_Node000020_Node000009"><a xlink:title=" ">
<path fill="none" stroke="#63b8ff" d="M937.17,-164.98C959.12,-156.3 993.39,-142.75 1018.33,-132.88"/>
<polygon fill="#63b8ff" stroke="#63b8ff" points="1019.71,-136.1 1027.72,-129.17 1017.14,-129.59 1019.71,-136.1"/>
</a>
</g>
</g>
<!-- Node20&#45;&gt;Node15 -->
<g id="edge34_Node000020_Node000015" class="edge">
<title>Node20&#45;&gt;Node15</title>
<g id="a_edge34_Node000020_Node000015"><a xlink:title=" ">
<path fill="none" stroke="#63b8ff" d="M897.49,-164.98C879.39,-156.5 851.36,-143.35 830.46,-133.54"/>
<polygon fill="#63b8ff" stroke="#63b8ff" points="831.67,-130.25 821.13,-129.17 828.7,-136.59 831.67,-130.25"/>
</a>
</g>
</g>
<!-- Node20&#45;&gt;Node16 -->
<g id="edge35_Node000020_Node000016" class="edge">
<title>Node20&#45;&gt;Node16</title>
<g id="a_edge35_Node000020_Node000016"><a xlink:title=" ">
<path fill="none" stroke="#63b8ff" d="M918.59,-164.66C924.45,-147.09 937.66,-107.45 945.49,-83.95"/>
<polygon fill="#63b8ff" stroke="#63b8ff" points="948.92,-84.75 948.76,-74.16 942.28,-82.54 948.92,-84.75"/>
</a>
</g>
</g>
<!-- Node22&#45;&gt;Node3 -->
<g id="edge39_Node000022_Node000003" class="edge">
<title>Node22&#45;&gt;Node3</title>
<g id="a_edge39_Node000022_Node000003"><a xlink:title=" ">
<path fill="none" stroke="#63b8ff" d="M1113.42,-227.04C979.3,-221.69 520.29,-202.54 350.8,-183.8"/>
<polygon fill="#63b8ff" stroke="#63b8ff" points="351.12,-180.31 340.78,-182.65 350.32,-187.27 351.12,-180.31"/>
</a>
</g>
</g>
<!-- Node22&#45;&gt;Node4 -->
<g id="edge40_Node000022_Node000004" class="edge">
<title>Node22&#45;&gt;Node4</title>
<g id="a_edge40_Node000022_Node000004"><a xlink:title=" ">
<path fill="none" stroke="#63b8ff" d="M1113.45,-225.85C992.29,-217.23 608.47,-189.93 462.62,-179.55"/>
<polygon fill="#63b8ff" stroke="#63b8ff" points="462.76,-176.05 452.54,-178.84 462.27,-183.04 462.76,-176.05"/>
</a>
</g>
</g>
<!-- Node22&#45;&gt;Node5 -->
<g id="edge45_Node000022_Node000005" class="edge">
<title>Node22&#45;&gt;Node5</title>
<g id="a_edge45_Node000022_Node000005"><a xlink:title=" ">
<path fill="none" stroke="#63b8ff" d="M1113.38,-228.79C1039.58,-228.43 870.24,-222.99 734.65,-184 716.11,-178.67 713.76,-171.61 695.65,-165 649.86,-148.3 595.19,-135.6 558.85,-128.13"/>
<polygon fill="#63b8ff" stroke="#63b8ff" points="559.14,-124.61 548.65,-126.07 557.76,-131.48 559.14,-124.61"/>
</a>
</g>
</g>
<!-- Node22&#45;&gt;Node9 -->
<g id="edge48_Node000022_Node000009" class="edge">
<title>Node22&#45;&gt;Node9</title>
<g id="a_edge48_Node000022_Node000009"><a xlink:title=" ">
<path fill="none" stroke="#63b8ff" d="M1144.82,-219.84C1136.12,-207.18 1118.91,-183.17 1101.65,-165 1091.54,-154.37 1079.09,-143.64 1068.91,-135.39"/>
<polygon fill="#63b8ff" stroke="#63b8ff" points="1070.99,-132.57 1060.99,-129.09 1066.63,-138.05 1070.99,-132.57"/>
</a>
</g>
</g>
<!-- Node22&#45;&gt;Node11 -->
<g id="edge41_Node000022_Node000011" class="edge">
<title>Node22&#45;&gt;Node11</title>
<g id="a_edge41_Node000022_Node000011"><a xlink:title=" ">
<path fill="none" stroke="#63b8ff" d="M1134.42,-219.98C1118.46,-211.61 1093.87,-198.7 1075.27,-188.95"/>
<polygon fill="#63b8ff" stroke="#63b8ff" points="1076.65,-185.72 1066.17,-184.17 1073.4,-191.92 1076.65,-185.72"/>
</a>
</g>
</g>
<!-- Node22&#45;&gt;Node17 -->
<g id="edge44_Node000022_Node000017" class="edge">
<title>Node22&#45;&gt;Node17</title>
<g id="a_edge44_Node000022_Node000017"><a xlink:title=" ">
<path fill="none" stroke="#63b8ff" d="M1187.79,-226.96C1236.88,-223.16 1315.02,-210.07 1295.65,-165 1267.18,-98.79 1194.84,-47.65 1156.83,-24.33"/>
<polygon fill="#63b8ff" stroke="#63b8ff" points="1158.33,-21.15 1147.95,-19.01 1154.73,-27.15 1158.33,-21.15"/>
</a>
</g>
</g>
<!-- Node22&#45;&gt;Node18 -->
<g id="edge46_Node000022_Node000018" class="edge">
<title>Node22&#45;&gt;Node18</title>
<g id="a_edge46_Node000022_Node000018"><a xlink:title=" ">
<path fill="none" stroke="#63b8ff" d="M1187.78,-226.91C1223.13,-223.55 1275.95,-213.52 1310.65,-184 1359.43,-142.49 1380.13,-64.89 1387.36,-29.26"/>
<polygon fill="#63b8ff" stroke="#63b8ff" points="1390.84,-29.74 1389.26,-19.26 1383.96,-28.44 1390.84,-29.74"/>
</a>
</g>
</g>
<!-- Node23 -->
<g id="Node000023" class="node">
<title>Node23</title>
<g id="a_Node000023"><a xlink:title=" ">
<polygon fill="#e0e0e0" stroke="#999999" points="1212.65,-184 1148.65,-184 1148.65,-165 1212.65,-165 1212.65,-184"/>
<text text-anchor="middle" x="1180.65" y="-172" font-family="Helvetica,sans-Serif" font-size="10.00">algorithm</text>
</a>
</g>
</g>
<!-- Node22&#45;&gt;Node23 -->
<g id="edge42_Node000022_Node000023" class="edge">
<title>Node22&#45;&gt;Node23</title>
<g id="a_edge42_Node000022_Node000023"><a xlink:title=" ">
<path fill="none" stroke="#63b8ff" d="M1155.6,-219.75C1159.71,-212.49 1165.67,-201.95 1170.75,-192.98"/>
<polygon fill="#63b8ff" stroke="#63b8ff" points="1173.9,-194.52 1175.78,-184.09 1167.81,-191.07 1173.9,-194.52"/>
</a>
</g>
</g>
<!-- Node22&#45;&gt;Node24 -->
<g id="edge43_Node000022_Node000024" class="edge">
<title>Node22&#45;&gt;Node24</title>
<g id="a_edge43_Node000022_Node000024"><a xlink:title=" ">
<path fill="none" stroke="#63b8ff" d="M1187.74,-222.43C1237.28,-214.23 1327.73,-198.9 1404.65,-184 1405.9,-183.76 1407.18,-183.51 1408.46,-183.25"/>
<polygon fill="#63b8ff" stroke="#63b8ff" points="1409.33,-186.65 1418.42,-181.21 1407.92,-179.79 1409.33,-186.65"/>
</a>
</g>
</g>
<!-- Node25 -->
<g id="Node000025" class="node">
<title>Node25</title>
<g id="a_Node000025"><a xlink:title=" ">
<polygon fill="#e0e0e0" stroke="#999999" points="1286.65,-184 1230.65,-184 1230.65,-165 1286.65,-165 1286.65,-184"/>
<text text-anchor="middle" x="1258.65" y="-172" font-family="Helvetica,sans-Serif" font-size="10.00">unistd.h</text>
</a>
</g>
</g>
<!-- Node22&#45;&gt;Node25 -->
<g id="edge47_Node000022_Node000025" class="edge">
<title>Node22&#45;&gt;Node25</title>
<g id="a_edge47_Node000022_Node000025"><a xlink:title=" ">
<path fill="none" stroke="#63b8ff" d="M1168,-219.98C1185.21,-211.54 1211.84,-198.47 1231.79,-188.68"/>
<polygon fill="#63b8ff" stroke="#63b8ff" points="1233.54,-191.72 1240.98,-184.17 1230.46,-185.43 1233.54,-191.72"/>
</a>
</g>
</g>
</g>
</svg>

<g id="navigator" transform="translate(0 0)" fill="#404254">
  <rect fill="#f2f5e9" fill-opacity="0.5" stroke="#606060" stroke-width=".5" x="0" y="0" width="60" height="60"/>
  <use id="zoomplus" xlink:href="#zoomPlus" x="17" y="9" onmousedown="handleZoom(evt,'in')"/>
  <use id="zoomminus" xlink:href="#zoomMin" x="42" y="9" onmousedown="handleZoom(evt,'out')"/>
  <use id="reset" xlink:href="#resetDef" x="30" y="36" onmousedown="handleReset()"/>
   <use id="arrowup" xlink:href="#arrowUp" x="0" y="0" onmousedown="handlePan(0,-1)"/>
  <use id="arrowright" xlink:href="#arrowRight" x="0" y="0" onmousedown="handlePan(1,0)"/>
  <use id="arrowdown" xlink:href="#arrowDown" x="0" y="0" onmousedown="handlePan(0,1)"/>
  <use id="arrowleft" xlink:href="#arrowLeft" x="0" y="0" onmousedown="handlePan(-1,0)"/>
</g>
<svg viewBox="0 0 15 15" width="100%" height="30px" preserveAspectRatio="xMaxYMin meet">
 <g id="arrow_out" transform="scale(0.3 0.3)">
  <a xlink:href="_request_parser_8hpp__incl_org.svg" target="_base">
   <rect id="button" ry="5" rx="5" y="6" x="6" height="38" width="38"
        fill="#f2f5e9" fill-opacity="0.5" stroke="#606060" stroke-width="1.0"/>
   <path id="arrow"
     d="M 11.500037,31.436501 C 11.940474,20.09759 22.043105,11.32322 32.158766,21.979434 L 37.068811,17.246167 C 37.068811,17.246167 37.088388,32 37.088388,32 L 22.160133,31.978069 C 22.160133,31.978069 26.997745,27.140456 26.997745,27.140456 C 18.528582,18.264221 13.291696,25.230495 11.500037,31.436501 z"
     style="fill:#404040;"/>
  </a>
 </g>
</svg>

<style type='text/css'>
<![CDATA[
[data-mouse-over-selected='false'] { opacity: 0.7; }
[data-mouse-over-selected='true']  { opacity: 1.0; }
]]>
</style>
<script type="application/ecmascript"><![CDATA[
document.addEventListener('DOMContentLoaded', (event) => {
  highlightEdges();
  highlightAdjacentNodes();
});
]]></script>
</svg>
