<?xml version="1.0" encoding="UTF-8" standalone="no"?>
<!DOCTYPE svg PUBLIC "-//W3C//DTD SVG 1.1//EN"
 "http://www.w3.org/Graphics/SVG/1.1/DTD/svg11.dtd">
<!-- Generated by graphviz version 2.43.0 (0)
 -->
<!-- Title: src/ResponseBodyHandler.cpp Pages: 1 -->
<!--zoomable 308 -->
<svg id="main" version="1.1" xmlns="http://www.w3.org/2000/svg" xmlns:xlink="http://www.w3.org/1999/xlink" xml:space="preserve" onload="init(evt)">
<style type="text/css"><![CDATA[
.edge:hover path { stroke: red; }
.edge:hover polygon { stroke: red; fill: red; }
]]></style>
<script type="text/javascript"><![CDATA[
var edges = document.getElementsByTagName('g');
if (edges && edges.length) {
  for (var i=0;i<edges.length;i++) {
    if (edges[i].id.substr(0,4)=='edge') {
      edges[i].setAttribute('class','edge');
    }
  }
}
]]></script>
        <defs>
                <circle id="rim" cx="0" cy="0" r="7"/>
                <circle id="rim2" cx="0" cy="0" r="3.5"/>
                <g id="zoomPlus">
                        <use xlink:href="#rim" fill="#404040">
                                <set attributeName="fill" to="#808080" begin="zoomplus.mouseover" end="zoomplus.mouseout"/>
                        </use>
                        <path d="M-4,0h8M0,-4v8" fill="none" stroke="white" stroke-width="1.5" pointer-events="none"/>
                </g>
                <g id="zoomMin">
                        <use xlink:href="#rim" fill="#404040">
                                <set attributeName="fill" to="#808080" begin="zoomminus.mouseover" end="zoomminus.mouseout"/>
                        </use>
                        <path d="M-4,0h8" fill="none" stroke="white" stroke-width="1.5" pointer-events="none"/>
                </g>
                <g id="dirArrow">
                        <path fill="none" stroke="white" stroke-width="1.5" d="M0,-3.0v7 M-2.5,-0.5L0,-3.0L2.5,-0.5"/>
                </g>
               <g id="resetDef">
                       <use xlink:href="#rim2" fill="#404040">
                               <set attributeName="fill" to="#808080" begin="reset.mouseover" end="reset.mouseout"/>
                       </use>
               </g>
        </defs>

<script type="text/javascript">
var viewWidth = 1122;
var viewHeight = 308;
var sectionId = 'dynsection-0';
</script>
<script xlink:href="svgpan.js"/>
<svg id="graph" class="graph">
<g id="viewport">
<title>src/ResponseBodyHandler.cpp</title>
<!-- Node1 -->
<g id="node1" class="node">
<title>Node1</title>
<g id="a_node1"><a xlink:title=" ">
<polygon fill="#bfbfbf" stroke="black" points="110.47,-280.5 110.47,-299.5 274.47,-299.5 274.47,-280.5 110.47,-280.5"/>
<text text-anchor="middle" x="192.47" y="-287.5" font-family="Helvetica,sans-Serif" font-size="10.00">src/ResponseBodyHandler.cpp</text>
</a>
</g>
</g>
<!-- Node2 -->
<g id="node2" class="node">
<title>Node2</title>
<g id="a_node2"><a xlink:href="_response_body_handler_8hpp.html" target="_top" xlink:title=" ">
<polygon fill="none" stroke="black" points="243.97,-224.5 243.97,-243.5 390.97,-243.5 390.97,-224.5 243.97,-224.5"/>
<text text-anchor="middle" x="317.47" y="-231.5" font-family="Helvetica,sans-Serif" font-size="10.00">ResponseBodyHandler.hpp</text>
</a>
</g>
</g>
<!-- Node1&#45;&gt;Node2 -->
<g id="edge1" class="edge">
<title>Node1&#45;&gt;Node2</title>
<path fill="none" stroke="midnightblue" d="M212.28,-280.44C232.76,-271.6 264.95,-257.69 288.34,-247.59"/>
<polygon fill="midnightblue" stroke="midnightblue" points="289.97,-250.7 297.76,-243.52 287.19,-244.27 289.97,-250.7"/>
</g>
<!-- Node15 -->
<g id="node15" class="node">
<title>Node15</title>
<g id="a_node15"><a xlink:href="_config_file_8hpp.html" target="_top" xlink:title=" ">
<polygon fill="none" stroke="black" points="95.47,-112.5 95.47,-131.5 181.47,-131.5 181.47,-112.5 95.47,-112.5"/>
<text text-anchor="middle" x="138.47" y="-119.5" font-family="Helvetica,sans-Serif" font-size="10.00">ConfigFile.hpp</text>
</a>
</g>
</g>
<!-- Node1&#45;&gt;Node15 -->
<g id="edge43" class="edge">
<title>Node1&#45;&gt;Node15</title>
<path fill="none" stroke="midnightblue" d="M184.55,-280.4C170.03,-263.95 139.58,-226.28 128.47,-188 124,-172.58 127.46,-154.49 131.48,-141.31"/>
<polygon fill="midnightblue" stroke="midnightblue" points="134.89,-142.16 134.84,-131.57 128.27,-139.88 134.89,-142.16"/>
</g>
<!-- Node3 -->
<g id="node3" class="node">
<title>Node3</title>
<g id="a_node3"><a xlink:href="_file_system_policy_8hpp.html" target="_top" xlink:title=" ">
<polygon fill="none" stroke="black" points="785.97,-56.5 785.97,-75.5 904.97,-75.5 904.97,-56.5 785.97,-56.5"/>
<text text-anchor="middle" x="845.47" y="-63.5" font-family="Helvetica,sans-Serif" font-size="10.00">FileSystemPolicy.hpp</text>
</a>
</g>
</g>
<!-- Node2&#45;&gt;Node3 -->
<g id="edge2" class="edge">
<title>Node2&#45;&gt;Node3</title>
<path fill="none" stroke="midnightblue" d="M391.08,-227.58C458.54,-221.52 560.79,-209.6 647.47,-188 717.33,-170.59 742.33,-175.8 799.47,-132 815.88,-119.43 828.81,-99.37 836.73,-84.86"/>
<polygon fill="midnightblue" stroke="midnightblue" points="839.9,-86.35 841.39,-75.86 833.68,-83.13 839.9,-86.35"/>
</g>
<!-- Node13 -->
<g id="node13" class="node">
<title>Node13</title>
<g id="a_node13"><a xlink:href="_h_t_t_p_response_8hpp.html" target="_top" xlink:title=" ">
<polygon fill="none" stroke="black" points="221.47,-168.5 221.47,-187.5 331.47,-187.5 331.47,-168.5 221.47,-168.5"/>
<text text-anchor="middle" x="276.47" y="-175.5" font-family="Helvetica,sans-Serif" font-size="10.00">HTTPResponse.hpp</text>
</a>
</g>
</g>
<!-- Node2&#45;&gt;Node13 -->
<g id="edge12" class="edge">
<title>Node2&#45;&gt;Node13</title>
<path fill="none" stroke="midnightblue" d="M310.7,-224.08C304.91,-216.46 296.41,-205.26 289.33,-195.94"/>
<polygon fill="midnightblue" stroke="midnightblue" points="291.95,-193.6 283.12,-187.75 286.38,-197.83 291.95,-193.6"/>
</g>
<!-- Node14 -->
<g id="node14" class="node">
<title>Node14</title>
<g id="a_node14"><a xlink:href="_status_code_8hpp.html" target="_top" xlink:title=" ">
<polygon fill="none" stroke="black" points="275.97,-56.5 275.97,-75.5 368.97,-75.5 368.97,-56.5 275.97,-56.5"/>
<text text-anchor="middle" x="322.47" y="-63.5" font-family="Helvetica,sans-Serif" font-size="10.00">StatusCode.hpp</text>
</a>
</g>
</g>
<!-- Node2&#45;&gt;Node14 -->
<g id="edge41" class="edge">
<title>Node2&#45;&gt;Node14</title>
<path fill="none" stroke="midnightblue" d="M323.58,-224.19C329.23,-215.46 337.23,-201.48 340.47,-188 349.14,-152.01 337.66,-108.93 329.45,-85.11"/>
<polygon fill="midnightblue" stroke="midnightblue" points="332.7,-83.81 325.99,-75.61 326.12,-86.2 332.7,-83.81"/>
</g>
<!-- Node19 -->
<g id="node19" class="node">
<title>Node19</title>
<g id="a_node19"><a xlink:href="_autoindex_handler_8hpp.html" target="_top" xlink:title=" ">
<polygon fill="none" stroke="black" points="512.97,-168.5 512.97,-187.5 637.97,-187.5 637.97,-168.5 512.97,-168.5"/>
<text text-anchor="middle" x="575.47" y="-175.5" font-family="Helvetica,sans-Serif" font-size="10.00">AutoindexHandler.hpp</text>
</a>
</g>
</g>
<!-- Node2&#45;&gt;Node19 -->
<g id="edge24" class="edge">
<title>Node2&#45;&gt;Node19</title>
<path fill="none" stroke="midnightblue" d="M358.35,-224.44C403.45,-215 476.08,-199.8 524.77,-189.61"/>
<polygon fill="midnightblue" stroke="midnightblue" points="525.71,-192.99 534.78,-187.52 524.28,-186.14 525.71,-192.99"/>
</g>
<!-- Node25 -->
<g id="node25" class="node">
<title>Node25</title>
<g id="a_node25"><a xlink:title=" ">
<polygon fill="none" stroke="#bfbfbf" points="137.97,-168.5 137.97,-187.5 202.97,-187.5 202.97,-168.5 137.97,-168.5"/>
<text text-anchor="middle" x="170.47" y="-175.5" font-family="Helvetica,sans-Serif" font-size="10.00">exception</text>
</a>
</g>
</g>
<!-- Node2&#45;&gt;Node25 -->
<g id="edge42" class="edge">
<title>Node2&#45;&gt;Node25</title>
<path fill="none" stroke="midnightblue" d="M294.18,-224.44C269.66,-215.44 230.88,-201.19 203.27,-191.05"/>
<polygon fill="midnightblue" stroke="midnightblue" points="204.25,-187.68 193.66,-187.52 201.84,-194.25 204.25,-187.68"/>
</g>
<!-- Node4 -->
<g id="node4" class="node">
<title>Node4</title>
<g id="a_node4"><a xlink:title=" ">
<polygon fill="none" stroke="#bfbfbf" points="208.47,-0.5 208.47,-19.5 252.47,-19.5 252.47,-0.5 208.47,-0.5"/>
<text text-anchor="middle" x="230.47" y="-7.5" font-family="Helvetica,sans-Serif" font-size="10.00">string</text>
</a>
</g>
</g>
<!-- Node3&#45;&gt;Node4 -->
<g id="edge3" class="edge">
<title>Node3&#45;&gt;Node4</title>
<path fill="none" stroke="midnightblue" d="M785.94,-59.77C658.25,-48.56 361.6,-22.51 263,-13.86"/>
<polygon fill="midnightblue" stroke="midnightblue" points="263.03,-10.35 252.76,-12.96 262.42,-17.32 263.03,-10.35"/>
</g>
<!-- Node5 -->
<g id="node5" class="node">
<title>Node5</title>
<g id="a_node5"><a xlink:title=" ">
<polygon fill="none" stroke="#bfbfbf" points="754.97,-0.5 754.97,-19.5 801.97,-19.5 801.97,-0.5 754.97,-0.5"/>
<text text-anchor="middle" x="778.47" y="-7.5" font-family="Helvetica,sans-Serif" font-size="10.00">cerrno</text>
</a>
</g>
</g>
<!-- Node3&#45;&gt;Node5 -->
<g id="edge4" class="edge">
<title>Node3&#45;&gt;Node5</title>
<path fill="none" stroke="midnightblue" d="M834.71,-56.32C824.71,-48.26 809.59,-36.08 797.54,-26.37"/>
<polygon fill="midnightblue" stroke="midnightblue" points="799.42,-23.38 789.43,-19.83 795.02,-28.83 799.42,-23.38"/>
</g>
<!-- Node6 -->
<g id="node6" class="node">
<title>Node6</title>
<g id="a_node6"><a xlink:title=" ">
<polygon fill="none" stroke="#bfbfbf" points="820.47,-0.5 820.47,-19.5 870.47,-19.5 870.47,-0.5 820.47,-0.5"/>
<text text-anchor="middle" x="845.47" y="-7.5" font-family="Helvetica,sans-Serif" font-size="10.00">cstring</text>
</a>
</g>
</g>
<!-- Node3&#45;&gt;Node6 -->
<g id="edge5" class="edge">
<title>Node3&#45;&gt;Node6</title>
<path fill="none" stroke="midnightblue" d="M845.47,-56.08C845.47,-49.01 845.47,-38.86 845.47,-29.99"/>
<polygon fill="midnightblue" stroke="midnightblue" points="848.97,-29.75 845.47,-19.75 841.97,-29.75 848.97,-29.75"/>
</g>
<!-- Node7 -->
<g id="node7" class="node">
<title>Node7</title>
<g id="a_node7"><a xlink:title=" ">
<polygon fill="none" stroke="#bfbfbf" points="888.47,-0.5 888.47,-19.5 952.47,-19.5 952.47,-0.5 888.47,-0.5"/>
<text text-anchor="middle" x="920.47" y="-7.5" font-family="Helvetica,sans-Serif" font-size="10.00">sys/stat.h</text>
</a>
</g>
</g>
<!-- Node3&#45;&gt;Node7 -->
<g id="edge6" class="edge">
<title>Node3&#45;&gt;Node7</title>
<path fill="none" stroke="midnightblue" d="M857.52,-56.32C868.94,-48.11 886.3,-35.6 899.91,-25.81"/>
<polygon fill="midnightblue" stroke="midnightblue" points="902.13,-28.52 908.2,-19.83 898.04,-22.84 902.13,-28.52"/>
</g>
<!-- Node8 -->
<g id="node8" class="node">
<title>Node8</title>
<g id="a_node8"><a xlink:title=" ">
<polygon fill="none" stroke="#bfbfbf" points="56.97,-0.5 56.97,-19.5 111.97,-19.5 111.97,-0.5 56.97,-0.5"/>
<text text-anchor="middle" x="84.47" y="-7.5" font-family="Helvetica,sans-Serif" font-size="10.00">fstream</text>
</a>
</g>
</g>
<!-- Node3&#45;&gt;Node8 -->
<g id="edge7" class="edge">
<title>Node3&#45;&gt;Node8</title>
<path fill="none" stroke="midnightblue" d="M785.78,-59.8C770.37,-58.5 753.81,-57.16 738.47,-56 499.06,-37.94 438.93,-37.37 199.47,-20 173.78,-18.14 144.87,-15.87 122.47,-14.08"/>
<polygon fill="midnightblue" stroke="midnightblue" points="122.6,-10.58 112.35,-13.27 122.04,-17.56 122.6,-10.58"/>
</g>
<!-- Node9 -->
<g id="node9" class="node">
<title>Node9</title>
<g id="a_node9"><a xlink:title=" ">
<polygon fill="none" stroke="#bfbfbf" points="671.97,-0.5 671.97,-19.5 736.97,-19.5 736.97,-0.5 671.97,-0.5"/>
<text text-anchor="middle" x="704.47" y="-7.5" font-family="Helvetica,sans-Serif" font-size="10.00">stdexcept</text>
</a>
</g>
</g>
<!-- Node3&#45;&gt;Node9 -->
<g id="edge8" class="edge">
<title>Node3&#45;&gt;Node9</title>
<path fill="none" stroke="midnightblue" d="M823.13,-56.44C799.72,-47.48 762.74,-33.31 736.28,-23.18"/>
<polygon fill="midnightblue" stroke="midnightblue" points="737.3,-19.82 726.71,-19.52 734.8,-26.36 737.3,-19.82"/>
</g>
<!-- Node10 -->
<g id="node10" class="node">
<title>Node10</title>
<g id="a_node10"><a xlink:title=" ">
<polygon fill="none" stroke="#bfbfbf" points="381.47,-0.5 381.47,-19.5 441.47,-19.5 441.47,-0.5 381.47,-0.5"/>
<text text-anchor="middle" x="411.47" y="-7.5" font-family="Helvetica,sans-Serif" font-size="10.00">iostream</text>
</a>
</g>
</g>
<!-- Node3&#45;&gt;Node10 -->
<g id="edge9" class="edge">
<title>Node3&#45;&gt;Node10</title>
<path fill="none" stroke="midnightblue" d="M785.58,-57.55C695.75,-46.37 528.48,-25.56 451.79,-16.02"/>
<polygon fill="midnightblue" stroke="midnightblue" points="451.94,-12.51 441.58,-14.75 451.07,-19.45 451.94,-12.51"/>
</g>
<!-- Node11 -->
<g id="node11" class="node">
<title>Node11</title>
<g id="a_node11"><a xlink:title=" ">
<polygon fill="none" stroke="#bfbfbf" points="970.47,-0.5 970.47,-19.5 1042.47,-19.5 1042.47,-0.5 970.47,-0.5"/>
<text text-anchor="middle" x="1006.47" y="-7.5" font-family="Helvetica,sans-Serif" font-size="10.00">sys/types.h</text>
</a>
</g>
</g>
<!-- Node3&#45;&gt;Node11 -->
<g id="edge10" class="edge">
<title>Node3&#45;&gt;Node11</title>
<path fill="none" stroke="midnightblue" d="M870.98,-56.44C898.07,-47.36 941.06,-32.94 971.34,-22.78"/>
<polygon fill="midnightblue" stroke="midnightblue" points="972.71,-26.01 981.08,-19.52 970.49,-19.38 972.71,-26.01"/>
</g>
<!-- Node12 -->
<g id="node12" class="node">
<title>Node12</title>
<g id="a_node12"><a xlink:title=" ">
<polygon fill="none" stroke="#bfbfbf" points="1060.47,-0.5 1060.47,-19.5 1114.47,-19.5 1114.47,-0.5 1060.47,-0.5"/>
<text text-anchor="middle" x="1087.47" y="-7.5" font-family="Helvetica,sans-Serif" font-size="10.00">dirent.h</text>
</a>
</g>
</g>
<!-- Node3&#45;&gt;Node12 -->
<g id="edge11" class="edge">
<title>Node3&#45;&gt;Node12</title>
<path fill="none" stroke="midnightblue" d="M886.2,-56.48C925.7,-48.13 987.58,-34.83 1050.3,-20.22"/>
<polygon fill="midnightblue" stroke="midnightblue" points="1051.43,-23.55 1060.37,-17.87 1049.83,-16.74 1051.43,-23.55"/>
</g>
<!-- Node13&#45;&gt;Node4 -->
<g id="edge15" class="edge">
<title>Node13&#45;&gt;Node4</title>
<path fill="none" stroke="midnightblue" d="M274,-168.08C266.76,-141.95 245.49,-65.21 235.62,-29.58"/>
<polygon fill="midnightblue" stroke="midnightblue" points="238.89,-28.27 232.85,-19.57 232.14,-30.14 238.89,-28.27"/>
</g>
<!-- Node13&#45;&gt;Node14 -->
<g id="edge13" class="edge">
<title>Node13&#45;&gt;Node14</title>
<path fill="none" stroke="midnightblue" d="M280.08,-168.37C287.57,-150.46 304.94,-108.92 314.97,-84.95"/>
<polygon fill="midnightblue" stroke="midnightblue" points="318.25,-86.17 318.88,-75.59 311.79,-83.47 318.25,-86.17"/>
</g>
<!-- Node13&#45;&gt;Node15 -->
<g id="edge16" class="edge">
<title>Node13&#45;&gt;Node15</title>
<path fill="none" stroke="midnightblue" d="M254.61,-168.44C231.69,-159.48 195.5,-145.31 169.61,-135.18"/>
<polygon fill="midnightblue" stroke="midnightblue" points="170.82,-131.9 160.24,-131.52 168.27,-138.42 170.82,-131.9"/>
</g>
<!-- Node14&#45;&gt;Node10 -->
<g id="edge14" class="edge">
<title>Node14&#45;&gt;Node10</title>
<path fill="none" stroke="midnightblue" d="M336.77,-56.32C350.66,-47.9 371.96,-34.97 388.28,-25.07"/>
<polygon fill="midnightblue" stroke="midnightblue" points="390.47,-27.83 397.21,-19.65 386.84,-21.85 390.47,-27.83"/>
</g>
<!-- Node15&#45;&gt;Node4 -->
<g id="edge22" class="edge">
<title>Node15&#45;&gt;Node4</title>
<path fill="none" stroke="midnightblue" d="M145.69,-112.37C161.01,-94.05 196.98,-51.05 216.79,-27.36"/>
<polygon fill="midnightblue" stroke="midnightblue" points="219.56,-29.51 223.29,-19.59 214.19,-25.02 219.56,-29.51"/>
</g>
<!-- Node15&#45;&gt;Node8 -->
<g id="edge19" class="edge">
<title>Node15&#45;&gt;Node8</title>
<path fill="none" stroke="midnightblue" d="M95.17,-119.09C64.37,-115.19 24.96,-104.49 4.47,-76 -11.58,-53.68 20.45,-34.74 48.63,-23.16"/>
<polygon fill="midnightblue" stroke="midnightblue" points="49.92,-26.41 57.96,-19.52 47.37,-19.89 49.92,-26.41"/>
</g>
<!-- Node15&#45;&gt;Node10 -->
<g id="edge20" class="edge">
<title>Node15&#45;&gt;Node10</title>
<path fill="none" stroke="midnightblue" d="M153.45,-112.34C176.96,-98.99 224.21,-73.15 266.47,-56 301.1,-41.95 341.85,-29.66 371.32,-21.49"/>
<polygon fill="midnightblue" stroke="midnightblue" points="372.52,-24.79 381.24,-18.78 370.67,-18.04 372.52,-24.79"/>
</g>
<!-- Node15&#45;&gt;Node14 -->
<g id="edge18" class="edge">
<title>Node15&#45;&gt;Node14</title>
<path fill="none" stroke="midnightblue" d="M167.63,-112.44C198.99,-103.24 249,-88.56 283.67,-78.39"/>
<polygon fill="midnightblue" stroke="midnightblue" points="284.84,-81.69 293.45,-75.52 282.87,-74.97 284.84,-81.69"/>
</g>
<!-- Node16 -->
<g id="node16" class="node">
<title>Node16</title>
<g id="a_node16"><a xlink:href="_method_8hpp.html" target="_top" xlink:title=" ">
<polygon fill="none" stroke="black" points="13.47,-56.5 13.47,-75.5 87.47,-75.5 87.47,-56.5 13.47,-56.5"/>
<text text-anchor="middle" x="50.47" y="-63.5" font-family="Helvetica,sans-Serif" font-size="10.00">Method.hpp</text>
</a>
</g>
</g>
<!-- Node15&#45;&gt;Node16 -->
<g id="edge17" class="edge">
<title>Node15&#45;&gt;Node16</title>
<path fill="none" stroke="midnightblue" d="M124.33,-112.32C110.61,-103.9 89.54,-90.97 73.41,-81.07"/>
<polygon fill="midnightblue" stroke="midnightblue" points="74.93,-77.9 64.58,-75.65 71.27,-83.87 74.93,-77.9"/>
</g>
<!-- Node17 -->
<g id="node17" class="node">
<title>Node17</title>
<g id="a_node17"><a xlink:title=" ">
<polygon fill="none" stroke="#bfbfbf" points="105.47,-56.5 105.47,-75.5 143.47,-75.5 143.47,-56.5 105.47,-56.5"/>
<text text-anchor="middle" x="124.47" y="-63.5" font-family="Helvetica,sans-Serif" font-size="10.00">map</text>
</a>
</g>
</g>
<!-- Node15&#45;&gt;Node17 -->
<g id="edge21" class="edge">
<title>Node15&#45;&gt;Node17</title>
<path fill="none" stroke="midnightblue" d="M136.16,-112.08C134.31,-104.93 131.64,-94.64 129.32,-85.69"/>
<polygon fill="midnightblue" stroke="midnightblue" points="132.64,-84.55 126.74,-75.75 125.86,-86.31 132.64,-84.55"/>
</g>
<!-- Node18 -->
<g id="node18" class="node">
<title>Node18</title>
<g id="a_node18"><a xlink:title=" ">
<polygon fill="none" stroke="#bfbfbf" points="425.97,-56.5 425.97,-75.5 472.97,-75.5 472.97,-56.5 425.97,-56.5"/>
<text text-anchor="middle" x="449.47" y="-63.5" font-family="Helvetica,sans-Serif" font-size="10.00">vector</text>
</a>
</g>
</g>
<!-- Node15&#45;&gt;Node18 -->
<g id="edge23" class="edge">
<title>Node15&#45;&gt;Node18</title>
<path fill="none" stroke="midnightblue" d="M181.72,-113.49C244.41,-102.61 359.23,-82.67 415.94,-72.82"/>
<polygon fill="midnightblue" stroke="midnightblue" points="416.58,-76.26 425.83,-71.1 415.38,-69.37 416.58,-76.26"/>
</g>
<!-- Node19&#45;&gt;Node3 -->
<g id="edge25" class="edge">
<title>Node19&#45;&gt;Node3</title>
<path fill="none" stroke="midnightblue" d="M638.21,-170.61C678.08,-164.65 729.83,-153.32 771.47,-132 795.36,-119.77 817.77,-98.11 831.54,-83.17"/>
<polygon fill="midnightblue" stroke="midnightblue" points="834.19,-85.46 838.25,-75.67 828.97,-80.79 834.19,-85.46"/>
</g>
<!-- Node19&#45;&gt;Node4 -->
<g id="edge37" class="edge">
<title>Node19&#45;&gt;Node4</title>
<path fill="none" stroke="midnightblue" d="M545.81,-168.36C522.21,-160.75 488.87,-148.34 462.47,-132 419.38,-105.33 421.62,-80.89 377.47,-56 340.87,-35.37 293.69,-23.09 262.79,-16.7"/>
<polygon fill="midnightblue" stroke="midnightblue" points="263.07,-13.19 252.58,-14.68 261.71,-20.05 263.07,-13.19"/>
</g>
<!-- Node19&#45;&gt;Node9 -->
<g id="edge40" class="edge">
<title>Node19&#45;&gt;Node9</title>
<path fill="none" stroke="midnightblue" d="M611.98,-168.48C636.63,-161.49 669.01,-149.8 693.47,-132 719.29,-113.21 727.87,-106.12 738.47,-76 744.58,-58.66 732.98,-40.2 721.71,-27.41"/>
<polygon fill="midnightblue" stroke="midnightblue" points="723.97,-24.7 714.54,-19.88 718.9,-29.53 723.97,-24.7"/>
</g>
<!-- Node19&#45;&gt;Node18 -->
<g id="edge38" class="edge">
<title>Node19&#45;&gt;Node18</title>
<path fill="none" stroke="midnightblue" d="M545.72,-168.48C525.53,-161.43 499.35,-149.69 481.47,-132 468.36,-119.03 459.77,-99.59 454.82,-85.35"/>
<polygon fill="midnightblue" stroke="midnightblue" points="458.11,-84.14 451.74,-75.67 451.44,-86.26 458.11,-84.14"/>
</g>
<!-- Node20 -->
<g id="node20" class="node">
<title>Node20</title>
<g id="a_node20"><a xlink:href="_directory_8hpp.html" target="_top" xlink:title=" ">
<polygon fill="none" stroke="black" points="582.97,-112.5 582.97,-131.5 663.97,-131.5 663.97,-112.5 582.97,-112.5"/>
<text text-anchor="middle" x="623.47" y="-119.5" font-family="Helvetica,sans-Serif" font-size="10.00">Directory.hpp</text>
</a>
</g>
</g>
<!-- Node19&#45;&gt;Node20 -->
<g id="edge26" class="edge">
<title>Node19&#45;&gt;Node20</title>
<path fill="none" stroke="midnightblue" d="M583.4,-168.08C590.32,-160.3 600.54,-148.8 608.92,-139.37"/>
<polygon fill="midnightblue" stroke="midnightblue" points="611.67,-141.55 615.69,-131.75 606.43,-136.9 611.67,-141.55"/>
</g>
<!-- Node22 -->
<g id="node22" class="node">
<title>Node22</title>
<g id="a_node22"><a xlink:href="utilities_8hpp.html" target="_top" xlink:title=" ">
<polygon fill="none" stroke="black" points="490.47,-112.5 490.47,-131.5 564.47,-131.5 564.47,-112.5 490.47,-112.5"/>
<text text-anchor="middle" x="527.47" y="-119.5" font-family="Helvetica,sans-Serif" font-size="10.00">utilities.hpp</text>
</a>
</g>
</g>
<!-- Node19&#45;&gt;Node22 -->
<g id="edge30" class="edge">
<title>Node19&#45;&gt;Node22</title>
<path fill="none" stroke="midnightblue" d="M567.55,-168.08C560.63,-160.3 550.41,-148.8 542.02,-139.37"/>
<polygon fill="midnightblue" stroke="midnightblue" points="544.51,-136.9 535.25,-131.75 539.28,-141.55 544.51,-136.9"/>
</g>
<!-- Node24 -->
<g id="node24" class="node">
<title>Node24</title>
<g id="a_node24"><a xlink:title=" ">
<polygon fill="none" stroke="#bfbfbf" points="673.47,-56.5 673.47,-75.5 729.47,-75.5 729.47,-56.5 673.47,-56.5"/>
<text text-anchor="middle" x="701.47" y="-63.5" font-family="Helvetica,sans-Serif" font-size="10.00">sstream</text>
</a>
</g>
</g>
<!-- Node19&#45;&gt;Node24 -->
<g id="edge39" class="edge">
<title>Node19&#45;&gt;Node24</title>
<path fill="none" stroke="midnightblue" d="M608.62,-168.46C629.53,-161.61 655.81,-150.08 673.47,-132 686.06,-119.11 693.41,-99.66 697.4,-85.4"/>
<polygon fill="midnightblue" stroke="midnightblue" points="700.8,-86.24 699.82,-75.69 694,-84.55 700.8,-86.24"/>
</g>
<!-- Node20&#45;&gt;Node3 -->
<g id="edge27" class="edge">
<title>Node20&#45;&gt;Node3</title>
<path fill="none" stroke="midnightblue" d="M658.65,-112.44C697.05,-103.1 758.65,-88.12 800.53,-77.93"/>
<polygon fill="midnightblue" stroke="midnightblue" points="801.57,-81.28 810.46,-75.52 799.92,-74.48 801.57,-81.28"/>
</g>
<!-- Node20&#45;&gt;Node18 -->
<g id="edge28" class="edge">
<title>Node20&#45;&gt;Node18</title>
<path fill="none" stroke="midnightblue" d="M595.9,-112.44C565.16,-102.9 515.45,-87.48 482.62,-77.29"/>
<polygon fill="midnightblue" stroke="midnightblue" points="483.6,-73.93 473.01,-74.3 481.52,-80.61 483.6,-73.93"/>
</g>
<!-- Node21 -->
<g id="node21" class="node">
<title>Node21</title>
<g id="a_node21"><a xlink:title=" ">
<polygon fill="none" stroke="#bfbfbf" points="591.47,-56.5 591.47,-75.5 655.47,-75.5 655.47,-56.5 591.47,-56.5"/>
<text text-anchor="middle" x="623.47" y="-63.5" font-family="Helvetica,sans-Serif" font-size="10.00">algorithm</text>
</a>
</g>
</g>
<!-- Node20&#45;&gt;Node21 -->
<g id="edge29" class="edge">
<title>Node20&#45;&gt;Node21</title>
<path fill="none" stroke="midnightblue" d="M623.47,-112.08C623.47,-105.01 623.47,-94.86 623.47,-85.99"/>
<polygon fill="midnightblue" stroke="midnightblue" points="626.97,-85.75 623.47,-75.75 619.97,-85.75 626.97,-85.75"/>
</g>
<!-- Node22&#45;&gt;Node10 -->
<g id="edge34" class="edge">
<title>Node22&#45;&gt;Node10</title>
<path fill="none" stroke="midnightblue" d="M522.88,-112.18C515.63,-98.86 500.49,-73.3 482.47,-56 469.35,-43.4 452.16,-32.4 437.99,-24.43"/>
<polygon fill="midnightblue" stroke="midnightblue" points="439.64,-21.34 429.18,-19.64 436.3,-27.49 439.64,-21.34"/>
</g>
<!-- Node22&#45;&gt;Node14 -->
<g id="edge31" class="edge">
<title>Node22&#45;&gt;Node14</title>
<path fill="none" stroke="midnightblue" d="M494.99,-112.44C459.75,-103.16 403.37,-88.31 364.71,-78.13"/>
<polygon fill="midnightblue" stroke="midnightblue" points="365.36,-74.68 354.8,-75.52 363.58,-81.45 365.36,-74.68"/>
</g>
<!-- Node22&#45;&gt;Node18 -->
<g id="edge36" class="edge">
<title>Node22&#45;&gt;Node18</title>
<path fill="none" stroke="midnightblue" d="M514.94,-112.32C502.89,-103.98 484.45,-91.21 470.2,-81.35"/>
<polygon fill="midnightblue" stroke="midnightblue" points="472.19,-78.47 461.97,-75.65 468.2,-84.22 472.19,-78.47"/>
</g>
<!-- Node22&#45;&gt;Node21 -->
<g id="edge32" class="edge">
<title>Node22&#45;&gt;Node21</title>
<path fill="none" stroke="midnightblue" d="M542.9,-112.32C558.01,-103.82 581.29,-90.73 598.94,-80.8"/>
<polygon fill="midnightblue" stroke="midnightblue" points="601.09,-83.61 608.09,-75.65 597.65,-77.51 601.09,-83.61"/>
</g>
<!-- Node23 -->
<g id="node23" class="node">
<title>Node23</title>
<g id="a_node23"><a xlink:title=" ">
<polygon fill="none" stroke="#bfbfbf" points="529.47,-56.5 529.47,-75.5 573.47,-75.5 573.47,-56.5 529.47,-56.5"/>
<text text-anchor="middle" x="551.47" y="-63.5" font-family="Helvetica,sans-Serif" font-size="10.00">ctime</text>
</a>
</g>
</g>
<!-- Node22&#45;&gt;Node23 -->
<g id="edge33" class="edge">
<title>Node22&#45;&gt;Node23</title>
<path fill="none" stroke="midnightblue" d="M531.44,-112.08C534.69,-104.77 539.39,-94.18 543.43,-85.1"/>
<polygon fill="midnightblue" stroke="midnightblue" points="546.72,-86.31 547.58,-75.75 540.32,-83.47 546.72,-86.31"/>
</g>
<!-- Node22&#45;&gt;Node24 -->
<g id="edge35" class="edge">
<title>Node22&#45;&gt;Node24</title>
<path fill="none" stroke="midnightblue" d="M555.04,-112.44C584.57,-103.28 631.59,-88.69 664.35,-78.52"/>
<polygon fill="midnightblue" stroke="midnightblue" points="665.52,-81.82 674.03,-75.52 663.44,-75.14 665.52,-81.82"/>
</g>
</g>
</svg>
        <g id="navigator" transform="translate(0 0)" fill="#404254">
                <rect fill="#f2f5e9" fill-opacity="0.5" stroke="#606060" stroke-width=".5" x="0" y="0" width="60" height="60"/>
                <use id="zoomplus" xlink:href="#zoomPlus" x="17" y="9" onmousedown="handleZoom(evt,'in')"/>
                <use id="zoomminus" xlink:href="#zoomMin" x="42" y="9" onmousedown="handleZoom(evt,'out')"/>
                <use id="reset" xlink:href="#resetDef" x="30" y="36" onmousedown="handleReset()"/>
                <g id="arrowUp" xlink:href="#dirArrow" transform="translate(30 24)" onmousedown="handlePan(0,-1)">
                  <use xlink:href="#rim" fill="#404040">
                        <set attributeName="fill" to="#808080" begin="arrowUp.mouseover" end="arrowUp.mouseout"/>
                  </use>
                  <path fill="none" stroke="white" stroke-width="1.5" d="M0,-3.0v7 M-2.5,-0.5L0,-3.0L2.5,-0.5"/>
                </g>
                <g id="arrowRight" xlink:href="#dirArrow" transform="rotate(90) translate(36 -43)" onmousedown="handlePan(1,0)">
                  <use xlink:href="#rim" fill="#404040">
                        <set attributeName="fill" to="#808080" begin="arrowRight.mouseover" end="arrowRight.mouseout"/>
                  </use>
                  <path fill="none" stroke="white" stroke-width="1.5" d="M0,-3.0v7 M-2.5,-0.5L0,-3.0L2.5,-0.5"/>
                </g>
                <g id="arrowDown" xlink:href="#dirArrow" transform="rotate(180) translate(-30 -48)" onmousedown="handlePan(0,1)">
                  <use xlink:href="#rim" fill="#404040">
                        <set attributeName="fill" to="#808080" begin="arrowDown.mouseover" end="arrowDown.mouseout"/>
                  </use>
                  <path fill="none" stroke="white" stroke-width="1.5" d="M0,-3.0v7 M-2.5,-0.5L0,-3.0L2.5,-0.5"/>
                </g>
                <g id="arrowLeft" xlink:href="#dirArrow" transform="rotate(270) translate(-36 17)" onmousedown="handlePan(-1,0)">
                  <use xlink:href="#rim" fill="#404040">
                        <set attributeName="fill" to="#808080" begin="arrowLeft.mouseover" end="arrowLeft.mouseout"/>
                  </use>
                  <path fill="none" stroke="white" stroke-width="1.5" d="M0,-3.0v7 M-2.5,-0.5L0,-3.0L2.5,-0.5"/>
                </g>
        </g>
        <svg viewBox="0 0 15 15" width="100%" height="30px" preserveAspectRatio="xMaxYMin meet">
         <g id="arrow_out" transform="scale(0.3 0.3)">
          <a xlink:href="_response_body_handler_8cpp__incl_org.svg" target="_base">
           <rect id="button" ry="5" rx="5" y="6" x="6" height="38" width="38"
                fill="#f2f5e9" fill-opacity="0.5" stroke="#606060" stroke-width="1.0"/>
           <path id="arrow"
             d="M 11.500037,31.436501 C 11.940474,20.09759 22.043105,11.32322 32.158766,21.979434 L 37.068811,17.246167 C 37.068811,17.246167 37.088388,32 37.088388,32 L 22.160133,31.978069 C 22.160133,31.978069 26.997745,27.140456 26.997745,27.140456 C 18.528582,18.264221 13.291696,25.230495 11.500037,31.436501 z"
             style="fill:#404040;"/>
          </a>
         </g>
        </svg>
</svg>
