<?xml version="1.0" encoding="UTF-8" standalone="no"?>
<!DOCTYPE svg PUBLIC "-//W3C//DTD SVG 1.1//EN"
 "http://www.w3.org/Graphics/SVG/1.1/DTD/svg11.dtd">
<!-- Generated by graphviz version 2.43.0 (0)
 -->
<!-- Title: src/ResponseBodyHandler.cpp Pages: 1 -->
<svg width="1784pt" height="420pt"
 viewBox="0.00 0.00 1784.47 420.00" xmlns="http://www.w3.org/2000/svg" xmlns:xlink="http://www.w3.org/1999/xlink">
<g id="graph0" class="graph" transform="scale(1 1) rotate(0) translate(4 416)">
<title>src/ResponseBodyHandler.cpp</title>
<!-- Node1 -->
<g id="node1" class="node">
<title>Node1</title>
<g id="a_node1"><a xlink:title=" ">
<polygon fill="#bfbfbf" stroke="black" points="423.47,-392.5 423.47,-411.5 587.47,-411.5 587.47,-392.5 423.47,-392.5"/>
<text text-anchor="middle" x="505.47" y="-399.5" font-family="Helvetica,sans-Serif" font-size="10.00">src/ResponseBodyHandler.cpp</text>
</a>
</g>
</g>
<!-- Node2 -->
<g id="node2" class="node">
<title>Node2</title>
<g id="a_node2"><a xlink:href="_response_body_handler_8hpp.html" target="_top" xlink:title=" ">
<polygon fill="none" stroke="black" points="431.97,-336.5 431.97,-355.5 578.97,-355.5 578.97,-336.5 431.97,-336.5"/>
<text text-anchor="middle" x="505.47" y="-343.5" font-family="Helvetica,sans-Serif" font-size="10.00">ResponseBodyHandler.hpp</text>
</a>
</g>
</g>
<!-- Node1&#45;&gt;Node2 -->
<g id="edge1" class="edge">
<title>Node1&#45;&gt;Node2</title>
<path fill="none" stroke="midnightblue" d="M505.47,-392.08C505.47,-385.01 505.47,-374.86 505.47,-365.99"/>
<polygon fill="midnightblue" stroke="midnightblue" points="508.97,-365.75 505.47,-355.75 501.97,-365.75 508.97,-365.75"/>
</g>
<!-- Node3 -->
<g id="node3" class="node">
<title>Node3</title>
<g id="a_node3"><a xlink:href="_autoindex_handler_8hpp.html" target="_top" xlink:title=" ">
<polygon fill="none" stroke="black" points="308.97,-224.5 308.97,-243.5 433.97,-243.5 433.97,-224.5 308.97,-224.5"/>
<text text-anchor="middle" x="371.47" y="-231.5" font-family="Helvetica,sans-Serif" font-size="10.00">AutoindexHandler.hpp</text>
</a>
</g>
</g>
<!-- Node2&#45;&gt;Node3 -->
<g id="edge2" class="edge">
<title>Node2&#45;&gt;Node3</title>
<path fill="none" stroke="midnightblue" d="M494.95,-336.37C472.25,-317.73 418.41,-273.53 389.91,-250.13"/>
<polygon fill="midnightblue" stroke="midnightblue" points="391.89,-247.23 381.94,-243.59 387.44,-252.64 391.89,-247.23"/>
</g>
<!-- Node4 -->
<g id="node4" class="node">
<title>Node4</title>
<g id="a_node4"><a xlink:href="_file_system_policy_8hpp.html" target="_top" xlink:title=" ">
<polygon fill="none" stroke="black" points="200.97,-112.5 200.97,-131.5 319.97,-131.5 319.97,-112.5 200.97,-112.5"/>
<text text-anchor="middle" x="260.47" y="-119.5" font-family="Helvetica,sans-Serif" font-size="10.00">FileSystemPolicy.hpp</text>
</a>
</g>
</g>
<!-- Node2&#45;&gt;Node4 -->
<g id="edge56" class="edge">
<title>Node2&#45;&gt;Node4</title>
<path fill="none" stroke="midnightblue" d="M471.51,-336.41C426.71,-323.47 348,-294.88 300.47,-244 273.5,-215.13 264.69,-167.66 261.83,-141.59"/>
<polygon fill="midnightblue" stroke="midnightblue" points="265.31,-141.19 260.91,-131.55 258.34,-141.82 265.31,-141.19"/>
</g>
<!-- Node21 -->
<g id="node21" class="node">
<title>Node21</title>
<g id="a_node21"><a xlink:title=" ">
<polygon fill="none" stroke="#bfbfbf" points="458.47,-112.5 458.47,-131.5 510.47,-131.5 510.47,-112.5 458.47,-112.5"/>
<text text-anchor="middle" x="484.47" y="-119.5" font-family="Helvetica,sans-Serif" font-size="10.00">cassert</text>
</a>
</g>
</g>
<!-- Node2&#45;&gt;Node21 -->
<g id="edge84" class="edge">
<title>Node2&#45;&gt;Node21</title>
<path fill="none" stroke="midnightblue" d="M504.65,-336.3C501.56,-303.63 490.61,-187.87 486.26,-141.96"/>
<polygon fill="midnightblue" stroke="midnightblue" points="489.74,-141.51 485.31,-131.88 482.77,-142.17 489.74,-141.51"/>
</g>
<!-- Node25 -->
<g id="node25" class="node">
<title>Node25</title>
<g id="a_node25"><a xlink:href="_connection_8hpp.html" target="_top" xlink:title=" ">
<polygon fill="none" stroke="black" points="819.47,-224.5 819.47,-243.5 911.47,-243.5 911.47,-224.5 819.47,-224.5"/>
<text text-anchor="middle" x="865.47" y="-231.5" font-family="Helvetica,sans-Serif" font-size="10.00">Connection.hpp</text>
</a>
</g>
</g>
<!-- Node2&#45;&gt;Node25 -->
<g id="edge33" class="edge">
<title>Node2&#45;&gt;Node25</title>
<path fill="none" stroke="midnightblue" d="M533.42,-336.46C597.48,-316.89 754.96,-268.77 827.62,-246.57"/>
<polygon fill="midnightblue" stroke="midnightblue" points="828.75,-249.88 837.29,-243.61 826.7,-243.19 828.75,-249.88"/>
</g>
<!-- Node32 -->
<g id="node32" class="node">
<title>Node32</title>
<g id="a_node32"><a xlink:href="_log_8hpp.html" target="_top" xlink:title=" ">
<polygon fill="none" stroke="black" points="1347.97,-224.5 1347.97,-243.5 1402.97,-243.5 1402.97,-224.5 1347.97,-224.5"/>
<text text-anchor="middle" x="1375.47" y="-231.5" font-family="Helvetica,sans-Serif" font-size="10.00">Log.hpp</text>
</a>
</g>
</g>
<!-- Node2&#45;&gt;Node32 -->
<g id="edge57" class="edge">
<title>Node2&#45;&gt;Node32</title>
<path fill="none" stroke="midnightblue" d="M579.01,-344.56C698.05,-342.78 939.94,-334.76 1141.47,-300 1213.9,-287.51 1296.19,-261.89 1341.32,-246.81"/>
<polygon fill="midnightblue" stroke="midnightblue" points="1342.55,-250.1 1350.91,-243.58 1340.31,-243.46 1342.55,-250.1"/>
</g>
<!-- Node38 -->
<g id="node38" class="node">
<title>Node38</title>
<g id="a_node38"><a xlink:href="_target_resource_handler_8hpp.html" target="_top" xlink:title=" ">
<polygon fill="none" stroke="black" points="982.47,-280.5 982.47,-299.5 1132.47,-299.5 1132.47,-280.5 982.47,-280.5"/>
<text text-anchor="middle" x="1057.47" y="-287.5" font-family="Helvetica,sans-Serif" font-size="10.00">TargetResourceHandler.hpp</text>
</a>
</g>
</g>
<!-- Node2&#45;&gt;Node38 -->
<g id="edge75" class="edge">
<title>Node2&#45;&gt;Node38</title>
<path fill="none" stroke="midnightblue" d="M579.06,-337.8C680.85,-327.84 864.25,-309.9 972,-299.36"/>
<polygon fill="midnightblue" stroke="midnightblue" points="972.57,-302.82 982.18,-298.37 971.89,-295.86 972.57,-302.82"/>
</g>
<!-- Node3&#45;&gt;Node4 -->
<g id="edge3" class="edge">
<title>Node3&#45;&gt;Node4</title>
<path fill="none" stroke="midnightblue" d="M351.02,-224.36C334.71,-216.68 312.08,-204.16 296.47,-188 283.47,-174.54 273.65,-155.47 267.57,-141.47"/>
<polygon fill="midnightblue" stroke="midnightblue" points="270.69,-139.85 263.67,-131.92 264.21,-142.5 270.69,-139.85"/>
</g>
<!-- Node5 -->
<g id="node5" class="node">
<title>Node5</title>
<g id="a_node5"><a xlink:title=" ">
<polygon fill="none" stroke="#bfbfbf" points="988.47,-0.5 988.47,-19.5 1032.47,-19.5 1032.47,-0.5 988.47,-0.5"/>
<text text-anchor="middle" x="1010.47" y="-7.5" font-family="Helvetica,sans-Serif" font-size="10.00">string</text>
</a>
</g>
</g>
<!-- Node3&#45;&gt;Node5 -->
<g id="edge29" class="edge">
<title>Node3&#45;&gt;Node5</title>
<path fill="none" stroke="midnightblue" d="M367.67,-224.36C358.69,-202.48 339,-144.34 367.47,-112 409.22,-64.58 587.03,-85.6 649.47,-76 771.15,-57.29 914.91,-29.77 978.02,-17.42"/>
<polygon fill="midnightblue" stroke="midnightblue" points="979.01,-20.79 988.15,-15.43 977.66,-13.92 979.01,-20.79"/>
</g>
<!-- Node10 -->
<g id="node10" class="node">
<title>Node10</title>
<g id="a_node10"><a xlink:title=" ">
<polygon fill="none" stroke="#bfbfbf" points="28.97,-56.5 28.97,-75.5 93.97,-75.5 93.97,-56.5 28.97,-56.5"/>
<text text-anchor="middle" x="61.47" y="-63.5" font-family="Helvetica,sans-Serif" font-size="10.00">stdexcept</text>
</a>
</g>
</g>
<!-- Node3&#45;&gt;Node10 -->
<g id="edge32" class="edge">
<title>Node3&#45;&gt;Node10</title>
<path fill="none" stroke="midnightblue" d="M352.57,-224.39C333.46,-215.58 303.17,-201.33 277.47,-188 206.42,-151.14 124.44,-103.88 85.03,-80.85"/>
<polygon fill="midnightblue" stroke="midnightblue" points="86.36,-77.58 75.96,-75.54 82.82,-83.62 86.36,-77.58"/>
</g>
<!-- Node14 -->
<g id="node14" class="node">
<title>Node14</title>
<g id="a_node14"><a xlink:href="_directory_8hpp.html" target="_top" xlink:title=" ">
<polygon fill="none" stroke="black" points="376.97,-168.5 376.97,-187.5 457.97,-187.5 457.97,-168.5 376.97,-168.5"/>
<text text-anchor="middle" x="417.47" y="-175.5" font-family="Helvetica,sans-Serif" font-size="10.00">Directory.hpp</text>
</a>
</g>
</g>
<!-- Node3&#45;&gt;Node14 -->
<g id="edge13" class="edge">
<title>Node3&#45;&gt;Node14</title>
<path fill="none" stroke="midnightblue" d="M379.07,-224.08C385.7,-216.3 395.49,-204.8 403.53,-195.37"/>
<polygon fill="midnightblue" stroke="midnightblue" points="406.19,-197.63 410.01,-187.75 400.87,-193.09 406.19,-197.63"/>
</g>
<!-- Node15 -->
<g id="node15" class="node">
<title>Node15</title>
<g id="a_node15"><a xlink:title=" ">
<polygon fill="none" stroke="#bfbfbf" points="896.97,-112.5 896.97,-131.5 943.97,-131.5 943.97,-112.5 896.97,-112.5"/>
<text text-anchor="middle" x="920.47" y="-119.5" font-family="Helvetica,sans-Serif" font-size="10.00">vector</text>
</a>
</g>
</g>
<!-- Node3&#45;&gt;Node15 -->
<g id="edge30" class="edge">
<title>Node3&#45;&gt;Node15</title>
<path fill="none" stroke="midnightblue" d="M429.72,-224.48C483.19,-216.32 564.5,-203.04 634.47,-188 669.04,-180.57 677.07,-176.17 711.47,-168 773.22,-153.34 845.74,-138.18 887.08,-129.74"/>
<polygon fill="midnightblue" stroke="midnightblue" points="887.79,-133.17 896.89,-127.74 886.39,-126.31 887.79,-133.17"/>
</g>
<!-- Node17 -->
<g id="node17" class="node">
<title>Node17</title>
<g id="a_node17"><a xlink:href="utilities_8hpp.html" target="_top" xlink:title=" ">
<polygon fill="none" stroke="black" points="551.47,-168.5 551.47,-187.5 625.47,-187.5 625.47,-168.5 551.47,-168.5"/>
<text text-anchor="middle" x="588.47" y="-175.5" font-family="Helvetica,sans-Serif" font-size="10.00">utilities.hpp</text>
</a>
</g>
</g>
<!-- Node3&#45;&gt;Node17 -->
<g id="edge17" class="edge">
<title>Node3&#45;&gt;Node17</title>
<path fill="none" stroke="midnightblue" d="M405.85,-224.44C443.39,-215.1 503.6,-200.12 544.54,-189.93"/>
<polygon fill="midnightblue" stroke="midnightblue" points="545.39,-193.33 554.25,-187.52 543.7,-186.53 545.39,-193.33"/>
</g>
<!-- Node23 -->
<g id="node23" class="node">
<title>Node23</title>
<g id="a_node23"><a xlink:title=" ">
<polygon fill="none" stroke="#bfbfbf" points="510.47,-0.5 510.47,-19.5 566.47,-19.5 566.47,-0.5 510.47,-0.5"/>
<text text-anchor="middle" x="538.47" y="-7.5" font-family="Helvetica,sans-Serif" font-size="10.00">sstream</text>
</a>
</g>
</g>
<!-- Node3&#45;&gt;Node23 -->
<g id="edge31" class="edge">
<title>Node3&#45;&gt;Node23</title>
<path fill="none" stroke="midnightblue" d="M308.54,-224.81C184.63,-206.33 -71.38,-155.06 19.47,-56 51.81,-20.73 385.4,-13.02 500.04,-11.41"/>
<polygon fill="midnightblue" stroke="midnightblue" points="500.16,-14.91 510.12,-11.27 500.07,-7.91 500.16,-14.91"/>
</g>
<!-- Node4&#45;&gt;Node5 -->
<g id="edge4" class="edge">
<title>Node4&#45;&gt;Node5</title>
<path fill="none" stroke="midnightblue" d="M318.7,-112.46C468.38,-90.51 862.93,-32.64 978.33,-15.71"/>
<polygon fill="midnightblue" stroke="midnightblue" points="978.92,-19.16 988.31,-14.25 977.91,-12.24 978.92,-19.16"/>
</g>
<!-- Node6 -->
<g id="node6" class="node">
<title>Node6</title>
<g id="a_node6"><a xlink:title=" ">
<polygon fill="none" stroke="#bfbfbf" points="356.97,-56.5 356.97,-75.5 403.97,-75.5 403.97,-56.5 356.97,-56.5"/>
<text text-anchor="middle" x="380.47" y="-63.5" font-family="Helvetica,sans-Serif" font-size="10.00">cerrno</text>
</a>
</g>
</g>
<!-- Node4&#45;&gt;Node6 -->
<g id="edge5" class="edge">
<title>Node4&#45;&gt;Node6</title>
<path fill="none" stroke="midnightblue" d="M279.48,-112.44C299.06,-103.64 329.78,-89.81 352.2,-79.72"/>
<polygon fill="midnightblue" stroke="midnightblue" points="353.86,-82.81 361.54,-75.52 350.99,-76.43 353.86,-82.81"/>
</g>
<!-- Node7 -->
<g id="node7" class="node">
<title>Node7</title>
<g id="a_node7"><a xlink:title=" ">
<polygon fill="none" stroke="#bfbfbf" points="422.47,-56.5 422.47,-75.5 472.47,-75.5 472.47,-56.5 422.47,-56.5"/>
<text text-anchor="middle" x="447.47" y="-63.5" font-family="Helvetica,sans-Serif" font-size="10.00">cstring</text>
</a>
</g>
</g>
<!-- Node4&#45;&gt;Node7 -->
<g id="edge6" class="edge">
<title>Node4&#45;&gt;Node7</title>
<path fill="none" stroke="midnightblue" d="M290.1,-112.44C323.38,-102.83 377.32,-87.26 412.6,-77.07"/>
<polygon fill="midnightblue" stroke="midnightblue" points="413.83,-80.36 422.47,-74.22 411.89,-73.63 413.83,-80.36"/>
</g>
<!-- Node8 -->
<g id="node8" class="node">
<title>Node8</title>
<g id="a_node8"><a xlink:title=" ">
<polygon fill="none" stroke="#bfbfbf" points="112.47,-56.5 112.47,-75.5 176.47,-75.5 176.47,-56.5 112.47,-56.5"/>
<text text-anchor="middle" x="144.47" y="-63.5" font-family="Helvetica,sans-Serif" font-size="10.00">sys/stat.h</text>
</a>
</g>
</g>
<!-- Node4&#45;&gt;Node8 -->
<g id="edge7" class="edge">
<title>Node4&#45;&gt;Node8</title>
<path fill="none" stroke="midnightblue" d="M242.09,-112.44C223.25,-103.68 193.74,-89.94 172.09,-79.86"/>
<polygon fill="midnightblue" stroke="midnightblue" points="173.31,-76.56 162.76,-75.52 170.35,-82.91 173.31,-76.56"/>
</g>
<!-- Node9 -->
<g id="node9" class="node">
<title>Node9</title>
<g id="a_node9"><a xlink:title=" ">
<polygon fill="none" stroke="#bfbfbf" points="1038.97,-56.5 1038.97,-75.5 1093.97,-75.5 1093.97,-56.5 1038.97,-56.5"/>
<text text-anchor="middle" x="1066.47" y="-63.5" font-family="Helvetica,sans-Serif" font-size="10.00">fstream</text>
</a>
</g>
</g>
<!-- Node4&#45;&gt;Node9 -->
<g id="edge8" class="edge">
<title>Node4&#45;&gt;Node9</title>
<path fill="none" stroke="midnightblue" d="M320.15,-115.7C335.56,-114.41 352.13,-113.09 367.47,-112 644.57,-92.36 714.76,-100.56 991.47,-76 1003.59,-74.92 1016.78,-73.45 1028.68,-72"/>
<polygon fill="midnightblue" stroke="midnightblue" points="1029.24,-75.45 1038.73,-70.74 1028.37,-68.51 1029.24,-75.45"/>
</g>
<!-- Node4&#45;&gt;Node10 -->
<g id="edge9" class="edge">
<title>Node4&#45;&gt;Node10</title>
<path fill="none" stroke="midnightblue" d="M228.94,-112.44C194.88,-103.2 140.46,-88.44 102.95,-78.26"/>
<polygon fill="midnightblue" stroke="midnightblue" points="103.42,-74.76 92.85,-75.52 101.59,-81.51 103.42,-74.76"/>
</g>
<!-- Node11 -->
<g id="node11" class="node">
<title>Node11</title>
<g id="a_node11"><a xlink:title=" ">
<polygon fill="none" stroke="#bfbfbf" points="1185.47,-56.5 1185.47,-75.5 1245.47,-75.5 1245.47,-56.5 1185.47,-56.5"/>
<text text-anchor="middle" x="1215.47" y="-63.5" font-family="Helvetica,sans-Serif" font-size="10.00">iostream</text>
</a>
</g>
</g>
<!-- Node4&#45;&gt;Node11 -->
<g id="edge10" class="edge">
<title>Node4&#45;&gt;Node11</title>
<path fill="none" stroke="midnightblue" d="M320.15,-115.61C335.56,-114.32 352.12,-113.02 367.47,-112 694.25,-90.27 776.65,-97.12 1103.47,-76 1127.22,-74.46 1153.78,-72.35 1175.07,-70.55"/>
<polygon fill="midnightblue" stroke="midnightblue" points="1175.4,-74.04 1185.07,-69.7 1174.8,-67.06 1175.4,-74.04"/>
</g>
<!-- Node12 -->
<g id="node12" class="node">
<title>Node12</title>
<g id="a_node12"><a xlink:title=" ">
<polygon fill="none" stroke="#bfbfbf" points="194.47,-56.5 194.47,-75.5 266.47,-75.5 266.47,-56.5 194.47,-56.5"/>
<text text-anchor="middle" x="230.47" y="-63.5" font-family="Helvetica,sans-Serif" font-size="10.00">sys/types.h</text>
</a>
</g>
</g>
<!-- Node4&#45;&gt;Node12 -->
<g id="edge11" class="edge">
<title>Node4&#45;&gt;Node12</title>
<path fill="none" stroke="midnightblue" d="M255.52,-112.08C251.37,-104.61 245.32,-93.72 240.2,-84.52"/>
<polygon fill="midnightblue" stroke="midnightblue" points="243.25,-82.79 235.33,-75.75 237.13,-86.19 243.25,-82.79"/>
</g>
<!-- Node13 -->
<g id="node13" class="node">
<title>Node13</title>
<g id="a_node13"><a xlink:title=" ">
<polygon fill="none" stroke="#bfbfbf" points="284.47,-56.5 284.47,-75.5 338.47,-75.5 338.47,-56.5 284.47,-56.5"/>
<text text-anchor="middle" x="311.47" y="-63.5" font-family="Helvetica,sans-Serif" font-size="10.00">dirent.h</text>
</a>
</g>
</g>
<!-- Node4&#45;&gt;Node13 -->
<g id="edge12" class="edge">
<title>Node4&#45;&gt;Node13</title>
<path fill="none" stroke="midnightblue" d="M268.89,-112.08C276.32,-104.22 287.32,-92.57 296.28,-83.08"/>
<polygon fill="midnightblue" stroke="midnightblue" points="298.88,-85.42 303.2,-75.75 293.79,-80.62 298.88,-85.42"/>
</g>
<!-- Node14&#45;&gt;Node4 -->
<g id="edge14" class="edge">
<title>Node14&#45;&gt;Node4</title>
<path fill="none" stroke="midnightblue" d="M392.59,-168.44C366.18,-159.36 324.25,-144.94 294.73,-134.78"/>
<polygon fill="midnightblue" stroke="midnightblue" points="295.82,-131.46 285.23,-131.52 293.55,-138.08 295.82,-131.46"/>
</g>
<!-- Node14&#45;&gt;Node15 -->
<g id="edge15" class="edge">
<title>Node14&#45;&gt;Node15</title>
<path fill="none" stroke="midnightblue" d="M458.21,-172.63C554.96,-162.24 797.14,-136.24 886.58,-126.64"/>
<polygon fill="midnightblue" stroke="midnightblue" points="887.14,-130.1 896.71,-125.55 886.4,-123.14 887.14,-130.1"/>
</g>
<!-- Node16 -->
<g id="node16" class="node">
<title>Node16</title>
<g id="a_node16"><a xlink:title=" ">
<polygon fill="none" stroke="#bfbfbf" points="376.47,-112.5 376.47,-131.5 440.47,-131.5 440.47,-112.5 376.47,-112.5"/>
<text text-anchor="middle" x="408.47" y="-119.5" font-family="Helvetica,sans-Serif" font-size="10.00">algorithm</text>
</a>
</g>
</g>
<!-- Node14&#45;&gt;Node16 -->
<g id="edge16" class="edge">
<title>Node14&#45;&gt;Node16</title>
<path fill="none" stroke="midnightblue" d="M415.98,-168.08C414.79,-160.93 413.08,-150.64 411.58,-141.69"/>
<polygon fill="midnightblue" stroke="midnightblue" points="415.02,-141.04 409.93,-131.75 408.12,-142.19 415.02,-141.04"/>
</g>
<!-- Node17&#45;&gt;Node11 -->
<g id="edge25" class="edge">
<title>Node17&#45;&gt;Node11</title>
<path fill="none" stroke="midnightblue" d="M609.28,-168.41C630.72,-159.51 665.06,-145.08 694.47,-132 713.73,-123.44 717.13,-117.51 737.47,-112 758.49,-106.3 1063.81,-79.91 1175.19,-70.42"/>
<polygon fill="midnightblue" stroke="midnightblue" points="1175.68,-73.89 1185.35,-69.55 1175.08,-66.91 1175.68,-73.89"/>
</g>
<!-- Node17&#45;&gt;Node15 -->
<g id="edge28" class="edge">
<title>Node17&#45;&gt;Node15</title>
<path fill="none" stroke="midnightblue" d="M625.59,-170.96C690.53,-160.4 823.81,-138.72 886.48,-128.53"/>
<polygon fill="midnightblue" stroke="midnightblue" points="887.31,-131.94 896.62,-126.88 886.19,-125.03 887.31,-131.94"/>
</g>
<!-- Node17&#45;&gt;Node16 -->
<g id="edge22" class="edge">
<title>Node17&#45;&gt;Node16</title>
<path fill="none" stroke="midnightblue" d="M559.95,-168.44C529.4,-159.28 480.76,-144.69 446.87,-134.52"/>
<polygon fill="midnightblue" stroke="midnightblue" points="447.44,-131.04 436.86,-131.52 445.43,-137.74 447.44,-131.04"/>
</g>
<!-- Node18 -->
<g id="node18" class="node">
<title>Node18</title>
<g id="a_node18"><a xlink:href="_method_8hpp.html" target="_top" xlink:title=" ">
<polygon fill="none" stroke="black" points="1076.47,-112.5 1076.47,-131.5 1150.47,-131.5 1150.47,-112.5 1076.47,-112.5"/>
<text text-anchor="middle" x="1113.47" y="-119.5" font-family="Helvetica,sans-Serif" font-size="10.00">Method.hpp</text>
</a>
</g>
</g>
<!-- Node17&#45;&gt;Node18 -->
<g id="edge18" class="edge">
<title>Node17&#45;&gt;Node18</title>
<path fill="none" stroke="midnightblue" d="M625.81,-173.16C719.23,-163.55 962.98,-138.48 1066.2,-127.86"/>
<polygon fill="midnightblue" stroke="midnightblue" points="1066.73,-131.33 1076.32,-126.82 1066.02,-124.36 1066.73,-131.33"/>
</g>
<!-- Node19 -->
<g id="node19" class="node">
<title>Node19</title>
<g id="a_node19"><a xlink:href="_status_code_8hpp.html" target="_top" xlink:title=" ">
<polygon fill="none" stroke="black" points="1206.97,-112.5 1206.97,-131.5 1299.97,-131.5 1299.97,-112.5 1206.97,-112.5"/>
<text text-anchor="middle" x="1253.47" y="-119.5" font-family="Helvetica,sans-Serif" font-size="10.00">StatusCode.hpp</text>
</a>
</g>
</g>
<!-- Node17&#45;&gt;Node19 -->
<g id="edge19" class="edge">
<title>Node17&#45;&gt;Node19</title>
<path fill="none" stroke="midnightblue" d="M625.56,-174.29C716.56,-167.61 958.12,-149.57 1159.47,-132 1171.46,-130.95 1184.31,-129.77 1196.54,-128.61"/>
<polygon fill="midnightblue" stroke="midnightblue" points="1197.01,-132.08 1206.63,-127.64 1196.34,-125.11 1197.01,-132.08"/>
</g>
<!-- Node20 -->
<g id="node20" class="node">
<title>Node20</title>
<g id="a_node20"><a xlink:href="constants_8hpp.html" target="_top" xlink:title=" ">
<polygon fill="none" stroke="black" points="566.97,-112.5 566.97,-131.5 651.97,-131.5 651.97,-112.5 566.97,-112.5"/>
<text text-anchor="middle" x="609.47" y="-119.5" font-family="Helvetica,sans-Serif" font-size="10.00">constants.hpp</text>
</a>
</g>
</g>
<!-- Node17&#45;&gt;Node20 -->
<g id="edge21" class="edge">
<title>Node17&#45;&gt;Node20</title>
<path fill="none" stroke="midnightblue" d="M591.94,-168.08C594.78,-160.77 598.9,-150.18 602.43,-141.1"/>
<polygon fill="midnightblue" stroke="midnightblue" points="605.7,-142.34 606.07,-131.75 599.18,-139.8 605.7,-142.34"/>
</g>
<!-- Node17&#45;&gt;Node21 -->
<g id="edge23" class="edge">
<title>Node17&#45;&gt;Node21</title>
<path fill="none" stroke="midnightblue" d="M571.76,-168.32C555.16,-159.7 529.47,-146.36 510.25,-136.39"/>
<polygon fill="midnightblue" stroke="midnightblue" points="511.63,-133.16 501.14,-131.65 508.4,-139.37 511.63,-133.16"/>
</g>
<!-- Node22 -->
<g id="node22" class="node">
<title>Node22</title>
<g id="a_node22"><a xlink:title=" ">
<polygon fill="none" stroke="#bfbfbf" points="770.47,-0.5 770.47,-19.5 814.47,-19.5 814.47,-0.5 770.47,-0.5"/>
<text text-anchor="middle" x="792.47" y="-7.5" font-family="Helvetica,sans-Serif" font-size="10.00">ctime</text>
</a>
</g>
</g>
<!-- Node17&#45;&gt;Node22 -->
<g id="edge24" class="edge">
<title>Node17&#45;&gt;Node22</title>
<path fill="none" stroke="midnightblue" d="M604.42,-168.35C619.61,-159.85 642.85,-146.13 661.47,-132 706.45,-97.87 753.83,-50.96 777.36,-26.8"/>
<polygon fill="midnightblue" stroke="midnightblue" points="779.95,-29.15 784.39,-19.53 774.92,-24.28 779.95,-29.15"/>
</g>
<!-- Node17&#45;&gt;Node23 -->
<g id="edge26" class="edge">
<title>Node17&#45;&gt;Node23</title>
<path fill="none" stroke="midnightblue" d="M581.04,-168.33C574.07,-159.71 563.92,-145.8 558.47,-132 544.9,-97.62 540.54,-54.23 539.13,-29.85"/>
<polygon fill="midnightblue" stroke="midnightblue" points="542.62,-29.37 538.66,-19.54 535.62,-29.69 542.62,-29.37"/>
</g>
<!-- Node24 -->
<g id="node24" class="node">
<title>Node24</title>
<g id="a_node24"><a xlink:title=" ">
<polygon fill="none" stroke="#bfbfbf" points="746.47,-112.5 746.47,-131.5 802.47,-131.5 802.47,-112.5 746.47,-112.5"/>
<text text-anchor="middle" x="774.47" y="-119.5" font-family="Helvetica,sans-Serif" font-size="10.00">unistd.h</text>
</a>
</g>
</g>
<!-- Node17&#45;&gt;Node24 -->
<g id="edge27" class="edge">
<title>Node17&#45;&gt;Node24</title>
<path fill="none" stroke="midnightblue" d="M617.94,-168.44C650.01,-159.13 701.39,-144.22 736.47,-134.03"/>
<polygon fill="midnightblue" stroke="midnightblue" points="737.73,-137.31 746.35,-131.16 735.77,-130.59 737.73,-137.31"/>
</g>
<!-- Node19&#45;&gt;Node11 -->
<g id="edge20" class="edge">
<title>Node19&#45;&gt;Node11</title>
<path fill="none" stroke="midnightblue" d="M1247.19,-112.08C1241.83,-104.46 1233.95,-93.26 1227.39,-83.94"/>
<polygon fill="midnightblue" stroke="midnightblue" points="1230.25,-81.91 1221.63,-75.75 1224.52,-85.94 1230.25,-81.91"/>
</g>
<!-- Node25&#45;&gt;Node5 -->
<g id="edge54" class="edge">
<title>Node25&#45;&gt;Node5</title>
<path fill="none" stroke="midnightblue" d="M866.24,-224.16C869.23,-192.02 880.95,-81.82 903.47,-56 922.62,-34.04 954.28,-22.53 978.2,-16.67"/>
<polygon fill="midnightblue" stroke="midnightblue" points="979.25,-20.02 988.25,-14.43 977.72,-13.19 979.25,-20.02"/>
</g>
<!-- Node25&#45;&gt;Node17 -->
<g id="edge50" class="edge">
<title>Node25&#45;&gt;Node17</title>
<path fill="none" stroke="midnightblue" d="M821.58,-224.44C770.81,-214.55 687.55,-198.31 635.48,-188.17"/>
<polygon fill="midnightblue" stroke="midnightblue" points="635.99,-184.7 625.51,-186.22 634.65,-191.57 635.99,-184.7"/>
</g>
<!-- Node25&#45;&gt;Node22 -->
<g id="edge53" class="edge">
<title>Node25&#45;&gt;Node22</title>
<path fill="none" stroke="midnightblue" d="M819.3,-225.72C778.84,-218.29 724.5,-205.38 711.47,-188 706.14,-180.89 706.36,-175.27 711.47,-168 738.63,-129.35 784.31,-170.65 811.47,-132 833.39,-100.81 815.29,-53.95 802.47,-28.68"/>
<polygon fill="midnightblue" stroke="midnightblue" points="805.39,-26.72 797.59,-19.56 799.22,-30.02 805.39,-26.72"/>
</g>
<!-- Node25&#45;&gt;Node24 -->
<g id="edge55" class="edge">
<title>Node25&#45;&gt;Node24</title>
<path fill="none" stroke="midnightblue" d="M864.86,-224.12C863.54,-210.71 859.39,-185.06 846.47,-168 835.96,-154.12 819.81,-143.47 805.48,-136.02"/>
<polygon fill="midnightblue" stroke="midnightblue" points="806.92,-132.83 796.39,-131.59 803.85,-139.12 806.92,-132.83"/>
</g>
<!-- Node26 -->
<g id="node26" class="node">
<title>Node26</title>
<g id="a_node26"><a xlink:href="_config_file_8hpp.html" target="_top" xlink:title=" ">
<polygon fill="none" stroke="black" points="1014.47,-168.5 1014.47,-187.5 1100.47,-187.5 1100.47,-168.5 1014.47,-168.5"/>
<text text-anchor="middle" x="1057.47" y="-175.5" font-family="Helvetica,sans-Serif" font-size="10.00">ConfigFile.hpp</text>
</a>
</g>
</g>
<!-- Node25&#45;&gt;Node26 -->
<g id="edge34" class="edge">
<title>Node25&#45;&gt;Node26</title>
<path fill="none" stroke="midnightblue" d="M895.89,-224.44C928.75,-215.2 981.25,-200.44 1017.44,-190.26"/>
<polygon fill="midnightblue" stroke="midnightblue" points="1018.51,-193.59 1027.19,-187.52 1016.61,-186.85 1018.51,-193.59"/>
</g>
<!-- Node28 -->
<g id="node28" class="node">
<title>Node28</title>
<g id="a_node28"><a xlink:href="_h_t_t_p_request_8hpp.html" target="_top" xlink:title=" ">
<polygon fill="none" stroke="black" points="1183.97,-168.5 1183.97,-187.5 1286.97,-187.5 1286.97,-168.5 1183.97,-168.5"/>
<text text-anchor="middle" x="1235.47" y="-175.5" font-family="Helvetica,sans-Serif" font-size="10.00">HTTPRequest.hpp</text>
</a>
</g>
</g>
<!-- Node25&#45;&gt;Node28 -->
<g id="edge42" class="edge">
<title>Node25&#45;&gt;Node28</title>
<path fill="none" stroke="midnightblue" d="M911.58,-226.27C977.73,-216.62 1099.69,-198.82 1173.61,-188.03"/>
<polygon fill="midnightblue" stroke="midnightblue" points="1174.32,-191.46 1183.71,-186.55 1173.31,-184.54 1174.32,-191.46"/>
</g>
<!-- Node29 -->
<g id="node29" class="node">
<title>Node29</title>
<g id="a_node29"><a xlink:href="_socket_8hpp.html" target="_top" xlink:title=" ">
<polygon fill="none" stroke="black" points="912.47,-56.5 912.47,-75.5 982.47,-75.5 982.47,-56.5 912.47,-56.5"/>
<text text-anchor="middle" x="947.47" y="-63.5" font-family="Helvetica,sans-Serif" font-size="10.00">Socket.hpp</text>
</a>
</g>
</g>
<!-- Node25&#45;&gt;Node29 -->
<g id="edge48" class="edge">
<title>Node25&#45;&gt;Node29</title>
<path fill="none" stroke="midnightblue" d="M878.19,-224.29C899.47,-208.76 941.15,-173.95 953.47,-132 957.96,-116.71 955.71,-98.6 952.76,-85.39"/>
<polygon fill="midnightblue" stroke="midnightblue" points="956.13,-84.43 950.26,-75.61 949.35,-86.17 956.13,-84.43"/>
</g>
<!-- Node30 -->
<g id="node30" class="node">
<title>Node30</title>
<g id="a_node30"><a xlink:title=" ">
<polygon fill="none" stroke="#bfbfbf" points="719.97,-168.5 719.97,-187.5 772.97,-187.5 772.97,-168.5 719.97,-168.5"/>
<text text-anchor="middle" x="746.47" y="-175.5" font-family="Helvetica,sans-Serif" font-size="10.00">cstddef</text>
</a>
</g>
</g>
<!-- Node25&#45;&gt;Node30 -->
<g id="edge51" class="edge">
<title>Node25&#45;&gt;Node30</title>
<path fill="none" stroke="midnightblue" d="M846.61,-224.44C827.2,-215.64 796.74,-201.81 774.51,-191.72"/>
<polygon fill="midnightblue" stroke="midnightblue" points="775.79,-188.46 765.24,-187.52 772.9,-194.84 775.79,-188.46"/>
</g>
<!-- Node31 -->
<g id="node31" class="node">
<title>Node31</title>
<g id="a_node31"><a xlink:title=" ">
<polygon fill="none" stroke="#bfbfbf" points="791.47,-168.5 791.47,-187.5 837.47,-187.5 837.47,-168.5 791.47,-168.5"/>
<text text-anchor="middle" x="814.47" y="-175.5" font-family="Helvetica,sans-Serif" font-size="10.00">cstdio</text>
</a>
</g>
</g>
<!-- Node25&#45;&gt;Node31 -->
<g id="edge52" class="edge">
<title>Node25&#45;&gt;Node31</title>
<path fill="none" stroke="midnightblue" d="M857.05,-224.08C849.62,-216.22 838.62,-204.57 829.66,-195.08"/>
<polygon fill="midnightblue" stroke="midnightblue" points="832.15,-192.62 822.73,-187.75 827.06,-197.42 832.15,-192.62"/>
</g>
<!-- Node26&#45;&gt;Node5 -->
<g id="edge40" class="edge">
<title>Node26&#45;&gt;Node5</title>
<path fill="none" stroke="midnightblue" d="M1054.94,-168.08C1047.54,-141.95 1025.82,-65.21 1015.73,-29.58"/>
<polygon fill="midnightblue" stroke="midnightblue" points="1018.99,-28.24 1012.9,-19.57 1012.25,-30.14 1018.99,-28.24"/>
</g>
<!-- Node26&#45;&gt;Node9 -->
<g id="edge37" class="edge">
<title>Node26&#45;&gt;Node9</title>
<path fill="none" stroke="midnightblue" d="M1058.18,-168.37C1059.63,-150.62 1062.98,-109.67 1064.95,-85.6"/>
<polygon fill="midnightblue" stroke="midnightblue" points="1068.44,-85.84 1065.77,-75.59 1061.46,-85.27 1068.44,-85.84"/>
</g>
<!-- Node26&#45;&gt;Node11 -->
<g id="edge38" class="edge">
<title>Node26&#45;&gt;Node11</title>
<path fill="none" stroke="midnightblue" d="M1085.65,-168.38C1107.19,-160.92 1136.92,-148.71 1159.47,-132 1177.54,-118.62 1193.77,-98.42 1204.04,-84.1"/>
<polygon fill="midnightblue" stroke="midnightblue" points="1207.07,-85.87 1209.9,-75.66 1201.32,-81.88 1207.07,-85.87"/>
</g>
<!-- Node26&#45;&gt;Node15 -->
<g id="edge41" class="edge">
<title>Node26&#45;&gt;Node15</title>
<path fill="none" stroke="midnightblue" d="M1035.76,-168.44C1013.11,-159.52 977.4,-145.44 951.72,-135.32"/>
<polygon fill="midnightblue" stroke="midnightblue" points="952.66,-131.93 942.08,-131.52 950.1,-138.44 952.66,-131.93"/>
</g>
<!-- Node26&#45;&gt;Node18 -->
<g id="edge35" class="edge">
<title>Node26&#45;&gt;Node18</title>
<path fill="none" stroke="midnightblue" d="M1066.47,-168.32C1074.66,-160.42 1086.98,-148.55 1096.94,-138.94"/>
<polygon fill="midnightblue" stroke="midnightblue" points="1099.54,-141.29 1104.31,-131.83 1094.68,-136.26 1099.54,-141.29"/>
</g>
<!-- Node26&#45;&gt;Node19 -->
<g id="edge36" class="edge">
<title>Node26&#45;&gt;Node19</title>
<path fill="none" stroke="midnightblue" d="M1088.53,-168.44C1122.07,-159.2 1175.67,-144.44 1212.61,-134.26"/>
<polygon fill="midnightblue" stroke="midnightblue" points="1213.85,-137.55 1222.56,-131.52 1211.99,-130.8 1213.85,-137.55"/>
</g>
<!-- Node27 -->
<g id="node27" class="node">
<title>Node27</title>
<g id="a_node27"><a xlink:title=" ">
<polygon fill="none" stroke="#bfbfbf" points="1356.47,-112.5 1356.47,-131.5 1394.47,-131.5 1394.47,-112.5 1356.47,-112.5"/>
<text text-anchor="middle" x="1375.47" y="-119.5" font-family="Helvetica,sans-Serif" font-size="10.00">map</text>
</a>
</g>
</g>
<!-- Node26&#45;&gt;Node27 -->
<g id="edge39" class="edge">
<title>Node26&#45;&gt;Node27</title>
<path fill="none" stroke="midnightblue" d="M1100.69,-169.66C1166.42,-158.5 1289.8,-137.55 1346.11,-127.99"/>
<polygon fill="midnightblue" stroke="midnightblue" points="1346.85,-131.41 1356.12,-126.28 1345.68,-124.51 1346.85,-131.41"/>
</g>
<!-- Node28&#45;&gt;Node5 -->
<g id="edge47" class="edge">
<title>Node28&#45;&gt;Node5</title>
<path fill="none" stroke="midnightblue" d="M1277.8,-168.45C1324.98,-158.49 1395.7,-142.12 1403.47,-132 1408.88,-124.95 1406.76,-120.26 1403.47,-112 1390.79,-80.16 1380.99,-71.59 1350.47,-56 1297.02,-28.7 1116.93,-16.49 1042.78,-12.53"/>
<polygon fill="midnightblue" stroke="midnightblue" points="1042.8,-9.03 1032.64,-12.01 1042.44,-16.02 1042.8,-9.03"/>
</g>
<!-- Node28&#45;&gt;Node11 -->
<g id="edge45" class="edge">
<title>Node28&#45;&gt;Node11</title>
<path fill="none" stroke="midnightblue" d="M1259.68,-168.44C1286.8,-157.43 1325.05,-136.74 1309.47,-112 1302.56,-101.03 1273.95,-88.25 1250.08,-79.11"/>
<polygon fill="midnightblue" stroke="midnightblue" points="1251.15,-75.78 1240.56,-75.56 1248.71,-82.34 1251.15,-75.78"/>
</g>
<!-- Node28&#45;&gt;Node18 -->
<g id="edge43" class="edge">
<title>Node28&#45;&gt;Node18</title>
<path fill="none" stroke="midnightblue" d="M1216.14,-168.44C1196.15,-159.6 1164.73,-145.69 1141.91,-135.59"/>
<polygon fill="midnightblue" stroke="midnightblue" points="1143.27,-132.36 1132.71,-131.52 1140.44,-138.76 1143.27,-132.36"/>
</g>
<!-- Node28&#45;&gt;Node19 -->
<g id="edge44" class="edge">
<title>Node28&#45;&gt;Node19</title>
<path fill="none" stroke="midnightblue" d="M1238.44,-168.08C1240.85,-160.85 1244.33,-150.41 1247.34,-141.4"/>
<polygon fill="midnightblue" stroke="midnightblue" points="1250.71,-142.34 1250.55,-131.75 1244.07,-140.13 1250.71,-142.34"/>
</g>
<!-- Node28&#45;&gt;Node27 -->
<g id="edge46" class="edge">
<title>Node28&#45;&gt;Node27</title>
<path fill="none" stroke="midnightblue" d="M1257.65,-168.44C1281.72,-159.16 1320.23,-144.31 1346.63,-134.13"/>
<polygon fill="midnightblue" stroke="midnightblue" points="1348.02,-137.34 1356.1,-130.47 1345.51,-130.81 1348.02,-137.34"/>
</g>
<!-- Node29&#45;&gt;Node5 -->
<g id="edge49" class="edge">
<title>Node29&#45;&gt;Node5</title>
<path fill="none" stroke="midnightblue" d="M957.59,-56.32C967,-48.26 981.21,-36.08 992.54,-26.37"/>
<polygon fill="midnightblue" stroke="midnightblue" points="994.85,-29 1000.16,-19.83 990.29,-23.68 994.85,-29"/>
</g>
<!-- Node33 -->
<g id="node33" class="node">
<title>Node33</title>
<g id="a_node33"><a xlink:href="_log_outputter_console_8hpp.html" target="_top" xlink:title=" ">
<polygon fill="none" stroke="black" points="1305.47,-168.5 1305.47,-187.5 1445.47,-187.5 1445.47,-168.5 1305.47,-168.5"/>
<text text-anchor="middle" x="1375.47" y="-175.5" font-family="Helvetica,sans-Serif" font-size="10.00">LogOutputterConsole.hpp</text>
</a>
</g>
</g>
<!-- Node32&#45;&gt;Node33 -->
<g id="edge58" class="edge">
<title>Node32&#45;&gt;Node33</title>
<path fill="none" stroke="midnightblue" d="M1375.47,-224.08C1375.47,-217.01 1375.47,-206.86 1375.47,-197.99"/>
<polygon fill="midnightblue" stroke="midnightblue" points="1378.97,-197.75 1375.47,-187.75 1371.97,-197.75 1378.97,-197.75"/>
</g>
<!-- Node36 -->
<g id="node36" class="node">
<title>Node36</title>
<g id="a_node36"><a xlink:href="_log_outputter_file_8hpp.html" target="_top" xlink:title=" ">
<polygon fill="none" stroke="black" points="1463.97,-168.5 1463.97,-187.5 1582.97,-187.5 1582.97,-168.5 1463.97,-168.5"/>
<text text-anchor="middle" x="1523.47" y="-175.5" font-family="Helvetica,sans-Serif" font-size="10.00">LogOutputterFile.hpp</text>
</a>
</g>
</g>
<!-- Node32&#45;&gt;Node36 -->
<g id="edge66" class="edge">
<title>Node32&#45;&gt;Node36</title>
<path fill="none" stroke="midnightblue" d="M1398.92,-224.44C1423.6,-215.44 1462.65,-201.19 1490.45,-191.05"/>
<polygon fill="midnightblue" stroke="midnightblue" points="1491.93,-194.23 1500.13,-187.52 1489.53,-187.66 1491.93,-194.23"/>
</g>
<!-- Node37 -->
<g id="node37" class="node">
<title>Node37</title>
<g id="a_node37"><a xlink:href="_logger_8hpp.html" target="_top" xlink:title=" ">
<polygon fill="none" stroke="black" points="1601.47,-168.5 1601.47,-187.5 1671.47,-187.5 1671.47,-168.5 1601.47,-168.5"/>
<text text-anchor="middle" x="1636.47" y="-175.5" font-family="Helvetica,sans-Serif" font-size="10.00">Logger.hpp</text>
</a>
</g>
</g>
<!-- Node32&#45;&gt;Node37 -->
<g id="edge70" class="edge">
<title>Node32&#45;&gt;Node37</title>
<path fill="none" stroke="midnightblue" d="M1403.4,-227.22C1448.37,-217.92 1537.24,-199.53 1591.3,-188.34"/>
<polygon fill="midnightblue" stroke="midnightblue" points="1592.22,-191.73 1601.3,-186.28 1590.8,-184.87 1592.22,-191.73"/>
</g>
<!-- Node33&#45;&gt;Node11 -->
<g id="edge59" class="edge">
<title>Node33&#45;&gt;Node11</title>
<path fill="none" stroke="midnightblue" d="M1384.61,-168.25C1397.32,-155 1417.32,-129.56 1403.47,-112 1402.3,-110.52 1310.51,-89.03 1255.64,-76.29"/>
<polygon fill="midnightblue" stroke="midnightblue" points="1256.38,-72.87 1245.85,-74.02 1254.8,-79.69 1256.38,-72.87"/>
</g>
<!-- Node33&#45;&gt;Node27 -->
<g id="edge60" class="edge">
<title>Node33&#45;&gt;Node27</title>
<path fill="none" stroke="midnightblue" d="M1375.47,-168.08C1375.47,-161.01 1375.47,-150.86 1375.47,-141.99"/>
<polygon fill="midnightblue" stroke="midnightblue" points="1378.97,-141.75 1375.47,-131.75 1371.97,-141.75 1378.97,-141.75"/>
</g>
<!-- Node34 -->
<g id="node34" class="node">
<title>Node34</title>
<g id="a_node34"><a xlink:href="_a_log_outputter_8hpp.html" target="_top" xlink:title=" ">
<polygon fill="none" stroke="black" points="1564.97,-112.5 1564.97,-131.5 1671.97,-131.5 1671.97,-112.5 1564.97,-112.5"/>
<text text-anchor="middle" x="1618.47" y="-119.5" font-family="Helvetica,sans-Serif" font-size="10.00">ALogOutputter.hpp</text>
</a>
</g>
</g>
<!-- Node33&#45;&gt;Node34 -->
<g id="edge61" class="edge">
<title>Node33&#45;&gt;Node34</title>
<path fill="none" stroke="midnightblue" d="M1413.97,-168.44C1456.28,-159.04 1524.29,-143.93 1570.14,-133.74"/>
<polygon fill="midnightblue" stroke="midnightblue" points="1571.14,-137.1 1580.15,-131.52 1569.62,-130.27 1571.14,-137.1"/>
</g>
<!-- Node35 -->
<g id="node35" class="node">
<title>Node35</title>
<g id="a_node35"><a xlink:href="_log_data_8hpp.html" target="_top" xlink:title=" ">
<polygon fill="none" stroke="black" points="1263.47,-56.5 1263.47,-75.5 1341.47,-75.5 1341.47,-56.5 1263.47,-56.5"/>
<text text-anchor="middle" x="1302.47" y="-63.5" font-family="Helvetica,sans-Serif" font-size="10.00">LogData.hpp</text>
</a>
</g>
</g>
<!-- Node34&#45;&gt;Node35 -->
<g id="edge62" class="edge">
<title>Node34&#45;&gt;Node35</title>
<path fill="none" stroke="midnightblue" d="M1568.4,-112.44C1509.13,-102.32 1411.06,-85.56 1352.02,-75.47"/>
<polygon fill="midnightblue" stroke="midnightblue" points="1352.27,-71.96 1341.82,-73.73 1351.09,-78.86 1352.27,-71.96"/>
</g>
<!-- Node35&#45;&gt;Node5 -->
<g id="edge65" class="edge">
<title>Node35&#45;&gt;Node5</title>
<path fill="none" stroke="midnightblue" d="M1263.44,-57.67C1260.4,-57.1 1257.39,-56.54 1254.47,-56 1178.64,-41.9 1089.52,-25.51 1042.8,-16.93"/>
<polygon fill="midnightblue" stroke="midnightblue" points="1043.15,-13.44 1032.68,-15.07 1041.88,-20.32 1043.15,-13.44"/>
</g>
<!-- Node35&#45;&gt;Node22 -->
<g id="edge63" class="edge">
<title>Node35&#45;&gt;Node22</title>
<path fill="none" stroke="midnightblue" d="M1263.22,-57.35C1260.27,-56.86 1257.32,-56.41 1254.47,-56 1094.01,-33.19 900.54,-18.45 824.95,-13.17"/>
<polygon fill="midnightblue" stroke="midnightblue" points="824.89,-9.66 814.67,-12.46 824.41,-16.64 824.89,-9.66"/>
</g>
<!-- Node35&#45;&gt;Node23 -->
<g id="edge64" class="edge">
<title>Node35&#45;&gt;Node23</title>
<path fill="none" stroke="midnightblue" d="M1263.24,-57.24C1260.28,-56.78 1257.33,-56.36 1254.47,-56 1121.33,-39.4 705.18,-18.87 576.66,-12.78"/>
<polygon fill="midnightblue" stroke="midnightblue" points="576.67,-9.28 566.52,-12.3 576.34,-16.27 576.67,-9.28"/>
</g>
<!-- Node36&#45;&gt;Node9 -->
<g id="edge67" class="edge">
<title>Node36&#45;&gt;Node9</title>
<path fill="none" stroke="midnightblue" d="M1505.95,-168.38C1488.25,-159.56 1460.2,-145.31 1436.47,-132 1421.51,-123.61 1419.64,-117.7 1403.47,-112 1348.9,-92.77 1180.3,-76.6 1104.3,-70.09"/>
<polygon fill="midnightblue" stroke="midnightblue" points="1104.47,-66.59 1094.21,-69.23 1103.88,-73.56 1104.47,-66.59"/>
</g>
<!-- Node36&#45;&gt;Node11 -->
<g id="edge68" class="edge">
<title>Node36&#45;&gt;Node11</title>
<path fill="none" stroke="midnightblue" d="M1512.62,-168.43C1494.43,-154.48 1456.15,-126.94 1419.47,-112 1352.8,-84.85 1329.61,-91.78 1255.49,-76.15"/>
<polygon fill="midnightblue" stroke="midnightblue" points="1256.21,-72.72 1245.7,-74.01 1254.72,-79.56 1256.21,-72.72"/>
</g>
<!-- Node36&#45;&gt;Node34 -->
<g id="edge69" class="edge">
<title>Node36&#45;&gt;Node34</title>
<path fill="none" stroke="midnightblue" d="M1538.73,-168.32C1553.69,-159.82 1576.72,-146.73 1594.2,-136.8"/>
<polygon fill="midnightblue" stroke="midnightblue" points="1596.28,-139.64 1603.24,-131.65 1592.82,-133.55 1596.28,-139.64"/>
</g>
<!-- Node37&#45;&gt;Node5 -->
<g id="edge71" class="edge">
<title>Node37&#45;&gt;Node5</title>
<path fill="none" stroke="midnightblue" d="M1654.94,-168.45C1678.77,-156.28 1715.18,-133.1 1697.47,-112 1612.28,-10.5 1166.76,-8.84 1042.61,-10.4"/>
<polygon fill="midnightblue" stroke="midnightblue" points="1042.54,-6.9 1032.59,-10.54 1042.64,-13.9 1042.54,-6.9"/>
</g>
<!-- Node37&#45;&gt;Node15 -->
<g id="edge72" class="edge">
<title>Node37&#45;&gt;Node15</title>
<path fill="none" stroke="midnightblue" d="M1601,-169.32C1598.12,-168.82 1595.25,-168.38 1592.47,-168 1560.59,-163.69 1086.95,-133.54 954.59,-125.16"/>
<polygon fill="midnightblue" stroke="midnightblue" points="954.46,-121.64 944.26,-124.5 954.02,-128.63 954.46,-121.64"/>
</g>
<!-- Node37&#45;&gt;Node34 -->
<g id="edge73" class="edge">
<title>Node37&#45;&gt;Node34</title>
<path fill="none" stroke="midnightblue" d="M1633.5,-168.08C1631.09,-160.85 1627.61,-150.41 1624.6,-141.4"/>
<polygon fill="midnightblue" stroke="midnightblue" points="1627.87,-140.13 1621.39,-131.75 1621.23,-142.34 1627.87,-140.13"/>
</g>
<!-- Node37&#45;&gt;Node35 -->
<g id="edge74" class="edge">
<title>Node37&#45;&gt;Node35</title>
<path fill="none" stroke="midnightblue" d="M1650.04,-168.31C1668.64,-155.38 1697.97,-130.57 1681.47,-112 1659.92,-87.74 1449.49,-74.26 1351.82,-69.27"/>
<polygon fill="midnightblue" stroke="midnightblue" points="1351.77,-65.76 1341.61,-68.75 1351.42,-72.75 1351.77,-65.76"/>
</g>
<!-- Node38&#45;&gt;Node4 -->
<g id="edge80" class="edge">
<title>Node38&#45;&gt;Node4</title>
<path fill="none" stroke="midnightblue" d="M982.24,-287.6C853.02,-283.1 582.18,-264.48 368.47,-188 334.91,-175.99 300.33,-152.95 279.62,-137.77"/>
<polygon fill="midnightblue" stroke="midnightblue" points="281.49,-134.8 271.38,-131.62 277.29,-140.41 281.49,-134.8"/>
</g>
<!-- Node38&#45;&gt;Node5 -->
<g id="edge76" class="edge">
<title>Node38&#45;&gt;Node5</title>
<path fill="none" stroke="midnightblue" d="M1132.72,-285.29C1317.1,-275.21 1776.47,-243.6 1776.47,-179 1776.47,-179 1776.47,-179 1776.47,-121 1776.47,-48.34 1697.03,-73.34 1626.47,-56 1514.1,-28.39 1153.41,-15.35 1042.94,-11.94"/>
<polygon fill="midnightblue" stroke="midnightblue" points="1042.85,-8.43 1032.75,-11.63 1042.64,-15.43 1042.85,-8.43"/>
</g>
<!-- Node38&#45;&gt;Node15 -->
<g id="edge77" class="edge">
<title>Node38&#45;&gt;Node15</title>
<path fill="none" stroke="midnightblue" d="M1050.1,-280.08C1028.07,-253.38 962.45,-173.87 933.94,-139.32"/>
<polygon fill="midnightblue" stroke="midnightblue" points="936.61,-137.05 927.54,-131.57 931.21,-141.51 936.61,-137.05"/>
</g>
<!-- Node38&#45;&gt;Node19 -->
<g id="edge83" class="edge">
<title>Node38&#45;&gt;Node19</title>
<path fill="none" stroke="midnightblue" d="M1064.5,-280.29C1081.8,-259.22 1128.44,-204.55 1175.47,-168 1191.31,-155.69 1210.88,-144.41 1226.45,-136.22"/>
<polygon fill="midnightblue" stroke="midnightblue" points="1228.26,-139.23 1235.56,-131.54 1225.07,-133 1228.26,-139.23"/>
</g>
<!-- Node38&#45;&gt;Node25 -->
<g id="edge79" class="edge">
<title>Node38&#45;&gt;Node25</title>
<path fill="none" stroke="midnightblue" d="M1027.05,-280.44C994.18,-271.2 941.68,-256.44 905.5,-246.26"/>
<polygon fill="midnightblue" stroke="midnightblue" points="906.32,-242.85 895.75,-243.52 904.43,-249.59 906.32,-242.85"/>
</g>
<!-- Node38&#45;&gt;Node26 -->
<g id="edge78" class="edge">
<title>Node38&#45;&gt;Node26</title>
<path fill="none" stroke="midnightblue" d="M1057.47,-280.37C1057.47,-262.62 1057.47,-221.67 1057.47,-197.6"/>
<polygon fill="midnightblue" stroke="midnightblue" points="1060.97,-197.59 1057.47,-187.59 1053.97,-197.59 1060.97,-197.59"/>
</g>
<!-- Node38&#45;&gt;Node28 -->
<g id="edge81" class="edge">
<title>Node38&#45;&gt;Node28</title>
<path fill="none" stroke="midnightblue" d="M1078.67,-280.39C1098.17,-272.11 1127.6,-258.72 1151.47,-244 1175.93,-228.92 1201.74,-208.11 1218.19,-194.14"/>
<polygon fill="midnightblue" stroke="midnightblue" points="1220.58,-196.7 1225.88,-187.52 1216.02,-191.39 1220.58,-196.7"/>
</g>
<!-- Node38&#45;&gt;Node32 -->
<g id="edge82" class="edge">
<title>Node38&#45;&gt;Node32</title>
<path fill="none" stroke="midnightblue" d="M1107.86,-280.44C1171.83,-269.58 1280.73,-251.09 1337.89,-241.38"/>
<polygon fill="midnightblue" stroke="midnightblue" points="1338.67,-244.8 1347.94,-239.67 1337.49,-237.9 1338.67,-244.8"/>
</g>
</g>
</svg>
