<?xml version="1.0" encoding="UTF-8" standalone="no"?>
<!DOCTYPE svg PUBLIC "-//W3C//DTD SVG 1.1//EN"
 "http://www.w3.org/Graphics/SVG/1.1/DTD/svg11.dtd">
<!-- Generated by graphviz version 2.43.0 (0)
 -->
<!-- Title: inc/ResponseBuilder.hpp Pages: 1 -->
<!--zoomable 308 -->
<svg id="main" version="1.1" xmlns="http://www.w3.org/2000/svg" xmlns:xlink="http://www.w3.org/1999/xlink" xml:space="preserve" onload="init(evt)">
<style type="text/css"><![CDATA[
.edge:hover path { stroke: red; }
.edge:hover polygon { stroke: red; fill: red; }
]]></style>
<script type="text/javascript"><![CDATA[
var edges = document.getElementsByTagName('g');
if (edges && edges.length) {
  for (var i=0;i<edges.length;i++) {
    if (edges[i].id.substr(0,4)=='edge') {
      edges[i].setAttribute('class','edge');
    }
  }
}
]]></script>
        <defs>
                <circle id="rim" cx="0" cy="0" r="7"/>
                <circle id="rim2" cx="0" cy="0" r="3.5"/>
                <g id="zoomPlus">
                        <use xlink:href="#rim" fill="#404040">
                                <set attributeName="fill" to="#808080" begin="zoomplus.mouseover" end="zoomplus.mouseout"/>
                        </use>
                        <path d="M-4,0h8M0,-4v8" fill="none" stroke="white" stroke-width="1.5" pointer-events="none"/>
                </g>
                <g id="zoomMin">
                        <use xlink:href="#rim" fill="#404040">
                                <set attributeName="fill" to="#808080" begin="zoomminus.mouseover" end="zoomminus.mouseout"/>
                        </use>
                        <path d="M-4,0h8" fill="none" stroke="white" stroke-width="1.5" pointer-events="none"/>
                </g>
                <g id="dirArrow">
                        <path fill="none" stroke="white" stroke-width="1.5" d="M0,-3.0v7 M-2.5,-0.5L0,-3.0L2.5,-0.5"/>
                </g>
               <g id="resetDef">
                       <use xlink:href="#rim2" fill="#404040">
                               <set attributeName="fill" to="#808080" begin="reset.mouseover" end="reset.mouseout"/>
                       </use>
               </g>
        </defs>

<script type="text/javascript">
var viewWidth = 1389;
var viewHeight = 308;
var sectionId = 'dynsection-0';
</script>
<script xlink:href="svgpan.js"/>
<svg id="graph" class="graph">
<g id="viewport">
<title>inc/ResponseBuilder.hpp</title>
<!-- Node1 -->
<g id="node1" class="node">
<title>Node1</title>
<g id="a_node1"><a xlink:title=" ">
<polygon fill="#bfbfbf" stroke="black" points="425,-280.5 425,-299.5 561,-299.5 561,-280.5 425,-280.5"/>
<text text-anchor="middle" x="493" y="-287.5" font-family="Helvetica,sans-Serif" font-size="10.00">inc/ResponseBuilder.hpp</text>
</a>
</g>
</g>
<!-- Node2 -->
<g id="node2" class="node">
<title>Node2</title>
<g id="a_node2"><a xlink:href="_config_file_8hpp.html" target="_top" xlink:title=" ">
<polygon fill="none" stroke="black" points="538,-112.5 538,-131.5 624,-131.5 624,-112.5 538,-112.5"/>
<text text-anchor="middle" x="581" y="-119.5" font-family="Helvetica,sans-Serif" font-size="10.00">ConfigFile.hpp</text>
</a>
</g>
</g>
<!-- Node1&#45;&gt;Node2 -->
<g id="edge1" class="edge">
<title>Node1&#45;&gt;Node2</title>
<path fill="none" stroke="midnightblue" d="M500.13,-280.35C513.7,-263.53 543.42,-224.81 561,-188 568.15,-173.02 573.48,-154.88 576.83,-141.58"/>
<polygon fill="midnightblue" stroke="midnightblue" points="580.27,-142.25 579.18,-131.71 573.46,-140.63 580.27,-142.25"/>
</g>
<!-- Node8 -->
<g id="node8" class="node">
<title>Node8</title>
<g id="a_node8"><a xlink:title=" ">
<polygon fill="none" stroke="#bfbfbf" points="150,-0.5 150,-19.5 194,-19.5 194,-0.5 150,-0.5"/>
<text text-anchor="middle" x="172" y="-7.5" font-family="Helvetica,sans-Serif" font-size="10.00">string</text>
</a>
</g>
</g>
<!-- Node1&#45;&gt;Node8 -->
<g id="edge66" class="edge">
<title>Node1&#45;&gt;Node8</title>
<path fill="none" stroke="midnightblue" d="M424.97,-287.88C289.73,-283.81 0,-265.05 0,-179 0,-179 0,-179 0,-121 0,-55.31 90.13,-27.08 139.9,-16.5"/>
<polygon fill="midnightblue" stroke="midnightblue" points="140.75,-19.9 149.87,-14.51 139.37,-13.04 140.75,-19.9"/>
</g>
<!-- Node10 -->
<g id="node10" class="node">
<title>Node10</title>
<g id="a_node10"><a xlink:href="_file_system_policy_8hpp.html" target="_top" xlink:title=" ">
<polygon fill="none" stroke="black" points="1064.5,-56.5 1064.5,-75.5 1183.5,-75.5 1183.5,-56.5 1064.5,-56.5"/>
<text text-anchor="middle" x="1124" y="-63.5" font-family="Helvetica,sans-Serif" font-size="10.00">FileSystemPolicy.hpp</text>
</a>
</g>
</g>
<!-- Node1&#45;&gt;Node10 -->
<g id="edge10" class="edge">
<title>Node1&#45;&gt;Node10</title>
<path fill="none" stroke="midnightblue" d="M561.35,-286.34C661.7,-280.05 852.63,-258.93 997,-188 1037.27,-168.21 1049.33,-163.78 1081,-132 1094.99,-117.96 1107.04,-98.71 1114.8,-84.81"/>
<polygon fill="midnightblue" stroke="midnightblue" points="1118,-86.25 1119.66,-75.78 1111.84,-82.93 1118,-86.25"/>
</g>
<!-- Node17 -->
<g id="node17" class="node">
<title>Node17</title>
<g id="a_node17"><a xlink:href="_h_t_t_p_request_8hpp.html" target="_top" xlink:title=" ">
<polygon fill="none" stroke="black" points="353.5,-112.5 353.5,-131.5 456.5,-131.5 456.5,-112.5 353.5,-112.5"/>
<text text-anchor="middle" x="405" y="-119.5" font-family="Helvetica,sans-Serif" font-size="10.00">HTTPRequest.hpp</text>
</a>
</g>
</g>
<!-- Node1&#45;&gt;Node17 -->
<g id="edge20" class="edge">
<title>Node1&#45;&gt;Node17</title>
<path fill="none" stroke="midnightblue" d="M485.7,-280.39C471.84,-263.64 441.53,-225.05 424,-188 416.93,-173.05 411.89,-154.92 408.79,-141.6"/>
<polygon fill="midnightblue" stroke="midnightblue" points="412.19,-140.75 406.64,-131.73 405.35,-142.24 412.19,-140.75"/>
</g>
<!-- Node18 -->
<g id="node18" class="node">
<title>Node18</title>
<g id="a_node18"><a xlink:href="_log_8hpp.html" target="_top" xlink:title=" ">
<polygon fill="none" stroke="black" points="290.5,-224.5 290.5,-243.5 345.5,-243.5 345.5,-224.5 290.5,-224.5"/>
<text text-anchor="middle" x="318" y="-231.5" font-family="Helvetica,sans-Serif" font-size="10.00">Log.hpp</text>
</a>
</g>
</g>
<!-- Node1&#45;&gt;Node18 -->
<g id="edge26" class="edge">
<title>Node1&#45;&gt;Node18</title>
<path fill="none" stroke="midnightblue" d="M465.27,-280.44C435.57,-271.28 388.28,-256.69 355.33,-246.52"/>
<polygon fill="midnightblue" stroke="midnightblue" points="356.19,-243.12 345.6,-243.52 354.12,-249.81 356.19,-243.12"/>
</g>
<!-- Node26 -->
<g id="node26" class="node">
<title>Node26</title>
<g id="a_node26"><a xlink:href="_response_body_handler_8hpp.html" target="_top" xlink:title=" ">
<polygon fill="none" stroke="black" points="674.5,-224.5 674.5,-243.5 821.5,-243.5 821.5,-224.5 674.5,-224.5"/>
<text text-anchor="middle" x="748" y="-231.5" font-family="Helvetica,sans-Serif" font-size="10.00">ResponseBodyHandler.hpp</text>
</a>
</g>
</g>
<!-- Node1&#45;&gt;Node26 -->
<g id="edge44" class="edge">
<title>Node1&#45;&gt;Node26</title>
<path fill="none" stroke="midnightblue" d="M533.41,-280.44C577.98,-271 649.77,-255.8 697.89,-245.61"/>
<polygon fill="midnightblue" stroke="midnightblue" points="698.73,-249.01 707.78,-243.52 697.28,-242.16 698.73,-249.01"/>
</g>
<!-- Node3 -->
<g id="node3" class="node">
<title>Node3</title>
<g id="a_node3"><a xlink:href="_method_8hpp.html" target="_top" xlink:title=" ">
<polygon fill="none" stroke="black" points="370,-56.5 370,-75.5 444,-75.5 444,-56.5 370,-56.5"/>
<text text-anchor="middle" x="407" y="-63.5" font-family="Helvetica,sans-Serif" font-size="10.00">Method.hpp</text>
</a>
</g>
</g>
<!-- Node2&#45;&gt;Node3 -->
<g id="edge2" class="edge">
<title>Node2&#45;&gt;Node3</title>
<path fill="none" stroke="midnightblue" d="M553.43,-112.44C523.9,-103.28 476.88,-88.69 444.12,-78.52"/>
<polygon fill="midnightblue" stroke="midnightblue" points="445.03,-75.14 434.44,-75.52 442.96,-81.82 445.03,-75.14"/>
</g>
<!-- Node4 -->
<g id="node4" class="node">
<title>Node4</title>
<g id="a_node4"><a xlink:href="_status_code_8hpp.html" target="_top" xlink:title=" ">
<polygon fill="none" stroke="black" points="576.5,-56.5 576.5,-75.5 669.5,-75.5 669.5,-56.5 576.5,-56.5"/>
<text text-anchor="middle" x="623" y="-63.5" font-family="Helvetica,sans-Serif" font-size="10.00">StatusCode.hpp</text>
</a>
</g>
</g>
<!-- Node2&#45;&gt;Node4 -->
<g id="edge3" class="edge">
<title>Node2&#45;&gt;Node4</title>
<path fill="none" stroke="midnightblue" d="M587.94,-112.08C593.93,-104.38 602.75,-93.03 610.05,-83.65"/>
<polygon fill="midnightblue" stroke="midnightblue" points="612.82,-85.79 616.19,-75.75 607.29,-81.5 612.82,-85.79"/>
</g>
<!-- Node5 -->
<g id="node5" class="node">
<title>Node5</title>
<g id="a_node5"><a xlink:title=" ">
<polygon fill="none" stroke="#bfbfbf" points="518,-0.5 518,-19.5 578,-19.5 578,-0.5 518,-0.5"/>
<text text-anchor="middle" x="548" y="-7.5" font-family="Helvetica,sans-Serif" font-size="10.00">iostream</text>
</a>
</g>
</g>
<!-- Node2&#45;&gt;Node5 -->
<g id="edge6" class="edge">
<title>Node2&#45;&gt;Node5</title>
<path fill="none" stroke="midnightblue" d="M578.41,-112.37C573.06,-94.54 560.69,-53.3 553.48,-29.27"/>
<polygon fill="midnightblue" stroke="midnightblue" points="556.8,-28.16 550.58,-19.59 550.1,-30.18 556.8,-28.16"/>
</g>
<!-- Node6 -->
<g id="node6" class="node">
<title>Node6</title>
<g id="a_node6"><a xlink:title=" ">
<polygon fill="none" stroke="#bfbfbf" points="864.5,-0.5 864.5,-19.5 919.5,-19.5 919.5,-0.5 864.5,-0.5"/>
<text text-anchor="middle" x="892" y="-7.5" font-family="Helvetica,sans-Serif" font-size="10.00">fstream</text>
</a>
</g>
</g>
<!-- Node2&#45;&gt;Node6 -->
<g id="edge5" class="edge">
<title>Node2&#45;&gt;Node6</title>
<path fill="none" stroke="midnightblue" d="M600.27,-112.45C620.12,-103.57 651.89,-89.17 679,-76 696.52,-67.49 699.79,-62.93 718,-56 730.74,-51.16 807.11,-31.97 854.34,-20.27"/>
<polygon fill="midnightblue" stroke="midnightblue" points="855.36,-23.62 864.23,-17.82 853.68,-16.83 855.36,-23.62"/>
</g>
<!-- Node7 -->
<g id="node7" class="node">
<title>Node7</title>
<g id="a_node7"><a xlink:title=" ">
<polygon fill="none" stroke="#bfbfbf" points="314,-56.5 314,-75.5 352,-75.5 352,-56.5 314,-56.5"/>
<text text-anchor="middle" x="333" y="-63.5" font-family="Helvetica,sans-Serif" font-size="10.00">map</text>
</a>
</g>
</g>
<!-- Node2&#45;&gt;Node7 -->
<g id="edge7" class="edge">
<title>Node2&#45;&gt;Node7</title>
<path fill="none" stroke="midnightblue" d="M537.68,-113.58C495.17,-105.99 428.35,-93.19 361.98,-76.04"/>
<polygon fill="midnightblue" stroke="midnightblue" points="362.76,-72.62 352.2,-73.48 360.99,-79.39 362.76,-72.62"/>
</g>
<!-- Node2&#45;&gt;Node8 -->
<g id="edge8" class="edge">
<title>Node2&#45;&gt;Node8</title>
<path fill="none" stroke="midnightblue" d="M567.41,-112.29C544.68,-98.15 497.09,-70.33 453,-56 365.75,-27.63 257.21,-16.74 204.19,-12.9"/>
<polygon fill="midnightblue" stroke="midnightblue" points="204.26,-9.4 194.04,-12.2 203.78,-16.38 204.26,-9.4"/>
</g>
<!-- Node9 -->
<g id="node9" class="node">
<title>Node9</title>
<g id="a_node9"><a xlink:title=" ">
<polygon fill="none" stroke="#bfbfbf" points="726.5,-56.5 726.5,-75.5 773.5,-75.5 773.5,-56.5 726.5,-56.5"/>
<text text-anchor="middle" x="750" y="-63.5" font-family="Helvetica,sans-Serif" font-size="10.00">vector</text>
</a>
</g>
</g>
<!-- Node2&#45;&gt;Node9 -->
<g id="edge9" class="edge">
<title>Node2&#45;&gt;Node9</title>
<path fill="none" stroke="midnightblue" d="M607.78,-112.44C637.26,-103.02 684.69,-87.87 716.58,-77.68"/>
<polygon fill="midnightblue" stroke="midnightblue" points="717.89,-80.94 726.35,-74.56 715.76,-74.27 717.89,-80.94"/>
</g>
<!-- Node4&#45;&gt;Node5 -->
<g id="edge4" class="edge">
<title>Node4&#45;&gt;Node5</title>
<path fill="none" stroke="midnightblue" d="M610.95,-56.32C599.54,-48.11 582.17,-35.6 568.57,-25.81"/>
<polygon fill="midnightblue" stroke="midnightblue" points="570.43,-22.84 560.27,-19.83 566.34,-28.52 570.43,-22.84"/>
</g>
<!-- Node10&#45;&gt;Node5 -->
<g id="edge17" class="edge">
<title>Node10&#45;&gt;Node5</title>
<path fill="none" stroke="midnightblue" d="M1064.26,-59.4C946.66,-48.37 687.95,-24.12 588.27,-14.77"/>
<polygon fill="midnightblue" stroke="midnightblue" points="588.3,-11.26 578.02,-13.81 587.65,-18.23 588.3,-11.26"/>
</g>
<!-- Node10&#45;&gt;Node6 -->
<g id="edge15" class="edge">
<title>Node10&#45;&gt;Node6</title>
<path fill="none" stroke="midnightblue" d="M1086.22,-56.42C1048.99,-47.93 990.21,-34.46 929.95,-20.2"/>
<polygon fill="midnightblue" stroke="midnightblue" points="930.41,-16.72 919.87,-17.82 928.8,-23.53 930.41,-16.72"/>
</g>
<!-- Node10&#45;&gt;Node8 -->
<g id="edge11" class="edge">
<title>Node10&#45;&gt;Node8</title>
<path fill="none" stroke="midnightblue" d="M1064.39,-61.21C1038.2,-59.56 1007.07,-57.64 979,-56 688.39,-38.98 615.64,-36.55 325,-20 283.29,-17.63 235.2,-14.78 204.24,-12.93"/>
<polygon fill="midnightblue" stroke="midnightblue" points="204.23,-9.43 194.04,-12.32 203.82,-16.41 204.23,-9.43"/>
</g>
<!-- Node11 -->
<g id="node11" class="node">
<title>Node11</title>
<g id="a_node11"><a xlink:title=" ">
<polygon fill="none" stroke="#bfbfbf" points="1250.5,-0.5 1250.5,-19.5 1297.5,-19.5 1297.5,-0.5 1250.5,-0.5"/>
<text text-anchor="middle" x="1274" y="-7.5" font-family="Helvetica,sans-Serif" font-size="10.00">cerrno</text>
</a>
</g>
</g>
<!-- Node10&#45;&gt;Node11 -->
<g id="edge12" class="edge">
<title>Node10&#45;&gt;Node11</title>
<path fill="none" stroke="midnightblue" d="M1147.77,-56.44C1172.89,-47.4 1212.71,-33.06 1240.9,-22.92"/>
<polygon fill="midnightblue" stroke="midnightblue" points="1242.12,-26.2 1250.34,-19.52 1239.75,-19.61 1242.12,-26.2"/>
</g>
<!-- Node12 -->
<g id="node12" class="node">
<title>Node12</title>
<g id="a_node12"><a xlink:title=" ">
<polygon fill="none" stroke="#bfbfbf" points="938,-0.5 938,-19.5 988,-19.5 988,-0.5 938,-0.5"/>
<text text-anchor="middle" x="963" y="-7.5" font-family="Helvetica,sans-Serif" font-size="10.00">cstring</text>
</a>
</g>
</g>
<!-- Node10&#45;&gt;Node12 -->
<g id="edge13" class="edge">
<title>Node10&#45;&gt;Node12</title>
<path fill="none" stroke="midnightblue" d="M1098.49,-56.44C1071.32,-47.33 1028.16,-32.85 997.86,-22.69"/>
<polygon fill="midnightblue" stroke="midnightblue" points="998.72,-19.29 988.13,-19.43 996.49,-25.93 998.72,-19.29"/>
</g>
<!-- Node13 -->
<g id="node13" class="node">
<title>Node13</title>
<g id="a_node13"><a xlink:title=" ">
<polygon fill="none" stroke="#bfbfbf" points="1006,-0.5 1006,-19.5 1070,-19.5 1070,-0.5 1006,-0.5"/>
<text text-anchor="middle" x="1038" y="-7.5" font-family="Helvetica,sans-Serif" font-size="10.00">sys/stat.h</text>
</a>
</g>
</g>
<!-- Node10&#45;&gt;Node13 -->
<g id="edge14" class="edge">
<title>Node10&#45;&gt;Node13</title>
<path fill="none" stroke="midnightblue" d="M1110.18,-56.32C1096.77,-47.9 1076.18,-34.97 1060.41,-25.07"/>
<polygon fill="midnightblue" stroke="midnightblue" points="1062.11,-22.01 1051.78,-19.65 1058.39,-27.94 1062.11,-22.01"/>
</g>
<!-- Node14 -->
<g id="node14" class="node">
<title>Node14</title>
<g id="a_node14"><a xlink:title=" ">
<polygon fill="none" stroke="#bfbfbf" points="1315.5,-0.5 1315.5,-19.5 1380.5,-19.5 1380.5,-0.5 1315.5,-0.5"/>
<text text-anchor="middle" x="1348" y="-7.5" font-family="Helvetica,sans-Serif" font-size="10.00">stdexcept</text>
</a>
</g>
</g>
<!-- Node10&#45;&gt;Node14 -->
<g id="edge16" class="edge">
<title>Node10&#45;&gt;Node14</title>
<path fill="none" stroke="midnightblue" d="M1159.49,-56.44C1199.04,-46.91 1262.96,-31.5 1305.23,-21.31"/>
<polygon fill="midnightblue" stroke="midnightblue" points="1306.32,-24.65 1315.22,-18.9 1304.68,-17.84 1306.32,-24.65"/>
</g>
<!-- Node15 -->
<g id="node15" class="node">
<title>Node15</title>
<g id="a_node15"><a xlink:title=" ">
<polygon fill="none" stroke="#bfbfbf" points="1088,-0.5 1088,-19.5 1160,-19.5 1160,-0.5 1088,-0.5"/>
<text text-anchor="middle" x="1124" y="-7.5" font-family="Helvetica,sans-Serif" font-size="10.00">sys/types.h</text>
</a>
</g>
</g>
<!-- Node10&#45;&gt;Node15 -->
<g id="edge18" class="edge">
<title>Node10&#45;&gt;Node15</title>
<path fill="none" stroke="midnightblue" d="M1124,-56.08C1124,-49.01 1124,-38.86 1124,-29.99"/>
<polygon fill="midnightblue" stroke="midnightblue" points="1127.5,-29.75 1124,-19.75 1120.5,-29.75 1127.5,-29.75"/>
</g>
<!-- Node16 -->
<g id="node16" class="node">
<title>Node16</title>
<g id="a_node16"><a xlink:title=" ">
<polygon fill="none" stroke="#bfbfbf" points="1178,-0.5 1178,-19.5 1232,-19.5 1232,-0.5 1178,-0.5"/>
<text text-anchor="middle" x="1205" y="-7.5" font-family="Helvetica,sans-Serif" font-size="10.00">dirent.h</text>
</a>
</g>
</g>
<!-- Node10&#45;&gt;Node16 -->
<g id="edge19" class="edge">
<title>Node10&#45;&gt;Node16</title>
<path fill="none" stroke="midnightblue" d="M1137.01,-56.32C1149.53,-47.98 1168.68,-35.21 1183.47,-25.35"/>
<polygon fill="midnightblue" stroke="midnightblue" points="1185.64,-28.11 1192.02,-19.65 1181.76,-22.29 1185.64,-28.11"/>
</g>
<!-- Node17&#45;&gt;Node3 -->
<g id="edge21" class="edge">
<title>Node17&#45;&gt;Node3</title>
<path fill="none" stroke="midnightblue" d="M405.33,-112.08C405.59,-105.01 405.97,-94.86 406.3,-85.99"/>
<polygon fill="midnightblue" stroke="midnightblue" points="409.8,-85.87 406.68,-75.75 402.81,-85.61 409.8,-85.87"/>
</g>
<!-- Node17&#45;&gt;Node4 -->
<g id="edge22" class="edge">
<title>Node17&#45;&gt;Node4</title>
<path fill="none" stroke="midnightblue" d="M439.54,-112.44C477.25,-103.1 537.74,-88.12 578.86,-77.93"/>
<polygon fill="midnightblue" stroke="midnightblue" points="579.75,-81.32 588.62,-75.52 578.07,-74.52 579.75,-81.32"/>
</g>
<!-- Node17&#45;&gt;Node5 -->
<g id="edge23" class="edge">
<title>Node17&#45;&gt;Node5</title>
<path fill="none" stroke="midnightblue" d="M368.79,-112.44C331.88,-102.03 282.95,-82.51 305,-56 330.29,-25.6 445.15,-15.65 507.48,-12.46"/>
<polygon fill="midnightblue" stroke="midnightblue" points="507.92,-15.94 517.74,-11.97 507.59,-8.95 507.92,-15.94"/>
</g>
<!-- Node17&#45;&gt;Node7 -->
<g id="edge24" class="edge">
<title>Node17&#45;&gt;Node7</title>
<path fill="none" stroke="midnightblue" d="M393.43,-112.32C382.58,-104.18 366.12,-91.84 353.12,-82.09"/>
<polygon fill="midnightblue" stroke="midnightblue" points="354.88,-79.03 344.78,-75.83 350.68,-84.63 354.88,-79.03"/>
</g>
<!-- Node17&#45;&gt;Node8 -->
<g id="edge25" class="edge">
<title>Node17&#45;&gt;Node8</title>
<path fill="none" stroke="midnightblue" d="M382.61,-112.45C360.4,-103.8 325.49,-89.78 296,-76 260.81,-59.56 221.24,-38.32 196.47,-24.67"/>
<polygon fill="midnightblue" stroke="midnightblue" points="197.87,-21.45 187.43,-19.67 194.48,-27.58 197.87,-21.45"/>
</g>
<!-- Node19 -->
<g id="node19" class="node">
<title>Node19</title>
<g id="a_node19"><a xlink:href="_log_outputter_console_8hpp.html" target="_top" xlink:title=" ">
<polygon fill="none" stroke="black" points="216,-168.5 216,-187.5 356,-187.5 356,-168.5 216,-168.5"/>
<text text-anchor="middle" x="286" y="-175.5" font-family="Helvetica,sans-Serif" font-size="10.00">LogOutputterConsole.hpp</text>
</a>
</g>
</g>
<!-- Node18&#45;&gt;Node19 -->
<g id="edge27" class="edge">
<title>Node18&#45;&gt;Node19</title>
<path fill="none" stroke="midnightblue" d="M312.72,-224.08C308.29,-216.61 301.84,-205.72 296.38,-196.52"/>
<polygon fill="midnightblue" stroke="midnightblue" points="299.29,-194.57 291.19,-187.75 293.27,-198.14 299.29,-194.57"/>
</g>
<!-- Node24 -->
<g id="node24" class="node">
<title>Node24</title>
<g id="a_node24"><a xlink:href="_log_outputter_file_8hpp.html" target="_top" xlink:title=" ">
<polygon fill="none" stroke="black" points="433.5,-168.5 433.5,-187.5 552.5,-187.5 552.5,-168.5 433.5,-168.5"/>
<text text-anchor="middle" x="493" y="-175.5" font-family="Helvetica,sans-Serif" font-size="10.00">LogOutputterFile.hpp</text>
</a>
</g>
</g>
<!-- Node18&#45;&gt;Node24 -->
<g id="edge35" class="edge">
<title>Node18&#45;&gt;Node24</title>
<path fill="none" stroke="midnightblue" d="M345.73,-224.44C375.43,-215.28 422.72,-200.69 455.67,-190.52"/>
<polygon fill="midnightblue" stroke="midnightblue" points="456.88,-193.81 465.4,-187.52 454.81,-187.12 456.88,-193.81"/>
</g>
<!-- Node25 -->
<g id="node25" class="node">
<title>Node25</title>
<g id="a_node25"><a xlink:href="_logger_8hpp.html" target="_top" xlink:title=" ">
<polygon fill="none" stroke="black" points="128,-168.5 128,-187.5 198,-187.5 198,-168.5 128,-168.5"/>
<text text-anchor="middle" x="163" y="-175.5" font-family="Helvetica,sans-Serif" font-size="10.00">Logger.hpp</text>
</a>
</g>
</g>
<!-- Node18&#45;&gt;Node25 -->
<g id="edge39" class="edge">
<title>Node18&#45;&gt;Node25</title>
<path fill="none" stroke="midnightblue" d="M293.44,-224.44C267.48,-215.4 226.33,-201.06 197.2,-190.92"/>
<polygon fill="midnightblue" stroke="midnightblue" points="198.04,-187.5 187.45,-187.52 195.74,-194.11 198.04,-187.5"/>
</g>
<!-- Node19&#45;&gt;Node5 -->
<g id="edge28" class="edge">
<title>Node19&#45;&gt;Node5</title>
<path fill="none" stroke="midnightblue" d="M283.57,-168.31C278,-146.33 266.92,-87.96 296,-56 323.77,-25.49 443.81,-15.56 507.67,-12.41"/>
<polygon fill="midnightblue" stroke="midnightblue" points="507.96,-15.9 517.79,-11.95 507.64,-8.91 507.96,-15.9"/>
</g>
<!-- Node19&#45;&gt;Node7 -->
<g id="edge29" class="edge">
<title>Node19&#45;&gt;Node7</title>
<path fill="none" stroke="midnightblue" d="M289.69,-168.37C297.34,-150.46 315.09,-108.92 325.33,-84.95"/>
<polygon fill="midnightblue" stroke="midnightblue" points="328.62,-86.16 329.33,-75.59 322.18,-83.41 328.62,-86.16"/>
</g>
<!-- Node20 -->
<g id="node20" class="node">
<title>Node20</title>
<g id="a_node20"><a xlink:href="_a_log_outputter_8hpp.html" target="_top" xlink:title=" ">
<polygon fill="none" stroke="black" points="112.5,-112.5 112.5,-131.5 219.5,-131.5 219.5,-112.5 112.5,-112.5"/>
<text text-anchor="middle" x="166" y="-119.5" font-family="Helvetica,sans-Serif" font-size="10.00">ALogOutputter.hpp</text>
</a>
</g>
</g>
<!-- Node19&#45;&gt;Node20 -->
<g id="edge30" class="edge">
<title>Node19&#45;&gt;Node20</title>
<path fill="none" stroke="midnightblue" d="M266.99,-168.44C247.41,-159.64 216.69,-145.81 194.27,-135.72"/>
<polygon fill="midnightblue" stroke="midnightblue" points="195.48,-132.43 184.93,-131.52 192.61,-138.81 195.48,-132.43"/>
</g>
<!-- Node21 -->
<g id="node21" class="node">
<title>Node21</title>
<g id="a_node21"><a xlink:href="_log_data_8hpp.html" target="_top" xlink:title=" ">
<polygon fill="none" stroke="black" points="66,-56.5 66,-75.5 144,-75.5 144,-56.5 66,-56.5"/>
<text text-anchor="middle" x="105" y="-63.5" font-family="Helvetica,sans-Serif" font-size="10.00">LogData.hpp</text>
</a>
</g>
</g>
<!-- Node20&#45;&gt;Node21 -->
<g id="edge31" class="edge">
<title>Node20&#45;&gt;Node21</title>
<path fill="none" stroke="midnightblue" d="M156.2,-112.32C147.18,-104.34 133.59,-92.31 122.68,-82.65"/>
<polygon fill="midnightblue" stroke="midnightblue" points="124.79,-79.84 114.98,-75.83 120.15,-85.08 124.79,-79.84"/>
</g>
<!-- Node21&#45;&gt;Node8 -->
<g id="edge34" class="edge">
<title>Node21&#45;&gt;Node8</title>
<path fill="none" stroke="midnightblue" d="M115.76,-56.32C125.77,-48.26 140.89,-36.08 152.93,-26.37"/>
<polygon fill="midnightblue" stroke="midnightblue" points="155.45,-28.83 161.04,-19.83 151.06,-23.38 155.45,-28.83"/>
</g>
<!-- Node22 -->
<g id="node22" class="node">
<title>Node22</title>
<g id="a_node22"><a xlink:title=" ">
<polygon fill="none" stroke="#bfbfbf" points="334,-0.5 334,-19.5 378,-19.5 378,-0.5 334,-0.5"/>
<text text-anchor="middle" x="356" y="-7.5" font-family="Helvetica,sans-Serif" font-size="10.00">ctime</text>
</a>
</g>
</g>
<!-- Node21&#45;&gt;Node22 -->
<g id="edge32" class="edge">
<title>Node21&#45;&gt;Node22</title>
<path fill="none" stroke="midnightblue" d="M144.22,-56.56C193.72,-45.91 277.94,-27.79 323.84,-17.92"/>
<polygon fill="midnightblue" stroke="midnightblue" points="324.8,-21.29 333.84,-15.77 323.32,-14.45 324.8,-21.29"/>
</g>
<!-- Node23 -->
<g id="node23" class="node">
<title>Node23</title>
<g id="a_node23"><a xlink:title=" ">
<polygon fill="none" stroke="#bfbfbf" points="790,-0.5 790,-19.5 846,-19.5 846,-0.5 790,-0.5"/>
<text text-anchor="middle" x="818" y="-7.5" font-family="Helvetica,sans-Serif" font-size="10.00">sstream</text>
</a>
</g>
</g>
<!-- Node21&#45;&gt;Node23 -->
<g id="edge33" class="edge">
<title>Node21&#45;&gt;Node23</title>
<path fill="none" stroke="midnightblue" d="M144.09,-62.04C268.77,-52.6 655.96,-23.27 779.62,-13.91"/>
<polygon fill="midnightblue" stroke="midnightblue" points="780.04,-17.38 789.75,-13.14 779.51,-10.4 780.04,-17.38"/>
</g>
<!-- Node24&#45;&gt;Node5 -->
<g id="edge37" class="edge">
<title>Node24&#45;&gt;Node5</title>
<path fill="none" stroke="midnightblue" d="M495.96,-168.08C504.65,-141.83 530.26,-64.55 542,-29.12"/>
<polygon fill="midnightblue" stroke="midnightblue" points="545.34,-30.16 545.16,-19.57 538.69,-27.96 545.34,-30.16"/>
</g>
<!-- Node24&#45;&gt;Node6 -->
<g id="edge36" class="edge">
<title>Node24&#45;&gt;Node6</title>
<path fill="none" stroke="midnightblue" d="M552.57,-174.45C669.61,-168.97 921.01,-154.69 953,-132 982.12,-111.35 997.56,-86.5 979,-56 968.13,-38.15 947.65,-27.06 929.28,-20.36"/>
<polygon fill="midnightblue" stroke="midnightblue" points="930.25,-17 919.65,-17.16 928.04,-23.64 930.25,-17"/>
</g>
<!-- Node24&#45;&gt;Node20 -->
<g id="edge38" class="edge">
<title>Node24&#45;&gt;Node20</title>
<path fill="none" stroke="midnightblue" d="M441.19,-168.44C383.18,-158.87 289.26,-143.36 227.56,-133.17"/>
<polygon fill="midnightblue" stroke="midnightblue" points="228.01,-129.69 217.57,-131.52 226.87,-136.6 228.01,-129.69"/>
</g>
<!-- Node25&#45;&gt;Node8 -->
<g id="edge40" class="edge">
<title>Node25&#45;&gt;Node8</title>
<path fill="none" stroke="midnightblue" d="M144.63,-168.36C106.69,-149.32 25.75,-101.79 57,-56 75.35,-29.11 112.39,-18.29 139.49,-13.93"/>
<polygon fill="midnightblue" stroke="midnightblue" points="140.27,-17.36 149.7,-12.52 139.31,-10.43 140.27,-17.36"/>
</g>
<!-- Node25&#45;&gt;Node9 -->
<g id="edge41" class="edge">
<title>Node25&#45;&gt;Node9</title>
<path fill="none" stroke="midnightblue" d="M198.48,-169.37C201.35,-168.87 204.22,-168.4 207,-168 395.07,-140.91 451.24,-187.37 633,-132 669.73,-120.81 707.79,-96.99 730.16,-81.5"/>
<polygon fill="midnightblue" stroke="midnightblue" points="732.32,-84.26 738.47,-75.63 728.28,-78.54 732.32,-84.26"/>
</g>
<!-- Node25&#45;&gt;Node20 -->
<g id="edge42" class="edge">
<title>Node25&#45;&gt;Node20</title>
<path fill="none" stroke="midnightblue" d="M163.5,-168.08C163.89,-161.01 164.45,-150.86 164.95,-141.99"/>
<polygon fill="midnightblue" stroke="midnightblue" points="168.45,-141.93 165.51,-131.75 161.46,-141.54 168.45,-141.93"/>
</g>
<!-- Node25&#45;&gt;Node21 -->
<g id="edge43" class="edge">
<title>Node25&#45;&gt;Node21</title>
<path fill="none" stroke="midnightblue" d="M143.7,-168.48C129.57,-161.08 111.44,-148.89 103,-132 95.82,-117.64 97.23,-99.18 99.91,-85.6"/>
<polygon fill="midnightblue" stroke="midnightblue" points="103.39,-86.08 102.29,-75.55 96.58,-84.47 103.39,-86.08"/>
</g>
<!-- Node26&#45;&gt;Node4 -->
<g id="edge64" class="edge">
<title>Node26&#45;&gt;Node4</title>
<path fill="none" stroke="midnightblue" d="M741.28,-224.08C721.26,-197.49 661.81,-118.54 635.62,-83.76"/>
<polygon fill="midnightblue" stroke="midnightblue" points="638.26,-81.45 629.45,-75.57 632.67,-85.66 638.26,-81.45"/>
</g>
<!-- Node26&#45;&gt;Node10 -->
<g id="edge45" class="edge">
<title>Node26&#45;&gt;Node10</title>
<path fill="none" stroke="midnightblue" d="M816.64,-224.46C859.46,-217.71 915.14,-206.3 962,-188 1007.3,-170.31 1017.29,-161.43 1056,-132 1075.78,-116.96 1096.07,-96.84 1109.27,-82.99"/>
<polygon fill="midnightblue" stroke="midnightblue" points="1111.87,-85.33 1116.17,-75.64 1106.77,-80.54 1111.87,-85.33"/>
</g>
<!-- Node26&#45;&gt;Node17 -->
<g id="edge46" class="edge">
<title>Node26&#45;&gt;Node17</title>
<path fill="none" stroke="midnightblue" d="M724.81,-224.49C689.6,-211.67 620.45,-186.89 561,-168 522.34,-155.71 477.84,-143.02 446.29,-134.26"/>
<polygon fill="midnightblue" stroke="midnightblue" points="447.09,-130.85 436.52,-131.56 445.23,-137.6 447.09,-130.85"/>
</g>
<!-- Node27 -->
<g id="node27" class="node">
<title>Node27</title>
<g id="a_node27"><a xlink:href="_autoindex_handler_8hpp.html" target="_top" xlink:title=" ">
<polygon fill="none" stroke="black" points="744.5,-168.5 744.5,-187.5 869.5,-187.5 869.5,-168.5 744.5,-168.5"/>
<text text-anchor="middle" x="807" y="-175.5" font-family="Helvetica,sans-Serif" font-size="10.00">AutoindexHandler.hpp</text>
</a>
</g>
</g>
<!-- Node26&#45;&gt;Node27 -->
<g id="edge47" class="edge">
<title>Node26&#45;&gt;Node27</title>
<path fill="none" stroke="midnightblue" d="M757.48,-224.32C766.2,-216.34 779.34,-204.31 789.9,-194.65"/>
<polygon fill="midnightblue" stroke="midnightblue" points="792.33,-197.17 797.35,-187.83 787.61,-192 792.33,-197.17"/>
</g>
<!-- Node31 -->
<g id="node31" class="node">
<title>Node31</title>
<g id="a_node31"><a xlink:title=" ">
<polygon fill="none" stroke="#bfbfbf" points="887.5,-168.5 887.5,-187.5 952.5,-187.5 952.5,-168.5 887.5,-168.5"/>
<text text-anchor="middle" x="920" y="-175.5" font-family="Helvetica,sans-Serif" font-size="10.00">exception</text>
</a>
</g>
</g>
<!-- Node26&#45;&gt;Node31 -->
<g id="edge65" class="edge">
<title>Node26&#45;&gt;Node31</title>
<path fill="none" stroke="midnightblue" d="M775.25,-224.44C804.44,-215.28 850.92,-200.69 883.31,-190.52"/>
<polygon fill="midnightblue" stroke="midnightblue" points="884.38,-193.85 892.87,-187.52 882.28,-187.17 884.38,-193.85"/>
</g>
<!-- Node27&#45;&gt;Node8 -->
<g id="edge60" class="edge">
<title>Node27&#45;&gt;Node8</title>
<path fill="none" stroke="midnightblue" d="M744.16,-174.48C635.32,-169.51 416.41,-156.74 344,-132 278.59,-109.65 215.86,-54.19 187.62,-26.81"/>
<polygon fill="midnightblue" stroke="midnightblue" points="189.87,-24.11 180.29,-19.58 184.95,-29.09 189.87,-24.11"/>
</g>
<!-- Node27&#45;&gt;Node9 -->
<g id="edge61" class="edge">
<title>Node27&#45;&gt;Node9</title>
<path fill="none" stroke="midnightblue" d="M794.29,-168.2C783.61,-160.09 768.87,-147.05 761,-132 753.46,-117.58 750.9,-99.13 750.12,-85.57"/>
<polygon fill="midnightblue" stroke="midnightblue" points="753.61,-85.41 749.81,-75.53 746.62,-85.63 753.61,-85.41"/>
</g>
<!-- Node27&#45;&gt;Node10 -->
<g id="edge48" class="edge">
<title>Node27&#45;&gt;Node10</title>
<path fill="none" stroke="midnightblue" d="M859.13,-168.48C913.48,-159.19 994.74,-144.04 1024,-132 1054.89,-119.29 1086.55,-96.79 1105.75,-81.89"/>
<polygon fill="midnightblue" stroke="midnightblue" points="1107.98,-84.59 1113.65,-75.63 1103.63,-79.1 1107.98,-84.59"/>
</g>
<!-- Node27&#45;&gt;Node14 -->
<g id="edge63" class="edge">
<title>Node27&#45;&gt;Node14</title>
<path fill="none" stroke="midnightblue" d="M861.65,-168.49C923.55,-158.62 1020.41,-142.36 1056,-132 1119.16,-113.61 1132.22,-101.16 1193,-76 1236.55,-57.97 1286.85,-36.82 1318.04,-23.66"/>
<polygon fill="midnightblue" stroke="midnightblue" points="1319.61,-26.79 1327.47,-19.68 1316.89,-20.34 1319.61,-26.79"/>
</g>
<!-- Node27&#45;&gt;Node23 -->
<g id="edge62" class="edge">
<title>Node27&#45;&gt;Node23</title>
<path fill="none" stroke="midnightblue" d="M869.8,-169.42C897.95,-163.27 929.92,-152.14 953,-132 973.67,-113.96 973.08,-102.8 979,-76 980.92,-67.32 984.37,-63.08 979,-56 975.19,-50.98 902.39,-32.04 856,-20.4"/>
<polygon fill="midnightblue" stroke="midnightblue" points="856.8,-16.99 846.25,-17.96 855.1,-23.78 856.8,-16.99"/>
</g>
<!-- Node28 -->
<g id="node28" class="node">
<title>Node28</title>
<g id="a_node28"><a xlink:href="_directory_8hpp.html" target="_top" xlink:title=" ">
<polygon fill="none" stroke="black" points="862.5,-112.5 862.5,-131.5 943.5,-131.5 943.5,-112.5 862.5,-112.5"/>
<text text-anchor="middle" x="903" y="-119.5" font-family="Helvetica,sans-Serif" font-size="10.00">Directory.hpp</text>
</a>
</g>
</g>
<!-- Node27&#45;&gt;Node28 -->
<g id="edge49" class="edge">
<title>Node27&#45;&gt;Node28</title>
<path fill="none" stroke="midnightblue" d="M822.42,-168.32C837.54,-159.82 860.82,-146.73 878.47,-136.8"/>
<polygon fill="midnightblue" stroke="midnightblue" points="880.61,-139.61 887.61,-131.65 877.18,-133.51 880.61,-139.61"/>
</g>
<!-- Node30 -->
<g id="node30" class="node">
<title>Node30</title>
<g id="a_node30"><a xlink:href="utilities_8hpp.html" target="_top" xlink:title=" ">
<polygon fill="none" stroke="black" points="770,-112.5 770,-131.5 844,-131.5 844,-112.5 770,-112.5"/>
<text text-anchor="middle" x="807" y="-119.5" font-family="Helvetica,sans-Serif" font-size="10.00">utilities.hpp</text>
</a>
</g>
</g>
<!-- Node27&#45;&gt;Node30 -->
<g id="edge53" class="edge">
<title>Node27&#45;&gt;Node30</title>
<path fill="none" stroke="midnightblue" d="M807,-168.08C807,-161.01 807,-150.86 807,-141.99"/>
<polygon fill="midnightblue" stroke="midnightblue" points="810.5,-141.75 807,-131.75 803.5,-141.75 810.5,-141.75"/>
</g>
<!-- Node28&#45;&gt;Node9 -->
<g id="edge51" class="edge">
<title>Node28&#45;&gt;Node9</title>
<path fill="none" stroke="midnightblue" d="M878.76,-112.44C852.98,-103.35 812.04,-88.9 783.26,-78.74"/>
<polygon fill="midnightblue" stroke="midnightblue" points="784.22,-75.37 773.63,-75.34 781.89,-81.97 784.22,-75.37"/>
</g>
<!-- Node28&#45;&gt;Node10 -->
<g id="edge50" class="edge">
<title>Node28&#45;&gt;Node10</title>
<path fill="none" stroke="midnightblue" d="M938.02,-112.44C976.25,-103.1 1037.57,-88.12 1079.26,-77.93"/>
<polygon fill="midnightblue" stroke="midnightblue" points="1080.26,-81.29 1089.15,-75.52 1078.6,-74.49 1080.26,-81.29"/>
</g>
<!-- Node29 -->
<g id="node29" class="node">
<title>Node29</title>
<g id="a_node29"><a xlink:title=" ">
<polygon fill="none" stroke="#bfbfbf" points="906,-56.5 906,-75.5 970,-75.5 970,-56.5 906,-56.5"/>
<text text-anchor="middle" x="938" y="-63.5" font-family="Helvetica,sans-Serif" font-size="10.00">algorithm</text>
</a>
</g>
</g>
<!-- Node28&#45;&gt;Node29 -->
<g id="edge52" class="edge">
<title>Node28&#45;&gt;Node29</title>
<path fill="none" stroke="midnightblue" d="M908.78,-112.08C913.67,-104.53 920.83,-93.49 926.83,-84.23"/>
<polygon fill="midnightblue" stroke="midnightblue" points="929.83,-86.05 932.33,-75.75 923.95,-82.24 929.83,-86.05"/>
</g>
<!-- Node30&#45;&gt;Node4 -->
<g id="edge54" class="edge">
<title>Node30&#45;&gt;Node4</title>
<path fill="none" stroke="midnightblue" d="M777.84,-112.44C746.49,-103.24 696.47,-88.56 661.8,-78.39"/>
<polygon fill="midnightblue" stroke="midnightblue" points="662.6,-74.97 652.02,-75.52 660.63,-81.69 662.6,-74.97"/>
</g>
<!-- Node30&#45;&gt;Node5 -->
<g id="edge57" class="edge">
<title>Node30&#45;&gt;Node5</title>
<path fill="none" stroke="midnightblue" d="M811.95,-112.26C818.97,-98.58 829.54,-72 816,-56 787.36,-22.15 656.32,-13.75 588.68,-11.67"/>
<polygon fill="midnightblue" stroke="midnightblue" points="588.48,-8.17 578.39,-11.39 588.29,-15.16 588.48,-8.17"/>
</g>
<!-- Node30&#45;&gt;Node9 -->
<g id="edge59" class="edge">
<title>Node30&#45;&gt;Node9</title>
<path fill="none" stroke="midnightblue" d="M797.84,-112.32C789.5,-104.42 776.97,-92.55 766.82,-82.94"/>
<polygon fill="midnightblue" stroke="midnightblue" points="768.99,-80.17 759.32,-75.83 764.18,-85.25 768.99,-80.17"/>
</g>
<!-- Node30&#45;&gt;Node22 -->
<g id="edge56" class="edge">
<title>Node30&#45;&gt;Node22</title>
<path fill="none" stroke="midnightblue" d="M806.56,-112.16C805.33,-97.83 800.66,-69.74 783,-56 767.42,-43.88 485.31,-21.01 388.38,-13.48"/>
<polygon fill="midnightblue" stroke="midnightblue" points="388.53,-9.98 378.29,-12.7 387.99,-16.96 388.53,-9.98"/>
</g>
<!-- Node30&#45;&gt;Node23 -->
<g id="edge58" class="edge">
<title>Node30&#45;&gt;Node23</title>
<path fill="none" stroke="midnightblue" d="M821.08,-112.26C832.35,-104.35 847.35,-91.58 854,-76 861.47,-58.51 848.4,-39.61 835.97,-26.73"/>
<polygon fill="midnightblue" stroke="midnightblue" points="838.14,-23.95 828.5,-19.54 833.28,-29 838.14,-23.95"/>
</g>
<!-- Node30&#45;&gt;Node29 -->
<g id="edge55" class="edge">
<title>Node30&#45;&gt;Node29</title>
<path fill="none" stroke="midnightblue" d="M827.76,-112.44C849.32,-103.56 883.26,-89.56 907.79,-79.45"/>
<polygon fill="midnightblue" stroke="midnightblue" points="909.43,-82.56 917.34,-75.52 906.76,-76.09 909.43,-82.56"/>
</g>
</g>
</svg>
        <g id="navigator" transform="translate(0 0)" fill="#404254">
                <rect fill="#f2f5e9" fill-opacity="0.5" stroke="#606060" stroke-width=".5" x="0" y="0" width="60" height="60"/>
                <use id="zoomplus" xlink:href="#zoomPlus" x="17" y="9" onmousedown="handleZoom(evt,'in')"/>
                <use id="zoomminus" xlink:href="#zoomMin" x="42" y="9" onmousedown="handleZoom(evt,'out')"/>
                <use id="reset" xlink:href="#resetDef" x="30" y="36" onmousedown="handleReset()"/>
                <g id="arrowUp" xlink:href="#dirArrow" transform="translate(30 24)" onmousedown="handlePan(0,-1)">
                  <use xlink:href="#rim" fill="#404040">
                        <set attributeName="fill" to="#808080" begin="arrowUp.mouseover" end="arrowUp.mouseout"/>
                  </use>
                  <path fill="none" stroke="white" stroke-width="1.5" d="M0,-3.0v7 M-2.5,-0.5L0,-3.0L2.5,-0.5"/>
                </g>
                <g id="arrowRight" xlink:href="#dirArrow" transform="rotate(90) translate(36 -43)" onmousedown="handlePan(1,0)">
                  <use xlink:href="#rim" fill="#404040">
                        <set attributeName="fill" to="#808080" begin="arrowRight.mouseover" end="arrowRight.mouseout"/>
                  </use>
                  <path fill="none" stroke="white" stroke-width="1.5" d="M0,-3.0v7 M-2.5,-0.5L0,-3.0L2.5,-0.5"/>
                </g>
                <g id="arrowDown" xlink:href="#dirArrow" transform="rotate(180) translate(-30 -48)" onmousedown="handlePan(0,1)">
                  <use xlink:href="#rim" fill="#404040">
                        <set attributeName="fill" to="#808080" begin="arrowDown.mouseover" end="arrowDown.mouseout"/>
                  </use>
                  <path fill="none" stroke="white" stroke-width="1.5" d="M0,-3.0v7 M-2.5,-0.5L0,-3.0L2.5,-0.5"/>
                </g>
                <g id="arrowLeft" xlink:href="#dirArrow" transform="rotate(270) translate(-36 17)" onmousedown="handlePan(-1,0)">
                  <use xlink:href="#rim" fill="#404040">
                        <set attributeName="fill" to="#808080" begin="arrowLeft.mouseover" end="arrowLeft.mouseout"/>
                  </use>
                  <path fill="none" stroke="white" stroke-width="1.5" d="M0,-3.0v7 M-2.5,-0.5L0,-3.0L2.5,-0.5"/>
                </g>
        </g>
        <svg viewBox="0 0 15 15" width="100%" height="30px" preserveAspectRatio="xMaxYMin meet">
         <g id="arrow_out" transform="scale(0.3 0.3)">
          <a xlink:href="_response_builder_8hpp__incl_org.svg" target="_base">
           <rect id="button" ry="5" rx="5" y="6" x="6" height="38" width="38"
                fill="#f2f5e9" fill-opacity="0.5" stroke="#606060" stroke-width="1.0"/>
           <path id="arrow"
             d="M 11.500037,31.436501 C 11.940474,20.09759 22.043105,11.32322 32.158766,21.979434 L 37.068811,17.246167 C 37.068811,17.246167 37.088388,32 37.088388,32 L 22.160133,31.978069 C 22.160133,31.978069 26.997745,27.140456 26.997745,27.140456 C 18.528582,18.264221 13.291696,25.230495 11.500037,31.436501 z"
             style="fill:#404040;"/>
          </a>
         </g>
        </svg>
</svg>
