<?xml version="1.0" encoding="UTF-8" standalone="no"?>
<!DOCTYPE svg PUBLIC "-//W3C//DTD SVG 1.1//EN"
 "http://www.w3.org/Graphics/SVG/1.1/DTD/svg11.dtd">
<!-- Generated by graphviz version 2.43.0 (0)
 -->
<!-- Title: inc/ResponseBodyHandler.hpp Pages: 1 -->
<!--zoomable 280 -->

<svg id="main" version="1.1" xmlns="http://www.w3.org/2000/svg" xmlns:xlink="http://www.w3.org/1999/xlink" xml:space="preserve" onload="init(evt)">
<style type="text/css"><![CDATA[
.node, .edge {opacity: 0.7;}
.node.selected, .edge.selected {opacity: 1;}
.edge:hover path { stroke: red; }
.edge:hover polygon { stroke: red; fill: red; }
]]></style>

<defs>
  <circle id="rim" cx="0" cy="0" r="7"/>
  <circle id="rim2" cx="0" cy="0" r="3.5"/>
  <g id="zoomPlus">
    <use xlink:href="#rim" fill="#404040"><set attributeName="fill" to="#808080" begin="zoomplus.mouseover" end="zoomplus.mouseout"/></use>
    <path d="M-4,0h8M0,-4v8" fill="none" stroke="white" stroke-width="1.5" pointer-events="none"/>
  </g>
  <g id="zoomMin">
    <use xlink:href="#rim" fill="#404040"><set attributeName="fill" to="#808080" begin="zoomminus.mouseover" end="zoomminus.mouseout"/></use>
    <path d="M-4,0h8" fill="none" stroke="white" stroke-width="1.5" pointer-events="none"/>
  </g>
  <g id="arrowUp" transform="translate(30 24)">
    <use xlink:href="#rim"/>
    <path pointer-events="none" fill="none" stroke="white" stroke-width="1.5" d="M0,-3.0v7 M-2.5,-0.5L0,-3.0L2.5,-0.5"/>
  </g>
  <g id="arrowRight" transform="rotate(90) translate(36 -43)">
    <use xlink:href="#rim"/>
    <path pointer-events="none" fill="none" stroke="white" stroke-width="1.5" d="M0,-3.0v7 M-2.5,-0.5L0,-3.0L2.5,-0.5"/>
  </g>
  <g id="arrowDown" transform="rotate(180) translate(-30 -48)">
    <use xlink:href="#rim"/>
    <path pointer-events="none" fill="none" stroke="white" stroke-width="1.5" d="M0,-3.0v7 M-2.5,-0.5L0,-3.0L2.5,-0.5"/>
  </g>
  <g id="arrowLeft" transform="rotate(270) translate(-36 17)">
    <use xlink:href="#rim"/>
    <path pointer-events="none" fill="none" stroke="white" stroke-width="1.5" d="M0,-3.0v7 M-2.5,-0.5L0,-3.0L2.5,-0.5"/>
  </g>
  <g id="resetDef">
    <use xlink:href="#rim2" fill="#404040"><set attributeName="fill" to="#808080" begin="reset.mouseover" end="reset.mouseout"/></use>
  </g>
</defs>
<script type="application/ecmascript">
var viewWidth = 4010;
var viewHeight = 280;
var sectionId = 'dynsection-1';
</script>
<script type="application/ecmascript" xlink:href="svg.min.js"/>
<svg id="graph" class="graph">
<g id="viewport">
<title>inc/ResponseBodyHandler.hpp</title>
<!-- Node1 -->
<g id="Node000001" class="node">
<title>Node1</title>
<g id="a_Node000001"><a xlink:title=" ">
<polygon fill="#999999" stroke="#666666" points="2373.5,-272 2209.5,-272 2209.5,-253 2373.5,-253 2373.5,-272"/>
<text text-anchor="middle" x="2291.5" y="-260" font-family="Helvetica,sans-Serif" font-size="10.00">inc/ResponseBodyHandler.hpp</text>
</a>
</g>
</g>
<!-- Node2 -->
<g id="Node000002" class="node">
<title>Node2</title>
<g id="a_Node000002"><a xlink:href="_response_builder_8hpp.html" target="_top" xlink:title=" ">
<polygon fill="white" stroke="#666666" points="2191.5,-211.5 2055.5,-211.5 2055.5,-192.5 2191.5,-192.5 2191.5,-211.5"/>
<text text-anchor="middle" x="2123.5" y="-199.5" font-family="Helvetica,sans-Serif" font-size="10.00">inc/ResponseBuilder.hpp</text>
</a>
</g>
</g>
<!-- Node1&#45;&gt;Node2 -->
<g id="edge1_Node000001_Node000002" class="edge">
<title>Node1&#45;&gt;Node2</title>
<g id="a_edge1_Node000001_Node000002"><a xlink:title=" ">
<path fill="none" stroke="#63b8ff" d="M2257.53,-249.67C2225.04,-238.36 2176.84,-221.57 2147.96,-211.52"/>
<polygon fill="#63b8ff" stroke="#63b8ff" points="2256.48,-253.01 2267.07,-252.99 2258.78,-246.4 2256.48,-253.01"/>
</a>
</g>
</g>
<!-- Node34 -->
<g id="Node000034" class="node">
<title>Node34</title>
<g id="a_Node000034"><a xlink:href="_response_body_handler_8cpp.html" target="_top" xlink:title=" ">
<polygon fill="white" stroke="#666666" points="2373.5,-211.5 2209.5,-211.5 2209.5,-192.5 2373.5,-192.5 2373.5,-211.5"/>
<text text-anchor="middle" x="2291.5" y="-199.5" font-family="Helvetica,sans-Serif" font-size="10.00">src/ResponseBodyHandler.cpp</text>
</a>
</g>
</g>
<!-- Node1&#45;&gt;Node34 -->
<g id="edge34_Node000001_Node000034" class="edge">
<title>Node1&#45;&gt;Node34</title>
<g id="a_edge34_Node000001_Node000034"><a xlink:title=" ">
<path fill="none" stroke="#63b8ff" d="M2291.5,-242.66C2291.5,-232.24 2291.5,-219.8 2291.5,-211.67"/>
<polygon fill="#63b8ff" stroke="#63b8ff" points="2288,-242.87 2291.5,-252.87 2295,-242.87 2288,-242.87"/>
</a>
</g>
</g>
<!-- Node35 -->
<g id="Node000035" class="node">
<title>Node35</title>
<g id="a_Node000035"><a xlink:href="test___response_body_handler_8cpp.html" target="_top" xlink:title=" ">
<polygon fill="white" stroke="#666666" points="2547.5,-217 2391.5,-217 2391.5,-187 2547.5,-187 2547.5,-217"/>
<text text-anchor="start" x="2399.5" y="-205" font-family="Helvetica,sans-Serif" font-size="10.00">test/unit/test_ResponseBody</text>
<text text-anchor="middle" x="2469.5" y="-194" font-family="Helvetica,sans-Serif" font-size="10.00">Handler.cpp</text>
</a>
</g>
</g>
<!-- Node1&#45;&gt;Node35 -->
<g id="edge35_Node000001_Node000035" class="edge">
<title>Node1&#45;&gt;Node35</title>
<g id="a_edge35_Node000001_Node000035"><a xlink:title=" ">
<path fill="none" stroke="#63b8ff" d="M2327.01,-249.83C2355.71,-240.4 2396.21,-227.09 2426.71,-217.06"/>
<polygon fill="#63b8ff" stroke="#63b8ff" points="2325.79,-246.55 2317.38,-252.99 2327.98,-253.2 2325.79,-246.55"/>
</a>
</g>
</g>
<!-- Node3 -->
<g id="Node000003" class="node">
<title>Node3</title>
<g id="a_Node000003"><a xlink:href="_server_8hpp.html" target="_top" xlink:title=" ">
<polygon fill="white" stroke="#666666" points="2037.5,-151 1951.5,-151 1951.5,-132 2037.5,-132 2037.5,-151"/>
<text text-anchor="middle" x="1994.5" y="-139" font-family="Helvetica,sans-Serif" font-size="10.00">inc/Server.hpp</text>
</a>
</g>
</g>
<!-- Node2&#45;&gt;Node3 -->
<g id="edge2_Node000002_Node000003" class="edge">
<title>Node2&#45;&gt;Node3</title>
<g id="a_edge2_Node000002_Node000003"><a xlink:title=" ">
<path fill="none" stroke="#63b8ff" d="M2095.46,-188.28C2070.56,-176.99 2034.88,-160.81 2013.28,-151.02"/>
<polygon fill="#63b8ff" stroke="#63b8ff" points="2094.19,-191.55 2104.74,-192.49 2097.08,-185.18 2094.19,-191.55"/>
</a>
</g>
</g>
<!-- Node32 -->
<g id="Node000032" class="node">
<title>Node32</title>
<g id="a_Node000032"><a xlink:href="_response_builder_8cpp.html" target="_top" xlink:title=" ">
<polygon fill="white" stroke="#666666" points="2191,-151 2056,-151 2056,-132 2191,-132 2191,-151"/>
<text text-anchor="middle" x="2123.5" y="-139" font-family="Helvetica,sans-Serif" font-size="10.00">src/ResponseBuilder.cpp</text>
</a>
</g>
</g>
<!-- Node2&#45;&gt;Node32 -->
<g id="edge32_Node000002_Node000032" class="edge">
<title>Node2&#45;&gt;Node32</title>
<g id="a_edge32_Node000002_Node000032"><a xlink:title=" ">
<path fill="none" stroke="#63b8ff" d="M2123.5,-182.16C2123.5,-171.74 2123.5,-159.3 2123.5,-151.17"/>
<polygon fill="#63b8ff" stroke="#63b8ff" points="2120,-182.37 2123.5,-192.37 2127,-182.37 2120,-182.37"/>
</a>
</g>
</g>
<!-- Node33 -->
<g id="Node000033" class="node">
<title>Node33</title>
<g id="a_Node000033"><a xlink:href="test___response_builder_8cpp.html" target="_top" xlink:title=" ">
<polygon fill="white" stroke="#666666" points="2394,-151 2209,-151 2209,-132 2394,-132 2394,-151"/>
<text text-anchor="middle" x="2301.5" y="-139" font-family="Helvetica,sans-Serif" font-size="10.00">test/unit/test_ResponseBuilder.cpp</text>
</a>
</g>
</g>
<!-- Node2&#45;&gt;Node33 -->
<g id="edge33_Node000002_Node000033" class="edge">
<title>Node2&#45;&gt;Node33</title>
<g id="a_edge33_Node000002_Node000033"><a xlink:title=" ">
<path fill="none" stroke="#63b8ff" d="M2159.05,-189.32C2193.48,-178 2244.86,-161.12 2275.59,-151.02"/>
<polygon fill="#63b8ff" stroke="#63b8ff" points="2157.79,-186.05 2149.38,-192.49 2159.98,-192.7 2157.79,-186.05"/>
</a>
</g>
</g>
<!-- Node4 -->
<g id="Node000004" class="node">
<title>Node4</title>
<g id="a_Node000004"><a xlink:href="_config_file_parser_8hpp.html" target="_top" xlink:title=" ">
<polygon fill="white" stroke="#666666" points="343.5,-90.5 211.5,-90.5 211.5,-71.5 343.5,-71.5 343.5,-90.5"/>
<text text-anchor="middle" x="277.5" y="-78.5" font-family="Helvetica,sans-Serif" font-size="10.00">inc/ConfigFileParser.hpp</text>
</a>
</g>
</g>
<!-- Node3&#45;&gt;Node4 -->
<g id="edge3_Node000003_Node000004" class="edge">
<title>Node3&#45;&gt;Node4</title>
<g id="a_edge3_Node000003_Node000004"><a xlink:title=" ">
<path fill="none" stroke="#63b8ff" d="M1940.84,-138.67C1688.54,-130.08 621.02,-93.7 343.6,-84.25"/>
<polygon fill="#63b8ff" stroke="#63b8ff" points="1941.08,-142.18 1951.2,-139.02 1941.32,-135.19 1941.08,-142.18"/>
</a>
</g>
</g>
<!-- Node6 -->
<g id="Node000006" class="node">
<title>Node6</title>
<g id="a_Node000006"><a xlink:href="main_8cpp.html" target="_top" xlink:title=" ">
<polygon fill="white" stroke="#666666" points="379,-24.5 300,-24.5 300,-5.5 379,-5.5 379,-24.5"/>
<text text-anchor="middle" x="339.5" y="-12.5" font-family="Helvetica,sans-Serif" font-size="10.00">src/main.cpp</text>
</a>
</g>
</g>
<!-- Node3&#45;&gt;Node6 -->
<g id="edge30_Node000003_Node000006" class="edge">
<title>Node3&#45;&gt;Node6</title>
<g id="a_edge30_Node000003_Node000006"><a xlink:title=" ">
<path fill="none" stroke="#63b8ff" d="M1941.12,-140.97C1737.45,-141.9 990.3,-137.34 387.5,-30 380.06,-28.68 372.14,-26.64 364.92,-24.52"/>
<polygon fill="#63b8ff" stroke="#63b8ff" points="1941.27,-144.47 1951.25,-140.92 1941.23,-137.47 1941.27,-144.47"/>
</a>
</g>
</g>
<!-- Node8 -->
<g id="Node000008" class="node">
<title>Node8</title>
<g id="a_Node000008"><a xlink:href="test__helpers_8hpp.html" target="_top" xlink:title=" ">
<polygon fill="white" stroke="#666666" points="2052,-90.5 1937,-90.5 1937,-71.5 2052,-71.5 2052,-90.5"/>
<text text-anchor="middle" x="1994.5" y="-78.5" font-family="Helvetica,sans-Serif" font-size="10.00">inc/test_helpers.hpp</text>
</a>
</g>
</g>
<!-- Node3&#45;&gt;Node8 -->
<g id="edge7_Node000003_Node000008" class="edge">
<title>Node3&#45;&gt;Node8</title>
<g id="a_edge7_Node000003_Node000008"><a xlink:title=" ">
<path fill="none" stroke="#63b8ff" d="M1994.5,-121.66C1994.5,-111.24 1994.5,-98.8 1994.5,-90.67"/>
<polygon fill="#63b8ff" stroke="#63b8ff" points="1991,-121.87 1994.5,-131.87 1998,-121.87 1991,-121.87"/>
</a>
</g>
</g>
<!-- Node30 -->
<g id="Node000030" class="node">
<title>Node30</title>
<g id="a_Node000030"><a xlink:href="_server_8cpp.html" target="_top" xlink:title=" ">
<polygon fill="white" stroke="#666666" points="2155,-90.5 2070,-90.5 2070,-71.5 2155,-71.5 2155,-90.5"/>
<text text-anchor="middle" x="2112.5" y="-78.5" font-family="Helvetica,sans-Serif" font-size="10.00">src/Server.cpp</text>
</a>
</g>
</g>
<!-- Node3&#45;&gt;Node30 -->
<g id="edge29_Node000003_Node000030" class="edge">
<title>Node3&#45;&gt;Node30</title>
<g id="a_edge29_Node000003_Node000030"><a xlink:title=" ">
<path fill="none" stroke="#63b8ff" d="M2020.76,-127.48C2043.5,-116.21 2075.74,-100.23 2095.32,-90.52"/>
<polygon fill="#63b8ff" stroke="#63b8ff" points="2019.06,-124.42 2011.66,-131.99 2022.17,-130.69 2019.06,-124.42"/>
</a>
</g>
</g>
<!-- Node31 -->
<g id="Node000031" class="node">
<title>Node31</title>
<g id="a_Node000031"><a xlink:href="test__select_server_config_8cpp.html" target="_top" xlink:title=" ">
<polygon fill="white" stroke="#666666" points="2318,-96 2173,-96 2173,-66 2318,-66 2318,-96"/>
<text text-anchor="start" x="2181" y="-84" font-family="Helvetica,sans-Serif" font-size="10.00">test/unit/test_selectServer</text>
<text text-anchor="middle" x="2245.5" y="-73" font-family="Helvetica,sans-Serif" font-size="10.00">Config.cpp</text>
</a>
</g>
</g>
<!-- Node3&#45;&gt;Node31 -->
<g id="edge31_Node000003_Node000031" class="edge">
<title>Node3&#45;&gt;Node31</title>
<g id="a_edge31_Node000003_Node000031"><a xlink:title=" ">
<path fill="none" stroke="#63b8ff" d="M2040.91,-129.68C2081.54,-120.21 2140.85,-106.39 2185.16,-96.06"/>
<polygon fill="#63b8ff" stroke="#63b8ff" points="2039.94,-126.32 2031,-131.99 2041.53,-133.13 2039.94,-126.32"/>
</a>
</g>
</g>
<!-- Node5 -->
<g id="Node000005" class="node">
<title>Node5</title>
<g id="a_Node000005"><a xlink:href="_config_file_parser_8cpp.html" target="_top" xlink:title=" ">
<polygon fill="white" stroke="#666666" points="131,-24.5 0,-24.5 0,-5.5 131,-5.5 131,-24.5"/>
<text text-anchor="middle" x="65.5" y="-12.5" font-family="Helvetica,sans-Serif" font-size="10.00">src/ConfigFileParser.cpp</text>
</a>
</g>
</g>
<!-- Node4&#45;&gt;Node5 -->
<g id="edge4_Node000004_Node000005" class="edge">
<title>Node4&#45;&gt;Node5</title>
<g id="a_edge4_Node000004_Node000005"><a xlink:title=" ">
<path fill="none" stroke="#63b8ff" d="M239.09,-68.4C197.28,-55.78 131.4,-35.89 93.98,-24.6"/>
<polygon fill="#63b8ff" stroke="#63b8ff" points="238.32,-71.83 248.91,-71.37 240.35,-65.13 238.32,-71.83"/>
</a>
</g>
</g>
<!-- Node4&#45;&gt;Node6 -->
<g id="edge5_Node000004_Node000006" class="edge">
<title>Node4&#45;&gt;Node6</title>
<g id="a_edge5_Node000004_Node000006"><a xlink:title=" ">
<path fill="none" stroke="#63b8ff" d="M293.02,-63.98C304.99,-51.62 321.1,-34.99 330.87,-24.91"/>
<polygon fill="#63b8ff" stroke="#63b8ff" points="290.31,-61.75 285.86,-71.37 295.33,-66.62 290.31,-61.75"/>
</a>
</g>
</g>
<!-- Node7 -->
<g id="Node000007" class="node">
<title>Node7</title>
<g id="a_Node000007"><a xlink:href="test___config_file_parser_8cpp.html" target="_top" xlink:title=" ">
<polygon fill="white" stroke="#666666" points="281.5,-30 149.5,-30 149.5,0 281.5,0 281.5,-30"/>
<text text-anchor="start" x="157.5" y="-18" font-family="Helvetica,sans-Serif" font-size="10.00">test/unit/test_ConfigFile</text>
<text text-anchor="middle" x="215.5" y="-7" font-family="Helvetica,sans-Serif" font-size="10.00">Parser.cpp</text>
</a>
</g>
</g>
<!-- Node4&#45;&gt;Node7 -->
<g id="edge6_Node000004_Node000007" class="edge">
<title>Node4&#45;&gt;Node7</title>
<g id="a_edge6_Node000004_Node000007"><a xlink:title=" ">
<path fill="none" stroke="#63b8ff" d="M262.15,-64.16C252.12,-53.81 239.14,-40.4 229.41,-30.36"/>
<polygon fill="#63b8ff" stroke="#63b8ff" points="259.67,-66.62 269.14,-71.37 264.69,-61.75 259.67,-66.62"/>
</a>
</g>
</g>
<!-- Node9 -->
<g id="Node000009" class="node">
<title>Node9</title>
<g id="a_Node000009"><a xlink:href="test___c_g_i_handler_8cpp.html" target="_top" xlink:title=" ">
<polygon fill="white" stroke="#666666" points="556,-24.5 397,-24.5 397,-5.5 556,-5.5 556,-24.5"/>
<text text-anchor="middle" x="476.5" y="-12.5" font-family="Helvetica,sans-Serif" font-size="10.00">test/unit/test_CGIHandler.cpp</text>
</a>
</g>
</g>
<!-- Node8&#45;&gt;Node9 -->
<g id="edge8_Node000008_Node000009" class="edge">
<title>Node8&#45;&gt;Node9</title>
<g id="a_edge8_Node000008_Node000009"><a xlink:title=" ">
<path fill="none" stroke="#63b8ff" d="M1926.71,-78.74C1680.48,-73.97 833.86,-56.04 564.5,-30 551.1,-28.71 536.65,-26.67 523.4,-24.56"/>
<polygon fill="#63b8ff" stroke="#63b8ff" points="1926.88,-82.24 1936.94,-78.93 1927.01,-75.24 1926.88,-82.24"/>
</a>
</g>
</g>
<!-- Node10 -->
<g id="Node000010" class="node">
<title>Node10</title>
<g id="a_Node000010"><a xlink:href="test__accept_connections_8cpp.html" target="_top" xlink:title=" ">
<polygon fill="white" stroke="#666666" points="771,-24.5 574,-24.5 574,-5.5 771,-5.5 771,-24.5"/>
<text text-anchor="middle" x="672.5" y="-12.5" font-family="Helvetica,sans-Serif" font-size="10.00">test/unit/test_acceptConnections.cpp</text>
</a>
</g>
</g>
<!-- Node8&#45;&gt;Node10 -->
<g id="edge9_Node000008_Node000010" class="edge">
<title>Node8&#45;&gt;Node10</title>
<g id="a_edge9_Node000008_Node000010"><a xlink:title=" ">
<path fill="none" stroke="#63b8ff" d="M1926.8,-79.29C1742.47,-76.92 1216.27,-67.15 780.5,-30 764.39,-28.63 747,-26.61 730.97,-24.53"/>
<polygon fill="#63b8ff" stroke="#63b8ff" points="1926.84,-82.79 1936.88,-79.42 1926.93,-75.79 1926.84,-82.79"/>
</a>
</g>
</g>
<!-- Node11 -->
<g id="Node000011" class="node">
<title>Node11</title>
<g id="a_Node000011"><a xlink:href="test__check_for_timeout_8cpp.html" target="_top" xlink:title=" ">
<polygon fill="white" stroke="#666666" points="977.5,-24.5 789.5,-24.5 789.5,-5.5 977.5,-5.5 977.5,-24.5"/>
<text text-anchor="middle" x="883.5" y="-12.5" font-family="Helvetica,sans-Serif" font-size="10.00">test/unit/test_checkForTimeout.cpp</text>
</a>
</g>
</g>
<!-- Node8&#45;&gt;Node11 -->
<g id="edge10_Node000008_Node000011" class="edge">
<title>Node8&#45;&gt;Node11</title>
<g id="a_edge10_Node000008_Node000011"><a xlink:title=" ">
<path fill="none" stroke="#63b8ff" d="M1926.66,-78.64C1764.07,-74.93 1339.46,-62.68 986.5,-30 971.23,-28.59 954.74,-26.57 939.53,-24.5"/>
<polygon fill="#63b8ff" stroke="#63b8ff" points="1926.91,-82.14 1936.98,-78.87 1927.07,-75.15 1926.91,-82.14"/>
</a>
</g>
</g>
<!-- Node12 -->
<g id="Node000012" class="node">
<title>Node12</title>
<g id="a_Node000012"><a xlink:href="test__connection_build_response_8cpp.html" target="_top" xlink:title=" ">
<polygon fill="white" stroke="#666666" points="1133,-30 996,-30 996,0 1133,0 1133,-30"/>
<text text-anchor="start" x="1004" y="-18" font-family="Helvetica,sans-Serif" font-size="10.00">test/unit/test_connection</text>
<text text-anchor="middle" x="1064.5" y="-7" font-family="Helvetica,sans-Serif" font-size="10.00">BuildResponse.cpp</text>
</a>
</g>
</g>
<!-- Node8&#45;&gt;Node12 -->
<g id="edge11_Node000008_Node000012" class="edge">
<title>Node8&#45;&gt;Node12</title>
<g id="a_edge11_Node000008_Node000012"><a xlink:title=" ">
<path fill="none" stroke="#63b8ff" d="M1926.82,-78.82C1782.18,-75.68 1432.42,-64.84 1141.5,-30 1138.8,-29.68 1136.06,-29.32 1133.28,-28.93"/>
<polygon fill="#63b8ff" stroke="#63b8ff" points="1926.81,-82.32 1936.88,-79.03 1926.95,-75.32 1926.81,-82.32"/>
</a>
</g>
</g>
<!-- Node13 -->
<g id="Node000013" class="node">
<title>Node13</title>
<g id="a_Node000013"><a xlink:href="test__connection_handle_timeout_8cpp.html" target="_top" xlink:title=" ">
<polygon fill="white" stroke="#666666" points="1288,-30 1151,-30 1151,0 1288,0 1288,-30"/>
<text text-anchor="start" x="1159" y="-18" font-family="Helvetica,sans-Serif" font-size="10.00">test/unit/test_connection</text>
<text text-anchor="middle" x="1219.5" y="-7" font-family="Helvetica,sans-Serif" font-size="10.00">HandleTimeout.cpp</text>
</a>
</g>
</g>
<!-- Node8&#45;&gt;Node13 -->
<g id="edge12_Node000008_Node000013" class="edge">
<title>Node8&#45;&gt;Node13</title>
<g id="a_edge12_Node000008_Node000013"><a xlink:title=" ">
<path fill="none" stroke="#63b8ff" d="M1926.65,-77.58C1801.62,-72.59 1526.58,-59.07 1296.5,-30 1293.8,-29.66 1291.06,-29.29 1288.29,-28.89"/>
<polygon fill="#63b8ff" stroke="#63b8ff" points="1926.71,-81.09 1936.84,-77.98 1926.98,-74.09 1926.71,-81.09"/>
</a>
</g>
</g>
<!-- Node14 -->
<g id="Node000014" class="node">
<title>Node14</title>
<g id="a_Node000014"><a xlink:href="test__connection_receive_body_8cpp.html" target="_top" xlink:title=" ">
<polygon fill="white" stroke="#666666" points="1443,-30 1306,-30 1306,0 1443,0 1443,-30"/>
<text text-anchor="start" x="1314" y="-18" font-family="Helvetica,sans-Serif" font-size="10.00">test/unit/test_connection</text>
<text text-anchor="middle" x="1374.5" y="-7" font-family="Helvetica,sans-Serif" font-size="10.00">ReceiveBody.cpp</text>
</a>
</g>
</g>
<!-- Node8&#45;&gt;Node14 -->
<g id="edge13_Node000008_Node000014" class="edge">
<title>Node8&#45;&gt;Node14</title>
<g id="a_edge13_Node000008_Node000014"><a xlink:title=" ">
<path fill="none" stroke="#63b8ff" d="M1926.59,-75.67C1823.57,-68.68 1621.76,-53.27 1451.5,-30 1448.81,-29.63 1446.07,-29.24 1443.3,-28.82"/>
<polygon fill="#63b8ff" stroke="#63b8ff" points="1926.63,-79.19 1936.85,-76.37 1927.1,-72.2 1926.63,-79.19"/>
</a>
</g>
</g>
<!-- Node15 -->
<g id="Node000015" class="node">
<title>Node15</title>
<g id="a_Node000015"><a xlink:href="test__connection_receive_from_c_g_i_8cpp.html" target="_top" xlink:title=" ">
<polygon fill="white" stroke="#666666" points="1598,-30 1461,-30 1461,0 1598,0 1598,-30"/>
<text text-anchor="start" x="1469" y="-18" font-family="Helvetica,sans-Serif" font-size="10.00">test/unit/test_connection</text>
<text text-anchor="middle" x="1529.5" y="-7" font-family="Helvetica,sans-Serif" font-size="10.00">ReceiveFromCGI.cpp</text>
</a>
</g>
</g>
<!-- Node8&#45;&gt;Node15 -->
<g id="edge14_Node000008_Node000015" class="edge">
<title>Node8&#45;&gt;Node15</title>
<g id="a_edge14_Node000008_Node000015"><a xlink:title=" ">
<path fill="none" stroke="#63b8ff" d="M1926.73,-72.34C1849.17,-63.33 1718.42,-47.37 1606.5,-30 1603.81,-29.58 1601.08,-29.15 1598.32,-28.69"/>
<polygon fill="#63b8ff" stroke="#63b8ff" points="1926.51,-75.84 1936.85,-73.51 1927.32,-68.89 1926.51,-75.84"/>
</a>
</g>
</g>
<!-- Node16 -->
<g id="Node000016" class="node">
<title>Node16</title>
<g id="a_Node000016"><a xlink:href="test__connection_receive_header_8cpp.html" target="_top" xlink:title=" ">
<polygon fill="white" stroke="#666666" points="1753,-30 1616,-30 1616,0 1753,0 1753,-30"/>
<text text-anchor="start" x="1624" y="-18" font-family="Helvetica,sans-Serif" font-size="10.00">test/unit/test_connection</text>
<text text-anchor="middle" x="1684.5" y="-7" font-family="Helvetica,sans-Serif" font-size="10.00">ReceiveHeader.cpp</text>
</a>
</g>
</g>
<!-- Node8&#45;&gt;Node16 -->
<g id="edge15_Node000008_Node000016" class="edge">
<title>Node8&#45;&gt;Node16</title>
<g id="a_edge15_Node000008_Node000016"><a xlink:title=" ">
<path fill="none" stroke="#63b8ff" d="M1942.98,-69.36C1890.8,-58.59 1809.83,-41.87 1752.43,-30.02"/>
<polygon fill="#63b8ff" stroke="#63b8ff" points="1942.51,-72.84 1953.01,-71.44 1943.93,-65.99 1942.51,-72.84"/>
</a>
</g>
</g>
<!-- Node17 -->
<g id="Node000017" class="node">
<title>Node17</title>
<g id="a_Node000017"><a xlink:href="test__connection_send_response_8cpp.html" target="_top" xlink:title=" ">
<polygon fill="white" stroke="#666666" points="1908,-30 1771,-30 1771,0 1908,0 1908,-30"/>
<text text-anchor="start" x="1779" y="-18" font-family="Helvetica,sans-Serif" font-size="10.00">test/unit/test_connection</text>
<text text-anchor="middle" x="1839.5" y="-7" font-family="Helvetica,sans-Serif" font-size="10.00">SendResponse.cpp</text>
</a>
</g>
</g>
<!-- Node8&#45;&gt;Node17 -->
<g id="edge16_Node000008_Node000017" class="edge">
<title>Node8&#45;&gt;Node17</title>
<g id="a_edge16_Node000008_Node000017"><a xlink:title=" ">
<path fill="none" stroke="#63b8ff" d="M1964.24,-67.5C1938.24,-56.77 1900.77,-41.3 1873.69,-30.12"/>
<polygon fill="#63b8ff" stroke="#63b8ff" points="1963.02,-70.79 1973.6,-71.37 1965.69,-64.32 1963.02,-70.79"/>
</a>
</g>
</g>
<!-- Node18 -->
<g id="Node000018" class="node">
<title>Node18</title>
<g id="a_Node000018"><a xlink:href="test__connection_send_to_c_g_i_8cpp.html" target="_top" xlink:title=" ">
<polygon fill="white" stroke="#666666" points="2063,-30 1926,-30 1926,0 2063,0 2063,-30"/>
<text text-anchor="start" x="1934" y="-18" font-family="Helvetica,sans-Serif" font-size="10.00">test/unit/test_connection</text>
<text text-anchor="middle" x="1994.5" y="-7" font-family="Helvetica,sans-Serif" font-size="10.00">SendToCGI.cpp</text>
</a>
</g>
</g>
<!-- Node8&#45;&gt;Node18 -->
<g id="edge17_Node000008_Node000018" class="edge">
<title>Node8&#45;&gt;Node18</title>
<g id="a_edge17_Node000008_Node000018"><a xlink:title=" ">
<path fill="none" stroke="#63b8ff" d="M1994.5,-61.35C1994.5,-51.47 1994.5,-39.51 1994.5,-30.36"/>
<polygon fill="#63b8ff" stroke="#63b8ff" points="1991,-61.37 1994.5,-71.37 1998,-61.37 1991,-61.37"/>
</a>
</g>
</g>
<!-- Node19 -->
<g id="Node000019" class="node">
<title>Node19</title>
<g id="a_Node000019"><a xlink:href="test__create_virtual_server_8cpp.html" target="_top" xlink:title=" ">
<polygon fill="white" stroke="#666666" points="2228,-30 2081,-30 2081,0 2228,0 2228,-30"/>
<text text-anchor="start" x="2089" y="-18" font-family="Helvetica,sans-Serif" font-size="10.00">test/unit/test_createVirtual</text>
<text text-anchor="middle" x="2154.5" y="-7" font-family="Helvetica,sans-Serif" font-size="10.00">Server.cpp</text>
</a>
</g>
</g>
<!-- Node8&#45;&gt;Node19 -->
<g id="edge18_Node000008_Node000019" class="edge">
<title>Node8&#45;&gt;Node19</title>
<g id="a_edge18_Node000008_Node000019"><a xlink:title=" ">
<path fill="none" stroke="#63b8ff" d="M2025.38,-67.65C2052.24,-56.9 2091.14,-41.35 2119.21,-30.12"/>
<polygon fill="#63b8ff" stroke="#63b8ff" points="2024.06,-64.41 2016.08,-71.37 2026.66,-70.9 2024.06,-64.41"/>
</a>
</g>
</g>
<!-- Node20 -->
<g id="Node000020" class="node">
<title>Node20</title>
<g id="a_Node000020"><a xlink:href="test__handle_body_8cpp.html" target="_top" xlink:title=" ">
<polygon fill="white" stroke="#666666" points="2407,-24.5 2246,-24.5 2246,-5.5 2407,-5.5 2407,-24.5"/>
<text text-anchor="middle" x="2326.5" y="-12.5" font-family="Helvetica,sans-Serif" font-size="10.00">test/unit/test_handleBody.cpp</text>
</a>
</g>
</g>
<!-- Node8&#45;&gt;Node20 -->
<g id="edge19_Node000008_Node000020" class="edge">
<title>Node8&#45;&gt;Node20</title>
<g id="a_edge19_Node000008_Node000020"><a xlink:title=" ">
<path fill="none" stroke="#63b8ff" d="M2044.87,-69.36C2050.48,-68.21 2056.11,-67.07 2061.5,-66 2137.73,-50.85 2226.52,-34.32 2279.53,-24.58"/>
<polygon fill="#63b8ff" stroke="#63b8ff" points="2043.95,-65.98 2034.86,-71.43 2045.37,-72.84 2043.95,-65.98"/>
</a>
</g>
</g>
<!-- Node21 -->
<g id="Node000021" class="node">
<title>Node21</title>
<g id="a_Node000021"><a xlink:href="test__handle_complete_request_header_8cpp.html" target="_top" xlink:title=" ">
<polygon fill="white" stroke="#666666" points="2589.5,-30 2425.5,-30 2425.5,0 2589.5,0 2589.5,-30"/>
<text text-anchor="start" x="2433.5" y="-18" font-family="Helvetica,sans-Serif" font-size="10.00">test/unit/test_handleComplete</text>
<text text-anchor="middle" x="2507.5" y="-7" font-family="Helvetica,sans-Serif" font-size="10.00">RequestHeader.cpp</text>
</a>
</g>
</g>
<!-- Node8&#45;&gt;Node21 -->
<g id="edge20_Node000008_Node000021" class="edge">
<title>Node8&#45;&gt;Node21</title>
<g id="a_edge20_Node000008_Node000021"><a xlink:title=" ">
<path fill="none" stroke="#63b8ff" d="M2042.04,-69.43C2048.56,-68.16 2055.18,-66.98 2061.5,-66 2218.22,-41.75 2259.19,-50.06 2416.5,-30 2419.35,-29.64 2422.26,-29.25 2425.19,-28.86"/>
<polygon fill="#63b8ff" stroke="#63b8ff" points="2041.05,-66.05 2031.94,-71.45 2042.43,-72.92 2041.05,-66.05"/>
</a>
</g>
</g>
<!-- Node22 -->
<g id="Node000022" class="node">
<title>Node22</title>
<g id="a_Node000022"><a xlink:href="test__handle_event_8cpp.html" target="_top" xlink:title=" ">
<polygon fill="white" stroke="#666666" points="2773,-24.5 2608,-24.5 2608,-5.5 2773,-5.5 2773,-24.5"/>
<text text-anchor="middle" x="2690.5" y="-12.5" font-family="Helvetica,sans-Serif" font-size="10.00">test/unit/test_handleEvent.cpp</text>
</a>
</g>
</g>
<!-- Node8&#45;&gt;Node22 -->
<g id="edge21_Node000008_Node000022" class="edge">
<title>Node8&#45;&gt;Node22</title>
<g id="a_edge21_Node000008_Node000022"><a xlink:title=" ">
<path fill="none" stroke="#63b8ff" d="M2040.81,-69.45C2047.72,-68.13 2054.78,-66.92 2061.5,-66 2298.48,-33.46 2360.72,-56.02 2598.5,-30 2611.83,-28.54 2626.19,-26.56 2639.5,-24.54"/>
<polygon fill="#63b8ff" stroke="#63b8ff" points="2039.97,-66.05 2030.85,-71.44 2041.34,-72.91 2039.97,-66.05"/>
</a>
</g>
</g>
<!-- Node23 -->
<g id="Node000023" class="node">
<title>Node23</title>
<g id="a_Node000023"><a xlink:href="test__helpers_8cpp.html" target="_top" xlink:title=" ">
<polygon fill="white" stroke="#666666" points="2931.5,-24.5 2791.5,-24.5 2791.5,-5.5 2931.5,-5.5 2931.5,-24.5"/>
<text text-anchor="middle" x="2861.5" y="-12.5" font-family="Helvetica,sans-Serif" font-size="10.00">test/unit/test_helpers.cpp</text>
</a>
</g>
</g>
<!-- Node8&#45;&gt;Node23 -->
<g id="edge22_Node000008_Node000023" class="edge">
<title>Node8&#45;&gt;Node23</title>
<g id="a_edge22_Node000008_Node000023"><a xlink:title=" ">
<path fill="none" stroke="#63b8ff" d="M2040.31,-69.44C2047.37,-68.1 2054.61,-66.89 2061.5,-66 2379.72,-25.06 2463.69,-66.06 2782.5,-30 2794.4,-28.65 2807.22,-26.63 2819,-24.54"/>
<polygon fill="#63b8ff" stroke="#63b8ff" points="2039.26,-66.08 2030.14,-71.48 2040.63,-72.94 2039.26,-66.08"/>
</a>
</g>
</g>
<!-- Node24 -->
<g id="Node000024" class="node">
<title>Node24</title>
<g id="a_Node000024"><a xlink:href="test__init_virtual_servers_8cpp.html" target="_top" xlink:title=" ">
<polygon fill="white" stroke="#666666" points="3081.5,-30 2949.5,-30 2949.5,0 3081.5,0 3081.5,-30"/>
<text text-anchor="start" x="2957.5" y="-18" font-family="Helvetica,sans-Serif" font-size="10.00">test/unit/test_initVirtual</text>
<text text-anchor="middle" x="3015.5" y="-7" font-family="Helvetica,sans-Serif" font-size="10.00">Servers.cpp</text>
</a>
</g>
</g>
<!-- Node8&#45;&gt;Node24 -->
<g id="edge23_Node000008_Node000024" class="edge">
<title>Node8&#45;&gt;Node24</title>
<g id="a_edge23_Node000008_Node000024"><a xlink:title=" ">
<path fill="none" stroke="#63b8ff" d="M2040.06,-69.43C2047.2,-68.08 2054.53,-66.87 2061.5,-66 2449.52,-17.85 2551.99,-73.99 2940.5,-30 2943.4,-29.67 2946.35,-29.3 2949.32,-28.89"/>
<polygon fill="#63b8ff" stroke="#63b8ff" points="2038.9,-66.09 2029.78,-71.49 2040.28,-72.96 2038.9,-66.09"/>
</a>
</g>
</g>
<!-- Node25 -->
<g id="Node000025" class="node">
<title>Node25</title>
<g id="a_Node000025"><a xlink:href="test__is_duplicate_server_8cpp.html" target="_top" xlink:title=" ">
<polygon fill="white" stroke="#666666" points="3239,-30 3100,-30 3100,0 3239,0 3239,-30"/>
<text text-anchor="start" x="3108" y="-18" font-family="Helvetica,sans-Serif" font-size="10.00">test/unit/test_isDuplicate</text>
<text text-anchor="middle" x="3169.5" y="-7" font-family="Helvetica,sans-Serif" font-size="10.00">Server.cpp</text>
</a>
</g>
</g>
<!-- Node8&#45;&gt;Node25 -->
<g id="edge24_Node000008_Node000025" class="edge">
<title>Node8&#45;&gt;Node25</title>
<g id="a_edge24_Node000008_Node000025"><a xlink:title=" ">
<path fill="none" stroke="#63b8ff" d="M2040.05,-69.39C2047.2,-68.05 2054.53,-66.84 2061.5,-66 2515.8,-11 2635.42,-78.04 3090.5,-30 3093.55,-29.68 3096.65,-29.31 3099.79,-28.9"/>
<polygon fill="#63b8ff" stroke="#63b8ff" points="2038.9,-66.06 2029.78,-71.45 2040.27,-72.92 2038.9,-66.06"/>
</a>
</g>
</g>
<!-- Node26 -->
<g id="Node000026" class="node">
<title>Node26</title>
<g id="a_Node000026"><a xlink:href="test__register_c_g_i_file_descriptor_8cpp.html" target="_top" xlink:title=" ">
<polygon fill="white" stroke="#666666" points="3413.5,-30 3257.5,-30 3257.5,0 3413.5,0 3413.5,-30"/>
<text text-anchor="start" x="3265.5" y="-18" font-family="Helvetica,sans-Serif" font-size="10.00">test/unit/test_registerCGIFile</text>
<text text-anchor="middle" x="3335.5" y="-7" font-family="Helvetica,sans-Serif" font-size="10.00">Descriptor.cpp</text>
</a>
</g>
</g>
<!-- Node8&#45;&gt;Node26 -->
<g id="edge25_Node000008_Node000026" class="edge">
<title>Node8&#45;&gt;Node26</title>
<g id="a_edge25_Node000008_Node000026"><a xlink:title=" ">
<path fill="none" stroke="#63b8ff" d="M2039.3,-69.51C2046.68,-68.1 2054.28,-66.86 2061.5,-66 2585.62,-3.78 2723.08,-80.03 3248.5,-30 3251.39,-29.72 3254.34,-29.41 3257.31,-29.07"/>
<polygon fill="#63b8ff" stroke="#63b8ff" points="2038.54,-66.09 2029.43,-71.49 2039.92,-72.95 2038.54,-66.09"/>
</a>
</g>
</g>
<!-- Node27 -->
<g id="Node000027" class="node">
<title>Node27</title>
<g id="a_Node000027"><a xlink:href="test__register_connection_8cpp.html" target="_top" xlink:title=" ">
<polygon fill="white" stroke="#666666" points="3629,-24.5 3432,-24.5 3432,-5.5 3629,-5.5 3629,-24.5"/>
<text text-anchor="middle" x="3530.5" y="-12.5" font-family="Helvetica,sans-Serif" font-size="10.00">test/unit/test_registerConnection.cpp</text>
</a>
</g>
</g>
<!-- Node8&#45;&gt;Node27 -->
<g id="edge26_Node000008_Node000027" class="edge">
<title>Node8&#45;&gt;Node27</title>
<g id="a_edge26_Node000008_Node000027"><a xlink:title=" ">
<path fill="none" stroke="#63b8ff" d="M2039.3,-69.48C2046.68,-68.08 2054.28,-66.84 2061.5,-66 2662.52,4.17 2819.22,-76.96 3422.5,-30 3439.09,-28.71 3457.03,-26.65 3473.44,-24.51"/>
<polygon fill="#63b8ff" stroke="#63b8ff" points="2038.54,-66.06 2029.43,-71.47 2039.92,-72.93 2038.54,-66.06"/>
</a>
</g>
</g>
<!-- Node28 -->
<g id="Node000028" class="node">
<title>Node28</title>
<g id="a_Node000028"><a xlink:href="test__register_virtual_server_8cpp.html" target="_top" xlink:title=" ">
<polygon fill="white" stroke="#666666" points="3801.5,-30 3647.5,-30 3647.5,0 3801.5,0 3801.5,-30"/>
<text text-anchor="start" x="3655.5" y="-18" font-family="Helvetica,sans-Serif" font-size="10.00">test/unit/test_registerVirtual</text>
<text text-anchor="middle" x="3724.5" y="-7" font-family="Helvetica,sans-Serif" font-size="10.00">Server.cpp</text>
</a>
</g>
</g>
<!-- Node8&#45;&gt;Node28 -->
<g id="edge27_Node000008_Node000028" class="edge">
<title>Node8&#45;&gt;Node28</title>
<g id="a_edge27_Node000008_Node000028"><a xlink:title=" ">
<path fill="none" stroke="#63b8ff" d="M2039.3,-69.46C2046.68,-68.06 2054.28,-66.83 2061.5,-66 2757.99,14.03 2940.4,-94.48 3638.5,-30 3641.36,-29.74 3644.27,-29.43 3647.21,-29.1"/>
<polygon fill="#63b8ff" stroke="#63b8ff" points="2038.54,-66.04 2029.42,-71.44 2039.92,-72.9 2038.54,-66.04"/>
</a>
</g>
</g>
<!-- Node29 -->
<g id="Node000029" class="node">
<title>Node29</title>
<g id="a_Node000029"><a xlink:href="test__shutdown_server_8cpp.html" target="_top" xlink:title=" ">
<polygon fill="white" stroke="#666666" points="4001.5,-24.5 3819.5,-24.5 3819.5,-5.5 4001.5,-5.5 4001.5,-24.5"/>
<text text-anchor="middle" x="3910.5" y="-12.5" font-family="Helvetica,sans-Serif" font-size="10.00">test/unit/test_shutdownServer.cpp</text>
</a>
</g>
</g>
<!-- Node8&#45;&gt;Node29 -->
<g id="edge28_Node000008_Node000029" class="edge">
<title>Node8&#45;&gt;Node29</title>
<g id="a_edge28_Node000008_Node000029"><a xlink:title=" ">
<path fill="none" stroke="#63b8ff" d="M2039.05,-69.49C2046.51,-68.08 2054.19,-66.83 2061.5,-66 2834.01,21.89 3035.48,-92.01 3810.5,-30 3826.05,-28.76 3842.88,-26.68 3858.21,-24.51"/>
<polygon fill="#63b8ff" stroke="#63b8ff" points="2038.19,-66.09 2029.08,-71.5 2039.57,-72.96 2038.19,-66.09"/>
</a>
</g>
</g>
</g>
</svg>

<g id="navigator" transform="translate(0 0)" fill="#404254">
  <rect fill="#f2f5e9" fill-opacity="0.5" stroke="#606060" stroke-width=".5" x="0" y="0" width="60" height="60"/>
  <use id="zoomplus" xlink:href="#zoomPlus" x="17" y="9" onmousedown="handleZoom(evt,'in')"/>
  <use id="zoomminus" xlink:href="#zoomMin" x="42" y="9" onmousedown="handleZoom(evt,'out')"/>
  <use id="reset" xlink:href="#resetDef" x="30" y="36" onmousedown="handleReset()"/>
   <use id="arrowup" xlink:href="#arrowUp" x="0" y="0" onmousedown="handlePan(0,-1)"/>
  <use id="arrowright" xlink:href="#arrowRight" x="0" y="0" onmousedown="handlePan(1,0)"/>
  <use id="arrowdown" xlink:href="#arrowDown" x="0" y="0" onmousedown="handlePan(0,1)"/>
  <use id="arrowleft" xlink:href="#arrowLeft" x="0" y="0" onmousedown="handlePan(-1,0)"/>
</g>
<svg viewBox="0 0 15 15" width="100%" height="30px" preserveAspectRatio="xMaxYMin meet">
 <g id="arrow_out" transform="scale(0.3 0.3)">
  <a xlink:href="_response_body_handler_8hpp__dep__incl_org.svg" target="_base">
   <rect id="button" ry="5" rx="5" y="6" x="6" height="38" width="38"
        fill="#f2f5e9" fill-opacity="0.5" stroke="#606060" stroke-width="1.0"/>
   <path id="arrow"
     d="M 11.500037,31.436501 C 11.940474,20.09759 22.043105,11.32322 32.158766,21.979434 L 37.068811,17.246167 C 37.068811,17.246167 37.088388,32 37.088388,32 L 22.160133,31.978069 C 22.160133,31.978069 26.997745,27.140456 26.997745,27.140456 C 18.528582,18.264221 13.291696,25.230495 11.500037,31.436501 z"
     style="fill:#404040;"/>
  </a>
 </g>
</svg>

<style type='text/css'>
<![CDATA[
[data-mouse-over-selected='false'] { opacity: 0.7; }
[data-mouse-over-selected='true']  { opacity: 1.0; }
]]>
</style>
<script type="application/ecmascript"><![CDATA[
document.addEventListener('DOMContentLoaded', (event) => {
  highlightEdges();
  highlightAdjacentNodes();
});
]]></script>
</svg>
