<?xml version="1.0" encoding="UTF-8" standalone="no"?>
<!DOCTYPE svg PUBLIC "-//W3C//DTD SVG 1.1//EN"
 "http://www.w3.org/Graphics/SVG/1.1/DTD/svg11.dtd">
<!-- Generated by graphviz version 2.43.0 (0)
 -->
<!-- Title: inc/ResponseBuilder.hpp Pages: 1 -->
<!--zoomable 151 -->
<svg id="main" version="1.1" xmlns="http://www.w3.org/2000/svg" xmlns:xlink="http://www.w3.org/1999/xlink" xml:space="preserve" onload="init(evt)">
<style type="text/css"><![CDATA[
.edge:hover path { stroke: red; }
.edge:hover polygon { stroke: red; fill: red; }
]]></style>
<script type="text/javascript"><![CDATA[
var edges = document.getElementsByTagName('g');
if (edges && edges.length) {
  for (var i=0;i<edges.length;i++) {
    if (edges[i].id.substr(0,4)=='edge') {
      edges[i].setAttribute('class','edge');
    }
  }
}
]]></script>
        <defs>
                <circle id="rim" cx="0" cy="0" r="7"/>
                <circle id="rim2" cx="0" cy="0" r="3.5"/>
                <g id="zoomPlus">
                        <use xlink:href="#rim" fill="#404040">
                                <set attributeName="fill" to="#808080" begin="zoomplus.mouseover" end="zoomplus.mouseout"/>
                        </use>
                        <path d="M-4,0h8M0,-4v8" fill="none" stroke="white" stroke-width="1.5" pointer-events="none"/>
                </g>
                <g id="zoomMin">
                        <use xlink:href="#rim" fill="#404040">
                                <set attributeName="fill" to="#808080" begin="zoomminus.mouseover" end="zoomminus.mouseout"/>
                        </use>
                        <path d="M-4,0h8" fill="none" stroke="white" stroke-width="1.5" pointer-events="none"/>
                </g>
                <g id="dirArrow">
                        <path fill="none" stroke="white" stroke-width="1.5" d="M0,-3.0v7 M-2.5,-0.5L0,-3.0L2.5,-0.5"/>
                </g>
               <g id="resetDef">
                       <use xlink:href="#rim2" fill="#404040">
                               <set attributeName="fill" to="#808080" begin="reset.mouseover" end="reset.mouseout"/>
                       </use>
               </g>
        </defs>

<script type="text/javascript">
var viewWidth = 2824;
var viewHeight = 151;
var sectionId = 'dynsection-1';
</script>
<script xlink:href="svgpan.js"/>
<svg id="graph" class="graph">
<g id="viewport">
<title>inc/ResponseBuilder.hpp</title>
<!-- Node1 -->
<g id="node1" class="node">
<title>Node1</title>
<g id="a_node1"><a xlink:title=" ">
<polygon fill="#bfbfbf" stroke="black" points="1324.5,-123.5 1324.5,-142.5 1460.5,-142.5 1460.5,-123.5 1324.5,-123.5"/>
<text text-anchor="middle" x="1392.5" y="-130.5" font-family="Helvetica,sans-Serif" font-size="10.00">inc/ResponseBuilder.hpp</text>
</a>
</g>
</g>
<!-- Node2 -->
<g id="node2" class="node">
<title>Node2</title>
<g id="a_node2"><a xlink:href="_server_8hpp.html" target="_top" xlink:title=" ">
<polygon fill="none" stroke="black" points="1285.5,-67.5 1285.5,-86.5 1371.5,-86.5 1371.5,-67.5 1285.5,-67.5"/>
<text text-anchor="middle" x="1328.5" y="-74.5" font-family="Helvetica,sans-Serif" font-size="10.00">inc/Server.hpp</text>
</a>
</g>
</g>
<!-- Node1&#45;&gt;Node2 -->
<g id="edge1" class="edge">
<title>Node1&#45;&gt;Node2</title>
<path fill="none" stroke="midnightblue" d="M1374.51,-116.82C1363.04,-107.15 1348.59,-94.95 1338.97,-86.83"/>
<polygon fill="midnightblue" stroke="midnightblue" points="1372.32,-119.55 1382.22,-123.32 1376.83,-114.2 1372.32,-119.55"/>
</g>
<!-- Node20 -->
<g id="node20" class="node">
<title>Node20</title>
<g id="a_node20"><a xlink:href="_response_builder_8cpp.html" target="_top" xlink:title=" ">
<polygon fill="none" stroke="black" points="1390,-67.5 1390,-86.5 1525,-86.5 1525,-67.5 1390,-67.5"/>
<text text-anchor="middle" x="1457.5" y="-74.5" font-family="Helvetica,sans-Serif" font-size="10.00">src/ResponseBuilder.cpp</text>
</a>
</g>
</g>
<!-- Node1&#45;&gt;Node20 -->
<g id="edge19" class="edge">
<title>Node1&#45;&gt;Node20</title>
<path fill="none" stroke="midnightblue" d="M1410.77,-116.82C1422.42,-107.15 1437.1,-94.95 1446.87,-86.83"/>
<polygon fill="midnightblue" stroke="midnightblue" points="1408.4,-114.24 1402.94,-123.32 1412.87,-119.63 1408.4,-114.24"/>
</g>
<!-- Node3 -->
<g id="node3" class="node">
<title>Node3</title>
<g id="a_node3"><a xlink:href="main_8cpp.html" target="_top" xlink:title=" ">
<polygon fill="none" stroke="black" points="0,-6 0,-25 79,-25 79,-6 0,-6"/>
<text text-anchor="middle" x="39.5" y="-13" font-family="Helvetica,sans-Serif" font-size="10.00">src/main.cpp</text>
</a>
</g>
</g>
<!-- Node2&#45;&gt;Node3 -->
<g id="edge2" class="edge">
<title>Node2&#45;&gt;Node3</title>
<path fill="none" stroke="midnightblue" d="M1275.1,-75.89C1068.47,-75.17 321.23,-69.87 87.5,-31 79.6,-29.69 71.18,-27.44 63.63,-25.11"/>
<polygon fill="midnightblue" stroke="midnightblue" points="1275.37,-79.39 1285.39,-75.92 1275.4,-72.39 1275.37,-79.39"/>
</g>
<!-- Node4 -->
<g id="node4" class="node">
<title>Node4</title>
<g id="a_node4"><a xlink:href="_server_8cpp.html" target="_top" xlink:title=" ">
<polygon fill="none" stroke="black" points="97,-6 97,-25 182,-25 182,-6 97,-6"/>
<text text-anchor="middle" x="139.5" y="-13" font-family="Helvetica,sans-Serif" font-size="10.00">src/Server.cpp</text>
</a>
</g>
</g>
<!-- Node2&#45;&gt;Node4 -->
<g id="edge3" class="edge">
<title>Node2&#45;&gt;Node4</title>
<path fill="none" stroke="midnightblue" d="M1275.38,-75.57C1080.28,-73.73 403.54,-65 190.5,-31 182.05,-29.65 173,-27.37 164.92,-25.01"/>
<polygon fill="midnightblue" stroke="midnightblue" points="1275.35,-79.07 1285.39,-75.66 1275.42,-72.07 1275.35,-79.07"/>
</g>
<!-- Node5 -->
<g id="node5" class="node">
<title>Node5</title>
<g id="a_node5"><a xlink:href="test__accept_connections_8cpp.html" target="_top" xlink:title=" ">
<polygon fill="none" stroke="black" points="200,-6 200,-25 375,-25 375,-6 200,-6"/>
<text text-anchor="middle" x="287.5" y="-13" font-family="Helvetica,sans-Serif" font-size="10.00">test/test_acceptConnections.cpp</text>
</a>
</g>
</g>
<!-- Node2&#45;&gt;Node5 -->
<g id="edge4" class="edge">
<title>Node2&#45;&gt;Node5</title>
<path fill="none" stroke="midnightblue" d="M1274.71,-75.36C1130.19,-73.24 721.55,-64.49 383.5,-31 368.57,-29.52 352.42,-27.32 337.7,-25.07"/>
<polygon fill="midnightblue" stroke="midnightblue" points="1275.01,-78.87 1285.06,-75.51 1275.11,-71.87 1275.01,-78.87"/>
</g>
<!-- Node6 -->
<g id="node6" class="node">
<title>Node6</title>
<g id="a_node6"><a xlink:href="test__check_for_timeout_8cpp.html" target="_top" xlink:title=" ">
<polygon fill="none" stroke="black" points="393,-6 393,-25 560,-25 560,-6 393,-6"/>
<text text-anchor="middle" x="476.5" y="-13" font-family="Helvetica,sans-Serif" font-size="10.00">test/test_checkForTimeout.cpp</text>
</a>
</g>
</g>
<!-- Node2&#45;&gt;Node6 -->
<g id="edge5" class="edge">
<title>Node2&#45;&gt;Node6</title>
<path fill="none" stroke="midnightblue" d="M1275.09,-74.62C1150.82,-71.03 832.76,-59.58 568.5,-31 554.35,-29.47 539.06,-27.28 525.08,-25.06"/>
<polygon fill="midnightblue" stroke="midnightblue" points="1275.01,-78.12 1285.1,-74.91 1275.21,-71.12 1275.01,-78.12"/>
</g>
<!-- Node7 -->
<g id="node7" class="node">
<title>Node7</title>
<g id="a_node7"><a xlink:href="test__connection_receive_from_c_g_i_8cpp.html" target="_top" xlink:title=" ">
<polygon fill="none" stroke="black" points="578,-0.5 578,-30.5 733,-30.5 733,-0.5 578,-0.5"/>
<text text-anchor="start" x="586" y="-18.5" font-family="Helvetica,sans-Serif" font-size="10.00">test/test_connectionReceive</text>
<text text-anchor="middle" x="655.5" y="-7.5" font-family="Helvetica,sans-Serif" font-size="10.00">FromCGI.cpp</text>
</a>
</g>
</g>
<!-- Node2&#45;&gt;Node7 -->
<g id="edge6" class="edge">
<title>Node2&#45;&gt;Node7</title>
<path fill="none" stroke="midnightblue" d="M1275.11,-73.53C1171.79,-68.39 937.42,-54.98 741.5,-31 738.79,-30.67 736.04,-30.31 733.27,-29.94"/>
<polygon fill="midnightblue" stroke="midnightblue" points="1275.13,-77.03 1285.29,-74.03 1275.47,-70.04 1275.13,-77.03"/>
</g>
<!-- Node8 -->
<g id="node8" class="node">
<title>Node8</title>
<g id="a_node8"><a xlink:href="test__connection_receive_header_8cpp.html" target="_top" xlink:title=" ">
<polygon fill="none" stroke="black" points="751,-0.5 751,-30.5 906,-30.5 906,-0.5 751,-0.5"/>
<text text-anchor="start" x="759" y="-18.5" font-family="Helvetica,sans-Serif" font-size="10.00">test/test_connectionReceive</text>
<text text-anchor="middle" x="828.5" y="-7.5" font-family="Helvetica,sans-Serif" font-size="10.00">Header.cpp</text>
</a>
</g>
</g>
<!-- Node2&#45;&gt;Node8 -->
<g id="edge7" class="edge">
<title>Node2&#45;&gt;Node8</title>
<path fill="none" stroke="midnightblue" d="M1275.13,-71.16C1196.32,-63.79 1044.23,-48.73 915.5,-31 912.47,-30.58 909.38,-30.14 906.25,-29.68"/>
<polygon fill="midnightblue" stroke="midnightblue" points="1275.01,-74.66 1285.29,-72.1 1275.66,-67.69 1275.01,-74.66"/>
</g>
<!-- Node9 -->
<g id="node9" class="node">
<title>Node9</title>
<g id="a_node9"><a xlink:href="test__connection_send_response_8cpp.html" target="_top" xlink:title=" ">
<polygon fill="none" stroke="black" points="924.5,-0.5 924.5,-30.5 1064.5,-30.5 1064.5,-0.5 924.5,-0.5"/>
<text text-anchor="start" x="932.5" y="-18.5" font-family="Helvetica,sans-Serif" font-size="10.00">test/test_connectionSend</text>
<text text-anchor="middle" x="994.5" y="-7.5" font-family="Helvetica,sans-Serif" font-size="10.00">Response.cpp</text>
</a>
</g>
</g>
<!-- Node2&#45;&gt;Node9 -->
<g id="edge8" class="edge">
<title>Node2&#45;&gt;Node9</title>
<path fill="none" stroke="midnightblue" d="M1275.25,-66.71C1223.64,-57.69 1143.18,-43.54 1073.5,-31 1070.62,-30.48 1067.68,-29.95 1064.71,-29.41"/>
<polygon fill="midnightblue" stroke="midnightblue" points="1274.72,-70.17 1285.17,-68.45 1275.92,-63.28 1274.72,-70.17"/>
</g>
<!-- Node10 -->
<g id="node10" class="node">
<title>Node10</title>
<g id="a_node10"><a xlink:href="test__connection_send_to_c_g_i_8cpp.html" target="_top" xlink:title=" ">
<polygon fill="none" stroke="black" points="1082.5,-0.5 1082.5,-30.5 1222.5,-30.5 1222.5,-0.5 1082.5,-0.5"/>
<text text-anchor="start" x="1090.5" y="-18.5" font-family="Helvetica,sans-Serif" font-size="10.00">test/test_connectionSend</text>
<text text-anchor="middle" x="1152.5" y="-7.5" font-family="Helvetica,sans-Serif" font-size="10.00">ToCGI.cpp</text>
</a>
</g>
</g>
<!-- Node2&#45;&gt;Node10 -->
<g id="edge9" class="edge">
<title>Node2&#45;&gt;Node10</title>
<path fill="none" stroke="midnightblue" d="M1293.69,-64.23C1265.03,-54.54 1224.32,-40.78 1193.98,-30.52"/>
<polygon fill="midnightblue" stroke="midnightblue" points="1292.69,-67.59 1303.28,-67.48 1294.93,-60.96 1292.69,-67.59"/>
</g>
<!-- Node11 -->
<g id="node11" class="node">
<title>Node11</title>
<g id="a_node11"><a xlink:href="test__create_virtual_server_8cpp.html" target="_top" xlink:title=" ">
<polygon fill="none" stroke="black" points="1240.5,-6 1240.5,-25 1416.5,-25 1416.5,-6 1240.5,-6"/>
<text text-anchor="middle" x="1328.5" y="-13" font-family="Helvetica,sans-Serif" font-size="10.00">test/test_createVirtualServer.cpp</text>
</a>
</g>
</g>
<!-- Node2&#45;&gt;Node11 -->
<g id="edge10" class="edge">
<title>Node2&#45;&gt;Node11</title>
<path fill="none" stroke="midnightblue" d="M1328.5,-57.32C1328.5,-46.5 1328.5,-33.4 1328.5,-25.01"/>
<polygon fill="midnightblue" stroke="midnightblue" points="1325,-57.48 1328.5,-67.48 1332,-57.48 1325,-57.48"/>
</g>
<!-- Node12 -->
<g id="node12" class="node">
<title>Node12</title>
<g id="a_node12"><a xlink:href="test__handle_complete_request_header_8cpp.html" target="_top" xlink:title=" ">
<polygon fill="none" stroke="black" points="1435,-0.5 1435,-30.5 1578,-30.5 1578,-0.5 1435,-0.5"/>
<text text-anchor="start" x="1443" y="-18.5" font-family="Helvetica,sans-Serif" font-size="10.00">test/test_handleComplete</text>
<text text-anchor="middle" x="1506.5" y="-7.5" font-family="Helvetica,sans-Serif" font-size="10.00">RequestHeader.cpp</text>
</a>
</g>
</g>
<!-- Node2&#45;&gt;Node12 -->
<g id="edge11" class="edge">
<title>Node2&#45;&gt;Node12</title>
<path fill="none" stroke="midnightblue" d="M1363.71,-64.23C1392.69,-54.54 1433.86,-40.78 1464.55,-30.52"/>
<polygon fill="midnightblue" stroke="midnightblue" points="1362.38,-60.99 1354,-67.48 1364.6,-67.62 1362.38,-60.99"/>
</g>
<!-- Node13 -->
<g id="node13" class="node">
<title>Node13</title>
<g id="a_node13"><a xlink:href="test__init_virtual_servers_8cpp.html" target="_top" xlink:title=" ">
<polygon fill="none" stroke="black" points="1596,-6 1596,-25 1763,-25 1763,-6 1596,-6"/>
<text text-anchor="middle" x="1679.5" y="-13" font-family="Helvetica,sans-Serif" font-size="10.00">test/test_initVirtualServers.cpp</text>
</a>
</g>
</g>
<!-- Node2&#45;&gt;Node13 -->
<g id="edge12" class="edge">
<title>Node2&#45;&gt;Node13</title>
<path fill="none" stroke="midnightblue" d="M1381.2,-67.05C1381.3,-67.03 1381.4,-67.02 1381.5,-67 1468.54,-52.23 1569.89,-35.06 1629.14,-25.03"/>
<polygon fill="midnightblue" stroke="midnightblue" points="1380.87,-63.56 1371.6,-68.68 1382.04,-70.46 1380.87,-63.56"/>
</g>
<!-- Node14 -->
<g id="node14" class="node">
<title>Node14</title>
<g id="a_node14"><a xlink:href="test__is_duplicate_server_8cpp.html" target="_top" xlink:title=" ">
<polygon fill="none" stroke="black" points="1780.5,-6 1780.5,-25 1948.5,-25 1948.5,-6 1780.5,-6"/>
<text text-anchor="middle" x="1864.5" y="-13" font-family="Helvetica,sans-Serif" font-size="10.00">test/test_isDuplicateServer.cpp</text>
</a>
</g>
</g>
<!-- Node2&#45;&gt;Node14 -->
<g id="edge13" class="edge">
<title>Node2&#45;&gt;Node14</title>
<path fill="none" stroke="midnightblue" d="M1381.2,-67.04C1381.3,-67.03 1381.4,-67.01 1381.5,-67 1554.54,-44.38 1599.33,-52.6 1772.5,-31 1785.98,-29.32 1800.52,-27.18 1813.97,-25.06"/>
<polygon fill="midnightblue" stroke="midnightblue" points="1380.97,-63.54 1371.56,-68.41 1381.95,-70.47 1380.97,-63.54"/>
</g>
<!-- Node15 -->
<g id="node15" class="node">
<title>Node15</title>
<g id="a_node15"><a xlink:href="test__register_c_g_i_file_descriptor_8cpp.html" target="_top" xlink:title=" ">
<polygon fill="none" stroke="black" points="1966.5,-0.5 1966.5,-30.5 2100.5,-30.5 2100.5,-0.5 1966.5,-0.5"/>
<text text-anchor="start" x="1974.5" y="-18.5" font-family="Helvetica,sans-Serif" font-size="10.00">test/test_registerCGIFile</text>
<text text-anchor="middle" x="2033.5" y="-7.5" font-family="Helvetica,sans-Serif" font-size="10.00">Descriptor.cpp</text>
</a>
</g>
</g>
<!-- Node2&#45;&gt;Node15 -->
<g id="edge14" class="edge">
<title>Node2&#45;&gt;Node15</title>
<path fill="none" stroke="midnightblue" d="M1381.2,-67.04C1381.3,-67.02 1381.4,-67.01 1381.5,-67 1636.3,-37.49 1703.02,-63.1 1957.5,-31 1960.43,-30.63 1963.42,-30.22 1966.44,-29.77"/>
<polygon fill="midnightblue" stroke="midnightblue" points="1381.01,-63.53 1371.54,-68.3 1381.91,-70.47 1381.01,-63.53"/>
</g>
<!-- Node16 -->
<g id="node16" class="node">
<title>Node16</title>
<g id="a_node16"><a xlink:href="test__register_connection_8cpp.html" target="_top" xlink:title=" ">
<polygon fill="none" stroke="black" points="2119,-6 2119,-25 2294,-25 2294,-6 2119,-6"/>
<text text-anchor="middle" x="2206.5" y="-13" font-family="Helvetica,sans-Serif" font-size="10.00">test/test_registerConnection.cpp</text>
</a>
</g>
</g>
<!-- Node2&#45;&gt;Node16 -->
<g id="edge15" class="edge">
<title>Node2&#45;&gt;Node16</title>
<path fill="none" stroke="midnightblue" d="M1381.2,-67.03C1381.3,-67.02 1381.4,-67.01 1381.5,-67 1703.54,-31.82 1787.13,-62.99 2109.5,-31 2124.67,-29.5 2141.08,-27.27 2156.02,-25.01"/>
<polygon fill="midnightblue" stroke="midnightblue" points="1381.02,-63.53 1371.54,-68.25 1381.9,-70.47 1381.02,-63.53"/>
</g>
<!-- Node17 -->
<g id="node17" class="node">
<title>Node17</title>
<g id="a_node17"><a xlink:href="test__register_virtual_server_8cpp.html" target="_top" xlink:title=" ">
<polygon fill="none" stroke="black" points="2312.5,-0.5 2312.5,-30.5 2444.5,-30.5 2444.5,-0.5 2312.5,-0.5"/>
<text text-anchor="start" x="2320.5" y="-18.5" font-family="Helvetica,sans-Serif" font-size="10.00">test/test_registerVirtual</text>
<text text-anchor="middle" x="2378.5" y="-7.5" font-family="Helvetica,sans-Serif" font-size="10.00">Server.cpp</text>
</a>
</g>
</g>
<!-- Node2&#45;&gt;Node17 -->
<g id="edge16" class="edge">
<title>Node2&#45;&gt;Node17</title>
<path fill="none" stroke="midnightblue" d="M1381.2,-67.03C1381.3,-67.02 1381.4,-67.01 1381.5,-67 1789.39,-24.58 1896.12,-78.06 2303.5,-31 2306.4,-30.67 2309.35,-30.28 2312.33,-29.86"/>
<polygon fill="midnightblue" stroke="midnightblue" points="1381.04,-63.53 1371.53,-68.21 1381.89,-70.47 1381.04,-63.53"/>
</g>
<!-- Node18 -->
<g id="node18" class="node">
<title>Node18</title>
<g id="a_node18"><a xlink:href="test__select_server_config_8cpp.html" target="_top" xlink:title=" ">
<polygon fill="none" stroke="black" points="2462.5,-6 2462.5,-25 2636.5,-25 2636.5,-6 2462.5,-6"/>
<text text-anchor="middle" x="2549.5" y="-13" font-family="Helvetica,sans-Serif" font-size="10.00">test/test_selectServerConfig.cpp</text>
</a>
</g>
</g>
<!-- Node2&#45;&gt;Node18 -->
<g id="edge17" class="edge">
<title>Node2&#45;&gt;Node18</title>
<path fill="none" stroke="midnightblue" d="M1381.2,-67.03C1381.3,-67.02 1381.4,-67.01 1381.5,-67 1855.79,-18.99 1978.79,-74.67 2453.5,-31 2468.77,-29.59 2485.32,-27.36 2500.3,-25.05"/>
<polygon fill="midnightblue" stroke="midnightblue" points="1381.04,-63.52 1371.53,-68.19 1381.88,-70.47 1381.04,-63.52"/>
</g>
<!-- Node19 -->
<g id="node19" class="node">
<title>Node19</title>
<g id="a_node19"><a xlink:href="test__shutdown_server_8cpp.html" target="_top" xlink:title=" ">
<polygon fill="none" stroke="black" points="2655,-6 2655,-25 2816,-25 2816,-6 2655,-6"/>
<text text-anchor="middle" x="2735.5" y="-13" font-family="Helvetica,sans-Serif" font-size="10.00">test/test_shutdownServer.cpp</text>
</a>
</g>
</g>
<!-- Node2&#45;&gt;Node19 -->
<g id="edge18" class="edge">
<title>Node2&#45;&gt;Node19</title>
<path fill="none" stroke="midnightblue" d="M1381.19,-67.03C1381.3,-67.02 1381.4,-67.01 1381.5,-67 1940.79,-11.82 2085.98,-83.81 2645.5,-31 2660,-29.63 2675.7,-27.37 2689.86,-25.04"/>
<polygon fill="midnightblue" stroke="midnightblue" points="1381.05,-63.52 1371.53,-68.18 1381.87,-70.47 1381.05,-63.52"/>
</g>
</g>
</svg>
        <g id="navigator" transform="translate(0 0)" fill="#404254">
                <rect fill="#f2f5e9" fill-opacity="0.5" stroke="#606060" stroke-width=".5" x="0" y="0" width="60" height="60"/>
                <use id="zoomplus" xlink:href="#zoomPlus" x="17" y="9" onmousedown="handleZoom(evt,'in')"/>
                <use id="zoomminus" xlink:href="#zoomMin" x="42" y="9" onmousedown="handleZoom(evt,'out')"/>
                <use id="reset" xlink:href="#resetDef" x="30" y="36" onmousedown="handleReset()"/>
                <g id="arrowUp" xlink:href="#dirArrow" transform="translate(30 24)" onmousedown="handlePan(0,-1)">
                  <use xlink:href="#rim" fill="#404040">
                        <set attributeName="fill" to="#808080" begin="arrowUp.mouseover" end="arrowUp.mouseout"/>
                  </use>
                  <path fill="none" stroke="white" stroke-width="1.5" d="M0,-3.0v7 M-2.5,-0.5L0,-3.0L2.5,-0.5"/>
                </g>
                <g id="arrowRight" xlink:href="#dirArrow" transform="rotate(90) translate(36 -43)" onmousedown="handlePan(1,0)">
                  <use xlink:href="#rim" fill="#404040">
                        <set attributeName="fill" to="#808080" begin="arrowRight.mouseover" end="arrowRight.mouseout"/>
                  </use>
                  <path fill="none" stroke="white" stroke-width="1.5" d="M0,-3.0v7 M-2.5,-0.5L0,-3.0L2.5,-0.5"/>
                </g>
                <g id="arrowDown" xlink:href="#dirArrow" transform="rotate(180) translate(-30 -48)" onmousedown="handlePan(0,1)">
                  <use xlink:href="#rim" fill="#404040">
                        <set attributeName="fill" to="#808080" begin="arrowDown.mouseover" end="arrowDown.mouseout"/>
                  </use>
                  <path fill="none" stroke="white" stroke-width="1.5" d="M0,-3.0v7 M-2.5,-0.5L0,-3.0L2.5,-0.5"/>
                </g>
                <g id="arrowLeft" xlink:href="#dirArrow" transform="rotate(270) translate(-36 17)" onmousedown="handlePan(-1,0)">
                  <use xlink:href="#rim" fill="#404040">
                        <set attributeName="fill" to="#808080" begin="arrowLeft.mouseover" end="arrowLeft.mouseout"/>
                  </use>
                  <path fill="none" stroke="white" stroke-width="1.5" d="M0,-3.0v7 M-2.5,-0.5L0,-3.0L2.5,-0.5"/>
                </g>
        </g>
        <svg viewBox="0 0 15 15" width="100%" height="30px" preserveAspectRatio="xMaxYMin meet">
         <g id="arrow_out" transform="scale(0.3 0.3)">
          <a xlink:href="_response_builder_8hpp__dep__incl_org.svg" target="_base">
           <rect id="button" ry="5" rx="5" y="6" x="6" height="38" width="38"
                fill="#f2f5e9" fill-opacity="0.5" stroke="#606060" stroke-width="1.0"/>
           <path id="arrow"
             d="M 11.500037,31.436501 C 11.940474,20.09759 22.043105,11.32322 32.158766,21.979434 L 37.068811,17.246167 C 37.068811,17.246167 37.088388,32 37.088388,32 L 22.160133,31.978069 C 22.160133,31.978069 26.997745,27.140456 26.997745,27.140456 C 18.528582,18.264221 13.291696,25.230495 11.500037,31.436501 z"
             style="fill:#404040;"/>
          </a>
         </g>
        </svg>
</svg>
