<?xml version="1.0" encoding="UTF-8" standalone="no"?>
<!DOCTYPE svg PUBLIC "-//W3C//DTD SVG 1.1//EN"
 "http://www.w3.org/Graphics/SVG/1.1/DTD/svg11.dtd">
<!-- Generated by graphviz version 2.43.0 (0)
 -->
<!-- Title: inc/ResponseBuilder.hpp Pages: 1 -->
<!--zoomable 364 -->
<svg id="main" version="1.1" xmlns="http://www.w3.org/2000/svg" xmlns:xlink="http://www.w3.org/1999/xlink" xml:space="preserve" onload="init(evt)">
<style type="text/css"><![CDATA[
.edge:hover path { stroke: red; }
.edge:hover polygon { stroke: red; fill: red; }
]]></style>
<script type="text/javascript"><![CDATA[
var edges = document.getElementsByTagName('g');
if (edges && edges.length) {
  for (var i=0;i<edges.length;i++) {
    if (edges[i].id.substr(0,4)=='edge') {
      edges[i].setAttribute('class','edge');
    }
  }
}
]]></script>
        <defs>
                <circle id="rim" cx="0" cy="0" r="7"/>
                <circle id="rim2" cx="0" cy="0" r="3.5"/>
                <g id="zoomPlus">
                        <use xlink:href="#rim" fill="#404040">
                                <set attributeName="fill" to="#808080" begin="zoomplus.mouseover" end="zoomplus.mouseout"/>
                        </use>
                        <path d="M-4,0h8M0,-4v8" fill="none" stroke="white" stroke-width="1.5" pointer-events="none"/>
                </g>
                <g id="zoomMin">
                        <use xlink:href="#rim" fill="#404040">
                                <set attributeName="fill" to="#808080" begin="zoomminus.mouseover" end="zoomminus.mouseout"/>
                        </use>
                        <path d="M-4,0h8" fill="none" stroke="white" stroke-width="1.5" pointer-events="none"/>
                </g>
                <g id="dirArrow">
                        <path fill="none" stroke="white" stroke-width="1.5" d="M0,-3.0v7 M-2.5,-0.5L0,-3.0L2.5,-0.5"/>
                </g>
               <g id="resetDef">
                       <use xlink:href="#rim2" fill="#404040">
                               <set attributeName="fill" to="#808080" begin="reset.mouseover" end="reset.mouseout"/>
                       </use>
               </g>
        </defs>

<script type="text/javascript">
var viewWidth = 1978;
var viewHeight = 364;
var sectionId = 'dynsection-0';
</script>
<script xlink:href="svgpan.js"/>
<svg id="graph" class="graph">
<g id="viewport">
<title>inc/ResponseBuilder.hpp</title>
<!-- Node1 -->
<g id="node1" class="node">
<title>Node1</title>
<g id="a_node1"><a xlink:title=" ">
<polygon fill="#bfbfbf" stroke="black" points="1154,-336.5 1154,-355.5 1290,-355.5 1290,-336.5 1154,-336.5"/>
<text text-anchor="middle" x="1222" y="-343.5" font-family="Helvetica,sans-Serif" font-size="10.00">inc/ResponseBuilder.hpp</text>
</a>
</g>
</g>
<!-- Node2 -->
<g id="node2" class="node">
<title>Node2</title>
<g id="a_node2"><a xlink:href="_config_file_8hpp.html" target="_top" xlink:title=" ">
<polygon fill="none" stroke="black" points="1585,-112.5 1585,-131.5 1671,-131.5 1671,-112.5 1585,-112.5"/>
<text text-anchor="middle" x="1628" y="-119.5" font-family="Helvetica,sans-Serif" font-size="10.00">ConfigFile.hpp</text>
</a>
</g>
</g>
<!-- Node1&#45;&gt;Node2 -->
<g id="edge1" class="edge">
<title>Node1&#45;&gt;Node2</title>
<path fill="none" stroke="midnightblue" d="M1290.08,-341.35C1449.98,-331.02 1840.52,-295.07 1900,-188 1904.32,-180.23 1905.75,-174.78 1900,-168 1872.52,-135.6 1752.36,-126.5 1681.27,-123.96"/>
<polygon fill="midnightblue" stroke="midnightblue" points="1681.26,-120.46 1671.15,-123.63 1681.03,-127.45 1681.26,-120.46"/>
</g>
<!-- Node8 -->
<g id="node8" class="node">
<title>Node8</title>
<g id="a_node8"><a xlink:title=" ">
<polygon fill="none" stroke="#bfbfbf" points="1177,-56.5 1177,-75.5 1221,-75.5 1221,-56.5 1177,-56.5"/>
<text text-anchor="middle" x="1199" y="-63.5" font-family="Helvetica,sans-Serif" font-size="10.00">string</text>
</a>
</g>
</g>
<!-- Node1&#45;&gt;Node8 -->
<g id="edge88" class="edge">
<title>Node1&#45;&gt;Node8</title>
<path fill="none" stroke="midnightblue" d="M1221.29,-336.38C1218.09,-297.78 1205.08,-140.45 1200.56,-85.81"/>
<polygon fill="midnightblue" stroke="midnightblue" points="1204.02,-85.2 1199.71,-75.52 1197.04,-85.78 1204.02,-85.2"/>
</g>
<!-- Node10 -->
<g id="node10" class="node">
<title>Node10</title>
<g id="a_node10"><a xlink:href="_file_system_policy_8hpp.html" target="_top" xlink:title=" ">
<polygon fill="none" stroke="black" points="269.5,-112.5 269.5,-131.5 388.5,-131.5 388.5,-112.5 269.5,-112.5"/>
<text text-anchor="middle" x="329" y="-119.5" font-family="Helvetica,sans-Serif" font-size="10.00">FileSystemPolicy.hpp</text>
</a>
</g>
</g>
<!-- Node1&#45;&gt;Node10 -->
<g id="edge10" class="edge">
<title>Node1&#45;&gt;Node10</title>
<path fill="none" stroke="midnightblue" d="M1153.98,-342.1C955.48,-332.98 387.31,-302.02 329,-244 302.04,-217.17 313.21,-167.77 322.07,-141.14"/>
<polygon fill="midnightblue" stroke="midnightblue" points="325.43,-142.15 325.49,-131.55 318.83,-139.79 325.43,-142.15"/>
</g>
<!-- Node17 -->
<g id="node17" class="node">
<title>Node17</title>
<g id="a_node17"><a xlink:href="_h_t_t_p_response_8hpp.html" target="_top" xlink:title=" ">
<polygon fill="none" stroke="black" points="1765,-168.5 1765,-187.5 1875,-187.5 1875,-168.5 1765,-168.5"/>
<text text-anchor="middle" x="1820" y="-175.5" font-family="Helvetica,sans-Serif" font-size="10.00">HTTPResponse.hpp</text>
</a>
</g>
</g>
<!-- Node1&#45;&gt;Node17 -->
<g id="edge20" class="edge">
<title>Node1&#45;&gt;Node17</title>
<path fill="none" stroke="midnightblue" d="M1290.11,-337.41C1345.59,-330.35 1425.65,-318.16 1494,-300 1607.11,-269.95 1735.86,-216.02 1791.69,-191.61"/>
<polygon fill="midnightblue" stroke="midnightblue" points="1793.2,-194.78 1800.94,-187.55 1790.38,-188.37 1793.2,-194.78"/>
</g>
<!-- Node18 -->
<g id="node18" class="node">
<title>Node18</title>
<g id="a_node18"><a xlink:href="_log_8hpp.html" target="_top" xlink:title=" ">
<polygon fill="none" stroke="black" points="925.5,-280.5 925.5,-299.5 980.5,-299.5 980.5,-280.5 925.5,-280.5"/>
<text text-anchor="middle" x="953" y="-287.5" font-family="Helvetica,sans-Serif" font-size="10.00">Log.hpp</text>
</a>
</g>
</g>
<!-- Node1&#45;&gt;Node18 -->
<g id="edge24" class="edge">
<title>Node1&#45;&gt;Node18</title>
<path fill="none" stroke="midnightblue" d="M1179.38,-336.44C1127.37,-326 1040.27,-308.52 990.64,-298.56"/>
<polygon fill="midnightblue" stroke="midnightblue" points="991.13,-295.09 980.64,-296.55 989.76,-301.95 991.13,-295.09"/>
</g>
<!-- Node26 -->
<g id="node26" class="node">
<title>Node26</title>
<g id="a_node26"><a xlink:href="_request_parser_8hpp.html" target="_top" xlink:title=" ">
<polygon fill="none" stroke="black" points="1379.5,-224.5 1379.5,-243.5 1486.5,-243.5 1486.5,-224.5 1379.5,-224.5"/>
<text text-anchor="middle" x="1433" y="-231.5" font-family="Helvetica,sans-Serif" font-size="10.00">RequestParser.hpp</text>
</a>
</g>
</g>
<!-- Node1&#45;&gt;Node26 -->
<g id="edge42" class="edge">
<title>Node1&#45;&gt;Node26</title>
<path fill="none" stroke="midnightblue" d="M1234.42,-336.32C1253.55,-323.17 1291.6,-297.84 1326,-280 1350.2,-267.45 1378.71,-255.6 1400.21,-247.21"/>
<polygon fill="midnightblue" stroke="midnightblue" points="1401.48,-250.47 1409.55,-243.61 1398.96,-243.94 1401.48,-250.47"/>
</g>
<!-- Node32 -->
<g id="node32" class="node">
<title>Node32</title>
<g id="a_node32"><a xlink:href="_response_body_handler_8hpp.html" target="_top" xlink:title=" ">
<polygon fill="none" stroke="black" points="661.5,-280.5 661.5,-299.5 808.5,-299.5 808.5,-280.5 661.5,-280.5"/>
<text text-anchor="middle" x="735" y="-287.5" font-family="Helvetica,sans-Serif" font-size="10.00">ResponseBodyHandler.hpp</text>
</a>
</g>
</g>
<!-- Node1&#45;&gt;Node32 -->
<g id="edge64" class="edge">
<title>Node1&#45;&gt;Node32</title>
<path fill="none" stroke="midnightblue" d="M1153.77,-337.43C1066,-327.7 913.6,-310.8 818.86,-300.3"/>
<polygon fill="midnightblue" stroke="midnightblue" points="819.06,-296.8 808.74,-299.18 818.29,-303.76 819.06,-296.8"/>
</g>
<!-- Node36 -->
<g id="node36" class="node">
<title>Node36</title>
<g id="a_node36"><a xlink:href="_target_resource_handler_8hpp.html" target="_top" xlink:title=" ">
<polygon fill="none" stroke="black" points="1335,-280.5 1335,-299.5 1485,-299.5 1485,-280.5 1335,-280.5"/>
<text text-anchor="middle" x="1410" y="-287.5" font-family="Helvetica,sans-Serif" font-size="10.00">TargetResourceHandler.hpp</text>
</a>
</g>
</g>
<!-- Node1&#45;&gt;Node36 -->
<g id="edge80" class="edge">
<title>Node1&#45;&gt;Node36</title>
<path fill="none" stroke="midnightblue" d="M1251.79,-336.44C1283.83,-327.24 1334.93,-312.56 1370.35,-302.39"/>
<polygon fill="midnightblue" stroke="midnightblue" points="1371.71,-305.64 1380.35,-299.52 1369.77,-298.91 1371.71,-305.64"/>
</g>
<!-- Node3 -->
<g id="node3" class="node">
<title>Node3</title>
<g id="a_node3"><a xlink:href="_method_8hpp.html" target="_top" xlink:title=" ">
<polygon fill="none" stroke="black" points="1540,-56.5 1540,-75.5 1614,-75.5 1614,-56.5 1540,-56.5"/>
<text text-anchor="middle" x="1577" y="-63.5" font-family="Helvetica,sans-Serif" font-size="10.00">Method.hpp</text>
</a>
</g>
</g>
<!-- Node2&#45;&gt;Node3 -->
<g id="edge2" class="edge">
<title>Node2&#45;&gt;Node3</title>
<path fill="none" stroke="midnightblue" d="M1619.58,-112.08C1612.15,-104.22 1601.15,-92.57 1592.19,-83.08"/>
<polygon fill="midnightblue" stroke="midnightblue" points="1594.68,-80.62 1585.26,-75.75 1589.59,-85.42 1594.68,-80.62"/>
</g>
<!-- Node4 -->
<g id="node4" class="node">
<title>Node4</title>
<g id="a_node4"><a xlink:href="_status_code_8hpp.html" target="_top" xlink:title=" ">
<polygon fill="none" stroke="black" points="1680.5,-56.5 1680.5,-75.5 1773.5,-75.5 1773.5,-56.5 1680.5,-56.5"/>
<text text-anchor="middle" x="1727" y="-63.5" font-family="Helvetica,sans-Serif" font-size="10.00">StatusCode.hpp</text>
</a>
</g>
</g>
<!-- Node2&#45;&gt;Node4 -->
<g id="edge3" class="edge">
<title>Node2&#45;&gt;Node4</title>
<path fill="none" stroke="midnightblue" d="M1643.91,-112.32C1659.64,-103.74 1683.94,-90.49 1702.21,-80.52"/>
<polygon fill="midnightblue" stroke="midnightblue" points="1704.03,-83.52 1711.13,-75.65 1700.68,-77.37 1704.03,-83.52"/>
</g>
<!-- Node5 -->
<g id="node5" class="node">
<title>Node5</title>
<g id="a_node5"><a xlink:title=" ">
<polygon fill="none" stroke="#bfbfbf" points="1226,-0.5 1226,-19.5 1286,-19.5 1286,-0.5 1226,-0.5"/>
<text text-anchor="middle" x="1256" y="-7.5" font-family="Helvetica,sans-Serif" font-size="10.00">iostream</text>
</a>
</g>
</g>
<!-- Node2&#45;&gt;Node5 -->
<g id="edge6" class="edge">
<title>Node2&#45;&gt;Node5</title>
<path fill="none" stroke="midnightblue" d="M1630.35,-112.49C1633.59,-98.64 1637.55,-71.22 1623,-56 1600.71,-32.68 1387.09,-18.23 1296.4,-13.11"/>
<polygon fill="midnightblue" stroke="midnightblue" points="1296.4,-9.6 1286.23,-12.54 1296.02,-16.59 1296.4,-9.6"/>
</g>
<!-- Node6 -->
<g id="node6" class="node">
<title>Node6</title>
<g id="a_node6"><a xlink:title=" ">
<polygon fill="none" stroke="#bfbfbf" points="499.5,-56.5 499.5,-75.5 554.5,-75.5 554.5,-56.5 499.5,-56.5"/>
<text text-anchor="middle" x="527" y="-63.5" font-family="Helvetica,sans-Serif" font-size="10.00">fstream</text>
</a>
</g>
</g>
<!-- Node2&#45;&gt;Node6 -->
<g id="edge5" class="edge">
<title>Node2&#45;&gt;Node6</title>
<path fill="none" stroke="midnightblue" d="M1584.78,-120.08C1444.16,-116.86 987.05,-104.75 610,-76 595.26,-74.88 579.09,-73.22 564.97,-71.63"/>
<polygon fill="midnightblue" stroke="midnightblue" points="564.96,-68.11 554.63,-70.44 564.16,-75.06 564.96,-68.11"/>
</g>
<!-- Node7 -->
<g id="node7" class="node">
<title>Node7</title>
<g id="a_node7"><a xlink:title=" ">
<polygon fill="none" stroke="#bfbfbf" points="1484,-56.5 1484,-75.5 1522,-75.5 1522,-56.5 1484,-56.5"/>
<text text-anchor="middle" x="1503" y="-63.5" font-family="Helvetica,sans-Serif" font-size="10.00">map</text>
</a>
</g>
</g>
<!-- Node2&#45;&gt;Node7 -->
<g id="edge7" class="edge">
<title>Node2&#45;&gt;Node7</title>
<path fill="none" stroke="midnightblue" d="M1608.19,-112.44C1587.59,-103.54 1555.14,-89.52 1531.72,-79.41"/>
<polygon fill="midnightblue" stroke="midnightblue" points="1532.87,-76.09 1522.3,-75.34 1530.1,-82.52 1532.87,-76.09"/>
</g>
<!-- Node2&#45;&gt;Node8 -->
<g id="edge8" class="edge">
<title>Node2&#45;&gt;Node8</title>
<path fill="none" stroke="midnightblue" d="M1584.9,-115.58C1498.86,-104.74 1307.52,-80.66 1231.27,-71.06"/>
<polygon fill="midnightblue" stroke="midnightblue" points="1231.66,-67.58 1221.3,-69.81 1230.78,-74.53 1231.66,-67.58"/>
</g>
<!-- Node9 -->
<g id="node9" class="node">
<title>Node9</title>
<g id="a_node9"><a xlink:title=" ">
<polygon fill="none" stroke="#bfbfbf" points="909.5,-56.5 909.5,-75.5 956.5,-75.5 956.5,-56.5 909.5,-56.5"/>
<text text-anchor="middle" x="933" y="-63.5" font-family="Helvetica,sans-Serif" font-size="10.00">vector</text>
</a>
</g>
</g>
<!-- Node2&#45;&gt;Node9 -->
<g id="edge9" class="edge">
<title>Node2&#45;&gt;Node9</title>
<path fill="none" stroke="midnightblue" d="M1584.79,-117.64C1456.81,-107.7 1081.56,-78.54 966.76,-69.62"/>
<polygon fill="midnightblue" stroke="midnightblue" points="967.02,-66.13 956.78,-68.85 966.48,-73.11 967.02,-66.13"/>
</g>
<!-- Node4&#45;&gt;Node5 -->
<g id="edge4" class="edge">
<title>Node4&#45;&gt;Node5</title>
<path fill="none" stroke="midnightblue" d="M1680.42,-59C1672.28,-57.98 1663.9,-56.94 1656,-56 1524.39,-40.26 1368.23,-23.14 1296.14,-15.33"/>
<polygon fill="midnightblue" stroke="midnightblue" points="1296.44,-11.84 1286.12,-14.24 1295.69,-18.8 1296.44,-11.84"/>
</g>
<!-- Node10&#45;&gt;Node5 -->
<g id="edge17" class="edge">
<title>Node10&#45;&gt;Node5</title>
<path fill="none" stroke="midnightblue" d="M336.06,-112.24C348.54,-97.48 376.15,-68.1 407,-56 482.64,-26.33 1056.26,-14.41 1215.25,-11.65"/>
<polygon fill="midnightblue" stroke="midnightblue" points="1215.6,-15.15 1225.54,-11.48 1215.49,-8.15 1215.6,-15.15"/>
</g>
<!-- Node10&#45;&gt;Node6 -->
<g id="edge15" class="edge">
<title>Node10&#45;&gt;Node6</title>
<path fill="none" stroke="midnightblue" d="M360.37,-112.44C395.36,-102.9 451.93,-87.47 489.29,-77.28"/>
<polygon fill="midnightblue" stroke="midnightblue" points="490.56,-80.57 499.29,-74.56 488.72,-73.81 490.56,-80.57"/>
</g>
<!-- Node10&#45;&gt;Node8 -->
<g id="edge11" class="edge">
<title>Node10&#45;&gt;Node8</title>
<path fill="none" stroke="midnightblue" d="M388.8,-117.29C558.32,-106.77 1038.1,-76.99 1166.86,-68.99"/>
<polygon fill="midnightblue" stroke="midnightblue" points="1167.11,-72.49 1176.87,-68.37 1166.68,-65.5 1167.11,-72.49"/>
</g>
<!-- Node11 -->
<g id="node11" class="node">
<title>Node11</title>
<g id="a_node11"><a xlink:title=" ">
<polygon fill="none" stroke="#bfbfbf" points="72.5,-56.5 72.5,-75.5 119.5,-75.5 119.5,-56.5 72.5,-56.5"/>
<text text-anchor="middle" x="96" y="-63.5" font-family="Helvetica,sans-Serif" font-size="10.00">cerrno</text>
</a>
</g>
</g>
<!-- Node10&#45;&gt;Node11 -->
<g id="edge12" class="edge">
<title>Node10&#45;&gt;Node11</title>
<path fill="none" stroke="midnightblue" d="M288.65,-112.48C250.22,-104.24 190.54,-91.12 129.55,-76.05"/>
<polygon fill="midnightblue" stroke="midnightblue" points="130.31,-72.63 119.76,-73.62 128.62,-79.43 130.31,-72.63"/>
</g>
<!-- Node12 -->
<g id="node12" class="node">
<title>Node12</title>
<g id="a_node12"><a xlink:title=" ">
<polygon fill="none" stroke="#bfbfbf" points="138,-56.5 138,-75.5 188,-75.5 188,-56.5 138,-56.5"/>
<text text-anchor="middle" x="163" y="-63.5" font-family="Helvetica,sans-Serif" font-size="10.00">cstring</text>
</a>
</g>
</g>
<!-- Node10&#45;&gt;Node12 -->
<g id="edge13" class="edge">
<title>Node10&#45;&gt;Node12</title>
<path fill="none" stroke="midnightblue" d="M302.7,-112.44C274.32,-103.21 229,-88.47 197.72,-78.29"/>
<polygon fill="midnightblue" stroke="midnightblue" points="198.69,-74.93 188.09,-75.16 196.52,-81.58 198.69,-74.93"/>
</g>
<!-- Node13 -->
<g id="node13" class="node">
<title>Node13</title>
<g id="a_node13"><a xlink:title=" ">
<polygon fill="none" stroke="#bfbfbf" points="206,-56.5 206,-75.5 270,-75.5 270,-56.5 206,-56.5"/>
<text text-anchor="middle" x="238" y="-63.5" font-family="Helvetica,sans-Serif" font-size="10.00">sys/stat.h</text>
</a>
</g>
</g>
<!-- Node10&#45;&gt;Node13 -->
<g id="edge14" class="edge">
<title>Node10&#45;&gt;Node13</title>
<path fill="none" stroke="midnightblue" d="M314.38,-112.32C300.05,-103.82 277.99,-90.73 261.25,-80.8"/>
<polygon fill="midnightblue" stroke="midnightblue" points="262.97,-77.75 252.58,-75.65 259.4,-83.77 262.97,-77.75"/>
</g>
<!-- Node14 -->
<g id="node14" class="node">
<title>Node14</title>
<g id="a_node14"><a xlink:title=" ">
<polygon fill="none" stroke="#bfbfbf" points="416.5,-56.5 416.5,-75.5 481.5,-75.5 481.5,-56.5 416.5,-56.5"/>
<text text-anchor="middle" x="449" y="-63.5" font-family="Helvetica,sans-Serif" font-size="10.00">stdexcept</text>
</a>
</g>
</g>
<!-- Node10&#45;&gt;Node14 -->
<g id="edge16" class="edge">
<title>Node10&#45;&gt;Node14</title>
<path fill="none" stroke="midnightblue" d="M348.01,-112.44C367.59,-103.64 398.31,-89.81 420.73,-79.72"/>
<polygon fill="midnightblue" stroke="midnightblue" points="422.39,-82.81 430.07,-75.52 419.52,-76.43 422.39,-82.81"/>
</g>
<!-- Node15 -->
<g id="node15" class="node">
<title>Node15</title>
<g id="a_node15"><a xlink:title=" ">
<polygon fill="none" stroke="#bfbfbf" points="288,-56.5 288,-75.5 360,-75.5 360,-56.5 288,-56.5"/>
<text text-anchor="middle" x="324" y="-63.5" font-family="Helvetica,sans-Serif" font-size="10.00">sys/types.h</text>
</a>
</g>
</g>
<!-- Node10&#45;&gt;Node15 -->
<g id="edge18" class="edge">
<title>Node10&#45;&gt;Node15</title>
<path fill="none" stroke="midnightblue" d="M328.17,-112.08C327.52,-105.01 326.58,-94.86 325.76,-85.99"/>
<polygon fill="midnightblue" stroke="midnightblue" points="329.22,-85.39 324.81,-75.75 322.25,-86.03 329.22,-85.39"/>
</g>
<!-- Node16 -->
<g id="node16" class="node">
<title>Node16</title>
<g id="a_node16"><a xlink:title=" ">
<polygon fill="none" stroke="#bfbfbf" points="0,-56.5 0,-75.5 54,-75.5 54,-56.5 0,-56.5"/>
<text text-anchor="middle" x="27" y="-63.5" font-family="Helvetica,sans-Serif" font-size="10.00">dirent.h</text>
</a>
</g>
</g>
<!-- Node10&#45;&gt;Node16 -->
<g id="edge19" class="edge">
<title>Node10&#45;&gt;Node16</title>
<path fill="none" stroke="midnightblue" d="M270.9,-112.5C219.07,-104.61 140.91,-91.98 63.94,-76.07"/>
<polygon fill="midnightblue" stroke="midnightblue" points="64.58,-72.63 54.08,-74.01 63.15,-79.48 64.58,-72.63"/>
</g>
<!-- Node17&#45;&gt;Node2 -->
<g id="edge23" class="edge">
<title>Node17&#45;&gt;Node2</title>
<path fill="none" stroke="midnightblue" d="M1789.58,-168.44C1756.72,-159.2 1704.22,-144.44 1668.03,-134.26"/>
<polygon fill="midnightblue" stroke="midnightblue" points="1668.85,-130.85 1658.28,-131.52 1666.96,-137.59 1668.85,-130.85"/>
</g>
<!-- Node17&#45;&gt;Node4 -->
<g id="edge21" class="edge">
<title>Node17&#45;&gt;Node4</title>
<path fill="none" stroke="midnightblue" d="M1812.7,-168.37C1797.22,-150.05 1760.86,-107.05 1740.83,-83.36"/>
<polygon fill="midnightblue" stroke="midnightblue" points="1743.39,-80.97 1734.26,-75.59 1738.05,-85.49 1743.39,-80.97"/>
</g>
<!-- Node17&#45;&gt;Node8 -->
<g id="edge22" class="edge">
<title>Node17&#45;&gt;Node8</title>
<path fill="none" stroke="midnightblue" d="M1771.79,-168.46C1650.13,-146.91 1333.15,-90.76 1231.13,-72.69"/>
<polygon fill="midnightblue" stroke="midnightblue" points="1231.59,-69.22 1221.13,-70.92 1230.37,-76.11 1231.59,-69.22"/>
</g>
<!-- Node19 -->
<g id="node19" class="node">
<title>Node19</title>
<g id="a_node19"><a xlink:href="_log_outputter_console_8hpp.html" target="_top" xlink:title=" ">
<polygon fill="none" stroke="black" points="932,-224.5 932,-243.5 1072,-243.5 1072,-224.5 932,-224.5"/>
<text text-anchor="middle" x="1002" y="-231.5" font-family="Helvetica,sans-Serif" font-size="10.00">LogOutputterConsole.hpp</text>
</a>
</g>
</g>
<!-- Node18&#45;&gt;Node19 -->
<g id="edge25" class="edge">
<title>Node18&#45;&gt;Node19</title>
<path fill="none" stroke="midnightblue" d="M961.09,-280.08C968.16,-272.3 978.59,-260.8 987.15,-251.37"/>
<polygon fill="midnightblue" stroke="midnightblue" points="989.93,-253.51 994.06,-243.75 984.75,-248.8 989.93,-253.51"/>
</g>
<!-- Node24 -->
<g id="node24" class="node">
<title>Node24</title>
<g id="a_node24"><a xlink:href="_log_outputter_file_8hpp.html" target="_top" xlink:title=" ">
<polygon fill="none" stroke="black" points="481.5,-224.5 481.5,-243.5 600.5,-243.5 600.5,-224.5 481.5,-224.5"/>
<text text-anchor="middle" x="541" y="-231.5" font-family="Helvetica,sans-Serif" font-size="10.00">LogOutputterFile.hpp</text>
</a>
</g>
</g>
<!-- Node18&#45;&gt;Node24 -->
<g id="edge33" class="edge">
<title>Node18&#45;&gt;Node24</title>
<path fill="none" stroke="midnightblue" d="M925.33,-285.37C861.68,-277.03 703.28,-256.27 610.92,-244.16"/>
<polygon fill="midnightblue" stroke="midnightblue" points="611.19,-240.67 600.82,-242.84 610.28,-247.61 611.19,-240.67"/>
</g>
<!-- Node25 -->
<g id="node25" class="node">
<title>Node25</title>
<g id="a_node25"><a xlink:href="_logger_8hpp.html" target="_top" xlink:title=" ">
<polygon fill="none" stroke="black" points="844,-224.5 844,-243.5 914,-243.5 914,-224.5 844,-224.5"/>
<text text-anchor="middle" x="879" y="-231.5" font-family="Helvetica,sans-Serif" font-size="10.00">Logger.hpp</text>
</a>
</g>
</g>
<!-- Node18&#45;&gt;Node25 -->
<g id="edge37" class="edge">
<title>Node18&#45;&gt;Node25</title>
<path fill="none" stroke="midnightblue" d="M941.11,-280.32C929.85,-272.11 912.71,-259.6 899.29,-249.81"/>
<polygon fill="midnightblue" stroke="midnightblue" points="901.25,-246.9 891.11,-243.83 897.12,-252.56 901.25,-246.9"/>
</g>
<!-- Node19&#45;&gt;Node5 -->
<g id="edge26" class="edge">
<title>Node19&#45;&gt;Node5</title>
<path fill="none" stroke="midnightblue" d="M1008.41,-224.26C1028.99,-196.66 1096.3,-109.95 1168,-56 1185.47,-42.86 1207.35,-31.65 1224.92,-23.71"/>
<polygon fill="midnightblue" stroke="midnightblue" points="1226.43,-26.86 1234.18,-19.64 1223.62,-20.45 1226.43,-26.86"/>
</g>
<!-- Node19&#45;&gt;Node7 -->
<g id="edge27" class="edge">
<title>Node19&#45;&gt;Node7</title>
<path fill="none" stroke="midnightblue" d="M1027.88,-224.42C1113.07,-196.2 1384.4,-106.3 1473.99,-76.61"/>
<polygon fill="midnightblue" stroke="midnightblue" points="1475.36,-79.85 1483.75,-73.38 1473.16,-73.2 1475.36,-79.85"/>
</g>
<!-- Node20 -->
<g id="node20" class="node">
<title>Node20</title>
<g id="a_node20"><a xlink:href="_a_log_outputter_8hpp.html" target="_top" xlink:title=" ">
<polygon fill="none" stroke="black" points="759.5,-168.5 759.5,-187.5 866.5,-187.5 866.5,-168.5 759.5,-168.5"/>
<text text-anchor="middle" x="813" y="-175.5" font-family="Helvetica,sans-Serif" font-size="10.00">ALogOutputter.hpp</text>
</a>
</g>
</g>
<!-- Node19&#45;&gt;Node20 -->
<g id="edge28" class="edge">
<title>Node19&#45;&gt;Node20</title>
<path fill="none" stroke="midnightblue" d="M972.05,-224.44C939.84,-215.24 888.47,-200.56 852.86,-190.39"/>
<polygon fill="midnightblue" stroke="midnightblue" points="853.38,-186.9 842.81,-187.52 851.46,-193.63 853.38,-186.9"/>
</g>
<!-- Node21 -->
<g id="node21" class="node">
<title>Node21</title>
<g id="a_node21"><a xlink:href="_log_data_8hpp.html" target="_top" xlink:title=" ">
<polygon fill="none" stroke="black" points="827,-112.5 827,-131.5 905,-131.5 905,-112.5 827,-112.5"/>
<text text-anchor="middle" x="866" y="-119.5" font-family="Helvetica,sans-Serif" font-size="10.00">LogData.hpp</text>
</a>
</g>
</g>
<!-- Node20&#45;&gt;Node21 -->
<g id="edge29" class="edge">
<title>Node20&#45;&gt;Node21</title>
<path fill="none" stroke="midnightblue" d="M821.75,-168.08C829.47,-160.22 840.9,-148.57 850.22,-139.08"/>
<polygon fill="midnightblue" stroke="midnightblue" points="852.9,-141.34 857.41,-131.75 847.91,-136.44 852.9,-141.34"/>
</g>
<!-- Node21&#45;&gt;Node8 -->
<g id="edge32" class="edge">
<title>Node21&#45;&gt;Node8</title>
<path fill="none" stroke="midnightblue" d="M905.18,-114.65C971.65,-103.87 1105.28,-82.2 1166.73,-72.23"/>
<polygon fill="midnightblue" stroke="midnightblue" points="1167.34,-75.68 1176.65,-70.62 1166.22,-68.77 1167.34,-75.68"/>
</g>
<!-- Node22 -->
<g id="node22" class="node">
<title>Node22</title>
<g id="a_node22"><a xlink:title=" ">
<polygon fill="none" stroke="#bfbfbf" points="760,-56.5 760,-75.5 804,-75.5 804,-56.5 760,-56.5"/>
<text text-anchor="middle" x="782" y="-63.5" font-family="Helvetica,sans-Serif" font-size="10.00">ctime</text>
</a>
</g>
</g>
<!-- Node21&#45;&gt;Node22 -->
<g id="edge30" class="edge">
<title>Node21&#45;&gt;Node22</title>
<path fill="none" stroke="midnightblue" d="M852.5,-112.32C839.4,-103.9 819.29,-90.97 803.89,-81.07"/>
<polygon fill="midnightblue" stroke="midnightblue" points="805.77,-78.12 795.46,-75.65 801.98,-84.01 805.77,-78.12"/>
</g>
<!-- Node23 -->
<g id="node23" class="node">
<title>Node23</title>
<g id="a_node23"><a xlink:title=" ">
<polygon fill="none" stroke="#bfbfbf" points="831,-56.5 831,-75.5 887,-75.5 887,-56.5 831,-56.5"/>
<text text-anchor="middle" x="859" y="-63.5" font-family="Helvetica,sans-Serif" font-size="10.00">sstream</text>
</a>
</g>
</g>
<!-- Node21&#45;&gt;Node23 -->
<g id="edge31" class="edge">
<title>Node21&#45;&gt;Node23</title>
<path fill="none" stroke="midnightblue" d="M864.84,-112.08C863.92,-104.93 862.58,-94.64 861.42,-85.69"/>
<polygon fill="midnightblue" stroke="midnightblue" points="864.89,-85.22 860.13,-75.75 857.95,-86.12 864.89,-85.22"/>
</g>
<!-- Node24&#45;&gt;Node5 -->
<g id="edge35" class="edge">
<title>Node24&#45;&gt;Node5</title>
<path fill="none" stroke="midnightblue" d="M538.39,-224.37C534.99,-211.72 530.14,-187.51 536,-168 553.17,-110.86 558.47,-86.07 610,-56 662.17,-25.55 1082.09,-14.51 1215.48,-11.75"/>
<polygon fill="midnightblue" stroke="midnightblue" points="1215.75,-15.25 1225.68,-11.55 1215.61,-8.25 1215.75,-15.25"/>
</g>
<!-- Node24&#45;&gt;Node6 -->
<g id="edge34" class="edge">
<title>Node24&#45;&gt;Node6</title>
<path fill="none" stroke="midnightblue" d="M530.29,-224.3C521.06,-216.07 508.41,-202.79 503,-188 491.4,-156.28 494.81,-144.77 503,-112 505.44,-102.25 510.44,-92.29 515.24,-84.23"/>
<polygon fill="midnightblue" stroke="midnightblue" points="518.21,-86.08 520.63,-75.77 512.31,-82.32 518.21,-86.08"/>
</g>
<!-- Node24&#45;&gt;Node20 -->
<g id="edge36" class="edge">
<title>Node24&#45;&gt;Node20</title>
<path fill="none" stroke="midnightblue" d="M584.1,-224.44C631.85,-214.96 708.86,-199.67 760.19,-189.48"/>
<polygon fill="midnightblue" stroke="midnightblue" points="760.98,-192.9 770.1,-187.52 759.61,-186.03 760.98,-192.9"/>
</g>
<!-- Node25&#45;&gt;Node8 -->
<g id="edge38" class="edge">
<title>Node25&#45;&gt;Node8</title>
<path fill="none" stroke="midnightblue" d="M901.25,-224.41C922.93,-215.84 956.67,-201.97 985,-188 1056.29,-152.86 1137.1,-104.81 1175.86,-81.24"/>
<polygon fill="midnightblue" stroke="midnightblue" points="1178.06,-83.99 1184.77,-75.79 1174.41,-78.02 1178.06,-83.99"/>
</g>
<!-- Node25&#45;&gt;Node9 -->
<g id="edge39" class="edge">
<title>Node25&#45;&gt;Node9</title>
<path fill="none" stroke="midnightblue" d="M882.14,-224.4C888.45,-207.03 903,-166.47 914,-132 918.97,-116.42 924.15,-98.59 927.84,-85.55"/>
<polygon fill="midnightblue" stroke="midnightblue" points="931.22,-86.45 930.56,-75.87 924.48,-84.56 931.22,-86.45"/>
</g>
<!-- Node25&#45;&gt;Node20 -->
<g id="edge40" class="edge">
<title>Node25&#45;&gt;Node20</title>
<path fill="none" stroke="midnightblue" d="M868.4,-224.32C858.54,-216.26 843.65,-204.08 831.78,-194.37"/>
<polygon fill="midnightblue" stroke="midnightblue" points="833.75,-191.46 823.8,-187.83 829.32,-196.88 833.75,-191.46"/>
</g>
<!-- Node25&#45;&gt;Node21 -->
<g id="edge41" class="edge">
<title>Node25&#45;&gt;Node21</title>
<path fill="none" stroke="midnightblue" d="M878.84,-224.13C878.52,-211.59 877.6,-187.96 875,-168 873.85,-159.2 872,-149.54 870.28,-141.43"/>
<polygon fill="midnightblue" stroke="midnightblue" points="873.67,-140.57 868.08,-131.57 866.84,-142.09 873.67,-140.57"/>
</g>
<!-- Node26&#45;&gt;Node4 -->
<g id="edge49" class="edge">
<title>Node26&#45;&gt;Node4</title>
<path fill="none" stroke="midnightblue" d="M1486.58,-224.77C1563.67,-212.83 1697.13,-191.7 1701,-188 1728.87,-161.36 1730.45,-112.62 1728.89,-85.84"/>
<polygon fill="midnightblue" stroke="midnightblue" points="1732.36,-85.24 1728.07,-75.54 1725.38,-85.79 1732.36,-85.24"/>
</g>
<!-- Node26&#45;&gt;Node5 -->
<g id="edge58" class="edge">
<title>Node26&#45;&gt;Node5</title>
<path fill="none" stroke="midnightblue" d="M1426.06,-224.3C1399.63,-191.15 1304.97,-72.41 1269.52,-27.96"/>
<polygon fill="midnightblue" stroke="midnightblue" points="1272.05,-25.52 1263.08,-19.88 1266.58,-29.88 1272.05,-25.52"/>
</g>
<!-- Node26&#45;&gt;Node7 -->
<g id="edge59" class="edge">
<title>Node26&#45;&gt;Node7</title>
<path fill="none" stroke="midnightblue" d="M1484.55,-224.45C1556.02,-212.48 1676.86,-191.77 1680,-188 1725.94,-132.94 1681.71,-193.99 1576,-132 1553.48,-118.8 1531.67,-97.99 1517.85,-83.49"/>
<polygon fill="midnightblue" stroke="midnightblue" points="1520.06,-80.73 1510.68,-75.78 1514.93,-85.49 1520.06,-80.73"/>
</g>
<!-- Node26&#45;&gt;Node9 -->
<g id="edge63" class="edge">
<title>Node26&#45;&gt;Node9</title>
<path fill="none" stroke="midnightblue" d="M1416.03,-224.42C1389.42,-211.17 1336.06,-185.46 1289,-168 1173.18,-125.02 1030.49,-89.62 966.65,-74.67"/>
<polygon fill="midnightblue" stroke="midnightblue" points="967.27,-71.22 956.74,-72.36 965.68,-78.04 967.27,-71.22"/>
</g>
<!-- Node26&#45;&gt;Node14 -->
<g id="edge61" class="edge">
<title>Node26&#45;&gt;Node14</title>
<path fill="none" stroke="midnightblue" d="M1379.45,-226.8C1203.06,-206.31 649.39,-141.58 612,-132 561.99,-119.18 506.76,-94.85 475.14,-79.86"/>
<polygon fill="midnightblue" stroke="midnightblue" points="476.64,-76.71 466.11,-75.54 473.62,-83.02 476.64,-76.71"/>
</g>
<!-- Node26&#45;&gt;Node23 -->
<g id="edge60" class="edge">
<title>Node26&#45;&gt;Node23</title>
<path fill="none" stroke="midnightblue" d="M1403.35,-224.42C1307.16,-196.61 1003.87,-108.9 896.85,-77.95"/>
<polygon fill="midnightblue" stroke="midnightblue" points="897.69,-74.55 887.12,-75.13 895.75,-81.27 897.69,-74.55"/>
</g>
<!-- Node27 -->
<g id="node27" class="node">
<title>Node27</title>
<g id="a_node27"><a xlink:href="_h_t_t_p_request_8hpp.html" target="_top" xlink:title=" ">
<polygon fill="none" stroke="black" points="1417.5,-168.5 1417.5,-187.5 1520.5,-187.5 1520.5,-168.5 1417.5,-168.5"/>
<text text-anchor="middle" x="1469" y="-175.5" font-family="Helvetica,sans-Serif" font-size="10.00">HTTPRequest.hpp</text>
</a>
</g>
</g>
<!-- Node26&#45;&gt;Node27 -->
<g id="edge43" class="edge">
<title>Node26&#45;&gt;Node27</title>
<path fill="none" stroke="midnightblue" d="M1438.94,-224.08C1443.98,-216.53 1451.34,-205.49 1457.51,-196.23"/>
<polygon fill="midnightblue" stroke="midnightblue" points="1460.53,-198.01 1463.17,-187.75 1454.71,-194.13 1460.53,-198.01"/>
</g>
<!-- Node28 -->
<g id="node28" class="node">
<title>Node28</title>
<g id="a_node28"><a xlink:href="error_8hpp.html" target="_top" xlink:title=" ">
<polygon fill="none" stroke="black" points="1539,-168.5 1539,-187.5 1599,-187.5 1599,-168.5 1539,-168.5"/>
<text text-anchor="middle" x="1569" y="-175.5" font-family="Helvetica,sans-Serif" font-size="10.00">error.hpp</text>
</a>
</g>
</g>
<!-- Node26&#45;&gt;Node28 -->
<g id="edge50" class="edge">
<title>Node26&#45;&gt;Node28</title>
<path fill="none" stroke="midnightblue" d="M1454.55,-224.44C1477.03,-215.52 1512.49,-201.44 1537.98,-191.32"/>
<polygon fill="midnightblue" stroke="midnightblue" points="1539.55,-194.46 1547.55,-187.52 1536.97,-187.95 1539.55,-194.46"/>
</g>
<!-- Node29 -->
<g id="node29" class="node">
<title>Node29</title>
<g id="a_node29"><a xlink:href="utilities_8hpp.html" target="_top" xlink:title=" ">
<polygon fill="none" stroke="black" points="621,-112.5 621,-131.5 695,-131.5 695,-112.5 621,-112.5"/>
<text text-anchor="middle" x="658" y="-119.5" font-family="Helvetica,sans-Serif" font-size="10.00">utilities.hpp</text>
</a>
</g>
</g>
<!-- Node26&#45;&gt;Node29 -->
<g id="edge51" class="edge">
<title>Node26&#45;&gt;Node29</title>
<path fill="none" stroke="midnightblue" d="M1392.3,-224.5C1349.96,-215.6 1281.77,-201.13 1223,-188 1184.7,-179.44 1175.73,-174.29 1137,-168 979.94,-142.48 791.38,-130.02 705.17,-125.32"/>
<polygon fill="midnightblue" stroke="midnightblue" points="705.35,-121.82 695.18,-124.78 704.98,-128.81 705.35,-121.82"/>
</g>
<!-- Node31 -->
<g id="node31" class="node">
<title>Node31</title>
<g id="a_node31"><a xlink:title=" ">
<polygon fill="none" stroke="#bfbfbf" points="1617.5,-168.5 1617.5,-187.5 1670.5,-187.5 1670.5,-168.5 1617.5,-168.5"/>
<text text-anchor="middle" x="1644" y="-175.5" font-family="Helvetica,sans-Serif" font-size="10.00">stdint.h</text>
</a>
</g>
</g>
<!-- Node26&#45;&gt;Node31 -->
<g id="edge62" class="edge">
<title>Node26&#45;&gt;Node31</title>
<path fill="none" stroke="midnightblue" d="M1466.43,-224.44C1504.92,-214.59 1567.91,-198.47 1607.6,-188.32"/>
<polygon fill="midnightblue" stroke="midnightblue" points="1608.58,-191.68 1617.4,-185.81 1606.85,-184.9 1608.58,-191.68"/>
</g>
<!-- Node27&#45;&gt;Node2 -->
<g id="edge44" class="edge">
<title>Node27&#45;&gt;Node2</title>
<path fill="none" stroke="midnightblue" d="M1494.19,-168.44C1520.94,-159.36 1563.4,-144.94 1593.31,-134.78"/>
<polygon fill="midnightblue" stroke="midnightblue" points="1594.58,-138.05 1602.92,-131.52 1592.33,-131.42 1594.58,-138.05"/>
</g>
<!-- Node27&#45;&gt;Node4 -->
<g id="edge45" class="edge">
<title>Node27&#45;&gt;Node4</title>
<path fill="none" stroke="midnightblue" d="M1517.89,-168.48C1575.9,-158.08 1666.51,-140.79 1680,-132 1697.63,-120.51 1710.83,-99.94 1718.68,-85"/>
<polygon fill="midnightblue" stroke="midnightblue" points="1721.96,-86.27 1723.25,-75.75 1715.68,-83.17 1721.96,-86.27"/>
</g>
<!-- Node27&#45;&gt;Node5 -->
<g id="edge46" class="edge">
<title>Node27&#45;&gt;Node5</title>
<path fill="none" stroke="midnightblue" d="M1466.71,-168.2C1460.47,-145.95 1441.01,-87.01 1403,-56 1372.39,-31.03 1328.05,-19.89 1296.08,-14.94"/>
<polygon fill="midnightblue" stroke="midnightblue" points="1296.56,-11.47 1286.17,-13.54 1295.58,-18.4 1296.56,-11.47"/>
</g>
<!-- Node27&#45;&gt;Node7 -->
<g id="edge47" class="edge">
<title>Node27&#45;&gt;Node7</title>
<path fill="none" stroke="midnightblue" d="M1471.67,-168.37C1477.18,-150.54 1489.93,-109.3 1497.35,-85.27"/>
<polygon fill="midnightblue" stroke="midnightblue" points="1500.74,-86.18 1500.34,-75.59 1494.05,-84.11 1500.74,-86.18"/>
</g>
<!-- Node27&#45;&gt;Node8 -->
<g id="edge48" class="edge">
<title>Node27&#45;&gt;Node8</title>
<path fill="none" stroke="midnightblue" d="M1441.11,-168.49C1414.17,-160.04 1372.35,-146.3 1337,-132 1297.03,-115.83 1252.09,-93.94 1224.66,-80.14"/>
<polygon fill="midnightblue" stroke="midnightblue" points="1226.23,-77.01 1215.73,-75.62 1223.07,-83.26 1226.23,-77.01"/>
</g>
<!-- Node29&#45;&gt;Node4 -->
<g id="edge52" class="edge">
<title>Node29&#45;&gt;Node4</title>
<path fill="none" stroke="midnightblue" d="M695.17,-118.79C727.6,-116.89 775.9,-114.13 818,-112 1175.68,-93.94 1265.63,-99.44 1623,-76 1638.28,-75 1654.81,-73.68 1670.09,-72.36"/>
<polygon fill="midnightblue" stroke="midnightblue" points="1670.78,-75.81 1680.44,-71.45 1670.17,-68.84 1670.78,-75.81"/>
</g>
<!-- Node29&#45;&gt;Node5 -->
<g id="edge55" class="edge">
<title>Node29&#45;&gt;Node5</title>
<path fill="none" stroke="midnightblue" d="M666.83,-112.36C682.36,-97.79 716.2,-68.68 751,-56 836.25,-24.93 1111.73,-14.72 1215.74,-11.92"/>
<polygon fill="midnightblue" stroke="midnightblue" points="1215.93,-15.42 1225.83,-11.66 1215.74,-8.42 1215.93,-15.42"/>
</g>
<!-- Node29&#45;&gt;Node9 -->
<g id="edge57" class="edge">
<title>Node29&#45;&gt;Node9</title>
<path fill="none" stroke="midnightblue" d="M695.22,-114.58C742.17,-106.34 825.3,-91.27 896,-76 897.07,-75.77 898.15,-75.53 899.24,-75.29"/>
<polygon fill="midnightblue" stroke="midnightblue" points="900.21,-78.66 909.16,-72.99 898.63,-71.84 900.21,-78.66"/>
</g>
<!-- Node29&#45;&gt;Node22 -->
<g id="edge54" class="edge">
<title>Node29&#45;&gt;Node22</title>
<path fill="none" stroke="midnightblue" d="M677.65,-112.44C697.96,-103.6 729.9,-89.69 753.1,-79.59"/>
<polygon fill="midnightblue" stroke="midnightblue" points="754.67,-82.72 762.44,-75.52 751.88,-76.3 754.67,-82.72"/>
</g>
<!-- Node29&#45;&gt;Node23 -->
<g id="edge56" class="edge">
<title>Node29&#45;&gt;Node23</title>
<path fill="none" stroke="midnightblue" d="M689.85,-112.44C725.52,-102.86 783.28,-87.34 821.21,-77.15"/>
<polygon fill="midnightblue" stroke="midnightblue" points="822.12,-80.53 830.87,-74.56 820.3,-73.77 822.12,-80.53"/>
</g>
<!-- Node30 -->
<g id="node30" class="node">
<title>Node30</title>
<g id="a_node30"><a xlink:title=" ">
<polygon fill="none" stroke="#bfbfbf" points="619,-56.5 619,-75.5 683,-75.5 683,-56.5 619,-56.5"/>
<text text-anchor="middle" x="651" y="-63.5" font-family="Helvetica,sans-Serif" font-size="10.00">algorithm</text>
</a>
</g>
</g>
<!-- Node29&#45;&gt;Node30 -->
<g id="edge53" class="edge">
<title>Node29&#45;&gt;Node30</title>
<path fill="none" stroke="midnightblue" d="M656.84,-112.08C655.92,-104.93 654.58,-94.64 653.42,-85.69"/>
<polygon fill="midnightblue" stroke="midnightblue" points="656.89,-85.22 652.13,-75.75 649.95,-86.12 656.89,-85.22"/>
</g>
<!-- Node32&#45;&gt;Node4 -->
<g id="edge78" class="edge">
<title>Node32&#45;&gt;Node4</title>
<path fill="none" stroke="midnightblue" d="M808.7,-285.15C1002.24,-275 1512.58,-248.04 1549,-244 1699.04,-227.36 1786.45,-303.21 1884,-188 1924.99,-139.59 1825.55,-98.16 1766.66,-78.76"/>
<polygon fill="midnightblue" stroke="midnightblue" points="1767.47,-75.34 1756.88,-75.61 1765.33,-82.01 1767.47,-75.34"/>
</g>
<!-- Node32&#45;&gt;Node10 -->
<g id="edge65" class="edge">
<title>Node32&#45;&gt;Node10</title>
<path fill="none" stroke="midnightblue" d="M661.39,-285.28C554.9,-279.2 368.11,-265.57 346,-244 318.63,-217.29 321.38,-168.21 325.4,-141.5"/>
<polygon fill="midnightblue" stroke="midnightblue" points="328.86,-142 327.11,-131.55 321.96,-140.81 328.86,-142"/>
</g>
<!-- Node32&#45;&gt;Node17 -->
<g id="edge66" class="edge">
<title>Node32&#45;&gt;Node17</title>
<path fill="none" stroke="midnightblue" d="M808.57,-285.03C992.94,-275.04 1462.43,-249.25 1496,-244 1531.36,-238.47 1539.04,-231.67 1574,-224 1636.09,-210.38 1707.63,-197.62 1757.49,-189.19"/>
<polygon fill="midnightblue" stroke="midnightblue" points="1758.2,-192.62 1767.48,-187.51 1757.04,-185.72 1758.2,-192.62"/>
</g>
<!-- Node33 -->
<g id="node33" class="node">
<title>Node33</title>
<g id="a_node33"><a xlink:href="_autoindex_handler_8hpp.html" target="_top" xlink:title=" ">
<polygon fill="none" stroke="black" points="622.5,-224.5 622.5,-243.5 747.5,-243.5 747.5,-224.5 622.5,-224.5"/>
<text text-anchor="middle" x="685" y="-231.5" font-family="Helvetica,sans-Serif" font-size="10.00">AutoindexHandler.hpp</text>
</a>
</g>
</g>
<!-- Node32&#45;&gt;Node33 -->
<g id="edge67" class="edge">
<title>Node32&#45;&gt;Node33</title>
<path fill="none" stroke="midnightblue" d="M726.74,-280.08C719.54,-272.3 708.89,-260.8 700.15,-251.37"/>
<polygon fill="midnightblue" stroke="midnightblue" points="702.47,-248.71 693.1,-243.75 697.33,-253.47 702.47,-248.71"/>
</g>
<!-- Node35 -->
<g id="node35" class="node">
<title>Node35</title>
<g id="a_node35"><a xlink:title=" ">
<polygon fill="none" stroke="#bfbfbf" points="355.5,-224.5 355.5,-243.5 420.5,-243.5 420.5,-224.5 355.5,-224.5"/>
<text text-anchor="middle" x="388" y="-231.5" font-family="Helvetica,sans-Serif" font-size="10.00">exception</text>
</a>
</g>
</g>
<!-- Node32&#45;&gt;Node35 -->
<g id="edge79" class="edge">
<title>Node32&#45;&gt;Node35</title>
<path fill="none" stroke="midnightblue" d="M673.12,-280.46C612.38,-271.9 517.16,-258.02 435,-244 433.54,-243.75 432.06,-243.49 430.56,-243.23"/>
<polygon fill="midnightblue" stroke="midnightblue" points="431.05,-239.76 420.59,-241.42 429.8,-246.65 431.05,-239.76"/>
</g>
<!-- Node33&#45;&gt;Node8 -->
<g id="edge74" class="edge">
<title>Node33&#45;&gt;Node8</title>
<path fill="none" stroke="midnightblue" d="M727.66,-224.49C766.44,-216.38 825.05,-203.18 875,-188 932.5,-170.53 1098.15,-106.41 1167.68,-79.27"/>
<polygon fill="midnightblue" stroke="midnightblue" points="1169.18,-82.44 1177.22,-75.54 1166.63,-75.92 1169.18,-82.44"/>
</g>
<!-- Node33&#45;&gt;Node9 -->
<g id="edge75" class="edge">
<title>Node33&#45;&gt;Node9</title>
<path fill="none" stroke="midnightblue" d="M693.16,-224.32C705.24,-211.6 728.73,-187.31 750,-168 778.99,-141.68 784.24,-131.82 818,-112 843.88,-96.8 875.85,-84.77 899.51,-76.98"/>
<polygon fill="midnightblue" stroke="midnightblue" points="900.64,-80.3 909.09,-73.91 898.5,-73.63 900.64,-80.3"/>
</g>
<!-- Node33&#45;&gt;Node10 -->
<g id="edge68" class="edge">
<title>Node33&#45;&gt;Node10</title>
<path fill="none" stroke="midnightblue" d="M622.77,-224.43C578.12,-217.28 516.93,-205.43 465,-188 424.12,-174.28 379.53,-151.3 352.93,-136.66"/>
<polygon fill="midnightblue" stroke="midnightblue" points="354.43,-133.48 343.99,-131.67 351.02,-139.6 354.43,-133.48"/>
</g>
<!-- Node33&#45;&gt;Node14 -->
<g id="edge77" class="edge">
<title>Node33&#45;&gt;Node14</title>
<path fill="none" stroke="midnightblue" d="M626.23,-224.43C597.06,-218.01 562.49,-206.93 536,-188 497.9,-160.78 470.19,-111.57 457.22,-85.07"/>
<polygon fill="midnightblue" stroke="midnightblue" points="460.28,-83.37 452.84,-75.82 453.96,-86.36 460.28,-83.37"/>
</g>
<!-- Node33&#45;&gt;Node23 -->
<g id="edge76" class="edge">
<title>Node33&#45;&gt;Node23</title>
<path fill="none" stroke="midnightblue" d="M687.91,-224.35C692.61,-211.23 702.79,-185.95 717,-168 748.65,-128.02 800.19,-96.9 831.7,-80.31"/>
<polygon fill="midnightblue" stroke="midnightblue" points="833.5,-83.32 840.79,-75.63 830.3,-77.09 833.5,-83.32"/>
</g>
<!-- Node33&#45;&gt;Node29 -->
<g id="edge73" class="edge">
<title>Node33&#45;&gt;Node29</title>
<path fill="none" stroke="midnightblue" d="M682.88,-224.37C678.52,-206.62 668.47,-165.67 662.56,-141.6"/>
<polygon fill="midnightblue" stroke="midnightblue" points="665.89,-140.47 660.11,-131.59 659.09,-142.14 665.89,-140.47"/>
</g>
<!-- Node34 -->
<g id="node34" class="node">
<title>Node34</title>
<g id="a_node34"><a xlink:href="_directory_8hpp.html" target="_top" xlink:title=" ">
<polygon fill="none" stroke="black" points="545.5,-168.5 545.5,-187.5 626.5,-187.5 626.5,-168.5 545.5,-168.5"/>
<text text-anchor="middle" x="586" y="-175.5" font-family="Helvetica,sans-Serif" font-size="10.00">Directory.hpp</text>
</a>
</g>
</g>
<!-- Node33&#45;&gt;Node34 -->
<g id="edge69" class="edge">
<title>Node33&#45;&gt;Node34</title>
<path fill="none" stroke="midnightblue" d="M669.09,-224.32C653.36,-215.74 629.06,-202.49 610.79,-192.52"/>
<polygon fill="midnightblue" stroke="midnightblue" points="612.32,-189.37 601.87,-187.65 608.97,-195.52 612.32,-189.37"/>
</g>
<!-- Node34&#45;&gt;Node9 -->
<g id="edge71" class="edge">
<title>Node34&#45;&gt;Node9</title>
<path fill="none" stroke="midnightblue" d="M611.71,-168.42C649.57,-155.82 722.61,-131.67 785,-112 824.18,-99.65 869.38,-85.99 899.41,-77"/>
<polygon fill="midnightblue" stroke="midnightblue" points="900.79,-80.24 909.37,-74.02 898.79,-73.53 900.79,-80.24"/>
</g>
<!-- Node34&#45;&gt;Node10 -->
<g id="edge70" class="edge">
<title>Node34&#45;&gt;Node10</title>
<path fill="none" stroke="midnightblue" d="M545.28,-168.44C500.35,-159 428,-143.8 379.5,-133.61"/>
<polygon fill="midnightblue" stroke="midnightblue" points="380.04,-130.15 369.53,-131.52 378.6,-137 380.04,-130.15"/>
</g>
<!-- Node34&#45;&gt;Node30 -->
<g id="edge72" class="edge">
<title>Node34&#45;&gt;Node30</title>
<path fill="none" stroke="midnightblue" d="M588.5,-168.15C592.39,-155.23 600.62,-130.68 612,-112 618.38,-101.54 627.2,-91.12 634.85,-82.95"/>
<polygon fill="midnightblue" stroke="midnightblue" points="637.52,-85.22 641.97,-75.6 632.49,-80.35 637.52,-85.22"/>
</g>
<!-- Node36&#45;&gt;Node2 -->
<g id="edge83" class="edge">
<title>Node36&#45;&gt;Node2</title>
<path fill="none" stroke="midnightblue" d="M1485.45,-284.19C1606.35,-274.73 1834.9,-249.06 1884,-188 1889.57,-181.07 1889.72,-174.81 1884,-168 1858.61,-137.76 1748.29,-127.83 1681.03,-124.58"/>
<polygon fill="midnightblue" stroke="midnightblue" points="1681.17,-121.08 1671.02,-124.13 1680.86,-128.08 1681.17,-121.08"/>
</g>
<!-- Node36&#45;&gt;Node4 -->
<g id="edge87" class="edge">
<title>Node36&#45;&gt;Node4</title>
<path fill="none" stroke="midnightblue" d="M1485.09,-287.51C1621.95,-282.93 1902.72,-264.24 1955,-188 1974.1,-160.14 1976.45,-138.09 1955,-112 1933.72,-86.11 1844.03,-74.87 1783.69,-70.17"/>
<polygon fill="midnightblue" stroke="midnightblue" points="1783.76,-66.67 1773.53,-69.42 1783.25,-73.65 1783.76,-66.67"/>
</g>
<!-- Node36&#45;&gt;Node8 -->
<g id="edge81" class="edge">
<title>Node36&#45;&gt;Node8</title>
<path fill="none" stroke="midnightblue" d="M1401.73,-280.3C1370.02,-246.94 1255.95,-126.92 1214.34,-83.13"/>
<polygon fill="midnightblue" stroke="midnightblue" points="1216.87,-80.72 1207.44,-75.88 1211.8,-85.54 1216.87,-80.72"/>
</g>
<!-- Node36&#45;&gt;Node9 -->
<g id="edge82" class="edge">
<title>Node36&#45;&gt;Node9</title>
<path fill="none" stroke="midnightblue" d="M1391.59,-280.43C1318.48,-246.4 1048.3,-120.66 960.65,-79.87"/>
<polygon fill="midnightblue" stroke="midnightblue" points="961.89,-76.59 951.35,-75.54 958.94,-82.93 961.89,-76.59"/>
</g>
<!-- Node36&#45;&gt;Node10 -->
<g id="edge84" class="edge">
<title>Node36&#45;&gt;Node10</title>
<path fill="none" stroke="midnightblue" d="M1334.65,-286.71C1118.95,-279.96 511.87,-259.7 472,-244 415.21,-221.64 364.82,-167.03 341.98,-139.47"/>
<polygon fill="midnightblue" stroke="midnightblue" points="344.58,-137.12 335.56,-131.55 339.14,-141.52 344.58,-137.12"/>
</g>
<!-- Node36&#45;&gt;Node17 -->
<g id="edge85" class="edge">
<title>Node36&#45;&gt;Node17</title>
<path fill="none" stroke="midnightblue" d="M1441.83,-280.46C1515.25,-260.76 1696.43,-212.15 1778.46,-190.15"/>
<polygon fill="midnightblue" stroke="midnightblue" points="1779.44,-193.51 1788.19,-187.53 1777.62,-186.75 1779.44,-193.51"/>
</g>
<!-- Node36&#45;&gt;Node26 -->
<g id="edge86" class="edge">
<title>Node36&#45;&gt;Node26</title>
<path fill="none" stroke="midnightblue" d="M1413.8,-280.08C1416.91,-272.77 1421.42,-262.18 1425.29,-253.1"/>
<polygon fill="midnightblue" stroke="midnightblue" points="1428.57,-254.32 1429.27,-243.75 1422.13,-251.58 1428.57,-254.32"/>
</g>
</g>
</svg>
        <g id="navigator" transform="translate(0 0)" fill="#404254">
                <rect fill="#f2f5e9" fill-opacity="0.5" stroke="#606060" stroke-width=".5" x="0" y="0" width="60" height="60"/>
                <use id="zoomplus" xlink:href="#zoomPlus" x="17" y="9" onmousedown="handleZoom(evt,'in')"/>
                <use id="zoomminus" xlink:href="#zoomMin" x="42" y="9" onmousedown="handleZoom(evt,'out')"/>
                <use id="reset" xlink:href="#resetDef" x="30" y="36" onmousedown="handleReset()"/>
                <g id="arrowUp" xlink:href="#dirArrow" transform="translate(30 24)" onmousedown="handlePan(0,-1)">
                  <use xlink:href="#rim" fill="#404040">
                        <set attributeName="fill" to="#808080" begin="arrowUp.mouseover" end="arrowUp.mouseout"/>
                  </use>
                  <path fill="none" stroke="white" stroke-width="1.5" d="M0,-3.0v7 M-2.5,-0.5L0,-3.0L2.5,-0.5"/>
                </g>
                <g id="arrowRight" xlink:href="#dirArrow" transform="rotate(90) translate(36 -43)" onmousedown="handlePan(1,0)">
                  <use xlink:href="#rim" fill="#404040">
                        <set attributeName="fill" to="#808080" begin="arrowRight.mouseover" end="arrowRight.mouseout"/>
                  </use>
                  <path fill="none" stroke="white" stroke-width="1.5" d="M0,-3.0v7 M-2.5,-0.5L0,-3.0L2.5,-0.5"/>
                </g>
                <g id="arrowDown" xlink:href="#dirArrow" transform="rotate(180) translate(-30 -48)" onmousedown="handlePan(0,1)">
                  <use xlink:href="#rim" fill="#404040">
                        <set attributeName="fill" to="#808080" begin="arrowDown.mouseover" end="arrowDown.mouseout"/>
                  </use>
                  <path fill="none" stroke="white" stroke-width="1.5" d="M0,-3.0v7 M-2.5,-0.5L0,-3.0L2.5,-0.5"/>
                </g>
                <g id="arrowLeft" xlink:href="#dirArrow" transform="rotate(270) translate(-36 17)" onmousedown="handlePan(-1,0)">
                  <use xlink:href="#rim" fill="#404040">
                        <set attributeName="fill" to="#808080" begin="arrowLeft.mouseover" end="arrowLeft.mouseout"/>
                  </use>
                  <path fill="none" stroke="white" stroke-width="1.5" d="M0,-3.0v7 M-2.5,-0.5L0,-3.0L2.5,-0.5"/>
                </g>
        </g>
        <svg viewBox="0 0 15 15" width="100%" height="30px" preserveAspectRatio="xMaxYMin meet">
         <g id="arrow_out" transform="scale(0.3 0.3)">
          <a xlink:href="_response_builder_8hpp__incl_org.svg" target="_base">
           <rect id="button" ry="5" rx="5" y="6" x="6" height="38" width="38"
                fill="#f2f5e9" fill-opacity="0.5" stroke="#606060" stroke-width="1.0"/>
           <path id="arrow"
             d="M 11.500037,31.436501 C 11.940474,20.09759 22.043105,11.32322 32.158766,21.979434 L 37.068811,17.246167 C 37.068811,17.246167 37.088388,32 37.088388,32 L 22.160133,31.978069 C 22.160133,31.978069 26.997745,27.140456 26.997745,27.140456 C 18.528582,18.264221 13.291696,25.230495 11.500037,31.436501 z"
             style="fill:#404040;"/>
          </a>
         </g>
        </svg>
</svg>
