<?xml version="1.0" encoding="UTF-8" standalone="no"?>
<!DOCTYPE svg PUBLIC "-//W3C//DTD SVG 1.1//EN"
 "http://www.w3.org/Graphics/SVG/1.1/DTD/svg11.dtd">
<!-- Generated by graphviz version 2.43.0 (0)
 -->
<!-- Title: src/ResponseBodyHandler.cpp Pages: 1 -->
<!--zoomable 308 -->
<svg id="main" version="1.1" xmlns="http://www.w3.org/2000/svg" xmlns:xlink="http://www.w3.org/1999/xlink" xml:space="preserve" onload="init(evt)">
<style type="text/css"><![CDATA[
.edge:hover path { stroke: red; }
.edge:hover polygon { stroke: red; fill: red; }
]]></style>
<script type="text/javascript"><![CDATA[
var edges = document.getElementsByTagName('g');
if (edges && edges.length) {
  for (var i=0;i<edges.length;i++) {
    if (edges[i].id.substr(0,4)=='edge') {
      edges[i].setAttribute('class','edge');
    }
  }
}
]]></script>
        <defs>
                <circle id="rim" cx="0" cy="0" r="7"/>
                <circle id="rim2" cx="0" cy="0" r="3.5"/>
                <g id="zoomPlus">
                        <use xlink:href="#rim" fill="#404040">
                                <set attributeName="fill" to="#808080" begin="zoomplus.mouseover" end="zoomplus.mouseout"/>
                        </use>
                        <path d="M-4,0h8M0,-4v8" fill="none" stroke="white" stroke-width="1.5" pointer-events="none"/>
                </g>
                <g id="zoomMin">
                        <use xlink:href="#rim" fill="#404040">
                                <set attributeName="fill" to="#808080" begin="zoomminus.mouseover" end="zoomminus.mouseout"/>
                        </use>
                        <path d="M-4,0h8" fill="none" stroke="white" stroke-width="1.5" pointer-events="none"/>
                </g>
                <g id="dirArrow">
                        <path fill="none" stroke="white" stroke-width="1.5" d="M0,-3.0v7 M-2.5,-0.5L0,-3.0L2.5,-0.5"/>
                </g>
               <g id="resetDef">
                       <use xlink:href="#rim2" fill="#404040">
                               <set attributeName="fill" to="#808080" begin="reset.mouseover" end="reset.mouseout"/>
                       </use>
               </g>
        </defs>

<script type="text/javascript">
var viewWidth = 886;
var viewHeight = 308;
var sectionId = 'dynsection-0';
</script>
<script xlink:href="svgpan.js"/>
<svg id="graph" class="graph">
<g id="viewport">
<title>src/ResponseBodyHandler.cpp</title>
<!-- Node1 -->
<g id="node1" class="node">
<title>Node1</title>
<g id="a_node1"><a xlink:title=" ">
<polygon fill="#bfbfbf" stroke="black" points="393.77,-280.5 393.77,-299.5 557.77,-299.5 557.77,-280.5 393.77,-280.5"/>
<text text-anchor="middle" x="475.77" y="-287.5" font-family="Helvetica,sans-Serif" font-size="10.00">src/ResponseBodyHandler.cpp</text>
</a>
</g>
</g>
<!-- Node2 -->
<g id="node2" class="node">
<title>Node2</title>
<g id="a_node2"><a xlink:href="_response_body_handler_8hpp.html" target="_top" xlink:title=" ">
<polygon fill="none" stroke="black" points="240.27,-224.5 240.27,-243.5 387.27,-243.5 387.27,-224.5 240.27,-224.5"/>
<text text-anchor="middle" x="313.77" y="-231.5" font-family="Helvetica,sans-Serif" font-size="10.00">ResponseBodyHandler.hpp</text>
</a>
</g>
</g>
<!-- Node1&#45;&gt;Node2 -->
<g id="edge1" class="edge">
<title>Node1&#45;&gt;Node2</title>
<path fill="none" stroke="midnightblue" d="M450.1,-280.44C422.85,-271.36 379.59,-256.94 349.12,-246.78"/>
<polygon fill="midnightblue" stroke="midnightblue" points="349.91,-243.36 339.32,-243.52 347.7,-250 349.91,-243.36"/>
</g>
<!-- Node15 -->
<g id="node15" class="node">
<title>Node15</title>
<g id="a_node15"><a xlink:href="_config_file_8hpp.html" target="_top" xlink:title=" ">
<polygon fill="none" stroke="black" points="466.77,-112.5 466.77,-131.5 552.77,-131.5 552.77,-112.5 466.77,-112.5"/>
<text text-anchor="middle" x="509.77" y="-119.5" font-family="Helvetica,sans-Serif" font-size="10.00">ConfigFile.hpp</text>
</a>
</g>
</g>
<!-- Node1&#45;&gt;Node15 -->
<g id="edge39" class="edge">
<title>Node1&#45;&gt;Node15</title>
<path fill="none" stroke="midnightblue" d="M477.6,-280.08C482.95,-253.95 498.67,-177.21 505.97,-141.58"/>
<polygon fill="midnightblue" stroke="midnightblue" points="509.44,-142.07 508.02,-131.57 502.58,-140.66 509.44,-142.07"/>
</g>
<!-- Node3 -->
<g id="node3" class="node">
<title>Node3</title>
<g id="a_node3"><a xlink:href="_file_system_policy_8hpp.html" target="_top" xlink:title=" ">
<polygon fill="none" stroke="black" points="578.27,-56.5 578.27,-75.5 697.27,-75.5 697.27,-56.5 578.27,-56.5"/>
<text text-anchor="middle" x="637.77" y="-63.5" font-family="Helvetica,sans-Serif" font-size="10.00">FileSystemPolicy.hpp</text>
</a>
</g>
</g>
<!-- Node2&#45;&gt;Node3 -->
<g id="edge2" class="edge">
<title>Node2&#45;&gt;Node3</title>
<path fill="none" stroke="midnightblue" d="M361.59,-224.47C420.15,-212.13 520.12,-184.76 589.77,-132 606.49,-119.34 620.05,-99.3 628.44,-84.81"/>
<polygon fill="midnightblue" stroke="midnightblue" points="631.63,-86.28 633.4,-75.83 625.5,-82.9 631.63,-86.28"/>
</g>
<!-- Node13 -->
<g id="node13" class="node">
<title>Node13</title>
<g id="a_node13"><a xlink:href="_h_t_t_p_response_8hpp.html" target="_top" xlink:title=" ">
<polygon fill="none" stroke="black" points="91.77,-168.5 91.77,-187.5 201.77,-187.5 201.77,-168.5 91.77,-168.5"/>
<text text-anchor="middle" x="146.77" y="-175.5" font-family="Helvetica,sans-Serif" font-size="10.00">HTTPResponse.hpp</text>
</a>
</g>
</g>
<!-- Node2&#45;&gt;Node13 -->
<g id="edge12" class="edge">
<title>Node2&#45;&gt;Node13</title>
<path fill="none" stroke="midnightblue" d="M287.31,-224.44C259.09,-215.32 214.23,-200.81 182.8,-190.65"/>
<polygon fill="midnightblue" stroke="midnightblue" points="183.7,-187.26 173.11,-187.52 181.55,-193.92 183.7,-187.26"/>
</g>
<!-- Node14 -->
<g id="node14" class="node">
<title>Node14</title>
<g id="a_node14"><a xlink:href="_status_code_8hpp.html" target="_top" xlink:title=" ">
<polygon fill="none" stroke="black" points="12.27,-56.5 12.27,-75.5 105.27,-75.5 105.27,-56.5 12.27,-56.5"/>
<text text-anchor="middle" x="58.77" y="-63.5" font-family="Helvetica,sans-Serif" font-size="10.00">StatusCode.hpp</text>
</a>
</g>
</g>
<!-- Node2&#45;&gt;Node14 -->
<g id="edge37" class="edge">
<title>Node2&#45;&gt;Node14</title>
<path fill="none" stroke="midnightblue" d="M240.1,-227.49C181.06,-221.52 104.62,-209.78 82.77,-188 55.68,-161 54.71,-112.79 56.6,-86.1"/>
<polygon fill="midnightblue" stroke="midnightblue" points="60.11,-86.08 57.55,-75.8 53.14,-85.44 60.11,-86.08"/>
</g>
<!-- Node18 -->
<g id="node18" class="node">
<title>Node18</title>
<g id="a_node18"><a xlink:href="_autoindex_handler_8hpp.html" target="_top" xlink:title=" ">
<polygon fill="none" stroke="black" points="307.27,-168.5 307.27,-187.5 432.27,-187.5 432.27,-168.5 307.27,-168.5"/>
<text text-anchor="middle" x="369.77" y="-175.5" font-family="Helvetica,sans-Serif" font-size="10.00">AutoindexHandler.hpp</text>
</a>
</g>
</g>
<!-- Node2&#45;&gt;Node18 -->
<g id="edge20" class="edge">
<title>Node2&#45;&gt;Node18</title>
<path fill="none" stroke="midnightblue" d="M322.77,-224.32C330.97,-216.42 343.28,-204.55 353.24,-194.94"/>
<polygon fill="midnightblue" stroke="midnightblue" points="355.84,-197.29 360.61,-187.83 350.98,-192.26 355.84,-197.29"/>
</g>
<!-- Node24 -->
<g id="node24" class="node">
<title>Node24</title>
<g id="a_node24"><a xlink:title=" ">
<polygon fill="none" stroke="#bfbfbf" points="224.27,-168.5 224.27,-187.5 289.27,-187.5 289.27,-168.5 224.27,-168.5"/>
<text text-anchor="middle" x="256.77" y="-175.5" font-family="Helvetica,sans-Serif" font-size="10.00">exception</text>
</a>
</g>
</g>
<!-- Node2&#45;&gt;Node24 -->
<g id="edge38" class="edge">
<title>Node2&#45;&gt;Node24</title>
<path fill="none" stroke="midnightblue" d="M304.61,-224.32C296.27,-216.42 283.74,-204.55 273.6,-194.94"/>
<polygon fill="midnightblue" stroke="midnightblue" points="275.76,-192.17 266.1,-187.83 270.95,-197.25 275.76,-192.17"/>
</g>
<!-- Node4 -->
<g id="node4" class="node">
<title>Node4</title>
<g id="a_node4"><a xlink:title=" ">
<polygon fill="none" stroke="#bfbfbf" points="111.77,-0.5 111.77,-19.5 155.77,-19.5 155.77,-0.5 111.77,-0.5"/>
<text text-anchor="middle" x="133.77" y="-7.5" font-family="Helvetica,sans-Serif" font-size="10.00">string</text>
</a>
</g>
</g>
<!-- Node3&#45;&gt;Node4 -->
<g id="edge3" class="edge">
<title>Node3&#45;&gt;Node4</title>
<path fill="none" stroke="midnightblue" d="M577.94,-57.1C574.84,-56.72 571.77,-56.35 568.77,-56 418.5,-38.43 238.6,-20.95 166.25,-14.06"/>
<polygon fill="midnightblue" stroke="midnightblue" points="166.26,-10.55 155.98,-13.09 165.6,-17.52 166.26,-10.55"/>
</g>
<!-- Node5 -->
<g id="node5" class="node">
<title>Node5</title>
<g id="a_node5"><a xlink:title=" ">
<polygon fill="none" stroke="#bfbfbf" points="433.27,-0.5 433.27,-19.5 480.27,-19.5 480.27,-0.5 433.27,-0.5"/>
<text text-anchor="middle" x="456.77" y="-7.5" font-family="Helvetica,sans-Serif" font-size="10.00">cerrno</text>
</a>
</g>
</g>
<!-- Node3&#45;&gt;Node5 -->
<g id="edge4" class="edge">
<title>Node3&#45;&gt;Node5</title>
<path fill="none" stroke="midnightblue" d="M609.09,-56.44C576.84,-46.82 524.53,-31.21 490.39,-21.03"/>
<polygon fill="midnightblue" stroke="midnightblue" points="491,-17.56 480.41,-18.05 489,-24.27 491,-17.56"/>
</g>
<!-- Node6 -->
<g id="node6" class="node">
<title>Node6</title>
<g id="a_node6"><a xlink:title=" ">
<polygon fill="none" stroke="#bfbfbf" points="498.77,-0.5 498.77,-19.5 548.77,-19.5 548.77,-0.5 498.77,-0.5"/>
<text text-anchor="middle" x="523.77" y="-7.5" font-family="Helvetica,sans-Serif" font-size="10.00">cstring</text>
</a>
</g>
</g>
<!-- Node3&#45;&gt;Node6 -->
<g id="edge5" class="edge">
<title>Node3&#45;&gt;Node6</title>
<path fill="none" stroke="midnightblue" d="M619.71,-56.44C601.2,-47.68 572.19,-33.94 550.92,-23.86"/>
<polygon fill="midnightblue" stroke="midnightblue" points="552.29,-20.63 541.75,-19.52 549.29,-26.96 552.29,-20.63"/>
</g>
<!-- Node7 -->
<g id="node7" class="node">
<title>Node7</title>
<g id="a_node7"><a xlink:title=" ">
<polygon fill="none" stroke="#bfbfbf" points="566.77,-0.5 566.77,-19.5 630.77,-19.5 630.77,-0.5 566.77,-0.5"/>
<text text-anchor="middle" x="598.77" y="-7.5" font-family="Helvetica,sans-Serif" font-size="10.00">sys/stat.h</text>
</a>
</g>
</g>
<!-- Node3&#45;&gt;Node7 -->
<g id="edge6" class="edge">
<title>Node3&#45;&gt;Node7</title>
<path fill="none" stroke="midnightblue" d="M631.33,-56.08C625.82,-48.46 617.74,-37.26 611.01,-27.94"/>
<polygon fill="midnightblue" stroke="midnightblue" points="613.78,-25.81 605.09,-19.75 608.11,-29.91 613.78,-25.81"/>
</g>
<!-- Node8 -->
<g id="node8" class="node">
<title>Node8</title>
<g id="a_node8"><a xlink:title=" ">
<polygon fill="none" stroke="#bfbfbf" points="649.27,-0.5 649.27,-19.5 704.27,-19.5 704.27,-0.5 649.27,-0.5"/>
<text text-anchor="middle" x="676.77" y="-7.5" font-family="Helvetica,sans-Serif" font-size="10.00">fstream</text>
</a>
</g>
</g>
<!-- Node3&#45;&gt;Node8 -->
<g id="edge7" class="edge">
<title>Node3&#45;&gt;Node8</title>
<path fill="none" stroke="midnightblue" d="M644.21,-56.08C649.72,-48.46 657.8,-37.26 664.54,-27.94"/>
<polygon fill="midnightblue" stroke="midnightblue" points="667.43,-29.91 670.45,-19.75 661.76,-25.81 667.43,-29.91"/>
</g>
<!-- Node9 -->
<g id="node9" class="node">
<title>Node9</title>
<g id="a_node9"><a xlink:title=" ">
<polygon fill="none" stroke="#bfbfbf" points="813.27,-0.5 813.27,-19.5 878.27,-19.5 878.27,-0.5 813.27,-0.5"/>
<text text-anchor="middle" x="845.77" y="-7.5" font-family="Helvetica,sans-Serif" font-size="10.00">stdexcept</text>
</a>
</g>
</g>
<!-- Node3&#45;&gt;Node9 -->
<g id="edge8" class="edge">
<title>Node3&#45;&gt;Node9</title>
<path fill="none" stroke="midnightblue" d="M670.73,-56.44C706.56,-47.14 763.94,-32.25 803.16,-22.06"/>
<polygon fill="midnightblue" stroke="midnightblue" points="804.17,-25.42 812.97,-19.52 802.41,-18.64 804.17,-25.42"/>
</g>
<!-- Node10 -->
<g id="node10" class="node">
<title>Node10</title>
<g id="a_node10"><a xlink:title=" ">
<polygon fill="none" stroke="#bfbfbf" points="248.77,-0.5 248.77,-19.5 308.77,-19.5 308.77,-0.5 248.77,-0.5"/>
<text text-anchor="middle" x="278.77" y="-7.5" font-family="Helvetica,sans-Serif" font-size="10.00">iostream</text>
</a>
</g>
</g>
<!-- Node3&#45;&gt;Node10 -->
<g id="edge9" class="edge">
<title>Node3&#45;&gt;Node10</title>
<path fill="none" stroke="midnightblue" d="M580.89,-56.44C507.85,-45.46 382.92,-26.67 319.01,-17.05"/>
<polygon fill="midnightblue" stroke="midnightblue" points="319.33,-13.56 308.92,-15.54 318.29,-20.48 319.33,-13.56"/>
</g>
<!-- Node11 -->
<g id="node11" class="node">
<title>Node11</title>
<g id="a_node11"><a xlink:title=" ">
<polygon fill="none" stroke="#bfbfbf" points="722.77,-0.5 722.77,-19.5 794.77,-19.5 794.77,-0.5 722.77,-0.5"/>
<text text-anchor="middle" x="758.77" y="-7.5" font-family="Helvetica,sans-Serif" font-size="10.00">sys/types.h</text>
</a>
</g>
</g>
<!-- Node3&#45;&gt;Node11 -->
<g id="edge10" class="edge">
<title>Node3&#45;&gt;Node11</title>
<path fill="none" stroke="midnightblue" d="M656.94,-56.44C676.68,-47.64 707.66,-33.81 730.27,-23.72"/>
<polygon fill="midnightblue" stroke="midnightblue" points="731.98,-26.79 739.69,-19.52 729.13,-20.4 731.98,-26.79"/>
</g>
<!-- Node12 -->
<g id="node12" class="node">
<title>Node12</title>
<g id="a_node12"><a xlink:title=" ">
<polygon fill="none" stroke="#bfbfbf" points="360.77,-0.5 360.77,-19.5 414.77,-19.5 414.77,-0.5 360.77,-0.5"/>
<text text-anchor="middle" x="387.77" y="-7.5" font-family="Helvetica,sans-Serif" font-size="10.00">dirent.h</text>
</a>
</g>
</g>
<!-- Node3&#45;&gt;Node12 -->
<g id="edge11" class="edge">
<title>Node3&#45;&gt;Node12</title>
<path fill="none" stroke="midnightblue" d="M595.66,-56.5C552.63,-47.72 483.93,-33.44 424.77,-20 424.67,-19.98 424.57,-19.95 424.47,-19.93"/>
<polygon fill="midnightblue" stroke="midnightblue" points="425.36,-16.55 414.83,-17.68 423.77,-23.36 425.36,-16.55"/>
</g>
<!-- Node13&#45;&gt;Node4 -->
<g id="edge15" class="edge">
<title>Node13&#45;&gt;Node4</title>
<path fill="none" stroke="midnightblue" d="M123.1,-168.43C89.41,-154.78 28.94,-124.58 3.77,-76 -17.23,-35.45 56.44,-19.75 101.42,-14.03"/>
<polygon fill="midnightblue" stroke="midnightblue" points="102.09,-17.47 111.62,-12.84 101.28,-10.52 102.09,-17.47"/>
</g>
<!-- Node13&#45;&gt;Node14 -->
<g id="edge13" class="edge">
<title>Node13&#45;&gt;Node14</title>
<path fill="none" stroke="midnightblue" d="M139.87,-168.37C125.28,-150.14 91.11,-107.43 72.11,-83.68"/>
<polygon fill="midnightblue" stroke="midnightblue" points="74.63,-81.21 65.65,-75.59 69.16,-85.59 74.63,-81.21"/>
</g>
<!-- Node13&#45;&gt;Node15 -->
<g id="edge16" class="edge">
<title>Node13&#45;&gt;Node15</title>
<path fill="none" stroke="midnightblue" d="M201.9,-168.8C270.95,-158.53 388.43,-141.05 456.57,-130.91"/>
<polygon fill="midnightblue" stroke="midnightblue" points="457.28,-134.35 466.66,-129.41 456.25,-127.42 457.28,-134.35"/>
</g>
<!-- Node14&#45;&gt;Node10 -->
<g id="edge14" class="edge">
<title>Node14&#45;&gt;Node10</title>
<path fill="none" stroke="midnightblue" d="M93.63,-56.44C133.14,-46.75 197.43,-30.97 238.9,-20.79"/>
<polygon fill="midnightblue" stroke="midnightblue" points="239.79,-24.17 248.67,-18.39 238.12,-17.37 239.79,-24.17"/>
</g>
<!-- Node15&#45;&gt;Node10 -->
<g id="edge17" class="edge">
<title>Node15&#45;&gt;Node10</title>
<path fill="none" stroke="midnightblue" d="M507.61,-112.32C503.62,-98.22 493.73,-70.45 474.77,-56 450.66,-37.62 369.08,-23.47 319.09,-16.27"/>
<polygon fill="midnightblue" stroke="midnightblue" points="319.32,-12.77 308.93,-14.84 318.34,-19.7 319.32,-12.77"/>
</g>
<!-- Node16 -->
<g id="node16" class="node">
<title>Node16</title>
<g id="a_node16"><a xlink:title=" ">
<polygon fill="none" stroke="#bfbfbf" points="521.77,-56.5 521.77,-75.5 559.77,-75.5 559.77,-56.5 521.77,-56.5"/>
<text text-anchor="middle" x="540.77" y="-63.5" font-family="Helvetica,sans-Serif" font-size="10.00">map</text>
</a>
</g>
</g>
<!-- Node15&#45;&gt;Node16 -->
<g id="edge18" class="edge">
<title>Node15&#45;&gt;Node16</title>
<path fill="none" stroke="midnightblue" d="M514.89,-112.08C519.18,-104.61 525.43,-93.72 530.71,-84.52"/>
<polygon fill="midnightblue" stroke="midnightblue" points="533.8,-86.17 535.75,-75.75 527.73,-82.68 533.8,-86.17"/>
</g>
<!-- Node17 -->
<g id="node17" class="node">
<title>Node17</title>
<g id="a_node17"><a xlink:title=" ">
<polygon fill="none" stroke="#bfbfbf" points="418.27,-56.5 418.27,-75.5 465.27,-75.5 465.27,-56.5 418.27,-56.5"/>
<text text-anchor="middle" x="441.77" y="-63.5" font-family="Helvetica,sans-Serif" font-size="10.00">vector</text>
</a>
</g>
</g>
<!-- Node15&#45;&gt;Node17 -->
<g id="edge19" class="edge">
<title>Node15&#45;&gt;Node17</title>
<path fill="none" stroke="midnightblue" d="M498.85,-112.32C488.6,-104.18 473.05,-91.84 460.77,-82.09"/>
<polygon fill="midnightblue" stroke="midnightblue" points="462.9,-79.31 452.9,-75.83 458.55,-84.79 462.9,-79.31"/>
</g>
<!-- Node18&#45;&gt;Node3 -->
<g id="edge21" class="edge">
<title>Node18&#45;&gt;Node3</title>
<path fill="none" stroke="midnightblue" d="M432.46,-170C471.29,-163.83 521.3,-152.5 561.77,-132 586.08,-119.69 609.15,-98.04 623.36,-83.14"/>
<polygon fill="midnightblue" stroke="midnightblue" points="626.07,-85.36 630.29,-75.65 620.93,-80.61 626.07,-85.36"/>
</g>
<!-- Node18&#45;&gt;Node4 -->
<g id="edge33" class="edge">
<title>Node18&#45;&gt;Node4</title>
<path fill="none" stroke="midnightblue" d="M308.97,-168.47C276.63,-161.98 237.17,-150.83 205.77,-132 176.39,-114.37 169.83,-105.72 152.77,-76 144.45,-61.5 139.51,-43.06 136.76,-29.52"/>
<polygon fill="midnightblue" stroke="midnightblue" points="140.18,-28.72 134.95,-19.5 133.29,-29.97 140.18,-28.72"/>
</g>
<!-- Node18&#45;&gt;Node9 -->
<g id="edge36" class="edge">
<title>Node18&#45;&gt;Node9</title>
<path fill="none" stroke="midnightblue" d="M431.5,-168.44C476.18,-161.26 537.62,-149.38 589.77,-132 679.06,-102.25 777.98,-49.32 822.18,-24.52"/>
<polygon fill="midnightblue" stroke="midnightblue" points="824.02,-27.51 831.01,-19.54 820.58,-21.41 824.02,-27.51"/>
</g>
<!-- Node18&#45;&gt;Node17 -->
<g id="edge34" class="edge">
<title>Node18&#45;&gt;Node17</title>
<path fill="none" stroke="midnightblue" d="M382.55,-168.42C393.8,-160.26 409.88,-147.02 419.77,-132 429.09,-117.85 434.84,-99.37 438.12,-85.73"/>
<polygon fill="midnightblue" stroke="midnightblue" points="441.61,-86.13 440.31,-75.61 434.77,-84.65 441.61,-86.13"/>
</g>
<!-- Node19 -->
<g id="node19" class="node">
<title>Node19</title>
<g id="a_node19"><a xlink:href="_directory_8hpp.html" target="_top" xlink:title=" ">
<polygon fill="none" stroke="black" points="329.27,-112.5 329.27,-131.5 410.27,-131.5 410.27,-112.5 329.27,-112.5"/>
<text text-anchor="middle" x="369.77" y="-119.5" font-family="Helvetica,sans-Serif" font-size="10.00">Directory.hpp</text>
</a>
</g>
</g>
<!-- Node18&#45;&gt;Node19 -->
<g id="edge22" class="edge">
<title>Node18&#45;&gt;Node19</title>
<path fill="none" stroke="midnightblue" d="M369.77,-168.08C369.77,-161.01 369.77,-150.86 369.77,-141.99"/>
<polygon fill="midnightblue" stroke="midnightblue" points="373.27,-141.75 369.77,-131.75 366.27,-141.75 373.27,-141.75"/>
</g>
<!-- Node21 -->
<g id="node21" class="node">
<title>Node21</title>
<g id="a_node21"><a xlink:href="utilities_8hpp.html" target="_top" xlink:title=" ">
<polygon fill="none" stroke="black" points="236.77,-112.5 236.77,-131.5 310.77,-131.5 310.77,-112.5 236.77,-112.5"/>
<text text-anchor="middle" x="273.77" y="-119.5" font-family="Helvetica,sans-Serif" font-size="10.00">utilities.hpp</text>
</a>
</g>
</g>
<!-- Node18&#45;&gt;Node21 -->
<g id="edge26" class="edge">
<title>Node18&#45;&gt;Node21</title>
<path fill="none" stroke="midnightblue" d="M354.35,-168.32C339.23,-159.82 315.96,-146.73 298.3,-136.8"/>
<polygon fill="midnightblue" stroke="midnightblue" points="299.59,-133.51 289.16,-131.65 296.16,-139.61 299.59,-133.51"/>
</g>
<!-- Node23 -->
<g id="node23" class="node">
<title>Node23</title>
<g id="a_node23"><a xlink:title=" ">
<polygon fill="none" stroke="#bfbfbf" points="161.77,-56.5 161.77,-75.5 217.77,-75.5 217.77,-56.5 161.77,-56.5"/>
<text text-anchor="middle" x="189.77" y="-63.5" font-family="Helvetica,sans-Serif" font-size="10.00">sstream</text>
</a>
</g>
</g>
<!-- Node18&#45;&gt;Node23 -->
<g id="edge35" class="edge">
<title>Node18&#45;&gt;Node23</title>
<path fill="none" stroke="midnightblue" d="M311.25,-168.48C283.64,-162.1 251.61,-151.05 227.77,-132 212.49,-119.78 202.09,-99.63 196.08,-85"/>
<polygon fill="midnightblue" stroke="midnightblue" points="199.3,-83.62 192.48,-75.52 192.76,-86.11 199.3,-83.62"/>
</g>
<!-- Node19&#45;&gt;Node3 -->
<g id="edge23" class="edge">
<title>Node19&#45;&gt;Node3</title>
<path fill="none" stroke="midnightblue" d="M410.48,-112.8C457.29,-103.37 534.26,-87.86 585.47,-77.54"/>
<polygon fill="midnightblue" stroke="midnightblue" points="586.24,-80.95 595.36,-75.55 584.86,-74.09 586.24,-80.95"/>
</g>
<!-- Node19&#45;&gt;Node17 -->
<g id="edge24" class="edge">
<title>Node19&#45;&gt;Node17</title>
<path fill="none" stroke="midnightblue" d="M381.34,-112.32C392.19,-104.18 408.65,-91.84 421.66,-82.09"/>
<polygon fill="midnightblue" stroke="midnightblue" points="424.09,-84.63 429.99,-75.83 419.89,-79.03 424.09,-84.63"/>
</g>
<!-- Node20 -->
<g id="node20" class="node">
<title>Node20</title>
<g id="a_node20"><a xlink:title=" ">
<polygon fill="none" stroke="#bfbfbf" points="335.77,-56.5 335.77,-75.5 399.77,-75.5 399.77,-56.5 335.77,-56.5"/>
<text text-anchor="middle" x="367.77" y="-63.5" font-family="Helvetica,sans-Serif" font-size="10.00">algorithm</text>
</a>
</g>
</g>
<!-- Node19&#45;&gt;Node20 -->
<g id="edge25" class="edge">
<title>Node19&#45;&gt;Node20</title>
<path fill="none" stroke="midnightblue" d="M369.44,-112.08C369.18,-105.01 368.8,-94.86 368.48,-85.99"/>
<polygon fill="midnightblue" stroke="midnightblue" points="371.96,-85.61 368.1,-75.75 364.97,-85.87 371.96,-85.61"/>
</g>
<!-- Node21&#45;&gt;Node10 -->
<g id="edge30" class="edge">
<title>Node21&#45;&gt;Node10</title>
<path fill="none" stroke="midnightblue" d="M270.93,-112.16C267.27,-99.64 261.73,-76.05 264.77,-56 266.14,-47 268.96,-37.33 271.72,-29.26"/>
<polygon fill="midnightblue" stroke="midnightblue" points="275.04,-30.37 275.17,-19.78 268.46,-27.98 275.04,-30.37"/>
</g>
<!-- Node21&#45;&gt;Node14 -->
<g id="edge27" class="edge">
<title>Node21&#45;&gt;Node14</title>
<path fill="none" stroke="midnightblue" d="M239.7,-112.44C202.59,-103.12 143.11,-88.18 102.56,-78"/>
<polygon fill="midnightblue" stroke="midnightblue" points="103.23,-74.56 92.68,-75.52 101.53,-81.35 103.23,-74.56"/>
</g>
<!-- Node21&#45;&gt;Node17 -->
<g id="edge32" class="edge">
<title>Node21&#45;&gt;Node17</title>
<path fill="none" stroke="midnightblue" d="M300.39,-112.44C329.7,-103.02 376.85,-87.87 408.55,-77.68"/>
<polygon fill="midnightblue" stroke="midnightblue" points="409.81,-80.95 418.26,-74.56 407.67,-74.29 409.81,-80.95"/>
</g>
<!-- Node21&#45;&gt;Node20 -->
<g id="edge28" class="edge">
<title>Node21&#45;&gt;Node20</title>
<path fill="none" stroke="midnightblue" d="M288.87,-112.32C303.68,-103.82 326.47,-90.73 343.75,-80.8"/>
<polygon fill="midnightblue" stroke="midnightblue" points="345.78,-83.67 352.71,-75.65 342.29,-77.6 345.78,-83.67"/>
</g>
<!-- Node22 -->
<g id="node22" class="node">
<title>Node22</title>
<g id="a_node22"><a xlink:title=" ">
<polygon fill="none" stroke="#bfbfbf" points="273.77,-56.5 273.77,-75.5 317.77,-75.5 317.77,-56.5 273.77,-56.5"/>
<text text-anchor="middle" x="295.77" y="-63.5" font-family="Helvetica,sans-Serif" font-size="10.00">ctime</text>
</a>
</g>
</g>
<!-- Node21&#45;&gt;Node22 -->
<g id="edge29" class="edge">
<title>Node21&#45;&gt;Node22</title>
<path fill="none" stroke="midnightblue" d="M277.4,-112.08C280.38,-104.77 284.7,-94.18 288.4,-85.1"/>
<polygon fill="midnightblue" stroke="midnightblue" points="291.68,-86.33 292.21,-75.75 285.19,-83.69 291.68,-86.33"/>
</g>
<!-- Node21&#45;&gt;Node23 -->
<g id="edge31" class="edge">
<title>Node21&#45;&gt;Node23</title>
<path fill="none" stroke="midnightblue" d="M260.28,-112.32C247.17,-103.9 227.06,-90.97 211.67,-81.07"/>
<polygon fill="midnightblue" stroke="midnightblue" points="213.54,-78.12 203.23,-75.65 209.75,-84.01 213.54,-78.12"/>
</g>
</g>
</svg>
        <g id="navigator" transform="translate(0 0)" fill="#404254">
                <rect fill="#f2f5e9" fill-opacity="0.5" stroke="#606060" stroke-width=".5" x="0" y="0" width="60" height="60"/>
                <use id="zoomplus" xlink:href="#zoomPlus" x="17" y="9" onmousedown="handleZoom(evt,'in')"/>
                <use id="zoomminus" xlink:href="#zoomMin" x="42" y="9" onmousedown="handleZoom(evt,'out')"/>
                <use id="reset" xlink:href="#resetDef" x="30" y="36" onmousedown="handleReset()"/>
                <g id="arrowUp" xlink:href="#dirArrow" transform="translate(30 24)" onmousedown="handlePan(0,-1)">
                  <use xlink:href="#rim" fill="#404040">
                        <set attributeName="fill" to="#808080" begin="arrowUp.mouseover" end="arrowUp.mouseout"/>
                  </use>
                  <path fill="none" stroke="white" stroke-width="1.5" d="M0,-3.0v7 M-2.5,-0.5L0,-3.0L2.5,-0.5"/>
                </g>
                <g id="arrowRight" xlink:href="#dirArrow" transform="rotate(90) translate(36 -43)" onmousedown="handlePan(1,0)">
                  <use xlink:href="#rim" fill="#404040">
                        <set attributeName="fill" to="#808080" begin="arrowRight.mouseover" end="arrowRight.mouseout"/>
                  </use>
                  <path fill="none" stroke="white" stroke-width="1.5" d="M0,-3.0v7 M-2.5,-0.5L0,-3.0L2.5,-0.5"/>
                </g>
                <g id="arrowDown" xlink:href="#dirArrow" transform="rotate(180) translate(-30 -48)" onmousedown="handlePan(0,1)">
                  <use xlink:href="#rim" fill="#404040">
                        <set attributeName="fill" to="#808080" begin="arrowDown.mouseover" end="arrowDown.mouseout"/>
                  </use>
                  <path fill="none" stroke="white" stroke-width="1.5" d="M0,-3.0v7 M-2.5,-0.5L0,-3.0L2.5,-0.5"/>
                </g>
                <g id="arrowLeft" xlink:href="#dirArrow" transform="rotate(270) translate(-36 17)" onmousedown="handlePan(-1,0)">
                  <use xlink:href="#rim" fill="#404040">
                        <set attributeName="fill" to="#808080" begin="arrowLeft.mouseover" end="arrowLeft.mouseout"/>
                  </use>
                  <path fill="none" stroke="white" stroke-width="1.5" d="M0,-3.0v7 M-2.5,-0.5L0,-3.0L2.5,-0.5"/>
                </g>
        </g>
        <svg viewBox="0 0 15 15" width="100%" height="30px" preserveAspectRatio="xMaxYMin meet">
         <g id="arrow_out" transform="scale(0.3 0.3)">
          <a xlink:href="_response_body_handler_8cpp__incl_org.svg" target="_base">
           <rect id="button" ry="5" rx="5" y="6" x="6" height="38" width="38"
                fill="#f2f5e9" fill-opacity="0.5" stroke="#606060" stroke-width="1.0"/>
           <path id="arrow"
             d="M 11.500037,31.436501 C 11.940474,20.09759 22.043105,11.32322 32.158766,21.979434 L 37.068811,17.246167 C 37.068811,17.246167 37.088388,32 37.088388,32 L 22.160133,31.978069 C 22.160133,31.978069 26.997745,27.140456 26.997745,27.140456 C 18.528582,18.264221 13.291696,25.230495 11.500037,31.436501 z"
             style="fill:#404040;"/>
          </a>
         </g>
        </svg>
</svg>
