<?xml version="1.0" encoding="UTF-8" standalone="no"?>
<!DOCTYPE svg PUBLIC "-//W3C//DTD SVG 1.1//EN"
 "http://www.w3.org/Graphics/SVG/1.1/DTD/svg11.dtd">
<!-- Generated by graphviz version 2.43.0 (0)
 -->
<!-- Title: inc/ResponseBodyHandler.hpp Pages: 1 -->
<!--zoomable 252 -->
<svg id="main" version="1.1" xmlns="http://www.w3.org/2000/svg" xmlns:xlink="http://www.w3.org/1999/xlink" xml:space="preserve" onload="init(evt)">
<style type="text/css"><![CDATA[
.edge:hover path { stroke: red; }
.edge:hover polygon { stroke: red; fill: red; }
]]></style>
<script type="text/javascript"><![CDATA[
var edges = document.getElementsByTagName('g');
if (edges && edges.length) {
  for (var i=0;i<edges.length;i++) {
    if (edges[i].id.substr(0,4)=='edge') {
      edges[i].setAttribute('class','edge');
    }
  }
}
]]></script>
        <defs>
                <circle id="rim" cx="0" cy="0" r="7"/>
                <circle id="rim2" cx="0" cy="0" r="3.5"/>
                <g id="zoomPlus">
                        <use xlink:href="#rim" fill="#404040">
                                <set attributeName="fill" to="#808080" begin="zoomplus.mouseover" end="zoomplus.mouseout"/>
                        </use>
                        <path d="M-4,0h8M0,-4v8" fill="none" stroke="white" stroke-width="1.5" pointer-events="none"/>
                </g>
                <g id="zoomMin">
                        <use xlink:href="#rim" fill="#404040">
                                <set attributeName="fill" to="#808080" begin="zoomminus.mouseover" end="zoomminus.mouseout"/>
                        </use>
                        <path d="M-4,0h8" fill="none" stroke="white" stroke-width="1.5" pointer-events="none"/>
                </g>
                <g id="dirArrow">
                        <path fill="none" stroke="white" stroke-width="1.5" d="M0,-3.0v7 M-2.5,-0.5L0,-3.0L2.5,-0.5"/>
                </g>
               <g id="resetDef">
                       <use xlink:href="#rim2" fill="#404040">
                               <set attributeName="fill" to="#808080" begin="reset.mouseover" end="reset.mouseout"/>
                       </use>
               </g>
        </defs>

<script type="text/javascript">
var viewWidth = 967;
var viewHeight = 252;
var sectionId = 'dynsection-0';
</script>
<script xlink:href="svgpan.js"/>
<svg id="graph" class="graph">
<g id="viewport">
<title>inc/ResponseBodyHandler.hpp</title>
<!-- Node1 -->
<g id="node1" class="node">
<title>Node1</title>
<g id="a_node1"><a xlink:title=" ">
<polygon fill="#bfbfbf" stroke="black" points="374,-224.5 374,-243.5 538,-243.5 538,-224.5 374,-224.5"/>
<text text-anchor="middle" x="456" y="-231.5" font-family="Helvetica,sans-Serif" font-size="10.00">inc/ResponseBodyHandler.hpp</text>
</a>
</g>
</g>
<!-- Node2 -->
<g id="node2" class="node">
<title>Node2</title>
<g id="a_node2"><a xlink:href="_file_system_policy_8hpp.html" target="_top" xlink:title=" ">
<polygon fill="none" stroke="black" points="616.5,-56.5 616.5,-75.5 735.5,-75.5 735.5,-56.5 616.5,-56.5"/>
<text text-anchor="middle" x="676" y="-63.5" font-family="Helvetica,sans-Serif" font-size="10.00">FileSystemPolicy.hpp</text>
</a>
</g>
</g>
<!-- Node1&#45;&gt;Node2 -->
<g id="edge1" class="edge">
<title>Node1&#45;&gt;Node2</title>
<path fill="none" stroke="midnightblue" d="M476.43,-224.46C510.72,-209.44 580.82,-175.69 629,-132 644.25,-118.17 657.57,-98.63 666.09,-84.59"/>
<polygon fill="midnightblue" stroke="midnightblue" points="669.16,-86.28 671.2,-75.89 663.12,-82.74 669.16,-86.28"/>
</g>
<!-- Node12 -->
<g id="node12" class="node">
<title>Node12</title>
<g id="a_node12"><a xlink:href="_h_t_t_p_response_8hpp.html" target="_top" xlink:title=" ">
<polygon fill="none" stroke="black" points="94,-168.5 94,-187.5 204,-187.5 204,-168.5 94,-168.5"/>
<text text-anchor="middle" x="149" y="-175.5" font-family="Helvetica,sans-Serif" font-size="10.00">HTTPResponse.hpp</text>
</a>
</g>
</g>
<!-- Node1&#45;&gt;Node12 -->
<g id="edge11" class="edge">
<title>Node1&#45;&gt;Node12</title>
<path fill="none" stroke="midnightblue" d="M407.35,-224.44C353.13,-214.9 265.45,-199.48 207.52,-189.29"/>
<polygon fill="midnightblue" stroke="midnightblue" points="207.87,-185.8 197.42,-187.52 206.66,-192.7 207.87,-185.8"/>
</g>
<!-- Node13 -->
<g id="node13" class="node">
<title>Node13</title>
<g id="a_node13"><a xlink:href="_status_code_8hpp.html" target="_top" xlink:title=" ">
<polygon fill="none" stroke="black" points="50.5,-56.5 50.5,-75.5 143.5,-75.5 143.5,-56.5 50.5,-56.5"/>
<text text-anchor="middle" x="97" y="-63.5" font-family="Helvetica,sans-Serif" font-size="10.00">StatusCode.hpp</text>
</a>
</g>
</g>
<!-- Node1&#45;&gt;Node13 -->
<g id="edge36" class="edge">
<title>Node1&#45;&gt;Node13</title>
<path fill="none" stroke="midnightblue" d="M373.73,-228.72C270.28,-222.47 103.82,-209.25 85,-188 59.66,-159.41 76.15,-110.77 87.98,-84.72"/>
<polygon fill="midnightblue" stroke="midnightblue" points="91.17,-86.17 92.34,-75.64 84.86,-83.14 91.17,-86.17"/>
</g>
<!-- Node17 -->
<g id="node17" class="node">
<title>Node17</title>
<g id="a_node17"><a xlink:href="_autoindex_handler_8hpp.html" target="_top" xlink:title=" ">
<polygon fill="none" stroke="black" points="393.5,-168.5 393.5,-187.5 518.5,-187.5 518.5,-168.5 393.5,-168.5"/>
<text text-anchor="middle" x="456" y="-175.5" font-family="Helvetica,sans-Serif" font-size="10.00">AutoindexHandler.hpp</text>
</a>
</g>
</g>
<!-- Node1&#45;&gt;Node17 -->
<g id="edge19" class="edge">
<title>Node1&#45;&gt;Node17</title>
<path fill="none" stroke="midnightblue" d="M456,-224.08C456,-217.01 456,-206.86 456,-197.99"/>
<polygon fill="midnightblue" stroke="midnightblue" points="459.5,-197.75 456,-187.75 452.5,-197.75 459.5,-197.75"/>
</g>
<!-- Node23 -->
<g id="node23" class="node">
<title>Node23</title>
<g id="a_node23"><a xlink:title=" ">
<polygon fill="none" stroke="#bfbfbf" points="692.5,-168.5 692.5,-187.5 757.5,-187.5 757.5,-168.5 692.5,-168.5"/>
<text text-anchor="middle" x="725" y="-175.5" font-family="Helvetica,sans-Serif" font-size="10.00">exception</text>
</a>
</g>
</g>
<!-- Node1&#45;&gt;Node23 -->
<g id="edge37" class="edge">
<title>Node1&#45;&gt;Node23</title>
<path fill="none" stroke="midnightblue" d="M498.62,-224.44C548.93,-214.34 632.1,-197.65 682.4,-187.55"/>
<polygon fill="midnightblue" stroke="midnightblue" points="683.19,-190.96 692.31,-185.56 681.81,-184.1 683.19,-190.96"/>
</g>
<!-- Node3 -->
<g id="node3" class="node">
<title>Node3</title>
<g id="a_node3"><a xlink:title=" ">
<polygon fill="none" stroke="#bfbfbf" points="0,-0.5 0,-19.5 44,-19.5 44,-0.5 0,-0.5"/>
<text text-anchor="middle" x="22" y="-7.5" font-family="Helvetica,sans-Serif" font-size="10.00">string</text>
</a>
</g>
</g>
<!-- Node2&#45;&gt;Node3 -->
<g id="edge2" class="edge">
<title>Node2&#45;&gt;Node3</title>
<path fill="none" stroke="midnightblue" d="M616.29,-59.96C600.89,-58.66 584.33,-57.28 569,-56 373.44,-39.73 138.53,-20.52 54.13,-13.62"/>
<polygon fill="midnightblue" stroke="midnightblue" points="54.4,-10.13 44.15,-12.81 53.83,-17.11 54.4,-10.13"/>
</g>
<!-- Node4 -->
<g id="node4" class="node">
<title>Node4</title>
<g id="a_node4"><a xlink:title=" ">
<polygon fill="none" stroke="#bfbfbf" points="761.5,-0.5 761.5,-19.5 808.5,-19.5 808.5,-0.5 761.5,-0.5"/>
<text text-anchor="middle" x="785" y="-7.5" font-family="Helvetica,sans-Serif" font-size="10.00">cerrno</text>
</a>
</g>
</g>
<!-- Node2&#45;&gt;Node4 -->
<g id="edge3" class="edge">
<title>Node2&#45;&gt;Node4</title>
<path fill="none" stroke="midnightblue" d="M693.51,-56.32C711.07,-47.62 738.33,-34.12 758.53,-24.11"/>
<polygon fill="midnightblue" stroke="midnightblue" points="760.12,-27.23 767.53,-19.65 757.02,-20.96 760.12,-27.23"/>
</g>
<!-- Node5 -->
<g id="node5" class="node">
<title>Node5</title>
<g id="a_node5"><a xlink:title=" ">
<polygon fill="none" stroke="#bfbfbf" points="827,-0.5 827,-19.5 877,-19.5 877,-0.5 827,-0.5"/>
<text text-anchor="middle" x="852" y="-7.5" font-family="Helvetica,sans-Serif" font-size="10.00">cstring</text>
</a>
</g>
</g>
<!-- Node2&#45;&gt;Node5 -->
<g id="edge4" class="edge">
<title>Node2&#45;&gt;Node5</title>
<path fill="none" stroke="midnightblue" d="M703.89,-56.44C734.54,-47.04 783.84,-31.91 817.06,-21.72"/>
<polygon fill="midnightblue" stroke="midnightblue" points="818.28,-25.01 826.81,-18.73 816.22,-18.32 818.28,-25.01"/>
</g>
<!-- Node6 -->
<g id="node6" class="node">
<title>Node6</title>
<g id="a_node6"><a xlink:title=" ">
<polygon fill="none" stroke="#bfbfbf" points="895,-0.5 895,-19.5 959,-19.5 959,-0.5 895,-0.5"/>
<text text-anchor="middle" x="927" y="-7.5" font-family="Helvetica,sans-Serif" font-size="10.00">sys/stat.h</text>
</a>
</g>
</g>
<!-- Node2&#45;&gt;Node6 -->
<g id="edge5" class="edge">
<title>Node2&#45;&gt;Node6</title>
<path fill="none" stroke="midnightblue" d="M716.27,-56.43C756.49,-47.86 820.35,-34.22 884.84,-20.24"/>
<polygon fill="midnightblue" stroke="midnightblue" points="885.74,-23.63 894.77,-18.09 884.26,-16.79 885.74,-23.63"/>
</g>
<!-- Node7 -->
<g id="node7" class="node">
<title>Node7</title>
<g id="a_node7"><a xlink:title=" ">
<polygon fill="none" stroke="#bfbfbf" points="525.5,-0.5 525.5,-19.5 580.5,-19.5 580.5,-0.5 525.5,-0.5"/>
<text text-anchor="middle" x="553" y="-7.5" font-family="Helvetica,sans-Serif" font-size="10.00">fstream</text>
</a>
</g>
</g>
<!-- Node2&#45;&gt;Node7 -->
<g id="edge6" class="edge">
<title>Node2&#45;&gt;Node7</title>
<path fill="none" stroke="midnightblue" d="M656.51,-56.44C636.36,-47.6 604.68,-33.69 581.67,-23.59"/>
<polygon fill="midnightblue" stroke="midnightblue" points="582.96,-20.33 572.4,-19.52 580.15,-26.74 582.96,-20.33"/>
</g>
<!-- Node8 -->
<g id="node8" class="node">
<title>Node8</title>
<g id="a_node8"><a xlink:title=" ">
<polygon fill="none" stroke="#bfbfbf" points="442.5,-0.5 442.5,-19.5 507.5,-19.5 507.5,-0.5 442.5,-0.5"/>
<text text-anchor="middle" x="475" y="-7.5" font-family="Helvetica,sans-Serif" font-size="10.00">stdexcept</text>
</a>
</g>
</g>
<!-- Node2&#45;&gt;Node8 -->
<g id="edge7" class="edge">
<title>Node2&#45;&gt;Node8</title>
<path fill="none" stroke="midnightblue" d="M644.15,-56.44C609.6,-47.16 554.32,-32.31 516.42,-22.13"/>
<polygon fill="midnightblue" stroke="midnightblue" points="517.27,-18.73 506.7,-19.52 515.45,-25.49 517.27,-18.73"/>
</g>
<!-- Node9 -->
<g id="node9" class="node">
<title>Node9</title>
<g id="a_node9"><a xlink:title=" ">
<polygon fill="none" stroke="#bfbfbf" points="250,-0.5 250,-19.5 310,-19.5 310,-0.5 250,-0.5"/>
<text text-anchor="middle" x="280" y="-7.5" font-family="Helvetica,sans-Serif" font-size="10.00">iostream</text>
</a>
</g>
</g>
<!-- Node2&#45;&gt;Node9 -->
<g id="edge8" class="edge">
<title>Node2&#45;&gt;Node9</title>
<path fill="none" stroke="midnightblue" d="M616.29,-56.86C534.7,-45.73 390.53,-26.07 320.48,-16.52"/>
<polygon fill="midnightblue" stroke="midnightblue" points="320.67,-13.01 310.29,-15.13 319.73,-19.95 320.67,-13.01"/>
</g>
<!-- Node10 -->
<g id="node10" class="node">
<title>Node10</title>
<g id="a_node10"><a xlink:title=" ">
<polygon fill="none" stroke="#bfbfbf" points="599,-0.5 599,-19.5 671,-19.5 671,-0.5 599,-0.5"/>
<text text-anchor="middle" x="635" y="-7.5" font-family="Helvetica,sans-Serif" font-size="10.00">sys/types.h</text>
</a>
</g>
</g>
<!-- Node2&#45;&gt;Node10 -->
<g id="edge9" class="edge">
<title>Node2&#45;&gt;Node10</title>
<path fill="none" stroke="midnightblue" d="M669.23,-56.08C663.44,-48.46 654.94,-37.26 647.86,-27.94"/>
<polygon fill="midnightblue" stroke="midnightblue" points="650.48,-25.6 641.64,-19.75 644.9,-29.83 650.48,-25.6"/>
</g>
<!-- Node11 -->
<g id="node11" class="node">
<title>Node11</title>
<g id="a_node11"><a xlink:title=" ">
<polygon fill="none" stroke="#bfbfbf" points="689,-0.5 689,-19.5 743,-19.5 743,-0.5 689,-0.5"/>
<text text-anchor="middle" x="716" y="-7.5" font-family="Helvetica,sans-Serif" font-size="10.00">dirent.h</text>
</a>
</g>
</g>
<!-- Node2&#45;&gt;Node11 -->
<g id="edge10" class="edge">
<title>Node2&#45;&gt;Node11</title>
<path fill="none" stroke="midnightblue" d="M682.61,-56.08C688.26,-48.46 696.54,-37.26 703.45,-27.94"/>
<polygon fill="midnightblue" stroke="midnightblue" points="706.38,-29.87 709.52,-19.75 700.75,-25.7 706.38,-29.87"/>
</g>
<!-- Node12&#45;&gt;Node3 -->
<g id="edge14" class="edge">
<title>Node12&#45;&gt;Node3</title>
<path fill="none" stroke="midnightblue" d="M117.66,-168.41C95.85,-161.28 67.01,-149.46 46,-132 22.86,-112.78 16.83,-104.75 8,-76 3.18,-60.33 8.02,-42.04 13.28,-28.86"/>
<polygon fill="midnightblue" stroke="midnightblue" points="16.56,-30.09 17.42,-19.53 10.16,-27.26 16.56,-30.09"/>
</g>
<!-- Node12&#45;&gt;Node13 -->
<g id="edge12" class="edge">
<title>Node12&#45;&gt;Node13</title>
<path fill="none" stroke="midnightblue" d="M144.92,-168.37C136.45,-150.46 116.82,-108.92 105.48,-84.95"/>
<polygon fill="midnightblue" stroke="midnightblue" points="108.5,-83.14 101.06,-75.59 102.17,-86.13 108.5,-83.14"/>
</g>
<!-- Node14 -->
<g id="node14" class="node">
<title>Node14</title>
<g id="a_node14"><a xlink:href="_config_file_8hpp.html" target="_top" xlink:title=" ">
<polygon fill="none" stroke="black" points="162,-112.5 162,-131.5 248,-131.5 248,-112.5 162,-112.5"/>
<text text-anchor="middle" x="205" y="-119.5" font-family="Helvetica,sans-Serif" font-size="10.00">ConfigFile.hpp</text>
</a>
</g>
</g>
<!-- Node12&#45;&gt;Node14 -->
<g id="edge15" class="edge">
<title>Node12&#45;&gt;Node14</title>
<path fill="none" stroke="midnightblue" d="M158,-168.32C166.19,-160.42 178.51,-148.55 188.47,-138.94"/>
<polygon fill="midnightblue" stroke="midnightblue" points="191.07,-141.29 195.84,-131.83 186.21,-136.26 191.07,-141.29"/>
</g>
<!-- Node13&#45;&gt;Node9 -->
<g id="edge13" class="edge">
<title>Node13&#45;&gt;Node9</title>
<path fill="none" stroke="midnightblue" d="M126,-56.44C157.18,-47.24 206.93,-32.56 241.41,-22.39"/>
<polygon fill="midnightblue" stroke="midnightblue" points="242.54,-25.7 251.14,-19.52 240.56,-18.99 242.54,-25.7"/>
</g>
<!-- Node14&#45;&gt;Node9 -->
<g id="edge16" class="edge">
<title>Node14&#45;&gt;Node9</title>
<path fill="none" stroke="midnightblue" d="M210.75,-112.11C218.91,-99.53 234.38,-75.86 248,-56 254.45,-46.6 261.82,-36.21 267.86,-27.79"/>
<polygon fill="midnightblue" stroke="midnightblue" points="270.78,-29.73 273.78,-19.57 265.1,-25.64 270.78,-29.73"/>
</g>
<!-- Node15 -->
<g id="node15" class="node">
<title>Node15</title>
<g id="a_node15"><a xlink:title=" ">
<polygon fill="none" stroke="#bfbfbf" points="162,-56.5 162,-75.5 200,-75.5 200,-56.5 162,-56.5"/>
<text text-anchor="middle" x="181" y="-63.5" font-family="Helvetica,sans-Serif" font-size="10.00">map</text>
</a>
</g>
</g>
<!-- Node14&#45;&gt;Node15 -->
<g id="edge17" class="edge">
<title>Node14&#45;&gt;Node15</title>
<path fill="none" stroke="midnightblue" d="M201.04,-112.08C197.79,-104.77 193.08,-94.18 189.05,-85.1"/>
<polygon fill="midnightblue" stroke="midnightblue" points="192.15,-83.47 184.89,-75.75 185.75,-86.31 192.15,-83.47"/>
</g>
<!-- Node16 -->
<g id="node16" class="node">
<title>Node16</title>
<g id="a_node16"><a xlink:title=" ">
<polygon fill="none" stroke="#bfbfbf" points="256.5,-56.5 256.5,-75.5 303.5,-75.5 303.5,-56.5 256.5,-56.5"/>
<text text-anchor="middle" x="280" y="-63.5" font-family="Helvetica,sans-Serif" font-size="10.00">vector</text>
</a>
</g>
</g>
<!-- Node14&#45;&gt;Node16 -->
<g id="edge18" class="edge">
<title>Node14&#45;&gt;Node16</title>
<path fill="none" stroke="midnightblue" d="M217.05,-112.32C228.46,-104.11 245.83,-91.6 259.43,-81.81"/>
<polygon fill="midnightblue" stroke="midnightblue" points="261.66,-84.52 267.73,-75.83 257.57,-78.84 261.66,-84.52"/>
</g>
<!-- Node17&#45;&gt;Node2 -->
<g id="edge20" class="edge">
<title>Node17&#45;&gt;Node2</title>
<path fill="none" stroke="midnightblue" d="M500.43,-168.44C530.41,-161.46 570.17,-149.8 602,-132 625.17,-119.04 647.45,-97.9 661.4,-83.26"/>
<polygon fill="midnightblue" stroke="midnightblue" points="664.01,-85.6 668.25,-75.89 658.88,-80.83 664.01,-85.6"/>
</g>
<!-- Node17&#45;&gt;Node3 -->
<g id="edge32" class="edge">
<title>Node17&#45;&gt;Node3</title>
<path fill="none" stroke="midnightblue" d="M393.47,-173.55C331.27,-168.78 233.72,-157.62 153,-132 100.33,-115.28 77.64,-118.23 42,-76 30.94,-62.9 26,-43.75 23.78,-29.63"/>
<polygon fill="midnightblue" stroke="midnightblue" points="27.24,-29.08 22.53,-19.59 20.3,-29.95 27.24,-29.08"/>
</g>
<!-- Node17&#45;&gt;Node8 -->
<g id="edge35" class="edge">
<title>Node17&#45;&gt;Node8</title>
<path fill="none" stroke="midnightblue" d="M474.03,-168.38C501.72,-153.91 553.17,-121.76 569,-76 571.91,-67.6 573.74,-63.52 569,-56 557.53,-37.8 536.44,-26.79 517.13,-20.23"/>
<polygon fill="midnightblue" stroke="midnightblue" points="518.14,-16.88 507.56,-17.27 516.08,-23.57 518.14,-16.88"/>
</g>
<!-- Node17&#45;&gt;Node16 -->
<g id="edge33" class="edge">
<title>Node17&#45;&gt;Node16</title>
<path fill="none" stroke="midnightblue" d="M394.96,-168.48C367.76,-162.13 336.79,-151.11 314,-132 299.54,-119.87 290.42,-100 285.31,-85.41"/>
<polygon fill="midnightblue" stroke="midnightblue" points="288.53,-83.98 282.17,-75.51 281.86,-86.1 288.53,-83.98"/>
</g>
<!-- Node18 -->
<g id="node18" class="node">
<title>Node18</title>
<g id="a_node18"><a xlink:href="_directory_8hpp.html" target="_top" xlink:title=" ">
<polygon fill="none" stroke="black" points="415.5,-112.5 415.5,-131.5 496.5,-131.5 496.5,-112.5 415.5,-112.5"/>
<text text-anchor="middle" x="456" y="-119.5" font-family="Helvetica,sans-Serif" font-size="10.00">Directory.hpp</text>
</a>
</g>
</g>
<!-- Node17&#45;&gt;Node18 -->
<g id="edge21" class="edge">
<title>Node17&#45;&gt;Node18</title>
<path fill="none" stroke="midnightblue" d="M456,-168.08C456,-161.01 456,-150.86 456,-141.99"/>
<polygon fill="midnightblue" stroke="midnightblue" points="459.5,-141.75 456,-131.75 452.5,-141.75 459.5,-141.75"/>
</g>
<!-- Node20 -->
<g id="node20" class="node">
<title>Node20</title>
<g id="a_node20"><a xlink:href="utilities_8hpp.html" target="_top" xlink:title=" ">
<polygon fill="none" stroke="black" points="323,-112.5 323,-131.5 397,-131.5 397,-112.5 323,-112.5"/>
<text text-anchor="middle" x="360" y="-119.5" font-family="Helvetica,sans-Serif" font-size="10.00">utilities.hpp</text>
</a>
</g>
</g>
<!-- Node17&#45;&gt;Node20 -->
<g id="edge25" class="edge">
<title>Node17&#45;&gt;Node20</title>
<path fill="none" stroke="midnightblue" d="M440.58,-168.32C425.46,-159.82 402.18,-146.73 384.53,-136.8"/>
<polygon fill="midnightblue" stroke="midnightblue" points="385.82,-133.51 375.39,-131.65 382.39,-139.61 385.82,-133.51"/>
</g>
<!-- Node21 -->
<g id="node21" class="node">
<title>Node21</title>
<g id="a_node21"><a xlink:title=" ">
<polygon fill="none" stroke="#bfbfbf" points="504,-56.5 504,-75.5 560,-75.5 560,-56.5 504,-56.5"/>
<text text-anchor="middle" x="532" y="-63.5" font-family="Helvetica,sans-Serif" font-size="10.00">sstream</text>
</a>
</g>
</g>
<!-- Node17&#45;&gt;Node21 -->
<g id="edge34" class="edge">
<title>Node17&#45;&gt;Node21</title>
<path fill="none" stroke="midnightblue" d="M468.59,-168.29C479.7,-160.04 495.71,-146.75 506,-132 515.99,-117.69 522.95,-98.98 527.14,-85.31"/>
<polygon fill="midnightblue" stroke="midnightblue" points="530.53,-86.18 529.91,-75.61 523.8,-84.26 530.53,-86.18"/>
</g>
<!-- Node18&#45;&gt;Node2 -->
<g id="edge22" class="edge">
<title>Node18&#45;&gt;Node2</title>
<path fill="none" stroke="midnightblue" d="M490.86,-112.44C528.92,-103.1 589.96,-88.12 631.46,-77.93"/>
<polygon fill="midnightblue" stroke="midnightblue" points="632.43,-81.3 641.3,-75.52 630.76,-74.5 632.43,-81.3"/>
</g>
<!-- Node18&#45;&gt;Node16 -->
<g id="edge23" class="edge">
<title>Node18&#45;&gt;Node16</title>
<path fill="none" stroke="midnightblue" d="M428.11,-112.44C396.93,-102.88 346.45,-87.39 313.24,-77.2"/>
<polygon fill="midnightblue" stroke="midnightblue" points="314.12,-73.81 303.53,-74.22 312.07,-80.5 314.12,-73.81"/>
</g>
<!-- Node19 -->
<g id="node19" class="node">
<title>Node19</title>
<g id="a_node19"><a xlink:title=" ">
<polygon fill="none" stroke="#bfbfbf" points="422,-56.5 422,-75.5 486,-75.5 486,-56.5 422,-56.5"/>
<text text-anchor="middle" x="454" y="-63.5" font-family="Helvetica,sans-Serif" font-size="10.00">algorithm</text>
</a>
</g>
</g>
<!-- Node18&#45;&gt;Node19 -->
<g id="edge24" class="edge">
<title>Node18&#45;&gt;Node19</title>
<path fill="none" stroke="midnightblue" d="M455.67,-112.08C455.41,-105.01 455.03,-94.86 454.7,-85.99"/>
<polygon fill="midnightblue" stroke="midnightblue" points="458.19,-85.61 454.32,-75.75 451.2,-85.87 458.19,-85.61"/>
</g>
<!-- Node20&#45;&gt;Node9 -->
<g id="edge27" class="edge">
<title>Node20&#45;&gt;Node9</title>
<path fill="none" stroke="midnightblue" d="M353.63,-112.16C344.61,-99.64 327.59,-76.04 313,-56 306.22,-46.68 298.61,-36.31 292.41,-27.87"/>
<polygon fill="midnightblue" stroke="midnightblue" points="295.09,-25.6 286.34,-19.61 289.45,-29.74 295.09,-25.6"/>
</g>
<!-- Node20&#45;&gt;Node13 -->
<g id="edge31" class="edge">
<title>Node20&#45;&gt;Node13</title>
<path fill="none" stroke="midnightblue" d="M322.88,-113.38C277.35,-104.03 199.91,-88.13 148.6,-77.6"/>
<polygon fill="midnightblue" stroke="midnightblue" points="149.21,-74.15 138.71,-75.56 147.8,-81 149.21,-74.15"/>
</g>
<!-- Node20&#45;&gt;Node16 -->
<g id="edge29" class="edge">
<title>Node20&#45;&gt;Node16</title>
<path fill="none" stroke="midnightblue" d="M347.15,-112.32C334.78,-103.98 315.87,-91.21 301.26,-81.35"/>
<polygon fill="midnightblue" stroke="midnightblue" points="303.07,-78.35 292.82,-75.65 299.15,-84.15 303.07,-78.35"/>
</g>
<!-- Node20&#45;&gt;Node19 -->
<g id="edge26" class="edge">
<title>Node20&#45;&gt;Node19</title>
<path fill="none" stroke="midnightblue" d="M375.1,-112.32C389.9,-103.82 412.69,-90.73 429.98,-80.8"/>
<polygon fill="midnightblue" stroke="midnightblue" points="432.01,-83.67 438.93,-75.65 428.52,-77.6 432.01,-83.67"/>
</g>
<!-- Node20&#45;&gt;Node21 -->
<g id="edge28" class="edge">
<title>Node20&#45;&gt;Node21</title>
<path fill="none" stroke="midnightblue" d="M387.25,-112.44C416.44,-103.28 462.92,-88.69 495.31,-78.52"/>
<polygon fill="midnightblue" stroke="midnightblue" points="496.38,-81.85 504.87,-75.52 494.28,-75.17 496.38,-81.85"/>
</g>
<!-- Node22 -->
<g id="node22" class="node">
<title>Node22</title>
<g id="a_node22"><a xlink:title=" ">
<polygon fill="none" stroke="#bfbfbf" points="360,-56.5 360,-75.5 404,-75.5 404,-56.5 360,-56.5"/>
<text text-anchor="middle" x="382" y="-63.5" font-family="Helvetica,sans-Serif" font-size="10.00">ctime</text>
</a>
</g>
</g>
<!-- Node20&#45;&gt;Node22 -->
<g id="edge30" class="edge">
<title>Node20&#45;&gt;Node22</title>
<path fill="none" stroke="midnightblue" d="M363.63,-112.08C366.61,-104.77 370.93,-94.18 374.62,-85.1"/>
<polygon fill="midnightblue" stroke="midnightblue" points="377.9,-86.33 378.43,-75.75 371.42,-83.69 377.9,-86.33"/>
</g>
</g>
</svg>
        <g id="navigator" transform="translate(0 0)" fill="#404254">
                <rect fill="#f2f5e9" fill-opacity="0.5" stroke="#606060" stroke-width=".5" x="0" y="0" width="60" height="60"/>
                <use id="zoomplus" xlink:href="#zoomPlus" x="17" y="9" onmousedown="handleZoom(evt,'in')"/>
                <use id="zoomminus" xlink:href="#zoomMin" x="42" y="9" onmousedown="handleZoom(evt,'out')"/>
                <use id="reset" xlink:href="#resetDef" x="30" y="36" onmousedown="handleReset()"/>
                <g id="arrowUp" xlink:href="#dirArrow" transform="translate(30 24)" onmousedown="handlePan(0,-1)">
                  <use xlink:href="#rim" fill="#404040">
                        <set attributeName="fill" to="#808080" begin="arrowUp.mouseover" end="arrowUp.mouseout"/>
                  </use>
                  <path fill="none" stroke="white" stroke-width="1.5" d="M0,-3.0v7 M-2.5,-0.5L0,-3.0L2.5,-0.5"/>
                </g>
                <g id="arrowRight" xlink:href="#dirArrow" transform="rotate(90) translate(36 -43)" onmousedown="handlePan(1,0)">
                  <use xlink:href="#rim" fill="#404040">
                        <set attributeName="fill" to="#808080" begin="arrowRight.mouseover" end="arrowRight.mouseout"/>
                  </use>
                  <path fill="none" stroke="white" stroke-width="1.5" d="M0,-3.0v7 M-2.5,-0.5L0,-3.0L2.5,-0.5"/>
                </g>
                <g id="arrowDown" xlink:href="#dirArrow" transform="rotate(180) translate(-30 -48)" onmousedown="handlePan(0,1)">
                  <use xlink:href="#rim" fill="#404040">
                        <set attributeName="fill" to="#808080" begin="arrowDown.mouseover" end="arrowDown.mouseout"/>
                  </use>
                  <path fill="none" stroke="white" stroke-width="1.5" d="M0,-3.0v7 M-2.5,-0.5L0,-3.0L2.5,-0.5"/>
                </g>
                <g id="arrowLeft" xlink:href="#dirArrow" transform="rotate(270) translate(-36 17)" onmousedown="handlePan(-1,0)">
                  <use xlink:href="#rim" fill="#404040">
                        <set attributeName="fill" to="#808080" begin="arrowLeft.mouseover" end="arrowLeft.mouseout"/>
                  </use>
                  <path fill="none" stroke="white" stroke-width="1.5" d="M0,-3.0v7 M-2.5,-0.5L0,-3.0L2.5,-0.5"/>
                </g>
        </g>
        <svg viewBox="0 0 15 15" width="100%" height="30px" preserveAspectRatio="xMaxYMin meet">
         <g id="arrow_out" transform="scale(0.3 0.3)">
          <a xlink:href="_response_body_handler_8hpp__incl_org.svg" target="_base">
           <rect id="button" ry="5" rx="5" y="6" x="6" height="38" width="38"
                fill="#f2f5e9" fill-opacity="0.5" stroke="#606060" stroke-width="1.0"/>
           <path id="arrow"
             d="M 11.500037,31.436501 C 11.940474,20.09759 22.043105,11.32322 32.158766,21.979434 L 37.068811,17.246167 C 37.068811,17.246167 37.088388,32 37.088388,32 L 22.160133,31.978069 C 22.160133,31.978069 26.997745,27.140456 26.997745,27.140456 C 18.528582,18.264221 13.291696,25.230495 11.500037,31.436501 z"
             style="fill:#404040;"/>
          </a>
         </g>
        </svg>
</svg>
