<?xml version="1.0" encoding="UTF-8" standalone="no"?>
<!DOCTYPE svg PUBLIC "-//W3C//DTD SVG 1.1//EN"
 "http://www.w3.org/Graphics/SVG/1.1/DTD/svg11.dtd">
<!-- Generated by graphviz version 2.43.0 (0)
 -->
<!-- Title: inc/Server.hpp Pages: 1 -->
<svg width="3833pt" height="159pt"
 viewBox="0.00 0.00 3832.50 159.00" xmlns="http://www.w3.org/2000/svg" xmlns:xlink="http://www.w3.org/1999/xlink">
<g id="graph0" class="graph" transform="scale(1 1) rotate(0) translate(4 155)">
<title>inc/Server.hpp</title>
<!-- Node1 -->
<g id="Node000001" class="node">
<title>Node1</title>
<g id="a_Node000001"><a xlink:title=" ">
<polygon fill="#999999" stroke="#666666" points="1940.5,-151 1854.5,-151 1854.5,-132 1940.5,-132 1940.5,-151"/>
<text text-anchor="middle" x="1897.5" y="-139" font-family="Helvetica,sans-Serif" font-size="10.00">inc/Server.hpp</text>
</a>
</g>
</g>
<!-- Node2 -->
<g id="Node000002" class="node">
<title>Node2</title>
<g id="a_Node000002"><a xlink:href="_config_file_parser_8hpp.html" target="_top" xlink:title=" ">
<polygon fill="white" stroke="#666666" points="343.5,-90.5 211.5,-90.5 211.5,-71.5 343.5,-71.5 343.5,-90.5"/>
<text text-anchor="middle" x="277.5" y="-78.5" font-family="Helvetica,sans-Serif" font-size="10.00">inc/ConfigFileParser.hpp</text>
</a>
</g>
</g>
<!-- Node1&#45;&gt;Node2 -->
<g id="edge1_Node000001_Node000002" class="edge">
<title>Node1&#45;&gt;Node2</title>
<g id="a_edge1_Node000001_Node000002"><a xlink:title=" ">
<path fill="none" stroke="#63b8ff" d="M1843.87,-138.56C1601.61,-129.82 609.79,-94 343.54,-84.38"/>
<polygon fill="#63b8ff" stroke="#63b8ff" points="1844.05,-142.07 1854.17,-138.94 1844.3,-135.08 1844.05,-142.07"/>
</a>
</g>
</g>
<!-- Node4 -->
<g id="Node000004" class="node">
<title>Node4</title>
<g id="a_Node000004"><a xlink:href="main_8cpp.html" target="_top" xlink:title=" ">
<polygon fill="white" stroke="#666666" points="379,-24.5 300,-24.5 300,-5.5 379,-5.5 379,-24.5"/>
<text text-anchor="middle" x="339.5" y="-12.5" font-family="Helvetica,sans-Serif" font-size="10.00">src/main.cpp</text>
</a>
</g>
</g>
<!-- Node1&#45;&gt;Node4 -->
<g id="edge27_Node000001_Node000004" class="edge">
<title>Node1&#45;&gt;Node4</title>
<g id="a_edge27_Node000001_Node000004"><a xlink:title=" ">
<path fill="none" stroke="#63b8ff" d="M1844.44,-140.64C1648.96,-140.31 951.04,-131.63 387.5,-30 380.15,-28.68 372.33,-26.66 365.17,-24.57"/>
<polygon fill="#63b8ff" stroke="#63b8ff" points="1844.45,-144.14 1854.45,-140.65 1844.45,-137.14 1844.45,-144.14"/>
</a>
</g>
</g>
<!-- Node6 -->
<g id="Node000006" class="node">
<title>Node6</title>
<g id="a_Node000006"><a xlink:href="test__helpers_8hpp.html" target="_top" xlink:title=" ">
<polygon fill="white" stroke="#666666" points="1955,-90.5 1840,-90.5 1840,-71.5 1955,-71.5 1955,-90.5"/>
<text text-anchor="middle" x="1897.5" y="-78.5" font-family="Helvetica,sans-Serif" font-size="10.00">inc/test_helpers.hpp</text>
</a>
</g>
</g>
<!-- Node1&#45;&gt;Node6 -->
<g id="edge5_Node000001_Node000006" class="edge">
<title>Node1&#45;&gt;Node6</title>
<g id="a_edge5_Node000001_Node000006"><a xlink:title=" ">
<path fill="none" stroke="#63b8ff" d="M1897.5,-121.66C1897.5,-111.24 1897.5,-98.8 1897.5,-90.67"/>
<polygon fill="#63b8ff" stroke="#63b8ff" points="1894,-121.87 1897.5,-131.87 1901,-121.87 1894,-121.87"/>
</a>
</g>
</g>
<!-- Node27 -->
<g id="Node000027" class="node">
<title>Node27</title>
<g id="a_Node000027"><a xlink:href="_server_8cpp.html" target="_top" xlink:title=" ">
<polygon fill="white" stroke="#666666" points="2058,-90.5 1973,-90.5 1973,-71.5 2058,-71.5 2058,-90.5"/>
<text text-anchor="middle" x="2015.5" y="-78.5" font-family="Helvetica,sans-Serif" font-size="10.00">src/Server.cpp</text>
</a>
</g>
</g>
<!-- Node1&#45;&gt;Node27 -->
<g id="edge26_Node000001_Node000027" class="edge">
<title>Node1&#45;&gt;Node27</title>
<g id="a_edge26_Node000001_Node000027"><a xlink:title=" ">
<path fill="none" stroke="#63b8ff" d="M1923.76,-127.48C1946.5,-116.21 1978.74,-100.23 1998.32,-90.52"/>
<polygon fill="#63b8ff" stroke="#63b8ff" points="1922.06,-124.42 1914.66,-131.99 1925.17,-130.69 1922.06,-124.42"/>
</a>
</g>
</g>
<!-- Node28 -->
<g id="Node000028" class="node">
<title>Node28</title>
<g id="a_Node000028"><a xlink:href="test__select_server_config_8cpp.html" target="_top" xlink:title=" ">
<polygon fill="white" stroke="#666666" points="2221,-96 2076,-96 2076,-66 2221,-66 2221,-96"/>
<text text-anchor="start" x="2084" y="-84" font-family="Helvetica,sans-Serif" font-size="10.00">test/unit/test_selectServer</text>
<text text-anchor="middle" x="2148.5" y="-73" font-family="Helvetica,sans-Serif" font-size="10.00">Config.cpp</text>
</a>
</g>
</g>
<!-- Node1&#45;&gt;Node28 -->
<g id="edge28_Node000001_Node000028" class="edge">
<title>Node1&#45;&gt;Node28</title>
<g id="a_edge28_Node000001_Node000028"><a xlink:title=" ">
<path fill="none" stroke="#63b8ff" d="M1943.91,-129.68C1984.54,-120.21 2043.85,-106.39 2088.16,-96.06"/>
<polygon fill="#63b8ff" stroke="#63b8ff" points="1942.94,-126.32 1934,-131.99 1944.53,-133.13 1942.94,-126.32"/>
</a>
</g>
</g>
<!-- Node3 -->
<g id="Node000003" class="node">
<title>Node3</title>
<g id="a_Node000003"><a xlink:href="_config_file_parser_8cpp.html" target="_top" xlink:title=" ">
<polygon fill="white" stroke="#666666" points="131,-24.5 0,-24.5 0,-5.5 131,-5.5 131,-24.5"/>
<text text-anchor="middle" x="65.5" y="-12.5" font-family="Helvetica,sans-Serif" font-size="10.00">src/ConfigFileParser.cpp</text>
</a>
</g>
</g>
<!-- Node2&#45;&gt;Node3 -->
<g id="edge2_Node000002_Node000003" class="edge">
<title>Node2&#45;&gt;Node3</title>
<g id="a_edge2_Node000002_Node000003"><a xlink:title=" ">
<path fill="none" stroke="#63b8ff" d="M239.09,-68.4C197.28,-55.78 131.4,-35.89 93.98,-24.6"/>
<polygon fill="#63b8ff" stroke="#63b8ff" points="238.32,-71.83 248.91,-71.37 240.35,-65.13 238.32,-71.83"/>
</a>
</g>
</g>
<!-- Node2&#45;&gt;Node4 -->
<g id="edge3_Node000002_Node000004" class="edge">
<title>Node2&#45;&gt;Node4</title>
<g id="a_edge3_Node000002_Node000004"><a xlink:title=" ">
<path fill="none" stroke="#63b8ff" d="M293.02,-63.98C304.99,-51.62 321.1,-34.99 330.87,-24.91"/>
<polygon fill="#63b8ff" stroke="#63b8ff" points="290.31,-61.75 285.86,-71.37 295.33,-66.62 290.31,-61.75"/>
</a>
</g>
</g>
<!-- Node5 -->
<g id="Node000005" class="node">
<title>Node5</title>
<g id="a_Node000005"><a xlink:href="test___config_file_parser_8cpp.html" target="_top" xlink:title=" ">
<polygon fill="white" stroke="#666666" points="281.5,-30 149.5,-30 149.5,0 281.5,0 281.5,-30"/>
<text text-anchor="start" x="157.5" y="-18" font-family="Helvetica,sans-Serif" font-size="10.00">test/unit/test_ConfigFile</text>
<text text-anchor="middle" x="215.5" y="-7" font-family="Helvetica,sans-Serif" font-size="10.00">Parser.cpp</text>
</a>
</g>
</g>
<!-- Node2&#45;&gt;Node5 -->
<g id="edge4_Node000002_Node000005" class="edge">
<title>Node2&#45;&gt;Node5</title>
<g id="a_edge4_Node000002_Node000005"><a xlink:title=" ">
<path fill="none" stroke="#63b8ff" d="M262.15,-64.16C252.12,-53.81 239.14,-40.4 229.41,-30.36"/>
<polygon fill="#63b8ff" stroke="#63b8ff" points="259.67,-66.62 269.14,-71.37 264.69,-61.75 259.67,-66.62"/>
</a>
</g>
</g>
<!-- Node7 -->
<g id="Node000007" class="node">
<title>Node7</title>
<g id="a_Node000007"><a xlink:href="test__accept_connections_8cpp.html" target="_top" xlink:title=" ">
<polygon fill="white" stroke="#666666" points="594,-24.5 397,-24.5 397,-5.5 594,-5.5 594,-24.5"/>
<text text-anchor="middle" x="495.5" y="-12.5" font-family="Helvetica,sans-Serif" font-size="10.00">test/unit/test_acceptConnections.cpp</text>
</a>
</g>
</g>
<!-- Node6&#45;&gt;Node7 -->
<g id="edge6_Node000006_Node000007" class="edge">
<title>Node6&#45;&gt;Node7</title>
<g id="a_edge6_Node000006_Node000007"><a xlink:title=" ">
<path fill="none" stroke="#63b8ff" d="M1829.75,-79.54C1637.4,-77.75 1071.52,-69.3 603.5,-30 587.3,-28.64 569.79,-26.61 553.69,-24.52"/>
<polygon fill="#63b8ff" stroke="#63b8ff" points="1829.96,-83.04 1839.99,-79.63 1830.02,-76.04 1829.96,-83.04"/>
</a>
</g>
</g>
<!-- Node8 -->
<g id="Node000008" class="node">
<title>Node8</title>
<g id="a_Node000008"><a xlink:href="test__check_for_timeout_8cpp.html" target="_top" xlink:title=" ">
<polygon fill="white" stroke="#666666" points="800.5,-24.5 612.5,-24.5 612.5,-5.5 800.5,-5.5 800.5,-24.5"/>
<text text-anchor="middle" x="706.5" y="-12.5" font-family="Helvetica,sans-Serif" font-size="10.00">test/unit/test_checkForTimeout.cpp</text>
</a>
</g>
</g>
<!-- Node6&#45;&gt;Node8 -->
<g id="edge7_Node000006_Node000008" class="edge">
<title>Node6&#45;&gt;Node8</title>
<g id="a_edge7_Node000006_Node000008"><a xlink:title=" ">
<path fill="none" stroke="#63b8ff" d="M1829.75,-78.98C1658.49,-75.96 1194.51,-64.94 809.5,-30 794.13,-28.61 777.54,-26.58 762.26,-24.5"/>
<polygon fill="#63b8ff" stroke="#63b8ff" points="1829.81,-82.49 1839.87,-79.16 1829.94,-75.49 1829.81,-82.49"/>
</a>
</g>
</g>
<!-- Node9 -->
<g id="Node000009" class="node">
<title>Node9</title>
<g id="a_Node000009"><a xlink:href="test__connection_build_response_8cpp.html" target="_top" xlink:title=" ">
<polygon fill="white" stroke="#666666" points="956,-30 819,-30 819,0 956,0 956,-30"/>
<text text-anchor="start" x="827" y="-18" font-family="Helvetica,sans-Serif" font-size="10.00">test/unit/test_connection</text>
<text text-anchor="middle" x="887.5" y="-7" font-family="Helvetica,sans-Serif" font-size="10.00">BuildResponse.cpp</text>
</a>
</g>
</g>
<!-- Node6&#45;&gt;Node9 -->
<g id="edge8_Node000006_Node000009" class="edge">
<title>Node6&#45;&gt;Node9</title>
<g id="a_edge8_Node000006_Node000009"><a xlink:title=" ">
<path fill="none" stroke="#63b8ff" d="M1829.7,-79.3C1675.51,-77.06 1286.96,-67.8 964.5,-30 961.8,-29.68 959.05,-29.33 956.28,-28.95"/>
<polygon fill="#63b8ff" stroke="#63b8ff" points="1829.91,-82.8 1839.95,-79.44 1830,-75.8 1829.91,-82.8"/>
</a>
</g>
</g>
<!-- Node10 -->
<g id="Node000010" class="node">
<title>Node10</title>
<g id="a_Node000010"><a xlink:href="test__connection_handle_timeout_8cpp.html" target="_top" xlink:title=" ">
<polygon fill="white" stroke="#666666" points="1111,-30 974,-30 974,0 1111,0 1111,-30"/>
<text text-anchor="start" x="982" y="-18" font-family="Helvetica,sans-Serif" font-size="10.00">test/unit/test_connection</text>
<text text-anchor="middle" x="1042.5" y="-7" font-family="Helvetica,sans-Serif" font-size="10.00">HandleTimeout.cpp</text>
</a>
</g>
</g>
<!-- Node6&#45;&gt;Node10 -->
<g id="edge9_Node000006_Node000010" class="edge">
<title>Node6&#45;&gt;Node10</title>
<g id="a_edge9_Node000006_Node000010"><a xlink:title=" ">
<path fill="none" stroke="#63b8ff" d="M1829.48,-78.27C1693.93,-74.25 1380.71,-62.03 1119.5,-30 1116.8,-29.67 1114.06,-29.3 1111.29,-28.91"/>
<polygon fill="#63b8ff" stroke="#63b8ff" points="1829.61,-81.78 1839.7,-78.57 1829.81,-74.78 1829.61,-81.78"/>
</a>
</g>
</g>
<!-- Node11 -->
<g id="Node000011" class="node">
<title>Node11</title>
<g id="a_Node000011"><a xlink:href="test__connection_receive_body_8cpp.html" target="_top" xlink:title=" ">
<polygon fill="white" stroke="#666666" points="1266,-30 1129,-30 1129,0 1266,0 1266,-30"/>
<text text-anchor="start" x="1137" y="-18" font-family="Helvetica,sans-Serif" font-size="10.00">test/unit/test_connection</text>
<text text-anchor="middle" x="1197.5" y="-7" font-family="Helvetica,sans-Serif" font-size="10.00">ReceiveBody.cpp</text>
</a>
</g>
</g>
<!-- Node6&#45;&gt;Node11 -->
<g id="edge10_Node000006_Node000011" class="edge">
<title>Node6&#45;&gt;Node11</title>
<g id="a_edge10_Node000006_Node000011"><a xlink:title=" ">
<path fill="none" stroke="#63b8ff" d="M1829.71,-76.78C1715.02,-70.83 1475.55,-56.28 1274.5,-30 1271.81,-29.65 1269.06,-29.27 1266.29,-28.86"/>
<polygon fill="#63b8ff" stroke="#63b8ff" points="1829.59,-80.28 1839.75,-77.29 1829.94,-73.29 1829.59,-80.28"/>
</a>
</g>
</g>
<!-- Node12 -->
<g id="Node000012" class="node">
<title>Node12</title>
<g id="a_Node000012"><a xlink:href="test__connection_receive_from_c_g_i_8cpp.html" target="_top" xlink:title=" ">
<polygon fill="white" stroke="#666666" points="1421,-30 1284,-30 1284,0 1421,0 1421,-30"/>
<text text-anchor="start" x="1292" y="-18" font-family="Helvetica,sans-Serif" font-size="10.00">test/unit/test_connection</text>
<text text-anchor="middle" x="1352.5" y="-7" font-family="Helvetica,sans-Serif" font-size="10.00">ReceiveFromCGI.cpp</text>
</a>
</g>
</g>
<!-- Node6&#45;&gt;Node12 -->
<g id="edge11_Node000006_Node000012" class="edge">
<title>Node6&#45;&gt;Node12</title>
<g id="a_edge11_Node000006_Node000012"><a xlink:title=" ">
<path fill="none" stroke="#63b8ff" d="M1829.48,-74.31C1738.23,-66.32 1571.23,-50.43 1429.5,-30 1426.81,-29.61 1424.07,-29.2 1421.31,-28.77"/>
<polygon fill="#63b8ff" stroke="#63b8ff" points="1829.43,-77.82 1839.69,-75.2 1830.03,-70.85 1829.43,-77.82"/>
</a>
</g>
</g>
<!-- Node13 -->
<g id="Node000013" class="node">
<title>Node13</title>
<g id="a_Node000013"><a xlink:href="test__connection_receive_header_8cpp.html" target="_top" xlink:title=" ">
<polygon fill="white" stroke="#666666" points="1576,-30 1439,-30 1439,0 1576,0 1576,-30"/>
<text text-anchor="start" x="1447" y="-18" font-family="Helvetica,sans-Serif" font-size="10.00">test/unit/test_connection</text>
<text text-anchor="middle" x="1507.5" y="-7" font-family="Helvetica,sans-Serif" font-size="10.00">ReceiveHeader.cpp</text>
</a>
</g>
</g>
<!-- Node6&#45;&gt;Node13 -->
<g id="edge12_Node000006_Node000013" class="edge">
<title>Node6&#45;&gt;Node13</title>
<g id="a_edge12_Node000006_Node000013"><a xlink:title=" ">
<path fill="none" stroke="#63b8ff" d="M1831.5,-69.88C1768.1,-60.06 1669.67,-44.54 1584.5,-30 1581.82,-29.54 1579.09,-29.07 1576.33,-28.59"/>
<polygon fill="#63b8ff" stroke="#63b8ff" points="1831.33,-73.39 1841.75,-71.46 1832.4,-66.48 1831.33,-73.39"/>
</a>
</g>
</g>
<!-- Node14 -->
<g id="Node000014" class="node">
<title>Node14</title>
<g id="a_Node000014"><a xlink:href="test__connection_send_response_8cpp.html" target="_top" xlink:title=" ">
<polygon fill="white" stroke="#666666" points="1731,-30 1594,-30 1594,0 1731,0 1731,-30"/>
<text text-anchor="start" x="1602" y="-18" font-family="Helvetica,sans-Serif" font-size="10.00">test/unit/test_connection</text>
<text text-anchor="middle" x="1662.5" y="-7" font-family="Helvetica,sans-Serif" font-size="10.00">SendResponse.cpp</text>
</a>
</g>
</g>
<!-- Node6&#45;&gt;Node14 -->
<g id="edge13_Node000006_Node000014" class="edge">
<title>Node6&#45;&gt;Node14</title>
<g id="a_edge13_Node000006_Node000014"><a xlink:title=" ">
<path fill="none" stroke="#63b8ff" d="M1855.97,-68.69C1816.47,-57.93 1756.92,-41.72 1714.33,-30.12"/>
<polygon fill="#63b8ff" stroke="#63b8ff" points="1855.24,-72.12 1865.81,-71.37 1857.08,-65.36 1855.24,-72.12"/>
</a>
</g>
</g>
<!-- Node15 -->
<g id="Node000015" class="node">
<title>Node15</title>
<g id="a_Node000015"><a xlink:href="test__connection_send_to_c_g_i_8cpp.html" target="_top" xlink:title=" ">
<polygon fill="white" stroke="#666666" points="1886,-30 1749,-30 1749,0 1886,0 1886,-30"/>
<text text-anchor="start" x="1757" y="-18" font-family="Helvetica,sans-Serif" font-size="10.00">test/unit/test_connection</text>
<text text-anchor="middle" x="1817.5" y="-7" font-family="Helvetica,sans-Serif" font-size="10.00">SendToCGI.cpp</text>
</a>
</g>
</g>
<!-- Node6&#45;&gt;Node15 -->
<g id="edge14_Node000006_Node000015" class="edge">
<title>Node6&#45;&gt;Node15</title>
<g id="a_edge14_Node000006_Node000015"><a xlink:title=" ">
<path fill="none" stroke="#63b8ff" d="M1878.77,-65.02C1865.59,-54.48 1848.07,-40.46 1835.14,-30.12"/>
<polygon fill="#63b8ff" stroke="#63b8ff" points="1876.72,-67.85 1886.71,-71.37 1881.09,-62.39 1876.72,-67.85"/>
</a>
</g>
</g>
<!-- Node16 -->
<g id="Node000016" class="node">
<title>Node16</title>
<g id="a_Node000016"><a xlink:href="test__create_virtual_server_8cpp.html" target="_top" xlink:title=" ">
<polygon fill="white" stroke="#666666" points="2051,-30 1904,-30 1904,0 2051,0 2051,-30"/>
<text text-anchor="start" x="1912" y="-18" font-family="Helvetica,sans-Serif" font-size="10.00">test/unit/test_createVirtual</text>
<text text-anchor="middle" x="1977.5" y="-7" font-family="Helvetica,sans-Serif" font-size="10.00">Server.cpp</text>
</a>
</g>
</g>
<!-- Node6&#45;&gt;Node16 -->
<g id="edge15_Node000006_Node000016" class="edge">
<title>Node6&#45;&gt;Node16</title>
<g id="a_edge15_Node000006_Node000016"><a xlink:title=" ">
<path fill="none" stroke="#63b8ff" d="M1916.23,-65.02C1929.41,-54.48 1946.93,-40.46 1959.86,-30.12"/>
<polygon fill="#63b8ff" stroke="#63b8ff" points="1913.91,-62.39 1908.29,-71.37 1918.28,-67.85 1913.91,-62.39"/>
</a>
</g>
</g>
<!-- Node17 -->
<g id="Node000017" class="node">
<title>Node17</title>
<g id="a_Node000017"><a xlink:href="test__handle_body_8cpp.html" target="_top" xlink:title=" ">
<polygon fill="white" stroke="#666666" points="2230,-24.5 2069,-24.5 2069,-5.5 2230,-5.5 2230,-24.5"/>
<text text-anchor="middle" x="2149.5" y="-12.5" font-family="Helvetica,sans-Serif" font-size="10.00">test/unit/test_handleBody.cpp</text>
</a>
</g>
</g>
<!-- Node6&#45;&gt;Node17 -->
<g id="edge16_Node000006_Node000017" class="edge">
<title>Node6&#45;&gt;Node17</title>
<g id="a_edge16_Node000006_Node000017"><a xlink:title=" ">
<path fill="none" stroke="#63b8ff" d="M1941.04,-68.94C1990.72,-56.32 2070.91,-35.96 2115.98,-24.51"/>
<polygon fill="#63b8ff" stroke="#63b8ff" points="1940.06,-65.58 1931.22,-71.44 1941.78,-72.37 1940.06,-65.58"/>
</a>
</g>
</g>
<!-- Node18 -->
<g id="Node000018" class="node">
<title>Node18</title>
<g id="a_Node000018"><a xlink:href="test__handle_complete_request_header_8cpp.html" target="_top" xlink:title=" ">
<polygon fill="white" stroke="#666666" points="2412.5,-30 2248.5,-30 2248.5,0 2412.5,0 2412.5,-30"/>
<text text-anchor="start" x="2256.5" y="-18" font-family="Helvetica,sans-Serif" font-size="10.00">test/unit/test_handleComplete</text>
<text text-anchor="middle" x="2330.5" y="-7" font-family="Helvetica,sans-Serif" font-size="10.00">RequestHeader.cpp</text>
</a>
</g>
</g>
<!-- Node6&#45;&gt;Node18 -->
<g id="edge17_Node000006_Node000018" class="edge">
<title>Node6&#45;&gt;Node18</title>
<g id="a_edge17_Node000006_Node000018"><a xlink:title=" ">
<path fill="none" stroke="#63b8ff" d="M1946.23,-69.37C1952.37,-68.16 1958.57,-67.01 1964.5,-66 2086.03,-45.38 2117.47,-47.37 2239.5,-30 2242.35,-29.59 2245.25,-29.18 2248.17,-28.75"/>
<polygon fill="#63b8ff" stroke="#63b8ff" points="1945.13,-66.02 1936.02,-71.43 1946.52,-72.88 1945.13,-66.02"/>
</a>
</g>
</g>
<!-- Node19 -->
<g id="Node000019" class="node">
<title>Node19</title>
<g id="a_Node000019"><a xlink:href="test__handle_event_8cpp.html" target="_top" xlink:title=" ">
<polygon fill="white" stroke="#666666" points="2596,-24.5 2431,-24.5 2431,-5.5 2596,-5.5 2596,-24.5"/>
<text text-anchor="middle" x="2513.5" y="-12.5" font-family="Helvetica,sans-Serif" font-size="10.00">test/unit/test_handleEvent.cpp</text>
</a>
</g>
</g>
<!-- Node6&#45;&gt;Node19 -->
<g id="edge18_Node000006_Node000019" class="edge">
<title>Node6&#45;&gt;Node19</title>
<g id="a_edge18_Node000006_Node000019"><a xlink:title=" ">
<path fill="none" stroke="#63b8ff" d="M1944.06,-69.48C1950.89,-68.16 1957.86,-66.95 1964.5,-66 2166.18,-37.11 2219.1,-53.34 2421.5,-30 2434.66,-28.48 2448.83,-26.5 2462.01,-24.51"/>
<polygon fill="#63b8ff" stroke="#63b8ff" points="1943.33,-66.05 1934.21,-71.45 1944.7,-72.92 1943.33,-66.05"/>
</a>
</g>
</g>
<!-- Node20 -->
<g id="Node000020" class="node">
<title>Node20</title>
<g id="a_Node000020"><a xlink:href="test__helpers_8cpp.html" target="_top" xlink:title=" ">
<polygon fill="white" stroke="#666666" points="2754.5,-24.5 2614.5,-24.5 2614.5,-5.5 2754.5,-5.5 2754.5,-24.5"/>
<text text-anchor="middle" x="2684.5" y="-12.5" font-family="Helvetica,sans-Serif" font-size="10.00">test/unit/test_helpers.cpp</text>
</a>
</g>
</g>
<!-- Node6&#45;&gt;Node20 -->
<g id="edge19_Node000006_Node000020" class="edge">
<title>Node6&#45;&gt;Node20</title>
<g id="a_edge19_Node000006_Node000020"><a xlink:title=" ">
<path fill="none" stroke="#63b8ff" d="M1943.56,-69.43C1950.54,-68.1 1957.69,-66.9 1964.5,-66 2247.39,-28.71 2322.07,-62.95 2605.5,-30 2617.26,-28.63 2629.92,-26.63 2641.59,-24.56"/>
<polygon fill="#63b8ff" stroke="#63b8ff" points="1942.61,-66.05 1933.49,-71.45 1943.99,-72.92 1942.61,-66.05"/>
</a>
</g>
</g>
<!-- Node21 -->
<g id="Node000021" class="node">
<title>Node21</title>
<g id="a_Node000021"><a xlink:href="test__init_virtual_servers_8cpp.html" target="_top" xlink:title=" ">
<polygon fill="white" stroke="#666666" points="2904.5,-30 2772.5,-30 2772.5,0 2904.5,0 2904.5,-30"/>
<text text-anchor="start" x="2780.5" y="-18" font-family="Helvetica,sans-Serif" font-size="10.00">test/unit/test_initVirtual</text>
<text text-anchor="middle" x="2838.5" y="-7" font-family="Helvetica,sans-Serif" font-size="10.00">Servers.cpp</text>
</a>
</g>
</g>
<!-- Node6&#45;&gt;Node21 -->
<g id="edge20_Node000006_Node000021" class="edge">
<title>Node6&#45;&gt;Node21</title>
<g id="a_edge20_Node000006_Node000021"><a xlink:title=" ">
<path fill="none" stroke="#63b8ff" d="M1943.3,-69.41C1950.37,-68.07 1957.61,-66.87 1964.5,-66 2317.18,-21.5 2410.37,-70.71 2763.5,-30 2766.39,-29.67 2769.35,-29.29 2772.32,-28.87"/>
<polygon fill="#63b8ff" stroke="#63b8ff" points="1942.25,-66.05 1933.13,-71.44 1943.63,-72.91 1942.25,-66.05"/>
</a>
</g>
</g>
<!-- Node22 -->
<g id="Node000022" class="node">
<title>Node22</title>
<g id="a_Node000022"><a xlink:href="test__is_duplicate_server_8cpp.html" target="_top" xlink:title=" ">
<polygon fill="white" stroke="#666666" points="3062,-30 2923,-30 2923,0 3062,0 3062,-30"/>
<text text-anchor="start" x="2931" y="-18" font-family="Helvetica,sans-Serif" font-size="10.00">test/unit/test_isDuplicate</text>
<text text-anchor="middle" x="2992.5" y="-7" font-family="Helvetica,sans-Serif" font-size="10.00">Server.cpp</text>
</a>
</g>
</g>
<!-- Node6&#45;&gt;Node22 -->
<g id="edge21_Node000006_Node000022" class="edge">
<title>Node6&#45;&gt;Node22</title>
<g id="a_edge21_Node000006_Node000022"><a xlink:title=" ">
<path fill="none" stroke="#63b8ff" d="M1943.06,-69.41C1950.2,-68.06 1957.53,-66.85 1964.5,-66 2383.45,-14.65 2493.82,-74.93 2913.5,-30 2916.55,-29.67 2919.65,-29.3 2922.79,-28.89"/>
<polygon fill="#63b8ff" stroke="#63b8ff" points="1941.9,-66.07 1932.78,-71.47 1943.27,-72.94 1941.9,-66.07"/>
</a>
</g>
</g>
<!-- Node23 -->
<g id="Node000023" class="node">
<title>Node23</title>
<g id="a_Node000023"><a xlink:href="test__register_c_g_i_file_descriptor_8cpp.html" target="_top" xlink:title=" ">
<polygon fill="white" stroke="#666666" points="3236.5,-30 3080.5,-30 3080.5,0 3236.5,0 3236.5,-30"/>
<text text-anchor="start" x="3088.5" y="-18" font-family="Helvetica,sans-Serif" font-size="10.00">test/unit/test_registerCGIFile</text>
<text text-anchor="middle" x="3158.5" y="-7" font-family="Helvetica,sans-Serif" font-size="10.00">Descriptor.cpp</text>
</a>
</g>
</g>
<!-- Node6&#45;&gt;Node23 -->
<g id="edge22_Node000006_Node000023" class="edge">
<title>Node6&#45;&gt;Node23</title>
<g id="a_edge22_Node000006_Node000023"><a xlink:title=" ">
<path fill="none" stroke="#63b8ff" d="M1943.05,-69.38C1950.2,-68.03 1957.52,-66.84 1964.5,-66 2453.26,-7.44 2581.51,-77.2 3071.5,-30 3074.39,-29.72 3077.34,-29.41 3080.31,-29.06"/>
<polygon fill="#63b8ff" stroke="#63b8ff" points="1941.9,-66.04 1932.78,-71.43 1943.27,-72.9 1941.9,-66.04"/>
</a>
</g>
</g>
<!-- Node24 -->
<g id="Node000024" class="node">
<title>Node24</title>
<g id="a_Node000024"><a xlink:href="test__register_connection_8cpp.html" target="_top" xlink:title=" ">
<polygon fill="white" stroke="#666666" points="3452,-24.5 3255,-24.5 3255,-5.5 3452,-5.5 3452,-24.5"/>
<text text-anchor="middle" x="3353.5" y="-12.5" font-family="Helvetica,sans-Serif" font-size="10.00">test/unit/test_registerConnection.cpp</text>
</a>
</g>
</g>
<!-- Node6&#45;&gt;Node24 -->
<g id="edge23_Node000006_Node000024" class="edge">
<title>Node6&#45;&gt;Node24</title>
<g id="a_edge23_Node000006_Node000024"><a xlink:title=" ">
<path fill="none" stroke="#63b8ff" d="M1942.3,-69.49C1949.68,-68.09 1957.28,-66.85 1964.5,-66 2530.16,0.51 2677.7,-74.67 3245.5,-30 3261.99,-28.7 3279.83,-26.66 3296.16,-24.53"/>
<polygon fill="#63b8ff" stroke="#63b8ff" points="1941.54,-66.07 1932.43,-71.48 1942.92,-72.94 1941.54,-66.07"/>
</a>
</g>
</g>
<!-- Node25 -->
<g id="Node000025" class="node">
<title>Node25</title>
<g id="a_Node000025"><a xlink:href="test__register_virtual_server_8cpp.html" target="_top" xlink:title=" ">
<polygon fill="white" stroke="#666666" points="3624.5,-30 3470.5,-30 3470.5,0 3624.5,0 3624.5,-30"/>
<text text-anchor="start" x="3478.5" y="-18" font-family="Helvetica,sans-Serif" font-size="10.00">test/unit/test_registerVirtual</text>
<text text-anchor="middle" x="3547.5" y="-7" font-family="Helvetica,sans-Serif" font-size="10.00">Server.cpp</text>
</a>
</g>
</g>
<!-- Node6&#45;&gt;Node25 -->
<g id="edge24_Node000006_Node000025" class="edge">
<title>Node6&#45;&gt;Node25</title>
<g id="a_edge24_Node000006_Node000025"><a xlink:title=" ">
<path fill="none" stroke="#63b8ff" d="M1942.3,-69.47C1949.68,-68.07 1957.28,-66.83 1964.5,-66 2625.63,10.38 2798.83,-91.61 3461.5,-30 3464.36,-29.73 3467.27,-29.43 3470.21,-29.1"/>
<polygon fill="#63b8ff" stroke="#63b8ff" points="1941.54,-66.05 1932.42,-71.45 1942.92,-72.91 1941.54,-66.05"/>
</a>
</g>
</g>
<!-- Node26 -->
<g id="Node000026" class="node">
<title>Node26</title>
<g id="a_Node000026"><a xlink:href="test__shutdown_server_8cpp.html" target="_top" xlink:title=" ">
<polygon fill="white" stroke="#666666" points="3824.5,-24.5 3642.5,-24.5 3642.5,-5.5 3824.5,-5.5 3824.5,-24.5"/>
<text text-anchor="middle" x="3733.5" y="-12.5" font-family="Helvetica,sans-Serif" font-size="10.00">test/unit/test_shutdownServer.cpp</text>
</a>
</g>
</g>
<!-- Node6&#45;&gt;Node26 -->
<g id="edge25_Node000006_Node000026" class="edge">
<title>Node6&#45;&gt;Node26</title>
<g id="a_edge25_Node000006_Node000026"><a xlink:title=" ">
<path fill="none" stroke="#63b8ff" d="M1942.3,-69.45C1949.68,-68.06 1957.28,-66.83 1964.5,-66 2701.65,18.24 2893.94,-89.54 3633.5,-30 3649.05,-28.75 3665.88,-26.67 3681.21,-24.5"/>
<polygon fill="#63b8ff" stroke="#63b8ff" points="1941.54,-66.03 1932.42,-71.43 1942.92,-72.9 1941.54,-66.03"/>
</a>
</g>
</g>
</g>
</svg>
