<?xml version="1.0" encoding="UTF-8" standalone="no"?>
<!DOCTYPE svg PUBLIC "-//W3C//DTD SVG 1.1//EN"
 "http://www.w3.org/Graphics/SVG/1.1/DTD/svg11.dtd">
<!-- Generated by graphviz version 2.43.0 (0)
 -->
<!-- Title: connectionReceiveBody Pages: 1 -->
<!--zoomable 138 -->

<svg id="main" version="1.1" xmlns="http://www.w3.org/2000/svg" xmlns:xlink="http://www.w3.org/1999/xlink" xml:space="preserve" onload="init(evt)">
<style type="text/css"><![CDATA[
.node, .edge {opacity: 0.7;}
.node.selected, .edge.selected {opacity: 1;}
.edge:hover path { stroke: red; }
.edge:hover polygon { stroke: red; fill: red; }
]]></style>

<defs>
  <circle id="rim" cx="0" cy="0" r="7"/>
  <circle id="rim2" cx="0" cy="0" r="3.5"/>
  <g id="zoomPlus">
    <use xlink:href="#rim" fill="#404040"><set attributeName="fill" to="#808080" begin="zoomplus.mouseover" end="zoomplus.mouseout"/></use>
    <path d="M-4,0h8M0,-4v8" fill="none" stroke="white" stroke-width="1.5" pointer-events="none"/>
  </g>
  <g id="zoomMin">
    <use xlink:href="#rim" fill="#404040"><set attributeName="fill" to="#808080" begin="zoomminus.mouseover" end="zoomminus.mouseout"/></use>
    <path d="M-4,0h8" fill="none" stroke="white" stroke-width="1.5" pointer-events="none"/>
  </g>
  <g id="arrowUp" transform="translate(30 24)">
    <use xlink:href="#rim"/>
    <path pointer-events="none" fill="none" stroke="white" stroke-width="1.5" d="M0,-3.0v7 M-2.5,-0.5L0,-3.0L2.5,-0.5"/>
  </g>
  <g id="arrowRight" transform="rotate(90) translate(36 -43)">
    <use xlink:href="#rim"/>
    <path pointer-events="none" fill="none" stroke="white" stroke-width="1.5" d="M0,-3.0v7 M-2.5,-0.5L0,-3.0L2.5,-0.5"/>
  </g>
  <g id="arrowDown" transform="rotate(180) translate(-30 -48)">
    <use xlink:href="#rim"/>
    <path pointer-events="none" fill="none" stroke="white" stroke-width="1.5" d="M0,-3.0v7 M-2.5,-0.5L0,-3.0L2.5,-0.5"/>
  </g>
  <g id="arrowLeft" transform="rotate(270) translate(-36 17)">
    <use xlink:href="#rim"/>
    <path pointer-events="none" fill="none" stroke="white" stroke-width="1.5" d="M0,-3.0v7 M-2.5,-0.5L0,-3.0L2.5,-0.5"/>
  </g>
  <g id="resetDef">
    <use xlink:href="#rim2" fill="#404040"><set attributeName="fill" to="#808080" begin="reset.mouseover" end="reset.mouseout"/></use>
  </g>
</defs>
<script type="application/ecmascript">
var viewWidth = 906;
var viewHeight = 138;
var sectionId = 'dynsection-21';
</script>
<script type="application/ecmascript" xlink:href="svg.min.js"/>
<svg id="graph" class="graph">
<g id="viewport">
<title>connectionReceiveBody</title>
<!-- Node1 -->
<g id="Node000001" class="node">
<title>Node1</title>
<g id="a_Node000001"><a xlink:title="Handles the reception of the request body from a client connection.">
<polygon fill="#999999" stroke="#666666" points="134,-83 0,-83 0,-64 134,-64 134,-83"/>
<text text-anchor="middle" x="67" y="-71" font-family="Helvetica,sans-Serif" font-size="10.00">connectionReceiveBody</text>
</a>
</g>
</g>
<!-- Node2 -->
<g id="Node000002" class="node">
<title>Node2</title>
<g id="a_Node000002"><a xlink:href="class_server.html#a2092f68016c0cfaff0c9c0e1862eb009" target="_top" xlink:title="Getter for client body buffer.">
<polygon fill="white" stroke="#666666" points="322,-120 170,-120 170,-101 322,-101 322,-120"/>
<text text-anchor="middle" x="246" y="-108" font-family="Helvetica,sans-Serif" font-size="10.00">Server::getClientBodyBuffer</text>
</a>
</g>
</g>
<!-- Node1&#45;&gt;Node2 -->
<g id="edge1_Node000001_Node000002" class="edge">
<title>Node1&#45;&gt;Node2</title>
<g id="a_edge1_Node000001_Node000002"><a xlink:title=" ">
<path fill="none" stroke="#63b8ff" d="M113.58,-83.03C136.72,-87.86 165.02,-93.78 189.42,-98.88"/>
<polygon fill="#63b8ff" stroke="#63b8ff" points="188.76,-102.32 199.27,-100.94 190.19,-95.47 188.76,-102.32"/>
</a>
</g>
</g>
<!-- Node3 -->
<g id="Node000003" class="node">
<title>Node3</title>
<g id="a_Node000003"><a xlink:href="_server_8cpp.html#af0fb17fe53a5e9e72824e5df3fba1322" target="_top" xlink:title="Handles the body of the HTTP request.">
<polygon fill="white" stroke="#666666" points="283,-83 209,-83 209,-64 283,-64 283,-83"/>
<text text-anchor="middle" x="246" y="-71" font-family="Helvetica,sans-Serif" font-size="10.00">handleBody</text>
</a>
</g>
</g>
<!-- Node1&#45;&gt;Node3 -->
<g id="edge2_Node000001_Node000003" class="edge">
<title>Node1&#45;&gt;Node3</title>
<g id="a_edge2_Node000001_Node000003"><a xlink:title=" ">
<path fill="none" stroke="#63b8ff" d="M134.16,-73.5C155.63,-73.5 178.99,-73.5 198.69,-73.5"/>
<polygon fill="#63b8ff" stroke="#63b8ff" points="198.93,-77 208.93,-73.5 198.93,-70 198.93,-77"/>
</a>
</g>
</g>
<!-- Node10 -->
<g id="Node000010" class="node">
<title>Node10</title>
<g id="a_Node000010"><a xlink:href="class_server.html#ae94e3d4b5743580a6fbe3228d58af423" target="_top" xlink:title="Wrapper function to SocketPolicy::readFromSocket.">
<polygon fill="white" stroke="#666666" points="312.5,-37 179.5,-37 179.5,-18 312.5,-18 312.5,-37"/>
<text text-anchor="middle" x="246" y="-25" font-family="Helvetica,sans-Serif" font-size="10.00">Server::readFromSocket</text>
</a>
</g>
</g>
<!-- Node1&#45;&gt;Node10 -->
<g id="edge9_Node000001_Node000010" class="edge">
<title>Node1&#45;&gt;Node10</title>
<g id="a_edge9_Node000001_Node000010"><a xlink:title=" ">
<path fill="none" stroke="#63b8ff" d="M104.67,-63.97C131.85,-56.91 169.09,-47.23 198.37,-39.62"/>
<polygon fill="#63b8ff" stroke="#63b8ff" points="199.57,-42.92 208.37,-37.02 197.81,-36.15 199.57,-42.92"/>
</a>
</g>
</g>
<!-- Node4 -->
<g id="Node000004" class="node">
<title>Node4</title>
<g id="a_Node000004"><a xlink:href="_server_8cpp.html#a14a0c5a1227276017a19d9b52141c13a" target="_top" xlink:title="Checks if the HTTP request body has been completely received.">
<polygon fill="white" stroke="#666666" points="487.5,-130 390.5,-130 390.5,-111 487.5,-111 487.5,-130"/>
<text text-anchor="middle" x="439" y="-118" font-family="Helvetica,sans-Serif" font-size="10.00">isCompleteBody</text>
</a>
</g>
</g>
<!-- Node3&#45;&gt;Node4 -->
<g id="edge3_Node000003_Node000004" class="edge">
<title>Node3&#45;&gt;Node4</title>
<g id="a_edge3_Node000003_Node000004"><a xlink:title=" ">
<path fill="none" stroke="#63b8ff" d="M283.28,-82.51C295.59,-85.62 309.41,-89.16 322,-92.5 338.05,-96.76 341.89,-98.45 358,-102.5 366.43,-104.62 375.38,-106.75 384.14,-108.77"/>
<polygon fill="#63b8ff" stroke="#63b8ff" points="383.37,-112.18 393.89,-110.99 384.92,-105.35 383.37,-112.18"/>
</a>
</g>
</g>
<!-- Node5 -->
<g id="Node000005" class="node">
<title>Node5</title>
<g id="a_Node000005"><a xlink:href="class_server.html#afab1a4ec9e524b0dae8f60080642e7fe" target="_top" xlink:title="Wrapper function to EpollWrapper::modifyEvent.">
<polygon fill="white" stroke="#666666" points="497,-93 381,-93 381,-74 497,-74 497,-93"/>
<text text-anchor="middle" x="439" y="-81" font-family="Helvetica,sans-Serif" font-size="10.00">Server::modifyEvent</text>
</a>
</g>
</g>
<!-- Node3&#45;&gt;Node5 -->
<g id="edge4_Node000003_Node000005" class="edge">
<title>Node3&#45;&gt;Node5</title>
<g id="a_edge4_Node000003_Node000005"><a xlink:title=" ">
<path fill="none" stroke="#63b8ff" d="M283.38,-75.4C307.97,-76.69 341.18,-78.43 370.53,-79.97"/>
<polygon fill="#63b8ff" stroke="#63b8ff" points="370.55,-83.47 380.72,-80.5 370.92,-76.48 370.55,-83.47"/>
</a>
</g>
</g>
<!-- Node7 -->
<g id="Node000007" class="node">
<title>Node7</title>
<g id="a_Node000007"><a xlink:href="class_server.html#ace46f4e07ab67db60e3790a32b2e8e0a" target="_top" xlink:title="Wrapper function to RequestParser::parseBody.">
<polygon fill="white" stroke="#666666" points="492,-56 386,-56 386,-37 492,-37 492,-56"/>
<text text-anchor="middle" x="439" y="-44" font-family="Helvetica,sans-Serif" font-size="10.00">Server::parseBody</text>
</a>
</g>
</g>
<!-- Node3&#45;&gt;Node7 -->
<g id="edge6_Node000003_Node000007" class="edge">
<title>Node3&#45;&gt;Node7</title>
<g id="a_edge6_Node000003_Node000007"><a xlink:title=" ">
<path fill="none" stroke="#63b8ff" d="M283.38,-68.36C309.44,-64.67 345.18,-59.62 375.74,-55.3"/>
<polygon fill="#63b8ff" stroke="#63b8ff" points="376.47,-58.73 385.88,-53.87 375.49,-51.8 376.47,-58.73"/>
</a>
</g>
</g>
<!-- Node6 -->
<g id="Node000006" class="node">
<title>Node6</title>
<g id="a_Node000006"><a xlink:href="class_epoll_wrapper.html#ac97945725185999837a6d0d53f91df1a" target="_top" xlink:title="Modify an event in the epoll instance.">
<polygon fill="white" stroke="#666666" points="705,-93 556,-93 556,-74 705,-74 705,-93"/>
<text text-anchor="middle" x="630.5" y="-81" font-family="Helvetica,sans-Serif" font-size="10.00">EpollWrapper::modifyEvent</text>
</a>
</g>
</g>
<!-- Node5&#45;&gt;Node6 -->
<g id="edge5_Node000005_Node000006" class="edge">
<title>Node5&#45;&gt;Node6</title>
<g id="a_edge5_Node000005_Node000006"><a xlink:title=" ">
<path fill="none" stroke="#63b8ff" d="M497.11,-83.5C512.37,-83.5 529.17,-83.5 545.54,-83.5"/>
<polygon fill="#63b8ff" stroke="#63b8ff" points="545.66,-87 555.66,-83.5 545.66,-80 545.66,-87"/>
</a>
</g>
</g>
<!-- Node8 -->
<g id="Node000008" class="node">
<title>Node8</title>
<g id="a_Node000008"><a xlink:href="class_request_parser.html#a5111f16124d227775d963e6ca24ddca0" target="_top" xlink:title="Parses the body of an HTTP request.">
<polygon fill="white" stroke="#666666" points="702.5,-56 558.5,-56 558.5,-37 702.5,-37 702.5,-56"/>
<text text-anchor="middle" x="630.5" y="-44" font-family="Helvetica,sans-Serif" font-size="10.00">RequestParser::parseBody</text>
</a>
</g>
</g>
<!-- Node7&#45;&gt;Node8 -->
<g id="edge7_Node000007_Node000008" class="edge">
<title>Node7&#45;&gt;Node8</title>
<g id="a_edge7_Node000007_Node000008"><a xlink:title=" ">
<path fill="none" stroke="#63b8ff" d="M492.03,-46.5C509.4,-46.5 529.19,-46.5 548.24,-46.5"/>
<polygon fill="#63b8ff" stroke="#63b8ff" points="548.42,-50 558.42,-46.5 548.42,-43 548.42,-50"/>
</a>
</g>
</g>
<!-- Node9 -->
<g id="Node000009" class="node">
<title>Node9</title>
<g id="a_Node000009"><a xlink:href="class_request_parser.html#ad8e0fc22eb113d78140e257f002df666" target="_top" xlink:title="Clears the contents of the RequestParser object.">
<polygon fill="white" stroke="#666666" points="898,-61.5 741,-61.5 741,-31.5 898,-31.5 898,-61.5"/>
<text text-anchor="start" x="749" y="-49.5" font-family="Helvetica,sans-Serif" font-size="10.00">RequestParser::resetRequest</text>
<text text-anchor="middle" x="819.5" y="-38.5" font-family="Helvetica,sans-Serif" font-size="10.00">Stream</text>
</a>
</g>
</g>
<!-- Node8&#45;&gt;Node9 -->
<g id="edge8_Node000008_Node000009" class="edge">
<title>Node8&#45;&gt;Node9</title>
<g id="a_edge8_Node000008_Node000009"><a xlink:title=" ">
<path fill="none" stroke="#63b8ff" d="M702.73,-46.5C711.9,-46.5 721.38,-46.5 730.77,-46.5"/>
<polygon fill="#63b8ff" stroke="#63b8ff" points="730.92,-50 740.92,-46.5 730.92,-43 730.92,-50"/>
</a>
</g>
</g>
<!-- Node11 -->
<g id="Node000011" class="node">
<title>Node11</title>
<g id="a_Node000011"><a xlink:href="class_socket_policy.html#a6f6c04c36c6be0d95b1d3e4a872ea7ca" target="_top" xlink:title="Read from a socket.">
<polygon fill="white" stroke="#666666" points="520,-19 358,-19 358,0 520,0 520,-19"/>
<text text-anchor="middle" x="439" y="-7" font-family="Helvetica,sans-Serif" font-size="10.00">SocketPolicy::readFromSocket</text>
</a>
</g>
</g>
<!-- Node10&#45;&gt;Node11 -->
<g id="edge10_Node000010_Node000011" class="edge">
<title>Node10&#45;&gt;Node11</title>
<g id="a_edge10_Node000010_Node000011"><a xlink:title=" ">
<path fill="none" stroke="#63b8ff" d="M312.73,-21.31C324,-20.24 335.88,-19.12 347.66,-18.01"/>
<polygon fill="#63b8ff" stroke="#63b8ff" points="348.33,-21.47 357.96,-17.04 347.68,-14.5 348.33,-21.47"/>
</a>
</g>
</g>
</g>
</svg>

<g id="navigator" transform="translate(0 0)" fill="#404254">
  <rect fill="#f2f5e9" fill-opacity="0.5" stroke="#606060" stroke-width=".5" x="0" y="0" width="60" height="60"/>
  <use id="zoomplus" xlink:href="#zoomPlus" x="17" y="9" onmousedown="handleZoom(evt,'in')"/>
  <use id="zoomminus" xlink:href="#zoomMin" x="42" y="9" onmousedown="handleZoom(evt,'out')"/>
  <use id="reset" xlink:href="#resetDef" x="30" y="36" onmousedown="handleReset()"/>
   <use id="arrowup" xlink:href="#arrowUp" x="0" y="0" onmousedown="handlePan(0,-1)"/>
  <use id="arrowright" xlink:href="#arrowRight" x="0" y="0" onmousedown="handlePan(1,0)"/>
  <use id="arrowdown" xlink:href="#arrowDown" x="0" y="0" onmousedown="handlePan(0,1)"/>
  <use id="arrowleft" xlink:href="#arrowLeft" x="0" y="0" onmousedown="handlePan(-1,0)"/>
</g>
<svg viewBox="0 0 15 15" width="100%" height="30px" preserveAspectRatio="xMaxYMin meet">
 <g id="arrow_out" transform="scale(0.3 0.3)">
  <a xlink:href="_server_8cpp_a3e07b970ffa58c9315b38673aff94f84_cgraph_org.svg" target="_base">
   <rect id="button" ry="5" rx="5" y="6" x="6" height="38" width="38"
        fill="#f2f5e9" fill-opacity="0.5" stroke="#606060" stroke-width="1.0"/>
   <path id="arrow"
     d="M 11.500037,31.436501 C 11.940474,20.09759 22.043105,11.32322 32.158766,21.979434 L 37.068811,17.246167 C 37.068811,17.246167 37.088388,32 37.088388,32 L 22.160133,31.978069 C 22.160133,31.978069 26.997745,27.140456 26.997745,27.140456 C 18.528582,18.264221 13.291696,25.230495 11.500037,31.436501 z"
     style="fill:#404040;"/>
  </a>
 </g>
</svg>

<style type='text/css'>
<![CDATA[
[data-mouse-over-selected='false'] { opacity: 0.7; }
[data-mouse-over-selected='true']  { opacity: 1.0; }
]]>
</style>
<script type="application/ecmascript"><![CDATA[
document.addEventListener('DOMContentLoaded', (event) => {
  highlightEdges();
  highlightAdjacentNodes();
});
]]></script>
</svg>
