<?xml version="1.0" encoding="UTF-8" standalone="no"?>
<!DOCTYPE svg PUBLIC "-//W3C//DTD SVG 1.1//EN"
 "http://www.w3.org/Graphics/SVG/1.1/DTD/svg11.dtd">
<!-- Generated by graphviz version 2.43.0 (0)
 -->
<!-- Title: connectionBuildResponse Pages: 1 -->
<!--zoomable 323 -->
<svg id="main" version="1.1" xmlns="http://www.w3.org/2000/svg" xmlns:xlink="http://www.w3.org/1999/xlink" xml:space="preserve" onload="init(evt)">
<style type="text/css"><![CDATA[
.edge:hover path { stroke: red; }
.edge:hover polygon { stroke: red; fill: red; }
]]></style>
<script type="text/javascript"><![CDATA[
var edges = document.getElementsByTagName('g');
if (edges && edges.length) {
  for (var i=0;i<edges.length;i++) {
    if (edges[i].id.substr(0,4)=='edge') {
      edges[i].setAttribute('class','edge');
    }
  }
}
]]></script>
        <defs>
                <circle id="rim" cx="0" cy="0" r="7"/>
                <circle id="rim2" cx="0" cy="0" r="3.5"/>
                <g id="zoomPlus">
                        <use xlink:href="#rim" fill="#404040">
                                <set attributeName="fill" to="#808080" begin="zoomplus.mouseover" end="zoomplus.mouseout"/>
                        </use>
                        <path d="M-4,0h8M0,-4v8" fill="none" stroke="white" stroke-width="1.5" pointer-events="none"/>
                </g>
                <g id="zoomMin">
                        <use xlink:href="#rim" fill="#404040">
                                <set attributeName="fill" to="#808080" begin="zoomminus.mouseover" end="zoomminus.mouseout"/>
                        </use>
                        <path d="M-4,0h8" fill="none" stroke="white" stroke-width="1.5" pointer-events="none"/>
                </g>
                <g id="dirArrow">
                        <path fill="none" stroke="white" stroke-width="1.5" d="M0,-3.0v7 M-2.5,-0.5L0,-3.0L2.5,-0.5"/>
                </g>
               <g id="resetDef">
                       <use xlink:href="#rim2" fill="#404040">
                               <set attributeName="fill" to="#808080" begin="reset.mouseover" end="reset.mouseout"/>
                       </use>
               </g>
        </defs>

<script type="text/javascript">
var viewWidth = 1313;
var viewHeight = 323;
var sectionId = 'dynsection-23';
</script>
<script xlink:href="svgpan.js"/>
<svg id="graph" class="graph">
<g id="viewport">
<title>connectionBuildResponse</title>
<!-- Node1 -->
<g id="node1" class="node">
<title>Node1</title>
<g id="a_node1"><a xlink:title="Builds the response for a client connection.">
<polygon fill="#bfbfbf" stroke="black" points="0,-95.5 0,-114.5 142,-114.5 142,-95.5 0,-95.5"/>
<text text-anchor="middle" x="71" y="-102.5" font-family="Helvetica,sans-Serif" font-size="10.00">connectionBuildResponse</text>
</a>
</g>
</g>
<!-- Node2 -->
<g id="node2" class="node">
<title>Node2</title>
<g id="a_node2"><a xlink:href="class_server.html#a4f36a7046be8e574b53ad3820216faef" target="_top" xlink:title="Wrapper function to ResponseBuilder::buildResponse.">
<polygon fill="none" stroke="black" points="186,-171.5 186,-190.5 311,-190.5 311,-171.5 186,-171.5"/>
<text text-anchor="middle" x="248.5" y="-178.5" font-family="Helvetica,sans-Serif" font-size="10.00">Server::buildResponse</text>
</a>
</g>
</g>
<!-- Node1&#45;&gt;Node2 -->
<g id="edge1" class="edge">
<title>Node1&#45;&gt;Node2</title>
<path fill="none" stroke="midnightblue" d="M94.23,-114.63C125.08,-127.99 181.06,-152.23 216.15,-167.42"/>
<polygon fill="midnightblue" stroke="midnightblue" points="214.89,-170.69 225.45,-171.45 217.67,-164.27 214.89,-170.69"/>
</g>
<!-- Node13 -->
<g id="node13" class="node">
<title>Node13</title>
<g id="a_node13"><a xlink:href="_server_8cpp.html#adcf8118ac987f6afae3aec0c54cc5f9f" target="_top" xlink:title="Sends the response to a client connection.">
<polygon fill="none" stroke="black" points="178,-95.5 178,-114.5 319,-114.5 319,-95.5 178,-95.5"/>
<text text-anchor="middle" x="248.5" y="-102.5" font-family="Helvetica,sans-Serif" font-size="10.00">connectionSendResponse</text>
</a>
</g>
</g>
<!-- Node1&#45;&gt;Node13 -->
<g id="edge12" class="edge">
<title>Node1&#45;&gt;Node13</title>
<path fill="none" stroke="midnightblue" d="M142.12,-105C150.47,-105 159.04,-105 167.51,-105"/>
<polygon fill="midnightblue" stroke="midnightblue" points="167.78,-108.5 177.78,-105 167.78,-101.5 167.78,-108.5"/>
</g>
<!-- Node22 -->
<g id="node22" class="node">
<title>Node22</title>
<g id="a_node22"><a xlink:href="class_server.html#a718bf76e7c3f830abb2f7b0972cdaa63" target="_top" xlink:title="Wrapper function to ResponseBuilder::getResponse.">
<polygon fill="none" stroke="black" points="190,-38.5 190,-57.5 307,-57.5 307,-38.5 190,-38.5"/>
<text text-anchor="middle" x="248.5" y="-45.5" font-family="Helvetica,sans-Serif" font-size="10.00">Server::getResponse</text>
</a>
</g>
</g>
<!-- Node1&#45;&gt;Node22 -->
<g id="edge21" class="edge">
<title>Node1&#45;&gt;Node22</title>
<path fill="none" stroke="midnightblue" d="M101.37,-95.46C130.73,-85.92 176.05,-71.21 208.43,-60.69"/>
<polygon fill="midnightblue" stroke="midnightblue" points="209.6,-63.99 218.03,-57.57 207.44,-57.33 209.6,-63.99"/>
</g>
<!-- Node3 -->
<g id="node3" class="node">
<title>Node3</title>
<g id="a_node3"><a xlink:href="class_response_builder.html#a0e5cc86c399698d20a3e33677772e8b0" target="_top" xlink:title="Build the response for a given request.">
<polygon fill="none" stroke="black" points="355,-193.5 355,-212.5 531,-212.5 531,-193.5 355,-193.5"/>
<text text-anchor="middle" x="443" y="-200.5" font-family="Helvetica,sans-Serif" font-size="10.00">ResponseBuilder::buildResponse</text>
</a>
</g>
</g>
<!-- Node2&#45;&gt;Node3 -->
<g id="edge2" class="edge">
<title>Node2&#45;&gt;Node3</title>
<path fill="none" stroke="midnightblue" d="M311.2,-188.05C323.09,-189.41 335.79,-190.86 348.43,-192.31"/>
<polygon fill="midnightblue" stroke="midnightblue" points="348.2,-195.8 358.53,-193.46 348.99,-188.85 348.2,-195.8"/>
</g>
<!-- Node4 -->
<g id="node4" class="node">
<title>Node4</title>
<g id="a_node4"><a xlink:href="class_response_body_handler.html#a0660b57e440e2c519761817d178818c0" target="_top" xlink:title="Create the response body.">
<polygon fill="none" stroke="black" points="579,-189 579,-219 706,-219 706,-189 579,-189"/>
<text text-anchor="start" x="587" y="-207" font-family="Helvetica,sans-Serif" font-size="10.00">ResponseBodyHandler</text>
<text text-anchor="middle" x="642.5" y="-196" font-family="Helvetica,sans-Serif" font-size="10.00">::execute</text>
</a>
</g>
</g>
<!-- Node3&#45;&gt;Node4 -->
<g id="edge3" class="edge">
<title>Node3&#45;&gt;Node4</title>
<path fill="none" stroke="midnightblue" d="M531.2,-203.44C543.71,-203.5 556.48,-203.57 568.67,-203.63"/>
<polygon fill="midnightblue" stroke="midnightblue" points="568.75,-207.13 578.77,-203.68 568.79,-200.13 568.75,-207.13"/>
</g>
<!-- Node5 -->
<g id="node5" class="node">
<title>Node5</title>
<g id="a_node5"><a xlink:href="class_autoindex_handler.html#a4ad00ccbce16e8913e108e9bf1114c3f" target="_top" xlink:title="Execute the autoindex handler.">
<polygon fill="none" stroke="black" points="754,-238.5 754,-257.5 903,-257.5 903,-238.5 754,-238.5"/>
<text text-anchor="middle" x="828.5" y="-245.5" font-family="Helvetica,sans-Serif" font-size="10.00">AutoindexHandler::execute</text>
</a>
</g>
</g>
<!-- Node4&#45;&gt;Node5 -->
<g id="edge4" class="edge">
<title>Node4&#45;&gt;Node5</title>
<path fill="none" stroke="midnightblue" d="M706.05,-218.96C729.45,-224.55 755.69,-230.83 777.78,-236.11"/>
<polygon fill="midnightblue" stroke="midnightblue" points="777.07,-239.54 787.61,-238.46 778.7,-232.73 777.07,-239.54"/>
</g>
<!-- Node12 -->
<g id="node12" class="node">
<title>Node12</title>
<g id="a_node12"><a xlink:href="class_file_system_policy.html#a700e01137b08674976427c869e078cc9" target="_top" xlink:title="Gets the contents of a file.">
<polygon fill="none" stroke="black" points="759.5,-189 759.5,-219 897.5,-219 897.5,-189 759.5,-189"/>
<text text-anchor="start" x="767.5" y="-207" font-family="Helvetica,sans-Serif" font-size="10.00">FileSystemPolicy::getFile</text>
<text text-anchor="middle" x="828.5" y="-196" font-family="Helvetica,sans-Serif" font-size="10.00">Contents</text>
</a>
</g>
</g>
<!-- Node4&#45;&gt;Node12 -->
<g id="edge11" class="edge">
<title>Node4&#45;&gt;Node12</title>
<path fill="none" stroke="midnightblue" d="M706.05,-204C719.88,-204 734.71,-204 749.08,-204"/>
<polygon fill="midnightblue" stroke="midnightblue" points="749.45,-207.5 759.45,-204 749.45,-200.5 749.45,-207.5"/>
</g>
<!-- Node6 -->
<g id="node6" class="node">
<title>Node6</title>
<g id="a_node6"><a xlink:href="class_directory.html#a09da8cd603ddb22990c5bb8165e14ea8" target="_top" xlink:title="Get the entries in the directory.">
<polygon fill="none" stroke="black" points="960,-295.5 960,-314.5 1076,-314.5 1076,-295.5 960,-295.5"/>
<text text-anchor="middle" x="1018" y="-302.5" font-family="Helvetica,sans-Serif" font-size="10.00">Directory::getEntries</text>
</a>
</g>
</g>
<!-- Node5&#45;&gt;Node6 -->
<g id="edge5" class="edge">
<title>Node5&#45;&gt;Node6</title>
<path fill="none" stroke="midnightblue" d="M854.94,-257.6C876.99,-265.74 909.85,-277.41 939,-286 947.35,-288.46 956.28,-290.85 964.99,-293.06"/>
<polygon fill="midnightblue" stroke="midnightblue" points="964.16,-296.46 974.7,-295.47 965.84,-289.67 964.16,-296.46"/>
</g>
<!-- Node8 -->
<g id="node8" class="node">
<title>Node8</title>
<g id="a_node8"><a xlink:href="_autoindex_handler_8cpp.html#aa1cdc5b5774ab502cc67a723e7634b3f" target="_top" xlink:title="Get the file size of a file.">
<polygon fill="none" stroke="black" points="983,-257.5 983,-276.5 1053,-276.5 1053,-257.5 983,-257.5"/>
<text text-anchor="middle" x="1018" y="-264.5" font-family="Helvetica,sans-Serif" font-size="10.00">getFileSize</text>
</a>
</g>
</g>
<!-- Node5&#45;&gt;Node8 -->
<g id="edge7" class="edge">
<title>Node5&#45;&gt;Node8</title>
<path fill="none" stroke="midnightblue" d="M903.07,-255.45C926.59,-257.84 951.89,-260.4 972.66,-262.51"/>
<polygon fill="midnightblue" stroke="midnightblue" points="972.47,-266.01 982.77,-263.53 973.17,-259.04 972.47,-266.01"/>
</g>
<!-- Node9 -->
<g id="node9" class="node">
<title>Node9</title>
<g id="a_node9"><a xlink:href="class_file_system_policy.html#ad2571bc684c5f8db457d8e282729f832" target="_top" xlink:title="Gets the file status of a path.">
<polygon fill="none" stroke="black" points="939,-219.5 939,-238.5 1097,-238.5 1097,-219.5 939,-219.5"/>
<text text-anchor="middle" x="1018" y="-226.5" font-family="Helvetica,sans-Serif" font-size="10.00">FileSystemPolicy::getFileStat</text>
</a>
</g>
</g>
<!-- Node5&#45;&gt;Node9 -->
<g id="edge8" class="edge">
<title>Node5&#45;&gt;Node9</title>
<path fill="none" stroke="midnightblue" d="M903.07,-240.55C911.47,-239.69 920.11,-238.82 928.68,-237.95"/>
<polygon fill="midnightblue" stroke="midnightblue" points="929.1,-241.42 938.7,-236.93 928.4,-234.46 929.1,-241.42"/>
</g>
<!-- Node10 -->
<g id="node10" class="node">
<title>Node10</title>
<g id="a_node10"><a xlink:href="_autoindex_handler_8cpp.html#a1ca36f6cd35dba3c07da2bc0e3380cf1" target="_top" xlink:title="Get the last modified time of a file.">
<polygon fill="none" stroke="black" points="958.5,-181.5 958.5,-200.5 1077.5,-200.5 1077.5,-181.5 958.5,-181.5"/>
<text text-anchor="middle" x="1018" y="-188.5" font-family="Helvetica,sans-Serif" font-size="10.00">getLastModifiedTime</text>
</a>
</g>
</g>
<!-- Node5&#45;&gt;Node10 -->
<g id="edge9" class="edge">
<title>Node5&#45;&gt;Node10</title>
<path fill="none" stroke="midnightblue" d="M873.17,-238.5C883.12,-235.84 893.54,-232.66 903,-229 919.87,-222.47 922.08,-216.41 939,-210 945.72,-207.45 952.9,-205.16 960.08,-203.13"/>
<polygon fill="midnightblue" stroke="midnightblue" points="961.07,-206.48 969.82,-200.51 959.25,-199.72 961.07,-206.48"/>
</g>
<!-- Node7 -->
<g id="node7" class="node">
<title>Node7</title>
<g id="a_node7"><a xlink:href="class_file_system_policy.html#ad23fadf21355a78cce6e905f61611469" target="_top" xlink:title="Reads a directory.">
<polygon fill="none" stroke="black" points="1133,-295.5 1133,-314.5 1305,-314.5 1305,-295.5 1133,-295.5"/>
<text text-anchor="middle" x="1219" y="-302.5" font-family="Helvetica,sans-Serif" font-size="10.00">FileSystemPolicy::readDirectory</text>
</a>
</g>
</g>
<!-- Node6&#45;&gt;Node7 -->
<g id="edge6" class="edge">
<title>Node6&#45;&gt;Node7</title>
<path fill="none" stroke="midnightblue" d="M1076.03,-305C1090.53,-305 1106.53,-305 1122.39,-305"/>
<polygon fill="midnightblue" stroke="midnightblue" points="1122.77,-308.5 1132.77,-305 1122.77,-301.5 1122.77,-308.5"/>
</g>
<!-- Node11 -->
<g id="node11" class="node">
<title>Node11</title>
<g id="a_node11"><a xlink:href="namespacewebutils.html#ab6119b08526700518f576bb78554be59" target="_top" xlink:title="Returns localtime string in provided format.">
<polygon fill="none" stroke="black" points="1141,-181.5 1141,-200.5 1297,-200.5 1297,-181.5 1141,-181.5"/>
<text text-anchor="middle" x="1219" y="-188.5" font-family="Helvetica,sans-Serif" font-size="10.00">webutils::getLocaltimeString</text>
</a>
</g>
</g>
<!-- Node10&#45;&gt;Node11 -->
<g id="edge10" class="edge">
<title>Node10&#45;&gt;Node11</title>
<path fill="none" stroke="midnightblue" d="M1077.63,-191C1094.29,-191 1112.8,-191 1130.76,-191"/>
<polygon fill="midnightblue" stroke="midnightblue" points="1130.96,-194.5 1140.96,-191 1130.96,-187.5 1130.96,-194.5"/>
</g>
<!-- Node14 -->
<g id="node14" class="node">
<title>Node14</title>
<g id="a_node14"><a xlink:href="_connection_8hpp.html#a1787b72853fa3a6146cea621fa1d0d65" target="_top" xlink:title=" ">
<polygon fill="none" stroke="black" points="395.5,-152.5 395.5,-171.5 490.5,-171.5 490.5,-152.5 395.5,-152.5"/>
<text text-anchor="middle" x="443" y="-159.5" font-family="Helvetica,sans-Serif" font-size="10.00">clearConnection</text>
</a>
</g>
</g>
<!-- Node13&#45;&gt;Node14 -->
<g id="edge13" class="edge">
<title>Node13&#45;&gt;Node14</title>
<path fill="none" stroke="midnightblue" d="M273.09,-114.5C294.28,-122.79 326.38,-134.76 355,-143 364.69,-145.79 375.1,-148.39 385.22,-150.72"/>
<polygon fill="midnightblue" stroke="midnightblue" points="384.69,-154.19 395.21,-152.96 386.22,-147.36 384.69,-154.19"/>
</g>
<!-- Node17 -->
<g id="node17" class="node">
<title>Node17</title>
<g id="a_node17"><a xlink:href="class_server.html#a54745950beb9e321d9a56084501c18e9" target="_top" xlink:title="Const Getter for server configs.">
<polygon fill="none" stroke="black" points="374.5,-114.5 374.5,-133.5 511.5,-133.5 511.5,-114.5 374.5,-114.5"/>
<text text-anchor="middle" x="443" y="-121.5" font-family="Helvetica,sans-Serif" font-size="10.00">Server::getServerConfigs</text>
</a>
</g>
</g>
<!-- Node13&#45;&gt;Node17 -->
<g id="edge16" class="edge">
<title>Node13&#45;&gt;Node17</title>
<path fill="none" stroke="midnightblue" d="M319.27,-111.89C333.87,-113.33 349.35,-114.86 364.22,-116.32"/>
<polygon fill="midnightblue" stroke="midnightblue" points="364.1,-119.83 374.4,-117.33 364.79,-112.86 364.1,-119.83"/>
</g>
<!-- Node18 -->
<g id="node18" class="node">
<title>Node18</title>
<g id="a_node18"><a xlink:href="class_server.html#afab1a4ec9e524b0dae8f60080642e7fe" target="_top" xlink:title="Wrapper function to EpollWrapper::modifyEvent.">
<polygon fill="none" stroke="black" points="385,-76.5 385,-95.5 501,-95.5 501,-76.5 385,-76.5"/>
<text text-anchor="middle" x="443" y="-83.5" font-family="Helvetica,sans-Serif" font-size="10.00">Server::modifyEvent</text>
</a>
</g>
</g>
<!-- Node13&#45;&gt;Node18 -->
<g id="edge17" class="edge">
<title>Node13&#45;&gt;Node18</title>
<path fill="none" stroke="midnightblue" d="M319.27,-98.11C337.34,-96.33 356.77,-94.41 374.71,-92.64"/>
<polygon fill="midnightblue" stroke="midnightblue" points="375.19,-96.11 384.79,-91.65 374.5,-89.15 375.19,-96.11"/>
</g>
<!-- Node20 -->
<g id="node20" class="node">
<title>Node20</title>
<g id="a_node20"><a xlink:href="class_server.html#a8bf2a41e8ddcccd54b5832b58211a283" target="_top" xlink:title="Wrapper function to SocketPolicy::writeToSocket.">
<polygon fill="none" stroke="black" points="382,-38.5 382,-57.5 504,-57.5 504,-38.5 382,-38.5"/>
<text text-anchor="middle" x="443" y="-45.5" font-family="Helvetica,sans-Serif" font-size="10.00">Server::writeToSocket</text>
</a>
</g>
</g>
<!-- Node13&#45;&gt;Node20 -->
<g id="edge19" class="edge">
<title>Node13&#45;&gt;Node20</title>
<path fill="none" stroke="midnightblue" d="M273.09,-95.5C294.28,-87.21 326.38,-75.24 355,-67 364.04,-64.4 373.7,-61.96 383.17,-59.75"/>
<polygon fill="midnightblue" stroke="midnightblue" points="383.96,-63.16 392.94,-57.54 382.42,-56.33 383.96,-63.16"/>
</g>
<!-- Node15 -->
<g id="node15" class="node">
<title>Node15</title>
<g id="a_node15"><a xlink:href="_connection_8cpp.html#a354192f8dd87ca049cf8b7e6de9000da" target="_top" xlink:title="Selects the server configuration for a connection.">
<polygon fill="none" stroke="black" points="582.5,-150.5 582.5,-169.5 702.5,-169.5 702.5,-150.5 582.5,-150.5"/>
<text text-anchor="middle" x="642.5" y="-157.5" font-family="Helvetica,sans-Serif" font-size="10.00">hasValidServerConfig</text>
</a>
</g>
</g>
<!-- Node14&#45;&gt;Node15 -->
<g id="edge14" class="edge">
<title>Node14&#45;&gt;Node15</title>
<path fill="none" stroke="midnightblue" d="M490.8,-161.53C515.08,-161.28 545.21,-160.98 572.13,-160.7"/>
<polygon fill="midnightblue" stroke="midnightblue" points="572.31,-164.2 582.28,-160.6 572.24,-157.2 572.31,-164.2"/>
</g>
<!-- Node16 -->
<g id="node16" class="node">
<title>Node16</title>
<g id="a_node16"><a xlink:href="_connection_8cpp.html#ac4fdfd0273b5ff94aefbdc973ac49ead" target="_top" xlink:title="Find matching server configurations for a server socket.">
<polygon fill="none" stroke="black" points="755,-150.5 755,-169.5 902,-169.5 902,-150.5 755,-150.5"/>
<text text-anchor="middle" x="828.5" y="-157.5" font-family="Helvetica,sans-Serif" font-size="10.00">findMatchingServerConfigs</text>
</a>
</g>
</g>
<!-- Node15&#45;&gt;Node16 -->
<g id="edge15" class="edge">
<title>Node15&#45;&gt;Node16</title>
<path fill="none" stroke="midnightblue" d="M702.73,-160C716.09,-160 730.51,-160 744.63,-160"/>
<polygon fill="midnightblue" stroke="midnightblue" points="744.85,-163.5 754.85,-160 744.85,-156.5 744.85,-163.5"/>
</g>
<!-- Node19 -->
<g id="node19" class="node">
<title>Node19</title>
<g id="a_node19"><a xlink:href="class_epoll_wrapper.html#ac97945725185999837a6d0d53f91df1a" target="_top" xlink:title="Modify an event in the epoll instance.">
<polygon fill="none" stroke="black" points="568,-76.5 568,-95.5 717,-95.5 717,-76.5 568,-76.5"/>
<text text-anchor="middle" x="642.5" y="-83.5" font-family="Helvetica,sans-Serif" font-size="10.00">EpollWrapper::modifyEvent</text>
</a>
</g>
</g>
<!-- Node18&#45;&gt;Node19 -->
<g id="edge18" class="edge">
<title>Node18&#45;&gt;Node19</title>
<path fill="none" stroke="midnightblue" d="M501.13,-86C518.8,-86 538.65,-86 557.73,-86"/>
<polygon fill="midnightblue" stroke="midnightblue" points="557.93,-89.5 567.93,-86 557.93,-82.5 557.93,-89.5"/>
</g>
<!-- Node21 -->
<g id="node21" class="node">
<title>Node21</title>
<g id="a_node21"><a xlink:href="class_socket_policy.html#a2be07593236ccf70a7ddd7fc8d8b0af1" target="_top" xlink:title="Write to a socket.">
<polygon fill="none" stroke="black" points="567,-38.5 567,-57.5 718,-57.5 718,-38.5 567,-38.5"/>
<text text-anchor="middle" x="642.5" y="-45.5" font-family="Helvetica,sans-Serif" font-size="10.00">SocketPolicy::writeToSocket</text>
</a>
</g>
</g>
<!-- Node20&#45;&gt;Node21 -->
<g id="edge20" class="edge">
<title>Node20&#45;&gt;Node21</title>
<path fill="none" stroke="midnightblue" d="M504.06,-48C520.57,-48 538.79,-48 556.42,-48"/>
<polygon fill="midnightblue" stroke="midnightblue" points="556.71,-51.5 566.71,-48 556.71,-44.5 556.71,-51.5"/>
</g>
<!-- Node23 -->
<g id="node23" class="node">
<title>Node23</title>
<g id="a_node23"><a xlink:href="class_response_builder.html#adf7d2f0fbb7f5b6866eb884fb2c17e88" target="_top" xlink:title="Get the built response.">
<polygon fill="none" stroke="black" points="359.5,-0.5 359.5,-19.5 526.5,-19.5 526.5,-0.5 359.5,-0.5"/>
<text text-anchor="middle" x="443" y="-7.5" font-family="Helvetica,sans-Serif" font-size="10.00">ResponseBuilder::getResponse</text>
</a>
</g>
</g>
<!-- Node22&#45;&gt;Node23 -->
<g id="edge22" class="edge">
<title>Node22&#45;&gt;Node23</title>
<path fill="none" stroke="midnightblue" d="M298.08,-38.41C324.16,-33.26 356.51,-26.88 383.92,-21.47"/>
<polygon fill="midnightblue" stroke="midnightblue" points="384.64,-24.89 393.77,-19.52 383.28,-18.02 384.64,-24.89"/>
</g>
</g>
</svg>
        <g id="navigator" transform="translate(0 0)" fill="#404254">
                <rect fill="#f2f5e9" fill-opacity="0.5" stroke="#606060" stroke-width=".5" x="0" y="0" width="60" height="60"/>
                <use id="zoomplus" xlink:href="#zoomPlus" x="17" y="9" onmousedown="handleZoom(evt,'in')"/>
                <use id="zoomminus" xlink:href="#zoomMin" x="42" y="9" onmousedown="handleZoom(evt,'out')"/>
                <use id="reset" xlink:href="#resetDef" x="30" y="36" onmousedown="handleReset()"/>
                <g id="arrowUp" xlink:href="#dirArrow" transform="translate(30 24)" onmousedown="handlePan(0,-1)">
                  <use xlink:href="#rim" fill="#404040">
                        <set attributeName="fill" to="#808080" begin="arrowUp.mouseover" end="arrowUp.mouseout"/>
                  </use>
                  <path fill="none" stroke="white" stroke-width="1.5" d="M0,-3.0v7 M-2.5,-0.5L0,-3.0L2.5,-0.5"/>
                </g>
                <g id="arrowRight" xlink:href="#dirArrow" transform="rotate(90) translate(36 -43)" onmousedown="handlePan(1,0)">
                  <use xlink:href="#rim" fill="#404040">
                        <set attributeName="fill" to="#808080" begin="arrowRight.mouseover" end="arrowRight.mouseout"/>
                  </use>
                  <path fill="none" stroke="white" stroke-width="1.5" d="M0,-3.0v7 M-2.5,-0.5L0,-3.0L2.5,-0.5"/>
                </g>
                <g id="arrowDown" xlink:href="#dirArrow" transform="rotate(180) translate(-30 -48)" onmousedown="handlePan(0,1)">
                  <use xlink:href="#rim" fill="#404040">
                        <set attributeName="fill" to="#808080" begin="arrowDown.mouseover" end="arrowDown.mouseout"/>
                  </use>
                  <path fill="none" stroke="white" stroke-width="1.5" d="M0,-3.0v7 M-2.5,-0.5L0,-3.0L2.5,-0.5"/>
                </g>
                <g id="arrowLeft" xlink:href="#dirArrow" transform="rotate(270) translate(-36 17)" onmousedown="handlePan(-1,0)">
                  <use xlink:href="#rim" fill="#404040">
                        <set attributeName="fill" to="#808080" begin="arrowLeft.mouseover" end="arrowLeft.mouseout"/>
                  </use>
                  <path fill="none" stroke="white" stroke-width="1.5" d="M0,-3.0v7 M-2.5,-0.5L0,-3.0L2.5,-0.5"/>
                </g>
        </g>
        <svg viewBox="0 0 15 15" width="100%" height="30px" preserveAspectRatio="xMaxYMin meet">
         <g id="arrow_out" transform="scale(0.3 0.3)">
          <a xlink:href="_server_8cpp_ac98878a19797a7f939c3a5ea1e028e56_cgraph_org.svg" target="_base">
           <rect id="button" ry="5" rx="5" y="6" x="6" height="38" width="38"
                fill="#f2f5e9" fill-opacity="0.5" stroke="#606060" stroke-width="1.0"/>
           <path id="arrow"
             d="M 11.500037,31.436501 C 11.940474,20.09759 22.043105,11.32322 32.158766,21.979434 L 37.068811,17.246167 C 37.068811,17.246167 37.088388,32 37.088388,32 L 22.160133,31.978069 C 22.160133,31.978069 26.997745,27.140456 26.997745,27.140456 C 18.528582,18.264221 13.291696,25.230495 11.500037,31.436501 z"
             style="fill:#404040;"/>
          </a>
         </g>
        </svg>
</svg>
