<?xml version="1.0" encoding="UTF-8" standalone="no"?>
<!DOCTYPE svg PUBLIC "-//W3C//DTD SVG 1.1//EN"
 "http://www.w3.org/Graphics/SVG/1.1/DTD/svg11.dtd">
<!-- Generated by graphviz version 2.43.0 (0)
 -->
<!-- Title: isCGIRequested Pages: 1 -->
<!--zoomable 565 -->

<svg id="main" version="1.1" xmlns="http://www.w3.org/2000/svg" xmlns:xlink="http://www.w3.org/1999/xlink" xml:space="preserve" onload="init(evt)">
<style type="text/css"><![CDATA[
.node, .edge {opacity: 0.7;}
.node.selected, .edge.selected {opacity: 1;}
.edge:hover path { stroke: red; }
.edge:hover polygon { stroke: red; fill: red; }
]]></style>

<defs>
  <circle id="rim" cx="0" cy="0" r="7"/>
  <circle id="rim2" cx="0" cy="0" r="3.5"/>
  <g id="zoomPlus">
    <use xlink:href="#rim" fill="#404040"><set attributeName="fill" to="#808080" begin="zoomplus.mouseover" end="zoomplus.mouseout"/></use>
    <path d="M-4,0h8M0,-4v8" fill="none" stroke="white" stroke-width="1.5" pointer-events="none"/>
  </g>
  <g id="zoomMin">
    <use xlink:href="#rim" fill="#404040"><set attributeName="fill" to="#808080" begin="zoomminus.mouseover" end="zoomminus.mouseout"/></use>
    <path d="M-4,0h8" fill="none" stroke="white" stroke-width="1.5" pointer-events="none"/>
  </g>
  <g id="arrowUp" transform="translate(30 24)">
    <use xlink:href="#rim"/>
    <path pointer-events="none" fill="none" stroke="white" stroke-width="1.5" d="M0,-3.0v7 M-2.5,-0.5L0,-3.0L2.5,-0.5"/>
  </g>
  <g id="arrowRight" transform="rotate(90) translate(36 -43)">
    <use xlink:href="#rim"/>
    <path pointer-events="none" fill="none" stroke="white" stroke-width="1.5" d="M0,-3.0v7 M-2.5,-0.5L0,-3.0L2.5,-0.5"/>
  </g>
  <g id="arrowDown" transform="rotate(180) translate(-30 -48)">
    <use xlink:href="#rim"/>
    <path pointer-events="none" fill="none" stroke="white" stroke-width="1.5" d="M0,-3.0v7 M-2.5,-0.5L0,-3.0L2.5,-0.5"/>
  </g>
  <g id="arrowLeft" transform="rotate(270) translate(-36 17)">
    <use xlink:href="#rim"/>
    <path pointer-events="none" fill="none" stroke="white" stroke-width="1.5" d="M0,-3.0v7 M-2.5,-0.5L0,-3.0L2.5,-0.5"/>
  </g>
  <g id="resetDef">
    <use xlink:href="#rim2" fill="#404040"><set attributeName="fill" to="#808080" begin="reset.mouseover" end="reset.mouseout"/></use>
  </g>
</defs>
<script type="application/ecmascript">
var viewWidth = 1051;
var viewHeight = 565;
var sectionId = 'dynsection-17';
</script>
<script type="application/ecmascript" xlink:href="svg.min.js"/>
<svg id="graph" class="graph">
<g id="viewport">
<title>isCGIRequested</title>
<!-- Node1 -->
<g id="Node000001" class="node">
<title>Node1</title>
<g id="a_Node000001"><a xlink:title="Checks if a CGI request is made based on the connection details.">
<polygon fill="#999999" stroke="#666666" points="1043,-185 949,-185 949,-166 1043,-166 1043,-185"/>
<text text-anchor="middle" x="996" y="-173" font-family="Helvetica,sans-Serif" font-size="10.00">isCGIRequested</text>
</a>
</g>
</g>
<!-- Node2 -->
<g id="Node000002" class="node">
<title>Node2</title>
<g id="a_Node000002"><a xlink:href="_server_8cpp.html#a83350eae81b96dd7b301d1238268ffdb" target="_top" xlink:title="Handles the complete request header received from a client.">
<polygon fill="white" stroke="#666666" points="913,-185 741,-185 741,-166 913,-166 913,-185"/>
<text text-anchor="middle" x="827" y="-173" font-family="Helvetica,sans-Serif" font-size="10.00">handleCompleteRequestHeader</text>
</a>
</g>
</g>
<!-- Node1&#45;&gt;Node2 -->
<g id="edge1_Node000001_Node000002" class="edge">
<title>Node1&#45;&gt;Node2</title>
<g id="a_edge1_Node000001_Node000002"><a xlink:title=" ">
<path fill="none" stroke="#63b8ff" d="M938.68,-175.5C930.4,-175.5 921.72,-175.5 913.02,-175.5"/>
<polygon fill="#63b8ff" stroke="#63b8ff" points="938.92,-179 948.92,-175.5 938.92,-172 938.92,-179"/>
</a>
</g>
</g>
<!-- Node3 -->
<g id="Node000003" class="node">
<title>Node3</title>
<g id="a_Node000003"><a xlink:href="_server_8cpp.html#aa45d6529fd7be9b7adf788a9679ae34b" target="_top" xlink:title="Receive request header from a client.">
<polygon fill="white" stroke="#666666" points="705,-352 561,-352 561,-333 705,-333 705,-352"/>
<text text-anchor="middle" x="633" y="-340" font-family="Helvetica,sans-Serif" font-size="10.00">connectionReceiveHeader</text>
</a>
</g>
</g>
<!-- Node2&#45;&gt;Node3 -->
<g id="edge2_Node000002_Node000003" class="edge">
<title>Node2&#45;&gt;Node3</title>
<g id="a_edge2_Node000002_Node000003"><a xlink:title=" ">
<path fill="none" stroke="#63b8ff" d="M815.93,-194.27C797.97,-225.91 757.33,-289.7 705,-323.5 699,-327.38 692.22,-330.47 685.3,-332.93"/>
<polygon fill="#63b8ff" stroke="#63b8ff" points="819.17,-195.65 820.95,-185.21 813.04,-192.26 819.17,-195.65"/>
</a>
</g>
</g>
<!-- Node22 -->
<g id="Node000022" class="node">
<title>Node22</title>
<g id="a_Node000022"><a xlink:href="test__handle_complete_request_header_8cpp.html#a04308ae6ca27d5aac2ee1ae95e818f78" target="_top" xlink:title=" ">
<polygon fill="white" stroke="#666666" points="659,-315 607,-315 607,-296 659,-296 659,-315"/>
<text text-anchor="middle" x="633" y="-303" font-family="Helvetica,sans-Serif" font-size="10.00">TEST_F</text>
</a>
</g>
</g>
<!-- Node2&#45;&gt;Node22 -->
<g id="edge22_Node000002_Node000022" class="edge">
<title>Node2&#45;&gt;Node22</title>
<g id="a_edge22_Node000002_Node000022"><a xlink:title=" ">
<path fill="none" stroke="#63b8ff" d="M811.85,-192.96C791.03,-217.51 749.71,-261.96 705,-286.5 690.79,-294.3 673.21,-299.03 659.09,-301.83"/>
<polygon fill="#63b8ff" stroke="#63b8ff" points="814.63,-195.1 818.34,-185.17 809.25,-190.62 814.63,-195.1"/>
</a>
</g>
</g>
<!-- Node23 -->
<g id="Node000023" class="node">
<title>Node23</title>
<g id="a_Node000023"><a xlink:href="test__handle_complete_request_header_8cpp.html#a00d3c07453ceb8ca6576a951222a7829" target="_top" xlink:title=" ">
<polygon fill="white" stroke="#666666" points="659,-278 607,-278 607,-259 659,-259 659,-278"/>
<text text-anchor="middle" x="633" y="-266" font-family="Helvetica,sans-Serif" font-size="10.00">TEST_F</text>
</a>
</g>
</g>
<!-- Node2&#45;&gt;Node23 -->
<g id="edge23_Node000002_Node000023" class="edge">
<title>Node2&#45;&gt;Node23</title>
<g id="a_edge23_Node000002_Node000023"><a xlink:title=" ">
<path fill="none" stroke="#63b8ff" d="M804.82,-191.07C781.43,-207.62 742.16,-233.56 705,-249.5 690.34,-255.79 673.07,-260.46 659.23,-263.61"/>
<polygon fill="#63b8ff" stroke="#63b8ff" points="807.16,-193.7 813.25,-185.02 803.08,-188.01 807.16,-193.7"/>
</a>
</g>
</g>
<!-- Node24 -->
<g id="Node000024" class="node">
<title>Node24</title>
<g id="a_Node000024"><a xlink:href="test__handle_complete_request_header_8cpp.html#a739ac2f372ed080518c9ed3fc1365fbb" target="_top" xlink:title=" ">
<polygon fill="white" stroke="#666666" points="659,-241 607,-241 607,-222 659,-222 659,-241"/>
<text text-anchor="middle" x="633" y="-229" font-family="Helvetica,sans-Serif" font-size="10.00">TEST_F</text>
</a>
</g>
</g>
<!-- Node2&#45;&gt;Node24 -->
<g id="edge24_Node000002_Node000024" class="edge">
<title>Node2&#45;&gt;Node24</title>
<g id="a_edge24_Node000002_Node000024"><a xlink:title=" ">
<path fill="none" stroke="#63b8ff" d="M786.12,-188.08C762.58,-195.41 732.16,-204.72 705,-212.5 689.79,-216.86 672.66,-221.45 659.03,-225.03"/>
<polygon fill="#63b8ff" stroke="#63b8ff" points="787.25,-191.39 795.75,-185.07 785.17,-184.71 787.25,-191.39"/>
</a>
</g>
</g>
<!-- Node25 -->
<g id="Node000025" class="node">
<title>Node25</title>
<g id="a_Node000025"><a xlink:href="test__handle_complete_request_header_8cpp.html#a41eb7e7a9579a02f45e0d1c867697058" target="_top" xlink:title=" ">
<polygon fill="white" stroke="#666666" points="659,-204 607,-204 607,-185 659,-185 659,-204"/>
<text text-anchor="middle" x="633" y="-192" font-family="Helvetica,sans-Serif" font-size="10.00">TEST_F</text>
</a>
</g>
</g>
<!-- Node2&#45;&gt;Node25 -->
<g id="edge25_Node000002_Node000025" class="edge">
<title>Node2&#45;&gt;Node25</title>
<g id="a_edge25_Node000002_Node000025"><a xlink:title=" ">
<path fill="none" stroke="#63b8ff" d="M730.82,-184.92C704.34,-187.54 677.78,-190.17 659.19,-192.01"/>
<polygon fill="#63b8ff" stroke="#63b8ff" points="731.34,-188.38 740.95,-183.92 730.65,-181.42 731.34,-188.38"/>
</a>
</g>
</g>
<!-- Node26 -->
<g id="Node000026" class="node">
<title>Node26</title>
<g id="a_Node000026"><a xlink:href="test__handle_complete_request_header_8cpp.html#aabe4d1cee9e0a7c2d66aa6d1b7d5c7cd" target="_top" xlink:title=" ">
<polygon fill="white" stroke="#666666" points="659,-167 607,-167 607,-148 659,-148 659,-167"/>
<text text-anchor="middle" x="633" y="-155" font-family="Helvetica,sans-Serif" font-size="10.00">TEST_F</text>
</a>
</g>
</g>
<!-- Node2&#45;&gt;Node26 -->
<g id="edge26_Node000002_Node000026" class="edge">
<title>Node2&#45;&gt;Node26</title>
<g id="a_edge26_Node000002_Node000026"><a xlink:title=" ">
<path fill="none" stroke="#63b8ff" d="M730.82,-166.58C704.34,-164.09 677.78,-161.6 659.19,-159.86"/>
<polygon fill="#63b8ff" stroke="#63b8ff" points="730.66,-170.08 740.95,-167.53 731.32,-163.11 730.66,-170.08"/>
</a>
</g>
</g>
<!-- Node27 -->
<g id="Node000027" class="node">
<title>Node27</title>
<g id="a_Node000027"><a xlink:href="test__handle_complete_request_header_8cpp.html#a5705d4672adfefa8169bd3e9406e75f6" target="_top" xlink:title=" ">
<polygon fill="white" stroke="#666666" points="659,-130 607,-130 607,-111 659,-111 659,-130"/>
<text text-anchor="middle" x="633" y="-118" font-family="Helvetica,sans-Serif" font-size="10.00">TEST_F</text>
</a>
</g>
</g>
<!-- Node2&#45;&gt;Node27 -->
<g id="edge27_Node000002_Node000027" class="edge">
<title>Node2&#45;&gt;Node27</title>
<g id="a_edge27_Node000002_Node000027"><a xlink:title=" ">
<path fill="none" stroke="#63b8ff" d="M786.63,-162.93C763.04,-155.54 732.4,-146.16 705,-138.5 689.81,-134.26 672.68,-129.9 659.05,-126.54"/>
<polygon fill="#63b8ff" stroke="#63b8ff" points="785.69,-166.31 796.28,-165.97 787.8,-159.63 785.69,-166.31"/>
</a>
</g>
</g>
<!-- Node28 -->
<g id="Node000028" class="node">
<title>Node28</title>
<g id="a_Node000028"><a xlink:href="test__handle_complete_request_header_8cpp.html#a63c4237c8b0edef77a20f599133d77d4" target="_top" xlink:title=" ">
<polygon fill="white" stroke="#666666" points="659,-93 607,-93 607,-74 659,-74 659,-93"/>
<text text-anchor="middle" x="633" y="-81" font-family="Helvetica,sans-Serif" font-size="10.00">TEST_F</text>
</a>
</g>
</g>
<!-- Node2&#45;&gt;Node28 -->
<g id="edge28_Node000002_Node000028" class="edge">
<title>Node2&#45;&gt;Node28</title>
<g id="a_edge28_Node000002_Node000028"><a xlink:title=" ">
<path fill="none" stroke="#63b8ff" d="M805.17,-160.05C781.85,-143.43 742.43,-117.26 705,-101.5 690.35,-95.33 673.08,-90.89 659.24,-87.97"/>
<polygon fill="#63b8ff" stroke="#63b8ff" points="803.12,-162.89 813.27,-165.91 807.22,-157.22 803.12,-162.89"/>
</a>
</g>
</g>
<!-- Node29 -->
<g id="Node000029" class="node">
<title>Node29</title>
<g id="a_Node000029"><a xlink:href="test__handle_complete_request_header_8cpp.html#a7e6245bb424d27191d406b619a2fe40b" target="_top" xlink:title=" ">
<polygon fill="white" stroke="#666666" points="659,-56 607,-56 607,-37 659,-37 659,-56"/>
<text text-anchor="middle" x="633" y="-44" font-family="Helvetica,sans-Serif" font-size="10.00">TEST_F</text>
</a>
</g>
</g>
<!-- Node2&#45;&gt;Node29 -->
<g id="edge29_Node000002_Node000029" class="edge">
<title>Node2&#45;&gt;Node29</title>
<g id="a_edge29_Node000002_Node000029"><a xlink:title=" ">
<path fill="none" stroke="#63b8ff" d="M811.9,-157.96C791.12,-133.31 749.87,-88.74 705,-64.5 690.79,-56.82 673.21,-52.33 659.09,-49.76"/>
<polygon fill="#63b8ff" stroke="#63b8ff" points="809.29,-160.3 818.36,-165.78 814.69,-155.84 809.29,-160.3"/>
</a>
</g>
</g>
<!-- Node30 -->
<g id="Node000030" class="node">
<title>Node30</title>
<g id="a_Node000030"><a xlink:href="test__handle_complete_request_header_8cpp.html#a81f58aa1f3c7c6dde6c93f27c83618d7" target="_top" xlink:title=" ">
<polygon fill="white" stroke="#666666" points="659,-19 607,-19 607,0 659,0 659,-19"/>
<text text-anchor="middle" x="633" y="-7" font-family="Helvetica,sans-Serif" font-size="10.00">TEST_F</text>
</a>
</g>
</g>
<!-- Node2&#45;&gt;Node30 -->
<g id="edge30_Node000002_Node000030" class="edge">
<title>Node2&#45;&gt;Node30</title>
<g id="a_edge30_Node000002_Node000030"><a xlink:title=" ">
<path fill="none" stroke="#63b8ff" d="M815.98,-156.65C798.08,-124.9 757.55,-60.95 705,-27.5 691.27,-18.76 673.52,-14.26 659.2,-11.94"/>
<polygon fill="#63b8ff" stroke="#63b8ff" points="813.09,-158.67 820.98,-165.75 819.23,-155.3 813.09,-158.67"/>
</a>
</g>
</g>
<!-- Node4 -->
<g id="Node000004" class="node">
<title>Node4</title>
<g id="a_Node000004"><a xlink:href="_server_8cpp.html#afb62203471d9a64b23d0267d5a4a261a" target="_top" xlink:title="Handle a client connection.">
<polygon fill="white" stroke="#666666" points="525,-445 421,-445 421,-426 525,-426 525,-445"/>
<text text-anchor="middle" x="473" y="-433" font-family="Helvetica,sans-Serif" font-size="10.00">handleConnection</text>
</a>
</g>
</g>
<!-- Node3&#45;&gt;Node4 -->
<g id="edge3_Node000003_Node000004" class="edge">
<title>Node3&#45;&gt;Node4</title>
<g id="a_edge3_Node000003_Node000004"><a xlink:title=" ">
<path fill="none" stroke="#63b8ff" d="M612.05,-358.56C591.25,-374.75 557.24,-399.68 525,-416.5 518.21,-420.04 510.62,-423.24 503.4,-425.97"/>
<polygon fill="#63b8ff" stroke="#63b8ff" points="614.42,-361.15 620.11,-352.21 610.09,-355.65 614.42,-361.15"/>
</a>
</g>
</g>
<!-- Node17 -->
<g id="Node000017" class="node">
<title>Node17</title>
<g id="a_Node000017"><a xlink:href="test__connection_receive_header_8cpp.html#ae40546436ca5ae6d8af1f754dfff4a98" target="_top" xlink:title=" ">
<polygon fill="white" stroke="#666666" points="499,-408 447,-408 447,-389 499,-389 499,-408"/>
<text text-anchor="middle" x="473" y="-396" font-family="Helvetica,sans-Serif" font-size="10.00">TEST_F</text>
</a>
</g>
</g>
<!-- Node3&#45;&gt;Node17 -->
<g id="edge17_Node000003_Node000017" class="edge">
<title>Node3&#45;&gt;Node17</title>
<g id="a_edge17_Node000003_Node000017"><a xlink:title=" ">
<path fill="none" stroke="#63b8ff" d="M595.3,-355.51C565.82,-365.96 525.18,-380.36 499.24,-389.55"/>
<polygon fill="#63b8ff" stroke="#63b8ff" points="596.58,-358.77 604.84,-352.13 594.24,-352.17 596.58,-358.77"/>
</a>
</g>
</g>
<!-- Node18 -->
<g id="Node000018" class="node">
<title>Node18</title>
<g id="a_Node000018"><a xlink:href="test__connection_receive_header_8cpp.html#a0952222a64d85993a5b3d9022826859c" target="_top" xlink:title=" ">
<polygon fill="white" stroke="#666666" points="499,-371 447,-371 447,-352 499,-352 499,-371"/>
<text text-anchor="middle" x="473" y="-359" font-family="Helvetica,sans-Serif" font-size="10.00">TEST_F</text>
</a>
</g>
</g>
<!-- Node3&#45;&gt;Node18 -->
<g id="edge18_Node000003_Node000018" class="edge">
<title>Node3&#45;&gt;Node18</title>
<g id="a_edge18_Node000003_Node000018"><a xlink:title=" ">
<path fill="none" stroke="#63b8ff" d="M550.72,-352.27C531.89,-354.54 513.25,-356.78 499.05,-358.49"/>
<polygon fill="#63b8ff" stroke="#63b8ff" points="551.35,-355.72 560.86,-351.06 550.51,-348.77 551.35,-355.72"/>
</a>
</g>
</g>
<!-- Node19 -->
<g id="Node000019" class="node">
<title>Node19</title>
<g id="a_Node000019"><a xlink:href="test__connection_receive_header_8cpp.html#a492a1135a23e13de8b412f266f5422dd" target="_top" xlink:title=" ">
<polygon fill="white" stroke="#666666" points="499,-334 447,-334 447,-315 499,-315 499,-334"/>
<text text-anchor="middle" x="473" y="-322" font-family="Helvetica,sans-Serif" font-size="10.00">TEST_F</text>
</a>
</g>
</g>
<!-- Node3&#45;&gt;Node19 -->
<g id="edge19_Node000003_Node000019" class="edge">
<title>Node3&#45;&gt;Node19</title>
<g id="a_edge19_Node000003_Node000019"><a xlink:title=" ">
<path fill="none" stroke="#63b8ff" d="M550.72,-333.24C531.89,-331.1 513.25,-328.97 499.05,-327.35"/>
<polygon fill="#63b8ff" stroke="#63b8ff" points="550.53,-336.74 560.86,-334.4 551.32,-329.79 550.53,-336.74"/>
</a>
</g>
</g>
<!-- Node20 -->
<g id="Node000020" class="node">
<title>Node20</title>
<g id="a_Node000020"><a xlink:href="test__connection_receive_header_8cpp.html#a42aad638a3786700de9108d63bbba850" target="_top" xlink:title=" ">
<polygon fill="white" stroke="#666666" points="499,-297 447,-297 447,-278 499,-278 499,-297"/>
<text text-anchor="middle" x="473" y="-285" font-family="Helvetica,sans-Serif" font-size="10.00">TEST_F</text>
</a>
</g>
</g>
<!-- Node3&#45;&gt;Node20 -->
<g id="edge20_Node000003_Node000020" class="edge">
<title>Node3&#45;&gt;Node20</title>
<g id="a_edge20_Node000003_Node000020"><a xlink:title=" ">
<path fill="none" stroke="#63b8ff" d="M580.83,-330.14C574.09,-328.12 567.33,-325.9 561,-323.5 544.27,-317.16 541.47,-312.49 525,-305.5 516.7,-301.98 507.46,-298.57 499.14,-295.68"/>
<polygon fill="#63b8ff" stroke="#63b8ff" points="580.05,-333.56 590.63,-332.94 581.97,-326.83 580.05,-333.56"/>
</a>
</g>
</g>
<!-- Node21 -->
<g id="Node000021" class="node">
<title>Node21</title>
<g id="a_Node000021"><a xlink:href="test__connection_receive_header_8cpp.html#aa34cc8553c29e19d06c302699e916a3e" target="_top" xlink:title=" ">
<polygon fill="white" stroke="#666666" points="499,-260 447,-260 447,-241 499,-241 499,-260"/>
<text text-anchor="middle" x="473" y="-248" font-family="Helvetica,sans-Serif" font-size="10.00">TEST_F</text>
</a>
</g>
</g>
<!-- Node3&#45;&gt;Node21 -->
<g id="edge21_Node000003_Node000021" class="edge">
<title>Node3&#45;&gt;Node21</title>
<g id="a_edge21_Node000003_Node000021"><a xlink:title=" ">
<path fill="none" stroke="#63b8ff" d="M569.56,-328.76C566.56,-327.19 563.69,-325.44 561,-323.5 537.33,-306.37 547.99,-286.53 525,-268.5 517.54,-262.65 508.03,-258.61 499.24,-255.87"/>
<polygon fill="#63b8ff" stroke="#63b8ff" points="568.28,-332.02 578.84,-332.94 571.16,-325.64 568.28,-332.02"/>
</a>
</g>
</g>
<!-- Node5 -->
<g id="Node000005" class="node">
<title>Node5</title>
<g id="a_Node000005"><a xlink:href="_server_8cpp.html#af9f4479a6262c17deef89938118d27f4" target="_top" xlink:title="Accepts new connections or handles existing ones.">
<polygon fill="white" stroke="#666666" points="385,-445 308,-445 308,-426 385,-426 385,-445"/>
<text text-anchor="middle" x="346.5" y="-433" font-family="Helvetica,sans-Serif" font-size="10.00">handleEvent</text>
</a>
</g>
</g>
<!-- Node4&#45;&gt;Node5 -->
<g id="edge4_Node000004_Node000005" class="edge">
<title>Node4&#45;&gt;Node5</title>
<g id="a_edge4_Node000004_Node000005"><a xlink:title=" ">
<path fill="none" stroke="#63b8ff" d="M410.49,-435.5C401.8,-435.5 393.1,-435.5 385.05,-435.5"/>
<polygon fill="#63b8ff" stroke="#63b8ff" points="410.64,-439 420.64,-435.5 410.64,-432 410.64,-439"/>
</a>
</g>
</g>
<!-- Node6 -->
<g id="Node000006" class="node">
<title>Node6</title>
<g id="a_Node000006"><a xlink:href="_server_8cpp.html#ab66b27c2186daacb15a6b13dd43be31b" target="_top" xlink:title="Runs the main event loop with a server object.">
<polygon fill="white" stroke="#666666" points="141,-557 77,-557 77,-538 141,-538 141,-557"/>
<text text-anchor="middle" x="109" y="-545" font-family="Helvetica,sans-Serif" font-size="10.00">runServer</text>
</a>
</g>
</g>
<!-- Node5&#45;&gt;Node6 -->
<g id="edge5_Node000005_Node000006" class="edge">
<title>Node5&#45;&gt;Node6</title>
<g id="a_edge5_Node000005_Node000006"><a xlink:title=" ">
<path fill="none" stroke="#63b8ff" d="M336.52,-454.17C324.93,-476.04 302.54,-511.44 272,-528.5 231.08,-551.35 175.36,-552.6 141.08,-550.62"/>
<polygon fill="#63b8ff" stroke="#63b8ff" points="339.68,-455.69 341.08,-445.19 333.44,-452.52 339.68,-455.69"/>
</a>
</g>
</g>
<!-- Node8 -->
<g id="Node000008" class="node">
<title>Node8</title>
<g id="a_Node000008"><a xlink:href="_server_8cpp.html#a115ecd76e344c1007bedc48b9bbdc0fa" target="_top" xlink:title="Performs a graceful shutdown of the server.">
<polygon fill="white" stroke="#666666" points="272,-519 177,-519 177,-500 272,-500 272,-519"/>
<text text-anchor="middle" x="224.5" y="-507" font-family="Helvetica,sans-Serif" font-size="10.00">shutdownServer</text>
</a>
</g>
</g>
<!-- Node5&#45;&gt;Node8 -->
<g id="edge7_Node000005_Node000008" class="edge">
<title>Node5&#45;&gt;Node8</title>
<g id="a_edge7_Node000005_Node000008"><a xlink:title=" ">
<path fill="none" stroke="#63b8ff" d="M327.12,-451.85C312.83,-463.96 292.13,-480.24 272,-491.5 266.41,-494.63 260.17,-497.45 254.11,-499.89"/>
<polygon fill="#63b8ff" stroke="#63b8ff" points="329.45,-454.46 334.73,-445.28 324.87,-449.17 329.45,-454.46"/>
</a>
</g>
</g>
<!-- Node12 -->
<g id="Node000012" class="node">
<title>Node12</title>
<g id="a_Node000012"><a xlink:href="test__handle_event_8cpp.html#a6b02b237de8284e0c133cf8411401e71" target="_top" xlink:title=" ">
<polygon fill="white" stroke="#666666" points="250.5,-482 198.5,-482 198.5,-463 250.5,-463 250.5,-482"/>
<text text-anchor="middle" x="224.5" y="-470" font-family="Helvetica,sans-Serif" font-size="10.00">TEST_F</text>
</a>
</g>
</g>
<!-- Node5&#45;&gt;Node12 -->
<g id="edge12_Node000005_Node000012" class="edge">
<title>Node5&#45;&gt;Node12</title>
<g id="a_edge12_Node000005_Node000012"><a xlink:title=" ">
<path fill="none" stroke="#63b8ff" d="M304.92,-448.01C286.94,-453.56 266.35,-459.9 250.64,-464.75"/>
<polygon fill="#63b8ff" stroke="#63b8ff" points="306.07,-451.32 314.6,-445.03 304.01,-444.63 306.07,-451.32"/>
</a>
</g>
</g>
<!-- Node13 -->
<g id="Node000013" class="node">
<title>Node13</title>
<g id="a_Node000013"><a xlink:href="test__handle_event_8cpp.html#a2d9ba98f6de6c5e0452b99c6f764e1b4" target="_top" xlink:title=" ">
<polygon fill="white" stroke="#666666" points="250.5,-445 198.5,-445 198.5,-426 250.5,-426 250.5,-445"/>
<text text-anchor="middle" x="224.5" y="-433" font-family="Helvetica,sans-Serif" font-size="10.00">TEST_F</text>
</a>
</g>
</g>
<!-- Node5&#45;&gt;Node13 -->
<g id="edge13_Node000005_Node000013" class="edge">
<title>Node5&#45;&gt;Node13</title>
<g id="a_edge13_Node000005_Node000013"><a xlink:title=" ">
<path fill="none" stroke="#63b8ff" d="M297.51,-435.5C281.41,-435.5 264.11,-435.5 250.5,-435.5"/>
<polygon fill="#63b8ff" stroke="#63b8ff" points="297.86,-439 307.86,-435.5 297.86,-432 297.86,-439"/>
</a>
</g>
</g>
<!-- Node14 -->
<g id="Node000014" class="node">
<title>Node14</title>
<g id="a_Node000014"><a xlink:href="test__handle_event_8cpp.html#ac379b830f0bc030cee7bfb4dc8ef2a06" target="_top" xlink:title=" ">
<polygon fill="white" stroke="#666666" points="250.5,-408 198.5,-408 198.5,-389 250.5,-389 250.5,-408"/>
<text text-anchor="middle" x="224.5" y="-396" font-family="Helvetica,sans-Serif" font-size="10.00">TEST_F</text>
</a>
</g>
</g>
<!-- Node5&#45;&gt;Node14 -->
<g id="edge14_Node000005_Node000014" class="edge">
<title>Node5&#45;&gt;Node14</title>
<g id="a_edge14_Node000005_Node000014"><a xlink:title=" ">
<path fill="none" stroke="#63b8ff" d="M304.92,-422.99C286.94,-417.44 266.35,-411.1 250.64,-406.25"/>
<polygon fill="#63b8ff" stroke="#63b8ff" points="304.01,-426.37 314.6,-425.97 306.07,-419.68 304.01,-426.37"/>
</a>
</g>
</g>
<!-- Node15 -->
<g id="Node000015" class="node">
<title>Node15</title>
<g id="a_Node000015"><a xlink:href="test__handle_event_8cpp.html#a174d935df4191823bf4798918aa794ee" target="_top" xlink:title=" ">
<polygon fill="white" stroke="#666666" points="250.5,-371 198.5,-371 198.5,-352 250.5,-352 250.5,-371"/>
<text text-anchor="middle" x="224.5" y="-359" font-family="Helvetica,sans-Serif" font-size="10.00">TEST_F</text>
</a>
</g>
</g>
<!-- Node5&#45;&gt;Node15 -->
<g id="edge15_Node000005_Node000015" class="edge">
<title>Node5&#45;&gt;Node15</title>
<g id="a_edge15_Node000005_Node000015"><a xlink:title=" ">
<path fill="none" stroke="#63b8ff" d="M327.12,-419.15C312.83,-407.04 292.13,-390.76 272,-379.5 265.35,-375.78 257.78,-372.49 250.7,-369.77"/>
<polygon fill="#63b8ff" stroke="#63b8ff" points="324.87,-421.83 334.73,-425.72 329.45,-416.54 324.87,-421.83"/>
</a>
</g>
</g>
<!-- Node16 -->
<g id="Node000016" class="node">
<title>Node16</title>
<g id="a_Node000016"><a xlink:href="test__handle_event_8cpp.html#a00f6ce6db41fce20edc0e6febca98965" target="_top" xlink:title=" ">
<polygon fill="white" stroke="#666666" points="250.5,-334 198.5,-334 198.5,-315 250.5,-315 250.5,-334"/>
<text text-anchor="middle" x="224.5" y="-322" font-family="Helvetica,sans-Serif" font-size="10.00">TEST_F</text>
</a>
</g>
</g>
<!-- Node5&#45;&gt;Node16 -->
<g id="edge16_Node000005_Node000016" class="edge">
<title>Node5&#45;&gt;Node16</title>
<g id="a_edge16_Node000005_Node000016"><a xlink:title=" ">
<path fill="none" stroke="#63b8ff" d="M335.16,-417.17C322.64,-396.45 299.73,-362.96 272,-342.5 265.73,-337.87 258.12,-334.28 250.89,-331.56"/>
<polygon fill="#63b8ff" stroke="#63b8ff" points="332.23,-419.09 340.31,-425.95 338.27,-415.55 332.23,-419.09"/>
</a>
</g>
</g>
<!-- Node7 -->
<g id="Node000007" class="node">
<title>Node7</title>
<g id="a_Node000007"><a xlink:href="main_8cpp.html#ad53223b8779f25caeddb70a3b9172967" target="_top" xlink:title=" ">
<polygon fill="white" stroke="#666666" points="41,-557 0,-557 0,-538 41,-538 41,-557"/>
<text text-anchor="middle" x="20.5" y="-545" font-family="Helvetica,sans-Serif" font-size="10.00">main</text>
</a>
</g>
</g>
<!-- Node6&#45;&gt;Node7 -->
<g id="edge6_Node000006_Node000007" class="edge">
<title>Node6&#45;&gt;Node7</title>
<g id="a_edge6_Node000006_Node000007"><a xlink:title=" ">
<path fill="none" stroke="#63b8ff" d="M66.5,-547.5C57.64,-547.5 48.68,-547.5 41.11,-547.5"/>
<polygon fill="#63b8ff" stroke="#63b8ff" points="66.77,-551 76.77,-547.5 66.77,-544 66.77,-551"/>
</a>
</g>
</g>
<!-- Node8&#45;&gt;Node6 -->
<g id="edge8_Node000008_Node000006" class="edge">
<title>Node8&#45;&gt;Node6</title>
<g id="a_edge8_Node000008_Node000006"><a xlink:title=" ">
<path fill="none" stroke="#63b8ff" d="M185.19,-522.33C169.96,-527.42 152.74,-533.19 138.63,-537.91"/>
<polygon fill="#63b8ff" stroke="#63b8ff" points="186.49,-525.58 194.86,-519.09 184.27,-518.94 186.49,-525.58"/>
</a>
</g>
</g>
<!-- Node9 -->
<g id="Node000009" class="node">
<title>Node9</title>
<g id="a_Node000009"><a xlink:href="test__shutdown_server_8cpp.html#a6462dc91a572c9969b759806ed15590b" target="_top" xlink:title=" ">
<polygon fill="white" stroke="#666666" points="135,-520 83,-520 83,-501 135,-501 135,-520"/>
<text text-anchor="middle" x="109" y="-508" font-family="Helvetica,sans-Serif" font-size="10.00">TEST_F</text>
</a>
</g>
</g>
<!-- Node8&#45;&gt;Node9 -->
<g id="edge9_Node000008_Node000009" class="edge">
<title>Node8&#45;&gt;Node9</title>
<g id="a_edge9_Node000008_Node000009"><a xlink:title=" ">
<path fill="none" stroke="#63b8ff" d="M166.63,-510C155.63,-510.1 144.64,-510.19 135.3,-510.28"/>
<polygon fill="#63b8ff" stroke="#63b8ff" points="166.71,-513.5 176.68,-509.91 166.65,-506.5 166.71,-513.5"/>
</a>
</g>
</g>
<!-- Node10 -->
<g id="Node000010" class="node">
<title>Node10</title>
<g id="a_Node000010"><a xlink:href="test__shutdown_server_8cpp.html#a69fea7b0fb329821fdd955271edc65ee" target="_top" xlink:title=" ">
<polygon fill="white" stroke="#666666" points="135,-483 83,-483 83,-464 135,-464 135,-483"/>
<text text-anchor="middle" x="109" y="-471" font-family="Helvetica,sans-Serif" font-size="10.00">TEST_F</text>
</a>
</g>
</g>
<!-- Node8&#45;&gt;Node10 -->
<g id="edge10_Node000008_Node000010" class="edge">
<title>Node8&#45;&gt;Node10</title>
<g id="a_edge10_Node000008_Node000010"><a xlink:title=" ">
<path fill="none" stroke="#63b8ff" d="M183.67,-496.87C167.58,-491.76 149.49,-486.03 135.26,-481.51"/>
<polygon fill="#63b8ff" stroke="#63b8ff" points="182.79,-500.26 193.38,-499.95 184.91,-493.59 182.79,-500.26"/>
</a>
</g>
</g>
<!-- Node11 -->
<g id="Node000011" class="node">
<title>Node11</title>
<g id="a_Node000011"><a xlink:href="test__shutdown_server_8cpp.html#a224e0b58937c3db439ffeef179620439" target="_top" xlink:title=" ">
<polygon fill="white" stroke="#666666" points="135,-446 83,-446 83,-427 135,-427 135,-446"/>
<text text-anchor="middle" x="109" y="-434" font-family="Helvetica,sans-Serif" font-size="10.00">TEST_F</text>
</a>
</g>
</g>
<!-- Node8&#45;&gt;Node11 -->
<g id="edge11_Node000008_Node000011" class="edge">
<title>Node8&#45;&gt;Node11</title>
<g id="a_edge11_Node000008_Node000011"><a xlink:title=" ">
<path fill="none" stroke="#63b8ff" d="M183.77,-495.5C181.43,-494.25 179.15,-492.92 177,-491.5 157.86,-478.85 159.09,-468.61 141,-454.5 137.17,-451.51 132.8,-448.68 128.57,-446.17"/>
<polygon fill="#63b8ff" stroke="#63b8ff" points="182.51,-498.78 193.04,-499.89 185.5,-492.45 182.51,-498.78"/>
</a>
</g>
</g>
</g>
</svg>

<g id="navigator" transform="translate(0 0)" fill="#404254">
  <rect fill="#f2f5e9" fill-opacity="0.5" stroke="#606060" stroke-width=".5" x="0" y="0" width="60" height="60"/>
  <use id="zoomplus" xlink:href="#zoomPlus" x="17" y="9" onmousedown="handleZoom(evt,'in')"/>
  <use id="zoomminus" xlink:href="#zoomMin" x="42" y="9" onmousedown="handleZoom(evt,'out')"/>
  <use id="reset" xlink:href="#resetDef" x="30" y="36" onmousedown="handleReset()"/>
   <use id="arrowup" xlink:href="#arrowUp" x="0" y="0" onmousedown="handlePan(0,-1)"/>
  <use id="arrowright" xlink:href="#arrowRight" x="0" y="0" onmousedown="handlePan(1,0)"/>
  <use id="arrowdown" xlink:href="#arrowDown" x="0" y="0" onmousedown="handlePan(0,1)"/>
  <use id="arrowleft" xlink:href="#arrowLeft" x="0" y="0" onmousedown="handlePan(-1,0)"/>
</g>
<svg viewBox="0 0 15 15" width="100%" height="30px" preserveAspectRatio="xMaxYMin meet">
 <g id="arrow_out" transform="scale(0.3 0.3)">
  <a xlink:href="_server_8cpp_a92411155dbfc5d7f43c3f1ac0fe54548_icgraph_org.svg" target="_base">
   <rect id="button" ry="5" rx="5" y="6" x="6" height="38" width="38"
        fill="#f2f5e9" fill-opacity="0.5" stroke="#606060" stroke-width="1.0"/>
   <path id="arrow"
     d="M 11.500037,31.436501 C 11.940474,20.09759 22.043105,11.32322 32.158766,21.979434 L 37.068811,17.246167 C 37.068811,17.246167 37.088388,32 37.088388,32 L 22.160133,31.978069 C 22.160133,31.978069 26.997745,27.140456 26.997745,27.140456 C 18.528582,18.264221 13.291696,25.230495 11.500037,31.436501 z"
     style="fill:#404040;"/>
  </a>
 </g>
</svg>

<style type='text/css'>
<![CDATA[
[data-mouse-over-selected='false'] { opacity: 0.7; }
[data-mouse-over-selected='true']  { opacity: 1.0; }
]]>
</style>
<script type="application/ecmascript"><![CDATA[
document.addEventListener('DOMContentLoaded', (event) => {
  highlightEdges();
  highlightAdjacentNodes();
});
]]></script>
</svg>
