<?xml version="1.0" encoding="UTF-8" standalone="no"?>
<!DOCTYPE svg PUBLIC "-//W3C//DTD SVG 1.1//EN"
 "http://www.w3.org/Graphics/SVG/1.1/DTD/svg11.dtd">
<!-- Generated by graphviz version 2.43.0 (0)
 -->
<!-- Title: connectionBuildResponse Pages: 1 -->
<!--zoomable 304 -->

<svg id="main" version="1.1" xmlns="http://www.w3.org/2000/svg" xmlns:xlink="http://www.w3.org/1999/xlink" xml:space="preserve" onload="init(evt)">
<style type="text/css"><![CDATA[
.node, .edge {opacity: 0.7;}
.node.selected, .edge.selected {opacity: 1;}
.edge:hover path { stroke: red; }
.edge:hover polygon { stroke: red; fill: red; }
]]></style>

<defs>
  <circle id="rim" cx="0" cy="0" r="7"/>
  <circle id="rim2" cx="0" cy="0" r="3.5"/>
  <g id="zoomPlus">
    <use xlink:href="#rim" fill="#404040"><set attributeName="fill" to="#808080" begin="zoomplus.mouseover" end="zoomplus.mouseout"/></use>
    <path d="M-4,0h8M0,-4v8" fill="none" stroke="white" stroke-width="1.5" pointer-events="none"/>
  </g>
  <g id="zoomMin">
    <use xlink:href="#rim" fill="#404040"><set attributeName="fill" to="#808080" begin="zoomminus.mouseover" end="zoomminus.mouseout"/></use>
    <path d="M-4,0h8" fill="none" stroke="white" stroke-width="1.5" pointer-events="none"/>
  </g>
  <g id="arrowUp" transform="translate(30 24)">
    <use xlink:href="#rim"/>
    <path pointer-events="none" fill="none" stroke="white" stroke-width="1.5" d="M0,-3.0v7 M-2.5,-0.5L0,-3.0L2.5,-0.5"/>
  </g>
  <g id="arrowRight" transform="rotate(90) translate(36 -43)">
    <use xlink:href="#rim"/>
    <path pointer-events="none" fill="none" stroke="white" stroke-width="1.5" d="M0,-3.0v7 M-2.5,-0.5L0,-3.0L2.5,-0.5"/>
  </g>
  <g id="arrowDown" transform="rotate(180) translate(-30 -48)">
    <use xlink:href="#rim"/>
    <path pointer-events="none" fill="none" stroke="white" stroke-width="1.5" d="M0,-3.0v7 M-2.5,-0.5L0,-3.0L2.5,-0.5"/>
  </g>
  <g id="arrowLeft" transform="rotate(270) translate(-36 17)">
    <use xlink:href="#rim"/>
    <path pointer-events="none" fill="none" stroke="white" stroke-width="1.5" d="M0,-3.0v7 M-2.5,-0.5L0,-3.0L2.5,-0.5"/>
  </g>
  <g id="resetDef">
    <use xlink:href="#rim2" fill="#404040"><set attributeName="fill" to="#808080" begin="reset.mouseover" end="reset.mouseout"/></use>
  </g>
</defs>
<script type="application/ecmascript">
var viewWidth = 1326;
var viewHeight = 304;
var sectionId = 'dynsection-29';
</script>
<script type="application/ecmascript" xlink:href="svg.min.js"/>
<svg id="graph" class="graph">
<g id="viewport">
<title>connectionBuildResponse</title>
<!-- Node1 -->
<g id="Node000001" class="node">
<title>Node1</title>
<g id="a_Node000001"><a xlink:title="Builds the response for a client connection.">
<polygon fill="#999999" stroke="#666666" points="142,-111 0,-111 0,-92 142,-92 142,-111"/>
<text text-anchor="middle" x="71" y="-99" font-family="Helvetica,sans-Serif" font-size="10.00">connectionBuildResponse</text>
</a>
</g>
</g>
<!-- Node2 -->
<g id="Node000002" class="node">
<title>Node2</title>
<g id="a_Node000002"><a xlink:href="class_server.html#aaa1a16c8d18a7d0a4191adfeb65fdf82" target="_top" xlink:title="Wrapper function to ResponseBuilder::buildResponse.">
<polygon fill="white" stroke="#666666" points="311,-188 186,-188 186,-169 311,-169 311,-188"/>
<text text-anchor="middle" x="248.5" y="-176" font-family="Helvetica,sans-Serif" font-size="10.00">Server::buildResponse</text>
</a>
</g>
</g>
<!-- Node1&#45;&gt;Node2 -->
<g id="edge1_Node000001_Node000002" class="edge">
<title>Node1&#45;&gt;Node2</title>
<g id="a_edge1_Node000001_Node000002"><a xlink:title=" ">
<path fill="none" stroke="#63b8ff" d="M93.87,-111.1C124.7,-124.62 181.08,-149.36 216.3,-164.81"/>
<polygon fill="#63b8ff" stroke="#63b8ff" points="215.06,-168.09 225.63,-168.9 217.88,-161.68 215.06,-168.09"/>
</a>
</g>
</g>
<!-- Node15 -->
<g id="Node000015" class="node">
<title>Node15</title>
<g id="a_Node000015"><a xlink:href="_server_8cpp.html#a43e9e764c97aacfc12f233b33ffa3342" target="_top" xlink:title="Sends the response to a client connection.">
<polygon fill="white" stroke="#666666" points="319,-111 178,-111 178,-92 319,-92 319,-111"/>
<text text-anchor="middle" x="248.5" y="-99" font-family="Helvetica,sans-Serif" font-size="10.00">connectionSendResponse</text>
</a>
</g>
</g>
<!-- Node1&#45;&gt;Node15 -->
<g id="edge17_Node000001_Node000015" class="edge">
<title>Node1&#45;&gt;Node15</title>
<g id="a_edge17_Node000001_Node000015"><a xlink:title=" ">
<path fill="none" stroke="#63b8ff" d="M142.12,-101.5C150.47,-101.5 159.04,-101.5 167.51,-101.5"/>
<polygon fill="#63b8ff" stroke="#63b8ff" points="167.78,-105 177.78,-101.5 167.78,-98 167.78,-105"/>
</a>
</g>
</g>
<!-- Node25 -->
<g id="Node000025" class="node">
<title>Node25</title>
<g id="a_Node000025"><a xlink:href="class_server.html#a718bf76e7c3f830abb2f7b0972cdaa63" target="_top" xlink:title="Wrapper function to ResponseBuilder::getResponse.">
<polygon fill="white" stroke="#666666" points="307,-56 190,-56 190,-37 307,-37 307,-56"/>
<text text-anchor="middle" x="248.5" y="-44" font-family="Helvetica,sans-Serif" font-size="10.00">Server::getResponse</text>
</a>
</g>
</g>
<!-- Node1&#45;&gt;Node25 -->
<g id="edge27_Node000001_Node000025" class="edge">
<title>Node1&#45;&gt;Node25</title>
<g id="a_edge27_Node000001_Node000025"><a xlink:title=" ">
<path fill="none" stroke="#63b8ff" d="M102.57,-91.92C131.55,-82.84 175.26,-69.14 207.1,-59.16"/>
<polygon fill="#63b8ff" stroke="#63b8ff" points="208.49,-62.39 216.99,-56.06 206.4,-55.71 208.49,-62.39"/>
</a>
</g>
</g>
<!-- Node3 -->
<g id="Node000003" class="node">
<title>Node3</title>
<g id="a_Node000003"><a xlink:href="class_response_builder.html#ae037ac16172f1329b44a58f50de0e84e" target="_top" xlink:title="Build the response for a given request.">
<polygon fill="white" stroke="#666666" points="531,-207 355,-207 355,-188 531,-188 531,-207"/>
<text text-anchor="middle" x="443" y="-195" font-family="Helvetica,sans-Serif" font-size="10.00">ResponseBuilder::buildResponse</text>
</a>
</g>
</g>
<!-- Node2&#45;&gt;Node3 -->
<g id="edge2_Node000002_Node000003" class="edge">
<title>Node2&#45;&gt;Node3</title>
<g id="a_edge2_Node000002_Node000003"><a xlink:title=" ">
<path fill="none" stroke="#63b8ff" d="M311.2,-184.59C321.92,-185.65 333.3,-186.77 344.69,-187.9"/>
<polygon fill="#63b8ff" stroke="#63b8ff" points="344.4,-191.38 354.69,-188.88 345.09,-184.42 344.4,-191.38"/>
</a>
</g>
</g>
<!-- Node4 -->
<g id="Node000004" class="node">
<title>Node4</title>
<g id="a_Node000004"><a xlink:href="class_response_body_handler.html#a0660b57e440e2c519761817d178818c0" target="_top" xlink:title="Create the response body.">
<polygon fill="white" stroke="#666666" points="706,-215.5 579,-215.5 579,-185.5 706,-185.5 706,-215.5"/>
<text text-anchor="start" x="587" y="-203.5" font-family="Helvetica,sans-Serif" font-size="10.00">ResponseBodyHandler</text>
<text text-anchor="middle" x="642.5" y="-192.5" font-family="Helvetica,sans-Serif" font-size="10.00">::execute</text>
</a>
</g>
</g>
<!-- Node3&#45;&gt;Node4 -->
<g id="edge3_Node000003_Node000004" class="edge">
<title>Node3&#45;&gt;Node4</title>
<g id="a_edge3_Node000003_Node000004"><a xlink:title=" ">
<path fill="none" stroke="#63b8ff" d="M531.2,-198.82C543.71,-199.01 556.48,-199.21 568.67,-199.39"/>
<polygon fill="#63b8ff" stroke="#63b8ff" points="568.72,-202.89 578.77,-199.55 568.82,-195.9 568.72,-202.89"/>
</a>
</g>
</g>
<!-- Node5 -->
<g id="Node000005" class="node">
<title>Node5</title>
<g id="a_Node000005"><a xlink:href="class_autoindex_handler.html#a4ad00ccbce16e8913e108e9bf1114c3f" target="_top" xlink:title="Execute the autoindex handler.">
<polygon fill="white" stroke="#666666" points="903,-247 754,-247 754,-228 903,-228 903,-247"/>
<text text-anchor="middle" x="828.5" y="-235" font-family="Helvetica,sans-Serif" font-size="10.00">AutoindexHandler::execute</text>
</a>
</g>
</g>
<!-- Node4&#45;&gt;Node5 -->
<g id="edge4_Node000004_Node000005" class="edge">
<title>Node4&#45;&gt;Node5</title>
<g id="a_edge4_Node000004_Node000005"><a xlink:title=" ">
<path fill="none" stroke="#63b8ff" d="M706.05,-213.08C726.82,-217.25 749.82,-221.88 770.17,-225.97"/>
<polygon fill="#63b8ff" stroke="#63b8ff" points="769.74,-229.46 780.24,-228 771.12,-222.59 769.74,-229.46"/>
</a>
</g>
</g>
<!-- Node10 -->
<g id="Node000010" class="node">
<title>Node10</title>
<g id="a_Node000010"><a xlink:href="class_file_write_handler.html#accd13b33bbd69dbf05f1ef00225ea1a6" target="_top" xlink:title="Executes the file write operation.">
<polygon fill="white" stroke="#666666" points="900,-210 757,-210 757,-191 900,-191 900,-210"/>
<text text-anchor="middle" x="828.5" y="-198" font-family="Helvetica,sans-Serif" font-size="10.00">FileWriteHandler::execute</text>
</a>
</g>
</g>
<!-- Node4&#45;&gt;Node10 -->
<g id="edge9_Node000004_Node000010" class="edge">
<title>Node4&#45;&gt;Node10</title>
<g id="a_edge9_Node000004_Node000010"><a xlink:title=" ">
<path fill="none" stroke="#63b8ff" d="M706.05,-200.5C719.09,-200.5 733,-200.5 746.59,-200.5"/>
<polygon fill="#63b8ff" stroke="#63b8ff" points="746.9,-204 756.9,-200.5 746.9,-197 746.9,-204"/>
</a>
</g>
</g>
<!-- Node14 -->
<g id="Node000014" class="node">
<title>Node14</title>
<g id="a_Node000014"><a xlink:href="class_file_system_policy.html#a700e01137b08674976427c869e078cc9" target="_top" xlink:title="Gets the contents of a file.">
<polygon fill="white" stroke="#666666" points="897.5,-172.5 759.5,-172.5 759.5,-142.5 897.5,-142.5 897.5,-172.5"/>
<text text-anchor="start" x="767.5" y="-160.5" font-family="Helvetica,sans-Serif" font-size="10.00">FileSystemPolicy::getFile</text>
<text text-anchor="middle" x="828.5" y="-149.5" font-family="Helvetica,sans-Serif" font-size="10.00">Contents</text>
</a>
</g>
</g>
<!-- Node4&#45;&gt;Node14 -->
<g id="edge16_Node000004_Node000014" class="edge">
<title>Node4&#45;&gt;Node14</title>
<g id="a_edge16_Node000004_Node000014"><a xlink:title=" ">
<path fill="none" stroke="#63b8ff" d="M706.05,-185.88C721.18,-182.35 737.49,-178.53 753.1,-174.89"/>
<polygon fill="#63b8ff" stroke="#63b8ff" points="754.3,-178.2 763.24,-172.52 752.71,-171.38 754.3,-178.2"/>
</a>
</g>
</g>
<!-- Node6 -->
<g id="Node000006" class="node">
<title>Node6</title>
<g id="a_Node000006"><a xlink:href="class_file_system_policy.html#afc59bac08d6e98c19f4d9b62c5f66b4a" target="_top" xlink:title="Get the file size of a file.">
<polygon fill="white" stroke="#666666" points="1103,-247 945,-247 945,-228 1103,-228 1103,-247"/>
<text text-anchor="middle" x="1024" y="-235" font-family="Helvetica,sans-Serif" font-size="10.00">FileSystemPolicy::getFileSize</text>
</a>
</g>
</g>
<!-- Node5&#45;&gt;Node6 -->
<g id="edge5_Node000005_Node000006" class="edge">
<title>Node5&#45;&gt;Node6</title>
<g id="a_edge5_Node000005_Node000006"><a xlink:title=" ">
<path fill="none" stroke="#63b8ff" d="M903.21,-237.5C913.57,-237.5 924.3,-237.5 934.89,-237.5"/>
<polygon fill="#63b8ff" stroke="#63b8ff" points="934.99,-241 944.99,-237.5 934.99,-234 934.99,-241"/>
</a>
</g>
</g>
<!-- Node7 -->
<g id="Node000007" class="node">
<title>Node7</title>
<g id="a_Node000007"><a xlink:href="class_file_system_policy.html#ad2571bc684c5f8db457d8e282729f832" target="_top" xlink:title="Gets the file status of a path.">
<polygon fill="white" stroke="#666666" points="1103,-210 945,-210 945,-191 1103,-191 1103,-210"/>
<text text-anchor="middle" x="1024" y="-198" font-family="Helvetica,sans-Serif" font-size="10.00">FileSystemPolicy::getFileStat</text>
</a>
</g>
</g>
<!-- Node5&#45;&gt;Node7 -->
<g id="edge6_Node000005_Node000007" class="edge">
<title>Node5&#45;&gt;Node7</title>
<g id="a_edge6_Node000005_Node000007"><a xlink:title=" ">
<path fill="none" stroke="#63b8ff" d="M879.33,-227.97C904.85,-223.09 936.11,-217.11 962.95,-211.98"/>
<polygon fill="#63b8ff" stroke="#63b8ff" points="963.84,-215.38 973,-210.06 962.52,-208.5 963.84,-215.38"/>
</a>
</g>
</g>
<!-- Node8 -->
<g id="Node000008" class="node">
<title>Node8</title>
<g id="a_Node000008"><a xlink:href="class_file_system_policy.html#a0f46a15649cfbec298a4a2fcfd15676a" target="_top" xlink:title="Get the last modified time of a file.">
<polygon fill="white" stroke="#666666" points="1094.5,-295.5 953.5,-295.5 953.5,-265.5 1094.5,-265.5 1094.5,-295.5"/>
<text text-anchor="start" x="961.5" y="-283.5" font-family="Helvetica,sans-Serif" font-size="10.00">FileSystemPolicy::getLast</text>
<text text-anchor="middle" x="1024" y="-272.5" font-family="Helvetica,sans-Serif" font-size="10.00">ModifiedTime</text>
</a>
</g>
</g>
<!-- Node5&#45;&gt;Node8 -->
<g id="edge7_Node000005_Node000008" class="edge">
<title>Node5&#45;&gt;Node8</title>
<g id="a_edge7_Node000005_Node000008"><a xlink:title=" ">
<path fill="none" stroke="#63b8ff" d="M872.44,-247.04C893.97,-251.83 920.71,-257.77 945.65,-263.31"/>
<polygon fill="#63b8ff" stroke="#63b8ff" points="944.95,-266.74 955.47,-265.49 946.47,-259.91 944.95,-266.74"/>
</a>
</g>
</g>
<!-- Node9 -->
<g id="Node000009" class="node">
<title>Node9</title>
<g id="a_Node000009"><a xlink:href="namespacewebutils.html#ab6119b08526700518f576bb78554be59" target="_top" xlink:title="Returns localtime string in provided format.">
<polygon fill="white" stroke="#666666" points="1309.5,-290 1153.5,-290 1153.5,-271 1309.5,-271 1309.5,-290"/>
<text text-anchor="middle" x="1231.5" y="-278" font-family="Helvetica,sans-Serif" font-size="10.00">webutils::getLocaltimeString</text>
</a>
</g>
</g>
<!-- Node8&#45;&gt;Node9 -->
<g id="edge8_Node000008_Node000009" class="edge">
<title>Node8&#45;&gt;Node9</title>
<g id="a_edge8_Node000008_Node000009"><a xlink:title=" ">
<path fill="none" stroke="#63b8ff" d="M1094.57,-280.5C1110.19,-280.5 1126.96,-280.5 1143.2,-280.5"/>
<polygon fill="#63b8ff" stroke="#63b8ff" points="1143.23,-284 1153.23,-280.5 1143.23,-277 1143.23,-284"/>
</a>
</g>
</g>
<!-- Node10&#45;&gt;Node6 -->
<g id="edge10_Node000010_Node000006" class="edge">
<title>Node10&#45;&gt;Node6</title>
<g id="a_edge10_Node000010_Node000006"><a xlink:title=" ">
<path fill="none" stroke="#63b8ff" d="M879.33,-210.03C904.85,-214.91 936.11,-220.89 962.95,-226.02"/>
<polygon fill="#63b8ff" stroke="#63b8ff" points="962.52,-229.5 973,-227.94 963.84,-222.62 962.52,-229.5"/>
</a>
</g>
</g>
<!-- Node10&#45;&gt;Node7 -->
<g id="edge11_Node000010_Node000007" class="edge">
<title>Node10&#45;&gt;Node7</title>
<g id="a_edge11_Node000010_Node000007"><a xlink:title=" ">
<path fill="none" stroke="#63b8ff" d="M900.18,-200.5C911.45,-200.5 923.23,-200.5 934.85,-200.5"/>
<polygon fill="#63b8ff" stroke="#63b8ff" points="935,-204 945,-200.5 935,-197 935,-204"/>
</a>
</g>
</g>
<!-- Node10&#45;&gt;Node8 -->
<g id="edge12_Node000010_Node000008" class="edge">
<title>Node10&#45;&gt;Node8</title>
<g id="a_edge12_Node000010_Node000008"><a xlink:title=" ">
<path fill="none" stroke="#63b8ff" d="M881.14,-210C888.75,-212.48 896.28,-215.6 903,-219.5 922.84,-231.02 919.31,-244.73 939,-256.5 941.86,-258.21 944.86,-259.81 947.93,-261.29"/>
<polygon fill="#63b8ff" stroke="#63b8ff" points="946.81,-264.62 957.38,-265.43 949.62,-258.21 946.81,-264.62"/>
</a>
</g>
</g>
<!-- Node11 -->
<g id="Node000011" class="node">
<title>Node11</title>
<g id="a_Node000011"><a xlink:href="class_file_system_policy.html#a041c67f56f9a96ace0e2b6d5a4b88e75" target="_top" xlink:title="Wrapper to check if a path is an existing file.">
<polygon fill="white" stroke="#666666" points="1109,-173 939,-173 939,-154 1109,-154 1109,-173"/>
<text text-anchor="middle" x="1024" y="-161" font-family="Helvetica,sans-Serif" font-size="10.00">FileSystemPolicy::isExistingFile</text>
</a>
</g>
</g>
<!-- Node10&#45;&gt;Node11 -->
<g id="edge13_Node000010_Node000011" class="edge">
<title>Node10&#45;&gt;Node11</title>
<g id="a_edge13_Node000010_Node000011"><a xlink:title=" ">
<path fill="none" stroke="#63b8ff" d="M879.33,-190.97C904.85,-186.09 936.11,-180.11 962.95,-174.98"/>
<polygon fill="#63b8ff" stroke="#63b8ff" points="963.84,-178.38 973,-173.06 962.52,-171.5 963.84,-178.38"/>
</a>
</g>
</g>
<!-- Node13 -->
<g id="Node000013" class="node">
<title>Node13</title>
<g id="a_Node000013"><a xlink:href="class_file_system_policy.html#a16fb846b30be84537cca1fc8a9697fe3" target="_top" xlink:title="Creates a file with the specified content at the given path.">
<polygon fill="white" stroke="#666666" points="1103,-136 945,-136 945,-117 1103,-117 1103,-136"/>
<text text-anchor="middle" x="1024" y="-124" font-family="Helvetica,sans-Serif" font-size="10.00">FileSystemPolicy::writeToFile</text>
</a>
</g>
</g>
<!-- Node10&#45;&gt;Node13 -->
<g id="edge15_Node000010_Node000013" class="edge">
<title>Node10&#45;&gt;Node13</title>
<g id="a_edge15_Node000010_Node000013"><a xlink:title=" ">
<path fill="none" stroke="#63b8ff" d="M881.09,-190.92C888.71,-188.45 896.25,-185.36 903,-181.5 922.65,-170.27 919.19,-156.43 939,-145.5 943.2,-143.19 947.66,-141.15 952.26,-139.37"/>
<polygon fill="#63b8ff" stroke="#63b8ff" points="953.54,-142.63 961.84,-136.04 951.25,-136.01 953.54,-142.63"/>
</a>
</g>
</g>
<!-- Node12 -->
<g id="Node000012" class="node">
<title>Node12</title>
<g id="a_Node000012"><a xlink:href="class_file_system_policy.html#a6fa9dbd0b2ea4656d86bbe4dc966bf71" target="_top" xlink:title="Check the file type of a given path.">
<polygon fill="white" stroke="#666666" points="1318,-173 1145,-173 1145,-154 1318,-154 1318,-173"/>
<text text-anchor="middle" x="1231.5" y="-161" font-family="Helvetica,sans-Serif" font-size="10.00">FileSystemPolicy::checkFileType</text>
</a>
</g>
</g>
<!-- Node11&#45;&gt;Node12 -->
<g id="edge14_Node000011_Node000012" class="edge">
<title>Node11&#45;&gt;Node12</title>
<g id="a_edge14_Node000011_Node000012"><a xlink:title=" ">
<path fill="none" stroke="#63b8ff" d="M1109.18,-163.5C1117.53,-163.5 1126.05,-163.5 1134.51,-163.5"/>
<polygon fill="#63b8ff" stroke="#63b8ff" points="1134.79,-167 1144.79,-163.5 1134.79,-160 1134.79,-167"/>
</a>
</g>
</g>
<!-- Node16 -->
<g id="Node000016" class="node">
<title>Node16</title>
<g id="a_Node000016"><a xlink:href="_connection_8cpp.html#a1787b72853fa3a6146cea621fa1d0d65" target="_top" xlink:title="Clears the state of a given Connection object and resets its attributes.">
<polygon fill="white" stroke="#666666" points="490.5,-93 395.5,-93 395.5,-74 490.5,-74 490.5,-93"/>
<text text-anchor="middle" x="443" y="-81" font-family="Helvetica,sans-Serif" font-size="10.00">clearConnection</text>
</a>
</g>
</g>
<!-- Node15&#45;&gt;Node16 -->
<g id="edge18_Node000015_Node000016" class="edge">
<title>Node15&#45;&gt;Node16</title>
<g id="a_edge18_Node000015_Node000016"><a xlink:title=" ">
<path fill="none" stroke="#63b8ff" d="M319.27,-94.98C340.9,-92.95 364.47,-90.75 385.11,-88.82"/>
<polygon fill="#63b8ff" stroke="#63b8ff" points="385.67,-92.28 395.3,-87.87 385.02,-85.31 385.67,-92.28"/>
</a>
</g>
</g>
<!-- Node20 -->
<g id="Node000020" class="node">
<title>Node20</title>
<g id="a_Node000020"><a xlink:href="class_server.html#a54745950beb9e321d9a56084501c18e9" target="_top" xlink:title="Const Getter for server configs.">
<polygon fill="white" stroke="#666666" points="511.5,-56 374.5,-56 374.5,-37 511.5,-37 511.5,-56"/>
<text text-anchor="middle" x="443" y="-44" font-family="Helvetica,sans-Serif" font-size="10.00">Server::getServerConfigs</text>
</a>
</g>
</g>
<!-- Node15&#45;&gt;Node20 -->
<g id="edge22_Node000015_Node000020" class="edge">
<title>Node15&#45;&gt;Node20</title>
<g id="a_edge22_Node000015_Node000020"><a xlink:title=" ">
<path fill="none" stroke="#63b8ff" d="M273.93,-91.89C295.13,-83.8 326.76,-72.34 355,-64.5 363.12,-62.25 371.73,-60.14 380.26,-58.21"/>
<polygon fill="#63b8ff" stroke="#63b8ff" points="381.18,-61.59 390.2,-56.03 379.69,-54.75 381.18,-61.59"/>
</a>
</g>
</g>
<!-- Node21 -->
<g id="Node000021" class="node">
<title>Node21</title>
<g id="a_Node000021"><a xlink:href="class_server.html#afab1a4ec9e524b0dae8f60080642e7fe" target="_top" xlink:title="Wrapper function to EpollWrapper::modifyEvent.">
<polygon fill="white" stroke="#666666" points="501,-167 385,-167 385,-148 501,-148 501,-167"/>
<text text-anchor="middle" x="443" y="-155" font-family="Helvetica,sans-Serif" font-size="10.00">Server::modifyEvent</text>
</a>
</g>
</g>
<!-- Node15&#45;&gt;Node21 -->
<g id="edge23_Node000015_Node000021" class="edge">
<title>Node15&#45;&gt;Node21</title>
<g id="a_edge23_Node000015_Node000021"><a xlink:title=" ">
<path fill="none" stroke="#63b8ff" d="M273.07,-111.08C294.25,-119.42 326.33,-131.42 355,-139.5 363,-141.76 371.49,-143.86 379.91,-145.78"/>
<polygon fill="#63b8ff" stroke="#63b8ff" points="379.2,-149.21 389.72,-147.94 380.71,-142.37 379.2,-149.21"/>
</a>
</g>
</g>
<!-- Node23 -->
<g id="Node000023" class="node">
<title>Node23</title>
<g id="a_Node000023"><a xlink:href="class_server.html#a8bf2a41e8ddcccd54b5832b58211a283" target="_top" xlink:title="Wrapper function to SocketPolicy::writeToSocket.">
<polygon fill="white" stroke="#666666" points="504,-130 382,-130 382,-111 504,-111 504,-130"/>
<text text-anchor="middle" x="443" y="-118" font-family="Helvetica,sans-Serif" font-size="10.00">Server::writeToSocket</text>
</a>
</g>
</g>
<!-- Node15&#45;&gt;Node23 -->
<g id="edge25_Node000015_Node000023" class="edge">
<title>Node15&#45;&gt;Node23</title>
<g id="a_edge25_Node000015_Node000023"><a xlink:title=" ">
<path fill="none" stroke="#63b8ff" d="M319.27,-108.39C336.45,-110.08 354.85,-111.9 372.04,-113.59"/>
<polygon fill="#63b8ff" stroke="#63b8ff" points="371.7,-117.08 382,-114.58 372.39,-110.11 371.7,-117.08"/>
</a>
</g>
</g>
<!-- Node17 -->
<g id="Node000017" class="node">
<title>Node17</title>
<g id="a_Node000017"><a xlink:href="namespacewebutils.html#ad74875f464c74bd45589002fc385605e" target="_top" xlink:title=" ">
<polygon fill="white" stroke="#666666" points="693,-56 592,-56 592,-37 693,-37 693,-56"/>
<text text-anchor="middle" x="642.5" y="-44" font-family="Helvetica,sans-Serif" font-size="10.00">webutils::closeFd</text>
</a>
</g>
</g>
<!-- Node16&#45;&gt;Node17 -->
<g id="edge19_Node000016_Node000017" class="edge">
<title>Node16&#45;&gt;Node17</title>
<g id="a_edge19_Node000016_Node000017"><a xlink:title=" ">
<path fill="none" stroke="#63b8ff" d="M490.8,-74.73C518.05,-69.63 552.67,-63.14 581.85,-57.67"/>
<polygon fill="#63b8ff" stroke="#63b8ff" points="582.74,-61.07 591.93,-55.79 581.45,-54.19 582.74,-61.07"/>
</a>
</g>
</g>
<!-- Node18 -->
<g id="Node000018" class="node">
<title>Node18</title>
<g id="a_Node000018"><a xlink:href="_connection_8cpp.html#a354192f8dd87ca049cf8b7e6de9000da" target="_top" xlink:title="Selects the server configuration for a connection.">
<polygon fill="white" stroke="#666666" points="702.5,-93 582.5,-93 582.5,-74 702.5,-74 702.5,-93"/>
<text text-anchor="middle" x="642.5" y="-81" font-family="Helvetica,sans-Serif" font-size="10.00">hasValidServerConfig</text>
</a>
</g>
</g>
<!-- Node16&#45;&gt;Node18 -->
<g id="edge20_Node000016_Node000018" class="edge">
<title>Node16&#45;&gt;Node18</title>
<g id="a_edge20_Node000016_Node000018"><a xlink:title=" ">
<path fill="none" stroke="#63b8ff" d="M490.8,-83.5C515.08,-83.5 545.21,-83.5 572.13,-83.5"/>
<polygon fill="#63b8ff" stroke="#63b8ff" points="572.28,-87 582.28,-83.5 572.28,-80 572.28,-87"/>
</a>
</g>
</g>
<!-- Node19 -->
<g id="Node000019" class="node">
<title>Node19</title>
<g id="a_Node000019"><a xlink:href="_connection_8cpp.html#af96f533f342bd6cf42899f3c9fd30a99" target="_top" xlink:title="Find matching server configurations for a server socket.">
<polygon fill="white" stroke="#666666" points="902,-93 755,-93 755,-74 902,-74 902,-93"/>
<text text-anchor="middle" x="828.5" y="-81" font-family="Helvetica,sans-Serif" font-size="10.00">findMatchingServerConfigs</text>
</a>
</g>
</g>
<!-- Node18&#45;&gt;Node19 -->
<g id="edge21_Node000018_Node000019" class="edge">
<title>Node18&#45;&gt;Node19</title>
<g id="a_edge21_Node000018_Node000019"><a xlink:title=" ">
<path fill="none" stroke="#63b8ff" d="M702.73,-83.5C716.09,-83.5 730.51,-83.5 744.63,-83.5"/>
<polygon fill="#63b8ff" stroke="#63b8ff" points="744.85,-87 754.85,-83.5 744.85,-80 744.85,-87"/>
</a>
</g>
</g>
<!-- Node22 -->
<g id="Node000022" class="node">
<title>Node22</title>
<g id="a_Node000022"><a xlink:href="class_epoll_wrapper.html#ac97945725185999837a6d0d53f91df1a" target="_top" xlink:title="Modify an event in the epoll instance.">
<polygon fill="white" stroke="#666666" points="717,-167 568,-167 568,-148 717,-148 717,-167"/>
<text text-anchor="middle" x="642.5" y="-155" font-family="Helvetica,sans-Serif" font-size="10.00">EpollWrapper::modifyEvent</text>
</a>
</g>
</g>
<!-- Node21&#45;&gt;Node22 -->
<g id="edge24_Node000021_Node000022" class="edge">
<title>Node21&#45;&gt;Node22</title>
<g id="a_edge24_Node000021_Node000022"><a xlink:title=" ">
<path fill="none" stroke="#63b8ff" d="M501.13,-157.5C518.8,-157.5 538.65,-157.5 557.73,-157.5"/>
<polygon fill="#63b8ff" stroke="#63b8ff" points="557.93,-161 567.93,-157.5 557.93,-154 557.93,-161"/>
</a>
</g>
</g>
<!-- Node24 -->
<g id="Node000024" class="node">
<title>Node24</title>
<g id="a_Node000024"><a xlink:href="class_socket_policy.html#a2be07593236ccf70a7ddd7fc8d8b0af1" target="_top" xlink:title="Write to a socket.">
<polygon fill="white" stroke="#666666" points="718,-130 567,-130 567,-111 718,-111 718,-130"/>
<text text-anchor="middle" x="642.5" y="-118" font-family="Helvetica,sans-Serif" font-size="10.00">SocketPolicy::writeToSocket</text>
</a>
</g>
</g>
<!-- Node23&#45;&gt;Node24 -->
<g id="edge26_Node000023_Node000024" class="edge">
<title>Node23&#45;&gt;Node24</title>
<g id="a_edge26_Node000023_Node000024"><a xlink:title=" ">
<path fill="none" stroke="#63b8ff" d="M504.06,-120.5C520.57,-120.5 538.79,-120.5 556.42,-120.5"/>
<polygon fill="#63b8ff" stroke="#63b8ff" points="556.71,-124 566.71,-120.5 556.71,-117 556.71,-124"/>
</a>
</g>
</g>
<!-- Node26 -->
<g id="Node000026" class="node">
<title>Node26</title>
<g id="a_Node000026"><a xlink:href="class_response_builder.html#adf7d2f0fbb7f5b6866eb884fb2c17e88" target="_top" xlink:title="Get the built response.">
<polygon fill="white" stroke="#666666" points="526.5,-19 359.5,-19 359.5,0 526.5,0 526.5,-19"/>
<text text-anchor="middle" x="443" y="-7" font-family="Helvetica,sans-Serif" font-size="10.00">ResponseBuilder::getResponse</text>
</a>
</g>
</g>
<!-- Node25&#45;&gt;Node26 -->
<g id="edge28_Node000025_Node000026" class="edge">
<title>Node25&#45;&gt;Node26</title>
<g id="a_edge28_Node000025_Node000026"><a xlink:title=" ">
<path fill="none" stroke="#63b8ff" d="M299.07,-36.97C324.46,-32.09 355.56,-26.11 382.26,-20.98"/>
<polygon fill="#63b8ff" stroke="#63b8ff" points="383.1,-24.39 392.26,-19.06 381.78,-17.51 383.1,-24.39"/>
</a>
</g>
</g>
</g>
</svg>

<g id="navigator" transform="translate(0 0)" fill="#404254">
  <rect fill="#f2f5e9" fill-opacity="0.5" stroke="#606060" stroke-width=".5" x="0" y="0" width="60" height="60"/>
  <use id="zoomplus" xlink:href="#zoomPlus" x="17" y="9" onmousedown="handleZoom(evt,'in')"/>
  <use id="zoomminus" xlink:href="#zoomMin" x="42" y="9" onmousedown="handleZoom(evt,'out')"/>
  <use id="reset" xlink:href="#resetDef" x="30" y="36" onmousedown="handleReset()"/>
   <use id="arrowup" xlink:href="#arrowUp" x="0" y="0" onmousedown="handlePan(0,-1)"/>
  <use id="arrowright" xlink:href="#arrowRight" x="0" y="0" onmousedown="handlePan(1,0)"/>
  <use id="arrowdown" xlink:href="#arrowDown" x="0" y="0" onmousedown="handlePan(0,1)"/>
  <use id="arrowleft" xlink:href="#arrowLeft" x="0" y="0" onmousedown="handlePan(-1,0)"/>
</g>
<svg viewBox="0 0 15 15" width="100%" height="30px" preserveAspectRatio="xMaxYMin meet">
 <g id="arrow_out" transform="scale(0.3 0.3)">
  <a xlink:href="_server_8hpp_a9b6964fe44b1605c00c0f211a7f42896_cgraph_org.svg" target="_base">
   <rect id="button" ry="5" rx="5" y="6" x="6" height="38" width="38"
        fill="#f2f5e9" fill-opacity="0.5" stroke="#606060" stroke-width="1.0"/>
   <path id="arrow"
     d="M 11.500037,31.436501 C 11.940474,20.09759 22.043105,11.32322 32.158766,21.979434 L 37.068811,17.246167 C 37.068811,17.246167 37.088388,32 37.088388,32 L 22.160133,31.978069 C 22.160133,31.978069 26.997745,27.140456 26.997745,27.140456 C 18.528582,18.264221 13.291696,25.230495 11.500037,31.436501 z"
     style="fill:#404040;"/>
  </a>
 </g>
</svg>

<style type='text/css'>
<![CDATA[
[data-mouse-over-selected='false'] { opacity: 0.7; }
[data-mouse-over-selected='true']  { opacity: 1.0; }
]]>
</style>
<script type="application/ecmascript"><![CDATA[
document.addEventListener('DOMContentLoaded', (event) => {
  highlightEdges();
  highlightAdjacentNodes();
});
]]></script>
</svg>
