<?xml version="1.0" encoding="UTF-8" standalone="no"?>
<!DOCTYPE svg PUBLIC "-//W3C//DTD SVG 1.1//EN"
 "http://www.w3.org/Graphics/SVG/1.1/DTD/svg11.dtd">
<!-- Generated by graphviz version 2.43.0 (0)
 -->
<!-- Title: connectionReceiveFromCGI Pages: 1 -->
<svg width="442pt" height="27pt"
 viewBox="0.00 0.00 442.00 27.00" xmlns="http://www.w3.org/2000/svg" xmlns:xlink="http://www.w3.org/1999/xlink">
<g id="graph0" class="graph" transform="scale(1 1) rotate(0) translate(4 23)">
<title>connectionReceiveFromCGI</title>
<!-- Node1 -->
<g id="Node000001" class="node">
<title>Node1</title>
<g id="a_Node000001"><a xlink:title="Handles receiving data from a CGI script and processes it accordingly.">
<polygon fill="#999999" stroke="#666666" points="151,-19 0,-19 0,0 151,0 151,-19"/>
<text text-anchor="middle" x="75.5" y="-7" font-family="Helvetica,sans-Serif" font-size="10.00">connectionReceiveFromCGI</text>
</a>
</g>
</g>
<!-- Node2 -->
<g id="Node000002" class="node">
<title>Node2</title>
<g id="a_Node000002"><a xlink:href="signal_handler_8cpp.html#adc4193659d5893030190dca46c276ac7" target="_top" xlink:title="Converts a signal number to its name.">
<polygon fill="white" stroke="#666666" points="296,-19 187,-19 187,0 296,0 296,-19"/>
<text text-anchor="middle" x="241.5" y="-7" font-family="Helvetica,sans-Serif" font-size="10.00">signalNumToName</text>
</a>
</g>
</g>
<!-- Node1&#45;&gt;Node2 -->
<g id="edge1_Node000001_Node000002" class="edge">
<title>Node1&#45;&gt;Node2</title>
<g id="a_edge1_Node000001_Node000002"><a xlink:title=" ">
<path fill="none" stroke="#63b8ff" d="M151.3,-9.5C159.83,-9.5 168.46,-9.5 176.83,-9.5"/>
<polygon fill="#63b8ff" stroke="#63b8ff" points="176.87,-13 186.87,-9.5 176.87,-6 176.87,-13"/>
</a>
</g>
</g>
<!-- Node3 -->
<g id="Node000003" class="node">
<title>Node3</title>
<g id="a_Node000003"><a xlink:href="namespacewebutils.html#afd1710fd588c15830d10aef146da8ddb" target="_top" xlink:title="Convert a type to a string.">
<polygon fill="white" stroke="#666666" points="434,-19 332,-19 332,0 434,0 434,-19"/>
<text text-anchor="middle" x="383" y="-7" font-family="Helvetica,sans-Serif" font-size="10.00">webutils::toString</text>
</a>
</g>
</g>
<!-- Node2&#45;&gt;Node3 -->
<g id="edge2_Node000002_Node000003" class="edge">
<title>Node2&#45;&gt;Node3</title>
<g id="a_edge2_Node000002_Node000003"><a xlink:title=" ">
<path fill="none" stroke="#63b8ff" d="M296.04,-9.5C304.34,-9.5 312.97,-9.5 321.41,-9.5"/>
<polygon fill="#63b8ff" stroke="#63b8ff" points="321.59,-13 331.59,-9.5 321.59,-6 321.59,-13"/>
</a>
</g>
</g>
</g>
</svg>
