<?xml version="1.0" encoding="UTF-8" standalone="no"?>
<!DOCTYPE svg PUBLIC "-//W3C//DTD SVG 1.1//EN"
 "http://www.w3.org/Graphics/SVG/1.1/DTD/svg11.dtd">
<!-- Generated by graphviz version 2.43.0 (0)
 -->
<!-- Title: connectionSendResponse Pages: 1 -->
<svg width="692pt" height="156pt"
 viewBox="0.00 0.00 692.00 156.00" xmlns="http://www.w3.org/2000/svg" xmlns:xlink="http://www.w3.org/1999/xlink">
<g id="graph0" class="graph" transform="scale(1 1) rotate(0) translate(4 152)">
<title>connectionSendResponse</title>
<!-- Node1 -->
<g id="Node000001" class="node">
<title>Node1</title>
<g id="a_Node000001"><a xlink:title="Sends the response to a client connection.">
<polygon fill="#999999" stroke="#666666" points="141,-74 0,-74 0,-55 141,-55 141,-74"/>
<text text-anchor="middle" x="70.5" y="-62" font-family="Helvetica,sans-Serif" font-size="10.00">connectionSendResponse</text>
</a>
</g>
</g>
<!-- Node2 -->
<g id="Node000002" class="node">
<title>Node2</title>
<g id="a_Node000002"><a xlink:href="_connection_8cpp.html#a1787b72853fa3a6146cea621fa1d0d65" target="_top" xlink:title="Clears the state of a given Connection object and resets its attributes.">
<polygon fill="white" stroke="#666666" points="293,-130 198,-130 198,-111 293,-111 293,-130"/>
<text text-anchor="middle" x="245.5" y="-118" font-family="Helvetica,sans-Serif" font-size="10.00">clearConnection</text>
</a>
</g>
</g>
<!-- Node1&#45;&gt;Node2 -->
<g id="edge1_Node000001_Node000002" class="edge">
<title>Node1&#45;&gt;Node2</title>
<g id="a_edge1_Node000001_Node000002"><a xlink:title=" ">
<path fill="none" stroke="#63b8ff" d="M96.03,-74C117.28,-82.08 148.94,-93.72 177,-102.5 183.38,-104.49 190.14,-106.46 196.82,-108.33"/>
<polygon fill="#63b8ff" stroke="#63b8ff" points="195.93,-111.71 206.49,-110.97 197.77,-104.96 195.93,-111.71"/>
</a>
</g>
</g>
<!-- Node6 -->
<g id="Node000006" class="node">
<title>Node6</title>
<g id="a_Node000006"><a xlink:href="class_server.html#a54745950beb9e321d9a56084501c18e9" target="_top" xlink:title="Const Getter for server configs.">
<polygon fill="white" stroke="#666666" points="314,-93 177,-93 177,-74 314,-74 314,-93"/>
<text text-anchor="middle" x="245.5" y="-81" font-family="Helvetica,sans-Serif" font-size="10.00">Server::getServerConfigs</text>
</a>
</g>
</g>
<!-- Node1&#45;&gt;Node6 -->
<g id="edge5_Node000001_Node000006" class="edge">
<title>Node1&#45;&gt;Node6</title>
<g id="a_edge5_Node000001_Node000006"><a xlink:title=" ">
<path fill="none" stroke="#63b8ff" d="M141.37,-72.17C149.7,-73.09 158.25,-74.03 166.68,-74.95"/>
<polygon fill="#63b8ff" stroke="#63b8ff" points="166.58,-78.46 176.9,-76.08 167.34,-71.5 166.58,-78.46"/>
</a>
</g>
</g>
<!-- Node7 -->
<g id="Node000007" class="node">
<title>Node7</title>
<g id="a_Node000007"><a xlink:href="class_server.html#afab1a4ec9e524b0dae8f60080642e7fe" target="_top" xlink:title="Wrapper function to EpollWrapper::modifyEvent.">
<polygon fill="white" stroke="#666666" points="303.5,-56 187.5,-56 187.5,-37 303.5,-37 303.5,-56"/>
<text text-anchor="middle" x="245.5" y="-44" font-family="Helvetica,sans-Serif" font-size="10.00">Server::modifyEvent</text>
</a>
</g>
</g>
<!-- Node1&#45;&gt;Node7 -->
<g id="edge6_Node000001_Node000007" class="edge">
<title>Node1&#45;&gt;Node7</title>
<g id="a_edge6_Node000001_Node000007"><a xlink:title=" ">
<path fill="none" stroke="#63b8ff" d="M141.37,-57.23C153.19,-56 165.44,-54.73 177.2,-53.5"/>
<polygon fill="#63b8ff" stroke="#63b8ff" points="177.79,-56.96 187.38,-52.44 177.07,-50 177.79,-56.96"/>
</a>
</g>
</g>
<!-- Node9 -->
<g id="Node000009" class="node">
<title>Node9</title>
<g id="a_Node000009"><a xlink:href="class_server.html#a8bf2a41e8ddcccd54b5832b58211a283" target="_top" xlink:title="Wrapper function to SocketPolicy::writeToSocket.">
<polygon fill="white" stroke="#666666" points="306.5,-19 184.5,-19 184.5,0 306.5,0 306.5,-19"/>
<text text-anchor="middle" x="245.5" y="-7" font-family="Helvetica,sans-Serif" font-size="10.00">Server::writeToSocket</text>
</a>
</g>
</g>
<!-- Node1&#45;&gt;Node9 -->
<g id="edge8_Node000001_Node000009" class="edge">
<title>Node1&#45;&gt;Node9</title>
<g id="a_edge8_Node000001_Node000009"><a xlink:title=" ">
<path fill="none" stroke="#63b8ff" d="M96.9,-54.98C118.16,-47.15 149.36,-36.02 177,-27.5 183.39,-25.53 190.15,-23.58 196.83,-21.72"/>
<polygon fill="#63b8ff" stroke="#63b8ff" points="197.78,-25.09 206.51,-19.08 195.94,-18.34 197.78,-25.09"/>
</a>
</g>
</g>
<!-- Node3 -->
<g id="Node000003" class="node">
<title>Node3</title>
<g id="a_Node000003"><a xlink:href="namespacewebutils.html#ad74875f464c74bd45589002fc385605e" target="_top" xlink:title=" ">
<polygon fill="white" stroke="#666666" points="476,-148 375,-148 375,-129 476,-129 476,-148"/>
<text text-anchor="middle" x="425.5" y="-136" font-family="Helvetica,sans-Serif" font-size="10.00">webutils::closeFd</text>
</a>
</g>
</g>
<!-- Node2&#45;&gt;Node3 -->
<g id="edge2_Node000002_Node000003" class="edge">
<title>Node2&#45;&gt;Node3</title>
<g id="a_edge2_Node000002_Node000003"><a xlink:title=" ">
<path fill="none" stroke="#63b8ff" d="M293.27,-125.23C315.16,-127.44 341.49,-130.11 364.8,-132.46"/>
<polygon fill="#63b8ff" stroke="#63b8ff" points="364.63,-135.96 374.93,-133.49 365.33,-129 364.63,-135.96"/>
</a>
</g>
</g>
<!-- Node4 -->
<g id="Node000004" class="node">
<title>Node4</title>
<g id="a_Node000004"><a xlink:href="_connection_8cpp.html#a354192f8dd87ca049cf8b7e6de9000da" target="_top" xlink:title="Selects the server configuration for a connection.">
<polygon fill="white" stroke="#666666" points="485.5,-111 365.5,-111 365.5,-92 485.5,-92 485.5,-111"/>
<text text-anchor="middle" x="425.5" y="-99" font-family="Helvetica,sans-Serif" font-size="10.00">hasValidServerConfig</text>
</a>
</g>
</g>
<!-- Node2&#45;&gt;Node4 -->
<g id="edge3_Node000002_Node000004" class="edge">
<title>Node2&#45;&gt;Node4</title>
<g id="a_edge3_Node000002_Node000004"><a xlink:title=" ">
<path fill="none" stroke="#63b8ff" d="M293.27,-115.51C312.21,-113.49 334.48,-111.11 355.23,-108.89"/>
<polygon fill="#63b8ff" stroke="#63b8ff" points="355.71,-112.36 365.28,-107.82 354.97,-105.4 355.71,-112.36"/>
</a>
</g>
</g>
<!-- Node5 -->
<g id="Node000005" class="node">
<title>Node5</title>
<g id="a_Node000005"><a xlink:href="_connection_8cpp.html#af96f533f342bd6cf42899f3c9fd30a99" target="_top" xlink:title="Find matching server configurations for a server socket.">
<polygon fill="white" stroke="#666666" points="684,-111 537,-111 537,-92 684,-92 684,-111"/>
<text text-anchor="middle" x="610.5" y="-99" font-family="Helvetica,sans-Serif" font-size="10.00">findMatchingServerConfigs</text>
</a>
</g>
</g>
<!-- Node4&#45;&gt;Node5 -->
<g id="edge4_Node000004_Node000005" class="edge">
<title>Node4&#45;&gt;Node5</title>
<g id="a_edge4_Node000004_Node000005"><a xlink:title=" ">
<path fill="none" stroke="#63b8ff" d="M485.66,-101.5C498.77,-101.5 512.9,-101.5 526.75,-101.5"/>
<polygon fill="#63b8ff" stroke="#63b8ff" points="526.77,-105 536.77,-101.5 526.77,-98 526.77,-105"/>
</a>
</g>
</g>
<!-- Node8 -->
<g id="Node000008" class="node">
<title>Node8</title>
<g id="a_Node000008"><a xlink:href="class_epoll_wrapper.html#ac97945725185999837a6d0d53f91df1a" target="_top" xlink:title="Modify an event in the epoll instance.">
<polygon fill="white" stroke="#666666" points="500,-56 351,-56 351,-37 500,-37 500,-56"/>
<text text-anchor="middle" x="425.5" y="-44" font-family="Helvetica,sans-Serif" font-size="10.00">EpollWrapper::modifyEvent</text>
</a>
</g>
</g>
<!-- Node7&#45;&gt;Node8 -->
<g id="edge7_Node000007_Node000008" class="edge">
<title>Node7&#45;&gt;Node8</title>
<g id="a_edge7_Node000007_Node000008"><a xlink:title=" ">
<path fill="none" stroke="#63b8ff" d="M303.8,-46.5C315.47,-46.5 327.98,-46.5 340.36,-46.5"/>
<polygon fill="#63b8ff" stroke="#63b8ff" points="340.71,-50 350.71,-46.5 340.71,-43 340.71,-50"/>
</a>
</g>
</g>
<!-- Node10 -->
<g id="Node000010" class="node">
<title>Node10</title>
<g id="a_Node000010"><a xlink:href="class_socket_policy.html#a2be07593236ccf70a7ddd7fc8d8b0af1" target="_top" xlink:title="Write to a socket.">
<polygon fill="white" stroke="#666666" points="501,-19 350,-19 350,0 501,0 501,-19"/>
<text text-anchor="middle" x="425.5" y="-7" font-family="Helvetica,sans-Serif" font-size="10.00">SocketPolicy::writeToSocket</text>
</a>
</g>
</g>
<!-- Node9&#45;&gt;Node10 -->
<g id="edge9_Node000009_Node000010" class="edge">
<title>Node9&#45;&gt;Node10</title>
<g id="a_edge9_Node000009_Node000010"><a xlink:title=" ">
<path fill="none" stroke="#63b8ff" d="M306.76,-9.5C317.34,-9.5 328.53,-9.5 339.63,-9.5"/>
<polygon fill="#63b8ff" stroke="#63b8ff" points="339.78,-13 349.78,-9.5 339.78,-6 339.78,-13"/>
</a>
</g>
</g>
</g>
</svg>
