<?xml version="1.0" encoding="UTF-8" standalone="no"?>
<!DOCTYPE svg PUBLIC "-//W3C//DTD SVG 1.1//EN"
 "http://www.w3.org/Graphics/SVG/1.1/DTD/svg11.dtd">
<!-- Generated by graphviz version 2.43.0 (0)
 -->
<!-- Title: connectionReceiveHeader Pages: 1 -->
<!--zoomable 554 -->

<svg id="main" version="1.1" xmlns="http://www.w3.org/2000/svg" xmlns:xlink="http://www.w3.org/1999/xlink" xml:space="preserve" onload="init(evt)">
<style type="text/css"><![CDATA[
.node, .edge {opacity: 0.7;}
.node.selected, .edge.selected {opacity: 1;}
.edge:hover path { stroke: red; }
.edge:hover polygon { stroke: red; fill: red; }
]]></style>

<defs>
  <circle id="rim" cx="0" cy="0" r="7"/>
  <circle id="rim2" cx="0" cy="0" r="3.5"/>
  <g id="zoomPlus">
    <use xlink:href="#rim" fill="#404040"><set attributeName="fill" to="#808080" begin="zoomplus.mouseover" end="zoomplus.mouseout"/></use>
    <path d="M-4,0h8M0,-4v8" fill="none" stroke="white" stroke-width="1.5" pointer-events="none"/>
  </g>
  <g id="zoomMin">
    <use xlink:href="#rim" fill="#404040"><set attributeName="fill" to="#808080" begin="zoomminus.mouseover" end="zoomminus.mouseout"/></use>
    <path d="M-4,0h8" fill="none" stroke="white" stroke-width="1.5" pointer-events="none"/>
  </g>
  <g id="arrowUp" transform="translate(30 24)">
    <use xlink:href="#rim"/>
    <path pointer-events="none" fill="none" stroke="white" stroke-width="1.5" d="M0,-3.0v7 M-2.5,-0.5L0,-3.0L2.5,-0.5"/>
  </g>
  <g id="arrowRight" transform="rotate(90) translate(36 -43)">
    <use xlink:href="#rim"/>
    <path pointer-events="none" fill="none" stroke="white" stroke-width="1.5" d="M0,-3.0v7 M-2.5,-0.5L0,-3.0L2.5,-0.5"/>
  </g>
  <g id="arrowDown" transform="rotate(180) translate(-30 -48)">
    <use xlink:href="#rim"/>
    <path pointer-events="none" fill="none" stroke="white" stroke-width="1.5" d="M0,-3.0v7 M-2.5,-0.5L0,-3.0L2.5,-0.5"/>
  </g>
  <g id="arrowLeft" transform="rotate(270) translate(-36 17)">
    <use xlink:href="#rim"/>
    <path pointer-events="none" fill="none" stroke="white" stroke-width="1.5" d="M0,-3.0v7 M-2.5,-0.5L0,-3.0L2.5,-0.5"/>
  </g>
  <g id="resetDef">
    <use xlink:href="#rim2" fill="#404040"><set attributeName="fill" to="#808080" begin="reset.mouseover" end="reset.mouseout"/></use>
  </g>
</defs>
<script type="application/ecmascript">
var viewWidth = 1145;
var viewHeight = 554;
var sectionId = 'dynsection-16';
</script>
<script type="application/ecmascript" xlink:href="svg.min.js"/>
<svg id="graph" class="graph">
<g id="viewport">
<title>connectionReceiveHeader</title>
<!-- Node1 -->
<g id="Node000001" class="node">
<title>Node1</title>
<g id="a_Node000001"><a xlink:title="Receive request header from a client.">
<polygon fill="#999999" stroke="#666666" points="144,-188 0,-188 0,-169 144,-169 144,-188"/>
<text text-anchor="middle" x="72" y="-176" font-family="Helvetica,sans-Serif" font-size="10.00">connectionReceiveHeader</text>
</a>
</g>
</g>
<!-- Node2 -->
<g id="Node000002" class="node">
<title>Node2</title>
<g id="a_Node000002"><a xlink:href="class_server.html#aeef8f46cd90db32c308c95cd2e5b5c6e" target="_top" xlink:title="Getter for internal buffer.">
<polygon fill="white" stroke="#666666" points="315.5,-359 216.5,-359 216.5,-340 315.5,-340 315.5,-359"/>
<text text-anchor="middle" x="266" y="-347" font-family="Helvetica,sans-Serif" font-size="10.00">Server::getBuffer</text>
</a>
</g>
</g>
<!-- Node1&#45;&gt;Node2 -->
<g id="edge1_Node000001_Node000002" class="edge">
<title>Node1&#45;&gt;Node2</title>
<g id="a_edge1_Node000001_Node000002"><a xlink:title=" ">
<path fill="none" stroke="#63b8ff" d="M77.19,-188.11C89.16,-214.38 126.12,-287.97 180,-325.5 187.94,-331.03 197.13,-335.29 206.46,-338.57"/>
<polygon fill="#63b8ff" stroke="#63b8ff" points="205.62,-341.98 216.21,-341.65 207.73,-335.3 205.62,-341.98"/>
</a>
</g>
</g>
<!-- Node3 -->
<g id="Node000003" class="node">
<title>Node3</title>
<g id="a_Node000003"><a xlink:href="_server_8cpp.html#a83350eae81b96dd7b301d1238268ffdb" target="_top" xlink:title="Handles the complete request header received from a client.">
<polygon fill="white" stroke="#666666" points="352,-283 180,-283 180,-264 352,-264 352,-283"/>
<text text-anchor="middle" x="266" y="-271" font-family="Helvetica,sans-Serif" font-size="10.00">handleCompleteRequestHeader</text>
</a>
</g>
</g>
<!-- Node1&#45;&gt;Node3 -->
<g id="edge2_Node000001_Node000003" class="edge">
<title>Node1&#45;&gt;Node3</title>
<g id="a_edge2_Node000001_Node000003"><a xlink:title=" ">
<path fill="none" stroke="#63b8ff" d="M92.47,-188.13C126.48,-204.96 196.86,-239.79 236.42,-259.36"/>
<polygon fill="#63b8ff" stroke="#63b8ff" points="235.25,-262.69 245.77,-263.98 238.36,-256.41 235.25,-262.69"/>
</a>
</g>
</g>
<!-- Node15 -->
<g id="Node000015" class="node">
<title>Node15</title>
<g id="a_Node000015"><a xlink:href="class_server.html#afab1a4ec9e524b0dae8f60080642e7fe" target="_top" xlink:title="Wrapper function to EpollWrapper::modifyEvent.">
<polygon fill="white" stroke="#666666" points="734,-165 618,-165 618,-146 734,-146 734,-165"/>
<text text-anchor="middle" x="676" y="-153" font-family="Helvetica,sans-Serif" font-size="10.00">Server::modifyEvent</text>
</a>
</g>
</g>
<!-- Node1&#45;&gt;Node15 -->
<g id="edge37_Node000001_Node000015" class="edge">
<title>Node1&#45;&gt;Node15</title>
<g id="a_edge37_Node000001_Node000015"><a xlink:title=" ">
<path fill="none" stroke="#63b8ff" d="M96.94,-168.91C166.96,-142.12 377.3,-70.63 550,-104.5 585.74,-111.51 624.14,-128.8 648.81,-141.3"/>
<polygon fill="#63b8ff" stroke="#63b8ff" points="647.38,-144.51 657.87,-146 650.6,-138.29 647.38,-144.51"/>
</a>
</g>
</g>
<!-- Node31 -->
<g id="Node000031" class="node">
<title>Node31</title>
<g id="a_Node000031"><a xlink:href="class_server.html#ae04a9076862f2163c562e20fa2207681" target="_top" xlink:title="Removes a Connection from the Server.">
<polygon fill="white" stroke="#666666" points="542,-470 396,-470 396,-451 542,-451 542,-470"/>
<text text-anchor="middle" x="469" y="-458" font-family="Helvetica,sans-Serif" font-size="10.00">Server::removeConnection</text>
</a>
</g>
</g>
<!-- Node1&#45;&gt;Node31 -->
<g id="edge40_Node000001_Node000031" class="edge">
<title>Node1&#45;&gt;Node31</title>
<g id="a_edge40_Node000001_Node000031"><a xlink:title=" ">
<path fill="none" stroke="#63b8ff" d="M79.14,-188.27C93.69,-210.57 132.65,-265.39 180,-292.5 248.02,-331.45 294.12,-278.64 352,-331.5 390.3,-366.47 349.67,-407.56 388,-442.5 389.15,-443.55 390.35,-444.54 391.59,-445.48"/>
<polygon fill="#63b8ff" stroke="#63b8ff" points="389.97,-448.6 400.31,-450.92 393.68,-442.66 389.97,-448.6"/>
</a>
</g>
</g>
<!-- Node32 -->
<g id="Node000032" class="node">
<title>Node32</title>
<g id="a_Node000032"><a xlink:href="_server_8cpp.html#a172c400277e73261d212c33f66226090" target="_top" xlink:title="Checks if the connection buffer contains a request header.">
<polygon fill="white" stroke="#666666" points="339.5,-56 192.5,-56 192.5,-37 339.5,-37 339.5,-56"/>
<text text-anchor="middle" x="266" y="-44" font-family="Helvetica,sans-Serif" font-size="10.00">isCompleteRequestHeader</text>
</a>
</g>
</g>
<!-- Node1&#45;&gt;Node32 -->
<g id="edge36_Node000001_Node000032" class="edge">
<title>Node1&#45;&gt;Node32</title>
<g id="a_edge36_Node000001_Node000032"><a xlink:title=" ">
<path fill="none" stroke="#63b8ff" d="M79.82,-168.79C95.19,-147.64 134.75,-97.17 180,-70.5 187.68,-65.97 196.25,-62.27 204.92,-59.24"/>
<polygon fill="#63b8ff" stroke="#63b8ff" points="206.25,-62.49 214.7,-56.1 204.11,-55.82 206.25,-62.49"/>
</a>
</g>
</g>
<!-- Node33 -->
<g id="Node000033" class="node">
<title>Node33</title>
<g id="a_Node000033"><a xlink:href="class_server.html#ae94e3d4b5743580a6fbe3228d58af423" target="_top" xlink:title="Wrapper function to SocketPolicy::readFromSocket.">
<polygon fill="white" stroke="#666666" points="332.5,-19 199.5,-19 199.5,0 332.5,0 332.5,-19"/>
<text text-anchor="middle" x="266" y="-7" font-family="Helvetica,sans-Serif" font-size="10.00">Server::readFromSocket</text>
</a>
</g>
</g>
<!-- Node1&#45;&gt;Node33 -->
<g id="edge38_Node000001_Node000033" class="edge">
<title>Node1&#45;&gt;Node33</title>
<g id="a_edge38_Node000001_Node000033"><a xlink:title=" ">
<path fill="none" stroke="#63b8ff" d="M76.82,-168.83C88.08,-141.69 123.89,-64.38 180,-27.5 183.15,-25.43 186.49,-23.59 189.96,-21.97"/>
<polygon fill="#63b8ff" stroke="#63b8ff" points="191.45,-25.14 199.39,-18.12 188.81,-18.65 191.45,-25.14"/>
</a>
</g>
</g>
<!-- Node4 -->
<g id="Node000004" class="node">
<title>Node4</title>
<g id="a_Node000004"><a xlink:href="class_server.html#a002dd2fd1e6f0f4290568b4d94f39594" target="_top" xlink:title="Wrapper function to TargetResourceHandler::execute.">
<polygon fill="white" stroke="#666666" points="542.5,-396 395.5,-396 395.5,-377 542.5,-377 542.5,-396"/>
<text text-anchor="middle" x="469" y="-384" font-family="Helvetica,sans-Serif" font-size="10.00">Server::findTargetResource</text>
</a>
</g>
</g>
<!-- Node3&#45;&gt;Node4 -->
<g id="edge3_Node000003_Node000004" class="edge">
<title>Node3&#45;&gt;Node4</title>
<g id="a_edge3_Node000003_Node000004"><a xlink:title=" ">
<path fill="none" stroke="#63b8ff" d="M324.86,-283.15C334.58,-286.57 344.07,-291.21 352,-297.5 377.88,-318.01 362.28,-341.78 388,-362.5 393.31,-366.78 399.37,-370.3 405.72,-373.19"/>
<polygon fill="#63b8ff" stroke="#63b8ff" points="404.61,-376.51 415.19,-376.99 407.22,-370.01 404.61,-376.51"/>
</a>
</g>
</g>
<!-- Node6 -->
<g id="Node000006" class="node">
<title>Node6</title>
<g id="a_Node000006"><a xlink:href="class_server.html#aad2be3b48155c6eb508bca4b1af3db97" target="_top" xlink:title="Getter for cgiConnections.">
<polygon fill="white" stroke="#666666" points="542.5,-320 395.5,-320 395.5,-301 542.5,-301 542.5,-320"/>
<text text-anchor="middle" x="469" y="-308" font-family="Helvetica,sans-Serif" font-size="10.00">Server::getCGIConnections</text>
</a>
</g>
</g>
<!-- Node3&#45;&gt;Node6 -->
<g id="edge5_Node000003_Node000006" class="edge">
<title>Node3&#45;&gt;Node6</title>
<g id="a_edge5_Node000003_Node000006"><a xlink:title=" ">
<path fill="none" stroke="#63b8ff" d="M318.76,-283.03C345.39,-287.93 378.03,-293.94 405.99,-299.09"/>
<polygon fill="#63b8ff" stroke="#63b8ff" points="405.6,-302.57 416.06,-300.94 406.86,-295.69 405.6,-302.57"/>
</a>
</g>
</g>
<!-- Node7 -->
<g id="Node000007" class="node">
<title>Node7</title>
<g id="a_Node000007"><a xlink:href="class_server.html#a1f8929bed093f869374cb81da4d97505" target="_top" xlink:title="Const Getter for connections.">
<polygon fill="white" stroke="#666666" points="741,-492 611,-492 611,-473 741,-473 741,-492"/>
<text text-anchor="middle" x="676" y="-480" font-family="Helvetica,sans-Serif" font-size="10.00">Server::getConnections</text>
</a>
</g>
</g>
<!-- Node3&#45;&gt;Node7 -->
<g id="edge6_Node000003_Node000007" class="edge">
<title>Node3&#45;&gt;Node7</title>
<g id="a_edge6_Node000003_Node000007"><a xlink:title=" ">
<path fill="none" stroke="#63b8ff" d="M289.27,-283.01C308.77,-292.48 336.35,-308.88 352,-331.5 390.52,-387.17 334.99,-437.39 388,-479.5 460.29,-536.93 578.28,-512.8 637.95,-495.09"/>
<polygon fill="#63b8ff" stroke="#63b8ff" points="639.16,-498.37 647.7,-492.09 637.11,-491.68 639.16,-498.37"/>
</a>
</g>
</g>
<!-- Node8 -->
<g id="Node000008" class="node">
<title>Node8</title>
<g id="a_Node000008"><a xlink:href="class_server.html#a058d2c0df13f61b3e755f412ea56947d" target="_top" xlink:title="Wrapper function to EpollWrapper::getEpollFd.">
<polygon fill="white" stroke="#666666" points="522,-433 416,-433 416,-414 522,-414 522,-433"/>
<text text-anchor="middle" x="469" y="-421" font-family="Helvetica,sans-Serif" font-size="10.00">Server::getEpollFd</text>
</a>
</g>
</g>
<!-- Node3&#45;&gt;Node8 -->
<g id="edge7_Node000003_Node000008" class="edge">
<title>Node3&#45;&gt;Node8</title>
<g id="a_edge7_Node000003_Node000008"><a xlink:title=" ">
<path fill="none" stroke="#63b8ff" d="M328.91,-283.17C337.41,-286.61 345.46,-291.25 352,-297.5 388.6,-332.43 350.47,-371.56 388,-405.5 393.18,-410.18 399.31,-413.73 405.84,-416.41"/>
<polygon fill="#63b8ff" stroke="#63b8ff" points="405.03,-419.83 415.62,-419.74 407.28,-413.21 405.03,-419.83"/>
</a>
</g>
</g>
<!-- Node10 -->
<g id="Node000010" class="node">
<title>Node10</title>
<g id="a_Node000010"><a xlink:href="class_server.html#a54745950beb9e321d9a56084501c18e9" target="_top" xlink:title="Const Getter for server configs.">
<polygon fill="white" stroke="#666666" points="537.5,-132 400.5,-132 400.5,-113 537.5,-113 537.5,-132"/>
<text text-anchor="middle" x="469" y="-120" font-family="Helvetica,sans-Serif" font-size="10.00">Server::getServerConfigs</text>
</a>
</g>
</g>
<!-- Node3&#45;&gt;Node10 -->
<g id="edge9_Node000003_Node000010" class="edge">
<title>Node3&#45;&gt;Node10</title>
<g id="a_edge9_Node000003_Node000010"><a xlink:title=" ">
<path fill="none" stroke="#63b8ff" d="M273.4,-263.93C289.65,-240.35 335.05,-179 388,-146.5 395.28,-142.03 403.45,-138.34 411.72,-135.32"/>
<polygon fill="#63b8ff" stroke="#63b8ff" points="413.04,-138.57 421.41,-132.07 410.82,-131.93 413.04,-138.57"/>
</a>
</g>
</g>
<!-- Node11 -->
<g id="Node000011" class="node">
<title>Node11</title>
<g id="a_Node000011"><a xlink:href="_server_8cpp.html#af0fb17fe53a5e9e72824e5df3fba1322" target="_top" xlink:title="Handles the body of the HTTP request.">
<polygon fill="white" stroke="#666666" points="506,-283 432,-283 432,-264 506,-264 506,-283"/>
<text text-anchor="middle" x="469" y="-271" font-family="Helvetica,sans-Serif" font-size="10.00">handleBody</text>
</a>
</g>
</g>
<!-- Node3&#45;&gt;Node11 -->
<g id="edge10_Node000003_Node000011" class="edge">
<title>Node3&#45;&gt;Node11</title>
<g id="a_edge10_Node000003_Node000011"><a xlink:title=" ">
<path fill="none" stroke="#63b8ff" d="M352.24,-273.5C376.13,-273.5 401.2,-273.5 421.87,-273.5"/>
<polygon fill="#63b8ff" stroke="#63b8ff" points="421.95,-277 431.95,-273.5 421.95,-270 421.95,-277"/>
</a>
</g>
</g>
<!-- Node3&#45;&gt;Node15 -->
<g id="edge27_Node000003_Node000015" class="edge">
<title>Node3&#45;&gt;Node15</title>
<g id="a_edge27_Node000003_Node000015"><a xlink:title=" ">
<path fill="none" stroke="#63b8ff" d="M278.87,-263.97C299.65,-247.85 344.52,-215.4 388,-199.5 460.28,-173.07 548.42,-162.52 607.8,-158.3"/>
<polygon fill="#63b8ff" stroke="#63b8ff" points="608.06,-161.79 617.81,-157.63 607.59,-154.81 608.06,-161.79"/>
</a>
</g>
</g>
<!-- Node20 -->
<g id="Node000020" class="node">
<title>Node20</title>
<g id="a_Node000020"><a xlink:href="class_server.html#abcfb45414689863da69c2e72ac8fc946" target="_top" xlink:title="Register a CGI file descriptor.">
<polygon fill="white" stroke="#666666" points="764,-221 588,-221 588,-202 764,-202 764,-221"/>
<text text-anchor="middle" x="676" y="-209" font-family="Helvetica,sans-Serif" font-size="10.00">Server::registerCGIFileDescriptor</text>
</a>
</g>
</g>
<!-- Node3&#45;&gt;Node20 -->
<g id="edge31_Node000003_Node000020" class="edge">
<title>Node3&#45;&gt;Node20</title>
<g id="a_edge31_Node000003_Node000020"><a xlink:title=" ">
<path fill="none" stroke="#63b8ff" d="M282.7,-263.85C305.11,-250.69 347.97,-227.68 388,-218.5 449.97,-204.28 521.44,-202.5 577.56,-204.28"/>
<polygon fill="#63b8ff" stroke="#63b8ff" points="577.73,-207.79 587.85,-204.66 577.98,-200.8 577.73,-207.79"/>
</a>
</g>
</g>
<!-- Node23 -->
<g id="Node000023" class="node">
<title>Node23</title>
<g id="a_Node000023"><a xlink:href="class_server.html#a3ea71b66d27b584d8c33eb5cb64813f1" target="_top" xlink:title="Wrapper function to EpollWrapper::removeEvent.">
<polygon fill="white" stroke="#666666" points="735.5,-355 616.5,-355 616.5,-336 735.5,-336 735.5,-355"/>
<text text-anchor="middle" x="676" y="-343" font-family="Helvetica,sans-Serif" font-size="10.00">Server::removeEvent</text>
</a>
</g>
</g>
<!-- Node3&#45;&gt;Node23 -->
<g id="edge35_Node000003_Node000023" class="edge">
<title>Node3&#45;&gt;Node23</title>
<g id="a_edge35_Node000003_Node000023"><a xlink:title=" ">
<path fill="none" stroke="#63b8ff" d="M315.25,-283.07C327.67,-286.6 340.7,-291.31 352,-297.5 370.78,-307.78 368.21,-321.34 388,-329.5 458.21,-358.46 546.38,-358.64 606.34,-354.02"/>
<polygon fill="#63b8ff" stroke="#63b8ff" points="606.78,-357.5 616.45,-353.18 606.19,-350.52 606.78,-357.5"/>
</a>
</g>
</g>
<!-- Node25 -->
<g id="Node000025" class="node">
<title>Node25</title>
<g id="a_Node000025"><a xlink:href="_connection_8cpp.html#a354192f8dd87ca049cf8b7e6de9000da" target="_top" xlink:title="Selects the server configuration for a connection.">
<polygon fill="white" stroke="#666666" points="529,-546 409,-546 409,-527 529,-527 529,-546"/>
<text text-anchor="middle" x="469" y="-534" font-family="Helvetica,sans-Serif" font-size="10.00">hasValidServerConfig</text>
</a>
</g>
</g>
<!-- Node3&#45;&gt;Node25 -->
<g id="edge24_Node000003_Node000025" class="edge">
<title>Node3&#45;&gt;Node25</title>
<g id="a_edge24_Node000003_Node000025"><a xlink:title=" ">
<path fill="none" stroke="#63b8ff" d="M289.89,-283.04C309.51,-292.44 336.93,-308.7 352,-331.5 397.23,-399.92 332.83,-451.81 388,-512.5 391.51,-516.36 395.61,-519.6 400.06,-522.34"/>
<polygon fill="#63b8ff" stroke="#63b8ff" points="398.53,-525.48 409.01,-526.98 401.75,-519.27 398.53,-525.48"/>
</a>
</g>
</g>
<!-- Node27 -->
<g id="Node000027" class="node">
<title>Node27</title>
<g id="a_Node000027"><a xlink:href="_server_8cpp.html#a92411155dbfc5d7f43c3f1ac0fe54548" target="_top" xlink:title="Checks if a CGI request is made based on the connection details.">
<polygon fill="white" stroke="#666666" points="516,-246 422,-246 422,-227 516,-227 516,-246"/>
<text text-anchor="middle" x="469" y="-234" font-family="Helvetica,sans-Serif" font-size="10.00">isCGIRequested</text>
</a>
</g>
</g>
<!-- Node3&#45;&gt;Node27 -->
<g id="edge26_Node000003_Node000027" class="edge">
<title>Node3&#45;&gt;Node27</title>
<g id="a_edge26_Node000003_Node000027"><a xlink:title=" ">
<path fill="none" stroke="#63b8ff" d="M318.76,-263.97C347.27,-258.72 382.69,-252.2 411.86,-246.83"/>
<polygon fill="#63b8ff" stroke="#63b8ff" points="412.7,-250.24 421.9,-244.99 411.43,-243.35 412.7,-250.24"/>
</a>
</g>
</g>
<!-- Node28 -->
<g id="Node000028" class="node">
<title>Node28</title>
<g id="a_Node000028"><a xlink:href="class_server.html#a34bc61299318fe1918293b1d656ee5f9" target="_top" xlink:title="Wrapper function to RequestParser::parseHeader.">
<polygon fill="white" stroke="#666666" points="527,-56 411,-56 411,-37 527,-37 527,-56"/>
<text text-anchor="middle" x="469" y="-44" font-family="Helvetica,sans-Serif" font-size="10.00">Server::parseHeader</text>
</a>
</g>
</g>
<!-- Node3&#45;&gt;Node28 -->
<g id="edge28_Node000003_Node000028" class="edge">
<title>Node3&#45;&gt;Node28</title>
<g id="a_edge28_Node000003_Node000028"><a xlink:title=" ">
<path fill="none" stroke="#63b8ff" d="M272.36,-263.91C287.83,-236.78 334.83,-157.99 388,-104.5 404.63,-87.77 426.48,-72.27 443.15,-61.52"/>
<polygon fill="#63b8ff" stroke="#63b8ff" points="445.22,-64.35 451.8,-56.05 441.48,-58.43 445.22,-64.35"/>
</a>
</g>
</g>
<!-- Node3&#45;&gt;Node31 -->
<g id="edge32_Node000003_Node000031" class="edge">
<title>Node3&#45;&gt;Node31</title>
<g id="a_edge32_Node000003_Node000031"><a xlink:title=" ">
<path fill="none" stroke="#63b8ff" d="M330.21,-283.08C338.33,-286.55 345.92,-291.22 352,-297.5 398.2,-345.19 340.53,-396.07 388,-442.5 388.94,-443.42 389.93,-444.3 390.94,-445.14"/>
<polygon fill="#63b8ff" stroke="#63b8ff" points="389.05,-448.09 399.29,-450.8 392.97,-442.29 389.05,-448.09"/>
</a>
</g>
</g>
<!-- Node5 -->
<g id="Node000005" class="node">
<title>Node5</title>
<g id="a_Node000005"><a xlink:href="class_target_resource_handler.html#ac3694cb9b73e3f93b874740194539282" target="_top" xlink:title="Determine target resource based on the request path and handle different file types and statuses acco...">
<polygon fill="white" stroke="#666666" points="741,-403.5 611,-403.5 611,-373.5 741,-373.5 741,-403.5"/>
<text text-anchor="start" x="619" y="-391.5" font-family="Helvetica,sans-Serif" font-size="10.00">TargetResourceHandler</text>
<text text-anchor="middle" x="676" y="-380.5" font-family="Helvetica,sans-Serif" font-size="10.00">::execute</text>
</a>
</g>
</g>
<!-- Node4&#45;&gt;Node5 -->
<g id="edge4_Node000004_Node000005" class="edge">
<title>Node4&#45;&gt;Node5</title>
<g id="a_edge4_Node000004_Node000005"><a xlink:title=" ">
<path fill="none" stroke="#63b8ff" d="M542.56,-387.21C561.41,-387.39 581.73,-387.59 600.66,-387.77"/>
<polygon fill="#63b8ff" stroke="#63b8ff" points="600.69,-391.28 610.72,-387.87 600.75,-384.28 600.69,-391.28"/>
</a>
</g>
</g>
<!-- Node9 -->
<g id="Node000009" class="node">
<title>Node9</title>
<g id="a_Node000009"><a xlink:href="class_epoll_wrapper.html#af9b96396ae751ae1189a2c1f9da64ae0" target="_top" xlink:title="Getter for epoll file descriptor.">
<polygon fill="white" stroke="#666666" points="746,-441 606,-441 606,-422 746,-422 746,-441"/>
<text text-anchor="middle" x="676" y="-429" font-family="Helvetica,sans-Serif" font-size="10.00">EpollWrapper::getEpollFd</text>
</a>
</g>
</g>
<!-- Node8&#45;&gt;Node9 -->
<g id="edge8_Node000008_Node000009" class="edge">
<title>Node8&#45;&gt;Node9</title>
<g id="a_edge8_Node000008_Node000009"><a xlink:title=" ">
<path fill="none" stroke="#63b8ff" d="M522.26,-425.54C544.57,-426.41 571.1,-427.45 595.74,-428.41"/>
<polygon fill="#63b8ff" stroke="#63b8ff" points="595.68,-431.91 605.8,-428.8 595.95,-424.91 595.68,-431.91"/>
</a>
</g>
</g>
<!-- Node12 -->
<g id="Node000012" class="node">
<title>Node12</title>
<g id="a_Node000012"><a xlink:href="class_server.html#a9740c1ff86f39451ac5c8d20e81260c6" target="_top" xlink:title="Wrapper function to RequestParser::decodeMultipartFormdata.">
<polygon fill="white" stroke="#666666" points="766,-279 586,-279 586,-260 766,-260 766,-279"/>
<text text-anchor="middle" x="676" y="-267" font-family="Helvetica,sans-Serif" font-size="10.00">Server::decodeMultipartFormdata</text>
</a>
</g>
</g>
<!-- Node11&#45;&gt;Node12 -->
<g id="edge11_Node000011_Node000012" class="edge">
<title>Node11&#45;&gt;Node12</title>
<g id="a_edge11_Node000011_Node000012"><a xlink:title=" ">
<path fill="none" stroke="#63b8ff" d="M506.18,-272.79C525.68,-272.41 550.78,-271.92 575.65,-271.44"/>
<polygon fill="#63b8ff" stroke="#63b8ff" points="575.96,-274.93 585.89,-271.24 575.83,-267.93 575.96,-274.93"/>
</a>
</g>
</g>
<!-- Node11&#45;&gt;Node15 -->
<g id="edge14_Node000011_Node000015" class="edge">
<title>Node11&#45;&gt;Node15</title>
<g id="a_edge14_Node000011_Node000015"><a xlink:title=" ">
<path fill="none" stroke="#63b8ff" d="M506.06,-271.65C520.83,-269.39 537.37,-264.76 550,-255.5 575.69,-236.65 562.13,-214.61 586,-193.5 598.29,-182.63 614.14,-174.53 629.06,-168.66"/>
<polygon fill="#63b8ff" stroke="#63b8ff" points="630.51,-171.86 638.68,-165.12 628.09,-165.29 630.51,-171.86"/>
</a>
</g>
</g>
<!-- Node17 -->
<g id="Node000017" class="node">
<title>Node17</title>
<g id="a_Node000017"><a xlink:href="class_server.html#a76129120a82883a977e375b8a85ace09" target="_top" xlink:title="Wrapper function to RequestParser::parseBody.">
<polygon fill="white" stroke="#666666" points="750,-317 602,-317 602,-298 750,-298 750,-317"/>
<text text-anchor="middle" x="676" y="-305" font-family="Helvetica,sans-Serif" font-size="10.00">Server::parseChunkedBody</text>
</a>
</g>
</g>
<!-- Node11&#45;&gt;Node17 -->
<g id="edge16_Node000011_Node000017" class="edge">
<title>Node11&#45;&gt;Node17</title>
<g id="a_edge16_Node000011_Node000017"><a xlink:title=" ">
<path fill="none" stroke="#63b8ff" d="M506.18,-279.5C534.1,-284.13 573.52,-290.67 607.24,-296.26"/>
<polygon fill="#63b8ff" stroke="#63b8ff" points="607.07,-299.78 617.51,-297.96 608.22,-292.88 607.07,-299.78"/>
</a>
</g>
</g>
<!-- Node11&#45;&gt;Node20 -->
<g id="edge19_Node000011_Node000020" class="edge">
<title>Node11&#45;&gt;Node20</title>
<g id="a_edge19_Node000011_Node000020"><a xlink:title=" ">
<path fill="none" stroke="#63b8ff" d="M506.07,-266.32C519.9,-263.33 535.77,-259.59 550,-255.5 581.23,-246.52 616.05,-234.06 641,-224.69"/>
<polygon fill="#63b8ff" stroke="#63b8ff" points="642.26,-227.95 650.37,-221.13 639.78,-221.4 642.26,-227.95"/>
</a>
</g>
</g>
<!-- Node11&#45;&gt;Node23 -->
<g id="edge22_Node000011_Node000023" class="edge">
<title>Node11&#45;&gt;Node23</title>
<g id="a_edge22_Node000011_Node000023"><a xlink:title=" ">
<path fill="none" stroke="#63b8ff" d="M506.1,-277.94C520.38,-280.73 536.56,-285.24 550,-292.5 569.37,-302.95 566.52,-316.27 586,-326.5 592.44,-329.88 599.45,-332.66 606.61,-334.95"/>
<polygon fill="#63b8ff" stroke="#63b8ff" points="605.84,-338.37 616.42,-337.77 607.78,-331.65 605.84,-338.37"/>
</a>
</g>
</g>
<!-- Node13 -->
<g id="Node000013" class="node">
<title>Node13</title>
<g id="a_Node000013"><a xlink:href="class_request_parser.html#ade021aa8f89e1168fdb56d408d0fb384" target="_top" xlink:title="Decodes the multipart/form&#45;data content of an HTTP request.">
<polygon fill="white" stroke="#666666" points="981,-283.5 809,-283.5 809,-253.5 981,-253.5 981,-283.5"/>
<text text-anchor="start" x="817" y="-271.5" font-family="Helvetica,sans-Serif" font-size="10.00">RequestParser::decodeMultipart</text>
<text text-anchor="middle" x="895" y="-260.5" font-family="Helvetica,sans-Serif" font-size="10.00">Formdata</text>
</a>
</g>
</g>
<!-- Node12&#45;&gt;Node13 -->
<g id="edge12_Node000012_Node000013" class="edge">
<title>Node12&#45;&gt;Node13</title>
<g id="a_edge12_Node000012_Node000013"><a xlink:title=" ">
<path fill="none" stroke="#63b8ff" d="M766.2,-269.09C776.92,-269.04 787.9,-268.99 798.7,-268.94"/>
<polygon fill="#63b8ff" stroke="#63b8ff" points="799,-272.44 808.99,-268.89 798.97,-265.44 799,-272.44"/>
</a>
</g>
</g>
<!-- Node14 -->
<g id="Node000014" class="node">
<title>Node14</title>
<g id="a_Node000014"><a xlink:href="namespacewebutils.html#a81d8421d47b55041d0e1336855f72229" target="_top" xlink:title="Converts all characters in a string to lowercase.">
<polygon fill="white" stroke="#666666" points="1137,-278 1024,-278 1024,-259 1137,-259 1137,-278"/>
<text text-anchor="middle" x="1080.5" y="-266" font-family="Helvetica,sans-Serif" font-size="10.00">webutils::lowercase</text>
</a>
</g>
</g>
<!-- Node13&#45;&gt;Node14 -->
<g id="edge13_Node000013_Node000014" class="edge">
<title>Node13&#45;&gt;Node14</title>
<g id="a_edge13_Node000013_Node000014"><a xlink:title=" ">
<path fill="none" stroke="#63b8ff" d="M981.04,-268.5C992.05,-268.5 1003.19,-268.5 1013.82,-268.5"/>
<polygon fill="#63b8ff" stroke="#63b8ff" points="1013.84,-272 1023.84,-268.5 1013.84,-265 1013.84,-272"/>
</a>
</g>
</g>
<!-- Node16 -->
<g id="Node000016" class="node">
<title>Node16</title>
<g id="a_Node000016"><a xlink:href="class_epoll_wrapper.html#ac97945725185999837a6d0d53f91df1a" target="_top" xlink:title="Modify an event in the epoll instance.">
<polygon fill="white" stroke="#666666" points="969.5,-161 820.5,-161 820.5,-142 969.5,-142 969.5,-161"/>
<text text-anchor="middle" x="895" y="-149" font-family="Helvetica,sans-Serif" font-size="10.00">EpollWrapper::modifyEvent</text>
</a>
</g>
</g>
<!-- Node15&#45;&gt;Node16 -->
<g id="edge15_Node000015_Node000016" class="edge">
<title>Node15&#45;&gt;Node16</title>
<g id="a_edge15_Node000015_Node000016"><a xlink:title=" ">
<path fill="none" stroke="#63b8ff" d="M734.01,-154.45C757.29,-154.02 784.69,-153.51 810.17,-153.05"/>
<polygon fill="#63b8ff" stroke="#63b8ff" points="810.27,-156.54 820.2,-152.86 810.14,-149.55 810.27,-156.54"/>
</a>
</g>
</g>
<!-- Node18 -->
<g id="Node000018" class="node">
<title>Node18</title>
<g id="a_Node000018"><a xlink:href="class_request_parser.html#ad637cd5291af3d823c77768cda96dcd5" target="_top" xlink:title="Parses the chunked body of an HTTP request.">
<polygon fill="white" stroke="#666666" points="988,-321 802,-321 802,-302 988,-302 988,-321"/>
<text text-anchor="middle" x="895" y="-309" font-family="Helvetica,sans-Serif" font-size="10.00">RequestParser::parseChunkedBody</text>
</a>
</g>
</g>
<!-- Node17&#45;&gt;Node18 -->
<g id="edge17_Node000017_Node000018" class="edge">
<title>Node17&#45;&gt;Node18</title>
<g id="a_edge17_Node000017_Node000018"><a xlink:title=" ">
<path fill="none" stroke="#63b8ff" d="M750.16,-308.85C763.53,-309.1 777.7,-309.36 791.73,-309.61"/>
<polygon fill="#63b8ff" stroke="#63b8ff" points="791.85,-313.12 801.91,-309.8 791.97,-306.12 791.85,-313.12"/>
</a>
</g>
</g>
<!-- Node19 -->
<g id="Node000019" class="node">
<title>Node19</title>
<g id="a_Node000019"><a xlink:href="namespacewebutils.html#afd1710fd588c15830d10aef146da8ddb" target="_top" xlink:title="Convert a type to a string.">
<polygon fill="white" stroke="#666666" points="1131.5,-321 1029.5,-321 1029.5,-302 1131.5,-302 1131.5,-321"/>
<text text-anchor="middle" x="1080.5" y="-309" font-family="Helvetica,sans-Serif" font-size="10.00">webutils::toString</text>
</a>
</g>
</g>
<!-- Node18&#45;&gt;Node19 -->
<g id="edge18_Node000018_Node000019" class="edge">
<title>Node18&#45;&gt;Node19</title>
<g id="a_edge18_Node000018_Node000019"><a xlink:title=" ">
<path fill="none" stroke="#63b8ff" d="M988.02,-311.5C998.51,-311.5 1008.99,-311.5 1018.92,-311.5"/>
<polygon fill="#63b8ff" stroke="#63b8ff" points="1019.04,-315 1029.04,-311.5 1019.04,-308 1019.04,-315"/>
</a>
</g>
</g>
<!-- Node21 -->
<g id="Node000021" class="node">
<title>Node21</title>
<g id="a_Node000021"><a xlink:href="class_epoll_wrapper.html#ace2a6009a6c647babfc667c27df05354" target="_top" xlink:title="Add an event to the epoll instance.">
<polygon fill="white" stroke="#666666" points="962,-198 828,-198 828,-179 962,-179 962,-198"/>
<text text-anchor="middle" x="895" y="-186" font-family="Helvetica,sans-Serif" font-size="10.00">EpollWrapper::addEvent</text>
</a>
</g>
</g>
<!-- Node20&#45;&gt;Node21 -->
<g id="edge20_Node000020_Node000021" class="edge">
<title>Node20&#45;&gt;Node21</title>
<g id="a_edge20_Node000020_Node000021"><a xlink:title=" ">
<path fill="none" stroke="#63b8ff" d="M764.01,-202.28C781.75,-200.4 800.29,-198.43 817.63,-196.59"/>
<polygon fill="#63b8ff" stroke="#63b8ff" points="818.11,-200.06 827.69,-195.53 817.37,-193.1 818.11,-200.06"/>
</a>
</g>
</g>
<!-- Node22 -->
<g id="Node000022" class="node">
<title>Node22</title>
<g id="a_Node000022"><a xlink:href="namespacewebutils.html#ad74875f464c74bd45589002fc385605e" target="_top" xlink:title=" ">
<polygon fill="white" stroke="#666666" points="945.5,-235 844.5,-235 844.5,-216 945.5,-216 945.5,-235"/>
<text text-anchor="middle" x="895" y="-223" font-family="Helvetica,sans-Serif" font-size="10.00">webutils::closeFd</text>
</a>
</g>
</g>
<!-- Node20&#45;&gt;Node22 -->
<g id="edge21_Node000020_Node000022" class="edge">
<title>Node20&#45;&gt;Node22</title>
<g id="a_edge21_Node000020_Node000022"><a xlink:title=" ">
<path fill="none" stroke="#63b8ff" d="M764.01,-217.11C787.63,-218.64 812.66,-220.25 834.38,-221.65"/>
<polygon fill="#63b8ff" stroke="#63b8ff" points="834.23,-225.15 844.44,-222.3 834.68,-218.17 834.23,-225.15"/>
</a>
</g>
</g>
<!-- Node24 -->
<g id="Node000024" class="node">
<title>Node24</title>
<g id="a_Node000024"><a xlink:href="class_epoll_wrapper.html#a30d7cd3090f8d8d0f10c2d9edb136d59" target="_top" xlink:title="Remove an event from the epoll instance.">
<polygon fill="white" stroke="#666666" points="971.5,-358 818.5,-358 818.5,-339 971.5,-339 971.5,-358"/>
<text text-anchor="middle" x="895" y="-346" font-family="Helvetica,sans-Serif" font-size="10.00">EpollWrapper::removeEvent</text>
</a>
</g>
</g>
<!-- Node23&#45;&gt;Node24 -->
<g id="edge23_Node000023_Node000024" class="edge">
<title>Node23&#45;&gt;Node24</title>
<g id="a_edge23_Node000023_Node000024"><a xlink:title=" ">
<path fill="none" stroke="#63b8ff" d="M735.72,-346.31C758.02,-346.62 783.89,-346.98 808.18,-347.31"/>
<polygon fill="#63b8ff" stroke="#63b8ff" points="808.43,-350.82 818.48,-347.46 808.53,-343.82 808.43,-350.82"/>
</a>
</g>
</g>
<!-- Node26 -->
<g id="Node000026" class="node">
<title>Node26</title>
<g id="a_Node000026"><a xlink:href="_connection_8cpp.html#af96f533f342bd6cf42899f3c9fd30a99" target="_top" xlink:title="Find matching server configurations for a server socket.">
<polygon fill="white" stroke="#666666" points="749.5,-546 602.5,-546 602.5,-527 749.5,-527 749.5,-546"/>
<text text-anchor="middle" x="676" y="-534" font-family="Helvetica,sans-Serif" font-size="10.00">findMatchingServerConfigs</text>
</a>
</g>
</g>
<!-- Node25&#45;&gt;Node26 -->
<g id="edge25_Node000025_Node000026" class="edge">
<title>Node25&#45;&gt;Node26</title>
<g id="a_edge25_Node000025_Node000026"><a xlink:title=" ">
<path fill="none" stroke="#63b8ff" d="M529.02,-536.5C548.64,-536.5 570.86,-536.5 591.95,-536.5"/>
<polygon fill="#63b8ff" stroke="#63b8ff" points="592.2,-540 602.2,-536.5 592.2,-533 592.2,-540"/>
</a>
</g>
</g>
<!-- Node29 -->
<g id="Node000029" class="node">
<title>Node29</title>
<g id="a_Node000029"><a xlink:href="class_request_parser.html#a933b43673d0b7b99d6cc310f5c03a865" target="_top" xlink:title="Parses the header of an HTTP request.">
<polygon fill="white" stroke="#666666" points="753.5,-56 598.5,-56 598.5,-37 753.5,-37 753.5,-56"/>
<text text-anchor="middle" x="676" y="-44" font-family="Helvetica,sans-Serif" font-size="10.00">RequestParser::parseHeader</text>
</a>
</g>
</g>
<!-- Node28&#45;&gt;Node29 -->
<g id="edge29_Node000028_Node000029" class="edge">
<title>Node28&#45;&gt;Node29</title>
<g id="a_edge29_Node000028_Node000029"><a xlink:title=" ">
<path fill="none" stroke="#63b8ff" d="M527.1,-46.5C546.04,-46.5 567.57,-46.5 588.22,-46.5"/>
<polygon fill="#63b8ff" stroke="#63b8ff" points="588.28,-50 598.28,-46.5 588.28,-43 588.28,-50"/>
</a>
</g>
</g>
<!-- Node30 -->
<g id="Node000030" class="node">
<title>Node30</title>
<g id="a_Node000030"><a xlink:href="class_request_parser.html#ad8e0fc22eb113d78140e257f002df666" target="_top" xlink:title="Clears the contents of the RequestParser object.">
<polygon fill="white" stroke="#666666" points="973.5,-61.5 816.5,-61.5 816.5,-31.5 973.5,-31.5 973.5,-61.5"/>
<text text-anchor="start" x="824.5" y="-49.5" font-family="Helvetica,sans-Serif" font-size="10.00">RequestParser::resetRequest</text>
<text text-anchor="middle" x="895" y="-38.5" font-family="Helvetica,sans-Serif" font-size="10.00">Stream</text>
</a>
</g>
</g>
<!-- Node29&#45;&gt;Node30 -->
<g id="edge30_Node000029_Node000030" class="edge">
<title>Node29&#45;&gt;Node30</title>
<g id="a_edge30_Node000029_Node000030"><a xlink:title=" ">
<path fill="none" stroke="#63b8ff" d="M753.51,-46.5C770.54,-46.5 788.73,-46.5 806.18,-46.5"/>
<polygon fill="#63b8ff" stroke="#63b8ff" points="806.35,-50 816.35,-46.5 806.35,-43 806.35,-50"/>
</a>
</g>
</g>
<!-- Node31&#45;&gt;Node7 -->
<g id="edge33_Node000031_Node000007" class="edge">
<title>Node31&#45;&gt;Node7</title>
<g id="a_edge33_Node000031_Node000007"><a xlink:title=" ">
<path fill="none" stroke="#63b8ff" d="M542.28,-468.26C561.23,-470.29 581.7,-472.49 600.76,-474.53"/>
<polygon fill="#63b8ff" stroke="#63b8ff" points="600.56,-478.03 610.88,-475.62 601.31,-471.07 600.56,-478.03"/>
</a>
</g>
</g>
<!-- Node31&#45;&gt;Node23 -->
<g id="edge34_Node000031_Node000023" class="edge">
<title>Node31&#45;&gt;Node23</title>
<g id="a_edge34_Node000031_Node000023"><a xlink:title=" ">
<path fill="none" stroke="#63b8ff" d="M536.08,-450.97C541.07,-448.69 545.79,-445.9 550,-442.5 579.69,-418.5 556.18,-388.34 586,-364.5 592.16,-359.58 599.3,-355.85 606.81,-353.04"/>
<polygon fill="#63b8ff" stroke="#63b8ff" points="608.01,-356.33 616.47,-349.95 605.88,-349.66 608.01,-356.33"/>
</a>
</g>
</g>
<!-- Node34 -->
<g id="Node000034" class="node">
<title>Node34</title>
<g id="a_Node000034"><a xlink:href="class_socket_policy.html#a6f6c04c36c6be0d95b1d3e4a872ea7ca" target="_top" xlink:title="Read from a socket.">
<polygon fill="white" stroke="#666666" points="550,-19 388,-19 388,0 550,0 550,-19"/>
<text text-anchor="middle" x="469" y="-7" font-family="Helvetica,sans-Serif" font-size="10.00">SocketPolicy::readFromSocket</text>
</a>
</g>
</g>
<!-- Node33&#45;&gt;Node34 -->
<g id="edge39_Node000033_Node000034" class="edge">
<title>Node33&#45;&gt;Node34</title>
<g id="a_edge39_Node000033_Node000034"><a xlink:title=" ">
<path fill="none" stroke="#63b8ff" d="M332.54,-9.5C346.87,-9.5 362.29,-9.5 377.41,-9.5"/>
<polygon fill="#63b8ff" stroke="#63b8ff" points="377.81,-13 387.81,-9.5 377.81,-6 377.81,-13"/>
</a>
</g>
</g>
</g>
</svg>

<g id="navigator" transform="translate(0 0)" fill="#404254">
  <rect fill="#f2f5e9" fill-opacity="0.5" stroke="#606060" stroke-width=".5" x="0" y="0" width="60" height="60"/>
  <use id="zoomplus" xlink:href="#zoomPlus" x="17" y="9" onmousedown="handleZoom(evt,'in')"/>
  <use id="zoomminus" xlink:href="#zoomMin" x="42" y="9" onmousedown="handleZoom(evt,'out')"/>
  <use id="reset" xlink:href="#resetDef" x="30" y="36" onmousedown="handleReset()"/>
   <use id="arrowup" xlink:href="#arrowUp" x="0" y="0" onmousedown="handlePan(0,-1)"/>
  <use id="arrowright" xlink:href="#arrowRight" x="0" y="0" onmousedown="handlePan(1,0)"/>
  <use id="arrowdown" xlink:href="#arrowDown" x="0" y="0" onmousedown="handlePan(0,1)"/>
  <use id="arrowleft" xlink:href="#arrowLeft" x="0" y="0" onmousedown="handlePan(-1,0)"/>
</g>
<svg viewBox="0 0 15 15" width="100%" height="30px" preserveAspectRatio="xMaxYMin meet">
 <g id="arrow_out" transform="scale(0.3 0.3)">
  <a xlink:href="_server_8hpp_aa45d6529fd7be9b7adf788a9679ae34b_cgraph_org.svg" target="_base">
   <rect id="button" ry="5" rx="5" y="6" x="6" height="38" width="38"
        fill="#f2f5e9" fill-opacity="0.5" stroke="#606060" stroke-width="1.0"/>
   <path id="arrow"
     d="M 11.500037,31.436501 C 11.940474,20.09759 22.043105,11.32322 32.158766,21.979434 L 37.068811,17.246167 C 37.068811,17.246167 37.088388,32 37.088388,32 L 22.160133,31.978069 C 22.160133,31.978069 26.997745,27.140456 26.997745,27.140456 C 18.528582,18.264221 13.291696,25.230495 11.500037,31.436501 z"
     style="fill:#404040;"/>
  </a>
 </g>
</svg>

<style type='text/css'>
<![CDATA[
[data-mouse-over-selected='false'] { opacity: 0.7; }
[data-mouse-over-selected='true']  { opacity: 1.0; }
]]>
</style>
<script type="application/ecmascript"><![CDATA[
document.addEventListener('DOMContentLoaded', (event) => {
  highlightEdges();
  highlightAdjacentNodes();
});
]]></script>
</svg>
