<?xml version="1.0" encoding="UTF-8" standalone="no"?>
<!DOCTYPE svg PUBLIC "-//W3C//DTD SVG 1.1//EN"
 "http://www.w3.org/Graphics/SVG/1.1/DTD/svg11.dtd">
<!-- Generated by graphviz version 2.43.0 (0)
 -->
<!-- Title: connectionReceiveHeader Pages: 1 -->
<!--zoomable 522 -->

<svg id="main" version="1.1" xmlns="http://www.w3.org/2000/svg" xmlns:xlink="http://www.w3.org/1999/xlink" xml:space="preserve" onload="init(evt)">
<style type="text/css"><![CDATA[
.node, .edge {opacity: 0.7;}
.node.selected, .edge.selected {opacity: 1;}
.edge:hover path { stroke: red; }
.edge:hover polygon { stroke: red; fill: red; }
]]></style>

<defs>
  <circle id="rim" cx="0" cy="0" r="7"/>
  <circle id="rim2" cx="0" cy="0" r="3.5"/>
  <g id="zoomPlus">
    <use xlink:href="#rim" fill="#404040"><set attributeName="fill" to="#808080" begin="zoomplus.mouseover" end="zoomplus.mouseout"/></use>
    <path d="M-4,0h8M0,-4v8" fill="none" stroke="white" stroke-width="1.5" pointer-events="none"/>
  </g>
  <g id="zoomMin">
    <use xlink:href="#rim" fill="#404040"><set attributeName="fill" to="#808080" begin="zoomminus.mouseover" end="zoomminus.mouseout"/></use>
    <path d="M-4,0h8" fill="none" stroke="white" stroke-width="1.5" pointer-events="none"/>
  </g>
  <g id="arrowUp" transform="translate(30 24)">
    <use xlink:href="#rim"/>
    <path pointer-events="none" fill="none" stroke="white" stroke-width="1.5" d="M0,-3.0v7 M-2.5,-0.5L0,-3.0L2.5,-0.5"/>
  </g>
  <g id="arrowRight" transform="rotate(90) translate(36 -43)">
    <use xlink:href="#rim"/>
    <path pointer-events="none" fill="none" stroke="white" stroke-width="1.5" d="M0,-3.0v7 M-2.5,-0.5L0,-3.0L2.5,-0.5"/>
  </g>
  <g id="arrowDown" transform="rotate(180) translate(-30 -48)">
    <use xlink:href="#rim"/>
    <path pointer-events="none" fill="none" stroke="white" stroke-width="1.5" d="M0,-3.0v7 M-2.5,-0.5L0,-3.0L2.5,-0.5"/>
  </g>
  <g id="arrowLeft" transform="rotate(270) translate(-36 17)">
    <use xlink:href="#rim"/>
    <path pointer-events="none" fill="none" stroke="white" stroke-width="1.5" d="M0,-3.0v7 M-2.5,-0.5L0,-3.0L2.5,-0.5"/>
  </g>
  <g id="resetDef">
    <use xlink:href="#rim2" fill="#404040"><set attributeName="fill" to="#808080" begin="reset.mouseover" end="reset.mouseout"/></use>
  </g>
</defs>
<script type="application/ecmascript">
var viewWidth = 1139;
var viewHeight = 522;
var sectionId = 'dynsection-16';
</script>
<script type="application/ecmascript" xlink:href="svg.min.js"/>
<svg id="graph" class="graph">
<g id="viewport">
<title>connectionReceiveHeader</title>
<!-- Node1 -->
<g id="Node000001" class="node">
<title>Node1</title>
<g id="a_Node000001"><a xlink:title="Receive request header from a client.">
<polygon fill="#999999" stroke="#666666" points="144,-278 0,-278 0,-259 144,-259 144,-278"/>
<text text-anchor="middle" x="72" y="-266" font-family="Helvetica,sans-Serif" font-size="10.00">connectionReceiveHeader</text>
</a>
</g>
</g>
<!-- Node2 -->
<g id="Node000002" class="node">
<title>Node2</title>
<g id="a_Node000002"><a xlink:href="class_server.html#aeef8f46cd90db32c308c95cd2e5b5c6e" target="_top" xlink:title="Getter for internal buffer.">
<polygon fill="white" stroke="#666666" points="910,-396 811,-396 811,-377 910,-377 910,-396"/>
<text text-anchor="middle" x="860.5" y="-384" font-family="Helvetica,sans-Serif" font-size="10.00">Server::getBuffer</text>
</a>
</g>
</g>
<!-- Node1&#45;&gt;Node2 -->
<g id="edge1_Node000001_Node000002" class="edge">
<title>Node1&#45;&gt;Node2</title>
<g id="a_edge1_Node000001_Node000002"><a xlink:title=" ">
<path fill="none" stroke="#63b8ff" d="M77.21,-278.2C89.22,-304.75 126.29,-379.23 180,-418.5 258.4,-475.83 292.05,-470.43 388,-485.5 545.71,-510.27 602.04,-540.38 747,-473.5 767.83,-463.89 765.29,-451.09 783,-436.5 798.92,-423.38 818.4,-410.69 833.72,-401.38"/>
<polygon fill="#63b8ff" stroke="#63b8ff" points="835.86,-404.18 842.65,-396.04 832.27,-398.17 835.86,-404.18"/>
</a>
</g>
</g>
<!-- Node3 -->
<g id="Node000003" class="node">
<title>Node3</title>
<g id="a_Node000003"><a xlink:href="_server_8cpp.html#a83350eae81b96dd7b301d1238268ffdb" target="_top" xlink:title="Handles the complete request header received from a client.">
<polygon fill="white" stroke="#666666" points="352,-278 180,-278 180,-259 352,-259 352,-278"/>
<text text-anchor="middle" x="266" y="-266" font-family="Helvetica,sans-Serif" font-size="10.00">handleCompleteRequestHeader</text>
</a>
</g>
</g>
<!-- Node1&#45;&gt;Node3 -->
<g id="edge2_Node000001_Node000003" class="edge">
<title>Node1&#45;&gt;Node3</title>
<g id="a_edge2_Node000001_Node000003"><a xlink:title=" ">
<path fill="none" stroke="#63b8ff" d="M144.22,-268.5C152.58,-268.5 161.21,-268.5 169.83,-268.5"/>
<polygon fill="#63b8ff" stroke="#63b8ff" points="169.93,-272 179.93,-268.5 169.93,-265 169.93,-272"/>
</a>
</g>
</g>
<!-- Node13 -->
<g id="Node000013" class="node">
<title>Node13</title>
<g id="a_Node000013"><a xlink:href="class_server.html#afab1a4ec9e524b0dae8f60080642e7fe" target="_top" xlink:title="Wrapper function to EpollWrapper::modifyEvent.">
<polygon fill="white" stroke="#666666" points="731.5,-464 615.5,-464 615.5,-445 731.5,-445 731.5,-464"/>
<text text-anchor="middle" x="673.5" y="-452" font-family="Helvetica,sans-Serif" font-size="10.00">Server::modifyEvent</text>
</a>
</g>
</g>
<!-- Node1&#45;&gt;Node13 -->
<g id="edge30_Node000001_Node000013" class="edge">
<title>Node1&#45;&gt;Node13</title>
<g id="a_edge30_Node000001_Node000013"><a xlink:title=" ">
<path fill="none" stroke="#63b8ff" d="M83.34,-278.14C120.67,-312.19 253.46,-426.89 388,-465.5 466.88,-488.14 563.12,-476.78 621.01,-466.01"/>
<polygon fill="#63b8ff" stroke="#63b8ff" points="621.86,-469.41 631.01,-464.08 620.53,-462.54 621.86,-469.41"/>
</a>
</g>
</g>
<!-- Node27 -->
<g id="Node000027" class="node">
<title>Node27</title>
<g id="a_Node000027"><a xlink:href="_server_8cpp.html#a172c400277e73261d212c33f66226090" target="_top" xlink:title="Checks if the connection buffer contains a request header.">
<polygon fill="white" stroke="#666666" points="339.5,-241 192.5,-241 192.5,-222 339.5,-222 339.5,-241"/>
<text text-anchor="middle" x="266" y="-229" font-family="Helvetica,sans-Serif" font-size="10.00">isCompleteRequestHeader</text>
</a>
</g>
</g>
<!-- Node1&#45;&gt;Node27 -->
<g id="edge29_Node000001_Node000027" class="edge">
<title>Node1&#45;&gt;Node27</title>
<g id="a_edge29_Node000001_Node000027"><a xlink:title=" ">
<path fill="none" stroke="#63b8ff" d="M122.44,-258.97C147.77,-254.09 178.79,-248.11 205.42,-242.98"/>
<polygon fill="#63b8ff" stroke="#63b8ff" points="206.23,-246.39 215.39,-241.06 204.91,-239.52 206.23,-246.39"/>
</a>
</g>
</g>
<!-- Node28 -->
<g id="Node000028" class="node">
<title>Node28</title>
<g id="a_Node000028"><a xlink:href="class_server.html#ae94e3d4b5743580a6fbe3228d58af423" target="_top" xlink:title="Wrapper function to SocketPolicy::readFromSocket.">
<polygon fill="white" stroke="#666666" points="332.5,-112 199.5,-112 199.5,-93 332.5,-93 332.5,-112"/>
<text text-anchor="middle" x="266" y="-100" font-family="Helvetica,sans-Serif" font-size="10.00">Server::readFromSocket</text>
</a>
</g>
</g>
<!-- Node1&#45;&gt;Node28 -->
<g id="edge31_Node000001_Node000028" class="edge">
<title>Node1&#45;&gt;Node28</title>
<g id="a_edge31_Node000001_Node000028"><a xlink:title=" ">
<path fill="none" stroke="#63b8ff" d="M84.15,-258.86C115.83,-231.47 206.63,-152.97 246.19,-118.76"/>
<polygon fill="#63b8ff" stroke="#63b8ff" points="248.54,-121.36 253.82,-112.17 243.96,-116.06 248.54,-121.36"/>
</a>
</g>
</g>
<!-- Node4 -->
<g id="Node000004" class="node">
<title>Node4</title>
<g id="a_Node000004"><a xlink:href="class_server.html#a002dd2fd1e6f0f4290568b4d94f39594" target="_top" xlink:title="Wrapper function to TargetResourceHandler::execute.">
<polygon fill="white" stroke="#666666" points="549.5,-56 402.5,-56 402.5,-37 549.5,-37 549.5,-56"/>
<text text-anchor="middle" x="476" y="-44" font-family="Helvetica,sans-Serif" font-size="10.00">Server::findTargetResource</text>
</a>
</g>
</g>
<!-- Node3&#45;&gt;Node4 -->
<g id="edge3_Node000003_Node000004" class="edge">
<title>Node3&#45;&gt;Node4</title>
<g id="a_edge3_Node000003_Node000004"><a xlink:title=" ">
<path fill="none" stroke="#63b8ff" d="M340.97,-258.96C344.99,-256.63 348.72,-253.84 352,-250.5 411.02,-190.44 328.84,-124.42 388,-64.5 389.67,-62.81 391.46,-61.25 393.34,-59.82"/>
<polygon fill="#63b8ff" stroke="#63b8ff" points="395.49,-62.61 402.14,-54.35 391.8,-56.66 395.49,-62.61"/>
</a>
</g>
</g>
<!-- Node6 -->
<g id="Node000006" class="node">
<title>Node6</title>
<g id="a_Node000006"><a xlink:href="class_server.html#aad2be3b48155c6eb508bca4b1af3db97" target="_top" xlink:title="Getter for cgiConnections.">
<polygon fill="white" stroke="#666666" points="549.5,-426 402.5,-426 402.5,-407 549.5,-407 549.5,-426"/>
<text text-anchor="middle" x="476" y="-414" font-family="Helvetica,sans-Serif" font-size="10.00">Server::getCGIConnections</text>
</a>
</g>
</g>
<!-- Node3&#45;&gt;Node6 -->
<g id="edge5_Node000003_Node000006" class="edge">
<title>Node3&#45;&gt;Node6</title>
<g id="a_edge5_Node000003_Node000006"><a xlink:title=" ">
<path fill="none" stroke="#63b8ff" d="M272.93,-278.23C288.46,-302.79 332.92,-367.5 388,-398.5 391.21,-400.31 394.59,-401.94 398.06,-403.4"/>
<polygon fill="#63b8ff" stroke="#63b8ff" points="396.85,-406.69 407.45,-406.91 399.31,-400.13 396.85,-406.69"/>
</a>
</g>
</g>
<!-- Node7 -->
<g id="Node000007" class="node">
<title>Node7</title>
<g id="a_Node000007"><a xlink:href="class_server.html#a1f8929bed093f869374cb81da4d97505" target="_top" xlink:title="Const Getter for connections.">
<polygon fill="white" stroke="#666666" points="541,-389 411,-389 411,-370 541,-370 541,-389"/>
<text text-anchor="middle" x="476" y="-377" font-family="Helvetica,sans-Serif" font-size="10.00">Server::getConnections</text>
</a>
</g>
</g>
<!-- Node3&#45;&gt;Node7 -->
<g id="edge6_Node000003_Node000007" class="edge">
<title>Node3&#45;&gt;Node7</title>
<g id="a_edge6_Node000003_Node000007"><a xlink:title=" ">
<path fill="none" stroke="#63b8ff" d="M276.34,-278.16C295.41,-297.28 341.03,-339.98 388,-361.5 392.41,-363.52 397.05,-365.32 401.8,-366.92"/>
<polygon fill="#63b8ff" stroke="#63b8ff" points="401.08,-370.35 411.66,-369.92 403.12,-363.66 401.08,-370.35"/>
</a>
</g>
</g>
<!-- Node8 -->
<g id="Node000008" class="node">
<title>Node8</title>
<g id="a_Node000008"><a xlink:href="class_server.html#a058d2c0df13f61b3e755f412ea56947d" target="_top" xlink:title="Wrapper function to EpollWrapper::getEpollFd.">
<polygon fill="white" stroke="#666666" points="529,-278 423,-278 423,-259 529,-259 529,-278"/>
<text text-anchor="middle" x="476" y="-266" font-family="Helvetica,sans-Serif" font-size="10.00">Server::getEpollFd</text>
</a>
</g>
</g>
<!-- Node3&#45;&gt;Node8 -->
<g id="edge7_Node000003_Node000008" class="edge">
<title>Node3&#45;&gt;Node8</title>
<g id="a_edge7_Node000003_Node000008"><a xlink:title=" ">
<path fill="none" stroke="#63b8ff" d="M352.2,-268.5C372.46,-268.5 393.7,-268.5 412.71,-268.5"/>
<polygon fill="#63b8ff" stroke="#63b8ff" points="412.73,-272 422.73,-268.5 412.73,-265 412.73,-272"/>
</a>
</g>
</g>
<!-- Node10 -->
<g id="Node000010" class="node">
<title>Node10</title>
<g id="a_Node000010"><a xlink:href="class_server.html#a54745950beb9e321d9a56084501c18e9" target="_top" xlink:title="Const Getter for server configs.">
<polygon fill="white" stroke="#666666" points="544.5,-315 407.5,-315 407.5,-296 544.5,-296 544.5,-315"/>
<text text-anchor="middle" x="476" y="-303" font-family="Helvetica,sans-Serif" font-size="10.00">Server::getServerConfigs</text>
</a>
</g>
</g>
<!-- Node3&#45;&gt;Node10 -->
<g id="edge9_Node000003_Node000010" class="edge">
<title>Node3&#45;&gt;Node10</title>
<g id="a_edge9_Node000003_Node000010"><a xlink:title=" ">
<path fill="none" stroke="#63b8ff" d="M320.57,-278.03C348.24,-282.95 382.2,-288.99 411.21,-294.15"/>
<polygon fill="#63b8ff" stroke="#63b8ff" points="410.8,-297.63 421.26,-295.94 412.02,-290.74 410.8,-297.63"/>
</a>
</g>
</g>
<!-- Node11 -->
<g id="Node000011" class="node">
<title>Node11</title>
<g id="a_Node000011"><a xlink:href="_server_8cpp.html#af0fb17fe53a5e9e72824e5df3fba1322" target="_top" xlink:title="Handles the body of the HTTP request.">
<polygon fill="white" stroke="#666666" points="513,-352 439,-352 439,-333 513,-333 513,-352"/>
<text text-anchor="middle" x="476" y="-340" font-family="Helvetica,sans-Serif" font-size="10.00">handleBody</text>
</a>
</g>
</g>
<!-- Node3&#45;&gt;Node11 -->
<g id="edge10_Node000003_Node000011" class="edge">
<title>Node3&#45;&gt;Node11</title>
<g id="a_edge10_Node000003_Node000011"><a xlink:title=" ">
<path fill="none" stroke="#63b8ff" d="M284.52,-278.17C307.6,-290.54 349.75,-311.88 388,-324.5 401.07,-328.81 415.6,-332.31 428.99,-335.03"/>
<polygon fill="#63b8ff" stroke="#63b8ff" points="428.47,-338.49 438.96,-336.96 429.81,-331.62 428.47,-338.49"/>
</a>
</g>
</g>
<!-- Node3&#45;&gt;Node13 -->
<g id="edge22_Node000003_Node000013" class="edge">
<title>Node3&#45;&gt;Node13</title>
<g id="a_edge22_Node000003_Node000013"><a xlink:title=" ">
<path fill="none" stroke="#63b8ff" d="M270.61,-278.35C282.19,-308.34 321.58,-398.76 388,-435.5 455.46,-472.81 546.14,-471.76 606.81,-465.21"/>
<polygon fill="#63b8ff" stroke="#63b8ff" points="607.5,-468.65 617.03,-464.02 606.69,-461.7 607.5,-468.65"/>
</a>
</g>
</g>
<!-- Node18 -->
<g id="Node000018" class="node">
<title>Node18</title>
<g id="a_Node000018"><a xlink:href="_connection_8cpp.html#a354192f8dd87ca049cf8b7e6de9000da" target="_top" xlink:title="Selects the server configuration for a connection.">
<polygon fill="white" stroke="#666666" points="536,-167 416,-167 416,-148 536,-148 536,-167"/>
<text text-anchor="middle" x="476" y="-155" font-family="Helvetica,sans-Serif" font-size="10.00">hasValidServerConfig</text>
</a>
</g>
</g>
<!-- Node3&#45;&gt;Node18 -->
<g id="edge18_Node000003_Node000018" class="edge">
<title>Node3&#45;&gt;Node18</title>
<g id="a_edge18_Node000003_Node000018"><a xlink:title=" ">
<path fill="none" stroke="#63b8ff" d="M337.95,-258.88C342.97,-256.6 347.72,-253.84 352,-250.5 380.82,-227.98 359.25,-199.11 388,-176.5 393.39,-172.26 399.52,-168.92 405.98,-166.3"/>
<polygon fill="#63b8ff" stroke="#63b8ff" points="407.33,-169.53 415.62,-162.94 405.02,-162.92 407.33,-169.53"/>
</a>
</g>
</g>
<!-- Node20 -->
<g id="Node000020" class="node">
<title>Node20</title>
<g id="a_Node000020"><a xlink:href="_server_8cpp.html#a92411155dbfc5d7f43c3f1ac0fe54548" target="_top" xlink:title="Checks if a CGI request is made based on the connection details.">
<polygon fill="white" stroke="#666666" points="523,-204 429,-204 429,-185 523,-185 523,-204"/>
<text text-anchor="middle" x="476" y="-192" font-family="Helvetica,sans-Serif" font-size="10.00">isCGIRequested</text>
</a>
</g>
</g>
<!-- Node3&#45;&gt;Node20 -->
<g id="edge20_Node000003_Node000020" class="edge">
<title>Node3&#45;&gt;Node20</title>
<g id="a_edge20_Node000003_Node000020"><a xlink:title=" ">
<path fill="none" stroke="#63b8ff" d="M332.04,-258.94C339,-256.7 345.79,-253.92 352,-250.5 372.09,-239.42 367.94,-224.64 388,-213.5 397.52,-208.21 408.39,-204.4 419.14,-201.64"/>
<polygon fill="#63b8ff" stroke="#63b8ff" points="419.97,-205.04 428.94,-199.4 418.41,-198.22 419.97,-205.04"/>
</a>
</g>
</g>
<!-- Node21 -->
<g id="Node000021" class="node">
<title>Node21</title>
<g id="a_Node000021"><a xlink:href="namespacewebutils.html#a4cc9980ab07ede124181a637b5db5c28" target="_top" xlink:title="Check if a given status code is a redirection.">
<polygon fill="white" stroke="#666666" points="555,-130 397,-130 397,-111 555,-111 555,-130"/>
<text text-anchor="middle" x="476" y="-118" font-family="Helvetica,sans-Serif" font-size="10.00">webutils::isRedirectionStatus</text>
</a>
</g>
</g>
<!-- Node3&#45;&gt;Node21 -->
<g id="edge21_Node000003_Node000021" class="edge">
<title>Node3&#45;&gt;Node21</title>
<g id="a_edge21_Node000003_Node000021"><a xlink:title=" ">
<path fill="none" stroke="#63b8ff" d="M339.71,-258.9C344.14,-256.6 348.3,-253.83 352,-250.5 390.55,-215.8 349.56,-174.32 388,-139.5 389.55,-138.1 391.17,-136.79 392.86,-135.57"/>
<polygon fill="#63b8ff" stroke="#63b8ff" points="395.04,-138.35 401.82,-130.2 391.44,-132.35 395.04,-138.35"/>
</a>
</g>
</g>
<!-- Node22 -->
<g id="Node000022" class="node">
<title>Node22</title>
<g id="a_Node000022"><a xlink:href="class_server.html#a34bc61299318fe1918293b1d656ee5f9" target="_top" xlink:title="Wrapper function to RequestParser::parseHeader.">
<polygon fill="white" stroke="#666666" points="534,-241 418,-241 418,-222 534,-222 534,-241"/>
<text text-anchor="middle" x="476" y="-229" font-family="Helvetica,sans-Serif" font-size="10.00">Server::parseHeader</text>
</a>
</g>
</g>
<!-- Node3&#45;&gt;Node22 -->
<g id="edge23_Node000003_Node000022" class="edge">
<title>Node3&#45;&gt;Node22</title>
<g id="a_edge23_Node000003_Node000022"><a xlink:title=" ">
<path fill="none" stroke="#63b8ff" d="M320.57,-258.97C348.24,-254.05 382.2,-248.01 411.21,-242.85"/>
<polygon fill="#63b8ff" stroke="#63b8ff" points="412.02,-246.26 421.26,-241.06 410.8,-239.37 412.02,-246.26"/>
</a>
</g>
</g>
<!-- Node24 -->
<g id="Node000024" class="node">
<title>Node24</title>
<g id="a_Node000024"><a xlink:href="class_server.html#abcfb45414689863da69c2e72ac8fc946" target="_top" xlink:title="Register a CGI file descriptor.">
<polygon fill="white" stroke="#666666" points="564,-93 388,-93 388,-74 564,-74 564,-93"/>
<text text-anchor="middle" x="476" y="-81" font-family="Helvetica,sans-Serif" font-size="10.00">Server::registerCGIFileDescriptor</text>
</a>
</g>
</g>
<!-- Node3&#45;&gt;Node24 -->
<g id="edge26_Node000003_Node000024" class="edge">
<title>Node3&#45;&gt;Node24</title>
<g id="a_edge26_Node000003_Node000024"><a xlink:title=" ">
<path fill="none" stroke="#63b8ff" d="M340.39,-258.99C344.61,-256.66 348.54,-253.86 352,-250.5 400.58,-203.35 339.57,-149.8 388,-102.5 389.45,-101.08 390.98,-99.76 392.58,-98.53"/>
<polygon fill="#63b8ff" stroke="#63b8ff" points="394.56,-101.42 401.09,-93.08 390.78,-95.52 394.56,-101.42"/>
</a>
</g>
</g>
<!-- Node5 -->
<g id="Node000005" class="node">
<title>Node5</title>
<g id="a_Node000005"><a xlink:href="class_target_resource_handler.html#ac3694cb9b73e3f93b874740194539282" target="_top" xlink:title="Determine target resource based on the request path and handle different file types and statuses acco...">
<polygon fill="white" stroke="#666666" points="738.5,-55.5 608.5,-55.5 608.5,-25.5 738.5,-25.5 738.5,-55.5"/>
<text text-anchor="start" x="616.5" y="-43.5" font-family="Helvetica,sans-Serif" font-size="10.00">TargetResourceHandler</text>
<text text-anchor="middle" x="673.5" y="-32.5" font-family="Helvetica,sans-Serif" font-size="10.00">::execute</text>
</a>
</g>
</g>
<!-- Node4&#45;&gt;Node5 -->
<g id="edge4_Node000004_Node000005" class="edge">
<title>Node4&#45;&gt;Node5</title>
<g id="a_edge4_Node000004_Node000005"><a xlink:title=" ">
<path fill="none" stroke="#63b8ff" d="M549.52,-44.27C565.39,-43.79 582.21,-43.27 598.14,-42.78"/>
<polygon fill="#63b8ff" stroke="#63b8ff" points="598.58,-46.27 608.47,-42.47 598.37,-39.27 598.58,-46.27"/>
</a>
</g>
</g>
<!-- Node9 -->
<g id="Node000009" class="node">
<title>Node9</title>
<g id="a_Node000009"><a xlink:href="class_epoll_wrapper.html#af9b96396ae751ae1189a2c1f9da64ae0" target="_top" xlink:title="Getter for epoll file descriptor.">
<polygon fill="white" stroke="#666666" points="743.5,-279 603.5,-279 603.5,-260 743.5,-260 743.5,-279"/>
<text text-anchor="middle" x="673.5" y="-267" font-family="Helvetica,sans-Serif" font-size="10.00">EpollWrapper::getEpollFd</text>
</a>
</g>
</g>
<!-- Node8&#45;&gt;Node9 -->
<g id="edge8_Node000008_Node000009" class="edge">
<title>Node8&#45;&gt;Node9</title>
<g id="a_edge8_Node000008_Node000009"><a xlink:title=" ">
<path fill="none" stroke="#63b8ff" d="M529.13,-268.77C548.76,-268.87 571.55,-268.98 593.11,-269.09"/>
<polygon fill="#63b8ff" stroke="#63b8ff" points="593.22,-272.59 603.24,-269.15 593.26,-265.59 593.22,-272.59"/>
</a>
</g>
</g>
<!-- Node12 -->
<g id="Node000012" class="node">
<title>Node12</title>
<g id="a_Node000012"><a xlink:href="_server_8cpp.html#a14a0c5a1227276017a19d9b52141c13a" target="_top" xlink:title="Checks if the HTTP request body has been completely received.">
<polygon fill="white" stroke="#666666" points="722,-334 625,-334 625,-315 722,-315 722,-334"/>
<text text-anchor="middle" x="673.5" y="-322" font-family="Helvetica,sans-Serif" font-size="10.00">isCompleteBody</text>
</a>
</g>
</g>
<!-- Node11&#45;&gt;Node12 -->
<g id="edge11_Node000011_Node000012" class="edge">
<title>Node11&#45;&gt;Node12</title>
<g id="a_edge11_Node000011_Node000012"><a xlink:title=" ">
<path fill="none" stroke="#63b8ff" d="M513.31,-339.16C541.71,-336.54 581.74,-332.86 614.56,-329.84"/>
<polygon fill="#63b8ff" stroke="#63b8ff" points="615.3,-333.28 624.93,-328.88 614.65,-326.31 615.3,-333.28"/>
</a>
</g>
</g>
<!-- Node11&#45;&gt;Node13 -->
<g id="edge12_Node000011_Node000013" class="edge">
<title>Node11&#45;&gt;Node13</title>
<g id="a_edge12_Node000011_Node000013"><a xlink:title=" ">
<path fill="none" stroke="#63b8ff" d="M513.04,-346.3C529.24,-349.02 548.22,-353.65 564,-361.5 602.24,-380.53 638.11,-416.02 657.51,-437.23"/>
<polygon fill="#63b8ff" stroke="#63b8ff" points="655.05,-439.73 664.33,-444.85 660.27,-435.06 655.05,-439.73"/>
</a>
</g>
</g>
<!-- Node15 -->
<g id="Node000015" class="node">
<title>Node15</title>
<g id="a_Node000015"><a xlink:href="class_server.html#ace46f4e07ab67db60e3790a32b2e8e0a" target="_top" xlink:title="Wrapper function to RequestParser::parseBody.">
<polygon fill="white" stroke="#666666" points="726.5,-371 620.5,-371 620.5,-352 726.5,-352 726.5,-371"/>
<text text-anchor="middle" x="673.5" y="-359" font-family="Helvetica,sans-Serif" font-size="10.00">Server::parseBody</text>
</a>
</g>
</g>
<!-- Node11&#45;&gt;Node15 -->
<g id="edge14_Node000011_Node000015" class="edge">
<title>Node11&#45;&gt;Node15</title>
<g id="a_edge14_Node000011_Node000015"><a xlink:title=" ">
<path fill="none" stroke="#63b8ff" d="M513.31,-346.03C540.42,-348.66 578.11,-352.33 610.02,-355.43"/>
<polygon fill="#63b8ff" stroke="#63b8ff" points="609.87,-358.93 620.16,-356.41 610.54,-351.96 609.87,-358.93"/>
</a>
</g>
</g>
<!-- Node14 -->
<g id="Node000014" class="node">
<title>Node14</title>
<g id="a_Node000014"><a xlink:href="class_epoll_wrapper.html#ac97945725185999837a6d0d53f91df1a" target="_top" xlink:title="Modify an event in the epoll instance.">
<polygon fill="white" stroke="#666666" points="935,-464 786,-464 786,-445 935,-445 935,-464"/>
<text text-anchor="middle" x="860.5" y="-452" font-family="Helvetica,sans-Serif" font-size="10.00">EpollWrapper::modifyEvent</text>
</a>
</g>
</g>
<!-- Node13&#45;&gt;Node14 -->
<g id="edge13_Node000013_Node000014" class="edge">
<title>Node13&#45;&gt;Node14</title>
<g id="a_edge13_Node000013_Node000014"><a xlink:title=" ">
<path fill="none" stroke="#63b8ff" d="M731.52,-454.5C745.49,-454.5 760.74,-454.5 775.68,-454.5"/>
<polygon fill="#63b8ff" stroke="#63b8ff" points="775.96,-458 785.96,-454.5 775.96,-451 775.96,-458"/>
</a>
</g>
</g>
<!-- Node15&#45;&gt;Node2 -->
<g id="edge15_Node000015_Node000002" class="edge">
<title>Node15&#45;&gt;Node2</title>
<g id="a_edge15_Node000015_Node000002"><a xlink:title=" ">
<path fill="none" stroke="#63b8ff" d="M726.53,-368.53C749.62,-371.65 776.91,-375.34 800.74,-378.56"/>
<polygon fill="#63b8ff" stroke="#63b8ff" points="800.34,-382.04 810.72,-379.91 801.28,-375.1 800.34,-382.04"/>
</a>
</g>
</g>
<!-- Node16 -->
<g id="Node000016" class="node">
<title>Node16</title>
<g id="a_Node000016"><a xlink:href="class_request_parser.html#a7013ef37aa64a74bb183ee3ff9941b05" target="_top" xlink:title="Parses the body of an HTTP request.">
<polygon fill="white" stroke="#666666" points="932.5,-345 788.5,-345 788.5,-326 932.5,-326 932.5,-345"/>
<text text-anchor="middle" x="860.5" y="-333" font-family="Helvetica,sans-Serif" font-size="10.00">RequestParser::parseBody</text>
</a>
</g>
</g>
<!-- Node15&#45;&gt;Node16 -->
<g id="edge16_Node000015_Node000016" class="edge">
<title>Node15&#45;&gt;Node16</title>
<g id="a_edge16_Node000015_Node000016"><a xlink:title=" ">
<path fill="none" stroke="#63b8ff" d="M726.53,-354.19C743.65,-351.78 763.07,-349.05 781.69,-346.44"/>
<polygon fill="#63b8ff" stroke="#63b8ff" points="782.21,-349.9 791.62,-345.04 781.23,-342.97 782.21,-349.9"/>
</a>
</g>
</g>
<!-- Node17 -->
<g id="Node000017" class="node">
<title>Node17</title>
<g id="a_Node000017"><a xlink:href="class_request_parser.html#ad8e0fc22eb113d78140e257f002df666" target="_top" xlink:title="Clears the contents of the RequestParser object.">
<polygon fill="white" stroke="#666666" points="1131,-303.5 974,-303.5 974,-273.5 1131,-273.5 1131,-303.5"/>
<text text-anchor="start" x="982" y="-291.5" font-family="Helvetica,sans-Serif" font-size="10.00">RequestParser::resetRequest</text>
<text text-anchor="middle" x="1052.5" y="-280.5" font-family="Helvetica,sans-Serif" font-size="10.00">Stream</text>
</a>
</g>
</g>
<!-- Node16&#45;&gt;Node17 -->
<g id="edge17_Node000016_Node000017" class="edge">
<title>Node16&#45;&gt;Node17</title>
<g id="a_edge17_Node000016_Node000017"><a xlink:title=" ">
<path fill="none" stroke="#63b8ff" d="M899.95,-325.99C923.13,-320.26 953.37,-312.78 980.73,-306.01"/>
<polygon fill="#63b8ff" stroke="#63b8ff" points="981.8,-309.35 990.66,-303.55 980.12,-302.55 981.8,-309.35"/>
</a>
</g>
</g>
<!-- Node19 -->
<g id="Node000019" class="node">
<title>Node19</title>
<g id="a_Node000019"><a xlink:href="_connection_8cpp.html#af96f533f342bd6cf42899f3c9fd30a99" target="_top" xlink:title="Find matching server configurations for a server socket.">
<polygon fill="white" stroke="#666666" points="747,-167 600,-167 600,-148 747,-148 747,-167"/>
<text text-anchor="middle" x="673.5" y="-155" font-family="Helvetica,sans-Serif" font-size="10.00">findMatchingServerConfigs</text>
</a>
</g>
</g>
<!-- Node18&#45;&gt;Node19 -->
<g id="edge19_Node000018_Node000019" class="edge">
<title>Node18&#45;&gt;Node19</title>
<g id="a_edge19_Node000018_Node000019"><a xlink:title=" ">
<path fill="none" stroke="#63b8ff" d="M536.19,-157.5C552.99,-157.5 571.6,-157.5 589.53,-157.5"/>
<polygon fill="#63b8ff" stroke="#63b8ff" points="589.7,-161 599.7,-157.5 589.7,-154 589.7,-161"/>
</a>
</g>
</g>
<!-- Node23 -->
<g id="Node000023" class="node">
<title>Node23</title>
<g id="a_Node000023"><a xlink:href="class_request_parser.html#a933b43673d0b7b99d6cc310f5c03a865" target="_top" xlink:title="Parses the header of an HTTP request.">
<polygon fill="white" stroke="#666666" points="938,-280 783,-280 783,-261 938,-261 938,-280"/>
<text text-anchor="middle" x="860.5" y="-268" font-family="Helvetica,sans-Serif" font-size="10.00">RequestParser::parseHeader</text>
</a>
</g>
</g>
<!-- Node22&#45;&gt;Node23 -->
<g id="edge24_Node000022_Node000023" class="edge">
<title>Node22&#45;&gt;Node23</title>
<g id="a_edge24_Node000022_Node000023"><a xlink:title=" ">
<path fill="none" stroke="#63b8ff" d="M534.04,-234.18C588.79,-237.11 673.74,-242.62 747,-251.5 763.94,-253.55 782.21,-256.37 799,-259.22"/>
<polygon fill="#63b8ff" stroke="#63b8ff" points="798.79,-262.73 809.24,-260.98 799.98,-255.83 798.79,-262.73"/>
</a>
</g>
</g>
<!-- Node23&#45;&gt;Node17 -->
<g id="edge25_Node000023_Node000017" class="edge">
<title>Node23&#45;&gt;Node17</title>
<g id="a_edge25_Node000023_Node000017"><a xlink:title=" ">
<path fill="none" stroke="#63b8ff" d="M938.23,-277.77C946.67,-278.57 955.31,-279.39 963.87,-280.2"/>
<polygon fill="#63b8ff" stroke="#63b8ff" points="963.58,-283.69 973.86,-281.14 964.24,-276.72 963.58,-283.69"/>
</a>
</g>
</g>
<!-- Node25 -->
<g id="Node000025" class="node">
<title>Node25</title>
<g id="a_Node000025"><a xlink:href="class_epoll_wrapper.html#ace2a6009a6c647babfc667c27df05354" target="_top" xlink:title="Add an event to the epoll instance.">
<polygon fill="white" stroke="#666666" points="740.5,-93 606.5,-93 606.5,-74 740.5,-74 740.5,-93"/>
<text text-anchor="middle" x="673.5" y="-81" font-family="Helvetica,sans-Serif" font-size="10.00">EpollWrapper::addEvent</text>
</a>
</g>
</g>
<!-- Node24&#45;&gt;Node25 -->
<g id="edge27_Node000024_Node000025" class="edge">
<title>Node24&#45;&gt;Node25</title>
<g id="a_edge27_Node000024_Node000025"><a xlink:title=" ">
<path fill="none" stroke="#63b8ff" d="M564.17,-83.5C574.79,-83.5 585.57,-83.5 596.01,-83.5"/>
<polygon fill="#63b8ff" stroke="#63b8ff" points="596.32,-87 606.32,-83.5 596.32,-80 596.32,-87"/>
</a>
</g>
</g>
<!-- Node26 -->
<g id="Node000026" class="node">
<title>Node26</title>
<g id="a_Node000026"><a xlink:href="namespacewebutils.html#ad74875f464c74bd45589002fc385605e" target="_top" xlink:title=" ">
<polygon fill="white" stroke="#666666" points="724,-130 623,-130 623,-111 724,-111 724,-130"/>
<text text-anchor="middle" x="673.5" y="-118" font-family="Helvetica,sans-Serif" font-size="10.00">webutils::closeFd</text>
</a>
</g>
</g>
<!-- Node24&#45;&gt;Node26 -->
<g id="edge28_Node000024_Node000026" class="edge">
<title>Node24&#45;&gt;Node26</title>
<g id="a_edge28_Node000024_Node000026"><a xlink:title=" ">
<path fill="none" stroke="#63b8ff" d="M527.35,-93.03C553.44,-97.97 585.49,-104.03 612.82,-109.21"/>
<polygon fill="#63b8ff" stroke="#63b8ff" points="612.19,-112.65 622.66,-111.07 613.49,-105.77 612.19,-112.65"/>
</a>
</g>
</g>
<!-- Node29 -->
<g id="Node000029" class="node">
<title>Node29</title>
<g id="a_Node000029"><a xlink:href="class_socket_policy.html#a6f6c04c36c6be0d95b1d3e4a872ea7ca" target="_top" xlink:title="Read from a socket.">
<polygon fill="white" stroke="#666666" points="557,-19 395,-19 395,0 557,0 557,-19"/>
<text text-anchor="middle" x="476" y="-7" font-family="Helvetica,sans-Serif" font-size="10.00">SocketPolicy::readFromSocket</text>
</a>
</g>
</g>
<!-- Node28&#45;&gt;Node29 -->
<g id="edge32_Node000028_Node000029" class="edge">
<title>Node28&#45;&gt;Node29</title>
<g id="a_edge32_Node000028_Node000029"><a xlink:title=" ">
<path fill="none" stroke="#63b8ff" d="M279.28,-92.82C300.29,-76.75 345.07,-44.62 388,-27.5 393.42,-25.34 399.13,-23.43 404.93,-21.73"/>
<polygon fill="#63b8ff" stroke="#63b8ff" points="406.01,-25.07 414.75,-19.08 404.18,-18.31 406.01,-25.07"/>
</a>
</g>
</g>
</g>
</svg>

<g id="navigator" transform="translate(0 0)" fill="#404254">
  <rect fill="#f2f5e9" fill-opacity="0.5" stroke="#606060" stroke-width=".5" x="0" y="0" width="60" height="60"/>
  <use id="zoomplus" xlink:href="#zoomPlus" x="17" y="9" onmousedown="handleZoom(evt,'in')"/>
  <use id="zoomminus" xlink:href="#zoomMin" x="42" y="9" onmousedown="handleZoom(evt,'out')"/>
  <use id="reset" xlink:href="#resetDef" x="30" y="36" onmousedown="handleReset()"/>
   <use id="arrowup" xlink:href="#arrowUp" x="0" y="0" onmousedown="handlePan(0,-1)"/>
  <use id="arrowright" xlink:href="#arrowRight" x="0" y="0" onmousedown="handlePan(1,0)"/>
  <use id="arrowdown" xlink:href="#arrowDown" x="0" y="0" onmousedown="handlePan(0,1)"/>
  <use id="arrowleft" xlink:href="#arrowLeft" x="0" y="0" onmousedown="handlePan(-1,0)"/>
</g>
<svg viewBox="0 0 15 15" width="100%" height="30px" preserveAspectRatio="xMaxYMin meet">
 <g id="arrow_out" transform="scale(0.3 0.3)">
  <a xlink:href="_server_8hpp_aa45d6529fd7be9b7adf788a9679ae34b_cgraph_org.svg" target="_base">
   <rect id="button" ry="5" rx="5" y="6" x="6" height="38" width="38"
        fill="#f2f5e9" fill-opacity="0.5" stroke="#606060" stroke-width="1.0"/>
   <path id="arrow"
     d="M 11.500037,31.436501 C 11.940474,20.09759 22.043105,11.32322 32.158766,21.979434 L 37.068811,17.246167 C 37.068811,17.246167 37.088388,32 37.088388,32 L 22.160133,31.978069 C 22.160133,31.978069 26.997745,27.140456 26.997745,27.140456 C 18.528582,18.264221 13.291696,25.230495 11.500037,31.436501 z"
     style="fill:#404040;"/>
  </a>
 </g>
</svg>

<style type='text/css'>
<![CDATA[
[data-mouse-over-selected='false'] { opacity: 0.7; }
[data-mouse-over-selected='true']  { opacity: 1.0; }
]]>
</style>
<script type="application/ecmascript"><![CDATA[
document.addEventListener('DOMContentLoaded', (event) => {
  highlightEdges();
  highlightAdjacentNodes();
});
]]></script>
</svg>
