<?xml version="1.0" encoding="UTF-8" standalone="no"?>
<!DOCTYPE svg PUBLIC "-//W3C//DTD SVG 1.1//EN"
 "http://www.w3.org/Graphics/SVG/1.1/DTD/svg11.dtd">
<!-- Generated by graphviz version 2.43.0 (0)
 -->
<!-- Title: handleCompleteRequestHeader Pages: 1 -->
<!--zoomable 484 -->

<svg id="main" version="1.1" xmlns="http://www.w3.org/2000/svg" xmlns:xlink="http://www.w3.org/1999/xlink" xml:space="preserve" onload="init(evt)">
<style type="text/css"><![CDATA[
.node, .edge {opacity: 0.7;}
.node.selected, .edge.selected {opacity: 1;}
.edge:hover path { stroke: red; }
.edge:hover polygon { stroke: red; fill: red; }
]]></style>

<defs>
  <circle id="rim" cx="0" cy="0" r="7"/>
  <circle id="rim2" cx="0" cy="0" r="3.5"/>
  <g id="zoomPlus">
    <use xlink:href="#rim" fill="#404040"><set attributeName="fill" to="#808080" begin="zoomplus.mouseover" end="zoomplus.mouseout"/></use>
    <path d="M-4,0h8M0,-4v8" fill="none" stroke="white" stroke-width="1.5" pointer-events="none"/>
  </g>
  <g id="zoomMin">
    <use xlink:href="#rim" fill="#404040"><set attributeName="fill" to="#808080" begin="zoomminus.mouseover" end="zoomminus.mouseout"/></use>
    <path d="M-4,0h8" fill="none" stroke="white" stroke-width="1.5" pointer-events="none"/>
  </g>
  <g id="arrowUp" transform="translate(30 24)">
    <use xlink:href="#rim"/>
    <path pointer-events="none" fill="none" stroke="white" stroke-width="1.5" d="M0,-3.0v7 M-2.5,-0.5L0,-3.0L2.5,-0.5"/>
  </g>
  <g id="arrowRight" transform="rotate(90) translate(36 -43)">
    <use xlink:href="#rim"/>
    <path pointer-events="none" fill="none" stroke="white" stroke-width="1.5" d="M0,-3.0v7 M-2.5,-0.5L0,-3.0L2.5,-0.5"/>
  </g>
  <g id="arrowDown" transform="rotate(180) translate(-30 -48)">
    <use xlink:href="#rim"/>
    <path pointer-events="none" fill="none" stroke="white" stroke-width="1.5" d="M0,-3.0v7 M-2.5,-0.5L0,-3.0L2.5,-0.5"/>
  </g>
  <g id="arrowLeft" transform="rotate(270) translate(-36 17)">
    <use xlink:href="#rim"/>
    <path pointer-events="none" fill="none" stroke="white" stroke-width="1.5" d="M0,-3.0v7 M-2.5,-0.5L0,-3.0L2.5,-0.5"/>
  </g>
  <g id="resetDef">
    <use xlink:href="#rim2" fill="#404040"><set attributeName="fill" to="#808080" begin="reset.mouseover" end="reset.mouseout"/></use>
  </g>
</defs>
<script type="application/ecmascript">
var viewWidth = 959;
var viewHeight = 484;
var sectionId = 'dynsection-17';
</script>
<script type="application/ecmascript" xlink:href="svg.min.js"/>
<svg id="graph" class="graph">
<g id="viewport">
<title>handleCompleteRequestHeader</title>
<!-- Node1 -->
<g id="Node000001" class="node">
<title>Node1</title>
<g id="a_Node000001"><a xlink:title="Handles the complete request header received from a client.">
<polygon fill="#999999" stroke="#666666" points="172,-243 0,-243 0,-224 172,-224 172,-243"/>
<text text-anchor="middle" x="86" y="-231" font-family="Helvetica,sans-Serif" font-size="10.00">handleCompleteRequestHeader</text>
</a>
</g>
</g>
<!-- Node2 -->
<g id="Node000002" class="node">
<title>Node2</title>
<g id="a_Node000002"><a xlink:href="class_server.html#a002dd2fd1e6f0f4290568b4d94f39594" target="_top" xlink:title="Wrapper function to TargetResourceHandler::execute.">
<polygon fill="white" stroke="#666666" points="355,-470 208,-470 208,-451 355,-451 355,-470"/>
<text text-anchor="middle" x="281.5" y="-458" font-family="Helvetica,sans-Serif" font-size="10.00">Server::findTargetResource</text>
</a>
</g>
</g>
<!-- Node1&#45;&gt;Node2 -->
<g id="edge1_Node000001_Node000002" class="edge">
<title>Node1&#45;&gt;Node2</title>
<g id="a_edge1_Node000001_Node000002"><a xlink:title=" ">
<path fill="none" stroke="#63b8ff" d="M89.64,-243.23C99.24,-276.7 135.61,-388.08 208,-442.5 209.85,-443.89 211.8,-445.18 213.82,-446.37"/>
<polygon fill="#63b8ff" stroke="#63b8ff" points="212.56,-449.65 223.07,-450.97 215.68,-443.38 212.56,-449.65"/>
</a>
</g>
</g>
<!-- Node4 -->
<g id="Node000004" class="node">
<title>Node4</title>
<g id="a_Node000004"><a xlink:href="class_server.html#aad2be3b48155c6eb508bca4b1af3db97" target="_top" xlink:title="Getter for cgiConnections.">
<polygon fill="white" stroke="#666666" points="355,-433 208,-433 208,-414 355,-414 355,-433"/>
<text text-anchor="middle" x="281.5" y="-421" font-family="Helvetica,sans-Serif" font-size="10.00">Server::getCGIConnections</text>
</a>
</g>
</g>
<!-- Node1&#45;&gt;Node4 -->
<g id="edge3_Node000001_Node000004" class="edge">
<title>Node1&#45;&gt;Node4</title>
<g id="a_edge3_Node000001_Node000004"><a xlink:title=" ">
<path fill="none" stroke="#63b8ff" d="M91.46,-243.38C104.83,-271.93 147.5,-355.36 208,-399.5 213.89,-403.8 220.6,-407.36 227.5,-410.3"/>
<polygon fill="#63b8ff" stroke="#63b8ff" points="226.38,-413.61 236.97,-413.93 228.88,-407.08 226.38,-413.61"/>
</a>
</g>
</g>
<!-- Node5 -->
<g id="Node000005" class="node">
<title>Node5</title>
<g id="a_Node000005"><a xlink:href="class_server.html#a1f8929bed093f869374cb81da4d97505" target="_top" xlink:title="Const Getter for connections.">
<polygon fill="white" stroke="#666666" points="544,-393 414,-393 414,-374 544,-374 544,-393"/>
<text text-anchor="middle" x="479" y="-381" font-family="Helvetica,sans-Serif" font-size="10.00">Server::getConnections</text>
</a>
</g>
</g>
<!-- Node1&#45;&gt;Node5 -->
<g id="edge4_Node000001_Node000005" class="edge">
<title>Node1&#45;&gt;Node5</title>
<g id="a_edge4_Node000001_Node000005"><a xlink:title=" ">
<path fill="none" stroke="#63b8ff" d="M92.2,-243.18C106.59,-268.83 149.75,-338.52 208,-366.5 269.08,-395.84 347.07,-397.51 403.51,-393.38"/>
<polygon fill="#63b8ff" stroke="#63b8ff" points="404.1,-396.84 413.79,-392.54 403.54,-389.86 404.1,-396.84"/>
</a>
</g>
</g>
<!-- Node6 -->
<g id="Node000006" class="node">
<title>Node6</title>
<g id="a_Node000006"><a xlink:href="class_server.html#a058d2c0df13f61b3e755f412ea56947d" target="_top" xlink:title="Wrapper function to EpollWrapper::getEpollFd.">
<polygon fill="white" stroke="#666666" points="334.5,-130 228.5,-130 228.5,-111 334.5,-111 334.5,-130"/>
<text text-anchor="middle" x="281.5" y="-118" font-family="Helvetica,sans-Serif" font-size="10.00">Server::getEpollFd</text>
</a>
</g>
</g>
<!-- Node1&#45;&gt;Node6 -->
<g id="edge5_Node000001_Node000006" class="edge">
<title>Node1&#45;&gt;Node6</title>
<g id="a_edge5_Node000001_Node000006"><a xlink:title=" ">
<path fill="none" stroke="#63b8ff" d="M96.41,-223.94C115.63,-204.98 161.48,-162.45 208,-139.5 212.69,-137.18 217.7,-135.13 222.81,-133.3"/>
<polygon fill="#63b8ff" stroke="#63b8ff" points="224.27,-136.51 232.7,-130.08 222.11,-129.85 224.27,-136.51"/>
</a>
</g>
</g>
<!-- Node8 -->
<g id="Node000008" class="node">
<title>Node8</title>
<g id="a_Node000008"><a xlink:href="class_server.html#a54745950beb9e321d9a56084501c18e9" target="_top" xlink:title="Const Getter for server configs.">
<polygon fill="white" stroke="#666666" points="350,-93 213,-93 213,-74 350,-74 350,-93"/>
<text text-anchor="middle" x="281.5" y="-81" font-family="Helvetica,sans-Serif" font-size="10.00">Server::getServerConfigs</text>
</a>
</g>
</g>
<!-- Node1&#45;&gt;Node8 -->
<g id="edge7_Node000001_Node000008" class="edge">
<title>Node1&#45;&gt;Node8</title>
<g id="a_edge7_Node000001_Node000008"><a xlink:title=" ">
<path fill="none" stroke="#63b8ff" d="M93.01,-223.86C108.73,-199.52 153.58,-135.17 208,-102.5 211.64,-100.31 215.53,-98.38 219.55,-96.66"/>
<polygon fill="#63b8ff" stroke="#63b8ff" points="220.98,-99.86 229.09,-93.04 218.5,-93.32 220.98,-99.86"/>
</a>
</g>
</g>
<!-- Node9 -->
<g id="Node000009" class="node">
<title>Node9</title>
<g id="a_Node000009"><a xlink:href="_server_8cpp.html#af0fb17fe53a5e9e72824e5df3fba1322" target="_top" xlink:title="Handles the body of the HTTP request.">
<polygon fill="white" stroke="#666666" points="318.5,-281 244.5,-281 244.5,-262 318.5,-262 318.5,-281"/>
<text text-anchor="middle" x="281.5" y="-269" font-family="Helvetica,sans-Serif" font-size="10.00">handleBody</text>
</a>
</g>
</g>
<!-- Node1&#45;&gt;Node9 -->
<g id="edge8_Node000001_Node000009" class="edge">
<title>Node1&#45;&gt;Node9</title>
<g id="a_edge8_Node000001_Node000009"><a xlink:title=" ">
<path fill="none" stroke="#63b8ff" d="M135.83,-243.09C165.97,-249.01 204.42,-256.56 234.11,-262.39"/>
<polygon fill="#63b8ff" stroke="#63b8ff" points="233.72,-265.88 244.21,-264.37 235.07,-259.01 233.72,-265.88"/>
</a>
</g>
</g>
<!-- Node11 -->
<g id="Node000011" class="node">
<title>Node11</title>
<g id="a_Node000011"><a xlink:href="class_server.html#afab1a4ec9e524b0dae8f60080642e7fe" target="_top" xlink:title="Wrapper function to EpollWrapper::modifyEvent.">
<polygon fill="white" stroke="#666666" points="537,-243 421,-243 421,-224 537,-224 537,-243"/>
<text text-anchor="middle" x="479" y="-231" font-family="Helvetica,sans-Serif" font-size="10.00">Server::modifyEvent</text>
</a>
</g>
</g>
<!-- Node1&#45;&gt;Node11 -->
<g id="edge24_Node000001_Node000011" class="edge">
<title>Node1&#45;&gt;Node11</title>
<g id="a_edge24_Node000001_Node000011"><a xlink:title=" ">
<path fill="none" stroke="#63b8ff" d="M172.32,-233.5C243.88,-233.5 344.68,-233.5 410.66,-233.5"/>
<polygon fill="#63b8ff" stroke="#63b8ff" points="410.94,-237 420.94,-233.5 410.94,-230 410.94,-237"/>
</a>
</g>
</g>
<!-- Node17 -->
<g id="Node000017" class="node">
<title>Node17</title>
<g id="a_Node000017"><a xlink:href="class_server.html#abcfb45414689863da69c2e72ac8fc946" target="_top" xlink:title="Register a CGI file descriptor.">
<polygon fill="white" stroke="#666666" points="567,-206 391,-206 391,-187 567,-187 567,-206"/>
<text text-anchor="middle" x="479" y="-194" font-family="Helvetica,sans-Serif" font-size="10.00">Server::registerCGIFileDescriptor</text>
</a>
</g>
</g>
<!-- Node1&#45;&gt;Node17 -->
<g id="edge28_Node000001_Node000017" class="edge">
<title>Node1&#45;&gt;Node17</title>
<g id="a_edge28_Node000001_Node000017"><a xlink:title=" ">
<path fill="none" stroke="#63b8ff" d="M172.32,-225.43C233.75,-219.61 316.73,-211.76 380.73,-205.7"/>
<polygon fill="#63b8ff" stroke="#63b8ff" points="381.2,-209.18 390.83,-204.75 380.54,-202.21 381.2,-209.18"/>
</a>
</g>
</g>
<!-- Node20 -->
<g id="Node000020" class="node">
<title>Node20</title>
<g id="a_Node000020"><a xlink:href="class_server.html#a3ea71b66d27b584d8c33eb5cb64813f1" target="_top" xlink:title="Wrapper function to EpollWrapper::removeEvent.">
<polygon fill="white" stroke="#666666" points="538.5,-354 419.5,-354 419.5,-335 538.5,-335 538.5,-354"/>
<text text-anchor="middle" x="479" y="-342" font-family="Helvetica,sans-Serif" font-size="10.00">Server::removeEvent</text>
</a>
</g>
</g>
<!-- Node1&#45;&gt;Node20 -->
<g id="edge32_Node000001_Node000020" class="edge">
<title>Node1&#45;&gt;Node20</title>
<g id="a_edge32_Node000001_Node000020"><a xlink:title=" ">
<path fill="none" stroke="#63b8ff" d="M104.09,-243.18C127.04,-255.8 169.41,-277.76 208,-290.5 274.77,-312.54 353.95,-327.08 409.24,-335.46"/>
<polygon fill="#63b8ff" stroke="#63b8ff" points="408.87,-338.95 419.27,-336.96 409.9,-332.02 408.87,-338.95"/>
</a>
</g>
</g>
<!-- Node22 -->
<g id="Node000022" class="node">
<title>Node22</title>
<g id="a_Node000022"><a xlink:href="_connection_8cpp.html#a354192f8dd87ca049cf8b7e6de9000da" target="_top" xlink:title="Selects the server configuration for a connection.">
<polygon fill="white" stroke="#666666" points="341.5,-56 221.5,-56 221.5,-37 341.5,-37 341.5,-56"/>
<text text-anchor="middle" x="281.5" y="-44" font-family="Helvetica,sans-Serif" font-size="10.00">hasValidServerConfig</text>
</a>
</g>
</g>
<!-- Node1&#45;&gt;Node22 -->
<g id="edge21_Node000001_Node000022" class="edge">
<title>Node1&#45;&gt;Node22</title>
<g id="a_edge21_Node000001_Node000022"><a xlink:title=" ">
<path fill="none" stroke="#63b8ff" d="M91.06,-223.63C103.65,-194.34 145,-107.26 208,-64.5 210.29,-62.95 212.69,-61.53 215.18,-60.24"/>
<polygon fill="#63b8ff" stroke="#63b8ff" points="216.82,-63.34 224.52,-56.06 213.96,-56.95 216.82,-63.34"/>
</a>
</g>
</g>
<!-- Node24 -->
<g id="Node000024" class="node">
<title>Node24</title>
<g id="a_Node000024"><a xlink:href="_server_8cpp.html#a92411155dbfc5d7f43c3f1ac0fe54548" target="_top" xlink:title="Checks if a CGI request is made based on the connection details.">
<polygon fill="white" stroke="#666666" points="328.5,-19 234.5,-19 234.5,0 328.5,0 328.5,-19"/>
<text text-anchor="middle" x="281.5" y="-7" font-family="Helvetica,sans-Serif" font-size="10.00">isCGIRequested</text>
</a>
</g>
</g>
<!-- Node1&#45;&gt;Node24 -->
<g id="edge23_Node000001_Node000024" class="edge">
<title>Node1&#45;&gt;Node24</title>
<g id="a_edge23_Node000001_Node000024"><a xlink:title=" ">
<path fill="none" stroke="#63b8ff" d="M89.68,-223.91C99.43,-190.91 136.22,-81.11 208,-27.5 213.05,-23.73 218.79,-20.74 224.78,-18.38"/>
<polygon fill="#63b8ff" stroke="#63b8ff" points="225.98,-21.67 234.33,-15.15 223.74,-15.04 225.98,-21.67"/>
</a>
</g>
</g>
<!-- Node25 -->
<g id="Node000025" class="node">
<title>Node25</title>
<g id="a_Node000025"><a xlink:href="class_server.html#a34bc61299318fe1918293b1d656ee5f9" target="_top" xlink:title="Wrapper function to RequestParser::parseHeader.">
<polygon fill="white" stroke="#666666" points="339.5,-167 223.5,-167 223.5,-148 339.5,-148 339.5,-167"/>
<text text-anchor="middle" x="281.5" y="-155" font-family="Helvetica,sans-Serif" font-size="10.00">Server::parseHeader</text>
</a>
</g>
</g>
<!-- Node1&#45;&gt;Node25 -->
<g id="edge25_Node000001_Node000025" class="edge">
<title>Node1&#45;&gt;Node25</title>
<g id="a_edge25_Node000001_Node000025"><a xlink:title=" ">
<path fill="none" stroke="#63b8ff" d="M107.76,-223.93C131.69,-213.05 172.3,-195.05 208,-181.5 218.24,-177.61 229.42,-173.74 239.87,-170.27"/>
<polygon fill="#63b8ff" stroke="#63b8ff" points="241.19,-173.52 249.6,-167.08 239.01,-166.86 241.19,-173.52"/>
</a>
</g>
</g>
<!-- Node27 -->
<g id="Node000027" class="node">
<title>Node27</title>
<g id="a_Node000027"><a xlink:href="class_server.html#ae04a9076862f2163c562e20fa2207681" target="_top" xlink:title="Removes a Connection from the Server.">
<polygon fill="white" stroke="#666666" points="354.5,-357 208.5,-357 208.5,-338 354.5,-338 354.5,-357"/>
<text text-anchor="middle" x="281.5" y="-345" font-family="Helvetica,sans-Serif" font-size="10.00">Server::removeConnection</text>
</a>
</g>
</g>
<!-- Node1&#45;&gt;Node27 -->
<g id="edge29_Node000001_Node000027" class="edge">
<title>Node1&#45;&gt;Node27</title>
<g id="a_edge29_Node000001_Node000027"><a xlink:title=" ">
<path fill="none" stroke="#63b8ff" d="M97.54,-243.21C117.64,-261.28 163.4,-300.31 208,-323.5 216.29,-327.81 225.52,-331.57 234.53,-334.75"/>
<polygon fill="#63b8ff" stroke="#63b8ff" points="233.58,-338.12 244.17,-337.98 235.8,-331.49 233.58,-338.12"/>
</a>
</g>
</g>
<!-- Node3 -->
<g id="Node000003" class="node">
<title>Node3</title>
<g id="a_Node000003"><a xlink:href="class_target_resource_handler.html#ac3694cb9b73e3f93b874740194539282" target="_top" xlink:title="Determine target resource based on the request path and handle different file types and statuses acco...">
<polygon fill="white" stroke="#666666" points="544,-475.5 414,-475.5 414,-445.5 544,-445.5 544,-475.5"/>
<text text-anchor="start" x="422" y="-463.5" font-family="Helvetica,sans-Serif" font-size="10.00">TargetResourceHandler</text>
<text text-anchor="middle" x="479" y="-452.5" font-family="Helvetica,sans-Serif" font-size="10.00">::execute</text>
</a>
</g>
</g>
<!-- Node2&#45;&gt;Node3 -->
<g id="edge2_Node000002_Node000003" class="edge">
<title>Node2&#45;&gt;Node3</title>
<g id="a_edge2_Node000002_Node000003"><a xlink:title=" ">
<path fill="none" stroke="#63b8ff" d="M355.02,-460.5C370.89,-460.5 387.71,-460.5 403.64,-460.5"/>
<polygon fill="#63b8ff" stroke="#63b8ff" points="403.97,-464 413.97,-460.5 403.97,-457 403.97,-464"/>
</a>
</g>
</g>
<!-- Node7 -->
<g id="Node000007" class="node">
<title>Node7</title>
<g id="a_Node000007"><a xlink:href="class_epoll_wrapper.html#af9b96396ae751ae1189a2c1f9da64ae0" target="_top" xlink:title="Getter for epoll file descriptor.">
<polygon fill="white" stroke="#666666" points="549,-129 409,-129 409,-110 549,-110 549,-129"/>
<text text-anchor="middle" x="479" y="-117" font-family="Helvetica,sans-Serif" font-size="10.00">EpollWrapper::getEpollFd</text>
</a>
</g>
</g>
<!-- Node6&#45;&gt;Node7 -->
<g id="edge6_Node000006_Node000007" class="edge">
<title>Node6&#45;&gt;Node7</title>
<g id="a_edge6_Node000006_Node000007"><a xlink:title=" ">
<path fill="none" stroke="#63b8ff" d="M334.63,-120.23C354.26,-120.13 377.05,-120.02 398.61,-119.91"/>
<polygon fill="#63b8ff" stroke="#63b8ff" points="398.76,-123.41 408.74,-119.85 398.72,-116.41 398.76,-123.41"/>
</a>
</g>
</g>
<!-- Node10 -->
<g id="Node000010" class="node">
<title>Node10</title>
<g id="a_Node000010"><a xlink:href="_server_8cpp.html#a14a0c5a1227276017a19d9b52141c13a" target="_top" xlink:title="Checks if the HTTP request body has been completely received.">
<polygon fill="white" stroke="#666666" points="527.5,-317 430.5,-317 430.5,-298 527.5,-298 527.5,-317"/>
<text text-anchor="middle" x="479" y="-305" font-family="Helvetica,sans-Serif" font-size="10.00">isCompleteBody</text>
</a>
</g>
</g>
<!-- Node9&#45;&gt;Node10 -->
<g id="edge9_Node000009_Node000010" class="edge">
<title>Node9&#45;&gt;Node10</title>
<g id="a_edge9_Node000009_Node000010"><a xlink:title=" ">
<path fill="none" stroke="#63b8ff" d="M318.81,-278.19C347.33,-283.44 387.59,-290.85 420.48,-296.91"/>
<polygon fill="#63b8ff" stroke="#63b8ff" points="419.96,-300.37 430.43,-298.74 421.23,-293.49 419.96,-300.37"/>
</a>
</g>
</g>
<!-- Node9&#45;&gt;Node11 -->
<g id="edge10_Node000009_Node000011" class="edge">
<title>Node9&#45;&gt;Node11</title>
<g id="a_edge10_Node000009_Node000011"><a xlink:title=" ">
<path fill="none" stroke="#63b8ff" d="M318.81,-264.44C346.93,-258.98 386.46,-251.29 419.09,-244.95"/>
<polygon fill="#63b8ff" stroke="#63b8ff" points="419.83,-248.37 428.98,-243.03 418.49,-241.5 419.83,-248.37"/>
</a>
</g>
</g>
<!-- Node13 -->
<g id="Node000013" class="node">
<title>Node13</title>
<g id="a_Node000013"><a xlink:href="class_server.html#ace46f4e07ab67db60e3790a32b2e8e0a" target="_top" xlink:title="Wrapper function to RequestParser::parseBody.">
<polygon fill="white" stroke="#666666" points="532,-280 426,-280 426,-261 532,-261 532,-280"/>
<text text-anchor="middle" x="479" y="-268" font-family="Helvetica,sans-Serif" font-size="10.00">Server::parseBody</text>
</a>
</g>
</g>
<!-- Node9&#45;&gt;Node13 -->
<g id="edge12_Node000009_Node000013" class="edge">
<title>Node9&#45;&gt;Node13</title>
<g id="a_edge12_Node000009_Node000013"><a xlink:title=" ">
<path fill="none" stroke="#63b8ff" d="M318.81,-271.31C345.92,-271.18 383.61,-270.98 415.52,-270.82"/>
<polygon fill="#63b8ff" stroke="#63b8ff" points="415.68,-274.32 425.66,-270.77 415.64,-267.32 415.68,-274.32"/>
</a>
</g>
</g>
<!-- Node9&#45;&gt;Node17 -->
<g id="edge16_Node000009_Node000017" class="edge">
<title>Node9&#45;&gt;Node17</title>
<g id="a_edge16_Node000009_Node000017"><a xlink:title=" ">
<path fill="none" stroke="#63b8ff" d="M298.08,-261.79C318.65,-249.38 356.3,-228 391,-215.5 398.26,-212.88 406,-210.57 413.75,-208.53"/>
<polygon fill="#63b8ff" stroke="#63b8ff" points="414.68,-211.9 423.54,-206.1 412.99,-205.11 414.68,-211.9"/>
</a>
</g>
</g>
<!-- Node9&#45;&gt;Node20 -->
<g id="edge19_Node000009_Node000020" class="edge">
<title>Node9&#45;&gt;Node20</title>
<g id="a_edge19_Node000009_Node000020"><a xlink:title=" ">
<path fill="none" stroke="#63b8ff" d="M318.71,-280.44C330.69,-284.18 343.81,-289.16 355,-295.5 373.37,-305.91 372.06,-317.17 391,-326.5 396.72,-329.32 402.86,-331.69 409.14,-333.7"/>
<polygon fill="#63b8ff" stroke="#63b8ff" points="408.5,-337.15 419.08,-336.55 410.43,-330.43 408.5,-337.15"/>
</a>
</g>
</g>
<!-- Node12 -->
<g id="Node000012" class="node">
<title>Node12</title>
<g id="a_Node000012"><a xlink:href="class_epoll_wrapper.html#ac97945725185999837a6d0d53f91df1a" target="_top" xlink:title="Modify an event in the epoll instance.">
<polygon fill="white" stroke="#666666" points="755,-243 606,-243 606,-224 755,-224 755,-243"/>
<text text-anchor="middle" x="680.5" y="-231" font-family="Helvetica,sans-Serif" font-size="10.00">EpollWrapper::modifyEvent</text>
</a>
</g>
</g>
<!-- Node11&#45;&gt;Node12 -->
<g id="edge11_Node000011_Node000012" class="edge">
<title>Node11&#45;&gt;Node12</title>
<g id="a_edge11_Node000011_Node000012"><a xlink:title=" ">
<path fill="none" stroke="#63b8ff" d="M537.17,-233.5C555.41,-233.5 575.98,-233.5 595.7,-233.5"/>
<polygon fill="#63b8ff" stroke="#63b8ff" points="595.92,-237 605.92,-233.5 595.92,-230 595.92,-237"/>
</a>
</g>
</g>
<!-- Node14 -->
<g id="Node000014" class="node">
<title>Node14</title>
<g id="a_Node000014"><a xlink:href="class_server.html#aeef8f46cd90db32c308c95cd2e5b5c6e" target="_top" xlink:title="Getter for internal buffer.">
<polygon fill="white" stroke="#666666" points="730,-317 631,-317 631,-298 730,-298 730,-317"/>
<text text-anchor="middle" x="680.5" y="-305" font-family="Helvetica,sans-Serif" font-size="10.00">Server::getBuffer</text>
</a>
</g>
</g>
<!-- Node13&#45;&gt;Node14 -->
<g id="edge13_Node000013_Node000014" class="edge">
<title>Node13&#45;&gt;Node14</title>
<g id="a_edge13_Node000013_Node000014"><a xlink:title=" ">
<path fill="none" stroke="#63b8ff" d="M531.38,-280.03C558.62,-285.08 592.23,-291.31 620.53,-296.56"/>
<polygon fill="#63b8ff" stroke="#63b8ff" points="620.23,-300.07 630.7,-298.45 621.51,-293.18 620.23,-300.07"/>
</a>
</g>
</g>
<!-- Node15 -->
<g id="Node000015" class="node">
<title>Node15</title>
<g id="a_Node000015"><a xlink:href="class_request_parser.html#a7013ef37aa64a74bb183ee3ff9941b05" target="_top" xlink:title="Parses the body of an HTTP request.">
<polygon fill="white" stroke="#666666" points="752.5,-280 608.5,-280 608.5,-261 752.5,-261 752.5,-280"/>
<text text-anchor="middle" x="680.5" y="-268" font-family="Helvetica,sans-Serif" font-size="10.00">RequestParser::parseBody</text>
</a>
</g>
</g>
<!-- Node13&#45;&gt;Node15 -->
<g id="edge14_Node000013_Node000015" class="edge">
<title>Node13&#45;&gt;Node15</title>
<g id="a_edge14_Node000013_Node000015"><a xlink:title=" ">
<path fill="none" stroke="#63b8ff" d="M532.16,-270.5C552.28,-270.5 575.78,-270.5 598.02,-270.5"/>
<polygon fill="#63b8ff" stroke="#63b8ff" points="598.14,-274 608.14,-270.5 598.14,-267 598.14,-274"/>
</a>
</g>
</g>
<!-- Node16 -->
<g id="Node000016" class="node">
<title>Node16</title>
<g id="a_Node000016"><a xlink:href="class_request_parser.html#ad8e0fc22eb113d78140e257f002df666" target="_top" xlink:title="Clears the contents of the RequestParser object.">
<polygon fill="white" stroke="#666666" points="951,-211.5 794,-211.5 794,-181.5 951,-181.5 951,-211.5"/>
<text text-anchor="start" x="802" y="-199.5" font-family="Helvetica,sans-Serif" font-size="10.00">RequestParser::resetRequest</text>
<text text-anchor="middle" x="872.5" y="-188.5" font-family="Helvetica,sans-Serif" font-size="10.00">Stream</text>
</a>
</g>
</g>
<!-- Node15&#45;&gt;Node16 -->
<g id="edge15_Node000015_Node000016" class="edge">
<title>Node15&#45;&gt;Node16</title>
<g id="a_edge15_Node000015_Node000016"><a xlink:title=" ">
<path fill="none" stroke="#63b8ff" d="M729.73,-260.91C739.22,-258.54 749.01,-255.73 758,-252.5 785.14,-242.75 814.29,-228.28 836.25,-216.49"/>
<polygon fill="#63b8ff" stroke="#63b8ff" points="838.08,-219.48 845.19,-211.62 834.74,-213.33 838.08,-219.48"/>
</a>
</g>
</g>
<!-- Node18 -->
<g id="Node000018" class="node">
<title>Node18</title>
<g id="a_Node000018"><a xlink:href="class_epoll_wrapper.html#ace2a6009a6c647babfc667c27df05354" target="_top" xlink:title="Add an event to the epoll instance.">
<polygon fill="white" stroke="#666666" points="747.5,-206 613.5,-206 613.5,-187 747.5,-187 747.5,-206"/>
<text text-anchor="middle" x="680.5" y="-194" font-family="Helvetica,sans-Serif" font-size="10.00">EpollWrapper::addEvent</text>
</a>
</g>
</g>
<!-- Node17&#45;&gt;Node18 -->
<g id="edge17_Node000017_Node000018" class="edge">
<title>Node17&#45;&gt;Node18</title>
<g id="a_edge17_Node000017_Node000018"><a xlink:title=" ">
<path fill="none" stroke="#63b8ff" d="M567.21,-196.5C579.22,-196.5 591.46,-196.5 603.25,-196.5"/>
<polygon fill="#63b8ff" stroke="#63b8ff" points="603.47,-200 613.47,-196.5 603.47,-193 603.47,-200"/>
</a>
</g>
</g>
<!-- Node19 -->
<g id="Node000019" class="node">
<title>Node19</title>
<g id="a_Node000019"><a xlink:href="namespacewebutils.html#ad74875f464c74bd45589002fc385605e" target="_top" xlink:title=" ">
<polygon fill="white" stroke="#666666" points="731,-169 630,-169 630,-150 731,-150 731,-169"/>
<text text-anchor="middle" x="680.5" y="-157" font-family="Helvetica,sans-Serif" font-size="10.00">webutils::closeFd</text>
</a>
</g>
</g>
<!-- Node17&#45;&gt;Node19 -->
<g id="edge18_Node000017_Node000019" class="edge">
<title>Node17&#45;&gt;Node19</title>
<g id="a_edge18_Node000017_Node000019"><a xlink:title=" ">
<path fill="none" stroke="#63b8ff" d="M531.38,-186.97C558.32,-181.98 591.47,-175.83 619.57,-170.61"/>
<polygon fill="#63b8ff" stroke="#63b8ff" points="620.48,-174.01 629.68,-168.74 619.21,-167.12 620.48,-174.01"/>
</a>
</g>
</g>
<!-- Node21 -->
<g id="Node000021" class="node">
<title>Node21</title>
<g id="a_Node000021"><a xlink:href="class_epoll_wrapper.html#a30d7cd3090f8d8d0f10c2d9edb136d59" target="_top" xlink:title="Remove an event from the epoll instance.">
<polygon fill="white" stroke="#666666" points="757,-354 604,-354 604,-335 757,-335 757,-354"/>
<text text-anchor="middle" x="680.5" y="-342" font-family="Helvetica,sans-Serif" font-size="10.00">EpollWrapper::removeEvent</text>
</a>
</g>
</g>
<!-- Node20&#45;&gt;Node21 -->
<g id="edge20_Node000020_Node000021" class="edge">
<title>Node20&#45;&gt;Node21</title>
<g id="a_edge20_Node000020_Node000021"><a xlink:title=" ">
<path fill="none" stroke="#63b8ff" d="M538.51,-344.5C555.78,-344.5 575.05,-344.5 593.66,-344.5"/>
<polygon fill="#63b8ff" stroke="#63b8ff" points="593.91,-348 603.91,-344.5 593.91,-341 593.91,-348"/>
</a>
</g>
</g>
<!-- Node23 -->
<g id="Node000023" class="node">
<title>Node23</title>
<g id="a_Node000023"><a xlink:href="_connection_8cpp.html#af96f533f342bd6cf42899f3c9fd30a99" target="_top" xlink:title="Find matching server configurations for a server socket.">
<polygon fill="white" stroke="#666666" points="552.5,-56 405.5,-56 405.5,-37 552.5,-37 552.5,-56"/>
<text text-anchor="middle" x="479" y="-44" font-family="Helvetica,sans-Serif" font-size="10.00">findMatchingServerConfigs</text>
</a>
</g>
</g>
<!-- Node22&#45;&gt;Node23 -->
<g id="edge22_Node000022_Node000023" class="edge">
<title>Node22&#45;&gt;Node23</title>
<g id="a_edge22_Node000022_Node000023"><a xlink:title=" ">
<path fill="none" stroke="#63b8ff" d="M341.69,-46.5C358.49,-46.5 377.1,-46.5 395.03,-46.5"/>
<polygon fill="#63b8ff" stroke="#63b8ff" points="395.2,-50 405.2,-46.5 395.2,-43 395.2,-50"/>
</a>
</g>
</g>
<!-- Node26 -->
<g id="Node000026" class="node">
<title>Node26</title>
<g id="a_Node000026"><a xlink:href="class_request_parser.html#a933b43673d0b7b99d6cc310f5c03a865" target="_top" xlink:title="Parses the header of an HTTP request.">
<polygon fill="white" stroke="#666666" points="758,-132 603,-132 603,-113 758,-113 758,-132"/>
<text text-anchor="middle" x="680.5" y="-120" font-family="Helvetica,sans-Serif" font-size="10.00">RequestParser::parseHeader</text>
</a>
</g>
</g>
<!-- Node25&#45;&gt;Node26 -->
<g id="edge26_Node000025_Node000026" class="edge">
<title>Node25&#45;&gt;Node26</title>
<g id="a_edge26_Node000025_Node000026"><a xlink:title=" ">
<path fill="none" stroke="#63b8ff" d="M339.55,-154.94C397.07,-152.07 488.35,-146.71 567,-138.5 580.5,-137.09 594.87,-135.28 608.66,-133.39"/>
<polygon fill="#63b8ff" stroke="#63b8ff" points="609.17,-136.86 618.59,-132.01 608.2,-129.93 609.17,-136.86"/>
</a>
</g>
</g>
<!-- Node26&#45;&gt;Node16 -->
<g id="edge27_Node000026_Node000016" class="edge">
<title>Node26&#45;&gt;Node16</title>
<g id="a_edge27_Node000026_Node000016"><a xlink:title=" ">
<path fill="none" stroke="#63b8ff" d="M726.47,-132.01C736.94,-134.68 747.96,-137.87 758,-141.5 784.66,-151.15 813.39,-165.11 835.28,-176.55"/>
<polygon fill="#63b8ff" stroke="#63b8ff" points="833.74,-179.7 844.21,-181.28 837.01,-173.51 833.74,-179.7"/>
</a>
</g>
</g>
<!-- Node27&#45;&gt;Node5 -->
<g id="edge30_Node000027_Node000005" class="edge">
<title>Node27&#45;&gt;Node5</title>
<g id="a_edge30_Node000027_Node000005"><a xlink:title=" ">
<path fill="none" stroke="#63b8ff" d="M334.12,-357.01C359.3,-361.64 389.78,-367.25 416.19,-372.12"/>
<polygon fill="#63b8ff" stroke="#63b8ff" points="415.62,-375.57 426.09,-373.94 416.89,-368.69 415.62,-375.57"/>
</a>
</g>
</g>
<!-- Node27&#45;&gt;Node20 -->
<g id="edge31_Node000027_Node000020" class="edge">
<title>Node27&#45;&gt;Node20</title>
<g id="a_edge31_Node000027_Node000020"><a xlink:title=" ">
<path fill="none" stroke="#63b8ff" d="M354.74,-346.39C372.56,-346.12 391.6,-345.83 409.25,-345.55"/>
<polygon fill="#63b8ff" stroke="#63b8ff" points="409.52,-349.05 419.46,-345.4 409.41,-342.05 409.52,-349.05"/>
</a>
</g>
</g>
</g>
</svg>

<g id="navigator" transform="translate(0 0)" fill="#404254">
  <rect fill="#f2f5e9" fill-opacity="0.5" stroke="#606060" stroke-width=".5" x="0" y="0" width="60" height="60"/>
  <use id="zoomplus" xlink:href="#zoomPlus" x="17" y="9" onmousedown="handleZoom(evt,'in')"/>
  <use id="zoomminus" xlink:href="#zoomMin" x="42" y="9" onmousedown="handleZoom(evt,'out')"/>
  <use id="reset" xlink:href="#resetDef" x="30" y="36" onmousedown="handleReset()"/>
   <use id="arrowup" xlink:href="#arrowUp" x="0" y="0" onmousedown="handlePan(0,-1)"/>
  <use id="arrowright" xlink:href="#arrowRight" x="0" y="0" onmousedown="handlePan(1,0)"/>
  <use id="arrowdown" xlink:href="#arrowDown" x="0" y="0" onmousedown="handlePan(0,1)"/>
  <use id="arrowleft" xlink:href="#arrowLeft" x="0" y="0" onmousedown="handlePan(-1,0)"/>
</g>
<svg viewBox="0 0 15 15" width="100%" height="30px" preserveAspectRatio="xMaxYMin meet">
 <g id="arrow_out" transform="scale(0.3 0.3)">
  <a xlink:href="_server_8cpp_a83350eae81b96dd7b301d1238268ffdb_cgraph_org.svg" target="_base">
   <rect id="button" ry="5" rx="5" y="6" x="6" height="38" width="38"
        fill="#f2f5e9" fill-opacity="0.5" stroke="#606060" stroke-width="1.0"/>
   <path id="arrow"
     d="M 11.500037,31.436501 C 11.940474,20.09759 22.043105,11.32322 32.158766,21.979434 L 37.068811,17.246167 C 37.068811,17.246167 37.088388,32 37.088388,32 L 22.160133,31.978069 C 22.160133,31.978069 26.997745,27.140456 26.997745,27.140456 C 18.528582,18.264221 13.291696,25.230495 11.500037,31.436501 z"
     style="fill:#404040;"/>
  </a>
 </g>
</svg>

<style type='text/css'>
<![CDATA[
[data-mouse-over-selected='false'] { opacity: 0.7; }
[data-mouse-over-selected='true']  { opacity: 1.0; }
]]>
</style>
<script type="application/ecmascript"><![CDATA[
document.addEventListener('DOMContentLoaded', (event) => {
  highlightEdges();
  highlightAdjacentNodes();
});
]]></script>
</svg>
