<?xml version="1.0" encoding="UTF-8" standalone="no"?>
<!DOCTYPE svg PUBLIC "-//W3C//DTD SVG 1.1//EN"
 "http://www.w3.org/Graphics/SVG/1.1/DTD/svg11.dtd">
<!-- Generated by graphviz version 2.43.0 (0)
 -->
<!-- Title: connectionSendToCGI Pages: 1 -->
<svg width="714pt" height="175pt"
 viewBox="0.00 0.00 714.00 175.00" xmlns="http://www.w3.org/2000/svg" xmlns:xlink="http://www.w3.org/1999/xlink">
<g id="graph0" class="graph" transform="scale(1 1) rotate(0) translate(4 171)">
<title>connectionSendToCGI</title>
<!-- Node1 -->
<g id="Node000001" class="node">
<title>Node1</title>
<g id="a_Node000001"><a xlink:title="Sends the request body to the CGI process.">
<polygon fill="#999999" stroke="#666666" points="122,-111 0,-111 0,-92 122,-92 122,-111"/>
<text text-anchor="middle" x="61" y="-99" font-family="Helvetica,sans-Serif" font-size="10.00">connectionSendToCGI</text>
</a>
</g>
</g>
<!-- Node2 -->
<g id="Node000002" class="node">
<title>Node2</title>
<g id="a_Node000002"><a xlink:href="class_server.html#ae02283a176e4c6ffc9ff0efaf00074cf" target="_top" xlink:title="Wrapper function to EpollWrapper::addEvent.">
<polygon fill="white" stroke="#666666" points="296,-167 196,-167 196,-148 296,-148 296,-167"/>
<text text-anchor="middle" x="246" y="-155" font-family="Helvetica,sans-Serif" font-size="10.00">Server::addEvent</text>
</a>
</g>
</g>
<!-- Node1&#45;&gt;Node2 -->
<g id="edge1_Node000001_Node000002" class="edge">
<title>Node1&#45;&gt;Node2</title>
<g id="a_edge1_Node000001_Node000002"><a xlink:title=" ">
<path fill="none" stroke="#63b8ff" d="M82.98,-111.03C102.18,-119.45 131.55,-131.59 158,-139.5 166.9,-142.16 176.43,-144.56 185.79,-146.69"/>
<polygon fill="#63b8ff" stroke="#63b8ff" points="185.34,-150.17 195.85,-148.88 186.83,-143.33 185.34,-150.17"/>
</a>
</g>
</g>
<!-- Node4 -->
<g id="Node000004" class="node">
<title>Node4</title>
<g id="a_Node000004"><a xlink:href="class_server.html#abcfb45414689863da69c2e72ac8fc946" target="_top" xlink:title="Register a CGI file descriptor.">
<polygon fill="white" stroke="#666666" points="334,-130 158,-130 158,-111 334,-111 334,-130"/>
<text text-anchor="middle" x="246" y="-118" font-family="Helvetica,sans-Serif" font-size="10.00">Server::registerCGIFileDescriptor</text>
</a>
</g>
</g>
<!-- Node1&#45;&gt;Node4 -->
<g id="edge3_Node000001_Node000004" class="edge">
<title>Node1&#45;&gt;Node4</title>
<g id="a_edge3_Node000001_Node000004"><a xlink:title=" ">
<path fill="none" stroke="#63b8ff" d="M122.17,-107.75C130.41,-108.6 139.03,-109.5 147.72,-110.4"/>
<polygon fill="#63b8ff" stroke="#63b8ff" points="147.63,-113.91 157.94,-111.46 148.35,-106.95 147.63,-113.91"/>
</a>
</g>
</g>
<!-- Node6 -->
<g id="Node000006" class="node">
<title>Node6</title>
<g id="a_Node000006"><a xlink:href="class_server.html#ab4a0ae2ec5d126062a7c5d4a2f78160a" target="_top" xlink:title="Removes a CGI file descriptor from the server.">
<polygon fill="white" stroke="#666666" points="334,-93 158,-93 158,-74 334,-74 334,-93"/>
<text text-anchor="middle" x="246" y="-81" font-family="Helvetica,sans-Serif" font-size="10.00">Server::removeCGIFileDescriptor</text>
</a>
</g>
</g>
<!-- Node1&#45;&gt;Node6 -->
<g id="edge6_Node000001_Node000006" class="edge">
<title>Node1&#45;&gt;Node6</title>
<g id="a_edge6_Node000001_Node000006"><a xlink:title=" ">
<path fill="none" stroke="#63b8ff" d="M122.17,-95.58C130.41,-94.77 139.03,-93.92 147.72,-93.07"/>
<polygon fill="#63b8ff" stroke="#63b8ff" points="148.33,-96.53 157.94,-92.06 147.64,-89.56 148.33,-96.53"/>
</a>
</g>
</g>
<!-- Node10 -->
<g id="Node000010" class="node">
<title>Node10</title>
<g id="a_Node000010"><a xlink:href="class_server.html#a8fec2a00e7d106bf35f19d2d7f61fd0b" target="_top" xlink:title="Wrapper function to ProcessOps::writeProcess.">
<polygon fill="white" stroke="#666666" points="304,-38 188,-38 188,-19 304,-19 304,-38"/>
<text text-anchor="middle" x="246" y="-26" font-family="Helvetica,sans-Serif" font-size="10.00">Server::writeProcess</text>
</a>
</g>
</g>
<!-- Node1&#45;&gt;Node10 -->
<g id="edge11_Node000001_Node000010" class="edge">
<title>Node1&#45;&gt;Node10</title>
<g id="a_edge11_Node000001_Node000010"><a xlink:title=" ">
<path fill="none" stroke="#63b8ff" d="M85.92,-91.96C117.98,-79.17 175.04,-56.41 211.4,-41.9"/>
<polygon fill="#63b8ff" stroke="#63b8ff" points="213.08,-45 221.07,-38.05 210.48,-38.5 213.08,-45"/>
</a>
</g>
</g>
<!-- Node3 -->
<g id="Node000003" class="node">
<title>Node3</title>
<g id="a_Node000003"><a xlink:href="class_epoll_wrapper.html#ace2a6009a6c647babfc667c27df05354" target="_top" xlink:title="Add an event to the epoll instance.">
<polygon fill="white" stroke="#666666" points="510.5,-167 376.5,-167 376.5,-148 510.5,-148 510.5,-167"/>
<text text-anchor="middle" x="443.5" y="-155" font-family="Helvetica,sans-Serif" font-size="10.00">EpollWrapper::addEvent</text>
</a>
</g>
</g>
<!-- Node2&#45;&gt;Node3 -->
<g id="edge2_Node000002_Node000003" class="edge">
<title>Node2&#45;&gt;Node3</title>
<g id="a_edge2_Node000002_Node000003"><a xlink:title=" ">
<path fill="none" stroke="#63b8ff" d="M296.08,-157.5C317.36,-157.5 342.77,-157.5 366.4,-157.5"/>
<polygon fill="#63b8ff" stroke="#63b8ff" points="366.4,-161 376.4,-157.5 366.4,-154 366.4,-161"/>
</a>
</g>
</g>
<!-- Node4&#45;&gt;Node3 -->
<g id="edge4_Node000004_Node000003" class="edge">
<title>Node4&#45;&gt;Node3</title>
<g id="a_edge4_Node000004_Node000003"><a xlink:title=" ">
<path fill="none" stroke="#63b8ff" d="M297.35,-130.03C323.13,-134.91 354.72,-140.89 381.83,-146.02"/>
<polygon fill="#63b8ff" stroke="#63b8ff" points="381.51,-149.52 391.99,-147.94 382.81,-142.64 381.51,-149.52"/>
</a>
</g>
</g>
<!-- Node5 -->
<g id="Node000005" class="node">
<title>Node5</title>
<g id="a_Node000005"><a xlink:href="namespacewebutils.html#ad74875f464c74bd45589002fc385605e" target="_top" xlink:title=" ">
<polygon fill="white" stroke="#666666" points="494,-130 393,-130 393,-111 494,-111 494,-130"/>
<text text-anchor="middle" x="443.5" y="-118" font-family="Helvetica,sans-Serif" font-size="10.00">webutils::closeFd</text>
</a>
</g>
</g>
<!-- Node4&#45;&gt;Node5 -->
<g id="edge5_Node000004_Node000005" class="edge">
<title>Node4&#45;&gt;Node5</title>
<g id="a_edge5_Node000004_Node000005"><a xlink:title=" ">
<path fill="none" stroke="#63b8ff" d="M334.17,-120.5C350.55,-120.5 367.33,-120.5 382.65,-120.5"/>
<polygon fill="#63b8ff" stroke="#63b8ff" points="382.99,-124 392.99,-120.5 382.99,-117 382.99,-124"/>
</a>
</g>
</g>
<!-- Node6&#45;&gt;Node5 -->
<g id="edge7_Node000006_Node000005" class="edge">
<title>Node6&#45;&gt;Node5</title>
<g id="a_edge7_Node000006_Node000005"><a xlink:title=" ">
<path fill="none" stroke="#63b8ff" d="M297.35,-93.03C323.44,-97.97 355.49,-104.03 382.82,-109.21"/>
<polygon fill="#63b8ff" stroke="#63b8ff" points="382.19,-112.65 392.66,-111.07 383.49,-105.77 382.19,-112.65"/>
</a>
</g>
</g>
<!-- Node7 -->
<g id="Node000007" class="node">
<title>Node7</title>
<g id="a_Node000007"><a xlink:href="class_server.html#aad2be3b48155c6eb508bca4b1af3db97" target="_top" xlink:title="Getter for cgiConnections.">
<polygon fill="white" stroke="#666666" points="517,-93 370,-93 370,-74 517,-74 517,-93"/>
<text text-anchor="middle" x="443.5" y="-81" font-family="Helvetica,sans-Serif" font-size="10.00">Server::getCGIConnections</text>
</a>
</g>
</g>
<!-- Node6&#45;&gt;Node7 -->
<g id="edge8_Node000006_Node000007" class="edge">
<title>Node6&#45;&gt;Node7</title>
<g id="a_edge8_Node000006_Node000007"><a xlink:title=" ">
<path fill="none" stroke="#63b8ff" d="M334.17,-83.5C342.64,-83.5 351.22,-83.5 359.64,-83.5"/>
<polygon fill="#63b8ff" stroke="#63b8ff" points="359.83,-87 369.83,-83.5 359.83,-80 359.83,-87"/>
</a>
</g>
</g>
<!-- Node8 -->
<g id="Node000008" class="node">
<title>Node8</title>
<g id="a_Node000008"><a xlink:href="class_server.html#a3ea71b66d27b584d8c33eb5cb64813f1" target="_top" xlink:title="Wrapper function to EpollWrapper::removeEvent.">
<polygon fill="white" stroke="#666666" points="503,-56 384,-56 384,-37 503,-37 503,-56"/>
<text text-anchor="middle" x="443.5" y="-44" font-family="Helvetica,sans-Serif" font-size="10.00">Server::removeEvent</text>
</a>
</g>
</g>
<!-- Node6&#45;&gt;Node8 -->
<g id="edge9_Node000006_Node000008" class="edge">
<title>Node6&#45;&gt;Node8</title>
<g id="a_edge9_Node000006_Node000008"><a xlink:title=" ">
<path fill="none" stroke="#63b8ff" d="M297.35,-73.97C323.13,-69.09 354.72,-63.11 381.83,-57.98"/>
<polygon fill="#63b8ff" stroke="#63b8ff" points="382.81,-61.36 391.99,-56.06 381.51,-54.48 382.81,-61.36"/>
</a>
</g>
</g>
<!-- Node9 -->
<g id="Node000009" class="node">
<title>Node9</title>
<g id="a_Node000009"><a xlink:href="class_epoll_wrapper.html#a30d7cd3090f8d8d0f10c2d9edb136d59" target="_top" xlink:title="Remove an event from the epoll instance.">
<polygon fill="white" stroke="#666666" points="706,-56 553,-56 553,-37 706,-37 706,-56"/>
<text text-anchor="middle" x="629.5" y="-44" font-family="Helvetica,sans-Serif" font-size="10.00">EpollWrapper::removeEvent</text>
</a>
</g>
</g>
<!-- Node8&#45;&gt;Node9 -->
<g id="edge10_Node000008_Node000009" class="edge">
<title>Node8&#45;&gt;Node9</title>
<g id="a_edge10_Node000008_Node000009"><a xlink:title=" ">
<path fill="none" stroke="#63b8ff" d="M503.22,-46.5C515.8,-46.5 529.33,-46.5 542.68,-46.5"/>
<polygon fill="#63b8ff" stroke="#63b8ff" points="542.84,-50 552.84,-46.5 542.84,-43 542.84,-50"/>
</a>
</g>
</g>
<!-- Node11 -->
<g id="Node000011" class="node">
<title>Node11</title>
<g id="a_Node000011"><a xlink:href="class_process_ops.html#a2f7d6815890c3dbc375b70ae4f5348b9" target="_top" xlink:title="Writes data from a buffer to a file descriptor.">
<polygon fill="white" stroke="#666666" points="514,-19 373,-19 373,0 514,0 514,-19"/>
<text text-anchor="middle" x="443.5" y="-7" font-family="Helvetica,sans-Serif" font-size="10.00">ProcessOps::writeProcess</text>
</a>
</g>
</g>
<!-- Node10&#45;&gt;Node11 -->
<g id="edge12_Node000010_Node000011" class="edge">
<title>Node10&#45;&gt;Node11</title>
<g id="a_edge12_Node000010_Node000011"><a xlink:title=" ">
<path fill="none" stroke="#63b8ff" d="M304.07,-22.95C322.4,-21.17 343.06,-19.16 362.71,-17.25"/>
<polygon fill="#63b8ff" stroke="#63b8ff" points="363.26,-20.72 372.88,-16.27 362.58,-13.75 363.26,-20.72"/>
</a>
</g>
</g>
</g>
</svg>
