<?xml version="1.0" encoding="UTF-8" standalone="no"?>
<!DOCTYPE svg PUBLIC "-//W3C//DTD SVG 1.1//EN"
 "http://www.w3.org/Graphics/SVG/1.1/DTD/svg11.dtd">
<!-- Generated by graphviz version 2.43.0 (0)
 -->
<!-- Title: connectionReceiveHeader Pages: 1 -->
<svg width="1139pt" height="517pt"
 viewBox="0.00 0.00 1139.00 517.00" xmlns="http://www.w3.org/2000/svg" xmlns:xlink="http://www.w3.org/1999/xlink">
<g id="graph0" class="graph" transform="scale(1 1) rotate(0) translate(4 513)">
<title>connectionReceiveHeader</title>
<!-- Node1 -->
<g id="Node000001" class="node">
<title>Node1</title>
<g id="a_Node000001"><a xlink:title="Receive request header from a client.">
<polygon fill="#999999" stroke="#666666" points="144,-94 0,-94 0,-75 144,-75 144,-94"/>
<text text-anchor="middle" x="72" y="-82" font-family="Helvetica,sans-Serif" font-size="10.00">connectionReceiveHeader</text>
</a>
</g>
</g>
<!-- Node2 -->
<g id="Node000002" class="node">
<title>Node2</title>
<g id="a_Node000002"><a xlink:href="class_server.html#a45f1691489d81cdd6acc640d96d5046b" target="_top" xlink:title="Getter for client header buffer.">
<polygon fill="white" stroke="#666666" points="347.5,-318 184.5,-318 184.5,-299 347.5,-299 347.5,-318"/>
<text text-anchor="middle" x="266" y="-306" font-family="Helvetica,sans-Serif" font-size="10.00">Server::getClientHeaderBuffer</text>
</a>
</g>
</g>
<!-- Node1&#45;&gt;Node2 -->
<g id="edge1_Node000001_Node000002" class="edge">
<title>Node1&#45;&gt;Node2</title>
<g id="a_edge1_Node000001_Node000002"><a xlink:title=" ">
<path fill="none" stroke="#63b8ff" d="M74.98,-94.08C82.33,-127.05 111.22,-236.69 180,-289.5 182.36,-291.31 184.86,-292.96 187.47,-294.45"/>
<polygon fill="#63b8ff" stroke="#63b8ff" points="186.15,-297.71 196.67,-298.97 189.24,-291.43 186.15,-297.71"/>
</a>
</g>
</g>
<!-- Node3 -->
<g id="Node000003" class="node">
<title>Node3</title>
<g id="a_Node000003"><a xlink:href="_server_8cpp.html#a83350eae81b96dd7b301d1238268ffdb" target="_top" xlink:title="Handles the complete request header received from a client.">
<polygon fill="white" stroke="#666666" points="352,-281 180,-281 180,-262 352,-262 352,-281"/>
<text text-anchor="middle" x="266" y="-269" font-family="Helvetica,sans-Serif" font-size="10.00">handleCompleteRequestHeader</text>
</a>
</g>
</g>
<!-- Node1&#45;&gt;Node3 -->
<g id="edge2_Node000001_Node000003" class="edge">
<title>Node1&#45;&gt;Node3</title>
<g id="a_edge2_Node000001_Node000003"><a xlink:title=" ">
<path fill="none" stroke="#63b8ff" d="M82.79,-94.03C113.46,-123.91 208.05,-216.04 247.47,-254.43"/>
<polygon fill="#63b8ff" stroke="#63b8ff" points="245.4,-257.29 255,-261.76 250.28,-252.28 245.4,-257.29"/>
</a>
</g>
</g>
<!-- Node13 -->
<g id="Node000013" class="node">
<title>Node13</title>
<g id="a_Node000013"><a xlink:href="class_server.html#afab1a4ec9e524b0dae8f60080642e7fe" target="_top" xlink:title="Wrapper function to EpollWrapper::modifyEvent.">
<polygon fill="white" stroke="#666666" points="731.5,-132 615.5,-132 615.5,-113 731.5,-113 731.5,-132"/>
<text text-anchor="middle" x="673.5" y="-120" font-family="Helvetica,sans-Serif" font-size="10.00">Server::modifyEvent</text>
</a>
</g>
</g>
<!-- Node1&#45;&gt;Node13 -->
<g id="edge28_Node000001_Node000013" class="edge">
<title>Node1&#45;&gt;Node13</title>
<g id="a_edge28_Node000001_Node000013"><a xlink:title=" ">
<path fill="none" stroke="#63b8ff" d="M144.29,-85.82C239.95,-88.04 415.08,-93.75 564,-107.5 577.35,-108.73 591.58,-110.43 605.2,-112.23"/>
<polygon fill="#63b8ff" stroke="#63b8ff" points="605.08,-115.75 615.46,-113.63 606.02,-108.81 605.08,-115.75"/>
</a>
</g>
</g>
<!-- Node26 -->
<g id="Node000026" class="node">
<title>Node26</title>
<g id="a_Node000026"><a xlink:href="_server_8cpp.html#a172c400277e73261d212c33f66226090" target="_top" xlink:title="Checks if the connection buffer contains a request header.">
<polygon fill="white" stroke="#666666" points="339.5,-56 192.5,-56 192.5,-37 339.5,-37 339.5,-56"/>
<text text-anchor="middle" x="266" y="-44" font-family="Helvetica,sans-Serif" font-size="10.00">isCompleteRequestHeader</text>
</a>
</g>
</g>
<!-- Node1&#45;&gt;Node26 -->
<g id="edge27_Node000001_Node000026" class="edge">
<title>Node1&#45;&gt;Node26</title>
<g id="a_edge27_Node000001_Node000026"><a xlink:title=" ">
<path fill="none" stroke="#63b8ff" d="M121.45,-74.91C147.47,-69.76 179.73,-63.38 207.07,-57.97"/>
<polygon fill="#63b8ff" stroke="#63b8ff" points="207.77,-61.4 216.9,-56.02 206.41,-54.53 207.77,-61.4"/>
</a>
</g>
</g>
<!-- Node27 -->
<g id="Node000027" class="node">
<title>Node27</title>
<g id="a_Node000027"><a xlink:href="class_server.html#ae94e3d4b5743580a6fbe3228d58af423" target="_top" xlink:title="Wrapper function to SocketPolicy::readFromSocket.">
<polygon fill="white" stroke="#666666" points="332.5,-19 199.5,-19 199.5,0 332.5,0 332.5,-19"/>
<text text-anchor="middle" x="266" y="-7" font-family="Helvetica,sans-Serif" font-size="10.00">Server::readFromSocket</text>
</a>
</g>
</g>
<!-- Node1&#45;&gt;Node27 -->
<g id="edge29_Node000001_Node000027" class="edge">
<title>Node1&#45;&gt;Node27</title>
<g id="a_edge29_Node000001_Node000027"><a xlink:title=" ">
<path fill="none" stroke="#63b8ff" d="M87.62,-74.99C107.67,-62.36 145.19,-40.17 180,-27.5 186.05,-25.3 192.44,-23.33 198.89,-21.58"/>
<polygon fill="#63b8ff" stroke="#63b8ff" points="200.21,-24.86 209.04,-19.01 198.49,-18.07 200.21,-24.86"/>
</a>
</g>
</g>
<!-- Node4 -->
<g id="Node000004" class="node">
<title>Node4</title>
<g id="a_Node000004"><a xlink:href="class_server.html#a002dd2fd1e6f0f4290568b4d94f39594" target="_top" xlink:title="Wrapper function to TargetResourceHandler::execute.">
<polygon fill="white" stroke="#666666" points="549.5,-392 402.5,-392 402.5,-373 549.5,-373 549.5,-392"/>
<text text-anchor="middle" x="476" y="-380" font-family="Helvetica,sans-Serif" font-size="10.00">Server::findTargetResource</text>
</a>
</g>
</g>
<!-- Node3&#45;&gt;Node4 -->
<g id="edge3_Node000003_Node000004" class="edge">
<title>Node3&#45;&gt;Node4</title>
<g id="a_edge3_Node000003_Node000004"><a xlink:title=" ">
<path fill="none" stroke="#63b8ff" d="M337.97,-281.1C342.98,-283.38 347.73,-286.14 352,-289.5 381.07,-312.34 358.87,-341.72 388,-364.5 389.64,-365.78 391.35,-366.98 393.12,-368.1"/>
<polygon fill="#63b8ff" stroke="#63b8ff" points="391.9,-371.42 402.37,-373.05 395.2,-365.24 391.9,-371.42"/>
</a>
</g>
</g>
<!-- Node6 -->
<g id="Node000006" class="node">
<title>Node6</title>
<g id="a_Node000006"><a xlink:href="class_server.html#aad2be3b48155c6eb508bca4b1af3db97" target="_top" xlink:title="Getter for cgiConnections.">
<polygon fill="white" stroke="#666666" points="549.5,-318 402.5,-318 402.5,-299 549.5,-299 549.5,-318"/>
<text text-anchor="middle" x="476" y="-306" font-family="Helvetica,sans-Serif" font-size="10.00">Server::getCGIConnections</text>
</a>
</g>
</g>
<!-- Node3&#45;&gt;Node6 -->
<g id="edge5_Node000003_Node000006" class="edge">
<title>Node3&#45;&gt;Node6</title>
<g id="a_edge5_Node000003_Node000006"><a xlink:title=" ">
<path fill="none" stroke="#63b8ff" d="M320.57,-281.03C348.24,-285.95 382.2,-291.99 411.21,-297.15"/>
<polygon fill="#63b8ff" stroke="#63b8ff" points="410.8,-300.63 421.26,-298.94 412.02,-293.74 410.8,-300.63"/>
</a>
</g>
</g>
<!-- Node7 -->
<g id="Node000007" class="node">
<title>Node7</title>
<g id="a_Node000007"><a xlink:href="class_server.html#a1f8929bed093f869374cb81da4d97505" target="_top" xlink:title="Const Getter for connections.">
<polygon fill="white" stroke="#666666" points="541,-281 411,-281 411,-262 541,-262 541,-281"/>
<text text-anchor="middle" x="476" y="-269" font-family="Helvetica,sans-Serif" font-size="10.00">Server::getConnections</text>
</a>
</g>
</g>
<!-- Node3&#45;&gt;Node7 -->
<g id="edge6_Node000003_Node000007" class="edge">
<title>Node3&#45;&gt;Node7</title>
<g id="a_edge6_Node000003_Node000007"><a xlink:title=" ">
<path fill="none" stroke="#63b8ff" d="M352.2,-271.5C368.31,-271.5 385.04,-271.5 400.77,-271.5"/>
<polygon fill="#63b8ff" stroke="#63b8ff" points="400.95,-275 410.95,-271.5 400.95,-268 400.95,-275"/>
</a>
</g>
</g>
<!-- Node8 -->
<g id="Node000008" class="node">
<title>Node8</title>
<g id="a_Node000008"><a xlink:href="class_server.html#a058d2c0df13f61b3e755f412ea56947d" target="_top" xlink:title="Wrapper function to EpollWrapper::getEpollFd.">
<polygon fill="white" stroke="#666666" points="529,-355 423,-355 423,-336 529,-336 529,-355"/>
<text text-anchor="middle" x="476" y="-343" font-family="Helvetica,sans-Serif" font-size="10.00">Server::getEpollFd</text>
</a>
</g>
</g>
<!-- Node3&#45;&gt;Node8 -->
<g id="edge7_Node000003_Node000008" class="edge">
<title>Node3&#45;&gt;Node8</title>
<g id="a_edge7_Node000003_Node000008"><a xlink:title=" ">
<path fill="none" stroke="#63b8ff" d="M332.53,-281.12C339.32,-283.36 345.95,-286.11 352,-289.5 372.3,-300.87 367.68,-316.18 388,-327.5 395.64,-331.75 404.16,-335.01 412.79,-337.49"/>
<polygon fill="#63b8ff" stroke="#63b8ff" points="412,-340.9 422.55,-339.99 413.73,-334.12 412,-340.9"/>
</a>
</g>
</g>
<!-- Node10 -->
<g id="Node000010" class="node">
<title>Node10</title>
<g id="a_Node000010"><a xlink:href="class_server.html#a54745950beb9e321d9a56084501c18e9" target="_top" xlink:title="Const Getter for server configs.">
<polygon fill="white" stroke="#666666" points="544.5,-207 407.5,-207 407.5,-188 544.5,-188 544.5,-207"/>
<text text-anchor="middle" x="476" y="-195" font-family="Helvetica,sans-Serif" font-size="10.00">Server::getServerConfigs</text>
</a>
</g>
</g>
<!-- Node3&#45;&gt;Node10 -->
<g id="edge9_Node000003_Node000010" class="edge">
<title>Node3&#45;&gt;Node10</title>
<g id="a_edge9_Node000003_Node000010"><a xlink:title=" ">
<path fill="none" stroke="#63b8ff" d="M284.52,-261.83C307.6,-249.46 349.75,-228.12 388,-215.5 394.85,-213.24 402.1,-211.21 409.37,-209.39"/>
<polygon fill="#63b8ff" stroke="#63b8ff" points="410.34,-212.76 419.27,-207.05 408.73,-205.94 410.34,-212.76"/>
</a>
</g>
</g>
<!-- Node11 -->
<g id="Node000011" class="node">
<title>Node11</title>
<g id="a_Node000011"><a xlink:href="_server_8cpp.html#af0fb17fe53a5e9e72824e5df3fba1322" target="_top" xlink:title="Handles the body of the HTTP request.">
<polygon fill="white" stroke="#666666" points="513,-170 439,-170 439,-151 513,-151 513,-170"/>
<text text-anchor="middle" x="476" y="-158" font-family="Helvetica,sans-Serif" font-size="10.00">handleBody</text>
</a>
</g>
</g>
<!-- Node3&#45;&gt;Node11 -->
<g id="edge10_Node000003_Node000011" class="edge">
<title>Node3&#45;&gt;Node11</title>
<g id="a_edge10_Node000003_Node000011"><a xlink:title=" ">
<path fill="none" stroke="#63b8ff" d="M276.34,-261.84C295.41,-242.72 341.03,-200.02 388,-178.5 400.63,-172.71 415.13,-168.77 428.64,-166.09"/>
<polygon fill="#63b8ff" stroke="#63b8ff" points="429.5,-169.49 438.72,-164.28 428.26,-162.6 429.5,-169.49"/>
</a>
</g>
</g>
<!-- Node3&#45;&gt;Node13 -->
<g id="edge20_Node000003_Node000013" class="edge">
<title>Node3&#45;&gt;Node13</title>
<g id="a_edge20_Node000003_Node000013"><a xlink:title=" ">
<path fill="none" stroke="#63b8ff" d="M272.48,-261.68C287.24,-236.33 330.64,-168.78 388,-141.5 456.67,-108.84 545.37,-108.53 605.33,-113.51"/>
<polygon fill="#63b8ff" stroke="#63b8ff" points="605.17,-117.01 615.44,-114.43 605.79,-110.04 605.17,-117.01"/>
</a>
</g>
</g>
<!-- Node18 -->
<g id="Node000018" class="node">
<title>Node18</title>
<g id="a_Node000018"><a xlink:href="_connection_8cpp.html#a354192f8dd87ca049cf8b7e6de9000da" target="_top" xlink:title="Selects the server configuration for a connection.">
<polygon fill="white" stroke="#666666" points="536,-506 416,-506 416,-487 536,-487 536,-506"/>
<text text-anchor="middle" x="476" y="-494" font-family="Helvetica,sans-Serif" font-size="10.00">hasValidServerConfig</text>
</a>
</g>
</g>
<!-- Node3&#45;&gt;Node18 -->
<g id="edge17_Node000003_Node000018" class="edge">
<title>Node3&#45;&gt;Node18</title>
<g id="a_edge17_Node000003_Node000018"><a xlink:title=" ">
<path fill="none" stroke="#63b8ff" d="M340.97,-281.04C344.99,-283.37 348.72,-286.16 352,-289.5 411.02,-349.56 329.84,-414.62 388,-475.5 393.17,-480.91 399.46,-485.02 406.29,-488.14"/>
<polygon fill="#63b8ff" stroke="#63b8ff" points="405.27,-491.5 415.86,-491.81 407.77,-484.96 405.27,-491.5"/>
</a>
</g>
</g>
<!-- Node20 -->
<g id="Node000020" class="node">
<title>Node20</title>
<g id="a_Node000020"><a xlink:href="_server_8cpp.html#a92411155dbfc5d7f43c3f1ac0fe54548" target="_top" xlink:title="Checks if a CGI request is made based on the connection details.">
<polygon fill="white" stroke="#666666" points="523,-429 429,-429 429,-410 523,-410 523,-429"/>
<text text-anchor="middle" x="476" y="-417" font-family="Helvetica,sans-Serif" font-size="10.00">isCGIRequested</text>
</a>
</g>
</g>
<!-- Node3&#45;&gt;Node20 -->
<g id="edge19_Node000003_Node000020" class="edge">
<title>Node3&#45;&gt;Node20</title>
<g id="a_edge19_Node000003_Node000020"><a xlink:title=" ">
<path fill="none" stroke="#63b8ff" d="M339.72,-281.09C344.15,-283.39 348.3,-286.16 352,-289.5 390.81,-324.53 349.1,-366.56 388,-401.5 396.61,-409.23 407.64,-413.98 418.94,-416.83"/>
<polygon fill="#63b8ff" stroke="#63b8ff" points="418.39,-420.28 428.89,-418.87 419.79,-413.43 418.39,-420.28"/>
</a>
</g>
</g>
<!-- Node21 -->
<g id="Node000021" class="node">
<title>Node21</title>
<g id="a_Node000021"><a xlink:href="class_server.html#a34bc61299318fe1918293b1d656ee5f9" target="_top" xlink:title="Wrapper function to RequestParser::parseHeader.">
<polygon fill="white" stroke="#666666" points="534,-244 418,-244 418,-225 534,-225 534,-244"/>
<text text-anchor="middle" x="476" y="-232" font-family="Helvetica,sans-Serif" font-size="10.00">Server::parseHeader</text>
</a>
</g>
</g>
<!-- Node3&#45;&gt;Node21 -->
<g id="edge21_Node000003_Node000021" class="edge">
<title>Node3&#45;&gt;Node21</title>
<g id="a_edge21_Node000003_Node000021"><a xlink:title=" ">
<path fill="none" stroke="#63b8ff" d="M320.57,-261.97C348.24,-257.05 382.2,-251.01 411.21,-245.85"/>
<polygon fill="#63b8ff" stroke="#63b8ff" points="412.02,-249.26 421.26,-244.06 410.8,-242.37 412.02,-249.26"/>
</a>
</g>
</g>
<!-- Node23 -->
<g id="Node000023" class="node">
<title>Node23</title>
<g id="a_Node000023"><a xlink:href="class_server.html#abcfb45414689863da69c2e72ac8fc946" target="_top" xlink:title="Register a CGI file descriptor.">
<polygon fill="white" stroke="#666666" points="564,-466 388,-466 388,-447 564,-447 564,-466"/>
<text text-anchor="middle" x="476" y="-454" font-family="Helvetica,sans-Serif" font-size="10.00">Server::registerCGIFileDescriptor</text>
</a>
</g>
</g>
<!-- Node3&#45;&gt;Node23 -->
<g id="edge24_Node000003_Node000023" class="edge">
<title>Node3&#45;&gt;Node23</title>
<g id="a_edge24_Node000003_Node000023"><a xlink:title=" ">
<path fill="none" stroke="#63b8ff" d="M340.79,-281.22C344.86,-283.51 348.65,-286.24 352,-289.5 400.85,-336.99 339.04,-391.13 388,-438.5 388.97,-439.44 389.97,-440.33 391,-441.18"/>
<polygon fill="#63b8ff" stroke="#63b8ff" points="389.24,-444.21 399.48,-446.93 393.17,-438.42 389.24,-444.21"/>
</a>
</g>
</g>
<!-- Node5 -->
<g id="Node000005" class="node">
<title>Node5</title>
<g id="a_Node000005"><a xlink:href="class_target_resource_handler.html#ac3694cb9b73e3f93b874740194539282" target="_top" xlink:title="Determine target resource based on the request path and handle different file types and statuses acco...">
<polygon fill="white" stroke="#666666" points="738.5,-397.5 608.5,-397.5 608.5,-367.5 738.5,-367.5 738.5,-397.5"/>
<text text-anchor="start" x="616.5" y="-385.5" font-family="Helvetica,sans-Serif" font-size="10.00">TargetResourceHandler</text>
<text text-anchor="middle" x="673.5" y="-374.5" font-family="Helvetica,sans-Serif" font-size="10.00">::execute</text>
</a>
</g>
</g>
<!-- Node4&#45;&gt;Node5 -->
<g id="edge4_Node000004_Node000005" class="edge">
<title>Node4&#45;&gt;Node5</title>
<g id="a_edge4_Node000004_Node000005"><a xlink:title=" ">
<path fill="none" stroke="#63b8ff" d="M549.52,-382.5C565.39,-382.5 582.21,-382.5 598.14,-382.5"/>
<polygon fill="#63b8ff" stroke="#63b8ff" points="598.47,-386 608.47,-382.5 598.47,-379 598.47,-386"/>
</a>
</g>
</g>
<!-- Node9 -->
<g id="Node000009" class="node">
<title>Node9</title>
<g id="a_Node000009"><a xlink:href="class_epoll_wrapper.html#af9b96396ae751ae1189a2c1f9da64ae0" target="_top" xlink:title="Getter for epoll file descriptor.">
<polygon fill="white" stroke="#666666" points="743.5,-349 603.5,-349 603.5,-330 743.5,-330 743.5,-349"/>
<text text-anchor="middle" x="673.5" y="-337" font-family="Helvetica,sans-Serif" font-size="10.00">EpollWrapper::getEpollFd</text>
</a>
</g>
</g>
<!-- Node8&#45;&gt;Node9 -->
<g id="edge8_Node000008_Node000009" class="edge">
<title>Node8&#45;&gt;Node9</title>
<g id="a_edge8_Node000008_Node000009"><a xlink:title=" ">
<path fill="none" stroke="#63b8ff" d="M529.13,-343.9C548.76,-343.3 571.55,-342.6 593.11,-341.94"/>
<polygon fill="#63b8ff" stroke="#63b8ff" points="593.35,-345.43 603.24,-341.63 593.13,-338.43 593.35,-345.43"/>
</a>
</g>
</g>
<!-- Node12 -->
<g id="Node000012" class="node">
<title>Node12</title>
<g id="a_Node000012"><a xlink:href="_server_8cpp.html#a14a0c5a1227276017a19d9b52141c13a" target="_top" xlink:title="Checks if the HTTP request body has been completely received.">
<polygon fill="white" stroke="#666666" points="722,-169 625,-169 625,-150 722,-150 722,-169"/>
<text text-anchor="middle" x="673.5" y="-157" font-family="Helvetica,sans-Serif" font-size="10.00">isCompleteBody</text>
</a>
</g>
</g>
<!-- Node11&#45;&gt;Node12 -->
<g id="edge11_Node000011_Node000012" class="edge">
<title>Node11&#45;&gt;Node12</title>
<g id="a_edge11_Node000011_Node000012"><a xlink:title=" ">
<path fill="none" stroke="#63b8ff" d="M513.31,-160.31C541.71,-160.17 581.74,-159.96 614.56,-159.8"/>
<polygon fill="#63b8ff" stroke="#63b8ff" points="614.95,-163.29 624.93,-159.74 614.91,-156.29 614.95,-163.29"/>
</a>
</g>
</g>
<!-- Node11&#45;&gt;Node13 -->
<g id="edge12_Node000011_Node000013" class="edge">
<title>Node11&#45;&gt;Node13</title>
<g id="a_edge12_Node000011_Node000013"><a xlink:title=" ">
<path fill="none" stroke="#63b8ff" d="M513.31,-153.44C541.43,-147.98 580.96,-140.29 613.59,-133.95"/>
<polygon fill="#63b8ff" stroke="#63b8ff" points="614.33,-137.37 623.48,-132.03 612.99,-130.5 614.33,-137.37"/>
</a>
</g>
</g>
<!-- Node15 -->
<g id="Node000015" class="node">
<title>Node15</title>
<g id="a_Node000015"><a xlink:href="class_server.html#ace46f4e07ab67db60e3790a32b2e8e0a" target="_top" xlink:title="Wrapper function to RequestParser::parseBody.">
<polygon fill="white" stroke="#666666" points="726.5,-206 620.5,-206 620.5,-187 726.5,-187 726.5,-206"/>
<text text-anchor="middle" x="673.5" y="-194" font-family="Helvetica,sans-Serif" font-size="10.00">Server::parseBody</text>
</a>
</g>
</g>
<!-- Node11&#45;&gt;Node15 -->
<g id="edge14_Node000011_Node000015" class="edge">
<title>Node11&#45;&gt;Node15</title>
<g id="a_edge14_Node000011_Node000015"><a xlink:title=" ">
<path fill="none" stroke="#63b8ff" d="M513.31,-167.19C540.62,-172.21 578.67,-179.22 610.73,-185.12"/>
<polygon fill="#63b8ff" stroke="#63b8ff" points="610.43,-188.63 620.9,-187 611.7,-181.75 610.43,-188.63"/>
</a>
</g>
</g>
<!-- Node14 -->
<g id="Node000014" class="node">
<title>Node14</title>
<g id="a_Node000014"><a xlink:href="class_epoll_wrapper.html#ac97945725185999837a6d0d53f91df1a" target="_top" xlink:title="Modify an event in the epoll instance.">
<polygon fill="white" stroke="#666666" points="935,-132 786,-132 786,-113 935,-113 935,-132"/>
<text text-anchor="middle" x="860.5" y="-120" font-family="Helvetica,sans-Serif" font-size="10.00">EpollWrapper::modifyEvent</text>
</a>
</g>
</g>
<!-- Node13&#45;&gt;Node14 -->
<g id="edge13_Node000013_Node000014" class="edge">
<title>Node13&#45;&gt;Node14</title>
<g id="a_edge13_Node000013_Node000014"><a xlink:title=" ">
<path fill="none" stroke="#63b8ff" d="M731.52,-122.5C745.49,-122.5 760.74,-122.5 775.68,-122.5"/>
<polygon fill="#63b8ff" stroke="#63b8ff" points="775.96,-126 785.96,-122.5 775.96,-119 775.96,-126"/>
</a>
</g>
</g>
<!-- Node16 -->
<g id="Node000016" class="node">
<title>Node16</title>
<g id="a_Node000016"><a xlink:href="class_request_parser.html#a5111f16124d227775d963e6ca24ddca0" target="_top" xlink:title="Parses the body of an HTTP request.">
<polygon fill="white" stroke="#666666" points="932.5,-206 788.5,-206 788.5,-187 932.5,-187 932.5,-206"/>
<text text-anchor="middle" x="860.5" y="-194" font-family="Helvetica,sans-Serif" font-size="10.00">RequestParser::parseBody</text>
</a>
</g>
</g>
<!-- Node15&#45;&gt;Node16 -->
<g id="edge15_Node000015_Node000016" class="edge">
<title>Node15&#45;&gt;Node16</title>
<g id="a_edge15_Node000015_Node000016"><a xlink:title=" ">
<path fill="none" stroke="#63b8ff" d="M726.53,-196.5C742.52,-196.5 760.52,-196.5 777.99,-196.5"/>
<polygon fill="#63b8ff" stroke="#63b8ff" points="778.2,-200 788.2,-196.5 778.2,-193 778.2,-200"/>
</a>
</g>
</g>
<!-- Node17 -->
<g id="Node000017" class="node">
<title>Node17</title>
<g id="a_Node000017"><a xlink:href="class_request_parser.html#ad8e0fc22eb113d78140e257f002df666" target="_top" xlink:title="Clears the contents of the RequestParser object.">
<polygon fill="white" stroke="#666666" points="1131,-229.5 974,-229.5 974,-199.5 1131,-199.5 1131,-229.5"/>
<text text-anchor="start" x="982" y="-217.5" font-family="Helvetica,sans-Serif" font-size="10.00">RequestParser::resetRequest</text>
<text text-anchor="middle" x="1052.5" y="-206.5" font-family="Helvetica,sans-Serif" font-size="10.00">Stream</text>
</a>
</g>
</g>
<!-- Node16&#45;&gt;Node17 -->
<g id="edge16_Node000016_Node000017" class="edge">
<title>Node16&#45;&gt;Node17</title>
<g id="a_edge16_Node000016_Node000017"><a xlink:title=" ">
<path fill="none" stroke="#63b8ff" d="M932.52,-203.23C942.74,-204.2 953.36,-205.2 963.86,-206.2"/>
<polygon fill="#63b8ff" stroke="#63b8ff" points="963.59,-209.69 973.88,-207.15 964.25,-202.72 963.59,-209.69"/>
</a>
</g>
</g>
<!-- Node19 -->
<g id="Node000019" class="node">
<title>Node19</title>
<g id="a_Node000019"><a xlink:href="_connection_8cpp.html#af96f533f342bd6cf42899f3c9fd30a99" target="_top" xlink:title="Find matching server configurations for a server socket.">
<polygon fill="white" stroke="#666666" points="747,-509 600,-509 600,-490 747,-490 747,-509"/>
<text text-anchor="middle" x="673.5" y="-497" font-family="Helvetica,sans-Serif" font-size="10.00">findMatchingServerConfigs</text>
</a>
</g>
</g>
<!-- Node18&#45;&gt;Node19 -->
<g id="edge18_Node000018_Node000019" class="edge">
<title>Node18&#45;&gt;Node19</title>
<g id="a_edge18_Node000018_Node000019"><a xlink:title=" ">
<path fill="none" stroke="#63b8ff" d="M536.19,-497.41C552.99,-497.67 571.6,-497.95 589.53,-498.23"/>
<polygon fill="#63b8ff" stroke="#63b8ff" points="589.64,-501.73 599.7,-498.38 589.75,-494.73 589.64,-501.73"/>
</a>
</g>
</g>
<!-- Node22 -->
<g id="Node000022" class="node">
<title>Node22</title>
<g id="a_Node000022"><a xlink:href="class_request_parser.html#a933b43673d0b7b99d6cc310f5c03a865" target="_top" xlink:title="Parses the header of an HTTP request.">
<polygon fill="white" stroke="#666666" points="938,-243 783,-243 783,-224 938,-224 938,-243"/>
<text text-anchor="middle" x="860.5" y="-231" font-family="Helvetica,sans-Serif" font-size="10.00">RequestParser::parseHeader</text>
</a>
</g>
</g>
<!-- Node21&#45;&gt;Node22 -->
<g id="edge22_Node000021_Node000022" class="edge">
<title>Node21&#45;&gt;Node22</title>
<g id="a_edge22_Node000021_Node000022"><a xlink:title=" ">
<path fill="none" stroke="#63b8ff" d="M534.26,-234.35C597.36,-234.19 699.56,-233.92 772.56,-233.73"/>
<polygon fill="#63b8ff" stroke="#63b8ff" points="772.66,-237.23 782.65,-233.7 772.65,-230.23 772.66,-237.23"/>
</a>
</g>
</g>
<!-- Node22&#45;&gt;Node17 -->
<g id="edge23_Node000022_Node000017" class="edge">
<title>Node22&#45;&gt;Node17</title>
<g id="a_edge23_Node000022_Node000017"><a xlink:title=" ">
<path fill="none" stroke="#63b8ff" d="M938.23,-225.83C946.67,-224.98 955.31,-224.12 963.87,-223.26"/>
<polygon fill="#63b8ff" stroke="#63b8ff" points="964.26,-226.74 973.86,-222.26 963.56,-219.78 964.26,-226.74"/>
</a>
</g>
</g>
<!-- Node24 -->
<g id="Node000024" class="node">
<title>Node24</title>
<g id="a_Node000024"><a xlink:href="class_epoll_wrapper.html#ace2a6009a6c647babfc667c27df05354" target="_top" xlink:title="Add an event to the epoll instance.">
<polygon fill="white" stroke="#666666" points="740.5,-435 606.5,-435 606.5,-416 740.5,-416 740.5,-435"/>
<text text-anchor="middle" x="673.5" y="-423" font-family="Helvetica,sans-Serif" font-size="10.00">EpollWrapper::addEvent</text>
</a>
</g>
</g>
<!-- Node23&#45;&gt;Node24 -->
<g id="edge25_Node000023_Node000024" class="edge">
<title>Node23&#45;&gt;Node24</title>
<g id="a_edge25_Node000023_Node000024"><a xlink:title=" ">
<path fill="none" stroke="#63b8ff" d="M536.99,-446.99C557.62,-443.72 580.92,-440.02 602.3,-436.63"/>
<polygon fill="#63b8ff" stroke="#63b8ff" points="602.96,-440.07 612.29,-435.05 601.87,-433.16 602.96,-440.07"/>
</a>
</g>
</g>
<!-- Node25 -->
<g id="Node000025" class="node">
<title>Node25</title>
<g id="a_Node000025"><a xlink:href="namespacewebutils.html#ad74875f464c74bd45589002fc385605e" target="_top" xlink:title=" ">
<polygon fill="white" stroke="#666666" points="724,-472 623,-472 623,-453 724,-453 724,-472"/>
<text text-anchor="middle" x="673.5" y="-460" font-family="Helvetica,sans-Serif" font-size="10.00">webutils::closeFd</text>
</a>
</g>
</g>
<!-- Node23&#45;&gt;Node25 -->
<g id="edge26_Node000023_Node000025" class="edge">
<title>Node23&#45;&gt;Node25</title>
<g id="a_edge26_Node000023_Node000025"><a xlink:title=" ">
<path fill="none" stroke="#63b8ff" d="M564.17,-459.18C580.55,-459.68 597.33,-460.19 612.65,-460.66"/>
<polygon fill="#63b8ff" stroke="#63b8ff" points="612.89,-464.17 622.99,-460.98 613.1,-457.18 612.89,-464.17"/>
</a>
</g>
</g>
<!-- Node28 -->
<g id="Node000028" class="node">
<title>Node28</title>
<g id="a_Node000028"><a xlink:href="class_socket_policy.html#a6f6c04c36c6be0d95b1d3e4a872ea7ca" target="_top" xlink:title="Read from a socket.">
<polygon fill="white" stroke="#666666" points="557,-19 395,-19 395,0 557,0 557,-19"/>
<text text-anchor="middle" x="476" y="-7" font-family="Helvetica,sans-Serif" font-size="10.00">SocketPolicy::readFromSocket</text>
</a>
</g>
</g>
<!-- Node27&#45;&gt;Node28 -->
<g id="edge30_Node000027_Node000028" class="edge">
<title>Node27&#45;&gt;Node28</title>
<g id="a_edge30_Node000027_Node000028"><a xlink:title=" ">
<path fill="none" stroke="#63b8ff" d="M332.53,-9.5C349.05,-9.5 367.08,-9.5 384.59,-9.5"/>
<polygon fill="#63b8ff" stroke="#63b8ff" points="384.83,-13 394.83,-9.5 384.83,-6 384.83,-13"/>
</a>
</g>
</g>
</g>
</svg>
