<?xml version="1.0" encoding="UTF-8" standalone="no"?>
<!DOCTYPE svg PUBLIC "-//W3C//DTD SVG 1.1//EN"
 "http://www.w3.org/Graphics/SVG/1.1/DTD/svg11.dtd">
<!-- Generated by graphviz version 2.43.0 (0)
 -->
<!-- Title: handleEvent Pages: 1 -->
<svg width="1884pt" height="495pt"
 viewBox="0.00 0.00 1884.00 495.00" xmlns="http://www.w3.org/2000/svg" xmlns:xlink="http://www.w3.org/1999/xlink">
<g id="graph0" class="graph" transform="scale(1 1) rotate(0) translate(4 491)">
<title>handleEvent</title>
<!-- Node1 -->
<g id="node1" class="node">
<title>Node1</title>
<g id="a_node1"><a xlink:title="Accepts new connections or handles existing ones.">
<polygon fill="#bfbfbf" stroke="black" points="0,-351.5 0,-370.5 77,-370.5 77,-351.5 0,-351.5"/>
<text text-anchor="middle" x="38.5" y="-358.5" font-family="Helvetica,sans-Serif" font-size="10.00">handleEvent</text>
</a>
</g>
</g>
<!-- Node2 -->
<g id="node2" class="node">
<title>Node2</title>
<g id="a_node2"><a xlink:href="_server_8cpp.html#adb579f3d67061d752e882e6fb3ef6f18" target="_top" xlink:title="Accept new connections.">
<polygon fill="none" stroke="black" points="128,-413.5 128,-432.5 237,-432.5 237,-413.5 128,-413.5"/>
<text text-anchor="middle" x="182.5" y="-420.5" font-family="Helvetica,sans-Serif" font-size="10.00">acceptConnections</text>
</a>
</g>
</g>
<!-- Node1&#45;&gt;Node2 -->
<g id="edge1" class="edge">
<title>Node1&#45;&gt;Node2</title>
<path fill="none" stroke="midnightblue" d="M56.4,-370.6C71.09,-378.73 93.08,-390.41 113,-399 122.19,-402.96 132.27,-406.78 141.8,-410.15"/>
<polygon fill="midnightblue" stroke="midnightblue" points="140.89,-413.54 151.48,-413.5 143.17,-406.92 140.89,-413.54"/>
</g>
<!-- Node9 -->
<g id="node9" class="node">
<title>Node9</title>
<g id="a_node9"><a xlink:href="class_server.html#aab1a7e57f49a0c7b7f1cea147d8bf9aa" target="_top" xlink:title="Getter for connections.">
<polygon fill="none" stroke="black" points="117.5,-370.5 117.5,-389.5 247.5,-389.5 247.5,-370.5 117.5,-370.5"/>
<text text-anchor="middle" x="182.5" y="-377.5" font-family="Helvetica,sans-Serif" font-size="10.00">Server::getConnections</text>
</a>
</g>
</g>
<!-- Node1&#45;&gt;Node9 -->
<g id="edge8" class="edge">
<title>Node1&#45;&gt;Node9</title>
<path fill="none" stroke="midnightblue" d="M77.18,-366.04C86.52,-367.29 96.85,-368.67 107.28,-370.07"/>
<polygon fill="midnightblue" stroke="midnightblue" points="106.9,-373.55 117.28,-371.41 107.83,-366.61 106.9,-373.55"/>
</g>
<!-- Node10 -->
<g id="node10" class="node">
<title>Node10</title>
<g id="a_node10"><a xlink:href="class_server.html#a878b0cc2f9bc228dd12b250d95d61a75" target="_top" xlink:title="Const Getter for virtual servers.">
<polygon fill="none" stroke="black" points="113,-332.5 113,-351.5 252,-351.5 252,-332.5 113,-332.5"/>
<text text-anchor="middle" x="182.5" y="-339.5" font-family="Helvetica,sans-Serif" font-size="10.00">Server::getVirtualServers</text>
</a>
</g>
</g>
<!-- Node1&#45;&gt;Node10 -->
<g id="edge9" class="edge">
<title>Node1&#45;&gt;Node10</title>
<path fill="none" stroke="midnightblue" d="M77.18,-355.96C85.18,-354.89 93.91,-353.72 102.8,-352.53"/>
<polygon fill="midnightblue" stroke="midnightblue" points="103.43,-355.98 112.88,-351.18 102.5,-349.04 103.43,-355.98"/>
</g>
<!-- Node11 -->
<g id="node11" class="node">
<title>Node11</title>
<g id="a_node11"><a xlink:href="_server_8cpp.html#a581dddd40d3728b6d22216003e2065b5" target="_top" xlink:title="Handle a client connection.">
<polygon fill="none" stroke="black" points="130.5,-285.5 130.5,-304.5 234.5,-304.5 234.5,-285.5 130.5,-285.5"/>
<text text-anchor="middle" x="182.5" y="-292.5" font-family="Helvetica,sans-Serif" font-size="10.00">handleConnection</text>
</a>
</g>
</g>
<!-- Node1&#45;&gt;Node11 -->
<g id="edge10" class="edge">
<title>Node1&#45;&gt;Node11</title>
<path fill="none" stroke="midnightblue" d="M56.81,-351.5C71.57,-343.53 93.44,-332.03 113,-323 124.01,-317.92 136.21,-312.78 147.22,-308.31"/>
<polygon fill="midnightblue" stroke="midnightblue" points="148.56,-311.55 156.54,-304.58 145.96,-305.05 148.56,-311.55"/>
</g>
<!-- Node3 -->
<g id="node3" class="node">
<title>Node3</title>
<g id="a_node3"><a xlink:href="class_server.html#ad8823ad2d9c9a94cfafb40e8e0653865" target="_top" xlink:title="Wrapper function to SocketPolicy::acceptSingleConnection().">
<polygon fill="none" stroke="black" points="288,-380.5 288,-399.5 459,-399.5 459,-380.5 288,-380.5"/>
<text text-anchor="middle" x="373.5" y="-387.5" font-family="Helvetica,sans-Serif" font-size="10.00">Server::acceptSingleConnection</text>
</a>
</g>
</g>
<!-- Node2&#45;&gt;Node3 -->
<g id="edge2" class="edge">
<title>Node2&#45;&gt;Node3</title>
<path fill="none" stroke="midnightblue" d="M237.15,-413.63C259.21,-409.78 284.94,-405.29 308.01,-401.26"/>
<polygon fill="midnightblue" stroke="midnightblue" points="308.81,-404.67 318.06,-399.51 307.6,-397.78 308.81,-404.67"/>
</g>
<!-- Node5 -->
<g id="node5" class="node">
<title>Node5</title>
<g id="a_node5"><a xlink:href="class_server.html#ac145e9f668db85b10a66829bd2677746" target="_top" xlink:title="Register a connection.">
<polygon fill="none" stroke="black" points="300.5,-456.5 300.5,-475.5 446.5,-475.5 446.5,-456.5 300.5,-456.5"/>
<text text-anchor="middle" x="373.5" y="-463.5" font-family="Helvetica,sans-Serif" font-size="10.00">Server::registerConnection</text>
</a>
</g>
</g>
<!-- Node2&#45;&gt;Node5 -->
<g id="edge4" class="edge">
<title>Node2&#45;&gt;Node5</title>
<path fill="none" stroke="midnightblue" d="M224.69,-432.5C243.92,-436.93 267.13,-442.26 288,-447 298.33,-449.35 309.38,-451.84 319.97,-454.23"/>
<polygon fill="midnightblue" stroke="midnightblue" points="319.41,-457.69 329.94,-456.47 320.95,-450.86 319.41,-457.69"/>
</g>
<!-- Node7 -->
<g id="node7" class="node">
<title>Node7</title>
<g id="a_node7"><a xlink:href="class_server.html#a4915bdc5e654a3319fddc120c8656019" target="_top" xlink:title="Wrapper function to SocketPolicy::retrieveSocketInfo.">
<polygon fill="none" stroke="black" points="302,-418.5 302,-437.5 445,-437.5 445,-418.5 302,-418.5"/>
<text text-anchor="middle" x="373.5" y="-425.5" font-family="Helvetica,sans-Serif" font-size="10.00">Server::retrieveSocketInfo</text>
</a>
</g>
</g>
<!-- Node2&#45;&gt;Node7 -->
<g id="edge6" class="edge">
<title>Node2&#45;&gt;Node7</title>
<path fill="none" stroke="midnightblue" d="M237.15,-424.42C254.1,-424.87 273.21,-425.37 291.62,-425.86"/>
<polygon fill="midnightblue" stroke="midnightblue" points="291.66,-429.36 301.75,-426.13 291.85,-422.37 291.66,-429.36"/>
</g>
<!-- Node4 -->
<g id="node4" class="node">
<title>Node4</title>
<g id="a_node4"><a xlink:href="class_socket_policy.html#a63228ebffc41e3739677715bcd43a477" target="_top" xlink:title="Accept a connection on a socket.">
<polygon fill="none" stroke="black" points="508.5,-369 508.5,-399 654.5,-399 654.5,-369 508.5,-369"/>
<text text-anchor="start" x="516.5" y="-387" font-family="Helvetica,sans-Serif" font-size="10.00">SocketPolicy::acceptSingle</text>
<text text-anchor="middle" x="581.5" y="-376" font-family="Helvetica,sans-Serif" font-size="10.00">Connection</text>
</a>
</g>
</g>
<!-- Node3&#45;&gt;Node4 -->
<g id="edge3" class="edge">
<title>Node3&#45;&gt;Node4</title>
<path fill="none" stroke="midnightblue" d="M459.18,-387.53C472.05,-387.16 485.32,-386.77 498.14,-386.4"/>
<polygon fill="midnightblue" stroke="midnightblue" points="498.42,-389.89 508.31,-386.1 498.21,-382.9 498.42,-389.89"/>
</g>
<!-- Node6 -->
<g id="node6" class="node">
<title>Node6</title>
<g id="a_node6"><a xlink:href="class_epoll_wrapper.html#ace2a6009a6c647babfc667c27df05354" target="_top" xlink:title="Add an event to the epoll instance.">
<polygon fill="none" stroke="black" points="514.5,-456.5 514.5,-475.5 648.5,-475.5 648.5,-456.5 514.5,-456.5"/>
<text text-anchor="middle" x="581.5" y="-463.5" font-family="Helvetica,sans-Serif" font-size="10.00">EpollWrapper::addEvent</text>
</a>
</g>
</g>
<!-- Node5&#45;&gt;Node6 -->
<g id="edge5" class="edge">
<title>Node5&#45;&gt;Node6</title>
<path fill="none" stroke="midnightblue" d="M446.55,-466C465.24,-466 485.42,-466 504.31,-466"/>
<polygon fill="midnightblue" stroke="midnightblue" points="504.36,-469.5 514.35,-466 504.35,-462.5 504.36,-469.5"/>
</g>
<!-- Node8 -->
<g id="node8" class="node">
<title>Node8</title>
<g id="a_node8"><a xlink:href="class_socket_policy.html#ac4dedf41caea77a2d8f9c4009b2d7c16" target="_top" xlink:title="Retrieve socket information.">
<polygon fill="none" stroke="black" points="495,-418.5 495,-437.5 668,-437.5 668,-418.5 495,-418.5"/>
<text text-anchor="middle" x="581.5" y="-425.5" font-family="Helvetica,sans-Serif" font-size="10.00">SocketPolicy::retrieveSocketInfo</text>
</a>
</g>
</g>
<!-- Node7&#45;&gt;Node8 -->
<g id="edge7" class="edge">
<title>Node7&#45;&gt;Node8</title>
<path fill="none" stroke="midnightblue" d="M445.11,-428C457.82,-428 471.27,-428 484.56,-428"/>
<polygon fill="midnightblue" stroke="midnightblue" points="484.68,-431.5 494.68,-428 484.68,-424.5 484.68,-431.5"/>
</g>
<!-- Node12 -->
<g id="node12" class="node">
<title>Node12</title>
<g id="a_node12"><a xlink:href="_server_8cpp.html#ac98878a19797a7f939c3a5ea1e028e56" target="_top" xlink:title="Builds the response for a client connection.">
<polygon fill="none" stroke="black" points="510.5,-307.5 510.5,-326.5 652.5,-326.5 652.5,-307.5 510.5,-307.5"/>
<text text-anchor="middle" x="581.5" y="-314.5" font-family="Helvetica,sans-Serif" font-size="10.00">connectionBuildResponse</text>
</a>
</g>
</g>
<!-- Node11&#45;&gt;Node12 -->
<g id="edge11" class="edge">
<title>Node11&#45;&gt;Node12</title>
<path fill="none" stroke="midnightblue" d="M206.85,-304.57C232.49,-314.88 272.13,-330.2 288,-333 367.78,-347.06 461.52,-337.43 520.96,-328.14"/>
<polygon fill="midnightblue" stroke="midnightblue" points="521.61,-331.58 530.92,-326.54 520.49,-324.67 521.61,-331.58"/>
</g>
<!-- Node26 -->
<g id="node26" class="node">
<title>Node26</title>
<g id="a_node26"><a xlink:href="_server_8cpp.html#adcf8118ac987f6afae3aec0c54cc5f9f" target="_top" xlink:title="Sends the response to a client connection.">
<polygon fill="none" stroke="black" points="714.5,-266.5 714.5,-285.5 855.5,-285.5 855.5,-266.5 714.5,-266.5"/>
<text text-anchor="middle" x="785" y="-273.5" font-family="Helvetica,sans-Serif" font-size="10.00">connectionSendResponse</text>
</a>
</g>
</g>
<!-- Node11&#45;&gt;Node26 -->
<g id="edge50" class="edge">
<title>Node11&#45;&gt;Node26</title>
<path fill="none" stroke="midnightblue" d="M234.7,-293.38C339.39,-290.07 578.63,-282.5 704.01,-278.53"/>
<polygon fill="midnightblue" stroke="midnightblue" points="704.42,-282.02 714.3,-278.21 704.2,-275.02 704.42,-282.02"/>
</g>
<!-- Node34 -->
<g id="node34" class="node">
<title>Node34</title>
<g id="a_node34"><a xlink:href="_server_8cpp.html#abb21ebec72f9526fbba446f7d566117e" target="_top" xlink:title="Handles a timeout for a client connection.">
<polygon fill="none" stroke="black" points="301,-304.5 301,-323.5 446,-323.5 446,-304.5 301,-304.5"/>
<text text-anchor="middle" x="373.5" y="-311.5" font-family="Helvetica,sans-Serif" font-size="10.00">connectionHandleTimeout</text>
</a>
</g>
</g>
<!-- Node11&#45;&gt;Node34 -->
<g id="edge33" class="edge">
<title>Node11&#45;&gt;Node34</title>
<path fill="none" stroke="midnightblue" d="M234.65,-300.14C251.88,-301.87 271.58,-303.85 290.58,-305.76"/>
<polygon fill="midnightblue" stroke="midnightblue" points="290.44,-309.27 300.74,-306.79 291.14,-302.3 290.44,-309.27"/>
</g>
<!-- Node35 -->
<g id="node35" class="node">
<title>Node35</title>
<g id="a_node35"><a xlink:href="_server_8cpp.html#a3f930db051b00ade521e2633cee948bd" target="_top" xlink:title="Receives the body of a connection.">
<polygon fill="none" stroke="black" points="306.5,-190.5 306.5,-209.5 440.5,-209.5 440.5,-190.5 306.5,-190.5"/>
<text text-anchor="middle" x="373.5" y="-197.5" font-family="Helvetica,sans-Serif" font-size="10.00">connectionReceiveBody</text>
</a>
</g>
</g>
<!-- Node11&#45;&gt;Node35 -->
<g id="edge35" class="edge">
<title>Node11&#45;&gt;Node35</title>
<path fill="none" stroke="midnightblue" d="M202.66,-285.37C236.14,-268.54 305.43,-233.71 344.36,-214.14"/>
<polygon fill="midnightblue" stroke="midnightblue" points="346.2,-217.13 353.57,-209.52 343.06,-210.88 346.2,-217.13"/>
</g>
<!-- Node42 -->
<g id="node42" class="node">
<title>Node42</title>
<g id="a_node42"><a xlink:href="_server_8cpp.html#a06d0cb066f08d5567ea6ba4ef2897927" target="_top" xlink:title="Receive request header from a client.">
<polygon fill="none" stroke="black" points="301.5,-76.5 301.5,-95.5 445.5,-95.5 445.5,-76.5 301.5,-76.5"/>
<text text-anchor="middle" x="373.5" y="-83.5" font-family="Helvetica,sans-Serif" font-size="10.00">connectionReceiveHeader</text>
</a>
</g>
</g>
<!-- Node11&#45;&gt;Node42 -->
<g id="edge43" class="edge">
<title>Node11&#45;&gt;Node42</title>
<path fill="none" stroke="midnightblue" d="M192.11,-285.48C221.63,-252.84 318.99,-145.18 357.05,-103.08"/>
<polygon fill="midnightblue" stroke="midnightblue" points="359.73,-105.34 363.84,-95.58 354.53,-100.65 359.73,-105.34"/>
</g>
<!-- Node13 -->
<g id="node13" class="node">
<title>Node13</title>
<g id="a_node13"><a xlink:href="class_server.html#a54550078a1a4dfdc827a1f39c01ca4e4" target="_top" xlink:title="Wrapper function to ResponseBuilder::buildResponse.">
<polygon fill="none" stroke="black" points="722.5,-345.5 722.5,-364.5 847.5,-364.5 847.5,-345.5 722.5,-345.5"/>
<text text-anchor="middle" x="785" y="-352.5" font-family="Helvetica,sans-Serif" font-size="10.00">Server::buildResponse</text>
</a>
</g>
</g>
<!-- Node12&#45;&gt;Node13 -->
<g id="edge12" class="edge">
<title>Node12&#45;&gt;Node13</title>
<path fill="none" stroke="midnightblue" d="M633.09,-326.54C660.51,-331.71 694.6,-338.14 723.43,-343.58"/>
<polygon fill="midnightblue" stroke="midnightblue" points="722.92,-347.04 733.39,-345.46 724.21,-340.16 722.92,-347.04"/>
</g>
<!-- Node12&#45;&gt;Node26 -->
<g id="edge25" class="edge">
<title>Node12&#45;&gt;Node26</title>
<path fill="none" stroke="midnightblue" d="M629.23,-307.49C658.38,-301.56 696.08,-293.89 726.98,-287.6"/>
<polygon fill="midnightblue" stroke="midnightblue" points="728.07,-290.95 737.17,-285.53 726.67,-284.09 728.07,-290.95"/>
</g>
<!-- Node32 -->
<g id="node32" class="node">
<title>Node32</title>
<g id="a_node32"><a xlink:href="class_server.html#a718bf76e7c3f830abb2f7b0972cdaa63" target="_top" xlink:title="Wrapper function to ResponseBuilder::getResponse.">
<polygon fill="none" stroke="black" points="726.5,-307.5 726.5,-326.5 843.5,-326.5 843.5,-307.5 726.5,-307.5"/>
<text text-anchor="middle" x="785" y="-314.5" font-family="Helvetica,sans-Serif" font-size="10.00">Server::getResponse</text>
</a>
</g>
</g>
<!-- Node12&#45;&gt;Node32 -->
<g id="edge31" class="edge">
<title>Node12&#45;&gt;Node32</title>
<path fill="none" stroke="midnightblue" d="M652.69,-317C673.29,-317 695.77,-317 716.22,-317"/>
<polygon fill="midnightblue" stroke="midnightblue" points="716.39,-320.5 726.39,-317 716.39,-313.5 716.39,-320.5"/>
</g>
<!-- Node14 -->
<g id="node14" class="node">
<title>Node14</title>
<g id="a_node14"><a xlink:href="class_response_builder.html#a168279f2329e9055e3aa38f08f67c26f" target="_top" xlink:title="Build the response for a given request.">
<polygon fill="none" stroke="black" points="902,-345.5 902,-364.5 1078,-364.5 1078,-345.5 902,-345.5"/>
<text text-anchor="middle" x="990" y="-352.5" font-family="Helvetica,sans-Serif" font-size="10.00">ResponseBuilder::buildResponse</text>
</a>
</g>
</g>
<!-- Node13&#45;&gt;Node14 -->
<g id="edge13" class="edge">
<title>Node13&#45;&gt;Node14</title>
<path fill="none" stroke="midnightblue" d="M847.73,-355C861.57,-355 876.58,-355 891.47,-355"/>
<polygon fill="midnightblue" stroke="midnightblue" points="891.75,-358.5 901.75,-355 891.75,-351.5 891.75,-358.5"/>
</g>
<!-- Node15 -->
<g id="node15" class="node">
<title>Node15</title>
<g id="a_node15"><a xlink:href="class_response_body_handler.html#a0660b57e440e2c519761817d178818c0" target="_top" xlink:title="Create the response body.">
<polygon fill="none" stroke="black" points="1126,-364 1126,-394 1253,-394 1253,-364 1126,-364"/>
<text text-anchor="start" x="1134" y="-382" font-family="Helvetica,sans-Serif" font-size="10.00">ResponseBodyHandler</text>
<text text-anchor="middle" x="1189.5" y="-371" font-family="Helvetica,sans-Serif" font-size="10.00">::execute</text>
</a>
</g>
</g>
<!-- Node14&#45;&gt;Node15 -->
<g id="edge14" class="edge">
<title>Node14&#45;&gt;Node15</title>
<path fill="none" stroke="midnightblue" d="M1069.34,-364.52C1084.57,-366.37 1100.47,-368.3 1115.51,-370.13"/>
<polygon fill="midnightblue" stroke="midnightblue" points="1115.42,-373.65 1125.77,-371.38 1116.27,-366.7 1115.42,-373.65"/>
</g>
<!-- Node24 -->
<g id="node24" class="node">
<title>Node24</title>
<g id="a_node24"><a xlink:href="class_target_resource_handler.html#a2571a910d63ee660e93a64fccf515306" target="_top" xlink:title="Determine target resource based on the request path and handle different file types and statuses acco...">
<polygon fill="none" stroke="black" points="1124.5,-315 1124.5,-345 1254.5,-345 1254.5,-315 1124.5,-315"/>
<text text-anchor="start" x="1132.5" y="-333" font-family="Helvetica,sans-Serif" font-size="10.00">TargetResourceHandler</text>
<text text-anchor="middle" x="1189.5" y="-322" font-family="Helvetica,sans-Serif" font-size="10.00">::execute</text>
</a>
</g>
</g>
<!-- Node14&#45;&gt;Node24 -->
<g id="edge23" class="edge">
<title>Node14&#45;&gt;Node24</title>
<path fill="none" stroke="midnightblue" d="M1066.23,-345.48C1081.97,-343.49 1098.55,-341.39 1114.26,-339.4"/>
<polygon fill="midnightblue" stroke="midnightblue" points="1114.95,-342.84 1124.43,-338.11 1114.07,-335.89 1114.95,-342.84"/>
</g>
<!-- Node16 -->
<g id="node16" class="node">
<title>Node16</title>
<g id="a_node16"><a xlink:href="class_autoindex_handler.html#a4ad00ccbce16e8913e108e9bf1114c3f" target="_top" xlink:title="Execute the autoindex handler.">
<polygon fill="none" stroke="black" points="1313,-410.5 1313,-429.5 1462,-429.5 1462,-410.5 1313,-410.5"/>
<text text-anchor="middle" x="1387.5" y="-417.5" font-family="Helvetica,sans-Serif" font-size="10.00">AutoindexHandler::execute</text>
</a>
</g>
</g>
<!-- Node15&#45;&gt;Node16 -->
<g id="edge15" class="edge">
<title>Node15&#45;&gt;Node16</title>
<path fill="none" stroke="midnightblue" d="M1253.05,-392.09C1278.05,-397.31 1306.61,-403.29 1330.87,-408.36"/>
<polygon fill="midnightblue" stroke="midnightblue" points="1330.48,-411.86 1340.98,-410.48 1331.91,-405 1330.48,-411.86"/>
</g>
<!-- Node23 -->
<g id="node23" class="node">
<title>Node23</title>
<g id="a_node23"><a xlink:href="class_file_system_policy.html#a700e01137b08674976427c869e078cc9" target="_top" xlink:title="Gets the contents of a file.">
<polygon fill="none" stroke="black" points="1318.5,-361 1318.5,-391 1456.5,-391 1456.5,-361 1318.5,-361"/>
<text text-anchor="start" x="1326.5" y="-379" font-family="Helvetica,sans-Serif" font-size="10.00">FileSystemPolicy::getFile</text>
<text text-anchor="middle" x="1387.5" y="-368" font-family="Helvetica,sans-Serif" font-size="10.00">Contents</text>
</a>
</g>
</g>
<!-- Node15&#45;&gt;Node23 -->
<g id="edge22" class="edge">
<title>Node15&#45;&gt;Node23</title>
<path fill="none" stroke="midnightblue" d="M1253.05,-378.04C1270.64,-377.77 1289.98,-377.48 1308.35,-377.2"/>
<polygon fill="midnightblue" stroke="midnightblue" points="1308.49,-380.69 1318.44,-377.04 1308.38,-373.7 1308.49,-380.69"/>
</g>
<!-- Node17 -->
<g id="node17" class="node">
<title>Node17</title>
<g id="a_node17"><a xlink:href="class_directory.html#a09da8cd603ddb22990c5bb8165e14ea8" target="_top" xlink:title="Get the entries in the directory.">
<polygon fill="none" stroke="black" points="1531,-467.5 1531,-486.5 1647,-486.5 1647,-467.5 1531,-467.5"/>
<text text-anchor="middle" x="1589" y="-474.5" font-family="Helvetica,sans-Serif" font-size="10.00">Directory::getEntries</text>
</a>
</g>
</g>
<!-- Node16&#45;&gt;Node17 -->
<g id="edge16" class="edge">
<title>Node16&#45;&gt;Node17</title>
<path fill="none" stroke="midnightblue" d="M1417.31,-429.58C1441.83,-437.6 1478.06,-449.12 1510,-458 1518.59,-460.39 1527.75,-462.77 1536.66,-464.99"/>
<polygon fill="midnightblue" stroke="midnightblue" points="1536.03,-468.44 1546.58,-467.43 1537.71,-461.64 1536.03,-468.44"/>
</g>
<!-- Node19 -->
<g id="node19" class="node">
<title>Node19</title>
<g id="a_node19"><a xlink:href="_autoindex_handler_8cpp.html#aa1cdc5b5774ab502cc67a723e7634b3f" target="_top" xlink:title="Get the file size of a file.">
<polygon fill="none" stroke="black" points="1554,-429.5 1554,-448.5 1624,-448.5 1624,-429.5 1554,-429.5"/>
<text text-anchor="middle" x="1589" y="-436.5" font-family="Helvetica,sans-Serif" font-size="10.00">getFileSize</text>
</a>
</g>
</g>
<!-- Node16&#45;&gt;Node19 -->
<g id="edge18" class="edge">
<title>Node16&#45;&gt;Node19</title>
<path fill="none" stroke="midnightblue" d="M1462.22,-427.02C1489.58,-429.63 1519.75,-432.5 1543.69,-434.78"/>
<polygon fill="midnightblue" stroke="midnightblue" points="1543.59,-438.29 1553.87,-435.75 1544.25,-431.32 1543.59,-438.29"/>
</g>
<!-- Node20 -->
<g id="node20" class="node">
<title>Node20</title>
<g id="a_node20"><a xlink:href="class_file_system_policy.html#ad2571bc684c5f8db457d8e282729f832" target="_top" xlink:title="Gets the file status of a path.">
<polygon fill="none" stroke="black" points="1510,-391.5 1510,-410.5 1668,-410.5 1668,-391.5 1510,-391.5"/>
<text text-anchor="middle" x="1589" y="-398.5" font-family="Helvetica,sans-Serif" font-size="10.00">FileSystemPolicy::getFileStat</text>
</a>
</g>
</g>
<!-- Node16&#45;&gt;Node20 -->
<g id="edge19" class="edge">
<title>Node16&#45;&gt;Node20</title>
<path fill="none" stroke="midnightblue" d="M1462.22,-412.98C1474.48,-411.81 1487.31,-410.59 1499.88,-409.39"/>
<polygon fill="midnightblue" stroke="midnightblue" points="1500.28,-412.87 1509.9,-408.44 1499.61,-405.9 1500.28,-412.87"/>
</g>
<!-- Node21 -->
<g id="node21" class="node">
<title>Node21</title>
<g id="a_node21"><a xlink:href="_autoindex_handler_8cpp.html#a1ca36f6cd35dba3c07da2bc0e3380cf1" target="_top" xlink:title="Get the last modified time of a file.">
<polygon fill="none" stroke="black" points="1529.5,-353.5 1529.5,-372.5 1648.5,-372.5 1648.5,-353.5 1529.5,-353.5"/>
<text text-anchor="middle" x="1589" y="-360.5" font-family="Helvetica,sans-Serif" font-size="10.00">getLastModifiedTime</text>
</a>
</g>
</g>
<!-- Node16&#45;&gt;Node21 -->
<g id="edge20" class="edge">
<title>Node16&#45;&gt;Node21</title>
<path fill="none" stroke="midnightblue" d="M1438.36,-410.41C1450.2,-407.56 1462.67,-404.09 1474,-400 1490.82,-393.92 1493.2,-388.16 1510,-382 1516.84,-379.49 1524.13,-377.22 1531.42,-375.19"/>
<polygon fill="midnightblue" stroke="midnightblue" points="1532.53,-378.51 1541.29,-372.56 1530.73,-371.75 1532.53,-378.51"/>
</g>
<!-- Node18 -->
<g id="node18" class="node">
<title>Node18</title>
<g id="a_node18"><a xlink:href="class_file_system_policy.html#ad23fadf21355a78cce6e905f61611469" target="_top" xlink:title="Reads a directory.">
<polygon fill="none" stroke="black" points="1704,-467.5 1704,-486.5 1876,-486.5 1876,-467.5 1704,-467.5"/>
<text text-anchor="middle" x="1790" y="-474.5" font-family="Helvetica,sans-Serif" font-size="10.00">FileSystemPolicy::readDirectory</text>
</a>
</g>
</g>
<!-- Node17&#45;&gt;Node18 -->
<g id="edge17" class="edge">
<title>Node17&#45;&gt;Node18</title>
<path fill="none" stroke="midnightblue" d="M1647.03,-477C1661.53,-477 1677.53,-477 1693.39,-477"/>
<polygon fill="midnightblue" stroke="midnightblue" points="1693.77,-480.5 1703.77,-477 1693.77,-473.5 1693.77,-480.5"/>
</g>
<!-- Node22 -->
<g id="node22" class="node">
<title>Node22</title>
<g id="a_node22"><a xlink:href="namespacewebutils.html#ab6119b08526700518f576bb78554be59" target="_top" xlink:title="Returns localtime string in provided format.">
<polygon fill="none" stroke="black" points="1712,-353.5 1712,-372.5 1868,-372.5 1868,-353.5 1712,-353.5"/>
<text text-anchor="middle" x="1790" y="-360.5" font-family="Helvetica,sans-Serif" font-size="10.00">webutils::getLocaltimeString</text>
</a>
</g>
</g>
<!-- Node21&#45;&gt;Node22 -->
<g id="edge21" class="edge">
<title>Node21&#45;&gt;Node22</title>
<path fill="none" stroke="midnightblue" d="M1648.63,-363C1665.29,-363 1683.8,-363 1701.76,-363"/>
<polygon fill="midnightblue" stroke="midnightblue" points="1701.96,-366.5 1711.96,-363 1701.96,-359.5 1701.96,-366.5"/>
</g>
<!-- Node25 -->
<g id="node25" class="node">
<title>Node25</title>
<g id="a_node25"><a xlink:href="class_file_system_policy.html#a6fa9dbd0b2ea4656d86bbe4dc966bf71" target="_top" xlink:title="Check the file type of a given path.">
<polygon fill="none" stroke="black" points="1301,-320.5 1301,-339.5 1474,-339.5 1474,-320.5 1301,-320.5"/>
<text text-anchor="middle" x="1387.5" y="-327.5" font-family="Helvetica,sans-Serif" font-size="10.00">FileSystemPolicy::checkFileType</text>
</a>
</g>
</g>
<!-- Node24&#45;&gt;Node25 -->
<g id="edge24" class="edge">
<title>Node24&#45;&gt;Node25</title>
<path fill="none" stroke="midnightblue" d="M1254.68,-330C1266.19,-330 1278.41,-330 1290.59,-330"/>
<polygon fill="midnightblue" stroke="midnightblue" points="1290.8,-333.5 1300.8,-330 1290.8,-326.5 1290.8,-333.5"/>
</g>
<!-- Node27 -->
<g id="node27" class="node">
<title>Node27</title>
<g id="a_node27"><a xlink:href="_connection_8hpp.html#a5cde791aba7932d764243fd191c0d1bb" target="_top" xlink:title=" ">
<polygon fill="none" stroke="black" points="942.5,-269.5 942.5,-288.5 1037.5,-288.5 1037.5,-269.5 942.5,-269.5"/>
<text text-anchor="middle" x="990" y="-276.5" font-family="Helvetica,sans-Serif" font-size="10.00">clearConnection</text>
</a>
</g>
</g>
<!-- Node26&#45;&gt;Node27 -->
<g id="edge26" class="edge">
<title>Node26&#45;&gt;Node27</title>
<path fill="none" stroke="midnightblue" d="M855.58,-277.03C880.57,-277.4 908.44,-277.81 932.22,-278.16"/>
<polygon fill="midnightblue" stroke="midnightblue" points="932.43,-281.66 942.48,-278.31 932.54,-274.67 932.43,-281.66"/>
</g>
<!-- Node28 -->
<g id="node28" class="node">
<title>Node28</title>
<g id="a_node28"><a xlink:href="class_server.html#afab1a4ec9e524b0dae8f60080642e7fe" target="_top" xlink:title="Wrapper function to EpollWrapper::modifyEvent.">
<polygon fill="none" stroke="black" points="932,-193.5 932,-212.5 1048,-212.5 1048,-193.5 932,-193.5"/>
<text text-anchor="middle" x="990" y="-200.5" font-family="Helvetica,sans-Serif" font-size="10.00">Server::modifyEvent</text>
</a>
</g>
</g>
<!-- Node26&#45;&gt;Node28 -->
<g id="edge27" class="edge">
<title>Node26&#45;&gt;Node28</title>
<path fill="none" stroke="midnightblue" d="M829.2,-266.48C841.5,-262.87 854.63,-258.11 866,-252 884.35,-242.14 883.29,-231.15 902,-222 908.4,-218.87 915.31,-216.25 922.34,-214.06"/>
<polygon fill="midnightblue" stroke="midnightblue" points="923.31,-217.43 931.97,-211.34 921.4,-210.69 923.31,-217.43"/>
</g>
<!-- Node30 -->
<g id="node30" class="node">
<title>Node30</title>
<g id="a_node30"><a xlink:href="class_server.html#a8bf2a41e8ddcccd54b5832b58211a283" target="_top" xlink:title="Wrapper function to SocketPolicy::writeToSocket.">
<polygon fill="none" stroke="black" points="929,-231.5 929,-250.5 1051,-250.5 1051,-231.5 929,-231.5"/>
<text text-anchor="middle" x="990" y="-238.5" font-family="Helvetica,sans-Serif" font-size="10.00">Server::writeToSocket</text>
</a>
</g>
</g>
<!-- Node26&#45;&gt;Node30 -->
<g id="edge29" class="edge">
<title>Node26&#45;&gt;Node30</title>
<path fill="none" stroke="midnightblue" d="M841.2,-266.48C866.71,-262.08 897.18,-256.83 923.81,-252.24"/>
<polygon fill="midnightblue" stroke="midnightblue" points="924.55,-255.66 933.81,-250.52 923.36,-248.77 924.55,-255.66"/>
</g>
<!-- Node29 -->
<g id="node29" class="node">
<title>Node29</title>
<g id="a_node29"><a xlink:href="class_epoll_wrapper.html#ac97945725185999837a6d0d53f91df1a" target="_top" xlink:title="Modify an event in the epoll instance.">
<polygon fill="none" stroke="black" points="1115,-193.5 1115,-212.5 1264,-212.5 1264,-193.5 1115,-193.5"/>
<text text-anchor="middle" x="1189.5" y="-200.5" font-family="Helvetica,sans-Serif" font-size="10.00">EpollWrapper::modifyEvent</text>
</a>
</g>
</g>
<!-- Node28&#45;&gt;Node29 -->
<g id="edge28" class="edge">
<title>Node28&#45;&gt;Node29</title>
<path fill="none" stroke="midnightblue" d="M1048.13,-203C1065.8,-203 1085.65,-203 1104.73,-203"/>
<polygon fill="midnightblue" stroke="midnightblue" points="1104.93,-206.5 1114.93,-203 1104.93,-199.5 1104.93,-206.5"/>
</g>
<!-- Node31 -->
<g id="node31" class="node">
<title>Node31</title>
<g id="a_node31"><a xlink:href="class_socket_policy.html#a2be07593236ccf70a7ddd7fc8d8b0af1" target="_top" xlink:title="Write to a socket.">
<polygon fill="none" stroke="black" points="1114,-231.5 1114,-250.5 1265,-250.5 1265,-231.5 1114,-231.5"/>
<text text-anchor="middle" x="1189.5" y="-238.5" font-family="Helvetica,sans-Serif" font-size="10.00">SocketPolicy::writeToSocket</text>
</a>
</g>
</g>
<!-- Node30&#45;&gt;Node31 -->
<g id="edge30" class="edge">
<title>Node30&#45;&gt;Node31</title>
<path fill="none" stroke="midnightblue" d="M1051.06,-241C1067.57,-241 1085.79,-241 1103.42,-241"/>
<polygon fill="midnightblue" stroke="midnightblue" points="1103.71,-244.5 1113.71,-241 1103.71,-237.5 1103.71,-244.5"/>
</g>
<!-- Node33 -->
<g id="node33" class="node">
<title>Node33</title>
<g id="a_node33"><a xlink:href="class_response_builder.html#adf7d2f0fbb7f5b6866eb884fb2c17e88" target="_top" xlink:title="Get the built response.">
<polygon fill="none" stroke="black" points="906.5,-307.5 906.5,-326.5 1073.5,-326.5 1073.5,-307.5 906.5,-307.5"/>
<text text-anchor="middle" x="990" y="-314.5" font-family="Helvetica,sans-Serif" font-size="10.00">ResponseBuilder::getResponse</text>
</a>
</g>
</g>
<!-- Node32&#45;&gt;Node33 -->
<g id="edge32" class="edge">
<title>Node32&#45;&gt;Node33</title>
<path fill="none" stroke="midnightblue" d="M843.63,-317C859.89,-317 878.02,-317 895.81,-317"/>
<polygon fill="midnightblue" stroke="midnightblue" points="896.22,-320.5 906.22,-317 896.22,-313.5 896.22,-320.5"/>
</g>
<!-- Node34&#45;&gt;Node12 -->
<g id="edge34" class="edge">
<title>Node34&#45;&gt;Node12</title>
<path fill="none" stroke="midnightblue" d="M446.26,-315.05C463.63,-315.3 482.32,-315.57 500.06,-315.83"/>
<polygon fill="midnightblue" stroke="midnightblue" points="500.34,-319.33 510.39,-315.98 500.44,-312.33 500.34,-319.33"/>
</g>
<!-- Node35&#45;&gt;Node28 -->
<g id="edge37" class="edge">
<title>Node35&#45;&gt;Node28</title>
<path fill="none" stroke="midnightblue" d="M423.54,-209.51C445.33,-213.28 471.35,-217.15 495,-219 647.28,-230.93 826.65,-218.53 921.8,-209.87"/>
<polygon fill="midnightblue" stroke="midnightblue" points="922.22,-213.35 931.86,-208.94 921.58,-206.38 922.22,-213.35"/>
</g>
<!-- Node36 -->
<g id="node36" class="node">
<title>Node36</title>
<g id="a_node36"><a xlink:href="_server_8cpp.html#a14a0c5a1227276017a19d9b52141c13a" target="_top" xlink:title="Checks if the HTTP request body has been completely received.">
<polygon fill="none" stroke="black" points="533,-190.5 533,-209.5 630,-209.5 630,-190.5 533,-190.5"/>
<text text-anchor="middle" x="581.5" y="-197.5" font-family="Helvetica,sans-Serif" font-size="10.00">isCompleteBody</text>
</a>
</g>
</g>
<!-- Node35&#45;&gt;Node36 -->
<g id="edge36" class="edge">
<title>Node35&#45;&gt;Node36</title>
<path fill="none" stroke="midnightblue" d="M440.53,-200C466.91,-200 497.01,-200 522.52,-200"/>
<polygon fill="midnightblue" stroke="midnightblue" points="522.79,-203.5 532.79,-200 522.79,-196.5 522.79,-203.5"/>
</g>
<!-- Node37 -->
<g id="node37" class="node">
<title>Node37</title>
<g id="a_node37"><a xlink:href="class_server.html#ace46f4e07ab67db60e3790a32b2e8e0a" target="_top" xlink:title="Wrapper function to RequestParser::parseBody.">
<polygon fill="none" stroke="black" points="528.5,-152.5 528.5,-171.5 634.5,-171.5 634.5,-152.5 528.5,-152.5"/>
<text text-anchor="middle" x="581.5" y="-159.5" font-family="Helvetica,sans-Serif" font-size="10.00">Server::parseBody</text>
</a>
</g>
</g>
<!-- Node35&#45;&gt;Node37 -->
<g id="edge38" class="edge">
<title>Node35&#45;&gt;Node37</title>
<path fill="none" stroke="midnightblue" d="M426.22,-190.46C454.26,-185.29 489.1,-178.86 518.58,-173.42"/>
<polygon fill="midnightblue" stroke="midnightblue" points="519.56,-176.8 528.76,-171.54 518.29,-169.92 519.56,-176.8"/>
</g>
<!-- Node40 -->
<g id="node40" class="node">
<title>Node40</title>
<g id="a_node40"><a xlink:href="class_server.html#ae94e3d4b5743580a6fbe3228d58af423" target="_top" xlink:title="Wrapper function to SocketPolicy::readFromSocket.">
<polygon fill="none" stroke="black" points="515,-114.5 515,-133.5 648,-133.5 648,-114.5 515,-114.5"/>
<text text-anchor="middle" x="581.5" y="-121.5" font-family="Helvetica,sans-Serif" font-size="10.00">Server::readFromSocket</text>
</a>
</g>
</g>
<!-- Node35&#45;&gt;Node40 -->
<g id="edge41" class="edge">
<title>Node35&#45;&gt;Node40</title>
<path fill="none" stroke="midnightblue" d="M391.55,-190.44C414.45,-177.95 456.69,-156.13 495,-143 502.67,-140.37 510.85,-138.01 519,-135.93"/>
<polygon fill="midnightblue" stroke="midnightblue" points="520.01,-139.28 528.89,-133.52 518.35,-132.48 520.01,-139.28"/>
</g>
<!-- Node38 -->
<g id="node38" class="node">
<title>Node38</title>
<g id="a_node38"><a xlink:href="class_request_parser.html#a5111f16124d227775d963e6ca24ddca0" target="_top" xlink:title="Parses the body of an HTTP request.">
<polygon fill="none" stroke="black" points="713,-152.5 713,-171.5 857,-171.5 857,-152.5 713,-152.5"/>
<text text-anchor="middle" x="785" y="-159.5" font-family="Helvetica,sans-Serif" font-size="10.00">RequestParser::parseBody</text>
</a>
</g>
</g>
<!-- Node37&#45;&gt;Node38 -->
<g id="edge39" class="edge">
<title>Node37&#45;&gt;Node38</title>
<path fill="none" stroke="midnightblue" d="M634.65,-162C655.38,-162 679.7,-162 702.64,-162"/>
<polygon fill="midnightblue" stroke="midnightblue" points="702.71,-165.5 712.71,-162 702.71,-158.5 702.71,-165.5"/>
</g>
<!-- Node39 -->
<g id="node39" class="node">
<title>Node39</title>
<g id="a_node39"><a xlink:href="class_request_parser.html#ad8e0fc22eb113d78140e257f002df666" target="_top" xlink:title="Clears the contents of the RequestParser object.">
<polygon fill="none" stroke="black" points="911.5,-89 911.5,-119 1068.5,-119 1068.5,-89 911.5,-89"/>
<text text-anchor="start" x="919.5" y="-107" font-family="Helvetica,sans-Serif" font-size="10.00">RequestParser::resetRequest</text>
<text text-anchor="middle" x="990" y="-96" font-family="Helvetica,sans-Serif" font-size="10.00">Stream</text>
</a>
</g>
</g>
<!-- Node38&#45;&gt;Node39 -->
<g id="edge40" class="edge">
<title>Node38&#45;&gt;Node39</title>
<path fill="none" stroke="midnightblue" d="M828.91,-152.42C840.96,-149.57 854.03,-146.31 866,-143 888.65,-136.73 913.4,-129.04 934.72,-122.16"/>
<polygon fill="midnightblue" stroke="midnightblue" points="935.83,-125.48 944.25,-119.06 933.66,-118.83 935.83,-125.48"/>
</g>
<!-- Node41 -->
<g id="node41" class="node">
<title>Node41</title>
<g id="a_node41"><a xlink:href="class_socket_policy.html#a6f6c04c36c6be0d95b1d3e4a872ea7ca" target="_top" xlink:title="Read from a socket.">
<polygon fill="none" stroke="black" points="704,-114.5 704,-133.5 866,-133.5 866,-114.5 704,-114.5"/>
<text text-anchor="middle" x="785" y="-121.5" font-family="Helvetica,sans-Serif" font-size="10.00">SocketPolicy::readFromSocket</text>
</a>
</g>
</g>
<!-- Node40&#45;&gt;Node41 -->
<g id="edge42" class="edge">
<title>Node40&#45;&gt;Node41</title>
<path fill="none" stroke="midnightblue" d="M648.2,-124C662.8,-124 678.53,-124 693.92,-124"/>
<polygon fill="midnightblue" stroke="midnightblue" points="693.97,-127.5 703.97,-124 693.97,-120.5 693.97,-127.5"/>
</g>
<!-- Node42&#45;&gt;Node28 -->
<g id="edge45" class="edge">
<title>Node42&#45;&gt;Node28</title>
<path fill="none" stroke="midnightblue" d="M445.59,-83.35C562.79,-79.88 791.05,-77.16 866,-105 878.04,-109.47 938.84,-160.33 970.21,-186.95"/>
<polygon fill="midnightblue" stroke="midnightblue" points="967.98,-189.65 977.86,-193.46 972.51,-184.32 967.98,-189.65"/>
</g>
<!-- Node42&#45;&gt;Node40 -->
<g id="edge49" class="edge">
<title>Node42&#45;&gt;Node40</title>
<path fill="none" stroke="midnightblue" d="M426.22,-95.54C454.26,-100.71 489.1,-107.14 518.58,-112.58"/>
<polygon fill="midnightblue" stroke="midnightblue" points="518.29,-116.08 528.76,-114.46 519.56,-109.2 518.29,-116.08"/>
</g>
<!-- Node43 -->
<g id="node43" class="node">
<title>Node43</title>
<g id="a_node43"><a xlink:href="_server_8cpp.html#a172c400277e73261d212c33f66226090" target="_top" xlink:title="Checks if the connection buffer contains a request header.">
<polygon fill="none" stroke="black" points="508,-0.5 508,-19.5 655,-19.5 655,-0.5 508,-0.5"/>
<text text-anchor="middle" x="581.5" y="-7.5" font-family="Helvetica,sans-Serif" font-size="10.00">isCompleteRequestHeader</text>
</a>
</g>
</g>
<!-- Node42&#45;&gt;Node43 -->
<g id="edge44" class="edge">
<title>Node42&#45;&gt;Node43</title>
<path fill="none" stroke="midnightblue" d="M391.55,-76.44C414.45,-63.95 456.69,-42.13 495,-29 502.67,-26.37 510.85,-24.01 519,-21.93"/>
<polygon fill="midnightblue" stroke="midnightblue" points="520.01,-25.28 528.89,-19.52 518.35,-18.48 520.01,-25.28"/>
</g>
<!-- Node44 -->
<g id="node44" class="node">
<title>Node44</title>
<g id="a_node44"><a xlink:href="class_server.html#a34bc61299318fe1918293b1d656ee5f9" target="_top" xlink:title="Wrapper function to RequestParser::parseHeader.">
<polygon fill="none" stroke="black" points="523.5,-38.5 523.5,-57.5 639.5,-57.5 639.5,-38.5 523.5,-38.5"/>
<text text-anchor="middle" x="581.5" y="-45.5" font-family="Helvetica,sans-Serif" font-size="10.00">Server::parseHeader</text>
</a>
</g>
</g>
<!-- Node42&#45;&gt;Node44 -->
<g id="edge46" class="edge">
<title>Node42&#45;&gt;Node44</title>
<path fill="none" stroke="midnightblue" d="M426.22,-76.46C454.26,-71.29 489.1,-64.86 518.58,-59.42"/>
<polygon fill="midnightblue" stroke="midnightblue" points="519.56,-62.8 528.76,-57.54 518.29,-55.92 519.56,-62.8"/>
</g>
<!-- Node45 -->
<g id="node45" class="node">
<title>Node45</title>
<g id="a_node45"><a xlink:href="class_request_parser.html#a933b43673d0b7b99d6cc310f5c03a865" target="_top" xlink:title="Parses the header of an HTTP request.">
<polygon fill="none" stroke="black" points="707.5,-38.5 707.5,-57.5 862.5,-57.5 862.5,-38.5 707.5,-38.5"/>
<text text-anchor="middle" x="785" y="-45.5" font-family="Helvetica,sans-Serif" font-size="10.00">RequestParser::parseHeader</text>
</a>
</g>
</g>
<!-- Node44&#45;&gt;Node45 -->
<g id="edge47" class="edge">
<title>Node44&#45;&gt;Node45</title>
<path fill="none" stroke="midnightblue" d="M639.7,-48C657.64,-48 677.85,-48 697.34,-48"/>
<polygon fill="midnightblue" stroke="midnightblue" points="697.46,-51.5 707.46,-48 697.46,-44.5 697.46,-51.5"/>
</g>
<!-- Node45&#45;&gt;Node39 -->
<g id="edge48" class="edge">
<title>Node45&#45;&gt;Node39</title>
<path fill="none" stroke="midnightblue" d="M820.9,-57.63C849.27,-65.45 890.08,-76.71 924.38,-86.17"/>
<polygon fill="midnightblue" stroke="midnightblue" points="923.76,-89.63 934.33,-88.92 925.62,-82.88 923.76,-89.63"/>
</g>
</g>
</svg>
