<?xml version="1.0" encoding="UTF-8" standalone="no"?>
<!DOCTYPE svg PUBLIC "-//W3C//DTD SVG 1.1//EN"
 "http://www.w3.org/Graphics/SVG/1.1/DTD/svg11.dtd">
<!-- Generated by graphviz version 2.43.0 (0)
 -->
<!-- Title: connectionBuildResponse Pages: 1 -->
<svg width="909pt" height="212pt"
 viewBox="0.00 0.00 909.00 212.00" xmlns="http://www.w3.org/2000/svg" xmlns:xlink="http://www.w3.org/1999/xlink">
<g id="graph0" class="graph" transform="scale(1 1) rotate(0) translate(4 208)">
<title>connectionBuildResponse</title>
<!-- Node1 -->
<g id="Node000001" class="node">
<title>Node1</title>
<g id="a_Node000001"><a xlink:title="Builds the response for a client connection.">
<polygon fill="#999999" stroke="#666666" points="142,-111 0,-111 0,-92 142,-92 142,-111"/>
<text text-anchor="middle" x="71" y="-99" font-family="Helvetica,sans-Serif" font-size="10.00">connectionBuildResponse</text>
</a>
</g>
</g>
<!-- Node2 -->
<g id="Node000002" class="node">
<title>Node2</title>
<g id="a_Node000002"><a xlink:href="class_server.html#aaa1a16c8d18a7d0a4191adfeb65fdf82" target="_top" xlink:title="Wrapper function to ResponseBuilder::buildResponse.">
<polygon fill="white" stroke="#666666" points="311,-176 186,-176 186,-157 311,-157 311,-176"/>
<text text-anchor="middle" x="248.5" y="-164" font-family="Helvetica,sans-Serif" font-size="10.00">Server::buildResponse</text>
</a>
</g>
</g>
<!-- Node1&#45;&gt;Node2 -->
<g id="edge1_Node000001_Node000002" class="edge">
<title>Node1&#45;&gt;Node2</title>
<g id="a_edge1_Node000001_Node000002"><a xlink:title=" ">
<path fill="none" stroke="#63b8ff" d="M97.9,-111.09C128.18,-122.31 178.47,-140.93 212.29,-153.46"/>
<polygon fill="#63b8ff" stroke="#63b8ff" points="211.19,-156.78 221.78,-156.98 213.62,-150.22 211.19,-156.78"/>
</a>
</g>
</g>
<!-- Node4 -->
<g id="Node000004" class="node">
<title>Node4</title>
<g id="a_Node000004"><a xlink:href="_server_8cpp.html#a43e9e764c97aacfc12f233b33ffa3342" target="_top" xlink:title="Sends the response to a client connection.">
<polygon fill="white" stroke="#666666" points="319,-111 178,-111 178,-92 319,-92 319,-111"/>
<text text-anchor="middle" x="248.5" y="-99" font-family="Helvetica,sans-Serif" font-size="10.00">connectionSendResponse</text>
</a>
</g>
</g>
<!-- Node1&#45;&gt;Node4 -->
<g id="edge3_Node000001_Node000004" class="edge">
<title>Node1&#45;&gt;Node4</title>
<g id="a_edge3_Node000001_Node000004"><a xlink:title=" ">
<path fill="none" stroke="#63b8ff" d="M142.12,-101.5C150.47,-101.5 159.04,-101.5 167.51,-101.5"/>
<polygon fill="#63b8ff" stroke="#63b8ff" points="167.78,-105 177.78,-101.5 167.78,-98 167.78,-105"/>
</a>
</g>
</g>
<!-- Node14 -->
<g id="Node000014" class="node">
<title>Node14</title>
<g id="a_Node000014"><a xlink:href="class_server.html#a718bf76e7c3f830abb2f7b0972cdaa63" target="_top" xlink:title="Wrapper function to ResponseBuilder::getResponse.">
<polygon fill="white" stroke="#666666" points="307,-56 190,-56 190,-37 307,-37 307,-56"/>
<text text-anchor="middle" x="248.5" y="-44" font-family="Helvetica,sans-Serif" font-size="10.00">Server::getResponse</text>
</a>
</g>
</g>
<!-- Node1&#45;&gt;Node14 -->
<g id="edge13_Node000001_Node000014" class="edge">
<title>Node1&#45;&gt;Node14</title>
<g id="a_edge13_Node000001_Node000014"><a xlink:title=" ">
<path fill="none" stroke="#63b8ff" d="M102.57,-91.92C131.55,-82.84 175.26,-69.14 207.1,-59.16"/>
<polygon fill="#63b8ff" stroke="#63b8ff" points="208.49,-62.39 216.99,-56.06 206.4,-55.71 208.49,-62.39"/>
</a>
</g>
</g>
<!-- Node3 -->
<g id="Node000003" class="node">
<title>Node3</title>
<g id="a_Node000003"><a xlink:href="class_response_builder.html#ae037ac16172f1329b44a58f50de0e84e" target="_top" xlink:title="Build the response for a given request.">
<polygon fill="white" stroke="#666666" points="531,-204 355,-204 355,-185 531,-185 531,-204"/>
<text text-anchor="middle" x="443" y="-192" font-family="Helvetica,sans-Serif" font-size="10.00">ResponseBuilder::buildResponse</text>
</a>
</g>
</g>
<!-- Node2&#45;&gt;Node3 -->
<g id="edge2_Node000002_Node000003" class="edge">
<title>Node2&#45;&gt;Node3</title>
<g id="a_edge2_Node000002_Node000003"><a xlink:title=" ">
<path fill="none" stroke="#63b8ff" d="M311.2,-175.47C328.83,-178.04 348.25,-180.86 366.6,-183.53"/>
<polygon fill="#63b8ff" stroke="#63b8ff" points="366.26,-187.02 376.66,-185 367.27,-180.09 366.26,-187.02"/>
</a>
</g>
</g>
<!-- Node5 -->
<g id="Node000005" class="node">
<title>Node5</title>
<g id="a_Node000005"><a xlink:href="_connection_8cpp.html#a1787b72853fa3a6146cea621fa1d0d65" target="_top" xlink:title="Clears the state of a given Connection object and resets its attributes.">
<polygon fill="white" stroke="#666666" points="490.5,-167 395.5,-167 395.5,-148 490.5,-148 490.5,-167"/>
<text text-anchor="middle" x="443" y="-155" font-family="Helvetica,sans-Serif" font-size="10.00">clearConnection</text>
</a>
</g>
</g>
<!-- Node4&#45;&gt;Node5 -->
<g id="edge4_Node000004_Node000005" class="edge">
<title>Node4&#45;&gt;Node5</title>
<g id="a_edge4_Node000004_Node000005"><a xlink:title=" ">
<path fill="none" stroke="#63b8ff" d="M273.07,-111.08C294.25,-119.42 326.33,-131.42 355,-139.5 364.69,-142.23 375.09,-144.74 385.21,-146.96"/>
<polygon fill="#63b8ff" stroke="#63b8ff" points="384.69,-150.43 395.2,-149.09 386.15,-143.58 384.69,-150.43"/>
</a>
</g>
</g>
<!-- Node9 -->
<g id="Node000009" class="node">
<title>Node9</title>
<g id="a_Node000009"><a xlink:href="class_server.html#a54745950beb9e321d9a56084501c18e9" target="_top" xlink:title="Const Getter for server configs.">
<polygon fill="white" stroke="#666666" points="511.5,-130 374.5,-130 374.5,-111 511.5,-111 511.5,-130"/>
<text text-anchor="middle" x="443" y="-118" font-family="Helvetica,sans-Serif" font-size="10.00">Server::getServerConfigs</text>
</a>
</g>
</g>
<!-- Node4&#45;&gt;Node9 -->
<g id="edge8_Node000004_Node000009" class="edge">
<title>Node4&#45;&gt;Node9</title>
<g id="a_edge8_Node000004_Node000009"><a xlink:title=" ">
<path fill="none" stroke="#63b8ff" d="M319.27,-108.39C333.87,-109.83 349.35,-111.36 364.22,-112.82"/>
<polygon fill="#63b8ff" stroke="#63b8ff" points="364.1,-116.33 374.4,-113.83 364.79,-109.36 364.1,-116.33"/>
</a>
</g>
</g>
<!-- Node10 -->
<g id="Node000010" class="node">
<title>Node10</title>
<g id="a_Node000010"><a xlink:href="class_server.html#afab1a4ec9e524b0dae8f60080642e7fe" target="_top" xlink:title="Wrapper function to EpollWrapper::modifyEvent.">
<polygon fill="white" stroke="#666666" points="501,-93 385,-93 385,-74 501,-74 501,-93"/>
<text text-anchor="middle" x="443" y="-81" font-family="Helvetica,sans-Serif" font-size="10.00">Server::modifyEvent</text>
</a>
</g>
</g>
<!-- Node4&#45;&gt;Node10 -->
<g id="edge9_Node000004_Node000010" class="edge">
<title>Node4&#45;&gt;Node10</title>
<g id="a_edge9_Node000004_Node000010"><a xlink:title=" ">
<path fill="none" stroke="#63b8ff" d="M319.27,-94.98C337.34,-93.29 356.77,-91.47 374.71,-89.79"/>
<polygon fill="#63b8ff" stroke="#63b8ff" points="375.16,-93.27 384.79,-88.85 374.51,-86.3 375.16,-93.27"/>
</a>
</g>
</g>
<!-- Node12 -->
<g id="Node000012" class="node">
<title>Node12</title>
<g id="a_Node000012"><a xlink:href="class_server.html#a8bf2a41e8ddcccd54b5832b58211a283" target="_top" xlink:title="Wrapper function to SocketPolicy::writeToSocket.">
<polygon fill="white" stroke="#666666" points="504,-56 382,-56 382,-37 504,-37 504,-56"/>
<text text-anchor="middle" x="443" y="-44" font-family="Helvetica,sans-Serif" font-size="10.00">Server::writeToSocket</text>
</a>
</g>
</g>
<!-- Node4&#45;&gt;Node12 -->
<g id="edge11_Node000004_Node000012" class="edge">
<title>Node4&#45;&gt;Node12</title>
<g id="a_edge11_Node000004_Node000012"><a xlink:title=" ">
<path fill="none" stroke="#63b8ff" d="M274.83,-91.95C296.04,-84.17 327.22,-73.25 355,-65.5 364.17,-62.94 373.97,-60.51 383.56,-58.3"/>
<polygon fill="#63b8ff" stroke="#63b8ff" points="384.45,-61.69 393.44,-56.08 382.92,-54.86 384.45,-61.69"/>
</a>
</g>
</g>
<!-- Node6 -->
<g id="Node000006" class="node">
<title>Node6</title>
<g id="a_Node000006"><a xlink:href="namespacewebutils.html#ad74875f464c74bd45589002fc385605e" target="_top" xlink:title=" ">
<polygon fill="white" stroke="#666666" points="693,-185 592,-185 592,-166 693,-166 693,-185"/>
<text text-anchor="middle" x="642.5" y="-173" font-family="Helvetica,sans-Serif" font-size="10.00">webutils::closeFd</text>
</a>
</g>
</g>
<!-- Node5&#45;&gt;Node6 -->
<g id="edge5_Node000005_Node000006" class="edge">
<title>Node5&#45;&gt;Node6</title>
<g id="a_edge5_Node000005_Node000006"><a xlink:title=" ">
<path fill="none" stroke="#63b8ff" d="M490.8,-161.77C518.05,-164.25 552.67,-167.4 581.85,-170.06"/>
<polygon fill="#63b8ff" stroke="#63b8ff" points="581.65,-173.56 591.93,-170.98 582.29,-166.59 581.65,-173.56"/>
</a>
</g>
</g>
<!-- Node7 -->
<g id="Node000007" class="node">
<title>Node7</title>
<g id="a_Node000007"><a xlink:href="_connection_8cpp.html#a354192f8dd87ca049cf8b7e6de9000da" target="_top" xlink:title="Selects the server configuration for a connection.">
<polygon fill="white" stroke="#666666" points="702.5,-148 582.5,-148 582.5,-129 702.5,-129 702.5,-148"/>
<text text-anchor="middle" x="642.5" y="-136" font-family="Helvetica,sans-Serif" font-size="10.00">hasValidServerConfig</text>
</a>
</g>
</g>
<!-- Node5&#45;&gt;Node7 -->
<g id="edge6_Node000005_Node000007" class="edge">
<title>Node5&#45;&gt;Node7</title>
<g id="a_edge6_Node000005_Node000007"><a xlink:title=" ">
<path fill="none" stroke="#63b8ff" d="M490.8,-153C515.08,-150.66 545.21,-147.76 572.13,-145.17"/>
<polygon fill="#63b8ff" stroke="#63b8ff" points="572.66,-148.64 582.28,-144.2 571.99,-141.67 572.66,-148.64"/>
</a>
</g>
</g>
<!-- Node8 -->
<g id="Node000008" class="node">
<title>Node8</title>
<g id="a_Node000008"><a xlink:href="_connection_8cpp.html#af96f533f342bd6cf42899f3c9fd30a99" target="_top" xlink:title="Find matching server configurations for a server socket.">
<polygon fill="white" stroke="#666666" points="901,-148 754,-148 754,-129 901,-129 901,-148"/>
<text text-anchor="middle" x="827.5" y="-136" font-family="Helvetica,sans-Serif" font-size="10.00">findMatchingServerConfigs</text>
</a>
</g>
</g>
<!-- Node7&#45;&gt;Node8 -->
<g id="edge7_Node000007_Node000008" class="edge">
<title>Node7&#45;&gt;Node8</title>
<g id="a_edge7_Node000007_Node000008"><a xlink:title=" ">
<path fill="none" stroke="#63b8ff" d="M702.66,-138.5C715.77,-138.5 729.9,-138.5 743.75,-138.5"/>
<polygon fill="#63b8ff" stroke="#63b8ff" points="743.77,-142 753.77,-138.5 743.77,-135 743.77,-142"/>
</a>
</g>
</g>
<!-- Node11 -->
<g id="Node000011" class="node">
<title>Node11</title>
<g id="a_Node000011"><a xlink:href="class_epoll_wrapper.html#ac97945725185999837a6d0d53f91df1a" target="_top" xlink:title="Modify an event in the epoll instance.">
<polygon fill="white" stroke="#666666" points="717,-93 568,-93 568,-74 717,-74 717,-93"/>
<text text-anchor="middle" x="642.5" y="-81" font-family="Helvetica,sans-Serif" font-size="10.00">EpollWrapper::modifyEvent</text>
</a>
</g>
</g>
<!-- Node10&#45;&gt;Node11 -->
<g id="edge10_Node000010_Node000011" class="edge">
<title>Node10&#45;&gt;Node11</title>
<g id="a_edge10_Node000010_Node000011"><a xlink:title=" ">
<path fill="none" stroke="#63b8ff" d="M501.13,-83.5C518.8,-83.5 538.65,-83.5 557.73,-83.5"/>
<polygon fill="#63b8ff" stroke="#63b8ff" points="557.93,-87 567.93,-83.5 557.93,-80 557.93,-87"/>
</a>
</g>
</g>
<!-- Node13 -->
<g id="Node000013" class="node">
<title>Node13</title>
<g id="a_Node000013"><a xlink:href="class_socket_policy.html#a2be07593236ccf70a7ddd7fc8d8b0af1" target="_top" xlink:title="Write to a socket.">
<polygon fill="white" stroke="#666666" points="718,-56 567,-56 567,-37 718,-37 718,-56"/>
<text text-anchor="middle" x="642.5" y="-44" font-family="Helvetica,sans-Serif" font-size="10.00">SocketPolicy::writeToSocket</text>
</a>
</g>
</g>
<!-- Node12&#45;&gt;Node13 -->
<g id="edge12_Node000012_Node000013" class="edge">
<title>Node12&#45;&gt;Node13</title>
<g id="a_edge12_Node000012_Node000013"><a xlink:title=" ">
<path fill="none" stroke="#63b8ff" d="M504.06,-46.5C520.57,-46.5 538.79,-46.5 556.42,-46.5"/>
<polygon fill="#63b8ff" stroke="#63b8ff" points="556.71,-50 566.71,-46.5 556.71,-43 556.71,-50"/>
</a>
</g>
</g>
<!-- Node15 -->
<g id="Node000015" class="node">
<title>Node15</title>
<g id="a_Node000015"><a xlink:href="class_response_builder.html#adf7d2f0fbb7f5b6866eb884fb2c17e88" target="_top" xlink:title="Get the built response.">
<polygon fill="white" stroke="#666666" points="526.5,-19 359.5,-19 359.5,0 526.5,0 526.5,-19"/>
<text text-anchor="middle" x="443" y="-7" font-family="Helvetica,sans-Serif" font-size="10.00">ResponseBuilder::getResponse</text>
</a>
</g>
</g>
<!-- Node14&#45;&gt;Node15 -->
<g id="edge14_Node000014_Node000015" class="edge">
<title>Node14&#45;&gt;Node15</title>
<g id="a_edge14_Node000014_Node000015"><a xlink:title=" ">
<path fill="none" stroke="#63b8ff" d="M299.07,-36.97C324.46,-32.09 355.56,-26.11 382.26,-20.98"/>
<polygon fill="#63b8ff" stroke="#63b8ff" points="383.1,-24.39 392.26,-19.06 381.78,-17.51 383.1,-24.39"/>
</a>
</g>
</g>
</g>
</svg>
