<?xml version="1.0" encoding="UTF-8" standalone="no"?>
<!DOCTYPE svg PUBLIC "-//W3C//DTD SVG 1.1//EN"
 "http://www.w3.org/Graphics/SVG/1.1/DTD/svg11.dtd">
<!-- Generated by graphviz version 2.43.0 (0)
 -->
<!-- Title: initVirtualServers Pages: 1 -->
<svg width="197pt" height="212pt"
 viewBox="0.00 0.00 197.00 212.00" xmlns="http://www.w3.org/2000/svg" xmlns:xlink="http://www.w3.org/1999/xlink">
<g id="graph0" class="graph" transform="scale(1 1) rotate(0) translate(4 208)">
<title>initVirtualServers</title>
<!-- Node1 -->
<g id="Node000001" class="node">
<title>Node1</title>
<g id="a_Node000001"><a xlink:title="Initialize virtual servers.">
<polygon fill="#999999" stroke="#666666" points="189,-111 88,-111 88,-92 189,-92 189,-111"/>
<text text-anchor="middle" x="138.5" y="-99" font-family="Helvetica,sans-Serif" font-size="10.00">initVirtualServers</text>
</a>
</g>
</g>
<!-- Node2 -->
<g id="Node000002" class="node">
<title>Node2</title>
<g id="a_Node000002"><a xlink:href="main_8cpp.html#ad53223b8779f25caeddb70a3b9172967" target="_top" xlink:title=" ">
<polygon fill="white" stroke="#666666" points="46.5,-204 5.5,-204 5.5,-185 46.5,-185 46.5,-204"/>
<text text-anchor="middle" x="26" y="-192" font-family="Helvetica,sans-Serif" font-size="10.00">main</text>
</a>
</g>
</g>
<!-- Node1&#45;&gt;Node2 -->
<g id="edge1_Node000001_Node000002" class="edge">
<title>Node1&#45;&gt;Node2</title>
<g id="a_edge1_Node000001_Node000002"><a xlink:title=" ">
<path fill="none" stroke="#63b8ff" d="M119.72,-117.99C102.72,-133.54 76.17,-157.27 52,-176.5 48.48,-179.3 44.58,-182.2 40.93,-184.83"/>
<polygon fill="#63b8ff" stroke="#63b8ff" points="122.26,-120.41 127.25,-111.07 117.52,-115.26 122.26,-120.41"/>
</a>
</g>
</g>
<!-- Node3 -->
<g id="Node000003" class="node">
<title>Node3</title>
<g id="a_Node000003"><a xlink:href="test__init_virtual_servers_8cpp.html#a898cd8e5a6bc1ea3ad534ebccca37541" target="_top" xlink:title=" ">
<polygon fill="white" stroke="#666666" points="52,-167 0,-167 0,-148 52,-148 52,-167"/>
<text text-anchor="middle" x="26" y="-155" font-family="Helvetica,sans-Serif" font-size="10.00">TEST_F</text>
</a>
</g>
</g>
<!-- Node1&#45;&gt;Node3 -->
<g id="edge2_Node000001_Node000003" class="edge">
<title>Node1&#45;&gt;Node3</title>
<g id="a_edge2_Node000001_Node000003"><a xlink:title=" ">
<path fill="none" stroke="#63b8ff" d="M109.08,-115.9C89.27,-125.94 63.38,-139.06 46.03,-147.86"/>
<polygon fill="#63b8ff" stroke="#63b8ff" points="110.91,-118.9 118.25,-111.25 107.75,-112.65 110.91,-118.9"/>
</a>
</g>
</g>
<!-- Node4 -->
<g id="Node000004" class="node">
<title>Node4</title>
<g id="a_Node000004"><a xlink:href="test__init_virtual_servers_8cpp.html#abfe6d5b03727d62dd703c623ad463968" target="_top" xlink:title=" ">
<polygon fill="white" stroke="#666666" points="52,-130 0,-130 0,-111 52,-111 52,-130"/>
<text text-anchor="middle" x="26" y="-118" font-family="Helvetica,sans-Serif" font-size="10.00">TEST_F</text>
</a>
</g>
</g>
<!-- Node1&#45;&gt;Node4 -->
<g id="edge3_Node000001_Node000004" class="edge">
<title>Node1&#45;&gt;Node4</title>
<g id="a_edge3_Node000001_Node000004"><a xlink:title=" ">
<path fill="none" stroke="#63b8ff" d="M77.85,-111.76C68.75,-113.32 59.81,-114.86 52.03,-116.2"/>
<polygon fill="#63b8ff" stroke="#63b8ff" points="78.48,-115.2 87.75,-110.06 77.3,-108.3 78.48,-115.2"/>
</a>
</g>
</g>
<!-- Node5 -->
<g id="Node000005" class="node">
<title>Node5</title>
<g id="a_Node000005"><a xlink:href="test__init_virtual_servers_8cpp.html#a25537358add2db1ce439b611dffe8790" target="_top" xlink:title=" ">
<polygon fill="white" stroke="#666666" points="52,-93 0,-93 0,-74 52,-74 52,-93"/>
<text text-anchor="middle" x="26" y="-81" font-family="Helvetica,sans-Serif" font-size="10.00">TEST_F</text>
</a>
</g>
</g>
<!-- Node1&#45;&gt;Node5 -->
<g id="edge4_Node000001_Node000005" class="edge">
<title>Node1&#45;&gt;Node5</title>
<g id="a_edge4_Node000001_Node000005"><a xlink:title=" ">
<path fill="none" stroke="#63b8ff" d="M77.85,-91.78C68.75,-90.3 59.81,-88.84 52.03,-87.58"/>
<polygon fill="#63b8ff" stroke="#63b8ff" points="77.31,-95.24 87.75,-93.4 78.44,-88.33 77.31,-95.24"/>
</a>
</g>
</g>
<!-- Node6 -->
<g id="Node000006" class="node">
<title>Node6</title>
<g id="a_Node000006"><a xlink:href="test___config_file_parser_8cpp.html#acdf80c4eac12c31af201f6f13f46dfef" target="_top" xlink:title=" ">
<polygon fill="white" stroke="#666666" points="52,-56 0,-56 0,-37 52,-37 52,-56"/>
<text text-anchor="middle" x="26" y="-44" font-family="Helvetica,sans-Serif" font-size="10.00">TEST_F</text>
</a>
</g>
</g>
<!-- Node1&#45;&gt;Node6 -->
<g id="edge5_Node000001_Node000006" class="edge">
<title>Node1&#45;&gt;Node6</title>
<g id="a_edge5_Node000001_Node000006"><a xlink:title=" ">
<path fill="none" stroke="#63b8ff" d="M109.14,-87.38C89.46,-77.59 63.77,-64.8 46.4,-56.16"/>
<polygon fill="#63b8ff" stroke="#63b8ff" points="107.74,-90.6 118.25,-91.92 110.86,-84.33 107.74,-90.6"/>
</a>
</g>
</g>
<!-- Node7 -->
<g id="Node000007" class="node">
<title>Node7</title>
<g id="a_Node000007"><a xlink:href="test___config_file_parser_8cpp.html#a7a877316d050e1cb0b37399e230a92eb" target="_top" xlink:title=" ">
<polygon fill="white" stroke="#666666" points="52,-19 0,-19 0,0 52,0 52,-19"/>
<text text-anchor="middle" x="26" y="-7" font-family="Helvetica,sans-Serif" font-size="10.00">TEST_F</text>
</a>
</g>
</g>
<!-- Node1&#45;&gt;Node7 -->
<g id="edge6_Node000001_Node000007" class="edge">
<title>Node1&#45;&gt;Node7</title>
<g id="a_edge6_Node000001_Node000007"><a xlink:title=" ">
<path fill="none" stroke="#63b8ff" d="M118.97,-85.15C101.82,-70.15 75.51,-47.44 52,-28.5 48.09,-25.35 43.77,-22.01 39.83,-19.03"/>
<polygon fill="#63b8ff" stroke="#63b8ff" points="116.78,-87.88 126.6,-91.85 121.39,-82.62 116.78,-87.88"/>
</a>
</g>
</g>
</g>
</svg>
