<?xml version="1.0" encoding="UTF-8" standalone="no"?>
<!DOCTYPE svg PUBLIC "-//W3C//DTD SVG 1.1//EN"
 "http://www.w3.org/Graphics/SVG/1.1/DTD/svg11.dtd">
<!-- Generated by graphviz version 2.43.0 (0)
 -->
<!-- Title: acceptConnections Pages: 1 -->
<!--zoomable 435 -->

<svg id="main" version="1.1" xmlns="http://www.w3.org/2000/svg" xmlns:xlink="http://www.w3.org/1999/xlink" xml:space="preserve" onload="init(evt)">
<style type="text/css"><![CDATA[
.node, .edge {opacity: 0.7;}
.node.selected, .edge.selected {opacity: 1;}
.edge:hover path { stroke: red; }
.edge:hover polygon { stroke: red; fill: red; }
]]></style>

<defs>
  <circle id="rim" cx="0" cy="0" r="7"/>
  <circle id="rim2" cx="0" cy="0" r="3.5"/>
  <g id="zoomPlus">
    <use xlink:href="#rim" fill="#404040"><set attributeName="fill" to="#808080" begin="zoomplus.mouseover" end="zoomplus.mouseout"/></use>
    <path d="M-4,0h8M0,-4v8" fill="none" stroke="white" stroke-width="1.5" pointer-events="none"/>
  </g>
  <g id="zoomMin">
    <use xlink:href="#rim" fill="#404040"><set attributeName="fill" to="#808080" begin="zoomminus.mouseover" end="zoomminus.mouseout"/></use>
    <path d="M-4,0h8" fill="none" stroke="white" stroke-width="1.5" pointer-events="none"/>
  </g>
  <g id="arrowUp" transform="translate(30 24)">
    <use xlink:href="#rim"/>
    <path pointer-events="none" fill="none" stroke="white" stroke-width="1.5" d="M0,-3.0v7 M-2.5,-0.5L0,-3.0L2.5,-0.5"/>
  </g>
  <g id="arrowRight" transform="rotate(90) translate(36 -43)">
    <use xlink:href="#rim"/>
    <path pointer-events="none" fill="none" stroke="white" stroke-width="1.5" d="M0,-3.0v7 M-2.5,-0.5L0,-3.0L2.5,-0.5"/>
  </g>
  <g id="arrowDown" transform="rotate(180) translate(-30 -48)">
    <use xlink:href="#rim"/>
    <path pointer-events="none" fill="none" stroke="white" stroke-width="1.5" d="M0,-3.0v7 M-2.5,-0.5L0,-3.0L2.5,-0.5"/>
  </g>
  <g id="arrowLeft" transform="rotate(270) translate(-36 17)">
    <use xlink:href="#rim"/>
    <path pointer-events="none" fill="none" stroke="white" stroke-width="1.5" d="M0,-3.0v7 M-2.5,-0.5L0,-3.0L2.5,-0.5"/>
  </g>
  <g id="resetDef">
    <use xlink:href="#rim2" fill="#404040"><set attributeName="fill" to="#808080" begin="reset.mouseover" end="reset.mouseout"/></use>
  </g>
</defs>
<script type="application/ecmascript">
var viewWidth = 538;
var viewHeight = 435;
var sectionId = 'dynsection-9';
</script>
<script type="application/ecmascript" xlink:href="svg.min.js"/>
<svg id="graph" class="graph">
<g id="viewport">
<title>acceptConnections</title>
<!-- Node1 -->
<g id="Node000001" class="node">
<title>Node1</title>
<g id="a_Node000001"><a xlink:title="Accept new connections.">
<polygon fill="#999999" stroke="#666666" points="530,-167 421,-167 421,-148 530,-148 530,-167"/>
<text text-anchor="middle" x="475.5" y="-155" font-family="Helvetica,sans-Serif" font-size="10.00">acceptConnections</text>
</a>
</g>
</g>
<!-- Node2 -->
<g id="Node000002" class="node">
<title>Node2</title>
<g id="a_Node000002"><a xlink:href="_server_8cpp.html#af9f4479a6262c17deef89938118d27f4" target="_top" xlink:title="Accepts new connections or handles existing ones.">
<polygon fill="white" stroke="#666666" points="385,-315 308,-315 308,-296 385,-296 385,-315"/>
<text text-anchor="middle" x="346.5" y="-303" font-family="Helvetica,sans-Serif" font-size="10.00">handleEvent</text>
</a>
</g>
</g>
<!-- Node1&#45;&gt;Node2 -->
<g id="edge1_Node000001_Node000002" class="edge">
<title>Node1&#45;&gt;Node2</title>
<g id="a_edge1_Node000001_Node000002"><a xlink:title=" ">
<path fill="none" stroke="#63b8ff" d="M465.3,-176.33C451.22,-203.59 422,-254.27 385,-286.5 380.82,-290.14 375.81,-293.3 370.84,-295.93"/>
<polygon fill="#63b8ff" stroke="#63b8ff" points="468.57,-177.63 469.95,-167.12 462.32,-174.48 468.57,-177.63"/>
</a>
</g>
</g>
<!-- Node14 -->
<g id="Node000014" class="node">
<title>Node14</title>
<g id="a_Node000014"><a xlink:href="test__accept_connections_8cpp.html#aa1d4e0a7c561db5b8a8715755b59b728" target="_top" xlink:title=" ">
<polygon fill="white" stroke="#666666" points="372.5,-278 320.5,-278 320.5,-259 372.5,-259 372.5,-278"/>
<text text-anchor="middle" x="346.5" y="-266" font-family="Helvetica,sans-Serif" font-size="10.00">TEST_F</text>
</a>
</g>
</g>
<!-- Node1&#45;&gt;Node14 -->
<g id="edge14_Node000001_Node000014" class="edge">
<title>Node1&#45;&gt;Node14</title>
<g id="a_edge14_Node000001_Node000014"><a xlink:title=" ">
<path fill="none" stroke="#63b8ff" d="M460.51,-175.04C444.02,-194.92 415.02,-227.42 385,-249.5 380.3,-252.96 374.87,-256.11 369.63,-258.81"/>
<polygon fill="#63b8ff" stroke="#63b8ff" points="463.37,-177.08 466.98,-167.12 457.94,-172.66 463.37,-177.08"/>
</a>
</g>
</g>
<!-- Node15 -->
<g id="Node000015" class="node">
<title>Node15</title>
<g id="a_Node000015"><a xlink:href="test__accept_connections_8cpp.html#ae76ec85fb2cbe0d8ac24c2f1b47344c0" target="_top" xlink:title=" ">
<polygon fill="white" stroke="#666666" points="372.5,-241 320.5,-241 320.5,-222 372.5,-222 372.5,-241"/>
<text text-anchor="middle" x="346.5" y="-229" font-family="Helvetica,sans-Serif" font-size="10.00">TEST_F</text>
</a>
</g>
</g>
<!-- Node1&#45;&gt;Node15 -->
<g id="edge15_Node000001_Node000015" class="edge">
<title>Node1&#45;&gt;Node15</title>
<g id="a_edge15_Node000001_Node000015"><a xlink:title=" ">
<path fill="none" stroke="#63b8ff" d="M451.23,-172.53C433.34,-183.9 407.91,-199.69 385,-212.5 379.27,-215.71 372.93,-219.01 367.12,-221.94"/>
<polygon fill="#63b8ff" stroke="#63b8ff" points="453.3,-175.36 459.84,-167.03 449.52,-169.46 453.3,-175.36"/>
</a>
</g>
</g>
<!-- Node16 -->
<g id="Node000016" class="node">
<title>Node16</title>
<g id="a_Node000016"><a xlink:href="test__accept_connections_8cpp.html#a78ef81e117d5c1a90c27410155ac152b" target="_top" xlink:title=" ">
<polygon fill="white" stroke="#666666" points="372.5,-204 320.5,-204 320.5,-185 372.5,-185 372.5,-204"/>
<text text-anchor="middle" x="346.5" y="-192" font-family="Helvetica,sans-Serif" font-size="10.00">TEST_F</text>
</a>
</g>
</g>
<!-- Node1&#45;&gt;Node16 -->
<g id="edge16_Node000001_Node000016" class="edge">
<title>Node1&#45;&gt;Node16</title>
<g id="a_edge16_Node000001_Node000016"><a xlink:title=" ">
<path fill="none" stroke="#63b8ff" d="M432.14,-169.84C412.5,-175.56 389.82,-182.17 372.88,-187.11"/>
<polygon fill="#63b8ff" stroke="#63b8ff" points="433.17,-173.19 441.79,-167.03 431.21,-166.47 433.17,-173.19"/>
</a>
</g>
</g>
<!-- Node17 -->
<g id="Node000017" class="node">
<title>Node17</title>
<g id="a_Node000017"><a xlink:href="test__accept_connections_8cpp.html#a9115bbeb96554e4f7f3909f9388bf963" target="_top" xlink:title=" ">
<polygon fill="white" stroke="#666666" points="372.5,-167 320.5,-167 320.5,-148 372.5,-148 372.5,-167"/>
<text text-anchor="middle" x="346.5" y="-155" font-family="Helvetica,sans-Serif" font-size="10.00">TEST_F</text>
</a>
</g>
</g>
<!-- Node1&#45;&gt;Node17 -->
<g id="edge17_Node000001_Node000017" class="edge">
<title>Node1&#45;&gt;Node17</title>
<g id="a_edge17_Node000001_Node000017"><a xlink:title=" ">
<path fill="none" stroke="#63b8ff" d="M410.43,-157.5C397.04,-157.5 383.69,-157.5 372.75,-157.5"/>
<polygon fill="#63b8ff" stroke="#63b8ff" points="410.64,-161 420.64,-157.5 410.64,-154 410.64,-161"/>
</a>
</g>
</g>
<!-- Node18 -->
<g id="Node000018" class="node">
<title>Node18</title>
<g id="a_Node000018"><a xlink:href="test__accept_connections_8cpp.html#aa2bdfce89a8f2540cc790305d84758cc" target="_top" xlink:title=" ">
<polygon fill="white" stroke="#666666" points="372.5,-130 320.5,-130 320.5,-111 372.5,-111 372.5,-130"/>
<text text-anchor="middle" x="346.5" y="-118" font-family="Helvetica,sans-Serif" font-size="10.00">TEST_F</text>
</a>
</g>
</g>
<!-- Node1&#45;&gt;Node18 -->
<g id="edge18_Node000001_Node000018" class="edge">
<title>Node1&#45;&gt;Node18</title>
<g id="a_edge18_Node000001_Node000018"><a xlink:title=" ">
<path fill="none" stroke="#63b8ff" d="M432.14,-145.16C412.5,-139.44 389.82,-132.83 372.88,-127.89"/>
<polygon fill="#63b8ff" stroke="#63b8ff" points="431.21,-148.53 441.79,-147.97 433.17,-141.81 431.21,-148.53"/>
</a>
</g>
</g>
<!-- Node19 -->
<g id="Node000019" class="node">
<title>Node19</title>
<g id="a_Node000019"><a xlink:href="test__accept_connections_8cpp.html#acdd50ab57241500f8d264a71e640923d" target="_top" xlink:title=" ">
<polygon fill="white" stroke="#666666" points="372.5,-93 320.5,-93 320.5,-74 372.5,-74 372.5,-93"/>
<text text-anchor="middle" x="346.5" y="-81" font-family="Helvetica,sans-Serif" font-size="10.00">TEST_F</text>
</a>
</g>
</g>
<!-- Node1&#45;&gt;Node19 -->
<g id="edge19_Node000001_Node000019" class="edge">
<title>Node1&#45;&gt;Node19</title>
<g id="a_edge19_Node000001_Node000019"><a xlink:title=" ">
<path fill="none" stroke="#63b8ff" d="M451.66,-142.22C433.82,-130.53 408.24,-114.3 385,-101.5 379.81,-98.64 374.1,-95.77 368.73,-93.18"/>
<polygon fill="#63b8ff" stroke="#63b8ff" points="449.95,-145.29 460.23,-147.87 453.81,-139.44 449.95,-145.29"/>
</a>
</g>
</g>
<!-- Node20 -->
<g id="Node000020" class="node">
<title>Node20</title>
<g id="a_Node000020"><a xlink:href="test__accept_connections_8cpp.html#a44991816aa7987d964b5c8ff3d5adf3c" target="_top" xlink:title=" ">
<polygon fill="white" stroke="#666666" points="372.5,-56 320.5,-56 320.5,-37 372.5,-37 372.5,-56"/>
<text text-anchor="middle" x="346.5" y="-44" font-family="Helvetica,sans-Serif" font-size="10.00">TEST_F</text>
</a>
</g>
</g>
<!-- Node1&#45;&gt;Node20 -->
<g id="edge20_Node000001_Node000020" class="edge">
<title>Node1&#45;&gt;Node20</title>
<g id="a_edge20_Node000001_Node000020"><a xlink:title=" ">
<path fill="none" stroke="#63b8ff" d="M460.89,-139.95C444.56,-119.76 415.53,-86.57 385,-64.5 380.67,-61.37 375.71,-58.54 370.85,-56.11"/>
<polygon fill="#63b8ff" stroke="#63b8ff" points="458.31,-142.33 467.27,-147.98 463.79,-137.97 458.31,-142.33"/>
</a>
</g>
</g>
<!-- Node21 -->
<g id="Node000021" class="node">
<title>Node21</title>
<g id="a_Node000021"><a xlink:href="test__accept_connections_8cpp.html#a05643f7a40ac0149a8bd8603e4a3b45b" target="_top" xlink:title=" ">
<polygon fill="white" stroke="#666666" points="372.5,-19 320.5,-19 320.5,0 372.5,0 372.5,-19"/>
<text text-anchor="middle" x="346.5" y="-7" font-family="Helvetica,sans-Serif" font-size="10.00">TEST_F</text>
</a>
</g>
</g>
<!-- Node1&#45;&gt;Node21 -->
<g id="edge21_Node000001_Node000021" class="edge">
<title>Node1&#45;&gt;Node21</title>
<g id="a_edge21_Node000001_Node000021"><a xlink:title=" ">
<path fill="none" stroke="#63b8ff" d="M465.43,-138.41C451.5,-110.81 422.48,-59.56 385,-27.5 381.27,-24.31 376.87,-21.54 372.43,-19.2"/>
<polygon fill="#63b8ff" stroke="#63b8ff" points="462.46,-140.31 470.01,-147.74 468.75,-137.22 462.46,-140.31"/>
</a>
</g>
</g>
<!-- Node3 -->
<g id="Node000003" class="node">
<title>Node3</title>
<g id="a_Node000003"><a xlink:href="_server_8cpp.html#ab66b27c2186daacb15a6b13dd43be31b" target="_top" xlink:title="Runs the main event loop with a server object.">
<polygon fill="white" stroke="#666666" points="141,-427 77,-427 77,-408 141,-408 141,-427"/>
<text text-anchor="middle" x="109" y="-415" font-family="Helvetica,sans-Serif" font-size="10.00">runServer</text>
</a>
</g>
</g>
<!-- Node2&#45;&gt;Node3 -->
<g id="edge2_Node000002_Node000003" class="edge">
<title>Node2&#45;&gt;Node3</title>
<g id="a_edge2_Node000002_Node000003"><a xlink:title=" ">
<path fill="none" stroke="#63b8ff" d="M336.52,-324.17C324.93,-346.04 302.54,-381.44 272,-398.5 231.08,-421.35 175.36,-422.6 141.08,-420.62"/>
<polygon fill="#63b8ff" stroke="#63b8ff" points="339.68,-325.69 341.08,-315.19 333.44,-322.52 339.68,-325.69"/>
</a>
</g>
</g>
<!-- Node5 -->
<g id="Node000005" class="node">
<title>Node5</title>
<g id="a_Node000005"><a xlink:href="_server_8cpp.html#a115ecd76e344c1007bedc48b9bbdc0fa" target="_top" xlink:title="Performs a graceful shutdown of the server.">
<polygon fill="white" stroke="#666666" points="272,-389 177,-389 177,-370 272,-370 272,-389"/>
<text text-anchor="middle" x="224.5" y="-377" font-family="Helvetica,sans-Serif" font-size="10.00">shutdownServer</text>
</a>
</g>
</g>
<!-- Node2&#45;&gt;Node5 -->
<g id="edge4_Node000002_Node000005" class="edge">
<title>Node2&#45;&gt;Node5</title>
<g id="a_edge4_Node000002_Node000005"><a xlink:title=" ">
<path fill="none" stroke="#63b8ff" d="M327.12,-321.85C312.83,-333.96 292.13,-350.24 272,-361.5 266.41,-364.63 260.17,-367.45 254.11,-369.89"/>
<polygon fill="#63b8ff" stroke="#63b8ff" points="329.45,-324.46 334.73,-315.28 324.87,-319.17 329.45,-324.46"/>
</a>
</g>
</g>
<!-- Node9 -->
<g id="Node000009" class="node">
<title>Node9</title>
<g id="a_Node000009"><a xlink:href="test__handle_event_8cpp.html#a6b02b237de8284e0c133cf8411401e71" target="_top" xlink:title=" ">
<polygon fill="white" stroke="#666666" points="250.5,-352 198.5,-352 198.5,-333 250.5,-333 250.5,-352"/>
<text text-anchor="middle" x="224.5" y="-340" font-family="Helvetica,sans-Serif" font-size="10.00">TEST_F</text>
</a>
</g>
</g>
<!-- Node2&#45;&gt;Node9 -->
<g id="edge9_Node000002_Node000009" class="edge">
<title>Node2&#45;&gt;Node9</title>
<g id="a_edge9_Node000002_Node000009"><a xlink:title=" ">
<path fill="none" stroke="#63b8ff" d="M304.92,-318.01C286.94,-323.56 266.35,-329.9 250.64,-334.75"/>
<polygon fill="#63b8ff" stroke="#63b8ff" points="306.07,-321.32 314.6,-315.03 304.01,-314.63 306.07,-321.32"/>
</a>
</g>
</g>
<!-- Node10 -->
<g id="Node000010" class="node">
<title>Node10</title>
<g id="a_Node000010"><a xlink:href="test__handle_event_8cpp.html#a2d9ba98f6de6c5e0452b99c6f764e1b4" target="_top" xlink:title=" ">
<polygon fill="white" stroke="#666666" points="250.5,-315 198.5,-315 198.5,-296 250.5,-296 250.5,-315"/>
<text text-anchor="middle" x="224.5" y="-303" font-family="Helvetica,sans-Serif" font-size="10.00">TEST_F</text>
</a>
</g>
</g>
<!-- Node2&#45;&gt;Node10 -->
<g id="edge10_Node000002_Node000010" class="edge">
<title>Node2&#45;&gt;Node10</title>
<g id="a_edge10_Node000002_Node000010"><a xlink:title=" ">
<path fill="none" stroke="#63b8ff" d="M297.51,-305.5C281.41,-305.5 264.11,-305.5 250.5,-305.5"/>
<polygon fill="#63b8ff" stroke="#63b8ff" points="297.86,-309 307.86,-305.5 297.86,-302 297.86,-309"/>
</a>
</g>
</g>
<!-- Node11 -->
<g id="Node000011" class="node">
<title>Node11</title>
<g id="a_Node000011"><a xlink:href="test__handle_event_8cpp.html#ac379b830f0bc030cee7bfb4dc8ef2a06" target="_top" xlink:title=" ">
<polygon fill="white" stroke="#666666" points="250.5,-278 198.5,-278 198.5,-259 250.5,-259 250.5,-278"/>
<text text-anchor="middle" x="224.5" y="-266" font-family="Helvetica,sans-Serif" font-size="10.00">TEST_F</text>
</a>
</g>
</g>
<!-- Node2&#45;&gt;Node11 -->
<g id="edge11_Node000002_Node000011" class="edge">
<title>Node2&#45;&gt;Node11</title>
<g id="a_edge11_Node000002_Node000011"><a xlink:title=" ">
<path fill="none" stroke="#63b8ff" d="M304.92,-292.99C286.94,-287.44 266.35,-281.1 250.64,-276.25"/>
<polygon fill="#63b8ff" stroke="#63b8ff" points="304.01,-296.37 314.6,-295.97 306.07,-289.68 304.01,-296.37"/>
</a>
</g>
</g>
<!-- Node12 -->
<g id="Node000012" class="node">
<title>Node12</title>
<g id="a_Node000012"><a xlink:href="test__handle_event_8cpp.html#a174d935df4191823bf4798918aa794ee" target="_top" xlink:title=" ">
<polygon fill="white" stroke="#666666" points="250.5,-241 198.5,-241 198.5,-222 250.5,-222 250.5,-241"/>
<text text-anchor="middle" x="224.5" y="-229" font-family="Helvetica,sans-Serif" font-size="10.00">TEST_F</text>
</a>
</g>
</g>
<!-- Node2&#45;&gt;Node12 -->
<g id="edge12_Node000002_Node000012" class="edge">
<title>Node2&#45;&gt;Node12</title>
<g id="a_edge12_Node000002_Node000012"><a xlink:title=" ">
<path fill="none" stroke="#63b8ff" d="M314.51,-290.85C312.25,-289.47 310.06,-288.01 308,-286.5 289.52,-272.91 291.14,-262.15 272,-249.5 265.5,-245.2 257.82,-241.7 250.6,-238.97"/>
<polygon fill="#63b8ff" stroke="#63b8ff" points="312.93,-293.98 323.37,-295.81 316.35,-287.87 312.93,-293.98"/>
</a>
</g>
</g>
<!-- Node13 -->
<g id="Node000013" class="node">
<title>Node13</title>
<g id="a_Node000013"><a xlink:href="test__handle_event_8cpp.html#a00f6ce6db41fce20edc0e6febca98965" target="_top" xlink:title=" ">
<polygon fill="white" stroke="#666666" points="250.5,-204 198.5,-204 198.5,-185 250.5,-185 250.5,-204"/>
<text text-anchor="middle" x="224.5" y="-192" font-family="Helvetica,sans-Serif" font-size="10.00">TEST_F</text>
</a>
</g>
</g>
<!-- Node2&#45;&gt;Node13 -->
<g id="edge13_Node000002_Node000013" class="edge">
<title>Node2&#45;&gt;Node13</title>
<g id="a_edge13_Node000002_Node000013"><a xlink:title=" ">
<path fill="none" stroke="#63b8ff" d="M312.48,-290.46C310.89,-289.22 309.38,-287.9 308,-286.5 282.35,-260.43 298.92,-237.26 272,-212.5 266.01,-206.99 258.15,-203.1 250.6,-200.38"/>
<polygon fill="#63b8ff" stroke="#63b8ff" points="310.65,-293.45 320.94,-295.97 314.47,-287.58 310.65,-293.45"/>
</a>
</g>
</g>
<!-- Node4 -->
<g id="Node000004" class="node">
<title>Node4</title>
<g id="a_Node000004"><a xlink:href="main_8cpp.html#ad53223b8779f25caeddb70a3b9172967" target="_top" xlink:title=" ">
<polygon fill="white" stroke="#666666" points="41,-427 0,-427 0,-408 41,-408 41,-427"/>
<text text-anchor="middle" x="20.5" y="-415" font-family="Helvetica,sans-Serif" font-size="10.00">main</text>
</a>
</g>
</g>
<!-- Node3&#45;&gt;Node4 -->
<g id="edge3_Node000003_Node000004" class="edge">
<title>Node3&#45;&gt;Node4</title>
<g id="a_edge3_Node000003_Node000004"><a xlink:title=" ">
<path fill="none" stroke="#63b8ff" d="M66.5,-417.5C57.64,-417.5 48.68,-417.5 41.11,-417.5"/>
<polygon fill="#63b8ff" stroke="#63b8ff" points="66.77,-421 76.77,-417.5 66.77,-414 66.77,-421"/>
</a>
</g>
</g>
<!-- Node5&#45;&gt;Node3 -->
<g id="edge5_Node000005_Node000003" class="edge">
<title>Node5&#45;&gt;Node3</title>
<g id="a_edge5_Node000005_Node000003"><a xlink:title=" ">
<path fill="none" stroke="#63b8ff" d="M185.19,-392.33C169.96,-397.42 152.74,-403.19 138.63,-407.91"/>
<polygon fill="#63b8ff" stroke="#63b8ff" points="186.49,-395.58 194.86,-389.09 184.27,-388.94 186.49,-395.58"/>
</a>
</g>
</g>
<!-- Node6 -->
<g id="Node000006" class="node">
<title>Node6</title>
<g id="a_Node000006"><a xlink:href="test__shutdown_server_8cpp.html#a6462dc91a572c9969b759806ed15590b" target="_top" xlink:title=" ">
<polygon fill="white" stroke="#666666" points="135,-390 83,-390 83,-371 135,-371 135,-390"/>
<text text-anchor="middle" x="109" y="-378" font-family="Helvetica,sans-Serif" font-size="10.00">TEST_F</text>
</a>
</g>
</g>
<!-- Node5&#45;&gt;Node6 -->
<g id="edge6_Node000005_Node000006" class="edge">
<title>Node5&#45;&gt;Node6</title>
<g id="a_edge6_Node000005_Node000006"><a xlink:title=" ">
<path fill="none" stroke="#63b8ff" d="M166.63,-380C155.63,-380.1 144.64,-380.19 135.3,-380.28"/>
<polygon fill="#63b8ff" stroke="#63b8ff" points="166.71,-383.5 176.68,-379.91 166.65,-376.5 166.71,-383.5"/>
</a>
</g>
</g>
<!-- Node7 -->
<g id="Node000007" class="node">
<title>Node7</title>
<g id="a_Node000007"><a xlink:href="test__shutdown_server_8cpp.html#a69fea7b0fb329821fdd955271edc65ee" target="_top" xlink:title=" ">
<polygon fill="white" stroke="#666666" points="135,-353 83,-353 83,-334 135,-334 135,-353"/>
<text text-anchor="middle" x="109" y="-341" font-family="Helvetica,sans-Serif" font-size="10.00">TEST_F</text>
</a>
</g>
</g>
<!-- Node5&#45;&gt;Node7 -->
<g id="edge7_Node000005_Node000007" class="edge">
<title>Node5&#45;&gt;Node7</title>
<g id="a_edge7_Node000005_Node000007"><a xlink:title=" ">
<path fill="none" stroke="#63b8ff" d="M183.67,-366.87C167.58,-361.76 149.49,-356.03 135.26,-351.51"/>
<polygon fill="#63b8ff" stroke="#63b8ff" points="182.79,-370.26 193.38,-369.95 184.91,-363.59 182.79,-370.26"/>
</a>
</g>
</g>
<!-- Node8 -->
<g id="Node000008" class="node">
<title>Node8</title>
<g id="a_Node000008"><a xlink:href="test__shutdown_server_8cpp.html#a224e0b58937c3db439ffeef179620439" target="_top" xlink:title=" ">
<polygon fill="white" stroke="#666666" points="135,-316 83,-316 83,-297 135,-297 135,-316"/>
<text text-anchor="middle" x="109" y="-304" font-family="Helvetica,sans-Serif" font-size="10.00">TEST_F</text>
</a>
</g>
</g>
<!-- Node5&#45;&gt;Node8 -->
<g id="edge8_Node000005_Node000008" class="edge">
<title>Node5&#45;&gt;Node8</title>
<g id="a_edge8_Node000005_Node000008"><a xlink:title=" ">
<path fill="none" stroke="#63b8ff" d="M183.77,-365.5C181.43,-364.25 179.15,-362.92 177,-361.5 157.86,-348.85 159.09,-338.61 141,-324.5 137.17,-321.51 132.8,-318.68 128.57,-316.17"/>
<polygon fill="#63b8ff" stroke="#63b8ff" points="182.51,-368.78 193.04,-369.89 185.5,-362.45 182.51,-368.78"/>
</a>
</g>
</g>
</g>
</svg>

<g id="navigator" transform="translate(0 0)" fill="#404254">
  <rect fill="#f2f5e9" fill-opacity="0.5" stroke="#606060" stroke-width=".5" x="0" y="0" width="60" height="60"/>
  <use id="zoomplus" xlink:href="#zoomPlus" x="17" y="9" onmousedown="handleZoom(evt,'in')"/>
  <use id="zoomminus" xlink:href="#zoomMin" x="42" y="9" onmousedown="handleZoom(evt,'out')"/>
  <use id="reset" xlink:href="#resetDef" x="30" y="36" onmousedown="handleReset()"/>
   <use id="arrowup" xlink:href="#arrowUp" x="0" y="0" onmousedown="handlePan(0,-1)"/>
  <use id="arrowright" xlink:href="#arrowRight" x="0" y="0" onmousedown="handlePan(1,0)"/>
  <use id="arrowdown" xlink:href="#arrowDown" x="0" y="0" onmousedown="handlePan(0,1)"/>
  <use id="arrowleft" xlink:href="#arrowLeft" x="0" y="0" onmousedown="handlePan(-1,0)"/>
</g>
<svg viewBox="0 0 15 15" width="100%" height="30px" preserveAspectRatio="xMaxYMin meet">
 <g id="arrow_out" transform="scale(0.3 0.3)">
  <a xlink:href="_server_8cpp_adb579f3d67061d752e882e6fb3ef6f18_icgraph_org.svg" target="_base">
   <rect id="button" ry="5" rx="5" y="6" x="6" height="38" width="38"
        fill="#f2f5e9" fill-opacity="0.5" stroke="#606060" stroke-width="1.0"/>
   <path id="arrow"
     d="M 11.500037,31.436501 C 11.940474,20.09759 22.043105,11.32322 32.158766,21.979434 L 37.068811,17.246167 C 37.068811,17.246167 37.088388,32 37.088388,32 L 22.160133,31.978069 C 22.160133,31.978069 26.997745,27.140456 26.997745,27.140456 C 18.528582,18.264221 13.291696,25.230495 11.500037,31.436501 z"
     style="fill:#404040;"/>
  </a>
 </g>
</svg>

<style type='text/css'>
<![CDATA[
[data-mouse-over-selected='false'] { opacity: 0.7; }
[data-mouse-over-selected='true']  { opacity: 1.0; }
]]>
</style>
<script type="application/ecmascript"><![CDATA[
document.addEventListener('DOMContentLoaded', (event) => {
  highlightEdges();
  highlightAdjacentNodes();
});
]]></script>
</svg>
