<?xml version="1.0" encoding="UTF-8" standalone="no"?>
<!DOCTYPE svg PUBLIC "-//W3C//DTD SVG 1.1//EN"
 "http://www.w3.org/Graphics/SVG/1.1/DTD/svg11.dtd">
<!-- Generated by graphviz version 2.43.0 (0)
 -->
<!-- Title: checkForTimeout Pages: 1 -->
<svg width="417pt" height="104pt"
 viewBox="0.00 0.00 417.00 104.00" xmlns="http://www.w3.org/2000/svg" xmlns:xlink="http://www.w3.org/1999/xlink">
<g id="graph0" class="graph" transform="scale(1 1) rotate(0) translate(4 100)">
<title>checkForTimeout</title>
<!-- Node1 -->
<g id="node1" class="node">
<title>Node1</title>
<g id="a_node1"><a xlink:title="Iterates through all connections and checks if any have timed out.">
<polygon fill="#bfbfbf" stroke="black" points="308,-38.5 308,-57.5 409,-57.5 409,-38.5 308,-38.5"/>
<text text-anchor="middle" x="358.5" y="-45.5" font-family="Helvetica,sans-Serif" font-size="10.00">checkForTimeout</text>
</a>
</g>
</g>
<!-- Node2 -->
<g id="node2" class="node">
<title>Node2</title>
<g id="a_node2"><a xlink:href="_server_8hpp.html#ab66b27c2186daacb15a6b13dd43be31b" target="_top" xlink:title="Runs the main event loop with a server object.">
<polygon fill="none" stroke="black" points="77,-76.5 77,-95.5 141,-95.5 141,-76.5 77,-76.5"/>
<text text-anchor="middle" x="109" y="-83.5" font-family="Helvetica,sans-Serif" font-size="10.00">runServer</text>
</a>
</g>
</g>
<!-- Node1&#45;&gt;Node2 -->
<g id="edge1" class="edge">
<title>Node1&#45;&gt;Node2</title>
<path fill="none" stroke="midnightblue" d="M308.7,-59.74C296.74,-62.37 283.95,-64.98 272,-67 226.77,-74.66 173.91,-80.23 141.19,-83.29"/>
<polygon fill="midnightblue" stroke="midnightblue" points="309.51,-63.15 318.51,-57.54 307.98,-56.32 309.51,-63.15"/>
</g>
<!-- Node4 -->
<g id="node4" class="node">
<title>Node4</title>
<g id="a_node4"><a xlink:href="_server_8hpp.html#a115ecd76e344c1007bedc48b9bbdc0fa" target="_top" xlink:title="Performs a graceful shutdown of the server.">
<polygon fill="none" stroke="black" points="177,-38.5 177,-57.5 272,-57.5 272,-38.5 177,-38.5"/>
<text text-anchor="middle" x="224.5" y="-45.5" font-family="Helvetica,sans-Serif" font-size="10.00">shutdownServer</text>
</a>
</g>
</g>
<!-- Node1&#45;&gt;Node4 -->
<g id="edge3" class="edge">
<title>Node1&#45;&gt;Node4</title>
<path fill="none" stroke="midnightblue" d="M297.96,-48C289.34,-48 280.57,-48 272.25,-48"/>
<polygon fill="midnightblue" stroke="midnightblue" points="297.97,-51.5 307.97,-48 297.97,-44.5 297.97,-51.5"/>
</g>
<!-- Node6 -->
<g id="node6" class="node">
<title>Node6</title>
<g id="a_node6"><a xlink:href="test__check_for_timeout_8cpp.html#aa104b7ee8b0b5c5b33b6409f6450eeb6" target="_top" xlink:title=" ">
<polygon fill="none" stroke="black" points="198.5,-0.5 198.5,-19.5 250.5,-19.5 250.5,-0.5 198.5,-0.5"/>
<text text-anchor="middle" x="224.5" y="-7.5" font-family="Helvetica,sans-Serif" font-size="10.00">TEST_F</text>
</a>
</g>
</g>
<!-- Node1&#45;&gt;Node6 -->
<g id="edge6" class="edge">
<title>Node1&#45;&gt;Node6</title>
<path fill="none" stroke="midnightblue" d="M314.51,-35.62C293.48,-29.57 268.88,-22.49 250.88,-17.31"/>
<polygon fill="midnightblue" stroke="midnightblue" points="313.61,-39.01 324.19,-38.41 315.55,-32.28 313.61,-39.01"/>
</g>
<!-- Node3 -->
<g id="node3" class="node">
<title>Node3</title>
<g id="a_node3"><a xlink:href="main_8cpp.html#a3c04138a5bfe5d72780bb7e82a18e627" target="_top" xlink:title=" ">
<polygon fill="none" stroke="black" points="0,-76.5 0,-95.5 41,-95.5 41,-76.5 0,-76.5"/>
<text text-anchor="middle" x="20.5" y="-83.5" font-family="Helvetica,sans-Serif" font-size="10.00">main</text>
</a>
</g>
</g>
<!-- Node2&#45;&gt;Node3 -->
<g id="edge2" class="edge">
<title>Node2&#45;&gt;Node3</title>
<path fill="none" stroke="midnightblue" d="M66.5,-86C57.64,-86 48.68,-86 41.11,-86"/>
<polygon fill="midnightblue" stroke="midnightblue" points="66.77,-89.5 76.77,-86 66.77,-82.5 66.77,-89.5"/>
</g>
<!-- Node4&#45;&gt;Node2 -->
<g id="edge4" class="edge">
<title>Node4&#45;&gt;Node2</title>
<path fill="none" stroke="midnightblue" d="M185.19,-60.83C169.96,-65.92 152.74,-71.69 138.63,-76.41"/>
<polygon fill="midnightblue" stroke="midnightblue" points="186.49,-64.08 194.86,-57.59 184.27,-57.44 186.49,-64.08"/>
</g>
<!-- Node5 -->
<g id="node5" class="node">
<title>Node5</title>
<g id="a_node5"><a xlink:href="test__shutdown_server_8cpp.html#ac2c8b4566d61e62572e54d61350a3db2" target="_top" xlink:title=" ">
<polygon fill="none" stroke="black" points="83,-38.5 83,-57.5 135,-57.5 135,-38.5 83,-38.5"/>
<text text-anchor="middle" x="109" y="-45.5" font-family="Helvetica,sans-Serif" font-size="10.00">TEST_F</text>
</a>
</g>
</g>
<!-- Node4&#45;&gt;Node5 -->
<g id="edge5" class="edge">
<title>Node4&#45;&gt;Node5</title>
<path fill="none" stroke="midnightblue" d="M166.63,-48C155.63,-48 144.64,-48 135.3,-48"/>
<polygon fill="midnightblue" stroke="midnightblue" points="166.68,-51.5 176.68,-48 166.68,-44.5 166.68,-51.5"/>
</g>
</g>
</svg>
