<?xml version="1.0" encoding="UTF-8" standalone="no"?>
<!DOCTYPE svg PUBLIC "-//W3C//DTD SVG 1.1//EN"
 "http://www.w3.org/Graphics/SVG/1.1/DTD/svg11.dtd">
<!-- Generated by graphviz version 2.43.0 (0)
 -->
<!-- Title: connectionReceiveHeader Pages: 1 -->
<svg width="956pt" height="421pt"
 viewBox="0.00 0.00 956.00 420.50" xmlns="http://www.w3.org/2000/svg" xmlns:xlink="http://www.w3.org/1999/xlink">
<g id="graph0" class="graph" transform="scale(1 1) rotate(0) translate(4 416.5)">
<title>connectionReceiveHeader</title>
<!-- Node1 -->
<g id="Node000001" class="node">
<title>Node1</title>
<g id="a_Node000001"><a xlink:title="Receive request header from a client.">
<polygon fill="#999999" stroke="#666666" points="144,-138 0,-138 0,-119 144,-119 144,-138"/>
<text text-anchor="middle" x="72" y="-126" font-family="Helvetica,sans-Serif" font-size="10.00">connectionReceiveHeader</text>
</a>
</g>
</g>
<!-- Node2 -->
<g id="Node000002" class="node">
<title>Node2</title>
<g id="a_Node000002"><a xlink:href="class_server.html#a45f1691489d81cdd6acc640d96d5046b" target="_top" xlink:title="Getter for client header buffer.">
<polygon fill="white" stroke="#666666" points="347.5,-222 184.5,-222 184.5,-203 347.5,-203 347.5,-222"/>
<text text-anchor="middle" x="266" y="-210" font-family="Helvetica,sans-Serif" font-size="10.00">Server::getClientHeaderBuffer</text>
</a>
</g>
</g>
<!-- Node1&#45;&gt;Node2 -->
<g id="edge1_Node000001_Node000002" class="edge">
<title>Node1&#45;&gt;Node2</title>
<g id="a_edge1_Node000001_Node000002"><a xlink:title=" ">
<path fill="none" stroke="#63b8ff" d="M85.77,-138.18C105.13,-152.39 143.51,-178.8 180,-193.5 186.31,-196.04 193.04,-198.28 199.83,-200.24"/>
<polygon fill="#63b8ff" stroke="#63b8ff" points="199.22,-203.7 209.79,-202.91 201.04,-196.94 199.22,-203.7"/>
</a>
</g>
</g>
<!-- Node3 -->
<g id="Node000003" class="node">
<title>Node3</title>
<g id="a_Node000003"><a xlink:href="_server_8cpp.html#a83350eae81b96dd7b301d1238268ffdb" target="_top" xlink:title="Handles the complete request header received from a client.">
<polygon fill="white" stroke="#666666" points="352,-185 180,-185 180,-166 352,-166 352,-185"/>
<text text-anchor="middle" x="266" y="-173" font-family="Helvetica,sans-Serif" font-size="10.00">handleCompleteRequestHeader</text>
</a>
</g>
</g>
<!-- Node1&#45;&gt;Node3 -->
<g id="edge2_Node000001_Node000003" class="edge">
<title>Node1&#45;&gt;Node3</title>
<g id="a_edge2_Node000001_Node000003"><a xlink:title=" ">
<path fill="none" stroke="#63b8ff" d="M111.85,-138.01C141.81,-145.34 183.45,-155.54 215.74,-163.44"/>
<polygon fill="#63b8ff" stroke="#63b8ff" points="215.33,-166.94 225.87,-165.92 216.99,-160.15 215.33,-166.94"/>
</a>
</g>
</g>
<!-- Node14 -->
<g id="Node000014" class="node">
<title>Node14</title>
<g id="a_Node000014"><a xlink:href="class_server.html#afab1a4ec9e524b0dae8f60080642e7fe" target="_top" xlink:title="Wrapper function to EpollWrapper::modifyEvent.">
<polygon fill="white" stroke="#666666" points="534,-56 418,-56 418,-37 534,-37 534,-56"/>
<text text-anchor="middle" x="476" y="-44" font-family="Helvetica,sans-Serif" font-size="10.00">Server::modifyEvent</text>
</a>
</g>
</g>
<!-- Node1&#45;&gt;Node14 -->
<g id="edge22_Node000001_Node000014" class="edge">
<title>Node1&#45;&gt;Node14</title>
<g id="a_edge22_Node000001_Node000014"><a xlink:title=" ">
<path fill="none" stroke="#63b8ff" d="M140.12,-138C199.27,-143.16 286.04,-142.7 352,-108.5 374.43,-96.87 366.39,-77.59 388,-64.5 394.17,-60.76 400.98,-57.79 408.01,-55.43"/>
<polygon fill="#63b8ff" stroke="#63b8ff" points="409.07,-58.77 417.67,-52.57 407.09,-52.05 409.07,-58.77"/>
</a>
</g>
</g>
<!-- Node22 -->
<g id="Node000022" class="node">
<title>Node22</title>
<g id="a_Node000022"><a xlink:href="_server_8cpp.html#a172c400277e73261d212c33f66226090" target="_top" xlink:title="Checks if the connection buffer contains a request header.">
<polygon fill="white" stroke="#666666" points="339.5,-100 192.5,-100 192.5,-81 339.5,-81 339.5,-100"/>
<text text-anchor="middle" x="266" y="-88" font-family="Helvetica,sans-Serif" font-size="10.00">isCompleteRequestHeader</text>
</a>
</g>
</g>
<!-- Node1&#45;&gt;Node22 -->
<g id="edge21_Node000001_Node000022" class="edge">
<title>Node1&#45;&gt;Node22</title>
<g id="a_edge21_Node000001_Node000022"><a xlink:title=" ">
<path fill="none" stroke="#63b8ff" d="M121.45,-118.91C147.47,-113.76 179.73,-107.38 207.07,-101.97"/>
<polygon fill="#63b8ff" stroke="#63b8ff" points="207.77,-105.4 216.9,-100.02 206.41,-98.53 207.77,-105.4"/>
</a>
</g>
</g>
<!-- Node23 -->
<g id="Node000023" class="node">
<title>Node23</title>
<g id="a_Node000023"><a xlink:href="class_server.html#ae94e3d4b5743580a6fbe3228d58af423" target="_top" xlink:title="Wrapper function to SocketPolicy::readFromSocket.">
<polygon fill="white" stroke="#666666" points="332.5,-46 199.5,-46 199.5,-27 332.5,-27 332.5,-46"/>
<text text-anchor="middle" x="266" y="-34" font-family="Helvetica,sans-Serif" font-size="10.00">Server::readFromSocket</text>
</a>
</g>
</g>
<!-- Node1&#45;&gt;Node23 -->
<g id="edge23_Node000001_Node000023" class="edge">
<title>Node1&#45;&gt;Node23</title>
<g id="a_edge23_Node000001_Node000023"><a xlink:title=" ">
<path fill="none" stroke="#63b8ff" d="M89.79,-118.89C110.63,-107.11 147.44,-86.83 180,-71.5 196.23,-63.86 214.59,-56.18 230.08,-49.97"/>
<polygon fill="#63b8ff" stroke="#63b8ff" points="231.79,-53.06 239.8,-46.12 229.21,-46.55 231.79,-53.06"/>
</a>
</g>
</g>
<!-- Node4 -->
<g id="Node000004" class="node">
<title>Node4</title>
<g id="a_Node000004"><a xlink:href="class_server.html#a002dd2fd1e6f0f4290568b4d94f39594" target="_top" xlink:title="Wrapper function to TargetResourceHandler::execute.">
<polygon fill="white" stroke="#666666" points="549.5,-315 402.5,-315 402.5,-296 549.5,-296 549.5,-315"/>
<text text-anchor="middle" x="476" y="-303" font-family="Helvetica,sans-Serif" font-size="10.00">Server::findTargetResource</text>
</a>
</g>
</g>
<!-- Node3&#45;&gt;Node4 -->
<g id="edge3_Node000003_Node000004" class="edge">
<title>Node3&#45;&gt;Node4</title>
<g id="a_edge3_Node000003_Node000004"><a xlink:title=" ">
<path fill="none" stroke="#63b8ff" d="M339.1,-185.12C343.74,-187.41 348.1,-190.17 352,-193.5 386.02,-222.55 353.91,-258.52 388,-287.5 389.77,-289 391.63,-290.39 393.56,-291.67"/>
<polygon fill="#63b8ff" stroke="#63b8ff" points="392.03,-294.83 402.47,-296.63 395.44,-288.71 392.03,-294.83"/>
</a>
</g>
</g>
<!-- Node6 -->
<g id="Node000006" class="node">
<title>Node6</title>
<g id="a_Node000006"><a xlink:href="class_server.html#aad2be3b48155c6eb508bca4b1af3db97" target="_top" xlink:title="Getter for cgiConnections.">
<polygon fill="white" stroke="#666666" points="549.5,-278 402.5,-278 402.5,-259 549.5,-259 549.5,-278"/>
<text text-anchor="middle" x="476" y="-266" font-family="Helvetica,sans-Serif" font-size="10.00">Server::getCGIConnections</text>
</a>
</g>
</g>
<!-- Node3&#45;&gt;Node6 -->
<g id="edge5_Node000003_Node000006" class="edge">
<title>Node3&#45;&gt;Node6</title>
<g id="a_edge5_Node000003_Node000006"><a xlink:title=" ">
<path fill="none" stroke="#63b8ff" d="M336.28,-185.13C341.84,-187.38 347.17,-190.14 352,-193.5 376.59,-210.62 363.37,-233.44 388,-250.5 390.11,-251.96 392.31,-253.31 394.58,-254.55"/>
<polygon fill="#63b8ff" stroke="#63b8ff" points="393.13,-257.73 403.66,-258.83 396.11,-251.4 393.13,-257.73"/>
</a>
</g>
</g>
<!-- Node7 -->
<g id="Node000007" class="node">
<title>Node7</title>
<g id="a_Node000007"><a xlink:href="class_server.html#a1f8929bed093f869374cb81da4d97505" target="_top" xlink:title="Const Getter for connections.">
<polygon fill="white" stroke="#666666" points="541,-241 411,-241 411,-222 541,-222 541,-241"/>
<text text-anchor="middle" x="476" y="-229" font-family="Helvetica,sans-Serif" font-size="10.00">Server::getConnections</text>
</a>
</g>
</g>
<!-- Node3&#45;&gt;Node7 -->
<g id="edge6_Node000003_Node000007" class="edge">
<title>Node3&#45;&gt;Node7</title>
<g id="a_edge6_Node000003_Node000007"><a xlink:title=" ">
<path fill="none" stroke="#63b8ff" d="M322.95,-185.04C332.76,-187.36 342.78,-190.16 352,-193.5 369.01,-199.66 371.01,-206.29 388,-212.5 395.25,-215.15 402.98,-217.49 410.73,-219.54"/>
<polygon fill="#63b8ff" stroke="#63b8ff" points="409.97,-222.95 420.52,-221.98 411.66,-216.16 409.97,-222.95"/>
</a>
</g>
</g>
<!-- Node8 -->
<g id="Node000008" class="node">
<title>Node8</title>
<g id="a_Node000008"><a xlink:href="class_server.html#a058d2c0df13f61b3e755f412ea56947d" target="_top" xlink:title="Wrapper function to EpollWrapper::getEpollFd.">
<polygon fill="white" stroke="#666666" points="529,-204 423,-204 423,-185 529,-185 529,-204"/>
<text text-anchor="middle" x="476" y="-192" font-family="Helvetica,sans-Serif" font-size="10.00">Server::getEpollFd</text>
</a>
</g>
</g>
<!-- Node3&#45;&gt;Node8 -->
<g id="edge7_Node000003_Node000008" class="edge">
<title>Node3&#45;&gt;Node8</title>
<g id="a_edge7_Node000003_Node000008"><a xlink:title=" ">
<path fill="none" stroke="#63b8ff" d="M352.2,-183.28C372.46,-185.13 393.7,-187.07 412.71,-188.81"/>
<polygon fill="#63b8ff" stroke="#63b8ff" points="412.45,-192.3 422.73,-189.72 413.09,-185.33 412.45,-192.3"/>
</a>
</g>
</g>
<!-- Node10 -->
<g id="Node000010" class="node">
<title>Node10</title>
<g id="a_Node000010"><a xlink:href="class_server.html#a54745950beb9e321d9a56084501c18e9" target="_top" xlink:title="Const Getter for server configs.">
<polygon fill="white" stroke="#666666" points="544.5,-167 407.5,-167 407.5,-148 544.5,-148 544.5,-167"/>
<text text-anchor="middle" x="476" y="-155" font-family="Helvetica,sans-Serif" font-size="10.00">Server::getServerConfigs</text>
</a>
</g>
</g>
<!-- Node3&#45;&gt;Node10 -->
<g id="edge9_Node000003_Node000010" class="edge">
<title>Node3&#45;&gt;Node10</title>
<g id="a_edge9_Node000003_Node000010"><a xlink:title=" ">
<path fill="none" stroke="#63b8ff" d="M352.2,-168.13C367.15,-166.83 382.64,-165.49 397.37,-164.22"/>
<polygon fill="#63b8ff" stroke="#63b8ff" points="397.77,-167.7 407.43,-163.35 397.16,-160.72 397.77,-167.7"/>
</a>
</g>
</g>
<!-- Node11 -->
<g id="Node000011" class="node">
<title>Node11</title>
<g id="a_Node000011"><a xlink:href="_connection_8cpp.html#a354192f8dd87ca049cf8b7e6de9000da" target="_top" xlink:title="Selects the server configuration for a connection.">
<polygon fill="white" stroke="#666666" points="536,-130 416,-130 416,-111 536,-111 536,-130"/>
<text text-anchor="middle" x="476" y="-118" font-family="Helvetica,sans-Serif" font-size="10.00">hasValidServerConfig</text>
</a>
</g>
</g>
<!-- Node3&#45;&gt;Node11 -->
<g id="edge10_Node000003_Node000011" class="edge">
<title>Node3&#45;&gt;Node11</title>
<g id="a_edge10_Node000003_Node000011"><a xlink:title=" ">
<path fill="none" stroke="#63b8ff" d="M295.64,-165.92C320.02,-157.96 356.08,-146.66 388,-138.5 396.58,-136.31 405.68,-134.19 414.65,-132.23"/>
<polygon fill="#63b8ff" stroke="#63b8ff" points="415.63,-135.6 424.67,-130.09 414.16,-128.76 415.63,-135.6"/>
</a>
</g>
</g>
<!-- Node13 -->
<g id="Node000013" class="node">
<title>Node13</title>
<g id="a_Node000013"><a xlink:href="_server_8cpp.html#a92411155dbfc5d7f43c3f1ac0fe54548" target="_top" xlink:title="Checks if a CGI request is made based on the connection details.">
<polygon fill="white" stroke="#666666" points="523,-93 429,-93 429,-74 523,-74 523,-93"/>
<text text-anchor="middle" x="476" y="-81" font-family="Helvetica,sans-Serif" font-size="10.00">isCGIRequested</text>
</a>
</g>
</g>
<!-- Node3&#45;&gt;Node13 -->
<g id="edge12_Node000003_Node000013" class="edge">
<title>Node3&#45;&gt;Node13</title>
<g id="a_edge12_Node000003_Node000013"><a xlink:title=" ">
<path fill="none" stroke="#63b8ff" d="M302.38,-165.99C318.41,-160.65 337.08,-152.93 352,-142.5 371.87,-128.6 367.04,-113.7 388,-101.5 397.39,-96.03 408.2,-92.21 418.93,-89.55"/>
<polygon fill="#63b8ff" stroke="#63b8ff" points="419.71,-92.96 428.73,-87.41 418.22,-86.12 419.71,-92.96"/>
</a>
</g>
</g>
<!-- Node3&#45;&gt;Node14 -->
<g id="edge13_Node000003_Node000014" class="edge">
<title>Node3&#45;&gt;Node14</title>
<g id="a_edge13_Node000003_Node000014"><a xlink:title=" ">
<path fill="none" stroke="#63b8ff" d="M309.93,-165.9C324.66,-160.9 340.35,-153.45 352,-142.5 379.82,-116.35 358.1,-88.25 388,-64.5 393.9,-59.82 400.71,-56.27 407.87,-53.59"/>
<polygon fill="#63b8ff" stroke="#63b8ff" points="409.32,-56.8 417.8,-50.44 407.21,-50.12 409.32,-56.8"/>
</a>
</g>
</g>
<!-- Node16 -->
<g id="Node000016" class="node">
<title>Node16</title>
<g id="a_Node000016"><a xlink:href="class_server.html#a34bc61299318fe1918293b1d656ee5f9" target="_top" xlink:title="Wrapper function to RequestParser::parseHeader.">
<polygon fill="white" stroke="#666666" points="534,-407 418,-407 418,-388 534,-388 534,-407"/>
<text text-anchor="middle" x="476" y="-395" font-family="Helvetica,sans-Serif" font-size="10.00">Server::parseHeader</text>
</a>
</g>
</g>
<!-- Node3&#45;&gt;Node16 -->
<g id="edge15_Node000003_Node000016" class="edge">
<title>Node3&#45;&gt;Node16</title>
<g id="a_edge15_Node000003_Node000016"><a xlink:title=" ">
<path fill="none" stroke="#63b8ff" d="M340.89,-185.12C344.93,-187.43 348.69,-190.2 352,-193.5 406.06,-247.43 339.11,-302.84 388,-361.5 396.51,-371.71 408.38,-379.06 420.63,-384.35"/>
<polygon fill="#63b8ff" stroke="#63b8ff" points="419.43,-387.63 430.02,-388 421.97,-381.11 419.43,-387.63"/>
</a>
</g>
</g>
<!-- Node19 -->
<g id="Node000019" class="node">
<title>Node19</title>
<g id="a_Node000019"><a xlink:href="class_server.html#abcfb45414689863da69c2e72ac8fc946" target="_top" xlink:title="Register a CGI file descriptor.">
<polygon fill="white" stroke="#666666" points="564,-352 388,-352 388,-333 564,-333 564,-352"/>
<text text-anchor="middle" x="476" y="-340" font-family="Helvetica,sans-Serif" font-size="10.00">Server::registerCGIFileDescriptor</text>
</a>
</g>
</g>
<!-- Node3&#45;&gt;Node19 -->
<g id="edge18_Node000003_Node000019" class="edge">
<title>Node3&#45;&gt;Node19</title>
<g id="a_edge18_Node000003_Node000019"><a xlink:title=" ">
<path fill="none" stroke="#63b8ff" d="M340.28,-185.12C344.52,-187.43 348.49,-190.19 352,-193.5 395.95,-234.91 343.96,-283.2 388,-324.5 388.98,-325.42 390,-326.3 391.04,-327.14"/>
<polygon fill="#63b8ff" stroke="#63b8ff" points="389.33,-330.2 399.6,-332.81 393.2,-324.37 389.33,-330.2"/>
</a>
</g>
</g>
<!-- Node5 -->
<g id="Node000005" class="node">
<title>Node5</title>
<g id="a_Node000005"><a xlink:href="class_target_resource_handler.html#ac3694cb9b73e3f93b874740194539282" target="_top" xlink:title="Determine target resource based on the request path and handle different file types and statuses acco...">
<polygon fill="white" stroke="#666666" points="742.5,-295.5 612.5,-295.5 612.5,-265.5 742.5,-265.5 742.5,-295.5"/>
<text text-anchor="start" x="620.5" y="-283.5" font-family="Helvetica,sans-Serif" font-size="10.00">TargetResourceHandler</text>
<text text-anchor="middle" x="677.5" y="-272.5" font-family="Helvetica,sans-Serif" font-size="10.00">::execute</text>
</a>
</g>
</g>
<!-- Node4&#45;&gt;Node5 -->
<g id="edge4_Node000004_Node000005" class="edge">
<title>Node4&#45;&gt;Node5</title>
<g id="a_edge4_Node000004_Node000005"><a xlink:title=" ">
<path fill="none" stroke="#63b8ff" d="M549.59,-296.4C566.72,-294.26 585.02,-291.96 602.23,-289.81"/>
<polygon fill="#63b8ff" stroke="#63b8ff" points="602.73,-293.27 612.22,-288.56 601.86,-286.33 602.73,-293.27"/>
</a>
</g>
</g>
<!-- Node9 -->
<g id="Node000009" class="node">
<title>Node9</title>
<g id="a_Node000009"><a xlink:href="class_epoll_wrapper.html#af9b96396ae751ae1189a2c1f9da64ae0" target="_top" xlink:title="Getter for epoll file descriptor.">
<polygon fill="white" stroke="#666666" points="747.5,-204 607.5,-204 607.5,-185 747.5,-185 747.5,-204"/>
<text text-anchor="middle" x="677.5" y="-192" font-family="Helvetica,sans-Serif" font-size="10.00">EpollWrapper::getEpollFd</text>
</a>
</g>
</g>
<!-- Node8&#45;&gt;Node9 -->
<g id="edge8_Node000008_Node000009" class="edge">
<title>Node8&#45;&gt;Node9</title>
<g id="a_edge8_Node000008_Node000009"><a xlink:title=" ">
<path fill="none" stroke="#63b8ff" d="M529.16,-194.5C549.97,-194.5 574.4,-194.5 597.32,-194.5"/>
<polygon fill="#63b8ff" stroke="#63b8ff" points="597.38,-198 607.38,-194.5 597.38,-191 597.38,-198"/>
</a>
</g>
</g>
<!-- Node12 -->
<g id="Node000012" class="node">
<title>Node12</title>
<g id="a_Node000012"><a xlink:href="_connection_8cpp.html#af96f533f342bd6cf42899f3c9fd30a99" target="_top" xlink:title="Find matching server configurations for a server socket.">
<polygon fill="white" stroke="#666666" points="751,-130 604,-130 604,-111 751,-111 751,-130"/>
<text text-anchor="middle" x="677.5" y="-118" font-family="Helvetica,sans-Serif" font-size="10.00">findMatchingServerConfigs</text>
</a>
</g>
</g>
<!-- Node11&#45;&gt;Node12 -->
<g id="edge11_Node000011_Node000012" class="edge">
<title>Node11&#45;&gt;Node12</title>
<g id="a_edge11_Node000011_Node000012"><a xlink:title=" ">
<path fill="none" stroke="#63b8ff" d="M536.05,-120.5C554.15,-120.5 574.41,-120.5 593.78,-120.5"/>
<polygon fill="#63b8ff" stroke="#63b8ff" points="593.82,-124 603.82,-120.5 593.82,-117 593.82,-124"/>
</a>
</g>
</g>
<!-- Node15 -->
<g id="Node000015" class="node">
<title>Node15</title>
<g id="a_Node000015"><a xlink:href="class_epoll_wrapper.html#ac97945725185999837a6d0d53f91df1a" target="_top" xlink:title="Modify an event in the epoll instance.">
<polygon fill="white" stroke="#666666" points="752,-56 603,-56 603,-37 752,-37 752,-56"/>
<text text-anchor="middle" x="677.5" y="-44" font-family="Helvetica,sans-Serif" font-size="10.00">EpollWrapper::modifyEvent</text>
</a>
</g>
</g>
<!-- Node14&#45;&gt;Node15 -->
<g id="edge14_Node000014_Node000015" class="edge">
<title>Node14&#45;&gt;Node15</title>
<g id="a_edge14_Node000014_Node000015"><a xlink:title=" ">
<path fill="none" stroke="#63b8ff" d="M534.17,-46.5C552.41,-46.5 572.98,-46.5 592.7,-46.5"/>
<polygon fill="#63b8ff" stroke="#63b8ff" points="592.92,-50 602.92,-46.5 592.92,-43 592.92,-50"/>
</a>
</g>
</g>
<!-- Node17 -->
<g id="Node000017" class="node">
<title>Node17</title>
<g id="a_Node000017"><a xlink:href="class_request_parser.html#a933b43673d0b7b99d6cc310f5c03a865" target="_top" xlink:title="Parses the header of an HTTP request.">
<polygon fill="white" stroke="#666666" points="755,-407 600,-407 600,-388 755,-388 755,-407"/>
<text text-anchor="middle" x="677.5" y="-395" font-family="Helvetica,sans-Serif" font-size="10.00">RequestParser::parseHeader</text>
</a>
</g>
</g>
<!-- Node16&#45;&gt;Node17 -->
<g id="edge16_Node000016_Node000017" class="edge">
<title>Node16&#45;&gt;Node17</title>
<g id="a_edge16_Node000016_Node000017"><a xlink:title=" ">
<path fill="none" stroke="#63b8ff" d="M534.17,-397.5C551.54,-397.5 571.04,-397.5 589.89,-397.5"/>
<polygon fill="#63b8ff" stroke="#63b8ff" points="589.98,-401 599.98,-397.5 589.98,-394 589.98,-401"/>
</a>
</g>
</g>
<!-- Node18 -->
<g id="Node000018" class="node">
<title>Node18</title>
<g id="a_Node000018"><a xlink:href="class_request_parser.html#ad8e0fc22eb113d78140e257f002df666" target="_top" xlink:title="Clears the contents of the RequestParser object.">
<polygon fill="white" stroke="#666666" points="948,-412.5 791,-412.5 791,-382.5 948,-382.5 948,-412.5"/>
<text text-anchor="start" x="799" y="-400.5" font-family="Helvetica,sans-Serif" font-size="10.00">RequestParser::resetRequest</text>
<text text-anchor="middle" x="869.5" y="-389.5" font-family="Helvetica,sans-Serif" font-size="10.00">Stream</text>
</a>
</g>
</g>
<!-- Node17&#45;&gt;Node18 -->
<g id="edge17_Node000017_Node000018" class="edge">
<title>Node17&#45;&gt;Node18</title>
<g id="a_edge17_Node000017_Node000018"><a xlink:title=" ">
<path fill="none" stroke="#63b8ff" d="M755.23,-397.5C763.58,-397.5 772.12,-397.5 780.59,-397.5"/>
<polygon fill="#63b8ff" stroke="#63b8ff" points="780.86,-401 790.86,-397.5 780.86,-394 780.86,-401"/>
</a>
</g>
</g>
<!-- Node20 -->
<g id="Node000020" class="node">
<title>Node20</title>
<g id="a_Node000020"><a xlink:href="class_epoll_wrapper.html#ace2a6009a6c647babfc667c27df05354" target="_top" xlink:title="Add an event to the epoll instance.">
<polygon fill="white" stroke="#666666" points="744.5,-333 610.5,-333 610.5,-314 744.5,-314 744.5,-333"/>
<text text-anchor="middle" x="677.5" y="-321" font-family="Helvetica,sans-Serif" font-size="10.00">EpollWrapper::addEvent</text>
</a>
</g>
</g>
<!-- Node19&#45;&gt;Node20 -->
<g id="edge19_Node000019_Node000020" class="edge">
<title>Node19&#45;&gt;Node20</title>
<g id="a_edge19_Node000019_Node000020"><a xlink:title=" ">
<path fill="none" stroke="#63b8ff" d="M564.21,-334.19C576.22,-333.05 588.46,-331.88 600.25,-330.76"/>
<polygon fill="#63b8ff" stroke="#63b8ff" points="600.84,-334.22 610.47,-329.79 600.18,-327.25 600.84,-334.22"/>
</a>
</g>
</g>
<!-- Node21 -->
<g id="Node000021" class="node">
<title>Node21</title>
<g id="a_Node000021"><a xlink:href="namespacewebutils.html#ad74875f464c74bd45589002fc385605e" target="_top" xlink:title=" ">
<polygon fill="white" stroke="#666666" points="728,-370 627,-370 627,-351 728,-351 728,-370"/>
<text text-anchor="middle" x="677.5" y="-358" font-family="Helvetica,sans-Serif" font-size="10.00">webutils::closeFd</text>
</a>
</g>
</g>
<!-- Node19&#45;&gt;Node21 -->
<g id="edge20_Node000019_Node000021" class="edge">
<title>Node19&#45;&gt;Node21</title>
<g id="a_edge20_Node000019_Node000021"><a xlink:title=" ">
<path fill="none" stroke="#63b8ff" d="M564.21,-350.37C582.01,-351.97 600.35,-353.63 616.92,-355.12"/>
<polygon fill="#63b8ff" stroke="#63b8ff" points="616.71,-358.62 626.98,-356.03 617.34,-351.65 616.71,-358.62"/>
</a>
</g>
</g>
<!-- Node24 -->
<g id="Node000024" class="node">
<title>Node24</title>
<g id="a_Node000024"><a xlink:href="class_socket_policy.html#a6f6c04c36c6be0d95b1d3e4a872ea7ca" target="_top" xlink:title="Read from a socket.">
<polygon fill="white" stroke="#666666" points="557,-19 395,-19 395,0 557,0 557,-19"/>
<text text-anchor="middle" x="476" y="-7" font-family="Helvetica,sans-Serif" font-size="10.00">SocketPolicy::readFromSocket</text>
</a>
</g>
</g>
<!-- Node23&#45;&gt;Node24 -->
<g id="edge24_Node000023_Node000024" class="edge">
<title>Node23&#45;&gt;Node24</title>
<g id="a_edge24_Node000023_Node000024"><a xlink:title=" ">
<path fill="none" stroke="#63b8ff" d="M332.53,-27.99C351.19,-25.57 371.77,-22.9 391.35,-20.36"/>
<polygon fill="#63b8ff" stroke="#63b8ff" points="392.01,-23.8 401.48,-19.04 391.11,-16.86 392.01,-23.8"/>
</a>
</g>
</g>
</g>
</svg>
