<?xml version="1.0" encoding="UTF-8" standalone="no"?>
<!DOCTYPE svg PUBLIC "-//W3C//DTD SVG 1.1//EN"
 "http://www.w3.org/Graphics/SVG/1.1/DTD/svg11.dtd">
<!-- Generated by graphviz version 2.43.0 (0)
 -->
<!-- Title: handleConnection Pages: 1 -->
<svg width="1679pt" height="525pt"
 viewBox="0.00 0.00 1679.00 525.00" xmlns="http://www.w3.org/2000/svg" xmlns:xlink="http://www.w3.org/1999/xlink">
<g id="graph0" class="graph" transform="scale(1 1) rotate(0) translate(4 521)">
<title>handleConnection</title>
<!-- Node1 -->
<g id="node1" class="node">
<title>Node1</title>
<g id="a_node1"><a xlink:title="Handle a client connection.">
<polygon fill="#bfbfbf" stroke="black" points="0,-294.5 0,-313.5 104,-313.5 104,-294.5 0,-294.5"/>
<text text-anchor="middle" x="52" y="-301.5" font-family="Helvetica,sans-Serif" font-size="10.00">handleConnection</text>
</a>
</g>
</g>
<!-- Node2 -->
<g id="node2" class="node">
<title>Node2</title>
<g id="a_node2"><a xlink:href="_server_8cpp.html#ac98878a19797a7f939c3a5ea1e028e56" target="_top" xlink:title="Builds the response for a client connection.">
<polygon fill="none" stroke="black" points="322,-370.5 322,-389.5 464,-389.5 464,-370.5 322,-370.5"/>
<text text-anchor="middle" x="393" y="-377.5" font-family="Helvetica,sans-Serif" font-size="10.00">connectionBuildResponse</text>
</a>
</g>
</g>
<!-- Node1&#45;&gt;Node2 -->
<g id="edge1" class="edge">
<title>Node1&#45;&gt;Node2</title>
<path fill="none" stroke="midnightblue" d="M63.57,-313.55C79.06,-326.88 109.4,-350.6 140,-361 195.28,-379.79 261.19,-384.18 311.73,-384.06"/>
<polygon fill="midnightblue" stroke="midnightblue" points="311.98,-387.56 321.95,-383.98 311.93,-380.56 311.98,-387.56"/>
</g>
<!-- Node14 -->
<g id="node14" class="node">
<title>Node14</title>
<g id="a_node14"><a xlink:href="_server_8cpp.html#adcf8118ac987f6afae3aec0c54cc5f9f" target="_top" xlink:title="Sends the response to a client connection.">
<polygon fill="none" stroke="black" points="516.5,-304.5 516.5,-323.5 657.5,-323.5 657.5,-304.5 516.5,-304.5"/>
<text text-anchor="middle" x="587" y="-311.5" font-family="Helvetica,sans-Serif" font-size="10.00">connectionSendResponse</text>
</a>
</g>
</g>
<!-- Node1&#45;&gt;Node14 -->
<g id="edge50" class="edge">
<title>Node1&#45;&gt;Node14</title>
<path fill="none" stroke="midnightblue" d="M104.11,-304.96C197.22,-306.71 395.09,-310.42 506.14,-312.5"/>
<polygon fill="midnightblue" stroke="midnightblue" points="506.22,-316 516.28,-312.69 506.35,-309 506.22,-316"/>
</g>
<!-- Node25 -->
<g id="node25" class="node">
<title>Node25</title>
<g id="a_node25"><a xlink:href="_server_8cpp.html#abb21ebec72f9526fbba446f7d566117e" target="_top" xlink:title="Handles a timeout for a client connection.">
<polygon fill="none" stroke="black" points="140,-332.5 140,-351.5 285,-351.5 285,-332.5 140,-332.5"/>
<text text-anchor="middle" x="212.5" y="-339.5" font-family="Helvetica,sans-Serif" font-size="10.00">connectionHandleTimeout</text>
</a>
</g>
</g>
<!-- Node1&#45;&gt;Node25 -->
<g id="edge24" class="edge">
<title>Node1&#45;&gt;Node25</title>
<path fill="none" stroke="midnightblue" d="M93,-313.59C113.91,-318.6 139.71,-324.79 161.89,-330.11"/>
<polygon fill="midnightblue" stroke="midnightblue" points="161.25,-333.55 171.79,-332.48 162.88,-326.74 161.25,-333.55"/>
</g>
<!-- Node26 -->
<g id="node26" class="node">
<title>Node26</title>
<g id="a_node26"><a xlink:href="_server_8cpp.html#a3f930db051b00ade521e2633cee948bd" target="_top" xlink:title="Receives the body of a connection.">
<polygon fill="none" stroke="black" points="326,-237.5 326,-256.5 460,-256.5 460,-237.5 326,-237.5"/>
<text text-anchor="middle" x="393" y="-244.5" font-family="Helvetica,sans-Serif" font-size="10.00">connectionReceiveBody</text>
</a>
</g>
</g>
<!-- Node1&#45;&gt;Node26 -->
<g id="edge26" class="edge">
<title>Node1&#45;&gt;Node26</title>
<path fill="none" stroke="midnightblue" d="M104.12,-295.4C163.11,-285.49 260.32,-269.14 325.24,-258.23"/>
<polygon fill="midnightblue" stroke="midnightblue" points="326.09,-261.63 335.37,-256.52 324.92,-254.73 326.09,-261.63"/>
</g>
<!-- Node34 -->
<g id="node34" class="node">
<title>Node34</title>
<g id="a_node34"><a xlink:href="_server_8cpp.html#a06d0cb066f08d5567ea6ba4ef2897927" target="_top" xlink:title="Receive request header from a client.">
<polygon fill="none" stroke="black" points="321,-95.5 321,-114.5 465,-114.5 465,-95.5 321,-95.5"/>
<text text-anchor="middle" x="393" y="-102.5" font-family="Helvetica,sans-Serif" font-size="10.00">connectionReceiveHeader</text>
</a>
</g>
</g>
<!-- Node1&#45;&gt;Node34 -->
<g id="edge35" class="edge">
<title>Node1&#45;&gt;Node34</title>
<path fill="none" stroke="midnightblue" d="M69.35,-294.4C124.06,-262.29 300.97,-158.43 366.92,-119.72"/>
<polygon fill="midnightblue" stroke="midnightblue" points="368.96,-122.58 375.81,-114.5 365.42,-116.55 368.96,-122.58"/>
</g>
<!-- Node3 -->
<g id="node3" class="node">
<title>Node3</title>
<g id="a_node3"><a xlink:href="class_server.html#aaa1a16c8d18a7d0a4191adfeb65fdf82" target="_top" xlink:title="Wrapper function to ResponseBuilder::buildResponse.">
<polygon fill="none" stroke="black" points="524.5,-418.5 524.5,-437.5 649.5,-437.5 649.5,-418.5 524.5,-418.5"/>
<text text-anchor="middle" x="587" y="-425.5" font-family="Helvetica,sans-Serif" font-size="10.00">Server::buildResponse</text>
</a>
</g>
</g>
<!-- Node2&#45;&gt;Node3 -->
<g id="edge2" class="edge">
<title>Node2&#45;&gt;Node3</title>
<path fill="none" stroke="midnightblue" d="M427.63,-389.53C448.66,-395.38 476.34,-402.9 501,-409 510.8,-411.42 521.27,-413.87 531.39,-416.17"/>
<polygon fill="midnightblue" stroke="midnightblue" points="530.83,-419.63 541.36,-418.41 532.37,-412.81 530.83,-419.63"/>
</g>
<!-- Node2&#45;&gt;Node14 -->
<g id="edge13" class="edge">
<title>Node2&#45;&gt;Node14</title>
<path fill="none" stroke="midnightblue" d="M412.89,-370.36C433.93,-359.94 469.19,-343.43 501,-333 508.95,-330.39 517.44,-328.02 525.86,-325.91"/>
<polygon fill="midnightblue" stroke="midnightblue" points="526.77,-329.29 535.67,-323.56 525.13,-322.49 526.77,-329.29"/>
</g>
<!-- Node23 -->
<g id="node23" class="node">
<title>Node23</title>
<g id="a_node23"><a xlink:href="class_server.html#a718bf76e7c3f830abb2f7b0972cdaa63" target="_top" xlink:title="Wrapper function to ResponseBuilder::getResponse.">
<polygon fill="none" stroke="black" points="528.5,-380.5 528.5,-399.5 645.5,-399.5 645.5,-380.5 528.5,-380.5"/>
<text text-anchor="middle" x="587" y="-387.5" font-family="Helvetica,sans-Serif" font-size="10.00">Server::getResponse</text>
</a>
</g>
</g>
<!-- Node2&#45;&gt;Node23 -->
<g id="edge22" class="edge">
<title>Node2&#45;&gt;Node23</title>
<path fill="none" stroke="midnightblue" d="M464.13,-383.65C481.77,-384.57 500.67,-385.56 518.2,-386.47"/>
<polygon fill="midnightblue" stroke="midnightblue" points="518.17,-389.97 528.34,-387 518.53,-382.98 518.17,-389.97"/>
</g>
<!-- Node4 -->
<g id="node4" class="node">
<title>Node4</title>
<g id="a_node4"><a xlink:href="class_response_builder.html#ae037ac16172f1329b44a58f50de0e84e" target="_top" xlink:title="Build the response for a given request.">
<polygon fill="none" stroke="black" points="709,-418.5 709,-437.5 885,-437.5 885,-418.5 709,-418.5"/>
<text text-anchor="middle" x="797" y="-425.5" font-family="Helvetica,sans-Serif" font-size="10.00">ResponseBuilder::buildResponse</text>
</a>
</g>
</g>
<!-- Node3&#45;&gt;Node4 -->
<g id="edge3" class="edge">
<title>Node3&#45;&gt;Node4</title>
<path fill="none" stroke="midnightblue" d="M649.56,-428C664.94,-428 681.81,-428 698.46,-428"/>
<polygon fill="midnightblue" stroke="midnightblue" points="698.78,-431.5 708.78,-428 698.78,-424.5 698.78,-431.5"/>
</g>
<!-- Node5 -->
<g id="node5" class="node">
<title>Node5</title>
<g id="a_node5"><a xlink:href="class_response_body_handler.html#a0660b57e440e2c519761817d178818c0" target="_top" xlink:title="Create the response body.">
<polygon fill="none" stroke="black" points="935,-413 935,-443 1062,-443 1062,-413 935,-413"/>
<text text-anchor="start" x="943" y="-431" font-family="Helvetica,sans-Serif" font-size="10.00">ResponseBodyHandler</text>
<text text-anchor="middle" x="998.5" y="-420" font-family="Helvetica,sans-Serif" font-size="10.00">::execute</text>
</a>
</g>
</g>
<!-- Node4&#45;&gt;Node5 -->
<g id="edge4" class="edge">
<title>Node4&#45;&gt;Node5</title>
<path fill="none" stroke="midnightblue" d="M885.21,-428C898.37,-428 911.82,-428 924.63,-428"/>
<polygon fill="midnightblue" stroke="midnightblue" points="924.75,-431.5 934.75,-428 924.75,-424.5 924.75,-431.5"/>
</g>
<!-- Node6 -->
<g id="node6" class="node">
<title>Node6</title>
<g id="a_node6"><a xlink:href="class_autoindex_handler.html#a4ad00ccbce16e8913e108e9bf1114c3f" target="_top" xlink:title="Execute the autoindex handler.">
<polygon fill="none" stroke="black" points="1116,-440.5 1116,-459.5 1265,-459.5 1265,-440.5 1116,-440.5"/>
<text text-anchor="middle" x="1190.5" y="-447.5" font-family="Helvetica,sans-Serif" font-size="10.00">AutoindexHandler::execute</text>
</a>
</g>
</g>
<!-- Node5&#45;&gt;Node6 -->
<g id="edge5" class="edge">
<title>Node5&#45;&gt;Node6</title>
<path fill="none" stroke="midnightblue" d="M1062.24,-435.26C1076.2,-436.88 1091.22,-438.62 1105.88,-440.32"/>
<polygon fill="midnightblue" stroke="midnightblue" points="1105.61,-443.81 1115.94,-441.48 1106.41,-436.86 1105.61,-443.81"/>
</g>
<!-- Node13 -->
<g id="node13" class="node">
<title>Node13</title>
<g id="a_node13"><a xlink:href="class_file_system_policy.html#a700e01137b08674976427c869e078cc9" target="_top" xlink:title="Gets the contents of a file.">
<polygon fill="none" stroke="black" points="1121.5,-391 1121.5,-421 1259.5,-421 1259.5,-391 1121.5,-391"/>
<text text-anchor="start" x="1129.5" y="-409" font-family="Helvetica,sans-Serif" font-size="10.00">FileSystemPolicy::getFile</text>
<text text-anchor="middle" x="1190.5" y="-398" font-family="Helvetica,sans-Serif" font-size="10.00">Contents</text>
</a>
</g>
</g>
<!-- Node5&#45;&gt;Node13 -->
<g id="edge12" class="edge">
<title>Node5&#45;&gt;Node13</title>
<path fill="none" stroke="midnightblue" d="M1062.24,-420.74C1077.9,-418.92 1094.9,-416.95 1111.21,-415.07"/>
<polygon fill="midnightblue" stroke="midnightblue" points="1111.73,-418.53 1121.26,-413.9 1110.93,-411.57 1111.73,-418.53"/>
</g>
<!-- Node7 -->
<g id="node7" class="node">
<title>Node7</title>
<g id="a_node7"><a xlink:href="class_directory.html#a09da8cd603ddb22990c5bb8165e14ea8" target="_top" xlink:title="Get the entries in the directory.">
<polygon fill="none" stroke="black" points="1326,-497.5 1326,-516.5 1442,-516.5 1442,-497.5 1326,-497.5"/>
<text text-anchor="middle" x="1384" y="-504.5" font-family="Helvetica,sans-Serif" font-size="10.00">Directory::getEntries</text>
</a>
</g>
</g>
<!-- Node6&#45;&gt;Node7 -->
<g id="edge6" class="edge">
<title>Node6&#45;&gt;Node7</title>
<path fill="none" stroke="midnightblue" d="M1217.9,-459.54C1240.78,-467.64 1274.85,-479.3 1305,-488 1313.46,-490.44 1322.5,-492.84 1331.32,-495.06"/>
<polygon fill="midnightblue" stroke="midnightblue" points="1330.59,-498.48 1341.13,-497.49 1332.27,-491.69 1330.59,-498.48"/>
</g>
<!-- Node9 -->
<g id="node9" class="node">
<title>Node9</title>
<g id="a_node9"><a xlink:href="_autoindex_handler_8cpp.html#aa1cdc5b5774ab502cc67a723e7634b3f" target="_top" xlink:title="Get the file size of a file.">
<polygon fill="none" stroke="black" points="1349,-459.5 1349,-478.5 1419,-478.5 1419,-459.5 1349,-459.5"/>
<text text-anchor="middle" x="1384" y="-466.5" font-family="Helvetica,sans-Serif" font-size="10.00">getFileSize</text>
</a>
</g>
</g>
<!-- Node6&#45;&gt;Node9 -->
<g id="edge8" class="edge">
<title>Node6&#45;&gt;Node9</title>
<path fill="none" stroke="midnightblue" d="M1265.26,-457.32C1290.1,-459.78 1317.01,-462.45 1338.84,-464.62"/>
<polygon fill="midnightblue" stroke="midnightblue" points="1338.49,-468.1 1348.79,-465.61 1339.19,-461.14 1338.49,-468.1"/>
</g>
<!-- Node10 -->
<g id="node10" class="node">
<title>Node10</title>
<g id="a_node10"><a xlink:href="class_file_system_policy.html#ad2571bc684c5f8db457d8e282729f832" target="_top" xlink:title="Gets the file status of a path.">
<polygon fill="none" stroke="black" points="1305,-421.5 1305,-440.5 1463,-440.5 1463,-421.5 1305,-421.5"/>
<text text-anchor="middle" x="1384" y="-428.5" font-family="Helvetica,sans-Serif" font-size="10.00">FileSystemPolicy::getFileStat</text>
</a>
</g>
</g>
<!-- Node6&#45;&gt;Node10 -->
<g id="edge9" class="edge">
<title>Node6&#45;&gt;Node10</title>
<path fill="none" stroke="midnightblue" d="M1265.26,-442.68C1274.88,-441.73 1284.82,-440.74 1294.64,-439.77"/>
<polygon fill="midnightblue" stroke="midnightblue" points="1295.22,-443.23 1304.83,-438.76 1294.53,-436.26 1295.22,-443.23"/>
</g>
<!-- Node11 -->
<g id="node11" class="node">
<title>Node11</title>
<g id="a_node11"><a xlink:href="_autoindex_handler_8cpp.html#a1ca36f6cd35dba3c07da2bc0e3380cf1" target="_top" xlink:title="Get the last modified time of a file.">
<polygon fill="none" stroke="black" points="1324.5,-383.5 1324.5,-402.5 1443.5,-402.5 1443.5,-383.5 1324.5,-383.5"/>
<text text-anchor="middle" x="1384" y="-390.5" font-family="Helvetica,sans-Serif" font-size="10.00">getLastModifiedTime</text>
</a>
</g>
</g>
<!-- Node6&#45;&gt;Node11 -->
<g id="edge10" class="edge">
<title>Node6&#45;&gt;Node11</title>
<path fill="none" stroke="midnightblue" d="M1235.04,-440.48C1246.25,-437.57 1258.2,-434.04 1269,-430 1285.75,-423.73 1288.2,-418.16 1305,-412 1311.84,-409.49 1319.13,-407.22 1326.42,-405.19"/>
<polygon fill="midnightblue" stroke="midnightblue" points="1327.53,-408.51 1336.29,-402.56 1325.73,-401.75 1327.53,-408.51"/>
</g>
<!-- Node8 -->
<g id="node8" class="node">
<title>Node8</title>
<g id="a_node8"><a xlink:href="class_file_system_policy.html#ad23fadf21355a78cce6e905f61611469" target="_top" xlink:title="Reads a directory.">
<polygon fill="none" stroke="black" points="1499,-497.5 1499,-516.5 1671,-516.5 1671,-497.5 1499,-497.5"/>
<text text-anchor="middle" x="1585" y="-504.5" font-family="Helvetica,sans-Serif" font-size="10.00">FileSystemPolicy::readDirectory</text>
</a>
</g>
</g>
<!-- Node7&#45;&gt;Node8 -->
<g id="edge7" class="edge">
<title>Node7&#45;&gt;Node8</title>
<path fill="none" stroke="midnightblue" d="M1442.03,-507C1456.53,-507 1472.53,-507 1488.39,-507"/>
<polygon fill="midnightblue" stroke="midnightblue" points="1488.77,-510.5 1498.77,-507 1488.77,-503.5 1488.77,-510.5"/>
</g>
<!-- Node12 -->
<g id="node12" class="node">
<title>Node12</title>
<g id="a_node12"><a xlink:href="namespacewebutils.html#ab6119b08526700518f576bb78554be59" target="_top" xlink:title="Returns localtime string in provided format.">
<polygon fill="none" stroke="black" points="1507,-383.5 1507,-402.5 1663,-402.5 1663,-383.5 1507,-383.5"/>
<text text-anchor="middle" x="1585" y="-390.5" font-family="Helvetica,sans-Serif" font-size="10.00">webutils::getLocaltimeString</text>
</a>
</g>
</g>
<!-- Node11&#45;&gt;Node12 -->
<g id="edge11" class="edge">
<title>Node11&#45;&gt;Node12</title>
<path fill="none" stroke="midnightblue" d="M1443.63,-393C1460.29,-393 1478.8,-393 1496.76,-393"/>
<polygon fill="midnightblue" stroke="midnightblue" points="1496.96,-396.5 1506.96,-393 1496.96,-389.5 1496.96,-396.5"/>
</g>
<!-- Node15 -->
<g id="node15" class="node">
<title>Node15</title>
<g id="a_node15"><a xlink:href="_connection_8hpp.html#a1787b72853fa3a6146cea621fa1d0d65" target="_top" xlink:title=" ">
<polygon fill="none" stroke="black" points="749.5,-266.5 749.5,-285.5 844.5,-285.5 844.5,-266.5 749.5,-266.5"/>
<text text-anchor="middle" x="797" y="-273.5" font-family="Helvetica,sans-Serif" font-size="10.00">clearConnection</text>
</a>
</g>
</g>
<!-- Node14&#45;&gt;Node15 -->
<g id="edge14" class="edge">
<title>Node14&#45;&gt;Node15</title>
<path fill="none" stroke="midnightblue" d="M640.22,-304.46C670.38,-298.95 708.35,-292.01 739.25,-286.37"/>
<polygon fill="midnightblue" stroke="midnightblue" points="740.23,-289.75 749.44,-284.51 738.97,-282.86 740.23,-289.75"/>
</g>
<!-- Node18 -->
<g id="node18" class="node">
<title>Node18</title>
<g id="a_node18"><a xlink:href="class_server.html#a54745950beb9e321d9a56084501c18e9" target="_top" xlink:title="Const Getter for server configs.">
<polygon fill="none" stroke="black" points="728.5,-228.5 728.5,-247.5 865.5,-247.5 865.5,-228.5 728.5,-228.5"/>
<text text-anchor="middle" x="797" y="-235.5" font-family="Helvetica,sans-Serif" font-size="10.00">Server::getServerConfigs</text>
</a>
</g>
</g>
<!-- Node14&#45;&gt;Node18 -->
<g id="edge17" class="edge">
<title>Node14&#45;&gt;Node18</title>
<path fill="none" stroke="midnightblue" d="M636.76,-304.42C649.04,-300.9 661.88,-296.2 673,-290 691.96,-279.43 689.73,-266.99 709,-257 713.6,-254.61 718.49,-252.53 723.51,-250.7"/>
<polygon fill="midnightblue" stroke="midnightblue" points="724.86,-253.94 733.28,-247.51 722.69,-247.29 724.86,-253.94"/>
</g>
<!-- Node19 -->
<g id="node19" class="node">
<title>Node19</title>
<g id="a_node19"><a xlink:href="class_server.html#afab1a4ec9e524b0dae8f60080642e7fe" target="_top" xlink:title="Wrapper function to EpollWrapper::modifyEvent.">
<polygon fill="none" stroke="black" points="739,-190.5 739,-209.5 855,-209.5 855,-190.5 739,-190.5"/>
<text text-anchor="middle" x="797" y="-197.5" font-family="Helvetica,sans-Serif" font-size="10.00">Server::modifyEvent</text>
</a>
</g>
</g>
<!-- Node14&#45;&gt;Node19 -->
<g id="edge18" class="edge">
<title>Node14&#45;&gt;Node19</title>
<path fill="none" stroke="midnightblue" d="M646.49,-304.43C656.03,-301 665.3,-296.33 673,-290 700.32,-267.52 681.01,-240.64 709,-219 714.97,-214.38 721.83,-210.84 729.01,-208.12"/>
<polygon fill="midnightblue" stroke="midnightblue" points="730.53,-211.31 738.97,-204.91 728.38,-204.65 730.53,-211.31"/>
</g>
<!-- Node21 -->
<g id="node21" class="node">
<title>Node21</title>
<g id="a_node21"><a xlink:href="class_server.html#a8bf2a41e8ddcccd54b5832b58211a283" target="_top" xlink:title="Wrapper function to SocketPolicy::writeToSocket.">
<polygon fill="none" stroke="black" points="736,-304.5 736,-323.5 858,-323.5 858,-304.5 736,-304.5"/>
<text text-anchor="middle" x="797" y="-311.5" font-family="Helvetica,sans-Serif" font-size="10.00">Server::writeToSocket</text>
</a>
</g>
</g>
<!-- Node14&#45;&gt;Node21 -->
<g id="edge20" class="edge">
<title>Node14&#45;&gt;Node21</title>
<path fill="none" stroke="midnightblue" d="M657.55,-314C679.47,-314 703.69,-314 725.67,-314"/>
<polygon fill="midnightblue" stroke="midnightblue" points="725.92,-317.5 735.92,-314 725.92,-310.5 725.92,-317.5"/>
</g>
<!-- Node16 -->
<g id="node16" class="node">
<title>Node16</title>
<g id="a_node16"><a xlink:href="_connection_8cpp.html#a354192f8dd87ca049cf8b7e6de9000da" target="_top" xlink:title="Selects the server configuration for a connection.">
<polygon fill="none" stroke="black" points="938.5,-253.5 938.5,-272.5 1058.5,-272.5 1058.5,-253.5 938.5,-253.5"/>
<text text-anchor="middle" x="998.5" y="-260.5" font-family="Helvetica,sans-Serif" font-size="10.00">hasValidServerConfig</text>
</a>
</g>
</g>
<!-- Node15&#45;&gt;Node16 -->
<g id="edge15" class="edge">
<title>Node15&#45;&gt;Node16</title>
<path fill="none" stroke="midnightblue" d="M844.52,-272.97C869.44,-271.34 900.63,-269.31 928.33,-267.51"/>
<polygon fill="midnightblue" stroke="midnightblue" points="928.61,-271 938.36,-266.85 928.15,-264.01 928.61,-271"/>
</g>
<!-- Node17 -->
<g id="node17" class="node">
<title>Node17</title>
<g id="a_node17"><a xlink:href="_connection_8cpp.html#ac4fdfd0273b5ff94aefbdc973ac49ead" target="_top" xlink:title="Find matching server configurations for a server socket.">
<polygon fill="none" stroke="black" points="1117,-174.5 1117,-193.5 1264,-193.5 1264,-174.5 1117,-174.5"/>
<text text-anchor="middle" x="1190.5" y="-181.5" font-family="Helvetica,sans-Serif" font-size="10.00">findMatchingServerConfigs</text>
</a>
</g>
</g>
<!-- Node16&#45;&gt;Node17 -->
<g id="edge16" class="edge">
<title>Node16&#45;&gt;Node17</title>
<path fill="none" stroke="midnightblue" d="M1022.42,-253.47C1055.94,-239.53 1118.52,-213.51 1156.84,-197.58"/>
<polygon fill="midnightblue" stroke="midnightblue" points="1158.61,-200.63 1166.5,-193.56 1155.92,-194.17 1158.61,-200.63"/>
</g>
<!-- Node20 -->
<g id="node20" class="node">
<title>Node20</title>
<g id="a_node20"><a xlink:href="class_epoll_wrapper.html#ac97945725185999837a6d0d53f91df1a" target="_top" xlink:title="Modify an event in the epoll instance.">
<polygon fill="none" stroke="black" points="924,-199.5 924,-218.5 1073,-218.5 1073,-199.5 924,-199.5"/>
<text text-anchor="middle" x="998.5" y="-206.5" font-family="Helvetica,sans-Serif" font-size="10.00">EpollWrapper::modifyEvent</text>
</a>
</g>
</g>
<!-- Node19&#45;&gt;Node20 -->
<g id="edge19" class="edge">
<title>Node19&#45;&gt;Node20</title>
<path fill="none" stroke="midnightblue" d="M855.17,-202.58C873.41,-203.4 893.98,-204.33 913.7,-205.22"/>
<polygon fill="midnightblue" stroke="midnightblue" points="913.77,-208.73 923.92,-205.68 914.09,-201.73 913.77,-208.73"/>
</g>
<!-- Node22 -->
<g id="node22" class="node">
<title>Node22</title>
<g id="a_node22"><a xlink:href="class_socket_policy.html#a2be07593236ccf70a7ddd7fc8d8b0af1" target="_top" xlink:title="Write to a socket.">
<polygon fill="none" stroke="black" points="923,-304.5 923,-323.5 1074,-323.5 1074,-304.5 923,-304.5"/>
<text text-anchor="middle" x="998.5" y="-311.5" font-family="Helvetica,sans-Serif" font-size="10.00">SocketPolicy::writeToSocket</text>
</a>
</g>
</g>
<!-- Node21&#45;&gt;Node22 -->
<g id="edge21" class="edge">
<title>Node21&#45;&gt;Node22</title>
<path fill="none" stroke="midnightblue" d="M858.13,-314C875.26,-314 894.26,-314 912.57,-314"/>
<polygon fill="midnightblue" stroke="midnightblue" points="912.66,-317.5 922.66,-314 912.66,-310.5 912.66,-317.5"/>
</g>
<!-- Node24 -->
<g id="node24" class="node">
<title>Node24</title>
<g id="a_node24"><a xlink:href="class_response_builder.html#adf7d2f0fbb7f5b6866eb884fb2c17e88" target="_top" xlink:title="Get the built response.">
<polygon fill="none" stroke="black" points="713.5,-380.5 713.5,-399.5 880.5,-399.5 880.5,-380.5 713.5,-380.5"/>
<text text-anchor="middle" x="797" y="-387.5" font-family="Helvetica,sans-Serif" font-size="10.00">ResponseBuilder::getResponse</text>
</a>
</g>
</g>
<!-- Node23&#45;&gt;Node24 -->
<g id="edge23" class="edge">
<title>Node23&#45;&gt;Node24</title>
<path fill="none" stroke="midnightblue" d="M645.66,-390C663.48,-390 683.57,-390 703.13,-390"/>
<polygon fill="midnightblue" stroke="midnightblue" points="703.3,-393.5 713.3,-390 703.3,-386.5 703.3,-393.5"/>
</g>
<!-- Node25&#45;&gt;Node2 -->
<g id="edge25" class="edge">
<title>Node25&#45;&gt;Node2</title>
<path fill="none" stroke="midnightblue" d="M258.54,-351.59C282.52,-356.69 312.2,-363.01 337.47,-368.39"/>
<polygon fill="midnightblue" stroke="midnightblue" points="336.77,-371.82 347.28,-370.48 338.23,-364.97 336.77,-371.82"/>
</g>
<!-- Node26&#45;&gt;Node19 -->
<g id="edge29" class="edge">
<title>Node26&#45;&gt;Node19</title>
<path fill="none" stroke="midnightblue" d="M425.73,-256.59C479.25,-270.97 589.74,-292.81 673,-257 694.37,-247.81 688.74,-230.43 709,-219 715.29,-215.45 722.19,-212.56 729.26,-210.21"/>
<polygon fill="midnightblue" stroke="midnightblue" points="730.38,-213.53 738.97,-207.33 728.39,-206.82 730.38,-213.53"/>
</g>
<!-- Node27 -->
<g id="node27" class="node">
<title>Node27</title>
<g id="a_node27"><a xlink:href="class_server.html#a2092f68016c0cfaff0c9c0e1862eb009" target="_top" xlink:title="Getter for client body buffer.">
<polygon fill="none" stroke="black" points="511,-228.5 511,-247.5 663,-247.5 663,-228.5 511,-228.5"/>
<text text-anchor="middle" x="587" y="-235.5" font-family="Helvetica,sans-Serif" font-size="10.00">Server::getClientBodyBuffer</text>
</a>
</g>
</g>
<!-- Node26&#45;&gt;Node27 -->
<g id="edge27" class="edge">
<title>Node26&#45;&gt;Node27</title>
<path fill="none" stroke="midnightblue" d="M460.08,-243.9C473.13,-243.29 487,-242.64 500.59,-242"/>
<polygon fill="midnightblue" stroke="midnightblue" points="501.08,-245.48 510.9,-241.52 500.75,-238.49 501.08,-245.48"/>
</g>
<!-- Node28 -->
<g id="node28" class="node">
<title>Node28</title>
<g id="a_node28"><a xlink:href="_server_8cpp.html#a14a0c5a1227276017a19d9b52141c13a" target="_top" xlink:title="Checks if the HTTP request body has been completely received.">
<polygon fill="none" stroke="black" points="538.5,-190.5 538.5,-209.5 635.5,-209.5 635.5,-190.5 538.5,-190.5"/>
<text text-anchor="middle" x="587" y="-197.5" font-family="Helvetica,sans-Serif" font-size="10.00">isCompleteBody</text>
</a>
</g>
</g>
<!-- Node26&#45;&gt;Node28 -->
<g id="edge28" class="edge">
<title>Node26&#45;&gt;Node28</title>
<path fill="none" stroke="midnightblue" d="M429.1,-237.47C449.95,-231.9 476.93,-224.84 501,-219 510.92,-216.59 521.52,-214.14 531.75,-211.82"/>
<polygon fill="midnightblue" stroke="midnightblue" points="532.82,-215.17 541.81,-209.56 531.29,-208.34 532.82,-215.17"/>
</g>
<!-- Node29 -->
<g id="node29" class="node">
<title>Node29</title>
<g id="a_node29"><a xlink:href="class_server.html#ace46f4e07ab67db60e3790a32b2e8e0a" target="_top" xlink:title="Wrapper function to RequestParser::parseBody.">
<polygon fill="none" stroke="black" points="534,-342.5 534,-361.5 640,-361.5 640,-342.5 534,-342.5"/>
<text text-anchor="middle" x="587" y="-349.5" font-family="Helvetica,sans-Serif" font-size="10.00">Server::parseBody</text>
</a>
</g>
</g>
<!-- Node26&#45;&gt;Node29 -->
<g id="edge30" class="edge">
<title>Node26&#45;&gt;Node29</title>
<path fill="none" stroke="midnightblue" d="M402.99,-256.72C420.2,-274.7 459.77,-313.16 501,-333 508.27,-336.5 516.19,-339.36 524.19,-341.7"/>
<polygon fill="midnightblue" stroke="midnightblue" points="523.37,-345.11 533.94,-344.31 525.18,-338.35 523.37,-345.11"/>
</g>
<!-- Node32 -->
<g id="node32" class="node">
<title>Node32</title>
<g id="a_node32"><a xlink:href="class_server.html#ae94e3d4b5743580a6fbe3228d58af423" target="_top" xlink:title="Wrapper function to SocketPolicy::readFromSocket.">
<polygon fill="none" stroke="black" points="520.5,-76.5 520.5,-95.5 653.5,-95.5 653.5,-76.5 520.5,-76.5"/>
<text text-anchor="middle" x="587" y="-83.5" font-family="Helvetica,sans-Serif" font-size="10.00">Server::readFromSocket</text>
</a>
</g>
</g>
<!-- Node26&#45;&gt;Node32 -->
<g id="edge33" class="edge">
<title>Node26&#45;&gt;Node32</title>
<path fill="none" stroke="midnightblue" d="M398.36,-237.19C410.48,-211.09 447.29,-139.61 501,-105 504.17,-102.95 507.54,-101.13 511.02,-99.5"/>
<polygon fill="midnightblue" stroke="midnightblue" points="512.56,-102.65 520.49,-95.62 509.91,-96.17 512.56,-102.65"/>
</g>
<!-- Node30 -->
<g id="node30" class="node">
<title>Node30</title>
<g id="a_node30"><a xlink:href="class_request_parser.html#a5111f16124d227775d963e6ca24ddca0" target="_top" xlink:title="Parses the body of an HTTP request.">
<polygon fill="none" stroke="black" points="926.5,-342.5 926.5,-361.5 1070.5,-361.5 1070.5,-342.5 926.5,-342.5"/>
<text text-anchor="middle" x="998.5" y="-349.5" font-family="Helvetica,sans-Serif" font-size="10.00">RequestParser::parseBody</text>
</a>
</g>
</g>
<!-- Node29&#45;&gt;Node30 -->
<g id="edge31" class="edge">
<title>Node29&#45;&gt;Node30</title>
<path fill="none" stroke="midnightblue" d="M640.28,-352C710.03,-352 834.25,-352 916.26,-352"/>
<polygon fill="midnightblue" stroke="midnightblue" points="916.3,-355.5 926.3,-352 916.3,-348.5 916.3,-355.5"/>
</g>
<!-- Node31 -->
<g id="node31" class="node">
<title>Node31</title>
<g id="a_node31"><a xlink:href="class_request_parser.html#ad8e0fc22eb113d78140e257f002df666" target="_top" xlink:title="Clears the contents of the RequestParser object.">
<polygon fill="none" stroke="black" points="1112,-235 1112,-265 1269,-265 1269,-235 1112,-235"/>
<text text-anchor="start" x="1120" y="-253" font-family="Helvetica,sans-Serif" font-size="10.00">RequestParser::resetRequest</text>
<text text-anchor="middle" x="1190.5" y="-242" font-family="Helvetica,sans-Serif" font-size="10.00">Stream</text>
</a>
</g>
</g>
<!-- Node30&#45;&gt;Node31 -->
<g id="edge32" class="edge">
<title>Node30&#45;&gt;Node31</title>
<path fill="none" stroke="midnightblue" d="M1049.85,-342.46C1058.77,-339.94 1067.82,-336.83 1076,-333 1109.73,-317.23 1143.55,-290.79 1165.39,-271.99"/>
<polygon fill="midnightblue" stroke="midnightblue" points="1167.93,-274.42 1173.14,-265.2 1163.32,-269.15 1167.93,-274.42"/>
</g>
<!-- Node33 -->
<g id="node33" class="node">
<title>Node33</title>
<g id="a_node33"><a xlink:href="class_socket_policy.html#a6f6c04c36c6be0d95b1d3e4a872ea7ca" target="_top" xlink:title="Read from a socket.">
<polygon fill="none" stroke="black" points="716,-38.5 716,-57.5 878,-57.5 878,-38.5 716,-38.5"/>
<text text-anchor="middle" x="797" y="-45.5" font-family="Helvetica,sans-Serif" font-size="10.00">SocketPolicy::readFromSocket</text>
</a>
</g>
</g>
<!-- Node32&#45;&gt;Node33 -->
<g id="edge34" class="edge">
<title>Node32&#45;&gt;Node33</title>
<path fill="none" stroke="midnightblue" d="M640.22,-76.46C668.65,-71.27 704.02,-64.8 733.87,-59.35"/>
<polygon fill="midnightblue" stroke="midnightblue" points="734.55,-62.78 743.76,-57.54 733.29,-55.9 734.55,-62.78"/>
</g>
<!-- Node34&#45;&gt;Node19 -->
<g id="edge48" class="edge">
<title>Node34&#45;&gt;Node19</title>
<path fill="none" stroke="midnightblue" d="M417.89,-114.65C439.36,-123.05 471.9,-135.07 501,-143 578.07,-164 668.5,-180.28 728.72,-189.96"/>
<polygon fill="midnightblue" stroke="midnightblue" points="728.44,-193.46 738.86,-191.58 729.54,-186.55 728.44,-193.46"/>
</g>
<!-- Node34&#45;&gt;Node32 -->
<g id="edge49" class="edge">
<title>Node34&#45;&gt;Node32</title>
<path fill="none" stroke="midnightblue" d="M465.22,-97.95C479.88,-96.5 495.36,-94.97 510.17,-93.5"/>
<polygon fill="midnightblue" stroke="midnightblue" points="510.69,-96.97 520.29,-92.5 510,-90 510.69,-96.97"/>
</g>
<!-- Node35 -->
<g id="node35" class="node">
<title>Node35</title>
<g id="a_node35"><a xlink:href="class_server.html#a45f1691489d81cdd6acc640d96d5046b" target="_top" xlink:title="Getter for client header buffer.">
<polygon fill="none" stroke="black" points="505.5,-0.5 505.5,-19.5 668.5,-19.5 668.5,-0.5 505.5,-0.5"/>
<text text-anchor="middle" x="587" y="-7.5" font-family="Helvetica,sans-Serif" font-size="10.00">Server::getClientHeaderBuffer</text>
</a>
</g>
</g>
<!-- Node34&#45;&gt;Node35 -->
<g id="edge36" class="edge">
<title>Node34&#45;&gt;Node35</title>
<path fill="none" stroke="midnightblue" d="M404.35,-95.45C422.5,-79.24 461.86,-46.42 501,-29 506.71,-26.46 512.8,-24.24 518.98,-22.31"/>
<polygon fill="midnightblue" stroke="midnightblue" points="520.1,-25.63 528.75,-19.51 518.17,-18.9 520.1,-25.63"/>
</g>
<!-- Node36 -->
<g id="node36" class="node">
<title>Node36</title>
<g id="a_node36"><a xlink:href="_server_8cpp.html#a83350eae81b96dd7b301d1238268ffdb" target="_top" xlink:title="Handles a received complete request header.">
<polygon fill="none" stroke="black" points="501,-114.5 501,-133.5 673,-133.5 673,-114.5 501,-114.5"/>
<text text-anchor="middle" x="587" y="-121.5" font-family="Helvetica,sans-Serif" font-size="10.00">handleCompleteRequestHeader</text>
</a>
</g>
</g>
<!-- Node34&#45;&gt;Node36 -->
<g id="edge37" class="edge">
<title>Node34&#45;&gt;Node36</title>
<path fill="none" stroke="midnightblue" d="M465.22,-112.05C473.58,-112.88 482.21,-113.73 490.83,-114.58"/>
<polygon fill="midnightblue" stroke="midnightblue" points="490.64,-118.08 500.93,-115.58 491.33,-111.11 490.64,-118.08"/>
</g>
<!-- Node42 -->
<g id="node42" class="node">
<title>Node42</title>
<g id="a_node42"><a xlink:href="_server_8cpp.html#a172c400277e73261d212c33f66226090" target="_top" xlink:title="Checks if the connection buffer contains a request header.">
<polygon fill="none" stroke="black" points="513.5,-38.5 513.5,-57.5 660.5,-57.5 660.5,-38.5 513.5,-38.5"/>
<text text-anchor="middle" x="587" y="-45.5" font-family="Helvetica,sans-Serif" font-size="10.00">isCompleteRequestHeader</text>
</a>
</g>
</g>
<!-- Node34&#45;&gt;Node42 -->
<g id="edge47" class="edge">
<title>Node34&#45;&gt;Node42</title>
<path fill="none" stroke="midnightblue" d="M418.37,-95.39C439.88,-87.14 472.21,-75.3 501,-67 509.86,-64.45 519.31,-62.03 528.58,-59.84"/>
<polygon fill="midnightblue" stroke="midnightblue" points="529.58,-63.2 538.53,-57.54 528,-56.38 529.58,-63.2"/>
</g>
<!-- Node36&#45;&gt;Node18 -->
<g id="edge40" class="edge">
<title>Node36&#45;&gt;Node18</title>
<path fill="none" stroke="midnightblue" d="M604.42,-133.51C622.12,-144.09 650.74,-162.19 673,-181 690.77,-196.02 688.74,-207.57 709,-219 712.97,-221.24 717.18,-223.22 721.52,-224.96"/>
<polygon fill="midnightblue" stroke="midnightblue" points="720.6,-228.35 731.19,-228.42 722.95,-221.75 720.6,-228.35"/>
</g>
<!-- Node36&#45;&gt;Node19 -->
<g id="edge43" class="edge">
<title>Node36&#45;&gt;Node19</title>
<path fill="none" stroke="midnightblue" d="M636.76,-133.58C649.04,-137.1 661.88,-141.8 673,-148 691.96,-158.57 689.73,-171.01 709,-181 715.18,-184.2 721.87,-186.87 728.71,-189.09"/>
<polygon fill="midnightblue" stroke="midnightblue" points="728.21,-192.59 738.79,-192.02 730.17,-185.86 728.21,-192.59"/>
</g>
<!-- Node37 -->
<g id="node37" class="node">
<title>Node37</title>
<g id="a_node37"><a xlink:href="class_server.html#a002dd2fd1e6f0f4290568b4d94f39594" target="_top" xlink:title="Wrapper function to TargetResourceHandler::execute.">
<polygon fill="none" stroke="black" points="723.5,-114.5 723.5,-133.5 870.5,-133.5 870.5,-114.5 723.5,-114.5"/>
<text text-anchor="middle" x="797" y="-121.5" font-family="Helvetica,sans-Serif" font-size="10.00">Server::findTargetResource</text>
</a>
</g>
</g>
<!-- Node36&#45;&gt;Node37 -->
<g id="edge38" class="edge">
<title>Node36&#45;&gt;Node37</title>
<path fill="none" stroke="midnightblue" d="M673.2,-124C686.3,-124 699.82,-124 712.87,-124"/>
<polygon fill="midnightblue" stroke="midnightblue" points="713.23,-127.5 723.23,-124 713.23,-120.5 713.23,-127.5"/>
</g>
<!-- Node39 -->
<g id="node39" class="node">
<title>Node39</title>
<g id="a_node39"><a xlink:href="_connection_8hpp.html#a354192f8dd87ca049cf8b7e6de9000da" target="_top" xlink:title="Selects the server configuration for a connection.">
<polygon fill="none" stroke="black" points="938.5,-73.5 938.5,-92.5 1058.5,-92.5 1058.5,-73.5 938.5,-73.5"/>
<text text-anchor="middle" x="998.5" y="-80.5" font-family="Helvetica,sans-Serif" font-size="10.00">hasValidServerConfig</text>
</a>
</g>
</g>
<!-- Node36&#45;&gt;Node39 -->
<g id="edge41" class="edge">
<title>Node36&#45;&gt;Node39</title>
<path fill="none" stroke="midnightblue" d="M642.69,-114.47C663.41,-111.1 687.24,-107.53 709,-105 783.6,-96.31 869.48,-90.27 928.01,-86.74"/>
<polygon fill="midnightblue" stroke="midnightblue" points="928.47,-90.22 938.25,-86.14 928.06,-83.23 928.47,-90.22"/>
</g>
<!-- Node40 -->
<g id="node40" class="node">
<title>Node40</title>
<g id="a_node40"><a xlink:href="class_server.html#a34bc61299318fe1918293b1d656ee5f9" target="_top" xlink:title="Wrapper function to RequestParser::parseHeader.">
<polygon fill="none" stroke="black" points="739,-152.5 739,-171.5 855,-171.5 855,-152.5 739,-152.5"/>
<text text-anchor="middle" x="797" y="-159.5" font-family="Helvetica,sans-Serif" font-size="10.00">Server::parseHeader</text>
</a>
</g>
</g>
<!-- Node36&#45;&gt;Node40 -->
<g id="edge44" class="edge">
<title>Node36&#45;&gt;Node40</title>
<path fill="none" stroke="midnightblue" d="M640.22,-133.54C668.65,-138.73 704.02,-145.2 733.87,-150.65"/>
<polygon fill="midnightblue" stroke="midnightblue" points="733.29,-154.1 743.76,-152.46 734.55,-147.22 733.29,-154.1"/>
</g>
<!-- Node38 -->
<g id="node38" class="node">
<title>Node38</title>
<g id="a_node38"><a xlink:href="class_target_resource_handler.html#ac3694cb9b73e3f93b874740194539282" target="_top" xlink:title="Determine target resource based on the request path and handle different file types and statuses acco...">
<polygon fill="none" stroke="black" points="933.5,-112 933.5,-142 1063.5,-142 1063.5,-112 933.5,-112"/>
<text text-anchor="start" x="941.5" y="-130" font-family="Helvetica,sans-Serif" font-size="10.00">TargetResourceHandler</text>
<text text-anchor="middle" x="998.5" y="-119" font-family="Helvetica,sans-Serif" font-size="10.00">::execute</text>
</a>
</g>
</g>
<!-- Node37&#45;&gt;Node38 -->
<g id="edge39" class="edge">
<title>Node37&#45;&gt;Node38</title>
<path fill="none" stroke="midnightblue" d="M870.59,-125.09C887.56,-125.35 905.68,-125.62 922.75,-125.88"/>
<polygon fill="midnightblue" stroke="midnightblue" points="923.17,-129.38 933.22,-126.03 923.27,-122.38 923.17,-129.38"/>
</g>
<!-- Node39&#45;&gt;Node17 -->
<g id="edge42" class="edge">
<title>Node39&#45;&gt;Node17</title>
<path fill="none" stroke="midnightblue" d="M1049.83,-92.58C1058.75,-95.09 1067.81,-98.2 1076,-102 1112.99,-119.17 1150.23,-149.04 1171.52,-167.6"/>
<polygon fill="midnightblue" stroke="midnightblue" points="1169.31,-170.32 1179.11,-174.34 1173.95,-165.08 1169.31,-170.32"/>
</g>
<!-- Node41 -->
<g id="node41" class="node">
<title>Node41</title>
<g id="a_node41"><a xlink:href="class_request_parser.html#a933b43673d0b7b99d6cc310f5c03a865" target="_top" xlink:title="Parses the header of an HTTP request.">
<polygon fill="none" stroke="black" points="921,-161.5 921,-180.5 1076,-180.5 1076,-161.5 921,-161.5"/>
<text text-anchor="middle" x="998.5" y="-168.5" font-family="Helvetica,sans-Serif" font-size="10.00">RequestParser::parseHeader</text>
</a>
</g>
</g>
<!-- Node40&#45;&gt;Node41 -->
<g id="edge45" class="edge">
<title>Node40&#45;&gt;Node41</title>
<path fill="none" stroke="midnightblue" d="M855.17,-164.58C872.54,-165.36 892.04,-166.24 910.89,-167.09"/>
<polygon fill="midnightblue" stroke="midnightblue" points="910.83,-170.59 920.98,-167.55 911.15,-163.6 910.83,-170.59"/>
</g>
<!-- Node41&#45;&gt;Node31 -->
<g id="edge46" class="edge">
<title>Node41&#45;&gt;Node31</title>
<path fill="none" stroke="midnightblue" d="M1045.77,-180.57C1055.88,-183.19 1066.41,-186.34 1076,-190 1104.18,-200.76 1134.29,-216.92 1156.41,-229.75"/>
<polygon fill="midnightblue" stroke="midnightblue" points="1154.68,-232.8 1165.07,-234.85 1158.23,-226.76 1154.68,-232.8"/>
</g>
</g>
</svg>
