<?xml version="1.0" encoding="UTF-8" standalone="no"?>
<!DOCTYPE svg PUBLIC "-//W3C//DTD SVG 1.1//EN"
 "http://www.w3.org/Graphics/SVG/1.1/DTD/svg11.dtd">
<!-- Generated by graphviz version 2.43.0 (0)
 -->
<!-- Title: isDuplicateServer Pages: 1 -->
<svg width="336pt" height="267pt"
 viewBox="0.00 0.00 336.00 267.00" xmlns="http://www.w3.org/2000/svg" xmlns:xlink="http://www.w3.org/1999/xlink">
<g id="graph0" class="graph" transform="scale(1 1) rotate(0) translate(4 263)">
<title>isDuplicateServer</title>
<!-- Node1 -->
<g id="Node000001" class="node">
<title>Node1</title>
<g id="a_Node000001"><a xlink:title="Check for duplicate virtual servers.">
<polygon fill="#999999" stroke="#666666" points="328,-93 225,-93 225,-74 328,-74 328,-93"/>
<text text-anchor="middle" x="276.5" y="-81" font-family="Helvetica,sans-Serif" font-size="10.00">isDuplicateServer</text>
</a>
</g>
</g>
<!-- Node2 -->
<g id="Node000002" class="node">
<title>Node2</title>
<g id="a_Node000002"><a xlink:href="_server_8cpp.html#a35359f61d42dbd6561a07c12009ca45a" target="_top" xlink:title="Initialize virtual servers.">
<polygon fill="white" stroke="#666666" points="189,-167 88,-167 88,-148 189,-148 189,-167"/>
<text text-anchor="middle" x="138.5" y="-155" font-family="Helvetica,sans-Serif" font-size="10.00">initVirtualServers</text>
</a>
</g>
</g>
<!-- Node1&#45;&gt;Node2 -->
<g id="edge1_Node000001_Node000002" class="edge">
<title>Node1&#45;&gt;Node2</title>
<g id="a_edge1_Node000001_Node000002"><a xlink:title=" ">
<path fill="none" stroke="#63b8ff" d="M254.43,-99.07C237.39,-111.18 212.46,-127.83 189,-139.5 182.78,-142.6 175.89,-145.44 169.27,-147.91"/>
<polygon fill="#63b8ff" stroke="#63b8ff" points="256.5,-101.89 262.57,-93.2 252.41,-96.21 256.5,-101.89"/>
</a>
</g>
</g>
<!-- Node9 -->
<g id="Node000009" class="node">
<title>Node9</title>
<g id="a_Node000009"><a xlink:href="test__is_duplicate_server_8cpp.html#ac504b201e12dd5c32006b29923e13a7d" target="_top" xlink:title=" ">
<polygon fill="white" stroke="#666666" points="164.5,-130 112.5,-130 112.5,-111 164.5,-111 164.5,-130"/>
<text text-anchor="middle" x="138.5" y="-118" font-family="Helvetica,sans-Serif" font-size="10.00">TEST_F</text>
</a>
</g>
</g>
<!-- Node1&#45;&gt;Node9 -->
<g id="edge8_Node000001_Node000009" class="edge">
<title>Node1&#45;&gt;Node9</title>
<g id="a_edge8_Node000001_Node000009"><a xlink:title=" ">
<path fill="none" stroke="#63b8ff" d="M230.67,-95.7C208.68,-101.68 183.02,-108.66 164.53,-113.69"/>
<polygon fill="#63b8ff" stroke="#63b8ff" points="231.75,-99.03 240.48,-93.03 229.91,-92.28 231.75,-99.03"/>
</a>
</g>
</g>
<!-- Node10 -->
<g id="Node000010" class="node">
<title>Node10</title>
<g id="a_Node000010"><a xlink:href="test__is_duplicate_server_8cpp.html#a8b33f3e96bbbf39b0d99d4b1c1c8cca0" target="_top" xlink:title=" ">
<polygon fill="white" stroke="#666666" points="164.5,-93 112.5,-93 112.5,-74 164.5,-74 164.5,-93"/>
<text text-anchor="middle" x="138.5" y="-81" font-family="Helvetica,sans-Serif" font-size="10.00">TEST_F</text>
</a>
</g>
</g>
<!-- Node1&#45;&gt;Node10 -->
<g id="edge9_Node000001_Node000010" class="edge">
<title>Node1&#45;&gt;Node10</title>
<g id="a_edge9_Node000001_Node000010"><a xlink:title=" ">
<path fill="none" stroke="#63b8ff" d="M214.6,-83.5C196.99,-83.5 178.74,-83.5 164.64,-83.5"/>
<polygon fill="#63b8ff" stroke="#63b8ff" points="214.86,-87 224.86,-83.5 214.86,-80 214.86,-87"/>
</a>
</g>
</g>
<!-- Node11 -->
<g id="Node000011" class="node">
<title>Node11</title>
<g id="a_Node000011"><a xlink:href="test__is_duplicate_server_8cpp.html#aea2b55f75977ede523fc795d572b8fc4" target="_top" xlink:title=" ">
<polygon fill="white" stroke="#666666" points="164.5,-56 112.5,-56 112.5,-37 164.5,-37 164.5,-56"/>
<text text-anchor="middle" x="138.5" y="-44" font-family="Helvetica,sans-Serif" font-size="10.00">TEST_F</text>
</a>
</g>
</g>
<!-- Node1&#45;&gt;Node11 -->
<g id="edge10_Node000001_Node000011" class="edge">
<title>Node1&#45;&gt;Node11</title>
<g id="a_edge10_Node000001_Node000011"><a xlink:title=" ">
<path fill="none" stroke="#63b8ff" d="M230.67,-71.3C208.68,-65.32 183.02,-58.34 164.53,-53.31"/>
<polygon fill="#63b8ff" stroke="#63b8ff" points="229.91,-74.72 240.48,-73.97 231.75,-67.97 229.91,-74.72"/>
</a>
</g>
</g>
<!-- Node12 -->
<g id="Node000012" class="node">
<title>Node12</title>
<g id="a_Node000012"><a xlink:href="test__is_duplicate_server_8cpp.html#a96cad152807546b7320b00dfb44044a2" target="_top" xlink:title=" ">
<polygon fill="white" stroke="#666666" points="164.5,-19 112.5,-19 112.5,0 164.5,0 164.5,-19"/>
<text text-anchor="middle" x="138.5" y="-7" font-family="Helvetica,sans-Serif" font-size="10.00">TEST_F</text>
</a>
</g>
</g>
<!-- Node1&#45;&gt;Node12 -->
<g id="edge11_Node000001_Node000012" class="edge">
<title>Node1&#45;&gt;Node12</title>
<g id="a_edge11_Node000001_Node000012"><a xlink:title=" ">
<path fill="none" stroke="#63b8ff" d="M254.43,-67.93C237.39,-55.82 212.46,-39.17 189,-27.5 181.3,-23.67 172.59,-20.23 164.63,-17.4"/>
<polygon fill="#63b8ff" stroke="#63b8ff" points="252.41,-70.79 262.57,-73.8 256.5,-65.11 252.41,-70.79"/>
</a>
</g>
</g>
<!-- Node3 -->
<g id="Node000003" class="node">
<title>Node3</title>
<g id="a_Node000003"><a xlink:href="main_8cpp.html#a3c04138a5bfe5d72780bb7e82a18e627" target="_top" xlink:title=" ">
<polygon fill="white" stroke="#666666" points="46.5,-259 5.5,-259 5.5,-240 46.5,-240 46.5,-259"/>
<text text-anchor="middle" x="26" y="-247" font-family="Helvetica,sans-Serif" font-size="10.00">main</text>
</a>
</g>
</g>
<!-- Node2&#45;&gt;Node3 -->
<g id="edge2_Node000002_Node000003" class="edge">
<title>Node2&#45;&gt;Node3</title>
<g id="a_edge2_Node000002_Node000003"><a xlink:title=" ">
<path fill="none" stroke="#63b8ff" d="M119.4,-174C102.37,-189.32 75.96,-212.57 52,-231.5 48.48,-234.29 44.57,-237.18 40.92,-239.81"/>
<polygon fill="#63b8ff" stroke="#63b8ff" points="121.89,-176.46 126.96,-167.16 117.2,-171.27 121.89,-176.46"/>
</a>
</g>
</g>
<!-- Node4 -->
<g id="Node000004" class="node">
<title>Node4</title>
<g id="a_Node000004"><a xlink:href="test__init_virtual_servers_8cpp.html#a898cd8e5a6bc1ea3ad534ebccca37541" target="_top" xlink:title=" ">
<polygon fill="white" stroke="#666666" points="52,-222 0,-222 0,-203 52,-203 52,-222"/>
<text text-anchor="middle" x="26" y="-210" font-family="Helvetica,sans-Serif" font-size="10.00">TEST_F</text>
</a>
</g>
</g>
<!-- Node2&#45;&gt;Node4 -->
<g id="edge3_Node000002_Node000004" class="edge">
<title>Node2&#45;&gt;Node4</title>
<g id="a_edge3_Node000002_Node000004"><a xlink:title=" ">
<path fill="none" stroke="#63b8ff" d="M109.14,-171.62C89.46,-181.41 63.77,-194.2 46.4,-202.84"/>
<polygon fill="#63b8ff" stroke="#63b8ff" points="110.86,-174.67 118.25,-167.08 107.74,-168.4 110.86,-174.67"/>
</a>
</g>
</g>
<!-- Node5 -->
<g id="Node000005" class="node">
<title>Node5</title>
<g id="a_Node000005"><a xlink:href="test__init_virtual_servers_8cpp.html#abfe6d5b03727d62dd703c623ad463968" target="_top" xlink:title=" ">
<polygon fill="white" stroke="#666666" points="52,-185 0,-185 0,-166 52,-166 52,-185"/>
<text text-anchor="middle" x="26" y="-173" font-family="Helvetica,sans-Serif" font-size="10.00">TEST_F</text>
</a>
</g>
</g>
<!-- Node2&#45;&gt;Node5 -->
<g id="edge4_Node000002_Node000005" class="edge">
<title>Node2&#45;&gt;Node5</title>
<g id="a_edge4_Node000002_Node000005"><a xlink:title=" ">
<path fill="none" stroke="#63b8ff" d="M77.85,-167.22C68.75,-168.7 59.81,-170.16 52.03,-171.42"/>
<polygon fill="#63b8ff" stroke="#63b8ff" points="78.44,-170.67 87.75,-165.6 77.31,-163.76 78.44,-170.67"/>
</a>
</g>
</g>
<!-- Node6 -->
<g id="Node000006" class="node">
<title>Node6</title>
<g id="a_Node000006"><a xlink:href="test__init_virtual_servers_8cpp.html#a25537358add2db1ce439b611dffe8790" target="_top" xlink:title=" ">
<polygon fill="white" stroke="#666666" points="52,-148 0,-148 0,-129 52,-129 52,-148"/>
<text text-anchor="middle" x="26" y="-136" font-family="Helvetica,sans-Serif" font-size="10.00">TEST_F</text>
</a>
</g>
</g>
<!-- Node2&#45;&gt;Node6 -->
<g id="edge5_Node000002_Node000006" class="edge">
<title>Node2&#45;&gt;Node6</title>
<g id="a_edge5_Node000002_Node000006"><a xlink:title=" ">
<path fill="none" stroke="#63b8ff" d="M77.85,-147.24C68.75,-145.68 59.81,-144.14 52.03,-142.8"/>
<polygon fill="#63b8ff" stroke="#63b8ff" points="77.3,-150.7 87.75,-148.94 78.48,-143.8 77.3,-150.7"/>
</a>
</g>
</g>
<!-- Node7 -->
<g id="Node000007" class="node">
<title>Node7</title>
<g id="a_Node000007"><a xlink:href="test___config_file_parser_8cpp.html#acdf80c4eac12c31af201f6f13f46dfef" target="_top" xlink:title=" ">
<polygon fill="white" stroke="#666666" points="52,-111 0,-111 0,-92 52,-92 52,-111"/>
<text text-anchor="middle" x="26" y="-99" font-family="Helvetica,sans-Serif" font-size="10.00">TEST_F</text>
</a>
</g>
</g>
<!-- Node2&#45;&gt;Node7 -->
<g id="edge6_Node000002_Node000007" class="edge">
<title>Node2&#45;&gt;Node7</title>
<g id="a_edge6_Node000002_Node000007"><a xlink:title=" ">
<path fill="none" stroke="#63b8ff" d="M98.51,-144.2C94.92,-142.71 91.36,-141.14 88,-139.5 70.95,-131.2 52.64,-119.36 40.58,-111.11"/>
<polygon fill="#63b8ff" stroke="#63b8ff" points="97.44,-147.54 108.03,-147.93 99.99,-141.02 97.44,-147.54"/>
</a>
</g>
</g>
<!-- Node8 -->
<g id="Node000008" class="node">
<title>Node8</title>
<g id="a_Node000008"><a xlink:href="test___config_file_parser_8cpp.html#a7a877316d050e1cb0b37399e230a92eb" target="_top" xlink:title=" ">
<polygon fill="white" stroke="#666666" points="52,-74 0,-74 0,-55 52,-55 52,-74"/>
<text text-anchor="middle" x="26" y="-62" font-family="Helvetica,sans-Serif" font-size="10.00">TEST_F</text>
</a>
</g>
</g>
<!-- Node2&#45;&gt;Node8 -->
<g id="edge7_Node000002_Node000008" class="edge">
<title>Node2&#45;&gt;Node8</title>
<g id="a_edge7_Node000002_Node000008"><a xlink:title=" ">
<path fill="none" stroke="#63b8ff" d="M93,-143.04C91.26,-141.94 89.58,-140.76 88,-139.5 64.88,-121.03 72.08,-105.23 52,-83.5 48.89,-80.14 45.13,-76.94 41.48,-74.15"/>
<polygon fill="#63b8ff" stroke="#63b8ff" points="91.69,-146.31 102.16,-147.91 94.98,-140.13 91.69,-146.31"/>
</a>
</g>
</g>
</g>
</svg>
