<?xml version="1.0" encoding="UTF-8" standalone="no"?>
<!DOCTYPE svg PUBLIC "-//W3C//DTD SVG 1.1//EN"
 "http://www.w3.org/Graphics/SVG/1.1/DTD/svg11.dtd">
<!-- Generated by graphviz version 2.43.0 (0)
 -->
<!-- Title: connectionSendToCGI Pages: 1 -->
<!--zoomable 175 -->

<svg id="main" version="1.1" xmlns="http://www.w3.org/2000/svg" xmlns:xlink="http://www.w3.org/1999/xlink" xml:space="preserve" onload="init(evt)">
<style type="text/css"><![CDATA[
.node, .edge {opacity: 0.7;}
.node.selected, .edge.selected {opacity: 1;}
.edge:hover path { stroke: red; }
.edge:hover polygon { stroke: red; fill: red; }
]]></style>

<defs>
  <circle id="rim" cx="0" cy="0" r="7"/>
  <circle id="rim2" cx="0" cy="0" r="3.5"/>
  <g id="zoomPlus">
    <use xlink:href="#rim" fill="#404040"><set attributeName="fill" to="#808080" begin="zoomplus.mouseover" end="zoomplus.mouseout"/></use>
    <path d="M-4,0h8M0,-4v8" fill="none" stroke="white" stroke-width="1.5" pointer-events="none"/>
  </g>
  <g id="zoomMin">
    <use xlink:href="#rim" fill="#404040"><set attributeName="fill" to="#808080" begin="zoomminus.mouseover" end="zoomminus.mouseout"/></use>
    <path d="M-4,0h8" fill="none" stroke="white" stroke-width="1.5" pointer-events="none"/>
  </g>
  <g id="arrowUp" transform="translate(30 24)">
    <use xlink:href="#rim"/>
    <path pointer-events="none" fill="none" stroke="white" stroke-width="1.5" d="M0,-3.0v7 M-2.5,-0.5L0,-3.0L2.5,-0.5"/>
  </g>
  <g id="arrowRight" transform="rotate(90) translate(36 -43)">
    <use xlink:href="#rim"/>
    <path pointer-events="none" fill="none" stroke="white" stroke-width="1.5" d="M0,-3.0v7 M-2.5,-0.5L0,-3.0L2.5,-0.5"/>
  </g>
  <g id="arrowDown" transform="rotate(180) translate(-30 -48)">
    <use xlink:href="#rim"/>
    <path pointer-events="none" fill="none" stroke="white" stroke-width="1.5" d="M0,-3.0v7 M-2.5,-0.5L0,-3.0L2.5,-0.5"/>
  </g>
  <g id="arrowLeft" transform="rotate(270) translate(-36 17)">
    <use xlink:href="#rim"/>
    <path pointer-events="none" fill="none" stroke="white" stroke-width="1.5" d="M0,-3.0v7 M-2.5,-0.5L0,-3.0L2.5,-0.5"/>
  </g>
  <g id="resetDef">
    <use xlink:href="#rim2" fill="#404040"><set attributeName="fill" to="#808080" begin="reset.mouseover" end="reset.mouseout"/></use>
  </g>
</defs>
<script type="application/ecmascript">
var viewWidth = 716;
var viewHeight = 175;
var sectionId = 'dynsection-27';
</script>
<script type="application/ecmascript" xlink:href="svg.min.js"/>
<svg id="graph" class="graph">
<g id="viewport">
<title>connectionSendToCGI</title>
<!-- Node1 -->
<g id="Node000001" class="node">
<title>Node1</title>
<g id="a_Node000001"><a xlink:title="Sends the request body to the CGI process.">
<polygon fill="#999999" stroke="#666666" points="122,-93 0,-93 0,-74 122,-74 122,-93"/>
<text text-anchor="middle" x="61" y="-81" font-family="Helvetica,sans-Serif" font-size="10.00">connectionSendToCGI</text>
</a>
</g>
</g>
<!-- Node2 -->
<g id="Node000002" class="node">
<title>Node2</title>
<g id="a_Node000002"><a xlink:href="class_server.html#afab1a4ec9e524b0dae8f60080642e7fe" target="_top" xlink:title="Wrapper function to EpollWrapper::modifyEvent.">
<polygon fill="white" stroke="#666666" points="304,-148 188,-148 188,-129 304,-129 304,-148"/>
<text text-anchor="middle" x="246" y="-136" font-family="Helvetica,sans-Serif" font-size="10.00">Server::modifyEvent</text>
</a>
</g>
</g>
<!-- Node1&#45;&gt;Node2 -->
<g id="edge1_Node000001_Node000002" class="edge">
<title>Node1&#45;&gt;Node2</title>
<g id="a_edge1_Node000001_Node000002"><a xlink:title=" ">
<path fill="none" stroke="#63b8ff" d="M93.88,-93.08C124.22,-102.2 170.07,-115.98 203.3,-125.97"/>
<polygon fill="#63b8ff" stroke="#63b8ff" points="202.6,-129.41 213.18,-128.94 204.61,-122.71 202.6,-129.41"/>
</a>
</g>
</g>
<!-- Node4 -->
<g id="Node000004" class="node">
<title>Node4</title>
<g id="a_Node000004"><a xlink:href="class_server.html#ab4a0ae2ec5d126062a7c5d4a2f78160a" target="_top" xlink:title="Removes a CGI file descriptor from the server.">
<polygon fill="white" stroke="#666666" points="334,-93 158,-93 158,-74 334,-74 334,-93"/>
<text text-anchor="middle" x="246" y="-81" font-family="Helvetica,sans-Serif" font-size="10.00">Server::removeCGIFileDescriptor</text>
</a>
</g>
</g>
<!-- Node1&#45;&gt;Node4 -->
<g id="edge3_Node000001_Node000004" class="edge">
<title>Node1&#45;&gt;Node4</title>
<g id="a_edge3_Node000001_Node000004"><a xlink:title=" ">
<path fill="none" stroke="#63b8ff" d="M122.17,-83.5C130.41,-83.5 139.03,-83.5 147.72,-83.5"/>
<polygon fill="#63b8ff" stroke="#63b8ff" points="147.94,-87 157.94,-83.5 147.94,-80 147.94,-87"/>
</a>
</g>
</g>
<!-- Node9 -->
<g id="Node000009" class="node">
<title>Node9</title>
<g id="a_Node000009"><a xlink:href="class_server.html#a8fec2a00e7d106bf35f19d2d7f61fd0b" target="_top" xlink:title="Wrapper function to ProcessOps::writeProcess.">
<polygon fill="white" stroke="#666666" points="304,-38 188,-38 188,-19 304,-19 304,-38"/>
<text text-anchor="middle" x="246" y="-26" font-family="Helvetica,sans-Serif" font-size="10.00">Server::writeProcess</text>
</a>
</g>
</g>
<!-- Node1&#45;&gt;Node9 -->
<g id="edge8_Node000001_Node000009" class="edge">
<title>Node1&#45;&gt;Node9</title>
<g id="a_edge8_Node000001_Node000009"><a xlink:title=" ">
<path fill="none" stroke="#63b8ff" d="M93.88,-73.92C124.22,-64.8 170.07,-51.02 203.3,-41.03"/>
<polygon fill="#63b8ff" stroke="#63b8ff" points="204.61,-44.29 213.18,-38.06 202.6,-37.59 204.61,-44.29"/>
</a>
</g>
</g>
<!-- Node3 -->
<g id="Node000003" class="node">
<title>Node3</title>
<g id="a_Node000003"><a xlink:href="class_epoll_wrapper.html#ac97945725185999837a6d0d53f91df1a" target="_top" xlink:title="Modify an event in the epoll instance.">
<polygon fill="white" stroke="#666666" points="519,-167 370,-167 370,-148 519,-148 519,-167"/>
<text text-anchor="middle" x="444.5" y="-155" font-family="Helvetica,sans-Serif" font-size="10.00">EpollWrapper::modifyEvent</text>
</a>
</g>
</g>
<!-- Node2&#45;&gt;Node3 -->
<g id="edge2_Node000002_Node000003" class="edge">
<title>Node2&#45;&gt;Node3</title>
<g id="a_edge2_Node000002_Node000003"><a xlink:title=" ">
<path fill="none" stroke="#63b8ff" d="M304.1,-144.02C321.49,-145.7 340.97,-147.59 359.73,-149.4"/>
<polygon fill="#63b8ff" stroke="#63b8ff" points="359.47,-152.89 369.76,-150.37 360.15,-145.92 359.47,-152.89"/>
</a>
</g>
</g>
<!-- Node5 -->
<g id="Node000005" class="node">
<title>Node5</title>
<g id="a_Node000005"><a xlink:href="namespacewebutils.html#ad74875f464c74bd45589002fc385605e" target="_top" xlink:title=" ">
<polygon fill="white" stroke="#666666" points="495,-130 394,-130 394,-111 495,-111 495,-130"/>
<text text-anchor="middle" x="444.5" y="-118" font-family="Helvetica,sans-Serif" font-size="10.00">webutils::closeFd</text>
</a>
</g>
</g>
<!-- Node4&#45;&gt;Node5 -->
<g id="edge4_Node000004_Node000005" class="edge">
<title>Node4&#45;&gt;Node5</title>
<g id="a_edge4_Node000004_Node000005"><a xlink:title=" ">
<path fill="none" stroke="#63b8ff" d="M297.6,-93.03C323.94,-97.99 356.29,-104.08 383.84,-109.27"/>
<polygon fill="#63b8ff" stroke="#63b8ff" points="383.27,-112.72 393.75,-111.13 384.57,-105.84 383.27,-112.72"/>
</a>
</g>
</g>
<!-- Node6 -->
<g id="Node000006" class="node">
<title>Node6</title>
<g id="a_Node000006"><a xlink:href="class_server.html#aad2be3b48155c6eb508bca4b1af3db97" target="_top" xlink:title="Getter for cgiConnections.">
<polygon fill="white" stroke="#666666" points="518,-93 371,-93 371,-74 518,-74 518,-93"/>
<text text-anchor="middle" x="444.5" y="-81" font-family="Helvetica,sans-Serif" font-size="10.00">Server::getCGIConnections</text>
</a>
</g>
</g>
<!-- Node4&#45;&gt;Node6 -->
<g id="edge5_Node000004_Node000006" class="edge">
<title>Node4&#45;&gt;Node6</title>
<g id="a_edge5_Node000004_Node000006"><a xlink:title=" ">
<path fill="none" stroke="#63b8ff" d="M334.05,-83.5C342.9,-83.5 351.88,-83.5 360.68,-83.5"/>
<polygon fill="#63b8ff" stroke="#63b8ff" points="360.93,-87 370.93,-83.5 360.93,-80 360.93,-87"/>
</a>
</g>
</g>
<!-- Node7 -->
<g id="Node000007" class="node">
<title>Node7</title>
<g id="a_Node000007"><a xlink:href="class_server.html#a3ea71b66d27b584d8c33eb5cb64813f1" target="_top" xlink:title="Wrapper function to EpollWrapper::removeEvent.">
<polygon fill="white" stroke="#666666" points="504,-56 385,-56 385,-37 504,-37 504,-56"/>
<text text-anchor="middle" x="444.5" y="-44" font-family="Helvetica,sans-Serif" font-size="10.00">Server::removeEvent</text>
</a>
</g>
</g>
<!-- Node4&#45;&gt;Node7 -->
<g id="edge6_Node000004_Node000007" class="edge">
<title>Node4&#45;&gt;Node7</title>
<g id="a_edge6_Node000004_Node000007"><a xlink:title=" ">
<path fill="none" stroke="#63b8ff" d="M297.6,-73.97C323.63,-69.07 355.55,-63.06 382.88,-57.91"/>
<polygon fill="#63b8ff" stroke="#63b8ff" points="383.55,-61.35 392.73,-56.06 382.25,-54.47 383.55,-61.35"/>
</a>
</g>
</g>
<!-- Node8 -->
<g id="Node000008" class="node">
<title>Node8</title>
<g id="a_Node000008"><a xlink:href="class_epoll_wrapper.html#a30d7cd3090f8d8d0f10c2d9edb136d59" target="_top" xlink:title="Remove an event from the epoll instance.">
<polygon fill="white" stroke="#666666" points="708,-56 555,-56 555,-37 708,-37 708,-56"/>
<text text-anchor="middle" x="631.5" y="-44" font-family="Helvetica,sans-Serif" font-size="10.00">EpollWrapper::removeEvent</text>
</a>
</g>
</g>
<!-- Node7&#45;&gt;Node8 -->
<g id="edge7_Node000007_Node000008" class="edge">
<title>Node7&#45;&gt;Node8</title>
<g id="a_edge7_Node000007_Node000008"><a xlink:title=" ">
<path fill="none" stroke="#63b8ff" d="M504.04,-46.5C516.86,-46.5 530.69,-46.5 544.34,-46.5"/>
<polygon fill="#63b8ff" stroke="#63b8ff" points="544.72,-50 554.72,-46.5 544.72,-43 544.72,-50"/>
</a>
</g>
</g>
<!-- Node10 -->
<g id="Node000010" class="node">
<title>Node10</title>
<g id="a_Node000010"><a xlink:href="class_process_ops.html#a2f7d6815890c3dbc375b70ae4f5348b9" target="_top" xlink:title="Writes data from a buffer to a file descriptor.">
<polygon fill="white" stroke="#666666" points="515,-19 374,-19 374,0 515,0 515,-19"/>
<text text-anchor="middle" x="444.5" y="-7" font-family="Helvetica,sans-Serif" font-size="10.00">ProcessOps::writeProcess</text>
</a>
</g>
</g>
<!-- Node9&#45;&gt;Node10 -->
<g id="edge9_Node000009_Node000010" class="edge">
<title>Node9&#45;&gt;Node10</title>
<g id="a_edge9_Node000009_Node000010"><a xlink:title=" ">
<path fill="none" stroke="#63b8ff" d="M304.1,-22.98C322.71,-21.18 343.73,-19.15 363.69,-17.22"/>
<polygon fill="#63b8ff" stroke="#63b8ff" points="364.09,-20.7 373.7,-16.25 363.41,-13.73 364.09,-20.7"/>
</a>
</g>
</g>
</g>
</svg>

<g id="navigator" transform="translate(0 0)" fill="#404254">
  <rect fill="#f2f5e9" fill-opacity="0.5" stroke="#606060" stroke-width=".5" x="0" y="0" width="60" height="60"/>
  <use id="zoomplus" xlink:href="#zoomPlus" x="17" y="9" onmousedown="handleZoom(evt,'in')"/>
  <use id="zoomminus" xlink:href="#zoomMin" x="42" y="9" onmousedown="handleZoom(evt,'out')"/>
  <use id="reset" xlink:href="#resetDef" x="30" y="36" onmousedown="handleReset()"/>
   <use id="arrowup" xlink:href="#arrowUp" x="0" y="0" onmousedown="handlePan(0,-1)"/>
  <use id="arrowright" xlink:href="#arrowRight" x="0" y="0" onmousedown="handlePan(1,0)"/>
  <use id="arrowdown" xlink:href="#arrowDown" x="0" y="0" onmousedown="handlePan(0,1)"/>
  <use id="arrowleft" xlink:href="#arrowLeft" x="0" y="0" onmousedown="handlePan(-1,0)"/>
</g>
<svg viewBox="0 0 15 15" width="100%" height="30px" preserveAspectRatio="xMaxYMin meet">
 <g id="arrow_out" transform="scale(0.3 0.3)">
  <a xlink:href="_server_8hpp_aa67430205b6049aa70bad4682a7442b8_cgraph_org.svg" target="_base">
   <rect id="button" ry="5" rx="5" y="6" x="6" height="38" width="38"
        fill="#f2f5e9" fill-opacity="0.5" stroke="#606060" stroke-width="1.0"/>
   <path id="arrow"
     d="M 11.500037,31.436501 C 11.940474,20.09759 22.043105,11.32322 32.158766,21.979434 L 37.068811,17.246167 C 37.068811,17.246167 37.088388,32 37.088388,32 L 22.160133,31.978069 C 22.160133,31.978069 26.997745,27.140456 26.997745,27.140456 C 18.528582,18.264221 13.291696,25.230495 11.500037,31.436501 z"
     style="fill:#404040;"/>
  </a>
 </g>
</svg>

<style type='text/css'>
<![CDATA[
[data-mouse-over-selected='false'] { opacity: 0.7; }
[data-mouse-over-selected='true']  { opacity: 1.0; }
]]>
</style>
<script type="application/ecmascript"><![CDATA[
document.addEventListener('DOMContentLoaded', (event) => {
  highlightEdges();
  highlightAdjacentNodes();
});
]]></script>
</svg>
