<?xml version="1.0" encoding="UTF-8" standalone="no"?>
<!DOCTYPE svg PUBLIC "-//W3C//DTD SVG 1.1//EN"
 "http://www.w3.org/Graphics/SVG/1.1/DTD/svg11.dtd">
<!-- Generated by graphviz version 2.43.0 (0)
 -->
<!-- Title: inc/SocketPolicy.hpp Pages: 1 -->
<!--zoomable 162 -->
<svg id="main" version="1.1" xmlns="http://www.w3.org/2000/svg" xmlns:xlink="http://www.w3.org/1999/xlink" xml:space="preserve" onload="init(evt)">
<style type="text/css"><![CDATA[
.edge:hover path { stroke: red; }
.edge:hover polygon { stroke: red; fill: red; }
]]></style>
<script type="text/javascript"><![CDATA[
var edges = document.getElementsByTagName('g');
if (edges && edges.length) {
  for (var i=0;i<edges.length;i++) {
    if (edges[i].id.substr(0,4)=='edge') {
      edges[i].setAttribute('class','edge');
    }
  }
}
]]></script>
        <defs>
                <circle id="rim" cx="0" cy="0" r="7"/>
                <circle id="rim2" cx="0" cy="0" r="3.5"/>
                <g id="zoomPlus">
                        <use xlink:href="#rim" fill="#404040">
                                <set attributeName="fill" to="#808080" begin="zoomplus.mouseover" end="zoomplus.mouseout"/>
                        </use>
                        <path d="M-4,0h8M0,-4v8" fill="none" stroke="white" stroke-width="1.5" pointer-events="none"/>
                </g>
                <g id="zoomMin">
                        <use xlink:href="#rim" fill="#404040">
                                <set attributeName="fill" to="#808080" begin="zoomminus.mouseover" end="zoomminus.mouseout"/>
                        </use>
                        <path d="M-4,0h8" fill="none" stroke="white" stroke-width="1.5" pointer-events="none"/>
                </g>
                <g id="dirArrow">
                        <path fill="none" stroke="white" stroke-width="1.5" d="M0,-3.0v7 M-2.5,-0.5L0,-3.0L2.5,-0.5"/>
                </g>
               <g id="resetDef">
                       <use xlink:href="#rim2" fill="#404040">
                               <set attributeName="fill" to="#808080" begin="reset.mouseover" end="reset.mouseout"/>
                       </use>
               </g>
        </defs>

<script type="text/javascript">
var viewWidth = 2825;
var viewHeight = 162;
var sectionId = 'dynsection-1';
</script>
<script xlink:href="svgpan.js"/>
<svg id="graph" class="graph">
<g id="viewport">
<title>inc/SocketPolicy.hpp</title>
<!-- Node1 -->
<g id="node1" class="node">
<title>Node1</title>
<g id="a_node1"><a xlink:title=" ">
<polygon fill="#bfbfbf" stroke="black" points="1446,-134.5 1446,-153.5 1561,-153.5 1561,-134.5 1446,-134.5"/>
<text text-anchor="middle" x="1503.5" y="-141.5" font-family="Helvetica,sans-Serif" font-size="10.00">inc/SocketPolicy.hpp</text>
</a>
</g>
</g>
<!-- Node2 -->
<g id="node2" class="node">
<title>Node2</title>
<g id="a_node2"><a xlink:href="_mock_socket_policy_8hpp.html" target="_top" xlink:title=" ">
<polygon fill="none" stroke="black" points="1216,-73 1216,-92 1357,-92 1357,-73 1216,-73"/>
<text text-anchor="middle" x="1286.5" y="-80" font-family="Helvetica,sans-Serif" font-size="10.00">inc/MockSocketPolicy.hpp</text>
</a>
</g>
</g>
<!-- Node1&#45;&gt;Node2 -->
<g id="edge1" class="edge">
<title>Node1&#45;&gt;Node2</title>
<path fill="none" stroke="midnightblue" d="M1462.73,-131.82C1420.58,-120.26 1355.7,-102.47 1317.53,-92.01"/>
<polygon fill="midnightblue" stroke="midnightblue" points="1461.84,-135.21 1472.41,-134.48 1463.69,-128.46 1461.84,-135.21"/>
</g>
<!-- Node17 -->
<g id="node17" class="node">
<title>Node17</title>
<g id="a_node17"><a xlink:href="_server_8hpp.html" target="_top" xlink:title=" ">
<polygon fill="none" stroke="black" points="1401.5,-73 1401.5,-92 1487.5,-92 1487.5,-73 1401.5,-73"/>
<text text-anchor="middle" x="1444.5" y="-80" font-family="Helvetica,sans-Serif" font-size="10.00">inc/Server.hpp</text>
</a>
</g>
</g>
<!-- Node1&#45;&gt;Node17 -->
<g id="edge16" class="edge">
<title>Node1&#45;&gt;Node17</title>
<path fill="none" stroke="midnightblue" d="M1487.96,-127.32C1476.75,-116.02 1462.04,-101.19 1452.94,-92.01"/>
<polygon fill="midnightblue" stroke="midnightblue" points="1485.52,-129.84 1495.05,-134.48 1490.49,-124.91 1485.52,-129.84"/>
</g>
<!-- Node21 -->
<g id="node21" class="node">
<title>Node21</title>
<g id="a_node21"><a xlink:href="_socket_policy_8cpp.html" target="_top" xlink:title=" ">
<polygon fill="none" stroke="black" points="1505.5,-73 1505.5,-92 1619.5,-92 1619.5,-73 1505.5,-73"/>
<text text-anchor="middle" x="1562.5" y="-80" font-family="Helvetica,sans-Serif" font-size="10.00">src/SocketPolicy.cpp</text>
</a>
</g>
</g>
<!-- Node1&#45;&gt;Node21 -->
<g id="edge34" class="edge">
<title>Node1&#45;&gt;Node21</title>
<path fill="none" stroke="midnightblue" d="M1519.04,-127.32C1530.25,-116.02 1544.96,-101.19 1554.06,-92.01"/>
<polygon fill="midnightblue" stroke="midnightblue" points="1516.51,-124.91 1511.95,-134.48 1521.48,-129.84 1516.51,-124.91"/>
</g>
<!-- Node22 -->
<g id="node22" class="node">
<title>Node22</title>
<g id="a_node22"><a xlink:href="test___socket_policy__retrieve_socket_info_8cpp.html" target="_top" xlink:title=" ">
<polygon fill="none" stroke="black" points="1638,-67.5 1638,-97.5 1769,-97.5 1769,-67.5 1638,-67.5"/>
<text text-anchor="start" x="1646" y="-85.5" font-family="Helvetica,sans-Serif" font-size="10.00">test/test_SocketPolicy</text>
<text text-anchor="middle" x="1703.5" y="-74.5" font-family="Helvetica,sans-Serif" font-size="10.00">_retrieveSocketInfo.cpp</text>
</a>
</g>
</g>
<!-- Node1&#45;&gt;Node22 -->
<g id="edge35" class="edge">
<title>Node1&#45;&gt;Node22</title>
<path fill="none" stroke="midnightblue" d="M1541.79,-131.61C1574.41,-121.9 1621.43,-107.92 1656.36,-97.52"/>
<polygon fill="midnightblue" stroke="midnightblue" points="1540.74,-128.27 1532.16,-134.48 1542.74,-134.98 1540.74,-128.27"/>
</g>
<!-- Node3 -->
<g id="node3" class="node">
<title>Node3</title>
<g id="a_node3"><a xlink:href="test__accept_connections_8cpp.html" target="_top" xlink:title=" ">
<polygon fill="none" stroke="black" points="2249,-6 2249,-25 2424,-25 2424,-6 2249,-6"/>
<text text-anchor="middle" x="2336.5" y="-13" font-family="Helvetica,sans-Serif" font-size="10.00">test/test_acceptConnections.cpp</text>
</a>
</g>
</g>
<!-- Node2&#45;&gt;Node3 -->
<g id="edge2" class="edge">
<title>Node2&#45;&gt;Node3</title>
<path fill="none" stroke="midnightblue" d="M1351.58,-71.62C1365.08,-69.85 1379.23,-68.19 1392.5,-67 1768.23,-33.4 1865.01,-67.22 2240.5,-31 2255.6,-29.54 2271.95,-27.32 2286.8,-25.05"/>
<polygon fill="midnightblue" stroke="midnightblue" points="1350.85,-68.19 1341.41,-72.99 1351.78,-75.12 1350.85,-68.19"/>
</g>
<!-- Node4 -->
<g id="node4" class="node">
<title>Node4</title>
<g id="a_node4"><a xlink:href="test__check_for_timeout_8cpp.html" target="_top" xlink:title=" ">
<polygon fill="none" stroke="black" points="0,-6 0,-25 167,-25 167,-6 0,-6"/>
<text text-anchor="middle" x="83.5" y="-13" font-family="Helvetica,sans-Serif" font-size="10.00">test/test_checkForTimeout.cpp</text>
</a>
</g>
</g>
<!-- Node2&#45;&gt;Node4 -->
<g id="edge3" class="edge">
<title>Node2&#45;&gt;Node4</title>
<path fill="none" stroke="midnightblue" d="M1205.68,-80.89C1022.11,-78.84 559.88,-69.91 175.5,-31 161.02,-29.53 145.35,-27.31 131.12,-25.04"/>
<polygon fill="midnightblue" stroke="midnightblue" points="1205.75,-84.39 1215.79,-81 1205.83,-77.39 1205.75,-84.39"/>
</g>
<!-- Node5 -->
<g id="node5" class="node">
<title>Node5</title>
<g id="a_node5"><a xlink:href="test__connection_receive_from_c_g_i_8cpp.html" target="_top" xlink:title=" ">
<polygon fill="none" stroke="black" points="185,-0.5 185,-30.5 340,-30.5 340,-0.5 185,-0.5"/>
<text text-anchor="start" x="193" y="-18.5" font-family="Helvetica,sans-Serif" font-size="10.00">test/test_connectionReceive</text>
<text text-anchor="middle" x="262.5" y="-7.5" font-family="Helvetica,sans-Serif" font-size="10.00">FromCGI.cpp</text>
</a>
</g>
</g>
<!-- Node2&#45;&gt;Node5 -->
<g id="edge4" class="edge">
<title>Node2&#45;&gt;Node5</title>
<path fill="none" stroke="midnightblue" d="M1205.56,-80.23C1042.78,-76.98 664.33,-66.01 348.5,-31 345.79,-30.7 343.04,-30.37 340.26,-30.02"/>
<polygon fill="midnightblue" stroke="midnightblue" points="1205.9,-83.73 1215.97,-80.43 1206.04,-76.73 1205.9,-83.73"/>
</g>
<!-- Node6 -->
<g id="node6" class="node">
<title>Node6</title>
<g id="a_node6"><a xlink:href="test__connection_receive_header_8cpp.html" target="_top" xlink:title=" ">
<polygon fill="none" stroke="black" points="358,-0.5 358,-30.5 513,-30.5 513,-0.5 358,-0.5"/>
<text text-anchor="start" x="366" y="-18.5" font-family="Helvetica,sans-Serif" font-size="10.00">test/test_connectionReceive</text>
<text text-anchor="middle" x="435.5" y="-7.5" font-family="Helvetica,sans-Serif" font-size="10.00">Header.cpp</text>
</a>
</g>
</g>
<!-- Node2&#45;&gt;Node6 -->
<g id="edge5" class="edge">
<title>Node2&#45;&gt;Node6</title>
<path fill="none" stroke="midnightblue" d="M1205.79,-78.8C1066.16,-73.53 770.64,-59.81 522.5,-31 519.46,-30.65 516.36,-30.26 513.23,-29.85"/>
<polygon fill="midnightblue" stroke="midnightblue" points="1205.86,-82.3 1215.98,-79.18 1206.12,-75.31 1205.86,-82.3"/>
</g>
<!-- Node7 -->
<g id="node7" class="node">
<title>Node7</title>
<g id="a_node7"><a xlink:href="test__connection_send_response_8cpp.html" target="_top" xlink:title=" ">
<polygon fill="none" stroke="black" points="531.5,-0.5 531.5,-30.5 671.5,-30.5 671.5,-0.5 531.5,-0.5"/>
<text text-anchor="start" x="539.5" y="-18.5" font-family="Helvetica,sans-Serif" font-size="10.00">test/test_connectionSend</text>
<text text-anchor="middle" x="601.5" y="-7.5" font-family="Helvetica,sans-Serif" font-size="10.00">Response.cpp</text>
</a>
</g>
</g>
<!-- Node2&#45;&gt;Node7 -->
<g id="edge6" class="edge">
<title>Node2&#45;&gt;Node7</title>
<path fill="none" stroke="midnightblue" d="M1205.56,-77.29C1089.1,-70.67 867.67,-55.91 680.5,-31 677.6,-30.61 674.64,-30.19 671.65,-29.75"/>
<polygon fill="midnightblue" stroke="midnightblue" points="1205.63,-80.8 1215.81,-77.87 1206.03,-73.81 1205.63,-80.8"/>
</g>
<!-- Node8 -->
<g id="node8" class="node">
<title>Node8</title>
<g id="a_node8"><a xlink:href="test__connection_send_to_c_g_i_8cpp.html" target="_top" xlink:title=" ">
<polygon fill="none" stroke="black" points="689.5,-0.5 689.5,-30.5 829.5,-30.5 829.5,-0.5 689.5,-0.5"/>
<text text-anchor="start" x="697.5" y="-18.5" font-family="Helvetica,sans-Serif" font-size="10.00">test/test_connectionSend</text>
<text text-anchor="middle" x="759.5" y="-7.5" font-family="Helvetica,sans-Serif" font-size="10.00">ToCGI.cpp</text>
</a>
</g>
</g>
<!-- Node2&#45;&gt;Node8 -->
<g id="edge7" class="edge">
<title>Node2&#45;&gt;Node8</title>
<path fill="none" stroke="midnightblue" d="M1205.57,-74.08C1115.68,-65.44 966.36,-49.92 838.5,-31 835.6,-30.57 832.65,-30.12 829.67,-29.64"/>
<polygon fill="midnightblue" stroke="midnightblue" points="1205.41,-77.58 1215.69,-75.05 1206.07,-70.61 1205.41,-77.58"/>
</g>
<!-- Node9 -->
<g id="node9" class="node">
<title>Node9</title>
<g id="a_node9"><a xlink:href="test__create_virtual_server_8cpp.html" target="_top" xlink:title=" ">
<polygon fill="none" stroke="black" points="847.5,-6 847.5,-25 1023.5,-25 1023.5,-6 847.5,-6"/>
<text text-anchor="middle" x="935.5" y="-13" font-family="Helvetica,sans-Serif" font-size="10.00">test/test_createVirtualServer.cpp</text>
</a>
</g>
</g>
<!-- Node2&#45;&gt;Node9 -->
<g id="edge8" class="edge">
<title>Node2&#45;&gt;Node9</title>
<path fill="none" stroke="midnightblue" d="M1230,-71.04C1160.96,-58.25 1045.49,-36.87 981.57,-25.03"/>
<polygon fill="midnightblue" stroke="midnightblue" points="1229.78,-74.56 1240.25,-72.94 1231.06,-67.67 1229.78,-74.56"/>
</g>
<!-- Node10 -->
<g id="node10" class="node">
<title>Node10</title>
<g id="a_node10"><a xlink:href="test__handle_complete_request_header_8cpp.html" target="_top" xlink:title=" ">
<polygon fill="none" stroke="black" points="1042,-0.5 1042,-30.5 1185,-30.5 1185,-0.5 1042,-0.5"/>
<text text-anchor="start" x="1050" y="-18.5" font-family="Helvetica,sans-Serif" font-size="10.00">test/test_handleComplete</text>
<text text-anchor="middle" x="1113.5" y="-7.5" font-family="Helvetica,sans-Serif" font-size="10.00">RequestHeader.cpp</text>
</a>
</g>
</g>
<!-- Node2&#45;&gt;Node10 -->
<g id="edge9" class="edge">
<title>Node2&#45;&gt;Node10</title>
<path fill="none" stroke="midnightblue" d="M1254.15,-69.35C1224.83,-58.33 1181.62,-42.09 1150.84,-30.53"/>
<polygon fill="midnightblue" stroke="midnightblue" points="1252.93,-72.63 1263.53,-72.87 1255.4,-66.07 1252.93,-72.63"/>
</g>
<!-- Node11 -->
<g id="node11" class="node">
<title>Node11</title>
<g id="a_node11"><a xlink:href="test__init_virtual_servers_8cpp.html" target="_top" xlink:title=" ">
<polygon fill="none" stroke="black" points="1203,-6 1203,-25 1370,-25 1370,-6 1203,-6"/>
<text text-anchor="middle" x="1286.5" y="-13" font-family="Helvetica,sans-Serif" font-size="10.00">test/test_initVirtualServers.cpp</text>
</a>
</g>
</g>
<!-- Node2&#45;&gt;Node11 -->
<g id="edge10" class="edge">
<title>Node2&#45;&gt;Node11</title>
<path fill="none" stroke="midnightblue" d="M1286.5,-62.54C1286.5,-50.17 1286.5,-34.62 1286.5,-25.13"/>
<polygon fill="midnightblue" stroke="midnightblue" points="1283,-62.73 1286.5,-72.73 1290,-62.73 1283,-62.73"/>
</g>
<!-- Node12 -->
<g id="node12" class="node">
<title>Node12</title>
<g id="a_node12"><a xlink:href="test__is_duplicate_server_8cpp.html" target="_top" xlink:title=" ">
<polygon fill="none" stroke="black" points="1387.5,-6 1387.5,-25 1555.5,-25 1555.5,-6 1387.5,-6"/>
<text text-anchor="middle" x="1471.5" y="-13" font-family="Helvetica,sans-Serif" font-size="10.00">test/test_isDuplicateServer.cpp</text>
</a>
</g>
</g>
<!-- Node2&#45;&gt;Node12 -->
<g id="edge11" class="edge">
<title>Node2&#45;&gt;Node12</title>
<path fill="none" stroke="midnightblue" d="M1320.84,-69.44C1357.54,-56.54 1414.79,-36.42 1447.13,-25.06"/>
<polygon fill="midnightblue" stroke="midnightblue" points="1319.34,-66.25 1311.07,-72.87 1321.66,-72.86 1319.34,-66.25"/>
</g>
<!-- Node13 -->
<g id="node13" class="node">
<title>Node13</title>
<g id="a_node13"><a xlink:href="test__register_c_g_i_file_descriptor_8cpp.html" target="_top" xlink:title=" ">
<polygon fill="none" stroke="black" points="1573.5,-0.5 1573.5,-30.5 1707.5,-30.5 1707.5,-0.5 1573.5,-0.5"/>
<text text-anchor="start" x="1581.5" y="-18.5" font-family="Helvetica,sans-Serif" font-size="10.00">test/test_registerCGIFile</text>
<text text-anchor="middle" x="1640.5" y="-7.5" font-family="Helvetica,sans-Serif" font-size="10.00">Descriptor.cpp</text>
</a>
</g>
</g>
<!-- Node2&#45;&gt;Node13 -->
<g id="edge12" class="edge">
<title>Node2&#45;&gt;Node13</title>
<path fill="none" stroke="midnightblue" d="M1344.37,-71.14C1400.62,-61.04 1488.46,-45.16 1564.5,-31 1567.41,-30.46 1570.37,-29.9 1573.37,-29.34"/>
<polygon fill="midnightblue" stroke="midnightblue" points="1343.46,-67.75 1334.24,-72.96 1344.7,-74.64 1343.46,-67.75"/>
</g>
<!-- Node14 -->
<g id="node14" class="node">
<title>Node14</title>
<g id="a_node14"><a xlink:href="test__register_connection_8cpp.html" target="_top" xlink:title=" ">
<polygon fill="none" stroke="black" points="1726,-6 1726,-25 1901,-25 1901,-6 1726,-6"/>
<text text-anchor="middle" x="1813.5" y="-13" font-family="Helvetica,sans-Serif" font-size="10.00">test/test_registerConnection.cpp</text>
</a>
</g>
</g>
<!-- Node2&#45;&gt;Node14 -->
<g id="edge13" class="edge">
<title>Node2&#45;&gt;Node14</title>
<path fill="none" stroke="midnightblue" d="M1356.66,-71.65C1368.61,-70.04 1380.91,-68.44 1392.5,-67 1536.29,-49.18 1572.83,-49.71 1716.5,-31 1730.26,-29.21 1745.09,-27.09 1758.92,-25.03"/>
<polygon fill="midnightblue" stroke="midnightblue" points="1356.17,-68.18 1346.73,-72.99 1357.11,-75.12 1356.17,-68.18"/>
</g>
<!-- Node15 -->
<g id="node15" class="node">
<title>Node15</title>
<g id="a_node15"><a xlink:href="test__register_virtual_server_8cpp.html" target="_top" xlink:title=" ">
<polygon fill="none" stroke="black" points="1919.5,-0.5 1919.5,-30.5 2051.5,-30.5 2051.5,-0.5 1919.5,-0.5"/>
<text text-anchor="start" x="1927.5" y="-18.5" font-family="Helvetica,sans-Serif" font-size="10.00">test/test_registerVirtual</text>
<text text-anchor="middle" x="1985.5" y="-7.5" font-family="Helvetica,sans-Serif" font-size="10.00">Server.cpp</text>
</a>
</g>
</g>
<!-- Node2&#45;&gt;Node15 -->
<g id="edge14" class="edge">
<title>Node2&#45;&gt;Node15</title>
<path fill="none" stroke="midnightblue" d="M1353.79,-71.61C1366.62,-69.92 1379.96,-68.29 1392.5,-67 1622.06,-43.35 1681.68,-60.96 1910.5,-31 1913.39,-30.62 1916.34,-30.2 1919.32,-29.75"/>
<polygon fill="midnightblue" stroke="midnightblue" points="1353.07,-68.17 1343.63,-72.98 1354.01,-75.11 1353.07,-68.17"/>
</g>
<!-- Node16 -->
<g id="node16" class="node">
<title>Node16</title>
<g id="a_node16"><a xlink:href="test__shutdown_server_8cpp.html" target="_top" xlink:title=" ">
<polygon fill="none" stroke="black" points="2070,-6 2070,-25 2231,-25 2231,-6 2070,-6"/>
<text text-anchor="middle" x="2150.5" y="-13" font-family="Helvetica,sans-Serif" font-size="10.00">test/test_shutdownServer.cpp</text>
</a>
</g>
</g>
<!-- Node2&#45;&gt;Node16 -->
<g id="edge15" class="edge">
<title>Node2&#45;&gt;Node16</title>
<path fill="none" stroke="midnightblue" d="M1352.49,-71.62C1365.72,-69.88 1379.53,-68.23 1392.5,-67 1688.48,-38.83 1764.87,-62.69 2060.5,-31 2074.51,-29.5 2089.65,-27.29 2103.45,-25.04"/>
<polygon fill="midnightblue" stroke="midnightblue" points="1351.96,-68.16 1342.51,-72.96 1352.89,-75.1 1351.96,-68.16"/>
</g>
<!-- Node17&#45;&gt;Node3 -->
<g id="edge19" class="edge">
<title>Node17&#45;&gt;Node3</title>
<path fill="none" stroke="midnightblue" d="M1480.62,-70.31C1485.9,-69 1491.31,-67.84 1496.5,-67 1823.32,-14.21 1911.07,-63.76 2240.5,-31 2255.43,-29.52 2271.58,-27.31 2286.3,-25.07"/>
<polygon fill="midnightblue" stroke="midnightblue" points="1479.46,-67 1470.7,-72.96 1481.26,-73.77 1479.46,-67"/>
</g>
<!-- Node17&#45;&gt;Node4 -->
<g id="edge20" class="edge">
<title>Node17&#45;&gt;Node4</title>
<path fill="none" stroke="midnightblue" d="M1394.64,-71.17C1385.01,-69.51 1374.97,-68.01 1365.5,-67 839.33,-11.08 702.33,-80.29 175.5,-31 160.69,-29.61 144.64,-27.35 130.16,-25.02"/>
<polygon fill="midnightblue" stroke="midnightblue" points="1394.02,-74.61 1404.48,-72.94 1395.26,-67.72 1394.02,-74.61"/>
</g>
<!-- Node17&#45;&gt;Node5 -->
<g id="edge21" class="edge">
<title>Node17&#45;&gt;Node5</title>
<path fill="none" stroke="midnightblue" d="M1394.63,-71.21C1385,-69.54 1374.97,-68.03 1365.5,-67 915.87,-18.04 798.47,-76.7 348.5,-31 345.79,-30.72 343.03,-30.42 340.25,-30.08"/>
<polygon fill="midnightblue" stroke="midnightblue" points="1394.02,-74.65 1404.48,-72.98 1395.26,-67.76 1394.02,-74.65"/>
</g>
<!-- Node17&#45;&gt;Node6 -->
<g id="edge22" class="edge">
<title>Node17&#45;&gt;Node6</title>
<path fill="none" stroke="midnightblue" d="M1394.01,-71.16C1384.57,-69.53 1374.76,-68.04 1365.5,-67 992.85,-25.05 895.49,-69.9 522.5,-31 519.45,-30.68 516.35,-30.33 513.22,-29.94"/>
<polygon fill="midnightblue" stroke="midnightblue" points="1393.6,-74.64 1404.07,-72.96 1394.84,-67.75 1393.6,-74.64"/>
</g>
<!-- Node17&#45;&gt;Node7 -->
<g id="edge23" class="edge">
<title>Node17&#45;&gt;Node7</title>
<path fill="none" stroke="midnightblue" d="M1393.69,-71.18C1384.35,-69.56 1374.65,-68.08 1365.5,-67 1062.72,-31.41 983.28,-66.59 680.5,-31 677.59,-30.66 674.63,-30.27 671.64,-29.86"/>
<polygon fill="midnightblue" stroke="midnightblue" points="1393.19,-74.64 1403.65,-72.96 1394.43,-67.75 1393.19,-74.64"/>
</g>
<!-- Node17&#45;&gt;Node8 -->
<g id="edge24" class="edge">
<title>Node17&#45;&gt;Node8</title>
<path fill="none" stroke="midnightblue" d="M1392.76,-71.14C1383.7,-69.57 1374.35,-68.11 1365.5,-67 1132.56,-37.76 1071.44,-60.24 838.5,-31 835.59,-30.64 832.63,-30.23 829.65,-29.8"/>
<polygon fill="midnightblue" stroke="midnightblue" points="1392.36,-74.62 1402.82,-72.94 1393.59,-67.73 1392.36,-74.62"/>
</g>
<!-- Node17&#45;&gt;Node9 -->
<g id="edge25" class="edge">
<title>Node17&#45;&gt;Node9</title>
<path fill="none" stroke="midnightblue" d="M1391.2,-71.16C1382.63,-69.66 1373.83,-68.21 1365.5,-67 1218.19,-45.55 1180.14,-50.01 1032.5,-31 1018.65,-29.22 1003.72,-27.09 989.83,-25.02"/>
<polygon fill="midnightblue" stroke="midnightblue" points="1390.67,-74.62 1401.13,-72.94 1391.91,-67.73 1390.67,-74.62"/>
</g>
<!-- Node17&#45;&gt;Node10 -->
<g id="edge26" class="edge">
<title>Node17&#45;&gt;Node10</title>
<path fill="none" stroke="midnightblue" d="M1391.17,-71.03C1335.2,-60.04 1246.9,-42.7 1184.94,-30.53"/>
<polygon fill="midnightblue" stroke="midnightblue" points="1390.74,-74.51 1401.23,-73 1392.09,-67.64 1390.74,-74.51"/>
</g>
<!-- Node17&#45;&gt;Node11 -->
<g id="edge27" class="edge">
<title>Node17&#45;&gt;Node11</title>
<path fill="none" stroke="midnightblue" d="M1413.99,-68.95C1382.71,-56.08 1334.88,-36.4 1307.57,-25.17"/>
<polygon fill="midnightblue" stroke="midnightblue" points="1412.94,-72.3 1423.52,-72.87 1415.6,-65.83 1412.94,-72.3"/>
</g>
<!-- Node17&#45;&gt;Node12 -->
<g id="edge28" class="edge">
<title>Node17&#45;&gt;Node12</title>
<path fill="none" stroke="midnightblue" d="M1452.06,-63.29C1457.25,-50.81 1463.89,-34.81 1467.92,-25.13"/>
<polygon fill="midnightblue" stroke="midnightblue" points="1448.75,-62.16 1448.14,-72.73 1455.21,-64.84 1448.75,-62.16"/>
</g>
<!-- Node17&#45;&gt;Node13 -->
<g id="edge29" class="edge">
<title>Node17&#45;&gt;Node13</title>
<path fill="none" stroke="midnightblue" d="M1480.28,-69.63C1513.52,-58.61 1563.02,-42.19 1598.2,-30.53"/>
<polygon fill="midnightblue" stroke="midnightblue" points="1478.92,-66.4 1470.53,-72.87 1481.12,-73.04 1478.92,-66.4"/>
</g>
<!-- Node17&#45;&gt;Node14 -->
<g id="edge30" class="edge">
<title>Node17&#45;&gt;Node14</title>
<path fill="none" stroke="midnightblue" d="M1482.84,-70.28C1487.42,-69.1 1492.05,-67.97 1496.5,-67 1521.48,-61.55 1673.52,-37.96 1757.64,-25.04"/>
<polygon fill="midnightblue" stroke="midnightblue" points="1481.71,-66.96 1472.96,-72.93 1483.53,-73.72 1481.71,-66.96"/>
</g>
<!-- Node17&#45;&gt;Node15 -->
<g id="edge31" class="edge">
<title>Node17&#45;&gt;Node15</title>
<path fill="none" stroke="midnightblue" d="M1481.56,-70.27C1486.55,-69.02 1491.63,-67.88 1496.5,-67 1678.23,-34.05 1727.58,-56.56 1910.5,-31 1913.39,-30.6 1916.34,-30.15 1919.31,-29.68"/>
<polygon fill="midnightblue" stroke="midnightblue" points="1480.3,-66.98 1471.54,-72.94 1482.1,-73.75 1480.3,-66.98"/>
</g>
<!-- Node17&#45;&gt;Node16 -->
<g id="edge33" class="edge">
<title>Node17&#45;&gt;Node16</title>
<path fill="none" stroke="midnightblue" d="M1480.8,-70.34C1486.03,-69.04 1491.38,-67.87 1496.5,-67 1744.15,-25.04 1810.89,-59.01 2060.5,-31 2074.34,-29.45 2089.3,-27.25 2102.97,-25.03"/>
<polygon fill="midnightblue" stroke="midnightblue" points="1479.74,-67.01 1470.98,-72.97 1481.54,-73.77 1479.74,-67.01"/>
</g>
<!-- Node18 -->
<g id="node18" class="node">
<title>Node18</title>
<g id="a_node18"><a xlink:href="main_8cpp.html" target="_top" xlink:title=" ">
<polygon fill="none" stroke="black" points="2442,-6 2442,-25 2521,-25 2521,-6 2442,-6"/>
<text text-anchor="middle" x="2481.5" y="-13" font-family="Helvetica,sans-Serif" font-size="10.00">src/main.cpp</text>
</a>
</g>
</g>
<!-- Node17&#45;&gt;Node18 -->
<g id="edge17" class="edge">
<title>Node17&#45;&gt;Node18</title>
<path fill="none" stroke="midnightblue" d="M1480.44,-70.31C1485.78,-68.99 1491.25,-67.82 1496.5,-67 1908.24,-2.59 2022.47,-99.82 2433.5,-31 2441.4,-29.68 2449.82,-27.43 2457.37,-25.1"/>
<polygon fill="midnightblue" stroke="midnightblue" points="1479.18,-67.02 1470.42,-72.99 1480.99,-73.79 1479.18,-67.02"/>
</g>
<!-- Node19 -->
<g id="node19" class="node">
<title>Node19</title>
<g id="a_node19"><a xlink:href="_server_8cpp.html" target="_top" xlink:title=" ">
<polygon fill="none" stroke="black" points="2539,-6 2539,-25 2624,-25 2624,-6 2539,-6"/>
<text text-anchor="middle" x="2581.5" y="-13" font-family="Helvetica,sans-Serif" font-size="10.00">src/Server.cpp</text>
</a>
</g>
</g>
<!-- Node17&#45;&gt;Node19 -->
<g id="edge18" class="edge">
<title>Node17&#45;&gt;Node19</title>
<path fill="none" stroke="midnightblue" d="M1480.44,-70.29C1485.78,-68.97 1491.25,-67.81 1496.5,-67 1950.94,3.25 2076.24,-102.4 2530.5,-31 2538.96,-29.67 2548,-27.39 2556.09,-25.03"/>
<polygon fill="midnightblue" stroke="midnightblue" points="1479.18,-67.01 1470.42,-72.97 1480.99,-73.77 1479.18,-67.01"/>
</g>
<!-- Node20 -->
<g id="node20" class="node">
<title>Node20</title>
<g id="a_node20"><a xlink:href="test__select_server_config_8cpp.html" target="_top" xlink:title=" ">
<polygon fill="none" stroke="black" points="2642.5,-6 2642.5,-25 2816.5,-25 2816.5,-6 2642.5,-6"/>
<text text-anchor="middle" x="2729.5" y="-13" font-family="Helvetica,sans-Serif" font-size="10.00">test/test_selectServerConfig.cpp</text>
</a>
</g>
</g>
<!-- Node17&#45;&gt;Node20 -->
<g id="edge32" class="edge">
<title>Node17&#45;&gt;Node20</title>
<path fill="none" stroke="midnightblue" d="M1480.43,-70.28C1485.78,-68.96 1491.25,-67.8 1496.5,-67 1996.27,9.45 2130,-76.83 2633.5,-31 2648.78,-29.61 2665.32,-27.38 2680.3,-25.07"/>
<polygon fill="midnightblue" stroke="midnightblue" points="1479.18,-66.99 1470.42,-72.95 1480.98,-73.75 1479.18,-66.99"/>
</g>
</g>
</svg>
        <g id="navigator" transform="translate(0 0)" fill="#404254">
                <rect fill="#f2f5e9" fill-opacity="0.5" stroke="#606060" stroke-width=".5" x="0" y="0" width="60" height="60"/>
                <use id="zoomplus" xlink:href="#zoomPlus" x="17" y="9" onmousedown="handleZoom(evt,'in')"/>
                <use id="zoomminus" xlink:href="#zoomMin" x="42" y="9" onmousedown="handleZoom(evt,'out')"/>
                <use id="reset" xlink:href="#resetDef" x="30" y="36" onmousedown="handleReset()"/>
                <g id="arrowUp" xlink:href="#dirArrow" transform="translate(30 24)" onmousedown="handlePan(0,-1)">
                  <use xlink:href="#rim" fill="#404040">
                        <set attributeName="fill" to="#808080" begin="arrowUp.mouseover" end="arrowUp.mouseout"/>
                  </use>
                  <path fill="none" stroke="white" stroke-width="1.5" d="M0,-3.0v7 M-2.5,-0.5L0,-3.0L2.5,-0.5"/>
                </g>
                <g id="arrowRight" xlink:href="#dirArrow" transform="rotate(90) translate(36 -43)" onmousedown="handlePan(1,0)">
                  <use xlink:href="#rim" fill="#404040">
                        <set attributeName="fill" to="#808080" begin="arrowRight.mouseover" end="arrowRight.mouseout"/>
                  </use>
                  <path fill="none" stroke="white" stroke-width="1.5" d="M0,-3.0v7 M-2.5,-0.5L0,-3.0L2.5,-0.5"/>
                </g>
                <g id="arrowDown" xlink:href="#dirArrow" transform="rotate(180) translate(-30 -48)" onmousedown="handlePan(0,1)">
                  <use xlink:href="#rim" fill="#404040">
                        <set attributeName="fill" to="#808080" begin="arrowDown.mouseover" end="arrowDown.mouseout"/>
                  </use>
                  <path fill="none" stroke="white" stroke-width="1.5" d="M0,-3.0v7 M-2.5,-0.5L0,-3.0L2.5,-0.5"/>
                </g>
                <g id="arrowLeft" xlink:href="#dirArrow" transform="rotate(270) translate(-36 17)" onmousedown="handlePan(-1,0)">
                  <use xlink:href="#rim" fill="#404040">
                        <set attributeName="fill" to="#808080" begin="arrowLeft.mouseover" end="arrowLeft.mouseout"/>
                  </use>
                  <path fill="none" stroke="white" stroke-width="1.5" d="M0,-3.0v7 M-2.5,-0.5L0,-3.0L2.5,-0.5"/>
                </g>
        </g>
        <svg viewBox="0 0 15 15" width="100%" height="30px" preserveAspectRatio="xMaxYMin meet">
         <g id="arrow_out" transform="scale(0.3 0.3)">
          <a xlink:href="_socket_policy_8hpp__dep__incl_org.svg" target="_base">
           <rect id="button" ry="5" rx="5" y="6" x="6" height="38" width="38"
                fill="#f2f5e9" fill-opacity="0.5" stroke="#606060" stroke-width="1.0"/>
           <path id="arrow"
             d="M 11.500037,31.436501 C 11.940474,20.09759 22.043105,11.32322 32.158766,21.979434 L 37.068811,17.246167 C 37.068811,17.246167 37.088388,32 37.088388,32 L 22.160133,31.978069 C 22.160133,31.978069 26.997745,27.140456 26.997745,27.140456 C 18.528582,18.264221 13.291696,25.230495 11.500037,31.436501 z"
             style="fill:#404040;"/>
          </a>
         </g>
        </svg>
</svg>
