<?xml version="1.0" encoding="UTF-8" standalone="no"?>
<!DOCTYPE svg PUBLIC "-//W3C//DTD SVG 1.1//EN"
 "http://www.w3.org/Graphics/SVG/1.1/DTD/svg11.dtd">
<!-- Generated by graphviz version 2.43.0 (0)
 -->
<!-- Title: src/SocketOps.cpp Pages: 1 -->
<svg width="1285pt" height="357pt"
 viewBox="0.00 0.00 1284.50 357.00" xmlns="http://www.w3.org/2000/svg" xmlns:xlink="http://www.w3.org/1999/xlink">
<g id="graph0" class="graph" transform="scale(1 1) rotate(0) translate(4 353)">
<title>src/SocketOps.cpp</title>
<!-- Node1 -->
<g id="Node000001" class="node">
<title>Node1</title>
<g id="a_Node000001"><a xlink:title=" ">
<polygon fill="#999999" stroke="#666666" points="927.5,-349 822.5,-349 822.5,-330 927.5,-330 927.5,-349"/>
<text text-anchor="middle" x="875" y="-337" font-family="Helvetica,sans-Serif" font-size="10.00">src/SocketOps.cpp</text>
</a>
</g>
</g>
<!-- Node2 -->
<g id="Node000002" class="node">
<title>Node2</title>
<g id="a_Node000002"><a xlink:href="_socket_ops_8hpp.html" target="_top" xlink:title=" ">
<polygon fill="white" stroke="#666666" points="919.5,-294 830.5,-294 830.5,-275 919.5,-275 919.5,-294"/>
<text text-anchor="middle" x="875" y="-282" font-family="Helvetica,sans-Serif" font-size="10.00">SocketOps.hpp</text>
</a>
</g>
</g>
<!-- Node1&#45;&gt;Node2 -->
<g id="edge1_Node000001_Node000002" class="edge">
<title>Node1&#45;&gt;Node2</title>
<g id="a_edge1_Node000001_Node000002"><a xlink:title=" ">
<path fill="none" stroke="#63b8ff" d="M875,-329.75C875,-322.8 875,-312.85 875,-304.13"/>
<polygon fill="#63b8ff" stroke="#63b8ff" points="878.5,-304.09 875,-294.09 871.5,-304.09 878.5,-304.09"/>
</a>
</g>
</g>
<!-- Node3 -->
<g id="Node000003" class="node">
<title>Node3</title>
<g id="a_Node000003"><a xlink:href="_log_8hpp.html" target="_top" xlink:title=" ">
<polygon fill="white" stroke="#666666" points="415.5,-239 360.5,-239 360.5,-220 415.5,-220 415.5,-239"/>
<text text-anchor="middle" x="388" y="-227" font-family="Helvetica,sans-Serif" font-size="10.00">Log.hpp</text>
</a>
</g>
</g>
<!-- Node2&#45;&gt;Node3 -->
<g id="edge2_Node000002_Node000003" class="edge">
<title>Node2&#45;&gt;Node3</title>
<g id="a_edge2_Node000002_Node000003"><a xlink:title=" ">
<path fill="none" stroke="#63b8ff" d="M830.49,-278.66C735.5,-268.32 514.36,-244.25 425.73,-234.61"/>
<polygon fill="#63b8ff" stroke="#63b8ff" points="425.92,-231.11 415.6,-233.5 425.16,-238.06 425.92,-231.11"/>
</a>
</g>
</g>
<!-- Node11 -->
<g id="Node000011" class="node">
<title>Node11</title>
<g id="a_Node000011"><a xlink:title=" ">
<polygon fill="#e0e0e0" stroke="#999999" points="139,-19 95,-19 95,0 139,0 139,-19"/>
<text text-anchor="middle" x="117" y="-7" font-family="Helvetica,sans-Serif" font-size="10.00">string</text>
</a>
</g>
</g>
<!-- Node2&#45;&gt;Node11 -->
<g id="edge43_Node000002_Node000011" class="edge">
<title>Node2&#45;&gt;Node11</title>
<g id="a_edge43_Node000002_Node000011"><a xlink:title=" ">
<path fill="none" stroke="#63b8ff" d="M830.43,-282.04C665.33,-276.03 98,-249.98 98,-175.5 98,-175.5 98,-175.5 98,-118.5 98,-86.56 106.16,-50.1 111.78,-28.77"/>
<polygon fill="#63b8ff" stroke="#63b8ff" points="115.17,-29.66 114.44,-19.09 108.42,-27.81 115.17,-29.66"/>
</a>
</g>
</g>
<!-- Node16 -->
<g id="Node000016" class="node">
<title>Node16</title>
<g id="a_Node000016"><a xlink:href="_socket_8hpp.html" target="_top" xlink:title=" ">
<polygon fill="white" stroke="#666666" points="70,-74 0,-74 0,-55 70,-55 70,-74"/>
<text text-anchor="middle" x="35" y="-62" font-family="Helvetica,sans-Serif" font-size="10.00">Socket.hpp</text>
</a>
</g>
</g>
<!-- Node2&#45;&gt;Node16 -->
<g id="edge20_Node000002_Node000016" class="edge">
<title>Node2&#45;&gt;Node16</title>
<g id="a_edge20_Node000002_Node000016"><a xlink:title=" ">
<path fill="none" stroke="#63b8ff" d="M830.4,-283.96C671.91,-285.19 142.31,-285.76 84,-239 36.63,-201.01 32.91,-120.96 33.89,-84.41"/>
<polygon fill="#63b8ff" stroke="#63b8ff" points="37.4,-84.33 34.33,-74.19 30.41,-84.03 37.4,-84.33"/>
</a>
</g>
</g>
<!-- Node17 -->
<g id="Node000017" class="node">
<title>Node17</title>
<g id="a_Node000017"><a xlink:href="utilities_8hpp.html" target="_top" xlink:title=" ">
<polygon fill="white" stroke="#666666" points="809,-239 735,-239 735,-220 809,-220 809,-239"/>
<text text-anchor="middle" x="772" y="-227" font-family="Helvetica,sans-Serif" font-size="10.00">utilities.hpp</text>
</a>
</g>
</g>
<!-- Node2&#45;&gt;Node17 -->
<g id="edge22_Node000002_Node000017" class="edge">
<title>Node2&#45;&gt;Node17</title>
<g id="a_edge22_Node000002_Node000017"><a xlink:title=" ">
<path fill="none" stroke="#63b8ff" d="M858.45,-274.98C842.11,-266.57 816.87,-253.59 797.87,-243.81"/>
<polygon fill="#63b8ff" stroke="#63b8ff" points="799.34,-240.63 788.85,-239.17 796.14,-246.86 799.34,-240.63"/>
</a>
</g>
</g>
<!-- Node24 -->
<g id="Node000024" class="node">
<title>Node24</title>
<g id="a_Node000024"><a xlink:title=" ">
<polygon fill="#e0e0e0" stroke="#999999" points="1040,-184 988,-184 988,-165 1040,-165 1040,-184"/>
<text text-anchor="middle" x="1014" y="-172" font-family="Helvetica,sans-Serif" font-size="10.00">cassert</text>
</a>
</g>
</g>
<!-- Node2&#45;&gt;Node24 -->
<g id="edge38_Node000002_Node000024" class="edge">
<title>Node2&#45;&gt;Node24</title>
<g id="a_edge38_Node000002_Node000024"><a xlink:title=" ">
<path fill="none" stroke="#63b8ff" d="M869.08,-274.77C860.95,-261.59 848.67,-236.43 861,-220 868.15,-210.48 934.9,-193.63 977.84,-183.62"/>
<polygon fill="#63b8ff" stroke="#63b8ff" points="978.71,-187.01 987.67,-181.35 977.14,-180.19 978.71,-187.01"/>
</a>
</g>
</g>
<!-- Node25 -->
<g id="Node000025" class="node">
<title>Node25</title>
<g id="a_Node000025"><a xlink:title=" ">
<polygon fill="#e0e0e0" stroke="#999999" points="1114,-184 1058,-184 1058,-165 1114,-165 1114,-184"/>
<text text-anchor="middle" x="1086" y="-172" font-family="Helvetica,sans-Serif" font-size="10.00">unistd.h</text>
</a>
</g>
</g>
<!-- Node2&#45;&gt;Node25 -->
<g id="edge45_Node000002_Node000025" class="edge">
<title>Node2&#45;&gt;Node25</title>
<g id="a_edge45_Node000002_Node000025"><a xlink:title=" ">
<path fill="none" stroke="#63b8ff" d="M875.15,-274.69C875.89,-260.93 879.4,-234.45 895,-220 895.71,-219.34 992.62,-196.97 1048.1,-184.21"/>
<polygon fill="#63b8ff" stroke="#63b8ff" points="1048.99,-187.6 1057.95,-181.94 1047.42,-180.77 1048.99,-187.6"/>
</a>
</g>
</g>
<!-- Node26 -->
<g id="Node000026" class="node">
<title>Node26</title>
<g id="a_Node000026"><a xlink:title=" ">
<polygon fill="#e0e0e0" stroke="#999999" points="950.5,-239 903.5,-239 903.5,-220 950.5,-220 950.5,-239"/>
<text text-anchor="middle" x="927" y="-227" font-family="Helvetica,sans-Serif" font-size="10.00">cerrno</text>
</a>
</g>
</g>
<!-- Node2&#45;&gt;Node26 -->
<g id="edge39_Node000002_Node000026" class="edge">
<title>Node2&#45;&gt;Node26</title>
<g id="a_edge39_Node000002_Node000026"><a xlink:title=" ">
<path fill="none" stroke="#63b8ff" d="M883.59,-274.75C891.16,-267.03 902.38,-255.6 911.51,-246.28"/>
<polygon fill="#63b8ff" stroke="#63b8ff" points="914.07,-248.68 918.57,-239.09 909.07,-243.78 914.07,-248.68"/>
</a>
</g>
</g>
<!-- Node27 -->
<g id="Node000027" class="node">
<title>Node27</title>
<g id="a_Node000027"><a xlink:title=" ">
<polygon fill="#e0e0e0" stroke="#999999" points="1019,-239 969,-239 969,-220 1019,-220 1019,-239"/>
<text text-anchor="middle" x="994" y="-227" font-family="Helvetica,sans-Serif" font-size="10.00">cstring</text>
</a>
</g>
</g>
<!-- Node2&#45;&gt;Node27 -->
<g id="edge40_Node000002_Node000027" class="edge">
<title>Node2&#45;&gt;Node27</title>
<g id="a_edge40_Node000002_Node000027"><a xlink:title=" ">
<path fill="none" stroke="#63b8ff" d="M894.12,-274.98C913.35,-266.42 943.23,-253.11 965.31,-243.28"/>
<polygon fill="#63b8ff" stroke="#63b8ff" points="966.82,-246.44 974.53,-239.17 963.97,-240.04 966.82,-246.44"/>
</a>
</g>
</g>
<!-- Node28 -->
<g id="Node000028" class="node">
<title>Node28</title>
<g id="a_Node000028"><a xlink:title=" ">
<polygon fill="#e0e0e0" stroke="#999999" points="1090.5,-239 1037.5,-239 1037.5,-220 1090.5,-220 1090.5,-239"/>
<text text-anchor="middle" x="1064" y="-227" font-family="Helvetica,sans-Serif" font-size="10.00">netdb.h</text>
</a>
</g>
</g>
<!-- Node2&#45;&gt;Node28 -->
<g id="edge41_Node000002_Node000028" class="edge">
<title>Node2&#45;&gt;Node28</title>
<g id="a_edge41_Node000002_Node000028"><a xlink:title=" ">
<path fill="none" stroke="#63b8ff" d="M905.37,-274.98C938.61,-265.66 991.89,-250.72 1027.41,-240.76"/>
<polygon fill="#63b8ff" stroke="#63b8ff" points="1028.69,-244.04 1037.37,-237.97 1026.8,-237.3 1028.69,-244.04"/>
</a>
</g>
</g>
<!-- Node29 -->
<g id="Node000029" class="node">
<title>Node29</title>
<g id="a_Node000029"><a xlink:title=" ">
<polygon fill="#e0e0e0" stroke="#999999" points="1181,-239 1109,-239 1109,-220 1181,-220 1181,-239"/>
<text text-anchor="middle" x="1145" y="-227" font-family="Helvetica,sans-Serif" font-size="10.00">netinet/in.h</text>
</a>
</g>
</g>
<!-- Node2&#45;&gt;Node29 -->
<g id="edge42_Node000002_Node000029" class="edge">
<title>Node2&#45;&gt;Node29</title>
<g id="a_edge42_Node000002_Node000029"><a xlink:title=" ">
<path fill="none" stroke="#63b8ff" d="M918.38,-274.98C967.75,-265.29 1048.07,-249.53 1098.64,-239.6"/>
<polygon fill="#63b8ff" stroke="#63b8ff" points="1099.51,-243 1108.65,-237.63 1098.17,-236.13 1099.51,-243"/>
</a>
</g>
</g>
<!-- Node30 -->
<g id="Node000030" class="node">
<title>Node30</title>
<g id="a_Node000030"><a xlink:title=" ">
<polygon fill="#e0e0e0" stroke="#999999" points="1276.5,-239 1199.5,-239 1199.5,-220 1276.5,-220 1276.5,-239"/>
<text text-anchor="middle" x="1238" y="-227" font-family="Helvetica,sans-Serif" font-size="10.00">sys/socket.h</text>
</a>
</g>
</g>
<!-- Node2&#45;&gt;Node30 -->
<g id="edge44_Node000002_Node000030" class="edge">
<title>Node2&#45;&gt;Node30</title>
<g id="a_edge44_Node000002_Node000030"><a xlink:title=" ">
<path fill="none" stroke="#63b8ff" d="M919.67,-277.69C978.88,-269.88 1086.85,-255.25 1189.35,-239.05"/>
<polygon fill="#63b8ff" stroke="#63b8ff" points="1189.92,-242.51 1199.25,-237.48 1188.82,-235.59 1189.92,-242.51"/>
</a>
</g>
</g>
<!-- Node4 -->
<g id="Node000004" class="node">
<title>Node4</title>
<g id="a_Node000004"><a xlink:href="_log_outputter_console_8hpp.html" target="_top" xlink:title=" ">
<polygon fill="white" stroke="#666666" points="532,-184 392,-184 392,-165 532,-165 532,-184"/>
<text text-anchor="middle" x="462" y="-172" font-family="Helvetica,sans-Serif" font-size="10.00">LogOutputterConsole.hpp</text>
</a>
</g>
</g>
<!-- Node3&#45;&gt;Node4 -->
<g id="edge3_Node000003_Node000004" class="edge">
<title>Node3&#45;&gt;Node4</title>
<g id="a_edge3_Node000003_Node000004"><a xlink:title=" ">
<path fill="none" stroke="#63b8ff" d="M399.89,-219.98C411.15,-211.92 428.29,-199.65 441.71,-190.03"/>
<polygon fill="#63b8ff" stroke="#63b8ff" points="443.8,-192.84 449.89,-184.17 439.73,-187.15 443.8,-192.84"/>
</a>
</g>
</g>
<!-- Node12 -->
<g id="Node000012" class="node">
<title>Node12</title>
<g id="a_Node000012"><a xlink:href="_log_outputter_file_8hpp.html" target="_top" xlink:title=" ">
<polygon fill="white" stroke="#666666" points="373.5,-184 254.5,-184 254.5,-165 373.5,-165 373.5,-184"/>
<text text-anchor="middle" x="314" y="-172" font-family="Helvetica,sans-Serif" font-size="10.00">LogOutputterFile.hpp</text>
</a>
</g>
</g>
<!-- Node3&#45;&gt;Node12 -->
<g id="edge11_Node000003_Node000012" class="edge">
<title>Node3&#45;&gt;Node12</title>
<g id="a_edge11_Node000003_Node000012"><a xlink:title=" ">
<path fill="none" stroke="#63b8ff" d="M376.11,-219.98C364.85,-211.92 347.71,-199.65 334.29,-190.03"/>
<polygon fill="#63b8ff" stroke="#63b8ff" points="336.27,-187.15 326.11,-184.17 332.2,-192.84 336.27,-187.15"/>
</a>
</g>
</g>
<!-- Node14 -->
<g id="Node000014" class="node">
<title>Node14</title>
<g id="a_Node000014"><a xlink:href="_logger_8hpp.html" target="_top" xlink:title=" ">
<polygon fill="white" stroke="#666666" points="198,-184 128,-184 128,-165 198,-165 198,-184"/>
<text text-anchor="middle" x="163" y="-172" font-family="Helvetica,sans-Serif" font-size="10.00">Logger.hpp</text>
</a>
</g>
</g>
<!-- Node3&#45;&gt;Node14 -->
<g id="edge15_Node000003_Node000014" class="edge">
<title>Node3&#45;&gt;Node14</title>
<g id="a_edge15_Node000003_Node000014"><a xlink:title=" ">
<path fill="none" stroke="#63b8ff" d="M360.41,-222C322.45,-213.06 253.64,-196.85 208.12,-186.13"/>
<polygon fill="#63b8ff" stroke="#63b8ff" points="208.75,-182.68 198.22,-183.8 207.15,-189.5 208.75,-182.68"/>
</a>
</g>
</g>
<!-- Node5 -->
<g id="Node000005" class="node">
<title>Node5</title>
<g id="a_Node000005"><a xlink:title=" ">
<polygon fill="#e0e0e0" stroke="#999999" points="655,-129 595,-129 595,-110 655,-110 655,-129"/>
<text text-anchor="middle" x="625" y="-117" font-family="Helvetica,sans-Serif" font-size="10.00">iostream</text>
</a>
</g>
</g>
<!-- Node4&#45;&gt;Node5 -->
<g id="edge4_Node000004_Node000005" class="edge">
<title>Node4&#45;&gt;Node5</title>
<g id="a_edge4_Node000004_Node000005"><a xlink:title=" ">
<path fill="none" stroke="#63b8ff" d="M488.19,-164.98C515.44,-156.13 558.3,-142.19 588.78,-132.28"/>
<polygon fill="#63b8ff" stroke="#63b8ff" points="590.18,-135.5 598.61,-129.08 588.01,-128.85 590.18,-135.5"/>
</a>
</g>
</g>
<!-- Node6 -->
<g id="Node000006" class="node">
<title>Node6</title>
<g id="a_Node000006"><a xlink:title=" ">
<polygon fill="#e0e0e0" stroke="#999999" points="504,-129 466,-129 466,-110 504,-110 504,-129"/>
<text text-anchor="middle" x="485" y="-117" font-family="Helvetica,sans-Serif" font-size="10.00">map</text>
</a>
</g>
</g>
<!-- Node4&#45;&gt;Node6 -->
<g id="edge5_Node000004_Node000006" class="edge">
<title>Node4&#45;&gt;Node6</title>
<g id="a_edge5_Node000004_Node000006"><a xlink:title=" ">
<path fill="none" stroke="#63b8ff" d="M465.8,-164.75C468.91,-157.57 473.42,-147.18 477.29,-138.27"/>
<polygon fill="#63b8ff" stroke="#63b8ff" points="480.5,-139.66 481.27,-129.09 474.08,-136.87 480.5,-139.66"/>
</a>
</g>
</g>
<!-- Node7 -->
<g id="Node000007" class="node">
<title>Node7</title>
<g id="a_Node000007"><a xlink:href="_a_log_outputter_8hpp.html" target="_top" xlink:title=" ">
<polygon fill="white" stroke="#666666" points="374.5,-129 267.5,-129 267.5,-110 374.5,-110 374.5,-129"/>
<text text-anchor="middle" x="321" y="-117" font-family="Helvetica,sans-Serif" font-size="10.00">ALogOutputter.hpp</text>
</a>
</g>
</g>
<!-- Node4&#45;&gt;Node7 -->
<g id="edge6_Node000004_Node000007" class="edge">
<title>Node4&#45;&gt;Node7</title>
<g id="a_edge6_Node000004_Node000007"><a xlink:title=" ">
<path fill="none" stroke="#63b8ff" d="M439.35,-164.98C416.15,-156.27 379.88,-142.63 353.6,-132.75"/>
<polygon fill="#63b8ff" stroke="#63b8ff" points="354.66,-129.41 344.07,-129.17 352.2,-135.97 354.66,-129.41"/>
</a>
</g>
</g>
<!-- Node8 -->
<g id="Node000008" class="node">
<title>Node8</title>
<g id="a_Node000008"><a xlink:href="_log_data_8hpp.html" target="_top" xlink:title=" ">
<polygon fill="white" stroke="#666666" points="360,-74 282,-74 282,-55 360,-55 360,-74"/>
<text text-anchor="middle" x="321" y="-62" font-family="Helvetica,sans-Serif" font-size="10.00">LogData.hpp</text>
</a>
</g>
</g>
<!-- Node7&#45;&gt;Node8 -->
<g id="edge7_Node000007_Node000008" class="edge">
<title>Node7&#45;&gt;Node8</title>
<g id="a_edge7_Node000007_Node000008"><a xlink:title=" ">
<path fill="none" stroke="#63b8ff" d="M321,-109.75C321,-102.8 321,-92.85 321,-84.13"/>
<polygon fill="#63b8ff" stroke="#63b8ff" points="324.5,-84.09 321,-74.09 317.5,-84.09 324.5,-84.09"/>
</a>
</g>
</g>
<!-- Node9 -->
<g id="Node000009" class="node">
<title>Node9</title>
<g id="a_Node000009"><a xlink:title=" ">
<polygon fill="#e0e0e0" stroke="#999999" points="462,-19 418,-19 418,0 462,0 462,-19"/>
<text text-anchor="middle" x="440" y="-7" font-family="Helvetica,sans-Serif" font-size="10.00">ctime</text>
</a>
</g>
</g>
<!-- Node8&#45;&gt;Node9 -->
<g id="edge8_Node000008_Node000009" class="edge">
<title>Node8&#45;&gt;Node9</title>
<g id="a_edge8_Node000008_Node000009"><a xlink:title=" ">
<path fill="none" stroke="#63b8ff" d="M340.12,-54.98C359.35,-46.42 389.23,-33.11 411.31,-23.28"/>
<polygon fill="#63b8ff" stroke="#63b8ff" points="412.82,-26.44 420.53,-19.17 409.97,-20.04 412.82,-26.44"/>
</a>
</g>
</g>
<!-- Node10 -->
<g id="Node000010" class="node">
<title>Node10</title>
<g id="a_Node000010"><a xlink:title=" ">
<polygon fill="#e0e0e0" stroke="#999999" points="821,-19 765,-19 765,0 821,0 821,-19"/>
<text text-anchor="middle" x="793" y="-7" font-family="Helvetica,sans-Serif" font-size="10.00">sstream</text>
</a>
</g>
</g>
<!-- Node8&#45;&gt;Node10 -->
<g id="edge9_Node000008_Node000010" class="edge">
<title>Node8&#45;&gt;Node10</title>
<g id="a_edge9_Node000008_Node000010"><a xlink:title=" ">
<path fill="none" stroke="#63b8ff" d="M360.03,-59.12C449.06,-49.12 666.29,-24.73 754.66,-14.8"/>
<polygon fill="#63b8ff" stroke="#63b8ff" points="755.24,-18.26 764.78,-13.67 754.45,-11.31 755.24,-18.26"/>
</a>
</g>
</g>
<!-- Node8&#45;&gt;Node11 -->
<g id="edge10_Node000008_Node000011" class="edge">
<title>Node8&#45;&gt;Node11</title>
<g id="a_edge10_Node000008_Node000011"><a xlink:title=" ">
<path fill="none" stroke="#63b8ff" d="M288.22,-54.98C249.93,-45.03 186.98,-28.68 149.01,-18.82"/>
<polygon fill="#63b8ff" stroke="#63b8ff" points="149.57,-15.34 139.01,-16.22 147.81,-22.12 149.57,-15.34"/>
</a>
</g>
</g>
<!-- Node12&#45;&gt;Node5 -->
<g id="edge13_Node000012_Node000005" class="edge">
<title>Node12&#45;&gt;Node5</title>
<g id="a_edge13_Node000012_Node000005"><a xlink:title=" ">
<path fill="none" stroke="#63b8ff" d="M363.97,-164.98C425.39,-154.52 528.41,-136.96 584.92,-127.33"/>
<polygon fill="#63b8ff" stroke="#63b8ff" points="585.64,-130.76 594.91,-125.63 584.46,-123.86 585.64,-130.76"/>
</a>
</g>
</g>
<!-- Node12&#45;&gt;Node7 -->
<g id="edge14_Node000012_Node000007" class="edge">
<title>Node12&#45;&gt;Node7</title>
<g id="a_edge14_Node000012_Node000007"><a xlink:title=" ">
<path fill="none" stroke="#63b8ff" d="M315.16,-164.75C316.07,-157.8 317.39,-147.85 318.54,-139.13"/>
<polygon fill="#63b8ff" stroke="#63b8ff" points="322.03,-139.46 319.87,-129.09 315.09,-138.54 322.03,-139.46"/>
</a>
</g>
</g>
<!-- Node13 -->
<g id="Node000013" class="node">
<title>Node13</title>
<g id="a_Node000013"><a xlink:title=" ">
<polygon fill="#e0e0e0" stroke="#999999" points="447.5,-129 392.5,-129 392.5,-110 447.5,-110 447.5,-129"/>
<text text-anchor="middle" x="420" y="-117" font-family="Helvetica,sans-Serif" font-size="10.00">fstream</text>
</a>
</g>
</g>
<!-- Node12&#45;&gt;Node13 -->
<g id="edge12_Node000012_Node000013" class="edge">
<title>Node12&#45;&gt;Node13</title>
<g id="a_edge12_Node000012_Node000013"><a xlink:title=" ">
<path fill="none" stroke="#63b8ff" d="M331.03,-164.98C347.93,-156.54 374.06,-143.47 393.64,-133.68"/>
<polygon fill="#63b8ff" stroke="#63b8ff" points="395.28,-136.77 402.66,-129.17 392.15,-130.51 395.28,-136.77"/>
</a>
</g>
</g>
<!-- Node14&#45;&gt;Node7 -->
<g id="edge18_Node000014_Node000007" class="edge">
<title>Node14&#45;&gt;Node7</title>
<g id="a_edge18_Node000014_Node000007"><a xlink:title=" ">
<path fill="none" stroke="#63b8ff" d="M188.39,-164.98C214.8,-156.13 256.35,-142.19 285.89,-132.28"/>
<polygon fill="#63b8ff" stroke="#63b8ff" points="287.05,-135.58 295.42,-129.08 284.82,-128.94 287.05,-135.58"/>
</a>
</g>
</g>
<!-- Node14&#45;&gt;Node8 -->
<g id="edge19_Node000014_Node000008" class="edge">
<title>Node14&#45;&gt;Node8</title>
<g id="a_edge19_Node000014_Node000008"><a xlink:title=" ">
<path fill="none" stroke="#63b8ff" d="M164.82,-164.81C168.12,-151.24 176.31,-124.99 193,-110 214.86,-90.36 245.86,-79.29 271.88,-73.1"/>
<polygon fill="#63b8ff" stroke="#63b8ff" points="272.93,-76.46 281.95,-70.89 271.43,-69.62 272.93,-76.46"/>
</a>
</g>
</g>
<!-- Node14&#45;&gt;Node11 -->
<g id="edge16_Node000014_Node000011" class="edge">
<title>Node14&#45;&gt;Node11</title>
<g id="a_edge16_Node000014_Node000011"><a xlink:title=" ">
<path fill="none" stroke="#63b8ff" d="M160.53,-164.74C153.32,-139.2 132.22,-64.43 122.29,-29.23"/>
<polygon fill="#63b8ff" stroke="#63b8ff" points="125.57,-27.98 119.49,-19.31 118.83,-29.88 125.57,-27.98"/>
</a>
</g>
</g>
<!-- Node15 -->
<g id="Node000015" class="node">
<title>Node15</title>
<g id="a_Node000015"><a xlink:title=" ">
<polygon fill="#e0e0e0" stroke="#999999" points="249.5,-129 202.5,-129 202.5,-110 249.5,-110 249.5,-129"/>
<text text-anchor="middle" x="226" y="-117" font-family="Helvetica,sans-Serif" font-size="10.00">vector</text>
</a>
</g>
</g>
<!-- Node14&#45;&gt;Node15 -->
<g id="edge17_Node000014_Node000015" class="edge">
<title>Node14&#45;&gt;Node15</title>
<g id="a_edge17_Node000014_Node000015"><a xlink:title=" ">
<path fill="none" stroke="#63b8ff" d="M173.12,-164.98C182.44,-157.15 196.47,-145.34 207.74,-135.86"/>
<polygon fill="#63b8ff" stroke="#63b8ff" points="210.29,-138.29 215.69,-129.17 205.79,-132.93 210.29,-138.29"/>
</a>
</g>
</g>
<!-- Node16&#45;&gt;Node11 -->
<g id="edge21_Node000016_Node000011" class="edge">
<title>Node16&#45;&gt;Node11</title>
<g id="a_edge21_Node000016_Node000011"><a xlink:title=" ">
<path fill="none" stroke="#63b8ff" d="M48.17,-54.98C60.77,-46.84 80,-34.41 94.94,-24.76"/>
<polygon fill="#63b8ff" stroke="#63b8ff" points="97.09,-27.54 103.59,-19.17 93.29,-21.66 97.09,-27.54"/>
</a>
</g>
</g>
<!-- Node17&#45;&gt;Node5 -->
<g id="edge34_Node000017_Node000005" class="edge">
<title>Node17&#45;&gt;Node5</title>
<g id="a_edge34_Node000017_Node000005"><a xlink:title=" ">
<path fill="none" stroke="#63b8ff" d="M771.81,-219.89C771.05,-206.41 767.64,-180.3 753,-165 729.96,-140.93 693.25,-129.87 665.03,-124.8"/>
<polygon fill="#63b8ff" stroke="#63b8ff" points="665.49,-121.33 655.06,-123.19 664.38,-128.24 665.49,-121.33"/>
</a>
</g>
</g>
<!-- Node17&#45;&gt;Node9 -->
<g id="edge33_Node000017_Node000009" class="edge">
<title>Node17&#45;&gt;Node9</title>
<g id="a_edge33_Node000017_Node000009"><a xlink:title=" ">
<path fill="none" stroke="#63b8ff" d="M734.76,-227.1C693.73,-224 627.19,-214.28 579,-184 562.25,-173.48 483.22,-68.59 452.38,-27.18"/>
<polygon fill="#63b8ff" stroke="#63b8ff" points="455.18,-25.09 446.41,-19.16 449.57,-29.27 455.18,-25.09"/>
</a>
</g>
</g>
<!-- Node17&#45;&gt;Node10 -->
<g id="edge35_Node000017_Node000010" class="edge">
<title>Node17&#45;&gt;Node10</title>
<g id="a_edge35_Node000017_Node000010"><a xlink:title=" ">
<path fill="none" stroke="#63b8ff" d="M809.32,-226.12C841.99,-222.15 888.83,-211.66 919,-184 938.4,-166.21 936.02,-154.85 941,-129 947.36,-95.96 948.29,-79.29 925,-55 900.45,-29.39 860.69,-18.52 831.21,-13.9"/>
<polygon fill="#63b8ff" stroke="#63b8ff" points="831.64,-10.43 821.26,-12.52 830.68,-17.36 831.64,-10.43"/>
</a>
</g>
</g>
<!-- Node17&#45;&gt;Node15 -->
<g id="edge37_Node000017_Node000015" class="edge">
<title>Node17&#45;&gt;Node15</title>
<g id="a_edge37_Node000017_Node000015"><a xlink:title=" ">
<path fill="none" stroke="#63b8ff" d="M734.8,-227.75C620.99,-225.11 282.86,-214.75 245,-184 231.89,-173.35 227.57,-154.04 226.27,-139.5"/>
<polygon fill="#63b8ff" stroke="#63b8ff" points="229.74,-138.94 225.76,-129.12 222.75,-139.28 229.74,-138.94"/>
</a>
</g>
</g>
<!-- Node18 -->
<g id="Node000018" class="node">
<title>Node18</title>
<g id="a_Node000018"><a xlink:href="_method_8hpp.html" target="_top" xlink:title=" ">
<polygon fill="white" stroke="#666666" points="662,-184 588,-184 588,-165 662,-165 662,-184"/>
<text text-anchor="middle" x="625" y="-172" font-family="Helvetica,sans-Serif" font-size="10.00">Method.hpp</text>
</a>
</g>
</g>
<!-- Node17&#45;&gt;Node18 -->
<g id="edge23_Node000017_Node000018" class="edge">
<title>Node17&#45;&gt;Node18</title>
<g id="a_edge23_Node000017_Node000018"><a xlink:title=" ">
<path fill="none" stroke="#63b8ff" d="M748.38,-219.98C724.1,-211.23 686.05,-197.51 658.63,-187.62"/>
<polygon fill="#63b8ff" stroke="#63b8ff" points="659.64,-184.27 649.05,-184.17 657.27,-190.85 659.64,-184.27"/>
</a>
</g>
</g>
<!-- Node19 -->
<g id="Node000019" class="node">
<title>Node19</title>
<g id="a_Node000019"><a xlink:href="_status_code_8hpp.html" target="_top" xlink:title=" ">
<polygon fill="white" stroke="#666666" points="893.5,-184 800.5,-184 800.5,-165 893.5,-165 893.5,-184"/>
<text text-anchor="middle" x="847" y="-172" font-family="Helvetica,sans-Serif" font-size="10.00">StatusCode.hpp</text>
</a>
</g>
</g>
<!-- Node17&#45;&gt;Node19 -->
<g id="edge25_Node000017_Node000019" class="edge">
<title>Node17&#45;&gt;Node19</title>
<g id="a_edge25_Node000017_Node000019"><a xlink:title=" ">
<path fill="none" stroke="#63b8ff" d="M784.05,-219.98C795.46,-211.92 812.83,-199.65 826.43,-190.03"/>
<polygon fill="#63b8ff" stroke="#63b8ff" points="828.58,-192.8 834.73,-184.17 824.54,-187.08 828.58,-192.8"/>
</a>
</g>
</g>
<!-- Node20 -->
<g id="Node000020" class="node">
<title>Node20</title>
<g id="a_Node000020"><a xlink:href="constants_8hpp.html" target="_top" xlink:title=" ">
<polygon fill="white" stroke="#666666" points="931.5,-129 846.5,-129 846.5,-110 931.5,-110 931.5,-129"/>
<text text-anchor="middle" x="889" y="-117" font-family="Helvetica,sans-Serif" font-size="10.00">constants.hpp</text>
</a>
</g>
</g>
<!-- Node17&#45;&gt;Node20 -->
<g id="edge30_Node000017_Node000020" class="edge">
<title>Node17&#45;&gt;Node20</title>
<g id="a_edge30_Node000017_Node000020"><a xlink:title=" ">
<path fill="none" stroke="#63b8ff" d="M809.05,-220.94C843.74,-213.01 891.84,-199.57 903,-184 912.63,-170.56 906.66,-151.72 899.79,-138.05"/>
<polygon fill="#63b8ff" stroke="#63b8ff" points="902.76,-136.19 894.83,-129.16 896.65,-139.6 902.76,-136.19"/>
</a>
</g>
</g>
<!-- Node23 -->
<g id="Node000023" class="node">
<title>Node23</title>
<g id="a_Node000023"><a xlink:title=" ">
<polygon fill="#e0e0e0" stroke="#999999" points="744,-184 680,-184 680,-165 744,-165 744,-184"/>
<text text-anchor="middle" x="712" y="-172" font-family="Helvetica,sans-Serif" font-size="10.00">algorithm</text>
</a>
</g>
</g>
<!-- Node17&#45;&gt;Node23 -->
<g id="edge31_Node000017_Node000023" class="edge">
<title>Node17&#45;&gt;Node23</title>
<g id="a_edge31_Node000017_Node000023"><a xlink:title=" ">
<path fill="none" stroke="#63b8ff" d="M762.36,-219.98C753.49,-212.15 740.13,-200.34 729.39,-190.86"/>
<polygon fill="#63b8ff" stroke="#63b8ff" points="731.63,-188.17 721.82,-184.17 726.99,-193.41 731.63,-188.17"/>
</a>
</g>
</g>
<!-- Node17&#45;&gt;Node24 -->
<g id="edge32_Node000017_Node000024" class="edge">
<title>Node17&#45;&gt;Node24</title>
<g id="a_edge32_Node000017_Node000024"><a xlink:title=" ">
<path fill="none" stroke="#63b8ff" d="M809.02,-220.39C854.84,-210.36 932.36,-193.38 977.8,-183.43"/>
<polygon fill="#63b8ff" stroke="#63b8ff" points="978.78,-186.8 987.8,-181.24 977.28,-179.96 978.78,-186.8"/>
</a>
</g>
</g>
<!-- Node17&#45;&gt;Node25 -->
<g id="edge36_Node000017_Node000025" class="edge">
<title>Node17&#45;&gt;Node25</title>
<g id="a_edge36_Node000017_Node000025"><a xlink:title=" ">
<path fill="none" stroke="#63b8ff" d="M809.33,-223.31C860.79,-215.98 956.62,-201.69 1047.81,-184.12"/>
<polygon fill="#63b8ff" stroke="#63b8ff" points="1048.61,-187.53 1057.76,-182.19 1047.28,-180.66 1048.61,-187.53"/>
</a>
</g>
</g>
<!-- Node18&#45;&gt;Node5 -->
<g id="edge24_Node000018_Node000005" class="edge">
<title>Node18&#45;&gt;Node5</title>
<g id="a_edge24_Node000018_Node000005"><a xlink:title=" ">
<path fill="none" stroke="#63b8ff" d="M625,-164.75C625,-157.8 625,-147.85 625,-139.13"/>
<polygon fill="#63b8ff" stroke="#63b8ff" points="628.5,-139.09 625,-129.09 621.5,-139.09 628.5,-139.09"/>
</a>
</g>
</g>
<!-- Node19&#45;&gt;Node5 -->
<g id="edge29_Node000019_Node000005" class="edge">
<title>Node19&#45;&gt;Node5</title>
<g id="a_edge29_Node000019_Node000005"><a xlink:title=" ">
<path fill="none" stroke="#63b8ff" d="M811.33,-164.98C771.36,-155.44 706.72,-140.01 665.04,-130.06"/>
<polygon fill="#63b8ff" stroke="#63b8ff" points="665.77,-126.64 655.23,-127.72 664.14,-133.44 665.77,-126.64"/>
</a>
</g>
</g>
<!-- Node19&#45;&gt;Node20 -->
<g id="edge26_Node000019_Node000020" class="edge">
<title>Node19&#45;&gt;Node20</title>
<g id="a_edge26_Node000019_Node000020"><a xlink:title=" ">
<path fill="none" stroke="#63b8ff" d="M853.94,-164.75C859.87,-157.26 868.57,-146.28 875.82,-137.13"/>
<polygon fill="#63b8ff" stroke="#63b8ff" points="878.73,-139.1 882.19,-129.09 873.24,-134.75 878.73,-139.1"/>
</a>
</g>
</g>
<!-- Node22 -->
<g id="Node000022" class="node">
<title>Node22</title>
<g id="a_Node000022"><a xlink:title=" ">
<polygon fill="#e0e0e0" stroke="#999999" points="828.5,-129 779.5,-129 779.5,-110 828.5,-110 828.5,-129"/>
<text text-anchor="middle" x="804" y="-117" font-family="Helvetica,sans-Serif" font-size="10.00">cstdlib</text>
</a>
</g>
</g>
<!-- Node19&#45;&gt;Node22 -->
<g id="edge28_Node000019_Node000022" class="edge">
<title>Node19&#45;&gt;Node22</title>
<g id="a_edge28_Node000019_Node000022"><a xlink:title=" ">
<path fill="none" stroke="#63b8ff" d="M839.9,-164.75C833.83,-157.26 824.91,-146.28 817.49,-137.13"/>
<polygon fill="#63b8ff" stroke="#63b8ff" points="819.99,-134.65 810.97,-129.09 814.55,-139.06 819.99,-134.65"/>
</a>
</g>
</g>
<!-- Node21 -->
<g id="Node000021" class="node">
<title>Node21</title>
<g id="a_Node000021"><a xlink:title=" ">
<polygon fill="#e0e0e0" stroke="#999999" points="915.5,-74 862.5,-74 862.5,-55 915.5,-55 915.5,-74"/>
<text text-anchor="middle" x="889" y="-62" font-family="Helvetica,sans-Serif" font-size="10.00">cstddef</text>
</a>
</g>
</g>
<!-- Node20&#45;&gt;Node21 -->
<g id="edge27_Node000020_Node000021" class="edge">
<title>Node20&#45;&gt;Node21</title>
<g id="a_edge27_Node000020_Node000021"><a xlink:title=" ">
<path fill="none" stroke="#63b8ff" d="M889,-109.75C889,-102.8 889,-92.85 889,-84.13"/>
<polygon fill="#63b8ff" stroke="#63b8ff" points="892.5,-84.09 889,-74.09 885.5,-84.09 892.5,-84.09"/>
</a>
</g>
</g>
</g>
</svg>
