<?xml version="1.0" encoding="UTF-8" standalone="no"?>
<!DOCTYPE svg PUBLIC "-//W3C//DTD SVG 1.1//EN"
 "http://www.w3.org/Graphics/SVG/1.1/DTD/svg11.dtd">
<!-- Generated by graphviz version 2.43.0 (0)
 -->
<!-- Title: inc/Socket.hpp Pages: 1 -->
<!--zoomable 397 -->
<svg id="main" version="1.1" xmlns="http://www.w3.org/2000/svg" xmlns:xlink="http://www.w3.org/1999/xlink" xml:space="preserve" onload="init(evt)">
<style type="text/css"><![CDATA[
.edge:hover path { stroke: red; }
.edge:hover polygon { stroke: red; fill: red; }
]]></style>
<script type="text/javascript"><![CDATA[
var edges = document.getElementsByTagName('g');
if (edges && edges.length) {
  for (var i=0;i<edges.length;i++) {
    if (edges[i].id.substr(0,4)=='edge') {
      edges[i].setAttribute('class','edge');
    }
  }
}
]]></script>
        <defs>
                <circle id="rim" cx="0" cy="0" r="7"/>
                <circle id="rim2" cx="0" cy="0" r="3.5"/>
                <g id="zoomPlus">
                        <use xlink:href="#rim" fill="#404040">
                                <set attributeName="fill" to="#808080" begin="zoomplus.mouseover" end="zoomplus.mouseout"/>
                        </use>
                        <path d="M-4,0h8M0,-4v8" fill="none" stroke="white" stroke-width="1.5" pointer-events="none"/>
                </g>
                <g id="zoomMin">
                        <use xlink:href="#rim" fill="#404040">
                                <set attributeName="fill" to="#808080" begin="zoomminus.mouseover" end="zoomminus.mouseout"/>
                        </use>
                        <path d="M-4,0h8" fill="none" stroke="white" stroke-width="1.5" pointer-events="none"/>
                </g>
                <g id="dirArrow">
                        <path fill="none" stroke="white" stroke-width="1.5" d="M0,-3.0v7 M-2.5,-0.5L0,-3.0L2.5,-0.5"/>
                </g>
               <g id="resetDef">
                       <use xlink:href="#rim2" fill="#404040">
                               <set attributeName="fill" to="#808080" begin="reset.mouseover" end="reset.mouseout"/>
                       </use>
               </g>
        </defs>

<script type="text/javascript">
var viewWidth = 2343;
var viewHeight = 397;
var sectionId = 'dynsection-1';
</script>
<script xlink:href="svgpan.js"/>
<svg id="graph" class="graph">
<g id="viewport">
<title>inc/Socket.hpp</title>
<!-- Node1 -->
<g id="node1" class="node">
<title>Node1</title>
<g id="a_node1"><a xlink:title=" ">
<polygon fill="#bfbfbf" stroke="black" points="1413.5,-369.5 1413.5,-388.5 1500.5,-388.5 1500.5,-369.5 1413.5,-369.5"/>
<text text-anchor="middle" x="1457" y="-376.5" font-family="Helvetica,sans-Serif" font-size="10.00">inc/Socket.hpp</text>
</a>
</g>
</g>
<!-- Node2 -->
<g id="node2" class="node">
<title>Node2</title>
<g id="a_node2"><a xlink:href="_connection_8hpp.html" target="_top" xlink:title=" ">
<polygon fill="none" stroke="black" points="1402,-313.5 1402,-332.5 1512,-332.5 1512,-313.5 1402,-313.5"/>
<text text-anchor="middle" x="1457" y="-320.5" font-family="Helvetica,sans-Serif" font-size="10.00">inc/Connection.hpp</text>
</a>
</g>
</g>
<!-- Node1&#45;&gt;Node2 -->
<g id="edge1" class="edge">
<title>Node1&#45;&gt;Node2</title>
<path fill="none" stroke="midnightblue" d="M1457,-358.8C1457,-349.91 1457,-339.78 1457,-332.75"/>
<polygon fill="midnightblue" stroke="midnightblue" points="1453.5,-359.08 1457,-369.08 1460.5,-359.08 1453.5,-359.08"/>
</g>
<!-- Node5 -->
<g id="node5" class="node">
<title>Node5</title>
<g id="a_node5"><a xlink:href="_server_8hpp.html" target="_top" xlink:title=" ">
<polygon fill="none" stroke="black" points="1207,-73 1207,-92 1293,-92 1293,-73 1207,-73"/>
<text text-anchor="middle" x="1250" y="-80" font-family="Helvetica,sans-Serif" font-size="10.00">inc/Server.hpp</text>
</a>
</g>
</g>
<!-- Node1&#45;&gt;Node5 -->
<g id="edge32" class="edge">
<title>Node1&#45;&gt;Node5</title>
<path fill="none" stroke="midnightblue" d="M1403.17,-370.53C1313.2,-356.51 1142,-322.66 1142,-268 1142,-268 1142,-268 1142,-204.5 1142,-150.16 1203.38,-108.98 1233.6,-92"/>
<polygon fill="midnightblue" stroke="midnightblue" points="1402.79,-374.01 1413.2,-372.06 1403.84,-367.09 1402.79,-374.01"/>
</g>
<!-- Node27 -->
<g id="node27" class="node">
<title>Node27</title>
<g id="a_node27"><a xlink:href="_log_ostream_inserters_8cpp.html" target="_top" xlink:title=" ">
<polygon fill="none" stroke="black" points="1596,-257.5 1596,-276.5 1752,-276.5 1752,-257.5 1596,-257.5"/>
<text text-anchor="middle" x="1674" y="-264.5" font-family="Helvetica,sans-Serif" font-size="10.00">src/LogOstreamInserters.cpp</text>
</a>
</g>
</g>
<!-- Node1&#45;&gt;Node27 -->
<g id="edge49" class="edge">
<title>Node1&#45;&gt;Node27</title>
<path fill="none" stroke="midnightblue" d="M1483.17,-364.73C1528.25,-341.88 1619.33,-295.71 1657.05,-276.59"/>
<polygon fill="midnightblue" stroke="midnightblue" points="1481.36,-361.73 1474.03,-369.37 1484.53,-367.97 1481.36,-361.73"/>
</g>
<!-- Node28 -->
<g id="node28" class="node">
<title>Node28</title>
<g id="a_node28"><a xlink:href="test___ostream_inserters_8cpp.html" target="_top" xlink:title=" ">
<polygon fill="none" stroke="black" points="1770.5,-257.5 1770.5,-276.5 1937.5,-276.5 1937.5,-257.5 1770.5,-257.5"/>
<text text-anchor="middle" x="1854" y="-264.5" font-family="Helvetica,sans-Serif" font-size="10.00">test/test_OstreamInserters.cpp</text>
</a>
</g>
</g>
<!-- Node1&#45;&gt;Node28 -->
<g id="edge50" class="edge">
<title>Node1&#45;&gt;Node28</title>
<path fill="none" stroke="midnightblue" d="M1497.49,-366.78C1577.05,-344.74 1752.2,-296.21 1823.2,-276.53"/>
<polygon fill="midnightblue" stroke="midnightblue" points="1496.52,-363.42 1487.82,-369.46 1498.39,-370.16 1496.52,-363.42"/>
</g>
<!-- Node29 -->
<g id="node29" class="node">
<title>Node29</title>
<g id="a_node29"><a xlink:href="_socket_policy_8hpp.html" target="_top" xlink:title=" ">
<polygon fill="none" stroke="black" points="998.5,-134.5 998.5,-153.5 1113.5,-153.5 1113.5,-134.5 998.5,-134.5"/>
<text text-anchor="middle" x="1056" y="-141.5" font-family="Helvetica,sans-Serif" font-size="10.00">inc/SocketPolicy.hpp</text>
</a>
</g>
</g>
<!-- Node1&#45;&gt;Node29 -->
<g id="edge33" class="edge">
<title>Node1&#45;&gt;Node29</title>
<path fill="none" stroke="midnightblue" d="M1403.27,-377.14C1321.15,-374.77 1169.53,-365.94 1128,-333 1068.85,-286.09 1058.26,-184.5 1056.39,-153.9"/>
<polygon fill="midnightblue" stroke="midnightblue" points="1403.33,-380.64 1413.42,-377.41 1403.51,-373.64 1403.33,-380.64"/>
</g>
<!-- Node3 -->
<g id="node3" class="node">
<title>Node3</title>
<g id="a_node3"><a xlink:href="_response_body_handler_8hpp.html" target="_top" xlink:title=" ">
<polygon fill="none" stroke="black" points="1587,-196 1587,-215 1751,-215 1751,-196 1587,-196"/>
<text text-anchor="middle" x="1669" y="-203" font-family="Helvetica,sans-Serif" font-size="10.00">inc/ResponseBodyHandler.hpp</text>
</a>
</g>
</g>
<!-- Node2&#45;&gt;Node3 -->
<g id="edge2" class="edge">
<title>Node2&#45;&gt;Node3</title>
<path fill="none" stroke="midnightblue" d="M1484.8,-309.08C1503.2,-300.36 1527.76,-288.41 1549,-277 1588.16,-255.96 1633.02,-228.74 1655.16,-215.1"/>
<polygon fill="midnightblue" stroke="midnightblue" points="1483.09,-306.02 1475.54,-313.44 1486.08,-312.35 1483.09,-306.02"/>
</g>
<!-- Node2&#45;&gt;Node5 -->
<g id="edge22" class="edge">
<title>Node2&#45;&gt;Node5</title>
<path fill="none" stroke="midnightblue" d="M1391.79,-315.38C1333.8,-308.39 1254.36,-295.76 1229,-277 1196.12,-252.68 1189.94,-229.89 1199,-190 1207.85,-151.02 1232.81,-109.63 1244.2,-92.12"/>
<polygon fill="midnightblue" stroke="midnightblue" points="1391.65,-318.89 1401.99,-316.58 1392.47,-311.94 1391.65,-318.89"/>
</g>
<!-- Node23 -->
<g id="node23" class="node">
<title>Node23</title>
<g id="a_node23"><a xlink:href="_target_resource_handler_8hpp.html" target="_top" xlink:title=" ">
<polygon fill="none" stroke="black" points="1373.5,-257.5 1373.5,-276.5 1540.5,-276.5 1540.5,-257.5 1373.5,-257.5"/>
<text text-anchor="middle" x="1457" y="-264.5" font-family="Helvetica,sans-Serif" font-size="10.00">inc/TargetResourceHandler.hpp</text>
</a>
</g>
</g>
<!-- Node2&#45;&gt;Node23 -->
<g id="edge23" class="edge">
<title>Node2&#45;&gt;Node23</title>
<path fill="none" stroke="midnightblue" d="M1457,-302.8C1457,-293.91 1457,-283.78 1457,-276.75"/>
<polygon fill="midnightblue" stroke="midnightblue" points="1453.5,-303.08 1457,-313.08 1460.5,-303.08 1453.5,-303.08"/>
</g>
<!-- Node25 -->
<g id="node25" class="node">
<title>Node25</title>
<g id="a_node25"><a xlink:href="test___target_resource_handler_8cpp.html" target="_top" xlink:title=" ">
<polygon fill="none" stroke="black" points="1208.5,-190.5 1208.5,-220.5 1345.5,-220.5 1345.5,-190.5 1208.5,-190.5"/>
<text text-anchor="start" x="1216.5" y="-208.5" font-family="Helvetica,sans-Serif" font-size="10.00">test/test_TargetResource</text>
<text text-anchor="middle" x="1277" y="-197.5" font-family="Helvetica,sans-Serif" font-size="10.00">Handler.cpp</text>
</a>
</g>
</g>
<!-- Node2&#45;&gt;Node25 -->
<g id="edge31" class="edge">
<title>Node2&#45;&gt;Node25</title>
<path fill="none" stroke="midnightblue" d="M1391.72,-317.59C1334.08,-312.17 1256.27,-300.61 1237,-277 1222.5,-259.23 1242.68,-235.51 1259.26,-220.62"/>
<polygon fill="midnightblue" stroke="midnightblue" points="1391.6,-321.09 1401.87,-318.5 1392.22,-314.12 1391.6,-321.09"/>
</g>
<!-- Node26 -->
<g id="node26" class="node">
<title>Node26</title>
<g id="a_node26"><a xlink:href="_connection_8cpp.html" target="_top" xlink:title=" ">
<polygon fill="none" stroke="black" points="1246.5,-257.5 1246.5,-276.5 1355.5,-276.5 1355.5,-257.5 1246.5,-257.5"/>
<text text-anchor="middle" x="1301" y="-264.5" font-family="Helvetica,sans-Serif" font-size="10.00">src/Connection.cpp</text>
</a>
</g>
</g>
<!-- Node2&#45;&gt;Node26 -->
<g id="edge28" class="edge">
<title>Node2&#45;&gt;Node26</title>
<path fill="none" stroke="midnightblue" d="M1422.83,-310.17C1393.46,-300 1351.8,-285.59 1325.6,-276.52"/>
<polygon fill="midnightblue" stroke="midnightblue" points="1421.69,-313.48 1432.28,-313.44 1423.98,-306.86 1421.69,-313.48"/>
</g>
<!-- Node2&#45;&gt;Node27 -->
<g id="edge29" class="edge">
<title>Node2&#45;&gt;Node27</title>
<path fill="none" stroke="midnightblue" d="M1501.11,-311.02C1542.1,-300.82 1602.3,-285.84 1639.78,-276.52"/>
<polygon fill="midnightblue" stroke="midnightblue" points="1500.24,-307.63 1491.38,-313.44 1501.93,-314.43 1500.24,-307.63"/>
</g>
<!-- Node2&#45;&gt;Node28 -->
<g id="edge30" class="edge">
<title>Node2&#45;&gt;Node28</title>
<path fill="none" stroke="midnightblue" d="M1522.41,-313.1C1596.99,-302.96 1718.04,-286.49 1791.42,-276.51"/>
<polygon fill="midnightblue" stroke="midnightblue" points="1521.64,-309.68 1512.2,-314.49 1522.58,-316.61 1521.64,-309.68"/>
</g>
<!-- Node4 -->
<g id="node4" class="node">
<title>Node4</title>
<g id="a_node4"><a xlink:href="_response_builder_8hpp.html" target="_top" xlink:title=" ">
<polygon fill="none" stroke="black" points="1794,-134.5 1794,-153.5 1930,-153.5 1930,-134.5 1794,-134.5"/>
<text text-anchor="middle" x="1862" y="-141.5" font-family="Helvetica,sans-Serif" font-size="10.00">inc/ResponseBuilder.hpp</text>
</a>
</g>
</g>
<!-- Node3&#45;&gt;Node4 -->
<g id="edge3" class="edge">
<title>Node3&#45;&gt;Node4</title>
<path fill="none" stroke="midnightblue" d="M1706.21,-193.03C1743.72,-181.46 1800.74,-163.88 1834.4,-153.51"/>
<polygon fill="midnightblue" stroke="midnightblue" points="1705.18,-189.68 1696.65,-195.98 1707.24,-196.37 1705.18,-189.68"/>
</g>
<!-- Node21 -->
<g id="node21" class="node">
<title>Node21</title>
<g id="a_node21"><a xlink:href="_response_body_handler_8cpp.html" target="_top" xlink:title=" ">
<polygon fill="none" stroke="black" points="1612,-134.5 1612,-153.5 1776,-153.5 1776,-134.5 1612,-134.5"/>
<text text-anchor="middle" x="1694" y="-141.5" font-family="Helvetica,sans-Serif" font-size="10.00">src/ResponseBodyHandler.cpp</text>
</a>
</g>
</g>
<!-- Node3&#45;&gt;Node21 -->
<g id="edge20" class="edge">
<title>Node3&#45;&gt;Node21</title>
<path fill="none" stroke="midnightblue" d="M1676.56,-186.5C1681.16,-175.55 1686.83,-162.07 1690.42,-153.51"/>
<polygon fill="midnightblue" stroke="midnightblue" points="1673.23,-185.4 1672.58,-195.98 1679.68,-188.11 1673.23,-185.4"/>
</g>
<!-- Node22 -->
<g id="node22" class="node">
<title>Node22</title>
<g id="a_node22"><a xlink:href="test___response_body_handler_8cpp.html" target="_top" xlink:title=" ">
<polygon fill="none" stroke="black" points="1402,-134.5 1402,-153.5 1594,-153.5 1594,-134.5 1402,-134.5"/>
<text text-anchor="middle" x="1498" y="-141.5" font-family="Helvetica,sans-Serif" font-size="10.00">test/test_ResponseBodyHandler.cpp</text>
</a>
</g>
</g>
<!-- Node3&#45;&gt;Node22 -->
<g id="edge21" class="edge">
<title>Node3&#45;&gt;Node22</title>
<path fill="none" stroke="midnightblue" d="M1634.75,-192.58C1601.51,-181.02 1551.89,-163.75 1522.45,-153.51"/>
<polygon fill="midnightblue" stroke="midnightblue" points="1633.91,-195.99 1644.5,-195.98 1636.21,-189.38 1633.91,-195.99"/>
</g>
<!-- Node4&#45;&gt;Node5 -->
<g id="edge4" class="edge">
<title>Node4&#45;&gt;Node5</title>
<path fill="none" stroke="midnightblue" d="M1783.85,-133.9C1594.59,-114.01 1382.34,-95.06 1293.03,-87.23"/>
<polygon fill="midnightblue" stroke="midnightblue" points="1783.68,-137.4 1793.99,-134.97 1784.41,-130.44 1783.68,-137.4"/>
</g>
<!-- Node20 -->
<g id="node20" class="node">
<title>Node20</title>
<g id="a_node20"><a xlink:href="_response_builder_8cpp.html" target="_top" xlink:title=" ">
<polygon fill="none" stroke="black" points="1794.5,-73 1794.5,-92 1929.5,-92 1929.5,-73 1794.5,-73"/>
<text text-anchor="middle" x="1862" y="-80" font-family="Helvetica,sans-Serif" font-size="10.00">src/ResponseBuilder.cpp</text>
</a>
</g>
</g>
<!-- Node4&#45;&gt;Node20 -->
<g id="edge19" class="edge">
<title>Node4&#45;&gt;Node20</title>
<path fill="none" stroke="midnightblue" d="M1862,-124.32C1862,-113.5 1862,-100.4 1862,-92.01"/>
<polygon fill="midnightblue" stroke="midnightblue" points="1858.5,-124.48 1862,-134.48 1865.5,-124.48 1858.5,-124.48"/>
</g>
<!-- Node6 -->
<g id="node6" class="node">
<title>Node6</title>
<g id="a_node6"><a xlink:href="main_8cpp.html" target="_top" xlink:title=" ">
<polygon fill="none" stroke="black" points="2255.5,-6 2255.5,-25 2334.5,-25 2334.5,-6 2255.5,-6"/>
<text text-anchor="middle" x="2295" y="-13" font-family="Helvetica,sans-Serif" font-size="10.00">src/main.cpp</text>
</a>
</g>
</g>
<!-- Node5&#45;&gt;Node6 -->
<g id="edge5" class="edge">
<title>Node5&#45;&gt;Node6</title>
<path fill="none" stroke="midnightblue" d="M1303.5,-80.46C1482.91,-76.7 2062.25,-62.39 2246,-31 2254.05,-29.63 2262.64,-27.37 2270.34,-25.04"/>
<polygon fill="midnightblue" stroke="midnightblue" points="1303.19,-76.96 1293.26,-80.67 1303.33,-83.96 1303.19,-76.96"/>
</g>
<!-- Node7 -->
<g id="node7" class="node">
<title>Node7</title>
<g id="a_node7"><a xlink:href="_server_8cpp.html" target="_top" xlink:title=" ">
<polygon fill="none" stroke="black" points="1959.5,-6 1959.5,-25 2044.5,-25 2044.5,-6 1959.5,-6"/>
<text text-anchor="middle" x="2002" y="-13" font-family="Helvetica,sans-Serif" font-size="10.00">src/Server.cpp</text>
</a>
</g>
</g>
<!-- Node5&#45;&gt;Node7 -->
<g id="edge6" class="edge">
<title>Node5&#45;&gt;Node7</title>
<path fill="none" stroke="midnightblue" d="M1303.23,-81.37C1420.94,-80.28 1711.88,-73.15 1951,-31 1959.16,-29.56 1967.88,-27.34 1975.77,-25.07"/>
<polygon fill="midnightblue" stroke="midnightblue" points="1303.02,-77.87 1293.05,-81.46 1303.08,-84.87 1303.02,-77.87"/>
</g>
<!-- Node8 -->
<g id="node8" class="node">
<title>Node8</title>
<g id="a_node8"><a xlink:href="test__accept_connections_8cpp.html" target="_top" xlink:title=" ">
<polygon fill="none" stroke="black" points="709.5,-6 709.5,-25 884.5,-25 884.5,-6 709.5,-6"/>
<text text-anchor="middle" x="797" y="-13" font-family="Helvetica,sans-Serif" font-size="10.00">test/test_acceptConnections.cpp</text>
</a>
</g>
</g>
<!-- Node5&#45;&gt;Node8 -->
<g id="edge7" class="edge">
<title>Node5&#45;&gt;Node8</title>
<path fill="none" stroke="midnightblue" d="M1212.58,-70.32C1207.7,-69.09 1202.75,-67.94 1198,-67 1064.08,-40.59 1028.28,-49.2 893,-31 879.47,-29.18 864.89,-27.06 851.28,-25.01"/>
<polygon fill="midnightblue" stroke="midnightblue" points="1211.83,-73.75 1222.39,-72.95 1213.64,-66.98 1211.83,-73.75"/>
</g>
<!-- Node9 -->
<g id="node9" class="node">
<title>Node9</title>
<g id="a_node9"><a xlink:href="test__check_for_timeout_8cpp.html" target="_top" xlink:title=" ">
<polygon fill="none" stroke="black" points="902.5,-6 902.5,-25 1069.5,-25 1069.5,-6 902.5,-6"/>
<text text-anchor="middle" x="986" y="-13" font-family="Helvetica,sans-Serif" font-size="10.00">test/test_checkForTimeout.cpp</text>
</a>
</g>
</g>
<!-- Node5&#45;&gt;Node9 -->
<g id="edge8" class="edge">
<title>Node5&#45;&gt;Node9</title>
<path fill="none" stroke="midnightblue" d="M1210.42,-70.29C1206.23,-69.16 1202.03,-68.04 1198,-67 1137.19,-51.29 1066.1,-34.72 1023.64,-25.01"/>
<polygon fill="midnightblue" stroke="midnightblue" points="1209.51,-73.67 1220.08,-72.95 1211.36,-66.92 1209.51,-73.67"/>
</g>
<!-- Node10 -->
<g id="node10" class="node">
<title>Node10</title>
<g id="a_node10"><a xlink:href="test__connection_receive_header_8cpp.html" target="_top" xlink:title=" ">
<polygon fill="none" stroke="black" points="1087.5,-0.5 1087.5,-30.5 1242.5,-30.5 1242.5,-0.5 1087.5,-0.5"/>
<text text-anchor="start" x="1095.5" y="-18.5" font-family="Helvetica,sans-Serif" font-size="10.00">test/test_connectionReceive</text>
<text text-anchor="middle" x="1165" y="-7.5" font-family="Helvetica,sans-Serif" font-size="10.00">Header.cpp</text>
</a>
</g>
</g>
<!-- Node5&#45;&gt;Node10 -->
<g id="edge9" class="edge">
<title>Node5&#45;&gt;Node10</title>
<path fill="none" stroke="midnightblue" d="M1230.44,-66.54C1216.29,-55.73 1197.3,-41.2 1183.42,-30.59"/>
<polygon fill="midnightblue" stroke="midnightblue" points="1228.47,-69.44 1238.54,-72.73 1232.72,-63.88 1228.47,-69.44"/>
</g>
<!-- Node11 -->
<g id="node11" class="node">
<title>Node11</title>
<g id="a_node11"><a xlink:href="test__connection_send_response_8cpp.html" target="_top" xlink:title=" ">
<polygon fill="none" stroke="black" points="1261,-0.5 1261,-30.5 1401,-30.5 1401,-0.5 1261,-0.5"/>
<text text-anchor="start" x="1269" y="-18.5" font-family="Helvetica,sans-Serif" font-size="10.00">test/test_connectionSend</text>
<text text-anchor="middle" x="1331" y="-7.5" font-family="Helvetica,sans-Serif" font-size="10.00">Response.cpp</text>
</a>
</g>
</g>
<!-- Node5&#45;&gt;Node11 -->
<g id="edge10" class="edge">
<title>Node5&#45;&gt;Node11</title>
<path fill="none" stroke="midnightblue" d="M1269.02,-66.24C1282.46,-55.45 1300.34,-41.1 1313.44,-30.59"/>
<polygon fill="midnightblue" stroke="midnightblue" points="1266.53,-63.75 1260.92,-72.73 1270.91,-69.2 1266.53,-63.75"/>
</g>
<!-- Node12 -->
<g id="node12" class="node">
<title>Node12</title>
<g id="a_node12"><a xlink:href="test__create_virtual_server_8cpp.html" target="_top" xlink:title=" ">
<polygon fill="none" stroke="black" points="1419,-6 1419,-25 1595,-25 1595,-6 1419,-6"/>
<text text-anchor="middle" x="1507" y="-13" font-family="Helvetica,sans-Serif" font-size="10.00">test/test_createVirtualServer.cpp</text>
</a>
</g>
</g>
<!-- Node5&#45;&gt;Node12 -->
<g id="edge11" class="edge">
<title>Node5&#45;&gt;Node12</title>
<path fill="none" stroke="midnightblue" d="M1293.87,-70.4C1344.59,-57.58 1426.99,-36.74 1473.06,-25.08"/>
<polygon fill="midnightblue" stroke="midnightblue" points="1292.7,-67.09 1283.86,-72.94 1294.42,-73.88 1292.7,-67.09"/>
</g>
<!-- Node13 -->
<g id="node13" class="node">
<title>Node13</title>
<g id="a_node13"><a xlink:href="test__handle_complete_request_header_8cpp.html" target="_top" xlink:title=" ">
<polygon fill="none" stroke="black" points="1613.5,-0.5 1613.5,-30.5 1756.5,-30.5 1756.5,-0.5 1613.5,-0.5"/>
<text text-anchor="start" x="1621.5" y="-18.5" font-family="Helvetica,sans-Serif" font-size="10.00">test/test_handleComplete</text>
<text text-anchor="middle" x="1685" y="-7.5" font-family="Helvetica,sans-Serif" font-size="10.00">RequestHeader.cpp</text>
</a>
</g>
</g>
<!-- Node5&#45;&gt;Node13 -->
<g id="edge12" class="edge">
<title>Node5&#45;&gt;Node13</title>
<path fill="none" stroke="midnightblue" d="M1303.36,-74.49C1372.73,-65.23 1497.6,-48.11 1604,-31 1607.1,-30.5 1610.27,-29.98 1613.47,-29.45"/>
<polygon fill="midnightblue" stroke="midnightblue" points="1302.57,-71.06 1293.12,-75.85 1303.5,-78 1302.57,-71.06"/>
</g>
<!-- Node14 -->
<g id="node14" class="node">
<title>Node14</title>
<g id="a_node14"><a xlink:href="test__init_virtual_servers_8cpp.html" target="_top" xlink:title=" ">
<polygon fill="none" stroke="black" points="1774.5,-6 1774.5,-25 1941.5,-25 1941.5,-6 1774.5,-6"/>
<text text-anchor="middle" x="1858" y="-13" font-family="Helvetica,sans-Serif" font-size="10.00">test/test_initVirtualServers.cpp</text>
</a>
</g>
</g>
<!-- Node5&#45;&gt;Node14 -->
<g id="edge13" class="edge">
<title>Node5&#45;&gt;Node14</title>
<path fill="none" stroke="midnightblue" d="M1303.34,-77.32C1397.1,-69.74 1597.54,-52.5 1766,-31 1779.47,-29.28 1794.01,-27.13 1807.46,-25.01"/>
<polygon fill="midnightblue" stroke="midnightblue" points="1302.93,-73.84 1293.25,-78.13 1303.5,-80.82 1302.93,-73.84"/>
</g>
<!-- Node15 -->
<g id="node15" class="node">
<title>Node15</title>
<g id="a_node15"><a xlink:href="test__is_duplicate_server_8cpp.html" target="_top" xlink:title=" ">
<polygon fill="none" stroke="black" points="0,-6 0,-25 168,-25 168,-6 0,-6"/>
<text text-anchor="middle" x="84" y="-13" font-family="Helvetica,sans-Serif" font-size="10.00">test/test_isDuplicateServer.cpp</text>
</a>
</g>
</g>
<!-- Node5&#45;&gt;Node15 -->
<g id="edge14" class="edge">
<title>Node5&#45;&gt;Node15</title>
<path fill="none" stroke="midnightblue" d="M1214.06,-70.3C1208.72,-68.98 1203.25,-67.81 1198,-67 749.29,2.47 629.01,-74.05 177,-31 162.2,-29.59 146.17,-27.35 131.65,-25.05"/>
<polygon fill="midnightblue" stroke="midnightblue" points="1213.51,-73.77 1224.08,-72.97 1215.32,-67.01 1213.51,-73.77"/>
</g>
<!-- Node16 -->
<g id="node16" class="node">
<title>Node16</title>
<g id="a_node16"><a xlink:href="test__register_connection_8cpp.html" target="_top" xlink:title=" ">
<polygon fill="none" stroke="black" points="186.5,-6 186.5,-25 361.5,-25 361.5,-6 186.5,-6"/>
<text text-anchor="middle" x="274" y="-13" font-family="Helvetica,sans-Serif" font-size="10.00">test/test_registerConnection.cpp</text>
</a>
</g>
</g>
<!-- Node5&#45;&gt;Node16 -->
<g id="edge15" class="edge">
<title>Node5&#45;&gt;Node16</title>
<path fill="none" stroke="midnightblue" d="M1213.88,-70.29C1208.6,-68.98 1203.19,-67.83 1198,-67 834.66,-9.21 737.21,-66.24 371,-31 355.75,-29.53 339.23,-27.3 324.22,-25.03"/>
<polygon fill="midnightblue" stroke="midnightblue" points="1213.24,-73.74 1223.8,-72.94 1215.05,-66.98 1213.24,-73.74"/>
</g>
<!-- Node17 -->
<g id="node17" class="node">
<title>Node17</title>
<g id="a_node17"><a xlink:href="test__register_virtual_server_8cpp.html" target="_top" xlink:title=" ">
<polygon fill="none" stroke="black" points="380,-0.5 380,-30.5 512,-30.5 512,-0.5 380,-0.5"/>
<text text-anchor="start" x="388" y="-18.5" font-family="Helvetica,sans-Serif" font-size="10.00">test/test_registerVirtual</text>
<text text-anchor="middle" x="446" y="-7.5" font-family="Helvetica,sans-Serif" font-size="10.00">Server.cpp</text>
</a>
</g>
</g>
<!-- Node5&#45;&gt;Node17 -->
<g id="edge16" class="edge">
<title>Node5&#45;&gt;Node17</title>
<path fill="none" stroke="midnightblue" d="M1213.88,-70.34C1208.59,-69.02 1203.19,-67.85 1198,-67 900.66,-18.24 820.07,-67.68 521,-31 518.1,-30.64 515.15,-30.24 512.17,-29.81"/>
<polygon fill="midnightblue" stroke="midnightblue" points="1213.23,-73.79 1223.8,-72.99 1215.04,-67.03 1213.23,-73.79"/>
</g>
<!-- Node18 -->
<g id="node18" class="node">
<title>Node18</title>
<g id="a_node18"><a xlink:href="test__select_server_config_8cpp.html" target="_top" xlink:title=" ">
<polygon fill="none" stroke="black" points="2063,-6 2063,-25 2237,-25 2237,-6 2063,-6"/>
<text text-anchor="middle" x="2150" y="-13" font-family="Helvetica,sans-Serif" font-size="10.00">test/test_selectServerConfig.cpp</text>
</a>
</g>
</g>
<!-- Node5&#45;&gt;Node18 -->
<g id="edge17" class="edge">
<title>Node5&#45;&gt;Node18</title>
<path fill="none" stroke="midnightblue" d="M1303.27,-79.76C1432.36,-75.2 1772.03,-61.09 2054,-31 2068.75,-29.43 2084.7,-27.22 2099.29,-25"/>
<polygon fill="midnightblue" stroke="midnightblue" points="1303.13,-76.26 1293.25,-80.11 1303.37,-83.26 1303.13,-76.26"/>
</g>
<!-- Node19 -->
<g id="node19" class="node">
<title>Node19</title>
<g id="a_node19"><a xlink:href="test__shutdown_server_8cpp.html" target="_top" xlink:title=" ">
<polygon fill="none" stroke="black" points="530.5,-6 530.5,-25 691.5,-25 691.5,-6 530.5,-6"/>
<text text-anchor="middle" x="611" y="-13" font-family="Helvetica,sans-Serif" font-size="10.00">test/test_shutdownServer.cpp</text>
</a>
</g>
</g>
<!-- Node5&#45;&gt;Node19 -->
<g id="edge18" class="edge">
<title>Node5&#45;&gt;Node19</title>
<path fill="none" stroke="midnightblue" d="M1213.52,-70.34C1208.35,-69.05 1203.06,-67.88 1198,-67 979.37,-29.01 920.4,-56.87 700,-31 686.47,-29.41 671.86,-27.23 658.46,-25.04"/>
<polygon fill="midnightblue" stroke="midnightblue" points="1212.68,-73.74 1223.24,-72.94 1214.49,-66.98 1212.68,-73.74"/>
</g>
<!-- Node23&#45;&gt;Node3 -->
<g id="edge24" class="edge">
<title>Node23&#45;&gt;Node3</title>
<path fill="none" stroke="midnightblue" d="M1497.09,-254.75C1538.27,-243.19 1601.48,-225.45 1638.68,-215.01"/>
<polygon fill="midnightblue" stroke="midnightblue" points="1496.06,-251.4 1487.37,-257.48 1497.95,-258.14 1496.06,-251.4"/>
</g>
<!-- Node23&#45;&gt;Node5 -->
<g id="edge25" class="edge">
<title>Node23&#45;&gt;Node5</title>
<path fill="none" stroke="midnightblue" d="M1434.67,-251.85C1421.81,-243.39 1405.57,-232.14 1392,-221 1337.36,-176.14 1278.71,-114.44 1257.88,-92.05"/>
<polygon fill="midnightblue" stroke="midnightblue" points="1433.05,-254.97 1443.34,-257.48 1436.86,-249.1 1433.05,-254.97"/>
</g>
<!-- Node24 -->
<g id="node24" class="node">
<title>Node24</title>
<g id="a_node24"><a xlink:href="_target_resource_handler_8cpp.html" target="_top" xlink:title=" ">
<polygon fill="none" stroke="black" points="1401.5,-196 1401.5,-215 1568.5,-215 1568.5,-196 1401.5,-196"/>
<text text-anchor="middle" x="1485" y="-203" font-family="Helvetica,sans-Serif" font-size="10.00">src/TargetResourceHandler.cpp</text>
</a>
</g>
</g>
<!-- Node23&#45;&gt;Node24 -->
<g id="edge26" class="edge">
<title>Node23&#45;&gt;Node24</title>
<path fill="none" stroke="midnightblue" d="M1465.31,-248.33C1470.49,-237.33 1476.92,-223.66 1481,-215.01"/>
<polygon fill="midnightblue" stroke="midnightblue" points="1462.1,-246.94 1461.01,-257.48 1468.44,-249.92 1462.1,-246.94"/>
</g>
<!-- Node23&#45;&gt;Node25 -->
<g id="edge27" class="edge">
<title>Node23&#45;&gt;Node25</title>
<path fill="none" stroke="midnightblue" d="M1421.39,-254.23C1392.08,-244.54 1350.46,-230.78 1319.42,-220.52"/>
<polygon fill="midnightblue" stroke="midnightblue" points="1420.62,-257.66 1431.21,-257.48 1422.81,-251.01 1420.62,-257.66"/>
</g>
<!-- Node29&#45;&gt;Node5 -->
<g id="edge46" class="edge">
<title>Node29&#45;&gt;Node5</title>
<path fill="none" stroke="midnightblue" d="M1093.4,-131.53C1131.11,-119.96 1188.43,-102.38 1222.26,-92.01"/>
<polygon fill="midnightblue" stroke="midnightblue" points="1092.33,-128.2 1083.8,-134.48 1094.38,-134.89 1092.33,-128.2"/>
</g>
<!-- Node30 -->
<g id="node30" class="node">
<title>Node30</title>
<g id="a_node30"><a xlink:href="_mock_socket_policy_8hpp.html" target="_top" xlink:title=" ">
<polygon fill="none" stroke="black" points="915.5,-73 915.5,-92 1056.5,-92 1056.5,-73 915.5,-73"/>
<text text-anchor="middle" x="986" y="-80" font-family="Helvetica,sans-Serif" font-size="10.00">inc/MockSocketPolicy.hpp</text>
</a>
</g>
</g>
<!-- Node29&#45;&gt;Node30 -->
<g id="edge34" class="edge">
<title>Node29&#45;&gt;Node30</title>
<path fill="none" stroke="midnightblue" d="M1038.32,-127.97C1024.93,-116.59 1007.02,-101.37 996.01,-92.01"/>
<polygon fill="midnightblue" stroke="midnightblue" points="1036.08,-130.67 1045.97,-134.48 1040.62,-125.33 1036.08,-130.67"/>
</g>
<!-- Node31 -->
<g id="node31" class="node">
<title>Node31</title>
<g id="a_node31"><a xlink:href="_socket_policy_8cpp.html" target="_top" xlink:title=" ">
<polygon fill="none" stroke="black" points="1075,-73 1075,-92 1189,-92 1189,-73 1075,-73"/>
<text text-anchor="middle" x="1132" y="-80" font-family="Helvetica,sans-Serif" font-size="10.00">src/SocketPolicy.cpp</text>
</a>
</g>
</g>
<!-- Node29&#45;&gt;Node31 -->
<g id="edge47" class="edge">
<title>Node29&#45;&gt;Node31</title>
<path fill="none" stroke="midnightblue" d="M1074.78,-128.29C1089.36,-116.88 1109.06,-101.46 1121.13,-92.01"/>
<polygon fill="midnightblue" stroke="midnightblue" points="1072.61,-125.55 1066.89,-134.48 1076.92,-131.07 1072.61,-125.55"/>
</g>
<!-- Node32 -->
<g id="node32" class="node">
<title>Node32</title>
<g id="a_node32"><a xlink:href="test___socket_policy__retrieve_socket_info_8cpp.html" target="_top" xlink:title=" ">
<polygon fill="none" stroke="black" points="766.5,-67.5 766.5,-97.5 897.5,-97.5 897.5,-67.5 766.5,-67.5"/>
<text text-anchor="start" x="774.5" y="-85.5" font-family="Helvetica,sans-Serif" font-size="10.00">test/test_SocketPolicy</text>
<text text-anchor="middle" x="832" y="-74.5" font-family="Helvetica,sans-Serif" font-size="10.00">_retrieveSocketInfo.cpp</text>
</a>
</g>
</g>
<!-- Node29&#45;&gt;Node32 -->
<g id="edge48" class="edge">
<title>Node29&#45;&gt;Node32</title>
<path fill="none" stroke="midnightblue" d="M1014.06,-131.86C977.48,-122.14 924.26,-108.01 884.79,-97.52"/>
<polygon fill="midnightblue" stroke="midnightblue" points="1013.34,-135.29 1023.91,-134.48 1015.14,-128.53 1013.34,-135.29"/>
</g>
<!-- Node30&#45;&gt;Node8 -->
<g id="edge35" class="edge">
<title>Node30&#45;&gt;Node8</title>
<path fill="none" stroke="midnightblue" d="M951.4,-69.6C913.93,-56.71 855.07,-36.47 821.9,-25.06"/>
<polygon fill="midnightblue" stroke="midnightblue" points="950.31,-72.93 960.9,-72.87 952.58,-66.31 950.31,-72.93"/>
</g>
<!-- Node30&#45;&gt;Node9 -->
<g id="edge36" class="edge">
<title>Node30&#45;&gt;Node9</title>
<path fill="none" stroke="midnightblue" d="M986,-62.54C986,-50.17 986,-34.62 986,-25.13"/>
<polygon fill="midnightblue" stroke="midnightblue" points="982.5,-62.73 986,-72.73 989.5,-62.73 982.5,-62.73"/>
</g>
<!-- Node30&#45;&gt;Node10 -->
<g id="edge37" class="edge">
<title>Node30&#45;&gt;Node10</title>
<path fill="none" stroke="midnightblue" d="M1019.47,-69.35C1049.81,-58.33 1094.52,-42.09 1126.37,-30.53"/>
<polygon fill="midnightblue" stroke="midnightblue" points="1017.97,-66.17 1009.77,-72.87 1020.36,-72.75 1017.97,-66.17"/>
</g>
<!-- Node30&#45;&gt;Node11 -->
<g id="edge38" class="edge">
<title>Node30&#45;&gt;Node11</title>
<path fill="none" stroke="midnightblue" d="M1041.44,-71.05C1101.1,-59.81 1196.13,-41.91 1260.92,-29.7"/>
<polygon fill="midnightblue" stroke="midnightblue" points="1040.64,-67.64 1031.46,-72.94 1041.93,-74.52 1040.64,-67.64"/>
</g>
<!-- Node30&#45;&gt;Node12 -->
<g id="edge39" class="edge">
<title>Node30&#45;&gt;Node12</title>
<path fill="none" stroke="midnightblue" d="M1039.97,-71.15C1048.66,-69.65 1057.56,-68.2 1066,-67 1218.18,-45.28 1257.5,-50.37 1410,-31 1423.94,-29.23 1438.96,-27.1 1452.93,-25.01"/>
<polygon fill="midnightblue" stroke="midnightblue" points="1039.15,-67.74 1029.92,-72.93 1040.37,-74.63 1039.15,-67.74"/>
</g>
<!-- Node30&#45;&gt;Node13 -->
<g id="edge40" class="edge">
<title>Node30&#45;&gt;Node13</title>
<path fill="none" stroke="midnightblue" d="M1038.1,-71.18C1047.37,-69.6 1056.95,-68.12 1066,-67 1303.83,-37.58 1366.13,-60.16 1604,-31 1606.98,-30.63 1610.01,-30.23 1613.07,-29.8"/>
<polygon fill="midnightblue" stroke="midnightblue" points="1037.45,-67.74 1028.21,-72.93 1038.67,-74.64 1037.45,-67.74"/>
</g>
<!-- Node30&#45;&gt;Node14 -->
<g id="edge41" class="edge">
<title>Node30&#45;&gt;Node14</title>
<path fill="none" stroke="midnightblue" d="M1037.46,-71.17C1046.92,-69.56 1056.73,-68.07 1066,-67 1375.45,-31.15 1456.16,-63.29 1766,-31 1780.31,-29.51 1795.79,-27.3 1809.9,-25.06"/>
<polygon fill="midnightblue" stroke="midnightblue" points="1036.61,-67.77 1027.37,-72.96 1037.83,-74.66 1036.61,-67.77"/>
</g>
<!-- Node30&#45;&gt;Node15 -->
<g id="edge42" class="edge">
<title>Node30&#45;&gt;Node15</title>
<path fill="none" stroke="midnightblue" d="M934.55,-71.16C925.08,-69.55 915.27,-68.06 906,-67 583.72,-29.99 499.71,-64.03 177,-31 162.53,-29.52 146.88,-27.32 132.62,-25.07"/>
<polygon fill="midnightblue" stroke="midnightblue" points="934.17,-74.65 944.63,-72.94 935.39,-67.75 934.17,-74.65"/>
</g>
<!-- Node30&#45;&gt;Node16 -->
<g id="edge43" class="edge">
<title>Node30&#45;&gt;Node16</title>
<path fill="none" stroke="midnightblue" d="M933.9,-71.19C924.63,-69.6 915.05,-68.12 906,-67 669.49,-37.7 607.93,-56.64 371,-31 356.27,-29.41 340.35,-27.22 325.75,-25.03"/>
<polygon fill="midnightblue" stroke="midnightblue" points="933.33,-74.64 943.79,-72.94 934.55,-67.75 933.33,-74.64"/>
</g>
<!-- Node30&#45;&gt;Node17 -->
<g id="edge44" class="edge">
<title>Node30&#45;&gt;Node17</title>
<path fill="none" stroke="midnightblue" d="M932.95,-71.22C923.98,-69.68 914.74,-68.2 906,-67 735.74,-43.65 691.13,-55.34 521,-31 518.11,-30.59 515.17,-30.14 512.19,-29.66"/>
<polygon fill="midnightblue" stroke="midnightblue" points="932.47,-74.69 942.93,-72.99 933.69,-67.8 932.47,-74.69"/>
</g>
<!-- Node30&#45;&gt;Node19 -->
<g id="edge45" class="edge">
<title>Node30&#45;&gt;Node19</title>
<path fill="none" stroke="midnightblue" d="M929.56,-71.2C921.65,-69.78 913.62,-68.34 906,-67 820.29,-51.9 720.45,-34.94 661.66,-25.02"/>
<polygon fill="midnightblue" stroke="midnightblue" points="929.02,-74.66 939.48,-72.99 930.26,-67.77 929.02,-74.66"/>
</g>
</g>
</svg>
        <g id="navigator" transform="translate(0 0)" fill="#404254">
                <rect fill="#f2f5e9" fill-opacity="0.5" stroke="#606060" stroke-width=".5" x="0" y="0" width="60" height="60"/>
                <use id="zoomplus" xlink:href="#zoomPlus" x="17" y="9" onmousedown="handleZoom(evt,'in')"/>
                <use id="zoomminus" xlink:href="#zoomMin" x="42" y="9" onmousedown="handleZoom(evt,'out')"/>
                <use id="reset" xlink:href="#resetDef" x="30" y="36" onmousedown="handleReset()"/>
                <g id="arrowUp" xlink:href="#dirArrow" transform="translate(30 24)" onmousedown="handlePan(0,-1)">
                  <use xlink:href="#rim" fill="#404040">
                        <set attributeName="fill" to="#808080" begin="arrowUp.mouseover" end="arrowUp.mouseout"/>
                  </use>
                  <path fill="none" stroke="white" stroke-width="1.5" d="M0,-3.0v7 M-2.5,-0.5L0,-3.0L2.5,-0.5"/>
                </g>
                <g id="arrowRight" xlink:href="#dirArrow" transform="rotate(90) translate(36 -43)" onmousedown="handlePan(1,0)">
                  <use xlink:href="#rim" fill="#404040">
                        <set attributeName="fill" to="#808080" begin="arrowRight.mouseover" end="arrowRight.mouseout"/>
                  </use>
                  <path fill="none" stroke="white" stroke-width="1.5" d="M0,-3.0v7 M-2.5,-0.5L0,-3.0L2.5,-0.5"/>
                </g>
                <g id="arrowDown" xlink:href="#dirArrow" transform="rotate(180) translate(-30 -48)" onmousedown="handlePan(0,1)">
                  <use xlink:href="#rim" fill="#404040">
                        <set attributeName="fill" to="#808080" begin="arrowDown.mouseover" end="arrowDown.mouseout"/>
                  </use>
                  <path fill="none" stroke="white" stroke-width="1.5" d="M0,-3.0v7 M-2.5,-0.5L0,-3.0L2.5,-0.5"/>
                </g>
                <g id="arrowLeft" xlink:href="#dirArrow" transform="rotate(270) translate(-36 17)" onmousedown="handlePan(-1,0)">
                  <use xlink:href="#rim" fill="#404040">
                        <set attributeName="fill" to="#808080" begin="arrowLeft.mouseover" end="arrowLeft.mouseout"/>
                  </use>
                  <path fill="none" stroke="white" stroke-width="1.5" d="M0,-3.0v7 M-2.5,-0.5L0,-3.0L2.5,-0.5"/>
                </g>
        </g>
        <svg viewBox="0 0 15 15" width="100%" height="30px" preserveAspectRatio="xMaxYMin meet">
         <g id="arrow_out" transform="scale(0.3 0.3)">
          <a xlink:href="_socket_8hpp__dep__incl_org.svg" target="_base">
           <rect id="button" ry="5" rx="5" y="6" x="6" height="38" width="38"
                fill="#f2f5e9" fill-opacity="0.5" stroke="#606060" stroke-width="1.0"/>
           <path id="arrow"
             d="M 11.500037,31.436501 C 11.940474,20.09759 22.043105,11.32322 32.158766,21.979434 L 37.068811,17.246167 C 37.068811,17.246167 37.088388,32 37.088388,32 L 22.160133,31.978069 C 22.160133,31.978069 26.997745,27.140456 26.997745,27.140456 C 18.528582,18.264221 13.291696,25.230495 11.500037,31.436501 z"
             style="fill:#404040;"/>
          </a>
         </g>
        </svg>
</svg>
