<?xml version="1.0" encoding="UTF-8" standalone="no"?>
<!DOCTYPE svg PUBLIC "-//W3C//DTD SVG 1.1//EN"
 "http://www.w3.org/Graphics/SVG/1.1/DTD/svg11.dtd">
<!-- Generated by graphviz version 2.43.0 (0)
 -->
<!-- Title: inc/SocketPolicy.hpp Pages: 1 -->
<svg width="2955pt" height="225pt"
 viewBox="0.00 0.00 2955.00 225.00" xmlns="http://www.w3.org/2000/svg" xmlns:xlink="http://www.w3.org/1999/xlink">
<g id="graph0" class="graph" transform="scale(1 1) rotate(0) translate(4 221)">
<title>inc/SocketPolicy.hpp</title>
<!-- Node1 -->
<g id="Node000001" class="node">
<title>Node1</title>
<g id="a_Node000001"><a xlink:title=" ">
<polygon fill="#999999" stroke="#666666" points="1549,-217 1434,-217 1434,-198 1549,-198 1549,-217"/>
<text text-anchor="middle" x="1491.5" y="-205" font-family="Helvetica,sans-Serif" font-size="10.00">inc/SocketPolicy.hpp</text>
</a>
</g>
</g>
<!-- Node2 -->
<g id="Node000002" class="node">
<title>Node2</title>
<g id="a_Node000002"><a xlink:href="_mock_socket_policy_8hpp.html" target="_top" xlink:title=" ">
<polygon fill="white" stroke="#666666" points="1309,-156.5 1168,-156.5 1168,-137.5 1309,-137.5 1309,-156.5"/>
<text text-anchor="middle" x="1238.5" y="-144.5" font-family="Helvetica,sans-Serif" font-size="10.00">inc/MockSocketPolicy.hpp</text>
</a>
</g>
</g>
<!-- Node1&#45;&gt;Node2 -->
<g id="edge1_Node000001_Node000002" class="edge">
<title>Node1&#45;&gt;Node2</title>
<g id="a_edge1_Node000001_Node000002"><a xlink:title=" ">
<path fill="none" stroke="#63b8ff" d="M1444.71,-195.68C1395.82,-184.38 1320.13,-166.88 1275.33,-156.52"/>
<polygon fill="#63b8ff" stroke="#63b8ff" points="1444.18,-199.15 1454.71,-197.99 1445.76,-192.33 1444.18,-199.15"/>
</a>
</g>
</g>
<!-- Node17 -->
<g id="Node000017" class="node">
<title>Node17</title>
<g id="a_Node000017"><a xlink:href="_server_8hpp.html" target="_top" xlink:title=" ">
<polygon fill="white" stroke="#666666" points="1475.5,-156.5 1389.5,-156.5 1389.5,-137.5 1475.5,-137.5 1475.5,-156.5"/>
<text text-anchor="middle" x="1432.5" y="-144.5" font-family="Helvetica,sans-Serif" font-size="10.00">inc/Server.hpp</text>
</a>
</g>
</g>
<!-- Node1&#45;&gt;Node17 -->
<g id="edge16_Node000001_Node000017" class="edge">
<title>Node1&#45;&gt;Node17</title>
<g id="a_edge16_Node000001_Node000017"><a xlink:title=" ">
<path fill="none" stroke="#63b8ff" d="M1475.45,-190.59C1464.44,-179.67 1450.23,-165.58 1441.24,-156.67"/>
<polygon fill="#63b8ff" stroke="#63b8ff" points="1473.23,-193.31 1482.79,-197.87 1478.16,-188.34 1473.23,-193.31"/>
</a>
</g>
</g>
<!-- Node24 -->
<g id="Node000024" class="node">
<title>Node24</title>
<g id="a_Node000024"><a xlink:href="_socket_policy_8cpp.html" target="_top" xlink:title=" ">
<polygon fill="white" stroke="#666666" points="1607.5,-156.5 1493.5,-156.5 1493.5,-137.5 1607.5,-137.5 1607.5,-156.5"/>
<text text-anchor="middle" x="1550.5" y="-144.5" font-family="Helvetica,sans-Serif" font-size="10.00">src/SocketPolicy.cpp</text>
</a>
</g>
</g>
<!-- Node1&#45;&gt;Node24 -->
<g id="edge38_Node000001_Node000024" class="edge">
<title>Node1&#45;&gt;Node24</title>
<g id="a_edge38_Node000001_Node000024"><a xlink:title=" ">
<path fill="none" stroke="#63b8ff" d="M1507.55,-190.59C1518.56,-179.67 1532.77,-165.58 1541.76,-156.67"/>
<polygon fill="#63b8ff" stroke="#63b8ff" points="1504.84,-188.34 1500.21,-197.87 1509.77,-193.31 1504.84,-188.34"/>
</a>
</g>
</g>
<!-- Node25 -->
<g id="Node000025" class="node">
<title>Node25</title>
<g id="a_Node000025"><a xlink:href="test___socket_policy__retrieve_socket_info_8cpp.html" target="_top" xlink:title=" ">
<polygon fill="white" stroke="#666666" points="1771.5,-162 1625.5,-162 1625.5,-132 1771.5,-132 1771.5,-162"/>
<text text-anchor="start" x="1633.5" y="-150" font-family="Helvetica,sans-Serif" font-size="10.00">test/unit/test_SocketPolicy</text>
<text text-anchor="middle" x="1698.5" y="-139" font-family="Helvetica,sans-Serif" font-size="10.00">_retrieveSocketInfo.cpp</text>
</a>
</g>
</g>
<!-- Node1&#45;&gt;Node25 -->
<g id="edge39_Node000001_Node000025" class="edge">
<title>Node1&#45;&gt;Node25</title>
<g id="a_edge39_Node000001_Node000025"><a xlink:title=" ">
<path fill="none" stroke="#63b8ff" d="M1531.49,-195.2C1564.94,-185.75 1612.81,-172.22 1648.73,-162.06"/>
<polygon fill="#63b8ff" stroke="#63b8ff" points="1530.27,-191.91 1521.6,-197.99 1532.17,-198.64 1530.27,-191.91"/>
</a>
</g>
</g>
<!-- Node3 -->
<g id="Node000003" class="node">
<title>Node3</title>
<g id="a_Node000003"><a xlink:href="test__accept_connections_8cpp.html" target="_top" xlink:title=" ">
<polygon fill="white" stroke="#666666" points="1925,-90.5 1728,-90.5 1728,-71.5 1925,-71.5 1925,-90.5"/>
<text text-anchor="middle" x="1826.5" y="-78.5" font-family="Helvetica,sans-Serif" font-size="10.00">test/unit/test_acceptConnections.cpp</text>
</a>
</g>
</g>
<!-- Node2&#45;&gt;Node3 -->
<g id="edge2_Node000002_Node000003" class="edge">
<title>Node2&#45;&gt;Node3</title>
<g id="a_edge2_Node000002_Node000003"><a xlink:title=" ">
<path fill="none" stroke="#63b8ff" d="M1319.43,-137.82C1435.46,-126.05 1643.37,-104.78 1718.5,-96 1732.87,-94.32 1748.29,-92.4 1762.86,-90.52"/>
<polygon fill="#63b8ff" stroke="#63b8ff" points="1318.78,-134.37 1309.18,-138.86 1319.48,-141.33 1318.78,-134.37"/>
</a>
</g>
</g>
<!-- Node4 -->
<g id="Node000004" class="node">
<title>Node4</title>
<g id="a_Node000004"><a xlink:href="test__check_for_timeout_8cpp.html" target="_top" xlink:title=" ">
<polygon fill="white" stroke="#666666" points="2131.5,-90.5 1943.5,-90.5 1943.5,-71.5 2131.5,-71.5 2131.5,-90.5"/>
<text text-anchor="middle" x="2037.5" y="-78.5" font-family="Helvetica,sans-Serif" font-size="10.00">test/unit/test_checkForTimeout.cpp</text>
</a>
</g>
</g>
<!-- Node2&#45;&gt;Node4 -->
<g id="edge3_Node000002_Node000004" class="edge">
<title>Node2&#45;&gt;Node4</title>
<g id="a_edge3_Node000002_Node000004"><a xlink:title=" ">
<path fill="none" stroke="#63b8ff" d="M1319.25,-137.57C1339.25,-135.61 1360.65,-133.62 1380.5,-132 1625.98,-111.91 1688.42,-120.44 1933.5,-96 1948.46,-94.51 1964.57,-92.52 1979.55,-90.52"/>
<polygon fill="#63b8ff" stroke="#63b8ff" points="1318.85,-134.09 1309.24,-138.56 1319.54,-141.06 1318.85,-134.09"/>
</a>
</g>
</g>
<!-- Node5 -->
<g id="Node000005" class="node">
<title>Node5</title>
<g id="a_Node000005"><a xlink:href="test__connection_receive_from_c_g_i_8cpp.html" target="_top" xlink:title=" ">
<polygon fill="white" stroke="#666666" points="2287,-96 2150,-96 2150,-66 2287,-66 2287,-96"/>
<text text-anchor="start" x="2158" y="-84" font-family="Helvetica,sans-Serif" font-size="10.00">test/unit/test_connection</text>
<text text-anchor="middle" x="2218.5" y="-73" font-family="Helvetica,sans-Serif" font-size="10.00">ReceiveFromCGI.cpp</text>
</a>
</g>
</g>
<!-- Node2&#45;&gt;Node5 -->
<g id="edge4_Node000002_Node000005" class="edge">
<title>Node2&#45;&gt;Node5</title>
<g id="a_edge4_Node000002_Node000005"><a xlink:title=" ">
<path fill="none" stroke="#63b8ff" d="M1319.23,-137.32C1339.24,-135.37 1360.63,-133.45 1380.5,-132 1717.76,-107.4 1804.48,-133.95 2140.5,-96 2143.51,-95.66 2146.57,-95.28 2149.67,-94.86"/>
<polygon fill="#63b8ff" stroke="#63b8ff" points="1318.83,-133.84 1309.22,-138.31 1319.52,-140.81 1318.83,-133.84"/>
</a>
</g>
</g>
<!-- Node6 -->
<g id="Node000006" class="node">
<title>Node6</title>
<g id="a_Node000006"><a xlink:href="test__connection_receive_header_8cpp.html" target="_top" xlink:title=" ">
<polygon fill="white" stroke="#666666" points="2442,-96 2305,-96 2305,-66 2442,-66 2442,-96"/>
<text text-anchor="start" x="2313" y="-84" font-family="Helvetica,sans-Serif" font-size="10.00">test/unit/test_connection</text>
<text text-anchor="middle" x="2373.5" y="-73" font-family="Helvetica,sans-Serif" font-size="10.00">ReceiveHeader.cpp</text>
</a>
</g>
</g>
<!-- Node2&#45;&gt;Node6 -->
<g id="edge5_Node000002_Node000006" class="edge">
<title>Node2&#45;&gt;Node6</title>
<g id="a_edge5_Node000002_Node000006"><a xlink:title=" ">
<path fill="none" stroke="#63b8ff" d="M1319.22,-137.21C1339.23,-135.26 1360.63,-133.37 1380.5,-132 1786.52,-104.02 1890.91,-140.05 2295.5,-96 2298.51,-95.67 2301.58,-95.3 2304.67,-94.89"/>
<polygon fill="#63b8ff" stroke="#63b8ff" points="1318.82,-133.73 1309.22,-138.2 1319.51,-140.7 1318.82,-133.73"/>
</a>
</g>
</g>
<!-- Node7 -->
<g id="Node000007" class="node">
<title>Node7</title>
<g id="a_Node000007"><a xlink:href="test__connection_send_response_8cpp.html" target="_top" xlink:title=" ">
<polygon fill="white" stroke="#666666" points="137,-96 0,-96 0,-66 137,-66 137,-96"/>
<text text-anchor="start" x="8" y="-84" font-family="Helvetica,sans-Serif" font-size="10.00">test/unit/test_connection</text>
<text text-anchor="middle" x="68.5" y="-73" font-family="Helvetica,sans-Serif" font-size="10.00">SendResponse.cpp</text>
</a>
</g>
</g>
<!-- Node2&#45;&gt;Node7 -->
<g id="edge6_Node000002_Node000007" class="edge">
<title>Node2&#45;&gt;Node7</title>
<g id="a_edge6_Node000002_Node000007"><a xlink:title=" ">
<path fill="none" stroke="#63b8ff" d="M1157.65,-146C976.06,-145.2 522.29,-138.68 145.5,-96 142.8,-95.69 140.05,-95.35 137.28,-94.98"/>
<polygon fill="#63b8ff" stroke="#63b8ff" points="1157.9,-149.5 1167.91,-146.04 1157.93,-142.5 1157.9,-149.5"/>
</a>
</g>
</g>
<!-- Node8 -->
<g id="Node000008" class="node">
<title>Node8</title>
<g id="a_Node000008"><a xlink:href="test__connection_send_to_c_g_i_8cpp.html" target="_top" xlink:title=" ">
<polygon fill="white" stroke="#666666" points="292,-96 155,-96 155,-66 292,-66 292,-96"/>
<text text-anchor="start" x="163" y="-84" font-family="Helvetica,sans-Serif" font-size="10.00">test/unit/test_connection</text>
<text text-anchor="middle" x="223.5" y="-73" font-family="Helvetica,sans-Serif" font-size="10.00">SendToCGI.cpp</text>
</a>
</g>
</g>
<!-- Node2&#45;&gt;Node8 -->
<g id="edge7_Node000002_Node000008" class="edge">
<title>Node2&#45;&gt;Node8</title>
<g id="a_edge7_Node000002_Node000008"><a xlink:title=" ">
<path fill="none" stroke="#63b8ff" d="M1157.52,-145.13C994.67,-142.62 616.1,-132.95 300.5,-96 297.8,-95.68 295.05,-95.33 292.28,-94.95"/>
<polygon fill="#63b8ff" stroke="#63b8ff" points="1157.88,-148.64 1167.94,-145.28 1157.99,-141.64 1157.88,-148.64"/>
</a>
</g>
</g>
<!-- Node9 -->
<g id="Node000009" class="node">
<title>Node9</title>
<g id="a_Node000009"><a xlink:href="test__create_virtual_server_8cpp.html" target="_top" xlink:title=" ">
<polygon fill="white" stroke="#666666" points="457,-96 310,-96 310,-66 457,-66 457,-96"/>
<text text-anchor="start" x="318" y="-84" font-family="Helvetica,sans-Serif" font-size="10.00">test/unit/test_createVirtual</text>
<text text-anchor="middle" x="383.5" y="-73" font-family="Helvetica,sans-Serif" font-size="10.00">Server.cpp</text>
</a>
</g>
</g>
<!-- Node2&#45;&gt;Node9 -->
<g id="edge8_Node000002_Node000009" class="edge">
<title>Node2&#45;&gt;Node9</title>
<g id="a_edge8_Node000002_Node000009"><a xlink:title=" ">
<path fill="none" stroke="#63b8ff" d="M1157.49,-143.48C1016.61,-138.5 717.53,-125.22 466.5,-96 463.45,-95.65 460.35,-95.25 457.21,-94.84"/>
<polygon fill="#63b8ff" stroke="#63b8ff" points="1157.65,-146.99 1167.77,-143.84 1157.89,-140 1157.65,-146.99"/>
</a>
</g>
</g>
<!-- Node10 -->
<g id="Node000010" class="node">
<title>Node10</title>
<g id="a_Node000010"><a xlink:href="test__handle_complete_request_header_8cpp.html" target="_top" xlink:title=" ">
<polygon fill="white" stroke="#666666" points="639.5,-96 475.5,-96 475.5,-66 639.5,-66 639.5,-96"/>
<text text-anchor="start" x="483.5" y="-84" font-family="Helvetica,sans-Serif" font-size="10.00">test/unit/test_handleComplete</text>
<text text-anchor="middle" x="557.5" y="-73" font-family="Helvetica,sans-Serif" font-size="10.00">RequestHeader.cpp</text>
</a>
</g>
</g>
<!-- Node2&#45;&gt;Node10 -->
<g id="edge9_Node000002_Node000010" class="edge">
<title>Node2&#45;&gt;Node10</title>
<g id="a_edge9_Node000002_Node000010"><a xlink:title=" ">
<path fill="none" stroke="#63b8ff" d="M1157.93,-140.92C1044.18,-133.34 830.07,-117.64 648.5,-96 645.64,-95.66 642.74,-95.3 639.81,-94.92"/>
<polygon fill="#63b8ff" stroke="#63b8ff" points="1157.75,-144.41 1167.96,-141.58 1158.21,-137.43 1157.75,-144.41"/>
</a>
</g>
</g>
<!-- Node11 -->
<g id="Node000011" class="node">
<title>Node11</title>
<g id="a_Node000011"><a xlink:href="test__init_virtual_servers_8cpp.html" target="_top" xlink:title=" ">
<polygon fill="white" stroke="#666666" points="789.5,-96 657.5,-96 657.5,-66 789.5,-66 789.5,-96"/>
<text text-anchor="start" x="665.5" y="-84" font-family="Helvetica,sans-Serif" font-size="10.00">test/unit/test_initVirtual</text>
<text text-anchor="middle" x="723.5" y="-73" font-family="Helvetica,sans-Serif" font-size="10.00">Servers.cpp</text>
</a>
</g>
</g>
<!-- Node2&#45;&gt;Node11 -->
<g id="edge10_Node000002_Node000011" class="edge">
<title>Node2&#45;&gt;Node11</title>
<g id="a_edge10_Node000002_Node000011"><a xlink:title=" ">
<path fill="none" stroke="#63b8ff" d="M1157.84,-138.58C1069.43,-130.04 923.5,-114.75 798.5,-96 795.62,-95.57 792.68,-95.11 789.71,-94.62"/>
<polygon fill="#63b8ff" stroke="#63b8ff" points="1157.52,-142.06 1167.81,-139.54 1158.19,-135.09 1157.52,-142.06"/>
</a>
</g>
</g>
<!-- Node12 -->
<g id="Node000012" class="node">
<title>Node12</title>
<g id="a_Node000012"><a xlink:href="test__is_duplicate_server_8cpp.html" target="_top" xlink:title=" ">
<polygon fill="white" stroke="#666666" points="947,-96 808,-96 808,-66 947,-66 947,-96"/>
<text text-anchor="start" x="816" y="-84" font-family="Helvetica,sans-Serif" font-size="10.00">test/unit/test_isDuplicate</text>
<text text-anchor="middle" x="877.5" y="-73" font-family="Helvetica,sans-Serif" font-size="10.00">Server.cpp</text>
</a>
</g>
</g>
<!-- Node2&#45;&gt;Node12 -->
<g id="edge11_Node000002_Node000012" class="edge">
<title>Node2&#45;&gt;Node12</title>
<g id="a_edge11_Node000002_Node000012"><a xlink:title=" ">
<path fill="none" stroke="#63b8ff" d="M1180.33,-135.69C1116.76,-124.42 1014.96,-106.37 947.18,-94.35"/>
<polygon fill="#63b8ff" stroke="#63b8ff" points="1179.73,-139.14 1190.19,-137.44 1180.95,-132.24 1179.73,-139.14"/>
</a>
</g>
</g>
<!-- Node13 -->
<g id="Node000013" class="node">
<title>Node13</title>
<g id="a_Node000013"><a xlink:href="test__register_c_g_i_file_descriptor_8cpp.html" target="_top" xlink:title=" ">
<polygon fill="white" stroke="#666666" points="1121.5,-96 965.5,-96 965.5,-66 1121.5,-66 1121.5,-96"/>
<text text-anchor="start" x="973.5" y="-84" font-family="Helvetica,sans-Serif" font-size="10.00">test/unit/test_registerCGIFile</text>
<text text-anchor="middle" x="1043.5" y="-73" font-family="Helvetica,sans-Serif" font-size="10.00">Descriptor.cpp</text>
</a>
</g>
</g>
<!-- Node2&#45;&gt;Node13 -->
<g id="edge12_Node000002_Node000013" class="edge">
<title>Node2&#45;&gt;Node13</title>
<g id="a_edge12_Node000002_Node000013"><a xlink:title=" ">
<path fill="none" stroke="#63b8ff" d="M1202.57,-134.21C1169.8,-123.45 1121.33,-107.54 1086.51,-96.12"/>
<polygon fill="#63b8ff" stroke="#63b8ff" points="1201.61,-137.58 1212.2,-137.37 1203.79,-130.92 1201.61,-137.58"/>
</a>
</g>
</g>
<!-- Node14 -->
<g id="Node000014" class="node">
<title>Node14</title>
<g id="a_Node000014"><a xlink:href="test__register_connection_8cpp.html" target="_top" xlink:title=" ">
<polygon fill="white" stroke="#666666" points="1337,-90.5 1140,-90.5 1140,-71.5 1337,-71.5 1337,-90.5"/>
<text text-anchor="middle" x="1238.5" y="-78.5" font-family="Helvetica,sans-Serif" font-size="10.00">test/unit/test_registerConnection.cpp</text>
</a>
</g>
</g>
<!-- Node2&#45;&gt;Node14 -->
<g id="edge13_Node000002_Node000014" class="edge">
<title>Node2&#45;&gt;Node14</title>
<g id="a_edge13_Node000002_Node000014"><a xlink:title=" ">
<path fill="none" stroke="#63b8ff" d="M1238.5,-127.08C1238.5,-115.13 1238.5,-100.22 1238.5,-90.91"/>
<polygon fill="#63b8ff" stroke="#63b8ff" points="1235,-127.37 1238.5,-137.37 1242,-127.37 1235,-127.37"/>
</a>
</g>
</g>
<!-- Node15 -->
<g id="Node000015" class="node">
<title>Node15</title>
<g id="a_Node000015"><a xlink:href="test__register_virtual_server_8cpp.html" target="_top" xlink:title=" ">
<polygon fill="white" stroke="#666666" points="1509.5,-96 1355.5,-96 1355.5,-66 1509.5,-66 1509.5,-96"/>
<text text-anchor="start" x="1363.5" y="-84" font-family="Helvetica,sans-Serif" font-size="10.00">test/unit/test_registerVirtual</text>
<text text-anchor="middle" x="1432.5" y="-73" font-family="Helvetica,sans-Serif" font-size="10.00">Server.cpp</text>
</a>
</g>
</g>
<!-- Node2&#45;&gt;Node15 -->
<g id="edge14_Node000002_Node000015" class="edge">
<title>Node2&#45;&gt;Node15</title>
<g id="a_edge14_Node000002_Node000015"><a xlink:title=" ">
<path fill="none" stroke="#63b8ff" d="M1274.25,-134.21C1306.85,-123.45 1355.07,-107.54 1389.71,-96.12"/>
<polygon fill="#63b8ff" stroke="#63b8ff" points="1273.06,-130.91 1264.66,-137.37 1275.26,-137.56 1273.06,-130.91"/>
</a>
</g>
</g>
<!-- Node16 -->
<g id="Node000016" class="node">
<title>Node16</title>
<g id="a_Node000016"><a xlink:href="test__shutdown_server_8cpp.html" target="_top" xlink:title=" ">
<polygon fill="white" stroke="#666666" points="1709.5,-90.5 1527.5,-90.5 1527.5,-71.5 1709.5,-71.5 1709.5,-90.5"/>
<text text-anchor="middle" x="1618.5" y="-78.5" font-family="Helvetica,sans-Serif" font-size="10.00">test/unit/test_shutdownServer.cpp</text>
</a>
</g>
</g>
<!-- Node2&#45;&gt;Node16 -->
<g id="edge15_Node000002_Node000016" class="edge">
<title>Node2&#45;&gt;Node16</title>
<g id="a_edge15_Node000002_Node000016"><a xlink:title=" ">
<path fill="none" stroke="#63b8ff" d="M1299.52,-135.72C1374,-123.18 1498.57,-102.2 1567.95,-90.51"/>
<polygon fill="#63b8ff" stroke="#63b8ff" points="1298.63,-132.32 1289.35,-137.44 1299.8,-139.23 1298.63,-132.32"/>
</a>
</g>
</g>
<!-- Node17&#45;&gt;Node3 -->
<g id="edge23_Node000017_Node000003" class="edge">
<title>Node17&#45;&gt;Node3</title>
<g id="a_edge23_Node000017_Node000003"><a xlink:title=" ">
<path fill="none" stroke="#63b8ff" d="M1471.69,-134.92C1475.99,-133.86 1480.33,-132.86 1484.5,-132 1536.14,-121.31 1678.06,-101.73 1761.97,-90.51"/>
<polygon fill="#63b8ff" stroke="#63b8ff" points="1470.59,-131.59 1461.78,-137.47 1472.34,-138.37 1470.59,-131.59"/>
</a>
</g>
</g>
<!-- Node17&#45;&gt;Node4 -->
<g id="edge24_Node000017_Node000004" class="edge">
<title>Node17&#45;&gt;Node4</title>
<g id="a_edge24_Node000017_Node000004"><a xlink:title=" ">
<path fill="none" stroke="#63b8ff" d="M1470.08,-135.02C1474.9,-133.86 1479.8,-132.81 1484.5,-132 1681.76,-97.83 1734.45,-117.36 1933.5,-96 1948.08,-94.44 1963.78,-92.47 1978.44,-90.51"/>
<polygon fill="#63b8ff" stroke="#63b8ff" points="1469.18,-131.63 1460.36,-137.49 1470.91,-138.41 1469.18,-131.63"/>
</a>
</g>
</g>
<!-- Node17&#45;&gt;Node5 -->
<g id="edge25_Node000017_Node000005" class="edge">
<title>Node17&#45;&gt;Node5</title>
<g id="a_edge25_Node000017_Node000005"><a xlink:title=" ">
<path fill="none" stroke="#63b8ff" d="M1469.89,-134.94C1474.77,-133.79 1479.73,-132.76 1484.5,-132 1772.82,-85.79 1850.48,-129.86 2140.5,-96 2143.51,-95.65 2146.57,-95.26 2149.66,-94.83"/>
<polygon fill="#63b8ff" stroke="#63b8ff" points="1468.9,-131.58 1460.06,-137.43 1470.62,-138.37 1468.9,-131.58"/>
</a>
</g>
</g>
<!-- Node17&#45;&gt;Node6 -->
<g id="edge26_Node000017_Node000006" class="edge">
<title>Node17&#45;&gt;Node6</title>
<g id="a_edge26_Node000017_Node000006"><a xlink:title=" ">
<path fill="none" stroke="#63b8ff" d="M1469.71,-134.93C1474.65,-133.77 1479.67,-132.75 1484.5,-132 1841.05,-76.77 1936.92,-135.96 2295.5,-96 2298.51,-95.66 2301.58,-95.28 2304.67,-94.87"/>
<polygon fill="#63b8ff" stroke="#63b8ff" points="1468.62,-131.6 1459.79,-137.45 1470.34,-138.38 1468.62,-131.6"/>
</a>
</g>
</g>
<!-- Node17&#45;&gt;Node7 -->
<g id="edge27_Node000017_Node000007" class="edge">
<title>Node17&#45;&gt;Node7</title>
<g id="a_edge27_Node000017_Node000007"><a xlink:title=" ">
<path fill="none" stroke="#63b8ff" d="M1379.28,-138.5C1359.87,-136.04 1337.73,-133.54 1317.5,-132 797.87,-92.47 663.75,-150.76 145.5,-96 142.8,-95.71 140.05,-95.39 137.27,-95.03"/>
<polygon fill="#63b8ff" stroke="#63b8ff" points="1379.08,-142.01 1389.45,-139.82 1379.98,-135.07 1379.08,-142.01"/>
</a>
</g>
</g>
<!-- Node17&#45;&gt;Node8 -->
<g id="edge28_Node000017_Node000008" class="edge">
<title>Node17&#45;&gt;Node8</title>
<g id="a_edge28_Node000017_Node000008"><a xlink:title=" ">
<path fill="none" stroke="#63b8ff" d="M1379.27,-138.56C1359.87,-136.1 1337.73,-133.59 1317.5,-132 866.6,-96.64 750.17,-144.58 300.5,-96 297.8,-95.71 295.05,-95.38 292.28,-95.01"/>
<polygon fill="#63b8ff" stroke="#63b8ff" points="1379.08,-142.06 1389.45,-139.87 1379.98,-135.12 1379.08,-142.06"/>
</a>
</g>
</g>
<!-- Node17&#45;&gt;Node9 -->
<g id="edge29_Node000017_Node000009" class="edge">
<title>Node17&#45;&gt;Node9</title>
<g id="a_edge29_Node000017_Node000009"><a xlink:title=" ">
<path fill="none" stroke="#63b8ff" d="M1379.27,-138.63C1359.86,-136.18 1337.72,-133.66 1317.5,-132 940.2,-101.1 842.99,-135.56 466.5,-96 463.45,-95.68 460.34,-95.32 457.2,-94.92"/>
<polygon fill="#63b8ff" stroke="#63b8ff" points="1379.08,-142.14 1389.44,-139.94 1379.97,-135.19 1379.08,-142.14"/>
</a>
</g>
</g>
<!-- Node17&#45;&gt;Node10 -->
<g id="edge30_Node000017_Node000010" class="edge">
<title>Node17&#45;&gt;Node10</title>
<g id="a_edge30_Node000017_Node000010"><a xlink:title=" ">
<path fill="none" stroke="#63b8ff" d="M1379.26,-138.76C1359.85,-136.32 1337.71,-133.77 1317.5,-132 1020.87,-105.99 944.68,-126.68 648.5,-96 645.64,-95.7 642.73,-95.38 639.79,-95.03"/>
<polygon fill="#63b8ff" stroke="#63b8ff" points="1379.07,-142.26 1389.43,-140.06 1379.95,-135.32 1379.07,-142.26"/>
</a>
</g>
</g>
<!-- Node17&#45;&gt;Node11 -->
<g id="edge31_Node000017_Node000011" class="edge">
<title>Node17&#45;&gt;Node11</title>
<g id="a_edge31_Node000017_Node000011"><a xlink:title=" ">
<path fill="none" stroke="#63b8ff" d="M1379.24,-138.93C1359.83,-136.51 1337.7,-133.93 1317.5,-132 1087.33,-110.02 1027.86,-125.26 798.5,-96 795.61,-95.63 792.66,-95.22 789.69,-94.78"/>
<polygon fill="#63b8ff" stroke="#63b8ff" points="1379.06,-142.44 1389.42,-140.22 1379.93,-135.49 1379.06,-142.44"/>
</a>
</g>
</g>
<!-- Node17&#45;&gt;Node12 -->
<g id="edge32_Node000017_Node000012" class="edge">
<title>Node17&#45;&gt;Node12</title>
<g id="a_edge32_Node000017_Node000012"><a xlink:title=" ">
<path fill="none" stroke="#63b8ff" d="M1379.21,-139.27C1359.79,-136.88 1337.66,-134.23 1317.5,-132 1157.24,-114.26 1116.22,-118.08 956.5,-96 953.46,-95.58 950.37,-95.13 947.24,-94.66"/>
<polygon fill="#63b8ff" stroke="#63b8ff" points="1379.03,-142.77 1389.38,-140.53 1379.89,-135.82 1379.03,-142.77"/>
</a>
</g>
</g>
<!-- Node17&#45;&gt;Node13 -->
<g id="edge33_Node000017_Node000013" class="edge">
<title>Node17&#45;&gt;Node13</title>
<g id="a_edge33_Node000017_Node000013"><a xlink:title=" ">
<path fill="none" stroke="#63b8ff" d="M1379.12,-137.22C1312.55,-126.27 1198.21,-107.45 1121.74,-94.87"/>
<polygon fill="#63b8ff" stroke="#63b8ff" points="1378.95,-140.74 1389.38,-138.91 1380.08,-133.83 1378.95,-140.74"/>
</a>
</g>
</g>
<!-- Node17&#45;&gt;Node14 -->
<g id="edge34_Node000017_Node000014" class="edge">
<title>Node17&#45;&gt;Node14</title>
<g id="a_edge34_Node000017_Node000014"><a xlink:title=" ">
<path fill="none" stroke="#63b8ff" d="M1396.62,-134.16C1358.33,-121.53 1298.59,-101.82 1264.56,-90.6"/>
<polygon fill="#63b8ff" stroke="#63b8ff" points="1395.74,-137.56 1406.34,-137.37 1397.94,-130.91 1395.74,-137.56"/>
</a>
</g>
</g>
<!-- Node17&#45;&gt;Node15 -->
<g id="edge35_Node000017_Node000015" class="edge">
<title>Node17&#45;&gt;Node15</title>
<g id="a_edge35_Node000017_Node000015"><a xlink:title=" ">
<path fill="none" stroke="#63b8ff" d="M1432.5,-127.35C1432.5,-117.47 1432.5,-105.51 1432.5,-96.36"/>
<polygon fill="#63b8ff" stroke="#63b8ff" points="1429,-127.37 1432.5,-137.37 1436,-127.37 1429,-127.37"/>
</a>
</g>
</g>
<!-- Node17&#45;&gt;Node16 -->
<g id="edge37_Node000017_Node000016" class="edge">
<title>Node17&#45;&gt;Node16</title>
<g id="a_edge37_Node000017_Node000016"><a xlink:title=" ">
<path fill="none" stroke="#63b8ff" d="M1467.37,-134C1504.1,-121.36 1561.03,-101.78 1593.52,-90.6"/>
<polygon fill="#63b8ff" stroke="#63b8ff" points="1465.9,-130.81 1457.58,-137.37 1468.18,-137.42 1465.9,-130.81"/>
</a>
</g>
</g>
<!-- Node18 -->
<g id="Node000018" class="node">
<title>Node18</title>
<g id="a_Node000018"><a xlink:href="_config_file_parser_8hpp.html" target="_top" xlink:title=" ">
<polygon fill="white" stroke="#666666" points="2858.5,-90.5 2726.5,-90.5 2726.5,-71.5 2858.5,-71.5 2858.5,-90.5"/>
<text text-anchor="middle" x="2792.5" y="-78.5" font-family="Helvetica,sans-Serif" font-size="10.00">inc/ConfigFileParser.hpp</text>
</a>
</g>
</g>
<!-- Node17&#45;&gt;Node18 -->
<g id="edge17_Node000017_Node000018" class="edge">
<title>Node17&#45;&gt;Node18</title>
<g id="a_edge17_Node000017_Node000018"><a xlink:title=" ">
<path fill="none" stroke="#63b8ff" d="M1469.53,-134.9C1474.53,-133.74 1479.61,-132.72 1484.5,-132 2026.89,-52.19 2172.39,-154.48 2717.5,-96 2729.09,-94.76 2741.57,-92.71 2752.97,-90.57"/>
<polygon fill="#63b8ff" stroke="#63b8ff" points="1468.34,-131.59 1459.51,-137.45 1470.06,-138.38 1468.34,-131.59"/>
</a>
</g>
</g>
<!-- Node20 -->
<g id="Node000020" class="node">
<title>Node20</title>
<g id="a_Node000020"><a xlink:href="main_8cpp.html" target="_top" xlink:title=" ">
<polygon fill="white" stroke="#666666" points="2947,-24.5 2868,-24.5 2868,-5.5 2947,-5.5 2947,-24.5"/>
<text text-anchor="middle" x="2907.5" y="-12.5" font-family="Helvetica,sans-Serif" font-size="10.00">src/main.cpp</text>
</a>
</g>
</g>
<!-- Node17&#45;&gt;Node20 -->
<g id="edge22_Node000017_Node000020" class="edge">
<title>Node17&#45;&gt;Node20</title>
<g id="a_edge22_Node000017_Node000020"><a xlink:title=" ">
<path fill="none" stroke="#63b8ff" d="M1469.53,-134.89C1474.52,-133.73 1479.61,-132.71 1484.5,-132 1560.56,-120.93 2802.65,-137.25 2867.5,-96 2893.05,-79.75 2902.88,-41.84 2906.12,-24.69"/>
<polygon fill="#63b8ff" stroke="#63b8ff" points="1468.34,-131.58 1459.5,-137.43 1470.06,-138.36 1468.34,-131.58"/>
</a>
</g>
</g>
<!-- Node22 -->
<g id="Node000022" class="node">
<title>Node22</title>
<g id="a_Node000022"><a xlink:href="_server_8cpp.html" target="_top" xlink:title=" ">
<polygon fill="white" stroke="#666666" points="2545,-90.5 2460,-90.5 2460,-71.5 2545,-71.5 2545,-90.5"/>
<text text-anchor="middle" x="2502.5" y="-78.5" font-family="Helvetica,sans-Serif" font-size="10.00">src/Server.cpp</text>
</a>
</g>
</g>
<!-- Node17&#45;&gt;Node22 -->
<g id="edge21_Node000017_Node000022" class="edge">
<title>Node17&#45;&gt;Node22</title>
<g id="a_edge21_Node000017_Node000022"><a xlink:title=" ">
<path fill="none" stroke="#63b8ff" d="M1469.54,-134.94C1474.53,-133.77 1479.62,-132.74 1484.5,-132 1909.3,-67.74 2025.7,-160.26 2450.5,-96 2458.73,-94.76 2467.52,-92.68 2475.49,-90.51"/>
<polygon fill="#63b8ff" stroke="#63b8ff" points="1468.34,-131.63 1459.51,-137.49 1470.07,-138.42 1468.34,-131.63"/>
</a>
</g>
</g>
<!-- Node23 -->
<g id="Node000023" class="node">
<title>Node23</title>
<g id="a_Node000023"><a xlink:href="test__select_server_config_8cpp.html" target="_top" xlink:title=" ">
<polygon fill="white" stroke="#666666" points="2708,-96 2563,-96 2563,-66 2708,-66 2708,-96"/>
<text text-anchor="start" x="2571" y="-84" font-family="Helvetica,sans-Serif" font-size="10.00">test/unit/test_selectServer</text>
<text text-anchor="middle" x="2635.5" y="-73" font-family="Helvetica,sans-Serif" font-size="10.00">Config.cpp</text>
</a>
</g>
</g>
<!-- Node17&#45;&gt;Node23 -->
<g id="edge36_Node000017_Node000023" class="edge">
<title>Node17&#45;&gt;Node23</title>
<g id="a_edge36_Node000017_Node000023"><a xlink:title=" ">
<path fill="none" stroke="#63b8ff" d="M1469.54,-134.92C1474.53,-133.76 1479.61,-132.73 1484.5,-132 1954.66,-61.75 2080.56,-144.11 2553.5,-96 2556.52,-95.69 2559.59,-95.34 2562.69,-94.96"/>
<polygon fill="#63b8ff" stroke="#63b8ff" points="1468.34,-131.62 1459.51,-137.47 1470.06,-138.4 1468.34,-131.62"/>
</a>
</g>
</g>
<!-- Node19 -->
<g id="Node000019" class="node">
<title>Node19</title>
<g id="a_Node000019"><a xlink:href="_config_file_parser_8cpp.html" target="_top" xlink:title=" ">
<polygon fill="white" stroke="#666666" points="2850,-24.5 2719,-24.5 2719,-5.5 2850,-5.5 2850,-24.5"/>
<text text-anchor="middle" x="2784.5" y="-12.5" font-family="Helvetica,sans-Serif" font-size="10.00">src/ConfigFileParser.cpp</text>
</a>
</g>
</g>
<!-- Node18&#45;&gt;Node19 -->
<g id="edge18_Node000018_Node000019" class="edge">
<title>Node18&#45;&gt;Node19</title>
<g id="a_edge18_Node000018_Node000019"><a xlink:title=" ">
<path fill="none" stroke="#63b8ff" d="M2790.14,-61.08C2788.64,-49.13 2786.78,-34.22 2785.61,-24.91"/>
<polygon fill="#63b8ff" stroke="#63b8ff" points="2786.71,-61.88 2791.42,-71.37 2793.65,-61.01 2786.71,-61.88"/>
</a>
</g>
</g>
<!-- Node18&#45;&gt;Node20 -->
<g id="edge19_Node000018_Node000020" class="edge">
<title>Node18&#45;&gt;Node20</title>
<g id="a_edge19_Node000018_Node000020"><a xlink:title=" ">
<path fill="none" stroke="#63b8ff" d="M2817.01,-66.36C2839.65,-53.76 2872.61,-35.42 2891.87,-24.7"/>
<polygon fill="#63b8ff" stroke="#63b8ff" points="2815.05,-63.45 2808.01,-71.37 2818.45,-69.56 2815.05,-63.45"/>
</a>
</g>
</g>
<!-- Node21 -->
<g id="Node000021" class="node">
<title>Node21</title>
<g id="a_Node000021"><a xlink:href="test___config_file_parser_8cpp.html" target="_top" xlink:title=" ">
<polygon fill="white" stroke="#666666" points="2700.5,-30 2568.5,-30 2568.5,0 2700.5,0 2700.5,-30"/>
<text text-anchor="start" x="2576.5" y="-18" font-family="Helvetica,sans-Serif" font-size="10.00">test/unit/test_ConfigFile</text>
<text text-anchor="middle" x="2634.5" y="-7" font-family="Helvetica,sans-Serif" font-size="10.00">Parser.cpp</text>
</a>
</g>
</g>
<!-- Node18&#45;&gt;Node21 -->
<g id="edge20_Node000018_Node000021" class="edge">
<title>Node18&#45;&gt;Node21</title>
<g id="a_edge20_Node000018_Node000021"><a xlink:title=" ">
<path fill="none" stroke="#63b8ff" d="M2761.65,-67.5C2735.15,-56.77 2696.95,-41.3 2669.35,-30.12"/>
<polygon fill="#63b8ff" stroke="#63b8ff" points="2760.61,-70.86 2771.19,-71.37 2763.24,-64.37 2760.61,-70.86"/>
</a>
</g>
</g>
</g>
</svg>
