<?xml version="1.0" encoding="UTF-8" standalone="no"?>
<!DOCTYPE svg PUBLIC "-//W3C//DTD SVG 1.1//EN"
 "http://www.w3.org/Graphics/SVG/1.1/DTD/svg11.dtd">
<!-- Generated by graphviz version 2.43.0 (0)
 -->
<!-- Title: inc/SocketPolicy.hpp Pages: 1 -->
<!--zoomable 308 -->
<svg id="main" version="1.1" xmlns="http://www.w3.org/2000/svg" xmlns:xlink="http://www.w3.org/1999/xlink" xml:space="preserve" onload="init(evt)">
<style type="text/css"><![CDATA[
.edge:hover path { stroke: red; }
.edge:hover polygon { stroke: red; fill: red; }
]]></style>
<script type="text/javascript"><![CDATA[
var edges = document.getElementsByTagName('g');
if (edges && edges.length) {
  for (var i=0;i<edges.length;i++) {
    if (edges[i].id.substr(0,4)=='edge') {
      edges[i].setAttribute('class','edge');
    }
  }
}
]]></script>
        <defs>
                <circle id="rim" cx="0" cy="0" r="7"/>
                <circle id="rim2" cx="0" cy="0" r="3.5"/>
                <g id="zoomPlus">
                        <use xlink:href="#rim" fill="#404040">
                                <set attributeName="fill" to="#808080" begin="zoomplus.mouseover" end="zoomplus.mouseout"/>
                        </use>
                        <path d="M-4,0h8M0,-4v8" fill="none" stroke="white" stroke-width="1.5" pointer-events="none"/>
                </g>
                <g id="zoomMin">
                        <use xlink:href="#rim" fill="#404040">
                                <set attributeName="fill" to="#808080" begin="zoomminus.mouseover" end="zoomminus.mouseout"/>
                        </use>
                        <path d="M-4,0h8" fill="none" stroke="white" stroke-width="1.5" pointer-events="none"/>
                </g>
                <g id="dirArrow">
                        <path fill="none" stroke="white" stroke-width="1.5" d="M0,-3.0v7 M-2.5,-0.5L0,-3.0L2.5,-0.5"/>
                </g>
               <g id="resetDef">
                       <use xlink:href="#rim2" fill="#404040">
                               <set attributeName="fill" to="#808080" begin="reset.mouseover" end="reset.mouseout"/>
                       </use>
               </g>
        </defs>

<script type="text/javascript">
var viewWidth = 1299;
var viewHeight = 308;
var sectionId = 'dynsection-0';
</script>
<script xlink:href="svgpan.js"/>
<svg id="graph" class="graph">
<g id="viewport">
<title>inc/SocketPolicy.hpp</title>
<!-- Node1 -->
<g id="node1" class="node">
<title>Node1</title>
<g id="a_node1"><a xlink:title=" ">
<polygon fill="#bfbfbf" stroke="black" points="809.5,-280.5 809.5,-299.5 924.5,-299.5 924.5,-280.5 809.5,-280.5"/>
<text text-anchor="middle" x="867" y="-287.5" font-family="Helvetica,sans-Serif" font-size="10.00">inc/SocketPolicy.hpp</text>
</a>
</g>
</g>
<!-- Node2 -->
<g id="node2" class="node">
<title>Node2</title>
<g id="a_node2"><a xlink:href="_log_8hpp.html" target="_top" xlink:title=" ">
<polygon fill="none" stroke="black" points="360.5,-224.5 360.5,-243.5 415.5,-243.5 415.5,-224.5 360.5,-224.5"/>
<text text-anchor="middle" x="388" y="-231.5" font-family="Helvetica,sans-Serif" font-size="10.00">Log.hpp</text>
</a>
</g>
</g>
<!-- Node1&#45;&gt;Node2 -->
<g id="edge1" class="edge">
<title>Node1&#45;&gt;Node2</title>
<path fill="none" stroke="midnightblue" d="M809.22,-282.49C709.84,-271.28 509.17,-248.66 425.73,-239.25"/>
<polygon fill="midnightblue" stroke="midnightblue" points="426.01,-235.76 415.68,-238.12 425.23,-242.72 426.01,-235.76"/>
</g>
<!-- Node10 -->
<g id="node10" class="node">
<title>Node10</title>
<g id="a_node10"><a xlink:title=" ">
<polygon fill="none" stroke="#bfbfbf" points="95,-0.5 95,-19.5 139,-19.5 139,-0.5 95,-0.5"/>
<text text-anchor="middle" x="117" y="-7.5" font-family="Helvetica,sans-Serif" font-size="10.00">string</text>
</a>
</g>
</g>
<!-- Node1&#45;&gt;Node10 -->
<g id="edge36" class="edge">
<title>Node1&#45;&gt;Node10</title>
<path fill="none" stroke="midnightblue" d="M809.2,-286.81C630.36,-279.28 98,-250.82 98,-179 98,-179 98,-179 98,-121 98,-88.49 106.16,-51.35 111.78,-29.61"/>
<polygon fill="midnightblue" stroke="midnightblue" points="115.22,-30.32 114.44,-19.75 108.46,-28.5 115.22,-30.32"/>
</g>
<!-- Node15 -->
<g id="node15" class="node">
<title>Node15</title>
<g id="a_node15"><a xlink:href="_socket_8hpp.html" target="_top" xlink:title=" ">
<polygon fill="none" stroke="black" points="0,-56.5 0,-75.5 70,-75.5 70,-56.5 0,-56.5"/>
<text text-anchor="middle" x="35" y="-63.5" font-family="Helvetica,sans-Serif" font-size="10.00">Socket.hpp</text>
</a>
</g>
</g>
<!-- Node1&#45;&gt;Node15 -->
<g id="edge19" class="edge">
<title>Node1&#45;&gt;Node15</title>
<path fill="none" stroke="midnightblue" d="M809.33,-289.49C637.92,-290.44 140.02,-289.22 84,-244 35.86,-205.15 32.55,-123.53 33.76,-86.28"/>
<polygon fill="midnightblue" stroke="midnightblue" points="37.28,-86.01 34.26,-75.85 30.29,-85.67 37.28,-86.01"/>
</g>
<!-- Node16 -->
<g id="node16" class="node">
<title>Node16</title>
<g id="a_node16"><a xlink:href="utilities_8hpp.html" target="_top" xlink:title=" ">
<polygon fill="none" stroke="black" points="713,-224.5 713,-243.5 787,-243.5 787,-224.5 713,-224.5"/>
<text text-anchor="middle" x="750" y="-231.5" font-family="Helvetica,sans-Serif" font-size="10.00">utilities.hpp</text>
</a>
</g>
</g>
<!-- Node1&#45;&gt;Node16 -->
<g id="edge21" class="edge">
<title>Node1&#45;&gt;Node16</title>
<path fill="none" stroke="midnightblue" d="M848.46,-280.44C829.38,-271.64 799.43,-257.81 777.56,-247.72"/>
<polygon fill="midnightblue" stroke="midnightblue" points="779,-244.53 768.45,-243.52 776.07,-250.88 779,-244.53"/>
</g>
<!-- Node20 -->
<g id="node20" class="node">
<title>Node20</title>
<g id="a_node20"><a xlink:title=" ">
<polygon fill="none" stroke="#bfbfbf" points="961,-168.5 961,-187.5 1013,-187.5 1013,-168.5 961,-168.5"/>
<text text-anchor="middle" x="987" y="-175.5" font-family="Helvetica,sans-Serif" font-size="10.00">cassert</text>
</a>
</g>
</g>
<!-- Node1&#45;&gt;Node20 -->
<g id="edge31" class="edge">
<title>Node1&#45;&gt;Node20</title>
<path fill="none" stroke="midnightblue" d="M856.86,-280.47C842.7,-267.52 820.2,-242.44 834,-224 841.14,-214.46 907.9,-197.39 950.84,-187.24"/>
<polygon fill="midnightblue" stroke="midnightblue" points="951.73,-190.63 960.67,-184.94 950.13,-183.81 951.73,-190.63"/>
</g>
<!-- Node21 -->
<g id="node21" class="node">
<title>Node21</title>
<g id="a_node21"><a xlink:title=" ">
<polygon fill="none" stroke="#bfbfbf" points="843.5,-224.5 843.5,-243.5 890.5,-243.5 890.5,-224.5 843.5,-224.5"/>
<text text-anchor="middle" x="867" y="-231.5" font-family="Helvetica,sans-Serif" font-size="10.00">cerrno</text>
</a>
</g>
</g>
<!-- Node1&#45;&gt;Node21 -->
<g id="edge32" class="edge">
<title>Node1&#45;&gt;Node21</title>
<path fill="none" stroke="midnightblue" d="M867,-280.08C867,-273.01 867,-262.86 867,-253.99"/>
<polygon fill="midnightblue" stroke="midnightblue" points="870.5,-253.75 867,-243.75 863.5,-253.75 870.5,-253.75"/>
</g>
<!-- Node22 -->
<g id="node22" class="node">
<title>Node22</title>
<g id="a_node22"><a xlink:title=" ">
<polygon fill="none" stroke="#bfbfbf" points="909,-224.5 909,-243.5 959,-243.5 959,-224.5 909,-224.5"/>
<text text-anchor="middle" x="934" y="-231.5" font-family="Helvetica,sans-Serif" font-size="10.00">cstring</text>
</a>
</g>
</g>
<!-- Node1&#45;&gt;Node22 -->
<g id="edge33" class="edge">
<title>Node1&#45;&gt;Node22</title>
<path fill="none" stroke="midnightblue" d="M877.76,-280.32C887.77,-272.26 902.89,-260.08 914.93,-250.37"/>
<polygon fill="midnightblue" stroke="midnightblue" points="917.45,-252.83 923.04,-243.83 913.06,-247.38 917.45,-252.83"/>
</g>
<!-- Node23 -->
<g id="node23" class="node">
<title>Node23</title>
<g id="a_node23"><a xlink:title=" ">
<polygon fill="none" stroke="#bfbfbf" points="977.5,-224.5 977.5,-243.5 1030.5,-243.5 1030.5,-224.5 977.5,-224.5"/>
<text text-anchor="middle" x="1004" y="-231.5" font-family="Helvetica,sans-Serif" font-size="10.00">netdb.h</text>
</a>
</g>
</g>
<!-- Node1&#45;&gt;Node23 -->
<g id="edge34" class="edge">
<title>Node1&#45;&gt;Node23</title>
<path fill="none" stroke="midnightblue" d="M888.71,-280.44C911.35,-271.52 947.07,-257.44 972.75,-247.32"/>
<polygon fill="midnightblue" stroke="midnightblue" points="974.37,-250.44 982.39,-243.52 971.81,-243.93 974.37,-250.44"/>
</g>
<!-- Node24 -->
<g id="node24" class="node">
<title>Node24</title>
<g id="a_node24"><a xlink:title=" ">
<polygon fill="none" stroke="#bfbfbf" points="1049,-224.5 1049,-243.5 1121,-243.5 1121,-224.5 1049,-224.5"/>
<text text-anchor="middle" x="1085" y="-231.5" font-family="Helvetica,sans-Serif" font-size="10.00">netinet/in.h</text>
</a>
</g>
</g>
<!-- Node1&#45;&gt;Node24 -->
<g id="edge35" class="edge">
<title>Node1&#45;&gt;Node24</title>
<path fill="none" stroke="midnightblue" d="M901.54,-280.44C939.25,-271.1 999.74,-256.12 1040.86,-245.93"/>
<polygon fill="midnightblue" stroke="midnightblue" points="1041.75,-249.32 1050.62,-243.52 1040.07,-242.52 1041.75,-249.32"/>
</g>
<!-- Node25 -->
<g id="node25" class="node">
<title>Node25</title>
<g id="a_node25"><a xlink:title=" ">
<polygon fill="none" stroke="#bfbfbf" points="1139.5,-224.5 1139.5,-243.5 1216.5,-243.5 1216.5,-224.5 1139.5,-224.5"/>
<text text-anchor="middle" x="1178" y="-231.5" font-family="Helvetica,sans-Serif" font-size="10.00">sys/socket.h</text>
</a>
</g>
</g>
<!-- Node1&#45;&gt;Node25 -->
<g id="edge37" class="edge">
<title>Node1&#45;&gt;Node25</title>
<path fill="none" stroke="midnightblue" d="M918.45,-280.45C969.32,-271.93 1049.66,-258.33 1129.29,-244.1"/>
<polygon fill="midnightblue" stroke="midnightblue" points="1130.27,-247.48 1139.5,-242.27 1129.04,-240.59 1130.27,-247.48"/>
</g>
<!-- Node26 -->
<g id="node26" class="node">
<title>Node26</title>
<g id="a_node26"><a xlink:title=" ">
<polygon fill="none" stroke="#bfbfbf" points="1235,-224.5 1235,-243.5 1291,-243.5 1291,-224.5 1235,-224.5"/>
<text text-anchor="middle" x="1263" y="-231.5" font-family="Helvetica,sans-Serif" font-size="10.00">unistd.h</text>
</a>
</g>
</g>
<!-- Node1&#45;&gt;Node26 -->
<g id="edge38" class="edge">
<title>Node1&#45;&gt;Node26</title>
<path fill="none" stroke="midnightblue" d="M924.51,-283.83C993.58,-277.17 1113.1,-264.19 1224.71,-244.06"/>
<polygon fill="midnightblue" stroke="midnightblue" points="1225.58,-247.45 1234.79,-242.21 1224.32,-240.57 1225.58,-247.45"/>
</g>
<!-- Node3 -->
<g id="node3" class="node">
<title>Node3</title>
<g id="a_node3"><a xlink:href="_log_outputter_console_8hpp.html" target="_top" xlink:title=" ">
<polygon fill="none" stroke="black" points="392,-168.5 392,-187.5 532,-187.5 532,-168.5 392,-168.5"/>
<text text-anchor="middle" x="462" y="-175.5" font-family="Helvetica,sans-Serif" font-size="10.00">LogOutputterConsole.hpp</text>
</a>
</g>
</g>
<!-- Node2&#45;&gt;Node3 -->
<g id="edge2" class="edge">
<title>Node2&#45;&gt;Node3</title>
<path fill="none" stroke="midnightblue" d="M399.89,-224.32C411.15,-216.11 428.29,-203.6 441.71,-193.81"/>
<polygon fill="midnightblue" stroke="midnightblue" points="443.88,-196.56 449.89,-187.83 439.75,-190.9 443.88,-196.56"/>
</g>
<!-- Node11 -->
<g id="node11" class="node">
<title>Node11</title>
<g id="a_node11"><a xlink:href="_log_outputter_file_8hpp.html" target="_top" xlink:title=" ">
<polygon fill="none" stroke="black" points="254.5,-168.5 254.5,-187.5 373.5,-187.5 373.5,-168.5 254.5,-168.5"/>
<text text-anchor="middle" x="314" y="-175.5" font-family="Helvetica,sans-Serif" font-size="10.00">LogOutputterFile.hpp</text>
</a>
</g>
</g>
<!-- Node2&#45;&gt;Node11 -->
<g id="edge10" class="edge">
<title>Node2&#45;&gt;Node11</title>
<path fill="none" stroke="midnightblue" d="M376.11,-224.32C364.85,-216.11 347.71,-203.6 334.29,-193.81"/>
<polygon fill="midnightblue" stroke="midnightblue" points="336.25,-190.9 326.11,-187.83 332.12,-196.56 336.25,-190.9"/>
</g>
<!-- Node13 -->
<g id="node13" class="node">
<title>Node13</title>
<g id="a_node13"><a xlink:href="_logger_8hpp.html" target="_top" xlink:title=" ">
<polygon fill="none" stroke="black" points="128,-168.5 128,-187.5 198,-187.5 198,-168.5 128,-168.5"/>
<text text-anchor="middle" x="163" y="-175.5" font-family="Helvetica,sans-Serif" font-size="10.00">Logger.hpp</text>
</a>
</g>
</g>
<!-- Node2&#45;&gt;Node13 -->
<g id="edge14" class="edge">
<title>Node2&#45;&gt;Node13</title>
<path fill="none" stroke="midnightblue" d="M360.41,-226.38C322.45,-217.27 253.64,-200.75 208.12,-189.83"/>
<polygon fill="midnightblue" stroke="midnightblue" points="208.76,-186.38 198.22,-187.45 207.13,-193.19 208.76,-186.38"/>
</g>
<!-- Node4 -->
<g id="node4" class="node">
<title>Node4</title>
<g id="a_node4"><a xlink:title=" ">
<polygon fill="none" stroke="#bfbfbf" points="545,-112.5 545,-131.5 605,-131.5 605,-112.5 545,-112.5"/>
<text text-anchor="middle" x="575" y="-119.5" font-family="Helvetica,sans-Serif" font-size="10.00">iostream</text>
</a>
</g>
</g>
<!-- Node3&#45;&gt;Node4 -->
<g id="edge3" class="edge">
<title>Node3&#45;&gt;Node4</title>
<path fill="none" stroke="midnightblue" d="M479.91,-168.44C498.25,-159.68 527.01,-145.94 548.09,-135.86"/>
<polygon fill="midnightblue" stroke="midnightblue" points="549.67,-138.99 557.18,-131.52 546.65,-132.67 549.67,-138.99"/>
</g>
<!-- Node5 -->
<g id="node5" class="node">
<title>Node5</title>
<g id="a_node5"><a xlink:title=" ">
<polygon fill="none" stroke="#bfbfbf" points="466,-112.5 466,-131.5 504,-131.5 504,-112.5 466,-112.5"/>
<text text-anchor="middle" x="485" y="-119.5" font-family="Helvetica,sans-Serif" font-size="10.00">map</text>
</a>
</g>
</g>
<!-- Node3&#45;&gt;Node5 -->
<g id="edge4" class="edge">
<title>Node3&#45;&gt;Node5</title>
<path fill="none" stroke="midnightblue" d="M465.8,-168.08C468.91,-160.77 473.42,-150.18 477.29,-141.1"/>
<polygon fill="midnightblue" stroke="midnightblue" points="480.57,-142.32 481.27,-131.75 474.13,-139.58 480.57,-142.32"/>
</g>
<!-- Node6 -->
<g id="node6" class="node">
<title>Node6</title>
<g id="a_node6"><a xlink:href="_a_log_outputter_8hpp.html" target="_top" xlink:title=" ">
<polygon fill="none" stroke="black" points="267.5,-112.5 267.5,-131.5 374.5,-131.5 374.5,-112.5 267.5,-112.5"/>
<text text-anchor="middle" x="321" y="-119.5" font-family="Helvetica,sans-Serif" font-size="10.00">ALogOutputter.hpp</text>
</a>
</g>
</g>
<!-- Node3&#45;&gt;Node6 -->
<g id="edge5" class="edge">
<title>Node3&#45;&gt;Node6</title>
<path fill="none" stroke="midnightblue" d="M439.66,-168.44C416.25,-159.48 379.26,-145.31 352.81,-135.18"/>
<polygon fill="midnightblue" stroke="midnightblue" points="353.83,-131.82 343.24,-131.52 351.32,-138.36 353.83,-131.82"/>
</g>
<!-- Node7 -->
<g id="node7" class="node">
<title>Node7</title>
<g id="a_node7"><a xlink:href="_log_data_8hpp.html" target="_top" xlink:title=" ">
<polygon fill="none" stroke="black" points="282,-56.5 282,-75.5 360,-75.5 360,-56.5 282,-56.5"/>
<text text-anchor="middle" x="321" y="-63.5" font-family="Helvetica,sans-Serif" font-size="10.00">LogData.hpp</text>
</a>
</g>
</g>
<!-- Node6&#45;&gt;Node7 -->
<g id="edge6" class="edge">
<title>Node6&#45;&gt;Node7</title>
<path fill="none" stroke="midnightblue" d="M321,-112.08C321,-105.01 321,-94.86 321,-85.99"/>
<polygon fill="midnightblue" stroke="midnightblue" points="324.5,-85.75 321,-75.75 317.5,-85.75 324.5,-85.75"/>
</g>
<!-- Node8 -->
<g id="node8" class="node">
<title>Node8</title>
<g id="a_node8"><a xlink:title=" ">
<polygon fill="none" stroke="#bfbfbf" points="775,-0.5 775,-19.5 819,-19.5 819,-0.5 775,-0.5"/>
<text text-anchor="middle" x="797" y="-7.5" font-family="Helvetica,sans-Serif" font-size="10.00">ctime</text>
</a>
</g>
</g>
<!-- Node7&#45;&gt;Node8 -->
<g id="edge7" class="edge">
<title>Node7&#45;&gt;Node8</title>
<path fill="none" stroke="midnightblue" d="M360.36,-60.54C452.42,-50.09 680.4,-24.23 764.85,-14.65"/>
<polygon fill="midnightblue" stroke="midnightblue" points="765.34,-18.11 774.88,-13.51 764.55,-11.16 765.34,-18.11"/>
</g>
<!-- Node9 -->
<g id="node9" class="node">
<title>Node9</title>
<g id="a_node9"><a xlink:title=" ">
<polygon fill="none" stroke="#bfbfbf" points="429,-0.5 429,-19.5 485,-19.5 485,-0.5 429,-0.5"/>
<text text-anchor="middle" x="457" y="-7.5" font-family="Helvetica,sans-Serif" font-size="10.00">sstream</text>
</a>
</g>
</g>
<!-- Node7&#45;&gt;Node9 -->
<g id="edge8" class="edge">
<title>Node7&#45;&gt;Node9</title>
<path fill="none" stroke="midnightblue" d="M342.55,-56.44C365.03,-47.52 400.49,-33.44 425.98,-23.32"/>
<polygon fill="midnightblue" stroke="midnightblue" points="427.55,-26.46 435.55,-19.52 424.97,-19.95 427.55,-26.46"/>
</g>
<!-- Node7&#45;&gt;Node10 -->
<g id="edge9" class="edge">
<title>Node7&#45;&gt;Node10</title>
<path fill="none" stroke="midnightblue" d="M288.68,-56.44C250.47,-46.33 187.29,-29.61 149.16,-19.51"/>
<polygon fill="midnightblue" stroke="midnightblue" points="149.68,-16.03 139.11,-16.85 147.88,-22.8 149.68,-16.03"/>
</g>
<!-- Node11&#45;&gt;Node4 -->
<g id="edge12" class="edge">
<title>Node11&#45;&gt;Node4</title>
<path fill="none" stroke="midnightblue" d="M355.36,-168.44C404.61,-158.25 486.3,-141.35 534.96,-131.28"/>
<polygon fill="midnightblue" stroke="midnightblue" points="535.74,-134.7 544.82,-129.24 534.32,-127.84 535.74,-134.7"/>
</g>
<!-- Node11&#45;&gt;Node6 -->
<g id="edge13" class="edge">
<title>Node11&#45;&gt;Node6</title>
<path fill="none" stroke="midnightblue" d="M315.16,-168.08C316.08,-160.93 317.42,-150.64 318.58,-141.69"/>
<polygon fill="midnightblue" stroke="midnightblue" points="322.05,-142.12 319.87,-131.75 315.11,-141.22 322.05,-142.12"/>
</g>
<!-- Node12 -->
<g id="node12" class="node">
<title>Node12</title>
<g id="a_node12"><a xlink:title=" ">
<polygon fill="none" stroke="#bfbfbf" points="392.5,-112.5 392.5,-131.5 447.5,-131.5 447.5,-112.5 392.5,-112.5"/>
<text text-anchor="middle" x="420" y="-119.5" font-family="Helvetica,sans-Serif" font-size="10.00">fstream</text>
</a>
</g>
</g>
<!-- Node11&#45;&gt;Node12 -->
<g id="edge11" class="edge">
<title>Node11&#45;&gt;Node12</title>
<path fill="none" stroke="midnightblue" d="M331.03,-168.32C348.03,-159.66 374.38,-146.24 393.99,-136.25"/>
<polygon fill="midnightblue" stroke="midnightblue" points="395.69,-139.31 403.01,-131.65 392.51,-133.08 395.69,-139.31"/>
</g>
<!-- Node13&#45;&gt;Node6 -->
<g id="edge17" class="edge">
<title>Node13&#45;&gt;Node6</title>
<path fill="none" stroke="midnightblue" d="M188.04,-168.44C214.62,-159.36 256.81,-144.94 286.52,-134.78"/>
<polygon fill="midnightblue" stroke="midnightblue" points="287.75,-138.06 296.08,-131.52 285.49,-131.44 287.75,-138.06"/>
</g>
<!-- Node13&#45;&gt;Node7 -->
<g id="edge18" class="edge">
<title>Node13&#45;&gt;Node7</title>
<path fill="none" stroke="midnightblue" d="M164.77,-168.12C167.99,-154.24 176.08,-127.39 193,-112 214.76,-92.2 245.77,-81.01 271.81,-74.74"/>
<polygon fill="midnightblue" stroke="midnightblue" points="272.88,-78.08 281.88,-72.49 271.36,-71.25 272.88,-78.08"/>
</g>
<!-- Node13&#45;&gt;Node10 -->
<g id="edge15" class="edge">
<title>Node13&#45;&gt;Node10</title>
<path fill="none" stroke="midnightblue" d="M160.53,-168.08C153.29,-141.95 132.02,-65.21 122.15,-29.58"/>
<polygon fill="midnightblue" stroke="midnightblue" points="125.42,-28.27 119.37,-19.57 118.67,-30.14 125.42,-28.27"/>
</g>
<!-- Node14 -->
<g id="node14" class="node">
<title>Node14</title>
<g id="a_node14"><a xlink:title=" ">
<polygon fill="none" stroke="#bfbfbf" points="202.5,-112.5 202.5,-131.5 249.5,-131.5 249.5,-112.5 202.5,-112.5"/>
<text text-anchor="middle" x="226" y="-119.5" font-family="Helvetica,sans-Serif" font-size="10.00">vector</text>
</a>
</g>
</g>
<!-- Node13&#45;&gt;Node14 -->
<g id="edge16" class="edge">
<title>Node13&#45;&gt;Node14</title>
<path fill="none" stroke="midnightblue" d="M173.12,-168.32C182.53,-160.26 196.74,-148.08 208.07,-138.37"/>
<polygon fill="midnightblue" stroke="midnightblue" points="210.38,-141 215.69,-131.83 205.82,-135.68 210.38,-141"/>
</g>
<!-- Node15&#45;&gt;Node10 -->
<g id="edge20" class="edge">
<title>Node15&#45;&gt;Node10</title>
<path fill="none" stroke="midnightblue" d="M48.17,-56.32C60.85,-47.98 80.23,-35.21 95.21,-25.35"/>
<polygon fill="midnightblue" stroke="midnightblue" points="97.43,-28.08 103.86,-19.65 93.58,-22.23 97.43,-28.08"/>
</g>
<!-- Node16&#45;&gt;Node4 -->
<g id="edge28" class="edge">
<title>Node16&#45;&gt;Node4</title>
<path fill="none" stroke="midnightblue" d="M779.59,-224.47C812.64,-213.49 858.94,-192.83 838,-168 810.01,-134.81 681.97,-126.1 615.43,-123.81"/>
<polygon fill="midnightblue" stroke="midnightblue" points="615.41,-120.31 605.3,-123.5 615.19,-127.31 615.41,-120.31"/>
</g>
<!-- Node16&#45;&gt;Node8 -->
<g id="edge27" class="edge">
<title>Node16&#45;&gt;Node8</title>
<path fill="none" stroke="midnightblue" d="M787.17,-227.7C829.39,-220.83 894.33,-207.39 909,-188 944.39,-141.21 941.85,-104.61 909,-56 891.29,-29.79 855.52,-18.84 829.15,-14.27"/>
<polygon fill="midnightblue" stroke="midnightblue" points="829.62,-10.81 819.21,-12.77 828.57,-17.73 829.62,-10.81"/>
</g>
<!-- Node16&#45;&gt;Node9 -->
<g id="edge29" class="edge">
<title>Node16&#45;&gt;Node9</title>
<path fill="none" stroke="midnightblue" d="M787.23,-225.46C824.93,-216.02 875.02,-197.42 855,-168 771.93,-45.93 577.89,-18.77 495.3,-12.73"/>
<polygon fill="midnightblue" stroke="midnightblue" points="495.32,-9.22 485.11,-12.05 494.85,-16.21 495.32,-9.22"/>
</g>
<!-- Node16&#45;&gt;Node14 -->
<g id="edge30" class="edge">
<title>Node16&#45;&gt;Node14</title>
<path fill="none" stroke="midnightblue" d="M712.79,-232.07C602.2,-228.99 280.96,-217.54 245,-188 231.53,-176.94 227.29,-156.9 226.11,-141.98"/>
<polygon fill="midnightblue" stroke="midnightblue" points="229.6,-141.66 225.69,-131.81 222.6,-141.94 229.6,-141.66"/>
</g>
<!-- Node17 -->
<g id="node17" class="node">
<title>Node17</title>
<g id="a_node17"><a xlink:href="_status_code_8hpp.html" target="_top" xlink:title=" ">
<polygon fill="none" stroke="black" points="550.5,-168.5 550.5,-187.5 643.5,-187.5 643.5,-168.5 550.5,-168.5"/>
<text text-anchor="middle" x="597" y="-175.5" font-family="Helvetica,sans-Serif" font-size="10.00">StatusCode.hpp</text>
</a>
</g>
</g>
<!-- Node16&#45;&gt;Node17 -->
<g id="edge22" class="edge">
<title>Node16&#45;&gt;Node17</title>
<path fill="none" stroke="midnightblue" d="M725.76,-224.44C700.13,-215.4 659.51,-201.06 630.76,-190.92"/>
<polygon fill="midnightblue" stroke="midnightblue" points="631.72,-187.54 621.13,-187.52 629.39,-194.15 631.72,-187.54"/>
</g>
<!-- Node18 -->
<g id="node18" class="node">
<title>Node18</title>
<g id="a_node18"><a xlink:href="constants_8hpp.html" target="_top" xlink:title=" ">
<polygon fill="none" stroke="black" points="661.5,-168.5 661.5,-187.5 746.5,-187.5 746.5,-168.5 661.5,-168.5"/>
<text text-anchor="middle" x="704" y="-175.5" font-family="Helvetica,sans-Serif" font-size="10.00">constants.hpp</text>
</a>
</g>
</g>
<!-- Node16&#45;&gt;Node18 -->
<g id="edge24" class="edge">
<title>Node16&#45;&gt;Node18</title>
<path fill="none" stroke="midnightblue" d="M742.4,-224.08C735.77,-216.3 725.98,-204.8 717.94,-195.37"/>
<polygon fill="midnightblue" stroke="midnightblue" points="720.6,-193.09 711.45,-187.75 715.27,-197.63 720.6,-193.09"/>
</g>
<!-- Node19 -->
<g id="node19" class="node">
<title>Node19</title>
<g id="a_node19"><a xlink:title=" ">
<polygon fill="none" stroke="#bfbfbf" points="765,-168.5 765,-187.5 829,-187.5 829,-168.5 765,-168.5"/>
<text text-anchor="middle" x="797" y="-175.5" font-family="Helvetica,sans-Serif" font-size="10.00">algorithm</text>
</a>
</g>
</g>
<!-- Node16&#45;&gt;Node19 -->
<g id="edge25" class="edge">
<title>Node16&#45;&gt;Node19</title>
<path fill="none" stroke="midnightblue" d="M757.76,-224.08C764.54,-216.3 774.54,-204.8 782.76,-195.37"/>
<polygon fill="midnightblue" stroke="midnightblue" points="785.46,-197.59 789.38,-187.75 780.18,-193 785.46,-197.59"/>
</g>
<!-- Node16&#45;&gt;Node20 -->
<g id="edge26" class="edge">
<title>Node16&#45;&gt;Node20</title>
<path fill="none" stroke="midnightblue" d="M787.03,-224.56C831.84,-214.35 906.77,-197.28 951.08,-187.18"/>
<polygon fill="midnightblue" stroke="midnightblue" points="951.87,-190.59 960.85,-184.96 950.32,-183.77 951.87,-190.59"/>
</g>
<!-- Node17&#45;&gt;Node4 -->
<g id="edge23" class="edge">
<title>Node17&#45;&gt;Node4</title>
<path fill="none" stroke="midnightblue" d="M593.37,-168.08C590.39,-160.77 586.07,-150.18 582.38,-141.1"/>
<polygon fill="midnightblue" stroke="midnightblue" points="585.58,-139.69 578.57,-131.75 579.1,-142.33 585.58,-139.69"/>
</g>
</g>
</svg>
        <g id="navigator" transform="translate(0 0)" fill="#404254">
                <rect fill="#f2f5e9" fill-opacity="0.5" stroke="#606060" stroke-width=".5" x="0" y="0" width="60" height="60"/>
                <use id="zoomplus" xlink:href="#zoomPlus" x="17" y="9" onmousedown="handleZoom(evt,'in')"/>
                <use id="zoomminus" xlink:href="#zoomMin" x="42" y="9" onmousedown="handleZoom(evt,'out')"/>
                <use id="reset" xlink:href="#resetDef" x="30" y="36" onmousedown="handleReset()"/>
                <g id="arrowUp" xlink:href="#dirArrow" transform="translate(30 24)" onmousedown="handlePan(0,-1)">
                  <use xlink:href="#rim" fill="#404040">
                        <set attributeName="fill" to="#808080" begin="arrowUp.mouseover" end="arrowUp.mouseout"/>
                  </use>
                  <path fill="none" stroke="white" stroke-width="1.5" d="M0,-3.0v7 M-2.5,-0.5L0,-3.0L2.5,-0.5"/>
                </g>
                <g id="arrowRight" xlink:href="#dirArrow" transform="rotate(90) translate(36 -43)" onmousedown="handlePan(1,0)">
                  <use xlink:href="#rim" fill="#404040">
                        <set attributeName="fill" to="#808080" begin="arrowRight.mouseover" end="arrowRight.mouseout"/>
                  </use>
                  <path fill="none" stroke="white" stroke-width="1.5" d="M0,-3.0v7 M-2.5,-0.5L0,-3.0L2.5,-0.5"/>
                </g>
                <g id="arrowDown" xlink:href="#dirArrow" transform="rotate(180) translate(-30 -48)" onmousedown="handlePan(0,1)">
                  <use xlink:href="#rim" fill="#404040">
                        <set attributeName="fill" to="#808080" begin="arrowDown.mouseover" end="arrowDown.mouseout"/>
                  </use>
                  <path fill="none" stroke="white" stroke-width="1.5" d="M0,-3.0v7 M-2.5,-0.5L0,-3.0L2.5,-0.5"/>
                </g>
                <g id="arrowLeft" xlink:href="#dirArrow" transform="rotate(270) translate(-36 17)" onmousedown="handlePan(-1,0)">
                  <use xlink:href="#rim" fill="#404040">
                        <set attributeName="fill" to="#808080" begin="arrowLeft.mouseover" end="arrowLeft.mouseout"/>
                  </use>
                  <path fill="none" stroke="white" stroke-width="1.5" d="M0,-3.0v7 M-2.5,-0.5L0,-3.0L2.5,-0.5"/>
                </g>
        </g>
        <svg viewBox="0 0 15 15" width="100%" height="30px" preserveAspectRatio="xMaxYMin meet">
         <g id="arrow_out" transform="scale(0.3 0.3)">
          <a xlink:href="_socket_policy_8hpp__incl_org.svg" target="_base">
           <rect id="button" ry="5" rx="5" y="6" x="6" height="38" width="38"
                fill="#f2f5e9" fill-opacity="0.5" stroke="#606060" stroke-width="1.0"/>
           <path id="arrow"
             d="M 11.500037,31.436501 C 11.940474,20.09759 22.043105,11.32322 32.158766,21.979434 L 37.068811,17.246167 C 37.068811,17.246167 37.088388,32 37.088388,32 L 22.160133,31.978069 C 22.160133,31.978069 26.997745,27.140456 26.997745,27.140456 C 18.528582,18.264221 13.291696,25.230495 11.500037,31.436501 z"
             style="fill:#404040;"/>
          </a>
         </g>
        </svg>
</svg>
