<?xml version="1.0" encoding="UTF-8" standalone="no"?>
<!DOCTYPE svg PUBLIC "-//W3C//DTD SVG 1.1//EN"
 "http://www.w3.org/Graphics/SVG/1.1/DTD/svg11.dtd">
<!-- Generated by graphviz version 2.43.0 (0)
 -->
<!-- Title: inc/Socket.hpp Pages: 1 -->
<svg width="2180pt" height="274pt"
 viewBox="0.00 0.00 2179.50 274.00" xmlns="http://www.w3.org/2000/svg" xmlns:xlink="http://www.w3.org/1999/xlink">
<g id="graph0" class="graph" transform="scale(1 1) rotate(0) translate(4 270)">
<title>inc/Socket.hpp</title>
<!-- Node1 -->
<g id="node1" class="node">
<title>Node1</title>
<g id="a_node1"><a xlink:title=" ">
<polygon fill="#bfbfbf" stroke="black" points="1406,-246.5 1406,-265.5 1493,-265.5 1493,-246.5 1406,-246.5"/>
<text text-anchor="middle" x="1449.5" y="-253.5" font-family="Helvetica,sans-Serif" font-size="10.00">inc/Socket.hpp</text>
</a>
</g>
</g>
<!-- Node2 -->
<g id="node2" class="node">
<title>Node2</title>
<g id="a_node2"><a xlink:href="_connection_8hpp.html" target="_top" xlink:title=" ">
<polygon fill="none" stroke="black" points="1394.5,-190.5 1394.5,-209.5 1504.5,-209.5 1504.5,-190.5 1394.5,-190.5"/>
<text text-anchor="middle" x="1449.5" y="-197.5" font-family="Helvetica,sans-Serif" font-size="10.00">inc/Connection.hpp</text>
</a>
</g>
</g>
<!-- Node1&#45;&gt;Node2 -->
<g id="edge1" class="edge">
<title>Node1&#45;&gt;Node2</title>
<path fill="none" stroke="midnightblue" d="M1449.5,-235.8C1449.5,-226.91 1449.5,-216.78 1449.5,-209.75"/>
<polygon fill="midnightblue" stroke="midnightblue" points="1446,-236.08 1449.5,-246.08 1453,-236.08 1446,-236.08"/>
</g>
<!-- Node3 -->
<g id="node3" class="node">
<title>Node3</title>
<g id="a_node3"><a xlink:href="_server_8hpp.html" target="_top" xlink:title=" ">
<polygon fill="none" stroke="black" points="1112.5,-73 1112.5,-92 1198.5,-92 1198.5,-73 1112.5,-73"/>
<text text-anchor="middle" x="1155.5" y="-80" font-family="Helvetica,sans-Serif" font-size="10.00">inc/Server.hpp</text>
</a>
</g>
</g>
<!-- Node1&#45;&gt;Node3 -->
<g id="edge24" class="edge">
<title>Node1&#45;&gt;Node3</title>
<path fill="none" stroke="midnightblue" d="M1395.72,-247.92C1336.18,-237.4 1240.92,-212.18 1182.5,-154 1165.04,-136.61 1158.66,-106.74 1156.51,-92.1"/>
<polygon fill="midnightblue" stroke="midnightblue" points="1395.24,-251.39 1405.68,-249.61 1396.4,-244.49 1395.24,-251.39"/>
</g>
<!-- Node21 -->
<g id="node21" class="node">
<title>Node21</title>
<g id="a_node21"><a xlink:href="_log_ostream_inserters_8cpp.html" target="_top" xlink:title=" ">
<polygon fill="none" stroke="black" points="1567.5,-134.5 1567.5,-153.5 1723.5,-153.5 1723.5,-134.5 1567.5,-134.5"/>
<text text-anchor="middle" x="1645.5" y="-141.5" font-family="Helvetica,sans-Serif" font-size="10.00">src/LogOstreamInserters.cpp</text>
</a>
</g>
</g>
<!-- Node1&#45;&gt;Node21 -->
<g id="edge40" class="edge">
<title>Node1&#45;&gt;Node21</title>
<path fill="none" stroke="midnightblue" d="M1473.65,-241.45C1514.54,-218.5 1596.27,-172.63 1630.19,-153.59"/>
<polygon fill="midnightblue" stroke="midnightblue" points="1471.89,-238.42 1464.88,-246.37 1475.31,-244.53 1471.89,-238.42"/>
</g>
<!-- Node22 -->
<g id="node22" class="node">
<title>Node22</title>
<g id="a_node22"><a xlink:href="test___ostream_inserters_8cpp.html" target="_top" xlink:title=" ">
<polygon fill="none" stroke="black" points="1742,-134.5 1742,-153.5 1909,-153.5 1909,-134.5 1742,-134.5"/>
<text text-anchor="middle" x="1825.5" y="-141.5" font-family="Helvetica,sans-Serif" font-size="10.00">test/test_OstreamInserters.cpp</text>
</a>
</g>
</g>
<!-- Node1&#45;&gt;Node22 -->
<g id="edge41" class="edge">
<title>Node1&#45;&gt;Node22</title>
<path fill="none" stroke="midnightblue" d="M1488.31,-243.65C1563.88,-221.54 1729.22,-173.17 1796.33,-153.53"/>
<polygon fill="midnightblue" stroke="midnightblue" points="1487.31,-240.29 1478.69,-246.46 1489.27,-247.01 1487.31,-240.29"/>
</g>
<!-- Node23 -->
<g id="node23" class="node">
<title>Node23</title>
<g id="a_node23"><a xlink:href="_socket_policy_8hpp.html" target="_top" xlink:title=" ">
<polygon fill="none" stroke="black" points="980,-134.5 980,-153.5 1095,-153.5 1095,-134.5 980,-134.5"/>
<text text-anchor="middle" x="1037.5" y="-141.5" font-family="Helvetica,sans-Serif" font-size="10.00">inc/SocketPolicy.hpp</text>
</a>
</g>
</g>
<!-- Node1&#45;&gt;Node23 -->
<g id="edge25" class="edge">
<title>Node1&#45;&gt;Node23</title>
<path fill="none" stroke="midnightblue" d="M1395.71,-254.22C1332.12,-251.73 1223.99,-242.54 1137.5,-210 1101.26,-196.37 1064.61,-167.97 1047.48,-153.65"/>
<polygon fill="midnightblue" stroke="midnightblue" points="1395.79,-257.72 1405.91,-254.57 1396.04,-250.73 1395.79,-257.72"/>
</g>
<!-- Node2&#45;&gt;Node3 -->
<g id="edge2" class="edge">
<title>Node2&#45;&gt;Node3</title>
<path fill="none" stroke="midnightblue" d="M1384.43,-192.33C1323.08,-185.09 1236.36,-172.08 1207.5,-154 1183.01,-138.66 1166.23,-107.26 1159.2,-92.08"/>
<polygon fill="midnightblue" stroke="midnightblue" points="1384.1,-195.82 1394.43,-193.49 1384.9,-188.86 1384.1,-195.82"/>
</g>
<!-- Node17 -->
<g id="node17" class="node">
<title>Node17</title>
<g id="a_node17"><a xlink:href="_target_resource_handler_8hpp.html" target="_top" xlink:title=" ">
<polygon fill="none" stroke="black" points="1217,-134.5 1217,-153.5 1384,-153.5 1384,-134.5 1217,-134.5"/>
<text text-anchor="middle" x="1300.5" y="-141.5" font-family="Helvetica,sans-Serif" font-size="10.00">inc/TargetResourceHandler.hpp</text>
</a>
</g>
</g>
<!-- Node2&#45;&gt;Node17 -->
<g id="edge16" class="edge">
<title>Node2&#45;&gt;Node17</title>
<path fill="none" stroke="midnightblue" d="M1416.13,-186.91C1388.12,-176.75 1348.8,-162.51 1324,-153.52"/>
<polygon fill="midnightblue" stroke="midnightblue" points="1415.3,-190.33 1425.89,-190.44 1417.68,-183.75 1415.3,-190.33"/>
</g>
<!-- Node19 -->
<g id="node19" class="node">
<title>Node19</title>
<g id="a_node19"><a xlink:href="test___target_resource_handler_8cpp.html" target="_top" xlink:title=" ">
<polygon fill="none" stroke="black" points="1402,-67.5 1402,-97.5 1539,-97.5 1539,-67.5 1402,-67.5"/>
<text text-anchor="start" x="1410" y="-85.5" font-family="Helvetica,sans-Serif" font-size="10.00">test/test_TargetResource</text>
<text text-anchor="middle" x="1470.5" y="-74.5" font-family="Helvetica,sans-Serif" font-size="10.00">Handler.cpp</text>
</a>
</g>
</g>
<!-- Node2&#45;&gt;Node19 -->
<g id="edge23" class="edge">
<title>Node2&#45;&gt;Node19</title>
<path fill="none" stroke="midnightblue" d="M1438.5,-181.59C1431.59,-168.41 1424.96,-149.93 1430.5,-134 1435.35,-120.06 1445.84,-107.07 1454.85,-97.75"/>
<polygon fill="midnightblue" stroke="midnightblue" points="1435.61,-183.58 1443.63,-190.5 1441.67,-180.09 1435.61,-183.58"/>
</g>
<!-- Node20 -->
<g id="node20" class="node">
<title>Node20</title>
<g id="a_node20"><a xlink:href="_connection_8cpp.html" target="_top" xlink:title=" ">
<polygon fill="none" stroke="black" points="1440,-134.5 1440,-153.5 1549,-153.5 1549,-134.5 1440,-134.5"/>
<text text-anchor="middle" x="1494.5" y="-141.5" font-family="Helvetica,sans-Serif" font-size="10.00">src/Connection.cpp</text>
</a>
</g>
</g>
<!-- Node2&#45;&gt;Node20 -->
<g id="edge20" class="edge">
<title>Node2&#45;&gt;Node20</title>
<path fill="none" stroke="midnightblue" d="M1463.55,-182.14C1471.39,-172.74 1480.83,-161.4 1487.21,-153.75"/>
<polygon fill="midnightblue" stroke="midnightblue" points="1460.64,-180.16 1456.93,-190.08 1466.02,-184.64 1460.64,-180.16"/>
</g>
<!-- Node2&#45;&gt;Node21 -->
<g id="edge21" class="edge">
<title>Node2&#45;&gt;Node21</title>
<path fill="none" stroke="midnightblue" d="M1490.52,-187.7C1527.51,-177.51 1581.1,-162.74 1614.59,-153.52"/>
<polygon fill="midnightblue" stroke="midnightblue" points="1489.27,-184.41 1480.56,-190.44 1491.13,-191.16 1489.27,-184.41"/>
</g>
<!-- Node2&#45;&gt;Node22 -->
<g id="edge22" class="edge">
<title>Node2&#45;&gt;Node22</title>
<path fill="none" stroke="midnightblue" d="M1514.72,-189.63C1585.58,-179.46 1697.81,-163.34 1766.24,-153.51"/>
<polygon fill="midnightblue" stroke="midnightblue" points="1513.98,-186.2 1504.58,-191.09 1514.97,-193.13 1513.98,-186.2"/>
</g>
<!-- Node4 -->
<g id="node4" class="node">
<title>Node4</title>
<g id="a_node4"><a xlink:href="main_8cpp.html" target="_top" xlink:title=" ">
<polygon fill="none" stroke="black" points="1797,-6 1797,-25 1876,-25 1876,-6 1797,-6"/>
<text text-anchor="middle" x="1836.5" y="-13" font-family="Helvetica,sans-Serif" font-size="10.00">src/main.cpp</text>
</a>
</g>
</g>
<!-- Node3&#45;&gt;Node4 -->
<g id="edge3" class="edge">
<title>Node3&#45;&gt;Node4</title>
<path fill="none" stroke="midnightblue" d="M1191.8,-70.34C1197.03,-69.03 1202.38,-67.86 1207.5,-67 1462.18,-24.08 1533.16,-75.93 1787.5,-31 1795.45,-29.6 1803.94,-27.36 1811.58,-25.06"/>
<polygon fill="midnightblue" stroke="midnightblue" points="1190.74,-67 1181.98,-72.96 1192.54,-73.76 1190.74,-67"/>
</g>
<!-- Node5 -->
<g id="node5" class="node">
<title>Node5</title>
<g id="a_node5"><a xlink:href="_server_8cpp.html" target="_top" xlink:title=" ">
<polygon fill="none" stroke="black" points="1894,-6 1894,-25 1979,-25 1979,-6 1894,-6"/>
<text text-anchor="middle" x="1936.5" y="-13" font-family="Helvetica,sans-Serif" font-size="10.00">src/Server.cpp</text>
</a>
</g>
</g>
<!-- Node3&#45;&gt;Node5 -->
<g id="edge4" class="edge">
<title>Node3&#45;&gt;Node5</title>
<path fill="none" stroke="midnightblue" d="M1191.62,-70.34C1196.91,-69.02 1202.31,-67.85 1207.5,-67 1505.28,-18.18 1587.84,-80.57 1885.5,-31 1893.85,-29.61 1902.79,-27.34 1910.81,-25.02"/>
<polygon fill="midnightblue" stroke="midnightblue" points="1190.46,-67.02 1181.7,-72.99 1192.27,-73.79 1190.46,-67.02"/>
</g>
<!-- Node6 -->
<g id="node6" class="node">
<title>Node6</title>
<g id="a_node6"><a xlink:href="test__accept_connections_8cpp.html" target="_top" xlink:title=" ">
<polygon fill="none" stroke="black" points="1419,-6 1419,-25 1594,-25 1594,-6 1419,-6"/>
<text text-anchor="middle" x="1506.5" y="-13" font-family="Helvetica,sans-Serif" font-size="10.00">test/test_acceptConnections.cpp</text>
</a>
</g>
</g>
<!-- Node3&#45;&gt;Node6 -->
<g id="edge5" class="edge">
<title>Node3&#45;&gt;Node6</title>
<path fill="none" stroke="midnightblue" d="M1193.85,-70.32C1198.43,-69.13 1203.06,-67.99 1207.5,-67 1253.04,-56.84 1378.85,-36.54 1451.95,-25.01"/>
<polygon fill="midnightblue" stroke="midnightblue" points="1192.72,-67 1183.97,-72.98 1194.54,-73.76 1192.72,-67"/>
</g>
<!-- Node7 -->
<g id="node7" class="node">
<title>Node7</title>
<g id="a_node7"><a xlink:href="test__check_for_timeout_8cpp.html" target="_top" xlink:title=" ">
<polygon fill="none" stroke="black" points="1612,-6 1612,-25 1779,-25 1779,-6 1612,-6"/>
<text text-anchor="middle" x="1695.5" y="-13" font-family="Helvetica,sans-Serif" font-size="10.00">test/test_checkForTimeout.cpp</text>
</a>
</g>
</g>
<!-- Node3&#45;&gt;Node7 -->
<g id="edge6" class="edge">
<title>Node3&#45;&gt;Node7</title>
<path fill="none" stroke="midnightblue" d="M1192.56,-70.29C1197.55,-69.04 1202.63,-67.89 1207.5,-67 1380.89,-35.2 1427.54,-52.59 1602.5,-31 1616.12,-29.32 1630.82,-27.18 1644.42,-25.06"/>
<polygon fill="midnightblue" stroke="midnightblue" points="1191.3,-67 1182.54,-72.96 1193.11,-73.76 1191.3,-67"/>
</g>
<!-- Node8 -->
<g id="node8" class="node">
<title>Node8</title>
<g id="a_node8"><a xlink:href="test__connection_receive_header_8cpp.html" target="_top" xlink:title=" ">
<polygon fill="none" stroke="black" points="0,-0.5 0,-30.5 155,-30.5 155,-0.5 0,-0.5"/>
<text text-anchor="start" x="8" y="-18.5" font-family="Helvetica,sans-Serif" font-size="10.00">test/test_connectionReceive</text>
<text text-anchor="middle" x="77.5" y="-7.5" font-family="Helvetica,sans-Serif" font-size="10.00">Header.cpp</text>
</a>
</g>
</g>
<!-- Node3&#45;&gt;Node8 -->
<g id="edge7" class="edge">
<title>Node3&#45;&gt;Node8</title>
<path fill="none" stroke="midnightblue" d="M1119.56,-70.31C1114.22,-68.99 1108.75,-67.82 1103.5,-67 690.88,-2.47 579.98,-73.42 164.5,-31 161.45,-30.69 158.35,-30.34 155.22,-29.96"/>
<polygon fill="midnightblue" stroke="midnightblue" points="1119.01,-73.79 1129.58,-72.99 1120.82,-67.02 1119.01,-73.79"/>
</g>
<!-- Node9 -->
<g id="node9" class="node">
<title>Node9</title>
<g id="a_node9"><a xlink:href="test__connection_send_response_8cpp.html" target="_top" xlink:title=" ">
<polygon fill="none" stroke="black" points="173.5,-0.5 173.5,-30.5 313.5,-30.5 313.5,-0.5 173.5,-0.5"/>
<text text-anchor="start" x="181.5" y="-18.5" font-family="Helvetica,sans-Serif" font-size="10.00">test/test_connectionSend</text>
<text text-anchor="middle" x="243.5" y="-7.5" font-family="Helvetica,sans-Serif" font-size="10.00">Response.cpp</text>
</a>
</g>
</g>
<!-- Node3&#45;&gt;Node9 -->
<g id="edge8" class="edge">
<title>Node3&#45;&gt;Node9</title>
<path fill="none" stroke="midnightblue" d="M1119.38,-70.3C1114.1,-68.99 1108.69,-67.83 1103.5,-67 760.4,-11.98 667.73,-70.46 322.5,-31 319.59,-30.67 316.63,-30.29 313.64,-29.88"/>
<polygon fill="midnightblue" stroke="midnightblue" points="1118.74,-73.75 1129.3,-72.95 1120.54,-66.99 1118.74,-73.75"/>
</g>
<!-- Node10 -->
<g id="node10" class="node">
<title>Node10</title>
<g id="a_node10"><a xlink:href="test__create_virtual_server_8cpp.html" target="_top" xlink:title=" ">
<polygon fill="none" stroke="black" points="331.5,-6 331.5,-25 507.5,-25 507.5,-6 331.5,-6"/>
<text text-anchor="middle" x="419.5" y="-13" font-family="Helvetica,sans-Serif" font-size="10.00">test/test_createVirtualServer.cpp</text>
</a>
</g>
</g>
<!-- Node3&#45;&gt;Node10 -->
<g id="edge9" class="edge">
<title>Node3&#45;&gt;Node10</title>
<path fill="none" stroke="midnightblue" d="M1119.2,-70.33C1113.97,-69.03 1108.63,-67.86 1103.5,-67 845.3,-23.6 775.87,-58.58 515.5,-31 500.75,-29.44 484.8,-27.24 470.21,-25.02"/>
<polygon fill="midnightblue" stroke="midnightblue" points="1118.46,-73.76 1129.02,-72.96 1120.26,-66.99 1118.46,-73.76"/>
</g>
<!-- Node11 -->
<g id="node11" class="node">
<title>Node11</title>
<g id="a_node11"><a xlink:href="test__init_virtual_servers_8cpp.html" target="_top" xlink:title=" ">
<polygon fill="none" stroke="black" points="525,-6 525,-25 692,-25 692,-6 525,-6"/>
<text text-anchor="middle" x="608.5" y="-13" font-family="Helvetica,sans-Serif" font-size="10.00">test/test_initVirtualServers.cpp</text>
</a>
</g>
</g>
<!-- Node3&#45;&gt;Node11 -->
<g id="edge10" class="edge">
<title>Node3&#45;&gt;Node11</title>
<path fill="none" stroke="midnightblue" d="M1118.44,-70.28C1113.45,-69.03 1108.37,-67.89 1103.5,-67 926.6,-34.71 878.97,-53.01 700.5,-31 686.86,-29.32 672.13,-27.15 658.55,-25.01"/>
<polygon fill="midnightblue" stroke="midnightblue" points="1117.9,-73.76 1128.46,-72.95 1119.7,-66.99 1117.9,-73.76"/>
</g>
<!-- Node12 -->
<g id="node12" class="node">
<title>Node12</title>
<g id="a_node12"><a xlink:href="test__is_duplicate_server_8cpp.html" target="_top" xlink:title=" ">
<polygon fill="none" stroke="black" points="709.5,-6 709.5,-25 877.5,-25 877.5,-6 709.5,-6"/>
<text text-anchor="middle" x="793.5" y="-13" font-family="Helvetica,sans-Serif" font-size="10.00">test/test_isDuplicateServer.cpp</text>
</a>
</g>
</g>
<!-- Node3&#45;&gt;Node12 -->
<g id="edge11" class="edge">
<title>Node3&#45;&gt;Node12</title>
<path fill="none" stroke="midnightblue" d="M1117.16,-70.3C1112.57,-69.11 1107.94,-67.98 1103.5,-67 1079.04,-61.61 929.98,-37.94 847.79,-25.01"/>
<polygon fill="midnightblue" stroke="midnightblue" points="1116.47,-73.73 1127.03,-72.95 1118.29,-66.97 1116.47,-73.73"/>
</g>
<!-- Node13 -->
<g id="node13" class="node">
<title>Node13</title>
<g id="a_node13"><a xlink:href="test__register_connection_8cpp.html" target="_top" xlink:title=" ">
<polygon fill="none" stroke="black" points="896,-6 896,-25 1071,-25 1071,-6 896,-6"/>
<text text-anchor="middle" x="983.5" y="-13" font-family="Helvetica,sans-Serif" font-size="10.00">test/test_registerConnection.cpp</text>
</a>
</g>
</g>
<!-- Node3&#45;&gt;Node13 -->
<g id="edge12" class="edge">
<title>Node3&#45;&gt;Node13</title>
<path fill="none" stroke="midnightblue" d="M1123.14,-69.27C1089,-56.37 1036.09,-36.38 1006.16,-25.06"/>
<polygon fill="midnightblue" stroke="midnightblue" points="1122.07,-72.61 1132.66,-72.87 1124.54,-66.06 1122.07,-72.61"/>
</g>
<!-- Node14 -->
<g id="node14" class="node">
<title>Node14</title>
<g id="a_node14"><a xlink:href="test__register_virtual_server_8cpp.html" target="_top" xlink:title=" ">
<polygon fill="none" stroke="black" points="1089.5,-0.5 1089.5,-30.5 1221.5,-30.5 1221.5,-0.5 1089.5,-0.5"/>
<text text-anchor="start" x="1097.5" y="-18.5" font-family="Helvetica,sans-Serif" font-size="10.00">test/test_registerVirtual</text>
<text text-anchor="middle" x="1155.5" y="-7.5" font-family="Helvetica,sans-Serif" font-size="10.00">Server.cpp</text>
</a>
</g>
</g>
<!-- Node3&#45;&gt;Node14 -->
<g id="edge13" class="edge">
<title>Node3&#45;&gt;Node14</title>
<path fill="none" stroke="midnightblue" d="M1155.5,-62.41C1155.5,-52.22 1155.5,-39.9 1155.5,-30.59"/>
<polygon fill="midnightblue" stroke="midnightblue" points="1152,-62.73 1155.5,-72.73 1159,-62.73 1152,-62.73"/>
</g>
<!-- Node15 -->
<g id="node15" class="node">
<title>Node15</title>
<g id="a_node15"><a xlink:href="test__select_server_config_8cpp.html" target="_top" xlink:title=" ">
<polygon fill="none" stroke="black" points="1997.5,-6 1997.5,-25 2171.5,-25 2171.5,-6 1997.5,-6"/>
<text text-anchor="middle" x="2084.5" y="-13" font-family="Helvetica,sans-Serif" font-size="10.00">test/test_selectServerConfig.cpp</text>
</a>
</g>
</g>
<!-- Node3&#45;&gt;Node15 -->
<g id="edge14" class="edge">
<title>Node3&#45;&gt;Node15</title>
<path fill="none" stroke="midnightblue" d="M1191.62,-70.3C1196.9,-68.99 1202.31,-67.83 1207.5,-67 1550.6,-11.98 1642.69,-64.99 1988.5,-31 2003.6,-29.52 2019.94,-27.28 2034.8,-25.01"/>
<polygon fill="midnightblue" stroke="midnightblue" points="1190.46,-66.99 1181.7,-72.95 1192.26,-73.75 1190.46,-66.99"/>
</g>
<!-- Node16 -->
<g id="node16" class="node">
<title>Node16</title>
<g id="a_node16"><a xlink:href="test__shutdown_server_8cpp.html" target="_top" xlink:title=" ">
<polygon fill="none" stroke="black" points="1240,-6 1240,-25 1401,-25 1401,-6 1240,-6"/>
<text text-anchor="middle" x="1320.5" y="-13" font-family="Helvetica,sans-Serif" font-size="10.00">test/test_shutdownServer.cpp</text>
</a>
</g>
</g>
<!-- Node3&#45;&gt;Node16 -->
<g id="edge15" class="edge">
<title>Node3&#45;&gt;Node16</title>
<path fill="none" stroke="midnightblue" d="M1186.97,-69.1C1219.73,-56.2 1270.17,-36.33 1298.76,-25.06"/>
<polygon fill="midnightblue" stroke="midnightblue" points="1185.43,-65.95 1177.41,-72.87 1188,-72.46 1185.43,-65.95"/>
</g>
<!-- Node17&#45;&gt;Node3 -->
<g id="edge17" class="edge">
<title>Node17&#45;&gt;Node3</title>
<path fill="none" stroke="midnightblue" d="M1270.36,-130.63C1242.19,-119.07 1200.88,-102.12 1176.24,-92.01"/>
<polygon fill="midnightblue" stroke="midnightblue" points="1269.14,-133.92 1279.73,-134.48 1271.8,-127.44 1269.14,-133.92"/>
</g>
<!-- Node18 -->
<g id="node18" class="node">
<title>Node18</title>
<g id="a_node18"><a xlink:href="_target_resource_handler_8cpp.html" target="_top" xlink:title=" ">
<polygon fill="none" stroke="black" points="1217,-73 1217,-92 1384,-92 1384,-73 1217,-73"/>
<text text-anchor="middle" x="1300.5" y="-80" font-family="Helvetica,sans-Serif" font-size="10.00">src/TargetResourceHandler.cpp</text>
</a>
</g>
</g>
<!-- Node17&#45;&gt;Node18 -->
<g id="edge18" class="edge">
<title>Node17&#45;&gt;Node18</title>
<path fill="none" stroke="midnightblue" d="M1300.5,-124.32C1300.5,-113.5 1300.5,-100.4 1300.5,-92.01"/>
<polygon fill="midnightblue" stroke="midnightblue" points="1297,-124.48 1300.5,-134.48 1304,-124.48 1297,-124.48"/>
</g>
<!-- Node17&#45;&gt;Node19 -->
<g id="edge19" class="edge">
<title>Node17&#45;&gt;Node19</title>
<path fill="none" stroke="midnightblue" d="M1334.49,-131.1C1362.15,-121.42 1401.25,-107.74 1430.43,-97.52"/>
<polygon fill="midnightblue" stroke="midnightblue" points="1333.14,-127.87 1324.86,-134.48 1335.45,-134.48 1333.14,-127.87"/>
</g>
<!-- Node23&#45;&gt;Node3 -->
<g id="edge37" class="edge">
<title>Node23&#45;&gt;Node3</title>
<path fill="none" stroke="midnightblue" d="M1063.55,-129.87C1086.42,-118.33 1119.01,-101.9 1138.62,-92.01"/>
<polygon fill="midnightblue" stroke="midnightblue" points="1061.76,-126.85 1054.41,-134.48 1064.91,-133.1 1061.76,-126.85"/>
</g>
<!-- Node24 -->
<g id="node24" class="node">
<title>Node24</title>
<g id="a_node24"><a xlink:href="_mock_socket_policy_8hpp.html" target="_top" xlink:title=" ">
<polygon fill="none" stroke="black" points="821,-73 821,-92 962,-92 962,-73 821,-73"/>
<text text-anchor="middle" x="891.5" y="-80" font-family="Helvetica,sans-Serif" font-size="10.00">inc/MockSocketPolicy.hpp</text>
</a>
</g>
</g>
<!-- Node23&#45;&gt;Node24 -->
<g id="edge26" class="edge">
<title>Node23&#45;&gt;Node24</title>
<path fill="none" stroke="midnightblue" d="M1007.15,-130.63C978.79,-119.07 937.19,-102.12 912.38,-92.01"/>
<polygon fill="midnightblue" stroke="midnightblue" points="1006,-133.94 1016.58,-134.48 1008.64,-127.46 1006,-133.94"/>
</g>
<!-- Node25 -->
<g id="node25" class="node">
<title>Node25</title>
<g id="a_node25"><a xlink:href="_socket_policy_8cpp.html" target="_top" xlink:title=" ">
<polygon fill="none" stroke="black" points="980.5,-73 980.5,-92 1094.5,-92 1094.5,-73 980.5,-73"/>
<text text-anchor="middle" x="1037.5" y="-80" font-family="Helvetica,sans-Serif" font-size="10.00">src/SocketPolicy.cpp</text>
</a>
</g>
</g>
<!-- Node23&#45;&gt;Node25 -->
<g id="edge38" class="edge">
<title>Node23&#45;&gt;Node25</title>
<path fill="none" stroke="midnightblue" d="M1037.5,-124.32C1037.5,-113.5 1037.5,-100.4 1037.5,-92.01"/>
<polygon fill="midnightblue" stroke="midnightblue" points="1034,-124.48 1037.5,-134.48 1041,-124.48 1034,-124.48"/>
</g>
<!-- Node26 -->
<g id="node26" class="node">
<title>Node26</title>
<g id="a_node26"><a xlink:href="test___socket_policy__retrieve_socket_info_8cpp.html" target="_top" xlink:title=" ">
<polygon fill="none" stroke="black" points="672,-67.5 672,-97.5 803,-97.5 803,-67.5 672,-67.5"/>
<text text-anchor="start" x="680" y="-85.5" font-family="Helvetica,sans-Serif" font-size="10.00">test/test_SocketPolicy</text>
<text text-anchor="middle" x="737.5" y="-74.5" font-family="Helvetica,sans-Serif" font-size="10.00">_retrieveSocketInfo.cpp</text>
</a>
</g>
</g>
<!-- Node23&#45;&gt;Node26 -->
<g id="edge39" class="edge">
<title>Node23&#45;&gt;Node26</title>
<path fill="none" stroke="midnightblue" d="M984.44,-132.48C933.83,-122.44 857.46,-107.29 803.06,-96.5"/>
<polygon fill="midnightblue" stroke="midnightblue" points="984.03,-135.96 994.52,-134.48 985.39,-129.1 984.03,-135.96"/>
</g>
<!-- Node24&#45;&gt;Node6 -->
<g id="edge27" class="edge">
<title>Node24&#45;&gt;Node6</title>
<path fill="none" stroke="midnightblue" d="M944.23,-71.19C953.3,-69.63 962.65,-68.16 971.5,-67 1165.16,-41.55 1215.47,-53.45 1409.5,-31 1423.96,-29.33 1439.58,-27.15 1453.98,-25"/>
<polygon fill="midnightblue" stroke="midnightblue" points="943.38,-67.79 934.14,-72.98 944.6,-74.68 943.38,-67.79"/>
</g>
<!-- Node24&#45;&gt;Node7 -->
<g id="edge28" class="edge">
<title>Node24&#45;&gt;Node7</title>
<path fill="none" stroke="midnightblue" d="M943.28,-71.16C952.64,-69.56 962.34,-68.09 971.5,-67 1250.44,-33.89 1323.17,-60.67 1602.5,-31 1616.8,-29.48 1632.26,-27.29 1646.39,-25.08"/>
<polygon fill="midnightblue" stroke="midnightblue" points="942.53,-67.74 933.29,-72.93 943.75,-74.63 942.53,-67.74"/>
</g>
<!-- Node24&#45;&gt;Node8 -->
<g id="edge29" class="edge">
<title>Node24&#45;&gt;Node8</title>
<path fill="none" stroke="midnightblue" d="M840.04,-71.21C830.58,-69.59 820.76,-68.09 811.5,-67 525.48,-33.25 450.75,-62.72 164.5,-31 161.46,-30.66 158.36,-30.29 155.23,-29.89"/>
<polygon fill="midnightblue" stroke="midnightblue" points="839.67,-74.69 850.12,-72.99 840.89,-67.8 839.67,-74.69"/>
</g>
<!-- Node24&#45;&gt;Node9 -->
<g id="edge30" class="edge">
<title>Node24&#45;&gt;Node9</title>
<path fill="none" stroke="midnightblue" d="M839.39,-71.23C830.13,-69.64 820.55,-68.15 811.5,-67 595.32,-39.53 538.65,-58.71 322.5,-31 319.6,-30.63 316.64,-30.22 313.65,-29.78"/>
<polygon fill="midnightblue" stroke="midnightblue" points="838.82,-74.69 849.28,-72.99 840.04,-67.79 838.82,-74.69"/>
</g>
<!-- Node24&#45;&gt;Node10 -->
<g id="edge31" class="edge">
<title>Node24&#45;&gt;Node10</title>
<path fill="none" stroke="midnightblue" d="M837.2,-71.22C828.62,-69.72 819.83,-68.26 811.5,-67 680.47,-47.17 646.81,-48.9 515.5,-31 502.06,-29.17 487.57,-27.05 474.04,-25.02"/>
<polygon fill="midnightblue" stroke="midnightblue" points="836.69,-74.68 847.15,-72.99 837.91,-67.79 836.69,-74.68"/>
</g>
<!-- Node24&#45;&gt;Node11 -->
<g id="edge32" class="edge">
<title>Node24&#45;&gt;Node11</title>
<path fill="none" stroke="midnightblue" d="M844.23,-70.64C788.48,-57.84 696.92,-36.81 645.87,-25.08"/>
<polygon fill="midnightblue" stroke="midnightblue" points="843.68,-74.11 854.21,-72.94 845.25,-67.29 843.68,-74.11"/>
</g>
<!-- Node24&#45;&gt;Node12 -->
<g id="edge33" class="edge">
<title>Node24&#45;&gt;Node12</title>
<path fill="none" stroke="midnightblue" d="M869.78,-67.09C850.39,-54.24 822.64,-35.83 806.51,-25.13"/>
<polygon fill="midnightblue" stroke="midnightblue" points="868.02,-70.12 878.28,-72.73 871.88,-64.29 868.02,-70.12"/>
</g>
<!-- Node24&#45;&gt;Node13 -->
<g id="edge34" class="edge">
<title>Node24&#45;&gt;Node13</title>
<path fill="none" stroke="midnightblue" d="M912.14,-66.92C930.32,-54.07 956.21,-35.78 971.29,-25.13"/>
<polygon fill="midnightblue" stroke="midnightblue" points="910.06,-64.1 903.91,-72.73 914.09,-69.82 910.06,-64.1"/>
</g>
<!-- Node24&#45;&gt;Node14 -->
<g id="edge35" class="edge">
<title>Node24&#45;&gt;Node14</title>
<path fill="none" stroke="midnightblue" d="M936.27,-70.48C980.96,-59.47 1049.8,-42.52 1098.4,-30.56"/>
<polygon fill="midnightblue" stroke="midnightblue" points="935.16,-67.15 926.28,-72.94 936.83,-73.94 935.16,-67.15"/>
</g>
<!-- Node24&#45;&gt;Node16 -->
<g id="edge36" class="edge">
<title>Node24&#45;&gt;Node16</title>
<path fill="none" stroke="midnightblue" d="M946.71,-71.19C955.01,-69.73 963.47,-68.28 971.5,-67 1086.26,-48.63 1115.57,-48.24 1230.5,-31 1242.86,-29.14 1256.17,-27.05 1268.65,-25.05"/>
<polygon fill="midnightblue" stroke="midnightblue" points="945.94,-67.77 936.71,-72.97 947.17,-74.66 945.94,-67.77"/>
</g>
</g>
</svg>
