<?xml version="1.0" encoding="UTF-8" standalone="no"?>
<!DOCTYPE svg PUBLIC "-//W3C//DTD SVG 1.1//EN"
 "http://www.w3.org/Graphics/SVG/1.1/DTD/svg11.dtd">
<!-- Generated by graphviz version 2.43.0 (0)
 -->
<!-- Title: inc/StatusCode.hpp Pages: 1 -->
<svg width="1627pt" height="375pt"
 viewBox="0.00 0.00 1626.50 375.00" xmlns="http://www.w3.org/2000/svg" xmlns:xlink="http://www.w3.org/1999/xlink">
<g id="graph0" class="graph" transform="scale(1 1) rotate(0) translate(4 371)">
<title>inc/StatusCode.hpp</title>
<!-- Node1 -->
<g id="node1" class="node">
<title>Node1</title>
<g id="a_node1"><a xlink:title=" ">
<polygon fill="#bfbfbf" stroke="black" points="874,-347.5 874,-366.5 984,-366.5 984,-347.5 874,-347.5"/>
<text text-anchor="middle" x="929" y="-354.5" font-family="Helvetica,sans-Serif" font-size="10.00">inc/StatusCode.hpp</text>
</a>
</g>
</g>
<!-- Node2 -->
<g id="node2" class="node">
<title>Node2</title>
<g id="a_node2"><a xlink:href="_h_t_t_p_request_8hpp.html" target="_top" xlink:title=" ">
<polygon fill="none" stroke="black" points="605,-291.5 605,-310.5 725,-310.5 725,-291.5 605,-291.5"/>
<text text-anchor="middle" x="665" y="-298.5" font-family="Helvetica,sans-Serif" font-size="10.00">inc/HTTPRequest.hpp</text>
</a>
</g>
</g>
<!-- Node1&#45;&gt;Node2 -->
<g id="edge1" class="edge">
<title>Node1&#45;&gt;Node2</title>
<path fill="none" stroke="midnightblue" d="M877.22,-345.41C827.33,-335.2 752.8,-319.96 706.64,-310.52"/>
<polygon fill="midnightblue" stroke="midnightblue" points="876.67,-348.87 887.17,-347.44 878.07,-342.01 876.67,-348.87"/>
</g>
<!-- Node3 -->
<g id="node3" class="node">
<title>Node3</title>
<g id="a_node3"><a xlink:href="_request_parser_8hpp.html" target="_top" xlink:title=" ">
<polygon fill="none" stroke="black" points="561,-235.5 561,-254.5 685,-254.5 685,-235.5 561,-235.5"/>
<text text-anchor="middle" x="623" y="-242.5" font-family="Helvetica,sans-Serif" font-size="10.00">inc/RequestParser.hpp</text>
</a>
</g>
</g>
<!-- Node1&#45;&gt;Node3 -->
<g id="edge27" class="edge">
<title>Node1&#45;&gt;Node3</title>
<path fill="none" stroke="midnightblue" d="M892.73,-344.36C865.47,-335.51 827.26,-322.86 794,-311 740,-291.75 677.14,-267.33 644.76,-254.6"/>
<polygon fill="midnightblue" stroke="midnightblue" points="891.66,-347.69 902.25,-347.44 893.81,-341.03 891.66,-347.69"/>
</g>
<!-- Node5 -->
<g id="node5" class="node">
<title>Node5</title>
<g id="a_node5"><a xlink:href="_server_8hpp.html" target="_top" xlink:title=" ">
<polygon fill="none" stroke="black" points="386,-56.5 386,-75.5 472,-75.5 472,-56.5 386,-56.5"/>
<text text-anchor="middle" x="429" y="-63.5" font-family="Helvetica,sans-Serif" font-size="10.00">inc/Server.hpp</text>
</a>
</g>
</g>
<!-- Node1&#45;&gt;Node5 -->
<g id="edge29" class="edge">
<title>Node1&#45;&gt;Node5</title>
<path fill="none" stroke="midnightblue" d="M863.64,-355.13C652.14,-351.46 0,-333.09 0,-246 0,-246 0,-246 0,-188 0,-108.39 277.11,-78.59 385.9,-69.95"/>
<polygon fill="midnightblue" stroke="midnightblue" points="863.61,-358.63 873.67,-355.3 863.73,-351.63 863.61,-358.63"/>
</g>
<!-- Node9 -->
<g id="node9" class="node">
<title>Node9</title>
<g id="a_node9"><a xlink:href="_target_resource_handler_8hpp.html" target="_top" xlink:title=" ">
<polygon fill="none" stroke="black" points="688.5,-179.5 688.5,-198.5 855.5,-198.5 855.5,-179.5 688.5,-179.5"/>
<text text-anchor="middle" x="772" y="-186.5" font-family="Helvetica,sans-Serif" font-size="10.00">inc/TargetResourceHandler.hpp</text>
</a>
</g>
</g>
<!-- Node1&#45;&gt;Node9 -->
<g id="edge30" class="edge">
<title>Node1&#45;&gt;Node9</title>
<path fill="none" stroke="midnightblue" d="M906.94,-341.47C895.11,-333.2 880.63,-322.26 869,-311 829.73,-272.98 791.75,-219.17 777.7,-198.52"/>
<polygon fill="midnightblue" stroke="midnightblue" points="905.14,-344.48 915.37,-347.23 909.09,-338.7 905.14,-344.48"/>
</g>
<!-- Node11 -->
<g id="node11" class="node">
<title>Node11</title>
<g id="a_node11"><a xlink:href="test___target_resource_handler_8cpp.html" target="_top" xlink:title=" ">
<polygon fill="none" stroke="black" points="672.5,-112.5 672.5,-142.5 809.5,-142.5 809.5,-112.5 672.5,-112.5"/>
<text text-anchor="start" x="680.5" y="-130.5" font-family="Helvetica,sans-Serif" font-size="10.00">test/test_TargetResource</text>
<text text-anchor="middle" x="741" y="-119.5" font-family="Helvetica,sans-Serif" font-size="10.00">Handler.cpp</text>
</a>
</g>
</g>
<!-- Node1&#45;&gt;Node11 -->
<g id="edge41" class="edge">
<title>Node1&#45;&gt;Node11</title>
<path fill="none" stroke="midnightblue" d="M924.29,-337.23C913.77,-296.64 887.56,-202.47 865,-179 848.41,-161.74 825.1,-150.19 803.16,-142.55"/>
<polygon fill="midnightblue" stroke="midnightblue" points="920.96,-338.33 926.82,-347.16 927.74,-336.6 920.96,-338.33"/>
</g>
<!-- Node16 -->
<g id="node16" class="node">
<title>Node16</title>
<g id="a_node16"><a xlink:href="_h_t_t_p_response_8hpp.html" target="_top" xlink:title=" ">
<polygon fill="none" stroke="black" points="911,-235.5 911,-254.5 1039,-254.5 1039,-235.5 911,-235.5"/>
<text text-anchor="middle" x="975" y="-242.5" font-family="Helvetica,sans-Serif" font-size="10.00">inc/HTTPResponse.hpp</text>
</a>
</g>
</g>
<!-- Node1&#45;&gt;Node16 -->
<g id="edge18" class="edge">
<title>Node1&#45;&gt;Node16</title>
<path fill="none" stroke="midnightblue" d="M936.53,-338C946.56,-314 963.93,-272.47 971.41,-254.59"/>
<polygon fill="midnightblue" stroke="midnightblue" points="933.24,-336.79 932.61,-347.37 939.7,-339.49 933.24,-336.79"/>
</g>
<!-- Node17 -->
<g id="node17" class="node">
<title>Node17</title>
<g id="a_node17"><a xlink:href="_response_body_handler_8hpp.html" target="_top" xlink:title=" ">
<polygon fill="none" stroke="black" points="1025,-179.5 1025,-198.5 1189,-198.5 1189,-179.5 1025,-179.5"/>
<text text-anchor="middle" x="1107" y="-186.5" font-family="Helvetica,sans-Serif" font-size="10.00">inc/ResponseBodyHandler.hpp</text>
</a>
</g>
</g>
<!-- Node1&#45;&gt;Node17 -->
<g id="edge28" class="edge">
<title>Node1&#45;&gt;Node17</title>
<path fill="none" stroke="midnightblue" d="M948.25,-340.94C972.35,-321.81 1014.52,-287.38 1048,-255 1067.72,-235.93 1088.88,-211.54 1099.7,-198.74"/>
<polygon fill="midnightblue" stroke="midnightblue" points="945.92,-338.32 940.24,-347.27 950.26,-343.82 945.92,-338.32"/>
</g>
<!-- Node19 -->
<g id="node19" class="node">
<title>Node19</title>
<g id="a_node19"><a xlink:href="test___response_body_handler_8cpp.html" target="_top" xlink:title=" ">
<polygon fill="none" stroke="black" points="1164,-118 1164,-137 1356,-137 1356,-118 1164,-118"/>
<text text-anchor="middle" x="1260" y="-125" font-family="Helvetica,sans-Serif" font-size="10.00">test/test_ResponseBodyHandler.cpp</text>
</a>
</g>
</g>
<!-- Node1&#45;&gt;Node19 -->
<g id="edge40" class="edge">
<title>Node1&#45;&gt;Node19</title>
<path fill="none" stroke="midnightblue" d="M957.47,-343.26C1008.8,-319.48 1118.88,-264.75 1198,-199 1221.32,-179.62 1243.48,-151.19 1253.86,-137.08"/>
<polygon fill="midnightblue" stroke="midnightblue" points="955.93,-340.11 948.3,-347.46 958.85,-346.48 955.93,-340.11"/>
</g>
<!-- Node20 -->
<g id="node20" class="node">
<title>Node20</title>
<g id="a_node20"><a xlink:href="utilities_8hpp.html" target="_top" xlink:title=" ">
<polygon fill="none" stroke="black" points="1270,-291.5 1270,-310.5 1362,-310.5 1362,-291.5 1270,-291.5"/>
<text text-anchor="middle" x="1316" y="-298.5" font-family="Helvetica,sans-Serif" font-size="10.00">inc/utilities.hpp</text>
</a>
</g>
</g>
<!-- Node1&#45;&gt;Node20 -->
<g id="edge31" class="edge">
<title>Node1&#45;&gt;Node20</title>
<path fill="none" stroke="midnightblue" d="M994.25,-346.9C1072.43,-335.99 1201.43,-317.99 1269.93,-308.43"/>
<polygon fill="midnightblue" stroke="midnightblue" points="993.46,-343.47 984.04,-348.32 994.42,-350.4 993.46,-343.47"/>
</g>
<!-- Node24 -->
<g id="node24" class="node">
<title>Node24</title>
<g id="a_node24"><a xlink:href="utilities_8cpp.html" target="_top" xlink:title=" ">
<polygon fill="none" stroke="black" points="1527.5,-235.5 1527.5,-254.5 1618.5,-254.5 1618.5,-235.5 1527.5,-235.5"/>
<text text-anchor="middle" x="1573" y="-242.5" font-family="Helvetica,sans-Serif" font-size="10.00">src/utilities.cpp</text>
</a>
</g>
</g>
<!-- Node1&#45;&gt;Node24 -->
<g id="edge39" class="edge">
<title>Node1&#45;&gt;Node24</title>
<path fill="none" stroke="midnightblue" d="M994.23,-353.64C1081.05,-349.52 1238.96,-338.64 1371,-311 1438.43,-296.88 1515.13,-268.71 1551.58,-254.54"/>
<polygon fill="midnightblue" stroke="midnightblue" points="993.83,-350.15 984,-354.1 994.15,-357.14 993.83,-350.15"/>
</g>
<!-- Node2&#45;&gt;Node3 -->
<g id="edge2" class="edge">
<title>Node2&#45;&gt;Node3</title>
<path fill="none" stroke="midnightblue" d="M651.89,-283.14C644.57,-273.74 635.76,-262.4 629.81,-254.75"/>
<polygon fill="midnightblue" stroke="midnightblue" points="649.16,-285.34 658.06,-291.08 654.69,-281.04 649.16,-285.34"/>
</g>
<!-- Node4 -->
<g id="node4" class="node">
<title>Node4</title>
<g id="a_node4"><a xlink:href="_response_builder_8hpp.html" target="_top" xlink:title=" ">
<polygon fill="none" stroke="black" points="828,-118 828,-137 964,-137 964,-118 828,-118"/>
<text text-anchor="middle" x="896" y="-125" font-family="Helvetica,sans-Serif" font-size="10.00">inc/ResponseBuilder.hpp</text>
</a>
</g>
</g>
<!-- Node3&#45;&gt;Node4 -->
<g id="edge3" class="edge">
<title>Node3&#45;&gt;Node4</title>
<path fill="none" stroke="midnightblue" d="M633.78,-226.51C643.88,-211.61 660.36,-190.78 680,-179 694.78,-170.14 794.49,-148.98 853.14,-137.05"/>
<polygon fill="midnightblue" stroke="midnightblue" points="630.58,-225 628.08,-235.3 636.46,-228.81 630.58,-225"/>
</g>
<!-- Node3&#45;&gt;Node5 -->
<g id="edge8" class="edge">
<title>Node3&#45;&gt;Node5</title>
<path fill="none" stroke="midnightblue" d="M551,-233.7C509.16,-226.2 462.01,-214.62 448,-199 416,-163.32 423.33,-99.04 427.3,-75.74"/>
<polygon fill="midnightblue" stroke="midnightblue" points="550.49,-237.17 560.94,-235.43 551.68,-230.27 550.49,-237.17"/>
</g>
<!-- Node3&#45;&gt;Node9 -->
<g id="edge9" class="edge">
<title>Node3&#45;&gt;Node9</title>
<path fill="none" stroke="midnightblue" d="M656.37,-231.91C684.38,-221.75 723.7,-207.51 748.5,-198.52"/>
<polygon fill="midnightblue" stroke="midnightblue" points="654.82,-228.75 646.61,-235.44 657.2,-235.33 654.82,-228.75"/>
</g>
<!-- Node3&#45;&gt;Node11 -->
<g id="edge14" class="edge">
<title>Node3&#45;&gt;Node11</title>
<path fill="none" stroke="midnightblue" d="M626.16,-225.41C629.36,-211.32 635.54,-192.18 647,-179 661.22,-162.64 682.08,-150.69 700.54,-142.53"/>
<polygon fill="midnightblue" stroke="midnightblue" points="622.68,-224.94 624.18,-235.43 629.55,-226.3 622.68,-224.94"/>
</g>
<!-- Node12 -->
<g id="node12" class="node">
<title>Node12</title>
<g id="a_node12"><a xlink:href="_request_parser_8cpp.html" target="_top" xlink:title=" ">
<polygon fill="none" stroke="black" points="28.5,-179.5 28.5,-198.5 151.5,-198.5 151.5,-179.5 28.5,-179.5"/>
<text text-anchor="middle" x="90" y="-186.5" font-family="Helvetica,sans-Serif" font-size="10.00">src/RequestParser.cpp</text>
</a>
</g>
</g>
<!-- Node3&#45;&gt;Node12 -->
<g id="edge13" class="edge">
<title>Node3&#45;&gt;Node12</title>
<path fill="none" stroke="midnightblue" d="M550.55,-237.66C459.36,-229.51 297.93,-214.57 160,-199 157.32,-198.7 154.59,-198.38 151.82,-198.05"/>
<polygon fill="midnightblue" stroke="midnightblue" points="550.51,-241.17 560.78,-238.57 551.13,-234.2 550.51,-241.17"/>
</g>
<!-- Node13 -->
<g id="node13" class="node">
<title>Node13</title>
<g id="a_node13"><a xlink:href="test_body_8cpp.html" target="_top" xlink:title=" ">
<polygon fill="none" stroke="black" points="169.5,-179.5 169.5,-198.5 270.5,-198.5 270.5,-179.5 169.5,-179.5"/>
<text text-anchor="middle" x="220" y="-186.5" font-family="Helvetica,sans-Serif" font-size="10.00">test/testBody.cpp</text>
</a>
</g>
</g>
<!-- Node3&#45;&gt;Node13 -->
<g id="edge15" class="edge">
<title>Node3&#45;&gt;Node13</title>
<path fill="none" stroke="midnightblue" d="M551.03,-234.95C481.59,-226.13 373.53,-212.15 280,-199 276.98,-198.57 273.87,-198.13 270.73,-197.68"/>
<polygon fill="midnightblue" stroke="midnightblue" points="550.63,-238.43 560.99,-236.21 551.51,-231.48 550.63,-238.43"/>
</g>
<!-- Node14 -->
<g id="node14" class="node">
<title>Node14</title>
<g id="a_node14"><a xlink:href="test_header_8cpp.html" target="_top" xlink:title=" ">
<polygon fill="none" stroke="black" points="289,-179.5 289,-198.5 401,-198.5 401,-179.5 289,-179.5"/>
<text text-anchor="middle" x="345" y="-186.5" font-family="Helvetica,sans-Serif" font-size="10.00">test/testHeader.cpp</text>
</a>
</g>
</g>
<!-- Node3&#45;&gt;Node14 -->
<g id="edge16" class="edge">
<title>Node3&#45;&gt;Node14</title>
<path fill="none" stroke="midnightblue" d="M568.81,-233.47C516.27,-223.27 437.56,-207.98 388.84,-198.52"/>
<polygon fill="midnightblue" stroke="midnightblue" points="568.47,-236.97 578.95,-235.44 569.8,-230.1 568.47,-236.97"/>
</g>
<!-- Node15 -->
<g id="node15" class="node">
<title>Node15</title>
<g id="a_node15"><a xlink:href="test_request_line_8cpp.html" target="_top" xlink:title=" ">
<polygon fill="none" stroke="black" points="457.5,-179.5 457.5,-198.5 594.5,-198.5 594.5,-179.5 457.5,-179.5"/>
<text text-anchor="middle" x="526" y="-186.5" font-family="Helvetica,sans-Serif" font-size="10.00">test/testRequestLine.cpp</text>
</a>
</g>
</g>
<!-- Node3&#45;&gt;Node15 -->
<g id="edge17" class="edge">
<title>Node3&#45;&gt;Node15</title>
<path fill="none" stroke="midnightblue" d="M598.66,-230.45C580.76,-220.48 556.95,-207.23 541.55,-198.65"/>
<polygon fill="midnightblue" stroke="midnightblue" points="596.98,-233.52 607.42,-235.32 600.38,-227.4 596.98,-233.52"/>
</g>
<!-- Node4&#45;&gt;Node5 -->
<g id="edge4" class="edge">
<title>Node4&#45;&gt;Node5</title>
<path fill="none" stroke="midnightblue" d="M843.78,-116.15C835.51,-114.66 827.03,-113.22 819,-112 693.49,-92.97 544.18,-77.81 472.13,-70.96"/>
<polygon fill="midnightblue" stroke="midnightblue" points="843.26,-119.61 853.73,-117.98 844.53,-112.73 843.26,-119.61"/>
</g>
<!-- Node8 -->
<g id="node8" class="node">
<title>Node8</title>
<g id="a_node8"><a xlink:href="_response_builder_8cpp.html" target="_top" xlink:title=" ">
<polygon fill="none" stroke="black" points="828.5,-56.5 828.5,-75.5 963.5,-75.5 963.5,-56.5 828.5,-56.5"/>
<text text-anchor="middle" x="896" y="-63.5" font-family="Helvetica,sans-Serif" font-size="10.00">src/ResponseBuilder.cpp</text>
</a>
</g>
</g>
<!-- Node4&#45;&gt;Node8 -->
<g id="edge7" class="edge">
<title>Node4&#45;&gt;Node8</title>
<path fill="none" stroke="midnightblue" d="M896,-107.82C896,-97 896,-83.9 896,-75.51"/>
<polygon fill="midnightblue" stroke="midnightblue" points="892.5,-107.98 896,-117.98 899.5,-107.98 892.5,-107.98"/>
</g>
<!-- Node6 -->
<g id="node6" class="node">
<title>Node6</title>
<g id="a_node6"><a xlink:href="main_8cpp.html" target="_top" xlink:title=" ">
<polygon fill="none" stroke="black" points="339.5,-0.5 339.5,-19.5 418.5,-19.5 418.5,-0.5 339.5,-0.5"/>
<text text-anchor="middle" x="379" y="-7.5" font-family="Helvetica,sans-Serif" font-size="10.00">src/main.cpp</text>
</a>
</g>
</g>
<!-- Node5&#45;&gt;Node6 -->
<g id="edge5" class="edge">
<title>Node5&#45;&gt;Node6</title>
<path fill="none" stroke="midnightblue" d="M413.92,-48.72C405.11,-39.2 394.33,-27.56 387.1,-19.75"/>
<polygon fill="midnightblue" stroke="midnightblue" points="411.38,-51.12 420.74,-56.08 416.52,-46.37 411.38,-51.12"/>
</g>
<!-- Node7 -->
<g id="node7" class="node">
<title>Node7</title>
<g id="a_node7"><a xlink:href="_server_8cpp.html" target="_top" xlink:title=" ">
<polygon fill="none" stroke="black" points="436.5,-0.5 436.5,-19.5 521.5,-19.5 521.5,-0.5 436.5,-0.5"/>
<text text-anchor="middle" x="479" y="-7.5" font-family="Helvetica,sans-Serif" font-size="10.00">src/Server.cpp</text>
</a>
</g>
</g>
<!-- Node5&#45;&gt;Node7 -->
<g id="edge6" class="edge">
<title>Node5&#45;&gt;Node7</title>
<path fill="none" stroke="midnightblue" d="M444.08,-48.72C452.89,-39.2 463.67,-27.56 470.9,-19.75"/>
<polygon fill="midnightblue" stroke="midnightblue" points="441.48,-46.37 437.26,-56.08 446.62,-51.12 441.48,-46.37"/>
</g>
<!-- Node9&#45;&gt;Node4 -->
<g id="edge10" class="edge">
<title>Node9&#45;&gt;Node4</title>
<path fill="none" stroke="midnightblue" d="M799.05,-175.02C823.1,-163.48 857.56,-146.94 878.27,-137.01"/>
<polygon fill="midnightblue" stroke="midnightblue" points="797.27,-171.99 789.77,-179.48 800.3,-178.3 797.27,-171.99"/>
</g>
<!-- Node10 -->
<g id="node10" class="node">
<title>Node10</title>
<g id="a_node10"><a xlink:href="_target_resource_handler_8cpp.html" target="_top" xlink:title=" ">
<polygon fill="none" stroke="black" points="487.5,-118 487.5,-137 654.5,-137 654.5,-118 487.5,-118"/>
<text text-anchor="middle" x="571" y="-125" font-family="Helvetica,sans-Serif" font-size="10.00">src/TargetResourceHandler.cpp</text>
</a>
</g>
</g>
<!-- Node9&#45;&gt;Node10 -->
<g id="edge11" class="edge">
<title>Node9&#45;&gt;Node10</title>
<path fill="none" stroke="midnightblue" d="M733.25,-176.53C694.18,-164.96 634.8,-147.38 599.74,-137.01"/>
<polygon fill="midnightblue" stroke="midnightblue" points="732.62,-179.99 743.2,-179.48 734.61,-173.28 732.62,-179.99"/>
</g>
<!-- Node9&#45;&gt;Node11 -->
<g id="edge12" class="edge">
<title>Node9&#45;&gt;Node11</title>
<path fill="none" stroke="midnightblue" d="M762.83,-170.39C758.19,-161.5 752.65,-150.86 748.31,-142.52"/>
<polygon fill="midnightblue" stroke="midnightblue" points="759.83,-172.22 767.56,-179.48 766.04,-168.99 759.83,-172.22"/>
</g>
<!-- Node16&#45;&gt;Node4 -->
<g id="edge23" class="edge">
<title>Node16&#45;&gt;Node4</title>
<path fill="none" stroke="midnightblue" d="M964.87,-226.42C957.06,-213.16 945.8,-194.64 935,-179 924.55,-163.87 911.25,-147.13 903.2,-137.23"/>
<polygon fill="midnightblue" stroke="midnightblue" points="962.04,-228.53 970.1,-235.4 968.09,-225 962.04,-228.53"/>
</g>
<!-- Node16&#45;&gt;Node9 -->
<g id="edge24" class="edge">
<title>Node16&#45;&gt;Node9</title>
<path fill="none" stroke="midnightblue" d="M933.01,-232.83C894.68,-222.63 838.85,-207.78 804.02,-198.52"/>
<polygon fill="midnightblue" stroke="midnightblue" points="932.27,-236.26 942.83,-235.44 934.07,-229.49 932.27,-236.26"/>
</g>
<!-- Node16&#45;&gt;Node11 -->
<g id="edge26" class="edge">
<title>Node16&#45;&gt;Node11</title>
<path fill="none" stroke="midnightblue" d="M959.4,-227.86C944.55,-213.31 920.96,-192.21 897,-179 867.58,-162.78 832.14,-150.78 802.48,-142.56"/>
<polygon fill="midnightblue" stroke="midnightblue" points="957.16,-230.57 966.7,-235.18 962.12,-225.63 957.16,-230.57"/>
</g>
<!-- Node16&#45;&gt;Node17 -->
<g id="edge19" class="edge">
<title>Node16&#45;&gt;Node17</title>
<path fill="none" stroke="midnightblue" d="M1005.22,-231.64C1029.99,-221.5 1064.4,-207.43 1086.18,-198.52"/>
<polygon fill="midnightblue" stroke="midnightblue" points="1003.85,-228.42 995.92,-235.44 1006.5,-234.9 1003.85,-228.42"/>
</g>
<!-- Node16&#45;&gt;Node19 -->
<g id="edge25" class="edge">
<title>Node16&#45;&gt;Node19</title>
<path fill="none" stroke="midnightblue" d="M981.85,-225.56C988.35,-210.67 999.59,-190.38 1016,-179 1031.64,-168.16 1141.11,-148.35 1207.99,-137.04"/>
<polygon fill="midnightblue" stroke="midnightblue" points="978.44,-224.67 977.95,-235.25 984.93,-227.28 978.44,-224.67"/>
</g>
<!-- Node17&#45;&gt;Node4 -->
<g id="edge20" class="edge">
<title>Node17&#45;&gt;Node4</title>
<path fill="none" stroke="midnightblue" d="M1067.1,-176.75C1026.11,-165.19 963.2,-147.45 926.18,-137.01"/>
<polygon fill="midnightblue" stroke="midnightblue" points="1066.19,-180.13 1076.77,-179.48 1068.09,-173.39 1066.19,-180.13"/>
</g>
<!-- Node18 -->
<g id="node18" class="node">
<title>Node18</title>
<g id="a_node18"><a xlink:href="_response_body_handler_8cpp.html" target="_top" xlink:title=" ">
<polygon fill="none" stroke="black" points="982,-118 982,-137 1146,-137 1146,-118 982,-118"/>
<text text-anchor="middle" x="1064" y="-125" font-family="Helvetica,sans-Serif" font-size="10.00">src/ResponseBodyHandler.cpp</text>
</a>
</g>
</g>
<!-- Node17&#45;&gt;Node18 -->
<g id="edge21" class="edge">
<title>Node17&#45;&gt;Node18</title>
<path fill="none" stroke="midnightblue" d="M1094.96,-171.34C1086.89,-160.17 1076.59,-145.93 1070.15,-137.01"/>
<polygon fill="midnightblue" stroke="midnightblue" points="1092.14,-173.42 1100.84,-179.48 1097.82,-169.32 1092.14,-173.42"/>
</g>
<!-- Node17&#45;&gt;Node19 -->
<g id="edge22" class="edge">
<title>Node17&#45;&gt;Node19</title>
<path fill="none" stroke="midnightblue" d="M1138.42,-175.78C1168.15,-164.22 1212.01,-147.16 1238.12,-137.01"/>
<polygon fill="midnightblue" stroke="midnightblue" points="1136.97,-172.59 1128.92,-179.48 1139.51,-179.11 1136.97,-172.59"/>
</g>
<!-- Node20&#45;&gt;Node3 -->
<g id="edge36" class="edge">
<title>Node20&#45;&gt;Node3</title>
<path fill="none" stroke="midnightblue" d="M1260.01,-295.64C1132.06,-285.67 818.98,-261.27 685.23,-250.85"/>
<polygon fill="midnightblue" stroke="midnightblue" points="1259.75,-299.13 1269.99,-296.42 1260.3,-292.15 1259.75,-299.13"/>
</g>
<!-- Node21 -->
<g id="node21" class="node">
<title>Node21</title>
<g id="a_node21"><a xlink:href="_autoindex_handler_8hpp.html" target="_top" xlink:title=" ">
<polygon fill="none" stroke="black" points="1245,-235.5 1245,-254.5 1387,-254.5 1387,-235.5 1245,-235.5"/>
<text text-anchor="middle" x="1316" y="-242.5" font-family="Helvetica,sans-Serif" font-size="10.00">inc/AutoindexHandler.hpp</text>
</a>
</g>
</g>
<!-- Node20&#45;&gt;Node21 -->
<g id="edge32" class="edge">
<title>Node20&#45;&gt;Node21</title>
<path fill="none" stroke="midnightblue" d="M1316,-280.8C1316,-271.91 1316,-261.78 1316,-254.75"/>
<polygon fill="midnightblue" stroke="midnightblue" points="1312.5,-281.08 1316,-291.08 1319.5,-281.08 1312.5,-281.08"/>
</g>
<!-- Node20&#45;&gt;Node24 -->
<g id="edge37" class="edge">
<title>Node20&#45;&gt;Node24</title>
<path fill="none" stroke="midnightblue" d="M1366.71,-289.35C1415.28,-279.14 1487.62,-263.94 1532.47,-254.52"/>
<polygon fill="midnightblue" stroke="midnightblue" points="1365.79,-285.96 1356.72,-291.44 1367.23,-292.81 1365.79,-285.96"/>
</g>
<!-- Node25 -->
<g id="node25" class="node">
<title>Node25</title>
<g id="a_node25"><a xlink:href="test__utils_8cpp.html" target="_top" xlink:title=" ">
<polygon fill="none" stroke="black" points="1405,-235.5 1405,-254.5 1509,-254.5 1509,-235.5 1405,-235.5"/>
<text text-anchor="middle" x="1457" y="-242.5" font-family="Helvetica,sans-Serif" font-size="10.00">test/test_utils.cpp</text>
</a>
</g>
</g>
<!-- Node20&#45;&gt;Node25 -->
<g id="edge38" class="edge">
<title>Node20&#45;&gt;Node25</title>
<path fill="none" stroke="midnightblue" d="M1347.93,-287.77C1374.41,-277.63 1411.39,-263.47 1434.76,-254.52"/>
<polygon fill="midnightblue" stroke="midnightblue" points="1346.43,-284.6 1338.34,-291.44 1348.93,-291.14 1346.43,-284.6"/>
</g>
<!-- Node21&#45;&gt;Node17 -->
<g id="edge33" class="edge">
<title>Node21&#45;&gt;Node17</title>
<path fill="none" stroke="midnightblue" d="M1273.02,-232.89C1233.55,-222.7 1175.9,-207.8 1139.96,-198.52"/>
<polygon fill="midnightblue" stroke="midnightblue" points="1272.33,-236.33 1282.88,-235.44 1274.08,-229.55 1272.33,-236.33"/>
</g>
<!-- Node22 -->
<g id="node22" class="node">
<title>Node22</title>
<g id="a_node22"><a xlink:href="_autoindex_handler_8cpp.html" target="_top" xlink:title=" ">
<polygon fill="none" stroke="black" points="1433.5,-179.5 1433.5,-198.5 1574.5,-198.5 1574.5,-179.5 1433.5,-179.5"/>
<text text-anchor="middle" x="1504" y="-186.5" font-family="Helvetica,sans-Serif" font-size="10.00">src/AutoindexHandler.cpp</text>
</a>
</g>
</g>
<!-- Node21&#45;&gt;Node22 -->
<g id="edge34" class="edge">
<title>Node21&#45;&gt;Node22</title>
<path fill="none" stroke="midnightblue" d="M1355.8,-232.57C1391.27,-222.38 1442.37,-207.7 1474.35,-198.52"/>
<polygon fill="midnightblue" stroke="midnightblue" points="1354.43,-229.32 1345.79,-235.44 1356.37,-236.05 1354.43,-229.32"/>
</g>
<!-- Node23 -->
<g id="node23" class="node">
<title>Node23</title>
<g id="a_node23"><a xlink:href="test___autoindex_handler_8cpp.html" target="_top" xlink:title=" ">
<polygon fill="none" stroke="black" points="1245,-179.5 1245,-198.5 1415,-198.5 1415,-179.5 1245,-179.5"/>
<text text-anchor="middle" x="1330" y="-186.5" font-family="Helvetica,sans-Serif" font-size="10.00">test/test_AutoindexHandler.cpp</text>
</a>
</g>
</g>
<!-- Node21&#45;&gt;Node23 -->
<g id="edge35" class="edge">
<title>Node21&#45;&gt;Node23</title>
<path fill="none" stroke="midnightblue" d="M1320.82,-225.4C1323.17,-216.36 1325.87,-205.94 1327.73,-198.75"/>
<polygon fill="midnightblue" stroke="midnightblue" points="1317.43,-224.52 1318.31,-235.08 1324.21,-226.28 1317.43,-224.52"/>
</g>
</g>
</svg>
