<?xml version="1.0" encoding="UTF-8" standalone="no"?>
<!DOCTYPE svg PUBLIC "-//W3C//DTD SVG 1.1//EN"
 "http://www.w3.org/Graphics/SVG/1.1/DTD/svg11.dtd">
<!-- Generated by graphviz version 2.43.0 (0)
 -->
<!-- Title: inc/TargetResourceHandler.hpp Pages: 1 -->
<svg width="1309pt" height="308pt"
 viewBox="0.00 0.00 1309.49 308.00" xmlns="http://www.w3.org/2000/svg" xmlns:xlink="http://www.w3.org/1999/xlink">
<g id="graph0" class="graph" transform="scale(1 1) rotate(0) translate(4 304)">
<title>inc/TargetResourceHandler.hpp</title>
<!-- Node1 -->
<g id="node1" class="node">
<title>Node1</title>
<g id="a_node1"><a xlink:title=" ">
<polygon fill="#bfbfbf" stroke="black" points="417.5,-280.5 417.5,-299.5 584.5,-299.5 584.5,-280.5 417.5,-280.5"/>
<text text-anchor="middle" x="501" y="-287.5" font-family="Helvetica,sans-Serif" font-size="10.00">inc/TargetResourceHandler.hpp</text>
</a>
</g>
</g>
<!-- Node2 -->
<g id="node2" class="node">
<title>Node2</title>
<g id="a_node2"><a xlink:title=" ">
<polygon fill="none" stroke="#bfbfbf" points="0,-56.5 0,-75.5 44,-75.5 44,-56.5 0,-56.5"/>
<text text-anchor="middle" x="22" y="-63.5" font-family="Helvetica,sans-Serif" font-size="10.00">string</text>
</a>
</g>
</g>
<!-- Node1&#45;&gt;Node2 -->
<g id="edge1" class="edge">
<title>Node1&#45;&gt;Node2</title>
<path fill="none" stroke="midnightblue" d="M482.52,-280.43C409.09,-246.4 137.78,-120.66 49.77,-79.87"/>
<polygon fill="midnightblue" stroke="midnightblue" points="50.97,-76.57 40.43,-75.54 48.03,-82.92 50.97,-76.57"/>
</g>
<!-- Node3 -->
<g id="node3" class="node">
<title>Node3</title>
<g id="a_node3"><a xlink:title=" ">
<polygon fill="none" stroke="#bfbfbf" points="970.5,-56.5 970.5,-75.5 1017.5,-75.5 1017.5,-56.5 970.5,-56.5"/>
<text text-anchor="middle" x="994" y="-63.5" font-family="Helvetica,sans-Serif" font-size="10.00">vector</text>
</a>
</g>
</g>
<!-- Node1&#45;&gt;Node3 -->
<g id="edge2" class="edge">
<title>Node1&#45;&gt;Node3</title>
<path fill="none" stroke="midnightblue" d="M584.55,-286.43C722.58,-281.51 986.51,-268.94 1021,-244 1069.25,-209.1 1068.71,-166.18 1044,-112 1038.32,-99.55 1027.36,-89.07 1017.15,-81.36"/>
<polygon fill="midnightblue" stroke="midnightblue" points="1019.08,-78.44 1008.88,-75.56 1015.06,-84.17 1019.08,-78.44"/>
</g>
<!-- Node4 -->
<g id="node4" class="node">
<title>Node4</title>
<g id="a_node4"><a xlink:href="_config_file_8hpp.html" target="_top" xlink:title=" ">
<polygon fill="none" stroke="black" points="337,-112.5 337,-131.5 423,-131.5 423,-112.5 337,-112.5"/>
<text text-anchor="middle" x="380" y="-119.5" font-family="Helvetica,sans-Serif" font-size="10.00">ConfigFile.hpp</text>
</a>
</g>
</g>
<!-- Node1&#45;&gt;Node4 -->
<g id="edge3" class="edge">
<title>Node1&#45;&gt;Node4</title>
<path fill="none" stroke="midnightblue" d="M498.58,-280.23C492.4,-259.02 474.34,-204.08 444,-168 433.38,-155.37 418.42,-144.59 405.64,-136.75"/>
<polygon fill="midnightblue" stroke="midnightblue" points="407.2,-133.61 396.81,-131.58 403.67,-139.65 407.2,-133.61"/>
</g>
<!-- Node6 -->
<g id="node6" class="node">
<title>Node6</title>
<g id="a_node6"><a xlink:href="_status_code_8hpp.html" target="_top" xlink:title=" ">
<polygon fill="none" stroke="black" points="681.5,-56.5 681.5,-75.5 774.5,-75.5 774.5,-56.5 681.5,-56.5"/>
<text text-anchor="middle" x="728" y="-63.5" font-family="Helvetica,sans-Serif" font-size="10.00">StatusCode.hpp</text>
</a>
</g>
</g>
<!-- Node1&#45;&gt;Node6 -->
<g id="edge48" class="edge">
<title>Node1&#45;&gt;Node6</title>
<path fill="none" stroke="midnightblue" d="M509.32,-280.37C534.37,-254.43 611.48,-175.11 678,-112 688.48,-102.05 700.52,-91.21 710.15,-82.66"/>
<polygon fill="midnightblue" stroke="midnightblue" points="712.72,-85.06 717.9,-75.81 708.09,-79.81 712.72,-85.06"/>
</g>
<!-- Node10 -->
<g id="node10" class="node">
<title>Node10</title>
<g id="a_node10"><a xlink:href="_file_system_policy_8hpp.html" target="_top" xlink:title=" ">
<polygon fill="none" stroke="black" points="441.5,-112.5 441.5,-131.5 560.5,-131.5 560.5,-112.5 441.5,-112.5"/>
<text text-anchor="middle" x="501" y="-119.5" font-family="Helvetica,sans-Serif" font-size="10.00">FileSystemPolicy.hpp</text>
</a>
</g>
</g>
<!-- Node1&#45;&gt;Node10 -->
<g id="edge12" class="edge">
<title>Node1&#45;&gt;Node10</title>
<path fill="none" stroke="midnightblue" d="M501,-280.08C501,-253.95 501,-177.21 501,-141.58"/>
<polygon fill="midnightblue" stroke="midnightblue" points="504.5,-141.57 501,-131.57 497.5,-141.57 504.5,-141.57"/>
</g>
<!-- Node17 -->
<g id="node17" class="node">
<title>Node17</title>
<g id="a_node17"><a xlink:href="_h_t_t_p_response_8hpp.html" target="_top" xlink:title=" ">
<polygon fill="none" stroke="black" points="325,-168.5 325,-187.5 435,-187.5 435,-168.5 325,-168.5"/>
<text text-anchor="middle" x="380" y="-175.5" font-family="Helvetica,sans-Serif" font-size="10.00">HTTPResponse.hpp</text>
</a>
</g>
</g>
<!-- Node1&#45;&gt;Node17 -->
<g id="edge22" class="edge">
<title>Node1&#45;&gt;Node17</title>
<path fill="none" stroke="midnightblue" d="M490.92,-280.5C480.37,-271.54 463.35,-256.96 449,-244 430.62,-227.4 410.01,-207.86 396.14,-194.57"/>
<polygon fill="midnightblue" stroke="midnightblue" points="398.46,-191.94 388.82,-187.54 393.6,-196.99 398.46,-191.94"/>
</g>
<!-- Node18 -->
<g id="node18" class="node">
<title>Node18</title>
<g id="a_node18"><a xlink:href="_request_parser_8hpp.html" target="_top" xlink:title=" ">
<polygon fill="none" stroke="black" points="904.5,-224.5 904.5,-243.5 1011.5,-243.5 1011.5,-224.5 904.5,-224.5"/>
<text text-anchor="middle" x="958" y="-231.5" font-family="Helvetica,sans-Serif" font-size="10.00">RequestParser.hpp</text>
</a>
</g>
</g>
<!-- Node1&#45;&gt;Node18 -->
<g id="edge26" class="edge">
<title>Node1&#45;&gt;Node18</title>
<path fill="none" stroke="midnightblue" d="M573.16,-280.47C661.62,-270.02 810.14,-252.47 894.47,-242.51"/>
<polygon fill="midnightblue" stroke="midnightblue" points="894.9,-245.98 904.42,-241.33 894.08,-239.03 894.9,-245.98"/>
</g>
<!-- Node4&#45;&gt;Node2 -->
<g id="edge10" class="edge">
<title>Node4&#45;&gt;Node2</title>
<path fill="none" stroke="midnightblue" d="M336.92,-115.86C264.84,-107.15 121.82,-89.28 54.4,-75.98"/>
<polygon fill="midnightblue" stroke="midnightblue" points="54.75,-72.47 44.25,-73.88 53.34,-79.33 54.75,-72.47"/>
</g>
<!-- Node4&#45;&gt;Node3 -->
<g id="edge11" class="edge">
<title>Node4&#45;&gt;Node3</title>
<path fill="none" stroke="midnightblue" d="M423.08,-113.19C426.09,-112.75 429.09,-112.35 432,-112 663.09,-84.23 727.53,-115.27 960.23,-75.97"/>
<polygon fill="midnightblue" stroke="midnightblue" points="961.09,-79.38 970.36,-74.24 959.91,-72.48 961.09,-79.38"/>
</g>
<!-- Node5 -->
<g id="node5" class="node">
<title>Node5</title>
<g id="a_node5"><a xlink:href="_method_8hpp.html" target="_top" xlink:title=" ">
<polygon fill="none" stroke="black" points="62,-56.5 62,-75.5 136,-75.5 136,-56.5 62,-56.5"/>
<text text-anchor="middle" x="99" y="-63.5" font-family="Helvetica,sans-Serif" font-size="10.00">Method.hpp</text>
</a>
</g>
</g>
<!-- Node4&#45;&gt;Node5 -->
<g id="edge4" class="edge">
<title>Node4&#45;&gt;Node5</title>
<path fill="none" stroke="midnightblue" d="M336.71,-112.68C285.08,-102.76 199.09,-86.23 145.91,-76.01"/>
<polygon fill="midnightblue" stroke="midnightblue" points="146.54,-72.57 136.06,-74.12 145.22,-79.45 146.54,-72.57"/>
</g>
<!-- Node4&#45;&gt;Node6 -->
<g id="edge5" class="edge">
<title>Node4&#45;&gt;Node6</title>
<path fill="none" stroke="midnightblue" d="M423.12,-113.47C426.12,-112.96 429.11,-112.47 432,-112 515.18,-98.48 611.72,-84.04 671.33,-75.26"/>
<polygon fill="midnightblue" stroke="midnightblue" points="671.92,-78.71 681.3,-73.8 670.9,-71.79 671.92,-78.71"/>
</g>
<!-- Node7 -->
<g id="node7" class="node">
<title>Node7</title>
<g id="a_node7"><a xlink:title=" ">
<polygon fill="none" stroke="#bfbfbf" points="735,-0.5 735,-19.5 795,-19.5 795,-0.5 735,-0.5"/>
<text text-anchor="middle" x="765" y="-7.5" font-family="Helvetica,sans-Serif" font-size="10.00">iostream</text>
</a>
</g>
</g>
<!-- Node4&#45;&gt;Node7 -->
<g id="edge8" class="edge">
<title>Node4&#45;&gt;Node7</title>
<path fill="none" stroke="midnightblue" d="M336.66,-114.02C281.62,-104.72 192.6,-88.04 183,-76 177.46,-69.05 176.96,-62.52 183,-56 219.67,-16.39 598.36,-11.54 724.43,-11.03"/>
<polygon fill="midnightblue" stroke="midnightblue" points="724.81,-14.53 734.79,-11 724.78,-7.53 724.81,-14.53"/>
</g>
<!-- Node8 -->
<g id="node8" class="node">
<title>Node8</title>
<g id="a_node8"><a xlink:title=" ">
<polygon fill="none" stroke="#bfbfbf" points="192.5,-56.5 192.5,-75.5 247.5,-75.5 247.5,-56.5 192.5,-56.5"/>
<text text-anchor="middle" x="220" y="-63.5" font-family="Helvetica,sans-Serif" font-size="10.00">fstream</text>
</a>
</g>
</g>
<!-- Node4&#45;&gt;Node8 -->
<g id="edge7" class="edge">
<title>Node4&#45;&gt;Node8</title>
<path fill="none" stroke="midnightblue" d="M354.65,-112.44C327.73,-103.36 285,-88.94 254.91,-78.78"/>
<polygon fill="midnightblue" stroke="midnightblue" points="255.83,-75.4 245.23,-75.52 253.59,-82.03 255.83,-75.4"/>
</g>
<!-- Node9 -->
<g id="node9" class="node">
<title>Node9</title>
<g id="a_node9"><a xlink:title=" ">
<polygon fill="none" stroke="#bfbfbf" points="831,-56.5 831,-75.5 869,-75.5 869,-56.5 831,-56.5"/>
<text text-anchor="middle" x="850" y="-63.5" font-family="Helvetica,sans-Serif" font-size="10.00">map</text>
</a>
</g>
</g>
<!-- Node4&#45;&gt;Node9 -->
<g id="edge9" class="edge">
<title>Node4&#45;&gt;Node9</title>
<path fill="none" stroke="midnightblue" d="M423.09,-113.3C426.1,-112.84 429.1,-112.4 432,-112 587.79,-90.58 627.85,-94.63 784,-76 796.13,-74.55 809.49,-72.77 821,-71.17"/>
<polygon fill="midnightblue" stroke="midnightblue" points="821.54,-74.63 830.96,-69.77 820.57,-67.7 821.54,-74.63"/>
</g>
<!-- Node6&#45;&gt;Node7 -->
<g id="edge6" class="edge">
<title>Node6&#45;&gt;Node7</title>
<path fill="none" stroke="midnightblue" d="M734.11,-56.08C739.28,-48.53 746.85,-37.49 753.19,-28.23"/>
<polygon fill="midnightblue" stroke="midnightblue" points="756.24,-29.98 759,-19.75 750.46,-26.02 756.24,-29.98"/>
</g>
<!-- Node10&#45;&gt;Node2 -->
<g id="edge13" class="edge">
<title>Node10&#45;&gt;Node2</title>
<path fill="none" stroke="midnightblue" d="M441.18,-113.07C438.07,-112.7 435,-112.34 432,-112 267.15,-93.42 220.99,-107.17 54.33,-75.92"/>
<polygon fill="midnightblue" stroke="midnightblue" points="54.71,-72.43 44.23,-74 53.4,-79.3 54.71,-72.43"/>
</g>
<!-- Node10&#45;&gt;Node7 -->
<g id="edge19" class="edge">
<title>Node10&#45;&gt;Node7</title>
<path fill="none" stroke="midnightblue" d="M530.26,-112.46C557.52,-104.19 599.09,-90.76 634,-76 651.94,-68.41 655.58,-64.72 673,-56 694.83,-45.06 719.71,-32.91 738.09,-24"/>
<polygon fill="midnightblue" stroke="midnightblue" points="739.84,-27.04 747.31,-19.53 736.79,-20.74 739.84,-27.04"/>
</g>
<!-- Node10&#45;&gt;Node8 -->
<g id="edge17" class="edge">
<title>Node10&#45;&gt;Node8</title>
<path fill="none" stroke="midnightblue" d="M449.19,-112.46C401.7,-104.42 329.23,-91.59 257.92,-76.32"/>
<polygon fill="midnightblue" stroke="midnightblue" points="258.38,-72.84 247.87,-74.15 256.9,-79.68 258.38,-72.84"/>
</g>
<!-- Node11 -->
<g id="node11" class="node">
<title>Node11</title>
<g id="a_node11"><a xlink:title=" ">
<polygon fill="none" stroke="#bfbfbf" points="265.5,-56.5 265.5,-75.5 312.5,-75.5 312.5,-56.5 265.5,-56.5"/>
<text text-anchor="middle" x="289" y="-63.5" font-family="Helvetica,sans-Serif" font-size="10.00">cerrno</text>
</a>
</g>
</g>
<!-- Node10&#45;&gt;Node11 -->
<g id="edge14" class="edge">
<title>Node10&#45;&gt;Node11</title>
<path fill="none" stroke="midnightblue" d="M466.3,-112.49C432.17,-104.08 378.35,-90.68 322.49,-76.09"/>
<polygon fill="midnightblue" stroke="midnightblue" points="323.34,-72.69 312.78,-73.55 321.56,-79.47 323.34,-72.69"/>
</g>
<!-- Node12 -->
<g id="node12" class="node">
<title>Node12</title>
<g id="a_node12"><a xlink:title=" ">
<polygon fill="none" stroke="#bfbfbf" points="331,-56.5 331,-75.5 381,-75.5 381,-56.5 331,-56.5"/>
<text text-anchor="middle" x="356" y="-63.5" font-family="Helvetica,sans-Serif" font-size="10.00">cstring</text>
</a>
</g>
</g>
<!-- Node10&#45;&gt;Node12 -->
<g id="edge15" class="edge">
<title>Node10&#45;&gt;Node12</title>
<path fill="none" stroke="midnightblue" d="M478.02,-112.44C453.84,-103.44 415.58,-89.19 388.35,-79.05"/>
<polygon fill="midnightblue" stroke="midnightblue" points="389.46,-75.73 378.87,-75.52 387.02,-82.29 389.46,-75.73"/>
</g>
<!-- Node13 -->
<g id="node13" class="node">
<title>Node13</title>
<g id="a_node13"><a xlink:title=" ">
<polygon fill="none" stroke="#bfbfbf" points="399,-56.5 399,-75.5 463,-75.5 463,-56.5 399,-56.5"/>
<text text-anchor="middle" x="431" y="-63.5" font-family="Helvetica,sans-Serif" font-size="10.00">sys/stat.h</text>
</a>
</g>
</g>
<!-- Node10&#45;&gt;Node13 -->
<g id="edge16" class="edge">
<title>Node10&#45;&gt;Node13</title>
<path fill="none" stroke="midnightblue" d="M489.75,-112.32C479.2,-104.18 463.2,-91.84 450.56,-82.09"/>
<polygon fill="midnightblue" stroke="midnightblue" points="452.51,-79.17 442.45,-75.83 448.23,-84.71 452.51,-79.17"/>
</g>
<!-- Node14 -->
<g id="node14" class="node">
<title>Node14</title>
<g id="a_node14"><a xlink:title=" ">
<polygon fill="none" stroke="#bfbfbf" points="887.5,-56.5 887.5,-75.5 952.5,-75.5 952.5,-56.5 887.5,-56.5"/>
<text text-anchor="middle" x="920" y="-63.5" font-family="Helvetica,sans-Serif" font-size="10.00">stdexcept</text>
</a>
</g>
</g>
<!-- Node10&#45;&gt;Node14 -->
<g id="edge18" class="edge">
<title>Node10&#45;&gt;Node14</title>
<path fill="none" stroke="midnightblue" d="M560.66,-115.6C633.15,-108.65 759.35,-95.32 877.55,-75.92"/>
<polygon fill="midnightblue" stroke="midnightblue" points="878.2,-79.36 887.5,-74.27 877.06,-72.46 878.2,-79.36"/>
</g>
<!-- Node15 -->
<g id="node15" class="node">
<title>Node15</title>
<g id="a_node15"><a xlink:title=" ">
<polygon fill="none" stroke="#bfbfbf" points="481,-56.5 481,-75.5 553,-75.5 553,-56.5 481,-56.5"/>
<text text-anchor="middle" x="517" y="-63.5" font-family="Helvetica,sans-Serif" font-size="10.00">sys/types.h</text>
</a>
</g>
</g>
<!-- Node10&#45;&gt;Node15 -->
<g id="edge20" class="edge">
<title>Node10&#45;&gt;Node15</title>
<path fill="none" stroke="midnightblue" d="M503.64,-112.08C505.79,-104.85 508.88,-94.41 511.55,-85.4"/>
<polygon fill="midnightblue" stroke="midnightblue" points="514.92,-86.33 514.41,-75.75 508.21,-84.34 514.92,-86.33"/>
</g>
<!-- Node16 -->
<g id="node16" class="node">
<title>Node16</title>
<g id="a_node16"><a xlink:title=" ">
<polygon fill="none" stroke="#bfbfbf" points="571,-56.5 571,-75.5 625,-75.5 625,-56.5 571,-56.5"/>
<text text-anchor="middle" x="598" y="-63.5" font-family="Helvetica,sans-Serif" font-size="10.00">dirent.h</text>
</a>
</g>
</g>
<!-- Node10&#45;&gt;Node16 -->
<g id="edge21" class="edge">
<title>Node10&#45;&gt;Node16</title>
<path fill="none" stroke="midnightblue" d="M516.58,-112.32C532,-103.74 555.81,-90.49 573.71,-80.52"/>
<polygon fill="midnightblue" stroke="midnightblue" points="575.42,-83.58 582.45,-75.65 572.01,-77.46 575.42,-83.58"/>
</g>
<!-- Node17&#45;&gt;Node2 -->
<g id="edge24" class="edge">
<title>Node17&#45;&gt;Node2</title>
<path fill="none" stroke="midnightblue" d="M352.21,-168.46C286.89,-148.39 123.89,-98.31 54.31,-76.93"/>
<polygon fill="midnightblue" stroke="midnightblue" points="54.95,-73.46 44.36,-73.87 52.89,-80.15 54.95,-73.46"/>
</g>
<!-- Node17&#45;&gt;Node4 -->
<g id="edge25" class="edge">
<title>Node17&#45;&gt;Node4</title>
<path fill="none" stroke="midnightblue" d="M380,-168.08C380,-161.01 380,-150.86 380,-141.99"/>
<polygon fill="midnightblue" stroke="midnightblue" points="383.5,-141.75 380,-131.75 376.5,-141.75 383.5,-141.75"/>
</g>
<!-- Node17&#45;&gt;Node6 -->
<g id="edge23" class="edge">
<title>Node17&#45;&gt;Node6</title>
<path fill="none" stroke="midnightblue" d="M428,-168.43C466.88,-160.83 522.76,-148.39 570,-132 589.91,-125.09 593.62,-120.29 613,-112 640.6,-100.2 672.4,-87.84 695.56,-79.07"/>
<polygon fill="midnightblue" stroke="midnightblue" points="696.8,-82.35 704.92,-75.55 694.33,-75.8 696.8,-82.35"/>
</g>
<!-- Node18&#45;&gt;Node3 -->
<g id="edge47" class="edge">
<title>Node18&#45;&gt;Node3</title>
<path fill="none" stroke="midnightblue" d="M981.79,-224.5C997.72,-217.41 1017.46,-205.61 1027,-188 1043.09,-158.3 1037.51,-144.1 1027,-112 1023.51,-101.34 1016.43,-91.12 1009.71,-83.12"/>
<polygon fill="midnightblue" stroke="midnightblue" points="1012.3,-80.76 1003.02,-75.66 1007.1,-85.44 1012.3,-80.76"/>
</g>
<!-- Node18&#45;&gt;Node6 -->
<g id="edge33" class="edge">
<title>Node18&#45;&gt;Node6</title>
<path fill="none" stroke="midnightblue" d="M904.21,-232.06C832.82,-229.54 712.55,-220.46 685,-188 658.56,-156.85 692.02,-108.28 713.16,-83.2"/>
<polygon fill="midnightblue" stroke="midnightblue" points="715.81,-85.49 719.76,-75.66 710.54,-80.88 715.81,-85.49"/>
</g>
<!-- Node18&#45;&gt;Node7 -->
<g id="edge42" class="edge">
<title>Node18&#45;&gt;Node7</title>
<path fill="none" stroke="midnightblue" d="M1011.59,-224.67C1124.48,-205.06 1369.51,-150.36 1283,-56 1250.91,-21 921.57,-13.13 805.35,-11.44"/>
<polygon fill="midnightblue" stroke="midnightblue" points="805.15,-7.94 795.1,-11.3 805.05,-14.94 805.15,-7.94"/>
</g>
<!-- Node18&#45;&gt;Node9 -->
<g id="edge43" class="edge">
<title>Node18&#45;&gt;Node9</title>
<path fill="none" stroke="midnightblue" d="M904.28,-225.33C881.74,-219.17 857.64,-208.06 844,-188 822.88,-156.96 834.13,-110.38 842.88,-85.02"/>
<polygon fill="midnightblue" stroke="midnightblue" points="846.19,-86.15 846.37,-75.56 839.62,-83.73 846.19,-86.15"/>
</g>
<!-- Node18&#45;&gt;Node14 -->
<g id="edge45" class="edge">
<title>Node18&#45;&gt;Node14</title>
<path fill="none" stroke="midnightblue" d="M968.16,-224.19C976.91,-215.87 988.9,-202.54 994,-188 996.94,-179.61 996.76,-176.45 994,-168 982.76,-133.63 954.87,-101.27 936.72,-82.83"/>
<polygon fill="midnightblue" stroke="midnightblue" points="938.97,-80.13 929.39,-75.6 934.05,-85.11 938.97,-80.13"/>
</g>
<!-- Node19 -->
<g id="node19" class="node">
<title>Node19</title>
<g id="a_node19"><a xlink:href="_h_t_t_p_request_8hpp.html" target="_top" xlink:title=" ">
<polygon fill="none" stroke="black" points="693.5,-168.5 693.5,-187.5 796.5,-187.5 796.5,-168.5 693.5,-168.5"/>
<text text-anchor="middle" x="745" y="-175.5" font-family="Helvetica,sans-Serif" font-size="10.00">HTTPRequest.hpp</text>
</a>
</g>
</g>
<!-- Node18&#45;&gt;Node19 -->
<g id="edge27" class="edge">
<title>Node18&#45;&gt;Node19</title>
<path fill="none" stroke="midnightblue" d="M924.25,-224.44C887.48,-215.12 828.55,-200.18 788.38,-190"/>
<polygon fill="midnightblue" stroke="midnightblue" points="789.15,-186.58 778.59,-187.52 787.43,-193.37 789.15,-186.58"/>
</g>
<!-- Node20 -->
<g id="node20" class="node">
<title>Node20</title>
<g id="a_node20"><a xlink:href="error_8hpp.html" target="_top" xlink:title=" ">
<polygon fill="none" stroke="black" points="853,-168.5 853,-187.5 913,-187.5 913,-168.5 853,-168.5"/>
<text text-anchor="middle" x="883" y="-175.5" font-family="Helvetica,sans-Serif" font-size="10.00">error.hpp</text>
</a>
</g>
</g>
<!-- Node18&#45;&gt;Node20 -->
<g id="edge34" class="edge">
<title>Node18&#45;&gt;Node20</title>
<path fill="none" stroke="midnightblue" d="M945.95,-224.32C934.54,-216.11 917.17,-203.6 903.57,-193.81"/>
<polygon fill="midnightblue" stroke="midnightblue" points="905.43,-190.84 895.27,-187.83 901.34,-196.52 905.43,-190.84"/>
</g>
<!-- Node21 -->
<g id="node21" class="node">
<title>Node21</title>
<g id="a_node21"><a xlink:href="utilities_8hpp.html" target="_top" xlink:title=" ">
<polygon fill="none" stroke="black" points="1117,-112.5 1117,-131.5 1191,-131.5 1191,-112.5 1117,-112.5"/>
<text text-anchor="middle" x="1154" y="-119.5" font-family="Helvetica,sans-Serif" font-size="10.00">utilities.hpp</text>
</a>
</g>
</g>
<!-- Node18&#45;&gt;Node21 -->
<g id="edge35" class="edge">
<title>Node18&#45;&gt;Node21</title>
<path fill="none" stroke="midnightblue" d="M982.99,-224.38C1005.18,-216.28 1038.16,-203.17 1065,-188 1090.96,-173.33 1118.29,-152.43 1135.71,-138.33"/>
<polygon fill="midnightblue" stroke="midnightblue" points="1138.35,-140.69 1143.85,-131.64 1133.9,-135.28 1138.35,-140.69"/>
</g>
<!-- Node24 -->
<g id="node24" class="node">
<title>Node24</title>
<g id="a_node24"><a xlink:title=" ">
<polygon fill="none" stroke="#bfbfbf" points="1218,-56.5 1218,-75.5 1274,-75.5 1274,-56.5 1218,-56.5"/>
<text text-anchor="middle" x="1246" y="-63.5" font-family="Helvetica,sans-Serif" font-size="10.00">sstream</text>
</a>
</g>
</g>
<!-- Node18&#45;&gt;Node24 -->
<g id="edge44" class="edge">
<title>Node18&#45;&gt;Node24</title>
<path fill="none" stroke="midnightblue" d="M999.16,-224.42C1051.1,-211.82 1140.81,-183.96 1200,-132 1215.53,-118.36 1228.61,-98.49 1236.8,-84.31"/>
<polygon fill="midnightblue" stroke="midnightblue" points="1239.87,-85.99 1241.67,-75.55 1233.75,-82.59 1239.87,-85.99"/>
</g>
<!-- Node25 -->
<g id="node25" class="node">
<title>Node25</title>
<g id="a_node25"><a xlink:title=" ">
<polygon fill="none" stroke="#bfbfbf" points="931.5,-168.5 931.5,-187.5 984.5,-187.5 984.5,-168.5 931.5,-168.5"/>
<text text-anchor="middle" x="958" y="-175.5" font-family="Helvetica,sans-Serif" font-size="10.00">stdint.h</text>
</a>
</g>
</g>
<!-- Node18&#45;&gt;Node25 -->
<g id="edge46" class="edge">
<title>Node18&#45;&gt;Node25</title>
<path fill="none" stroke="midnightblue" d="M958,-224.08C958,-217.01 958,-206.86 958,-197.99"/>
<polygon fill="midnightblue" stroke="midnightblue" points="961.5,-197.75 958,-187.75 954.5,-197.75 961.5,-197.75"/>
</g>
<!-- Node19&#45;&gt;Node2 -->
<g id="edge32" class="edge">
<title>Node19&#45;&gt;Node2</title>
<path fill="none" stroke="midnightblue" d="M693.44,-173C614.47,-166.51 458.95,-152.35 328,-132 269.14,-122.85 127.1,-93.71 54.12,-76.11"/>
<polygon fill="midnightblue" stroke="midnightblue" points="54.84,-72.69 44.29,-73.71 53.17,-79.48 54.84,-72.69"/>
</g>
<!-- Node19&#45;&gt;Node4 -->
<g id="edge28" class="edge">
<title>Node19&#45;&gt;Node4</title>
<path fill="none" stroke="midnightblue" d="M693.42,-170.05C633.39,-161.85 530.99,-147.55 433.17,-132.15"/>
<polygon fill="midnightblue" stroke="midnightblue" points="433.54,-128.66 423.11,-130.56 432.45,-135.58 433.54,-128.66"/>
</g>
<!-- Node19&#45;&gt;Node6 -->
<g id="edge29" class="edge">
<title>Node19&#45;&gt;Node6</title>
<path fill="none" stroke="midnightblue" d="M743.67,-168.37C740.92,-150.62 734.59,-109.67 730.87,-85.6"/>
<polygon fill="midnightblue" stroke="midnightblue" points="734.31,-84.94 729.33,-75.59 727.4,-86.01 734.31,-84.94"/>
</g>
<!-- Node19&#45;&gt;Node7 -->
<g id="edge30" class="edge">
<title>Node19&#45;&gt;Node7</title>
<path fill="none" stroke="midnightblue" d="M749.58,-168.41C758.37,-151.37 777.32,-111.85 784,-76 785.63,-67.26 785.76,-64.71 784,-56 782.11,-46.65 778.21,-36.83 774.43,-28.75"/>
<polygon fill="midnightblue" stroke="midnightblue" points="777.47,-27.01 769.88,-19.63 771.21,-30.14 777.47,-27.01"/>
</g>
<!-- Node19&#45;&gt;Node9 -->
<g id="edge31" class="edge">
<title>Node19&#45;&gt;Node9</title>
<path fill="none" stroke="midnightblue" d="M753.24,-168.37C770.8,-149.97 812.13,-106.67 834.68,-83.05"/>
<polygon fill="midnightblue" stroke="midnightblue" points="837.43,-85.24 841.8,-75.59 832.36,-80.41 837.43,-85.24"/>
</g>
<!-- Node21&#45;&gt;Node3 -->
<g id="edge41" class="edge">
<title>Node21&#45;&gt;Node3</title>
<path fill="none" stroke="midnightblue" d="M1128.65,-112.44C1101.26,-103.2 1057.49,-88.43 1027.33,-78.25"/>
<polygon fill="midnightblue" stroke="midnightblue" points="1028.26,-74.87 1017.67,-74.99 1026.02,-81.5 1028.26,-74.87"/>
</g>
<!-- Node21&#45;&gt;Node6 -->
<g id="edge36" class="edge">
<title>Node21&#45;&gt;Node6</title>
<path fill="none" stroke="midnightblue" d="M1116.94,-116.3C1042.27,-106.84 873.29,-85.42 784.67,-74.18"/>
<polygon fill="midnightblue" stroke="midnightblue" points="784.89,-70.68 774.53,-72.9 784.01,-77.63 784.89,-70.68"/>
</g>
<!-- Node21&#45;&gt;Node7 -->
<g id="edge39" class="edge">
<title>Node21&#45;&gt;Node7</title>
<path fill="none" stroke="midnightblue" d="M1136.9,-112.46C1118.95,-103.46 1089.93,-88.86 1065,-76 1048.04,-67.25 1045.07,-62.14 1027,-56 951.16,-30.25 857.74,-18.73 805.43,-13.98"/>
<polygon fill="midnightblue" stroke="midnightblue" points="805.49,-10.48 795.22,-13.1 804.88,-17.45 805.49,-10.48"/>
</g>
<!-- Node22 -->
<g id="node22" class="node">
<title>Node22</title>
<g id="a_node22"><a xlink:title=" ">
<polygon fill="none" stroke="#bfbfbf" points="1136,-56.5 1136,-75.5 1200,-75.5 1200,-56.5 1136,-56.5"/>
<text text-anchor="middle" x="1168" y="-63.5" font-family="Helvetica,sans-Serif" font-size="10.00">algorithm</text>
</a>
</g>
</g>
<!-- Node21&#45;&gt;Node22 -->
<g id="edge37" class="edge">
<title>Node21&#45;&gt;Node22</title>
<path fill="none" stroke="midnightblue" d="M1156.31,-112.08C1158.17,-104.93 1160.84,-94.64 1163.15,-85.69"/>
<polygon fill="midnightblue" stroke="midnightblue" points="1166.61,-86.31 1165.73,-75.75 1159.83,-84.55 1166.61,-86.31"/>
</g>
<!-- Node23 -->
<g id="node23" class="node">
<title>Node23</title>
<g id="a_node23"><a xlink:title=" ">
<polygon fill="none" stroke="#bfbfbf" points="1074,-56.5 1074,-75.5 1118,-75.5 1118,-56.5 1074,-56.5"/>
<text text-anchor="middle" x="1096" y="-63.5" font-family="Helvetica,sans-Serif" font-size="10.00">ctime</text>
</a>
</g>
</g>
<!-- Node21&#45;&gt;Node23 -->
<g id="edge38" class="edge">
<title>Node21&#45;&gt;Node23</title>
<path fill="none" stroke="midnightblue" d="M1144.68,-112.32C1136.11,-104.34 1123.19,-92.31 1112.81,-82.65"/>
<polygon fill="midnightblue" stroke="midnightblue" points="1115.19,-80.09 1105.49,-75.83 1110.42,-85.21 1115.19,-80.09"/>
</g>
<!-- Node21&#45;&gt;Node24 -->
<g id="edge40" class="edge">
<title>Node21&#45;&gt;Node24</title>
<path fill="none" stroke="midnightblue" d="M1168.78,-112.32C1183.27,-103.82 1205.57,-90.73 1222.49,-80.8"/>
<polygon fill="midnightblue" stroke="midnightblue" points="1224.4,-83.74 1231.26,-75.65 1220.86,-77.7 1224.4,-83.74"/>
</g>
</g>
</svg>
