<?xml version="1.0" encoding="UTF-8" standalone="no"?>
<!DOCTYPE svg PUBLIC "-//W3C//DTD SVG 1.1//EN"
 "http://www.w3.org/Graphics/SVG/1.1/DTD/svg11.dtd">
<!-- Generated by graphviz version 2.43.0 (0)
 -->
<!-- Title: src/TargetResourceHandler.cpp Pages: 1 -->
<svg width="1606pt" height="412pt"
 viewBox="0.00 0.00 1605.50 412.00" xmlns="http://www.w3.org/2000/svg" xmlns:xlink="http://www.w3.org/1999/xlink">
<g id="graph0" class="graph" transform="scale(1 1) rotate(0) translate(4 408)">
<title>src/TargetResourceHandler.cpp</title>
<!-- Node1 -->
<g id="Node000001" class="node">
<title>Node1</title>
<g id="a_Node000001"><a xlink:title=" ">
<polygon fill="#999999" stroke="#666666" points="720.5,-404 553.5,-404 553.5,-385 720.5,-385 720.5,-404"/>
<text text-anchor="middle" x="637" y="-392" font-family="Helvetica,sans-Serif" font-size="10.00">src/TargetResourceHandler.cpp</text>
</a>
</g>
</g>
<!-- Node2 -->
<g id="Node000002" class="node">
<title>Node2</title>
<g id="a_Node000002"><a xlink:href="_target_resource_handler_8hpp.html" target="_top" xlink:title=" ">
<polygon fill="white" stroke="#666666" points="712,-349 562,-349 562,-330 712,-330 712,-349"/>
<text text-anchor="middle" x="637" y="-337" font-family="Helvetica,sans-Serif" font-size="10.00">TargetResourceHandler.hpp</text>
</a>
</g>
</g>
<!-- Node1&#45;&gt;Node2 -->
<g id="edge1_Node000001_Node000002" class="edge">
<title>Node1&#45;&gt;Node2</title>
<g id="a_edge1_Node000001_Node000002"><a xlink:title=" ">
<path fill="none" stroke="#63b8ff" d="M637,-384.75C637,-377.8 637,-367.85 637,-359.13"/>
<polygon fill="#63b8ff" stroke="#63b8ff" points="640.5,-359.09 637,-349.09 633.5,-359.09 640.5,-359.09"/>
</a>
</g>
</g>
<!-- Node3 -->
<g id="Node000003" class="node">
<title>Node3</title>
<g id="a_Node000003"><a xlink:title=" ">
<polygon fill="#e0e0e0" stroke="#999999" points="998,-19 954,-19 954,0 998,0 998,-19"/>
<text text-anchor="middle" x="976" y="-7" font-family="Helvetica,sans-Serif" font-size="10.00">string</text>
</a>
</g>
</g>
<!-- Node2&#45;&gt;Node3 -->
<g id="edge2_Node000002_Node000003" class="edge">
<title>Node2&#45;&gt;Node3</title>
<g id="a_edge2_Node000002_Node000003"><a xlink:title=" ">
<path fill="none" stroke="#63b8ff" d="M712.42,-338.64C829.51,-336.12 1059.67,-320.14 1234,-239 1302.31,-207.21 1331.43,-197.41 1363,-129 1394.32,-61.13 1106.31,-24.23 1008.09,-13.69"/>
<polygon fill="#63b8ff" stroke="#63b8ff" points="1008.45,-10.21 998.13,-12.65 1007.71,-17.17 1008.45,-10.21"/>
</a>
</g>
</g>
<!-- Node4 -->
<g id="Node000004" class="node">
<title>Node4</title>
<g id="a_Node000004"><a xlink:title=" ">
<polygon fill="#e0e0e0" stroke="#999999" points="424.5,-129 377.5,-129 377.5,-110 424.5,-110 424.5,-129"/>
<text text-anchor="middle" x="401" y="-117" font-family="Helvetica,sans-Serif" font-size="10.00">vector</text>
</a>
</g>
</g>
<!-- Node2&#45;&gt;Node4 -->
<g id="edge3_Node000002_Node000004" class="edge">
<title>Node2&#45;&gt;Node4</title>
<g id="a_edge3_Node000002_Node000004"><a xlink:title=" ">
<path fill="none" stroke="#63b8ff" d="M627.75,-329.95C592.21,-297.13 464.17,-178.85 417.86,-136.08"/>
<polygon fill="#63b8ff" stroke="#63b8ff" points="420.16,-133.44 410.44,-129.22 415.41,-138.58 420.16,-133.44"/>
</a>
</g>
</g>
<!-- Node5 -->
<g id="Node000005" class="node">
<title>Node5</title>
<g id="a_Node000005"><a xlink:href="_config_file_8hpp.html" target="_top" xlink:title=" ">
<polygon fill="white" stroke="#666666" points="615,-184 529,-184 529,-165 615,-165 615,-184"/>
<text text-anchor="middle" x="572" y="-172" font-family="Helvetica,sans-Serif" font-size="10.00">ConfigFile.hpp</text>
</a>
</g>
</g>
<!-- Node2&#45;&gt;Node5 -->
<g id="edge4_Node000002_Node000005" class="edge">
<title>Node2&#45;&gt;Node5</title>
<g id="a_edge4_Node000002_Node000005"><a xlink:title=" ">
<path fill="none" stroke="#63b8ff" d="M633.51,-329.74C623.28,-304.09 593.25,-228.78 579.29,-193.78"/>
<polygon fill="#63b8ff" stroke="#63b8ff" points="582.47,-192.3 575.51,-184.31 575.97,-194.89 582.47,-192.3"/>
</a>
</g>
</g>
<!-- Node8 -->
<g id="Node000008" class="node">
<title>Node8</title>
<g id="a_Node000008"><a xlink:href="_status_code_8hpp.html" target="_top" xlink:title=" ">
<polygon fill="white" stroke="#666666" points="899.5,-129 806.5,-129 806.5,-110 899.5,-110 899.5,-129"/>
<text text-anchor="middle" x="853" y="-117" font-family="Helvetica,sans-Serif" font-size="10.00">StatusCode.hpp</text>
</a>
</g>
</g>
<!-- Node2&#45;&gt;Node8 -->
<g id="edge78_Node000002_Node000008" class="edge">
<title>Node2&#45;&gt;Node8</title>
<g id="a_edge78_Node000002_Node000008"><a xlink:title=" ">
<path fill="none" stroke="#63b8ff" d="M637.62,-329.98C639.58,-308.9 647.3,-253.6 676,-220 698.72,-193.4 715.39,-200.93 746,-184 775.47,-167.7 808.74,-147.7 830.24,-134.55"/>
<polygon fill="#63b8ff" stroke="#63b8ff" points="832.27,-137.41 838.97,-129.2 828.61,-131.44 832.27,-137.41"/>
</a>
</g>
</g>
<!-- Node15 -->
<g id="Node000015" class="node">
<title>Node15</title>
<g id="a_Node000015"><a xlink:href="_connection_8hpp.html" target="_top" xlink:title=" ">
<polygon fill="white" stroke="#666666" points="1436,-239 1344,-239 1344,-220 1436,-220 1436,-239"/>
<text text-anchor="middle" x="1390" y="-227" font-family="Helvetica,sans-Serif" font-size="10.00">Connection.hpp</text>
</a>
</g>
</g>
<!-- Node2&#45;&gt;Node15 -->
<g id="edge19_Node000002_Node000015" class="edge">
<title>Node2&#45;&gt;Node15</title>
<g id="a_edge19_Node000002_Node000015"><a xlink:title=" ">
<path fill="none" stroke="#63b8ff" d="M712.25,-336.77C880.21,-332.46 1275.23,-319.71 1330,-294 1351.15,-284.07 1368.57,-263.1 1379.09,-247.97"/>
<polygon fill="#63b8ff" stroke="#63b8ff" points="1382.13,-249.73 1384.72,-239.46 1376.29,-245.87 1382.13,-249.73"/>
</a>
</g>
</g>
<!-- Node16 -->
<g id="Node000016" class="node">
<title>Node16</title>
<g id="a_Node000016"><a xlink:href="_h_t_t_p_request_8hpp.html" target="_top" xlink:title=" ">
<polygon fill="white" stroke="#666666" points="736.5,-184 633.5,-184 633.5,-165 736.5,-165 736.5,-184"/>
<text text-anchor="middle" x="685" y="-172" font-family="Helvetica,sans-Serif" font-size="10.00">HTTPRequest.hpp</text>
</a>
</g>
</g>
<!-- Node2&#45;&gt;Node16 -->
<g id="edge76_Node000002_Node000016" class="edge">
<title>Node2&#45;&gt;Node16</title>
<g id="a_edge76_Node000002_Node000016"><a xlink:title=" ">
<path fill="none" stroke="#63b8ff" d="M635.33,-329.71C631.91,-309.4 625.68,-258.04 642,-220 646.88,-208.63 656.07,-198.48 664.71,-190.76"/>
<polygon fill="#63b8ff" stroke="#63b8ff" points="667.22,-193.22 672.66,-184.14 662.74,-187.84 667.22,-193.22"/>
</a>
</g>
</g>
<!-- Node26 -->
<g id="Node000026" class="node">
<title>Node26</title>
<g id="a_Node000026"><a xlink:href="_file_system_ops_8hpp.html" target="_top" xlink:title=" ">
<polygon fill="white" stroke="#666666" points="883,-294 773,-294 773,-275 883,-275 883,-294"/>
<text text-anchor="middle" x="828" y="-282" font-family="Helvetica,sans-Serif" font-size="10.00">FileSystemOps.hpp</text>
</a>
</g>
</g>
<!-- Node2&#45;&gt;Node26 -->
<g id="edge46_Node000002_Node000026" class="edge">
<title>Node2&#45;&gt;Node26</title>
<g id="a_edge46_Node000002_Node000026"><a xlink:title=" ">
<path fill="none" stroke="#63b8ff" d="M667.69,-329.98C700.17,-320.97 751.6,-306.7 787.41,-296.76"/>
<polygon fill="#63b8ff" stroke="#63b8ff" points="788.37,-300.13 797.07,-294.08 786.5,-293.38 788.37,-300.13"/>
</a>
</g>
</g>
<!-- Node33 -->
<g id="Node000033" class="node">
<title>Node33</title>
<g id="a_Node000033"><a xlink:href="_log_8hpp.html" target="_top" xlink:title=" ">
<polygon fill="white" stroke="#666666" points="323.5,-239 268.5,-239 268.5,-220 323.5,-220 323.5,-239"/>
<text text-anchor="middle" x="296" y="-227" font-family="Helvetica,sans-Serif" font-size="10.00">Log.hpp</text>
</a>
</g>
</g>
<!-- Node2&#45;&gt;Node33 -->
<g id="edge77_Node000002_Node000033" class="edge">
<title>Node2&#45;&gt;Node33</title>
<g id="a_edge77_Node000002_Node000033"><a xlink:title=" ">
<path fill="none" stroke="#63b8ff" d="M561.77,-334.86C509.06,-330.1 437.95,-319.14 380,-294 353.44,-282.47 327.59,-260.9 311.74,-246.13"/>
<polygon fill="#63b8ff" stroke="#63b8ff" points="314.05,-243.5 304.41,-239.11 309.21,-248.56 314.05,-243.5"/>
</a>
</g>
</g>
<!-- Node5&#45;&gt;Node3 -->
<g id="edge16_Node000005_Node000003" class="edge">
<title>Node5&#45;&gt;Node3</title>
<g id="a_edge16_Node000005_Node000003"><a xlink:title=" ">
<path fill="none" stroke="#63b8ff" d="M571.04,-164.7C569.16,-142.48 567.66,-83.84 600,-55 612.82,-43.57 855.33,-21.14 943.93,-13.29"/>
<polygon fill="#63b8ff" stroke="#63b8ff" points="944.3,-16.77 953.95,-12.41 943.68,-9.8 944.3,-16.77"/>
</a>
</g>
</g>
<!-- Node5&#45;&gt;Node4 -->
<g id="edge18_Node000005_Node000004" class="edge">
<title>Node5&#45;&gt;Node4</title>
<g id="a_edge18_Node000005_Node000004"><a xlink:title=" ">
<path fill="none" stroke="#63b8ff" d="M544.53,-164.98C514.54,-155.69 466.52,-140.81 434.39,-130.85"/>
<polygon fill="#63b8ff" stroke="#63b8ff" points="435.14,-127.42 424.55,-127.8 433.07,-134.1 435.14,-127.42"/>
</a>
</g>
</g>
<!-- Node6 -->
<g id="Node000006" class="node">
<title>Node6</title>
<g id="a_Node000006"><a xlink:href="_method_8hpp.html" target="_top" xlink:title=" ">
<polygon fill="white" stroke="#666666" points="750,-129 676,-129 676,-110 750,-110 750,-129"/>
<text text-anchor="middle" x="713" y="-117" font-family="Helvetica,sans-Serif" font-size="10.00">Method.hpp</text>
</a>
</g>
</g>
<!-- Node5&#45;&gt;Node6 -->
<g id="edge5_Node000005_Node000006" class="edge">
<title>Node5&#45;&gt;Node6</title>
<g id="a_edge5_Node000005_Node000006"><a xlink:title=" ">
<path fill="none" stroke="#63b8ff" d="M594.65,-164.98C617.85,-156.27 654.12,-142.63 680.4,-132.75"/>
<polygon fill="#63b8ff" stroke="#63b8ff" points="681.8,-135.97 689.93,-129.17 679.34,-129.41 681.8,-135.97"/>
</a>
</g>
</g>
<!-- Node7 -->
<g id="Node000007" class="node">
<title>Node7</title>
<g id="a_Node000007"><a xlink:title=" ">
<polygon fill="#e0e0e0" stroke="#999999" points="669,-74 609,-74 609,-55 669,-55 669,-74"/>
<text text-anchor="middle" x="639" y="-62" font-family="Helvetica,sans-Serif" font-size="10.00">iostream</text>
</a>
</g>
</g>
<!-- Node5&#45;&gt;Node7 -->
<g id="edge14_Node000005_Node000007" class="edge">
<title>Node5&#45;&gt;Node7</title>
<g id="a_edge14_Node000005_Node000007"><a xlink:title=" ">
<path fill="none" stroke="#63b8ff" d="M577.48,-164.66C588.58,-146.77 613.87,-106 628.33,-82.69"/>
<polygon fill="#63b8ff" stroke="#63b8ff" points="631.33,-84.5 633.63,-74.16 625.38,-80.81 631.33,-84.5"/>
</a>
</g>
</g>
<!-- Node5&#45;&gt;Node8 -->
<g id="edge7_Node000005_Node000008" class="edge">
<title>Node5&#45;&gt;Node8</title>
<g id="a_edge7_Node000005_Node000008"><a xlink:title=" ">
<path fill="none" stroke="#63b8ff" d="M615.29,-165.33C664.32,-156.09 744.33,-141 797.8,-130.91"/>
<polygon fill="#63b8ff" stroke="#63b8ff" points="798.62,-134.32 807.8,-129.03 797.32,-127.44 798.62,-134.32"/>
</a>
</g>
</g>
<!-- Node9 -->
<g id="Node000009" class="node">
<title>Node9</title>
<g id="a_Node000009"><a xlink:href="constants_8hpp.html" target="_top" xlink:title=" ">
<polygon fill="white" stroke="#666666" points="975.5,-74 890.5,-74 890.5,-55 975.5,-55 975.5,-74"/>
<text text-anchor="middle" x="933" y="-62" font-family="Helvetica,sans-Serif" font-size="10.00">constants.hpp</text>
</a>
</g>
</g>
<!-- Node5&#45;&gt;Node9 -->
<g id="edge12_Node000005_Node000009" class="edge">
<title>Node5&#45;&gt;Node9</title>
<g id="a_edge12_Node000005_Node000009"><a xlink:title=" ">
<path fill="none" stroke="#63b8ff" d="M615.11,-166.33C618.12,-165.87 621.1,-165.42 624,-165 687.18,-155.85 858.87,-168.52 909,-129 922.72,-118.19 928.6,-98.61 931.11,-84.04"/>
<polygon fill="#63b8ff" stroke="#63b8ff" points="934.59,-84.48 932.46,-74.1 927.65,-83.54 934.59,-84.48"/>
</a>
</g>
</g>
<!-- Node12 -->
<g id="Node000012" class="node">
<title>Node12</title>
<g id="a_Node000012"><a xlink:title=" ">
<polygon fill="#e0e0e0" stroke="#999999" points="320.5,-129 265.5,-129 265.5,-110 320.5,-110 320.5,-129"/>
<text text-anchor="middle" x="293" y="-117" font-family="Helvetica,sans-Serif" font-size="10.00">fstream</text>
</a>
</g>
</g>
<!-- Node5&#45;&gt;Node12 -->
<g id="edge13_Node000005_Node000012" class="edge">
<title>Node5&#45;&gt;Node12</title>
<g id="a_edge13_Node000005_Node000012"><a xlink:title=" ">
<path fill="none" stroke="#63b8ff" d="M528.71,-165.28C474.44,-154.97 382.29,-137.46 330.76,-127.67"/>
<polygon fill="#63b8ff" stroke="#63b8ff" points="331.19,-124.19 320.71,-125.76 329.88,-131.07 331.19,-124.19"/>
</a>
</g>
</g>
<!-- Node13 -->
<g id="Node000013" class="node">
<title>Node13</title>
<g id="a_Node000013"><a xlink:title=" ">
<polygon fill="#e0e0e0" stroke="#999999" points="544,-129 506,-129 506,-110 544,-110 544,-129"/>
<text text-anchor="middle" x="525" y="-117" font-family="Helvetica,sans-Serif" font-size="10.00">map</text>
</a>
</g>
</g>
<!-- Node5&#45;&gt;Node13 -->
<g id="edge15_Node000005_Node000013" class="edge">
<title>Node5&#45;&gt;Node13</title>
<g id="a_edge15_Node000005_Node000013"><a xlink:title=" ">
<path fill="none" stroke="#63b8ff" d="M564.24,-164.75C557.53,-157.18 547.66,-146.05 539.49,-136.84"/>
<polygon fill="#63b8ff" stroke="#63b8ff" points="541.87,-134.25 532.62,-129.09 536.63,-138.89 541.87,-134.25"/>
</a>
</g>
</g>
<!-- Node14 -->
<g id="Node000014" class="node">
<title>Node14</title>
<g id="a_Node000014"><a xlink:title=" ">
<polygon fill="#e0e0e0" stroke="#999999" points="487.5,-129 442.5,-129 442.5,-110 487.5,-110 487.5,-129"/>
<text text-anchor="middle" x="465" y="-117" font-family="Helvetica,sans-Serif" font-size="10.00">utility</text>
</a>
</g>
</g>
<!-- Node5&#45;&gt;Node14 -->
<g id="edge17_Node000005_Node000014" class="edge">
<title>Node5&#45;&gt;Node14</title>
<g id="a_edge17_Node000005_Node000014"><a xlink:title=" ">
<path fill="none" stroke="#63b8ff" d="M554.81,-164.98C537.75,-156.54 511.37,-143.47 491.6,-133.68"/>
<polygon fill="#63b8ff" stroke="#63b8ff" points="493.02,-130.47 482.5,-129.17 489.91,-136.75 493.02,-130.47"/>
</a>
</g>
</g>
<!-- Node6&#45;&gt;Node7 -->
<g id="edge6_Node000006_Node000007" class="edge">
<title>Node6&#45;&gt;Node7</title>
<g id="a_edge6_Node000006_Node000007"><a xlink:title=" ">
<path fill="none" stroke="#63b8ff" d="M701.11,-109.98C689.85,-101.92 672.71,-89.65 659.29,-80.03"/>
<polygon fill="#63b8ff" stroke="#63b8ff" points="661.27,-77.15 651.11,-74.17 657.2,-82.84 661.27,-77.15"/>
</a>
</g>
</g>
<!-- Node8&#45;&gt;Node7 -->
<g id="edge11_Node000008_Node000007" class="edge">
<title>Node8&#45;&gt;Node7</title>
<g id="a_edge11_Node000008_Node000007"><a xlink:title=" ">
<path fill="none" stroke="#63b8ff" d="M818.62,-109.98C780.5,-100.54 719.09,-85.34 678.88,-75.38"/>
<polygon fill="#63b8ff" stroke="#63b8ff" points="679.7,-71.97 669.15,-72.97 678.01,-78.77 679.7,-71.97"/>
</a>
</g>
</g>
<!-- Node8&#45;&gt;Node9 -->
<g id="edge8_Node000008_Node000009" class="edge">
<title>Node8&#45;&gt;Node9</title>
<g id="a_edge8_Node000008_Node000009"><a xlink:title=" ">
<path fill="none" stroke="#63b8ff" d="M865.85,-109.98C878.14,-101.84 896.91,-89.41 911.48,-79.76"/>
<polygon fill="#63b8ff" stroke="#63b8ff" points="913.51,-82.61 919.91,-74.17 909.64,-76.78 913.51,-82.61"/>
</a>
</g>
</g>
<!-- Node11 -->
<g id="Node000011" class="node">
<title>Node11</title>
<g id="a_Node000011"><a xlink:title=" ">
<polygon fill="#e0e0e0" stroke="#999999" points="872.5,-74 823.5,-74 823.5,-55 872.5,-55 872.5,-74"/>
<text text-anchor="middle" x="848" y="-62" font-family="Helvetica,sans-Serif" font-size="10.00">cstdlib</text>
</a>
</g>
</g>
<!-- Node8&#45;&gt;Node11 -->
<g id="edge10_Node000008_Node000011" class="edge">
<title>Node8&#45;&gt;Node11</title>
<g id="a_edge10_Node000008_Node000011"><a xlink:title=" ">
<path fill="none" stroke="#63b8ff" d="M852.17,-109.75C851.52,-102.8 850.58,-92.85 849.76,-84.13"/>
<polygon fill="#63b8ff" stroke="#63b8ff" points="853.23,-83.72 848.81,-74.09 846.27,-84.37 853.23,-83.72"/>
</a>
</g>
</g>
<!-- Node10 -->
<g id="Node000010" class="node">
<title>Node10</title>
<g id="a_Node000010"><a xlink:title=" ">
<polygon fill="#e0e0e0" stroke="#999999" points="1597.5,-19 1544.5,-19 1544.5,0 1597.5,0 1597.5,-19"/>
<text text-anchor="middle" x="1571" y="-7" font-family="Helvetica,sans-Serif" font-size="10.00">cstddef</text>
</a>
</g>
</g>
<!-- Node9&#45;&gt;Node10 -->
<g id="edge9_Node000009_Node000010" class="edge">
<title>Node9&#45;&gt;Node10</title>
<g id="a_edge9_Node000009_Node000010"><a xlink:title=" ">
<path fill="none" stroke="#63b8ff" d="M975.63,-62.3C1073.96,-59.12 1324.1,-48.54 1531,-19 1532.09,-18.84 1533.19,-18.68 1534.31,-18.5"/>
<polygon fill="#63b8ff" stroke="#63b8ff" points="1535.19,-21.9 1544.41,-16.67 1533.95,-15.01 1535.19,-21.9"/>
</a>
</g>
</g>
<!-- Node15&#45;&gt;Node3 -->
<g id="edge44_Node000015_Node000003" class="edge">
<title>Node15&#45;&gt;Node3</title>
<g id="a_edge44_Node000015_Node000003"><a xlink:title=" ">
<path fill="none" stroke="#63b8ff" d="M1392.67,-219.83C1398.37,-199.77 1410.13,-148.92 1396,-110 1385.12,-80.05 1378.02,-70.18 1350,-55 1291.31,-23.21 1088.39,-13.83 1008.59,-11.33"/>
<polygon fill="#63b8ff" stroke="#63b8ff" points="1008.28,-7.81 998.18,-11.02 1008.07,-14.81 1008.28,-7.81"/>
</a>
</g>
</g>
<!-- Node15&#45;&gt;Node5 -->
<g id="edge20_Node000015_Node000005" class="edge">
<title>Node15&#45;&gt;Node5</title>
<g id="a_edge20_Node000015_Node000005"><a xlink:title=" ">
<path fill="none" stroke="#63b8ff" d="M1343.91,-226.1C1194.81,-218.31 729.65,-193.7 625.05,-183.91"/>
<polygon fill="#63b8ff" stroke="#63b8ff" points="625.38,-180.42 615.08,-182.9 624.68,-187.39 625.38,-180.42"/>
</a>
</g>
</g>
<!-- Node15&#45;&gt;Node10 -->
<g id="edge41_Node000015_Node000010" class="edge">
<title>Node15&#45;&gt;Node10</title>
<g id="a_edge41_Node000015_Node000010"><a xlink:title=" ">
<path fill="none" stroke="#63b8ff" d="M1436.28,-222.52C1462.86,-216.81 1495.02,-205.67 1516,-184 1558.26,-140.35 1568.06,-64.4 1570.33,-29.29"/>
<polygon fill="#63b8ff" stroke="#63b8ff" points="1573.84,-29.22 1570.84,-19.05 1566.84,-28.87 1573.84,-29.22"/>
</a>
</g>
</g>
<!-- Node15&#45;&gt;Node16 -->
<g id="edge21_Node000015_Node000016" class="edge">
<title>Node15&#45;&gt;Node16</title>
<g id="a_edge21_Node000015_Node000016"><a xlink:title=" ">
<path fill="none" stroke="#63b8ff" d="M1343.74,-225.02C1220.76,-215.78 885.65,-190.58 746.67,-180.14"/>
<polygon fill="#63b8ff" stroke="#63b8ff" points="746.84,-176.64 736.61,-179.38 746.32,-183.62 746.84,-176.64"/>
</a>
</g>
</g>
<!-- Node17 -->
<g id="Node000017" class="node">
<title>Node17</title>
<g id="a_Node000017"><a xlink:href="_socket_8hpp.html" target="_top" xlink:title=" ">
<polygon fill="white" stroke="#666666" points="1472,-74 1402,-74 1402,-55 1472,-55 1472,-74"/>
<text text-anchor="middle" x="1437" y="-62" font-family="Helvetica,sans-Serif" font-size="10.00">Socket.hpp</text>
</a>
</g>
</g>
<!-- Node15&#45;&gt;Node17 -->
<g id="edge27_Node000015_Node000017" class="edge">
<title>Node15&#45;&gt;Node17</title>
<g id="a_edge27_Node000015_Node000017"><a xlink:title=" ">
<path fill="none" stroke="#63b8ff" d="M1428.42,-219.96C1447.74,-213.52 1469.45,-202.5 1481,-184 1501.9,-150.51 1471.7,-105.57 1451.89,-81.81"/>
<polygon fill="#63b8ff" stroke="#63b8ff" points="1454.38,-79.33 1445.18,-74.07 1449.09,-83.92 1454.38,-79.33"/>
</a>
</g>
</g>
<!-- Node18 -->
<g id="Node000018" class="node">
<title>Node18</title>
<g id="a_Node000018"><a xlink:href="utilities_8hpp.html" target="_top" xlink:title=" ">
<polygon fill="white" stroke="#666666" points="1071,-184 997,-184 997,-165 1071,-165 1071,-184"/>
<text text-anchor="middle" x="1034" y="-172" font-family="Helvetica,sans-Serif" font-size="10.00">utilities.hpp</text>
</a>
</g>
</g>
<!-- Node15&#45;&gt;Node18 -->
<g id="edge29_Node000015_Node000018" class="edge">
<title>Node15&#45;&gt;Node18</title>
<g id="a_edge29_Node000015_Node000018"><a xlink:title=" ">
<path fill="none" stroke="#63b8ff" d="M1343.82,-221.63C1275.91,-211.52 1149.76,-192.73 1081.24,-182.53"/>
<polygon fill="#63b8ff" stroke="#63b8ff" points="1081.57,-179.04 1071.16,-181.03 1080.54,-185.97 1081.57,-179.04"/>
</a>
</g>
</g>
<!-- Node21 -->
<g id="Node000021" class="node">
<title>Node21</title>
<g id="a_Node000021"><a xlink:title=" ">
<polygon fill="#e0e0e0" stroke="#999999" points="1522,-19 1478,-19 1478,0 1522,0 1522,-19"/>
<text text-anchor="middle" x="1500" y="-7" font-family="Helvetica,sans-Serif" font-size="10.00">ctime</text>
</a>
</g>
</g>
<!-- Node15&#45;&gt;Node21 -->
<g id="edge43_Node000015_Node000021" class="edge">
<title>Node15&#45;&gt;Node21</title>
<g id="a_edge43_Node000015_Node000021"><a xlink:title=" ">
<path fill="none" stroke="#63b8ff" d="M1436.25,-221.43C1458.77,-215.43 1483.96,-204.37 1498,-184 1530.72,-136.54 1515.64,-63.08 1505.94,-29.02"/>
<polygon fill="#63b8ff" stroke="#63b8ff" points="1509.18,-27.63 1502.93,-19.07 1502.48,-29.65 1509.18,-27.63"/>
</a>
</g>
</g>
<!-- Node23 -->
<g id="Node000023" class="node">
<title>Node23</title>
<g id="a_Node000023"><a xlink:title=" ">
<polygon fill="#e0e0e0" stroke="#999999" points="1354,-129 1298,-129 1298,-110 1354,-110 1354,-129"/>
<text text-anchor="middle" x="1326" y="-117" font-family="Helvetica,sans-Serif" font-size="10.00">unistd.h</text>
</a>
</g>
</g>
<!-- Node15&#45;&gt;Node23 -->
<g id="edge45_Node000015_Node000023" class="edge">
<title>Node15&#45;&gt;Node23</title>
<g id="a_edge45_Node000015_Node000023"><a xlink:title=" ">
<path fill="none" stroke="#63b8ff" d="M1384.76,-219.66C1374.21,-201.85 1350.22,-161.37 1336.37,-138.01"/>
<polygon fill="#63b8ff" stroke="#63b8ff" points="1339.24,-135.98 1331.13,-129.16 1333.22,-139.55 1339.24,-135.98"/>
</a>
</g>
</g>
<!-- Node24 -->
<g id="Node000024" class="node">
<title>Node24</title>
<g id="a_Node000024"><a xlink:title=" ">
<polygon fill="#e0e0e0" stroke="#999999" points="1471.5,-184 1420.5,-184 1420.5,-165 1471.5,-165 1471.5,-184"/>
<text text-anchor="middle" x="1446" y="-172" font-family="Helvetica,sans-Serif" font-size="10.00">csignal</text>
</a>
</g>
</g>
<!-- Node15&#45;&gt;Node24 -->
<g id="edge40_Node000015_Node000024" class="edge">
<title>Node15&#45;&gt;Node24</title>
<g id="a_edge40_Node000015_Node000024"><a xlink:title=" ">
<path fill="none" stroke="#63b8ff" d="M1399,-219.98C1407.19,-212.23 1419.51,-200.58 1429.47,-191.14"/>
<polygon fill="#63b8ff" stroke="#63b8ff" points="1431.98,-193.59 1436.84,-184.17 1427.17,-188.5 1431.98,-193.59"/>
</a>
</g>
</g>
<!-- Node25 -->
<g id="Node000025" class="node">
<title>Node25</title>
<g id="a_Node000025"><a xlink:title=" ">
<polygon fill="#e0e0e0" stroke="#999999" points="930,-184 884,-184 884,-165 930,-165 930,-184"/>
<text text-anchor="middle" x="907" y="-172" font-family="Helvetica,sans-Serif" font-size="10.00">cstdio</text>
</a>
</g>
</g>
<!-- Node15&#45;&gt;Node25 -->
<g id="edge42_Node000015_Node000025" class="edge">
<title>Node15&#45;&gt;Node25</title>
<g id="a_edge42_Node000015_Node000025"><a xlink:title=" ">
<path fill="none" stroke="#63b8ff" d="M1343.69,-223.42C1246.78,-212.78 1024.61,-188.41 940.29,-179.15"/>
<polygon fill="#63b8ff" stroke="#63b8ff" points="940.57,-175.66 930.25,-178.05 939.8,-182.62 940.57,-175.66"/>
</a>
</g>
</g>
<!-- Node16&#45;&gt;Node3 -->
<g id="edge26_Node000016_Node000003" class="edge">
<title>Node16&#45;&gt;Node3</title>
<g id="a_edge26_Node000016_Node000003"><a xlink:title=" ">
<path fill="none" stroke="#63b8ff" d="M703.33,-164.98C719.14,-157.06 742.05,-144.23 759,-129 789.67,-101.43 780.87,-78.16 815,-55 854.36,-28.29 909.38,-17.54 943.83,-13.26"/>
<polygon fill="#63b8ff" stroke="#63b8ff" points="944.28,-16.73 953.82,-12.13 943.49,-9.78 944.28,-16.73"/>
</a>
</g>
</g>
<!-- Node16&#45;&gt;Node6 -->
<g id="edge22_Node000016_Node000006" class="edge">
<title>Node16&#45;&gt;Node6</title>
<g id="a_edge22_Node000016_Node000006"><a xlink:title=" ">
<path fill="none" stroke="#63b8ff" d="M689.62,-164.75C693.46,-157.49 699.02,-146.95 703.76,-137.98"/>
<polygon fill="#63b8ff" stroke="#63b8ff" points="706.89,-139.57 708.46,-129.09 700.7,-136.3 706.89,-139.57"/>
</a>
</g>
</g>
<!-- Node16&#45;&gt;Node7 -->
<g id="edge24_Node000016_Node000007" class="edge">
<title>Node16&#45;&gt;Node7</title>
<g id="a_edge24_Node000016_Node000007"><a xlink:title=" ">
<path fill="none" stroke="#63b8ff" d="M681.24,-164.66C673.72,-147.01 656.71,-107.09 646.72,-83.64"/>
<polygon fill="#63b8ff" stroke="#63b8ff" points="649.83,-81.99 642.69,-74.16 643.39,-84.73 649.83,-81.99"/>
</a>
</g>
</g>
<!-- Node16&#45;&gt;Node8 -->
<g id="edge23_Node000016_Node000008" class="edge">
<title>Node16&#45;&gt;Node8</title>
<g id="a_edge23_Node000016_Node000008"><a xlink:title=" ">
<path fill="none" stroke="#63b8ff" d="M711.99,-164.98C740.2,-156.09 784.64,-142.07 816.08,-132.15"/>
<polygon fill="#63b8ff" stroke="#63b8ff" points="817.31,-135.43 825.8,-129.08 815.21,-128.75 817.31,-135.43"/>
</a>
</g>
</g>
<!-- Node16&#45;&gt;Node13 -->
<g id="edge25_Node000016_Node000013" class="edge">
<title>Node16&#45;&gt;Node13</title>
<g id="a_edge25_Node000016_Node000013"><a xlink:title=" ">
<path fill="none" stroke="#63b8ff" d="M659.29,-164.98C630.53,-155.46 584.04,-140.06 554,-130.11"/>
<polygon fill="#63b8ff" stroke="#63b8ff" points="554.71,-126.65 544.12,-126.83 552.51,-133.3 554.71,-126.65"/>
</a>
</g>
</g>
<!-- Node17&#45;&gt;Node3 -->
<g id="edge28_Node000017_Node000003" class="edge">
<title>Node17&#45;&gt;Node3</title>
<g id="a_edge28_Node000017_Node000003"><a xlink:title=" ">
<path fill="none" stroke="#63b8ff" d="M1401.98,-57.14C1397.29,-56.37 1392.53,-55.64 1388,-55 1247.34,-35.22 1078.58,-19.48 1008.73,-13.32"/>
<polygon fill="#63b8ff" stroke="#63b8ff" points="1008.66,-9.8 998.39,-12.41 1008.05,-16.77 1008.66,-9.8"/>
</a>
</g>
</g>
<!-- Node18&#45;&gt;Node4 -->
<g id="edge39_Node000018_Node000004" class="edge">
<title>Node18&#45;&gt;Node4</title>
<g id="a_edge39_Node000018_Node000004"><a xlink:title=" ">
<path fill="none" stroke="#63b8ff" d="M996.56,-169.99C979.08,-168.39 957.98,-166.52 939,-165 717.56,-147.22 657.14,-165.55 434.69,-128.98"/>
<polygon fill="#63b8ff" stroke="#63b8ff" points="435.1,-125.5 424.66,-127.32 433.95,-132.41 435.1,-125.5"/>
</a>
</g>
</g>
<!-- Node18&#45;&gt;Node6 -->
<g id="edge30_Node000018_Node000006" class="edge">
<title>Node18&#45;&gt;Node6</title>
<g id="a_edge30_Node000018_Node000006"><a xlink:title=" ">
<path fill="none" stroke="#63b8ff" d="M996.86,-167.37C938.28,-157.7 824.46,-138.9 760.17,-128.29"/>
<polygon fill="#63b8ff" stroke="#63b8ff" points="760.73,-124.83 750.3,-126.66 759.59,-131.74 760.73,-124.83"/>
</a>
</g>
</g>
<!-- Node18&#45;&gt;Node7 -->
<g id="edge36_Node000018_Node000007" class="edge">
<title>Node18&#45;&gt;Node7</title>
<g id="a_edge36_Node000018_Node000007"><a xlink:title=" ">
<path fill="none" stroke="#63b8ff" d="M1020.36,-164.79C998.01,-150.94 951.79,-124.02 909,-110 830.07,-84.13 733.01,-72.84 679.4,-68.28"/>
<polygon fill="#63b8ff" stroke="#63b8ff" points="679.53,-64.78 669.28,-67.46 678.96,-71.76 679.53,-64.78"/>
</a>
</g>
</g>
<!-- Node18&#45;&gt;Node8 -->
<g id="edge31_Node000018_Node000008" class="edge">
<title>Node18&#45;&gt;Node8</title>
<g id="a_edge31_Node000018_Node000008"><a xlink:title=" ">
<path fill="none" stroke="#63b8ff" d="M1004.92,-164.98C974.4,-156.05 926.24,-141.94 892.34,-132.02"/>
<polygon fill="#63b8ff" stroke="#63b8ff" points="892.89,-128.53 882.31,-129.08 890.92,-135.25 892.89,-128.53"/>
</a>
</g>
</g>
<!-- Node18&#45;&gt;Node9 -->
<g id="edge32_Node000018_Node000009" class="edge">
<title>Node18&#45;&gt;Node9</title>
<g id="a_edge32_Node000018_Node000009"><a xlink:title=" ">
<path fill="none" stroke="#63b8ff" d="M1071.22,-169.96C1122.74,-163.62 1206.1,-147.34 1175,-110 1151.43,-81.7 1049.85,-71.34 986.03,-67.58"/>
<polygon fill="#63b8ff" stroke="#63b8ff" points="985.91,-64.07 975.74,-67.02 985.53,-71.06 985.91,-64.07"/>
</a>
</g>
</g>
<!-- Node19 -->
<g id="Node000019" class="node">
<title>Node19</title>
<g id="a_Node000019"><a xlink:title=" ">
<polygon fill="#e0e0e0" stroke="#999999" points="1096,-129 1032,-129 1032,-110 1096,-110 1096,-129"/>
<text text-anchor="middle" x="1064" y="-117" font-family="Helvetica,sans-Serif" font-size="10.00">algorithm</text>
</a>
</g>
</g>
<!-- Node18&#45;&gt;Node19 -->
<g id="edge33_Node000018_Node000019" class="edge">
<title>Node18&#45;&gt;Node19</title>
<g id="a_edge33_Node000018_Node000019"><a xlink:title=" ">
<path fill="none" stroke="#63b8ff" d="M1038.95,-164.75C1043.06,-157.49 1049.03,-146.95 1054.1,-137.98"/>
<polygon fill="#63b8ff" stroke="#63b8ff" points="1057.26,-139.52 1059.14,-129.09 1051.17,-136.07 1057.26,-139.52"/>
</a>
</g>
</g>
<!-- Node20 -->
<g id="Node000020" class="node">
<title>Node20</title>
<g id="a_Node000020"><a xlink:title=" ">
<polygon fill="#e0e0e0" stroke="#999999" points="1166,-129 1114,-129 1114,-110 1166,-110 1166,-129"/>
<text text-anchor="middle" x="1140" y="-117" font-family="Helvetica,sans-Serif" font-size="10.00">cassert</text>
</a>
</g>
</g>
<!-- Node18&#45;&gt;Node20 -->
<g id="edge34_Node000018_Node000020" class="edge">
<title>Node18&#45;&gt;Node20</title>
<g id="a_edge34_Node000018_Node000020"><a xlink:title=" ">
<path fill="none" stroke="#63b8ff" d="M1051.03,-164.98C1067.93,-156.54 1094.06,-143.47 1113.64,-133.68"/>
<polygon fill="#63b8ff" stroke="#63b8ff" points="1115.28,-136.77 1122.66,-129.17 1112.15,-130.51 1115.28,-136.77"/>
</a>
</g>
</g>
<!-- Node18&#45;&gt;Node21 -->
<g id="edge35_Node000018_Node000021" class="edge">
<title>Node18&#45;&gt;Node21</title>
<g id="a_edge35_Node000018_Node000021"><a xlink:title=" ">
<path fill="none" stroke="#63b8ff" d="M1065.66,-164.98C1113.73,-152.19 1208.1,-127.64 1289,-110 1373.83,-91.5 1416.46,-132.07 1481,-74 1493.42,-62.82 1497.86,-43.9 1499.38,-29.61"/>
<polygon fill="#63b8ff" stroke="#63b8ff" points="1502.89,-29.6 1500.07,-19.38 1495.91,-29.12 1502.89,-29.6"/>
</a>
</g>
</g>
<!-- Node22 -->
<g id="Node000022" class="node">
<title>Node22</title>
<g id="a_Node000022"><a xlink:title=" ">
<polygon fill="#e0e0e0" stroke="#999999" points="834,-19 778,-19 778,0 834,0 834,-19"/>
<text text-anchor="middle" x="806" y="-7" font-family="Helvetica,sans-Serif" font-size="10.00">sstream</text>
</a>
</g>
</g>
<!-- Node18&#45;&gt;Node22 -->
<g id="edge37_Node000018_Node000022" class="edge">
<title>Node18&#45;&gt;Node22</title>
<g id="a_edge37_Node000018_Node000022"><a xlink:title=" ">
<path fill="none" stroke="#63b8ff" d="M1031.54,-164.87C1024.34,-140.22 1002.71,-70.26 985,-55 945.47,-20.94 883.75,-12.21 844.09,-10.36"/>
<polygon fill="#63b8ff" stroke="#63b8ff" points="844.14,-6.86 834.02,-10.02 843.9,-13.86 844.14,-6.86"/>
</a>
</g>
</g>
<!-- Node18&#45;&gt;Node23 -->
<g id="edge38_Node000018_Node000023" class="edge">
<title>Node18&#45;&gt;Node23</title>
<g id="a_edge38_Node000018_Node000023"><a xlink:title=" ">
<path fill="none" stroke="#63b8ff" d="M1071.32,-167.14C1120.23,-158.74 1208.64,-143.33 1284,-129 1285.1,-128.79 1286.21,-128.58 1287.33,-128.36"/>
<polygon fill="#63b8ff" stroke="#63b8ff" points="1288.41,-131.72 1297.55,-126.35 1287.06,-124.85 1288.41,-131.72"/>
</a>
</g>
</g>
<!-- Node26&#45;&gt;Node3 -->
<g id="edge54_Node000026_Node000003" class="edge">
<title>Node26&#45;&gt;Node3</title>
<g id="a_edge54_Node000026_Node000003"><a xlink:title=" ">
<path fill="none" stroke="#63b8ff" d="M883.3,-284.34C977.64,-284.63 1164.27,-279.84 1213,-239 1235.58,-220.08 1232,-204.96 1232,-175.5 1232,-175.5 1232,-175.5 1232,-118.5 1232,-22.57 1077.52,-10.51 1008.57,-9.9"/>
<polygon fill="#63b8ff" stroke="#63b8ff" points="1008.27,-6.4 998.27,-9.89 1008.27,-13.4 1008.27,-6.4"/>
</a>
</g>
</g>
<!-- Node26&#45;&gt;Node7 -->
<g id="edge52_Node000026_Node000007" class="edge">
<title>Node26&#45;&gt;Node7</title>
<g id="a_edge52_Node000026_Node000007"><a xlink:title=" ">
<path fill="none" stroke="#63b8ff" d="M781.36,-275C674.38,-254.44 416.81,-198.57 368,-129 363.15,-122.09 362.53,-116.44 368,-110 382.78,-92.59 527.21,-76.32 598.96,-69.23"/>
<polygon fill="#63b8ff" stroke="#63b8ff" points="599.38,-72.7 609,-68.25 598.7,-65.74 599.38,-72.7"/>
</a>
</g>
</g>
<!-- Node26&#45;&gt;Node12 -->
<g id="edge51_Node000026_Node000012" class="edge">
<title>Node26&#45;&gt;Node12</title>
<g id="a_edge51_Node000026_Node000012"><a xlink:title=" ">
<path fill="none" stroke="#63b8ff" d="M772.83,-281.03C683.37,-276.34 511.14,-264.27 456,-239 411.67,-218.69 414.72,-193.28 375,-165 357.9,-152.83 337.11,-141.58 320.74,-133.43"/>
<polygon fill="#63b8ff" stroke="#63b8ff" points="322.19,-130.25 311.67,-129.01 319.13,-136.54 322.19,-130.25"/>
</a>
</g>
</g>
<!-- Node26&#45;&gt;Node18 -->
<g id="edge75_Node000026_Node000018" class="edge">
<title>Node26&#45;&gt;Node18</title>
<g id="a_edge75_Node000026_Node000018"><a xlink:title=" ">
<path fill="none" stroke="#63b8ff" d="M833.53,-274.72C842.6,-261.01 861.97,-234.59 885,-220 915.94,-200.4 955.93,-189.07 986.69,-182.76"/>
<polygon fill="#63b8ff" stroke="#63b8ff" points="987.59,-186.15 996.74,-180.81 986.26,-179.28 987.59,-186.15"/>
</a>
</g>
</g>
<!-- Node26&#45;&gt;Node25 -->
<g id="edge48_Node000026_Node000025" class="edge">
<title>Node26&#45;&gt;Node25</title>
<g id="a_edge48_Node000026_Node000025"><a xlink:title=" ">
<path fill="none" stroke="#63b8ff" d="M829.8,-274.58C832.76,-261.6 839.57,-237.19 852,-220 860.63,-208.06 873.25,-197.54 884.22,-189.73"/>
<polygon fill="#63b8ff" stroke="#63b8ff" points="886.25,-192.58 892.56,-184.07 882.32,-186.79 886.25,-192.58"/>
</a>
</g>
</g>
<!-- Node27 -->
<g id="Node000027" class="node">
<title>Node27</title>
<g id="a_Node000027"><a xlink:title=" ">
<polygon fill="#e0e0e0" stroke="#999999" points="731.5,-239 684.5,-239 684.5,-220 731.5,-220 731.5,-239"/>
<text text-anchor="middle" x="708" y="-227" font-family="Helvetica,sans-Serif" font-size="10.00">cerrno</text>
</a>
</g>
</g>
<!-- Node26&#45;&gt;Node27 -->
<g id="edge47_Node000026_Node000027" class="edge">
<title>Node26&#45;&gt;Node27</title>
<g id="a_edge47_Node000026_Node000027"><a xlink:title=" ">
<path fill="none" stroke="#63b8ff" d="M808.72,-274.98C789.33,-266.42 759.19,-253.11 736.93,-243.28"/>
<polygon fill="#63b8ff" stroke="#63b8ff" points="738.19,-240.01 727.63,-239.17 735.36,-246.41 738.19,-240.01"/>
</a>
</g>
</g>
<!-- Node28 -->
<g id="Node000028" class="node">
<title>Node28</title>
<g id="a_Node000028"><a xlink:title=" ">
<polygon fill="#e0e0e0" stroke="#999999" points="800,-239 750,-239 750,-220 800,-220 800,-239"/>
<text text-anchor="middle" x="775" y="-227" font-family="Helvetica,sans-Serif" font-size="10.00">cstring</text>
</a>
</g>
</g>
<!-- Node26&#45;&gt;Node28 -->
<g id="edge49_Node000026_Node000028" class="edge">
<title>Node26&#45;&gt;Node28</title>
<g id="a_edge49_Node000026_Node000028"><a xlink:title=" ">
<path fill="none" stroke="#63b8ff" d="M819.25,-274.75C811.53,-267.03 800.1,-255.6 790.78,-246.28"/>
<polygon fill="#63b8ff" stroke="#63b8ff" points="793.14,-243.69 783.59,-239.09 788.19,-248.64 793.14,-243.69"/>
</a>
</g>
</g>
<!-- Node29 -->
<g id="Node000029" class="node">
<title>Node29</title>
<g id="a_Node000029"><a xlink:title=" ">
<polygon fill="#e0e0e0" stroke="#999999" points="948,-239 894,-239 894,-220 948,-220 948,-239"/>
<text text-anchor="middle" x="921" y="-227" font-family="Helvetica,sans-Serif" font-size="10.00">dirent.h</text>
</a>
</g>
</g>
<!-- Node26&#45;&gt;Node29 -->
<g id="edge50_Node000026_Node000029" class="edge">
<title>Node26&#45;&gt;Node29</title>
<g id="a_edge50_Node000026_Node000029"><a xlink:title=" ">
<path fill="none" stroke="#63b8ff" d="M842.94,-274.98C857.5,-266.69 879.87,-253.94 896.93,-244.22"/>
<polygon fill="#63b8ff" stroke="#63b8ff" points="898.83,-247.16 905.79,-239.17 895.36,-241.08 898.83,-247.16"/>
</a>
</g>
</g>
<!-- Node30 -->
<g id="Node000030" class="node">
<title>Node30</title>
<g id="a_Node000030"><a xlink:title=" ">
<polygon fill="#e0e0e0" stroke="#999999" points="1031.5,-239 966.5,-239 966.5,-220 1031.5,-220 1031.5,-239"/>
<text text-anchor="middle" x="999" y="-227" font-family="Helvetica,sans-Serif" font-size="10.00">stdexcept</text>
</a>
</g>
</g>
<!-- Node26&#45;&gt;Node30 -->
<g id="edge53_Node000026_Node000030" class="edge">
<title>Node26&#45;&gt;Node30</title>
<g id="a_edge53_Node000026_Node000030"><a xlink:title=" ">
<path fill="none" stroke="#63b8ff" d="M855.47,-274.98C884.18,-266.09 929.42,-252.07 961.42,-242.15"/>
<polygon fill="#63b8ff" stroke="#63b8ff" points="962.8,-245.39 971.31,-239.08 960.72,-238.7 962.8,-245.39"/>
</a>
</g>
</g>
<!-- Node31 -->
<g id="Node000031" class="node">
<title>Node31</title>
<g id="a_Node000031"><a xlink:title=" ">
<polygon fill="#e0e0e0" stroke="#999999" points="1114,-239 1050,-239 1050,-220 1114,-220 1114,-239"/>
<text text-anchor="middle" x="1082" y="-227" font-family="Helvetica,sans-Serif" font-size="10.00">sys/stat.h</text>
</a>
</g>
</g>
<!-- Node26&#45;&gt;Node31 -->
<g id="edge55_Node000026_Node000031" class="edge">
<title>Node26&#45;&gt;Node31</title>
<g id="a_edge55_Node000026_Node000031"><a xlink:title=" ">
<path fill="none" stroke="#63b8ff" d="M868.81,-274.98C915.71,-265.2 992.31,-249.21 1039.79,-239.31"/>
<polygon fill="#63b8ff" stroke="#63b8ff" points="1040.68,-242.7 1049.75,-237.23 1039.25,-235.85 1040.68,-242.7"/>
</a>
</g>
</g>
<!-- Node32 -->
<g id="Node000032" class="node">
<title>Node32</title>
<g id="a_Node000032"><a xlink:title=" ">
<polygon fill="#e0e0e0" stroke="#999999" points="1204,-239 1132,-239 1132,-220 1204,-220 1204,-239"/>
<text text-anchor="middle" x="1168" y="-227" font-family="Helvetica,sans-Serif" font-size="10.00">sys/types.h</text>
</a>
</g>
</g>
<!-- Node26&#45;&gt;Node32 -->
<g id="edge56_Node000026_Node000032" class="edge">
<title>Node26&#45;&gt;Node32</title>
<g id="a_edge56_Node000026_Node000032"><a xlink:title=" ">
<path fill="none" stroke="#63b8ff" d="M883.01,-275.82C940.19,-267.7 1032.54,-254.2 1121.66,-239.18"/>
<polygon fill="#63b8ff" stroke="#63b8ff" points="1122.4,-242.6 1131.67,-237.48 1121.23,-235.7 1122.4,-242.6"/>
</a>
</g>
</g>
<!-- Node26&#45;&gt;Node33 -->
<g id="edge57_Node000026_Node000033" class="edge">
<title>Node26&#45;&gt;Node33</title>
<g id="a_edge57_Node000026_Node000033"><a xlink:title=" ">
<path fill="none" stroke="#63b8ff" d="M772.82,-278C664.43,-267.2 426.23,-243.47 333.75,-234.26"/>
<polygon fill="#63b8ff" stroke="#63b8ff" points="334.02,-230.77 323.72,-233.26 333.33,-237.74 334.02,-230.77"/>
</a>
</g>
</g>
<!-- Node34 -->
<g id="Node000034" class="node">
<title>Node34</title>
<g id="a_Node000034"><a xlink:href="_log_outputter_console_8hpp.html" target="_top" xlink:title=" ">
<polygon fill="white" stroke="#666666" points="366,-184 226,-184 226,-165 366,-165 366,-184"/>
<text text-anchor="middle" x="296" y="-172" font-family="Helvetica,sans-Serif" font-size="10.00">LogOutputterConsole.hpp</text>
</a>
</g>
</g>
<!-- Node33&#45;&gt;Node34 -->
<g id="edge58_Node000033_Node000034" class="edge">
<title>Node33&#45;&gt;Node34</title>
<g id="a_edge58_Node000033_Node000034"><a xlink:title=" ">
<path fill="none" stroke="#63b8ff" d="M296,-219.75C296,-212.8 296,-202.85 296,-194.13"/>
<polygon fill="#63b8ff" stroke="#63b8ff" points="299.5,-194.09 296,-184.09 292.5,-194.09 299.5,-194.09"/>
</a>
</g>
</g>
<!-- Node37 -->
<g id="Node000037" class="node">
<title>Node37</title>
<g id="a_Node000037"><a xlink:href="_log_outputter_file_8hpp.html" target="_top" xlink:title=" ">
<polygon fill="white" stroke="#666666" points="207.5,-184 88.5,-184 88.5,-165 207.5,-165 207.5,-184"/>
<text text-anchor="middle" x="148" y="-172" font-family="Helvetica,sans-Serif" font-size="10.00">LogOutputterFile.hpp</text>
</a>
</g>
</g>
<!-- Node33&#45;&gt;Node37 -->
<g id="edge66_Node000033_Node000037" class="edge">
<title>Node33&#45;&gt;Node37</title>
<g id="a_edge66_Node000033_Node000037"><a xlink:title=" ">
<path fill="none" stroke="#63b8ff" d="M272.22,-219.98C247.77,-211.23 209.47,-197.51 181.85,-187.62"/>
<polygon fill="#63b8ff" stroke="#63b8ff" points="182.81,-184.25 172.21,-184.17 180.45,-190.84 182.81,-184.25"/>
</a>
</g>
</g>
<!-- Node38 -->
<g id="Node000038" class="node">
<title>Node38</title>
<g id="a_Node000038"><a xlink:href="_logger_8hpp.html" target="_top" xlink:title=" ">
<polygon fill="white" stroke="#666666" points="70,-184 0,-184 0,-165 70,-165 70,-184"/>
<text text-anchor="middle" x="35" y="-172" font-family="Helvetica,sans-Serif" font-size="10.00">Logger.hpp</text>
</a>
</g>
</g>
<!-- Node33&#45;&gt;Node38 -->
<g id="edge70_Node000033_Node000038" class="edge">
<title>Node33&#45;&gt;Node38</title>
<g id="a_edge70_Node000033_Node000038"><a xlink:title=" ">
<path fill="none" stroke="#63b8ff" d="M268.07,-222.83C223.1,-213.7 134.23,-195.65 80.16,-184.67"/>
<polygon fill="#63b8ff" stroke="#63b8ff" points="80.66,-181.2 70.17,-182.64 79.27,-188.06 80.66,-181.2"/>
</a>
</g>
</g>
<!-- Node34&#45;&gt;Node7 -->
<g id="edge59_Node000034_Node000007" class="edge">
<title>Node34&#45;&gt;Node7</title>
<g id="a_edge59_Node000034_Node000007"><a xlink:title=" ">
<path fill="none" stroke="#63b8ff" d="M283.67,-164.88C266.81,-152.06 240.32,-127.61 256,-110 261.68,-103.62 501.67,-79.14 598.81,-69.46"/>
<polygon fill="#63b8ff" stroke="#63b8ff" points="599.23,-72.94 608.84,-68.47 598.54,-65.97 599.23,-72.94"/>
</a>
</g>
</g>
<!-- Node34&#45;&gt;Node13 -->
<g id="edge60_Node000034_Node000013" class="edge">
<title>Node34&#45;&gt;Node13</title>
<g id="a_edge60_Node000034_Node000013"><a xlink:title=" ">
<path fill="none" stroke="#63b8ff" d="M338.33,-164.93C378.95,-156.51 441.92,-142.93 496,-129 496.1,-128.97 496.2,-128.95 496.3,-128.92"/>
<polygon fill="#63b8ff" stroke="#63b8ff" points="496.98,-132.36 505.71,-126.35 495.14,-125.61 496.98,-132.36"/>
</a>
</g>
</g>
<!-- Node35 -->
<g id="Node000035" class="node">
<title>Node35</title>
<g id="a_Node000035"><a xlink:href="_a_log_outputter_8hpp.html" target="_top" xlink:title=" ">
<polygon fill="white" stroke="#666666" points="170.5,-129 63.5,-129 63.5,-110 170.5,-110 170.5,-129"/>
<text text-anchor="middle" x="117" y="-117" font-family="Helvetica,sans-Serif" font-size="10.00">ALogOutputter.hpp</text>
</a>
</g>
</g>
<!-- Node34&#45;&gt;Node35 -->
<g id="edge61_Node000034_Node000035" class="edge">
<title>Node34&#45;&gt;Node35</title>
<g id="a_edge61_Node000034_Node000035"><a xlink:title=" ">
<path fill="none" stroke="#63b8ff" d="M267.24,-164.98C237.06,-156.05 189.43,-141.94 155.9,-132.02"/>
<polygon fill="#63b8ff" stroke="#63b8ff" points="156.57,-128.57 145.98,-129.08 154.58,-135.28 156.57,-128.57"/>
</a>
</g>
</g>
<!-- Node36 -->
<g id="Node000036" class="node">
<title>Node36</title>
<g id="a_Node000036"><a xlink:href="_log_data_8hpp.html" target="_top" xlink:title=" ">
<polygon fill="white" stroke="#666666" points="544,-74 466,-74 466,-55 544,-55 544,-74"/>
<text text-anchor="middle" x="505" y="-62" font-family="Helvetica,sans-Serif" font-size="10.00">LogData.hpp</text>
</a>
</g>
</g>
<!-- Node35&#45;&gt;Node36 -->
<g id="edge62_Node000035_Node000036" class="edge">
<title>Node35&#45;&gt;Node36</title>
<g id="a_edge62_Node000035_Node000036"><a xlink:title=" ">
<path fill="none" stroke="#63b8ff" d="M170.54,-111.19C245.94,-100.89 382.33,-82.26 455.48,-72.26"/>
<polygon fill="#63b8ff" stroke="#63b8ff" points="456.37,-75.68 465.8,-70.85 455.42,-68.74 456.37,-75.68"/>
</a>
</g>
</g>
<!-- Node36&#45;&gt;Node3 -->
<g id="edge65_Node000036_Node000003" class="edge">
<title>Node36&#45;&gt;Node3</title>
<g id="a_edge65_Node000036_Node000003"><a xlink:title=" ">
<path fill="none" stroke="#63b8ff" d="M544.04,-57C548.74,-56.29 553.47,-55.6 558,-55 701.46,-35.87 873.51,-19.67 943.75,-13.35"/>
<polygon fill="#63b8ff" stroke="#63b8ff" points="944.1,-16.83 953.75,-12.45 943.47,-9.86 944.1,-16.83"/>
</a>
</g>
</g>
<!-- Node36&#45;&gt;Node21 -->
<g id="edge63_Node000036_Node000021" class="edge">
<title>Node36&#45;&gt;Node21</title>
<g id="a_edge63_Node000036_Node000021"><a xlink:title=" ">
<path fill="none" stroke="#63b8ff" d="M544.26,-59.63C561.37,-58.04 581.66,-56.27 600,-55 939,-31.46 1350.68,-15.83 1467.63,-11.63"/>
<polygon fill="#63b8ff" stroke="#63b8ff" points="1467.85,-15.13 1477.71,-11.27 1467.6,-8.13 1467.85,-15.13"/>
</a>
</g>
</g>
<!-- Node36&#45;&gt;Node22 -->
<g id="edge64_Node000036_Node000022" class="edge">
<title>Node36&#45;&gt;Node22</title>
<g id="a_edge64_Node000036_Node000022"><a xlink:title=" ">
<path fill="none" stroke="#63b8ff" d="M544.04,-56.63C601.99,-46.42 710.11,-27.38 767.66,-17.25"/>
<polygon fill="#63b8ff" stroke="#63b8ff" points="768.55,-20.65 777.79,-15.47 767.33,-13.75 768.55,-20.65"/>
</a>
</g>
</g>
<!-- Node37&#45;&gt;Node7 -->
<g id="edge68_Node000037_Node000007" class="edge">
<title>Node37&#45;&gt;Node7</title>
<g id="a_edge68_Node000037_Node000007"><a xlink:title=" ">
<path fill="none" stroke="#63b8ff" d="M157.98,-164.94C175.09,-150.79 211.74,-122.81 248,-110 264.41,-104.2 502.55,-79.43 598.94,-69.57"/>
<polygon fill="#63b8ff" stroke="#63b8ff" points="599.3,-73.05 608.89,-68.55 598.59,-66.09 599.3,-73.05"/>
</a>
</g>
</g>
<!-- Node37&#45;&gt;Node12 -->
<g id="edge67_Node000037_Node000012" class="edge">
<title>Node37&#45;&gt;Node12</title>
<g id="a_edge67_Node000037_Node000012"><a xlink:title=" ">
<path fill="none" stroke="#63b8ff" d="M171.3,-164.98C195.25,-156.23 232.78,-142.51 259.83,-132.62"/>
<polygon fill="#63b8ff" stroke="#63b8ff" points="261.09,-135.89 269.28,-129.17 258.69,-129.32 261.09,-135.89"/>
</a>
</g>
</g>
<!-- Node37&#45;&gt;Node35 -->
<g id="edge69_Node000037_Node000035" class="edge">
<title>Node37&#45;&gt;Node35</title>
<g id="a_edge69_Node000037_Node000035"><a xlink:title=" ">
<path fill="none" stroke="#63b8ff" d="M142.88,-164.75C138.64,-157.49 132.47,-146.95 127.22,-137.98"/>
<polygon fill="#63b8ff" stroke="#63b8ff" points="130.09,-135.95 122.02,-129.09 124.05,-139.49 130.09,-135.95"/>
</a>
</g>
</g>
<!-- Node38&#45;&gt;Node3 -->
<g id="edge71_Node000038_Node000003" class="edge">
<title>Node38&#45;&gt;Node3</title>
<g id="a_edge71_Node000038_Node000003"><a xlink:title=" ">
<path fill="none" stroke="#63b8ff" d="M32.32,-164.8C28.72,-151.21 24.25,-124.94 38,-110 69.43,-75.83 781.32,-24.11 943.38,-12.76"/>
<polygon fill="#63b8ff" stroke="#63b8ff" points="943.93,-16.23 953.66,-12.04 943.44,-9.24 943.93,-16.23"/>
</a>
</g>
</g>
<!-- Node38&#45;&gt;Node4 -->
<g id="edge72_Node000038_Node000004" class="edge">
<title>Node38&#45;&gt;Node4</title>
<g id="a_edge72_Node000038_Node000004"><a xlink:title=" ">
<path fill="none" stroke="#63b8ff" d="M70.03,-166.56C73.06,-166.01 76.08,-165.48 79,-165 183.57,-147.69 308.01,-131.83 366.89,-124.6"/>
<polygon fill="#63b8ff" stroke="#63b8ff" points="367.6,-128.04 377.1,-123.36 366.75,-121.1 367.6,-128.04"/>
</a>
</g>
</g>
<!-- Node38&#45;&gt;Node35 -->
<g id="edge73_Node000038_Node000035" class="edge">
<title>Node38&#45;&gt;Node35</title>
<g id="a_edge73_Node000038_Node000035"><a xlink:title=" ">
<path fill="none" stroke="#63b8ff" d="M48.17,-164.98C60.77,-156.84 80,-144.41 94.94,-134.76"/>
<polygon fill="#63b8ff" stroke="#63b8ff" points="97.09,-137.54 103.59,-129.17 93.29,-131.66 97.09,-137.54"/>
</a>
</g>
</g>
<!-- Node38&#45;&gt;Node36 -->
<g id="edge74_Node000038_Node000036" class="edge">
<title>Node38&#45;&gt;Node36</title>
<g id="a_edge74_Node000038_Node000036"><a xlink:title=" ">
<path fill="none" stroke="#63b8ff" d="M34.78,-164.91C34.94,-150.96 37.48,-123.61 54,-110 84.51,-84.86 345.18,-71.76 455.74,-67.3"/>
<polygon fill="#63b8ff" stroke="#63b8ff" points="456.11,-70.79 465.96,-66.89 455.83,-63.79 456.11,-70.79"/>
</a>
</g>
</g>
</g>
</svg>
