<?xml version="1.0" encoding="UTF-8" standalone="no"?>
<!DOCTYPE svg PUBLIC "-//W3C//DTD SVG 1.1//EN"
 "http://www.w3.org/Graphics/SVG/1.1/DTD/svg11.dtd">
<!-- Generated by graphviz version 2.43.0 (0)
 -->
<!-- Title: inc/TargetResourceHandler.hpp Pages: 1 -->
<svg width="3077pt" height="346pt"
 viewBox="0.00 0.00 3076.50 346.00" xmlns="http://www.w3.org/2000/svg" xmlns:xlink="http://www.w3.org/1999/xlink">
<g id="graph0" class="graph" transform="scale(1 1) rotate(0) translate(4 342)">
<title>inc/TargetResourceHandler.hpp</title>
<!-- Node1 -->
<g id="Node000001" class="node">
<title>Node1</title>
<g id="a_Node000001"><a xlink:title=" ">
<polygon fill="#999999" stroke="#666666" points="1799,-338 1632,-338 1632,-319 1799,-319 1799,-338"/>
<text text-anchor="middle" x="1715.5" y="-326" font-family="Helvetica,sans-Serif" font-size="10.00">inc/TargetResourceHandler.hpp</text>
</a>
</g>
</g>
<!-- Node2 -->
<g id="Node000002" class="node">
<title>Node2</title>
<g id="a_Node000002"><a xlink:href="_response_body_handler_8hpp.html" target="_top" xlink:title=" ">
<polygon fill="white" stroke="#666666" points="1545.5,-277.5 1381.5,-277.5 1381.5,-258.5 1545.5,-258.5 1545.5,-277.5"/>
<text text-anchor="middle" x="1463.5" y="-265.5" font-family="Helvetica,sans-Serif" font-size="10.00">inc/ResponseBodyHandler.hpp</text>
</a>
</g>
</g>
<!-- Node1&#45;&gt;Node2 -->
<g id="edge1_Node000001_Node000002" class="edge">
<title>Node1&#45;&gt;Node2</title>
<g id="a_edge1_Node000001_Node000002"><a xlink:title=" ">
<path fill="none" stroke="#63b8ff" d="M1668.89,-316.68C1620.2,-305.38 1544.81,-287.88 1500.19,-277.52"/>
<polygon fill="#63b8ff" stroke="#63b8ff" points="1668.32,-320.14 1678.86,-318.99 1669.91,-313.32 1668.32,-320.14"/>
</a>
</g>
</g>
<!-- Node4 -->
<g id="Node000004" class="node">
<title>Node4</title>
<g id="a_Node000004"><a xlink:href="_server_8hpp.html" target="_top" xlink:title=" ">
<polygon fill="white" stroke="#666666" points="1541.5,-151 1455.5,-151 1455.5,-132 1541.5,-132 1541.5,-151"/>
<text text-anchor="middle" x="1498.5" y="-139" font-family="Helvetica,sans-Serif" font-size="10.00">inc/Server.hpp</text>
</a>
</g>
</g>
<!-- Node1&#45;&gt;Node4 -->
<g id="edge28_Node000001_Node000004" class="edge">
<title>Node1&#45;&gt;Node4</title>
<g id="a_edge28_Node000001_Node000004"><a xlink:title=" ">
<path fill="none" stroke="#63b8ff" d="M1700.42,-311.32C1693.42,-303.24 1685.38,-293.06 1679.5,-283 1656.36,-243.37 1675.14,-218.2 1641.5,-187 1614.24,-161.72 1572.81,-150.79 1541.55,-146.08"/>
<polygon fill="#63b8ff" stroke="#63b8ff" points="1697.91,-313.77 1707.19,-318.89 1703.13,-309.1 1697.91,-313.77"/>
</a>
</g>
</g>
<!-- Node28 -->
<g id="Node000028" class="node">
<title>Node28</title>
<g id="a_Node000028"><a xlink:href="_target_resource_handler_8cpp.html" target="_top" xlink:title=" ">
<polygon fill="white" stroke="#666666" points="1855,-277.5 1688,-277.5 1688,-258.5 1855,-258.5 1855,-277.5"/>
<text text-anchor="middle" x="1771.5" y="-265.5" font-family="Helvetica,sans-Serif" font-size="10.00">src/TargetResourceHandler.cpp</text>
</a>
</g>
</g>
<!-- Node1&#45;&gt;Node28 -->
<g id="edge29_Node000001_Node000028" class="edge">
<title>Node1&#45;&gt;Node28</title>
<g id="a_edge29_Node000001_Node000028"><a xlink:title=" ">
<path fill="none" stroke="#63b8ff" d="M1730.73,-311.59C1741.19,-300.67 1754.67,-286.58 1763.2,-277.67"/>
<polygon fill="#63b8ff" stroke="#63b8ff" points="1728.15,-309.22 1723.76,-318.87 1733.21,-314.06 1728.15,-309.22"/>
</a>
</g>
</g>
<!-- Node29 -->
<g id="Node000029" class="node">
<title>Node29</title>
<g id="a_Node000029"><a xlink:href="test___target_resource_handler_8cpp.html" target="_top" xlink:title=" ">
<polygon fill="white" stroke="#666666" points="2032,-283 1873,-283 1873,-253 2032,-253 2032,-283"/>
<text text-anchor="start" x="1881" y="-271" font-family="Helvetica,sans-Serif" font-size="10.00">test/unit/test_TargetResource</text>
<text text-anchor="middle" x="1952.5" y="-260" font-family="Helvetica,sans-Serif" font-size="10.00">Handler.cpp</text>
</a>
</g>
</g>
<!-- Node1&#45;&gt;Node29 -->
<g id="edge30_Node000001_Node000029" class="edge">
<title>Node1&#45;&gt;Node29</title>
<g id="a_edge30_Node000001_Node000029"><a xlink:title=" ">
<path fill="none" stroke="#63b8ff" d="M1759.81,-316.56C1798.16,-307.1 1853.86,-293.35 1895.52,-283.06"/>
<polygon fill="#63b8ff" stroke="#63b8ff" points="1758.83,-313.2 1749.96,-318.99 1760.51,-320 1758.83,-313.2"/>
</a>
</g>
</g>
<!-- Node3 -->
<g id="Node000003" class="node">
<title>Node3</title>
<g id="a_Node000003"><a xlink:href="_response_builder_8hpp.html" target="_top" xlink:title=" ">
<polygon fill="white" stroke="#666666" points="1276.5,-211.5 1140.5,-211.5 1140.5,-192.5 1276.5,-192.5 1276.5,-211.5"/>
<text text-anchor="middle" x="1208.5" y="-199.5" font-family="Helvetica,sans-Serif" font-size="10.00">inc/ResponseBuilder.hpp</text>
</a>
</g>
</g>
<!-- Node2&#45;&gt;Node3 -->
<g id="edge2_Node000002_Node000003" class="edge">
<title>Node2&#45;&gt;Node3</title>
<g id="a_edge2_Node000002_Node000003"><a xlink:title=" ">
<path fill="none" stroke="#63b8ff" d="M1419.44,-255.94C1369.17,-243.32 1288.03,-222.96 1242.42,-211.51"/>
<polygon fill="#63b8ff" stroke="#63b8ff" points="1418.82,-259.4 1429.37,-258.44 1420.53,-252.61 1418.82,-259.4"/>
</a>
</g>
</g>
<!-- Node26 -->
<g id="Node000026" class="node">
<title>Node26</title>
<g id="a_Node000026"><a xlink:href="_response_body_handler_8cpp.html" target="_top" xlink:title=" ">
<polygon fill="white" stroke="#666666" points="1458.5,-211.5 1294.5,-211.5 1294.5,-192.5 1458.5,-192.5 1458.5,-211.5"/>
<text text-anchor="middle" x="1376.5" y="-199.5" font-family="Helvetica,sans-Serif" font-size="10.00">src/ResponseBodyHandler.cpp</text>
</a>
</g>
</g>
<!-- Node2&#45;&gt;Node26 -->
<g id="edge26_Node000002_Node000026" class="edge">
<title>Node2&#45;&gt;Node26</title>
<g id="a_edge26_Node000002_Node000026"><a xlink:title=" ">
<path fill="none" stroke="#63b8ff" d="M1443.56,-252.33C1426.5,-239.78 1402.51,-222.13 1388.33,-211.7"/>
<polygon fill="#63b8ff" stroke="#63b8ff" points="1441.64,-255.26 1451.77,-258.37 1445.79,-249.62 1441.64,-255.26"/>
</a>
</g>
</g>
<!-- Node27 -->
<g id="Node000027" class="node">
<title>Node27</title>
<g id="a_Node000027"><a xlink:href="test___response_body_handler_8cpp.html" target="_top" xlink:title=" ">
<polygon fill="white" stroke="#666666" points="1632.5,-217 1476.5,-217 1476.5,-187 1632.5,-187 1632.5,-217"/>
<text text-anchor="start" x="1484.5" y="-205" font-family="Helvetica,sans-Serif" font-size="10.00">test/unit/test_ResponseBody</text>
<text text-anchor="middle" x="1554.5" y="-194" font-family="Helvetica,sans-Serif" font-size="10.00">Handler.cpp</text>
</a>
</g>
</g>
<!-- Node2&#45;&gt;Node27 -->
<g id="edge27_Node000002_Node000027" class="edge">
<title>Node2&#45;&gt;Node27</title>
<g id="a_edge27_Node000002_Node000027"><a xlink:title=" ">
<path fill="none" stroke="#63b8ff" d="M1483.95,-252.62C1499.03,-242.01 1519.44,-227.66 1534.43,-217.12"/>
<polygon fill="#63b8ff" stroke="#63b8ff" points="1481.94,-249.75 1475.77,-258.37 1485.97,-255.48 1481.94,-249.75"/>
</a>
</g>
</g>
<!-- Node3&#45;&gt;Node4 -->
<g id="edge3_Node000003_Node000004" class="edge">
<title>Node3&#45;&gt;Node4</title>
<g id="a_edge3_Node000003_Node000004"><a xlink:title=" ">
<path fill="none" stroke="#63b8ff" d="M1260.74,-190.46C1316.72,-179.17 1404.5,-161.46 1456.28,-151.02"/>
<polygon fill="#63b8ff" stroke="#63b8ff" points="1259.78,-187.09 1250.67,-192.49 1261.16,-193.95 1259.78,-187.09"/>
</a>
</g>
</g>
<!-- Node25 -->
<g id="Node000025" class="node">
<title>Node25</title>
<g id="a_Node000025"><a xlink:href="_response_builder_8cpp.html" target="_top" xlink:title=" ">
<polygon fill="white" stroke="#666666" points="1276,-151 1141,-151 1141,-132 1276,-132 1276,-151"/>
<text text-anchor="middle" x="1208.5" y="-139" font-family="Helvetica,sans-Serif" font-size="10.00">src/ResponseBuilder.cpp</text>
</a>
</g>
</g>
<!-- Node3&#45;&gt;Node25 -->
<g id="edge25_Node000003_Node000025" class="edge">
<title>Node3&#45;&gt;Node25</title>
<g id="a_edge25_Node000003_Node000025"><a xlink:title=" ">
<path fill="none" stroke="#63b8ff" d="M1208.5,-182.16C1208.5,-171.74 1208.5,-159.3 1208.5,-151.17"/>
<polygon fill="#63b8ff" stroke="#63b8ff" points="1205,-182.37 1208.5,-192.37 1212,-182.37 1205,-182.37"/>
</a>
</g>
</g>
<!-- Node5 -->
<g id="Node000005" class="node">
<title>Node5</title>
<g id="a_Node000005"><a xlink:href="_config_file_parser_8hpp.html" target="_top" xlink:title=" ">
<polygon fill="white" stroke="#666666" points="296.5,-90.5 164.5,-90.5 164.5,-71.5 296.5,-71.5 296.5,-90.5"/>
<text text-anchor="middle" x="230.5" y="-78.5" font-family="Helvetica,sans-Serif" font-size="10.00">inc/ConfigFileParser.hpp</text>
</a>
</g>
</g>
<!-- Node4&#45;&gt;Node5 -->
<g id="edge4_Node000004_Node000005" class="edge">
<title>Node4&#45;&gt;Node5</title>
<g id="a_edge4_Node000004_Node000005"><a xlink:title=" ">
<path fill="none" stroke="#63b8ff" d="M1445.44,-138.36C1402.13,-136.61 1339.36,-134.11 1284.5,-132 854.74,-115.47 745.5,-138.24 317.5,-96 304.25,-94.69 289.96,-92.66 276.87,-90.54"/>
<polygon fill="#63b8ff" stroke="#63b8ff" points="1445.33,-141.85 1455.46,-138.76 1445.61,-134.86 1445.33,-141.85"/>
</a>
</g>
</g>
<!-- Node7 -->
<g id="Node000007" class="node">
<title>Node7</title>
<g id="a_Node000007"><a xlink:href="main_8cpp.html" target="_top" xlink:title=" ">
<polygon fill="white" stroke="#666666" points="379,-24.5 300,-24.5 300,-5.5 379,-5.5 379,-24.5"/>
<text text-anchor="middle" x="339.5" y="-12.5" font-family="Helvetica,sans-Serif" font-size="10.00">src/main.cpp</text>
</a>
</g>
</g>
<!-- Node4&#45;&gt;Node7 -->
<g id="edge9_Node000004_Node000007" class="edge">
<title>Node4&#45;&gt;Node7</title>
<g id="a_edge9_Node000004_Node000007"><a xlink:title=" ">
<path fill="none" stroke="#63b8ff" d="M1445.44,-138.38C1402.13,-136.65 1339.36,-134.15 1284.5,-132 1232.61,-129.97 388.97,-130.87 350.5,-96 330.35,-77.73 334.42,-41.21 337.58,-24.59"/>
<polygon fill="#63b8ff" stroke="#63b8ff" points="1445.33,-141.87 1455.46,-138.78 1445.61,-134.88 1445.33,-141.87"/>
</a>
</g>
</g>
<!-- Node9 -->
<g id="Node000009" class="node">
<title>Node9</title>
<g id="a_Node000009"><a xlink:href="_server_8cpp.html" target="_top" xlink:title=" ">
<polygon fill="white" stroke="#666666" points="445,-90.5 360,-90.5 360,-71.5 445,-71.5 445,-90.5"/>
<text text-anchor="middle" x="402.5" y="-78.5" font-family="Helvetica,sans-Serif" font-size="10.00">src/Server.cpp</text>
</a>
</g>
</g>
<!-- Node4&#45;&gt;Node9 -->
<g id="edge8_Node000004_Node000009" class="edge">
<title>Node4&#45;&gt;Node9</title>
<g id="a_edge8_Node000004_Node000009"><a xlink:title=" ">
<path fill="none" stroke="#63b8ff" d="M1445.29,-138.4C1235.81,-130.09 478.23,-99.87 453.5,-96 445.52,-94.75 437,-92.71 429.25,-90.56"/>
<polygon fill="#63b8ff" stroke="#63b8ff" points="1445.29,-141.9 1455.43,-138.8 1445.57,-134.9 1445.29,-141.9"/>
</a>
</g>
</g>
<!-- Node10 -->
<g id="Node000010" class="node">
<title>Node10</title>
<g id="a_Node000010"><a xlink:href="test__accept_connections_8cpp.html" target="_top" xlink:title=" ">
<polygon fill="white" stroke="#666666" points="660,-90.5 463,-90.5 463,-71.5 660,-71.5 660,-90.5"/>
<text text-anchor="middle" x="561.5" y="-78.5" font-family="Helvetica,sans-Serif" font-size="10.00">test/unit/test_acceptConnections.cpp</text>
</a>
</g>
</g>
<!-- Node4&#45;&gt;Node10 -->
<g id="edge10_Node000004_Node000010" class="edge">
<title>Node4&#45;&gt;Node10</title>
<g id="a_edge10_Node000004_Node000010"><a xlink:title=" ">
<path fill="none" stroke="#63b8ff" d="M1445.03,-138.16C1286.56,-131.13 821.03,-109.87 669.5,-96 653.68,-94.55 636.62,-92.55 620.83,-90.51"/>
<polygon fill="#63b8ff" stroke="#63b8ff" points="1445.32,-141.67 1455.46,-138.62 1445.63,-134.68 1445.32,-141.67"/>
</a>
</g>
</g>
<!-- Node11 -->
<g id="Node000011" class="node">
<title>Node11</title>
<g id="a_Node000011"><a xlink:href="test__check_for_timeout_8cpp.html" target="_top" xlink:title=" ">
<polygon fill="white" stroke="#666666" points="866.5,-90.5 678.5,-90.5 678.5,-71.5 866.5,-71.5 866.5,-90.5"/>
<text text-anchor="middle" x="772.5" y="-78.5" font-family="Helvetica,sans-Serif" font-size="10.00">test/unit/test_checkForTimeout.cpp</text>
</a>
</g>
</g>
<!-- Node4&#45;&gt;Node11 -->
<g id="edge11_Node000004_Node000011" class="edge">
<title>Node4&#45;&gt;Node11</title>
<g id="a_edge11_Node000004_Node000011"><a xlink:title=" ">
<path fill="none" stroke="#63b8ff" d="M1445.08,-137.84C1337.22,-132.2 1085.83,-117.78 875.5,-96 860.87,-94.48 845.12,-92.52 830.44,-90.53"/>
<polygon fill="#63b8ff" stroke="#63b8ff" points="1445.2,-141.35 1455.37,-138.37 1445.56,-134.36 1445.2,-141.35"/>
</a>
</g>
</g>
<!-- Node12 -->
<g id="Node000012" class="node">
<title>Node12</title>
<g id="a_Node000012"><a xlink:href="test__connection_receive_from_c_g_i_8cpp.html" target="_top" xlink:title=" ">
<polygon fill="white" stroke="#666666" points="1022,-96 885,-96 885,-66 1022,-66 1022,-96"/>
<text text-anchor="start" x="893" y="-84" font-family="Helvetica,sans-Serif" font-size="10.00">test/unit/test_connection</text>
<text text-anchor="middle" x="953.5" y="-73" font-family="Helvetica,sans-Serif" font-size="10.00">ReceiveFromCGI.cpp</text>
</a>
</g>
</g>
<!-- Node4&#45;&gt;Node12 -->
<g id="edge12_Node000004_Node000012" class="edge">
<title>Node4&#45;&gt;Node12</title>
<g id="a_edge12_Node000004_Node000012"><a xlink:title=" ">
<path fill="none" stroke="#63b8ff" d="M1445.3,-136.92C1358.29,-130.74 1180.25,-116.69 1030.5,-96 1027.81,-95.63 1025.07,-95.23 1022.3,-94.81"/>
<polygon fill="#63b8ff" stroke="#63b8ff" points="1445.23,-140.43 1455.45,-137.64 1445.72,-133.44 1445.23,-140.43"/>
</a>
</g>
</g>
<!-- Node13 -->
<g id="Node000013" class="node">
<title>Node13</title>
<g id="a_Node000013"><a xlink:href="test__connection_receive_header_8cpp.html" target="_top" xlink:title=" ">
<polygon fill="white" stroke="#666666" points="1177,-96 1040,-96 1040,-66 1177,-66 1177,-96"/>
<text text-anchor="start" x="1048" y="-84" font-family="Helvetica,sans-Serif" font-size="10.00">test/unit/test_connection</text>
<text text-anchor="middle" x="1108.5" y="-73" font-family="Helvetica,sans-Serif" font-size="10.00">ReceiveHeader.cpp</text>
</a>
</g>
</g>
<!-- Node4&#45;&gt;Node13 -->
<g id="edge13_Node000004_Node000013" class="edge">
<title>Node4&#45;&gt;Node13</title>
<g id="a_edge13_Node000004_Node000013"><a xlink:title=" ">
<path fill="none" stroke="#63b8ff" d="M1445.39,-133.59C1383.05,-125.32 1276.6,-110.75 1185.5,-96 1182.82,-95.57 1180.08,-95.11 1177.32,-94.65"/>
<polygon fill="#63b8ff" stroke="#63b8ff" points="1445.01,-137.07 1455.39,-134.91 1445.93,-130.13 1445.01,-137.07"/>
</a>
</g>
</g>
<!-- Node14 -->
<g id="Node000014" class="node">
<title>Node14</title>
<g id="a_Node000014"><a xlink:href="test__connection_send_response_8cpp.html" target="_top" xlink:title=" ">
<polygon fill="white" stroke="#666666" points="1332,-96 1195,-96 1195,-66 1332,-66 1332,-96"/>
<text text-anchor="start" x="1203" y="-84" font-family="Helvetica,sans-Serif" font-size="10.00">test/unit/test_connection</text>
<text text-anchor="middle" x="1263.5" y="-73" font-family="Helvetica,sans-Serif" font-size="10.00">SendResponse.cpp</text>
</a>
</g>
</g>
<!-- Node4&#45;&gt;Node14 -->
<g id="edge14_Node000004_Node000014" class="edge">
<title>Node4&#45;&gt;Node14</title>
<g id="a_edge14_Node000004_Node000014"><a xlink:title=" ">
<path fill="none" stroke="#63b8ff" d="M1454.57,-129.56C1416.54,-120.1 1361.31,-106.35 1320,-96.06"/>
<polygon fill="#63b8ff" stroke="#63b8ff" points="1453.78,-132.97 1464.33,-131.99 1455.47,-126.18 1453.78,-132.97"/>
</a>
</g>
</g>
<!-- Node15 -->
<g id="Node000015" class="node">
<title>Node15</title>
<g id="a_Node000015"><a xlink:href="test__connection_send_to_c_g_i_8cpp.html" target="_top" xlink:title=" ">
<polygon fill="white" stroke="#666666" points="1487,-96 1350,-96 1350,-66 1487,-66 1487,-96"/>
<text text-anchor="start" x="1358" y="-84" font-family="Helvetica,sans-Serif" font-size="10.00">test/unit/test_connection</text>
<text text-anchor="middle" x="1418.5" y="-73" font-family="Helvetica,sans-Serif" font-size="10.00">SendToCGI.cpp</text>
</a>
</g>
</g>
<!-- Node4&#45;&gt;Node15 -->
<g id="edge15_Node000004_Node000015" class="edge">
<title>Node4&#45;&gt;Node15</title>
<g id="a_edge15_Node000004_Node000015"><a xlink:title=" ">
<path fill="none" stroke="#63b8ff" d="M1478.35,-125.77C1465.92,-116.68 1450.07,-105.09 1437.8,-96.11"/>
<polygon fill="#63b8ff" stroke="#63b8ff" points="1476.56,-128.79 1486.7,-131.87 1480.69,-123.14 1476.56,-128.79"/>
</a>
</g>
</g>
<!-- Node16 -->
<g id="Node000016" class="node">
<title>Node16</title>
<g id="a_Node000016"><a xlink:href="test__create_virtual_server_8cpp.html" target="_top" xlink:title=" ">
<polygon fill="white" stroke="#666666" points="1652,-96 1505,-96 1505,-66 1652,-66 1652,-96"/>
<text text-anchor="start" x="1513" y="-84" font-family="Helvetica,sans-Serif" font-size="10.00">test/unit/test_createVirtual</text>
<text text-anchor="middle" x="1578.5" y="-73" font-family="Helvetica,sans-Serif" font-size="10.00">Server.cpp</text>
</a>
</g>
</g>
<!-- Node4&#45;&gt;Node16 -->
<g id="edge16_Node000004_Node000016" class="edge">
<title>Node4&#45;&gt;Node16</title>
<g id="a_edge16_Node000004_Node000016"><a xlink:title=" ">
<path fill="none" stroke="#63b8ff" d="M1518.65,-125.77C1531.08,-116.68 1546.93,-105.09 1559.2,-96.11"/>
<polygon fill="#63b8ff" stroke="#63b8ff" points="1516.31,-123.14 1510.3,-131.87 1520.44,-128.79 1516.31,-123.14"/>
</a>
</g>
</g>
<!-- Node17 -->
<g id="Node000017" class="node">
<title>Node17</title>
<g id="a_Node000017"><a xlink:href="test__handle_complete_request_header_8cpp.html" target="_top" xlink:title=" ">
<polygon fill="white" stroke="#666666" points="1834.5,-96 1670.5,-96 1670.5,-66 1834.5,-66 1834.5,-96"/>
<text text-anchor="start" x="1678.5" y="-84" font-family="Helvetica,sans-Serif" font-size="10.00">test/unit/test_handleComplete</text>
<text text-anchor="middle" x="1752.5" y="-73" font-family="Helvetica,sans-Serif" font-size="10.00">RequestHeader.cpp</text>
</a>
</g>
</g>
<!-- Node4&#45;&gt;Node17 -->
<g id="edge17_Node000004_Node000017" class="edge">
<title>Node4&#45;&gt;Node17</title>
<g id="a_edge17_Node000004_Node000017"><a xlink:title=" ">
<path fill="none" stroke="#63b8ff" d="M1545.2,-129.74C1586.32,-120.27 1646.5,-106.41 1691.43,-96.06"/>
<polygon fill="#63b8ff" stroke="#63b8ff" points="1544.39,-126.34 1535.43,-131.99 1545.96,-133.16 1544.39,-126.34"/>
</a>
</g>
</g>
<!-- Node18 -->
<g id="Node000018" class="node">
<title>Node18</title>
<g id="a_Node000018"><a xlink:href="test__init_virtual_servers_8cpp.html" target="_top" xlink:title=" ">
<polygon fill="white" stroke="#666666" points="1984.5,-96 1852.5,-96 1852.5,-66 1984.5,-66 1984.5,-96"/>
<text text-anchor="start" x="1860.5" y="-84" font-family="Helvetica,sans-Serif" font-size="10.00">test/unit/test_initVirtual</text>
<text text-anchor="middle" x="1918.5" y="-73" font-family="Helvetica,sans-Serif" font-size="10.00">Servers.cpp</text>
</a>
</g>
</g>
<!-- Node4&#45;&gt;Node18 -->
<g id="edge18_Node000004_Node000018" class="edge">
<title>Node4&#45;&gt;Node18</title>
<g id="a_edge18_Node000004_Node000018"><a xlink:title=" ">
<path fill="none" stroke="#63b8ff" d="M1551.66,-134.58C1619.53,-126.81 1740.51,-112.24 1843.5,-96 1846.38,-95.55 1849.32,-95.07 1852.28,-94.57"/>
<polygon fill="#63b8ff" stroke="#63b8ff" points="1551.18,-131.12 1541.64,-135.73 1551.97,-138.07 1551.18,-131.12"/>
</a>
</g>
</g>
<!-- Node19 -->
<g id="Node000019" class="node">
<title>Node19</title>
<g id="a_Node000019"><a xlink:href="test__is_duplicate_server_8cpp.html" target="_top" xlink:title=" ">
<polygon fill="white" stroke="#666666" points="2142,-96 2003,-96 2003,-66 2142,-66 2142,-96"/>
<text text-anchor="start" x="2011" y="-84" font-family="Helvetica,sans-Serif" font-size="10.00">test/unit/test_isDuplicate</text>
<text text-anchor="middle" x="2072.5" y="-73" font-family="Helvetica,sans-Serif" font-size="10.00">Server.cpp</text>
</a>
</g>
</g>
<!-- Node4&#45;&gt;Node19 -->
<g id="edge19_Node000004_Node000019" class="edge">
<title>Node4&#45;&gt;Node19</title>
<g id="a_edge19_Node000004_Node000019"><a xlink:title=" ">
<path fill="none" stroke="#63b8ff" d="M1551.73,-137.22C1642.59,-131.28 1833.32,-117.35 1993.5,-96 1996.54,-95.6 1999.64,-95.16 2002.76,-94.69"/>
<polygon fill="#63b8ff" stroke="#63b8ff" points="1551.43,-133.73 1541.68,-137.87 1551.88,-140.72 1551.43,-133.73"/>
</a>
</g>
</g>
<!-- Node20 -->
<g id="Node000020" class="node">
<title>Node20</title>
<g id="a_Node000020"><a xlink:href="test__register_c_g_i_file_descriptor_8cpp.html" target="_top" xlink:title=" ">
<polygon fill="white" stroke="#666666" points="2316.5,-96 2160.5,-96 2160.5,-66 2316.5,-66 2316.5,-96"/>
<text text-anchor="start" x="2168.5" y="-84" font-family="Helvetica,sans-Serif" font-size="10.00">test/unit/test_registerCGIFile</text>
<text text-anchor="middle" x="2238.5" y="-73" font-family="Helvetica,sans-Serif" font-size="10.00">Descriptor.cpp</text>
</a>
</g>
</g>
<!-- Node4&#45;&gt;Node20 -->
<g id="edge20_Node000004_Node000020" class="edge">
<title>Node4&#45;&gt;Node20</title>
<g id="a_edge20_Node000004_Node000020"><a xlink:title=" ">
<path fill="none" stroke="#63b8ff" d="M1552.12,-138.51C1663.88,-133.99 1929.76,-121.34 2151.5,-96 2154.39,-95.67 2157.33,-95.31 2160.29,-94.93"/>
<polygon fill="#63b8ff" stroke="#63b8ff" points="1551.65,-135.02 1541.8,-138.92 1551.93,-142.02 1551.65,-135.02"/>
</a>
</g>
</g>
<!-- Node21 -->
<g id="Node000021" class="node">
<title>Node21</title>
<g id="a_Node000021"><a xlink:href="test__register_connection_8cpp.html" target="_top" xlink:title=" ">
<polygon fill="white" stroke="#666666" points="2532,-90.5 2335,-90.5 2335,-71.5 2532,-71.5 2532,-90.5"/>
<text text-anchor="middle" x="2433.5" y="-78.5" font-family="Helvetica,sans-Serif" font-size="10.00">test/unit/test_registerConnection.cpp</text>
</a>
</g>
</g>
<!-- Node4&#45;&gt;Node21 -->
<g id="edge21_Node000004_Node000021" class="edge">
<title>Node4&#45;&gt;Node21</title>
<g id="a_edge21_Node000004_Node000021"><a xlink:title=" ">
<path fill="none" stroke="#63b8ff" d="M1551.83,-139.02C1683.44,-135.06 2034.13,-122.69 2325.5,-96 2341.32,-94.55 2358.38,-92.55 2374.17,-90.51"/>
<polygon fill="#63b8ff" stroke="#63b8ff" points="1551.52,-135.53 1541.63,-139.32 1551.73,-142.52 1551.52,-135.53"/>
</a>
</g>
</g>
<!-- Node22 -->
<g id="Node000022" class="node">
<title>Node22</title>
<g id="a_Node000022"><a xlink:href="test__register_virtual_server_8cpp.html" target="_top" xlink:title=" ">
<polygon fill="white" stroke="#666666" points="2704.5,-96 2550.5,-96 2550.5,-66 2704.5,-66 2704.5,-96"/>
<text text-anchor="start" x="2558.5" y="-84" font-family="Helvetica,sans-Serif" font-size="10.00">test/unit/test_registerVirtual</text>
<text text-anchor="middle" x="2627.5" y="-73" font-family="Helvetica,sans-Serif" font-size="10.00">Server.cpp</text>
</a>
</g>
</g>
<!-- Node4&#45;&gt;Node22 -->
<g id="edge22_Node000004_Node000022" class="edge">
<title>Node4&#45;&gt;Node22</title>
<g id="a_edge22_Node000004_Node000022"><a xlink:title=" ">
<path fill="none" stroke="#63b8ff" d="M1551.98,-140.46C1706.04,-139.85 2163.89,-134.65 2541.5,-96 2544.36,-95.71 2547.27,-95.38 2550.2,-95.03"/>
<polygon fill="#63b8ff" stroke="#63b8ff" points="1551.84,-136.96 1541.85,-140.49 1551.86,-143.96 1551.84,-136.96"/>
</a>
</g>
</g>
<!-- Node23 -->
<g id="Node000023" class="node">
<title>Node23</title>
<g id="a_Node000023"><a xlink:href="test__select_server_config_8cpp.html" target="_top" xlink:title=" ">
<polygon fill="white" stroke="#666666" points="2868,-96 2723,-96 2723,-66 2868,-66 2868,-96"/>
<text text-anchor="start" x="2731" y="-84" font-family="Helvetica,sans-Serif" font-size="10.00">test/unit/test_selectServer</text>
<text text-anchor="middle" x="2795.5" y="-73" font-family="Helvetica,sans-Serif" font-size="10.00">Config.cpp</text>
</a>
</g>
</g>
<!-- Node4&#45;&gt;Node23 -->
<g id="edge23_Node000004_Node000023" class="edge">
<title>Node4&#45;&gt;Node23</title>
<g id="a_edge23_Node000004_Node000023"><a xlink:title=" ">
<path fill="none" stroke="#63b8ff" d="M1551.87,-141.06C1721.94,-142.31 2266.19,-142.17 2713.5,-96 2716.52,-95.69 2719.59,-95.33 2722.69,-94.95"/>
<polygon fill="#63b8ff" stroke="#63b8ff" points="1551.72,-137.56 1541.69,-140.98 1551.66,-144.56 1551.72,-137.56"/>
</a>
</g>
</g>
<!-- Node24 -->
<g id="Node000024" class="node">
<title>Node24</title>
<g id="a_Node000024"><a xlink:href="test__shutdown_server_8cpp.html" target="_top" xlink:title=" ">
<polygon fill="white" stroke="#666666" points="3068.5,-90.5 2886.5,-90.5 2886.5,-71.5 3068.5,-71.5 3068.5,-90.5"/>
<text text-anchor="middle" x="2977.5" y="-78.5" font-family="Helvetica,sans-Serif" font-size="10.00">test/unit/test_shutdownServer.cpp</text>
</a>
</g>
</g>
<!-- Node4&#45;&gt;Node24 -->
<g id="edge24_Node000004_Node000024" class="edge">
<title>Node4&#45;&gt;Node24</title>
<g id="a_edge24_Node000004_Node000024"><a xlink:title=" ">
<path fill="none" stroke="#63b8ff" d="M1552.02,-140.83C1736.49,-141.51 2362.75,-140.21 2877.5,-96 2892.78,-94.69 2909.3,-92.64 2924.42,-90.51"/>
<polygon fill="#63b8ff" stroke="#63b8ff" points="1551.8,-137.33 1541.78,-140.78 1551.77,-144.33 1551.8,-137.33"/>
</a>
</g>
</g>
<!-- Node6 -->
<g id="Node000006" class="node">
<title>Node6</title>
<g id="a_Node000006"><a xlink:href="_config_file_parser_8cpp.html" target="_top" xlink:title=" ">
<polygon fill="white" stroke="#666666" points="131,-24.5 0,-24.5 0,-5.5 131,-5.5 131,-24.5"/>
<text text-anchor="middle" x="65.5" y="-12.5" font-family="Helvetica,sans-Serif" font-size="10.00">src/ConfigFileParser.cpp</text>
</a>
</g>
</g>
<!-- Node5&#45;&gt;Node6 -->
<g id="edge5_Node000005_Node000006" class="edge">
<title>Node5&#45;&gt;Node6</title>
<g id="a_edge5_Node000005_Node000006"><a xlink:title=" ">
<path fill="none" stroke="#63b8ff" d="M198.73,-67.68C166.12,-55.03 116.24,-35.68 87.66,-24.6"/>
<polygon fill="#63b8ff" stroke="#63b8ff" points="197.66,-71.02 208.25,-71.37 200.19,-64.49 197.66,-71.02"/>
</a>
</g>
</g>
<!-- Node5&#45;&gt;Node7 -->
<g id="edge6_Node000005_Node000007" class="edge">
<title>Node5&#45;&gt;Node7</title>
<g id="a_edge6_Node000005_Node000007"><a xlink:title=" ">
<path fill="none" stroke="#63b8ff" d="M254.02,-66.19C275.47,-53.59 306.51,-35.37 324.68,-24.7"/>
<polygon fill="#63b8ff" stroke="#63b8ff" points="252.05,-63.29 245.2,-71.37 255.6,-69.32 252.05,-63.29"/>
</a>
</g>
</g>
<!-- Node8 -->
<g id="Node000008" class="node">
<title>Node8</title>
<g id="a_Node000008"><a xlink:href="test___config_file_parser_8cpp.html" target="_top" xlink:title=" ">
<polygon fill="white" stroke="#666666" points="281.5,-30 149.5,-30 149.5,0 281.5,0 281.5,-30"/>
<text text-anchor="start" x="157.5" y="-18" font-family="Helvetica,sans-Serif" font-size="10.00">test/unit/test_ConfigFile</text>
<text text-anchor="middle" x="215.5" y="-7" font-family="Helvetica,sans-Serif" font-size="10.00">Parser.cpp</text>
</a>
</g>
</g>
<!-- Node5&#45;&gt;Node8 -->
<g id="edge7_Node000005_Node000008" class="edge">
<title>Node5&#45;&gt;Node8</title>
<g id="a_edge7_Node000005_Node000008"><a xlink:title=" ">
<path fill="none" stroke="#63b8ff" d="M226.13,-61.35C223.81,-51.47 221.01,-39.51 218.87,-30.36"/>
<polygon fill="#63b8ff" stroke="#63b8ff" points="222.79,-62.43 228.48,-71.37 229.6,-60.83 222.79,-62.43"/>
</a>
</g>
</g>
</g>
</svg>
