<?xml version="1.0" encoding="UTF-8" standalone="no"?>
<!DOCTYPE svg PUBLIC "-//W3C//DTD SVG 1.1//EN"
 "http://www.w3.org/Graphics/SVG/1.1/DTD/svg11.dtd">
<!-- Generated by graphviz version 2.43.0 (0)
 -->
<!-- Title: inc/TargetResourceHandler.hpp Pages: 1 -->
<!--zoomable 357 -->

<svg id="main" version="1.1" xmlns="http://www.w3.org/2000/svg" xmlns:xlink="http://www.w3.org/1999/xlink" xml:space="preserve" onload="init(evt)">
<style type="text/css"><![CDATA[
.node, .edge {opacity: 0.7;}
.node.selected, .edge.selected {opacity: 1;}
.edge:hover path { stroke: red; }
.edge:hover polygon { stroke: red; fill: red; }
]]></style>

<defs>
  <circle id="rim" cx="0" cy="0" r="7"/>
  <circle id="rim2" cx="0" cy="0" r="3.5"/>
  <g id="zoomPlus">
    <use xlink:href="#rim" fill="#404040"><set attributeName="fill" to="#808080" begin="zoomplus.mouseover" end="zoomplus.mouseout"/></use>
    <path d="M-4,0h8M0,-4v8" fill="none" stroke="white" stroke-width="1.5" pointer-events="none"/>
  </g>
  <g id="zoomMin">
    <use xlink:href="#rim" fill="#404040"><set attributeName="fill" to="#808080" begin="zoomminus.mouseover" end="zoomminus.mouseout"/></use>
    <path d="M-4,0h8" fill="none" stroke="white" stroke-width="1.5" pointer-events="none"/>
  </g>
  <g id="arrowUp" transform="translate(30 24)">
    <use xlink:href="#rim"/>
    <path pointer-events="none" fill="none" stroke="white" stroke-width="1.5" d="M0,-3.0v7 M-2.5,-0.5L0,-3.0L2.5,-0.5"/>
  </g>
  <g id="arrowRight" transform="rotate(90) translate(36 -43)">
    <use xlink:href="#rim"/>
    <path pointer-events="none" fill="none" stroke="white" stroke-width="1.5" d="M0,-3.0v7 M-2.5,-0.5L0,-3.0L2.5,-0.5"/>
  </g>
  <g id="arrowDown" transform="rotate(180) translate(-30 -48)">
    <use xlink:href="#rim"/>
    <path pointer-events="none" fill="none" stroke="white" stroke-width="1.5" d="M0,-3.0v7 M-2.5,-0.5L0,-3.0L2.5,-0.5"/>
  </g>
  <g id="arrowLeft" transform="rotate(270) translate(-36 17)">
    <use xlink:href="#rim"/>
    <path pointer-events="none" fill="none" stroke="white" stroke-width="1.5" d="M0,-3.0v7 M-2.5,-0.5L0,-3.0L2.5,-0.5"/>
  </g>
  <g id="resetDef">
    <use xlink:href="#rim2" fill="#404040"><set attributeName="fill" to="#808080" begin="reset.mouseover" end="reset.mouseout"/></use>
  </g>
</defs>
<script type="application/ecmascript">
var viewWidth = 3713;
var viewHeight = 357;
var sectionId = 'dynsection-1';
</script>
<script type="application/ecmascript" xlink:href="svg.min.js"/>
<svg id="graph" class="graph">
<g id="viewport">
<title>inc/TargetResourceHandler.hpp</title>
<!-- Node1 -->
<g id="Node000001" class="node">
<title>Node1</title>
<g id="a_Node000001"><a xlink:title=" ">
<polygon fill="#999999" stroke="#666666" points="2025,-349 1858,-349 1858,-330 2025,-330 2025,-349"/>
<text text-anchor="middle" x="1941.5" y="-337" font-family="Helvetica,sans-Serif" font-size="10.00">inc/TargetResourceHandler.hpp</text>
</a>
</g>
</g>
<!-- Node2 -->
<g id="Node000002" class="node">
<title>Node2</title>
<g id="a_Node000002"><a xlink:href="_c_g_i_handler_8hpp.html" target="_top" xlink:title=" ">
<polygon fill="white" stroke="#666666" points="1803.5,-222.5 1693.5,-222.5 1693.5,-203.5 1803.5,-203.5 1803.5,-222.5"/>
<text text-anchor="middle" x="1748.5" y="-210.5" font-family="Helvetica,sans-Serif" font-size="10.00">inc/CGIHandler.hpp</text>
</a>
</g>
</g>
<!-- Node1&#45;&gt;Node2 -->
<g id="edge1_Node000001_Node000002" class="edge">
<title>Node1&#45;&gt;Node2</title>
<g id="a_edge1_Node000001_Node000002"><a xlink:title=" ">
<path fill="none" stroke="#63b8ff" d="M1892.57,-327.24C1868.56,-320.2 1840.04,-309.48 1817.5,-294 1788.47,-274.06 1764.17,-239.03 1753.84,-222.76"/>
<polygon fill="#63b8ff" stroke="#63b8ff" points="1891.63,-330.61 1902.21,-329.94 1893.52,-323.87 1891.63,-330.61"/>
</a>
</g>
</g>
<!-- Node3 -->
<g id="Node000003" class="node">
<title>Node3</title>
<g id="a_Node000003"><a xlink:href="_server_8hpp.html" target="_top" xlink:title=" ">
<polygon fill="white" stroke="#666666" points="2004.5,-156.5 1918.5,-156.5 1918.5,-137.5 2004.5,-137.5 2004.5,-156.5"/>
<text text-anchor="middle" x="1961.5" y="-144.5" font-family="Helvetica,sans-Serif" font-size="10.00">inc/Server.hpp</text>
</a>
</g>
</g>
<!-- Node1&#45;&gt;Node3 -->
<g id="edge41_Node000001_Node000003" class="edge">
<title>Node1&#45;&gt;Node3</title>
<g id="a_edge41_Node000001_Node000003"><a xlink:title=" ">
<path fill="none" stroke="#63b8ff" d="M1893.43,-326.41C1876.91,-319.7 1860.15,-309.46 1850.5,-294 1827.91,-257.8 1827.34,-233.83 1850.5,-198 1865.47,-174.84 1894.02,-162.29 1918.42,-155.57"/>
<polygon fill="#63b8ff" stroke="#63b8ff" points="1892.48,-329.79 1903.08,-329.96 1894.9,-323.22 1892.48,-329.79"/>
</a>
</g>
</g>
<!-- Node33 -->
<g id="Node000033" class="node">
<title>Node33</title>
<g id="a_Node000033"><a xlink:href="_response_body_handler_8hpp.html" target="_top" xlink:title=" ">
<polygon fill="white" stroke="#666666" points="2023.5,-288.5 1859.5,-288.5 1859.5,-269.5 2023.5,-269.5 2023.5,-288.5"/>
<text text-anchor="middle" x="1941.5" y="-276.5" font-family="Helvetica,sans-Serif" font-size="10.00">inc/ResponseBodyHandler.hpp</text>
</a>
</g>
</g>
<!-- Node1&#45;&gt;Node33 -->
<g id="edge34_Node000001_Node000033" class="edge">
<title>Node1&#45;&gt;Node33</title>
<g id="a_edge34_Node000001_Node000033"><a xlink:title=" ">
<path fill="none" stroke="#63b8ff" d="M1941.5,-319.66C1941.5,-309.24 1941.5,-296.8 1941.5,-288.67"/>
<polygon fill="#63b8ff" stroke="#63b8ff" points="1938,-319.87 1941.5,-329.87 1945,-319.87 1938,-319.87"/>
</a>
</g>
</g>
<!-- Node39 -->
<g id="Node000039" class="node">
<title>Node39</title>
<g id="a_Node000039"><a xlink:href="_target_resource_handler_8cpp.html" target="_top" xlink:title=" ">
<polygon fill="white" stroke="#666666" points="2209,-288.5 2042,-288.5 2042,-269.5 2209,-269.5 2209,-288.5"/>
<text text-anchor="middle" x="2125.5" y="-276.5" font-family="Helvetica,sans-Serif" font-size="10.00">src/TargetResourceHandler.cpp</text>
</a>
</g>
</g>
<!-- Node1&#45;&gt;Node39 -->
<g id="edge42_Node000001_Node000039" class="edge">
<title>Node1&#45;&gt;Node39</title>
<g id="a_edge42_Node000001_Node000039"><a xlink:title=" ">
<path fill="none" stroke="#63b8ff" d="M1977.79,-326.96C2013.38,-315.65 2066.81,-298.66 2098.71,-288.52"/>
<polygon fill="#63b8ff" stroke="#63b8ff" points="1976.72,-323.63 1968.26,-329.99 1978.85,-330.3 1976.72,-323.63"/>
</a>
</g>
</g>
<!-- Node40 -->
<g id="Node000040" class="node">
<title>Node40</title>
<g id="a_Node000040"><a xlink:href="test___target_resource_handler_8cpp.html" target="_top" xlink:title=" ">
<polygon fill="white" stroke="#666666" points="2382,-294 2227,-294 2227,-264 2382,-264 2382,-294"/>
<text text-anchor="start" x="2235" y="-282" font-family="Helvetica,sans-Serif" font-size="10.00">test/unit/src/test</text>
<text text-anchor="middle" x="2304.5" y="-271" font-family="Helvetica,sans-Serif" font-size="10.00">_TargetResourceHandler.cpp</text>
</a>
</g>
</g>
<!-- Node1&#45;&gt;Node40 -->
<g id="edge43_Node000001_Node000040" class="edge">
<title>Node1&#45;&gt;Node40</title>
<g id="a_edge43_Node000001_Node000040"><a xlink:title=" ">
<path fill="none" stroke="#63b8ff" d="M2005.02,-328.33C2061.16,-319.34 2145.28,-305.84 2218.5,-294 2221.19,-293.57 2223.92,-293.12 2226.69,-292.67"/>
<polygon fill="#63b8ff" stroke="#63b8ff" points="2004.19,-324.92 1994.87,-329.96 2005.29,-331.83 2004.19,-324.92"/>
</a>
</g>
</g>
<!-- Node2&#45;&gt;Node3 -->
<g id="edge2_Node000002_Node000003" class="edge">
<title>Node2&#45;&gt;Node3</title>
<g id="a_edge2_Node000002_Node000003"><a xlink:title=" ">
<path fill="none" stroke="#63b8ff" d="M1786.83,-200.48C1828.82,-187.87 1895.21,-167.92 1932.89,-156.6"/>
<polygon fill="#63b8ff" stroke="#63b8ff" points="1785.8,-197.14 1777.23,-203.37 1787.81,-203.84 1785.8,-197.14"/>
</a>
</g>
</g>
<!-- Node10 -->
<g id="Node000010" class="node">
<title>Node10</title>
<g id="a_Node000010"><a xlink:href="test___c_g_i_handler_8cpp.html" target="_top" xlink:title=" ">
<polygon fill="white" stroke="#666666" points="97,-30 0,-30 0,0 97,0 97,-30"/>
<text text-anchor="start" x="8" y="-18" font-family="Helvetica,sans-Serif" font-size="10.00">test/unit/src/test</text>
<text text-anchor="middle" x="48.5" y="-7" font-family="Helvetica,sans-Serif" font-size="10.00">_CGIHandler.cpp</text>
</a>
</g>
</g>
<!-- Node2&#45;&gt;Node10 -->
<g id="edge33_Node000002_Node000010" class="edge">
<title>Node2&#45;&gt;Node10</title>
<g id="a_edge33_Node000002_Node000010"><a xlink:title=" ">
<path fill="none" stroke="#63b8ff" d="M1749.6,-193.1C1749.54,-174.47 1746.18,-146.72 1728.5,-132 1589.73,-16.46 285.06,-56.95 106.5,-30 103.43,-29.54 100.28,-28.99 97.11,-28.38"/>
<polygon fill="#63b8ff" stroke="#63b8ff" points="1746.09,-193.23 1749.3,-203.32 1753.09,-193.43 1746.09,-193.23"/>
</a>
</g>
</g>
<!-- Node32 -->
<g id="Node000032" class="node">
<title>Node32</title>
<g id="a_Node000032"><a xlink:href="_c_g_i_handler_8cpp.html" target="_top" xlink:title=" ">
<polygon fill="white" stroke="#666666" points="1720,-156.5 1611,-156.5 1611,-137.5 1720,-137.5 1720,-156.5"/>
<text text-anchor="middle" x="1665.5" y="-144.5" font-family="Helvetica,sans-Serif" font-size="10.00">src/CGIHandler.cpp</text>
</a>
</g>
</g>
<!-- Node2&#45;&gt;Node32 -->
<g id="edge32_Node000002_Node000032" class="edge">
<title>Node2&#45;&gt;Node32</title>
<g id="a_edge32_Node000002_Node000032"><a xlink:title=" ">
<path fill="none" stroke="#63b8ff" d="M1729.03,-196.99C1712.78,-184.46 1690.19,-167.04 1676.78,-156.7"/>
<polygon fill="#63b8ff" stroke="#63b8ff" points="1727.25,-200.03 1737.31,-203.37 1731.52,-194.49 1727.25,-200.03"/>
</a>
</g>
</g>
<!-- Node4 -->
<g id="Node000004" class="node">
<title>Node4</title>
<g id="a_Node000004"><a xlink:href="_config_file_parser_8hpp.html" target="_top" xlink:title=" ">
<polygon fill="white" stroke="#666666" points="3506.5,-90.5 3374.5,-90.5 3374.5,-71.5 3506.5,-71.5 3506.5,-90.5"/>
<text text-anchor="middle" x="3440.5" y="-78.5" font-family="Helvetica,sans-Serif" font-size="10.00">inc/ConfigFileParser.hpp</text>
</a>
</g>
</g>
<!-- Node3&#45;&gt;Node4 -->
<g id="edge3_Node000003_Node000004" class="edge">
<title>Node3&#45;&gt;Node4</title>
<g id="a_edge3_Node000003_Node000004"><a xlink:title=" ">
<path fill="none" stroke="#63b8ff" d="M2004.78,-135.29C2011.35,-133.98 2018.08,-132.82 2024.5,-132 2290.62,-98.02 3131.25,-85.65 3374.16,-82.73"/>
<polygon fill="#63b8ff" stroke="#63b8ff" points="2003.71,-131.94 1994.65,-137.44 2005.16,-138.79 2003.71,-131.94"/>
</a>
</g>
</g>
<!-- Node6 -->
<g id="Node000006" class="node">
<title>Node6</title>
<g id="a_Node000006"><a xlink:href="main_8cpp.html" target="_top" xlink:title=" ">
<polygon fill="white" stroke="#666666" points="3419,-24.5 3340,-24.5 3340,-5.5 3419,-5.5 3419,-24.5"/>
<text text-anchor="middle" x="3379.5" y="-12.5" font-family="Helvetica,sans-Serif" font-size="10.00">src/main.cpp</text>
</a>
</g>
</g>
<!-- Node3&#45;&gt;Node6 -->
<g id="edge8_Node000003_Node000006" class="edge">
<title>Node3&#45;&gt;Node6</title>
<g id="a_edge8_Node000003_Node000006"><a xlink:title=" ">
<path fill="none" stroke="#63b8ff" d="M1976.2,-129.64C1995.8,-108.29 2029.96,-72.83 2046.5,-66 2178.42,-11.53 3189.45,-51.77 3330.5,-30 3338.28,-28.8 3346.58,-26.74 3354.08,-24.57"/>
<polygon fill="#63b8ff" stroke="#63b8ff" points="1973.37,-127.55 1969.23,-137.3 1978.55,-132.26 1973.37,-127.55"/>
</a>
</g>
</g>
<!-- Node8 -->
<g id="Node000008" class="node">
<title>Node8</title>
<g id="a_Node000008"><a xlink:href="_server_8cpp.html" target="_top" xlink:title=" ">
<polygon fill="white" stroke="#666666" points="1999,-90.5 1914,-90.5 1914,-71.5 1999,-71.5 1999,-90.5"/>
<text text-anchor="middle" x="1956.5" y="-78.5" font-family="Helvetica,sans-Serif" font-size="10.00">src/Server.cpp</text>
</a>
</g>
</g>
<!-- Node3&#45;&gt;Node8 -->
<g id="edge7_Node000003_Node000008" class="edge">
<title>Node3&#45;&gt;Node8</title>
<g id="a_edge7_Node000003_Node000008"><a xlink:title=" ">
<path fill="none" stroke="#63b8ff" d="M1960.02,-127.08C1959.09,-115.13 1957.92,-100.22 1957.2,-90.91"/>
<polygon fill="#63b8ff" stroke="#63b8ff" points="1956.56,-127.67 1960.83,-137.37 1963.54,-127.13 1956.56,-127.67"/>
</a>
</g>
</g>
<!-- Node9 -->
<g id="Node000009" class="node">
<title>Node9</title>
<g id="a_Node000009"><a xlink:href="test__helpers_8hpp.html" target="_top" xlink:title=" ">
<polygon fill="white" stroke="#666666" points="1875.5,-96 1779.5,-96 1779.5,-66 1875.5,-66 1875.5,-96"/>
<text text-anchor="start" x="1787.5" y="-84" font-family="Helvetica,sans-Serif" font-size="10.00">test/unit/inc/test</text>
<text text-anchor="middle" x="1827.5" y="-73" font-family="Helvetica,sans-Serif" font-size="10.00">_helpers.hpp</text>
</a>
</g>
</g>
<!-- Node3&#45;&gt;Node9 -->
<g id="edge9_Node000003_Node000009" class="edge">
<title>Node3&#45;&gt;Node9</title>
<g id="a_edge9_Node000003_Node000009"><a xlink:title=" ">
<path fill="none" stroke="#63b8ff" d="M1934.14,-132.93C1911.72,-122.22 1880.05,-107.1 1857.05,-96.12"/>
<polygon fill="#63b8ff" stroke="#63b8ff" points="1932.9,-136.22 1943.43,-137.37 1935.91,-129.9 1932.9,-136.22"/>
</a>
</g>
</g>
<!-- Node31 -->
<g id="Node000031" class="node">
<title>Node31</title>
<g id="a_Node000031"><a xlink:href="test__select_server_config_8cpp.html" target="_top" xlink:title=" ">
<polygon fill="white" stroke="#666666" points="2189.5,-96 2055.5,-96 2055.5,-66 2189.5,-66 2189.5,-96"/>
<text text-anchor="start" x="2063.5" y="-84" font-family="Helvetica,sans-Serif" font-size="10.00">test/unit/src/test</text>
<text text-anchor="middle" x="2122.5" y="-73" font-family="Helvetica,sans-Serif" font-size="10.00">_selectServerConfig.cpp</text>
</a>
</g>
</g>
<!-- Node3&#45;&gt;Node31 -->
<g id="edge31_Node000003_Node000031" class="edge">
<title>Node3&#45;&gt;Node31</title>
<g id="a_edge31_Node000003_Node000031"><a xlink:title=" ">
<path fill="none" stroke="#63b8ff" d="M1992.58,-133.65C2019.6,-122.9 2058.74,-107.35 2086.99,-96.12"/>
<polygon fill="#63b8ff" stroke="#63b8ff" points="1991.21,-130.42 1983.21,-137.37 1993.8,-136.93 1991.21,-130.42"/>
</a>
</g>
</g>
<!-- Node5 -->
<g id="Node000005" class="node">
<title>Node5</title>
<g id="a_Node000005"><a xlink:href="_config_file_parser_8cpp.html" target="_top" xlink:title=" ">
<polygon fill="white" stroke="#666666" points="3568,-24.5 3437,-24.5 3437,-5.5 3568,-5.5 3568,-24.5"/>
<text text-anchor="middle" x="3502.5" y="-12.5" font-family="Helvetica,sans-Serif" font-size="10.00">src/ConfigFileParser.cpp</text>
</a>
</g>
</g>
<!-- Node4&#45;&gt;Node5 -->
<g id="edge4_Node000004_Node000005" class="edge">
<title>Node4&#45;&gt;Node5</title>
<g id="a_edge4_Node000004_Node000005"><a xlink:title=" ">
<path fill="none" stroke="#63b8ff" d="M3456.02,-63.98C3467.99,-51.62 3484.1,-34.99 3493.87,-24.91"/>
<polygon fill="#63b8ff" stroke="#63b8ff" points="3453.31,-61.75 3448.86,-71.37 3458.33,-66.62 3453.31,-61.75"/>
</a>
</g>
</g>
<!-- Node4&#45;&gt;Node6 -->
<g id="edge5_Node000004_Node000006" class="edge">
<title>Node4&#45;&gt;Node6</title>
<g id="a_edge5_Node000004_Node000006"><a xlink:title=" ">
<path fill="none" stroke="#63b8ff" d="M3425.23,-63.98C3413.45,-51.62 3397.6,-34.99 3387.99,-24.91"/>
<polygon fill="#63b8ff" stroke="#63b8ff" points="3422.84,-66.54 3432.27,-71.37 3427.91,-61.72 3422.84,-66.54"/>
</a>
</g>
</g>
<!-- Node7 -->
<g id="Node000007" class="node">
<title>Node7</title>
<g id="a_Node000007"><a xlink:href="test___config_file_parser_8cpp.html" target="_top" xlink:title=" ">
<polygon fill="white" stroke="#666666" points="3705,-30 3586,-30 3586,0 3705,0 3705,-30"/>
<text text-anchor="start" x="3594" y="-18" font-family="Helvetica,sans-Serif" font-size="10.00">test/unit/src/test</text>
<text text-anchor="middle" x="3645.5" y="-7" font-family="Helvetica,sans-Serif" font-size="10.00">_ConfigFileParser.cpp</text>
</a>
</g>
</g>
<!-- Node4&#45;&gt;Node7 -->
<g id="edge6_Node000004_Node000007" class="edge">
<title>Node4&#45;&gt;Node7</title>
<g id="a_edge6_Node000004_Node000007"><a xlink:title=" ">
<path fill="none" stroke="#63b8ff" d="M3477.83,-68.35C3512.28,-57.59 3563.53,-41.59 3600.29,-30.12"/>
<polygon fill="#63b8ff" stroke="#63b8ff" points="3476.65,-65.05 3468.15,-71.37 3478.74,-71.73 3476.65,-65.05"/>
</a>
</g>
</g>
<!-- Node9&#45;&gt;Node10 -->
<g id="edge10_Node000009_Node000010" class="edge">
<title>Node9&#45;&gt;Node10</title>
<g id="a_edge10_Node000009_Node000010"><a xlink:title=" ">
<path fill="none" stroke="#63b8ff" d="M1769.3,-66.9C1767.01,-66.57 1764.74,-66.26 1762.5,-66 1031.35,19.89 836.53,-124.92 106.5,-30 103.42,-29.6 100.26,-29.1 97.09,-28.53"/>
<polygon fill="#63b8ff" stroke="#63b8ff" points="1768.96,-70.4 1779.4,-68.57 1770.1,-63.49 1768.96,-70.4"/>
</a>
</g>
</g>
<!-- Node11 -->
<g id="Node000011" class="node">
<title>Node11</title>
<g id="a_Node000011"><a xlink:href="test__accept_connections_8cpp.html" target="_top" xlink:title=" ">
<polygon fill="white" stroke="#666666" points="249.5,-30 115.5,-30 115.5,0 249.5,0 249.5,-30"/>
<text text-anchor="start" x="123.5" y="-18" font-family="Helvetica,sans-Serif" font-size="10.00">test/unit/src/test</text>
<text text-anchor="middle" x="182.5" y="-7" font-family="Helvetica,sans-Serif" font-size="10.00">_acceptConnections.cpp</text>
</a>
</g>
</g>
<!-- Node9&#45;&gt;Node11 -->
<g id="edge11_Node000009_Node000011" class="edge">
<title>Node9&#45;&gt;Node11</title>
<g id="a_edge11_Node000009_Node000011"><a xlink:title=" ">
<path fill="none" stroke="#63b8ff" d="M1769.3,-66.91C1767.01,-66.57 1764.74,-66.27 1762.5,-66 1098.52,12.74 923.59,-98.78 258.5,-30 255.56,-29.7 252.57,-29.34 249.55,-28.95"/>
<polygon fill="#63b8ff" stroke="#63b8ff" points="1768.96,-70.4 1779.4,-68.58 1770.1,-63.5 1768.96,-70.4"/>
</a>
</g>
</g>
<!-- Node12 -->
<g id="Node000012" class="node">
<title>Node12</title>
<g id="a_Node000012"><a xlink:href="test__check_for_timeout_8cpp.html" target="_top" xlink:title=" ">
<polygon fill="white" stroke="#666666" points="393.5,-30 267.5,-30 267.5,0 393.5,0 393.5,-30"/>
<text text-anchor="start" x="275.5" y="-18" font-family="Helvetica,sans-Serif" font-size="10.00">test/unit/src/test</text>
<text text-anchor="middle" x="330.5" y="-7" font-family="Helvetica,sans-Serif" font-size="10.00">_checkForTimeout.cpp</text>
</a>
</g>
</g>
<!-- Node9&#45;&gt;Node12 -->
<g id="edge12_Node000009_Node000012" class="edge">
<title>Node9&#45;&gt;Node12</title>
<g id="a_edge12_Node000009_Node000012"><a xlink:title=" ">
<path fill="none" stroke="#63b8ff" d="M1769.3,-66.92C1767.01,-66.58 1764.73,-66.27 1762.5,-66 1162.14,5.97 1003.55,-95.93 402.5,-30 399.59,-29.68 396.62,-29.31 393.63,-28.89"/>
<polygon fill="#63b8ff" stroke="#63b8ff" points="1768.96,-70.41 1779.39,-68.6 1770.1,-63.5 1768.96,-70.41"/>
</a>
</g>
</g>
<!-- Node13 -->
<g id="Node000013" class="node">
<title>Node13</title>
<g id="a_Node000013"><a xlink:href="test__connection_build_response_8cpp.html" target="_top" xlink:title=" ">
<polygon fill="white" stroke="#666666" points="579,-30 412,-30 412,0 579,0 579,-30"/>
<text text-anchor="start" x="420" y="-18" font-family="Helvetica,sans-Serif" font-size="10.00">test/unit/src/test</text>
<text text-anchor="middle" x="495.5" y="-7" font-family="Helvetica,sans-Serif" font-size="10.00">_connectionBuildResponse.cpp</text>
</a>
</g>
</g>
<!-- Node9&#45;&gt;Node13 -->
<g id="edge13_Node000009_Node000013" class="edge">
<title>Node9&#45;&gt;Node13</title>
<g id="a_edge13_Node000009_Node000013"><a xlink:title=" ">
<path fill="none" stroke="#63b8ff" d="M1769.29,-66.93C1767.01,-66.58 1764.73,-66.27 1762.5,-66 1244.32,-2.78 1108.41,-76.94 588.5,-30 585.41,-29.72 582.27,-29.41 579.09,-29.06"/>
<polygon fill="#63b8ff" stroke="#63b8ff" points="1768.95,-70.42 1779.39,-68.62 1770.11,-63.52 1768.95,-70.42"/>
</a>
</g>
</g>
<!-- Node14 -->
<g id="Node000014" class="node">
<title>Node14</title>
<g id="a_Node000014"><a xlink:href="test__connection_handle_timeout_8cpp.html" target="_top" xlink:title=" ">
<polygon fill="white" stroke="#666666" points="767.5,-30 597.5,-30 597.5,0 767.5,0 767.5,-30"/>
<text text-anchor="start" x="605.5" y="-18" font-family="Helvetica,sans-Serif" font-size="10.00">test/unit/src/test</text>
<text text-anchor="middle" x="682.5" y="-7" font-family="Helvetica,sans-Serif" font-size="10.00">_connectionHandleTimeout.cpp</text>
</a>
</g>
</g>
<!-- Node9&#45;&gt;Node14 -->
<g id="edge14_Node000009_Node000014" class="edge">
<title>Node9&#45;&gt;Node14</title>
<g id="a_edge14_Node000009_Node000014"><a xlink:title=" ">
<path fill="none" stroke="#63b8ff" d="M1769.29,-66.95C1767,-66.6 1764.73,-66.28 1762.5,-66 1327.37,-11.62 1213.15,-70.36 776.5,-30 773.54,-29.73 770.54,-29.42 767.5,-29.09"/>
<polygon fill="#63b8ff" stroke="#63b8ff" points="1768.94,-70.44 1779.39,-68.65 1770.11,-63.53 1768.94,-70.44"/>
</a>
</g>
</g>
<!-- Node15 -->
<g id="Node000015" class="node">
<title>Node15</title>
<g id="a_Node000015"><a xlink:href="test__connection_receive_body_8cpp.html" target="_top" xlink:title=" ">
<polygon fill="white" stroke="#666666" points="943.5,-30 785.5,-30 785.5,0 943.5,0 943.5,-30"/>
<text text-anchor="start" x="793.5" y="-18" font-family="Helvetica,sans-Serif" font-size="10.00">test/unit/src/test</text>
<text text-anchor="middle" x="864.5" y="-7" font-family="Helvetica,sans-Serif" font-size="10.00">_connectionReceiveBody.cpp</text>
</a>
</g>
</g>
<!-- Node9&#45;&gt;Node15 -->
<g id="edge15_Node000009_Node000015" class="edge">
<title>Node9&#45;&gt;Node15</title>
<g id="a_edge15_Node000009_Node000015"><a xlink:title=" ">
<path fill="none" stroke="#63b8ff" d="M1769.29,-66.97C1767,-66.61 1764.73,-66.29 1762.5,-66 1405.11,-19.9 1311.02,-66.37 952.5,-30 949.58,-29.7 946.6,-29.37 943.6,-29.02"/>
<polygon fill="#63b8ff" stroke="#63b8ff" points="1768.93,-70.46 1779.38,-68.7 1770.12,-63.56 1768.93,-70.46"/>
</a>
</g>
</g>
<!-- Node16 -->
<g id="Node000016" class="node">
<title>Node16</title>
<g id="a_Node000016"><a xlink:href="test__connection_receive_from_c_g_i_8cpp.html" target="_top" xlink:title=" ">
<polygon fill="white" stroke="#666666" points="1137.5,-30 961.5,-30 961.5,0 1137.5,0 1137.5,-30"/>
<text text-anchor="start" x="969.5" y="-18" font-family="Helvetica,sans-Serif" font-size="10.00">test/unit/src/test</text>
<text text-anchor="middle" x="1049.5" y="-7" font-family="Helvetica,sans-Serif" font-size="10.00">_connectionReceiveFromCGI.cpp</text>
</a>
</g>
</g>
<!-- Node9&#45;&gt;Node16 -->
<g id="edge16_Node000009_Node000016" class="edge">
<title>Node9&#45;&gt;Node16</title>
<g id="a_edge16_Node000009_Node000016"><a xlink:title=" ">
<path fill="none" stroke="#63b8ff" d="M1769.28,-67.01C1767,-66.64 1764.73,-66.3 1762.5,-66 1490.32,-28.97 1418.77,-57.85 1145.5,-30 1142.9,-29.74 1140.27,-29.45 1137.61,-29.15"/>
<polygon fill="#63b8ff" stroke="#63b8ff" points="1768.92,-70.5 1779.37,-68.77 1770.12,-63.6 1768.92,-70.5"/>
</a>
</g>
</g>
<!-- Node17 -->
<g id="Node000017" class="node">
<title>Node17</title>
<g id="a_Node000017"><a xlink:href="test__connection_receive_header_8cpp.html" target="_top" xlink:title=" ">
<polygon fill="white" stroke="#666666" points="1324,-30 1155,-30 1155,0 1324,0 1324,-30"/>
<text text-anchor="start" x="1163" y="-18" font-family="Helvetica,sans-Serif" font-size="10.00">test/unit/src/test</text>
<text text-anchor="middle" x="1239.5" y="-7" font-family="Helvetica,sans-Serif" font-size="10.00">_connectionReceiveHeader.cpp</text>
</a>
</g>
</g>
<!-- Node9&#45;&gt;Node17 -->
<g id="edge17_Node000009_Node000017" class="edge">
<title>Node9&#45;&gt;Node17</title>
<g id="a_edge17_Node000009_Node000017"><a xlink:title=" ">
<path fill="none" stroke="#63b8ff" d="M1769.27,-67.08C1766.99,-66.69 1764.73,-66.33 1762.5,-66 1572.81,-37.75 1522.98,-52.29 1332.5,-30 1329.74,-29.68 1326.94,-29.34 1324.12,-28.98"/>
<polygon fill="#63b8ff" stroke="#63b8ff" points="1768.89,-70.57 1779.35,-68.91 1770.14,-63.68 1768.89,-70.57"/>
</a>
</g>
</g>
<!-- Node18 -->
<g id="Node000018" class="node">
<title>Node18</title>
<g id="a_Node000018"><a xlink:href="test__connection_send_response_8cpp.html" target="_top" xlink:title=" ">
<polygon fill="white" stroke="#666666" points="1509,-30 1342,-30 1342,0 1509,0 1509,-30"/>
<text text-anchor="start" x="1350" y="-18" font-family="Helvetica,sans-Serif" font-size="10.00">test/unit/src/test</text>
<text text-anchor="middle" x="1425.5" y="-7" font-family="Helvetica,sans-Serif" font-size="10.00">_connectionSendResponse.cpp</text>
</a>
</g>
</g>
<!-- Node9&#45;&gt;Node18 -->
<g id="edge18_Node000009_Node000018" class="edge">
<title>Node9&#45;&gt;Node18</title>
<g id="a_edge18_Node000009_Node000018"><a xlink:title=" ">
<path fill="none" stroke="#63b8ff" d="M1769.25,-67.26C1766.97,-66.82 1764.72,-66.4 1762.5,-66 1654.2,-46.4 1626.35,-46.28 1517.5,-30 1514.78,-29.59 1512.02,-29.18 1509.23,-28.76"/>
<polygon fill="#63b8ff" stroke="#63b8ff" points="1768.81,-70.74 1779.3,-69.25 1770.17,-63.87 1768.81,-70.74"/>
</a>
</g>
</g>
<!-- Node19 -->
<g id="Node000019" class="node">
<title>Node19</title>
<g id="a_Node000019"><a xlink:href="test__connection_send_to_c_g_i_8cpp.html" target="_top" xlink:title=" ">
<polygon fill="white" stroke="#666666" points="1674,-30 1527,-30 1527,0 1674,0 1674,-30"/>
<text text-anchor="start" x="1535" y="-18" font-family="Helvetica,sans-Serif" font-size="10.00">test/unit/src/test</text>
<text text-anchor="middle" x="1600.5" y="-7" font-family="Helvetica,sans-Serif" font-size="10.00">_connectionSendToCGI.cpp</text>
</a>
</g>
</g>
<!-- Node9&#45;&gt;Node19 -->
<g id="edge19_Node000009_Node000019" class="edge">
<title>Node9&#45;&gt;Node19</title>
<g id="a_edge19_Node000009_Node000019"><a xlink:title=" ">
<path fill="none" stroke="#63b8ff" d="M1769.29,-63.59C1732.55,-53.23 1685.59,-39.99 1650.54,-30.11"/>
<polygon fill="#63b8ff" stroke="#63b8ff" points="1768.78,-67.08 1779.36,-66.43 1770.68,-60.34 1768.78,-67.08"/>
</a>
</g>
</g>
<!-- Node20 -->
<g id="Node000020" class="node">
<title>Node20</title>
<g id="a_Node000020"><a xlink:href="test__create_virtual_server_8cpp.html" target="_top" xlink:title=" ">
<polygon fill="white" stroke="#666666" points="1828.5,-30 1692.5,-30 1692.5,0 1828.5,0 1828.5,-30"/>
<text text-anchor="start" x="1700.5" y="-18" font-family="Helvetica,sans-Serif" font-size="10.00">test/unit/src/test</text>
<text text-anchor="middle" x="1760.5" y="-7" font-family="Helvetica,sans-Serif" font-size="10.00">_createVirtualServer.cpp</text>
</a>
</g>
</g>
<!-- Node9&#45;&gt;Node20 -->
<g id="edge20_Node000009_Node000020" class="edge">
<title>Node9&#45;&gt;Node20</title>
<g id="a_edge20_Node000009_Node000020"><a xlink:title=" ">
<path fill="none" stroke="#63b8ff" d="M1805.15,-58.65C1795.33,-49.27 1784.08,-38.53 1775.33,-30.16"/>
<polygon fill="#63b8ff" stroke="#63b8ff" points="1802.98,-61.42 1812.63,-65.8 1807.82,-56.36 1802.98,-61.42"/>
</a>
</g>
</g>
<!-- Node21 -->
<g id="Node000021" class="node">
<title>Node21</title>
<g id="a_Node000021"><a xlink:href="test__handle_body_8cpp.html" target="_top" xlink:title=" ">
<polygon fill="white" stroke="#666666" points="1944.5,-30 1846.5,-30 1846.5,0 1944.5,0 1944.5,-30"/>
<text text-anchor="start" x="1854.5" y="-18" font-family="Helvetica,sans-Serif" font-size="10.00">test/unit/src/test</text>
<text text-anchor="middle" x="1895.5" y="-7" font-family="Helvetica,sans-Serif" font-size="10.00">_handleBody.cpp</text>
</a>
</g>
</g>
<!-- Node9&#45;&gt;Node21 -->
<g id="edge21_Node000009_Node000021" class="edge">
<title>Node9&#45;&gt;Node21</title>
<g id="a_edge21_Node000009_Node000021"><a xlink:title=" ">
<path fill="none" stroke="#63b8ff" d="M1849.89,-58.92C1859.92,-49.49 1871.48,-38.61 1880.45,-30.16"/>
<polygon fill="#63b8ff" stroke="#63b8ff" points="1847.47,-56.39 1842.59,-65.8 1852.27,-61.49 1847.47,-56.39"/>
</a>
</g>
</g>
<!-- Node22 -->
<g id="Node000022" class="node">
<title>Node22</title>
<g id="a_Node000022"><a xlink:href="test__handle_complete_request_header_8cpp.html" target="_top" xlink:title=" ">
<polygon fill="white" stroke="#666666" points="2160,-30 1963,-30 1963,0 2160,0 2160,-30"/>
<text text-anchor="start" x="1971" y="-18" font-family="Helvetica,sans-Serif" font-size="10.00">test/unit/src/test</text>
<text text-anchor="middle" x="2061.5" y="-7" font-family="Helvetica,sans-Serif" font-size="10.00">_handleCompleteRequestHeader.cpp</text>
</a>
</g>
</g>
<!-- Node9&#45;&gt;Node22 -->
<g id="edge22_Node000009_Node000022" class="edge">
<title>Node9&#45;&gt;Node22</title>
<g id="a_edge22_Node000009_Node000022"><a xlink:title=" ">
<path fill="none" stroke="#63b8ff" d="M1885.65,-64.09C1923.85,-53.65 1973.37,-40.1 2010.12,-30.05"/>
<polygon fill="#63b8ff" stroke="#63b8ff" points="1884.42,-60.8 1875.7,-66.82 1886.27,-67.55 1884.42,-60.8"/>
</a>
</g>
</g>
<!-- Node23 -->
<g id="Node000023" class="node">
<title>Node23</title>
<g id="a_Node000023"><a xlink:href="test__handle_event_8cpp.html" target="_top" xlink:title=" ">
<polygon fill="white" stroke="#666666" points="2281,-30 2178,-30 2178,0 2281,0 2281,-30"/>
<text text-anchor="start" x="2186" y="-18" font-family="Helvetica,sans-Serif" font-size="10.00">test/unit/src/test</text>
<text text-anchor="middle" x="2229.5" y="-7" font-family="Helvetica,sans-Serif" font-size="10.00">_handleEvent.cpp</text>
</a>
</g>
</g>
<!-- Node9&#45;&gt;Node23 -->
<g id="edge23_Node000009_Node000023" class="edge">
<title>Node9&#45;&gt;Node23</title>
<g id="a_edge23_Node000009_Node000023"><a xlink:title=" ">
<path fill="none" stroke="#63b8ff" d="M1885.5,-69.17C1891.9,-68.06 1898.34,-66.98 1904.5,-66 2021.89,-47.36 2052.61,-51.53 2169.5,-30 2172.24,-29.5 2175.03,-28.95 2177.85,-28.38"/>
<polygon fill="#63b8ff" stroke="#63b8ff" points="1884.74,-65.75 1875.5,-70.93 1885.96,-72.64 1884.74,-65.75"/>
</a>
</g>
</g>
<!-- Node24 -->
<g id="Node000024" class="node">
<title>Node24</title>
<g id="a_Node000024"><a xlink:href="test__helpers_8cpp.html" target="_top" xlink:title=" ">
<polygon fill="white" stroke="#666666" points="2395.5,-30 2299.5,-30 2299.5,0 2395.5,0 2395.5,-30"/>
<text text-anchor="start" x="2307.5" y="-18" font-family="Helvetica,sans-Serif" font-size="10.00">test/unit/src/test</text>
<text text-anchor="middle" x="2347.5" y="-7" font-family="Helvetica,sans-Serif" font-size="10.00">_helpers.cpp</text>
</a>
</g>
</g>
<!-- Node9&#45;&gt;Node24 -->
<g id="edge24_Node000009_Node000024" class="edge">
<title>Node9&#45;&gt;Node24</title>
<g id="a_edge24_Node000009_Node000024"><a xlink:title=" ">
<path fill="none" stroke="#63b8ff" d="M1885.74,-68.86C1892.06,-67.82 1898.4,-66.84 1904.5,-66 2075.2,-42.57 2120.59,-58.63 2290.5,-30 2293.41,-29.51 2296.4,-28.95 2299.4,-28.34"/>
<polygon fill="#63b8ff" stroke="#63b8ff" points="1885.13,-65.41 1875.87,-70.54 1886.31,-72.31 1885.13,-65.41"/>
</a>
</g>
</g>
<!-- Node25 -->
<g id="Node000025" class="node">
<title>Node25</title>
<g id="a_Node000025"><a xlink:href="test__init_virtual_servers_8cpp.html" target="_top" xlink:title=" ">
<polygon fill="white" stroke="#666666" points="2541,-30 2414,-30 2414,0 2541,0 2541,-30"/>
<text text-anchor="start" x="2422" y="-18" font-family="Helvetica,sans-Serif" font-size="10.00">test/unit/src/test</text>
<text text-anchor="middle" x="2477.5" y="-7" font-family="Helvetica,sans-Serif" font-size="10.00">_initVirtualServers.cpp</text>
</a>
</g>
</g>
<!-- Node9&#45;&gt;Node25 -->
<g id="edge25_Node000009_Node000025" class="edge">
<title>Node9&#45;&gt;Node25</title>
<g id="a_edge25_Node000009_Node000025"><a xlink:title=" ">
<path fill="none" stroke="#63b8ff" d="M1885.72,-68.73C1892.04,-67.71 1898.4,-66.77 1904.5,-66 2125.54,-38.03 2183.6,-59.03 2404.5,-30 2407.57,-29.6 2410.71,-29.15 2413.87,-28.66"/>
<polygon fill="#63b8ff" stroke="#63b8ff" points="1885.13,-65.28 1875.85,-70.39 1886.29,-72.18 1885.13,-65.28"/>
</a>
</g>
</g>
<!-- Node26 -->
<g id="Node000026" class="node">
<title>Node26</title>
<g id="a_Node000026"><a xlink:href="test__is_duplicate_server_8cpp.html" target="_top" xlink:title=" ">
<polygon fill="white" stroke="#666666" points="2687.5,-30 2559.5,-30 2559.5,0 2687.5,0 2687.5,-30"/>
<text text-anchor="start" x="2567.5" y="-18" font-family="Helvetica,sans-Serif" font-size="10.00">test/unit/src/test</text>
<text text-anchor="middle" x="2623.5" y="-7" font-family="Helvetica,sans-Serif" font-size="10.00">_isDuplicateServer.cpp</text>
</a>
</g>
</g>
<!-- Node9&#45;&gt;Node26 -->
<g id="edge26_Node000009_Node000026" class="edge">
<title>Node9&#45;&gt;Node26</title>
<g id="a_edge26_Node000009_Node000026"><a xlink:title=" ">
<path fill="none" stroke="#63b8ff" d="M1885.71,-68.63C1892.03,-67.63 1898.39,-66.72 1904.5,-66 2190.06,-32.22 2265.1,-65.16 2550.5,-30 2553.45,-29.64 2556.45,-29.23 2559.48,-28.78"/>
<polygon fill="#63b8ff" stroke="#63b8ff" points="1885.12,-65.18 1875.83,-70.27 1886.27,-72.08 1885.12,-65.18"/>
</a>
</g>
</g>
<!-- Node27 -->
<g id="Node000027" class="node">
<title>Node27</title>
<g id="a_Node000027"><a xlink:href="test__register_c_g_i_file_descriptor_8cpp.html" target="_top" xlink:title=" ">
<polygon fill="white" stroke="#666666" points="2869.5,-30 2705.5,-30 2705.5,0 2869.5,0 2869.5,-30"/>
<text text-anchor="start" x="2713.5" y="-18" font-family="Helvetica,sans-Serif" font-size="10.00">test/unit/src/test</text>
<text text-anchor="middle" x="2787.5" y="-7" font-family="Helvetica,sans-Serif" font-size="10.00">_registerCGIFileDescriptor.cpp</text>
</a>
</g>
</g>
<!-- Node9&#45;&gt;Node27 -->
<g id="edge27_Node000009_Node000027" class="edge">
<title>Node9&#45;&gt;Node27</title>
<g id="a_edge27_Node000009_Node000027"><a xlink:title=" ">
<path fill="none" stroke="#63b8ff" d="M1885.7,-68.56C1892.03,-67.58 1898.39,-66.69 1904.5,-66 2254.63,-26.39 2345.86,-64.84 2696.5,-30 2699.36,-29.72 2702.27,-29.4 2705.21,-29.06"/>
<polygon fill="#63b8ff" stroke="#63b8ff" points="1885.12,-65.11 1875.82,-70.19 1886.26,-72.02 1885.12,-65.11"/>
</a>
</g>
</g>
<!-- Node28 -->
<g id="Node000028" class="node">
<title>Node28</title>
<g id="a_Node000028"><a xlink:href="test__register_connection_8cpp.html" target="_top" xlink:title=" ">
<polygon fill="white" stroke="#666666" points="3021.5,-30 2887.5,-30 2887.5,0 3021.5,0 3021.5,-30"/>
<text text-anchor="start" x="2895.5" y="-18" font-family="Helvetica,sans-Serif" font-size="10.00">test/unit/src/test</text>
<text text-anchor="middle" x="2954.5" y="-7" font-family="Helvetica,sans-Serif" font-size="10.00">_registerConnection.cpp</text>
</a>
</g>
</g>
<!-- Node9&#45;&gt;Node28 -->
<g id="edge28_Node000009_Node000028" class="edge">
<title>Node9&#45;&gt;Node28</title>
<g id="a_edge28_Node000009_Node000028"><a xlink:title=" ">
<path fill="none" stroke="#63b8ff" d="M1885.69,-68.51C1892.02,-67.53 1898.38,-66.67 1904.5,-66 2335.14,-19.14 2447.91,-77.36 2878.5,-30 2881.43,-29.68 2884.42,-29.31 2887.44,-28.9"/>
<polygon fill="#63b8ff" stroke="#63b8ff" points="1885.12,-65.06 1875.81,-70.13 1886.25,-71.97 1885.12,-65.06"/>
</a>
</g>
</g>
<!-- Node29 -->
<g id="Node000029" class="node">
<title>Node29</title>
<g id="a_Node000029"><a xlink:href="test__register_virtual_server_8cpp.html" target="_top" xlink:title=" ">
<polygon fill="white" stroke="#666666" points="3183,-30 3040,-30 3040,0 3183,0 3183,-30"/>
<text text-anchor="start" x="3048" y="-18" font-family="Helvetica,sans-Serif" font-size="10.00">test/unit/src/test</text>
<text text-anchor="middle" x="3111.5" y="-7" font-family="Helvetica,sans-Serif" font-size="10.00">_registerVirtualServer.cpp</text>
</a>
</g>
</g>
<!-- Node9&#45;&gt;Node29 -->
<g id="edge29_Node000009_Node000029" class="edge">
<title>Node9&#45;&gt;Node29</title>
<g id="a_edge29_Node000009_Node000029"><a xlink:title=" ">
<path fill="none" stroke="#63b8ff" d="M1885.69,-68.48C1892.02,-67.51 1898.38,-66.65 1904.5,-66 2402.39,-13.07 2532.38,-80.76 3030.5,-30 3033.48,-29.7 3036.52,-29.35 3039.58,-28.96"/>
<polygon fill="#63b8ff" stroke="#63b8ff" points="1885.12,-65.03 1875.81,-70.09 1886.24,-71.94 1885.12,-65.03"/>
</a>
</g>
</g>
<!-- Node30 -->
<g id="Node000030" class="node">
<title>Node30</title>
<g id="a_Node000030"><a xlink:href="test__shutdown_server_8cpp.html" target="_top" xlink:title=" ">
<polygon fill="white" stroke="#666666" points="3321.5,-30 3201.5,-30 3201.5,0 3321.5,0 3321.5,-30"/>
<text text-anchor="start" x="3209.5" y="-18" font-family="Helvetica,sans-Serif" font-size="10.00">test/unit/src/test</text>
<text text-anchor="middle" x="3261.5" y="-7" font-family="Helvetica,sans-Serif" font-size="10.00">_shutdownServer.cpp</text>
</a>
</g>
</g>
<!-- Node9&#45;&gt;Node30 -->
<g id="edge30_Node000009_Node000030" class="edge">
<title>Node9&#45;&gt;Node30</title>
<g id="a_edge30_Node000009_Node000030"><a xlink:title=" ">
<path fill="none" stroke="#63b8ff" d="M1885.69,-68.46C1892.02,-67.49 1898.38,-66.64 1904.5,-66 2474.08,-6.61 2623.55,-95.18 3192.5,-30 3195.41,-29.67 3198.39,-29.27 3201.39,-28.83"/>
<polygon fill="#63b8ff" stroke="#63b8ff" points="1885.12,-65 1875.81,-70.06 1886.24,-71.91 1885.12,-65"/>
</a>
</g>
</g>
<!-- Node34 -->
<g id="Node000034" class="node">
<title>Node34</title>
<g id="a_Node000034"><a xlink:href="_response_builder_8hpp.html" target="_top" xlink:title=" ">
<polygon fill="white" stroke="#666666" points="2165.5,-222.5 2029.5,-222.5 2029.5,-203.5 2165.5,-203.5 2165.5,-222.5"/>
<text text-anchor="middle" x="2097.5" y="-210.5" font-family="Helvetica,sans-Serif" font-size="10.00">inc/ResponseBuilder.hpp</text>
</a>
</g>
</g>
<!-- Node33&#45;&gt;Node34 -->
<g id="edge35_Node000033_Node000034" class="edge">
<title>Node33&#45;&gt;Node34</title>
<g id="a_edge35_Node000033_Node000034"><a xlink:title=" ">
<path fill="none" stroke="#63b8ff" d="M1971.94,-265.51C2002.78,-252.86 2049.65,-233.63 2076.55,-222.6"/>
<polygon fill="#63b8ff" stroke="#63b8ff" points="1970.46,-262.33 1962.54,-269.37 1973.12,-268.81 1970.46,-262.33"/>
</a>
</g>
</g>
<!-- Node37 -->
<g id="Node000037" class="node">
<title>Node37</title>
<g id="a_Node000037"><a xlink:href="_response_body_handler_8cpp.html" target="_top" xlink:title=" ">
<polygon fill="white" stroke="#666666" points="2347.5,-222.5 2183.5,-222.5 2183.5,-203.5 2347.5,-203.5 2347.5,-222.5"/>
<text text-anchor="middle" x="2265.5" y="-210.5" font-family="Helvetica,sans-Serif" font-size="10.00">src/ResponseBodyHandler.cpp</text>
</a>
</g>
</g>
<!-- Node33&#45;&gt;Node37 -->
<g id="edge39_Node000033_Node000037" class="edge">
<title>Node33&#45;&gt;Node37</title>
<g id="a_edge39_Node000033_Node000037"><a xlink:title=" ">
<path fill="none" stroke="#63b8ff" d="M1994.7,-267.49C2058.33,-254.92 2163.61,-234.13 2222.4,-222.51"/>
<polygon fill="#63b8ff" stroke="#63b8ff" points="1993.99,-264.06 1984.86,-269.44 1995.35,-270.93 1993.99,-264.06"/>
</a>
</g>
</g>
<!-- Node38 -->
<g id="Node000038" class="node">
<title>Node38</title>
<g id="a_Node000038"><a xlink:href="test___response_body_handler_8cpp.html" target="_top" xlink:title=" ">
<polygon fill="white" stroke="#666666" points="2011.5,-228 1859.5,-228 1859.5,-198 2011.5,-198 2011.5,-228"/>
<text text-anchor="start" x="1867.5" y="-216" font-family="Helvetica,sans-Serif" font-size="10.00">test/unit/src/test</text>
<text text-anchor="middle" x="1935.5" y="-205" font-family="Helvetica,sans-Serif" font-size="10.00">_ResponseBodyHandler.cpp</text>
</a>
</g>
</g>
<!-- Node33&#45;&gt;Node38 -->
<g id="edge40_Node000033_Node000038" class="edge">
<title>Node33&#45;&gt;Node38</title>
<g id="a_edge40_Node000033_Node000038"><a xlink:title=" ">
<path fill="none" stroke="#63b8ff" d="M1939.75,-259.35C1938.82,-249.47 1937.7,-237.51 1936.85,-228.36"/>
<polygon fill="#63b8ff" stroke="#63b8ff" points="1936.27,-259.74 1940.69,-269.37 1943.24,-259.09 1936.27,-259.74"/>
</a>
</g>
</g>
<!-- Node34&#45;&gt;Node3 -->
<g id="edge36_Node000034_Node000003" class="edge">
<title>Node34&#45;&gt;Node3</title>
<g id="a_edge36_Node000034_Node000003"><a xlink:title=" ">
<path fill="none" stroke="#63b8ff" d="M2069.94,-199.03C2043.13,-186.42 2003.17,-167.61 1979.99,-156.7"/>
<polygon fill="#63b8ff" stroke="#63b8ff" points="2068.62,-202.28 2079.16,-203.37 2071.6,-195.94 2068.62,-202.28"/>
</a>
</g>
</g>
<!-- Node35 -->
<g id="Node000035" class="node">
<title>Node35</title>
<g id="a_Node000035"><a xlink:href="_response_builder_8cpp.html" target="_top" xlink:title=" ">
<polygon fill="white" stroke="#666666" points="2309,-156.5 2174,-156.5 2174,-137.5 2309,-137.5 2309,-156.5"/>
<text text-anchor="middle" x="2241.5" y="-144.5" font-family="Helvetica,sans-Serif" font-size="10.00">src/ResponseBuilder.cpp</text>
</a>
</g>
</g>
<!-- Node34&#45;&gt;Node35 -->
<g id="edge37_Node000034_Node000035" class="edge">
<title>Node34&#45;&gt;Node35</title>
<g id="a_edge37_Node000034_Node000035"><a xlink:title=" ">
<path fill="none" stroke="#63b8ff" d="M2126.31,-199.19C2154.69,-186.58 2197.27,-167.66 2221.93,-156.7"/>
<polygon fill="#63b8ff" stroke="#63b8ff" points="2124.64,-196.11 2116.92,-203.37 2127.48,-202.51 2124.64,-196.11"/>
</a>
</g>
</g>
<!-- Node36 -->
<g id="Node000036" class="node">
<title>Node36</title>
<g id="a_Node000036"><a xlink:href="test___response_builder_8cpp.html" target="_top" xlink:title=" ">
<polygon fill="white" stroke="#666666" points="2156,-162 2033,-162 2033,-132 2156,-132 2156,-162"/>
<text text-anchor="start" x="2041" y="-150" font-family="Helvetica,sans-Serif" font-size="10.00">test/unit/src/test</text>
<text text-anchor="middle" x="2094.5" y="-139" font-family="Helvetica,sans-Serif" font-size="10.00">_ResponseBuilder.cpp</text>
</a>
</g>
</g>
<!-- Node34&#45;&gt;Node36 -->
<g id="edge38_Node000034_Node000036" class="edge">
<title>Node34&#45;&gt;Node36</title>
<g id="a_edge38_Node000034_Node000036"><a xlink:title=" ">
<path fill="none" stroke="#63b8ff" d="M2096.63,-193.35C2096.16,-183.47 2095.6,-171.51 2095.17,-162.36"/>
<polygon fill="#63b8ff" stroke="#63b8ff" points="2093.13,-193.54 2097.1,-203.37 2100.12,-193.22 2093.13,-193.54"/>
</a>
</g>
</g>
</g>
</svg>

<g id="navigator" transform="translate(0 0)" fill="#404254">
  <rect fill="#f2f5e9" fill-opacity="0.5" stroke="#606060" stroke-width=".5" x="0" y="0" width="60" height="60"/>
  <use id="zoomplus" xlink:href="#zoomPlus" x="17" y="9" onmousedown="handleZoom(evt,'in')"/>
  <use id="zoomminus" xlink:href="#zoomMin" x="42" y="9" onmousedown="handleZoom(evt,'out')"/>
  <use id="reset" xlink:href="#resetDef" x="30" y="36" onmousedown="handleReset()"/>
   <use id="arrowup" xlink:href="#arrowUp" x="0" y="0" onmousedown="handlePan(0,-1)"/>
  <use id="arrowright" xlink:href="#arrowRight" x="0" y="0" onmousedown="handlePan(1,0)"/>
  <use id="arrowdown" xlink:href="#arrowDown" x="0" y="0" onmousedown="handlePan(0,1)"/>
  <use id="arrowleft" xlink:href="#arrowLeft" x="0" y="0" onmousedown="handlePan(-1,0)"/>
</g>
<svg viewBox="0 0 15 15" width="100%" height="30px" preserveAspectRatio="xMaxYMin meet">
 <g id="arrow_out" transform="scale(0.3 0.3)">
  <a xlink:href="_target_resource_handler_8hpp__dep__incl_org.svg" target="_base">
   <rect id="button" ry="5" rx="5" y="6" x="6" height="38" width="38"
        fill="#f2f5e9" fill-opacity="0.5" stroke="#606060" stroke-width="1.0"/>
   <path id="arrow"
     d="M 11.500037,31.436501 C 11.940474,20.09759 22.043105,11.32322 32.158766,21.979434 L 37.068811,17.246167 C 37.068811,17.246167 37.088388,32 37.088388,32 L 22.160133,31.978069 C 22.160133,31.978069 26.997745,27.140456 26.997745,27.140456 C 18.528582,18.264221 13.291696,25.230495 11.500037,31.436501 z"
     style="fill:#404040;"/>
  </a>
 </g>
</svg>

<style type='text/css'>
<![CDATA[
[data-mouse-over-selected='false'] { opacity: 0.7; }
[data-mouse-over-selected='true']  { opacity: 1.0; }
]]>
</style>
<script type="application/ecmascript"><![CDATA[
document.addEventListener('DOMContentLoaded', (event) => {
  highlightEdges();
  highlightAdjacentNodes();
});
]]></script>
</svg>
