<?xml version="1.0" encoding="UTF-8" standalone="no"?>
<!DOCTYPE svg PUBLIC "-//W3C//DTD SVG 1.1//EN"
 "http://www.w3.org/Graphics/SVG/1.1/DTD/svg11.dtd">
<!-- Generated by graphviz version 2.43.0 (0)
 -->
<!-- Title: inc/TargetResourceHandler.hpp Pages: 1 -->
<!--zoomable 330 -->
<svg id="main" version="1.1" xmlns="http://www.w3.org/2000/svg" xmlns:xlink="http://www.w3.org/1999/xlink" xml:space="preserve" onload="init(evt)">
<style type="text/css"><![CDATA[
.edge:hover path { stroke: red; }
.edge:hover polygon { stroke: red; fill: red; }
]]></style>
<script type="text/javascript"><![CDATA[
var edges = document.getElementsByTagName('g');
if (edges && edges.length) {
  for (var i=0;i<edges.length;i++) {
    if (edges[i].id.substr(0,4)=='edge') {
      edges[i].setAttribute('class','edge');
    }
  }
}
]]></script>
        <defs>
                <circle id="rim" cx="0" cy="0" r="7"/>
                <circle id="rim2" cx="0" cy="0" r="3.5"/>
                <g id="zoomPlus">
                        <use xlink:href="#rim" fill="#404040">
                                <set attributeName="fill" to="#808080" begin="zoomplus.mouseover" end="zoomplus.mouseout"/>
                        </use>
                        <path d="M-4,0h8M0,-4v8" fill="none" stroke="white" stroke-width="1.5" pointer-events="none"/>
                </g>
                <g id="zoomMin">
                        <use xlink:href="#rim" fill="#404040">
                                <set attributeName="fill" to="#808080" begin="zoomminus.mouseover" end="zoomminus.mouseout"/>
                        </use>
                        <path d="M-4,0h8" fill="none" stroke="white" stroke-width="1.5" pointer-events="none"/>
                </g>
                <g id="dirArrow">
                        <path fill="none" stroke="white" stroke-width="1.5" d="M0,-3.0v7 M-2.5,-0.5L0,-3.0L2.5,-0.5"/>
                </g>
               <g id="resetDef">
                       <use xlink:href="#rim2" fill="#404040">
                               <set attributeName="fill" to="#808080" begin="reset.mouseover" end="reset.mouseout"/>
                       </use>
               </g>
        </defs>

<script type="text/javascript">
var viewWidth = 3112;
var viewHeight = 330;
var sectionId = 'dynsection-1';
</script>
<script xlink:href="svgpan.js"/>
<svg id="graph" class="graph">
<g id="viewport">
<title>inc/TargetResourceHandler.hpp</title>
<!-- Node1 -->
<g id="node1" class="node">
<title>Node1</title>
<g id="a_node1"><a xlink:title=" ">
<polygon fill="#bfbfbf" stroke="black" points="1680,-302.5 1680,-321.5 1847,-321.5 1847,-302.5 1680,-302.5"/>
<text text-anchor="middle" x="1763.5" y="-309.5" font-family="Helvetica,sans-Serif" font-size="10.00">inc/TargetResourceHandler.hpp</text>
</a>
</g>
</g>
<!-- Node2 -->
<g id="node2" class="node">
<title>Node2</title>
<g id="a_node2"><a xlink:href="_response_body_handler_8hpp.html" target="_top" xlink:title=" ">
<polygon fill="none" stroke="black" points="1404.5,-241 1404.5,-260 1568.5,-260 1568.5,-241 1404.5,-241"/>
<text text-anchor="middle" x="1486.5" y="-248" font-family="Helvetica,sans-Serif" font-size="10.00">inc/ResponseBodyHandler.hpp</text>
</a>
</g>
</g>
<!-- Node1&#45;&gt;Node2 -->
<g id="edge1" class="edge">
<title>Node1&#45;&gt;Node2</title>
<path fill="none" stroke="midnightblue" d="M1713.83,-300.33C1660.11,-288.79 1575.55,-270.63 1526.11,-260.01"/>
<polygon fill="midnightblue" stroke="midnightblue" points="1713.3,-303.8 1723.81,-302.48 1714.77,-296.95 1713.3,-303.8"/>
</g>
<!-- Node4 -->
<g id="node4" class="node">
<title>Node4</title>
<g id="a_node4"><a xlink:href="_server_8hpp.html" target="_top" xlink:title=" ">
<polygon fill="none" stroke="black" points="1485.5,-123.5 1485.5,-142.5 1571.5,-142.5 1571.5,-123.5 1485.5,-123.5"/>
<text text-anchor="middle" x="1528.5" y="-130.5" font-family="Helvetica,sans-Serif" font-size="10.00">inc/Server.hpp</text>
</a>
</g>
</g>
<!-- Node1&#45;&gt;Node4 -->
<g id="edge28" class="edge">
<title>Node1&#45;&gt;Node4</title>
<path fill="none" stroke="midnightblue" d="M1748.58,-294.52C1741.63,-286.33 1733.56,-276.04 1727.5,-266 1705.69,-229.88 1721.34,-206.69 1689.5,-179 1656.65,-150.43 1607.02,-139.89 1571.55,-136.06"/>
<polygon fill="midnightblue" stroke="midnightblue" points="1746.09,-296.99 1755.3,-302.21 1751.36,-292.38 1746.09,-296.99"/>
</g>
<!-- Node28 -->
<g id="node28" class="node">
<title>Node28</title>
<g id="a_node28"><a xlink:href="_target_resource_handler_8cpp.html" target="_top" xlink:title=" ">
<polygon fill="none" stroke="black" points="1736,-241 1736,-260 1903,-260 1903,-241 1736,-241"/>
<text text-anchor="middle" x="1819.5" y="-248" font-family="Helvetica,sans-Serif" font-size="10.00">src/TargetResourceHandler.cpp</text>
</a>
</g>
</g>
<!-- Node1&#45;&gt;Node28 -->
<g id="edge29" class="edge">
<title>Node1&#45;&gt;Node28</title>
<path fill="none" stroke="midnightblue" d="M1778.56,-295C1789.16,-283.74 1802.93,-269.1 1811.49,-260.01"/>
<polygon fill="midnightblue" stroke="midnightblue" points="1775.83,-292.79 1771.52,-302.48 1780.93,-297.59 1775.83,-292.79"/>
</g>
<!-- Node29 -->
<g id="node29" class="node">
<title>Node29</title>
<g id="a_node29"><a xlink:href="test___target_resource_handler_8cpp.html" target="_top" xlink:title=" ">
<polygon fill="none" stroke="black" points="1921,-235.5 1921,-265.5 2058,-265.5 2058,-235.5 1921,-235.5"/>
<text text-anchor="start" x="1929" y="-253.5" font-family="Helvetica,sans-Serif" font-size="10.00">test/test_TargetResource</text>
<text text-anchor="middle" x="1989.5" y="-242.5" font-family="Helvetica,sans-Serif" font-size="10.00">Handler.cpp</text>
</a>
</g>
</g>
<!-- Node1&#45;&gt;Node29 -->
<g id="edge30" class="edge">
<title>Node1&#45;&gt;Node29</title>
<path fill="none" stroke="midnightblue" d="M1805.82,-299.86C1842.72,-290.14 1896.42,-276.01 1936.24,-265.52"/>
<polygon fill="midnightblue" stroke="midnightblue" points="1804.66,-296.54 1795.88,-302.48 1806.44,-303.31 1804.66,-296.54"/>
</g>
<!-- Node3 -->
<g id="node3" class="node">
<title>Node3</title>
<g id="a_node3"><a xlink:href="_response_builder_8hpp.html" target="_top" xlink:title=" ">
<polygon fill="none" stroke="black" points="1152.5,-179.5 1152.5,-198.5 1288.5,-198.5 1288.5,-179.5 1152.5,-179.5"/>
<text text-anchor="middle" x="1220.5" y="-186.5" font-family="Helvetica,sans-Serif" font-size="10.00">inc/ResponseBuilder.hpp</text>
</a>
</g>
</g>
<!-- Node2&#45;&gt;Node3 -->
<g id="edge2" class="edge">
<title>Node2&#45;&gt;Node3</title>
<path fill="none" stroke="midnightblue" d="M1438.48,-238.76C1386.88,-227.22 1305.91,-209.11 1258.54,-198.51"/>
<polygon fill="midnightblue" stroke="midnightblue" points="1437.87,-242.21 1448.39,-240.98 1439.39,-235.38 1437.87,-242.21"/>
</g>
<!-- Node26 -->
<g id="node26" class="node">
<title>Node26</title>
<g id="a_node26"><a xlink:href="_response_body_handler_8cpp.html" target="_top" xlink:title=" ">
<polygon fill="none" stroke="black" points="1306.5,-179.5 1306.5,-198.5 1470.5,-198.5 1470.5,-179.5 1306.5,-179.5"/>
<text text-anchor="middle" x="1388.5" y="-186.5" font-family="Helvetica,sans-Serif" font-size="10.00">src/ResponseBodyHandler.cpp</text>
</a>
</g>
</g>
<!-- Node2&#45;&gt;Node26 -->
<g id="edge26" class="edge">
<title>Node2&#45;&gt;Node26</title>
<path fill="none" stroke="midnightblue" d="M1463.84,-235.74C1444.91,-224.25 1418.51,-208.22 1402.51,-198.51"/>
<polygon fill="midnightblue" stroke="midnightblue" points="1462.09,-238.78 1472.46,-240.98 1465.73,-232.79 1462.09,-238.78"/>
</g>
<!-- Node27 -->
<g id="node27" class="node">
<title>Node27</title>
<g id="a_node27"><a xlink:href="test___response_body_handler_8cpp.html" target="_top" xlink:title=" ">
<polygon fill="none" stroke="black" points="1488.5,-179.5 1488.5,-198.5 1680.5,-198.5 1680.5,-179.5 1488.5,-179.5"/>
<text text-anchor="middle" x="1584.5" y="-186.5" font-family="Helvetica,sans-Serif" font-size="10.00">test/test_ResponseBodyHandler.cpp</text>
</a>
</g>
</g>
<!-- Node2&#45;&gt;Node27 -->
<g id="edge27" class="edge">
<title>Node2&#45;&gt;Node27</title>
<path fill="none" stroke="midnightblue" d="M1509.16,-235.74C1528.09,-224.25 1554.49,-208.22 1570.49,-198.51"/>
<polygon fill="midnightblue" stroke="midnightblue" points="1507.27,-232.79 1500.54,-240.98 1510.91,-238.78 1507.27,-232.79"/>
</g>
<!-- Node3&#45;&gt;Node4 -->
<g id="edge3" class="edge">
<title>Node3&#45;&gt;Node4</title>
<path fill="none" stroke="midnightblue" d="M1279.42,-177.67C1339.62,-167.12 1431.67,-150.98 1485.39,-141.56"/>
<polygon fill="midnightblue" stroke="midnightblue" points="1278.55,-174.27 1269.3,-179.44 1279.76,-181.16 1278.55,-174.27"/>
</g>
<!-- Node25 -->
<g id="node25" class="node">
<title>Node25</title>
<g id="a_node25"><a xlink:href="_response_builder_8cpp.html" target="_top" xlink:title=" ">
<polygon fill="none" stroke="black" points="1153,-123.5 1153,-142.5 1288,-142.5 1288,-123.5 1153,-123.5"/>
<text text-anchor="middle" x="1220.5" y="-130.5" font-family="Helvetica,sans-Serif" font-size="10.00">src/ResponseBuilder.cpp</text>
</a>
</g>
</g>
<!-- Node3&#45;&gt;Node25 -->
<g id="edge25" class="edge">
<title>Node3&#45;&gt;Node25</title>
<path fill="none" stroke="midnightblue" d="M1220.5,-168.8C1220.5,-159.91 1220.5,-149.78 1220.5,-142.75"/>
<polygon fill="midnightblue" stroke="midnightblue" points="1217,-169.08 1220.5,-179.08 1224,-169.08 1217,-169.08"/>
</g>
<!-- Node5 -->
<g id="node5" class="node">
<title>Node5</title>
<g id="a_node5"><a xlink:href="_config_file_parser_8hpp.html" target="_top" xlink:title=" ">
<polygon fill="none" stroke="black" points="185.5,-62 185.5,-81 317.5,-81 317.5,-62 185.5,-62"/>
<text text-anchor="middle" x="251.5" y="-69" font-family="Helvetica,sans-Serif" font-size="10.00">inc/ConfigFileParser.hpp</text>
</a>
</g>
</g>
<!-- Node4&#45;&gt;Node5 -->
<g id="edge4" class="edge">
<title>Node4&#45;&gt;Node5</title>
<path fill="none" stroke="midnightblue" d="M1475.06,-129.91C1428.04,-128.08 1357.73,-125.34 1296.5,-123 872.51,-106.78 764.77,-128.46 342.5,-87 328.01,-85.58 312.32,-83.33 298.12,-81.03"/>
<polygon fill="midnightblue" stroke="midnightblue" points="1475.19,-133.42 1485.31,-130.31 1475.46,-126.42 1475.19,-133.42"/>
</g>
<!-- Node7 -->
<g id="node7" class="node">
<title>Node7</title>
<g id="a_node7"><a xlink:href="main_8cpp.html" target="_top" xlink:title=" ">
<polygon fill="none" stroke="black" points="328,-0.5 328,-19.5 407,-19.5 407,-0.5 328,-0.5"/>
<text text-anchor="middle" x="367.5" y="-7.5" font-family="Helvetica,sans-Serif" font-size="10.00">src/main.cpp</text>
</a>
</g>
</g>
<!-- Node4&#45;&gt;Node7 -->
<g id="edge8" class="edge">
<title>Node4&#45;&gt;Node7</title>
<path fill="none" stroke="midnightblue" d="M1475.09,-129.92C1248.17,-121.06 375.5,-87 375.5,-87 356.9,-69.59 361.7,-35.55 365.26,-19.61"/>
<polygon fill="midnightblue" stroke="midnightblue" points="1475.28,-133.43 1485.41,-130.32 1475.55,-126.43 1475.28,-133.43"/>
</g>
<!-- Node9 -->
<g id="node9" class="node">
<title>Node9</title>
<g id="a_node9"><a xlink:href="_server_8cpp.html" target="_top" xlink:title=" ">
<polygon fill="none" stroke="black" points="385,-62 385,-81 470,-81 470,-62 385,-62"/>
<text text-anchor="middle" x="427.5" y="-69" font-family="Helvetica,sans-Serif" font-size="10.00">src/Server.cpp</text>
</a>
</g>
</g>
<!-- Node4&#45;&gt;Node9 -->
<g id="edge9" class="edge">
<title>Node4&#45;&gt;Node9</title>
<path fill="none" stroke="midnightblue" d="M1475.04,-129.88C1264.55,-121.5 503.33,-91 478.5,-87 470.14,-85.65 461.2,-83.4 453.18,-81.07"/>
<polygon fill="midnightblue" stroke="midnightblue" points="1475.09,-133.38 1485.22,-130.28 1475.37,-126.39 1475.09,-133.38"/>
</g>
<!-- Node10 -->
<g id="node10" class="node">
<title>Node10</title>
<g id="a_node10"><a xlink:href="test__accept_connections_8cpp.html" target="_top" xlink:title=" ">
<polygon fill="none" stroke="black" points="488,-62 488,-81 663,-81 663,-62 488,-62"/>
<text text-anchor="middle" x="575.5" y="-69" font-family="Helvetica,sans-Serif" font-size="10.00">test/test_acceptConnections.cpp</text>
</a>
</g>
</g>
<!-- Node4&#45;&gt;Node10 -->
<g id="edge10" class="edge">
<title>Node4&#45;&gt;Node10</title>
<path fill="none" stroke="midnightblue" d="M1475.11,-129.88C1313.1,-123.34 828.6,-102.95 671.5,-87 656.58,-85.48 640.42,-83.27 625.7,-81.03"/>
<polygon fill="midnightblue" stroke="midnightblue" points="1475.18,-133.39 1485.31,-130.29 1475.46,-126.39 1475.18,-133.39"/>
</g>
<!-- Node11 -->
<g id="node11" class="node">
<title>Node11</title>
<g id="a_node11"><a xlink:href="test__check_for_timeout_8cpp.html" target="_top" xlink:title=" ">
<polygon fill="none" stroke="black" points="681,-62 681,-81 848,-81 848,-62 681,-62"/>
<text text-anchor="middle" x="764.5" y="-69" font-family="Helvetica,sans-Serif" font-size="10.00">test/test_checkForTimeout.cpp</text>
</a>
</g>
</g>
<!-- Node4&#45;&gt;Node11 -->
<g id="edge11" class="edge">
<title>Node4&#45;&gt;Node11</title>
<path fill="none" stroke="midnightblue" d="M1474.94,-130.04C1360.91,-125.52 1085.81,-112.7 856.5,-87 842.52,-85.43 827.42,-83.26 813.57,-81.07"/>
<polygon fill="midnightblue" stroke="midnightblue" points="1475.01,-133.55 1485.14,-130.44 1475.29,-126.55 1475.01,-133.55"/>
</g>
<!-- Node12 -->
<g id="node12" class="node">
<title>Node12</title>
<g id="a_node12"><a xlink:href="test__connection_receive_from_c_g_i_8cpp.html" target="_top" xlink:title=" ">
<polygon fill="none" stroke="black" points="866,-56.5 866,-86.5 1021,-86.5 1021,-56.5 866,-56.5"/>
<text text-anchor="start" x="874" y="-74.5" font-family="Helvetica,sans-Serif" font-size="10.00">test/test_connectionReceive</text>
<text text-anchor="middle" x="943.5" y="-63.5" font-family="Helvetica,sans-Serif" font-size="10.00">FromCGI.cpp</text>
</a>
</g>
</g>
<!-- Node4&#45;&gt;Node12 -->
<g id="edge12" class="edge">
<title>Node4&#45;&gt;Node12</title>
<path fill="none" stroke="midnightblue" d="M1475.21,-128.55C1383.79,-122.33 1191.27,-107.9 1029.5,-87 1026.8,-86.65 1024.05,-86.28 1021.28,-85.89"/>
<polygon fill="midnightblue" stroke="midnightblue" points="1475.11,-132.05 1485.33,-129.23 1475.58,-125.07 1475.11,-132.05"/>
</g>
<!-- Node13 -->
<g id="node13" class="node">
<title>Node13</title>
<g id="a_node13"><a xlink:href="test__connection_receive_header_8cpp.html" target="_top" xlink:title=" ">
<polygon fill="none" stroke="black" points="1039,-56.5 1039,-86.5 1194,-86.5 1194,-56.5 1039,-56.5"/>
<text text-anchor="start" x="1047" y="-74.5" font-family="Helvetica,sans-Serif" font-size="10.00">test/test_connectionReceive</text>
<text text-anchor="middle" x="1116.5" y="-63.5" font-family="Helvetica,sans-Serif" font-size="10.00">Header.cpp</text>
</a>
</g>
</g>
<!-- Node4&#45;&gt;Node13 -->
<g id="edge13" class="edge">
<title>Node4&#45;&gt;Node13</title>
<path fill="none" stroke="midnightblue" d="M1475.42,-125.11C1411.02,-116.64 1299.18,-101.59 1203.5,-87 1200.47,-86.54 1197.39,-86.06 1194.27,-85.57"/>
<polygon fill="midnightblue" stroke="midnightblue" points="1474.97,-128.58 1485.34,-126.41 1475.88,-121.64 1474.97,-128.58"/>
</g>
<!-- Node14 -->
<g id="node14" class="node">
<title>Node14</title>
<g id="a_node14"><a xlink:href="test__connection_send_response_8cpp.html" target="_top" xlink:title=" ">
<polygon fill="none" stroke="black" points="1212.5,-56.5 1212.5,-86.5 1352.5,-86.5 1352.5,-56.5 1212.5,-56.5"/>
<text text-anchor="start" x="1220.5" y="-74.5" font-family="Helvetica,sans-Serif" font-size="10.00">test/test_connectionSend</text>
<text text-anchor="middle" x="1282.5" y="-63.5" font-family="Helvetica,sans-Serif" font-size="10.00">Response.cpp</text>
</a>
</g>
</g>
<!-- Node4&#45;&gt;Node14 -->
<g id="edge14" class="edge">
<title>Node4&#45;&gt;Node14</title>
<path fill="none" stroke="midnightblue" d="M1483.46,-121.11C1443.27,-111.39 1384.19,-97.1 1340.48,-86.52"/>
<polygon fill="midnightblue" stroke="midnightblue" points="1482.71,-124.53 1493.25,-123.48 1484.36,-117.72 1482.71,-124.53"/>
</g>
<!-- Node15 -->
<g id="node15" class="node">
<title>Node15</title>
<g id="a_node15"><a xlink:href="test__connection_send_to_c_g_i_8cpp.html" target="_top" xlink:title=" ">
<polygon fill="none" stroke="black" points="1370.5,-56.5 1370.5,-86.5 1510.5,-86.5 1510.5,-56.5 1370.5,-56.5"/>
<text text-anchor="start" x="1378.5" y="-74.5" font-family="Helvetica,sans-Serif" font-size="10.00">test/test_connectionSend</text>
<text text-anchor="middle" x="1440.5" y="-63.5" font-family="Helvetica,sans-Serif" font-size="10.00">ToCGI.cpp</text>
</a>
</g>
</g>
<!-- Node4&#45;&gt;Node15 -->
<g id="edge15" class="edge">
<title>Node4&#45;&gt;Node15</title>
<path fill="none" stroke="midnightblue" d="M1507.41,-117.74C1493.42,-108.28 1475.15,-95.93 1461.24,-86.52"/>
<polygon fill="midnightblue" stroke="midnightblue" points="1505.65,-120.77 1515.89,-123.48 1509.57,-114.97 1505.65,-120.77"/>
</g>
<!-- Node16 -->
<g id="node16" class="node">
<title>Node16</title>
<g id="a_node16"><a xlink:href="test__create_virtual_server_8cpp.html" target="_top" xlink:title=" ">
<polygon fill="none" stroke="black" points="1528.5,-62 1528.5,-81 1704.5,-81 1704.5,-62 1528.5,-62"/>
<text text-anchor="middle" x="1616.5" y="-69" font-family="Helvetica,sans-Serif" font-size="10.00">test/test_createVirtualServer.cpp</text>
</a>
</g>
</g>
<!-- Node4&#45;&gt;Node16 -->
<g id="edge16" class="edge">
<title>Node4&#45;&gt;Node16</title>
<path fill="none" stroke="midnightblue" d="M1549.78,-117.61C1566.7,-106.17 1589.81,-90.55 1603.92,-81.01"/>
<polygon fill="midnightblue" stroke="midnightblue" points="1547.43,-114.97 1541.11,-123.48 1551.35,-120.77 1547.43,-114.97"/>
</g>
<!-- Node17 -->
<g id="node17" class="node">
<title>Node17</title>
<g id="a_node17"><a xlink:href="test__handle_complete_request_header_8cpp.html" target="_top" xlink:title=" ">
<polygon fill="none" stroke="black" points="1723,-56.5 1723,-86.5 1866,-86.5 1866,-56.5 1723,-56.5"/>
<text text-anchor="start" x="1731" y="-74.5" font-family="Helvetica,sans-Serif" font-size="10.00">test/test_handleComplete</text>
<text text-anchor="middle" x="1794.5" y="-63.5" font-family="Helvetica,sans-Serif" font-size="10.00">RequestHeader.cpp</text>
</a>
</g>
</g>
<!-- Node4&#45;&gt;Node17 -->
<g id="edge17" class="edge">
<title>Node4&#45;&gt;Node17</title>
<path fill="none" stroke="midnightblue" d="M1576.37,-121.29C1619.84,-111.57 1684.24,-97.16 1731.81,-86.52"/>
<polygon fill="midnightblue" stroke="midnightblue" points="1575.61,-117.88 1566.61,-123.48 1577.13,-124.71 1575.61,-117.88"/>
</g>
<!-- Node18 -->
<g id="node18" class="node">
<title>Node18</title>
<g id="a_node18"><a xlink:href="test__init_virtual_servers_8cpp.html" target="_top" xlink:title=" ">
<polygon fill="none" stroke="black" points="1884,-62 1884,-81 2051,-81 2051,-62 1884,-62"/>
<text text-anchor="middle" x="1967.5" y="-69" font-family="Helvetica,sans-Serif" font-size="10.00">test/test_initVirtualServers.cpp</text>
</a>
</g>
</g>
<!-- Node4&#45;&gt;Node18 -->
<g id="edge18" class="edge">
<title>Node4&#45;&gt;Node18</title>
<path fill="none" stroke="midnightblue" d="M1581.62,-125.57C1649.75,-117.22 1771.55,-101.93 1875.5,-87 1888.3,-85.16 1902.09,-83.06 1914.99,-81.03"/>
<polygon fill="midnightblue" stroke="midnightblue" points="1581.06,-122.11 1571.56,-126.8 1581.91,-129.06 1581.06,-122.11"/>
</g>
<!-- Node19 -->
<g id="node19" class="node">
<title>Node19</title>
<g id="a_node19"><a xlink:href="test__is_duplicate_server_8cpp.html" target="_top" xlink:title=" ">
<polygon fill="none" stroke="black" points="2068.5,-62 2068.5,-81 2236.5,-81 2236.5,-62 2068.5,-62"/>
<text text-anchor="middle" x="2152.5" y="-69" font-family="Helvetica,sans-Serif" font-size="10.00">test/test_isDuplicateServer.cpp</text>
</a>
</g>
</g>
<!-- Node4&#45;&gt;Node19 -->
<g id="edge19" class="edge">
<title>Node4&#45;&gt;Node19</title>
<path fill="none" stroke="midnightblue" d="M1581.74,-128.77C1677.67,-122.67 1885.81,-108.13 2060.5,-87 2074.14,-85.35 2088.87,-83.2 2102.46,-81.06"/>
<polygon fill="midnightblue" stroke="midnightblue" points="1581.47,-125.28 1571.71,-129.4 1581.91,-132.27 1581.47,-125.28"/>
</g>
<!-- Node20 -->
<g id="node20" class="node">
<title>Node20</title>
<g id="a_node20"><a xlink:href="test__register_c_g_i_file_descriptor_8cpp.html" target="_top" xlink:title=" ">
<polygon fill="none" stroke="black" points="2254.5,-56.5 2254.5,-86.5 2388.5,-86.5 2388.5,-56.5 2254.5,-56.5"/>
<text text-anchor="start" x="2262.5" y="-74.5" font-family="Helvetica,sans-Serif" font-size="10.00">test/test_registerCGIFile</text>
<text text-anchor="middle" x="2321.5" y="-63.5" font-family="Helvetica,sans-Serif" font-size="10.00">Descriptor.cpp</text>
</a>
</g>
</g>
<!-- Node4&#45;&gt;Node20 -->
<g id="edge20" class="edge">
<title>Node4&#45;&gt;Node20</title>
<path fill="none" stroke="midnightblue" d="M1581.82,-130.95C1701.16,-128.09 1998.66,-118.17 2245.5,-87 2248.43,-86.63 2251.42,-86.22 2254.44,-85.77"/>
<polygon fill="midnightblue" stroke="midnightblue" points="1581.43,-127.45 1571.51,-131.19 1581.59,-134.45 1581.43,-127.45"/>
</g>
<!-- Node21 -->
<g id="node21" class="node">
<title>Node21</title>
<g id="a_node21"><a xlink:href="test__register_connection_8cpp.html" target="_top" xlink:title=" ">
<polygon fill="none" stroke="black" points="2407,-62 2407,-81 2582,-81 2582,-62 2407,-62"/>
<text text-anchor="middle" x="2494.5" y="-69" font-family="Helvetica,sans-Serif" font-size="10.00">test/test_registerConnection.cpp</text>
</a>
</g>
</g>
<!-- Node4&#45;&gt;Node21 -->
<g id="edge21" class="edge">
<title>Node4&#45;&gt;Node21</title>
<path fill="none" stroke="midnightblue" d="M1581.71,-131.03C1717.8,-128.17 2089.49,-117.92 2397.5,-87 2412.58,-85.49 2428.9,-83.27 2443.77,-81.03"/>
<polygon fill="midnightblue" stroke="midnightblue" points="1581.49,-127.54 1571.56,-131.24 1581.63,-134.54 1581.49,-127.54"/>
</g>
<!-- Node22 -->
<g id="node22" class="node">
<title>Node22</title>
<g id="a_node22"><a xlink:href="test__register_virtual_server_8cpp.html" target="_top" xlink:title=" ">
<polygon fill="none" stroke="black" points="2600.5,-56.5 2600.5,-86.5 2732.5,-86.5 2732.5,-56.5 2600.5,-56.5"/>
<text text-anchor="start" x="2608.5" y="-74.5" font-family="Helvetica,sans-Serif" font-size="10.00">test/test_registerVirtual</text>
<text text-anchor="middle" x="2666.5" y="-63.5" font-family="Helvetica,sans-Serif" font-size="10.00">Server.cpp</text>
</a>
</g>
</g>
<!-- Node4&#45;&gt;Node22 -->
<g id="edge22" class="edge">
<title>Node4&#45;&gt;Node22</title>
<path fill="none" stroke="midnightblue" d="M1581.98,-132.54C1738.07,-133.5 2206.37,-132.13 2591.5,-87 2594.4,-86.66 2597.35,-86.27 2600.33,-85.85"/>
<polygon fill="midnightblue" stroke="midnightblue" points="1581.74,-129.04 1571.72,-132.47 1581.69,-136.04 1581.74,-129.04"/>
</g>
<!-- Node23 -->
<g id="node23" class="node">
<title>Node23</title>
<g id="a_node23"><a xlink:href="test__select_server_config_8cpp.html" target="_top" xlink:title=" ">
<polygon fill="none" stroke="black" points="2750.5,-62 2750.5,-81 2924.5,-81 2924.5,-62 2750.5,-62"/>
<text text-anchor="middle" x="2837.5" y="-69" font-family="Helvetica,sans-Serif" font-size="10.00">test/test_selectServerConfig.cpp</text>
</a>
</g>
</g>
<!-- Node4&#45;&gt;Node23 -->
<g id="edge23" class="edge">
<title>Node4&#45;&gt;Node23</title>
<path fill="none" stroke="midnightblue" d="M1581.75,-132.16C1751.44,-132.23 2294.51,-128.91 2741.5,-87 2756.77,-85.57 2773.32,-83.32 2788.3,-81.02"/>
<polygon fill="midnightblue" stroke="midnightblue" points="1581.59,-128.66 1571.59,-132.16 1581.59,-135.66 1581.59,-128.66"/>
</g>
<!-- Node24 -->
<g id="node24" class="node">
<title>Node24</title>
<g id="a_node24"><a xlink:href="test__shutdown_server_8cpp.html" target="_top" xlink:title=" ">
<polygon fill="none" stroke="black" points="2943,-62 2943,-81 3104,-81 3104,-62 2943,-62"/>
<text text-anchor="middle" x="3023.5" y="-69" font-family="Helvetica,sans-Serif" font-size="10.00">test/test_shutdownServer.cpp</text>
</a>
</g>
</g>
<!-- Node4&#45;&gt;Node24 -->
<g id="edge24" class="edge">
<title>Node4&#45;&gt;Node24</title>
<path fill="none" stroke="midnightblue" d="M1581.7,-131.21C1804.52,-127.74 2663.73,-112.94 2933.5,-87 2947.99,-85.61 2963.69,-83.34 2977.86,-81.01"/>
<polygon fill="midnightblue" stroke="midnightblue" points="1581.52,-127.71 1571.57,-131.36 1581.62,-134.71 1581.52,-127.71"/>
</g>
<!-- Node6 -->
<g id="node6" class="node">
<title>Node6</title>
<g id="a_node6"><a xlink:href="_config_file_parser_8cpp.html" target="_top" xlink:title=" ">
<polygon fill="none" stroke="black" points="0,-0.5 0,-19.5 131,-19.5 131,-0.5 0,-0.5"/>
<text text-anchor="middle" x="65.5" y="-7.5" font-family="Helvetica,sans-Serif" font-size="10.00">src/ConfigFileParser.cpp</text>
</a>
</g>
</g>
<!-- Node5&#45;&gt;Node6 -->
<g id="edge5" class="edge">
<title>Node5&#45;&gt;Node6</title>
<path fill="none" stroke="midnightblue" d="M215.18,-58.88C179.02,-47.32 124.4,-29.84 92.1,-19.51"/>
<polygon fill="midnightblue" stroke="midnightblue" points="214.26,-62.26 224.85,-61.98 216.39,-55.59 214.26,-62.26"/>
</g>
<!-- Node5&#45;&gt;Node7 -->
<g id="edge6" class="edge">
<title>Node5&#45;&gt;Node7</title>
<path fill="none" stroke="midnightblue" d="M277.1,-57.37C299.59,-45.83 331.63,-29.4 350.91,-19.51"/>
<polygon fill="midnightblue" stroke="midnightblue" points="275.42,-54.3 268.12,-61.98 278.62,-60.53 275.42,-54.3"/>
</g>
<!-- Node8 -->
<g id="node8" class="node">
<title>Node8</title>
<g id="a_node8"><a xlink:href="test___config_file_parser_8cpp.html" target="_top" xlink:title=" ">
<polygon fill="none" stroke="black" points="149.5,-0.5 149.5,-19.5 309.5,-19.5 309.5,-0.5 149.5,-0.5"/>
<text text-anchor="middle" x="229.5" y="-7.5" font-family="Helvetica,sans-Serif" font-size="10.00">test/test_ConfigFileParser.cpp</text>
</a>
</g>
</g>
<!-- Node5&#45;&gt;Node8 -->
<g id="edge7" class="edge">
<title>Node5&#45;&gt;Node8</title>
<path fill="none" stroke="midnightblue" d="M244.84,-52.5C240.8,-41.55 235.81,-28.07 232.65,-19.51"/>
<polygon fill="midnightblue" stroke="midnightblue" points="241.6,-53.81 248.35,-61.98 248.16,-51.38 241.6,-53.81"/>
</g>
</g>
</svg>
        <g id="navigator" transform="translate(0 0)" fill="#404254">
                <rect fill="#f2f5e9" fill-opacity="0.5" stroke="#606060" stroke-width=".5" x="0" y="0" width="60" height="60"/>
                <use id="zoomplus" xlink:href="#zoomPlus" x="17" y="9" onmousedown="handleZoom(evt,'in')"/>
                <use id="zoomminus" xlink:href="#zoomMin" x="42" y="9" onmousedown="handleZoom(evt,'out')"/>
                <use id="reset" xlink:href="#resetDef" x="30" y="36" onmousedown="handleReset()"/>
                <g id="arrowUp" xlink:href="#dirArrow" transform="translate(30 24)" onmousedown="handlePan(0,-1)">
                  <use xlink:href="#rim" fill="#404040">
                        <set attributeName="fill" to="#808080" begin="arrowUp.mouseover" end="arrowUp.mouseout"/>
                  </use>
                  <path fill="none" stroke="white" stroke-width="1.5" d="M0,-3.0v7 M-2.5,-0.5L0,-3.0L2.5,-0.5"/>
                </g>
                <g id="arrowRight" xlink:href="#dirArrow" transform="rotate(90) translate(36 -43)" onmousedown="handlePan(1,0)">
                  <use xlink:href="#rim" fill="#404040">
                        <set attributeName="fill" to="#808080" begin="arrowRight.mouseover" end="arrowRight.mouseout"/>
                  </use>
                  <path fill="none" stroke="white" stroke-width="1.5" d="M0,-3.0v7 M-2.5,-0.5L0,-3.0L2.5,-0.5"/>
                </g>
                <g id="arrowDown" xlink:href="#dirArrow" transform="rotate(180) translate(-30 -48)" onmousedown="handlePan(0,1)">
                  <use xlink:href="#rim" fill="#404040">
                        <set attributeName="fill" to="#808080" begin="arrowDown.mouseover" end="arrowDown.mouseout"/>
                  </use>
                  <path fill="none" stroke="white" stroke-width="1.5" d="M0,-3.0v7 M-2.5,-0.5L0,-3.0L2.5,-0.5"/>
                </g>
                <g id="arrowLeft" xlink:href="#dirArrow" transform="rotate(270) translate(-36 17)" onmousedown="handlePan(-1,0)">
                  <use xlink:href="#rim" fill="#404040">
                        <set attributeName="fill" to="#808080" begin="arrowLeft.mouseover" end="arrowLeft.mouseout"/>
                  </use>
                  <path fill="none" stroke="white" stroke-width="1.5" d="M0,-3.0v7 M-2.5,-0.5L0,-3.0L2.5,-0.5"/>
                </g>
        </g>
        <svg viewBox="0 0 15 15" width="100%" height="30px" preserveAspectRatio="xMaxYMin meet">
         <g id="arrow_out" transform="scale(0.3 0.3)">
          <a xlink:href="_target_resource_handler_8hpp__dep__incl_org.svg" target="_base">
           <rect id="button" ry="5" rx="5" y="6" x="6" height="38" width="38"
                fill="#f2f5e9" fill-opacity="0.5" stroke="#606060" stroke-width="1.0"/>
           <path id="arrow"
             d="M 11.500037,31.436501 C 11.940474,20.09759 22.043105,11.32322 32.158766,21.979434 L 37.068811,17.246167 C 37.068811,17.246167 37.088388,32 37.088388,32 L 22.160133,31.978069 C 22.160133,31.978069 26.997745,27.140456 26.997745,27.140456 C 18.528582,18.264221 13.291696,25.230495 11.500037,31.436501 z"
             style="fill:#404040;"/>
          </a>
         </g>
        </svg>
</svg>
