<?xml version="1.0" encoding="UTF-8" standalone="no"?>
<!DOCTYPE svg PUBLIC "-//W3C//DTD SVG 1.1//EN"
 "http://www.w3.org/Graphics/SVG/1.1/DTD/svg11.dtd">
<!-- Generated by graphviz version 2.43.0 (0)
 -->
<!-- Title: Server::buildResponse Pages: 1 -->
<svg width="1095pt" height="142pt"
 viewBox="0.00 0.00 1095.00 142.00" xmlns="http://www.w3.org/2000/svg" xmlns:xlink="http://www.w3.org/1999/xlink">
<g id="graph0" class="graph" transform="scale(1 1) rotate(0) translate(4 138)">
<title>Server::buildResponse</title>
<!-- Node1 -->
<g id="node1" class="node">
<title>Node1</title>
<g id="a_node1"><a xlink:title="Wrapper function to ResponseBuilder::buildResponse.">
<polygon fill="#bfbfbf" stroke="black" points="0,-35.5 0,-54.5 125,-54.5 125,-35.5 0,-35.5"/>
<text text-anchor="middle" x="62.5" y="-42.5" font-family="Helvetica,sans-Serif" font-size="10.00">Server::buildResponse</text>
</a>
</g>
</g>
<!-- Node2 -->
<g id="node2" class="node">
<title>Node2</title>
<g id="a_node2"><a xlink:href="class_response_builder.html#a0e5cc86c399698d20a3e33677772e8b0" target="_top" xlink:title="Build the response for a given request.">
<polygon fill="none" stroke="black" points="161,-35.5 161,-54.5 337,-54.5 337,-35.5 161,-35.5"/>
<text text-anchor="middle" x="249" y="-42.5" font-family="Helvetica,sans-Serif" font-size="10.00">ResponseBuilder::buildResponse</text>
</a>
</g>
</g>
<!-- Node1&#45;&gt;Node2 -->
<g id="edge1" class="edge">
<title>Node1&#45;&gt;Node2</title>
<path fill="none" stroke="midnightblue" d="M125.19,-45C133.4,-45 141.97,-45 150.6,-45"/>
<polygon fill="midnightblue" stroke="midnightblue" points="150.74,-48.5 160.74,-45 150.74,-41.5 150.74,-48.5"/>
</g>
<!-- Node3 -->
<g id="node3" class="node">
<title>Node3</title>
<g id="a_node3"><a xlink:href="class_response_body_handler.html#a0660b57e440e2c519761817d178818c0" target="_top" xlink:title="Create the response body.">
<polygon fill="none" stroke="black" points="373,-30 373,-60 500,-60 500,-30 373,-30"/>
<text text-anchor="start" x="381" y="-48" font-family="Helvetica,sans-Serif" font-size="10.00">ResponseBodyHandler</text>
<text text-anchor="middle" x="436.5" y="-37" font-family="Helvetica,sans-Serif" font-size="10.00">::execute</text>
</a>
</g>
</g>
<!-- Node2&#45;&gt;Node3 -->
<g id="edge2" class="edge">
<title>Node2&#45;&gt;Node3</title>
<path fill="none" stroke="midnightblue" d="M337.05,-45C345.61,-45 354.24,-45 362.65,-45"/>
<polygon fill="midnightblue" stroke="midnightblue" points="362.76,-48.5 372.76,-45 362.76,-41.5 362.76,-48.5"/>
</g>
<!-- Node4 -->
<g id="node4" class="node">
<title>Node4</title>
<g id="a_node4"><a xlink:href="class_autoindex_handler.html#a4ad00ccbce16e8913e108e9bf1114c3f" target="_top" xlink:title="Execute the autoindex handler.">
<polygon fill="none" stroke="black" points="536,-57.5 536,-76.5 685,-76.5 685,-57.5 536,-57.5"/>
<text text-anchor="middle" x="610.5" y="-64.5" font-family="Helvetica,sans-Serif" font-size="10.00">AutoindexHandler::execute</text>
</a>
</g>
</g>
<!-- Node3&#45;&gt;Node4 -->
<g id="edge3" class="edge">
<title>Node3&#45;&gt;Node4</title>
<path fill="none" stroke="midnightblue" d="M500.08,-53C508.44,-54.07 517.11,-55.18 525.75,-56.29"/>
<polygon fill="midnightblue" stroke="midnightblue" points="525.5,-59.78 535.86,-57.58 526.39,-52.84 525.5,-59.78"/>
</g>
<!-- Node11 -->
<g id="node11" class="node">
<title>Node11</title>
<g id="a_node11"><a xlink:href="class_file_system_policy.html#a700e01137b08674976427c869e078cc9" target="_top" xlink:title="Gets the contents of a file.">
<polygon fill="none" stroke="black" points="541.5,-8 541.5,-38 679.5,-38 679.5,-8 541.5,-8"/>
<text text-anchor="start" x="549.5" y="-26" font-family="Helvetica,sans-Serif" font-size="10.00">FileSystemPolicy::getFile</text>
<text text-anchor="middle" x="610.5" y="-15" font-family="Helvetica,sans-Serif" font-size="10.00">Contents</text>
</a>
</g>
</g>
<!-- Node3&#45;&gt;Node11 -->
<g id="edge10" class="edge">
<title>Node3&#45;&gt;Node11</title>
<path fill="none" stroke="midnightblue" d="M500.08,-37C510.27,-35.69 520.94,-34.33 531.44,-32.98"/>
<polygon fill="midnightblue" stroke="midnightblue" points="531.97,-36.44 541.45,-31.7 531.08,-29.5 531.97,-36.44"/>
</g>
<!-- Node5 -->
<g id="node5" class="node">
<title>Node5</title>
<g id="a_node5"><a xlink:href="class_directory.html#a09da8cd603ddb22990c5bb8165e14ea8" target="_top" xlink:title="Get the entries in the directory.">
<polygon fill="none" stroke="black" points="742,-114.5 742,-133.5 858,-133.5 858,-114.5 742,-114.5"/>
<text text-anchor="middle" x="800" y="-121.5" font-family="Helvetica,sans-Serif" font-size="10.00">Directory::getEntries</text>
</a>
</g>
</g>
<!-- Node4&#45;&gt;Node5 -->
<g id="edge4" class="edge">
<title>Node4&#45;&gt;Node5</title>
<path fill="none" stroke="midnightblue" d="M636.94,-76.6C658.99,-84.74 691.85,-96.41 721,-105 729.35,-107.46 738.28,-109.85 746.99,-112.06"/>
<polygon fill="midnightblue" stroke="midnightblue" points="746.16,-115.46 756.7,-114.47 747.84,-108.67 746.16,-115.46"/>
</g>
<!-- Node7 -->
<g id="node7" class="node">
<title>Node7</title>
<g id="a_node7"><a xlink:href="_autoindex_handler_8cpp.html#aa1cdc5b5774ab502cc67a723e7634b3f" target="_top" xlink:title="Get the file size of a file.">
<polygon fill="none" stroke="black" points="765,-76.5 765,-95.5 835,-95.5 835,-76.5 765,-76.5"/>
<text text-anchor="middle" x="800" y="-83.5" font-family="Helvetica,sans-Serif" font-size="10.00">getFileSize</text>
</a>
</g>
</g>
<!-- Node4&#45;&gt;Node7 -->
<g id="edge6" class="edge">
<title>Node4&#45;&gt;Node7</title>
<path fill="none" stroke="midnightblue" d="M685.07,-74.45C708.59,-76.84 733.89,-79.4 754.66,-81.51"/>
<polygon fill="midnightblue" stroke="midnightblue" points="754.47,-85.01 764.77,-82.53 755.17,-78.04 754.47,-85.01"/>
</g>
<!-- Node8 -->
<g id="node8" class="node">
<title>Node8</title>
<g id="a_node8"><a xlink:href="class_file_system_policy.html#ad2571bc684c5f8db457d8e282729f832" target="_top" xlink:title="Gets the file status of a path.">
<polygon fill="none" stroke="black" points="721,-38.5 721,-57.5 879,-57.5 879,-38.5 721,-38.5"/>
<text text-anchor="middle" x="800" y="-45.5" font-family="Helvetica,sans-Serif" font-size="10.00">FileSystemPolicy::getFileStat</text>
</a>
</g>
</g>
<!-- Node4&#45;&gt;Node8 -->
<g id="edge7" class="edge">
<title>Node4&#45;&gt;Node8</title>
<path fill="none" stroke="midnightblue" d="M685.07,-59.55C693.47,-58.69 702.11,-57.82 710.68,-56.95"/>
<polygon fill="midnightblue" stroke="midnightblue" points="711.1,-60.42 720.7,-55.93 710.4,-53.46 711.1,-60.42"/>
</g>
<!-- Node9 -->
<g id="node9" class="node">
<title>Node9</title>
<g id="a_node9"><a xlink:href="_autoindex_handler_8cpp.html#a1ca36f6cd35dba3c07da2bc0e3380cf1" target="_top" xlink:title="Get the last modified time of a file.">
<polygon fill="none" stroke="black" points="740.5,-0.5 740.5,-19.5 859.5,-19.5 859.5,-0.5 740.5,-0.5"/>
<text text-anchor="middle" x="800" y="-7.5" font-family="Helvetica,sans-Serif" font-size="10.00">getLastModifiedTime</text>
</a>
</g>
</g>
<!-- Node4&#45;&gt;Node9 -->
<g id="edge8" class="edge">
<title>Node4&#45;&gt;Node9</title>
<path fill="none" stroke="midnightblue" d="M652.4,-57.41C663.14,-54.48 674.62,-50.96 685,-47 701.71,-40.62 704.2,-35.16 721,-29 727.84,-26.49 735.13,-24.22 742.42,-22.19"/>
<polygon fill="midnightblue" stroke="midnightblue" points="743.53,-25.51 752.29,-19.56 741.73,-18.75 743.53,-25.51"/>
</g>
<!-- Node6 -->
<g id="node6" class="node">
<title>Node6</title>
<g id="a_node6"><a xlink:href="class_file_system_policy.html#ad23fadf21355a78cce6e905f61611469" target="_top" xlink:title="Reads a directory.">
<polygon fill="none" stroke="black" points="915,-114.5 915,-133.5 1087,-133.5 1087,-114.5 915,-114.5"/>
<text text-anchor="middle" x="1001" y="-121.5" font-family="Helvetica,sans-Serif" font-size="10.00">FileSystemPolicy::readDirectory</text>
</a>
</g>
</g>
<!-- Node5&#45;&gt;Node6 -->
<g id="edge5" class="edge">
<title>Node5&#45;&gt;Node6</title>
<path fill="none" stroke="midnightblue" d="M858.03,-124C872.53,-124 888.53,-124 904.39,-124"/>
<polygon fill="midnightblue" stroke="midnightblue" points="904.77,-127.5 914.77,-124 904.77,-120.5 904.77,-127.5"/>
</g>
<!-- Node10 -->
<g id="node10" class="node">
<title>Node10</title>
<g id="a_node10"><a xlink:href="namespacewebutils.html#ab6119b08526700518f576bb78554be59" target="_top" xlink:title="Returns localtime string in provided format.">
<polygon fill="none" stroke="black" points="923,-0.5 923,-19.5 1079,-19.5 1079,-0.5 923,-0.5"/>
<text text-anchor="middle" x="1001" y="-7.5" font-family="Helvetica,sans-Serif" font-size="10.00">webutils::getLocaltimeString</text>
</a>
</g>
</g>
<!-- Node9&#45;&gt;Node10 -->
<g id="edge9" class="edge">
<title>Node9&#45;&gt;Node10</title>
<path fill="none" stroke="midnightblue" d="M859.63,-10C876.29,-10 894.8,-10 912.76,-10"/>
<polygon fill="midnightblue" stroke="midnightblue" points="912.96,-13.5 922.96,-10 912.96,-6.5 912.96,-13.5"/>
</g>
</g>
</svg>
