<?xml version="1.0" encoding="UTF-8" standalone="no"?>
<!DOCTYPE svg PUBLIC "-//W3C//DTD SVG 1.1//EN"
 "http://www.w3.org/Graphics/SVG/1.1/DTD/svg11.dtd">
<!-- Generated by graphviz version 2.43.0 (0)
 -->
<!-- Title: SocketPolicy::readFromSocket Pages: 1 -->
<svg width="955pt" height="66pt"
 viewBox="0.00 0.00 955.00 66.00" xmlns="http://www.w3.org/2000/svg" xmlns:xlink="http://www.w3.org/1999/xlink">
<g id="graph0" class="graph" transform="scale(1 1) rotate(0) translate(4 62)">
<title>SocketPolicy::readFromSocket</title>
<!-- Node1 -->
<g id="node1" class="node">
<title>Node1</title>
<g id="a_node1"><a xlink:title="Read from a socket.">
<polygon fill="#bfbfbf" stroke="black" points="785,-19.5 785,-38.5 947,-38.5 947,-19.5 785,-19.5"/>
<text text-anchor="middle" x="866" y="-26.5" font-family="Helvetica,sans-Serif" font-size="10.00">SocketPolicy::readFromSocket</text>
</a>
</g>
</g>
<!-- Node2 -->
<g id="node2" class="node">
<title>Node2</title>
<g id="a_node2"><a xlink:href="class_server.html#ae94e3d4b5743580a6fbe3228d58af423" target="_top" xlink:title="Wrapper function to SocketPolicy::readFromSocket.">
<polygon fill="none" stroke="black" points="616,-19.5 616,-38.5 749,-38.5 749,-19.5 616,-19.5"/>
<text text-anchor="middle" x="682.5" y="-26.5" font-family="Helvetica,sans-Serif" font-size="10.00">Server::readFromSocket</text>
</a>
</g>
</g>
<!-- Node1&#45;&gt;Node2 -->
<g id="edge1" class="edge">
<title>Node1&#45;&gt;Node2</title>
<path fill="none" stroke="midnightblue" d="M774.73,-29C766.07,-29 757.42,-29 749.07,-29"/>
<polygon fill="midnightblue" stroke="midnightblue" points="774.86,-32.5 784.86,-29 774.86,-25.5 774.86,-32.5"/>
</g>
<!-- Node3 -->
<g id="node3" class="node">
<title>Node3</title>
<g id="a_node3"><a xlink:href="_server_8hpp.html#a3f930db051b00ade521e2633cee948bd" target="_top" xlink:title="Receives the body of a connection.">
<polygon fill="none" stroke="black" points="441,-38.5 441,-57.5 575,-57.5 575,-38.5 441,-38.5"/>
<text text-anchor="middle" x="508" y="-45.5" font-family="Helvetica,sans-Serif" font-size="10.00">connectionReceiveBody</text>
</a>
</g>
</g>
<!-- Node2&#45;&gt;Node3 -->
<g id="edge2" class="edge">
<title>Node2&#45;&gt;Node3</title>
<path fill="none" stroke="midnightblue" d="M605.69,-37.35C595.49,-38.47 585.1,-39.62 575.1,-40.72"/>
<polygon fill="midnightblue" stroke="midnightblue" points="606.24,-40.81 615.79,-36.24 605.47,-33.85 606.24,-40.81"/>
</g>
<!-- Node8 -->
<g id="node8" class="node">
<title>Node8</title>
<g id="a_node8"><a xlink:href="_server_8hpp.html#a06d0cb066f08d5567ea6ba4ef2897927" target="_top" xlink:title="Receive request header from a client.">
<polygon fill="none" stroke="black" points="436,-0.5 436,-19.5 580,-19.5 580,-0.5 436,-0.5"/>
<text text-anchor="middle" x="508" y="-7.5" font-family="Helvetica,sans-Serif" font-size="10.00">connectionReceiveHeader</text>
</a>
</g>
</g>
<!-- Node2&#45;&gt;Node8 -->
<g id="edge7" class="edge">
<title>Node2&#45;&gt;Node8</title>
<path fill="none" stroke="midnightblue" d="M605.61,-20.64C597.19,-19.71 588.63,-18.77 580.27,-17.85"/>
<polygon fill="midnightblue" stroke="midnightblue" points="605.47,-24.15 615.79,-21.76 606.24,-17.19 605.47,-24.15"/>
</g>
<!-- Node4 -->
<g id="node4" class="node">
<title>Node4</title>
<g id="a_node4"><a xlink:href="_server_8hpp.html#ac74673700d26f829e84f0b5011c35c94" target="_top" xlink:title="Handle a client connection.">
<polygon fill="none" stroke="black" points="296,-38.5 296,-57.5 400,-57.5 400,-38.5 296,-38.5"/>
<text text-anchor="middle" x="348" y="-45.5" font-family="Helvetica,sans-Serif" font-size="10.00">handleConnection</text>
</a>
</g>
</g>
<!-- Node3&#45;&gt;Node4 -->
<g id="edge3" class="edge">
<title>Node3&#45;&gt;Node4</title>
<path fill="none" stroke="midnightblue" d="M430.69,-48C420.42,-48 410.1,-48 400.41,-48"/>
<polygon fill="midnightblue" stroke="midnightblue" points="430.91,-51.5 440.91,-48 430.91,-44.5 430.91,-51.5"/>
</g>
<!-- Node5 -->
<g id="node5" class="node">
<title>Node5</title>
<g id="a_node5"><a xlink:href="_server_8hpp.html#a4211c4d6b958979b39b3dfc8148c801a" target="_top" xlink:title="Accepts new connections or handles existing ones.">
<polygon fill="none" stroke="black" points="183,-38.5 183,-57.5 260,-57.5 260,-38.5 183,-38.5"/>
<text text-anchor="middle" x="221.5" y="-45.5" font-family="Helvetica,sans-Serif" font-size="10.00">handleEvent</text>
</a>
</g>
</g>
<!-- Node4&#45;&gt;Node5 -->
<g id="edge4" class="edge">
<title>Node4&#45;&gt;Node5</title>
<path fill="none" stroke="midnightblue" d="M285.49,-48C276.8,-48 268.1,-48 260.05,-48"/>
<polygon fill="midnightblue" stroke="midnightblue" points="285.64,-51.5 295.64,-48 285.64,-44.5 285.64,-51.5"/>
</g>
<!-- Node6 -->
<g id="node6" class="node">
<title>Node6</title>
<g id="a_node6"><a xlink:href="class_server.html#abb27d30b40a94326e3fd629d3b30b7d5" target="_top" xlink:title="Runs the main event loop.">
<polygon fill="none" stroke="black" points="77,-38.5 77,-57.5 147,-57.5 147,-38.5 77,-38.5"/>
<text text-anchor="middle" x="112" y="-45.5" font-family="Helvetica,sans-Serif" font-size="10.00">Server::run</text>
</a>
</g>
</g>
<!-- Node5&#45;&gt;Node6 -->
<g id="edge5" class="edge">
<title>Node5&#45;&gt;Node6</title>
<path fill="none" stroke="midnightblue" d="M172.88,-48C164.22,-48 155.34,-48 147.16,-48"/>
<polygon fill="midnightblue" stroke="midnightblue" points="172.9,-51.5 182.9,-48 172.9,-44.5 172.9,-51.5"/>
</g>
<!-- Node7 -->
<g id="node7" class="node">
<title>Node7</title>
<g id="a_node7"><a xlink:href="main_8cpp.html#a3c04138a5bfe5d72780bb7e82a18e627" target="_top" xlink:title=" ">
<polygon fill="none" stroke="black" points="0,-38.5 0,-57.5 41,-57.5 41,-38.5 0,-38.5"/>
<text text-anchor="middle" x="20.5" y="-45.5" font-family="Helvetica,sans-Serif" font-size="10.00">main</text>
</a>
</g>
</g>
<!-- Node6&#45;&gt;Node7 -->
<g id="edge6" class="edge">
<title>Node6&#45;&gt;Node7</title>
<path fill="none" stroke="midnightblue" d="M66.85,-48C57.87,-48 48.85,-48 41.24,-48"/>
<polygon fill="midnightblue" stroke="midnightblue" points="66.91,-51.5 76.91,-48 66.91,-44.5 66.91,-51.5"/>
</g>
<!-- Node8&#45;&gt;Node4 -->
<g id="edge8" class="edge">
<title>Node8&#45;&gt;Node4</title>
<path fill="none" stroke="midnightblue" d="M457.24,-21.97C435.1,-27.29 409.39,-33.48 388.58,-38.48"/>
<polygon fill="midnightblue" stroke="midnightblue" points="458.23,-25.33 467.13,-19.59 456.59,-18.52 458.23,-25.33"/>
</g>
<!-- Node9 -->
<g id="node9" class="node">
<title>Node9</title>
<g id="a_node9"><a xlink:href="test__connection_receive_header_8cpp.html#ae40546436ca5ae6d8af1f754dfff4a98" target="_top" xlink:title=" ">
<polygon fill="none" stroke="black" points="322,-0.5 322,-19.5 374,-19.5 374,-0.5 322,-0.5"/>
<text text-anchor="middle" x="348" y="-7.5" font-family="Helvetica,sans-Serif" font-size="10.00">TEST_F</text>
</a>
</g>
</g>
<!-- Node8&#45;&gt;Node9 -->
<g id="edge9" class="edge">
<title>Node8&#45;&gt;Node9</title>
<path fill="none" stroke="midnightblue" d="M425.72,-10C406.89,-10 388.25,-10 374.05,-10"/>
<polygon fill="midnightblue" stroke="midnightblue" points="425.86,-13.5 435.86,-10 425.86,-6.5 425.86,-13.5"/>
</g>
</g>
</svg>
