<?xml version="1.0" encoding="UTF-8" standalone="no"?>
<!DOCTYPE svg PUBLIC "-//W3C//DTD SVG 1.1//EN"
 "http://www.w3.org/Graphics/SVG/1.1/DTD/svg11.dtd">
<!-- Generated by graphviz version 2.43.0 (0)
 -->
<!-- Title: Server::retrieveSocketInfo Pages: 1 -->
<svg width="743pt" height="161pt"
 viewBox="0.00 0.00 743.00 161.00" xmlns="http://www.w3.org/2000/svg" xmlns:xlink="http://www.w3.org/1999/xlink">
<g id="graph0" class="graph" transform="scale(1 1) rotate(0) translate(4 157)">
<title>Server::retrieveSocketInfo</title>
<!-- Node1 -->
<g id="node1" class="node">
<title>Node1</title>
<g id="a_node1"><a xlink:title="Wrapper function to SocketPolicy::retrieveSocketInfo.">
<polygon fill="#bfbfbf" stroke="black" points="592,-57.5 592,-76.5 735,-76.5 735,-57.5 592,-57.5"/>
<text text-anchor="middle" x="663.5" y="-64.5" font-family="Helvetica,sans-Serif" font-size="10.00">Server::retrieveSocketInfo</text>
</a>
</g>
</g>
<!-- Node2 -->
<g id="node2" class="node">
<title>Node2</title>
<g id="a_node2"><a xlink:href="_server_8hpp.html#adb579f3d67061d752e882e6fb3ef6f18" target="_top" xlink:title="Accept new connections.">
<polygon fill="none" stroke="black" points="446,-76.5 446,-95.5 555,-95.5 555,-76.5 446,-76.5"/>
<text text-anchor="middle" x="500.5" y="-83.5" font-family="Helvetica,sans-Serif" font-size="10.00">acceptConnections</text>
</a>
</g>
</g>
<!-- Node1&#45;&gt;Node2 -->
<g id="edge1" class="edge">
<title>Node1&#45;&gt;Node2</title>
<path fill="none" stroke="midnightblue" d="M581.72,-76.53C572.69,-77.6 563.68,-78.66 555.12,-79.67"/>
<polygon fill="midnightblue" stroke="midnightblue" points="582.36,-79.98 591.88,-75.33 581.54,-73.03 582.36,-79.98"/>
</g>
<!-- Node9 -->
<g id="node9" class="node">
<title>Node9</title>
<g id="a_node9"><a xlink:href="_server_8hpp.html#aa6ca6a0179cbb661c05aa6b2758f5389" target="_top" xlink:title="Creates a new virtual server and registers it with the server object.">
<polygon fill="none" stroke="black" points="445,-38.5 445,-57.5 556,-57.5 556,-38.5 445,-38.5"/>
<text text-anchor="middle" x="500.5" y="-45.5" font-family="Helvetica,sans-Serif" font-size="10.00">createVirtualServer</text>
</a>
</g>
</g>
<!-- Node1&#45;&gt;Node9 -->
<g id="edge9" class="edge">
<title>Node1&#45;&gt;Node9</title>
<path fill="none" stroke="midnightblue" d="M581.71,-57.47C573.03,-56.44 564.36,-55.42 556.09,-54.44"/>
<polygon fill="midnightblue" stroke="midnightblue" points="581.54,-60.97 591.88,-58.67 582.36,-54.02 581.54,-60.97"/>
</g>
<!-- Node3 -->
<g id="node3" class="node">
<title>Node3</title>
<g id="a_node3"><a xlink:href="_server_8hpp.html#a4211c4d6b958979b39b3dfc8148c801a" target="_top" xlink:title="Accepts new connections or handles existing ones.">
<polygon fill="none" stroke="black" points="320,-114.5 320,-133.5 397,-133.5 397,-114.5 320,-114.5"/>
<text text-anchor="middle" x="358.5" y="-121.5" font-family="Helvetica,sans-Serif" font-size="10.00">handleEvent</text>
</a>
</g>
</g>
<!-- Node2&#45;&gt;Node3 -->
<g id="edge2" class="edge">
<title>Node2&#45;&gt;Node3</title>
<path fill="none" stroke="midnightblue" d="M454.38,-98.25C435.09,-103.48 412.89,-109.51 394.82,-114.41"/>
<polygon fill="midnightblue" stroke="midnightblue" points="455.44,-101.59 464.17,-95.59 453.6,-94.83 455.44,-101.59"/>
</g>
<!-- Node8 -->
<g id="node8" class="node">
<title>Node8</title>
<g id="a_node8"><a xlink:href="test__accept_connections_8cpp.html#a78ef81e117d5c1a90c27410155ac152b" target="_top" xlink:title=" ">
<polygon fill="none" stroke="black" points="332.5,-76.5 332.5,-95.5 384.5,-95.5 384.5,-76.5 332.5,-76.5"/>
<text text-anchor="middle" x="358.5" y="-83.5" font-family="Helvetica,sans-Serif" font-size="10.00">TEST_F</text>
</a>
</g>
</g>
<!-- Node2&#45;&gt;Node8 -->
<g id="edge8" class="edge">
<title>Node2&#45;&gt;Node8</title>
<path fill="none" stroke="midnightblue" d="M435.57,-86C417.57,-86 399.04,-86 384.77,-86"/>
<polygon fill="midnightblue" stroke="midnightblue" points="435.77,-89.5 445.77,-86 435.77,-82.5 435.77,-89.5"/>
</g>
<!-- Node4 -->
<g id="node4" class="node">
<title>Node4</title>
<g id="a_node4"><a xlink:href="_server_8hpp.html#ab66b27c2186daacb15a6b13dd43be31b" target="_top" xlink:title="Runs the main event loop with a server object.">
<polygon fill="none" stroke="black" points="77,-133.5 77,-152.5 141,-152.5 141,-133.5 77,-133.5"/>
<text text-anchor="middle" x="109" y="-140.5" font-family="Helvetica,sans-Serif" font-size="10.00">runServer</text>
</a>
</g>
</g>
<!-- Node3&#45;&gt;Node4 -->
<g id="edge3" class="edge">
<title>Node3&#45;&gt;Node4</title>
<path fill="none" stroke="midnightblue" d="M309.74,-127.67C260.06,-131.48 183.74,-137.34 141.27,-140.6"/>
<polygon fill="midnightblue" stroke="midnightblue" points="310.21,-131.14 319.91,-126.89 309.67,-124.16 310.21,-131.14"/>
</g>
<!-- Node6 -->
<g id="node6" class="node">
<title>Node6</title>
<g id="a_node6"><a xlink:href="_server_8hpp.html#a115ecd76e344c1007bedc48b9bbdc0fa" target="_top" xlink:title="Performs a graceful shutdown of the server.">
<polygon fill="none" stroke="black" points="177,-95.5 177,-114.5 272,-114.5 272,-95.5 177,-95.5"/>
<text text-anchor="middle" x="224.5" y="-102.5" font-family="Helvetica,sans-Serif" font-size="10.00">shutdownServer</text>
</a>
</g>
</g>
<!-- Node3&#45;&gt;Node6 -->
<g id="edge5" class="edge">
<title>Node3&#45;&gt;Node6</title>
<path fill="none" stroke="midnightblue" d="M309.68,-117.12C297.49,-115.36 284.4,-113.48 272.25,-111.73"/>
<polygon fill="midnightblue" stroke="midnightblue" points="309.28,-120.59 319.67,-118.56 310.27,-113.67 309.28,-120.59"/>
</g>
<!-- Node5 -->
<g id="node5" class="node">
<title>Node5</title>
<g id="a_node5"><a xlink:href="main_8cpp.html#a3c04138a5bfe5d72780bb7e82a18e627" target="_top" xlink:title=" ">
<polygon fill="none" stroke="black" points="0,-95.5 0,-114.5 41,-114.5 41,-95.5 0,-95.5"/>
<text text-anchor="middle" x="20.5" y="-102.5" font-family="Helvetica,sans-Serif" font-size="10.00">main</text>
</a>
</g>
</g>
<!-- Node4&#45;&gt;Node5 -->
<g id="edge4" class="edge">
<title>Node4&#45;&gt;Node5</title>
<path fill="none" stroke="midnightblue" d="M76.99,-129.38C65.08,-124.14 51.82,-118.32 41.25,-113.68"/>
<polygon fill="midnightblue" stroke="midnightblue" points="75.61,-132.59 86.17,-133.41 78.42,-126.18 75.61,-132.59"/>
</g>
<!-- Node6&#45;&gt;Node4 -->
<g id="edge6" class="edge">
<title>Node6&#45;&gt;Node4</title>
<path fill="none" stroke="midnightblue" d="M185.19,-117.83C169.96,-122.92 152.74,-128.69 138.63,-133.41"/>
<polygon fill="midnightblue" stroke="midnightblue" points="186.49,-121.08 194.86,-114.59 184.27,-114.44 186.49,-121.08"/>
</g>
<!-- Node7 -->
<g id="node7" class="node">
<title>Node7</title>
<g id="a_node7"><a xlink:href="test__shutdown_server_8cpp.html#ae0ede4f52ef6c742c532c14b92b6179a" target="_top" xlink:title=" ">
<polygon fill="none" stroke="black" points="83,-95.5 83,-114.5 135,-114.5 135,-95.5 83,-95.5"/>
<text text-anchor="middle" x="109" y="-102.5" font-family="Helvetica,sans-Serif" font-size="10.00">TEST_F</text>
</a>
</g>
</g>
<!-- Node6&#45;&gt;Node7 -->
<g id="edge7" class="edge">
<title>Node6&#45;&gt;Node7</title>
<path fill="none" stroke="midnightblue" d="M166.63,-105C155.63,-105 144.64,-105 135.3,-105"/>
<polygon fill="midnightblue" stroke="midnightblue" points="166.68,-108.5 176.68,-105 166.68,-101.5 166.68,-108.5"/>
</g>
<!-- Node10 -->
<g id="node10" class="node">
<title>Node10</title>
<g id="a_node10"><a xlink:href="_server_8hpp.html#a35359f61d42dbd6561a07c12009ca45a" target="_top" xlink:title="Initialize virtual servers.">
<polygon fill="none" stroke="black" points="308,-38.5 308,-57.5 409,-57.5 409,-38.5 308,-38.5"/>
<text text-anchor="middle" x="358.5" y="-45.5" font-family="Helvetica,sans-Serif" font-size="10.00">initVirtualServers</text>
</a>
</g>
</g>
<!-- Node9&#45;&gt;Node10 -->
<g id="edge10" class="edge">
<title>Node9&#45;&gt;Node10</title>
<path fill="none" stroke="midnightblue" d="M434.88,-48C426.21,-48 417.44,-48 409.08,-48"/>
<polygon fill="midnightblue" stroke="midnightblue" points="434.97,-51.5 444.97,-48 434.97,-44.5 434.97,-51.5"/>
</g>
<!-- Node12 -->
<g id="node12" class="node">
<title>Node12</title>
<g id="a_node12"><a xlink:href="test__create_virtual_server_8cpp.html#a0dab7ae2d51f771c7d651de64d6fd66a" target="_top" xlink:title=" ">
<polygon fill="none" stroke="black" points="332.5,-0.5 332.5,-19.5 384.5,-19.5 384.5,-0.5 332.5,-0.5"/>
<text text-anchor="middle" x="358.5" y="-7.5" font-family="Helvetica,sans-Serif" font-size="10.00">TEST_F</text>
</a>
</g>
</g>
<!-- Node9&#45;&gt;Node12 -->
<g id="edge13" class="edge">
<title>Node9&#45;&gt;Node12</title>
<path fill="none" stroke="midnightblue" d="M454.24,-35.71C431.17,-29.45 403.98,-22.07 384.66,-16.83"/>
<polygon fill="midnightblue" stroke="midnightblue" points="453.6,-39.17 464.17,-38.41 455.44,-32.41 453.6,-39.17"/>
</g>
<!-- Node10&#45;&gt;Node5 -->
<g id="edge11" class="edge">
<title>Node10&#45;&gt;Node5</title>
<path fill="none" stroke="midnightblue" d="M297.5,-52.71C240.28,-58.01 151.96,-68.27 77,-86 64.81,-88.88 51.52,-93.38 41,-97.28"/>
<polygon fill="midnightblue" stroke="midnightblue" points="298.17,-56.17 307.82,-51.78 297.54,-49.19 298.17,-56.17"/>
</g>
<!-- Node11 -->
<g id="node11" class="node">
<title>Node11</title>
<g id="a_node11"><a xlink:href="test___config_file_parser_8cpp.html#acdf80c4eac12c31af201f6f13f46dfef" target="_top" xlink:title=" ">
<polygon fill="none" stroke="black" points="198.5,-19.5 198.5,-38.5 250.5,-38.5 250.5,-19.5 198.5,-19.5"/>
<text text-anchor="middle" x="224.5" y="-26.5" font-family="Helvetica,sans-Serif" font-size="10.00">TEST_F</text>
</a>
</g>
</g>
<!-- Node10&#45;&gt;Node11 -->
<g id="edge12" class="edge">
<title>Node10&#45;&gt;Node11</title>
<path fill="none" stroke="midnightblue" d="M297.8,-39.41C281.28,-37.03 264.23,-34.58 250.84,-32.65"/>
<polygon fill="midnightblue" stroke="midnightblue" points="297.58,-42.91 307.97,-40.87 298.57,-35.98 297.58,-42.91"/>
</g>
</g>
</svg>
