<?xml version="1.0" encoding="UTF-8" standalone="no"?>
<!DOCTYPE svg PUBLIC "-//W3C//DTD SVG 1.1//EN"
 "http://www.w3.org/Graphics/SVG/1.1/DTD/svg11.dtd">
<!-- Generated by graphviz version 2.43.0 (0)
 -->
<!-- Title: SocketPolicy::createListeningSocket Pages: 1 -->
<svg width="735pt" height="85pt"
 viewBox="0.00 0.00 735.00 85.00" xmlns="http://www.w3.org/2000/svg" xmlns:xlink="http://www.w3.org/1999/xlink">
<g id="graph0" class="graph" transform="scale(1 1) rotate(0) translate(4 81)">
<title>SocketPolicy::createListeningSocket</title>
<!-- Node1 -->
<g id="node1" class="node">
<title>Node1</title>
<g id="a_node1"><a xlink:title="Create a listening socket.">
<polygon fill="#bfbfbf" stroke="black" points="569,-14 569,-44 727,-44 727,-14 569,-14"/>
<text text-anchor="start" x="577" y="-32" font-family="Helvetica,sans-Serif" font-size="10.00">SocketPolicy::createListening</text>
<text text-anchor="middle" x="648" y="-21" font-family="Helvetica,sans-Serif" font-size="10.00">Socket</text>
</a>
</g>
</g>
<!-- Node2 -->
<g id="node2" class="node">
<title>Node2</title>
<g id="a_node2"><a xlink:href="class_server.html#a64115bbffcd050870e5380768033c560" target="_top" xlink:title="Wrapper function to SocketPolicy::createListeningSocket.">
<polygon fill="none" stroke="black" points="372,-19.5 372,-38.5 533,-38.5 533,-19.5 372,-19.5"/>
<text text-anchor="middle" x="452.5" y="-26.5" font-family="Helvetica,sans-Serif" font-size="10.00">Server::createListeningSocket</text>
</a>
</g>
</g>
<!-- Node1&#45;&gt;Node2 -->
<g id="edge1" class="edge">
<title>Node1&#45;&gt;Node2</title>
<path fill="none" stroke="midnightblue" d="M558.59,-29C550.12,-29 541.57,-29 533.2,-29"/>
<polygon fill="midnightblue" stroke="midnightblue" points="558.85,-32.5 568.85,-29 558.85,-25.5 558.85,-32.5"/>
</g>
<!-- Node3 -->
<g id="node3" class="node">
<title>Node3</title>
<g id="a_node3"><a xlink:href="_server_8hpp.html#aa6ca6a0179cbb661c05aa6b2758f5389" target="_top" xlink:title="Creates a new virtual server and registers it with the server object.">
<polygon fill="none" stroke="black" points="225,-19.5 225,-38.5 336,-38.5 336,-19.5 225,-19.5"/>
<text text-anchor="middle" x="280.5" y="-26.5" font-family="Helvetica,sans-Serif" font-size="10.00">createVirtualServer</text>
</a>
</g>
</g>
<!-- Node2&#45;&gt;Node3 -->
<g id="edge2" class="edge">
<title>Node2&#45;&gt;Node3</title>
<path fill="none" stroke="midnightblue" d="M361.75,-29C353.05,-29 344.42,-29 336.22,-29"/>
<polygon fill="midnightblue" stroke="midnightblue" points="361.98,-32.5 371.98,-29 361.98,-25.5 361.98,-32.5"/>
</g>
<!-- Node4 -->
<g id="node4" class="node">
<title>Node4</title>
<g id="a_node4"><a xlink:href="_server_8hpp.html#a35359f61d42dbd6561a07c12009ca45a" target="_top" xlink:title="Initialize virtual servers.">
<polygon fill="none" stroke="black" points="88,-38.5 88,-57.5 189,-57.5 189,-38.5 88,-38.5"/>
<text text-anchor="middle" x="138.5" y="-45.5" font-family="Helvetica,sans-Serif" font-size="10.00">initVirtualServers</text>
</a>
</g>
</g>
<!-- Node3&#45;&gt;Node4 -->
<g id="edge3" class="edge">
<title>Node3&#45;&gt;Node4</title>
<path fill="none" stroke="midnightblue" d="M214.88,-37.77C206.21,-38.95 197.44,-40.14 189.08,-41.27"/>
<polygon fill="midnightblue" stroke="midnightblue" points="215.53,-41.21 224.97,-36.4 214.59,-34.28 215.53,-41.21"/>
</g>
<!-- Node7 -->
<g id="node7" class="node">
<title>Node7</title>
<g id="a_node7"><a xlink:href="test__create_virtual_server_8cpp.html#a0dab7ae2d51f771c7d651de64d6fd66a" target="_top" xlink:title=" ">
<polygon fill="none" stroke="black" points="112.5,-0.5 112.5,-19.5 164.5,-19.5 164.5,-0.5 112.5,-0.5"/>
<text text-anchor="middle" x="138.5" y="-7.5" font-family="Helvetica,sans-Serif" font-size="10.00">TEST_F</text>
</a>
</g>
</g>
<!-- Node3&#45;&gt;Node7 -->
<g id="edge6" class="edge">
<title>Node3&#45;&gt;Node7</title>
<path fill="none" stroke="midnightblue" d="M214.65,-20.2C196.97,-17.8 178.86,-15.34 164.84,-13.44"/>
<polygon fill="midnightblue" stroke="midnightblue" points="214.59,-23.72 224.97,-21.6 215.53,-16.79 214.59,-23.72"/>
</g>
<!-- Node5 -->
<g id="node5" class="node">
<title>Node5</title>
<g id="a_node5"><a xlink:href="main_8cpp.html#a3c04138a5bfe5d72780bb7e82a18e627" target="_top" xlink:title=" ">
<polygon fill="none" stroke="black" points="5.5,-57.5 5.5,-76.5 46.5,-76.5 46.5,-57.5 5.5,-57.5"/>
<text text-anchor="middle" x="26" y="-64.5" font-family="Helvetica,sans-Serif" font-size="10.00">main</text>
</a>
</g>
</g>
<!-- Node4&#45;&gt;Node5 -->
<g id="edge4" class="edge">
<title>Node4&#45;&gt;Node5</title>
<path fill="none" stroke="midnightblue" d="M77.82,-58.26C66.55,-60.2 55.53,-62.09 46.64,-63.62"/>
<polygon fill="midnightblue" stroke="midnightblue" points="78.48,-61.7 87.75,-56.56 77.3,-54.8 78.48,-61.7"/>
</g>
<!-- Node6 -->
<g id="node6" class="node">
<title>Node6</title>
<g id="a_node6"><a xlink:href="test__init_virtual_servers_8cpp.html#a25537358add2db1ce439b611dffe8790" target="_top" xlink:title=" ">
<polygon fill="none" stroke="black" points="0,-19.5 0,-38.5 52,-38.5 52,-19.5 0,-19.5"/>
<text text-anchor="middle" x="26" y="-26.5" font-family="Helvetica,sans-Serif" font-size="10.00">TEST_F</text>
</a>
</g>
</g>
<!-- Node4&#45;&gt;Node6 -->
<g id="edge5" class="edge">
<title>Node4&#45;&gt;Node6</title>
<path fill="none" stroke="midnightblue" d="M77.85,-37.74C68.75,-36.18 59.81,-34.64 52.03,-33.3"/>
<polygon fill="midnightblue" stroke="midnightblue" points="77.3,-41.2 87.75,-39.44 78.48,-34.3 77.3,-41.2"/>
</g>
</g>
</svg>
