<?xml version="1.0" encoding="UTF-8" standalone="no"?>
<!DOCTYPE svg PUBLIC "-//W3C//DTD SVG 1.1//EN"
 "http://www.w3.org/Graphics/SVG/1.1/DTD/svg11.dtd">
<!-- Generated by graphviz version 2.43.0 (0)
 -->
<!-- Title: EpollWrapper::addEvent Pages: 1 -->
<svg width="1249pt" height="1197pt"
 viewBox="0.00 0.00 1249.00 1197.10" xmlns="http://www.w3.org/2000/svg" xmlns:xlink="http://www.w3.org/1999/xlink">
<g id="graph0" class="graph" transform="scale(1 1) rotate(0) translate(4 1193.1)">
<title>EpollWrapper::addEvent</title>
<!-- Node1 -->
<g id="Node000001" class="node">
<title>Node1</title>
<g id="a_Node000001"><a xlink:title="Add an event to the epoll instance.">
<polygon fill="#999999" stroke="#666666" points="1241,-628 1107,-628 1107,-609 1241,-609 1241,-628"/>
<text text-anchor="middle" x="1174" y="-616" font-family="Helvetica,sans-Serif" font-size="10.00">EpollWrapper::addEvent</text>
</a>
</g>
</g>
<!-- Node2 -->
<g id="Node000002" class="node">
<title>Node2</title>
<g id="a_Node000002"><a xlink:href="class_server.html#ae02283a176e4c6ffc9ff0efaf00074cf" target="_top" xlink:title="Wrapper function to EpollWrapper::addEvent.">
<polygon fill="white" stroke="#666666" points="1033,-1021 933,-1021 933,-1002 1033,-1002 1033,-1021"/>
<text text-anchor="middle" x="983" y="-1009" font-family="Helvetica,sans-Serif" font-size="10.00">Server::addEvent</text>
</a>
</g>
</g>
<!-- Node1&#45;&gt;Node2 -->
<g id="edge1_Node000001_Node000002" class="edge">
<title>Node1&#45;&gt;Node2</title>
<g id="a_edge1_Node000001_Node000002"><a xlink:title=" ">
<path fill="none" stroke="#63b8ff" d="M1163.8,-637.62C1130.03,-707.85 1013.51,-950.14 988.68,-1001.77"/>
<polygon fill="#63b8ff" stroke="#63b8ff" points="1167.15,-638.74 1168.33,-628.21 1160.84,-635.71 1167.15,-638.74"/>
</a>
</g>
</g>
<!-- Node18 -->
<g id="Node000018" class="node">
<title>Node18</title>
<g id="a_Node000018"><a xlink:href="class_server.html#abcfb45414689863da69c2e72ac8fc946" target="_top" xlink:title="Register a CGI file descriptor.">
<polygon fill="white" stroke="#666666" points="1071,-817 895,-817 895,-798 1071,-798 1071,-817"/>
<text text-anchor="middle" x="983" y="-805" font-family="Helvetica,sans-Serif" font-size="10.00">Server::registerCGIFileDescriptor</text>
</a>
</g>
</g>
<!-- Node1&#45;&gt;Node18 -->
<g id="edge12_Node000001_Node000018" class="edge">
<title>Node1&#45;&gt;Node18</title>
<g id="a_edge12_Node000001_Node000018"><a xlink:title=" ">
<path fill="none" stroke="#63b8ff" d="M1156.01,-635.49C1117.46,-674.04 1024.32,-767.18 993.84,-797.66"/>
<polygon fill="#63b8ff" stroke="#63b8ff" points="1158.77,-637.68 1163.37,-628.13 1153.82,-632.73 1158.77,-637.68"/>
</a>
</g>
</g>
<!-- Node40 -->
<g id="Node000040" class="node">
<title>Node40</title>
<g id="a_Node000040"><a xlink:href="class_server.html#ac145e9f668db85b10a66829bd2677746" target="_top" xlink:title="Register a connection.">
<polygon fill="white" stroke="#666666" points="1056,-452 910,-452 910,-433 1056,-433 1056,-452"/>
<text text-anchor="middle" x="983" y="-440" font-family="Helvetica,sans-Serif" font-size="10.00">Server::registerConnection</text>
</a>
</g>
</g>
<!-- Node1&#45;&gt;Node40 -->
<g id="edge30_Node000001_Node000040" class="edge">
<title>Node1&#45;&gt;Node40</title>
<g id="a_edge30_Node000001_Node000040"><a xlink:title=" ">
<path fill="none" stroke="#63b8ff" d="M1155.13,-601.86C1116.39,-565.79 1025.67,-481.3 994.63,-452.4"/>
<polygon fill="#63b8ff" stroke="#63b8ff" points="1152.87,-604.53 1162.57,-608.79 1157.64,-599.41 1152.87,-604.53"/>
</a>
</g>
</g>
<!-- Node54 -->
<g id="Node000054" class="node">
<title>Node54</title>
<g id="a_Node000054"><a xlink:href="class_server.html#aae8cc5a8fc07a6ce97d468d94cd08a6e" target="_top" xlink:title="Register a virtual server.">
<polygon fill="white" stroke="#666666" points="1060.5,-313 905.5,-313 905.5,-294 1060.5,-294 1060.5,-313"/>
<text text-anchor="middle" x="983" y="-301" font-family="Helvetica,sans-Serif" font-size="10.00">Server::registerVirtualServer</text>
</a>
</g>
</g>
<!-- Node1&#45;&gt;Node54 -->
<g id="edge45_Node000001_Node000054" class="edge">
<title>Node1&#45;&gt;Node54</title>
<g id="a_edge45_Node000001_Node000054"><a xlink:title=" ">
<path fill="none" stroke="#63b8ff" d="M1164.28,-599.86C1147.6,-564.73 1109.43,-486.66 1071,-424.5 1044.33,-381.37 1007.5,-333.35 991.7,-313.22"/>
<polygon fill="#63b8ff" stroke="#63b8ff" points="1161.13,-601.4 1168.57,-608.95 1167.47,-598.42 1161.13,-601.4"/>
</a>
</g>
</g>
<!-- Node3 -->
<g id="Node000003" class="node">
<title>Node3</title>
<g id="a_Node000003"><a xlink:href="_server_8cpp.html#a1a02f28f05641d9b3dd7f8207e57bd68" target="_top" xlink:title="Handles receiving data from a CGI script and processes it accordingly.">
<polygon fill="white" stroke="#666666" points="825.5,-1152 674.5,-1152 674.5,-1133 825.5,-1133 825.5,-1152"/>
<text text-anchor="middle" x="750" y="-1140" font-family="Helvetica,sans-Serif" font-size="10.00">connectionReceiveFromCGI</text>
</a>
</g>
</g>
<!-- Node2&#45;&gt;Node3 -->
<g id="edge2_Node000002_Node000003" class="edge">
<title>Node2&#45;&gt;Node3</title>
<g id="a_edge2_Node000002_Node000003"><a xlink:title=" ">
<path fill="none" stroke="#63b8ff" d="M956.23,-1026.11C908.62,-1053.11 808.08,-1110.13 768.01,-1132.85"/>
<polygon fill="#63b8ff" stroke="#63b8ff" points="958.04,-1029.11 965.01,-1021.13 954.59,-1023.02 958.04,-1029.11"/>
</a>
</g>
</g>
<!-- Node14 -->
<g id="Node000014" class="node">
<title>Node14</title>
<g id="a_Node000014"><a xlink:href="_server_8cpp.html#a03e6a55f5c946d4fb308f7c1758e1b51" target="_top" xlink:title="Sends the request body to the CGI process.">
<polygon fill="white" stroke="#666666" points="811,-1021 689,-1021 689,-1002 811,-1002 811,-1021"/>
<text text-anchor="middle" x="750" y="-1009" font-family="Helvetica,sans-Serif" font-size="10.00">connectionSendToCGI</text>
</a>
</g>
</g>
<!-- Node2&#45;&gt;Node14 -->
<g id="edge7_Node000002_Node000014" class="edge">
<title>Node2&#45;&gt;Node14</title>
<g id="a_edge7_Node000002_Node000014"><a xlink:title=" ">
<path fill="none" stroke="#63b8ff" d="M922.43,-1011.5C888.28,-1011.5 845.55,-1011.5 811.28,-1011.5"/>
<polygon fill="#63b8ff" stroke="#63b8ff" points="922.73,-1015 932.73,-1011.5 922.73,-1008 922.73,-1015"/>
</a>
</g>
</g>
<!-- Node4 -->
<g id="Node000004" class="node">
<title>Node4</title>
<g id="a_Node000004"><a xlink:href="_server_8cpp.html#afb62203471d9a64b23d0267d5a4a261a" target="_top" xlink:title="Handle a client connection.">
<polygon fill="white" stroke="#666666" points="217,-1058 113,-1058 113,-1039 217,-1039 217,-1058"/>
<text text-anchor="middle" x="165" y="-1046" font-family="Helvetica,sans-Serif" font-size="10.00">handleConnection</text>
</a>
</g>
</g>
<!-- Node3&#45;&gt;Node4 -->
<g id="edge3_Node000003_Node000004" class="edge">
<title>Node3&#45;&gt;Node4</title>
<g id="a_edge3_Node000003_Node000004"><a xlink:title=" ">
<path fill="none" stroke="#63b8ff" d="M711.89,-1155.22C652.37,-1173.77 532.18,-1203.68 433,-1180.5 328.27,-1156.02 217.46,-1084.18 179.59,-1058.1"/>
<polygon fill="#63b8ff" stroke="#63b8ff" points="713.13,-1158.49 721.6,-1152.12 711.01,-1151.82 713.13,-1158.49"/>
</a>
</g>
</g>
<!-- Node12 -->
<g id="Node000012" class="node">
<title>Node12</title>
<g id="a_Node000012"><a xlink:href="test__connection_receive_from_c_g_i_8cpp.html#a3a257e52c0c048d052b1f9238cfe0411" target="_top" xlink:title=" ">
<polygon fill="white" stroke="#666666" points="545,-1171 493,-1171 493,-1152 545,-1152 545,-1171"/>
<text text-anchor="middle" x="519" y="-1159" font-family="Helvetica,sans-Serif" font-size="10.00">TEST_F</text>
</a>
</g>
</g>
<!-- Node3&#45;&gt;Node12 -->
<g id="edge5_Node000003_Node000012" class="edge">
<title>Node3&#45;&gt;Node12</title>
<g id="a_edge5_Node000003_Node000012"><a xlink:title=" ">
<path fill="none" stroke="#63b8ff" d="M664.29,-1149.53C621.98,-1153.04 573.85,-1157.03 545.25,-1159.4"/>
<polygon fill="#63b8ff" stroke="#63b8ff" points="664.66,-1153.01 674.33,-1148.7 664.08,-1146.03 664.66,-1153.01"/>
</a>
</g>
</g>
<!-- Node13 -->
<g id="Node000013" class="node">
<title>Node13</title>
<g id="a_Node000013"><a xlink:href="test__connection_receive_from_c_g_i_8cpp.html#acd248002a168209089438d39017ca034" target="_top" xlink:title=" ">
<polygon fill="white" stroke="#666666" points="545,-1134 493,-1134 493,-1115 545,-1115 545,-1134"/>
<text text-anchor="middle" x="519" y="-1122" font-family="Helvetica,sans-Serif" font-size="10.00">TEST_F</text>
</a>
</g>
</g>
<!-- Node3&#45;&gt;Node13 -->
<g id="edge6_Node000003_Node000013" class="edge">
<title>Node3&#45;&gt;Node13</title>
<g id="a_edge6_Node000003_Node000013"><a xlink:title=" ">
<path fill="none" stroke="#63b8ff" d="M664.29,-1135.84C621.98,-1132.52 573.85,-1128.73 545.25,-1126.48"/>
<polygon fill="#63b8ff" stroke="#63b8ff" points="664.09,-1139.34 674.33,-1136.63 664.64,-1132.36 664.09,-1139.34"/>
</a>
</g>
</g>
<!-- Node5 -->
<g id="Node000005" class="node">
<title>Node5</title>
<g id="a_Node000005"><a xlink:href="_server_8cpp.html#af9f4479a6262c17deef89938118d27f4" target="_top" xlink:title="Accepts new connections or handles existing ones.">
<polygon fill="#fff0f0" stroke="red" points="77,-853 0,-853 0,-834 77,-834 77,-853"/>
<text text-anchor="middle" x="38.5" y="-841" font-family="Helvetica,sans-Serif" font-size="10.00">handleEvent</text>
</a>
</g>
</g>
<!-- Node4&#45;&gt;Node5 -->
<g id="edge4_Node000004_Node000005" class="edge">
<title>Node4&#45;&gt;Node5</title>
<g id="a_edge4_Node000004_Node000005"><a xlink:title=" ">
<path fill="none" stroke="#63b8ff" d="M152.89,-1030.21C127.33,-988.12 65.02,-885.52 45.47,-853.33"/>
<polygon fill="#63b8ff" stroke="#63b8ff" points="149.98,-1032.16 158.16,-1038.89 155.96,-1028.52 149.98,-1032.16"/>
</a>
</g>
</g>
<!-- Node14&#45;&gt;Node4 -->
<g id="edge8_Node000014_Node000004" class="edge">
<title>Node14&#45;&gt;Node4</title>
<g id="a_edge8_Node000014_Node000004"><a xlink:title=" ">
<path fill="none" stroke="#63b8ff" d="M721.77,-1025.62C693.47,-1039.44 647.45,-1059.54 605,-1067.5 466.1,-1093.56 298.35,-1071.95 216.23,-1058.02"/>
<polygon fill="#63b8ff" stroke="#63b8ff" points="723.61,-1028.61 731.01,-1021.02 720.5,-1022.34 723.61,-1028.61"/>
</a>
</g>
</g>
<!-- Node15 -->
<g id="Node000015" class="node">
<title>Node15</title>
<g id="a_Node000015"><a xlink:href="test__connection_send_to_c_g_i_8cpp.html#a71e710d9b5f2f4a568086e70def06ccc" target="_top" xlink:title=" ">
<polygon fill="white" stroke="#666666" points="545,-1058 493,-1058 493,-1039 545,-1039 545,-1058"/>
<text text-anchor="middle" x="519" y="-1046" font-family="Helvetica,sans-Serif" font-size="10.00">TEST_F</text>
</a>
</g>
</g>
<!-- Node14&#45;&gt;Node15 -->
<g id="edge9_Node000014_Node000015" class="edge">
<title>Node14&#45;&gt;Node15</title>
<g id="a_edge9_Node000014_Node000015"><a xlink:title=" ">
<path fill="none" stroke="#63b8ff" d="M679.9,-1022.66C634.35,-1030.02 577.36,-1039.23 545.18,-1044.43"/>
<polygon fill="#63b8ff" stroke="#63b8ff" points="680.71,-1026.08 690.03,-1021.03 679.6,-1019.17 680.71,-1026.08"/>
</a>
</g>
</g>
<!-- Node16 -->
<g id="Node000016" class="node">
<title>Node16</title>
<g id="a_Node000016"><a xlink:href="test__connection_send_to_c_g_i_8cpp.html#ab009e8595170fb19af2600ddd2f4362a" target="_top" xlink:title=" ">
<polygon fill="white" stroke="#666666" points="545,-1021 493,-1021 493,-1002 545,-1002 545,-1021"/>
<text text-anchor="middle" x="519" y="-1009" font-family="Helvetica,sans-Serif" font-size="10.00">TEST_F</text>
</a>
</g>
</g>
<!-- Node14&#45;&gt;Node16 -->
<g id="edge10_Node000014_Node000016" class="edge">
<title>Node14&#45;&gt;Node16</title>
<g id="a_edge10_Node000014_Node000016"><a xlink:title=" ">
<path fill="none" stroke="#63b8ff" d="M678.75,-1011.5C633.4,-1011.5 577.11,-1011.5 545.2,-1011.5"/>
<polygon fill="#63b8ff" stroke="#63b8ff" points="678.83,-1015 688.83,-1011.5 678.83,-1008 678.83,-1015"/>
</a>
</g>
</g>
<!-- Node17 -->
<g id="Node000017" class="node">
<title>Node17</title>
<g id="a_Node000017"><a xlink:href="test__connection_send_to_c_g_i_8cpp.html#a35214933bd65d5cd26ad10f15604a4b3" target="_top" xlink:title=" ">
<polygon fill="white" stroke="#666666" points="545,-984 493,-984 493,-965 545,-965 545,-984"/>
<text text-anchor="middle" x="519" y="-972" font-family="Helvetica,sans-Serif" font-size="10.00">TEST_F</text>
</a>
</g>
</g>
<!-- Node14&#45;&gt;Node17 -->
<g id="edge11_Node000014_Node000017" class="edge">
<title>Node14&#45;&gt;Node17</title>
<g id="a_edge11_Node000014_Node000017"><a xlink:title=" ">
<path fill="none" stroke="#63b8ff" d="M679.9,-1000.34C634.35,-992.98 577.36,-983.77 545.18,-978.57"/>
<polygon fill="#63b8ff" stroke="#63b8ff" points="679.6,-1003.83 690.03,-1001.97 680.71,-996.92 679.6,-1003.83"/>
</a>
</g>
</g>
<!-- Node18&#45;&gt;Node14 -->
<g id="edge13_Node000018_Node000014" class="edge">
<title>Node18&#45;&gt;Node14</title>
<g id="a_edge13_Node000018_Node000014"><a xlink:title=" ">
<path fill="none" stroke="#63b8ff" d="M963.43,-823.9C917.24,-864.69 798.3,-969.73 761.81,-1001.95"/>
<polygon fill="#63b8ff" stroke="#63b8ff" points="965.99,-826.31 971.17,-817.07 961.36,-821.06 965.99,-826.31"/>
</a>
</g>
</g>
<!-- Node19 -->
<g id="Node000019" class="node">
<title>Node19</title>
<g id="a_Node000019"><a xlink:href="_server_8cpp.html#af0fb17fe53a5e9e72824e5df3fba1322" target="_top" xlink:title="Handles the body of the HTTP request.">
<polygon fill="white" stroke="#666666" points="787,-836 713,-836 713,-817 787,-817 787,-836"/>
<text text-anchor="middle" x="750" y="-824" font-family="Helvetica,sans-Serif" font-size="10.00">handleBody</text>
</a>
</g>
</g>
<!-- Node18&#45;&gt;Node19 -->
<g id="edge14_Node000018_Node000019" class="edge">
<title>Node18&#45;&gt;Node19</title>
<g id="a_edge14_Node000018_Node000019"><a xlink:title=" ">
<path fill="none" stroke="#63b8ff" d="M884.84,-815.49C850.28,-818.33 813.48,-821.36 787.23,-823.52"/>
<polygon fill="#63b8ff" stroke="#63b8ff" points="885.32,-818.96 895,-814.66 884.74,-811.99 885.32,-818.96"/>
</a>
</g>
</g>
<!-- Node28 -->
<g id="Node000028" class="node">
<title>Node28</title>
<g id="a_Node000028"><a xlink:href="_server_8cpp.html#a83350eae81b96dd7b301d1238268ffdb" target="_top" xlink:title="Handles the complete request header received from a client.">
<polygon fill="white" stroke="#666666" points="605,-798 433,-798 433,-779 605,-779 605,-798"/>
<text text-anchor="middle" x="519" y="-786" font-family="Helvetica,sans-Serif" font-size="10.00">handleCompleteRequestHeader</text>
</a>
</g>
</g>
<!-- Node18&#45;&gt;Node28 -->
<g id="edge29_Node000018_Node000028" class="edge">
<title>Node18&#45;&gt;Node28</title>
<g id="a_edge29_Node000018_Node000028"><a xlink:title=" ">
<path fill="none" stroke="#63b8ff" d="M884.66,-803.5C801.93,-800.09 684.31,-795.26 605.24,-792.01"/>
<polygon fill="#63b8ff" stroke="#63b8ff" points="884.69,-807 894.83,-803.92 884.98,-800.01 884.69,-807"/>
</a>
</g>
</g>
<!-- Node20 -->
<g id="Node000020" class="node">
<title>Node20</title>
<g id="a_Node000020"><a xlink:href="_server_8cpp.html#a3e07b970ffa58c9315b38673aff94f84" target="_top" xlink:title="Handles the reception of the request body from a client connection.">
<polygon fill="#fff0f0" stroke="red" points="586,-946 452,-946 452,-927 586,-927 586,-946"/>
<text text-anchor="middle" x="519" y="-934" font-family="Helvetica,sans-Serif" font-size="10.00">connectionReceiveBody</text>
</a>
</g>
</g>
<!-- Node19&#45;&gt;Node20 -->
<g id="edge15_Node000019_Node000020" class="edge">
<title>Node19&#45;&gt;Node20</title>
<g id="a_edge15_Node000019_Node000020"><a xlink:title=" ">
<path fill="none" stroke="#63b8ff" d="M720,-840.43C672.82,-863.09 580.66,-907.36 540.04,-926.87"/>
<polygon fill="#63b8ff" stroke="#63b8ff" points="721.58,-843.55 729.08,-836.07 718.55,-837.24 721.58,-843.55"/>
</a>
</g>
</g>
<!-- Node19&#45;&gt;Node28 -->
<g id="edge21_Node000019_Node000028" class="edge">
<title>Node19&#45;&gt;Node28</title>
<g id="a_edge21_Node000019_Node000028"><a xlink:title=" ">
<path fill="none" stroke="#63b8ff" d="M702.72,-818.82C666.65,-812.83 616.35,-804.49 577.66,-798.07"/>
<polygon fill="#63b8ff" stroke="#63b8ff" points="702.53,-822.34 712.97,-820.52 703.67,-815.43 702.53,-822.34"/>
</a>
</g>
</g>
<!-- Node20&#45;&gt;Node4 -->
<g id="edge16_Node000020_Node000004" class="edge">
<title>Node20&#45;&gt;Node4</title>
<g id="a_edge16_Node000020_Node000004"><a xlink:title=" ">
<path fill="none" stroke="#63b8ff" d="M442.51,-950.21C439.16,-952.06 435.96,-954.14 433,-956.5 404.69,-979.02 426.91,-1009.15 397,-1029.5 343.93,-1065.6 267.32,-1064.09 217.1,-1057.82"/>
<polygon fill="#63b8ff" stroke="#63b8ff" points="444.16,-953.3 451.69,-945.86 441.16,-946.98 444.16,-953.3"/>
</a>
</g>
</g>
<!-- Node21 -->
<g id="Node000021" class="node">
<title>Node21</title>
<g id="a_Node000021"><a xlink:href="test__connection_receive_body_8cpp.html#a19ac3fc035f7139c0a794d3020c4640b" target="_top" xlink:title=" ">
<polygon fill="white" stroke="#666666" points="351,-1020 299,-1020 299,-1001 351,-1001 351,-1020"/>
<text text-anchor="middle" x="325" y="-1008" font-family="Helvetica,sans-Serif" font-size="10.00">TEST_F</text>
</a>
</g>
</g>
<!-- Node20&#45;&gt;Node21 -->
<g id="edge17_Node000020_Node000021" class="edge">
<title>Node20&#45;&gt;Node21</title>
<g id="a_edge17_Node000020_Node000021"><a xlink:title=" ">
<path fill="none" stroke="#63b8ff" d="M448.52,-949.4C443.12,-951.43 437.88,-953.78 433,-956.5 413.23,-967.51 416.67,-981.32 397,-992.5 382.96,-1000.48 365.38,-1004.97 351.22,-1007.47"/>
<polygon fill="#63b8ff" stroke="#63b8ff" points="449.99,-952.59 458.34,-946.07 447.75,-945.96 449.99,-952.59"/>
</a>
</g>
</g>
<!-- Node22 -->
<g id="Node000022" class="node">
<title>Node22</title>
<g id="a_Node000022"><a xlink:href="test__connection_receive_body_8cpp.html#a259717d7651caed4350409cf61f62243" target="_top" xlink:title=" ">
<polygon fill="white" stroke="#666666" points="351,-983 299,-983 299,-964 351,-964 351,-983"/>
<text text-anchor="middle" x="325" y="-971" font-family="Helvetica,sans-Serif" font-size="10.00">TEST_F</text>
</a>
</g>
</g>
<!-- Node20&#45;&gt;Node22 -->
<g id="edge18_Node000020_Node000022" class="edge">
<title>Node20&#45;&gt;Node22</title>
<g id="a_edge18_Node000020_Node000022"><a xlink:title=" ">
<path fill="none" stroke="#63b8ff" d="M458.62,-947.94C422.54,-954.9 378.35,-963.41 351.19,-968.65"/>
<polygon fill="#63b8ff" stroke="#63b8ff" points="459.4,-951.36 468.56,-946.03 458.07,-944.48 459.4,-951.36"/>
</a>
</g>
</g>
<!-- Node23 -->
<g id="Node000023" class="node">
<title>Node23</title>
<g id="a_Node000023"><a xlink:href="test__connection_receive_body_8cpp.html#a19183545ff74155359c15797de32a79d" target="_top" xlink:title=" ">
<polygon fill="white" stroke="#666666" points="351,-946 299,-946 299,-927 351,-927 351,-946"/>
<text text-anchor="middle" x="325" y="-934" font-family="Helvetica,sans-Serif" font-size="10.00">TEST_F</text>
</a>
</g>
</g>
<!-- Node20&#45;&gt;Node23 -->
<g id="edge19_Node000020_Node000023" class="edge">
<title>Node20&#45;&gt;Node23</title>
<g id="a_edge19_Node000020_Node000023"><a xlink:title=" ">
<path fill="none" stroke="#63b8ff" d="M441.61,-936.5C409.44,-936.5 374.21,-936.5 351.2,-936.5"/>
<polygon fill="#63b8ff" stroke="#63b8ff" points="441.92,-940 451.92,-936.5 441.92,-933 441.92,-940"/>
</a>
</g>
</g>
<!-- Node24 -->
<g id="Node000024" class="node">
<title>Node24</title>
<g id="a_Node000024"><a xlink:href="test__connection_receive_body_8cpp.html#a1cd9ca5899d66b74d95a445988fc3ae5" target="_top" xlink:title=" ">
<polygon fill="white" stroke="#666666" points="351,-909 299,-909 299,-890 351,-890 351,-909"/>
<text text-anchor="middle" x="325" y="-897" font-family="Helvetica,sans-Serif" font-size="10.00">TEST_F</text>
</a>
</g>
</g>
<!-- Node20&#45;&gt;Node24 -->
<g id="edge20_Node000020_Node000024" class="edge">
<title>Node20&#45;&gt;Node24</title>
<g id="a_edge20_Node000020_Node000024"><a xlink:title=" ">
<path fill="none" stroke="#63b8ff" d="M458.62,-925.06C422.54,-918.1 378.35,-909.59 351.19,-904.35"/>
<polygon fill="#63b8ff" stroke="#63b8ff" points="458.07,-928.52 468.56,-926.97 459.4,-921.64 458.07,-928.52"/>
</a>
</g>
</g>
<!-- Node29 -->
<g id="Node000029" class="node">
<title>Node29</title>
<g id="a_Node000029"><a xlink:href="_server_8cpp.html#aa45d6529fd7be9b7adf788a9679ae34b" target="_top" xlink:title="Receive request header from a client.">
<polygon fill="#fff0f0" stroke="red" points="397,-872 253,-872 253,-853 397,-853 397,-872"/>
<text text-anchor="middle" x="325" y="-860" font-family="Helvetica,sans-Serif" font-size="10.00">connectionReceiveHeader</text>
</a>
</g>
</g>
<!-- Node28&#45;&gt;Node29 -->
<g id="edge22_Node000028_Node000029" class="edge">
<title>Node28&#45;&gt;Node29</title>
<g id="a_edge22_Node000028_Node000029"><a xlink:title=" ">
<path fill="none" stroke="#63b8ff" d="M491.08,-802.72C466.95,-815.03 430.32,-832.68 397,-844.5 388.13,-847.65 378.46,-850.48 369.18,-852.91"/>
<polygon fill="#63b8ff" stroke="#63b8ff" points="492.71,-805.82 499.99,-798.12 489.5,-799.59 492.71,-805.82"/>
</a>
</g>
</g>
<!-- Node35 -->
<g id="Node000035" class="node">
<title>Node35</title>
<g id="a_Node000035"><a xlink:href="test__handle_complete_request_header_8cpp.html#a04308ae6ca27d5aac2ee1ae95e818f78" target="_top" xlink:title=" ">
<polygon fill="white" stroke="#666666" points="351,-835 299,-835 299,-816 351,-816 351,-835"/>
<text text-anchor="middle" x="325" y="-823" font-family="Helvetica,sans-Serif" font-size="10.00">TEST_F</text>
</a>
</g>
</g>
<!-- Node28&#45;&gt;Node35 -->
<g id="edge24_Node000028_Node000035" class="edge">
<title>Node28&#45;&gt;Node35</title>
<g id="a_edge24_Node000028_Node000035"><a xlink:title=" ">
<path fill="none" stroke="#63b8ff" d="M458.62,-799.94C422.54,-806.9 378.35,-815.41 351.19,-820.65"/>
<polygon fill="#63b8ff" stroke="#63b8ff" points="459.4,-803.36 468.56,-798.03 458.07,-796.48 459.4,-803.36"/>
</a>
</g>
</g>
<!-- Node36 -->
<g id="Node000036" class="node">
<title>Node36</title>
<g id="a_Node000036"><a xlink:href="test__handle_complete_request_header_8cpp.html#a00d3c07453ceb8ca6576a951222a7829" target="_top" xlink:title=" ">
<polygon fill="white" stroke="#666666" points="351,-798 299,-798 299,-779 351,-779 351,-798"/>
<text text-anchor="middle" x="325" y="-786" font-family="Helvetica,sans-Serif" font-size="10.00">TEST_F</text>
</a>
</g>
</g>
<!-- Node28&#45;&gt;Node36 -->
<g id="edge25_Node000028_Node000036" class="edge">
<title>Node28&#45;&gt;Node36</title>
<g id="a_edge25_Node000028_Node000036"><a xlink:title=" ">
<path fill="none" stroke="#63b8ff" d="M422.82,-788.5C396.34,-788.5 369.78,-788.5 351.19,-788.5"/>
<polygon fill="#63b8ff" stroke="#63b8ff" points="422.95,-792 432.95,-788.5 422.95,-785 422.95,-792"/>
</a>
</g>
</g>
<!-- Node37 -->
<g id="Node000037" class="node">
<title>Node37</title>
<g id="a_Node000037"><a xlink:href="test__handle_complete_request_header_8cpp.html#a5705d4672adfefa8169bd3e9406e75f6" target="_top" xlink:title=" ">
<polygon fill="white" stroke="#666666" points="351,-761 299,-761 299,-742 351,-742 351,-761"/>
<text text-anchor="middle" x="325" y="-749" font-family="Helvetica,sans-Serif" font-size="10.00">TEST_F</text>
</a>
</g>
</g>
<!-- Node28&#45;&gt;Node37 -->
<g id="edge26_Node000028_Node000037" class="edge">
<title>Node28&#45;&gt;Node37</title>
<g id="a_edge26_Node000028_Node000037"><a xlink:title=" ">
<path fill="none" stroke="#63b8ff" d="M458.62,-777.06C422.54,-770.1 378.35,-761.59 351.19,-756.35"/>
<polygon fill="#63b8ff" stroke="#63b8ff" points="458.07,-780.52 468.56,-778.97 459.4,-773.64 458.07,-780.52"/>
</a>
</g>
</g>
<!-- Node38 -->
<g id="Node000038" class="node">
<title>Node38</title>
<g id="a_Node000038"><a xlink:href="test__handle_complete_request_header_8cpp.html#a63c4237c8b0edef77a20f599133d77d4" target="_top" xlink:title=" ">
<polygon fill="white" stroke="#666666" points="351,-724 299,-724 299,-705 351,-705 351,-724"/>
<text text-anchor="middle" x="325" y="-712" font-family="Helvetica,sans-Serif" font-size="10.00">TEST_F</text>
</a>
</g>
</g>
<!-- Node28&#45;&gt;Node38 -->
<g id="edge27_Node000028_Node000038" class="edge">
<title>Node28&#45;&gt;Node38</title>
<g id="a_edge27_Node000028_Node000038"><a xlink:title=" ">
<path fill="none" stroke="#63b8ff" d="M490.59,-774.46C466.41,-762.47 429.98,-745.32 397,-733.5 382.1,-728.16 364.98,-723.54 351.28,-720.19"/>
<polygon fill="#63b8ff" stroke="#63b8ff" points="489.03,-777.6 499.53,-778.95 492.16,-771.34 489.03,-777.6"/>
</a>
</g>
</g>
<!-- Node39 -->
<g id="Node000039" class="node">
<title>Node39</title>
<g id="a_Node000039"><a xlink:href="test__handle_complete_request_header_8cpp.html#a7e6245bb424d27191d406b619a2fe40b" target="_top" xlink:title=" ">
<polygon fill="white" stroke="#666666" points="351,-687 299,-687 299,-668 351,-668 351,-687"/>
<text text-anchor="middle" x="325" y="-675" font-family="Helvetica,sans-Serif" font-size="10.00">TEST_F</text>
</a>
</g>
</g>
<!-- Node28&#45;&gt;Node39 -->
<g id="edge28_Node000028_Node000039" class="edge">
<title>Node28&#45;&gt;Node39</title>
<g id="a_edge28_Node000028_Node000039"><a xlink:title=" ">
<path fill="none" stroke="#63b8ff" d="M500.93,-772.02C478.74,-751.46 437.94,-716.57 397,-696.5 382.56,-689.42 365.14,-684.71 351.16,-681.75"/>
<polygon fill="#63b8ff" stroke="#63b8ff" points="498.55,-774.59 508.24,-778.89 503.35,-769.49 498.55,-774.59"/>
</a>
</g>
</g>
<!-- Node29&#45;&gt;Node4 -->
<g id="edge23_Node000029_Node000004" class="edge">
<title>Node29&#45;&gt;Node4</title>
<g id="a_edge23_Node000029_Node000004"><a xlink:title=" ">
<path fill="none" stroke="#63b8ff" d="M260.3,-876.51C257.73,-878.01 255.29,-879.67 253,-881.5 199.19,-924.66 174.98,-1010.12 168.13,-1038.83"/>
<polygon fill="#63b8ff" stroke="#63b8ff" points="261.97,-879.59 269.37,-872 258.86,-873.31 261.97,-879.59"/>
</a>
</g>
</g>
<!-- Node41 -->
<g id="Node000041" class="node">
<title>Node41</title>
<g id="a_Node000041"><a xlink:href="_server_8cpp.html#adb579f3d67061d752e882e6fb3ef6f18" target="_top" xlink:title="Accept new connections.">
<polygon fill="white" stroke="#666666" points="804.5,-519 695.5,-519 695.5,-500 804.5,-500 804.5,-519"/>
<text text-anchor="middle" x="750" y="-507" font-family="Helvetica,sans-Serif" font-size="10.00">acceptConnections</text>
</a>
</g>
</g>
<!-- Node40&#45;&gt;Node41 -->
<g id="edge31_Node000040_Node000041" class="edge">
<title>Node40&#45;&gt;Node41</title>
<g id="a_edge31_Node000040_Node000041"><a xlink:title=" ">
<path fill="none" stroke="#63b8ff" d="M951.63,-456.3C927.08,-466.98 891.4,-481.43 859,-490.5 841.58,-495.38 822.22,-499.25 804.76,-502.2"/>
<polygon fill="#63b8ff" stroke="#63b8ff" points="953.36,-459.36 961.1,-452.13 950.54,-452.96 953.36,-459.36"/>
</a>
</g>
</g>
<!-- Node50 -->
<g id="Node000050" class="node">
<title>Node50</title>
<g id="a_Node000050"><a xlink:href="class_connection_receive_body_test.html#a50fcead952127a807cac04929fad5797" target="_top" xlink:title=" ">
<polygon fill="white" stroke="#666666" points="830.5,-481.5 669.5,-481.5 669.5,-451.5 830.5,-451.5 830.5,-481.5"/>
<text text-anchor="start" x="677.5" y="-469.5" font-family="Helvetica,sans-Serif" font-size="10.00">ConnectionReceiveBodyTest</text>
<text text-anchor="middle" x="750" y="-458.5" font-family="Helvetica,sans-Serif" font-size="10.00">::ConnectionReceiveBodyTest</text>
</a>
</g>
</g>
<!-- Node40&#45;&gt;Node50 -->
<g id="edge41_Node000040_Node000050" class="edge">
<title>Node40&#45;&gt;Node50</title>
<g id="a_edge41_Node000040_Node000050"><a xlink:title=" ">
<path fill="none" stroke="#63b8ff" d="M899.68,-451.05C877.22,-453.39 852.93,-455.91 830.62,-458.23"/>
<polygon fill="#63b8ff" stroke="#63b8ff" points="900.28,-454.51 909.86,-450 899.55,-447.55 900.28,-454.51"/>
</a>
</g>
</g>
<!-- Node51 -->
<g id="Node000051" class="node">
<title>Node51</title>
<g id="a_Node000051"><a xlink:href="class_connection_receive_header_test.html#ab7e65196f280d530732c91783a747254" target="_top" xlink:title=" ">
<polygon fill="white" stroke="#666666" points="835.5,-433.5 664.5,-433.5 664.5,-403.5 835.5,-403.5 835.5,-433.5"/>
<text text-anchor="start" x="672.5" y="-421.5" font-family="Helvetica,sans-Serif" font-size="10.00">ConnectionReceiveHeaderTest</text>
<text text-anchor="middle" x="750" y="-410.5" font-family="Helvetica,sans-Serif" font-size="10.00">::ConnectionReceiveHeaderTest</text>
</a>
</g>
</g>
<!-- Node40&#45;&gt;Node51 -->
<g id="edge42_Node000040_Node000051" class="edge">
<title>Node40&#45;&gt;Node51</title>
<g id="a_edge42_Node000040_Node000051"><a xlink:title=" ">
<path fill="none" stroke="#63b8ff" d="M899.77,-433.96C878.92,-431.79 856.49,-429.46 835.53,-427.28"/>
<polygon fill="#63b8ff" stroke="#63b8ff" points="899.55,-437.45 909.86,-435 900.28,-430.49 899.55,-437.45"/>
</a>
</g>
</g>
<!-- Node52 -->
<g id="Node000052" class="node">
<title>Node52</title>
<g id="a_Node000052"><a xlink:href="class_connection_send_response_test.html#ae53693cda52ddb4d21218c0bc1d25553" target="_top" xlink:title=" ">
<polygon fill="white" stroke="#666666" points="834,-385.5 666,-385.5 666,-355.5 834,-355.5 834,-385.5"/>
<text text-anchor="start" x="674" y="-373.5" font-family="Helvetica,sans-Serif" font-size="10.00">ConnectionSendResponseTest</text>
<text text-anchor="middle" x="750" y="-362.5" font-family="Helvetica,sans-Serif" font-size="10.00">::ConnectionSendResponseTest</text>
</a>
</g>
</g>
<!-- Node40&#45;&gt;Node52 -->
<g id="edge43_Node000040_Node000052" class="edge">
<title>Node40&#45;&gt;Node52</title>
<g id="a_edge43_Node000040_Node000052"><a xlink:title=" ">
<path fill="none" stroke="#63b8ff" d="M951.07,-428.9C926.47,-418.46 891,-404.24 859,-394.5 848.34,-391.26 836.97,-388.25 825.75,-385.54"/>
<polygon fill="#63b8ff" stroke="#63b8ff" points="950.01,-432.26 960.58,-432.98 952.77,-425.82 950.01,-432.26"/>
</a>
</g>
</g>
<!-- Node53 -->
<g id="Node000053" class="node">
<title>Node53</title>
<g id="a_Node000053"><a xlink:href="class_handle_complete_request_header_test.html#a938d495e55cc93b87bffc5770c2bd32b" target="_top" xlink:title=" ">
<polygon fill="white" stroke="#666666" points="859,-337.5 641,-337.5 641,-307.5 859,-307.5 859,-337.5"/>
<text text-anchor="start" x="649" y="-325.5" font-family="Helvetica,sans-Serif" font-size="10.00">HandleCompleteRequestHeader</text>
<text text-anchor="middle" x="750" y="-314.5" font-family="Helvetica,sans-Serif" font-size="10.00">Test::HandleCompleteRequestHeaderTest</text>
</a>
</g>
</g>
<!-- Node40&#45;&gt;Node53 -->
<g id="edge44_Node000040_Node000053" class="edge">
<title>Node40&#45;&gt;Node53</title>
<g id="a_edge44_Node000040_Node000053"><a xlink:title=" ">
<path fill="none" stroke="#63b8ff" d="M965.56,-425.66C943.4,-403.97 901.77,-366.67 859,-346.5 851.7,-343.06 843.89,-340.1 835.94,-337.56"/>
<polygon fill="#63b8ff" stroke="#63b8ff" points="963.26,-428.3 972.81,-432.88 968.2,-423.35 963.26,-428.3"/>
</a>
</g>
</g>
<!-- Node41&#45;&gt;Node5 -->
<g id="edge32_Node000041_Node000005" class="edge">
<title>Node41&#45;&gt;Node5</title>
<g id="a_edge32_Node000041_Node000005"><a xlink:title=" ">
<path fill="none" stroke="#63b8ff" d="M733.32,-526.46C708.73,-551.83 658.36,-598.97 605,-620.5 459.03,-679.4 397.3,-596.64 253,-659.5 157,-701.32 72.31,-801.8 47.1,-833.64"/>
<polygon fill="#63b8ff" stroke="#63b8ff" points="736.02,-528.71 740.37,-519.05 730.95,-523.88 736.02,-528.71"/>
</a>
</g>
</g>
<!-- Node42 -->
<g id="Node000042" class="node">
<title>Node42</title>
<g id="a_Node000042"><a xlink:href="test__accept_connections_8cpp.html#aa1d4e0a7c561db5b8a8715755b59b728" target="_top" xlink:title=" ">
<polygon fill="white" stroke="#666666" points="545,-611 493,-611 493,-592 545,-592 545,-611"/>
<text text-anchor="middle" x="519" y="-599" font-family="Helvetica,sans-Serif" font-size="10.00">TEST_F</text>
</a>
</g>
</g>
<!-- Node41&#45;&gt;Node42 -->
<g id="edge33_Node000041_Node000042" class="edge">
<title>Node41&#45;&gt;Node42</title>
<g id="a_edge33_Node000041_Node000042"><a xlink:title=" ">
<path fill="none" stroke="#63b8ff" d="M724.98,-524.38C697.09,-541.04 649.26,-567.76 605,-583.5 585.39,-590.48 562.22,-595.16 545.03,-598"/>
<polygon fill="#63b8ff" stroke="#63b8ff" points="726.89,-527.31 733.64,-519.14 723.27,-521.32 726.89,-527.31"/>
</a>
</g>
</g>
<!-- Node43 -->
<g id="Node000043" class="node">
<title>Node43</title>
<g id="a_Node000043"><a xlink:href="test__accept_connections_8cpp.html#ae76ec85fb2cbe0d8ac24c2f1b47344c0" target="_top" xlink:title=" ">
<polygon fill="white" stroke="#666666" points="545,-574 493,-574 493,-555 545,-555 545,-574"/>
<text text-anchor="middle" x="519" y="-562" font-family="Helvetica,sans-Serif" font-size="10.00">TEST_F</text>
</a>
</g>
</g>
<!-- Node41&#45;&gt;Node43 -->
<g id="edge34_Node000041_Node000043" class="edge">
<title>Node41&#45;&gt;Node43</title>
<g id="a_edge34_Node000041_Node000043"><a xlink:title=" ">
<path fill="none" stroke="#63b8ff" d="M703.6,-521.7C675.32,-529.16 638.13,-538.74 605,-546.5 585.03,-551.18 562.29,-555.97 545.35,-559.43"/>
<polygon fill="#63b8ff" stroke="#63b8ff" points="704.83,-524.99 713.6,-519.05 703.03,-518.23 704.83,-524.99"/>
</a>
</g>
</g>
<!-- Node44 -->
<g id="Node000044" class="node">
<title>Node44</title>
<g id="a_Node000044"><a xlink:href="test__accept_connections_8cpp.html#a78ef81e117d5c1a90c27410155ac152b" target="_top" xlink:title=" ">
<polygon fill="white" stroke="#666666" points="545,-537 493,-537 493,-518 545,-518 545,-537"/>
<text text-anchor="middle" x="519" y="-525" font-family="Helvetica,sans-Serif" font-size="10.00">TEST_F</text>
</a>
</g>
</g>
<!-- Node41&#45;&gt;Node44 -->
<g id="edge35_Node000041_Node000044" class="edge">
<title>Node41&#45;&gt;Node44</title>
<g id="a_edge35_Node000041_Node000044"><a xlink:title=" ">
<path fill="none" stroke="#63b8ff" d="M685.05,-514.53C638.73,-518.17 578.6,-522.89 545.19,-525.52"/>
<polygon fill="#63b8ff" stroke="#63b8ff" points="685.61,-517.99 695.31,-513.72 685.07,-511.01 685.61,-517.99"/>
</a>
</g>
</g>
<!-- Node45 -->
<g id="Node000045" class="node">
<title>Node45</title>
<g id="a_Node000045"><a xlink:href="test__accept_connections_8cpp.html#a9115bbeb96554e4f7f3909f9388bf963" target="_top" xlink:title=" ">
<polygon fill="white" stroke="#666666" points="545,-500 493,-500 493,-481 545,-481 545,-500"/>
<text text-anchor="middle" x="519" y="-488" font-family="Helvetica,sans-Serif" font-size="10.00">TEST_F</text>
</a>
</g>
</g>
<!-- Node41&#45;&gt;Node45 -->
<g id="edge36_Node000041_Node000045" class="edge">
<title>Node41&#45;&gt;Node45</title>
<g id="a_edge36_Node000041_Node000045"><a xlink:title=" ">
<path fill="none" stroke="#63b8ff" d="M685.05,-504.19C638.73,-500.35 578.6,-495.36 545.19,-492.59"/>
<polygon fill="#63b8ff" stroke="#63b8ff" points="685.05,-507.71 695.31,-505.05 685.63,-500.73 685.05,-507.71"/>
</a>
</g>
</g>
<!-- Node46 -->
<g id="Node000046" class="node">
<title>Node46</title>
<g id="a_Node000046"><a xlink:href="test__accept_connections_8cpp.html#aa2bdfce89a8f2540cc790305d84758cc" target="_top" xlink:title=" ">
<polygon fill="white" stroke="#666666" points="545,-463 493,-463 493,-444 545,-444 545,-463"/>
<text text-anchor="middle" x="519" y="-451" font-family="Helvetica,sans-Serif" font-size="10.00">TEST_F</text>
</a>
</g>
</g>
<!-- Node41&#45;&gt;Node46 -->
<g id="edge37_Node000041_Node000046" class="edge">
<title>Node41&#45;&gt;Node46</title>
<g id="a_edge37_Node000041_Node000046"><a xlink:title=" ">
<path fill="none" stroke="#63b8ff" d="M685.19,-501.43C670.47,-498.7 655.03,-495.13 641,-490.5 624.01,-484.89 621.85,-478.5 605,-472.5 585.48,-465.56 562.51,-460.6 545.37,-457.5"/>
<polygon fill="#63b8ff" stroke="#63b8ff" points="684.78,-504.91 695.23,-503.18 685.99,-498.01 684.78,-504.91"/>
</a>
</g>
</g>
<!-- Node47 -->
<g id="Node000047" class="node">
<title>Node47</title>
<g id="a_Node000047"><a xlink:href="test__accept_connections_8cpp.html#acdd50ab57241500f8d264a71e640923d" target="_top" xlink:title=" ">
<polygon fill="white" stroke="#666666" points="545,-426 493,-426 493,-407 545,-407 545,-426"/>
<text text-anchor="middle" x="519" y="-414" font-family="Helvetica,sans-Serif" font-size="10.00">TEST_F</text>
</a>
</g>
</g>
<!-- Node41&#45;&gt;Node47 -->
<g id="edge38_Node000041_Node000047" class="edge">
<title>Node41&#45;&gt;Node47</title>
<g id="a_edge38_Node000041_Node000047"><a xlink:title=" ">
<path fill="none" stroke="#63b8ff" d="M685.23,-507.01C669.81,-504.13 654.04,-499.09 641,-490.5 616.61,-474.42 629.02,-452.13 605,-435.5 587.35,-423.28 563.12,-418.77 545.05,-417.18"/>
<polygon fill="#63b8ff" stroke="#63b8ff" points="684.85,-510.49 695.27,-508.6 685.95,-503.58 684.85,-510.49"/>
</a>
</g>
</g>
<!-- Node48 -->
<g id="Node000048" class="node">
<title>Node48</title>
<g id="a_Node000048"><a xlink:href="test__accept_connections_8cpp.html#a44991816aa7987d964b5c8ff3d5adf3c" target="_top" xlink:title=" ">
<polygon fill="white" stroke="#666666" points="545,-389 493,-389 493,-370 545,-370 545,-389"/>
<text text-anchor="middle" x="519" y="-377" font-family="Helvetica,sans-Serif" font-size="10.00">TEST_F</text>
</a>
</g>
</g>
<!-- Node41&#45;&gt;Node48 -->
<g id="edge39_Node000041_Node000048" class="edge">
<title>Node41&#45;&gt;Node48</title>
<g id="a_edge39_Node000041_Node000048"><a xlink:title=" ">
<path fill="none" stroke="#63b8ff" d="M685.06,-509.02C669.29,-506.17 653.39,-500.64 641,-490.5 607.02,-462.69 638.33,-427.08 605,-398.5 588.47,-384.33 563.64,-380.09 545.08,-379.09"/>
<polygon fill="#63b8ff" stroke="#63b8ff" points="684.96,-512.54 695.36,-510.53 685.98,-505.62 684.96,-512.54"/>
</a>
</g>
</g>
<!-- Node49 -->
<g id="Node000049" class="node">
<title>Node49</title>
<g id="a_Node000049"><a xlink:href="test__accept_connections_8cpp.html#a05643f7a40ac0149a8bd8603e4a3b45b" target="_top" xlink:title=" ">
<polygon fill="white" stroke="#666666" points="545,-352 493,-352 493,-333 545,-333 545,-352"/>
<text text-anchor="middle" x="519" y="-340" font-family="Helvetica,sans-Serif" font-size="10.00">TEST_F</text>
</a>
</g>
</g>
<!-- Node41&#45;&gt;Node49 -->
<g id="edge40_Node000041_Node000049" class="edge">
<title>Node41&#45;&gt;Node49</title>
<g id="a_edge40_Node000041_Node000049"><a xlink:title=" ">
<path fill="none" stroke="#63b8ff" d="M685.48,-510.07C669.33,-507.28 653.14,-501.52 641,-490.5 596.62,-450.19 648.68,-401.57 605,-360.5 589.07,-345.52 563.91,-341.73 545.1,-341.27"/>
<polygon fill="#63b8ff" stroke="#63b8ff" points="685.11,-513.55 695.49,-511.44 686.06,-506.61 685.11,-513.55"/>
</a>
</g>
</g>
<!-- Node55 -->
<g id="Node000055" class="node">
<title>Node55</title>
<g id="a_Node000055"><a xlink:href="_server_8cpp.html#aa6ca6a0179cbb661c05aa6b2758f5389" target="_top" xlink:title="Creates a new virtual server and registers it with the server object.">
<polygon fill="white" stroke="#666666" points="805.5,-186 694.5,-186 694.5,-167 805.5,-167 805.5,-186"/>
<text text-anchor="middle" x="750" y="-174" font-family="Helvetica,sans-Serif" font-size="10.00">createVirtualServer</text>
</a>
</g>
</g>
<!-- Node54&#45;&gt;Node55 -->
<g id="edge46_Node000054_Node000055" class="edge">
<title>Node54&#45;&gt;Node55</title>
<g id="a_edge46_Node000054_Node000055"><a xlink:title=" ">
<path fill="none" stroke="#63b8ff" d="M955.85,-289.12C908.31,-262.99 808.9,-208.33 768.56,-186.16"/>
<polygon fill="#63b8ff" stroke="#63b8ff" points="954.19,-292.2 964.64,-293.95 957.56,-286.07 954.19,-292.2"/>
</a>
</g>
</g>
<!-- Node56 -->
<g id="Node000056" class="node">
<title>Node56</title>
<g id="a_Node000056"><a xlink:href="_server_8cpp.html#a35359f61d42dbd6561a07c12009ca45a" target="_top" xlink:title="Initialize virtual servers.">
<polygon fill="#fff0f0" stroke="red" points="569.5,-315 468.5,-315 468.5,-296 569.5,-296 569.5,-315"/>
<text text-anchor="middle" x="519" y="-303" font-family="Helvetica,sans-Serif" font-size="10.00">initVirtualServers</text>
</a>
</g>
</g>
<!-- Node55&#45;&gt;Node56 -->
<g id="edge47_Node000055_Node000056" class="edge">
<title>Node55&#45;&gt;Node56</title>
<g id="a_edge47_Node000055_Node000056"><a xlink:title=" ">
<path fill="none" stroke="#63b8ff" d="M732.23,-193.31C706.93,-217.68 656.46,-262.52 605,-286.5 594.04,-291.61 581.62,-295.38 569.74,-298.15"/>
<polygon fill="#63b8ff" stroke="#63b8ff" points="734.83,-195.67 739.53,-186.17 729.93,-190.66 734.83,-195.67"/>
</a>
</g>
</g>
<!-- Node62 -->
<g id="Node000062" class="node">
<title>Node62</title>
<g id="a_Node000062"><a xlink:href="test__create_virtual_server_8cpp.html#a63b60c6088ac03f74dfdfe9f7c75ea9e" target="_top" xlink:title=" ">
<polygon fill="white" stroke="#666666" points="545,-278 493,-278 493,-259 545,-259 545,-278"/>
<text text-anchor="middle" x="519" y="-266" font-family="Helvetica,sans-Serif" font-size="10.00">TEST_F</text>
</a>
</g>
</g>
<!-- Node55&#45;&gt;Node62 -->
<g id="edge48_Node000055_Node000062" class="edge">
<title>Node55&#45;&gt;Node62</title>
<g id="a_edge48_Node000055_Node000062"><a xlink:title=" ">
<path fill="none" stroke="#63b8ff" d="M724.47,-191.33C696.46,-207.69 648.85,-233.76 605,-249.5 585.36,-256.55 562.19,-261.52 545.01,-264.6"/>
<polygon fill="#63b8ff" stroke="#63b8ff" points="726.35,-194.29 733.18,-186.19 722.79,-188.26 726.35,-194.29"/>
</a>
</g>
</g>
<!-- Node63 -->
<g id="Node000063" class="node">
<title>Node63</title>
<g id="a_Node000063"><a xlink:href="test__create_virtual_server_8cpp.html#ad57534041a7dd7922496193f16b8abbb" target="_top" xlink:title=" ">
<polygon fill="white" stroke="#666666" points="545,-241 493,-241 493,-222 545,-222 545,-241"/>
<text text-anchor="middle" x="519" y="-229" font-family="Helvetica,sans-Serif" font-size="10.00">TEST_F</text>
</a>
</g>
</g>
<!-- Node55&#45;&gt;Node63 -->
<g id="edge49_Node000055_Node000063" class="edge">
<title>Node55&#45;&gt;Node63</title>
<g id="a_edge49_Node000055_Node000063"><a xlink:title=" ">
<path fill="none" stroke="#63b8ff" d="M702.11,-188.54C673.99,-195.68 637.5,-204.81 605,-212.5 584.99,-217.24 562.25,-222.3 545.33,-226.01"/>
<polygon fill="#63b8ff" stroke="#63b8ff" points="703.24,-191.86 712.07,-186 701.51,-185.08 703.24,-191.86"/>
</a>
</g>
</g>
<!-- Node64 -->
<g id="Node000064" class="node">
<title>Node64</title>
<g id="a_Node000064"><a xlink:href="test__create_virtual_server_8cpp.html#a68e87c65c2811c43ab1eaa2b05271881" target="_top" xlink:title=" ">
<polygon fill="white" stroke="#666666" points="545,-204 493,-204 493,-185 545,-185 545,-204"/>
<text text-anchor="middle" x="519" y="-192" font-family="Helvetica,sans-Serif" font-size="10.00">TEST_F</text>
</a>
</g>
</g>
<!-- Node55&#45;&gt;Node64 -->
<g id="edge50_Node000055_Node000064" class="edge">
<title>Node55&#45;&gt;Node64</title>
<g id="a_edge50_Node000055_Node000064"><a xlink:title=" ">
<path fill="none" stroke="#63b8ff" d="M684.21,-181.59C638.06,-185.22 578.52,-189.9 545.3,-192.51"/>
<polygon fill="#63b8ff" stroke="#63b8ff" points="684.74,-185.06 694.44,-180.79 684.2,-178.08 684.74,-185.06"/>
</a>
</g>
</g>
<!-- Node65 -->
<g id="Node000065" class="node">
<title>Node65</title>
<g id="a_Node000065"><a xlink:href="test__create_virtual_server_8cpp.html#ac97e9c5d05c2fe14f3ce1ef3e6ab5586" target="_top" xlink:title=" ">
<polygon fill="white" stroke="#666666" points="545,-167 493,-167 493,-148 545,-148 545,-167"/>
<text text-anchor="middle" x="519" y="-155" font-family="Helvetica,sans-Serif" font-size="10.00">TEST_F</text>
</a>
</g>
</g>
<!-- Node55&#45;&gt;Node65 -->
<g id="edge51_Node000055_Node000065" class="edge">
<title>Node55&#45;&gt;Node65</title>
<g id="a_edge51_Node000055_Node000065"><a xlink:title=" ">
<path fill="none" stroke="#63b8ff" d="M684.21,-171.12C638.06,-167.3 578.52,-162.36 545.3,-159.6"/>
<polygon fill="#63b8ff" stroke="#63b8ff" points="684.18,-174.63 694.44,-171.97 684.76,-167.66 684.18,-174.63"/>
</a>
</g>
</g>
<!-- Node66 -->
<g id="Node000066" class="node">
<title>Node66</title>
<g id="a_Node000066"><a xlink:href="test__create_virtual_server_8cpp.html#acb2b2d06ec7e54f0a1321f3b1b6fef64" target="_top" xlink:title=" ">
<polygon fill="white" stroke="#666666" points="545,-130 493,-130 493,-111 545,-111 545,-130"/>
<text text-anchor="middle" x="519" y="-118" font-family="Helvetica,sans-Serif" font-size="10.00">TEST_F</text>
</a>
</g>
</g>
<!-- Node55&#45;&gt;Node66 -->
<g id="edge52_Node000055_Node000066" class="edge">
<title>Node55&#45;&gt;Node66</title>
<g id="a_edge52_Node000055_Node000066"><a xlink:title=" ">
<path fill="none" stroke="#63b8ff" d="M705.14,-164.32C676.68,-156.57 638.75,-146.52 605,-138.5 585.04,-133.76 562.3,-128.97 545.36,-125.53"/>
<polygon fill="#63b8ff" stroke="#63b8ff" points="704.22,-167.7 714.79,-166.96 706.06,-160.95 704.22,-167.7"/>
</a>
</g>
</g>
<!-- Node67 -->
<g id="Node000067" class="node">
<title>Node67</title>
<g id="a_Node000067"><a xlink:href="test__create_virtual_server_8cpp.html#addaf9539812fea0adffb5a3881dbf1d6" target="_top" xlink:title=" ">
<polygon fill="white" stroke="#666666" points="545,-93 493,-93 493,-74 545,-74 545,-93"/>
<text text-anchor="middle" x="519" y="-81" font-family="Helvetica,sans-Serif" font-size="10.00">TEST_F</text>
</a>
</g>
</g>
<!-- Node55&#45;&gt;Node67 -->
<g id="edge53_Node000055_Node000067" class="edge">
<title>Node55&#45;&gt;Node67</title>
<g id="a_edge53_Node000055_Node000067"><a xlink:title=" ">
<path fill="none" stroke="#63b8ff" d="M725.46,-161.68C697.66,-144.8 649.58,-117.49 605,-101.5 585.41,-94.47 562.24,-89.79 545.04,-86.97"/>
<polygon fill="#63b8ff" stroke="#63b8ff" points="723.72,-164.72 734.07,-166.97 727.38,-158.75 723.72,-164.72"/>
</a>
</g>
</g>
<!-- Node68 -->
<g id="Node000068" class="node">
<title>Node68</title>
<g id="a_Node000068"><a xlink:href="test__create_virtual_server_8cpp.html#a2743f6a457a97451e9a4d5dec394c64b" target="_top" xlink:title=" ">
<polygon fill="white" stroke="#666666" points="545,-56 493,-56 493,-37 545,-37 545,-56"/>
<text text-anchor="middle" x="519" y="-44" font-family="Helvetica,sans-Serif" font-size="10.00">TEST_F</text>
</a>
</g>
</g>
<!-- Node55&#45;&gt;Node68 -->
<g id="edge54_Node000055_Node000068" class="edge">
<title>Node55&#45;&gt;Node68</title>
<g id="a_edge54_Node000055_Node000068"><a xlink:title=" ">
<path fill="none" stroke="#63b8ff" d="M732.7,-159.66C707.65,-134.83 657.1,-88.7 605,-64.5 585.98,-55.67 562.56,-51.12 545.12,-48.81"/>
<polygon fill="#63b8ff" stroke="#63b8ff" points="730.38,-162.29 739.91,-166.93 735.35,-157.36 730.38,-162.29"/>
</a>
</g>
</g>
<!-- Node69 -->
<g id="Node000069" class="node">
<title>Node69</title>
<g id="a_Node000069"><a xlink:href="test__create_virtual_server_8cpp.html#a0dab7ae2d51f771c7d651de64d6fd66a" target="_top" xlink:title=" ">
<polygon fill="white" stroke="#666666" points="545,-19 493,-19 493,0 545,0 545,-19"/>
<text text-anchor="middle" x="519" y="-7" font-family="Helvetica,sans-Serif" font-size="10.00">TEST_F</text>
</a>
</g>
</g>
<!-- Node55&#45;&gt;Node69 -->
<g id="edge55_Node000055_Node000069" class="edge">
<title>Node55&#45;&gt;Node69</title>
<g id="a_edge55_Node000055_Node000069"><a xlink:title=" ">
<path fill="none" stroke="#63b8ff" d="M737.22,-158.61C715.27,-126.8 664.87,-60.64 605,-27.5 586.52,-17.27 562.83,-12.85 545.16,-10.94"/>
<polygon fill="#63b8ff" stroke="#63b8ff" points="734.37,-160.64 742.87,-166.96 740.17,-156.72 734.37,-160.64"/>
</a>
</g>
</g>
</g>
</svg>
