<?xml version="1.0" encoding="UTF-8" standalone="no"?>
<!DOCTYPE svg PUBLIC "-//W3C//DTD SVG 1.1//EN"
 "http://www.w3.org/Graphics/SVG/1.1/DTD/svg11.dtd">
<!-- Generated by graphviz version 2.43.0 (0)
 -->
<!-- Title: FileSystemPolicy::getLastModifiedTime Pages: 1 -->
<svg width="334pt" height="64pt"
 viewBox="0.00 0.00 334.00 64.00" xmlns="http://www.w3.org/2000/svg" xmlns:xlink="http://www.w3.org/1999/xlink">
<g id="graph0" class="graph" transform="scale(1 1) rotate(0) translate(4 60)">
<title>FileSystemPolicy::getLastModifiedTime</title>
<!-- Node1 -->
<g id="Node000001" class="node">
<title>Node1</title>
<g id="a_Node000001"><a xlink:title="Get the last modified time of a file.">
<polygon fill="#999999" stroke="#666666" points="326,-42.5 185,-42.5 185,-12.5 326,-12.5 326,-42.5"/>
<text text-anchor="start" x="193" y="-30.5" font-family="Helvetica,sans-Serif" font-size="10.00">FileSystemPolicy::getLast</text>
<text text-anchor="middle" x="255.5" y="-19.5" font-family="Helvetica,sans-Serif" font-size="10.00">ModifiedTime</text>
</a>
</g>
</g>
<!-- Node2 -->
<g id="Node000002" class="node">
<title>Node2</title>
<g id="a_Node000002"><a xlink:href="class_autoindex_handler.html#a4ad00ccbce16e8913e108e9bf1114c3f" target="_top" xlink:title="Execute the autoindex handler.">
<polygon fill="white" stroke="#666666" points="149,-56 0,-56 0,-37 149,-37 149,-56"/>
<text text-anchor="middle" x="74.5" y="-44" font-family="Helvetica,sans-Serif" font-size="10.00">AutoindexHandler::execute</text>
</a>
</g>
</g>
<!-- Node1&#45;&gt;Node2 -->
<g id="edge1_Node000001_Node000002" class="edge">
<title>Node1&#45;&gt;Node2</title>
<g id="a_edge1_Node000001_Node000002"><a xlink:title=" ">
<path fill="none" stroke="#63b8ff" d="M174.83,-35.96C166.29,-36.86 157.63,-37.78 149.17,-38.68"/>
<polygon fill="#63b8ff" stroke="#63b8ff" points="175.21,-39.44 184.78,-34.9 174.47,-32.48 175.21,-39.44"/>
</a>
</g>
</g>
<!-- Node3 -->
<g id="Node000003" class="node">
<title>Node3</title>
<g id="a_Node000003"><a xlink:href="class_file_write_handler.html#a158b64583ed69733d02d56757610c15f" target="_top" xlink:title="Executes the file write operation.">
<polygon fill="white" stroke="#666666" points="146,-19 3,-19 3,0 146,0 146,-19"/>
<text text-anchor="middle" x="74.5" y="-7" font-family="Helvetica,sans-Serif" font-size="10.00">FileWriteHandler::execute</text>
</a>
</g>
</g>
<!-- Node1&#45;&gt;Node3 -->
<g id="edge2_Node000001_Node000003" class="edge">
<title>Node1&#45;&gt;Node3</title>
<g id="a_edge2_Node000001_Node000003"><a xlink:title=" ">
<path fill="none" stroke="#63b8ff" d="M174.59,-19.46C165.13,-18.51 155.53,-17.55 146.21,-16.61"/>
<polygon fill="#63b8ff" stroke="#63b8ff" points="174.48,-22.97 184.78,-20.49 175.18,-16.01 174.48,-22.97"/>
</a>
</g>
</g>
</g>
</svg>
