<?xml version="1.0" encoding="UTF-8" standalone="no"?>
<!DOCTYPE svg PUBLIC "-//W3C//DTD SVG 1.1//EN"
 "http://www.w3.org/Graphics/SVG/1.1/DTD/svg11.dtd">
<!-- Generated by graphviz version 2.43.0 (0)
 -->
<!-- Title: FileWriteHandler::execute Pages: 1 -->
<svg width="585pt" height="175pt"
 viewBox="0.00 0.00 585.00 175.00" xmlns="http://www.w3.org/2000/svg" xmlns:xlink="http://www.w3.org/1999/xlink">
<g id="graph0" class="graph" transform="scale(1 1) rotate(0) translate(4 171)">
<title>FileWriteHandler::execute</title>
<!-- Node1 -->
<g id="Node000001" class="node">
<title>Node1</title>
<g id="a_Node000001"><a xlink:title="Executes the file write operation.">
<polygon fill="#999999" stroke="#666666" points="143,-93 0,-93 0,-74 143,-74 143,-93"/>
<text text-anchor="middle" x="71.5" y="-81" font-family="Helvetica,sans-Serif" font-size="10.00">FileWriteHandler::execute</text>
</a>
</g>
</g>
<!-- Node2 -->
<g id="Node000002" class="node">
<title>Node2</title>
<g id="a_Node000002"><a xlink:href="class_file_system_ops.html#a12bceeffe08a11a8a4f2bee84858b6a4" target="_top" xlink:title="Get the file size of a file.">
<polygon fill="white" stroke="#666666" points="352.5,-167 203.5,-167 203.5,-148 352.5,-148 352.5,-167"/>
<text text-anchor="middle" x="278" y="-155" font-family="Helvetica,sans-Serif" font-size="10.00">FileSystemOps::getFileSize</text>
</a>
</g>
</g>
<!-- Node1&#45;&gt;Node2 -->
<g id="edge1_Node000001_Node000002" class="edge">
<title>Node1&#45;&gt;Node2</title>
<g id="a_edge1_Node000001_Node000002"><a xlink:title=" ">
<path fill="none" stroke="#63b8ff" d="M87.36,-93.18C107.37,-105.77 144.45,-127.55 179,-139.5 185.74,-141.83 192.86,-143.88 200.05,-145.67"/>
<polygon fill="#63b8ff" stroke="#63b8ff" points="199.34,-149.1 209.88,-147.97 200.93,-142.29 199.34,-149.1"/>
</a>
</g>
</g>
<!-- Node3 -->
<g id="Node000003" class="node">
<title>Node3</title>
<g id="a_Node000003"><a xlink:href="class_file_system_ops.html#a8f2e395d98b54b1bbf49bb306088281b" target="_top" xlink:title="Gets the file status of a path.">
<polygon fill="white" stroke="#666666" points="352,-130 204,-130 204,-111 352,-111 352,-130"/>
<text text-anchor="middle" x="278" y="-118" font-family="Helvetica,sans-Serif" font-size="10.00">FileSystemOps::getFileStat</text>
</a>
</g>
</g>
<!-- Node1&#45;&gt;Node3 -->
<g id="edge2_Node000001_Node000003" class="edge">
<title>Node1&#45;&gt;Node3</title>
<g id="a_edge2_Node000001_Node000003"><a xlink:title=" ">
<path fill="none" stroke="#63b8ff" d="M125.16,-93.03C152.37,-97.95 185.76,-103.99 214.29,-109.15"/>
<polygon fill="#63b8ff" stroke="#63b8ff" points="213.7,-112.6 224.16,-110.94 214.94,-105.72 213.7,-112.6"/>
</a>
</g>
</g>
<!-- Node4 -->
<g id="Node000004" class="node">
<title>Node4</title>
<g id="a_Node000004"><a xlink:href="class_file_system_ops.html#a4b703a8f4cfb55b1dc6e73482b53b6be" target="_top" xlink:title="Get the last modified time of a file.">
<polygon fill="white" stroke="#666666" points="377,-93 179,-93 179,-74 377,-74 377,-93"/>
<text text-anchor="middle" x="278" y="-81" font-family="Helvetica,sans-Serif" font-size="10.00">FileSystemOps::getLastModifiedTime</text>
</a>
</g>
</g>
<!-- Node1&#45;&gt;Node4 -->
<g id="edge3_Node000001_Node000004" class="edge">
<title>Node1&#45;&gt;Node4</title>
<g id="a_edge3_Node000001_Node000004"><a xlink:title=" ">
<path fill="none" stroke="#63b8ff" d="M143.16,-83.5C151.46,-83.5 160.07,-83.5 168.73,-83.5"/>
<polygon fill="#63b8ff" stroke="#63b8ff" points="168.91,-87 178.91,-83.5 168.91,-80 168.91,-87"/>
</a>
</g>
</g>
<!-- Node6 -->
<g id="Node000006" class="node">
<title>Node6</title>
<g id="a_Node000006"><a xlink:href="class_file_system_ops.html#ab39892a09d270a528e201deaf1a0e049" target="_top" xlink:title="Wrapper to check if a path is an existing file.">
<polygon fill="white" stroke="#666666" points="358,-56 198,-56 198,-37 358,-37 358,-56"/>
<text text-anchor="middle" x="278" y="-44" font-family="Helvetica,sans-Serif" font-size="10.00">FileSystemOps::isExistingFile</text>
</a>
</g>
</g>
<!-- Node1&#45;&gt;Node6 -->
<g id="edge5_Node000001_Node000006" class="edge">
<title>Node1&#45;&gt;Node6</title>
<g id="a_edge5_Node000001_Node000006"><a xlink:title=" ">
<path fill="none" stroke="#63b8ff" d="M125.16,-73.97C152.37,-69.05 185.76,-63.01 214.29,-57.85"/>
<polygon fill="#63b8ff" stroke="#63b8ff" points="214.94,-61.28 224.16,-56.06 213.7,-54.4 214.94,-61.28"/>
</a>
</g>
</g>
<!-- Node8 -->
<g id="Node000008" class="node">
<title>Node8</title>
<g id="a_Node000008"><a xlink:href="class_file_system_ops.html#ad5375dbc16d5870db04dc0fe1fdb58a1" target="_top" xlink:title="Creates a file with the specified content at the given path.">
<polygon fill="white" stroke="#666666" points="352,-19 204,-19 204,0 352,0 352,-19"/>
<text text-anchor="middle" x="278" y="-7" font-family="Helvetica,sans-Serif" font-size="10.00">FileSystemOps::writeToFile</text>
</a>
</g>
</g>
<!-- Node1&#45;&gt;Node8 -->
<g id="edge7_Node000001_Node000008" class="edge">
<title>Node1&#45;&gt;Node8</title>
<g id="a_edge7_Node000001_Node000008"><a xlink:title=" ">
<path fill="none" stroke="#63b8ff" d="M87.75,-73.84C107.89,-61.52 144.79,-40.37 179,-28.5 186.88,-25.76 195.27,-23.38 203.69,-21.32"/>
<polygon fill="#63b8ff" stroke="#63b8ff" points="204.6,-24.71 213.56,-19.05 203.03,-17.88 204.6,-24.71"/>
</a>
</g>
</g>
<!-- Node5 -->
<g id="Node000005" class="node">
<title>Node5</title>
<g id="a_Node000005"><a xlink:href="namespacewebutils.html#ab6119b08526700518f576bb78554be59" target="_top" xlink:title="Returns localtime string in provided format.">
<polygon fill="white" stroke="#666666" points="573,-93 417,-93 417,-74 573,-74 573,-93"/>
<text text-anchor="middle" x="495" y="-81" font-family="Helvetica,sans-Serif" font-size="10.00">webutils::getLocaltimeString</text>
</a>
</g>
</g>
<!-- Node4&#45;&gt;Node5 -->
<g id="edge4_Node000004_Node000005" class="edge">
<title>Node4&#45;&gt;Node5</title>
<g id="a_edge4_Node000004_Node000005"><a xlink:title=" ">
<path fill="none" stroke="#63b8ff" d="M377.06,-83.5C386.93,-83.5 396.9,-83.5 406.64,-83.5"/>
<polygon fill="#63b8ff" stroke="#63b8ff" points="406.69,-87 416.69,-83.5 406.69,-80 406.69,-87"/>
</a>
</g>
</g>
<!-- Node7 -->
<g id="Node000007" class="node">
<title>Node7</title>
<g id="a_Node000007"><a xlink:href="class_file_system_ops.html#a9b274e332fa6b297241bdffe3ab9c618" target="_top" xlink:title="Check the file type of a given path.">
<polygon fill="white" stroke="#666666" points="577,-56 413,-56 413,-37 577,-37 577,-56"/>
<text text-anchor="middle" x="495" y="-44" font-family="Helvetica,sans-Serif" font-size="10.00">FileSystemOps::checkFileType</text>
</a>
</g>
</g>
<!-- Node6&#45;&gt;Node7 -->
<g id="edge6_Node000006_Node000007" class="edge">
<title>Node6&#45;&gt;Node7</title>
<g id="a_edge6_Node000006_Node000007"><a xlink:title=" ">
<path fill="none" stroke="#63b8ff" d="M358.14,-46.5C372.64,-46.5 387.87,-46.5 402.69,-46.5"/>
<polygon fill="#63b8ff" stroke="#63b8ff" points="402.87,-50 412.87,-46.5 402.87,-43 402.87,-50"/>
</a>
</g>
</g>
</g>
</svg>
