<?xml version="1.0" encoding="UTF-8" standalone="no"?>
<!DOCTYPE svg PUBLIC "-//W3C//DTD SVG 1.1//EN"
 "http://www.w3.org/Graphics/SVG/1.1/DTD/svg11.dtd">
<!-- Generated by graphviz version 2.43.0 (0)
 -->
<!-- Title: weblog::LogOutputterConsole::log Pages: 1 -->
<!--zoomable 261 -->

<svg id="main" version="1.1" xmlns="http://www.w3.org/2000/svg" xmlns:xlink="http://www.w3.org/1999/xlink" xml:space="preserve" onload="init(evt)">
<style type="text/css"><![CDATA[
.node, .edge {opacity: 0.7;}
.node.selected, .edge.selected {opacity: 1;}
.edge:hover path { stroke: red; }
.edge:hover polygon { stroke: red; fill: red; }
]]></style>

<defs>
  <circle id="rim" cx="0" cy="0" r="7"/>
  <circle id="rim2" cx="0" cy="0" r="3.5"/>
  <g id="zoomPlus">
    <use xlink:href="#rim" fill="#404040"><set attributeName="fill" to="#808080" begin="zoomplus.mouseover" end="zoomplus.mouseout"/></use>
    <path d="M-4,0h8M0,-4v8" fill="none" stroke="white" stroke-width="1.5" pointer-events="none"/>
  </g>
  <g id="zoomMin">
    <use xlink:href="#rim" fill="#404040"><set attributeName="fill" to="#808080" begin="zoomminus.mouseover" end="zoomminus.mouseout"/></use>
    <path d="M-4,0h8" fill="none" stroke="white" stroke-width="1.5" pointer-events="none"/>
  </g>
  <g id="arrowUp" transform="translate(30 24)">
    <use xlink:href="#rim"/>
    <path pointer-events="none" fill="none" stroke="white" stroke-width="1.5" d="M0,-3.0v7 M-2.5,-0.5L0,-3.0L2.5,-0.5"/>
  </g>
  <g id="arrowRight" transform="rotate(90) translate(36 -43)">
    <use xlink:href="#rim"/>
    <path pointer-events="none" fill="none" stroke="white" stroke-width="1.5" d="M0,-3.0v7 M-2.5,-0.5L0,-3.0L2.5,-0.5"/>
  </g>
  <g id="arrowDown" transform="rotate(180) translate(-30 -48)">
    <use xlink:href="#rim"/>
    <path pointer-events="none" fill="none" stroke="white" stroke-width="1.5" d="M0,-3.0v7 M-2.5,-0.5L0,-3.0L2.5,-0.5"/>
  </g>
  <g id="arrowLeft" transform="rotate(270) translate(-36 17)">
    <use xlink:href="#rim"/>
    <path pointer-events="none" fill="none" stroke="white" stroke-width="1.5" d="M0,-3.0v7 M-2.5,-0.5L0,-3.0L2.5,-0.5"/>
  </g>
  <g id="resetDef">
    <use xlink:href="#rim2" fill="#404040"><set attributeName="fill" to="#808080" begin="reset.mouseover" end="reset.mouseout"/></use>
  </g>
</defs>
<script type="application/ecmascript">
var viewWidth = 589;
var viewHeight = 261;
var sectionId = 'dynsection-2';
</script>
<script type="application/ecmascript" xlink:href="svg.min.js"/>
<svg id="graph" class="graph">
<g id="viewport">
<title>weblog::LogOutputterConsole::log</title>
<!-- Node1 -->
<g id="Node000001" class="node">
<title>Node1</title>
<g id="a_Node000001"><a xlink:title="Log a message to the console.">
<polygon fill="#999999" stroke="#666666" points="182,-141.5 0,-141.5 0,-122.5 182,-122.5 182,-141.5"/>
<text text-anchor="middle" x="91" y="-129.5" font-family="Helvetica,sans-Serif" font-size="10.00">weblog::LogOutputterConsole::log</text>
</a>
</g>
</g>
<!-- Node2 -->
<g id="Node000002" class="node">
<title>Node2</title>
<g id="a_Node000002"><a xlink:href="classweblog_1_1_a_log_outputter.html#a74e71c0a78eb3efd1a60fddc11cfa545" target="_top" xlink:title="Format a message out of the logData object.">
<polygon fill="white" stroke="#666666" points="350,-147 218,-147 218,-117 350,-117 350,-147"/>
<text text-anchor="start" x="226" y="-135" font-family="Helvetica,sans-Serif" font-size="10.00">weblog::ALogOutputter</text>
<text text-anchor="middle" x="284" y="-124" font-family="Helvetica,sans-Serif" font-size="10.00">::getFormattedMessage</text>
</a>
</g>
</g>
<!-- Node1&#45;&gt;Node2 -->
<g id="edge1_Node000001_Node000002" class="edge">
<title>Node1&#45;&gt;Node2</title>
<g id="a_edge1_Node000001_Node000002"><a xlink:title=" ">
<path fill="none" stroke="#63b8ff" d="M182.19,-132C190.77,-132 199.41,-132 207.83,-132"/>
<polygon fill="#63b8ff" stroke="#63b8ff" points="207.97,-135.5 217.97,-132 207.97,-128.5 207.97,-135.5"/>
</a>
</g>
</g>
<!-- Node3 -->
<g id="Node000003" class="node">
<title>Node3</title>
<g id="a_Node000003"><a xlink:href="classweblog_1_1_log_data.html#a4c09579fe7c971807f48775a269fd0a8" target="_top" xlink:title="Get the file name.">
<polygon fill="white" stroke="#666666" points="552,-252.5 415,-252.5 415,-233.5 552,-233.5 552,-252.5"/>
<text text-anchor="middle" x="483.5" y="-240.5" font-family="Helvetica,sans-Serif" font-size="10.00">weblog::LogData::getFile</text>
</a>
</g>
</g>
<!-- Node2&#45;&gt;Node3 -->
<g id="edge2_Node000002_Node000003" class="edge">
<title>Node2&#45;&gt;Node3</title>
<g id="a_edge2_Node000002_Node000003"><a xlink:title=" ">
<path fill="none" stroke="#63b8ff" d="M296.85,-147.35C314.05,-168.46 348.06,-206 386,-225 392.04,-228.03 398.52,-230.55 405.17,-232.64"/>
<polygon fill="#63b8ff" stroke="#63b8ff" points="404.41,-236.07 414.99,-235.43 406.32,-229.33 404.41,-236.07"/>
</a>
</g>
</g>
<!-- Node4 -->
<g id="Node000004" class="node">
<title>Node4</title>
<g id="a_Node000004"><a xlink:href="classweblog_1_1_log_data.html#aa4077a11fc212264e7a7a85415d2f725" target="_top" xlink:title="Get the formatted time.">
<polygon fill="white" stroke="#666666" points="581,-215.5 386,-215.5 386,-196.5 581,-196.5 581,-215.5"/>
<text text-anchor="middle" x="483.5" y="-203.5" font-family="Helvetica,sans-Serif" font-size="10.00">weblog::LogData::getFormattedTime</text>
</a>
</g>
</g>
<!-- Node2&#45;&gt;Node4 -->
<g id="edge3_Node000002_Node000004" class="edge">
<title>Node2&#45;&gt;Node4</title>
<g id="a_edge3_Node000002_Node000004"><a xlink:title=" ">
<path fill="none" stroke="#63b8ff" d="M307.27,-147.11C327.09,-159.88 357.32,-177.68 386,-188 392.36,-190.29 399.06,-192.3 405.85,-194.06"/>
<polygon fill="#63b8ff" stroke="#63b8ff" points="405.28,-197.53 415.82,-196.47 406.93,-190.72 405.28,-197.53"/>
</a>
</g>
</g>
<!-- Node5 -->
<g id="Node000005" class="node">
<title>Node5</title>
<g id="a_Node000005"><a xlink:href="classweblog_1_1_log_data.html#ab1e3d7de2081aa7f8998314ea03c3fbc" target="_top" xlink:title="Get the function name.">
<polygon fill="white" stroke="#666666" points="564,-178.5 403,-178.5 403,-159.5 564,-159.5 564,-178.5"/>
<text text-anchor="middle" x="483.5" y="-166.5" font-family="Helvetica,sans-Serif" font-size="10.00">weblog::LogData::getFunction</text>
</a>
</g>
</g>
<!-- Node2&#45;&gt;Node5 -->
<g id="edge4_Node000002_Node000005" class="edge">
<title>Node2&#45;&gt;Node5</title>
<g id="a_edge4_Node000002_Node000005"><a xlink:title=" ">
<path fill="none" stroke="#63b8ff" d="M350.19,-144.28C362.11,-146.52 374.43,-148.83 386,-151 397.4,-153.14 409.56,-155.41 421.27,-157.59"/>
<polygon fill="#63b8ff" stroke="#63b8ff" points="420.94,-161.09 431.41,-159.49 422.23,-154.21 420.94,-161.09"/>
</a>
</g>
</g>
<!-- Node6 -->
<g id="Node000006" class="node">
<title>Node6</title>
<g id="a_Node000006"><a xlink:href="classweblog_1_1_log_data.html#abf7dacd4f854b930998d0a4a8861d375" target="_top" xlink:title="Get the log level.">
<polygon fill="white" stroke="#666666" points="556.5,-141.5 410.5,-141.5 410.5,-122.5 556.5,-122.5 556.5,-141.5"/>
<text text-anchor="middle" x="483.5" y="-129.5" font-family="Helvetica,sans-Serif" font-size="10.00">weblog::LogData::getLevel</text>
</a>
</g>
</g>
<!-- Node2&#45;&gt;Node6 -->
<g id="edge5_Node000002_Node000006" class="edge">
<title>Node2&#45;&gt;Node6</title>
<g id="a_edge5_Node000002_Node000006"><a xlink:title=" ">
<path fill="none" stroke="#63b8ff" d="M350.22,-132C366.13,-132 383.36,-132 399.96,-132"/>
<polygon fill="#63b8ff" stroke="#63b8ff" points="400.19,-135.5 410.19,-132 400.19,-128.5 400.19,-135.5"/>
</a>
</g>
</g>
<!-- Node7 -->
<g id="Node000007" class="node">
<title>Node7</title>
<g id="a_Node000007"><a xlink:href="classweblog_1_1_log_data.html#a1b85f949a0947b0636a6cff9cd04fd88" target="_top" xlink:title="Get the line number.">
<polygon fill="white" stroke="#666666" points="553.5,-104.5 413.5,-104.5 413.5,-85.5 553.5,-85.5 553.5,-104.5"/>
<text text-anchor="middle" x="483.5" y="-92.5" font-family="Helvetica,sans-Serif" font-size="10.00">weblog::LogData::getLine</text>
</a>
</g>
</g>
<!-- Node2&#45;&gt;Node7 -->
<g id="edge6_Node000002_Node000007" class="edge">
<title>Node2&#45;&gt;Node7</title>
<g id="a_edge6_Node000002_Node000007"><a xlink:title=" ">
<path fill="none" stroke="#63b8ff" d="M350.22,-119.78C373.31,-115.45 399.19,-110.61 421.89,-106.35"/>
<polygon fill="#63b8ff" stroke="#63b8ff" points="422.55,-109.79 431.74,-104.51 421.27,-102.91 422.55,-109.79"/>
</a>
</g>
</g>
<!-- Node8 -->
<g id="Node000008" class="node">
<title>Node8</title>
<g id="a_Node000008"><a xlink:href="classweblog_1_1_log_data.html#ae083584fe82c6fefe25a9cbbff3bb9f8" target="_top" xlink:title="Get the log message.">
<polygon fill="white" stroke="#666666" points="565.5,-67.5 401.5,-67.5 401.5,-48.5 565.5,-48.5 565.5,-67.5"/>
<text text-anchor="middle" x="483.5" y="-55.5" font-family="Helvetica,sans-Serif" font-size="10.00">weblog::LogData::getMessage</text>
</a>
</g>
</g>
<!-- Node2&#45;&gt;Node8 -->
<g id="edge7_Node000002_Node000008" class="edge">
<title>Node2&#45;&gt;Node8</title>
<g id="a_edge7_Node000002_Node000008"><a xlink:title=" ">
<path fill="none" stroke="#63b8ff" d="M308.12,-116.75C328,-104.31 357.83,-87.17 386,-77 393.54,-74.28 401.55,-71.92 409.62,-69.87"/>
<polygon fill="#63b8ff" stroke="#63b8ff" points="410.53,-73.25 419.45,-67.54 408.91,-66.44 410.53,-73.25"/>
</a>
</g>
</g>
<!-- Node9 -->
<g id="Node000009" class="node">
<title>Node9</title>
<g id="a_Node000009"><a xlink:href="classweblog_1_1_log_data.html#a558c41ae966801658a1e67b8691f838e" target="_top" xlink:title="Convert the log level to a string.">
<polygon fill="white" stroke="#666666" points="553,-30 414,-30 414,0 553,0 553,-30"/>
<text text-anchor="start" x="422" y="-18" font-family="Helvetica,sans-Serif" font-size="10.00">weblog::LogData::levelTo</text>
<text text-anchor="middle" x="483.5" y="-7" font-family="Helvetica,sans-Serif" font-size="10.00">String</text>
</a>
</g>
</g>
<!-- Node2&#45;&gt;Node9 -->
<g id="edge8_Node000002_Node000009" class="edge">
<title>Node2&#45;&gt;Node9</title>
<g id="a_edge8_Node000002_Node000009"><a xlink:title=" ">
<path fill="none" stroke="#63b8ff" d="M297.37,-116.83C314.93,-96.31 349.08,-59.99 386,-40 391.83,-36.84 398.07,-34.07 404.48,-31.64"/>
<polygon fill="#63b8ff" stroke="#63b8ff" points="405.67,-34.93 413.95,-28.32 403.35,-28.33 405.67,-34.93"/>
</a>
</g>
</g>
</g>
</svg>

<g id="navigator" transform="translate(0 0)" fill="#404254">
  <rect fill="#f2f5e9" fill-opacity="0.5" stroke="#606060" stroke-width=".5" x="0" y="0" width="60" height="60"/>
  <use id="zoomplus" xlink:href="#zoomPlus" x="17" y="9" onmousedown="handleZoom(evt,'in')"/>
  <use id="zoomminus" xlink:href="#zoomMin" x="42" y="9" onmousedown="handleZoom(evt,'out')"/>
  <use id="reset" xlink:href="#resetDef" x="30" y="36" onmousedown="handleReset()"/>
   <use id="arrowup" xlink:href="#arrowUp" x="0" y="0" onmousedown="handlePan(0,-1)"/>
  <use id="arrowright" xlink:href="#arrowRight" x="0" y="0" onmousedown="handlePan(1,0)"/>
  <use id="arrowdown" xlink:href="#arrowDown" x="0" y="0" onmousedown="handlePan(0,1)"/>
  <use id="arrowleft" xlink:href="#arrowLeft" x="0" y="0" onmousedown="handlePan(-1,0)"/>
</g>
<svg viewBox="0 0 15 15" width="100%" height="30px" preserveAspectRatio="xMaxYMin meet">
 <g id="arrow_out" transform="scale(0.3 0.3)">
  <a xlink:href="classweblog_1_1_log_outputter_console_a9312a8a9bbda182183261e323acdd28b_cgraph_org.svg" target="_base">
   <rect id="button" ry="5" rx="5" y="6" x="6" height="38" width="38"
        fill="#f2f5e9" fill-opacity="0.5" stroke="#606060" stroke-width="1.0"/>
   <path id="arrow"
     d="M 11.500037,31.436501 C 11.940474,20.09759 22.043105,11.32322 32.158766,21.979434 L 37.068811,17.246167 C 37.068811,17.246167 37.088388,32 37.088388,32 L 22.160133,31.978069 C 22.160133,31.978069 26.997745,27.140456 26.997745,27.140456 C 18.528582,18.264221 13.291696,25.230495 11.500037,31.436501 z"
     style="fill:#404040;"/>
  </a>
 </g>
</svg>

<style type='text/css'>
<![CDATA[
[data-mouse-over-selected='false'] { opacity: 0.7; }
[data-mouse-over-selected='true']  { opacity: 1.0; }
]]>
</style>
<script type="application/ecmascript"><![CDATA[
document.addEventListener('DOMContentLoaded', (event) => {
  highlightEdges();
  highlightAdjacentNodes();
});
]]></script>
</svg>
