<?xml version="1.0" encoding="UTF-8" standalone="no"?>
<!DOCTYPE svg PUBLIC "-//W3C//DTD SVG 1.1//EN"
 "http://www.w3.org/Graphics/SVG/1.1/DTD/svg11.dtd">
<!-- Generated by graphviz version 2.43.0 (0)
 -->
<!-- Title: ResponseBuilder::buildResponse Pages: 1 -->
<svg width="934pt" height="142pt"
 viewBox="0.00 0.00 934.00 142.00" xmlns="http://www.w3.org/2000/svg" xmlns:xlink="http://www.w3.org/1999/xlink">
<g id="graph0" class="graph" transform="scale(1 1) rotate(0) translate(4 138)">
<title>ResponseBuilder::buildResponse</title>
<!-- Node1 -->
<g id="node1" class="node">
<title>Node1</title>
<g id="a_node1"><a xlink:title="Build the response for a given request.">
<polygon fill="#bfbfbf" stroke="black" points="0,-35.5 0,-54.5 176,-54.5 176,-35.5 0,-35.5"/>
<text text-anchor="middle" x="88" y="-42.5" font-family="Helvetica,sans-Serif" font-size="10.00">ResponseBuilder::buildResponse</text>
</a>
</g>
</g>
<!-- Node2 -->
<g id="node2" class="node">
<title>Node2</title>
<g id="a_node2"><a xlink:href="class_response_body_handler.html#a0660b57e440e2c519761817d178818c0" target="_top" xlink:title="Create the response body.">
<polygon fill="none" stroke="black" points="212,-30 212,-60 339,-60 339,-30 212,-30"/>
<text text-anchor="start" x="220" y="-48" font-family="Helvetica,sans-Serif" font-size="10.00">ResponseBodyHandler</text>
<text text-anchor="middle" x="275.5" y="-37" font-family="Helvetica,sans-Serif" font-size="10.00">::execute</text>
</a>
</g>
</g>
<!-- Node1&#45;&gt;Node2 -->
<g id="edge1" class="edge">
<title>Node1&#45;&gt;Node2</title>
<path fill="none" stroke="midnightblue" d="M176.05,-45C184.61,-45 193.24,-45 201.65,-45"/>
<polygon fill="midnightblue" stroke="midnightblue" points="201.76,-48.5 211.76,-45 201.76,-41.5 201.76,-48.5"/>
</g>
<!-- Node3 -->
<g id="node3" class="node">
<title>Node3</title>
<g id="a_node3"><a xlink:href="class_autoindex_handler.html#a4ad00ccbce16e8913e108e9bf1114c3f" target="_top" xlink:title="Execute the autoindex handler.">
<polygon fill="none" stroke="black" points="375,-57.5 375,-76.5 524,-76.5 524,-57.5 375,-57.5"/>
<text text-anchor="middle" x="449.5" y="-64.5" font-family="Helvetica,sans-Serif" font-size="10.00">AutoindexHandler::execute</text>
</a>
</g>
</g>
<!-- Node2&#45;&gt;Node3 -->
<g id="edge2" class="edge">
<title>Node2&#45;&gt;Node3</title>
<path fill="none" stroke="midnightblue" d="M339.08,-53C347.44,-54.07 356.11,-55.18 364.75,-56.29"/>
<polygon fill="midnightblue" stroke="midnightblue" points="364.5,-59.78 374.86,-57.58 365.39,-52.84 364.5,-59.78"/>
</g>
<!-- Node10 -->
<g id="node10" class="node">
<title>Node10</title>
<g id="a_node10"><a xlink:href="class_file_system_policy.html#a700e01137b08674976427c869e078cc9" target="_top" xlink:title="Gets the contents of a file.">
<polygon fill="none" stroke="black" points="380.5,-8 380.5,-38 518.5,-38 518.5,-8 380.5,-8"/>
<text text-anchor="start" x="388.5" y="-26" font-family="Helvetica,sans-Serif" font-size="10.00">FileSystemPolicy::getFile</text>
<text text-anchor="middle" x="449.5" y="-15" font-family="Helvetica,sans-Serif" font-size="10.00">Contents</text>
</a>
</g>
</g>
<!-- Node2&#45;&gt;Node10 -->
<g id="edge9" class="edge">
<title>Node2&#45;&gt;Node10</title>
<path fill="none" stroke="midnightblue" d="M339.08,-37C349.27,-35.69 359.94,-34.33 370.44,-32.98"/>
<polygon fill="midnightblue" stroke="midnightblue" points="370.97,-36.44 380.45,-31.7 370.08,-29.5 370.97,-36.44"/>
</g>
<!-- Node4 -->
<g id="node4" class="node">
<title>Node4</title>
<g id="a_node4"><a xlink:href="class_directory.html#a09da8cd603ddb22990c5bb8165e14ea8" target="_top" xlink:title="Get the entries in the directory.">
<polygon fill="none" stroke="black" points="581,-114.5 581,-133.5 697,-133.5 697,-114.5 581,-114.5"/>
<text text-anchor="middle" x="639" y="-121.5" font-family="Helvetica,sans-Serif" font-size="10.00">Directory::getEntries</text>
</a>
</g>
</g>
<!-- Node3&#45;&gt;Node4 -->
<g id="edge3" class="edge">
<title>Node3&#45;&gt;Node4</title>
<path fill="none" stroke="midnightblue" d="M475.94,-76.6C497.99,-84.74 530.85,-96.41 560,-105 568.35,-107.46 577.28,-109.85 585.99,-112.06"/>
<polygon fill="midnightblue" stroke="midnightblue" points="585.16,-115.46 595.7,-114.47 586.84,-108.67 585.16,-115.46"/>
</g>
<!-- Node6 -->
<g id="node6" class="node">
<title>Node6</title>
<g id="a_node6"><a xlink:href="_autoindex_handler_8cpp.html#aa1cdc5b5774ab502cc67a723e7634b3f" target="_top" xlink:title="Get the file size of a file.">
<polygon fill="none" stroke="black" points="604,-76.5 604,-95.5 674,-95.5 674,-76.5 604,-76.5"/>
<text text-anchor="middle" x="639" y="-83.5" font-family="Helvetica,sans-Serif" font-size="10.00">getFileSize</text>
</a>
</g>
</g>
<!-- Node3&#45;&gt;Node6 -->
<g id="edge5" class="edge">
<title>Node3&#45;&gt;Node6</title>
<path fill="none" stroke="midnightblue" d="M524.07,-74.45C547.59,-76.84 572.89,-79.4 593.66,-81.51"/>
<polygon fill="midnightblue" stroke="midnightblue" points="593.47,-85.01 603.77,-82.53 594.17,-78.04 593.47,-85.01"/>
</g>
<!-- Node7 -->
<g id="node7" class="node">
<title>Node7</title>
<g id="a_node7"><a xlink:href="class_file_system_policy.html#ad2571bc684c5f8db457d8e282729f832" target="_top" xlink:title="Gets the file status of a path.">
<polygon fill="none" stroke="black" points="560,-38.5 560,-57.5 718,-57.5 718,-38.5 560,-38.5"/>
<text text-anchor="middle" x="639" y="-45.5" font-family="Helvetica,sans-Serif" font-size="10.00">FileSystemPolicy::getFileStat</text>
</a>
</g>
</g>
<!-- Node3&#45;&gt;Node7 -->
<g id="edge6" class="edge">
<title>Node3&#45;&gt;Node7</title>
<path fill="none" stroke="midnightblue" d="M524.07,-59.55C532.47,-58.69 541.11,-57.82 549.68,-56.95"/>
<polygon fill="midnightblue" stroke="midnightblue" points="550.1,-60.42 559.7,-55.93 549.4,-53.46 550.1,-60.42"/>
</g>
<!-- Node8 -->
<g id="node8" class="node">
<title>Node8</title>
<g id="a_node8"><a xlink:href="_autoindex_handler_8cpp.html#a1ca36f6cd35dba3c07da2bc0e3380cf1" target="_top" xlink:title="Get the last modified time of a file.">
<polygon fill="none" stroke="black" points="579.5,-0.5 579.5,-19.5 698.5,-19.5 698.5,-0.5 579.5,-0.5"/>
<text text-anchor="middle" x="639" y="-7.5" font-family="Helvetica,sans-Serif" font-size="10.00">getLastModifiedTime</text>
</a>
</g>
</g>
<!-- Node3&#45;&gt;Node8 -->
<g id="edge7" class="edge">
<title>Node3&#45;&gt;Node8</title>
<path fill="none" stroke="midnightblue" d="M491.4,-57.41C502.14,-54.48 513.62,-50.96 524,-47 540.71,-40.62 543.2,-35.16 560,-29 566.84,-26.49 574.13,-24.22 581.42,-22.19"/>
<polygon fill="midnightblue" stroke="midnightblue" points="582.53,-25.51 591.29,-19.56 580.73,-18.75 582.53,-25.51"/>
</g>
<!-- Node5 -->
<g id="node5" class="node">
<title>Node5</title>
<g id="a_node5"><a xlink:href="class_file_system_policy.html#ad23fadf21355a78cce6e905f61611469" target="_top" xlink:title="Reads a directory.">
<polygon fill="none" stroke="black" points="754,-114.5 754,-133.5 926,-133.5 926,-114.5 754,-114.5"/>
<text text-anchor="middle" x="840" y="-121.5" font-family="Helvetica,sans-Serif" font-size="10.00">FileSystemPolicy::readDirectory</text>
</a>
</g>
</g>
<!-- Node4&#45;&gt;Node5 -->
<g id="edge4" class="edge">
<title>Node4&#45;&gt;Node5</title>
<path fill="none" stroke="midnightblue" d="M697.03,-124C711.53,-124 727.53,-124 743.39,-124"/>
<polygon fill="midnightblue" stroke="midnightblue" points="743.77,-127.5 753.77,-124 743.77,-120.5 743.77,-127.5"/>
</g>
<!-- Node9 -->
<g id="node9" class="node">
<title>Node9</title>
<g id="a_node9"><a xlink:href="namespacewebutils.html#ab6119b08526700518f576bb78554be59" target="_top" xlink:title="Returns localtime string in provided format.">
<polygon fill="none" stroke="black" points="762,-0.5 762,-19.5 918,-19.5 918,-0.5 762,-0.5"/>
<text text-anchor="middle" x="840" y="-7.5" font-family="Helvetica,sans-Serif" font-size="10.00">webutils::getLocaltimeString</text>
</a>
</g>
</g>
<!-- Node8&#45;&gt;Node9 -->
<g id="edge8" class="edge">
<title>Node8&#45;&gt;Node9</title>
<path fill="none" stroke="midnightblue" d="M698.63,-10C715.29,-10 733.8,-10 751.76,-10"/>
<polygon fill="midnightblue" stroke="midnightblue" points="751.96,-13.5 761.96,-10 751.96,-6.5 751.96,-13.5"/>
</g>
</g>
</svg>
