<?xml version="1.0" encoding="UTF-8" standalone="no"?>
<!DOCTYPE svg PUBLIC "-//W3C//DTD SVG 1.1//EN"
 "http://www.w3.org/Graphics/SVG/1.1/DTD/svg11.dtd">
<!-- Generated by graphviz version 2.43.0 (0)
 -->
<!-- Title: Server::run Pages: 1 -->
<!--zoomable 548 -->
<svg id="main" version="1.1" xmlns="http://www.w3.org/2000/svg" xmlns:xlink="http://www.w3.org/1999/xlink" xml:space="preserve" onload="init(evt)">
<style type="text/css"><![CDATA[
.edge:hover path { stroke: red; }
.edge:hover polygon { stroke: red; fill: red; }
]]></style>
<script type="text/javascript"><![CDATA[
var edges = document.getElementsByTagName('g');
if (edges && edges.length) {
  for (var i=0;i<edges.length;i++) {
    if (edges[i].id.substr(0,4)=='edge') {
      edges[i].setAttribute('class','edge');
    }
  }
}
]]></script>
        <defs>
                <circle id="rim" cx="0" cy="0" r="7"/>
                <circle id="rim2" cx="0" cy="0" r="3.5"/>
                <g id="zoomPlus">
                        <use xlink:href="#rim" fill="#404040">
                                <set attributeName="fill" to="#808080" begin="zoomplus.mouseover" end="zoomplus.mouseout"/>
                        </use>
                        <path d="M-4,0h8M0,-4v8" fill="none" stroke="white" stroke-width="1.5" pointer-events="none"/>
                </g>
                <g id="zoomMin">
                        <use xlink:href="#rim" fill="#404040">
                                <set attributeName="fill" to="#808080" begin="zoomminus.mouseover" end="zoomminus.mouseout"/>
                        </use>
                        <path d="M-4,0h8" fill="none" stroke="white" stroke-width="1.5" pointer-events="none"/>
                </g>
                <g id="dirArrow">
                        <path fill="none" stroke="white" stroke-width="1.5" d="M0,-3.0v7 M-2.5,-0.5L0,-3.0L2.5,-0.5"/>
                </g>
               <g id="resetDef">
                       <use xlink:href="#rim2" fill="#404040">
                               <set attributeName="fill" to="#808080" begin="reset.mouseover" end="reset.mouseout"/>
                       </use>
               </g>
        </defs>

<script type="text/javascript">
var viewWidth = 2070;
var viewHeight = 548;
var sectionId = 'dynsection-1';
</script>
<script xlink:href="svgpan.js"/>
<svg id="graph" class="graph">
<g id="viewport">
<title>Server::run</title>
<!-- Node1 -->
<g id="node1" class="node">
<title>Node1</title>
<g id="a_node1"><a xlink:title="Runs the main event loop.">
<polygon fill="#bfbfbf" stroke="black" points="0,-222.5 0,-241.5 70,-241.5 70,-222.5 0,-222.5"/>
<text text-anchor="middle" x="35" y="-229.5" font-family="Helvetica,sans-Serif" font-size="10.00">Server::run</text>
</a>
</g>
</g>
<!-- Node2 -->
<g id="node2" class="node">
<title>Node2</title>
<g id="a_node2"><a xlink:href="_server_8cpp.html#a28fd29ec48bd9459c678980cfccca4cf" target="_top" xlink:title="Iterates through all connections and checks if any have timed out.">
<polygon fill="none" stroke="black" points="134,-374.5 134,-393.5 235,-393.5 235,-374.5 134,-374.5"/>
<text text-anchor="middle" x="184.5" y="-381.5" font-family="Helvetica,sans-Serif" font-size="10.00">checkForTimeout</text>
</a>
</g>
</g>
<!-- Node1&#45;&gt;Node2 -->
<g id="edge1" class="edge">
<title>Node1&#45;&gt;Node2</title>
<path fill="none" stroke="midnightblue" d="M45.23,-241.51C69.65,-266.67 136.21,-335.26 167.21,-367.21"/>
<polygon fill="midnightblue" stroke="midnightblue" points="164.8,-369.76 174.28,-374.5 169.82,-364.88 164.8,-369.76"/>
</g>
<!-- Node7 -->
<g id="node7" class="node">
<title>Node7</title>
<g id="a_node7"><a xlink:href="_server_8cpp.html#a9e2693ba11e20b84de090bcdd0b665db" target="_top" xlink:title="Iterates through all connections and removes closed ones.">
<polygon fill="none" stroke="black" points="110.5,-260.5 110.5,-279.5 258.5,-279.5 258.5,-260.5 110.5,-260.5"/>
<text text-anchor="middle" x="184.5" y="-267.5" font-family="Helvetica,sans-Serif" font-size="10.00">cleanupClosedConnections</text>
</a>
</g>
</g>
<!-- Node1&#45;&gt;Node7 -->
<g id="edge6" class="edge">
<title>Node1&#45;&gt;Node7</title>
<path fill="none" stroke="midnightblue" d="M70.14,-241.45C81.53,-244.55 94.3,-247.98 106,-251 114.96,-253.31 124.53,-255.72 133.77,-258"/>
<polygon fill="midnightblue" stroke="midnightblue" points="133.08,-261.44 143.63,-260.42 134.75,-254.64 133.08,-261.44"/>
</g>
<!-- Node8 -->
<g id="node8" class="node">
<title>Node8</title>
<g id="a_node8"><a xlink:href="class_epoll_wrapper.html#a351163f31995e5bab238fac131eb2185" target="_top" xlink:title="Get the beginning of the events vector.">
<polygon fill="none" stroke="black" points="110,-184.5 110,-203.5 259,-203.5 259,-184.5 110,-184.5"/>
<text text-anchor="middle" x="184.5" y="-191.5" font-family="Helvetica,sans-Serif" font-size="10.00">EpollWrapper::eventsBegin</text>
</a>
</g>
</g>
<!-- Node1&#45;&gt;Node8 -->
<g id="edge8" class="edge">
<title>Node1&#45;&gt;Node8</title>
<path fill="none" stroke="midnightblue" d="M70.14,-222.55C81.53,-219.45 94.3,-216.02 106,-213 114.96,-210.69 124.53,-208.28 133.77,-206"/>
<polygon fill="midnightblue" stroke="midnightblue" points="134.75,-209.36 143.63,-203.58 133.08,-202.56 134.75,-209.36"/>
</g>
<!-- Node9 -->
<g id="node9" class="node">
<title>Node9</title>
<g id="a_node9"><a xlink:href="_server_8cpp.html#af9f4479a6262c17deef89938118d27f4" target="_top" xlink:title="Accepts new connections or handles existing ones.">
<polygon fill="none" stroke="black" points="146,-222.5 146,-241.5 223,-241.5 223,-222.5 146,-222.5"/>
<text text-anchor="middle" x="184.5" y="-229.5" font-family="Helvetica,sans-Serif" font-size="10.00">handleEvent</text>
</a>
</g>
</g>
<!-- Node1&#45;&gt;Node9 -->
<g id="edge9" class="edge">
<title>Node1&#45;&gt;Node9</title>
<path fill="none" stroke="midnightblue" d="M70.21,-232C89.66,-232 114.33,-232 135.68,-232"/>
<polygon fill="midnightblue" stroke="midnightblue" points="135.85,-235.5 145.85,-232 135.85,-228.5 135.85,-235.5"/>
</g>
<!-- Node51 -->
<g id="node50" class="node">
<title>Node51</title>
<g id="a_node50"><a xlink:href="class_epoll_wrapper.html#a311509445062f6333287f2957b8b2e85" target="_top" xlink:title="Wait for events on an epoll instance.">
<polygon fill="none" stroke="black" points="106,-146.5 106,-165.5 263,-165.5 263,-146.5 106,-146.5"/>
<text text-anchor="middle" x="184.5" y="-153.5" font-family="Helvetica,sans-Serif" font-size="10.00">EpollWrapper::waitForEvents</text>
</a>
</g>
</g>
<!-- Node1&#45;&gt;Node51 -->
<g id="edge58" class="edge">
<title>Node1&#45;&gt;Node51</title>
<path fill="none" stroke="midnightblue" d="M45,-222.38C57.48,-209.62 81.31,-187.29 106,-175 110.69,-172.67 115.68,-170.61 120.78,-168.8"/>
<polygon fill="midnightblue" stroke="midnightblue" points="122.24,-172 130.68,-165.6 120.09,-165.34 122.24,-172"/>
</g>
<!-- Node3 -->
<g id="node3" class="node">
<title>Node3</title>
<g id="a_node3"><a xlink:href="class_server.html#af8184a299847cca0789696048893bc48" target="_top" xlink:title="Const Getter for client timeout.">
<polygon fill="none" stroke="black" points="299,-520.5 299,-539.5 438,-539.5 438,-520.5 299,-520.5"/>
<text text-anchor="middle" x="368.5" y="-527.5" font-family="Helvetica,sans-Serif" font-size="10.00">Server::getClientTimeout</text>
</a>
</g>
</g>
<!-- Node2&#45;&gt;Node3 -->
<g id="edge2" class="edge">
<title>Node2&#45;&gt;Node3</title>
<path fill="none" stroke="midnightblue" d="M191.99,-393.73C207.7,-416.55 250.1,-474.01 299,-506 305.53,-510.27 312.9,-513.87 320.33,-516.89"/>
<polygon fill="midnightblue" stroke="midnightblue" points="319.12,-520.17 329.71,-520.4 321.57,-513.62 319.12,-520.17"/>
</g>
<!-- Node4 -->
<g id="node4" class="node">
<title>Node4</title>
<g id="a_node4"><a xlink:href="class_server.html#aab1a7e57f49a0c7b7f1cea147d8bf9aa" target="_top" xlink:title="Getter for connections.">
<polygon fill="none" stroke="black" points="303.5,-260.5 303.5,-279.5 433.5,-279.5 433.5,-260.5 303.5,-260.5"/>
<text text-anchor="middle" x="368.5" y="-267.5" font-family="Helvetica,sans-Serif" font-size="10.00">Server::getConnections</text>
</a>
</g>
</g>
<!-- Node2&#45;&gt;Node4 -->
<g id="edge3" class="edge">
<title>Node2&#45;&gt;Node4</title>
<path fill="none" stroke="midnightblue" d="M200.7,-374.48C232.29,-354.69 305.21,-309.01 343.32,-285.15"/>
<polygon fill="midnightblue" stroke="midnightblue" points="345.59,-287.85 352.21,-279.58 341.88,-281.92 345.59,-287.85"/>
</g>
<!-- Node5 -->
<g id="node5" class="node">
<title>Node5</title>
<g id="a_node5"><a xlink:href="class_server.html#afab1a4ec9e524b0dae8f60080642e7fe" target="_top" xlink:title="Wrapper function to EpollWrapper::modifyEvent.">
<polygon fill="none" stroke="black" points="1118,-380.5 1118,-399.5 1234,-399.5 1234,-380.5 1118,-380.5"/>
<text text-anchor="middle" x="1176" y="-387.5" font-family="Helvetica,sans-Serif" font-size="10.00">Server::modifyEvent</text>
</a>
</g>
</g>
<!-- Node2&#45;&gt;Node5 -->
<g id="edge4" class="edge">
<title>Node2&#45;&gt;Node5</title>
<path fill="none" stroke="midnightblue" d="M204.35,-393.58C258.15,-420.02 417.6,-492 558.5,-492 558.5,-492 558.5,-492 768.5,-492 912.11,-492 1075.9,-431.37 1143.4,-403.6"/>
<polygon fill="midnightblue" stroke="midnightblue" points="1145.13,-406.67 1153.01,-399.6 1142.44,-400.21 1145.13,-406.67"/>
</g>
<!-- Node6 -->
<g id="node6" class="node">
<title>Node6</title>
<g id="a_node6"><a xlink:href="class_epoll_wrapper.html#ac97945725185999837a6d0d53f91df1a" target="_top" xlink:title="Modify an event in the epoll instance.">
<polygon fill="none" stroke="black" points="1301,-380.5 1301,-399.5 1450,-399.5 1450,-380.5 1301,-380.5"/>
<text text-anchor="middle" x="1375.5" y="-387.5" font-family="Helvetica,sans-Serif" font-size="10.00">EpollWrapper::modifyEvent</text>
</a>
</g>
</g>
<!-- Node5&#45;&gt;Node6 -->
<g id="edge5" class="edge">
<title>Node5&#45;&gt;Node6</title>
<path fill="none" stroke="midnightblue" d="M1234.13,-390C1251.8,-390 1271.65,-390 1290.73,-390"/>
<polygon fill="midnightblue" stroke="midnightblue" points="1290.93,-393.5 1300.93,-390 1290.93,-386.5 1290.93,-393.5"/>
</g>
<!-- Node7&#45;&gt;Node4 -->
<g id="edge7" class="edge">
<title>Node7&#45;&gt;Node4</title>
<path fill="none" stroke="midnightblue" d="M258.74,-270C270.08,-270 281.81,-270 293.18,-270"/>
<polygon fill="midnightblue" stroke="midnightblue" points="293.49,-273.5 303.49,-270 293.49,-266.5 293.49,-273.5"/>
</g>
<!-- Node9&#45;&gt;Node4 -->
<g id="edge17" class="edge">
<title>Node9&#45;&gt;Node4</title>
<path fill="none" stroke="midnightblue" d="M223.21,-239.87C248.82,-245.22 283.13,-252.38 311.87,-258.38"/>
<polygon fill="midnightblue" stroke="midnightblue" points="311.27,-261.84 321.78,-260.45 312.7,-254.98 311.27,-261.84"/>
</g>
<!-- Node10 -->
<g id="node10" class="node">
<title>Node10</title>
<g id="a_node10"><a xlink:href="_server_8cpp.html#adb579f3d67061d752e882e6fb3ef6f18" target="_top" xlink:title="Accept new connections.">
<polygon fill="none" stroke="black" points="314,-57.5 314,-76.5 423,-76.5 423,-57.5 314,-57.5"/>
<text text-anchor="middle" x="368.5" y="-64.5" font-family="Helvetica,sans-Serif" font-size="10.00">acceptConnections</text>
</a>
</g>
</g>
<!-- Node9&#45;&gt;Node10 -->
<g id="edge10" class="edge">
<title>Node9&#45;&gt;Node10</title>
<path fill="none" stroke="midnightblue" d="M223.19,-228.24C236.62,-225.55 251.3,-220.92 263,-213 288.01,-196.07 335.03,-121.12 356.41,-85.68"/>
<polygon fill="midnightblue" stroke="midnightblue" points="359.59,-87.19 361.73,-76.82 353.58,-83.6 359.59,-87.19"/>
</g>
<!-- Node17 -->
<g id="node17" class="node">
<title>Node17</title>
<g id="a_node17"><a xlink:href="class_server.html#a878b0cc2f9bc228dd12b250d95d61a75" target="_top" xlink:title="Const Getter for virtual servers.">
<polygon fill="none" stroke="black" points="299,-184.5 299,-203.5 438,-203.5 438,-184.5 299,-184.5"/>
<text text-anchor="middle" x="368.5" y="-191.5" font-family="Helvetica,sans-Serif" font-size="10.00">Server::getVirtualServers</text>
</a>
</g>
</g>
<!-- Node9&#45;&gt;Node17 -->
<g id="edge18" class="edge">
<title>Node9&#45;&gt;Node17</title>
<path fill="none" stroke="midnightblue" d="M223.21,-224.13C248.82,-218.78 283.13,-211.62 311.87,-205.62"/>
<polygon fill="midnightblue" stroke="midnightblue" points="312.7,-209.02 321.78,-203.55 311.27,-202.16 312.7,-209.02"/>
</g>
<!-- Node18 -->
<g id="node18" class="node">
<title>Node18</title>
<g id="a_node18"><a xlink:href="_server_8cpp.html#a581dddd40d3728b6d22216003e2065b5" target="_top" xlink:title="Handle a client connection.">
<polygon fill="none" stroke="black" points="316.5,-222.5 316.5,-241.5 420.5,-241.5 420.5,-222.5 316.5,-222.5"/>
<text text-anchor="middle" x="368.5" y="-229.5" font-family="Helvetica,sans-Serif" font-size="10.00">handleConnection</text>
</a>
</g>
</g>
<!-- Node9&#45;&gt;Node18 -->
<g id="edge19" class="edge">
<title>Node9&#45;&gt;Node18</title>
<path fill="none" stroke="midnightblue" d="M223.21,-232C247.12,-232 278.61,-232 306.07,-232"/>
<polygon fill="midnightblue" stroke="midnightblue" points="306.38,-235.5 316.38,-232 306.38,-228.5 306.38,-235.5"/>
</g>
<!-- Node11 -->
<g id="node11" class="node">
<title>Node11</title>
<g id="a_node11"><a xlink:href="class_server.html#ad8823ad2d9c9a94cfafb40e8e0653865" target="_top" xlink:title="Wrapper function to SocketPolicy::acceptSingleConnection().">
<polygon fill="none" stroke="black" points="474,-76.5 474,-95.5 645,-95.5 645,-76.5 474,-76.5"/>
<text text-anchor="middle" x="559.5" y="-83.5" font-family="Helvetica,sans-Serif" font-size="10.00">Server::acceptSingleConnection</text>
</a>
</g>
</g>
<!-- Node10&#45;&gt;Node11 -->
<g id="edge11" class="edge">
<title>Node10&#45;&gt;Node11</title>
<path fill="none" stroke="midnightblue" d="M423.15,-72.39C435.89,-73.67 449.85,-75.08 463.81,-76.48"/>
<polygon fill="midnightblue" stroke="midnightblue" points="463.66,-79.98 473.96,-77.5 464.36,-73.02 463.66,-79.98"/>
</g>
<!-- Node13 -->
<g id="node13" class="node">
<title>Node13</title>
<g id="a_node13"><a xlink:href="class_server.html#ac145e9f668db85b10a66829bd2677746" target="_top" xlink:title="Register a connection.">
<polygon fill="none" stroke="black" points="486.5,-38.5 486.5,-57.5 632.5,-57.5 632.5,-38.5 486.5,-38.5"/>
<text text-anchor="middle" x="559.5" y="-45.5" font-family="Helvetica,sans-Serif" font-size="10.00">Server::registerConnection</text>
</a>
</g>
</g>
<!-- Node10&#45;&gt;Node13 -->
<g id="edge13" class="edge">
<title>Node10&#45;&gt;Node13</title>
<path fill="none" stroke="midnightblue" d="M423.15,-61.61C439.65,-59.95 458.21,-58.08 476.17,-56.28"/>
<polygon fill="midnightblue" stroke="midnightblue" points="476.76,-59.74 486.36,-55.25 476.06,-52.77 476.76,-59.74"/>
</g>
<!-- Node15 -->
<g id="node15" class="node">
<title>Node15</title>
<g id="a_node15"><a xlink:href="class_server.html#ac951fb1326dfadeff690fd646e0b7e8f" target="_top" xlink:title="Wrapper function to SocketPolicy::retrieveSocketInfo.">
<polygon fill="none" stroke="black" points="488,-0.5 488,-19.5 631,-19.5 631,-0.5 488,-0.5"/>
<text text-anchor="middle" x="559.5" y="-7.5" font-family="Helvetica,sans-Serif" font-size="10.00">Server::retrieveSocketInfo</text>
</a>
</g>
</g>
<!-- Node10&#45;&gt;Node15 -->
<g id="edge15" class="edge">
<title>Node10&#45;&gt;Node15</title>
<path fill="none" stroke="midnightblue" d="M393.28,-57.37C414.28,-49.1 445.84,-37.25 474,-29 482.69,-26.45 491.97,-24.06 501.07,-21.87"/>
<polygon fill="midnightblue" stroke="midnightblue" points="501.91,-25.27 510.85,-19.6 500.32,-18.46 501.91,-25.27"/>
</g>
<!-- Node12 -->
<g id="node12" class="node">
<title>Node12</title>
<g id="a_node12"><a xlink:href="class_socket_policy.html#a63228ebffc41e3739677715bcd43a477" target="_top" xlink:title="Accept a connection on a socket.">
<polygon fill="none" stroke="black" points="694.5,-77 694.5,-107 840.5,-107 840.5,-77 694.5,-77"/>
<text text-anchor="start" x="702.5" y="-95" font-family="Helvetica,sans-Serif" font-size="10.00">SocketPolicy::acceptSingle</text>
<text text-anchor="middle" x="767.5" y="-84" font-family="Helvetica,sans-Serif" font-size="10.00">Connection</text>
</a>
</g>
</g>
<!-- Node11&#45;&gt;Node12 -->
<g id="edge12" class="edge">
<title>Node11&#45;&gt;Node12</title>
<path fill="none" stroke="midnightblue" d="M645.18,-88.47C658.05,-88.84 671.32,-89.23 684.14,-89.6"/>
<polygon fill="midnightblue" stroke="midnightblue" points="684.21,-93.1 694.31,-89.9 684.42,-86.11 684.21,-93.1"/>
</g>
<!-- Node14 -->
<g id="node14" class="node">
<title>Node14</title>
<g id="a_node14"><a xlink:href="class_epoll_wrapper.html#ace2a6009a6c647babfc667c27df05354" target="_top" xlink:title="Add an event to the epoll instance.">
<polygon fill="none" stroke="black" points="700.5,-38.5 700.5,-57.5 834.5,-57.5 834.5,-38.5 700.5,-38.5"/>
<text text-anchor="middle" x="767.5" y="-45.5" font-family="Helvetica,sans-Serif" font-size="10.00">EpollWrapper::addEvent</text>
</a>
</g>
</g>
<!-- Node13&#45;&gt;Node14 -->
<g id="edge14" class="edge">
<title>Node13&#45;&gt;Node14</title>
<path fill="none" stroke="midnightblue" d="M632.55,-48C651.24,-48 671.42,-48 690.31,-48"/>
<polygon fill="midnightblue" stroke="midnightblue" points="690.36,-51.5 700.35,-48 690.35,-44.5 690.36,-51.5"/>
</g>
<!-- Node16 -->
<g id="node16" class="node">
<title>Node16</title>
<g id="a_node16"><a xlink:href="class_socket_policy.html#a874932fbf0a16f6d0de145f686eed49a" target="_top" xlink:title="Retrieve socket information.">
<polygon fill="none" stroke="black" points="681,-0.5 681,-19.5 854,-19.5 854,-0.5 681,-0.5"/>
<text text-anchor="middle" x="767.5" y="-7.5" font-family="Helvetica,sans-Serif" font-size="10.00">SocketPolicy::retrieveSocketInfo</text>
</a>
</g>
</g>
<!-- Node15&#45;&gt;Node16 -->
<g id="edge16" class="edge">
<title>Node15&#45;&gt;Node16</title>
<path fill="none" stroke="midnightblue" d="M631.11,-10C643.82,-10 657.27,-10 670.56,-10"/>
<polygon fill="midnightblue" stroke="midnightblue" points="670.68,-13.5 680.68,-10 670.68,-6.5 670.68,-13.5"/>
</g>
<!-- Node19 -->
<g id="node19" class="node">
<title>Node19</title>
<g id="a_node19"><a xlink:href="_server_8cpp.html#ac98878a19797a7f939c3a5ea1e028e56" target="_top" xlink:title="Builds the response for a client connection.">
<polygon fill="none" stroke="black" points="696.5,-139.5 696.5,-158.5 838.5,-158.5 838.5,-139.5 696.5,-139.5"/>
<text text-anchor="middle" x="767.5" y="-146.5" font-family="Helvetica,sans-Serif" font-size="10.00">connectionBuildResponse</text>
</a>
</g>
</g>
<!-- Node18&#45;&gt;Node19 -->
<g id="edge20" class="edge">
<title>Node18&#45;&gt;Node19</title>
<path fill="none" stroke="midnightblue" d="M420.84,-222.89C427.02,-220.36 432.93,-217.13 438,-213 465.13,-190.92 444.14,-161.22 474,-143 554.13,-94.11 671,-118.93 729.81,-136.52"/>
<polygon fill="midnightblue" stroke="midnightblue" points="728.83,-139.88 739.41,-139.49 730.89,-133.19 728.83,-139.88"/>
</g>
<!-- Node33 -->
<g id="node32" class="node">
<title>Node33</title>
<g id="a_node32"><a xlink:href="_server_8cpp.html#adcf8118ac987f6afae3aec0c54cc5f9f" target="_top" xlink:title="Sends the response to a client connection.">
<polygon fill="none" stroke="black" points="900.5,-180.5 900.5,-199.5 1041.5,-199.5 1041.5,-180.5 900.5,-180.5"/>
<text text-anchor="middle" x="971" y="-187.5" font-family="Helvetica,sans-Serif" font-size="10.00">connectionSendResponse</text>
</a>
</g>
</g>
<!-- Node18&#45;&gt;Node33 -->
<g id="edge57" class="edge">
<title>Node18&#45;&gt;Node33</title>
<path fill="none" stroke="midnightblue" d="M420.74,-227.55C482.45,-222.27 589.26,-213.38 681,-207 751.71,-202.08 832.22,-197.42 890.28,-194.23"/>
<polygon fill="midnightblue" stroke="midnightblue" points="890.69,-197.71 900.48,-193.67 890.31,-190.72 890.69,-197.71"/>
</g>
<!-- Node39 -->
<g id="node38" class="node">
<title>Node39</title>
<g id="a_node38"><a xlink:href="_server_8cpp.html#abb21ebec72f9526fbba446f7d566117e" target="_top" xlink:title="Handles a timeout for a client connection.">
<polygon fill="none" stroke="black" points="487,-152.5 487,-171.5 632,-171.5 632,-152.5 487,-152.5"/>
<text text-anchor="middle" x="559.5" y="-159.5" font-family="Helvetica,sans-Serif" font-size="10.00">connectionHandleTimeout</text>
</a>
</g>
</g>
<!-- Node18&#45;&gt;Node39 -->
<g id="edge40" class="edge">
<title>Node18&#45;&gt;Node39</title>
<path fill="none" stroke="midnightblue" d="M413.52,-222.41C421.86,-219.87 430.36,-216.76 438,-213 455.95,-204.17 456.08,-194.88 474,-186 483.12,-181.48 493.23,-177.68 503.19,-174.54"/>
<polygon fill="midnightblue" stroke="midnightblue" points="504.47,-177.82 513.06,-171.62 502.48,-171.11 504.47,-177.82"/>
</g>
<!-- Node40 -->
<g id="node39" class="node">
<title>Node40</title>
<g id="a_node39"><a xlink:href="_server_8cpp.html#a3f930db051b00ade521e2633cee948bd" target="_top" xlink:title="Receives the body of a connection.">
<polygon fill="none" stroke="black" points="492.5,-254.5 492.5,-273.5 626.5,-273.5 626.5,-254.5 492.5,-254.5"/>
<text text-anchor="middle" x="559.5" y="-261.5" font-family="Helvetica,sans-Serif" font-size="10.00">connectionReceiveBody</text>
</a>
</g>
</g>
<!-- Node18&#45;&gt;Node40 -->
<g id="edge42" class="edge">
<title>Node18&#45;&gt;Node40</title>
<path fill="none" stroke="midnightblue" d="M420.65,-240.66C442.74,-244.4 468.88,-248.83 492.42,-252.81"/>
<polygon fill="midnightblue" stroke="midnightblue" points="491.88,-256.27 502.33,-254.49 493.05,-249.37 491.88,-256.27"/>
</g>
<!-- Node47 -->
<g id="node46" class="node">
<title>Node47</title>
<g id="a_node46"><a xlink:href="_server_8cpp.html#a06d0cb066f08d5567ea6ba4ef2897927" target="_top" xlink:title="Receive request header from a client.">
<polygon fill="none" stroke="black" points="487.5,-368.5 487.5,-387.5 631.5,-387.5 631.5,-368.5 487.5,-368.5"/>
<text text-anchor="middle" x="559.5" y="-375.5" font-family="Helvetica,sans-Serif" font-size="10.00">connectionReceiveHeader</text>
</a>
</g>
</g>
<!-- Node18&#45;&gt;Node47 -->
<g id="edge50" class="edge">
<title>Node18&#45;&gt;Node47</title>
<path fill="none" stroke="midnightblue" d="M416.95,-241.53C424.28,-244.01 431.55,-247.12 438,-251 450.67,-258.61 513.65,-327.98 543.18,-360.86"/>
<polygon fill="midnightblue" stroke="midnightblue" points="540.63,-363.26 549.91,-368.37 545.84,-358.59 540.63,-363.26"/>
</g>
<!-- Node20 -->
<g id="node20" class="node">
<title>Node20</title>
<g id="a_node20"><a xlink:href="class_server.html#a54550078a1a4dfdc827a1f39c01ca4e4" target="_top" xlink:title="Wrapper function to ResponseBuilder::buildResponse.">
<polygon fill="none" stroke="black" points="908.5,-139.5 908.5,-158.5 1033.5,-158.5 1033.5,-139.5 908.5,-139.5"/>
<text text-anchor="middle" x="971" y="-146.5" font-family="Helvetica,sans-Serif" font-size="10.00">Server::buildResponse</text>
</a>
</g>
</g>
<!-- Node19&#45;&gt;Node20 -->
<g id="edge21" class="edge">
<title>Node19&#45;&gt;Node20</title>
<path fill="none" stroke="midnightblue" d="M838.69,-149C857.95,-149 878.85,-149 898.19,-149"/>
<polygon fill="midnightblue" stroke="midnightblue" points="898.45,-152.5 908.45,-149 898.45,-145.5 898.45,-152.5"/>
</g>
<!-- Node19&#45;&gt;Node33 -->
<g id="edge33" class="edge">
<title>Node19&#45;&gt;Node33</title>
<path fill="none" stroke="midnightblue" d="M815.23,-158.51C844.38,-164.44 882.08,-172.11 912.98,-178.4"/>
<polygon fill="midnightblue" stroke="midnightblue" points="912.67,-181.91 923.17,-180.47 914.07,-175.05 912.67,-181.91"/>
</g>
<!-- Node37 -->
<g id="node36" class="node">
<title>Node37</title>
<g id="a_node36"><a xlink:href="class_server.html#a718bf76e7c3f830abb2f7b0972cdaa63" target="_top" xlink:title="Wrapper function to ResponseBuilder::getResponse.">
<polygon fill="none" stroke="black" points="912.5,-101.5 912.5,-120.5 1029.5,-120.5 1029.5,-101.5 912.5,-101.5"/>
<text text-anchor="middle" x="971" y="-108.5" font-family="Helvetica,sans-Serif" font-size="10.00">Server::getResponse</text>
</a>
</g>
</g>
<!-- Node19&#45;&gt;Node37 -->
<g id="edge38" class="edge">
<title>Node19&#45;&gt;Node37</title>
<path fill="none" stroke="midnightblue" d="M819.09,-139.46C846.51,-134.29 880.6,-127.86 909.43,-122.42"/>
<polygon fill="midnightblue" stroke="midnightblue" points="910.21,-125.84 919.39,-120.54 908.92,-118.96 910.21,-125.84"/>
</g>
<!-- Node21 -->
<g id="node21" class="node">
<title>Node21</title>
<g id="a_node21"><a xlink:href="class_response_builder.html#a168279f2329e9055e3aa38f08f67c26f" target="_top" xlink:title="Build the response for a given request.">
<polygon fill="none" stroke="black" points="1088,-139.5 1088,-158.5 1264,-158.5 1264,-139.5 1088,-139.5"/>
<text text-anchor="middle" x="1176" y="-146.5" font-family="Helvetica,sans-Serif" font-size="10.00">ResponseBuilder::buildResponse</text>
</a>
</g>
</g>
<!-- Node20&#45;&gt;Node21 -->
<g id="edge22" class="edge">
<title>Node20&#45;&gt;Node21</title>
<path fill="none" stroke="midnightblue" d="M1033.73,-149C1047.57,-149 1062.58,-149 1077.47,-149"/>
<polygon fill="midnightblue" stroke="midnightblue" points="1077.75,-152.5 1087.75,-149 1077.75,-145.5 1077.75,-152.5"/>
</g>
<!-- Node22 -->
<g id="node22" class="node">
<title>Node22</title>
<g id="a_node22"><a xlink:href="class_response_body_handler.html#a0660b57e440e2c519761817d178818c0" target="_top" xlink:title="Create the response body.">
<polygon fill="none" stroke="black" points="1312,-134 1312,-164 1439,-164 1439,-134 1312,-134"/>
<text text-anchor="start" x="1320" y="-152" font-family="Helvetica,sans-Serif" font-size="10.00">ResponseBodyHandler</text>
<text text-anchor="middle" x="1375.5" y="-141" font-family="Helvetica,sans-Serif" font-size="10.00">::execute</text>
</a>
</g>
</g>
<!-- Node21&#45;&gt;Node22 -->
<g id="edge23" class="edge">
<title>Node21&#45;&gt;Node22</title>
<path fill="none" stroke="midnightblue" d="M1264.2,-149C1276.71,-149 1289.48,-149 1301.67,-149"/>
<polygon fill="midnightblue" stroke="midnightblue" points="1301.77,-152.5 1311.77,-149 1301.77,-145.5 1301.77,-152.5"/>
</g>
<!-- Node31 -->
<g id="node30" class="node">
<title>Node31</title>
<g id="a_node30"><a xlink:href="class_target_resource_handler.html#a2571a910d63ee660e93a64fccf515306" target="_top" xlink:title="Determine target resource based on the request path and handle different file types and statuses acco...">
<polygon fill="none" stroke="black" points="1310.5,-85 1310.5,-115 1440.5,-115 1440.5,-85 1310.5,-85"/>
<text text-anchor="start" x="1318.5" y="-103" font-family="Helvetica,sans-Serif" font-size="10.00">TargetResourceHandler</text>
<text text-anchor="middle" x="1375.5" y="-92" font-family="Helvetica,sans-Serif" font-size="10.00">::execute</text>
</a>
</g>
</g>
<!-- Node21&#45;&gt;Node31 -->
<g id="edge31" class="edge">
<title>Node21&#45;&gt;Node31</title>
<path fill="none" stroke="midnightblue" d="M1222.7,-139.47C1236.05,-136.56 1250.64,-133.27 1264,-130 1279.36,-126.24 1295.85,-121.92 1311.28,-117.75"/>
<polygon fill="midnightblue" stroke="midnightblue" points="1312.52,-121.04 1321.25,-115.04 1310.68,-114.29 1312.52,-121.04"/>
</g>
<!-- Node23 -->
<g id="node23" class="node">
<title>Node23</title>
<g id="a_node23"><a xlink:href="class_autoindex_handler.html#a4ad00ccbce16e8913e108e9bf1114c3f" target="_top" xlink:title="Execute the autoindex handler.">
<polygon fill="none" stroke="black" points="1499,-133.5 1499,-152.5 1648,-152.5 1648,-133.5 1499,-133.5"/>
<text text-anchor="middle" x="1573.5" y="-140.5" font-family="Helvetica,sans-Serif" font-size="10.00">AutoindexHandler::execute</text>
</a>
</g>
</g>
<!-- Node22&#45;&gt;Node23 -->
<g id="edge24" class="edge">
<title>Node22&#45;&gt;Node23</title>
<path fill="none" stroke="midnightblue" d="M1439.05,-147.09C1454.83,-146.6 1472.01,-146.08 1488.65,-145.57"/>
<polygon fill="midnightblue" stroke="midnightblue" points="1489.03,-149.06 1498.91,-145.25 1488.81,-142.06 1489.03,-149.06"/>
</g>
<!-- Node30 -->
<g id="node29" class="node">
<title>Node30</title>
<g id="a_node29"><a xlink:href="class_file_system_policy.html#a700e01137b08674976427c869e078cc9" target="_top" xlink:title="Gets the contents of a file.">
<polygon fill="none" stroke="black" points="1504.5,-172 1504.5,-202 1642.5,-202 1642.5,-172 1504.5,-172"/>
<text text-anchor="start" x="1512.5" y="-190" font-family="Helvetica,sans-Serif" font-size="10.00">FileSystemPolicy::getFile</text>
<text text-anchor="middle" x="1573.5" y="-179" font-family="Helvetica,sans-Serif" font-size="10.00">Contents</text>
</a>
</g>
</g>
<!-- Node22&#45;&gt;Node30 -->
<g id="edge30" class="edge">
<title>Node22&#45;&gt;Node30</title>
<path fill="none" stroke="midnightblue" d="M1439.05,-161.13C1456.72,-164.55 1476.16,-168.32 1494.6,-171.9"/>
<polygon fill="midnightblue" stroke="midnightblue" points="1493.95,-175.34 1504.44,-173.8 1495.29,-168.46 1493.95,-175.34"/>
</g>
<!-- Node24 -->
<g id="node24" class="node">
<title>Node24</title>
<g id="a_node24"><a xlink:href="class_directory.html#a09da8cd603ddb22990c5bb8165e14ea8" target="_top" xlink:title="Get the entries in the directory.">
<polygon fill="none" stroke="black" points="1717,-190.5 1717,-209.5 1833,-209.5 1833,-190.5 1717,-190.5"/>
<text text-anchor="middle" x="1775" y="-197.5" font-family="Helvetica,sans-Serif" font-size="10.00">Directory::getEntries</text>
</a>
</g>
</g>
<!-- Node23&#45;&gt;Node24 -->
<g id="edge25" class="edge">
<title>Node23&#45;&gt;Node24</title>
<path fill="none" stroke="midnightblue" d="M1624.36,-152.59C1636.2,-155.44 1648.67,-158.91 1660,-163 1676.82,-169.08 1679.2,-174.84 1696,-181 1702.84,-183.51 1710.13,-185.78 1717.42,-187.81"/>
<polygon fill="midnightblue" stroke="midnightblue" points="1716.73,-191.25 1727.29,-190.44 1718.53,-184.49 1716.73,-191.25"/>
</g>
<!-- Node26 -->
<g id="node26" class="node">
<title>Node26</title>
<g id="a_node26"><a xlink:href="_autoindex_handler_8cpp.html#aa1cdc5b5774ab502cc67a723e7634b3f" target="_top" xlink:title="Get the file size of a file.">
<polygon fill="none" stroke="black" points="1740,-152.5 1740,-171.5 1810,-171.5 1810,-152.5 1740,-152.5"/>
<text text-anchor="middle" x="1775" y="-159.5" font-family="Helvetica,sans-Serif" font-size="10.00">getFileSize</text>
</a>
</g>
</g>
<!-- Node23&#45;&gt;Node26 -->
<g id="edge27" class="edge">
<title>Node23&#45;&gt;Node26</title>
<path fill="none" stroke="midnightblue" d="M1648.22,-150.02C1675.58,-152.63 1705.75,-155.5 1729.69,-157.78"/>
<polygon fill="midnightblue" stroke="midnightblue" points="1729.59,-161.29 1739.87,-158.75 1730.25,-154.32 1729.59,-161.29"/>
</g>
<!-- Node27 -->
<g id="node27" class="node">
<title>Node27</title>
<g id="a_node27"><a xlink:href="class_file_system_policy.html#ad2571bc684c5f8db457d8e282729f832" target="_top" xlink:title="Gets the file status of a path.">
<polygon fill="none" stroke="black" points="1696,-114.5 1696,-133.5 1854,-133.5 1854,-114.5 1696,-114.5"/>
<text text-anchor="middle" x="1775" y="-121.5" font-family="Helvetica,sans-Serif" font-size="10.00">FileSystemPolicy::getFileStat</text>
</a>
</g>
</g>
<!-- Node23&#45;&gt;Node27 -->
<g id="edge28" class="edge">
<title>Node23&#45;&gt;Node27</title>
<path fill="none" stroke="midnightblue" d="M1648.22,-135.98C1660.48,-134.81 1673.31,-133.59 1685.88,-132.39"/>
<polygon fill="midnightblue" stroke="midnightblue" points="1686.28,-135.87 1695.9,-131.44 1685.61,-128.9 1686.28,-135.87"/>
</g>
<!-- Node28 -->
<g id="node28" class="node">
<title>Node28</title>
<g id="a_node28"><a xlink:href="_autoindex_handler_8cpp.html#a1ca36f6cd35dba3c07da2bc0e3380cf1" target="_top" xlink:title="Get the last modified time of a file.">
<polygon fill="none" stroke="red" points="1715.5,-76.5 1715.5,-95.5 1834.5,-95.5 1834.5,-76.5 1715.5,-76.5"/>
<text text-anchor="middle" x="1775" y="-83.5" font-family="Helvetica,sans-Serif" font-size="10.00">getLastModifiedTime</text>
</a>
</g>
</g>
<!-- Node23&#45;&gt;Node28 -->
<g id="edge29" class="edge">
<title>Node23&#45;&gt;Node28</title>
<path fill="none" stroke="midnightblue" d="M1611.35,-133.5C1626.52,-129.37 1644.21,-124.27 1660,-119 1676.28,-113.56 1679.62,-110.15 1696,-105 1703.84,-102.53 1712.22,-100.19 1720.46,-98.05"/>
<polygon fill="midnightblue" stroke="midnightblue" points="1721.56,-101.38 1730.4,-95.55 1719.85,-94.6 1721.56,-101.38"/>
</g>
<!-- Node25 -->
<g id="node25" class="node">
<title>Node25</title>
<g id="a_node25"><a xlink:href="class_file_system_policy.html#ad23fadf21355a78cce6e905f61611469" target="_top" xlink:title="Reads a directory.">
<polygon fill="none" stroke="black" points="1890,-190.5 1890,-209.5 2062,-209.5 2062,-190.5 1890,-190.5"/>
<text text-anchor="middle" x="1976" y="-197.5" font-family="Helvetica,sans-Serif" font-size="10.00">FileSystemPolicy::readDirectory</text>
</a>
</g>
</g>
<!-- Node24&#45;&gt;Node25 -->
<g id="edge26" class="edge">
<title>Node24&#45;&gt;Node25</title>
<path fill="none" stroke="midnightblue" d="M1833.03,-200C1847.53,-200 1863.53,-200 1879.39,-200"/>
<polygon fill="midnightblue" stroke="midnightblue" points="1879.77,-203.5 1889.77,-200 1879.77,-196.5 1879.77,-203.5"/>
</g>
<!-- Node32 -->
<g id="node31" class="node">
<title>Node32</title>
<g id="a_node31"><a xlink:href="class_file_system_policy.html#a6fa9dbd0b2ea4656d86bbe4dc966bf71" target="_top" xlink:title="Check the file type of a given path.">
<polygon fill="none" stroke="black" points="1487,-90.5 1487,-109.5 1660,-109.5 1660,-90.5 1487,-90.5"/>
<text text-anchor="middle" x="1573.5" y="-97.5" font-family="Helvetica,sans-Serif" font-size="10.00">FileSystemPolicy::checkFileType</text>
</a>
</g>
</g>
<!-- Node31&#45;&gt;Node32 -->
<g id="edge32" class="edge">
<title>Node31&#45;&gt;Node32</title>
<path fill="none" stroke="midnightblue" d="M1440.68,-100C1452.19,-100 1464.41,-100 1476.59,-100"/>
<polygon fill="midnightblue" stroke="midnightblue" points="1476.8,-103.5 1486.8,-100 1476.8,-96.5 1476.8,-103.5"/>
</g>
<!-- Node33&#45;&gt;Node5 -->
<g id="edge35" class="edge">
<title>Node33&#45;&gt;Node5</title>
<path fill="none" stroke="midnightblue" d="M992.8,-199.62C1010.78,-208.9 1036.28,-224.56 1052,-245 1081.05,-282.78 1056.49,-310.25 1088,-346 1099.96,-359.56 1117.08,-369.47 1132.98,-376.41"/>
<polygon fill="midnightblue" stroke="midnightblue" points="1132.09,-379.82 1142.67,-380.35 1134.73,-373.34 1132.09,-379.82"/>
</g>
<!-- Node34 -->
<g id="node33" class="node">
<title>Node34</title>
<g id="a_node33"><a xlink:href="_connection_8hpp.html#a5cde791aba7932d764243fd191c0d1bb" target="_top" xlink:title=" ">
<polygon fill="none" stroke="black" points="1128.5,-218.5 1128.5,-237.5 1223.5,-237.5 1223.5,-218.5 1128.5,-218.5"/>
<text text-anchor="middle" x="1176" y="-225.5" font-family="Helvetica,sans-Serif" font-size="10.00">clearConnection</text>
</a>
</g>
</g>
<!-- Node33&#45;&gt;Node34 -->
<g id="edge34" class="edge">
<title>Node33&#45;&gt;Node34</title>
<path fill="none" stroke="midnightblue" d="M1022.96,-199.54C1051.98,-204.97 1088.4,-211.79 1118.31,-217.39"/>
<polygon fill="midnightblue" stroke="midnightblue" points="1117.72,-220.84 1128.19,-219.24 1119,-213.96 1117.72,-220.84"/>
</g>
<!-- Node35 -->
<g id="node34" class="node">
<title>Node35</title>
<g id="a_node34"><a xlink:href="class_server.html#a8bf2a41e8ddcccd54b5832b58211a283" target="_top" xlink:title="Wrapper function to SocketPolicy::writeToSocket.">
<polygon fill="none" stroke="black" points="1115,-180.5 1115,-199.5 1237,-199.5 1237,-180.5 1115,-180.5"/>
<text text-anchor="middle" x="1176" y="-187.5" font-family="Helvetica,sans-Serif" font-size="10.00">Server::writeToSocket</text>
</a>
</g>
</g>
<!-- Node33&#45;&gt;Node35 -->
<g id="edge36" class="edge">
<title>Node33&#45;&gt;Node35</title>
<path fill="none" stroke="midnightblue" d="M1041.58,-190C1062,-190 1084.34,-190 1104.8,-190"/>
<polygon fill="midnightblue" stroke="midnightblue" points="1104.99,-193.5 1114.99,-190 1104.99,-186.5 1104.99,-193.5"/>
</g>
<!-- Node36 -->
<g id="node35" class="node">
<title>Node36</title>
<g id="a_node35"><a xlink:href="class_socket_policy.html#a2be07593236ccf70a7ddd7fc8d8b0af1" target="_top" xlink:title="Write to a socket.">
<polygon fill="none" stroke="black" points="1300,-183.5 1300,-202.5 1451,-202.5 1451,-183.5 1300,-183.5"/>
<text text-anchor="middle" x="1375.5" y="-190.5" font-family="Helvetica,sans-Serif" font-size="10.00">SocketPolicy::writeToSocket</text>
</a>
</g>
</g>
<!-- Node35&#45;&gt;Node36 -->
<g id="edge37" class="edge">
<title>Node35&#45;&gt;Node36</title>
<path fill="none" stroke="midnightblue" d="M1237.06,-190.91C1253.57,-191.16 1271.79,-191.44 1289.42,-191.71"/>
<polygon fill="midnightblue" stroke="midnightblue" points="1289.66,-195.21 1299.71,-191.86 1289.76,-188.21 1289.66,-195.21"/>
</g>
<!-- Node38 -->
<g id="node37" class="node">
<title>Node38</title>
<g id="a_node37"><a xlink:href="class_response_builder.html#adf7d2f0fbb7f5b6866eb884fb2c17e88" target="_top" xlink:title="Get the built response.">
<polygon fill="none" stroke="black" points="1092.5,-101.5 1092.5,-120.5 1259.5,-120.5 1259.5,-101.5 1092.5,-101.5"/>
<text text-anchor="middle" x="1176" y="-108.5" font-family="Helvetica,sans-Serif" font-size="10.00">ResponseBuilder::getResponse</text>
</a>
</g>
</g>
<!-- Node37&#45;&gt;Node38 -->
<g id="edge39" class="edge">
<title>Node37&#45;&gt;Node38</title>
<path fill="none" stroke="midnightblue" d="M1029.63,-111C1045.89,-111 1064.02,-111 1081.81,-111"/>
<polygon fill="midnightblue" stroke="midnightblue" points="1082.22,-114.5 1092.22,-111 1082.22,-107.5 1082.22,-114.5"/>
</g>
<!-- Node39&#45;&gt;Node19 -->
<g id="edge41" class="edge">
<title>Node39&#45;&gt;Node19</title>
<path fill="none" stroke="midnightblue" d="M632.26,-157.47C649.63,-156.38 668.32,-155.2 686.06,-154.08"/>
<polygon fill="midnightblue" stroke="midnightblue" points="686.63,-157.55 696.39,-153.42 686.19,-150.56 686.63,-157.55"/>
</g>
<!-- Node40&#45;&gt;Node5 -->
<g id="edge44" class="edge">
<title>Node40&#45;&gt;Node5</title>
<path fill="none" stroke="midnightblue" d="M616.81,-273.53C637.02,-276.77 660,-280.27 681,-283 845.37,-304.36 896.56,-263.46 1052,-321 1070.27,-327.76 1071.27,-336.02 1088,-346 1106.35,-356.94 1127.76,-367.79 1144.74,-375.98"/>
<polygon fill="midnightblue" stroke="midnightblue" points="1143.64,-379.33 1154.18,-380.47 1146.65,-373.01 1143.64,-379.33"/>
</g>
<!-- Node41 -->
<g id="node40" class="node">
<title>Node41</title>
<g id="a_node40"><a xlink:href="_server_8cpp.html#a14a0c5a1227276017a19d9b52141c13a" target="_top" xlink:title="Checks if the HTTP request body has been completely received.">
<polygon fill="none" stroke="black" points="719,-216.5 719,-235.5 816,-235.5 816,-216.5 719,-216.5"/>
<text text-anchor="middle" x="767.5" y="-223.5" font-family="Helvetica,sans-Serif" font-size="10.00">isCompleteBody</text>
</a>
</g>
</g>
<!-- Node40&#45;&gt;Node41 -->
<g id="edge43" class="edge">
<title>Node40&#45;&gt;Node41</title>
<path fill="none" stroke="midnightblue" d="M612.22,-254.46C641.66,-249.03 678.62,-242.21 708.98,-236.61"/>
<polygon fill="midnightblue" stroke="midnightblue" points="709.8,-240.02 719,-234.76 708.53,-233.13 709.8,-240.02"/>
</g>
<!-- Node42 -->
<g id="node41" class="node">
<title>Node42</title>
<g id="a_node41"><a xlink:href="class_server.html#ace46f4e07ab67db60e3790a32b2e8e0a" target="_top" xlink:title="Wrapper function to RequestParser::parseBody.">
<polygon fill="none" stroke="black" points="714.5,-254.5 714.5,-273.5 820.5,-273.5 820.5,-254.5 714.5,-254.5"/>
<text text-anchor="middle" x="767.5" y="-261.5" font-family="Helvetica,sans-Serif" font-size="10.00">Server::parseBody</text>
</a>
</g>
</g>
<!-- Node40&#45;&gt;Node42 -->
<g id="edge45" class="edge">
<title>Node40&#45;&gt;Node42</title>
<path fill="none" stroke="midnightblue" d="M626.53,-264C651.35,-264 679.46,-264 703.95,-264"/>
<polygon fill="midnightblue" stroke="midnightblue" points="704.21,-267.5 714.21,-264 704.21,-260.5 704.21,-267.5"/>
</g>
<!-- Node45 -->
<g id="node44" class="node">
<title>Node45</title>
<g id="a_node44"><a xlink:href="class_server.html#ae94e3d4b5743580a6fbe3228d58af423" target="_top" xlink:title="Wrapper function to SocketPolicy::readFromSocket.">
<polygon fill="none" stroke="black" points="701,-330.5 701,-349.5 834,-349.5 834,-330.5 701,-330.5"/>
<text text-anchor="middle" x="767.5" y="-337.5" font-family="Helvetica,sans-Serif" font-size="10.00">Server::readFromSocket</text>
</a>
</g>
</g>
<!-- Node40&#45;&gt;Node45 -->
<g id="edge48" class="edge">
<title>Node40&#45;&gt;Node45</title>
<path fill="none" stroke="midnightblue" d="M580.64,-273.68C604.3,-284.82 644.92,-303.22 681,-316 693.04,-320.27 706.24,-324.28 718.59,-327.77"/>
<polygon fill="midnightblue" stroke="midnightblue" points="717.71,-331.16 728.28,-330.44 719.57,-324.41 717.71,-331.16"/>
</g>
<!-- Node43 -->
<g id="node42" class="node">
<title>Node43</title>
<g id="a_node42"><a xlink:href="class_request_parser.html#a5111f16124d227775d963e6ca24ddca0" target="_top" xlink:title="Parses the body of an HTTP request.">
<polygon fill="none" stroke="black" points="899,-254.5 899,-273.5 1043,-273.5 1043,-254.5 899,-254.5"/>
<text text-anchor="middle" x="971" y="-261.5" font-family="Helvetica,sans-Serif" font-size="10.00">RequestParser::parseBody</text>
</a>
</g>
</g>
<!-- Node42&#45;&gt;Node43 -->
<g id="edge46" class="edge">
<title>Node42&#45;&gt;Node43</title>
<path fill="none" stroke="midnightblue" d="M820.65,-264C841.38,-264 865.7,-264 888.64,-264"/>
<polygon fill="midnightblue" stroke="midnightblue" points="888.71,-267.5 898.71,-264 888.71,-260.5 888.71,-267.5"/>
</g>
<!-- Node44 -->
<g id="node43" class="node">
<title>Node44</title>
<g id="a_node43"><a xlink:href="class_request_parser.html#ad8e0fc22eb113d78140e257f002df666" target="_top" xlink:title="Clears the contents of the RequestParser object.">
<polygon fill="none" stroke="black" points="1097.5,-306 1097.5,-336 1254.5,-336 1254.5,-306 1097.5,-306"/>
<text text-anchor="start" x="1105.5" y="-324" font-family="Helvetica,sans-Serif" font-size="10.00">RequestParser::resetRequest</text>
<text text-anchor="middle" x="1176" y="-313" font-family="Helvetica,sans-Serif" font-size="10.00">Stream</text>
</a>
</g>
</g>
<!-- Node43&#45;&gt;Node44 -->
<g id="edge47" class="edge">
<title>Node43&#45;&gt;Node44</title>
<path fill="none" stroke="midnightblue" d="M1005.98,-273.54C1034.76,-281.62 1076.81,-293.43 1111.76,-303.24"/>
<polygon fill="midnightblue" stroke="midnightblue" points="1110.84,-306.62 1121.41,-305.95 1112.73,-299.88 1110.84,-306.62"/>
</g>
<!-- Node46 -->
<g id="node45" class="node">
<title>Node46</title>
<g id="a_node45"><a xlink:href="class_socket_policy.html#a6f6c04c36c6be0d95b1d3e4a872ea7ca" target="_top" xlink:title="Read from a socket.">
<polygon fill="none" stroke="black" points="890,-330.5 890,-349.5 1052,-349.5 1052,-330.5 890,-330.5"/>
<text text-anchor="middle" x="971" y="-337.5" font-family="Helvetica,sans-Serif" font-size="10.00">SocketPolicy::readFromSocket</text>
</a>
</g>
</g>
<!-- Node45&#45;&gt;Node46 -->
<g id="edge49" class="edge">
<title>Node45&#45;&gt;Node46</title>
<path fill="none" stroke="midnightblue" d="M834.2,-340C848.8,-340 864.53,-340 879.92,-340"/>
<polygon fill="midnightblue" stroke="midnightblue" points="879.97,-343.5 889.97,-340 879.97,-336.5 879.97,-343.5"/>
</g>
<!-- Node47&#45;&gt;Node5 -->
<g id="edge52" class="edge">
<title>Node47&#45;&gt;Node5</title>
<path fill="none" stroke="midnightblue" d="M609.54,-387.51C631.33,-391.28 657.35,-395.15 681,-397 833.22,-408.93 1012.61,-400.88 1107.78,-394.87"/>
<polygon fill="midnightblue" stroke="midnightblue" points="1108.09,-398.36 1117.84,-394.23 1107.64,-391.38 1108.09,-398.36"/>
</g>
<!-- Node47&#45;&gt;Node45 -->
<g id="edge56" class="edge">
<title>Node47&#45;&gt;Node45</title>
<path fill="none" stroke="midnightblue" d="M612.22,-368.46C640.26,-363.29 675.1,-356.86 704.58,-351.42"/>
<polygon fill="midnightblue" stroke="midnightblue" points="705.56,-354.8 714.76,-349.54 704.29,-347.92 705.56,-354.8"/>
</g>
<!-- Node48 -->
<g id="node47" class="node">
<title>Node48</title>
<g id="a_node47"><a xlink:href="_server_8cpp.html#a172c400277e73261d212c33f66226090" target="_top" xlink:title="Checks if the connection buffer contains a request header.">
<polygon fill="none" stroke="black" points="694,-444.5 694,-463.5 841,-463.5 841,-444.5 694,-444.5"/>
<text text-anchor="middle" x="767.5" y="-451.5" font-family="Helvetica,sans-Serif" font-size="10.00">isCompleteRequestHeader</text>
</a>
</g>
</g>
<!-- Node47&#45;&gt;Node48 -->
<g id="edge51" class="edge">
<title>Node47&#45;&gt;Node48</title>
<path fill="none" stroke="midnightblue" d="M580.64,-387.68C604.3,-398.82 644.92,-417.22 681,-430 693.04,-434.27 706.24,-438.28 718.59,-441.77"/>
<polygon fill="midnightblue" stroke="midnightblue" points="717.71,-445.16 728.28,-444.44 719.57,-438.41 717.71,-445.16"/>
</g>
<!-- Node49 -->
<g id="node48" class="node">
<title>Node49</title>
<g id="a_node48"><a xlink:href="class_server.html#a34bc61299318fe1918293b1d656ee5f9" target="_top" xlink:title="Wrapper function to RequestParser::parseHeader.">
<polygon fill="none" stroke="black" points="709.5,-368.5 709.5,-387.5 825.5,-387.5 825.5,-368.5 709.5,-368.5"/>
<text text-anchor="middle" x="767.5" y="-375.5" font-family="Helvetica,sans-Serif" font-size="10.00">Server::parseHeader</text>
</a>
</g>
</g>
<!-- Node47&#45;&gt;Node49 -->
<g id="edge53" class="edge">
<title>Node47&#45;&gt;Node49</title>
<path fill="none" stroke="midnightblue" d="M631.68,-378C653.57,-378 677.58,-378 699.2,-378"/>
<polygon fill="midnightblue" stroke="midnightblue" points="699.27,-381.5 709.27,-378 699.27,-374.5 699.27,-381.5"/>
</g>
<!-- Node50 -->
<g id="node49" class="node">
<title>Node50</title>
<g id="a_node49"><a xlink:href="class_request_parser.html#a933b43673d0b7b99d6cc310f5c03a865" target="_top" xlink:title="Parses the header of an HTTP request.">
<polygon fill="none" stroke="black" points="893.5,-368.5 893.5,-387.5 1048.5,-387.5 1048.5,-368.5 893.5,-368.5"/>
<text text-anchor="middle" x="971" y="-375.5" font-family="Helvetica,sans-Serif" font-size="10.00">RequestParser::parseHeader</text>
</a>
</g>
</g>
<!-- Node49&#45;&gt;Node50 -->
<g id="edge54" class="edge">
<title>Node49&#45;&gt;Node50</title>
<path fill="none" stroke="midnightblue" d="M825.7,-378C843.64,-378 863.85,-378 883.34,-378"/>
<polygon fill="midnightblue" stroke="midnightblue" points="883.46,-381.5 893.46,-378 883.46,-374.5 883.46,-381.5"/>
</g>
<!-- Node50&#45;&gt;Node44 -->
<g id="edge55" class="edge">
<title>Node50&#45;&gt;Node44</title>
<path fill="none" stroke="midnightblue" d="M1014.48,-368.46C1026.64,-365.59 1039.88,-362.31 1052,-359 1074.06,-352.98 1098.13,-345.7 1119.08,-339.14"/>
<polygon fill="midnightblue" stroke="midnightblue" points="1120.29,-342.42 1128.78,-336.08 1118.19,-335.75 1120.29,-342.42"/>
</g>
</g>
</svg>
        <g id="navigator" transform="translate(0 0)" fill="#404254">
                <rect fill="#f2f5e9" fill-opacity="0.5" stroke="#606060" stroke-width=".5" x="0" y="0" width="60" height="60"/>
                <use id="zoomplus" xlink:href="#zoomPlus" x="17" y="9" onmousedown="handleZoom(evt,'in')"/>
                <use id="zoomminus" xlink:href="#zoomMin" x="42" y="9" onmousedown="handleZoom(evt,'out')"/>
                <use id="reset" xlink:href="#resetDef" x="30" y="36" onmousedown="handleReset()"/>
                <g id="arrowUp" xlink:href="#dirArrow" transform="translate(30 24)" onmousedown="handlePan(0,-1)">
                  <use xlink:href="#rim" fill="#404040">
                        <set attributeName="fill" to="#808080" begin="arrowUp.mouseover" end="arrowUp.mouseout"/>
                  </use>
                  <path fill="none" stroke="white" stroke-width="1.5" d="M0,-3.0v7 M-2.5,-0.5L0,-3.0L2.5,-0.5"/>
                </g>
                <g id="arrowRight" xlink:href="#dirArrow" transform="rotate(90) translate(36 -43)" onmousedown="handlePan(1,0)">
                  <use xlink:href="#rim" fill="#404040">
                        <set attributeName="fill" to="#808080" begin="arrowRight.mouseover" end="arrowRight.mouseout"/>
                  </use>
                  <path fill="none" stroke="white" stroke-width="1.5" d="M0,-3.0v7 M-2.5,-0.5L0,-3.0L2.5,-0.5"/>
                </g>
                <g id="arrowDown" xlink:href="#dirArrow" transform="rotate(180) translate(-30 -48)" onmousedown="handlePan(0,1)">
                  <use xlink:href="#rim" fill="#404040">
                        <set attributeName="fill" to="#808080" begin="arrowDown.mouseover" end="arrowDown.mouseout"/>
                  </use>
                  <path fill="none" stroke="white" stroke-width="1.5" d="M0,-3.0v7 M-2.5,-0.5L0,-3.0L2.5,-0.5"/>
                </g>
                <g id="arrowLeft" xlink:href="#dirArrow" transform="rotate(270) translate(-36 17)" onmousedown="handlePan(-1,0)">
                  <use xlink:href="#rim" fill="#404040">
                        <set attributeName="fill" to="#808080" begin="arrowLeft.mouseover" end="arrowLeft.mouseout"/>
                  </use>
                  <path fill="none" stroke="white" stroke-width="1.5" d="M0,-3.0v7 M-2.5,-0.5L0,-3.0L2.5,-0.5"/>
                </g>
        </g>
        <svg viewBox="0 0 15 15" width="100%" height="30px" preserveAspectRatio="xMaxYMin meet">
         <g id="arrow_out" transform="scale(0.3 0.3)">
          <a xlink:href="class_server_abb27d30b40a94326e3fd629d3b30b7d5_cgraph_org.svg" target="_base">
           <rect id="button" ry="5" rx="5" y="6" x="6" height="38" width="38"
                fill="#f2f5e9" fill-opacity="0.5" stroke="#606060" stroke-width="1.0"/>
           <path id="arrow"
             d="M 11.500037,31.436501 C 11.940474,20.09759 22.043105,11.32322 32.158766,21.979434 L 37.068811,17.246167 C 37.068811,17.246167 37.088388,32 37.088388,32 L 22.160133,31.978069 C 22.160133,31.978069 26.997745,27.140456 26.997745,27.140456 C 18.528582,18.264221 13.291696,25.230495 11.500037,31.436501 z"
             style="fill:#404040;"/>
          </a>
         </g>
        </svg>
</svg>
