<?xml version="1.0" encoding="UTF-8" standalone="no"?>
<!DOCTYPE svg PUBLIC "-//W3C//DTD SVG 1.1//EN"
 "http://www.w3.org/Graphics/SVG/1.1/DTD/svg11.dtd">
<!-- Generated by graphviz version 2.43.0 (0)
 -->
<!-- Title: weblog::ALogOutputter::getFormattedMessage Pages: 1 -->
<svg width="371pt" height="261pt"
 viewBox="0.00 0.00 371.00 260.50" xmlns="http://www.w3.org/2000/svg" xmlns:xlink="http://www.w3.org/1999/xlink">
<g id="graph0" class="graph" transform="scale(1 1) rotate(0) translate(4 256.5)">
<title>weblog::ALogOutputter::getFormattedMessage</title>
<!-- Node1 -->
<g id="Node000001" class="node">
<title>Node1</title>
<g id="a_Node000001"><a xlink:title="Format a message out of the logData object.">
<polygon fill="#999999" stroke="#666666" points="132,-147 0,-147 0,-117 132,-117 132,-147"/>
<text text-anchor="start" x="8" y="-135" font-family="Helvetica,sans-Serif" font-size="10.00">weblog::ALogOutputter</text>
<text text-anchor="middle" x="66" y="-124" font-family="Helvetica,sans-Serif" font-size="10.00">::getFormattedMessage</text>
</a>
</g>
</g>
<!-- Node2 -->
<g id="Node000002" class="node">
<title>Node2</title>
<g id="a_Node000002"><a xlink:href="classweblog_1_1_log_data.html#a4c09579fe7c971807f48775a269fd0a8" target="_top" xlink:title="Get the file name.">
<polygon fill="white" stroke="#666666" points="334,-252.5 197,-252.5 197,-233.5 334,-233.5 334,-252.5"/>
<text text-anchor="middle" x="265.5" y="-240.5" font-family="Helvetica,sans-Serif" font-size="10.00">weblog::LogData::getFile</text>
</a>
</g>
</g>
<!-- Node1&#45;&gt;Node2 -->
<g id="edge1_Node000001_Node000002" class="edge">
<title>Node1&#45;&gt;Node2</title>
<g id="a_edge1_Node000001_Node000002"><a xlink:title=" ">
<path fill="none" stroke="#63b8ff" d="M78.85,-147.35C96.05,-168.46 130.06,-206 168,-225 174.04,-228.03 180.52,-230.55 187.17,-232.64"/>
<polygon fill="#63b8ff" stroke="#63b8ff" points="186.41,-236.07 196.99,-235.43 188.32,-229.33 186.41,-236.07"/>
</a>
</g>
</g>
<!-- Node3 -->
<g id="Node000003" class="node">
<title>Node3</title>
<g id="a_Node000003"><a xlink:href="classweblog_1_1_log_data.html#aa4077a11fc212264e7a7a85415d2f725" target="_top" xlink:title="Get the formatted time.">
<polygon fill="white" stroke="#666666" points="363,-215.5 168,-215.5 168,-196.5 363,-196.5 363,-215.5"/>
<text text-anchor="middle" x="265.5" y="-203.5" font-family="Helvetica,sans-Serif" font-size="10.00">weblog::LogData::getFormattedTime</text>
</a>
</g>
</g>
<!-- Node1&#45;&gt;Node3 -->
<g id="edge2_Node000001_Node000003" class="edge">
<title>Node1&#45;&gt;Node3</title>
<g id="a_edge2_Node000001_Node000003"><a xlink:title=" ">
<path fill="none" stroke="#63b8ff" d="M89.27,-147.11C109.09,-159.88 139.32,-177.68 168,-188 174.36,-190.29 181.06,-192.3 187.85,-194.06"/>
<polygon fill="#63b8ff" stroke="#63b8ff" points="187.28,-197.53 197.82,-196.47 188.93,-190.72 187.28,-197.53"/>
</a>
</g>
</g>
<!-- Node4 -->
<g id="Node000004" class="node">
<title>Node4</title>
<g id="a_Node000004"><a xlink:href="classweblog_1_1_log_data.html#ab1e3d7de2081aa7f8998314ea03c3fbc" target="_top" xlink:title="Get the function name.">
<polygon fill="white" stroke="#666666" points="346,-178.5 185,-178.5 185,-159.5 346,-159.5 346,-178.5"/>
<text text-anchor="middle" x="265.5" y="-166.5" font-family="Helvetica,sans-Serif" font-size="10.00">weblog::LogData::getFunction</text>
</a>
</g>
</g>
<!-- Node1&#45;&gt;Node4 -->
<g id="edge3_Node000001_Node000004" class="edge">
<title>Node1&#45;&gt;Node4</title>
<g id="a_edge3_Node000001_Node000004"><a xlink:title=" ">
<path fill="none" stroke="#63b8ff" d="M132.19,-144.28C144.11,-146.52 156.43,-148.83 168,-151 179.4,-153.14 191.56,-155.41 203.27,-157.59"/>
<polygon fill="#63b8ff" stroke="#63b8ff" points="202.94,-161.09 213.41,-159.49 204.23,-154.21 202.94,-161.09"/>
</a>
</g>
</g>
<!-- Node5 -->
<g id="Node000005" class="node">
<title>Node5</title>
<g id="a_Node000005"><a xlink:href="classweblog_1_1_log_data.html#abf7dacd4f854b930998d0a4a8861d375" target="_top" xlink:title="Get the log level.">
<polygon fill="white" stroke="#666666" points="338.5,-141.5 192.5,-141.5 192.5,-122.5 338.5,-122.5 338.5,-141.5"/>
<text text-anchor="middle" x="265.5" y="-129.5" font-family="Helvetica,sans-Serif" font-size="10.00">weblog::LogData::getLevel</text>
</a>
</g>
</g>
<!-- Node1&#45;&gt;Node5 -->
<g id="edge4_Node000001_Node000005" class="edge">
<title>Node1&#45;&gt;Node5</title>
<g id="a_edge4_Node000001_Node000005"><a xlink:title=" ">
<path fill="none" stroke="#63b8ff" d="M132.22,-132C148.13,-132 165.36,-132 181.96,-132"/>
<polygon fill="#63b8ff" stroke="#63b8ff" points="182.19,-135.5 192.19,-132 182.19,-128.5 182.19,-135.5"/>
</a>
</g>
</g>
<!-- Node6 -->
<g id="Node000006" class="node">
<title>Node6</title>
<g id="a_Node000006"><a xlink:href="classweblog_1_1_log_data.html#a1b85f949a0947b0636a6cff9cd04fd88" target="_top" xlink:title="Get the line number.">
<polygon fill="white" stroke="#666666" points="335.5,-104.5 195.5,-104.5 195.5,-85.5 335.5,-85.5 335.5,-104.5"/>
<text text-anchor="middle" x="265.5" y="-92.5" font-family="Helvetica,sans-Serif" font-size="10.00">weblog::LogData::getLine</text>
</a>
</g>
</g>
<!-- Node1&#45;&gt;Node6 -->
<g id="edge5_Node000001_Node000006" class="edge">
<title>Node1&#45;&gt;Node6</title>
<g id="a_edge5_Node000001_Node000006"><a xlink:title=" ">
<path fill="none" stroke="#63b8ff" d="M132.22,-119.78C155.31,-115.45 181.19,-110.61 203.89,-106.35"/>
<polygon fill="#63b8ff" stroke="#63b8ff" points="204.55,-109.79 213.74,-104.51 203.27,-102.91 204.55,-109.79"/>
</a>
</g>
</g>
<!-- Node7 -->
<g id="Node000007" class="node">
<title>Node7</title>
<g id="a_Node000007"><a xlink:href="classweblog_1_1_log_data.html#ae083584fe82c6fefe25a9cbbff3bb9f8" target="_top" xlink:title="Get the log message.">
<polygon fill="white" stroke="#666666" points="347.5,-67.5 183.5,-67.5 183.5,-48.5 347.5,-48.5 347.5,-67.5"/>
<text text-anchor="middle" x="265.5" y="-55.5" font-family="Helvetica,sans-Serif" font-size="10.00">weblog::LogData::getMessage</text>
</a>
</g>
</g>
<!-- Node1&#45;&gt;Node7 -->
<g id="edge6_Node000001_Node000007" class="edge">
<title>Node1&#45;&gt;Node7</title>
<g id="a_edge6_Node000001_Node000007"><a xlink:title=" ">
<path fill="none" stroke="#63b8ff" d="M90.12,-116.75C110,-104.31 139.83,-87.17 168,-77 175.54,-74.28 183.55,-71.92 191.62,-69.87"/>
<polygon fill="#63b8ff" stroke="#63b8ff" points="192.53,-73.25 201.45,-67.54 190.91,-66.44 192.53,-73.25"/>
</a>
</g>
</g>
<!-- Node8 -->
<g id="Node000008" class="node">
<title>Node8</title>
<g id="a_Node000008"><a xlink:href="classweblog_1_1_log_data.html#a558c41ae966801658a1e67b8691f838e" target="_top" xlink:title="Convert the log level to a string.">
<polygon fill="white" stroke="#666666" points="335,-30 196,-30 196,0 335,0 335,-30"/>
<text text-anchor="start" x="204" y="-18" font-family="Helvetica,sans-Serif" font-size="10.00">weblog::LogData::levelTo</text>
<text text-anchor="middle" x="265.5" y="-7" font-family="Helvetica,sans-Serif" font-size="10.00">String</text>
</a>
</g>
</g>
<!-- Node1&#45;&gt;Node8 -->
<g id="edge7_Node000001_Node000008" class="edge">
<title>Node1&#45;&gt;Node8</title>
<g id="a_edge7_Node000001_Node000008"><a xlink:title=" ">
<path fill="none" stroke="#63b8ff" d="M79.37,-116.83C96.93,-96.31 131.08,-59.99 168,-40 173.83,-36.84 180.07,-34.07 186.48,-31.64"/>
<polygon fill="#63b8ff" stroke="#63b8ff" points="187.67,-34.93 195.95,-28.32 185.35,-28.33 187.67,-34.93"/>
</a>
</g>
</g>
</g>
</svg>
