<?xml version="1.0" encoding="UTF-8" standalone="no"?>
<!DOCTYPE svg PUBLIC "-//W3C//DTD SVG 1.1//EN"
 "http://www.w3.org/Graphics/SVG/1.1/DTD/svg11.dtd">
<!-- Generated by graphviz version 2.43.0 (0)
 -->
<!-- Title: Server::modifyEvent Pages: 1 -->
<!--zoomable 399 -->
<svg id="main" version="1.1" xmlns="http://www.w3.org/2000/svg" xmlns:xlink="http://www.w3.org/1999/xlink" xml:space="preserve" onload="init(evt)">
<style type="text/css"><![CDATA[
.edge:hover path { stroke: red; }
.edge:hover polygon { stroke: red; fill: red; }
]]></style>
<script type="text/javascript"><![CDATA[
var edges = document.getElementsByTagName('g');
if (edges && edges.length) {
  for (var i=0;i<edges.length;i++) {
    if (edges[i].id.substr(0,4)=='edge') {
      edges[i].setAttribute('class','edge');
    }
  }
}
]]></script>
        <defs>
                <circle id="rim" cx="0" cy="0" r="7"/>
                <circle id="rim2" cx="0" cy="0" r="3.5"/>
                <g id="zoomPlus">
                        <use xlink:href="#rim" fill="#404040">
                                <set attributeName="fill" to="#808080" begin="zoomplus.mouseover" end="zoomplus.mouseout"/>
                        </use>
                        <path d="M-4,0h8M0,-4v8" fill="none" stroke="white" stroke-width="1.5" pointer-events="none"/>
                </g>
                <g id="zoomMin">
                        <use xlink:href="#rim" fill="#404040">
                                <set attributeName="fill" to="#808080" begin="zoomminus.mouseover" end="zoomminus.mouseout"/>
                        </use>
                        <path d="M-4,0h8" fill="none" stroke="white" stroke-width="1.5" pointer-events="none"/>
                </g>
                <g id="dirArrow">
                        <path fill="none" stroke="white" stroke-width="1.5" d="M0,-3.0v7 M-2.5,-0.5L0,-3.0L2.5,-0.5"/>
                </g>
               <g id="resetDef">
                       <use xlink:href="#rim2" fill="#404040">
                               <set attributeName="fill" to="#808080" begin="reset.mouseover" end="reset.mouseout"/>
                       </use>
               </g>
        </defs>

<script type="text/javascript">
var viewWidth = 1278;
var viewHeight = 399;
var sectionId = 'dynsection-23';
</script>
<script xlink:href="svgpan.js"/>
<svg id="graph" class="graph">
<g id="viewport">
<title>Server::modifyEvent</title>
<!-- Node1 -->
<g id="node1" class="node">
<title>Node1</title>
<g id="a_node1"><a xlink:title="Wrapper function to EpollWrapper::modifyEvent.">
<polygon fill="#bfbfbf" stroke="black" points="1154,-190.5 1154,-209.5 1270,-209.5 1270,-190.5 1154,-190.5"/>
<text text-anchor="middle" x="1212" y="-197.5" font-family="Helvetica,sans-Serif" font-size="10.00">Server::modifyEvent</text>
</a>
</g>
</g>
<!-- Node2 -->
<g id="node2" class="node">
<title>Node2</title>
<g id="a_node2"><a xlink:href="_server_8hpp.html#a28fd29ec48bd9459c678980cfccca4cf" target="_top" xlink:title="Iterates through all connections and checks if any have timed out.">
<polygon fill="none" stroke="black" points="308,-323.5 308,-342.5 409,-342.5 409,-323.5 308,-323.5"/>
<text text-anchor="middle" x="358.5" y="-330.5" font-family="Helvetica,sans-Serif" font-size="10.00">checkForTimeout</text>
</a>
</g>
</g>
<!-- Node1&#45;&gt;Node2 -->
<g id="edge1" class="edge">
<title>Node1&#45;&gt;Node2</title>
<path fill="none" stroke="midnightblue" d="M1203.46,-218.92C1190.63,-248.52 1161.62,-305.36 1118,-334 1012.29,-403.43 965.47,-390 839,-390 839,-390 839,-390 656.5,-390 557.01,-390 442.07,-358.77 389.07,-342.54"/>
<polygon fill="midnightblue" stroke="midnightblue" points="1206.7,-220.25 1207.32,-209.67 1200.24,-217.55 1206.7,-220.25"/>
</g>
<!-- Node8 -->
<g id="node8" class="node">
<title>Node8</title>
<g id="a_node8"><a xlink:href="_server_8hpp.html#a3e07b970ffa58c9315b38673aff94f84" target="_top" xlink:title="Handles the reception of the request body from a client connection.">
<polygon fill="none" stroke="black" points="590.5,-342.5 590.5,-361.5 724.5,-361.5 724.5,-342.5 590.5,-342.5"/>
<text text-anchor="middle" x="657.5" y="-349.5" font-family="Helvetica,sans-Serif" font-size="10.00">connectionReceiveBody</text>
</a>
</g>
</g>
<!-- Node1&#45;&gt;Node8 -->
<g id="edge8" class="edge">
<title>Node1&#45;&gt;Node8</title>
<path fill="none" stroke="midnightblue" d="M1199.13,-218.14C1183.46,-240.4 1153.65,-277.35 1118,-295 989.77,-358.49 817.71,-361.25 724.77,-357.03"/>
<polygon fill="midnightblue" stroke="midnightblue" points="1202.21,-219.83 1204.95,-209.6 1196.42,-215.89 1202.21,-219.83"/>
</g>
<!-- Node11 -->
<g id="node11" class="node">
<title>Node11</title>
<g id="a_node11"><a xlink:href="_server_8hpp.html#a735bf6535f62b5907ea2d5f0e1abf3c7" target="_top" xlink:title="Handles receiving data from a CGI script and processes it accordingly.">
<polygon fill="none" stroke="black" points="956.5,-266.5 956.5,-285.5 1107.5,-285.5 1107.5,-266.5 956.5,-266.5"/>
<text text-anchor="middle" x="1032" y="-273.5" font-family="Helvetica,sans-Serif" font-size="10.00">connectionReceiveFromCGI</text>
</a>
</g>
</g>
<!-- Node1&#45;&gt;Node11 -->
<g id="edge13" class="edge">
<title>Node1&#45;&gt;Node11</title>
<path fill="none" stroke="midnightblue" d="M1178.99,-213.67C1143.32,-228.9 1086.56,-253.13 1055.36,-266.45"/>
<polygon fill="midnightblue" stroke="midnightblue" points="1180.63,-216.77 1188.46,-209.63 1177.89,-210.33 1180.63,-216.77"/>
</g>
<!-- Node13 -->
<g id="node13" class="node">
<title>Node13</title>
<g id="a_node13"><a xlink:href="_server_8hpp.html#aa45d6529fd7be9b7adf788a9679ae34b" target="_top" xlink:title="Receive request header from a client.">
<polygon fill="none" stroke="black" points="766,-76.5 766,-95.5 910,-95.5 910,-76.5 766,-76.5"/>
<text text-anchor="middle" x="838" y="-83.5" font-family="Helvetica,sans-Serif" font-size="10.00">connectionReceiveHeader</text>
</a>
</g>
</g>
<!-- Node1&#45;&gt;Node13 -->
<g id="edge16" class="edge">
<title>Node1&#45;&gt;Node13</title>
<path fill="none" stroke="midnightblue" d="M1199.48,-181.85C1184.03,-159.29 1154.29,-121.73 1118,-105 1052.31,-74.71 968.57,-73.24 910.05,-77.31"/>
<polygon fill="midnightblue" stroke="midnightblue" points="1196.59,-183.82 1205.04,-190.22 1202.43,-179.95 1196.59,-183.82"/>
</g>
<!-- Node15 -->
<g id="node15" class="node">
<title>Node15</title>
<g id="a_node15"><a xlink:href="_server_8hpp.html#a43e9e764c97aacfc12f233b33ffa3342" target="_top" xlink:title="Sends the response to a client connection.">
<polygon fill="none" stroke="black" points="961.5,-190.5 961.5,-209.5 1102.5,-209.5 1102.5,-190.5 961.5,-190.5"/>
<text text-anchor="middle" x="1032" y="-197.5" font-family="Helvetica,sans-Serif" font-size="10.00">connectionSendResponse</text>
</a>
</g>
</g>
<!-- Node1&#45;&gt;Node15 -->
<g id="edge19" class="edge">
<title>Node1&#45;&gt;Node15</title>
<path fill="none" stroke="midnightblue" d="M1143.61,-200C1130.21,-200 1116.12,-200 1102.65,-200"/>
<polygon fill="midnightblue" stroke="midnightblue" points="1143.7,-203.5 1153.7,-200 1143.7,-196.5 1143.7,-203.5"/>
</g>
<!-- Node19 -->
<g id="node19" class="node">
<title>Node19</title>
<g id="a_node19"><a xlink:href="_server_8hpp.html#aa67430205b6049aa70bad4682a7442b8" target="_top" xlink:title="Sends the request body to the CGI process.">
<polygon fill="none" stroke="black" points="971,-38.5 971,-57.5 1093,-57.5 1093,-38.5 971,-38.5"/>
<text text-anchor="middle" x="1032" y="-45.5" font-family="Helvetica,sans-Serif" font-size="10.00">connectionSendToCGI</text>
</a>
</g>
</g>
<!-- Node1&#45;&gt;Node19 -->
<g id="edge26" class="edge">
<title>Node1&#45;&gt;Node19</title>
<path fill="none" stroke="midnightblue" d="M1202.39,-181.12C1188.61,-153.04 1158.94,-100.54 1118,-72 1108.94,-65.69 1098.26,-61.03 1087.58,-57.59"/>
<polygon fill="midnightblue" stroke="midnightblue" points="1199.28,-182.74 1206.74,-190.27 1205.61,-179.73 1199.28,-182.74"/>
</g>
<!-- Node21 -->
<g id="node21" class="node">
<title>Node21</title>
<g id="a_node21"><a xlink:href="_server_8hpp.html#a83350eae81b96dd7b301d1238268ffdb" target="_top" xlink:title="Handles the complete request header received from a client.">
<polygon fill="none" stroke="black" points="946,-114.5 946,-133.5 1118,-133.5 1118,-114.5 946,-114.5"/>
<text text-anchor="middle" x="1032" y="-121.5" font-family="Helvetica,sans-Serif" font-size="10.00">handleCompleteRequestHeader</text>
</a>
</g>
</g>
<!-- Node1&#45;&gt;Node21 -->
<g id="edge29" class="edge">
<title>Node1&#45;&gt;Node21</title>
<path fill="none" stroke="midnightblue" d="M1178.99,-186.33C1143.32,-171.1 1086.56,-146.87 1055.36,-133.55"/>
<polygon fill="midnightblue" stroke="midnightblue" points="1177.89,-189.67 1188.46,-190.37 1180.63,-183.23 1177.89,-189.67"/>
</g>
<!-- Node3 -->
<g id="node3" class="node">
<title>Node3</title>
<g id="a_node3"><a xlink:href="_server_8hpp.html#ab66b27c2186daacb15a6b13dd43be31b" target="_top" xlink:title="Runs the main event loop with a server object.">
<polygon fill="none" stroke="black" points="77,-247.5 77,-266.5 141,-266.5 141,-247.5 77,-247.5"/>
<text text-anchor="middle" x="109" y="-254.5" font-family="Helvetica,sans-Serif" font-size="10.00">runServer</text>
</a>
</g>
</g>
<!-- Node2&#45;&gt;Node3 -->
<g id="edge2" class="edge">
<title>Node2&#45;&gt;Node3</title>
<path fill="none" stroke="midnightblue" d="M297.41,-325.11C261.66,-319.26 215.85,-309.7 177,-295 166.68,-291.1 141.83,-276.44 125.47,-266.51"/>
<polygon fill="midnightblue" stroke="midnightblue" points="297.26,-328.63 307.69,-326.74 298.36,-321.72 297.26,-328.63"/>
</g>
<!-- Node5 -->
<g id="node5" class="node">
<title>Node5</title>
<g id="a_node5"><a xlink:href="_server_8hpp.html#a115ecd76e344c1007bedc48b9bbdc0fa" target="_top" xlink:title="Performs a graceful shutdown of the server.">
<polygon fill="none" stroke="black" points="177,-266.5 177,-285.5 272,-285.5 272,-266.5 177,-266.5"/>
<text text-anchor="middle" x="224.5" y="-273.5" font-family="Helvetica,sans-Serif" font-size="10.00">shutdownServer</text>
</a>
</g>
</g>
<!-- Node2&#45;&gt;Node5 -->
<g id="edge4" class="edge">
<title>Node2&#45;&gt;Node5</title>
<path fill="none" stroke="midnightblue" d="M325.96,-319.38C301.81,-308.95 269.11,-294.83 247.67,-285.57"/>
<polygon fill="midnightblue" stroke="midnightblue" points="324.84,-322.71 335.41,-323.46 327.61,-316.28 324.84,-322.71"/>
</g>
<!-- Node7 -->
<g id="node7" class="node">
<title>Node7</title>
<g id="a_node7"><a xlink:href="test__check_for_timeout_8cpp.html#aa104b7ee8b0b5c5b33b6409f6450eeb6" target="_top" xlink:title=" ">
<polygon fill="none" stroke="black" points="198.5,-342.5 198.5,-361.5 250.5,-361.5 250.5,-342.5 198.5,-342.5"/>
<text text-anchor="middle" x="224.5" y="-349.5" font-family="Helvetica,sans-Serif" font-size="10.00">TEST_F</text>
</a>
</g>
</g>
<!-- Node2&#45;&gt;Node7 -->
<g id="edge7" class="edge">
<title>Node2&#45;&gt;Node7</title>
<path fill="none" stroke="midnightblue" d="M297.8,-341.59C281.28,-343.97 264.23,-346.42 250.84,-348.35"/>
<polygon fill="midnightblue" stroke="midnightblue" points="298.57,-345.02 307.97,-340.13 297.58,-338.09 298.57,-345.02"/>
</g>
<!-- Node4 -->
<g id="node4" class="node">
<title>Node4</title>
<g id="a_node4"><a xlink:href="main_8cpp.html#a3c04138a5bfe5d72780bb7e82a18e627" target="_top" xlink:title=" ">
<polygon fill="none" stroke="black" points="0,-247.5 0,-266.5 41,-266.5 41,-247.5 0,-247.5"/>
<text text-anchor="middle" x="20.5" y="-254.5" font-family="Helvetica,sans-Serif" font-size="10.00">main</text>
</a>
</g>
</g>
<!-- Node3&#45;&gt;Node4 -->
<g id="edge3" class="edge">
<title>Node3&#45;&gt;Node4</title>
<path fill="none" stroke="midnightblue" d="M66.5,-257C57.64,-257 48.68,-257 41.11,-257"/>
<polygon fill="midnightblue" stroke="midnightblue" points="66.77,-260.5 76.77,-257 66.77,-253.5 66.77,-260.5"/>
</g>
<!-- Node5&#45;&gt;Node3 -->
<g id="edge5" class="edge">
<title>Node5&#45;&gt;Node3</title>
<path fill="none" stroke="midnightblue" d="M166.77,-266.5C157.95,-265.03 149.14,-263.55 141.17,-262.22"/>
<polygon fill="midnightblue" stroke="midnightblue" points="166.24,-269.96 176.68,-268.16 167.4,-263.06 166.24,-269.96"/>
</g>
<!-- Node6 -->
<g id="node6" class="node">
<title>Node6</title>
<g id="a_node6"><a xlink:href="test__shutdown_server_8cpp.html#ae0ede4f52ef6c742c532c14b92b6179a" target="_top" xlink:title=" ">
<polygon fill="none" stroke="black" points="83,-285.5 83,-304.5 135,-304.5 135,-285.5 83,-285.5"/>
<text text-anchor="middle" x="109" y="-292.5" font-family="Helvetica,sans-Serif" font-size="10.00">TEST_F</text>
</a>
</g>
</g>
<!-- Node5&#45;&gt;Node6 -->
<g id="edge6" class="edge">
<title>Node5&#45;&gt;Node6</title>
<path fill="none" stroke="midnightblue" d="M166.63,-285.52C155.63,-287.36 144.64,-289.2 135.3,-290.76"/>
<polygon fill="midnightblue" stroke="midnightblue" points="167.4,-288.94 176.68,-283.84 166.24,-282.04 167.4,-288.94"/>
</g>
<!-- Node9 -->
<g id="node9" class="node">
<title>Node9</title>
<g id="a_node9"><a xlink:href="_server_8hpp.html#a54490f09266c8a5fed4d91166df9a6b3" target="_top" xlink:title="Handle a client connection.">
<polygon fill="none" stroke="black" points="445,-209.5 445,-228.5 549,-228.5 549,-209.5 445,-209.5"/>
<text text-anchor="middle" x="497" y="-216.5" font-family="Helvetica,sans-Serif" font-size="10.00">handleConnection</text>
</a>
</g>
</g>
<!-- Node8&#45;&gt;Node9 -->
<g id="edge9" class="edge">
<title>Node8&#45;&gt;Node9</title>
<path fill="none" stroke="midnightblue" d="M605.16,-338.81C598.07,-335.85 591.12,-332.28 585,-328 545.52,-300.38 514.85,-249.83 503.15,-228.7"/>
<polygon fill="midnightblue" stroke="midnightblue" points="604.28,-342.21 614.87,-342.47 606.75,-335.66 604.28,-342.21"/>
</g>
<!-- Node10 -->
<g id="node10" class="node">
<title>Node10</title>
<g id="a_node10"><a xlink:href="_server_8hpp.html#a4211c4d6b958979b39b3dfc8148c801a" target="_top" xlink:title="Accepts new connections or handles existing ones.">
<polygon fill="none" stroke="black" points="320,-228.5 320,-247.5 397,-247.5 397,-228.5 320,-228.5"/>
<text text-anchor="middle" x="358.5" y="-235.5" font-family="Helvetica,sans-Serif" font-size="10.00">handleEvent</text>
</a>
</g>
</g>
<!-- Node9&#45;&gt;Node10 -->
<g id="edge10" class="edge">
<title>Node9&#45;&gt;Node10</title>
<path fill="none" stroke="midnightblue" d="M434.69,-227.53C421.97,-229.3 408.93,-231.12 397.35,-232.73"/>
<polygon fill="midnightblue" stroke="midnightblue" points="435.36,-230.97 444.78,-226.13 434.4,-224.04 435.36,-230.97"/>
</g>
<!-- Node10&#45;&gt;Node3 -->
<g id="edge11" class="edge">
<title>Node10&#45;&gt;Node3</title>
<path fill="none" stroke="midnightblue" d="M309.74,-241.67C260.06,-245.48 183.74,-251.34 141.27,-254.6"/>
<polygon fill="midnightblue" stroke="midnightblue" points="310.21,-245.14 319.91,-240.89 309.67,-238.16 310.21,-245.14"/>
</g>
<!-- Node10&#45;&gt;Node5 -->
<g id="edge12" class="edge">
<title>Node10&#45;&gt;Node5</title>
<path fill="none" stroke="midnightblue" d="M314.46,-250.39C296.38,-255.59 275.68,-261.55 258.8,-266.41"/>
<polygon fill="midnightblue" stroke="midnightblue" points="315.55,-253.72 324.19,-247.59 313.61,-246.99 315.55,-253.72"/>
</g>
<!-- Node11&#45;&gt;Node9 -->
<g id="edge14" class="edge">
<title>Node11&#45;&gt;Node9</title>
<path fill="none" stroke="midnightblue" d="M971.75,-287.19C952.17,-290.38 930.22,-293.42 910,-295 846.19,-299.98 829.39,-303.81 766,-295 674.27,-282.24 569.81,-246.04 523,-228.61"/>
<polygon fill="midnightblue" stroke="midnightblue" points="972.47,-290.62 981.75,-285.51 971.31,-283.71 972.47,-290.62"/>
</g>
<!-- Node12 -->
<g id="node12" class="node">
<title>Node12</title>
<g id="a_node12"><a xlink:href="test__connection_receive_from_c_g_i_8cpp.html#acd248002a168209089438d39017ca034" target="_top" xlink:title=" ">
<polygon fill="none" stroke="black" points="812,-266.5 812,-285.5 864,-285.5 864,-266.5 812,-266.5"/>
<text text-anchor="middle" x="838" y="-273.5" font-family="Helvetica,sans-Serif" font-size="10.00">TEST_F</text>
</a>
</g>
</g>
<!-- Node11&#45;&gt;Node12 -->
<g id="edge15" class="edge">
<title>Node11&#45;&gt;Node12</title>
<path fill="none" stroke="midnightblue" d="M946.45,-276C916.6,-276 885.25,-276 864.18,-276"/>
<polygon fill="midnightblue" stroke="midnightblue" points="946.49,-279.5 956.49,-276 946.49,-272.5 946.49,-279.5"/>
</g>
<!-- Node13&#45;&gt;Node9 -->
<g id="edge17" class="edge">
<title>Node13&#45;&gt;Node9</title>
<path fill="none" stroke="midnightblue" d="M757.03,-75.84C704.99,-72.98 637.33,-76.61 585,-105 540.58,-129.1 511.9,-186.66 501.93,-209.46"/>
<polygon fill="midnightblue" stroke="midnightblue" points="757.01,-79.34 767.22,-76.49 757.46,-72.36 757.01,-79.34"/>
</g>
<!-- Node14 -->
<g id="node14" class="node">
<title>Node14</title>
<g id="a_node14"><a xlink:href="test__connection_receive_header_8cpp.html#ae40546436ca5ae6d8af1f754dfff4a98" target="_top" xlink:title=" ">
<polygon fill="none" stroke="black" points="631.5,-114.5 631.5,-133.5 683.5,-133.5 683.5,-114.5 631.5,-114.5"/>
<text text-anchor="middle" x="657.5" y="-121.5" font-family="Helvetica,sans-Serif" font-size="10.00">TEST_F</text>
</a>
</g>
</g>
<!-- Node13&#45;&gt;Node14 -->
<g id="edge18" class="edge">
<title>Node13&#45;&gt;Node14</title>
<path fill="none" stroke="midnightblue" d="M782.03,-97.7C749.21,-104.69 709.1,-113.23 683.67,-118.64"/>
<polygon fill="midnightblue" stroke="midnightblue" points="782.9,-101.09 791.96,-95.59 781.45,-94.25 782.9,-101.09"/>
</g>
<!-- Node15&#45;&gt;Node9 -->
<g id="edge24" class="edge">
<title>Node15&#45;&gt;Node9</title>
<path fill="none" stroke="midnightblue" d="M973.8,-188.65C888.22,-173.67 722.23,-152.34 585,-181 559.02,-186.43 531.31,-200.06 514.32,-209.43"/>
<polygon fill="midnightblue" stroke="midnightblue" points="973.37,-192.13 983.83,-190.44 974.6,-185.24 973.37,-192.13"/>
</g>
<!-- Node16 -->
<g id="node16" class="node">
<title>Node16</title>
<g id="a_node16"><a xlink:href="_server_8hpp.html#a9b6964fe44b1605c00c0f211a7f42896" target="_top" xlink:title="Builds the response for a client connection.">
<polygon fill="none" stroke="black" points="767,-190.5 767,-209.5 909,-209.5 909,-190.5 767,-190.5"/>
<text text-anchor="middle" x="838" y="-197.5" font-family="Helvetica,sans-Serif" font-size="10.00">connectionBuildResponse</text>
</a>
</g>
</g>
<!-- Node15&#45;&gt;Node16 -->
<g id="edge20" class="edge">
<title>Node15&#45;&gt;Node16</title>
<path fill="none" stroke="midnightblue" d="M951.36,-200C937.41,-200 922.99,-200 909.32,-200"/>
<polygon fill="midnightblue" stroke="midnightblue" points="951.41,-203.5 961.41,-200 951.41,-196.5 951.41,-203.5"/>
</g>
<!-- Node18 -->
<g id="node18" class="node">
<title>Node18</title>
<g id="a_node18"><a xlink:href="test__connection_send_response_8cpp.html#a21c07341abaaa0409856bcd3c99f91d8" target="_top" xlink:title=" ">
<polygon fill="none" stroke="black" points="812,-228.5 812,-247.5 864,-247.5 864,-228.5 812,-228.5"/>
<text text-anchor="middle" x="838" y="-235.5" font-family="Helvetica,sans-Serif" font-size="10.00">TEST_F</text>
</a>
</g>
</g>
<!-- Node15&#45;&gt;Node18 -->
<g id="edge25" class="edge">
<title>Node15&#45;&gt;Node18</title>
<path fill="none" stroke="midnightblue" d="M972.57,-211.56C936.33,-218.74 891.59,-227.59 864.19,-233.01"/>
<polygon fill="midnightblue" stroke="midnightblue" points="973.42,-214.96 982.55,-209.59 972.06,-208.1 973.42,-214.96"/>
</g>
<!-- Node16&#45;&gt;Node9 -->
<g id="edge23" class="edge">
<title>Node16&#45;&gt;Node9</title>
<path fill="none" stroke="midnightblue" d="M783.22,-211.45C766.28,-214.55 747.43,-217.46 730,-219 668.01,-224.46 596.34,-223.33 549.26,-221.58"/>
<polygon fill="midnightblue" stroke="midnightblue" points="784.32,-214.81 793.5,-209.51 783.03,-207.93 784.32,-214.81"/>
</g>
<!-- Node17 -->
<g id="node17" class="node">
<title>Node17</title>
<g id="a_node17"><a xlink:href="_server_8hpp.html#ad132a77471376bd48681070a795df914" target="_top" xlink:title="Handles a timeout for a client connection.">
<polygon fill="none" stroke="black" points="585,-190.5 585,-209.5 730,-209.5 730,-190.5 585,-190.5"/>
<text text-anchor="middle" x="657.5" y="-197.5" font-family="Helvetica,sans-Serif" font-size="10.00">connectionHandleTimeout</text>
</a>
</g>
</g>
<!-- Node16&#45;&gt;Node17 -->
<g id="edge21" class="edge">
<title>Node16&#45;&gt;Node17</title>
<path fill="none" stroke="midnightblue" d="M756.94,-200C747.99,-200 738.92,-200 730.09,-200"/>
<polygon fill="midnightblue" stroke="midnightblue" points="756.96,-203.5 766.96,-200 756.96,-196.5 756.96,-203.5"/>
</g>
<!-- Node17&#45;&gt;Node9 -->
<g id="edge22" class="edge">
<title>Node17&#45;&gt;Node9</title>
<path fill="none" stroke="midnightblue" d="M574.55,-209.82C565.93,-210.86 557.34,-211.89 549.21,-212.86"/>
<polygon fill="midnightblue" stroke="midnightblue" points="575.16,-213.28 584.67,-208.61 574.32,-206.33 575.16,-213.28"/>
</g>
<!-- Node19&#45;&gt;Node9 -->
<g id="edge27" class="edge">
<title>Node19&#45;&gt;Node9</title>
<path fill="none" stroke="midnightblue" d="M960.45,-43.7C850.92,-38.33 646.16,-33.88 585,-71 531.75,-103.32 507.46,-181.51 500.34,-209.13"/>
<polygon fill="midnightblue" stroke="midnightblue" points="960.58,-47.21 970.75,-44.22 960.94,-40.22 960.58,-47.21"/>
</g>
<!-- Node20 -->
<g id="node20" class="node">
<title>Node20</title>
<g id="a_node20"><a xlink:href="test__connection_send_to_c_g_i_8cpp.html#a71e710d9b5f2f4a568086e70def06ccc" target="_top" xlink:title=" ">
<polygon fill="none" stroke="black" points="812,-0.5 812,-19.5 864,-19.5 864,-0.5 812,-0.5"/>
<text text-anchor="middle" x="838" y="-7.5" font-family="Helvetica,sans-Serif" font-size="10.00">TEST_F</text>
</a>
</g>
</g>
<!-- Node19&#45;&gt;Node20 -->
<g id="edge28" class="edge">
<title>Node19&#45;&gt;Node20</title>
<path fill="none" stroke="midnightblue" d="M972.57,-36.44C936.33,-29.26 891.59,-20.41 864.19,-14.99"/>
<polygon fill="midnightblue" stroke="midnightblue" points="972.06,-39.9 982.55,-38.41 973.42,-33.04 972.06,-39.9"/>
</g>
<!-- Node21&#45;&gt;Node13 -->
<g id="edge30" class="edge">
<title>Node21&#45;&gt;Node13</title>
<path fill="none" stroke="midnightblue" d="M972.7,-112.46C945.32,-107.04 913.07,-100.66 887.1,-95.52"/>
<polygon fill="midnightblue" stroke="midnightblue" points="972.06,-115.9 982.55,-114.41 973.42,-109.04 972.06,-115.9"/>
</g>
<!-- Node22 -->
<g id="node22" class="node">
<title>Node22</title>
<g id="a_node22"><a xlink:href="test__handle_complete_request_header_8cpp.html#a00d3c07453ceb8ca6576a951222a7829" target="_top" xlink:title=" ">
<polygon fill="none" stroke="black" points="812,-114.5 812,-133.5 864,-133.5 864,-114.5 812,-114.5"/>
<text text-anchor="middle" x="838" y="-121.5" font-family="Helvetica,sans-Serif" font-size="10.00">TEST_F</text>
</a>
</g>
</g>
<!-- Node21&#45;&gt;Node22 -->
<g id="edge31" class="edge">
<title>Node21&#45;&gt;Node22</title>
<path fill="none" stroke="midnightblue" d="M935.82,-124C909.34,-124 882.78,-124 864.19,-124"/>
<polygon fill="midnightblue" stroke="midnightblue" points="935.95,-127.5 945.95,-124 935.95,-120.5 935.95,-127.5"/>
</g>
</g>
</svg>
        <g id="navigator" transform="translate(0 0)" fill="#404254">
                <rect fill="#f2f5e9" fill-opacity="0.5" stroke="#606060" stroke-width=".5" x="0" y="0" width="60" height="60"/>
                <use id="zoomplus" xlink:href="#zoomPlus" x="17" y="9" onmousedown="handleZoom(evt,'in')"/>
                <use id="zoomminus" xlink:href="#zoomMin" x="42" y="9" onmousedown="handleZoom(evt,'out')"/>
                <use id="reset" xlink:href="#resetDef" x="30" y="36" onmousedown="handleReset()"/>
                <g id="arrowUp" xlink:href="#dirArrow" transform="translate(30 24)" onmousedown="handlePan(0,-1)">
                  <use xlink:href="#rim" fill="#404040">
                        <set attributeName="fill" to="#808080" begin="arrowUp.mouseover" end="arrowUp.mouseout"/>
                  </use>
                  <path fill="none" stroke="white" stroke-width="1.5" d="M0,-3.0v7 M-2.5,-0.5L0,-3.0L2.5,-0.5"/>
                </g>
                <g id="arrowRight" xlink:href="#dirArrow" transform="rotate(90) translate(36 -43)" onmousedown="handlePan(1,0)">
                  <use xlink:href="#rim" fill="#404040">
                        <set attributeName="fill" to="#808080" begin="arrowRight.mouseover" end="arrowRight.mouseout"/>
                  </use>
                  <path fill="none" stroke="white" stroke-width="1.5" d="M0,-3.0v7 M-2.5,-0.5L0,-3.0L2.5,-0.5"/>
                </g>
                <g id="arrowDown" xlink:href="#dirArrow" transform="rotate(180) translate(-30 -48)" onmousedown="handlePan(0,1)">
                  <use xlink:href="#rim" fill="#404040">
                        <set attributeName="fill" to="#808080" begin="arrowDown.mouseover" end="arrowDown.mouseout"/>
                  </use>
                  <path fill="none" stroke="white" stroke-width="1.5" d="M0,-3.0v7 M-2.5,-0.5L0,-3.0L2.5,-0.5"/>
                </g>
                <g id="arrowLeft" xlink:href="#dirArrow" transform="rotate(270) translate(-36 17)" onmousedown="handlePan(-1,0)">
                  <use xlink:href="#rim" fill="#404040">
                        <set attributeName="fill" to="#808080" begin="arrowLeft.mouseover" end="arrowLeft.mouseout"/>
                  </use>
                  <path fill="none" stroke="white" stroke-width="1.5" d="M0,-3.0v7 M-2.5,-0.5L0,-3.0L2.5,-0.5"/>
                </g>
        </g>
        <svg viewBox="0 0 15 15" width="100%" height="30px" preserveAspectRatio="xMaxYMin meet">
         <g id="arrow_out" transform="scale(0.3 0.3)">
          <a xlink:href="class_server_afab1a4ec9e524b0dae8f60080642e7fe_icgraph_org.svg" target="_base">
           <rect id="button" ry="5" rx="5" y="6" x="6" height="38" width="38"
                fill="#f2f5e9" fill-opacity="0.5" stroke="#606060" stroke-width="1.0"/>
           <path id="arrow"
             d="M 11.500037,31.436501 C 11.940474,20.09759 22.043105,11.32322 32.158766,21.979434 L 37.068811,17.246167 C 37.068811,17.246167 37.088388,32 37.088388,32 L 22.160133,31.978069 C 22.160133,31.978069 26.997745,27.140456 26.997745,27.140456 C 18.528582,18.264221 13.291696,25.230495 11.500037,31.436501 z"
             style="fill:#404040;"/>
          </a>
         </g>
        </svg>
</svg>
