<?xml version="1.0" encoding="UTF-8" standalone="no"?>
<!DOCTYPE svg PUBLIC "-//W3C//DTD SVG 1.1//EN"
 "http://www.w3.org/Graphics/SVG/1.1/DTD/svg11.dtd">
<!-- Generated by graphviz version 2.43.0 (0)
 -->
<!-- Title: Server::registerCGIFileDescriptor Pages: 1 -->
<svg width="354pt" height="64pt"
 viewBox="0.00 0.00 354.00 64.00" xmlns="http://www.w3.org/2000/svg" xmlns:xlink="http://www.w3.org/1999/xlink">
<g id="graph0" class="graph" transform="scale(1 1) rotate(0) translate(4 60)">
<title>Server::registerCGIFileDescriptor</title>
<!-- Node1 -->
<g id="Node000001" class="node">
<title>Node1</title>
<g id="a_Node000001"><a xlink:title="Register a CGI file descriptor.">
<polygon fill="#999999" stroke="#666666" points="176,-37 0,-37 0,-18 176,-18 176,-37"/>
<text text-anchor="middle" x="88" y="-25" font-family="Helvetica,sans-Serif" font-size="10.00">Server::registerCGIFileDescriptor</text>
</a>
</g>
</g>
<!-- Node2 -->
<g id="Node000002" class="node">
<title>Node2</title>
<g id="a_Node000002"><a xlink:href="class_epoll_wrapper.html#ace2a6009a6c647babfc667c27df05354" target="_top" xlink:title="Add an event to the epoll instance.">
<polygon fill="white" stroke="#666666" points="346,-56 212,-56 212,-37 346,-37 346,-56"/>
<text text-anchor="middle" x="279" y="-44" font-family="Helvetica,sans-Serif" font-size="10.00">EpollWrapper::addEvent</text>
</a>
</g>
</g>
<!-- Node1&#45;&gt;Node2 -->
<g id="edge1_Node000001_Node000002" class="edge">
<title>Node1&#45;&gt;Node2</title>
<g id="a_edge1_Node000001_Node000002"><a xlink:title=" ">
<path fill="none" stroke="#63b8ff" d="M176.03,-36.25C184.57,-37.11 193.2,-37.97 201.62,-38.82"/>
<polygon fill="#63b8ff" stroke="#63b8ff" points="201.47,-42.32 211.77,-39.84 202.17,-35.36 201.47,-42.32"/>
</a>
</g>
</g>
<!-- Node3 -->
<g id="Node000003" class="node">
<title>Node3</title>
<g id="a_Node000003"><a xlink:href="namespacewebutils.html#ad74875f464c74bd45589002fc385605e" target="_top" xlink:title=" ">
<polygon fill="white" stroke="#666666" points="329.5,-19 228.5,-19 228.5,0 329.5,0 329.5,-19"/>
<text text-anchor="middle" x="279" y="-7" font-family="Helvetica,sans-Serif" font-size="10.00">webutils::closeFd</text>
</a>
</g>
</g>
<!-- Node1&#45;&gt;Node3 -->
<g id="edge2_Node000001_Node000003" class="edge">
<title>Node1&#45;&gt;Node3</title>
<g id="a_edge2_Node000001_Node000003"><a xlink:title=" ">
<path fill="none" stroke="#63b8ff" d="M176.03,-19.21C190.31,-17.85 204.83,-16.47 218.25,-15.19"/>
<polygon fill="#63b8ff" stroke="#63b8ff" points="218.66,-18.67 228.28,-14.24 218,-11.7 218.66,-18.67"/>
</a>
</g>
</g>
</g>
</svg>
