<?xml version="1.0" encoding="UTF-8" standalone="no"?>
<!DOCTYPE svg PUBLIC "-//W3C//DTD SVG 1.1//EN"
 "http://www.w3.org/Graphics/SVG/1.1/DTD/svg11.dtd">
<!-- Generated by graphviz version 2.43.0 (0)
 -->
<!-- Title: Server::eventsBegin Pages: 1 -->
<svg width="431pt" height="66pt"
 viewBox="0.00 0.00 431.00 66.00" xmlns="http://www.w3.org/2000/svg" xmlns:xlink="http://www.w3.org/1999/xlink">
<g id="graph0" class="graph" transform="scale(1 1) rotate(0) translate(4 62)">
<title>Server::eventsBegin</title>
<!-- Node1 -->
<g id="node1" class="node">
<title>Node1</title>
<g id="a_node1"><a xlink:title="Wrapper function to EpollWrapper::eventsBegin.">
<polygon fill="#bfbfbf" stroke="black" points="308,-19.5 308,-38.5 423,-38.5 423,-19.5 308,-19.5"/>
<text text-anchor="middle" x="365.5" y="-26.5" font-family="Helvetica,sans-Serif" font-size="10.00">Server::eventsBegin</text>
</a>
</g>
</g>
<!-- Node2 -->
<g id="node2" class="node">
<title>Node2</title>
<g id="a_node2"><a xlink:href="_server_8hpp.html#ab66b27c2186daacb15a6b13dd43be31b" target="_top" xlink:title="Runs the main event loop with a server object.">
<polygon fill="none" stroke="black" points="77,-38.5 77,-57.5 141,-57.5 141,-38.5 77,-38.5"/>
<text text-anchor="middle" x="109" y="-45.5" font-family="Helvetica,sans-Serif" font-size="10.00">runServer</text>
</a>
</g>
</g>
<!-- Node1&#45;&gt;Node2 -->
<g id="edge1" class="edge">
<title>Node1&#45;&gt;Node2</title>
<path fill="none" stroke="midnightblue" d="M297.49,-34C246.9,-37.78 179.78,-42.79 141.1,-45.68"/>
<polygon fill="midnightblue" stroke="midnightblue" points="297.99,-37.48 307.7,-33.24 297.47,-30.49 297.99,-37.48"/>
</g>
<!-- Node4 -->
<g id="node4" class="node">
<title>Node4</title>
<g id="a_node4"><a xlink:href="_server_8hpp.html#a115ecd76e344c1007bedc48b9bbdc0fa" target="_top" xlink:title="Performs a graceful shutdown of the server.">
<polygon fill="none" stroke="black" points="177,-0.5 177,-19.5 272,-19.5 272,-0.5 177,-0.5"/>
<text text-anchor="middle" x="224.5" y="-7.5" font-family="Helvetica,sans-Serif" font-size="10.00">shutdownServer</text>
</a>
</g>
</g>
<!-- Node1&#45;&gt;Node4 -->
<g id="edge3" class="edge">
<title>Node1&#45;&gt;Node4</title>
<path fill="none" stroke="midnightblue" d="M297.85,-19.89C289.19,-18.71 280.46,-17.51 272.22,-16.39"/>
<polygon fill="midnightblue" stroke="midnightblue" points="297.58,-23.39 307.96,-21.27 298.53,-16.45 297.58,-23.39"/>
</g>
<!-- Node3 -->
<g id="node3" class="node">
<title>Node3</title>
<g id="a_node3"><a xlink:href="main_8cpp.html#a3c04138a5bfe5d72780bb7e82a18e627" target="_top" xlink:title=" ">
<polygon fill="none" stroke="black" points="0,-38.5 0,-57.5 41,-57.5 41,-38.5 0,-38.5"/>
<text text-anchor="middle" x="20.5" y="-45.5" font-family="Helvetica,sans-Serif" font-size="10.00">main</text>
</a>
</g>
</g>
<!-- Node2&#45;&gt;Node3 -->
<g id="edge2" class="edge">
<title>Node2&#45;&gt;Node3</title>
<path fill="none" stroke="midnightblue" d="M66.5,-48C57.64,-48 48.68,-48 41.11,-48"/>
<polygon fill="midnightblue" stroke="midnightblue" points="66.77,-51.5 76.77,-48 66.77,-44.5 66.77,-51.5"/>
</g>
<!-- Node4&#45;&gt;Node2 -->
<g id="edge4" class="edge">
<title>Node4&#45;&gt;Node2</title>
<path fill="none" stroke="midnightblue" d="M185.19,-22.83C169.96,-27.92 152.74,-33.69 138.63,-38.41"/>
<polygon fill="midnightblue" stroke="midnightblue" points="186.49,-26.08 194.86,-19.59 184.27,-19.44 186.49,-26.08"/>
</g>
<!-- Node5 -->
<g id="node5" class="node">
<title>Node5</title>
<g id="a_node5"><a xlink:href="test__shutdown_server_8cpp.html#ac2c8b4566d61e62572e54d61350a3db2" target="_top" xlink:title=" ">
<polygon fill="none" stroke="black" points="83,-0.5 83,-19.5 135,-19.5 135,-0.5 83,-0.5"/>
<text text-anchor="middle" x="109" y="-7.5" font-family="Helvetica,sans-Serif" font-size="10.00">TEST_F</text>
</a>
</g>
</g>
<!-- Node4&#45;&gt;Node5 -->
<g id="edge5" class="edge">
<title>Node4&#45;&gt;Node5</title>
<path fill="none" stroke="midnightblue" d="M166.63,-10C155.63,-10 144.64,-10 135.3,-10"/>
<polygon fill="midnightblue" stroke="midnightblue" points="166.68,-13.5 176.68,-10 166.68,-6.5 166.68,-13.5"/>
</g>
</g>
</svg>
