<?xml version="1.0" encoding="UTF-8" standalone="no"?>
<!DOCTYPE svg PUBLIC "-//W3C//DTD SVG 1.1//EN"
 "http://www.w3.org/Graphics/SVG/1.1/DTD/svg11.dtd">
<!-- Generated by graphviz version 2.43.0 (0)
 -->
<!-- Title: weblog::Logger::setLevel Pages: 1 -->
<svg width="521pt" height="64pt"
 viewBox="0.00 0.00 521.00 64.00" xmlns="http://www.w3.org/2000/svg" xmlns:xlink="http://www.w3.org/1999/xlink">
<g id="graph0" class="graph" transform="scale(1 1) rotate(0) translate(4 60)">
<title>weblog::Logger::setLevel</title>
<!-- Node1 -->
<g id="Node000001" class="node">
<title>Node1</title>
<g id="a_Node000001"><a xlink:title="Set the log level of the Logger object.">
<polygon fill="#999999" stroke="#666666" points="513,-37 375,-37 375,-18 513,-18 513,-37"/>
<text text-anchor="middle" x="444" y="-25" font-family="Helvetica,sans-Serif" font-size="10.00">weblog::Logger::setLevel</text>
</a>
</g>
</g>
<!-- Node2 -->
<g id="Node000002" class="node">
<title>Node2</title>
<g id="a_Node000002"><a xlink:href="classweblog_1_1_logger.html#a81b70a098987f205c6e3cb60a7f04536" target="_top" xlink:title="Initialize the Logger object with a log level and an outputter.">
<polygon fill="white" stroke="#666666" points="339,-37 226,-37 226,-18 339,-18 339,-37"/>
<text text-anchor="middle" x="282.5" y="-25" font-family="Helvetica,sans-Serif" font-size="10.00">weblog::Logger::init</text>
</a>
</g>
</g>
<!-- Node1&#45;&gt;Node2 -->
<g id="edge1_Node000001_Node000002" class="edge">
<title>Node1&#45;&gt;Node2</title>
<g id="a_edge1_Node000001_Node000002"><a xlink:title=" ">
<path fill="none" stroke="#63b8ff" d="M364.83,-27.5C356.23,-27.5 347.61,-27.5 339.36,-27.5"/>
<polygon fill="#63b8ff" stroke="#63b8ff" points="364.9,-31 374.89,-27.5 364.89,-24 364.9,-31"/>
</a>
</g>
</g>
<!-- Node3 -->
<g id="Node000003" class="node">
<title>Node3</title>
<g id="a_Node000003"><a xlink:href="namespaceweblog.html#a23e11f7efdebde689d1fa3b697e3ff4a" target="_top" xlink:title="Initialize the Logger object with a log level and a console outputter.">
<polygon fill="white" stroke="#666666" points="190,-56 77,-56 77,-37 190,-37 190,-56"/>
<text text-anchor="middle" x="133.5" y="-44" font-family="Helvetica,sans-Serif" font-size="10.00">weblog::initConsole</text>
</a>
</g>
</g>
<!-- Node2&#45;&gt;Node3 -->
<g id="edge2_Node000002_Node000003" class="edge">
<title>Node2&#45;&gt;Node3</title>
<g id="a_edge2_Node000002_Node000003"><a xlink:title=" ">
<path fill="none" stroke="#63b8ff" d="M215.92,-35.98C207.32,-37.09 198.57,-38.22 190.15,-39.31"/>
<polygon fill="#63b8ff" stroke="#63b8ff" points="216.46,-39.44 225.93,-34.68 215.56,-32.49 216.46,-39.44"/>
</a>
</g>
</g>
<!-- Node5 -->
<g id="Node000005" class="node">
<title>Node5</title>
<g id="a_Node000005"><a xlink:href="namespaceweblog.html#ac346e51accb760668965fa2d12248fe2" target="_top" xlink:title="Initialize the Logger object with a log level and a file outputter.">
<polygon fill="white" stroke="#666666" points="179,-19 88,-19 88,0 179,0 179,-19"/>
<text text-anchor="middle" x="133.5" y="-7" font-family="Helvetica,sans-Serif" font-size="10.00">weblog::initFile</text>
</a>
</g>
</g>
<!-- Node2&#45;&gt;Node5 -->
<g id="edge4_Node000002_Node000005" class="edge">
<title>Node2&#45;&gt;Node5</title>
<g id="a_edge4_Node000002_Node000005"><a xlink:title=" ">
<path fill="none" stroke="#63b8ff" d="M215.66,-19.44C203.32,-17.93 190.68,-16.38 179.17,-14.97"/>
<polygon fill="#63b8ff" stroke="#63b8ff" points="215.57,-22.95 225.93,-20.69 216.43,-16.01 215.57,-22.95"/>
</a>
</g>
</g>
<!-- Node4 -->
<g id="Node000004" class="node">
<title>Node4</title>
<g id="a_Node000004"><a xlink:href="main_8cpp.html#a3c04138a5bfe5d72780bb7e82a18e627" target="_top" xlink:title=" ">
<polygon fill="white" stroke="#666666" points="41,-56 0,-56 0,-37 41,-37 41,-56"/>
<text text-anchor="middle" x="20.5" y="-44" font-family="Helvetica,sans-Serif" font-size="10.00">main</text>
</a>
</g>
</g>
<!-- Node3&#45;&gt;Node4 -->
<g id="edge3_Node000003_Node000004" class="edge">
<title>Node3&#45;&gt;Node4</title>
<g id="a_edge3_Node000003_Node000004"><a xlink:title=" ">
<path fill="none" stroke="#63b8ff" d="M66.58,-46.5C57.37,-46.5 48.56,-46.5 41.21,-46.5"/>
<polygon fill="#63b8ff" stroke="#63b8ff" points="66.67,-50 76.67,-46.5 66.67,-43 66.67,-50"/>
</a>
</g>
</g>
</g>
</svg>
