<?xml version="1.0" encoding="UTF-8" standalone="no"?>
<!DOCTYPE svg PUBLIC "-//W3C//DTD SVG 1.1//EN"
 "http://www.w3.org/Graphics/SVG/1.1/DTD/svg11.dtd">
<!-- Generated by graphviz version 2.43.0 (0)
 -->
<!-- Title: ResponseBuilder::buildResponse Pages: 1 -->
<svg width="961pt" height="181pt"
 viewBox="0.00 0.00 961.00 180.50" xmlns="http://www.w3.org/2000/svg" xmlns:xlink="http://www.w3.org/1999/xlink">
<g id="graph0" class="graph" transform="scale(1 1) rotate(0) translate(4 176.5)">
<title>ResponseBuilder::buildResponse</title>
<!-- Node1 -->
<g id="node1" class="node">
<title>Node1</title>
<g id="a_node1"><a xlink:title="Build the response for a given request.">
<polygon fill="#bfbfbf" stroke="black" points="0,-30 0,-49 176,-49 176,-30 0,-30"/>
<text text-anchor="middle" x="88" y="-37" font-family="Helvetica,sans-Serif" font-size="10.00">ResponseBuilder::buildResponse</text>
</a>
</g>
</g>
<!-- Node2 -->
<g id="node2" class="node">
<title>Node2</title>
<g id="a_node2"><a xlink:href="class_response_body_handler.html#a0660b57e440e2c519761817d178818c0" target="_top" xlink:title="Create the response body.">
<polygon fill="none" stroke="black" points="213.5,-49.5 213.5,-79.5 340.5,-79.5 340.5,-49.5 213.5,-49.5"/>
<text text-anchor="start" x="221.5" y="-67.5" font-family="Helvetica,sans-Serif" font-size="10.00">ResponseBodyHandler</text>
<text text-anchor="middle" x="277" y="-56.5" font-family="Helvetica,sans-Serif" font-size="10.00">::execute</text>
</a>
</g>
</g>
<!-- Node1&#45;&gt;Node2 -->
<g id="edge1" class="edge">
<title>Node1&#45;&gt;Node2</title>
<path fill="none" stroke="midnightblue" d="M160.23,-49.02C174.27,-50.9 189.01,-52.87 203.1,-54.75"/>
<polygon fill="midnightblue" stroke="midnightblue" points="202.85,-58.25 213.23,-56.11 203.78,-51.31 202.85,-58.25"/>
</g>
<!-- Node11 -->
<g id="node11" class="node">
<title>Node11</title>
<g id="a_node11"><a xlink:href="class_target_resource_handler.html#a2571a910d63ee660e93a64fccf515306" target="_top" xlink:title="Determine target resource based on the request path and handle different file types and statuses acco...">
<polygon fill="none" stroke="black" points="212,-0.5 212,-30.5 342,-30.5 342,-0.5 212,-0.5"/>
<text text-anchor="start" x="220" y="-18.5" font-family="Helvetica,sans-Serif" font-size="10.00">TargetResourceHandler</text>
<text text-anchor="middle" x="277" y="-7.5" font-family="Helvetica,sans-Serif" font-size="10.00">::execute</text>
</a>
</g>
</g>
<!-- Node1&#45;&gt;Node11 -->
<g id="edge10" class="edge">
<title>Node1&#45;&gt;Node11</title>
<path fill="none" stroke="midnightblue" d="M163.18,-29.98C175.89,-28.35 189.1,-26.65 201.81,-25.02"/>
<polygon fill="midnightblue" stroke="midnightblue" points="202.41,-28.47 211.88,-23.73 201.52,-21.53 202.41,-28.47"/>
</g>
<!-- Node3 -->
<g id="node3" class="node">
<title>Node3</title>
<g id="a_node3"><a xlink:href="class_autoindex_handler.html#a4ad00ccbce16e8913e108e9bf1114c3f" target="_top" xlink:title="Execute the autoindex handler.">
<polygon fill="none" stroke="black" points="390,-96 390,-115 539,-115 539,-96 390,-96"/>
<text text-anchor="middle" x="464.5" y="-103" font-family="Helvetica,sans-Serif" font-size="10.00">AutoindexHandler::execute</text>
</a>
</g>
</g>
<!-- Node2&#45;&gt;Node3 -->
<g id="edge2" class="edge">
<title>Node2&#45;&gt;Node3</title>
<path fill="none" stroke="midnightblue" d="M340.54,-78.32C363.35,-83.36 388.88,-89.01 410.75,-93.84"/>
<polygon fill="midnightblue" stroke="midnightblue" points="410,-97.26 420.52,-96 411.51,-90.42 410,-97.26"/>
</g>
<!-- Node10 -->
<g id="node10" class="node">
<title>Node10</title>
<g id="a_node10"><a xlink:href="class_file_system_policy.html#a700e01137b08674976427c869e078cc9" target="_top" xlink:title="Gets the contents of a file.">
<polygon fill="none" stroke="black" points="395.5,-46.5 395.5,-76.5 533.5,-76.5 533.5,-46.5 395.5,-46.5"/>
<text text-anchor="start" x="403.5" y="-64.5" font-family="Helvetica,sans-Serif" font-size="10.00">FileSystemPolicy::getFile</text>
<text text-anchor="middle" x="464.5" y="-53.5" font-family="Helvetica,sans-Serif" font-size="10.00">Contents</text>
</a>
</g>
</g>
<!-- Node2&#45;&gt;Node10 -->
<g id="edge9" class="edge">
<title>Node2&#45;&gt;Node10</title>
<path fill="none" stroke="midnightblue" d="M340.54,-63.49C354.81,-63.26 370.16,-63.01 385,-62.77"/>
<polygon fill="midnightblue" stroke="midnightblue" points="385.24,-66.27 395.18,-62.6 385.12,-59.27 385.24,-66.27"/>
</g>
<!-- Node4 -->
<g id="node4" class="node">
<title>Node4</title>
<g id="a_node4"><a xlink:href="class_directory.html#a09da8cd603ddb22990c5bb8165e14ea8" target="_top" xlink:title="Get the entries in the directory.">
<polygon fill="none" stroke="black" points="608,-153 608,-172 724,-172 724,-153 608,-153"/>
<text text-anchor="middle" x="666" y="-160" font-family="Helvetica,sans-Serif" font-size="10.00">Directory::getEntries</text>
</a>
</g>
</g>
<!-- Node3&#45;&gt;Node4 -->
<g id="edge3" class="edge">
<title>Node3&#45;&gt;Node4</title>
<path fill="none" stroke="midnightblue" d="M494.31,-115.08C518.83,-123.1 555.06,-134.62 587,-143.5 595.59,-145.89 604.75,-148.27 613.66,-150.49"/>
<polygon fill="midnightblue" stroke="midnightblue" points="613.03,-153.94 623.58,-152.93 614.71,-147.14 613.03,-153.94"/>
</g>
<!-- Node6 -->
<g id="node6" class="node">
<title>Node6</title>
<g id="a_node6"><a xlink:href="_autoindex_handler_8cpp.html#aa1cdc5b5774ab502cc67a723e7634b3f" target="_top" xlink:title="Get the file size of a file.">
<polygon fill="none" stroke="black" points="631,-115 631,-134 701,-134 701,-115 631,-115"/>
<text text-anchor="middle" x="666" y="-122" font-family="Helvetica,sans-Serif" font-size="10.00">getFileSize</text>
</a>
</g>
</g>
<!-- Node3&#45;&gt;Node6 -->
<g id="edge5" class="edge">
<title>Node3&#45;&gt;Node6</title>
<path fill="none" stroke="midnightblue" d="M539.22,-112.52C566.58,-115.13 596.75,-118 620.69,-120.28"/>
<polygon fill="midnightblue" stroke="midnightblue" points="620.59,-123.79 630.87,-121.25 621.25,-116.82 620.59,-123.79"/>
</g>
<!-- Node7 -->
<g id="node7" class="node">
<title>Node7</title>
<g id="a_node7"><a xlink:href="class_file_system_policy.html#ad2571bc684c5f8db457d8e282729f832" target="_top" xlink:title="Gets the file status of a path.">
<polygon fill="none" stroke="black" points="587,-77 587,-96 745,-96 745,-77 587,-77"/>
<text text-anchor="middle" x="666" y="-84" font-family="Helvetica,sans-Serif" font-size="10.00">FileSystemPolicy::getFileStat</text>
</a>
</g>
</g>
<!-- Node3&#45;&gt;Node7 -->
<g id="edge6" class="edge">
<title>Node3&#45;&gt;Node7</title>
<path fill="none" stroke="midnightblue" d="M539.22,-98.48C551.48,-97.31 564.31,-96.09 576.88,-94.89"/>
<polygon fill="midnightblue" stroke="midnightblue" points="577.28,-98.37 586.9,-93.94 576.61,-91.4 577.28,-98.37"/>
</g>
<!-- Node8 -->
<g id="node8" class="node">
<title>Node8</title>
<g id="a_node8"><a xlink:href="_autoindex_handler_8cpp.html#a1ca36f6cd35dba3c07da2bc0e3380cf1" target="_top" xlink:title="Get the last modified time of a file.">
<polygon fill="none" stroke="black" points="606.5,-39 606.5,-58 725.5,-58 725.5,-39 606.5,-39"/>
<text text-anchor="middle" x="666" y="-46" font-family="Helvetica,sans-Serif" font-size="10.00">getLastModifiedTime</text>
</a>
</g>
</g>
<!-- Node3&#45;&gt;Node8 -->
<g id="edge7" class="edge">
<title>Node3&#45;&gt;Node8</title>
<path fill="none" stroke="midnightblue" d="M519.04,-95.91C529.78,-93.34 540.87,-90.22 551,-86.5 567.98,-80.26 570.08,-73.91 587,-67.5 593.72,-64.95 600.9,-62.66 608.08,-60.63"/>
<polygon fill="midnightblue" stroke="midnightblue" points="609.07,-63.98 617.82,-58.01 607.25,-57.22 609.07,-63.98"/>
</g>
<!-- Node5 -->
<g id="node5" class="node">
<title>Node5</title>
<g id="a_node5"><a xlink:href="class_file_system_policy.html#ad23fadf21355a78cce6e905f61611469" target="_top" xlink:title="Reads a directory.">
<polygon fill="none" stroke="black" points="781,-153 781,-172 953,-172 953,-153 781,-153"/>
<text text-anchor="middle" x="867" y="-160" font-family="Helvetica,sans-Serif" font-size="10.00">FileSystemPolicy::readDirectory</text>
</a>
</g>
</g>
<!-- Node4&#45;&gt;Node5 -->
<g id="edge4" class="edge">
<title>Node4&#45;&gt;Node5</title>
<path fill="none" stroke="midnightblue" d="M724.03,-162.5C738.53,-162.5 754.53,-162.5 770.39,-162.5"/>
<polygon fill="midnightblue" stroke="midnightblue" points="770.77,-166 780.77,-162.5 770.77,-159 770.77,-166"/>
</g>
<!-- Node9 -->
<g id="node9" class="node">
<title>Node9</title>
<g id="a_node9"><a xlink:href="namespacewebutils.html#ab6119b08526700518f576bb78554be59" target="_top" xlink:title="Returns localtime string in provided format.">
<polygon fill="none" stroke="black" points="789,-39 789,-58 945,-58 945,-39 789,-39"/>
<text text-anchor="middle" x="867" y="-46" font-family="Helvetica,sans-Serif" font-size="10.00">webutils::getLocaltimeString</text>
</a>
</g>
</g>
<!-- Node8&#45;&gt;Node9 -->
<g id="edge8" class="edge">
<title>Node8&#45;&gt;Node9</title>
<path fill="none" stroke="midnightblue" d="M725.63,-48.5C742.29,-48.5 760.8,-48.5 778.76,-48.5"/>
<polygon fill="midnightblue" stroke="midnightblue" points="778.96,-52 788.96,-48.5 778.96,-45 778.96,-52"/>
</g>
<!-- Node12 -->
<g id="node12" class="node">
<title>Node12</title>
<g id="a_node12"><a xlink:href="class_file_system_policy.html#a6fa9dbd0b2ea4656d86bbe4dc966bf71" target="_top" xlink:title="Check the file type of a given path.">
<polygon fill="none" stroke="black" points="378,-6 378,-25 551,-25 551,-6 378,-6"/>
<text text-anchor="middle" x="464.5" y="-13" font-family="Helvetica,sans-Serif" font-size="10.00">FileSystemPolicy::checkFileType</text>
</a>
</g>
</g>
<!-- Node11&#45;&gt;Node12 -->
<g id="edge11" class="edge">
<title>Node11&#45;&gt;Node12</title>
<path fill="none" stroke="midnightblue" d="M342.1,-15.5C350.38,-15.5 359,-15.5 367.65,-15.5"/>
<polygon fill="midnightblue" stroke="midnightblue" points="367.81,-19 377.81,-15.5 367.81,-12 367.81,-19"/>
</g>
</g>
</svg>
