<?xml version="1.0" encoding="UTF-8" standalone="no"?>
<!DOCTYPE svg PUBLIC "-//W3C//DTD SVG 1.1//EN"
 "http://www.w3.org/Graphics/SVG/1.1/DTD/svg11.dtd">
<!-- Generated by graphviz version 2.43.0 (0)
 -->
<!-- Title: Server::registerConnection Pages: 1 -->
<svg width="720pt" height="85pt"
 viewBox="0.00 0.00 720.00 85.00" xmlns="http://www.w3.org/2000/svg" xmlns:xlink="http://www.w3.org/1999/xlink">
<g id="graph0" class="graph" transform="scale(1 1) rotate(0) translate(4 81)">
<title>Server::registerConnection</title>
<!-- Node1 -->
<g id="node1" class="node">
<title>Node1</title>
<g id="a_node1"><a xlink:title="Register a connection.">
<polygon fill="#bfbfbf" stroke="black" points="566,-19.5 566,-38.5 712,-38.5 712,-19.5 566,-19.5"/>
<text text-anchor="middle" x="639" y="-26.5" font-family="Helvetica,sans-Serif" font-size="10.00">Server::registerConnection</text>
</a>
</g>
</g>
<!-- Node2 -->
<g id="node2" class="node">
<title>Node2</title>
<g id="a_node2"><a xlink:href="_server_8hpp.html#adb579f3d67061d752e882e6fb3ef6f18" target="_top" xlink:title="Accept new connections.">
<polygon fill="none" stroke="black" points="421,-19.5 421,-38.5 530,-38.5 530,-19.5 421,-19.5"/>
<text text-anchor="middle" x="475.5" y="-26.5" font-family="Helvetica,sans-Serif" font-size="10.00">acceptConnections</text>
</a>
</g>
</g>
<!-- Node1&#45;&gt;Node2 -->
<g id="edge1" class="edge">
<title>Node1&#45;&gt;Node2</title>
<path fill="none" stroke="midnightblue" d="M555.65,-29C547.04,-29 538.45,-29 530.28,-29"/>
<polygon fill="midnightblue" stroke="midnightblue" points="555.75,-32.5 565.75,-29 555.75,-25.5 555.75,-32.5"/>
</g>
<!-- Node3 -->
<g id="node3" class="node">
<title>Node3</title>
<g id="a_node3"><a xlink:href="_server_8hpp.html#a4211c4d6b958979b39b3dfc8148c801a" target="_top" xlink:title="Accepts new connections or handles existing ones.">
<polygon fill="none" stroke="black" points="308,-38.5 308,-57.5 385,-57.5 385,-38.5 308,-38.5"/>
<text text-anchor="middle" x="346.5" y="-45.5" font-family="Helvetica,sans-Serif" font-size="10.00">handleEvent</text>
</a>
</g>
</g>
<!-- Node2&#45;&gt;Node3 -->
<g id="edge2" class="edge">
<title>Node2&#45;&gt;Node3</title>
<path fill="none" stroke="midnightblue" d="M410.53,-38.57C401.89,-39.86 393.26,-41.15 385.28,-42.35"/>
<polygon fill="midnightblue" stroke="midnightblue" points="411.27,-42 420.64,-37.06 410.23,-35.08 411.27,-42"/>
</g>
<!-- Node8 -->
<g id="node8" class="node">
<title>Node8</title>
<g id="a_node8"><a xlink:href="test__accept_connections_8cpp.html#a78ef81e117d5c1a90c27410155ac152b" target="_top" xlink:title=" ">
<polygon fill="none" stroke="black" points="320.5,-0.5 320.5,-19.5 372.5,-19.5 372.5,-0.5 320.5,-0.5"/>
<text text-anchor="middle" x="346.5" y="-7.5" font-family="Helvetica,sans-Serif" font-size="10.00">TEST_F</text>
</a>
</g>
</g>
<!-- Node2&#45;&gt;Node8 -->
<g id="edge8" class="edge">
<title>Node2&#45;&gt;Node8</title>
<path fill="none" stroke="midnightblue" d="M410.43,-19.42C397.04,-17.41 383.69,-15.41 372.75,-13.78"/>
<polygon fill="midnightblue" stroke="midnightblue" points="410.23,-22.92 420.64,-20.94 411.27,-16 410.23,-22.92"/>
</g>
<!-- Node4 -->
<g id="node4" class="node">
<title>Node4</title>
<g id="a_node4"><a xlink:href="_server_8hpp.html#ab66b27c2186daacb15a6b13dd43be31b" target="_top" xlink:title="Runs the main event loop with a server object.">
<polygon fill="none" stroke="black" points="77,-57.5 77,-76.5 141,-76.5 141,-57.5 77,-57.5"/>
<text text-anchor="middle" x="109" y="-64.5" font-family="Helvetica,sans-Serif" font-size="10.00">runServer</text>
</a>
</g>
</g>
<!-- Node3&#45;&gt;Node4 -->
<g id="edge3" class="edge">
<title>Node3&#45;&gt;Node4</title>
<path fill="none" stroke="midnightblue" d="M297.73,-51.85C250.95,-55.63 181.04,-61.27 141.05,-64.49"/>
<polygon fill="midnightblue" stroke="midnightblue" points="298.24,-55.32 307.92,-51.03 297.67,-48.35 298.24,-55.32"/>
</g>
<!-- Node6 -->
<g id="node6" class="node">
<title>Node6</title>
<g id="a_node6"><a xlink:href="_server_8hpp.html#a115ecd76e344c1007bedc48b9bbdc0fa" target="_top" xlink:title="Performs a graceful shutdown of the server.">
<polygon fill="none" stroke="black" points="177,-19.5 177,-38.5 272,-38.5 272,-19.5 177,-19.5"/>
<text text-anchor="middle" x="224.5" y="-26.5" font-family="Helvetica,sans-Serif" font-size="10.00">shutdownServer</text>
</a>
</g>
</g>
<!-- Node3&#45;&gt;Node6 -->
<g id="edge5" class="edge">
<title>Node3&#45;&gt;Node6</title>
<path fill="none" stroke="midnightblue" d="M297.82,-40.45C289.42,-39.12 280.68,-37.74 272.3,-36.41"/>
<polygon fill="midnightblue" stroke="midnightblue" points="297.44,-43.93 307.86,-42.04 298.53,-37.02 297.44,-43.93"/>
</g>
<!-- Node5 -->
<g id="node5" class="node">
<title>Node5</title>
<g id="a_node5"><a xlink:href="main_8cpp.html#a3c04138a5bfe5d72780bb7e82a18e627" target="_top" xlink:title=" ">
<polygon fill="none" stroke="black" points="0,-57.5 0,-76.5 41,-76.5 41,-57.5 0,-57.5"/>
<text text-anchor="middle" x="20.5" y="-64.5" font-family="Helvetica,sans-Serif" font-size="10.00">main</text>
</a>
</g>
</g>
<!-- Node4&#45;&gt;Node5 -->
<g id="edge4" class="edge">
<title>Node4&#45;&gt;Node5</title>
<path fill="none" stroke="midnightblue" d="M66.5,-67C57.64,-67 48.68,-67 41.11,-67"/>
<polygon fill="midnightblue" stroke="midnightblue" points="66.77,-70.5 76.77,-67 66.77,-63.5 66.77,-70.5"/>
</g>
<!-- Node6&#45;&gt;Node4 -->
<g id="edge6" class="edge">
<title>Node6&#45;&gt;Node4</title>
<path fill="none" stroke="midnightblue" d="M185.19,-41.83C169.96,-46.92 152.74,-52.69 138.63,-57.41"/>
<polygon fill="midnightblue" stroke="midnightblue" points="186.49,-45.08 194.86,-38.59 184.27,-38.44 186.49,-45.08"/>
</g>
<!-- Node7 -->
<g id="node7" class="node">
<title>Node7</title>
<g id="a_node7"><a xlink:href="test__shutdown_server_8cpp.html#ac2c8b4566d61e62572e54d61350a3db2" target="_top" xlink:title=" ">
<polygon fill="none" stroke="black" points="83,-19.5 83,-38.5 135,-38.5 135,-19.5 83,-19.5"/>
<text text-anchor="middle" x="109" y="-26.5" font-family="Helvetica,sans-Serif" font-size="10.00">TEST_F</text>
</a>
</g>
</g>
<!-- Node6&#45;&gt;Node7 -->
<g id="edge7" class="edge">
<title>Node6&#45;&gt;Node7</title>
<path fill="none" stroke="midnightblue" d="M166.63,-29C155.63,-29 144.64,-29 135.3,-29"/>
<polygon fill="midnightblue" stroke="midnightblue" points="166.68,-32.5 176.68,-29 166.68,-25.5 166.68,-32.5"/>
</g>
</g>
</svg>
