<?xml version="1.0" encoding="UTF-8" standalone="no"?>
<!DOCTYPE svg PUBLIC "-//W3C//DTD SVG 1.1//EN"
 "http://www.w3.org/Graphics/SVG/1.1/DTD/svg11.dtd">
<!-- Generated by graphviz version 2.43.0 (0)
 -->
<!-- Title: weblog::ALogOutputter::getFormattedMessage Pages: 1 -->
<svg width="371pt" height="268pt"
 viewBox="0.00 0.00 371.00 267.50" xmlns="http://www.w3.org/2000/svg" xmlns:xlink="http://www.w3.org/1999/xlink">
<g id="graph0" class="graph" transform="scale(1 1) rotate(0) translate(4 263.5)">
<title>weblog::ALogOutputter::getFormattedMessage</title>
<!-- Node1 -->
<g id="node1" class="node">
<title>Node1</title>
<g id="a_node1"><a xlink:title="Format a message out of the logData object.">
<polygon fill="#bfbfbf" stroke="black" points="0,-120.5 0,-150.5 132,-150.5 132,-120.5 0,-120.5"/>
<text text-anchor="start" x="8" y="-138.5" font-family="Helvetica,sans-Serif" font-size="10.00">weblog::ALogOutputter</text>
<text text-anchor="middle" x="66" y="-127.5" font-family="Helvetica,sans-Serif" font-size="10.00">::getFormattedMessage</text>
</a>
</g>
</g>
<!-- Node2 -->
<g id="node2" class="node">
<title>Node2</title>
<g id="a_node2"><a xlink:href="classweblog_1_1_log_data.html#a4c09579fe7c971807f48775a269fd0a8" target="_top" xlink:title="Get the file name.">
<polygon fill="none" stroke="black" points="197,-240 197,-259 334,-259 334,-240 197,-240"/>
<text text-anchor="middle" x="265.5" y="-247" font-family="Helvetica,sans-Serif" font-size="10.00">weblog::LogData::getFile</text>
</a>
</g>
</g>
<!-- Node1&#45;&gt;Node2 -->
<g id="edge1" class="edge">
<title>Node1&#45;&gt;Node2</title>
<path fill="none" stroke="midnightblue" d="M78.51,-150.77C95.56,-172.21 129.67,-210.81 168,-230.5 174.02,-233.59 180.49,-236.18 187.13,-238.35"/>
<polygon fill="midnightblue" stroke="midnightblue" points="186.35,-241.77 196.93,-241.24 188.33,-235.06 186.35,-241.77"/>
</g>
<!-- Node3 -->
<g id="node3" class="node">
<title>Node3</title>
<g id="a_node3"><a xlink:href="classweblog_1_1_log_data.html#aa4077a11fc212264e7a7a85415d2f725" target="_top" xlink:title="Get the formatted time.">
<polygon fill="none" stroke="black" points="168,-202 168,-221 363,-221 363,-202 168,-202"/>
<text text-anchor="middle" x="265.5" y="-209" font-family="Helvetica,sans-Serif" font-size="10.00">weblog::LogData::getFormattedTime</text>
</a>
</g>
</g>
<!-- Node1&#45;&gt;Node3 -->
<g id="edge2" class="edge">
<title>Node1&#45;&gt;Node3</title>
<path fill="none" stroke="midnightblue" d="M88.86,-150.57C108.67,-163.54 139.11,-181.82 168,-192.5 175.32,-195.21 183.1,-197.55 190.95,-199.58"/>
<polygon fill="midnightblue" stroke="midnightblue" points="190.35,-203.03 200.89,-201.98 191.99,-196.23 190.35,-203.03"/>
</g>
<!-- Node4 -->
<g id="node4" class="node">
<title>Node4</title>
<g id="a_node4"><a xlink:href="classweblog_1_1_log_data.html#ab1e3d7de2081aa7f8998314ea03c3fbc" target="_top" xlink:title="Get the function name.">
<polygon fill="none" stroke="black" points="185,-164 185,-183 346,-183 346,-164 185,-164"/>
<text text-anchor="middle" x="265.5" y="-171" font-family="Helvetica,sans-Serif" font-size="10.00">weblog::LogData::getFunction</text>
</a>
</g>
</g>
<!-- Node1&#45;&gt;Node4 -->
<g id="edge3" class="edge">
<title>Node1&#45;&gt;Node4</title>
<path fill="none" stroke="midnightblue" d="M132.22,-148.05C155.71,-152.57 182.07,-157.64 205.04,-162.06"/>
<polygon fill="midnightblue" stroke="midnightblue" points="204.52,-165.52 215,-163.98 205.84,-158.65 204.52,-165.52"/>
</g>
<!-- Node5 -->
<g id="node5" class="node">
<title>Node5</title>
<g id="a_node5"><a xlink:href="classweblog_1_1_log_data.html#abf7dacd4f854b930998d0a4a8861d375" target="_top" xlink:title="Get the log level.">
<polygon fill="none" stroke="black" points="192.5,-126 192.5,-145 338.5,-145 338.5,-126 192.5,-126"/>
<text text-anchor="middle" x="265.5" y="-133" font-family="Helvetica,sans-Serif" font-size="10.00">weblog::LogData::getLevel</text>
</a>
</g>
</g>
<!-- Node1&#45;&gt;Node5 -->
<g id="edge4" class="edge">
<title>Node1&#45;&gt;Node5</title>
<path fill="none" stroke="midnightblue" d="M132.22,-135.5C148.13,-135.5 165.36,-135.5 181.96,-135.5"/>
<polygon fill="midnightblue" stroke="midnightblue" points="182.19,-139 192.19,-135.5 182.19,-132 182.19,-139"/>
</g>
<!-- Node6 -->
<g id="node6" class="node">
<title>Node6</title>
<g id="a_node6"><a xlink:href="classweblog_1_1_log_data.html#a1b85f949a0947b0636a6cff9cd04fd88" target="_top" xlink:title="Get the line number.">
<polygon fill="none" stroke="black" points="195.5,-88 195.5,-107 335.5,-107 335.5,-88 195.5,-88"/>
<text text-anchor="middle" x="265.5" y="-95" font-family="Helvetica,sans-Serif" font-size="10.00">weblog::LogData::getLine</text>
</a>
</g>
</g>
<!-- Node1&#45;&gt;Node6 -->
<g id="edge5" class="edge">
<title>Node1&#45;&gt;Node6</title>
<path fill="none" stroke="midnightblue" d="M132.22,-122.95C155.71,-118.43 182.07,-113.36 205.04,-108.94"/>
<polygon fill="midnightblue" stroke="midnightblue" points="205.84,-112.35 215,-107.02 204.52,-105.48 205.84,-112.35"/>
</g>
<!-- Node7 -->
<g id="node7" class="node">
<title>Node7</title>
<g id="a_node7"><a xlink:href="classweblog_1_1_log_data.html#ae083584fe82c6fefe25a9cbbff3bb9f8" target="_top" xlink:title="Get the log message.">
<polygon fill="none" stroke="black" points="183.5,-50 183.5,-69 347.5,-69 347.5,-50 183.5,-50"/>
<text text-anchor="middle" x="265.5" y="-57" font-family="Helvetica,sans-Serif" font-size="10.00">weblog::LogData::getMessage</text>
</a>
</g>
</g>
<!-- Node1&#45;&gt;Node7 -->
<g id="edge6" class="edge">
<title>Node1&#45;&gt;Node7</title>
<path fill="none" stroke="midnightblue" d="M88.86,-120.43C108.67,-107.46 139.11,-89.18 168,-78.5 175.32,-75.79 183.1,-73.45 190.95,-71.42"/>
<polygon fill="midnightblue" stroke="midnightblue" points="191.99,-74.77 200.89,-69.02 190.35,-67.97 191.99,-74.77"/>
</g>
<!-- Node8 -->
<g id="node8" class="node">
<title>Node8</title>
<g id="a_node8"><a xlink:href="classweblog_1_1_log_data.html#a558c41ae966801658a1e67b8691f838e" target="_top" xlink:title="Convert the log level to a string.">
<polygon fill="none" stroke="black" points="196,-0.5 196,-30.5 335,-30.5 335,-0.5 196,-0.5"/>
<text text-anchor="start" x="204" y="-18.5" font-family="Helvetica,sans-Serif" font-size="10.00">weblog::LogData::levelTo</text>
<text text-anchor="middle" x="265.5" y="-7.5" font-family="Helvetica,sans-Serif" font-size="10.00">String</text>
</a>
</g>
</g>
<!-- Node1&#45;&gt;Node8 -->
<g id="edge7" class="edge">
<title>Node1&#45;&gt;Node8</title>
<path fill="none" stroke="midnightblue" d="M78.97,-120.18C96.31,-99.04 130.48,-61.2 168,-40.5 173.8,-37.3 180.03,-34.5 186.42,-32.04"/>
<polygon fill="midnightblue" stroke="midnightblue" points="187.62,-35.33 195.88,-28.7 185.28,-28.73 187.62,-35.33"/>
</g>
</g>
</svg>
