<?xml version="1.0" encoding="UTF-8" standalone="no"?>
<!DOCTYPE svg PUBLIC "-//W3C//DTD SVG 1.1//EN"
 "http://www.w3.org/Graphics/SVG/1.1/DTD/svg11.dtd">
<!-- Generated by graphviz version 2.43.0 (0)
 -->
<!-- Title: weblog::LogOutputterConsole::log Pages: 1 -->
<!--zoomable 268 -->
<svg id="main" version="1.1" xmlns="http://www.w3.org/2000/svg" xmlns:xlink="http://www.w3.org/1999/xlink" xml:space="preserve" onload="init(evt)">
<style type="text/css"><![CDATA[
.edge:hover path { stroke: red; }
.edge:hover polygon { stroke: red; fill: red; }
]]></style>
<script type="text/javascript"><![CDATA[
var edges = document.getElementsByTagName('g');
if (edges && edges.length) {
  for (var i=0;i<edges.length;i++) {
    if (edges[i].id.substr(0,4)=='edge') {
      edges[i].setAttribute('class','edge');
    }
  }
}
]]></script>
        <defs>
                <circle id="rim" cx="0" cy="0" r="7"/>
                <circle id="rim2" cx="0" cy="0" r="3.5"/>
                <g id="zoomPlus">
                        <use xlink:href="#rim" fill="#404040">
                                <set attributeName="fill" to="#808080" begin="zoomplus.mouseover" end="zoomplus.mouseout"/>
                        </use>
                        <path d="M-4,0h8M0,-4v8" fill="none" stroke="white" stroke-width="1.5" pointer-events="none"/>
                </g>
                <g id="zoomMin">
                        <use xlink:href="#rim" fill="#404040">
                                <set attributeName="fill" to="#808080" begin="zoomminus.mouseover" end="zoomminus.mouseout"/>
                        </use>
                        <path d="M-4,0h8" fill="none" stroke="white" stroke-width="1.5" pointer-events="none"/>
                </g>
                <g id="dirArrow">
                        <path fill="none" stroke="white" stroke-width="1.5" d="M0,-3.0v7 M-2.5,-0.5L0,-3.0L2.5,-0.5"/>
                </g>
               <g id="resetDef">
                       <use xlink:href="#rim2" fill="#404040">
                               <set attributeName="fill" to="#808080" begin="reset.mouseover" end="reset.mouseout"/>
                       </use>
               </g>
        </defs>

<script type="text/javascript">
var viewWidth = 589;
var viewHeight = 268;
var sectionId = 'dynsection-2';
</script>
<script xlink:href="svgpan.js"/>
<svg id="graph" class="graph">
<g id="viewport">
<title>weblog::LogOutputterConsole::log</title>
<!-- Node1 -->
<g id="node1" class="node">
<title>Node1</title>
<g id="a_node1"><a xlink:title="Log a message to the console.">
<polygon fill="#bfbfbf" stroke="black" points="0,-63.5 0,-82.5 182,-82.5 182,-63.5 0,-63.5"/>
<text text-anchor="middle" x="91" y="-70.5" font-family="Helvetica,sans-Serif" font-size="10.00">weblog::LogOutputterConsole::log</text>
</a>
</g>
</g>
<!-- Node2 -->
<g id="node2" class="node">
<title>Node2</title>
<g id="a_node2"><a xlink:href="classweblog_1_1_a_log_outputter.html#a74e71c0a78eb3efd1a60fddc11cfa545" target="_top" xlink:title="Format a message out of the logData object.">
<polygon fill="none" stroke="black" points="218,-102 218,-132 350,-132 350,-102 218,-102"/>
<text text-anchor="start" x="226" y="-120" font-family="Helvetica,sans-Serif" font-size="10.00">weblog::ALogOutputter</text>
<text text-anchor="middle" x="284" y="-109" font-family="Helvetica,sans-Serif" font-size="10.00">::getFormattedMessage</text>
</a>
</g>
</g>
<!-- Node1&#45;&gt;Node2 -->
<g id="edge1" class="edge">
<title>Node1&#45;&gt;Node2</title>
<path fill="none" stroke="midnightblue" d="M133.44,-82.55C155.24,-87.57 182.63,-93.88 208,-99.72"/>
<polygon fill="midnightblue" stroke="midnightblue" points="207.45,-103.19 217.98,-102.02 209.02,-96.36 207.45,-103.19"/>
</g>
<!-- Node6 -->
<g id="node6" class="node">
<title>Node6</title>
<g id="a_node6"><a xlink:href="classweblog_1_1_log_data.html#abf7dacd4f854b930998d0a4a8861d375" target="_top" xlink:title="Get the log level.">
<polygon fill="none" stroke="black" points="410.5,-0.5 410.5,-19.5 556.5,-19.5 556.5,-0.5 410.5,-0.5"/>
<text text-anchor="middle" x="483.5" y="-7.5" font-family="Helvetica,sans-Serif" font-size="10.00">weblog::LogData::getLevel</text>
</a>
</g>
</g>
<!-- Node1&#45;&gt;Node6 -->
<g id="edge9" class="edge">
<title>Node1&#45;&gt;Node6</title>
<path fill="none" stroke="midnightblue" d="M151.31,-63.43C221.71,-52.07 338.93,-33.16 413.38,-21.15"/>
<polygon fill="midnightblue" stroke="midnightblue" points="414.28,-24.55 423.59,-19.5 413.16,-17.64 414.28,-24.55"/>
</g>
<!-- Node3 -->
<g id="node3" class="node">
<title>Node3</title>
<g id="a_node3"><a xlink:href="classweblog_1_1_log_data.html#a4c09579fe7c971807f48775a269fd0a8" target="_top" xlink:title="Get the file name.">
<polygon fill="none" stroke="black" points="415,-240.5 415,-259.5 552,-259.5 552,-240.5 415,-240.5"/>
<text text-anchor="middle" x="483.5" y="-247.5" font-family="Helvetica,sans-Serif" font-size="10.00">weblog::LogData::getFile</text>
</a>
</g>
</g>
<!-- Node2&#45;&gt;Node3 -->
<g id="edge2" class="edge">
<title>Node2&#45;&gt;Node3</title>
<path fill="none" stroke="midnightblue" d="M293.71,-132.03C308.98,-156.92 343.09,-206.43 386,-231 391.92,-234.39 398.35,-237.19 404.98,-239.49"/>
<polygon fill="midnightblue" stroke="midnightblue" points="404.21,-242.92 414.8,-242.53 406.28,-236.23 404.21,-242.92"/>
</g>
<!-- Node4 -->
<g id="node4" class="node">
<title>Node4</title>
<g id="a_node4"><a xlink:href="classweblog_1_1_log_data.html#aa4077a11fc212264e7a7a85415d2f725" target="_top" xlink:title="Get the formatted time.">
<polygon fill="none" stroke="black" points="386,-202.5 386,-221.5 581,-221.5 581,-202.5 386,-202.5"/>
<text text-anchor="middle" x="483.5" y="-209.5" font-family="Helvetica,sans-Serif" font-size="10.00">weblog::LogData::getFormattedTime</text>
</a>
</g>
</g>
<!-- Node2&#45;&gt;Node4 -->
<g id="edge3" class="edge">
<title>Node2&#45;&gt;Node4</title>
<path fill="none" stroke="midnightblue" d="M300.33,-132.13C318.96,-149.61 352.13,-177.89 386,-193 391.73,-195.56 397.8,-197.77 404,-199.69"/>
<polygon fill="midnightblue" stroke="midnightblue" points="403.25,-203.11 413.82,-202.47 405.15,-196.38 403.25,-203.11"/>
</g>
<!-- Node5 -->
<g id="node5" class="node">
<title>Node5</title>
<g id="a_node5"><a xlink:href="classweblog_1_1_log_data.html#ab1e3d7de2081aa7f8998314ea03c3fbc" target="_top" xlink:title="Get the function name.">
<polygon fill="none" stroke="black" points="403,-164.5 403,-183.5 564,-183.5 564,-164.5 403,-164.5"/>
<text text-anchor="middle" x="483.5" y="-171.5" font-family="Helvetica,sans-Serif" font-size="10.00">weblog::LogData::getFunction</text>
</a>
</g>
</g>
<!-- Node2&#45;&gt;Node5 -->
<g id="edge4" class="edge">
<title>Node2&#45;&gt;Node5</title>
<path fill="none" stroke="midnightblue" d="M320.51,-132.01C339.65,-139.68 363.84,-148.7 386,-155 395.55,-157.72 405.73,-160.18 415.78,-162.36"/>
<polygon fill="midnightblue" stroke="midnightblue" points="415.24,-165.82 425.74,-164.45 416.67,-158.97 415.24,-165.82"/>
</g>
<!-- Node2&#45;&gt;Node6 -->
<g id="edge5" class="edge">
<title>Node2&#45;&gt;Node6</title>
<path fill="none" stroke="midnightblue" d="M305.09,-101.85C318.18,-91.76 335.46,-78.01 350,-65 366.86,-49.91 366.03,-39.65 386,-29 390.64,-26.53 395.55,-24.37 400.61,-22.5"/>
<polygon fill="midnightblue" stroke="midnightblue" points="402.1,-25.7 410.49,-19.23 399.9,-19.05 402.1,-25.7"/>
</g>
<!-- Node7 -->
<g id="node7" class="node">
<title>Node7</title>
<g id="a_node7"><a xlink:href="classweblog_1_1_log_data.html#a1b85f949a0947b0636a6cff9cd04fd88" target="_top" xlink:title="Get the line number.">
<polygon fill="none" stroke="black" points="413.5,-126.5 413.5,-145.5 553.5,-145.5 553.5,-126.5 413.5,-126.5"/>
<text text-anchor="middle" x="483.5" y="-133.5" font-family="Helvetica,sans-Serif" font-size="10.00">weblog::LogData::getLine</text>
</a>
</g>
</g>
<!-- Node2&#45;&gt;Node7 -->
<g id="edge6" class="edge">
<title>Node2&#45;&gt;Node7</title>
<path fill="none" stroke="midnightblue" d="M350.22,-123.27C367.12,-124.9 385.52,-126.67 403.06,-128.36"/>
<polygon fill="midnightblue" stroke="midnightblue" points="402.99,-131.87 413.28,-129.34 403.66,-124.9 402.99,-131.87"/>
</g>
<!-- Node8 -->
<g id="node8" class="node">
<title>Node8</title>
<g id="a_node8"><a xlink:href="classweblog_1_1_log_data.html#ae083584fe82c6fefe25a9cbbff3bb9f8" target="_top" xlink:title="Get the log message.">
<polygon fill="none" stroke="black" points="401.5,-88.5 401.5,-107.5 565.5,-107.5 565.5,-88.5 401.5,-88.5"/>
<text text-anchor="middle" x="483.5" y="-95.5" font-family="Helvetica,sans-Serif" font-size="10.00">weblog::LogData::getMessage</text>
</a>
</g>
</g>
<!-- Node2&#45;&gt;Node8 -->
<g id="edge7" class="edge">
<title>Node2&#45;&gt;Node8</title>
<path fill="none" stroke="midnightblue" d="M350.22,-110.73C363.42,-109.46 377.52,-108.1 391.43,-106.76"/>
<polygon fill="midnightblue" stroke="midnightblue" points="391.88,-110.23 401.5,-105.79 391.21,-103.27 391.88,-110.23"/>
</g>
<!-- Node9 -->
<g id="node9" class="node">
<title>Node9</title>
<g id="a_node9"><a xlink:href="classweblog_1_1_log_data.html#a558c41ae966801658a1e67b8691f838e" target="_top" xlink:title="Convert the log level to a string.">
<polygon fill="none" stroke="black" points="414,-39 414,-69 553,-69 553,-39 414,-39"/>
<text text-anchor="start" x="422" y="-57" font-family="Helvetica,sans-Serif" font-size="10.00">weblog::LogData::levelTo</text>
<text text-anchor="middle" x="483.5" y="-46" font-family="Helvetica,sans-Serif" font-size="10.00">String</text>
</a>
</g>
</g>
<!-- Node2&#45;&gt;Node9 -->
<g id="edge8" class="edge">
<title>Node2&#45;&gt;Node9</title>
<path fill="none" stroke="midnightblue" d="M322.08,-101.97C341.04,-94.56 364.57,-85.79 386,-79 393.95,-76.48 402.32,-74.03 410.67,-71.7"/>
<polygon fill="midnightblue" stroke="midnightblue" points="411.72,-75.05 420.45,-69.04 409.88,-68.29 411.72,-75.05"/>
</g>
</g>
</svg>
        <g id="navigator" transform="translate(0 0)" fill="#404254">
                <rect fill="#f2f5e9" fill-opacity="0.5" stroke="#606060" stroke-width=".5" x="0" y="0" width="60" height="60"/>
                <use id="zoomplus" xlink:href="#zoomPlus" x="17" y="9" onmousedown="handleZoom(evt,'in')"/>
                <use id="zoomminus" xlink:href="#zoomMin" x="42" y="9" onmousedown="handleZoom(evt,'out')"/>
                <use id="reset" xlink:href="#resetDef" x="30" y="36" onmousedown="handleReset()"/>
                <g id="arrowUp" xlink:href="#dirArrow" transform="translate(30 24)" onmousedown="handlePan(0,-1)">
                  <use xlink:href="#rim" fill="#404040">
                        <set attributeName="fill" to="#808080" begin="arrowUp.mouseover" end="arrowUp.mouseout"/>
                  </use>
                  <path fill="none" stroke="white" stroke-width="1.5" d="M0,-3.0v7 M-2.5,-0.5L0,-3.0L2.5,-0.5"/>
                </g>
                <g id="arrowRight" xlink:href="#dirArrow" transform="rotate(90) translate(36 -43)" onmousedown="handlePan(1,0)">
                  <use xlink:href="#rim" fill="#404040">
                        <set attributeName="fill" to="#808080" begin="arrowRight.mouseover" end="arrowRight.mouseout"/>
                  </use>
                  <path fill="none" stroke="white" stroke-width="1.5" d="M0,-3.0v7 M-2.5,-0.5L0,-3.0L2.5,-0.5"/>
                </g>
                <g id="arrowDown" xlink:href="#dirArrow" transform="rotate(180) translate(-30 -48)" onmousedown="handlePan(0,1)">
                  <use xlink:href="#rim" fill="#404040">
                        <set attributeName="fill" to="#808080" begin="arrowDown.mouseover" end="arrowDown.mouseout"/>
                  </use>
                  <path fill="none" stroke="white" stroke-width="1.5" d="M0,-3.0v7 M-2.5,-0.5L0,-3.0L2.5,-0.5"/>
                </g>
                <g id="arrowLeft" xlink:href="#dirArrow" transform="rotate(270) translate(-36 17)" onmousedown="handlePan(-1,0)">
                  <use xlink:href="#rim" fill="#404040">
                        <set attributeName="fill" to="#808080" begin="arrowLeft.mouseover" end="arrowLeft.mouseout"/>
                  </use>
                  <path fill="none" stroke="white" stroke-width="1.5" d="M0,-3.0v7 M-2.5,-0.5L0,-3.0L2.5,-0.5"/>
                </g>
        </g>
        <svg viewBox="0 0 15 15" width="100%" height="30px" preserveAspectRatio="xMaxYMin meet">
         <g id="arrow_out" transform="scale(0.3 0.3)">
          <a xlink:href="classweblog_1_1_log_outputter_console_a9312a8a9bbda182183261e323acdd28b_cgraph_org.svg" target="_base">
           <rect id="button" ry="5" rx="5" y="6" x="6" height="38" width="38"
                fill="#f2f5e9" fill-opacity="0.5" stroke="#606060" stroke-width="1.0"/>
           <path id="arrow"
             d="M 11.500037,31.436501 C 11.940474,20.09759 22.043105,11.32322 32.158766,21.979434 L 37.068811,17.246167 C 37.068811,17.246167 37.088388,32 37.088388,32 L 22.160133,31.978069 C 22.160133,31.978069 26.997745,27.140456 26.997745,27.140456 C 18.528582,18.264221 13.291696,25.230495 11.500037,31.436501 z"
             style="fill:#404040;"/>
          </a>
         </g>
        </svg>
</svg>
