<?xml version="1.0" encoding="UTF-8" standalone="no"?>
<!DOCTYPE svg PUBLIC "-//W3C//DTD SVG 1.1//EN"
 "http://www.w3.org/Graphics/SVG/1.1/DTD/svg11.dtd">
<!-- Generated by graphviz version 2.43.0 (0)
 -->
<!-- Title: Server::removeCGIFileDescriptor Pages: 1 -->
<svg width="932pt" height="104pt"
 viewBox="0.00 0.00 932.00 104.00" xmlns="http://www.w3.org/2000/svg" xmlns:xlink="http://www.w3.org/1999/xlink">
<g id="graph0" class="graph" transform="scale(1 1) rotate(0) translate(4 100)">
<title>Server::removeCGIFileDescriptor</title>
<!-- Node1 -->
<g id="node1" class="node">
<title>Node1</title>
<g id="a_node1"><a xlink:title="Removes a CGI file descriptor from the server.">
<polygon fill="#bfbfbf" stroke="black" points="748,-38.5 748,-57.5 924,-57.5 924,-38.5 748,-38.5"/>
<text text-anchor="middle" x="836" y="-45.5" font-family="Helvetica,sans-Serif" font-size="10.00">Server::removeCGIFileDescriptor</text>
</a>
</g>
</g>
<!-- Node2 -->
<g id="node2" class="node">
<title>Node2</title>
<g id="a_node2"><a xlink:href="_server_8hpp.html#a735bf6535f62b5907ea2d5f0e1abf3c7" target="_top" xlink:title="Handles receiving data from a CGI script and processes it accordingly.">
<polygon fill="none" stroke="black" points="561,-57.5 561,-76.5 712,-76.5 712,-57.5 561,-57.5"/>
<text text-anchor="middle" x="636.5" y="-64.5" font-family="Helvetica,sans-Serif" font-size="10.00">connectionReceiveFromCGI</text>
</a>
</g>
</g>
<!-- Node1&#45;&gt;Node2 -->
<g id="edge1" class="edge">
<title>Node1&#45;&gt;Node2</title>
<path fill="none" stroke="midnightblue" d="M737.73,-57.36C729.14,-58.18 720.53,-59.01 712.17,-59.82"/>
<polygon fill="midnightblue" stroke="midnightblue" points="738.18,-60.83 747.8,-56.39 737.51,-53.86 738.18,-60.83"/>
</g>
<!-- Node10 -->
<g id="node10" class="node">
<title>Node10</title>
<g id="a_node10"><a xlink:href="_server_8hpp.html#aa67430205b6049aa70bad4682a7442b8" target="_top" xlink:title="Sends the request body to the CGI process.">
<polygon fill="none" stroke="black" points="575.5,-19.5 575.5,-38.5 697.5,-38.5 697.5,-19.5 575.5,-19.5"/>
<text text-anchor="middle" x="636.5" y="-26.5" font-family="Helvetica,sans-Serif" font-size="10.00">connectionSendToCGI</text>
</a>
</g>
</g>
<!-- Node1&#45;&gt;Node10 -->
<g id="edge10" class="edge">
<title>Node1&#45;&gt;Node10</title>
<path fill="none" stroke="midnightblue" d="M737.83,-38.65C724.11,-37.33 710.35,-36.01 697.61,-34.78"/>
<polygon fill="midnightblue" stroke="midnightblue" points="737.51,-42.14 747.8,-39.61 738.18,-35.17 737.51,-42.14"/>
</g>
<!-- Node3 -->
<g id="node3" class="node">
<title>Node3</title>
<g id="a_node3"><a xlink:href="_server_8hpp.html#a54490f09266c8a5fed4d91166df9a6b3" target="_top" xlink:title="Handle a client connection.">
<polygon fill="none" stroke="black" points="421,-38.5 421,-57.5 525,-57.5 525,-38.5 421,-38.5"/>
<text text-anchor="middle" x="473" y="-45.5" font-family="Helvetica,sans-Serif" font-size="10.00">handleConnection</text>
</a>
</g>
</g>
<!-- Node2&#45;&gt;Node3 -->
<g id="edge2" class="edge">
<title>Node2&#45;&gt;Node3</title>
<path fill="none" stroke="midnightblue" d="M550.69,-57.02C542.01,-56 533.39,-54.99 525.23,-54.03"/>
<polygon fill="midnightblue" stroke="midnightblue" points="550.56,-60.53 560.9,-58.22 551.37,-53.58 550.56,-60.53"/>
</g>
<!-- Node9 -->
<g id="node9" class="node">
<title>Node9</title>
<g id="a_node9"><a xlink:href="test__connection_receive_from_c_g_i_8cpp.html#acd248002a168209089438d39017ca034" target="_top" xlink:title=" ">
<polygon fill="none" stroke="black" points="447,-76.5 447,-95.5 499,-95.5 499,-76.5 447,-76.5"/>
<text text-anchor="middle" x="473" y="-83.5" font-family="Helvetica,sans-Serif" font-size="10.00">TEST_F</text>
</a>
</g>
</g>
<!-- Node2&#45;&gt;Node9 -->
<g id="edge9" class="edge">
<title>Node2&#45;&gt;Node9</title>
<path fill="none" stroke="midnightblue" d="M550.75,-76.97C531.95,-79.18 513.44,-81.36 499.3,-83.02"/>
<polygon fill="midnightblue" stroke="midnightblue" points="551.37,-80.42 560.9,-75.78 550.56,-73.47 551.37,-80.42"/>
</g>
<!-- Node4 -->
<g id="node4" class="node">
<title>Node4</title>
<g id="a_node4"><a xlink:href="_server_8hpp.html#a4211c4d6b958979b39b3dfc8148c801a" target="_top" xlink:title="Accepts new connections or handles existing ones.">
<polygon fill="none" stroke="black" points="308,-38.5 308,-57.5 385,-57.5 385,-38.5 308,-38.5"/>
<text text-anchor="middle" x="346.5" y="-45.5" font-family="Helvetica,sans-Serif" font-size="10.00">handleEvent</text>
</a>
</g>
</g>
<!-- Node3&#45;&gt;Node4 -->
<g id="edge3" class="edge">
<title>Node3&#45;&gt;Node4</title>
<path fill="none" stroke="midnightblue" d="M410.49,-48C401.8,-48 393.1,-48 385.05,-48"/>
<polygon fill="midnightblue" stroke="midnightblue" points="410.64,-51.5 420.64,-48 410.64,-44.5 410.64,-51.5"/>
</g>
<!-- Node5 -->
<g id="node5" class="node">
<title>Node5</title>
<g id="a_node5"><a xlink:href="_server_8hpp.html#ab66b27c2186daacb15a6b13dd43be31b" target="_top" xlink:title="Runs the main event loop with a server object.">
<polygon fill="none" stroke="black" points="77,-57.5 77,-76.5 141,-76.5 141,-57.5 77,-57.5"/>
<text text-anchor="middle" x="109" y="-64.5" font-family="Helvetica,sans-Serif" font-size="10.00">runServer</text>
</a>
</g>
</g>
<!-- Node4&#45;&gt;Node5 -->
<g id="edge4" class="edge">
<title>Node4&#45;&gt;Node5</title>
<path fill="none" stroke="midnightblue" d="M297.73,-51.85C250.95,-55.63 181.04,-61.27 141.05,-64.49"/>
<polygon fill="midnightblue" stroke="midnightblue" points="298.24,-55.32 307.92,-51.03 297.67,-48.35 298.24,-55.32"/>
</g>
<!-- Node7 -->
<g id="node7" class="node">
<title>Node7</title>
<g id="a_node7"><a xlink:href="_server_8hpp.html#a115ecd76e344c1007bedc48b9bbdc0fa" target="_top" xlink:title="Performs a graceful shutdown of the server.">
<polygon fill="none" stroke="black" points="177,-19.5 177,-38.5 272,-38.5 272,-19.5 177,-19.5"/>
<text text-anchor="middle" x="224.5" y="-26.5" font-family="Helvetica,sans-Serif" font-size="10.00">shutdownServer</text>
</a>
</g>
</g>
<!-- Node4&#45;&gt;Node7 -->
<g id="edge6" class="edge">
<title>Node4&#45;&gt;Node7</title>
<path fill="none" stroke="midnightblue" d="M297.82,-40.45C289.42,-39.12 280.68,-37.74 272.3,-36.41"/>
<polygon fill="midnightblue" stroke="midnightblue" points="297.44,-43.93 307.86,-42.04 298.53,-37.02 297.44,-43.93"/>
</g>
<!-- Node6 -->
<g id="node6" class="node">
<title>Node6</title>
<g id="a_node6"><a xlink:href="main_8cpp.html#a3c04138a5bfe5d72780bb7e82a18e627" target="_top" xlink:title=" ">
<polygon fill="none" stroke="black" points="0,-57.5 0,-76.5 41,-76.5 41,-57.5 0,-57.5"/>
<text text-anchor="middle" x="20.5" y="-64.5" font-family="Helvetica,sans-Serif" font-size="10.00">main</text>
</a>
</g>
</g>
<!-- Node5&#45;&gt;Node6 -->
<g id="edge5" class="edge">
<title>Node5&#45;&gt;Node6</title>
<path fill="none" stroke="midnightblue" d="M66.5,-67C57.64,-67 48.68,-67 41.11,-67"/>
<polygon fill="midnightblue" stroke="midnightblue" points="66.77,-70.5 76.77,-67 66.77,-63.5 66.77,-70.5"/>
</g>
<!-- Node7&#45;&gt;Node5 -->
<g id="edge7" class="edge">
<title>Node7&#45;&gt;Node5</title>
<path fill="none" stroke="midnightblue" d="M185.19,-41.83C169.96,-46.92 152.74,-52.69 138.63,-57.41"/>
<polygon fill="midnightblue" stroke="midnightblue" points="186.49,-45.08 194.86,-38.59 184.27,-38.44 186.49,-45.08"/>
</g>
<!-- Node8 -->
<g id="node8" class="node">
<title>Node8</title>
<g id="a_node8"><a xlink:href="test__shutdown_server_8cpp.html#ae0ede4f52ef6c742c532c14b92b6179a" target="_top" xlink:title=" ">
<polygon fill="none" stroke="black" points="83,-19.5 83,-38.5 135,-38.5 135,-19.5 83,-19.5"/>
<text text-anchor="middle" x="109" y="-26.5" font-family="Helvetica,sans-Serif" font-size="10.00">TEST_F</text>
</a>
</g>
</g>
<!-- Node7&#45;&gt;Node8 -->
<g id="edge8" class="edge">
<title>Node7&#45;&gt;Node8</title>
<path fill="none" stroke="midnightblue" d="M166.63,-29C155.63,-29 144.64,-29 135.3,-29"/>
<polygon fill="midnightblue" stroke="midnightblue" points="166.68,-32.5 176.68,-29 166.68,-25.5 166.68,-32.5"/>
</g>
<!-- Node10&#45;&gt;Node3 -->
<g id="edge11" class="edge">
<title>Node10&#45;&gt;Node3</title>
<path fill="none" stroke="midnightblue" d="M565.18,-37.27C551.73,-38.86 537.89,-40.48 525.18,-41.98"/>
<polygon fill="midnightblue" stroke="midnightblue" points="565.84,-40.72 575.36,-36.07 565.02,-33.77 565.84,-40.72"/>
</g>
<!-- Node11 -->
<g id="node11" class="node">
<title>Node11</title>
<g id="a_node11"><a xlink:href="test__connection_send_to_c_g_i_8cpp.html#a71e710d9b5f2f4a568086e70def06ccc" target="_top" xlink:title=" ">
<polygon fill="none" stroke="black" points="447,-0.5 447,-19.5 499,-19.5 499,-0.5 447,-0.5"/>
<text text-anchor="middle" x="473" y="-7.5" font-family="Helvetica,sans-Serif" font-size="10.00">TEST_F</text>
</a>
</g>
</g>
<!-- Node10&#45;&gt;Node11 -->
<g id="edge12" class="edge">
<title>Node10&#45;&gt;Node11</title>
<path fill="none" stroke="midnightblue" d="M565.35,-20.75C541.76,-17.97 516.95,-15.05 499.14,-12.96"/>
<polygon fill="midnightblue" stroke="midnightblue" points="565.02,-24.23 575.36,-21.93 565.84,-17.28 565.02,-24.23"/>
</g>
</g>
</svg>
