<?xml version="1.0" encoding="UTF-8" standalone="no"?>
<!DOCTYPE svg PUBLIC "-//W3C//DTD SVG 1.1//EN"
 "http://www.w3.org/Graphics/SVG/1.1/DTD/svg11.dtd">
<!-- Generated by graphviz version 2.43.0 (0)
 -->
<!-- Title: ResponseBodyHandler::execute Pages: 1 -->
<!--zoomable 142 -->
<svg id="main" version="1.1" xmlns="http://www.w3.org/2000/svg" xmlns:xlink="http://www.w3.org/1999/xlink" xml:space="preserve" onload="init(evt)">
<style type="text/css"><![CDATA[
.edge:hover path { stroke: red; }
.edge:hover polygon { stroke: red; fill: red; }
]]></style>
<script type="text/javascript"><![CDATA[
var edges = document.getElementsByTagName('g');
if (edges && edges.length) {
  for (var i=0;i<edges.length;i++) {
    if (edges[i].id.substr(0,4)=='edge') {
      edges[i].setAttribute('class','edge');
    }
  }
}
]]></script>
        <defs>
                <circle id="rim" cx="0" cy="0" r="7"/>
                <circle id="rim2" cx="0" cy="0" r="3.5"/>
                <g id="zoomPlus">
                        <use xlink:href="#rim" fill="#404040">
                                <set attributeName="fill" to="#808080" begin="zoomplus.mouseover" end="zoomplus.mouseout"/>
                        </use>
                        <path d="M-4,0h8M0,-4v8" fill="none" stroke="white" stroke-width="1.5" pointer-events="none"/>
                </g>
                <g id="zoomMin">
                        <use xlink:href="#rim" fill="#404040">
                                <set attributeName="fill" to="#808080" begin="zoomminus.mouseover" end="zoomminus.mouseout"/>
                        </use>
                        <path d="M-4,0h8" fill="none" stroke="white" stroke-width="1.5" pointer-events="none"/>
                </g>
                <g id="dirArrow">
                        <path fill="none" stroke="white" stroke-width="1.5" d="M0,-3.0v7 M-2.5,-0.5L0,-3.0L2.5,-0.5"/>
                </g>
               <g id="resetDef">
                       <use xlink:href="#rim2" fill="#404040">
                               <set attributeName="fill" to="#808080" begin="reset.mouseover" end="reset.mouseout"/>
                       </use>
               </g>
        </defs>

<script type="text/javascript">
var viewWidth = 722;
var viewHeight = 142;
var sectionId = 'dynsection-0';
</script>
<script xlink:href="svgpan.js"/>
<svg id="graph" class="graph">
<g id="viewport">
<title>ResponseBodyHandler::execute</title>
<!-- Node1 -->
<g id="node1" class="node">
<title>Node1</title>
<g id="a_node1"><a xlink:title="Create the response body.">
<polygon fill="#bfbfbf" stroke="black" points="0,-30 0,-60 127,-60 127,-30 0,-30"/>
<text text-anchor="start" x="8" y="-48" font-family="Helvetica,sans-Serif" font-size="10.00">ResponseBodyHandler</text>
<text text-anchor="middle" x="63.5" y="-37" font-family="Helvetica,sans-Serif" font-size="10.00">::execute</text>
</a>
</g>
</g>
<!-- Node2 -->
<g id="node2" class="node">
<title>Node2</title>
<g id="a_node2"><a xlink:href="class_autoindex_handler.html#a4ad00ccbce16e8913e108e9bf1114c3f" target="_top" xlink:title="Execute the autoindex handler.">
<polygon fill="none" stroke="black" points="163,-57.5 163,-76.5 312,-76.5 312,-57.5 163,-57.5"/>
<text text-anchor="middle" x="237.5" y="-64.5" font-family="Helvetica,sans-Serif" font-size="10.00">AutoindexHandler::execute</text>
</a>
</g>
</g>
<!-- Node1&#45;&gt;Node2 -->
<g id="edge1" class="edge">
<title>Node1&#45;&gt;Node2</title>
<path fill="none" stroke="midnightblue" d="M127.08,-53C135.44,-54.07 144.11,-55.18 152.75,-56.29"/>
<polygon fill="midnightblue" stroke="midnightblue" points="152.5,-59.78 162.86,-57.58 153.39,-52.84 152.5,-59.78"/>
</g>
<!-- Node9 -->
<g id="node9" class="node">
<title>Node9</title>
<g id="a_node9"><a xlink:href="class_file_system_policy.html#a700e01137b08674976427c869e078cc9" target="_top" xlink:title="Gets the contents of a file.">
<polygon fill="none" stroke="black" points="168.5,-8 168.5,-38 306.5,-38 306.5,-8 168.5,-8"/>
<text text-anchor="start" x="176.5" y="-26" font-family="Helvetica,sans-Serif" font-size="10.00">FileSystemPolicy::getFile</text>
<text text-anchor="middle" x="237.5" y="-15" font-family="Helvetica,sans-Serif" font-size="10.00">Contents</text>
</a>
</g>
</g>
<!-- Node1&#45;&gt;Node9 -->
<g id="edge8" class="edge">
<title>Node1&#45;&gt;Node9</title>
<path fill="none" stroke="midnightblue" d="M127.08,-37C137.27,-35.69 147.94,-34.33 158.44,-32.98"/>
<polygon fill="midnightblue" stroke="midnightblue" points="158.97,-36.44 168.45,-31.7 158.08,-29.5 158.97,-36.44"/>
</g>
<!-- Node3 -->
<g id="node3" class="node">
<title>Node3</title>
<g id="a_node3"><a xlink:href="class_directory.html#a09da8cd603ddb22990c5bb8165e14ea8" target="_top" xlink:title="Get the entries in the directory.">
<polygon fill="none" stroke="black" points="369,-114.5 369,-133.5 485,-133.5 485,-114.5 369,-114.5"/>
<text text-anchor="middle" x="427" y="-121.5" font-family="Helvetica,sans-Serif" font-size="10.00">Directory::getEntries</text>
</a>
</g>
</g>
<!-- Node2&#45;&gt;Node3 -->
<g id="edge2" class="edge">
<title>Node2&#45;&gt;Node3</title>
<path fill="none" stroke="midnightblue" d="M263.94,-76.6C285.99,-84.74 318.85,-96.41 348,-105 356.35,-107.46 365.28,-109.85 373.99,-112.06"/>
<polygon fill="midnightblue" stroke="midnightblue" points="373.16,-115.46 383.7,-114.47 374.84,-108.67 373.16,-115.46"/>
</g>
<!-- Node5 -->
<g id="node5" class="node">
<title>Node5</title>
<g id="a_node5"><a xlink:href="_autoindex_handler_8cpp.html#aa1cdc5b5774ab502cc67a723e7634b3f" target="_top" xlink:title="Get the file size of a file.">
<polygon fill="none" stroke="black" points="392,-76.5 392,-95.5 462,-95.5 462,-76.5 392,-76.5"/>
<text text-anchor="middle" x="427" y="-83.5" font-family="Helvetica,sans-Serif" font-size="10.00">getFileSize</text>
</a>
</g>
</g>
<!-- Node2&#45;&gt;Node5 -->
<g id="edge4" class="edge">
<title>Node2&#45;&gt;Node5</title>
<path fill="none" stroke="midnightblue" d="M312.07,-74.45C335.59,-76.84 360.89,-79.4 381.66,-81.51"/>
<polygon fill="midnightblue" stroke="midnightblue" points="381.47,-85.01 391.77,-82.53 382.17,-78.04 381.47,-85.01"/>
</g>
<!-- Node6 -->
<g id="node6" class="node">
<title>Node6</title>
<g id="a_node6"><a xlink:href="class_file_system_policy.html#ad2571bc684c5f8db457d8e282729f832" target="_top" xlink:title="Gets the file status of a path.">
<polygon fill="none" stroke="black" points="348,-38.5 348,-57.5 506,-57.5 506,-38.5 348,-38.5"/>
<text text-anchor="middle" x="427" y="-45.5" font-family="Helvetica,sans-Serif" font-size="10.00">FileSystemPolicy::getFileStat</text>
</a>
</g>
</g>
<!-- Node2&#45;&gt;Node6 -->
<g id="edge5" class="edge">
<title>Node2&#45;&gt;Node6</title>
<path fill="none" stroke="midnightblue" d="M312.07,-59.55C320.47,-58.69 329.11,-57.82 337.68,-56.95"/>
<polygon fill="midnightblue" stroke="midnightblue" points="338.1,-60.42 347.7,-55.93 337.4,-53.46 338.1,-60.42"/>
</g>
<!-- Node7 -->
<g id="node7" class="node">
<title>Node7</title>
<g id="a_node7"><a xlink:href="_autoindex_handler_8cpp.html#a1ca36f6cd35dba3c07da2bc0e3380cf1" target="_top" xlink:title="Get the last modified time of a file.">
<polygon fill="none" stroke="black" points="367.5,-0.5 367.5,-19.5 486.5,-19.5 486.5,-0.5 367.5,-0.5"/>
<text text-anchor="middle" x="427" y="-7.5" font-family="Helvetica,sans-Serif" font-size="10.00">getLastModifiedTime</text>
</a>
</g>
</g>
<!-- Node2&#45;&gt;Node7 -->
<g id="edge6" class="edge">
<title>Node2&#45;&gt;Node7</title>
<path fill="none" stroke="midnightblue" d="M279.4,-57.41C290.14,-54.48 301.62,-50.96 312,-47 328.71,-40.62 331.2,-35.16 348,-29 354.84,-26.49 362.13,-24.22 369.42,-22.19"/>
<polygon fill="midnightblue" stroke="midnightblue" points="370.53,-25.51 379.29,-19.56 368.73,-18.75 370.53,-25.51"/>
</g>
<!-- Node4 -->
<g id="node4" class="node">
<title>Node4</title>
<g id="a_node4"><a xlink:href="class_file_system_policy.html#ad23fadf21355a78cce6e905f61611469" target="_top" xlink:title="Reads a directory.">
<polygon fill="none" stroke="black" points="542,-114.5 542,-133.5 714,-133.5 714,-114.5 542,-114.5"/>
<text text-anchor="middle" x="628" y="-121.5" font-family="Helvetica,sans-Serif" font-size="10.00">FileSystemPolicy::readDirectory</text>
</a>
</g>
</g>
<!-- Node3&#45;&gt;Node4 -->
<g id="edge3" class="edge">
<title>Node3&#45;&gt;Node4</title>
<path fill="none" stroke="midnightblue" d="M485.03,-124C499.53,-124 515.53,-124 531.39,-124"/>
<polygon fill="midnightblue" stroke="midnightblue" points="531.77,-127.5 541.77,-124 531.77,-120.5 531.77,-127.5"/>
</g>
<!-- Node8 -->
<g id="node8" class="node">
<title>Node8</title>
<g id="a_node8"><a xlink:href="namespacewebutils.html#ab6119b08526700518f576bb78554be59" target="_top" xlink:title="Returns localtime string in provided format.">
<polygon fill="none" stroke="black" points="550,-0.5 550,-19.5 706,-19.5 706,-0.5 550,-0.5"/>
<text text-anchor="middle" x="628" y="-7.5" font-family="Helvetica,sans-Serif" font-size="10.00">webutils::getLocaltimeString</text>
</a>
</g>
</g>
<!-- Node7&#45;&gt;Node8 -->
<g id="edge7" class="edge">
<title>Node7&#45;&gt;Node8</title>
<path fill="none" stroke="midnightblue" d="M486.63,-10C503.29,-10 521.8,-10 539.76,-10"/>
<polygon fill="midnightblue" stroke="midnightblue" points="539.96,-13.5 549.96,-10 539.96,-6.5 539.96,-13.5"/>
</g>
</g>
</svg>
        <g id="navigator" transform="translate(0 0)" fill="#404254">
                <rect fill="#f2f5e9" fill-opacity="0.5" stroke="#606060" stroke-width=".5" x="0" y="0" width="60" height="60"/>
                <use id="zoomplus" xlink:href="#zoomPlus" x="17" y="9" onmousedown="handleZoom(evt,'in')"/>
                <use id="zoomminus" xlink:href="#zoomMin" x="42" y="9" onmousedown="handleZoom(evt,'out')"/>
                <use id="reset" xlink:href="#resetDef" x="30" y="36" onmousedown="handleReset()"/>
                <g id="arrowUp" xlink:href="#dirArrow" transform="translate(30 24)" onmousedown="handlePan(0,-1)">
                  <use xlink:href="#rim" fill="#404040">
                        <set attributeName="fill" to="#808080" begin="arrowUp.mouseover" end="arrowUp.mouseout"/>
                  </use>
                  <path fill="none" stroke="white" stroke-width="1.5" d="M0,-3.0v7 M-2.5,-0.5L0,-3.0L2.5,-0.5"/>
                </g>
                <g id="arrowRight" xlink:href="#dirArrow" transform="rotate(90) translate(36 -43)" onmousedown="handlePan(1,0)">
                  <use xlink:href="#rim" fill="#404040">
                        <set attributeName="fill" to="#808080" begin="arrowRight.mouseover" end="arrowRight.mouseout"/>
                  </use>
                  <path fill="none" stroke="white" stroke-width="1.5" d="M0,-3.0v7 M-2.5,-0.5L0,-3.0L2.5,-0.5"/>
                </g>
                <g id="arrowDown" xlink:href="#dirArrow" transform="rotate(180) translate(-30 -48)" onmousedown="handlePan(0,1)">
                  <use xlink:href="#rim" fill="#404040">
                        <set attributeName="fill" to="#808080" begin="arrowDown.mouseover" end="arrowDown.mouseout"/>
                  </use>
                  <path fill="none" stroke="white" stroke-width="1.5" d="M0,-3.0v7 M-2.5,-0.5L0,-3.0L2.5,-0.5"/>
                </g>
                <g id="arrowLeft" xlink:href="#dirArrow" transform="rotate(270) translate(-36 17)" onmousedown="handlePan(-1,0)">
                  <use xlink:href="#rim" fill="#404040">
                        <set attributeName="fill" to="#808080" begin="arrowLeft.mouseover" end="arrowLeft.mouseout"/>
                  </use>
                  <path fill="none" stroke="white" stroke-width="1.5" d="M0,-3.0v7 M-2.5,-0.5L0,-3.0L2.5,-0.5"/>
                </g>
        </g>
        <svg viewBox="0 0 15 15" width="100%" height="30px" preserveAspectRatio="xMaxYMin meet">
         <g id="arrow_out" transform="scale(0.3 0.3)">
          <a xlink:href="class_response_body_handler_a0660b57e440e2c519761817d178818c0_cgraph_org.svg" target="_base">
           <rect id="button" ry="5" rx="5" y="6" x="6" height="38" width="38"
                fill="#f2f5e9" fill-opacity="0.5" stroke="#606060" stroke-width="1.0"/>
           <path id="arrow"
             d="M 11.500037,31.436501 C 11.940474,20.09759 22.043105,11.32322 32.158766,21.979434 L 37.068811,17.246167 C 37.068811,17.246167 37.088388,32 37.088388,32 L 22.160133,31.978069 C 22.160133,31.978069 26.997745,27.140456 26.997745,27.140456 C 18.528582,18.264221 13.291696,25.230495 11.500037,31.436501 z"
             style="fill:#404040;"/>
          </a>
         </g>
        </svg>
</svg>
