<?xml version="1.0" encoding="UTF-8" standalone="no"?>
<!DOCTYPE svg PUBLIC "-//W3C//DTD SVG 1.1//EN"
 "http://www.w3.org/Graphics/SVG/1.1/DTD/svg11.dtd">
<!-- Generated by graphviz version 2.43.0 (0)
 -->
<!-- Title: Server::getCGIConnections Pages: 1 -->
<!--zoomable 416 -->

<svg id="main" version="1.1" xmlns="http://www.w3.org/2000/svg" xmlns:xlink="http://www.w3.org/1999/xlink" xml:space="preserve" onload="init(evt)">
<style type="text/css"><![CDATA[
.node, .edge {opacity: 0.7;}
.node.selected, .edge.selected {opacity: 1;}
.edge:hover path { stroke: red; }
.edge:hover polygon { stroke: red; fill: red; }
]]></style>

<defs>
  <circle id="rim" cx="0" cy="0" r="7"/>
  <circle id="rim2" cx="0" cy="0" r="3.5"/>
  <g id="zoomPlus">
    <use xlink:href="#rim" fill="#404040"><set attributeName="fill" to="#808080" begin="zoomplus.mouseover" end="zoomplus.mouseout"/></use>
    <path d="M-4,0h8M0,-4v8" fill="none" stroke="white" stroke-width="1.5" pointer-events="none"/>
  </g>
  <g id="zoomMin">
    <use xlink:href="#rim" fill="#404040"><set attributeName="fill" to="#808080" begin="zoomminus.mouseover" end="zoomminus.mouseout"/></use>
    <path d="M-4,0h8" fill="none" stroke="white" stroke-width="1.5" pointer-events="none"/>
  </g>
  <g id="arrowUp" transform="translate(30 24)">
    <use xlink:href="#rim"/>
    <path pointer-events="none" fill="none" stroke="white" stroke-width="1.5" d="M0,-3.0v7 M-2.5,-0.5L0,-3.0L2.5,-0.5"/>
  </g>
  <g id="arrowRight" transform="rotate(90) translate(36 -43)">
    <use xlink:href="#rim"/>
    <path pointer-events="none" fill="none" stroke="white" stroke-width="1.5" d="M0,-3.0v7 M-2.5,-0.5L0,-3.0L2.5,-0.5"/>
  </g>
  <g id="arrowDown" transform="rotate(180) translate(-30 -48)">
    <use xlink:href="#rim"/>
    <path pointer-events="none" fill="none" stroke="white" stroke-width="1.5" d="M0,-3.0v7 M-2.5,-0.5L0,-3.0L2.5,-0.5"/>
  </g>
  <g id="arrowLeft" transform="rotate(270) translate(-36 17)">
    <use xlink:href="#rim"/>
    <path pointer-events="none" fill="none" stroke="white" stroke-width="1.5" d="M0,-3.0v7 M-2.5,-0.5L0,-3.0L2.5,-0.5"/>
  </g>
  <g id="resetDef">
    <use xlink:href="#rim2" fill="#404040"><set attributeName="fill" to="#808080" begin="reset.mouseover" end="reset.mouseout"/></use>
  </g>
</defs>
<script type="application/ecmascript">
var viewWidth = 1115;
var viewHeight = 416;
var sectionId = 'dynsection-5';
</script>
<script type="application/ecmascript" xlink:href="svg.min.js"/>
<svg id="graph" class="graph">
<g id="viewport">
<title>Server::getCGIConnections</title>
<!-- Node1 -->
<g id="Node000001" class="node">
<title>Node1</title>
<g id="a_Node000001"><a xlink:title="Getter for cgiConnections.">
<polygon fill="#999999" stroke="#666666" points="1107,-296 960,-296 960,-277 1107,-277 1107,-296"/>
<text text-anchor="middle" x="1033.5" y="-284" font-family="Helvetica,sans-Serif" font-size="10.00">Server::getCGIConnections</text>
</a>
</g>
</g>
<!-- Node2 -->
<g id="Node000002" class="node">
<title>Node2</title>
<g id="a_Node000002"><a xlink:href="_server_8cpp.html#a83350eae81b96dd7b301d1238268ffdb" target="_top" xlink:title="Handles the complete request header received from a client.">
<polygon fill="white" stroke="#666666" points="922,-167 750,-167 750,-148 922,-148 922,-167"/>
<text text-anchor="middle" x="836" y="-155" font-family="Helvetica,sans-Serif" font-size="10.00">handleCompleteRequestHeader</text>
</a>
</g>
</g>
<!-- Node1&#45;&gt;Node2 -->
<g id="edge1_Node000001_Node000002" class="edge">
<title>Node1&#45;&gt;Node2</title>
<g id="a_edge1_Node000001_Node000002"><a xlink:title=" ">
<path fill="none" stroke="#63b8ff" d="M1009.33,-271.21C968.6,-244.33 885.27,-189.35 851.6,-167.13"/>
<polygon fill="#63b8ff" stroke="#63b8ff" points="1007.53,-274.22 1017.81,-276.8 1011.39,-268.38 1007.53,-274.22"/>
</a>
</g>
</g>
<!-- Node5 -->
<g id="Node000005" class="node">
<title>Node5</title>
<g id="a_Node000005"><a xlink:href="_server_8cpp.html#af9f4479a6262c17deef89938118d27f4" target="_top" xlink:title="Accepts new connections or handles existing ones.">
<polygon fill="white" stroke="#666666" points="385,-334 308,-334 308,-315 385,-315 385,-334"/>
<text text-anchor="middle" x="346.5" y="-322" font-family="Helvetica,sans-Serif" font-size="10.00">handleEvent</text>
</a>
</g>
</g>
<!-- Node1&#45;&gt;Node5 -->
<g id="edge22_Node000001_Node000005" class="edge">
<title>Node1&#45;&gt;Node5</title>
<g id="a_edge22_Node000001_Node000005"><a xlink:title=" ">
<path fill="none" stroke="#63b8ff" d="M991.21,-298.83C905.38,-323.73 701.01,-379.31 525,-398.5 479.05,-403.51 463.67,-416.26 421,-398.5 389.24,-385.28 364.14,-350.92 353.3,-334.08"/>
<polygon fill="#63b8ff" stroke="#63b8ff" points="992.22,-302.18 1000.84,-296.02 990.26,-295.46 992.22,-302.18"/>
</a>
</g>
</g>
<!-- Node22 -->
<g id="Node000022" class="node">
<title>Node22</title>
<g id="a_Node000022"><a xlink:href="class_server.html#ab4a0ae2ec5d126062a7c5d4a2f78160a" target="_top" xlink:title="Removes a CGI file descriptor from the server.">
<polygon fill="white" stroke="#666666" points="924,-296 748,-296 748,-277 924,-277 924,-296"/>
<text text-anchor="middle" x="836" y="-284" font-family="Helvetica,sans-Serif" font-size="10.00">Server::removeCGIFileDescriptor</text>
</a>
</g>
</g>
<!-- Node1&#45;&gt;Node22 -->
<g id="edge23_Node000001_Node000022" class="edge">
<title>Node1&#45;&gt;Node22</title>
<g id="a_edge23_Node000001_Node000022"><a xlink:title=" ">
<path fill="none" stroke="#63b8ff" d="M949.79,-286.5C941.35,-286.5 932.77,-286.5 924.29,-286.5"/>
<polygon fill="#63b8ff" stroke="#63b8ff" points="949.98,-290 959.98,-286.5 949.98,-283 949.98,-290"/>
</a>
</g>
</g>
<!-- Node3 -->
<g id="Node000003" class="node">
<title>Node3</title>
<g id="a_Node000003"><a xlink:href="_server_8cpp.html#aa45d6529fd7be9b7adf788a9679ae34b" target="_top" xlink:title="Receive request header from a client.">
<polygon fill="white" stroke="#666666" points="708.5,-130 564.5,-130 564.5,-111 708.5,-111 708.5,-130"/>
<text text-anchor="middle" x="636.5" y="-118" font-family="Helvetica,sans-Serif" font-size="10.00">connectionReceiveHeader</text>
</a>
</g>
</g>
<!-- Node2&#45;&gt;Node3 -->
<g id="edge2_Node000002_Node000003" class="edge">
<title>Node2&#45;&gt;Node3</title>
<g id="a_edge2_Node000002_Node000003"><a xlink:title=" ">
<path fill="none" stroke="#63b8ff" d="M774.25,-146.12C746.8,-140.98 714.72,-134.97 688.53,-130.06"/>
<polygon fill="#63b8ff" stroke="#63b8ff" points="773.67,-149.57 784.14,-147.97 774.95,-142.69 773.67,-149.57"/>
</a>
</g>
</g>
<!-- Node17 -->
<g id="Node000017" class="node">
<title>Node17</title>
<g id="a_Node000017"><a xlink:href="test__handle_complete_request_header_8cpp.html#a04308ae6ca27d5aac2ee1ae95e818f78" target="_top" xlink:title=" ">
<polygon fill="white" stroke="#666666" points="662.5,-93 610.5,-93 610.5,-74 662.5,-74 662.5,-93"/>
<text text-anchor="middle" x="636.5" y="-81" font-family="Helvetica,sans-Serif" font-size="10.00">TEST_F</text>
</a>
</g>
</g>
<!-- Node2&#45;&gt;Node17 -->
<g id="edge17_Node000002_Node000017" class="edge">
<title>Node2&#45;&gt;Node17</title>
<g id="a_edge17_Node000002_Node000017"><a xlink:title=" ">
<path fill="none" stroke="#63b8ff" d="M807.64,-143.22C783.11,-130.86 745.88,-113.18 712,-101.5 695.9,-95.95 677.27,-91.45 662.67,-88.33"/>
<polygon fill="#63b8ff" stroke="#63b8ff" points="806.2,-146.41 816.7,-147.83 809.37,-140.17 806.2,-146.41"/>
</a>
</g>
</g>
<!-- Node18 -->
<g id="Node000018" class="node">
<title>Node18</title>
<g id="a_Node000018"><a xlink:href="test__handle_complete_request_header_8cpp.html#a00d3c07453ceb8ca6576a951222a7829" target="_top" xlink:title=" ">
<polygon fill="white" stroke="#666666" points="662.5,-56 610.5,-56 610.5,-37 662.5,-37 662.5,-56"/>
<text text-anchor="middle" x="636.5" y="-44" font-family="Helvetica,sans-Serif" font-size="10.00">TEST_F</text>
</a>
</g>
</g>
<!-- Node2&#45;&gt;Node18 -->
<g id="edge18_Node000002_Node000018" class="edge">
<title>Node2&#45;&gt;Node18</title>
<g id="a_edge18_Node000002_Node000018"><a xlink:title=" ">
<path fill="none" stroke="#63b8ff" d="M818.06,-141C795.64,-120.1 754.02,-84.4 712,-64.5 696.37,-57.1 677.4,-52.57 662.52,-49.91"/>
<polygon fill="#63b8ff" stroke="#63b8ff" points="815.75,-143.64 825.41,-147.98 820.57,-138.56 815.75,-143.64"/>
</a>
</g>
</g>
<!-- Node19 -->
<g id="Node000019" class="node">
<title>Node19</title>
<g id="a_Node000019"><a xlink:href="test__handle_complete_request_header_8cpp.html#a5705d4672adfefa8169bd3e9406e75f6" target="_top" xlink:title=" ">
<polygon fill="white" stroke="#666666" points="662.5,-241 610.5,-241 610.5,-222 662.5,-222 662.5,-241"/>
<text text-anchor="middle" x="636.5" y="-229" font-family="Helvetica,sans-Serif" font-size="10.00">TEST_F</text>
</a>
</g>
</g>
<!-- Node2&#45;&gt;Node19 -->
<g id="edge19_Node000002_Node000019" class="edge">
<title>Node2&#45;&gt;Node19</title>
<g id="a_edge19_Node000002_Node000019"><a xlink:title=" ">
<path fill="none" stroke="#63b8ff" d="M807.14,-171.6C782.57,-183.65 745.54,-200.82 712,-212.5 695.86,-218.12 677.24,-222.87 662.65,-226.21"/>
<polygon fill="#63b8ff" stroke="#63b8ff" points="808.82,-174.68 816.23,-167.11 805.72,-168.4 808.82,-174.68"/>
</a>
</g>
</g>
<!-- Node20 -->
<g id="Node000020" class="node">
<title>Node20</title>
<g id="a_Node000020"><a xlink:href="test__handle_complete_request_header_8cpp.html#a63c4237c8b0edef77a20f599133d77d4" target="_top" xlink:title=" ">
<polygon fill="white" stroke="#666666" points="662.5,-204 610.5,-204 610.5,-185 662.5,-185 662.5,-204"/>
<text text-anchor="middle" x="636.5" y="-192" font-family="Helvetica,sans-Serif" font-size="10.00">TEST_F</text>
</a>
</g>
</g>
<!-- Node2&#45;&gt;Node20 -->
<g id="edge20_Node000002_Node000020" class="edge">
<title>Node2&#45;&gt;Node20</title>
<g id="a_edge20_Node000002_Node000020"><a xlink:title=" ">
<path fill="none" stroke="#63b8ff" d="M774.3,-168.87C736.76,-175.9 690.56,-184.56 662.6,-189.8"/>
<polygon fill="#63b8ff" stroke="#63b8ff" points="774.95,-172.31 784.14,-167.03 773.67,-165.43 774.95,-172.31"/>
</a>
</g>
</g>
<!-- Node21 -->
<g id="Node000021" class="node">
<title>Node21</title>
<g id="a_Node000021"><a xlink:href="test__handle_complete_request_header_8cpp.html#a7e6245bb424d27191d406b619a2fe40b" target="_top" xlink:title=" ">
<polygon fill="white" stroke="#666666" points="662.5,-167 610.5,-167 610.5,-148 662.5,-148 662.5,-167"/>
<text text-anchor="middle" x="636.5" y="-155" font-family="Helvetica,sans-Serif" font-size="10.00">TEST_F</text>
</a>
</g>
</g>
<!-- Node2&#45;&gt;Node21 -->
<g id="edge21_Node000002_Node000021" class="edge">
<title>Node2&#45;&gt;Node21</title>
<g id="a_edge21_Node000002_Node000021"><a xlink:title=" ">
<path fill="none" stroke="#63b8ff" d="M739.79,-157.5C711.36,-157.5 682.54,-157.5 662.77,-157.5"/>
<polygon fill="#63b8ff" stroke="#63b8ff" points="739.81,-161 749.81,-157.5 739.81,-154 739.81,-161"/>
</a>
</g>
</g>
<!-- Node4 -->
<g id="Node000004" class="node">
<title>Node4</title>
<g id="a_Node000004"><a xlink:href="_server_8cpp.html#afb62203471d9a64b23d0267d5a4a261a" target="_top" xlink:title="Handle a client connection.">
<polygon fill="white" stroke="#666666" points="525,-241 421,-241 421,-222 525,-222 525,-241"/>
<text text-anchor="middle" x="473" y="-229" font-family="Helvetica,sans-Serif" font-size="10.00">handleConnection</text>
</a>
</g>
</g>
<!-- Node3&#45;&gt;Node4 -->
<g id="edge3_Node000003_Node000004" class="edge">
<title>Node3&#45;&gt;Node4</title>
<g id="a_edge3_Node000003_Node000004"><a xlink:title=" ">
<path fill="none" stroke="#63b8ff" d="M566,-134.91C564.27,-136.02 562.59,-137.22 561,-138.5 532.5,-161.43 552.07,-187.91 525,-212.5 520.73,-216.37 515.6,-219.48 510.27,-221.97"/>
<polygon fill="#63b8ff" stroke="#63b8ff" points="567.96,-137.84 575.11,-130.03 564.65,-131.67 567.96,-137.84"/>
</a>
</g>
</g>
<!-- Node12 -->
<g id="Node000012" class="node">
<title>Node12</title>
<g id="a_Node000012"><a xlink:href="test__connection_receive_header_8cpp.html#ae40546436ca5ae6d8af1f754dfff4a98" target="_top" xlink:title=" ">
<polygon fill="white" stroke="#666666" points="499,-130 447,-130 447,-111 499,-111 499,-130"/>
<text text-anchor="middle" x="473" y="-118" font-family="Helvetica,sans-Serif" font-size="10.00">TEST_F</text>
</a>
</g>
</g>
<!-- Node3&#45;&gt;Node12 -->
<g id="edge12_Node000003_Node000012" class="edge">
<title>Node3&#45;&gt;Node12</title>
<g id="a_edge12_Node000003_Node000012"><a xlink:title=" ">
<path fill="none" stroke="#63b8ff" d="M554.11,-120.5C534.18,-120.5 514.31,-120.5 499.34,-120.5"/>
<polygon fill="#63b8ff" stroke="#63b8ff" points="554.19,-124 564.19,-120.5 554.19,-117 554.19,-124"/>
</a>
</g>
</g>
<!-- Node13 -->
<g id="Node000013" class="node">
<title>Node13</title>
<g id="a_Node000013"><a xlink:href="test__connection_receive_header_8cpp.html#a0952222a64d85993a5b3d9022826859c" target="_top" xlink:title=" ">
<polygon fill="white" stroke="#666666" points="499,-93 447,-93 447,-74 499,-74 499,-93"/>
<text text-anchor="middle" x="473" y="-81" font-family="Helvetica,sans-Serif" font-size="10.00">TEST_F</text>
</a>
</g>
</g>
<!-- Node3&#45;&gt;Node13 -->
<g id="edge13_Node000003_Node000013" class="edge">
<title>Node3&#45;&gt;Node13</title>
<g id="a_edge13_Node000003_Node000013"><a xlink:title=" ">
<path fill="none" stroke="#63b8ff" d="M584.16,-108.74C555.86,-102.25 521.97,-94.49 499.32,-89.3"/>
<polygon fill="#63b8ff" stroke="#63b8ff" points="583.38,-112.15 593.91,-110.97 584.94,-105.33 583.38,-112.15"/>
</a>
</g>
</g>
<!-- Node14 -->
<g id="Node000014" class="node">
<title>Node14</title>
<g id="a_Node000014"><a xlink:href="test__connection_receive_header_8cpp.html#a492a1135a23e13de8b412f266f5422dd" target="_top" xlink:title=" ">
<polygon fill="white" stroke="#666666" points="499,-56 447,-56 447,-37 499,-37 499,-56"/>
<text text-anchor="middle" x="473" y="-44" font-family="Helvetica,sans-Serif" font-size="10.00">TEST_F</text>
</a>
</g>
</g>
<!-- Node3&#45;&gt;Node14 -->
<g id="edge14_Node000003_Node000014" class="edge">
<title>Node3&#45;&gt;Node14</title>
<g id="a_edge14_Node000003_Node000014"><a xlink:title=" ">
<path fill="none" stroke="#63b8ff" d="M573.28,-107.47C569.01,-105.72 564.87,-103.74 561,-101.5 541.14,-90.01 544.33,-76.87 525,-64.5 517.17,-59.49 507.77,-55.66 499.18,-52.85"/>
<polygon fill="#63b8ff" stroke="#63b8ff" points="572.17,-110.79 582.77,-110.94 574.58,-104.22 572.17,-110.79"/>
</a>
</g>
</g>
<!-- Node15 -->
<g id="Node000015" class="node">
<title>Node15</title>
<g id="a_Node000015"><a xlink:href="test__connection_receive_header_8cpp.html#a42aad638a3786700de9108d63bbba850" target="_top" xlink:title=" ">
<polygon fill="white" stroke="#666666" points="499,-19 447,-19 447,0 499,0 499,-19"/>
<text text-anchor="middle" x="473" y="-7" font-family="Helvetica,sans-Serif" font-size="10.00">TEST_F</text>
</a>
</g>
</g>
<!-- Node3&#45;&gt;Node15 -->
<g id="edge15_Node000003_Node000015" class="edge">
<title>Node3&#45;&gt;Node15</title>
<g id="a_edge15_Node000003_Node000015"><a xlink:title=" ">
<path fill="none" stroke="#63b8ff" d="M567.61,-106.16C565.3,-104.74 563.08,-103.2 561,-101.5 532.65,-78.39 552.29,-51.85 525,-27.5 517.78,-21.06 508.12,-16.89 499.14,-14.2"/>
<polygon fill="#63b8ff" stroke="#63b8ff" points="566.46,-109.5 576.96,-110.95 569.66,-103.27 566.46,-109.5"/>
</a>
</g>
</g>
<!-- Node16 -->
<g id="Node000016" class="node">
<title>Node16</title>
<g id="a_Node000016"><a xlink:href="test__connection_receive_header_8cpp.html#aa34cc8553c29e19d06c302699e916a3e" target="_top" xlink:title=" ">
<polygon fill="white" stroke="#666666" points="499,-167 447,-167 447,-148 499,-148 499,-167"/>
<text text-anchor="middle" x="473" y="-155" font-family="Helvetica,sans-Serif" font-size="10.00">TEST_F</text>
</a>
</g>
</g>
<!-- Node3&#45;&gt;Node16 -->
<g id="edge16_Node000003_Node000016" class="edge">
<title>Node3&#45;&gt;Node16</title>
<g id="a_edge16_Node000003_Node000016"><a xlink:title=" ">
<path fill="none" stroke="#63b8ff" d="M584.16,-132.26C555.86,-138.75 521.97,-146.51 499.32,-151.7"/>
<polygon fill="#63b8ff" stroke="#63b8ff" points="584.94,-135.67 593.91,-130.03 583.38,-128.85 584.94,-135.67"/>
</a>
</g>
</g>
<!-- Node4&#45;&gt;Node5 -->
<g id="edge4_Node000004_Node000005" class="edge">
<title>Node4&#45;&gt;Node5</title>
<g id="a_edge4_Node000004_Node000005"><a xlink:title=" ">
<path fill="none" stroke="#63b8ff" d="M428.73,-245.15C426.05,-246.49 423.45,-247.94 421,-249.5 392.4,-267.72 366.56,-299.06 354.57,-314.83"/>
<polygon fill="#63b8ff" stroke="#63b8ff" points="430.33,-248.27 438.06,-241.02 427.5,-241.88 430.33,-248.27"/>
</a>
</g>
</g>
<!-- Node6 -->
<g id="Node000006" class="node">
<title>Node6</title>
<g id="a_Node000006"><a xlink:href="_server_8cpp.html#ab66b27c2186daacb15a6b13dd43be31b" target="_top" xlink:title="Runs the main event loop with a server object.">
<polygon fill="white" stroke="#666666" points="141,-353 77,-353 77,-334 141,-334 141,-353"/>
<text text-anchor="middle" x="109" y="-341" font-family="Helvetica,sans-Serif" font-size="10.00">runServer</text>
</a>
</g>
</g>
<!-- Node5&#45;&gt;Node6 -->
<g id="edge5_Node000005_Node000006" class="edge">
<title>Node5&#45;&gt;Node6</title>
<g id="a_edge5_Node000005_Node000006"><a xlink:title=" ">
<path fill="none" stroke="#63b8ff" d="M297.73,-328.35C250.95,-332.13 181.04,-337.77 141.05,-340.99"/>
<polygon fill="#63b8ff" stroke="#63b8ff" points="298.24,-331.82 307.92,-327.53 297.67,-324.85 298.24,-331.82"/>
</a>
</g>
</g>
<!-- Node8 -->
<g id="Node000008" class="node">
<title>Node8</title>
<g id="a_Node000008"><a xlink:href="_server_8cpp.html#a115ecd76e344c1007bedc48b9bbdc0fa" target="_top" xlink:title="Performs a graceful shutdown of the server.">
<polygon fill="white" stroke="#666666" points="272,-315 177,-315 177,-296 272,-296 272,-315"/>
<text text-anchor="middle" x="224.5" y="-303" font-family="Helvetica,sans-Serif" font-size="10.00">shutdownServer</text>
</a>
</g>
</g>
<!-- Node5&#45;&gt;Node8 -->
<g id="edge7_Node000005_Node000008" class="edge">
<title>Node5&#45;&gt;Node8</title>
<g id="a_edge7_Node000005_Node000008"><a xlink:title=" ">
<path fill="none" stroke="#63b8ff" d="M297.82,-316.95C289.42,-315.62 280.68,-314.24 272.3,-312.91"/>
<polygon fill="#63b8ff" stroke="#63b8ff" points="297.44,-320.43 307.86,-318.54 298.53,-313.52 297.44,-320.43"/>
</a>
</g>
</g>
<!-- Node7 -->
<g id="Node000007" class="node">
<title>Node7</title>
<g id="a_Node000007"><a xlink:href="main_8cpp.html#a3c04138a5bfe5d72780bb7e82a18e627" target="_top" xlink:title=" ">
<polygon fill="white" stroke="#666666" points="41,-353 0,-353 0,-334 41,-334 41,-353"/>
<text text-anchor="middle" x="20.5" y="-341" font-family="Helvetica,sans-Serif" font-size="10.00">main</text>
</a>
</g>
</g>
<!-- Node6&#45;&gt;Node7 -->
<g id="edge6_Node000006_Node000007" class="edge">
<title>Node6&#45;&gt;Node7</title>
<g id="a_edge6_Node000006_Node000007"><a xlink:title=" ">
<path fill="none" stroke="#63b8ff" d="M66.5,-343.5C57.64,-343.5 48.68,-343.5 41.11,-343.5"/>
<polygon fill="#63b8ff" stroke="#63b8ff" points="66.77,-347 76.77,-343.5 66.77,-340 66.77,-347"/>
</a>
</g>
</g>
<!-- Node8&#45;&gt;Node6 -->
<g id="edge8_Node000008_Node000006" class="edge">
<title>Node8&#45;&gt;Node6</title>
<g id="a_edge8_Node000008_Node000006"><a xlink:title=" ">
<path fill="none" stroke="#63b8ff" d="M185.19,-318.33C169.96,-323.42 152.74,-329.19 138.63,-333.91"/>
<polygon fill="#63b8ff" stroke="#63b8ff" points="186.49,-321.58 194.86,-315.09 184.27,-314.94 186.49,-321.58"/>
</a>
</g>
</g>
<!-- Node9 -->
<g id="Node000009" class="node">
<title>Node9</title>
<g id="a_Node000009"><a xlink:href="test__shutdown_server_8cpp.html#a6462dc91a572c9969b759806ed15590b" target="_top" xlink:title=" ">
<polygon fill="white" stroke="#666666" points="135,-316 83,-316 83,-297 135,-297 135,-316"/>
<text text-anchor="middle" x="109" y="-304" font-family="Helvetica,sans-Serif" font-size="10.00">TEST_F</text>
</a>
</g>
</g>
<!-- Node8&#45;&gt;Node9 -->
<g id="edge9_Node000008_Node000009" class="edge">
<title>Node8&#45;&gt;Node9</title>
<g id="a_edge9_Node000008_Node000009"><a xlink:title=" ">
<path fill="none" stroke="#63b8ff" d="M166.63,-306C155.63,-306.1 144.64,-306.19 135.3,-306.28"/>
<polygon fill="#63b8ff" stroke="#63b8ff" points="166.71,-309.5 176.68,-305.91 166.65,-302.5 166.71,-309.5"/>
</a>
</g>
</g>
<!-- Node10 -->
<g id="Node000010" class="node">
<title>Node10</title>
<g id="a_Node000010"><a xlink:href="test__shutdown_server_8cpp.html#a69fea7b0fb329821fdd955271edc65ee" target="_top" xlink:title=" ">
<polygon fill="white" stroke="#666666" points="135,-279 83,-279 83,-260 135,-260 135,-279"/>
<text text-anchor="middle" x="109" y="-267" font-family="Helvetica,sans-Serif" font-size="10.00">TEST_F</text>
</a>
</g>
</g>
<!-- Node8&#45;&gt;Node10 -->
<g id="edge10_Node000008_Node000010" class="edge">
<title>Node8&#45;&gt;Node10</title>
<g id="a_edge10_Node000008_Node000010"><a xlink:title=" ">
<path fill="none" stroke="#63b8ff" d="M183.67,-292.87C167.58,-287.76 149.49,-282.03 135.26,-277.51"/>
<polygon fill="#63b8ff" stroke="#63b8ff" points="182.79,-296.26 193.38,-295.95 184.91,-289.59 182.79,-296.26"/>
</a>
</g>
</g>
<!-- Node11 -->
<g id="Node000011" class="node">
<title>Node11</title>
<g id="a_Node000011"><a xlink:href="test__shutdown_server_8cpp.html#ae0ede4f52ef6c742c532c14b92b6179a" target="_top" xlink:title=" ">
<polygon fill="white" stroke="#666666" points="135,-242 83,-242 83,-223 135,-223 135,-242"/>
<text text-anchor="middle" x="109" y="-230" font-family="Helvetica,sans-Serif" font-size="10.00">TEST_F</text>
</a>
</g>
</g>
<!-- Node8&#45;&gt;Node11 -->
<g id="edge11_Node000008_Node000011" class="edge">
<title>Node8&#45;&gt;Node11</title>
<g id="a_edge11_Node000008_Node000011"><a xlink:title=" ">
<path fill="none" stroke="#63b8ff" d="M201.25,-290.12C184.78,-278.88 161.71,-263.4 141,-250.5 136.46,-247.67 131.47,-244.71 126.84,-242.03"/>
<polygon fill="#63b8ff" stroke="#63b8ff" points="199.43,-293.12 209.66,-295.89 203.39,-287.35 199.43,-293.12"/>
</a>
</g>
</g>
<!-- Node23 -->
<g id="Node000023" class="node">
<title>Node23</title>
<g id="a_Node000023"><a xlink:href="_server_8cpp.html#a735bf6535f62b5907ea2d5f0e1abf3c7" target="_top" xlink:title="Handles receiving data from a CGI script and processes it accordingly.">
<polygon fill="white" stroke="#666666" points="712,-278 561,-278 561,-259 712,-259 712,-278"/>
<text text-anchor="middle" x="636.5" y="-266" font-family="Helvetica,sans-Serif" font-size="10.00">connectionReceiveFromCGI</text>
</a>
</g>
</g>
<!-- Node22&#45;&gt;Node23 -->
<g id="edge24_Node000022_Node000023" class="edge">
<title>Node22&#45;&gt;Node23</title>
<g id="a_edge24_Node000022_Node000023"><a xlink:title=" ">
<path fill="none" stroke="#63b8ff" d="M737.73,-277.64C729.14,-276.85 720.53,-276.07 712.17,-275.31"/>
<polygon fill="#63b8ff" stroke="#63b8ff" points="737.52,-281.13 747.8,-278.55 738.16,-274.16 737.52,-281.13"/>
</a>
</g>
</g>
<!-- Node26 -->
<g id="Node000026" class="node">
<title>Node26</title>
<g id="a_Node000026"><a xlink:href="_server_8cpp.html#aa67430205b6049aa70bad4682a7442b8" target="_top" xlink:title="Sends the request body to the CGI process.">
<polygon fill="white" stroke="#666666" points="697.5,-315 575.5,-315 575.5,-296 697.5,-296 697.5,-315"/>
<text text-anchor="middle" x="636.5" y="-303" font-family="Helvetica,sans-Serif" font-size="10.00">connectionSendToCGI</text>
</a>
</g>
</g>
<!-- Node22&#45;&gt;Node26 -->
<g id="edge28_Node000022_Node000026" class="edge">
<title>Node22&#45;&gt;Node26</title>
<g id="a_edge28_Node000022_Node000026"><a xlink:title=" ">
<path fill="none" stroke="#63b8ff" d="M737.83,-295.85C724.11,-297.17 710.35,-298.49 697.61,-299.72"/>
<polygon fill="#63b8ff" stroke="#63b8ff" points="738.18,-299.33 747.8,-294.89 737.51,-292.36 738.18,-299.33"/>
</a>
</g>
</g>
<!-- Node23&#45;&gt;Node4 -->
<g id="edge25_Node000023_Node000004" class="edge">
<title>Node23&#45;&gt;Node4</title>
<g id="a_edge25_Node000023_Node000004"><a xlink:title=" ">
<path fill="none" stroke="#63b8ff" d="M584.05,-256.71C562,-251.66 536.58,-245.84 515.73,-241.06"/>
<polygon fill="#63b8ff" stroke="#63b8ff" points="583.38,-260.15 593.91,-258.97 584.94,-253.33 583.38,-260.15"/>
</a>
</g>
</g>
<!-- Node24 -->
<g id="Node000024" class="node">
<title>Node24</title>
<g id="a_Node000024"><a xlink:href="test__connection_receive_from_c_g_i_8cpp.html#a3a257e52c0c048d052b1f9238cfe0411" target="_top" xlink:title=" ">
<polygon fill="white" stroke="#666666" points="499,-278 447,-278 447,-259 499,-259 499,-278"/>
<text text-anchor="middle" x="473" y="-266" font-family="Helvetica,sans-Serif" font-size="10.00">TEST_F</text>
</a>
</g>
</g>
<!-- Node23&#45;&gt;Node24 -->
<g id="edge26_Node000023_Node000024" class="edge">
<title>Node23&#45;&gt;Node24</title>
<g id="a_edge26_Node000023_Node000024"><a xlink:title=" ">
<path fill="none" stroke="#63b8ff" d="M550.75,-268.5C531.95,-268.5 513.44,-268.5 499.3,-268.5"/>
<polygon fill="#63b8ff" stroke="#63b8ff" points="550.9,-272 560.9,-268.5 550.9,-265 550.9,-272"/>
</a>
</g>
</g>
<!-- Node25 -->
<g id="Node000025" class="node">
<title>Node25</title>
<g id="a_Node000025"><a xlink:href="test__connection_receive_from_c_g_i_8cpp.html#acd248002a168209089438d39017ca034" target="_top" xlink:title=" ">
<polygon fill="white" stroke="#666666" points="499,-204 447,-204 447,-185 499,-185 499,-204"/>
<text text-anchor="middle" x="473" y="-192" font-family="Helvetica,sans-Serif" font-size="10.00">TEST_F</text>
</a>
</g>
</g>
<!-- Node23&#45;&gt;Node25 -->
<g id="edge27_Node000023_Node000025" class="edge">
<title>Node23&#45;&gt;Node25</title>
<g id="a_edge27_Node000023_Node000025"><a xlink:title=" ">
<path fill="none" stroke="#63b8ff" d="M573.28,-255.47C569.01,-253.72 564.87,-251.74 561,-249.5 541.14,-238.01 544.33,-224.87 525,-212.5 517.17,-207.49 507.77,-203.66 499.18,-200.85"/>
<polygon fill="#63b8ff" stroke="#63b8ff" points="572.17,-258.79 582.77,-258.94 574.58,-252.22 572.17,-258.79"/>
</a>
</g>
</g>
<!-- Node26&#45;&gt;Node4 -->
<g id="edge29_Node000026_Node000004" class="edge">
<title>Node26&#45;&gt;Node4</title>
<g id="a_edge29_Node000026_Node000004"><a xlink:title=" ">
<path fill="none" stroke="#63b8ff" d="M573.28,-292.47C569.01,-290.72 564.87,-288.74 561,-286.5 541.14,-275.01 544.33,-261.87 525,-249.5 519.78,-246.16 513.86,-243.35 507.95,-241.01"/>
<polygon fill="#63b8ff" stroke="#63b8ff" points="572.17,-295.79 582.77,-295.94 574.58,-289.22 572.17,-295.79"/>
</a>
</g>
</g>
<!-- Node27 -->
<g id="Node000027" class="node">
<title>Node27</title>
<g id="a_Node000027"><a xlink:href="test__connection_send_to_c_g_i_8cpp.html#a71e710d9b5f2f4a568086e70def06ccc" target="_top" xlink:title=" ">
<polygon fill="white" stroke="#666666" points="499,-352 447,-352 447,-333 499,-333 499,-352"/>
<text text-anchor="middle" x="473" y="-340" font-family="Helvetica,sans-Serif" font-size="10.00">TEST_F</text>
</a>
</g>
</g>
<!-- Node26&#45;&gt;Node27 -->
<g id="edge30_Node000026_Node000027" class="edge">
<title>Node26&#45;&gt;Node27</title>
<g id="a_edge30_Node000026_Node000027"><a xlink:title=" ">
<path fill="none" stroke="#63b8ff" d="M584.16,-317.26C555.86,-323.75 521.97,-331.51 499.32,-336.7"/>
<polygon fill="#63b8ff" stroke="#63b8ff" points="584.94,-320.67 593.91,-315.03 583.38,-313.85 584.94,-320.67"/>
</a>
</g>
</g>
<!-- Node28 -->
<g id="Node000028" class="node">
<title>Node28</title>
<g id="a_Node000028"><a xlink:href="test__connection_send_to_c_g_i_8cpp.html#ab009e8595170fb19af2600ddd2f4362a" target="_top" xlink:title=" ">
<polygon fill="white" stroke="#666666" points="499,-315 447,-315 447,-296 499,-296 499,-315"/>
<text text-anchor="middle" x="473" y="-303" font-family="Helvetica,sans-Serif" font-size="10.00">TEST_F</text>
</a>
</g>
</g>
<!-- Node26&#45;&gt;Node28 -->
<g id="edge31_Node000026_Node000028" class="edge">
<title>Node26&#45;&gt;Node28</title>
<g id="a_edge31_Node000026_Node000028"><a xlink:title=" ">
<path fill="none" stroke="#63b8ff" d="M565.35,-305.5C541.76,-305.5 516.95,-305.5 499.14,-305.5"/>
<polygon fill="#63b8ff" stroke="#63b8ff" points="565.36,-309 575.36,-305.5 565.36,-302 565.36,-309"/>
</a>
</g>
</g>
<!-- Node29 -->
<g id="Node000029" class="node">
<title>Node29</title>
<g id="a_Node000029"><a xlink:href="test__connection_send_to_c_g_i_8cpp.html#a35214933bd65d5cd26ad10f15604a4b3" target="_top" xlink:title=" ">
<polygon fill="white" stroke="#666666" points="499,-389 447,-389 447,-370 499,-370 499,-389"/>
<text text-anchor="middle" x="473" y="-377" font-family="Helvetica,sans-Serif" font-size="10.00">TEST_F</text>
</a>
</g>
</g>
<!-- Node26&#45;&gt;Node29 -->
<g id="edge32_Node000026_Node000029" class="edge">
<title>Node26&#45;&gt;Node29</title>
<g id="a_edge32_Node000026_Node000029"><a xlink:title=" ">
<path fill="none" stroke="#63b8ff" d="M609.15,-320.08C587.04,-332 554.45,-348.9 525,-361.5 516.71,-365.04 507.47,-368.46 499.15,-371.35"/>
<polygon fill="#63b8ff" stroke="#63b8ff" points="611.11,-322.99 618.23,-315.14 607.77,-316.84 611.11,-322.99"/>
</a>
</g>
</g>
</g>
</svg>

<g id="navigator" transform="translate(0 0)" fill="#404254">
  <rect fill="#f2f5e9" fill-opacity="0.5" stroke="#606060" stroke-width=".5" x="0" y="0" width="60" height="60"/>
  <use id="zoomplus" xlink:href="#zoomPlus" x="17" y="9" onmousedown="handleZoom(evt,'in')"/>
  <use id="zoomminus" xlink:href="#zoomMin" x="42" y="9" onmousedown="handleZoom(evt,'out')"/>
  <use id="reset" xlink:href="#resetDef" x="30" y="36" onmousedown="handleReset()"/>
   <use id="arrowup" xlink:href="#arrowUp" x="0" y="0" onmousedown="handlePan(0,-1)"/>
  <use id="arrowright" xlink:href="#arrowRight" x="0" y="0" onmousedown="handlePan(1,0)"/>
  <use id="arrowdown" xlink:href="#arrowDown" x="0" y="0" onmousedown="handlePan(0,1)"/>
  <use id="arrowleft" xlink:href="#arrowLeft" x="0" y="0" onmousedown="handlePan(-1,0)"/>
</g>
<svg viewBox="0 0 15 15" width="100%" height="30px" preserveAspectRatio="xMaxYMin meet">
 <g id="arrow_out" transform="scale(0.3 0.3)">
  <a xlink:href="class_server_aad2be3b48155c6eb508bca4b1af3db97_icgraph_org.svg" target="_base">
   <rect id="button" ry="5" rx="5" y="6" x="6" height="38" width="38"
        fill="#f2f5e9" fill-opacity="0.5" stroke="#606060" stroke-width="1.0"/>
   <path id="arrow"
     d="M 11.500037,31.436501 C 11.940474,20.09759 22.043105,11.32322 32.158766,21.979434 L 37.068811,17.246167 C 37.068811,17.246167 37.088388,32 37.088388,32 L 22.160133,31.978069 C 22.160133,31.978069 26.997745,27.140456 26.997745,27.140456 C 18.528582,18.264221 13.291696,25.230495 11.500037,31.436501 z"
     style="fill:#404040;"/>
  </a>
 </g>
</svg>

<style type='text/css'>
<![CDATA[
[data-mouse-over-selected='false'] { opacity: 0.7; }
[data-mouse-over-selected='true']  { opacity: 1.0; }
]]>
</style>
<script type="application/ecmascript"><![CDATA[
document.addEventListener('DOMContentLoaded', (event) => {
  highlightEdges();
  highlightAdjacentNodes();
});
]]></script>
</svg>
