<?xml version="1.0" encoding="UTF-8" standalone="no"?>
<!DOCTYPE svg PUBLIC "-//W3C//DTD SVG 1.1//EN"
 "http://www.w3.org/Graphics/SVG/1.1/DTD/svg11.dtd">
<!-- Generated by graphviz version 2.43.0 (0)
 -->
<!-- Title: Server::parseBody Pages: 1 -->
<svg width="845pt" height="66pt"
 viewBox="0.00 0.00 845.00 66.00" xmlns="http://www.w3.org/2000/svg" xmlns:xlink="http://www.w3.org/1999/xlink">
<g id="graph0" class="graph" transform="scale(1 1) rotate(0) translate(4 62)">
<title>Server::parseBody</title>
<!-- Node1 -->
<g id="node1" class="node">
<title>Node1</title>
<g id="a_node1"><a xlink:title="Wrapper function to RequestParser::parseBody.">
<polygon fill="#bfbfbf" stroke="black" points="731,-19.5 731,-38.5 837,-38.5 837,-19.5 731,-19.5"/>
<text text-anchor="middle" x="784" y="-26.5" font-family="Helvetica,sans-Serif" font-size="10.00">Server::parseBody</text>
</a>
</g>
</g>
<!-- Node2 -->
<g id="node2" class="node">
<title>Node2</title>
<g id="a_node2"><a xlink:href="_server_8hpp.html#a3e07b970ffa58c9315b38673aff94f84" target="_top" xlink:title="Handles the reception of the request body from a client connection.">
<polygon fill="none" stroke="black" points="561,-19.5 561,-38.5 695,-38.5 695,-19.5 561,-19.5"/>
<text text-anchor="middle" x="628" y="-26.5" font-family="Helvetica,sans-Serif" font-size="10.00">connectionReceiveBody</text>
</a>
</g>
</g>
<!-- Node1&#45;&gt;Node2 -->
<g id="edge1" class="edge">
<title>Node1&#45;&gt;Node2</title>
<path fill="none" stroke="midnightblue" d="M720.69,-29C712.24,-29 703.53,-29 695.01,-29"/>
<polygon fill="midnightblue" stroke="midnightblue" points="720.86,-32.5 730.86,-29 720.86,-25.5 720.86,-32.5"/>
</g>
<!-- Node3 -->
<g id="node3" class="node">
<title>Node3</title>
<g id="a_node3"><a xlink:href="_server_8hpp.html#a54490f09266c8a5fed4d91166df9a6b3" target="_top" xlink:title="Handle a client connection.">
<polygon fill="none" stroke="black" points="421,-19.5 421,-38.5 525,-38.5 525,-19.5 421,-19.5"/>
<text text-anchor="middle" x="473" y="-26.5" font-family="Helvetica,sans-Serif" font-size="10.00">handleConnection</text>
</a>
</g>
</g>
<!-- Node2&#45;&gt;Node3 -->
<g id="edge2" class="edge">
<title>Node2&#45;&gt;Node3</title>
<path fill="none" stroke="midnightblue" d="M550.64,-29C541.98,-29 533.32,-29 525.1,-29"/>
<polygon fill="midnightblue" stroke="midnightblue" points="550.78,-32.5 560.78,-29 550.78,-25.5 550.78,-32.5"/>
</g>
<!-- Node4 -->
<g id="node4" class="node">
<title>Node4</title>
<g id="a_node4"><a xlink:href="_server_8hpp.html#a4211c4d6b958979b39b3dfc8148c801a" target="_top" xlink:title="Accepts new connections or handles existing ones.">
<polygon fill="none" stroke="black" points="308,-19.5 308,-38.5 385,-38.5 385,-19.5 308,-19.5"/>
<text text-anchor="middle" x="346.5" y="-26.5" font-family="Helvetica,sans-Serif" font-size="10.00">handleEvent</text>
</a>
</g>
</g>
<!-- Node3&#45;&gt;Node4 -->
<g id="edge3" class="edge">
<title>Node3&#45;&gt;Node4</title>
<path fill="none" stroke="midnightblue" d="M410.49,-29C401.8,-29 393.1,-29 385.05,-29"/>
<polygon fill="midnightblue" stroke="midnightblue" points="410.64,-32.5 420.64,-29 410.64,-25.5 410.64,-32.5"/>
</g>
<!-- Node5 -->
<g id="node5" class="node">
<title>Node5</title>
<g id="a_node5"><a xlink:href="_server_8hpp.html#ab66b27c2186daacb15a6b13dd43be31b" target="_top" xlink:title="Runs the main event loop with a server object.">
<polygon fill="none" stroke="black" points="77,-38.5 77,-57.5 141,-57.5 141,-38.5 77,-38.5"/>
<text text-anchor="middle" x="109" y="-45.5" font-family="Helvetica,sans-Serif" font-size="10.00">runServer</text>
</a>
</g>
</g>
<!-- Node4&#45;&gt;Node5 -->
<g id="edge4" class="edge">
<title>Node4&#45;&gt;Node5</title>
<path fill="none" stroke="midnightblue" d="M297.73,-32.85C250.95,-36.63 181.04,-42.27 141.05,-45.49"/>
<polygon fill="midnightblue" stroke="midnightblue" points="298.24,-36.32 307.92,-32.03 297.67,-29.35 298.24,-36.32"/>
</g>
<!-- Node7 -->
<g id="node7" class="node">
<title>Node7</title>
<g id="a_node7"><a xlink:href="_server_8hpp.html#a115ecd76e344c1007bedc48b9bbdc0fa" target="_top" xlink:title="Performs a graceful shutdown of the server.">
<polygon fill="none" stroke="black" points="177,-0.5 177,-19.5 272,-19.5 272,-0.5 177,-0.5"/>
<text text-anchor="middle" x="224.5" y="-7.5" font-family="Helvetica,sans-Serif" font-size="10.00">shutdownServer</text>
</a>
</g>
</g>
<!-- Node4&#45;&gt;Node7 -->
<g id="edge6" class="edge">
<title>Node4&#45;&gt;Node7</title>
<path fill="none" stroke="midnightblue" d="M297.82,-21.45C289.42,-20.12 280.68,-18.74 272.3,-17.41"/>
<polygon fill="midnightblue" stroke="midnightblue" points="297.44,-24.93 307.86,-23.04 298.53,-18.02 297.44,-24.93"/>
</g>
<!-- Node6 -->
<g id="node6" class="node">
<title>Node6</title>
<g id="a_node6"><a xlink:href="main_8cpp.html#a3c04138a5bfe5d72780bb7e82a18e627" target="_top" xlink:title=" ">
<polygon fill="none" stroke="black" points="0,-38.5 0,-57.5 41,-57.5 41,-38.5 0,-38.5"/>
<text text-anchor="middle" x="20.5" y="-45.5" font-family="Helvetica,sans-Serif" font-size="10.00">main</text>
</a>
</g>
</g>
<!-- Node5&#45;&gt;Node6 -->
<g id="edge5" class="edge">
<title>Node5&#45;&gt;Node6</title>
<path fill="none" stroke="midnightblue" d="M66.5,-48C57.64,-48 48.68,-48 41.11,-48"/>
<polygon fill="midnightblue" stroke="midnightblue" points="66.77,-51.5 76.77,-48 66.77,-44.5 66.77,-51.5"/>
</g>
<!-- Node7&#45;&gt;Node5 -->
<g id="edge7" class="edge">
<title>Node7&#45;&gt;Node5</title>
<path fill="none" stroke="midnightblue" d="M185.19,-22.83C169.96,-27.92 152.74,-33.69 138.63,-38.41"/>
<polygon fill="midnightblue" stroke="midnightblue" points="186.49,-26.08 194.86,-19.59 184.27,-19.44 186.49,-26.08"/>
</g>
<!-- Node8 -->
<g id="node8" class="node">
<title>Node8</title>
<g id="a_node8"><a xlink:href="test__shutdown_server_8cpp.html#ae0ede4f52ef6c742c532c14b92b6179a" target="_top" xlink:title=" ">
<polygon fill="none" stroke="black" points="83,-0.5 83,-19.5 135,-19.5 135,-0.5 83,-0.5"/>
<text text-anchor="middle" x="109" y="-7.5" font-family="Helvetica,sans-Serif" font-size="10.00">TEST_F</text>
</a>
</g>
</g>
<!-- Node7&#45;&gt;Node8 -->
<g id="edge8" class="edge">
<title>Node7&#45;&gt;Node8</title>
<path fill="none" stroke="midnightblue" d="M166.63,-10C155.63,-10 144.64,-10 135.3,-10"/>
<polygon fill="midnightblue" stroke="midnightblue" points="166.68,-13.5 176.68,-10 166.68,-6.5 166.68,-13.5"/>
</g>
</g>
</svg>
