<?xml version="1.0" encoding="UTF-8" standalone="no"?>
<!DOCTYPE svg PUBLIC "-//W3C//DTD SVG 1.1//EN"
 "http://www.w3.org/Graphics/SVG/1.1/DTD/svg11.dtd">
<!-- Generated by graphviz version 2.43.0 (0)
 -->
<!-- Title: SocketPolicy::retrieveSocketInfo Pages: 1 -->
<svg width="827pt" height="142pt"
 viewBox="0.00 0.00 827.00 142.00" xmlns="http://www.w3.org/2000/svg" xmlns:xlink="http://www.w3.org/1999/xlink">
<g id="graph0" class="graph" transform="scale(1 1) rotate(0) translate(4 138)">
<title>SocketPolicy::retrieveSocketInfo</title>
<!-- Node1 -->
<g id="node1" class="node">
<title>Node1</title>
<g id="a_node1"><a xlink:title="Retrieve socket information.">
<polygon fill="#bfbfbf" stroke="black" points="646,-57.5 646,-76.5 819,-76.5 819,-57.5 646,-57.5"/>
<text text-anchor="middle" x="732.5" y="-64.5" font-family="Helvetica,sans-Serif" font-size="10.00">SocketPolicy::retrieveSocketInfo</text>
</a>
</g>
</g>
<!-- Node2 -->
<g id="node2" class="node">
<title>Node2</title>
<g id="a_node2"><a xlink:href="class_server.html#ac951fb1326dfadeff690fd646e0b7e8f" target="_top" xlink:title="Wrapper function to SocketPolicy::retrieveSocketInfo.">
<polygon fill="none" stroke="black" points="467,-57.5 467,-76.5 610,-76.5 610,-57.5 467,-57.5"/>
<text text-anchor="middle" x="538.5" y="-64.5" font-family="Helvetica,sans-Serif" font-size="10.00">Server::retrieveSocketInfo</text>
</a>
</g>
</g>
<!-- Node1&#45;&gt;Node2 -->
<g id="edge1" class="edge">
<title>Node1&#45;&gt;Node2</title>
<path fill="none" stroke="midnightblue" d="M635.81,-67C627.21,-67 618.61,-67 610.28,-67"/>
<polygon fill="midnightblue" stroke="midnightblue" points="635.89,-70.5 645.89,-67 635.89,-63.5 635.89,-70.5"/>
</g>
<!-- Node3 -->
<g id="node3" class="node">
<title>Node3</title>
<g id="a_node3"><a xlink:href="_server_8hpp.html#adb579f3d67061d752e882e6fb3ef6f18" target="_top" xlink:title="Accept new connections.">
<polygon fill="none" stroke="black" points="321,-76.5 321,-95.5 430,-95.5 430,-76.5 321,-76.5"/>
<text text-anchor="middle" x="375.5" y="-83.5" font-family="Helvetica,sans-Serif" font-size="10.00">acceptConnections</text>
</a>
</g>
</g>
<!-- Node2&#45;&gt;Node3 -->
<g id="edge2" class="edge">
<title>Node2&#45;&gt;Node3</title>
<path fill="none" stroke="midnightblue" d="M456.72,-76.53C447.69,-77.6 438.68,-78.66 430.12,-79.67"/>
<polygon fill="midnightblue" stroke="midnightblue" points="457.36,-79.98 466.88,-75.33 456.54,-73.03 457.36,-79.98"/>
</g>
<!-- Node8 -->
<g id="node8" class="node">
<title>Node8</title>
<g id="a_node8"><a xlink:href="_server_8hpp.html#aa6ca6a0179cbb661c05aa6b2758f5389" target="_top" xlink:title="Creates a new virtual server and registers it with the server object.">
<polygon fill="none" stroke="black" points="320,-38.5 320,-57.5 431,-57.5 431,-38.5 320,-38.5"/>
<text text-anchor="middle" x="375.5" y="-45.5" font-family="Helvetica,sans-Serif" font-size="10.00">createVirtualServer</text>
</a>
</g>
</g>
<!-- Node2&#45;&gt;Node8 -->
<g id="edge7" class="edge">
<title>Node2&#45;&gt;Node8</title>
<path fill="none" stroke="midnightblue" d="M456.71,-57.47C448.03,-56.44 439.36,-55.42 431.09,-54.44"/>
<polygon fill="midnightblue" stroke="midnightblue" points="456.54,-60.97 466.88,-58.67 457.36,-54.02 456.54,-60.97"/>
</g>
<!-- Node4 -->
<g id="node4" class="node">
<title>Node4</title>
<g id="a_node4"><a xlink:href="_server_8hpp.html#a4211c4d6b958979b39b3dfc8148c801a" target="_top" xlink:title="Accepts new connections or handles existing ones.">
<polygon fill="none" stroke="black" points="195,-114.5 195,-133.5 272,-133.5 272,-114.5 195,-114.5"/>
<text text-anchor="middle" x="233.5" y="-121.5" font-family="Helvetica,sans-Serif" font-size="10.00">handleEvent</text>
</a>
</g>
</g>
<!-- Node3&#45;&gt;Node4 -->
<g id="edge3" class="edge">
<title>Node3&#45;&gt;Node4</title>
<path fill="none" stroke="midnightblue" d="M329.38,-98.25C310.09,-103.48 287.89,-109.51 269.82,-114.41"/>
<polygon fill="midnightblue" stroke="midnightblue" points="330.44,-101.59 339.17,-95.59 328.6,-94.83 330.44,-101.59"/>
</g>
<!-- Node7 -->
<g id="node7" class="node">
<title>Node7</title>
<g id="a_node7"><a xlink:href="test__accept_connections_8cpp.html#a78ef81e117d5c1a90c27410155ac152b" target="_top" xlink:title=" ">
<polygon fill="none" stroke="black" points="207.5,-76.5 207.5,-95.5 259.5,-95.5 259.5,-76.5 207.5,-76.5"/>
<text text-anchor="middle" x="233.5" y="-83.5" font-family="Helvetica,sans-Serif" font-size="10.00">TEST_F</text>
</a>
</g>
</g>
<!-- Node3&#45;&gt;Node7 -->
<g id="edge6" class="edge">
<title>Node3&#45;&gt;Node7</title>
<path fill="none" stroke="midnightblue" d="M310.57,-86C292.57,-86 274.04,-86 259.77,-86"/>
<polygon fill="midnightblue" stroke="midnightblue" points="310.77,-89.5 320.77,-86 310.77,-82.5 310.77,-89.5"/>
</g>
<!-- Node5 -->
<g id="node5" class="node">
<title>Node5</title>
<g id="a_node5"><a xlink:href="class_server.html#abb27d30b40a94326e3fd629d3b30b7d5" target="_top" xlink:title="Runs the main event loop.">
<polygon fill="none" stroke="black" points="77,-114.5 77,-133.5 147,-133.5 147,-114.5 77,-114.5"/>
<text text-anchor="middle" x="112" y="-121.5" font-family="Helvetica,sans-Serif" font-size="10.00">Server::run</text>
</a>
</g>
</g>
<!-- Node4&#45;&gt;Node5 -->
<g id="edge4" class="edge">
<title>Node4&#45;&gt;Node5</title>
<path fill="none" stroke="midnightblue" d="M184.46,-124C172.03,-124 158.9,-124 147.32,-124"/>
<polygon fill="midnightblue" stroke="midnightblue" points="184.69,-127.5 194.69,-124 184.69,-120.5 184.69,-127.5"/>
</g>
<!-- Node6 -->
<g id="node6" class="node">
<title>Node6</title>
<g id="a_node6"><a xlink:href="main_8cpp.html#a3c04138a5bfe5d72780bb7e82a18e627" target="_top" xlink:title=" ">
<polygon fill="none" stroke="black" points="0,-95.5 0,-114.5 41,-114.5 41,-95.5 0,-95.5"/>
<text text-anchor="middle" x="20.5" y="-102.5" font-family="Helvetica,sans-Serif" font-size="10.00">main</text>
</a>
</g>
</g>
<!-- Node5&#45;&gt;Node6 -->
<g id="edge5" class="edge">
<title>Node5&#45;&gt;Node6</title>
<path fill="none" stroke="midnightblue" d="M66.85,-114.63C57.87,-112.72 48.85,-110.81 41.24,-109.19"/>
<polygon fill="midnightblue" stroke="midnightblue" points="66.4,-118.11 76.91,-116.76 67.85,-111.26 66.4,-118.11"/>
</g>
<!-- Node9 -->
<g id="node9" class="node">
<title>Node9</title>
<g id="a_node9"><a xlink:href="_server_8hpp.html#a35359f61d42dbd6561a07c12009ca45a" target="_top" xlink:title="Initialize virtual servers.">
<polygon fill="none" stroke="black" points="183,-38.5 183,-57.5 284,-57.5 284,-38.5 183,-38.5"/>
<text text-anchor="middle" x="233.5" y="-45.5" font-family="Helvetica,sans-Serif" font-size="10.00">initVirtualServers</text>
</a>
</g>
</g>
<!-- Node8&#45;&gt;Node9 -->
<g id="edge8" class="edge">
<title>Node8&#45;&gt;Node9</title>
<path fill="none" stroke="midnightblue" d="M309.88,-48C301.21,-48 292.44,-48 284.08,-48"/>
<polygon fill="midnightblue" stroke="midnightblue" points="309.97,-51.5 319.97,-48 309.97,-44.5 309.97,-51.5"/>
</g>
<!-- Node11 -->
<g id="node11" class="node">
<title>Node11</title>
<g id="a_node11"><a xlink:href="test__create_virtual_server_8cpp.html#a0dab7ae2d51f771c7d651de64d6fd66a" target="_top" xlink:title=" ">
<polygon fill="none" stroke="black" points="207.5,-0.5 207.5,-19.5 259.5,-19.5 259.5,-0.5 207.5,-0.5"/>
<text text-anchor="middle" x="233.5" y="-7.5" font-family="Helvetica,sans-Serif" font-size="10.00">TEST_F</text>
</a>
</g>
</g>
<!-- Node8&#45;&gt;Node11 -->
<g id="edge11" class="edge">
<title>Node8&#45;&gt;Node11</title>
<path fill="none" stroke="midnightblue" d="M329.24,-35.71C306.17,-29.45 278.98,-22.07 259.66,-16.83"/>
<polygon fill="midnightblue" stroke="midnightblue" points="328.6,-39.17 339.17,-38.41 330.44,-32.41 328.6,-39.17"/>
</g>
<!-- Node9&#45;&gt;Node6 -->
<g id="edge9" class="edge">
<title>Node9&#45;&gt;Node6</title>
<path fill="none" stroke="midnightblue" d="M187.3,-60.21C141.92,-72.47 74.13,-90.78 41.06,-99.72"/>
<polygon fill="midnightblue" stroke="midnightblue" points="188.44,-63.53 197.18,-57.54 186.62,-56.77 188.44,-63.53"/>
</g>
<!-- Node10 -->
<g id="node10" class="node">
<title>Node10</title>
<g id="a_node10"><a xlink:href="test__init_virtual_servers_8cpp.html#a25537358add2db1ce439b611dffe8790" target="_top" xlink:title=" ">
<polygon fill="none" stroke="black" points="86,-38.5 86,-57.5 138,-57.5 138,-38.5 86,-38.5"/>
<text text-anchor="middle" x="112" y="-45.5" font-family="Helvetica,sans-Serif" font-size="10.00">TEST_F</text>
</a>
</g>
</g>
<!-- Node9&#45;&gt;Node10 -->
<g id="edge10" class="edge">
<title>Node9&#45;&gt;Node10</title>
<path fill="none" stroke="midnightblue" d="M172.67,-48C160.49,-48 148.32,-48 138.17,-48"/>
<polygon fill="midnightblue" stroke="midnightblue" points="172.86,-51.5 182.86,-48 172.86,-44.5 172.86,-51.5"/>
</g>
</g>
</svg>
