<?xml version="1.0" encoding="UTF-8" standalone="no"?>
<!DOCTYPE svg PUBLIC "-//W3C//DTD SVG 1.1//EN"
 "http://www.w3.org/Graphics/SVG/1.1/DTD/svg11.dtd">
<!-- Generated by graphviz version 2.43.0 (0)
 -->
<!-- Title: Server::removeEvent Pages: 1 -->
<svg width="1087pt" height="250pt"
 viewBox="0.00 0.00 1087.00 250.00" xmlns="http://www.w3.org/2000/svg" xmlns:xlink="http://www.w3.org/1999/xlink">
<g id="graph0" class="graph" transform="scale(1 1) rotate(0) translate(4 246)">
<title>Server::removeEvent</title>
<!-- Node1 -->
<g id="Node000001" class="node">
<title>Node1</title>
<g id="a_Node000001"><a xlink:title="Wrapper function to EpollWrapper::removeEvent.">
<polygon fill="#999999" stroke="#666666" points="1079,-56 960,-56 960,-37 1079,-37 1079,-56"/>
<text text-anchor="middle" x="1019.5" y="-44" font-family="Helvetica,sans-Serif" font-size="10.00">Server::removeEvent</text>
</a>
</g>
</g>
<!-- Node2 -->
<g id="Node000002" class="node">
<title>Node2</title>
<g id="a_Node000002"><a xlink:href="class_server.html#ab4a0ae2ec5d126062a7c5d4a2f78160a" target="_top" xlink:title="Removes a CGI file descriptor from the server.">
<polygon fill="white" stroke="#666666" points="924,-112 748,-112 748,-93 924,-93 924,-112"/>
<text text-anchor="middle" x="836" y="-100" font-family="Helvetica,sans-Serif" font-size="10.00">Server::removeCGIFileDescriptor</text>
</a>
</g>
</g>
<!-- Node1&#45;&gt;Node2 -->
<g id="edge1_Node000001_Node000002" class="edge">
<title>Node1&#45;&gt;Node2</title>
<g id="a_edge1_Node000001_Node000002"><a xlink:title=" ">
<path fill="none" stroke="#63b8ff" d="M977.41,-59.18C944.13,-69.45 897.96,-83.69 867.79,-93"/>
<polygon fill="#63b8ff" stroke="#63b8ff" points="978.78,-62.42 987.3,-56.13 976.71,-55.73 978.78,-62.42"/>
</a>
</g>
</g>
<!-- Node8 -->
<g id="Node000008" class="node">
<title>Node8</title>
<g id="a_Node000008"><a xlink:href="_server_8cpp.html#a115ecd76e344c1007bedc48b9bbdc0fa" target="_top" xlink:title="Performs a graceful shutdown of the server.">
<polygon fill="white" stroke="#666666" points="272,-74 177,-74 177,-55 272,-55 272,-74"/>
<text text-anchor="middle" x="224.5" y="-62" font-family="Helvetica,sans-Serif" font-size="10.00">shutdownServer</text>
</a>
</g>
</g>
<!-- Node1&#45;&gt;Node8 -->
<g id="edge19_Node000001_Node000008" class="edge">
<title>Node1&#45;&gt;Node8</title>
<g id="a_edge19_Node000001_Node000008"><a xlink:title=" ">
<path fill="none" stroke="#63b8ff" d="M949.99,-35.82C873.87,-24.89 747.21,-9.5 637.5,-9.5 637.5,-9.5 637.5,-9.5 472,-9.5 389.57,-9.5 295.27,-39.16 250.99,-54.92"/>
<polygon fill="#63b8ff" stroke="#63b8ff" points="949.53,-39.29 959.93,-37.26 950.54,-32.36 949.53,-39.29"/>
</a>
</g>
</g>
<!-- Node3 -->
<g id="Node000003" class="node">
<title>Node3</title>
<g id="a_Node000003"><a xlink:href="_server_8cpp.html#a735bf6535f62b5907ea2d5f0e1abf3c7" target="_top" xlink:title="Handles receiving data from a CGI script and processes it accordingly.">
<polygon fill="white" stroke="#666666" points="712,-186 561,-186 561,-167 712,-167 712,-186"/>
<text text-anchor="middle" x="636.5" y="-174" font-family="Helvetica,sans-Serif" font-size="10.00">connectionReceiveFromCGI</text>
</a>
</g>
</g>
<!-- Node2&#45;&gt;Node3 -->
<g id="edge2_Node000002_Node000003" class="edge">
<title>Node2&#45;&gt;Node3</title>
<g id="a_edge2_Node000002_Node000003"><a xlink:title=" ">
<path fill="none" stroke="#63b8ff" d="M800.15,-115.56C760.92,-130.26 698.11,-153.79 663.13,-166.9"/>
<polygon fill="#63b8ff" stroke="#63b8ff" points="801.45,-118.81 809.58,-112.02 798.99,-112.25 801.45,-118.81"/>
</a>
</g>
</g>
<!-- Node14 -->
<g id="Node000014" class="node">
<title>Node14</title>
<g id="a_Node000014"><a xlink:href="_server_8cpp.html#aa67430205b6049aa70bad4682a7442b8" target="_top" xlink:title="Sends the request body to the CGI process.">
<polygon fill="white" stroke="#666666" points="697.5,-112 575.5,-112 575.5,-93 697.5,-93 697.5,-112"/>
<text text-anchor="middle" x="636.5" y="-100" font-family="Helvetica,sans-Serif" font-size="10.00">connectionSendToCGI</text>
</a>
</g>
</g>
<!-- Node2&#45;&gt;Node14 -->
<g id="edge14_Node000002_Node000014" class="edge">
<title>Node2&#45;&gt;Node14</title>
<g id="a_edge14_Node000002_Node000014"><a xlink:title=" ">
<path fill="none" stroke="#63b8ff" d="M737.43,-102.5C723.85,-102.5 710.23,-102.5 697.61,-102.5"/>
<polygon fill="#63b8ff" stroke="#63b8ff" points="737.8,-106 747.8,-102.5 737.8,-99 737.8,-106"/>
</a>
</g>
</g>
<!-- Node4 -->
<g id="Node000004" class="node">
<title>Node4</title>
<g id="a_Node000004"><a xlink:href="_server_8cpp.html#afb62203471d9a64b23d0267d5a4a261a" target="_top" xlink:title="Handle a client connection.">
<polygon fill="white" stroke="#666666" points="525,-168 421,-168 421,-149 525,-149 525,-168"/>
<text text-anchor="middle" x="473" y="-156" font-family="Helvetica,sans-Serif" font-size="10.00">handleConnection</text>
</a>
</g>
</g>
<!-- Node3&#45;&gt;Node4 -->
<g id="edge3_Node000003_Node000004" class="edge">
<title>Node3&#45;&gt;Node4</title>
<g id="a_edge3_Node000003_Node000004"><a xlink:title=" ">
<path fill="none" stroke="#63b8ff" d="M550.69,-167.05C542.01,-166.08 533.39,-165.12 525.23,-164.21"/>
<polygon fill="#63b8ff" stroke="#63b8ff" points="550.57,-170.56 560.9,-168.18 551.34,-163.6 550.57,-170.56"/>
</a>
</g>
</g>
<!-- Node12 -->
<g id="Node000012" class="node">
<title>Node12</title>
<g id="a_Node000012"><a xlink:href="test__connection_receive_from_c_g_i_8cpp.html#a3a257e52c0c048d052b1f9238cfe0411" target="_top" xlink:title=" ">
<polygon fill="white" stroke="#666666" points="499,-242 447,-242 447,-223 499,-223 499,-242"/>
<text text-anchor="middle" x="473" y="-230" font-family="Helvetica,sans-Serif" font-size="10.00">TEST_F</text>
</a>
</g>
</g>
<!-- Node3&#45;&gt;Node12 -->
<g id="edge12_Node000003_Node000012" class="edge">
<title>Node3&#45;&gt;Node12</title>
<g id="a_edge12_Node000003_Node000012"><a xlink:title=" ">
<path fill="none" stroke="#63b8ff" d="M597.9,-189.54C567.47,-200.09 525.46,-214.66 499.02,-223.83"/>
<polygon fill="#63b8ff" stroke="#63b8ff" points="599.44,-192.71 607.74,-186.13 597.14,-186.1 599.44,-192.71"/>
</a>
</g>
</g>
<!-- Node13 -->
<g id="Node000013" class="node">
<title>Node13</title>
<g id="a_Node000013"><a xlink:href="test__connection_receive_from_c_g_i_8cpp.html#acd248002a168209089438d39017ca034" target="_top" xlink:title=" ">
<polygon fill="white" stroke="#666666" points="499,-205 447,-205 447,-186 499,-186 499,-205"/>
<text text-anchor="middle" x="473" y="-193" font-family="Helvetica,sans-Serif" font-size="10.00">TEST_F</text>
</a>
</g>
</g>
<!-- Node3&#45;&gt;Node13 -->
<g id="edge13_Node000003_Node000013" class="edge">
<title>Node3&#45;&gt;Node13</title>
<g id="a_edge13_Node000003_Node000013"><a xlink:title=" ">
<path fill="none" stroke="#63b8ff" d="M550.75,-186.47C531.95,-188.68 513.44,-190.86 499.3,-192.52"/>
<polygon fill="#63b8ff" stroke="#63b8ff" points="551.37,-189.92 560.9,-185.28 550.56,-182.97 551.37,-189.92"/>
</a>
</g>
</g>
<!-- Node5 -->
<g id="Node000005" class="node">
<title>Node5</title>
<g id="a_Node000005"><a xlink:href="_server_8cpp.html#af9f4479a6262c17deef89938118d27f4" target="_top" xlink:title="Accepts new connections or handles existing ones.">
<polygon fill="white" stroke="#666666" points="385,-130 308,-130 308,-111 385,-111 385,-130"/>
<text text-anchor="middle" x="346.5" y="-118" font-family="Helvetica,sans-Serif" font-size="10.00">handleEvent</text>
</a>
</g>
</g>
<!-- Node4&#45;&gt;Node5 -->
<g id="edge4_Node000004_Node000005" class="edge">
<title>Node4&#45;&gt;Node5</title>
<g id="a_edge4_Node000004_Node000005"><a xlink:title=" ">
<path fill="none" stroke="#63b8ff" d="M430.93,-145.96C413.99,-140.8 394.68,-134.9 378.91,-130.09"/>
<polygon fill="#63b8ff" stroke="#63b8ff" points="430,-149.34 440.58,-148.91 432.04,-142.64 430,-149.34"/>
</a>
</g>
</g>
<!-- Node6 -->
<g id="Node000006" class="node">
<title>Node6</title>
<g id="a_Node000006"><a xlink:href="_server_8cpp.html#ab66b27c2186daacb15a6b13dd43be31b" target="_top" xlink:title="Runs the main event loop with a server object.">
<polygon fill="white" stroke="#666666" points="141,-130 77,-130 77,-111 141,-111 141,-130"/>
<text text-anchor="middle" x="109" y="-118" font-family="Helvetica,sans-Serif" font-size="10.00">runServer</text>
</a>
</g>
</g>
<!-- Node5&#45;&gt;Node6 -->
<g id="edge5_Node000005_Node000006" class="edge">
<title>Node5&#45;&gt;Node6</title>
<g id="a_edge5_Node000005_Node000006"><a xlink:title=" ">
<path fill="none" stroke="#63b8ff" d="M297.73,-120.5C250.95,-120.5 181.04,-120.5 141.05,-120.5"/>
<polygon fill="#63b8ff" stroke="#63b8ff" points="297.92,-124 307.92,-120.5 297.92,-117 297.92,-124"/>
</a>
</g>
</g>
<!-- Node5&#45;&gt;Node8 -->
<g id="edge7_Node000005_Node000008" class="edge">
<title>Node5&#45;&gt;Node8</title>
<g id="a_edge7_Node000005_Node000008"><a xlink:title=" ">
<path fill="none" stroke="#63b8ff" d="M315.74,-106.61C293.98,-96.46 265.03,-82.95 245.86,-74"/>
<polygon fill="#63b8ff" stroke="#63b8ff" points="314.33,-109.82 324.87,-110.87 317.29,-103.47 314.33,-109.82"/>
</a>
</g>
</g>
<!-- Node7 -->
<g id="Node000007" class="node">
<title>Node7</title>
<g id="a_Node000007"><a xlink:href="main_8cpp.html#a3c04138a5bfe5d72780bb7e82a18e627" target="_top" xlink:title=" ">
<polygon fill="white" stroke="#666666" points="41,-130 0,-130 0,-111 41,-111 41,-130"/>
<text text-anchor="middle" x="20.5" y="-118" font-family="Helvetica,sans-Serif" font-size="10.00">main</text>
</a>
</g>
</g>
<!-- Node6&#45;&gt;Node7 -->
<g id="edge6_Node000006_Node000007" class="edge">
<title>Node6&#45;&gt;Node7</title>
<g id="a_edge6_Node000006_Node000007"><a xlink:title=" ">
<path fill="none" stroke="#63b8ff" d="M66.5,-120.5C57.64,-120.5 48.68,-120.5 41.11,-120.5"/>
<polygon fill="#63b8ff" stroke="#63b8ff" points="66.77,-124 76.77,-120.5 66.77,-117 66.77,-124"/>
</a>
</g>
</g>
<!-- Node8&#45;&gt;Node6 -->
<g id="edge8_Node000008_Node000006" class="edge">
<title>Node8&#45;&gt;Node6</title>
<g id="a_edge8_Node000008_Node000006"><a xlink:title=" ">
<path fill="none" stroke="#63b8ff" d="M194.79,-78.66C174.28,-88.79 147.23,-102.13 129.26,-111"/>
<polygon fill="#63b8ff" stroke="#63b8ff" points="196.57,-81.69 203.99,-74.13 193.47,-75.41 196.57,-81.69"/>
</a>
</g>
</g>
<!-- Node9 -->
<g id="Node000009" class="node">
<title>Node9</title>
<g id="a_Node000009"><a xlink:href="test__shutdown_server_8cpp.html#a6462dc91a572c9969b759806ed15590b" target="_top" xlink:title=" ">
<polygon fill="white" stroke="#666666" points="135,-93 83,-93 83,-74 135,-74 135,-93"/>
<text text-anchor="middle" x="109" y="-81" font-family="Helvetica,sans-Serif" font-size="10.00">TEST_F</text>
</a>
</g>
</g>
<!-- Node8&#45;&gt;Node9 -->
<g id="edge9_Node000008_Node000009" class="edge">
<title>Node8&#45;&gt;Node9</title>
<g id="a_edge9_Node000008_Node000009"><a xlink:title=" ">
<path fill="none" stroke="#63b8ff" d="M166.63,-74.02C155.63,-75.86 144.64,-77.7 135.3,-79.26"/>
<polygon fill="#63b8ff" stroke="#63b8ff" points="167.4,-77.44 176.68,-72.34 166.24,-70.54 167.4,-77.44"/>
</a>
</g>
</g>
<!-- Node10 -->
<g id="Node000010" class="node">
<title>Node10</title>
<g id="a_Node000010"><a xlink:href="test__shutdown_server_8cpp.html#a69fea7b0fb329821fdd955271edc65ee" target="_top" xlink:title=" ">
<polygon fill="white" stroke="#666666" points="135,-56 83,-56 83,-37 135,-37 135,-56"/>
<text text-anchor="middle" x="109" y="-44" font-family="Helvetica,sans-Serif" font-size="10.00">TEST_F</text>
</a>
</g>
</g>
<!-- Node8&#45;&gt;Node10 -->
<g id="edge10_Node000008_Node000010" class="edge">
<title>Node8&#45;&gt;Node10</title>
<g id="a_edge10_Node000008_Node000010"><a xlink:title=" ">
<path fill="none" stroke="#63b8ff" d="M166.63,-55.48C155.63,-53.74 144.64,-51.99 135.3,-50.51"/>
<polygon fill="#63b8ff" stroke="#63b8ff" points="166.26,-58.97 176.68,-57.07 167.35,-52.05 166.26,-58.97"/>
</a>
</g>
</g>
<!-- Node11 -->
<g id="Node000011" class="node">
<title>Node11</title>
<g id="a_Node000011"><a xlink:href="test__shutdown_server_8cpp.html#ae0ede4f52ef6c742c532c14b92b6179a" target="_top" xlink:title=" ">
<polygon fill="white" stroke="#666666" points="135,-19 83,-19 83,0 135,0 135,-19"/>
<text text-anchor="middle" x="109" y="-7" font-family="Helvetica,sans-Serif" font-size="10.00">TEST_F</text>
</a>
</g>
</g>
<!-- Node8&#45;&gt;Node11 -->
<g id="edge11_Node000008_Node000011" class="edge">
<title>Node8&#45;&gt;Node11</title>
<g id="a_edge11_Node000008_Node000011"><a xlink:title=" ">
<path fill="none" stroke="#63b8ff" d="M194.64,-50.52C174.4,-40.71 147.85,-27.84 129.92,-19.16"/>
<polygon fill="#63b8ff" stroke="#63b8ff" points="193.2,-53.71 203.73,-54.92 196.26,-47.41 193.2,-53.71"/>
</a>
</g>
</g>
<!-- Node14&#45;&gt;Node4 -->
<g id="edge15_Node000014_Node000004" class="edge">
<title>Node14&#45;&gt;Node4</title>
<g id="a_edge15_Node000014_Node000004"><a xlink:title=" ">
<path fill="none" stroke="#63b8ff" d="M598.17,-115.44C568.62,-125.69 528.01,-139.77 501.4,-149"/>
<polygon fill="#63b8ff" stroke="#63b8ff" points="599.44,-118.71 607.74,-112.13 597.14,-112.1 599.44,-118.71"/>
</a>
</g>
</g>
<!-- Node15 -->
<g id="Node000015" class="node">
<title>Node15</title>
<g id="a_Node000015"><a xlink:href="test__connection_send_to_c_g_i_8cpp.html#a71e710d9b5f2f4a568086e70def06ccc" target="_top" xlink:title=" ">
<polygon fill="white" stroke="#666666" points="499,-131 447,-131 447,-112 499,-112 499,-131"/>
<text text-anchor="middle" x="473" y="-119" font-family="Helvetica,sans-Serif" font-size="10.00">TEST_F</text>
</a>
</g>
</g>
<!-- Node14&#45;&gt;Node15 -->
<g id="edge16_Node000014_Node000015" class="edge">
<title>Node14&#45;&gt;Node15</title>
<g id="a_edge16_Node000014_Node000015"><a xlink:title=" ">
<path fill="none" stroke="#63b8ff" d="M565.35,-110.75C541.76,-113.53 516.95,-116.45 499.14,-118.54"/>
<polygon fill="#63b8ff" stroke="#63b8ff" points="565.84,-114.22 575.36,-109.57 565.02,-107.27 565.84,-114.22"/>
</a>
</g>
</g>
<!-- Node16 -->
<g id="Node000016" class="node">
<title>Node16</title>
<g id="a_Node000016"><a xlink:href="test__connection_send_to_c_g_i_8cpp.html#ab009e8595170fb19af2600ddd2f4362a" target="_top" xlink:title=" ">
<polygon fill="white" stroke="#666666" points="499,-94 447,-94 447,-75 499,-75 499,-94"/>
<text text-anchor="middle" x="473" y="-82" font-family="Helvetica,sans-Serif" font-size="10.00">TEST_F</text>
</a>
</g>
</g>
<!-- Node14&#45;&gt;Node16 -->
<g id="edge17_Node000014_Node000016" class="edge">
<title>Node14&#45;&gt;Node16</title>
<g id="a_edge17_Node000014_Node000016"><a xlink:title=" ">
<path fill="none" stroke="#63b8ff" d="M565.35,-94.68C541.76,-92.05 516.95,-89.29 499.14,-87.3"/>
<polygon fill="#63b8ff" stroke="#63b8ff" points="565.04,-98.17 575.36,-95.8 565.81,-91.21 565.04,-98.17"/>
</a>
</g>
</g>
<!-- Node17 -->
<g id="Node000017" class="node">
<title>Node17</title>
<g id="a_Node000017"><a xlink:href="test__connection_send_to_c_g_i_8cpp.html#a35214933bd65d5cd26ad10f15604a4b3" target="_top" xlink:title=" ">
<polygon fill="white" stroke="#666666" points="499,-57 447,-57 447,-38 499,-38 499,-57"/>
<text text-anchor="middle" x="473" y="-45" font-family="Helvetica,sans-Serif" font-size="10.00">TEST_F</text>
</a>
</g>
</g>
<!-- Node14&#45;&gt;Node17 -->
<g id="edge18_Node000014_Node000017" class="edge">
<title>Node14&#45;&gt;Node17</title>
<g id="a_edge18_Node000014_Node000017"><a xlink:title=" ">
<path fill="none" stroke="#63b8ff" d="M597.55,-89.58C567.2,-79.24 525.51,-65.04 499.16,-56.07"/>
<polygon fill="#63b8ff" stroke="#63b8ff" points="596.77,-93.01 607.37,-92.92 599.03,-86.38 596.77,-93.01"/>
</a>
</g>
</g>
</g>
</svg>
