<?xml version="1.0" encoding="UTF-8" standalone="no"?>
<!DOCTYPE svg PUBLIC "-//W3C//DTD SVG 1.1//EN"
 "http://www.w3.org/Graphics/SVG/1.1/DTD/svg11.dtd">
<!-- Generated by graphviz version 2.43.0 (0)
 -->
<!-- Title: weblog::LogData::getLine Pages: 1 -->
<svg width="534pt" height="66pt"
 viewBox="0.00 0.00 534.00 66.00" xmlns="http://www.w3.org/2000/svg" xmlns:xlink="http://www.w3.org/1999/xlink">
<g id="graph0" class="graph" transform="scale(1 1) rotate(0) translate(4 62)">
<title>weblog::LogData::getLine</title>
<!-- Node1 -->
<g id="node1" class="node">
<title>Node1</title>
<g id="a_node1"><a xlink:title="Get the line number.">
<polygon fill="#bfbfbf" stroke="black" points="386,-19.5 386,-38.5 526,-38.5 526,-19.5 386,-19.5"/>
<text text-anchor="middle" x="456" y="-26.5" font-family="Helvetica,sans-Serif" font-size="10.00">weblog::LogData::getLine</text>
</a>
</g>
</g>
<!-- Node2 -->
<g id="node2" class="node">
<title>Node2</title>
<g id="a_node2"><a xlink:href="classweblog_1_1_a_log_outputter.html#a74e71c0a78eb3efd1a60fddc11cfa545" target="_top" xlink:title="Format a message out of the logData object.">
<polygon fill="none" stroke="black" points="218,-14 218,-44 350,-44 350,-14 218,-14"/>
<text text-anchor="start" x="226" y="-32" font-family="Helvetica,sans-Serif" font-size="10.00">weblog::ALogOutputter</text>
<text text-anchor="middle" x="284" y="-21" font-family="Helvetica,sans-Serif" font-size="10.00">::getFormattedMessage</text>
</a>
</g>
</g>
<!-- Node1&#45;&gt;Node2 -->
<g id="edge1" class="edge">
<title>Node1&#45;&gt;Node2</title>
<path fill="none" stroke="midnightblue" d="M375.85,-29C367.27,-29 358.62,-29 350.24,-29"/>
<polygon fill="midnightblue" stroke="midnightblue" points="375.85,-32.5 385.85,-29 375.85,-25.5 375.85,-32.5"/>
</g>
<!-- Node3 -->
<g id="node3" class="node">
<title>Node3</title>
<g id="a_node3"><a xlink:href="classweblog_1_1_log_outputter_console.html#a9312a8a9bbda182183261e323acdd28b" target="_top" xlink:title="Log a message to the console.">
<polygon fill="none" stroke="black" points="0,-38.5 0,-57.5 182,-57.5 182,-38.5 0,-38.5"/>
<text text-anchor="middle" x="91" y="-45.5" font-family="Helvetica,sans-Serif" font-size="10.00">weblog::LogOutputterConsole::log</text>
</a>
</g>
</g>
<!-- Node2&#45;&gt;Node3 -->
<g id="edge2" class="edge">
<title>Node2&#45;&gt;Node3</title>
<path fill="none" stroke="midnightblue" d="M207.72,-36.49C199.36,-37.32 190.78,-38.17 182.25,-39.02"/>
<polygon fill="midnightblue" stroke="midnightblue" points="208.2,-39.96 217.8,-35.49 207.51,-32.99 208.2,-39.96"/>
</g>
<!-- Node4 -->
<g id="node4" class="node">
<title>Node4</title>
<g id="a_node4"><a xlink:href="classweblog_1_1_log_outputter_file.html#ad39210f52d407c82467b79acf329a69d" target="_top" xlink:title="Log a message to the file.">
<polygon fill="none" stroke="black" points="11,-0.5 11,-19.5 171,-19.5 171,-0.5 11,-0.5"/>
<text text-anchor="middle" x="91" y="-7.5" font-family="Helvetica,sans-Serif" font-size="10.00">weblog::LogOutputterFile::log</text>
</a>
</g>
</g>
<!-- Node2&#45;&gt;Node4 -->
<g id="edge3" class="edge">
<title>Node2&#45;&gt;Node4</title>
<path fill="none" stroke="midnightblue" d="M207.8,-21.52C195.75,-20.32 183.24,-19.08 171.1,-17.87"/>
<polygon fill="midnightblue" stroke="midnightblue" points="207.51,-25.01 217.8,-22.51 208.2,-18.04 207.51,-25.01"/>
</g>
</g>
</svg>
