<?xml version="1.0" encoding="UTF-8" standalone="no"?>
<!DOCTYPE svg PUBLIC "-//W3C//DTD SVG 1.1//EN"
 "http://www.w3.org/Graphics/SVG/1.1/DTD/svg11.dtd">
<!-- Generated by graphviz version 2.43.0 (0)
 -->
<!-- Title: FileSystemPolicy::readDirectory Pages: 1 -->
<svg width="892pt" height="78pt"
 viewBox="0.00 0.00 892.00 77.50" xmlns="http://www.w3.org/2000/svg" xmlns:xlink="http://www.w3.org/1999/xlink">
<g id="graph0" class="graph" transform="scale(1 1) rotate(0) translate(4 73.5)">
<title>FileSystemPolicy::readDirectory</title>
<!-- Node1 -->
<g id="node1" class="node">
<title>Node1</title>
<g id="a_node1"><a xlink:title="Reads a directory.">
<polygon fill="#bfbfbf" stroke="black" points="712,-22.5 712,-41.5 884,-41.5 884,-22.5 712,-22.5"/>
<text text-anchor="middle" x="798" y="-29.5" font-family="Helvetica,sans-Serif" font-size="10.00">FileSystemPolicy::readDirectory</text>
</a>
</g>
</g>
<!-- Node2 -->
<g id="node2" class="node">
<title>Node2</title>
<g id="a_node2"><a xlink:href="class_directory.html#a09da8cd603ddb22990c5bb8165e14ea8" target="_top" xlink:title="Get the entries in the directory.">
<polygon fill="none" stroke="black" points="560,-22.5 560,-41.5 676,-41.5 676,-22.5 560,-22.5"/>
<text text-anchor="middle" x="618" y="-29.5" font-family="Helvetica,sans-Serif" font-size="10.00">Directory::getEntries</text>
</a>
</g>
</g>
<!-- Node1&#45;&gt;Node2 -->
<g id="edge1" class="edge">
<title>Node1&#45;&gt;Node2</title>
<path fill="none" stroke="midnightblue" d="M701.65,-32C692.93,-32 684.28,-32 676.06,-32"/>
<polygon fill="midnightblue" stroke="midnightblue" points="701.91,-35.5 711.91,-32 701.91,-28.5 701.91,-35.5"/>
</g>
<!-- Node3 -->
<g id="node3" class="node">
<title>Node3</title>
<g id="a_node3"><a xlink:href="class_autoindex_handler.html#a4ad00ccbce16e8913e108e9bf1114c3f" target="_top" xlink:title="Execute the autoindex handler.">
<polygon fill="none" stroke="black" points="375,-22.5 375,-41.5 524,-41.5 524,-22.5 375,-22.5"/>
<text text-anchor="middle" x="449.5" y="-29.5" font-family="Helvetica,sans-Serif" font-size="10.00">AutoindexHandler::execute</text>
</a>
</g>
</g>
<!-- Node2&#45;&gt;Node3 -->
<g id="edge2" class="edge">
<title>Node2&#45;&gt;Node3</title>
<path fill="none" stroke="midnightblue" d="M549.59,-32C541.19,-32 532.57,-32 524.08,-32"/>
<polygon fill="midnightblue" stroke="midnightblue" points="549.7,-35.5 559.7,-32 549.7,-28.5 549.7,-35.5"/>
</g>
<!-- Node4 -->
<g id="node4" class="node">
<title>Node4</title>
<g id="a_node4"><a xlink:href="class_response_body_handler.html#a0660b57e440e2c519761817d178818c0" target="_top" xlink:title="Create the response body.">
<polygon fill="none" stroke="black" points="212,-39 212,-69 339,-69 339,-39 212,-39"/>
<text text-anchor="start" x="220" y="-57" font-family="Helvetica,sans-Serif" font-size="10.00">ResponseBodyHandler</text>
<text text-anchor="middle" x="275.5" y="-46" font-family="Helvetica,sans-Serif" font-size="10.00">::execute</text>
</a>
</g>
</g>
<!-- Node3&#45;&gt;Node4 -->
<g id="edge3" class="edge">
<title>Node3&#45;&gt;Node4</title>
<path fill="none" stroke="midnightblue" d="M364.52,-42.74C355.94,-43.84 347.33,-44.94 339.04,-46"/>
<polygon fill="midnightblue" stroke="midnightblue" points="365.08,-46.2 374.56,-41.46 364.2,-39.25 365.08,-46.2"/>
</g>
<!-- Node6 -->
<g id="node6" class="node">
<title>Node6</title>
<g id="a_node6"><a xlink:href="test___autoindex_handler_8cpp.html#aa7105d131a234704f21f7b55222671b1" target="_top" xlink:title=" ">
<polygon fill="none" stroke="black" points="255,-0.5 255,-19.5 296,-19.5 296,-0.5 255,-0.5"/>
<text text-anchor="middle" x="275.5" y="-7.5" font-family="Helvetica,sans-Serif" font-size="10.00">TEST</text>
</a>
</g>
</g>
<!-- Node3&#45;&gt;Node6 -->
<g id="edge5" class="edge">
<title>Node3&#45;&gt;Node6</title>
<path fill="none" stroke="midnightblue" d="M364.45,-21.25C339,-17.99 313.31,-14.71 296.33,-12.54"/>
<polygon fill="midnightblue" stroke="midnightblue" points="364.2,-24.75 374.56,-22.54 365.08,-17.8 364.2,-24.75"/>
</g>
<!-- Node5 -->
<g id="node5" class="node">
<title>Node5</title>
<g id="a_node5"><a xlink:href="class_response_builder.html#a168279f2329e9055e3aa38f08f67c26f" target="_top" xlink:title="Build the response for a given request.">
<polygon fill="none" stroke="black" points="0,-44.5 0,-63.5 176,-63.5 176,-44.5 0,-44.5"/>
<text text-anchor="middle" x="88" y="-51.5" font-family="Helvetica,sans-Serif" font-size="10.00">ResponseBuilder::buildResponse</text>
</a>
</g>
</g>
<!-- Node4&#45;&gt;Node5 -->
<g id="edge4" class="edge">
<title>Node4&#45;&gt;Node5</title>
<path fill="none" stroke="midnightblue" d="M201.86,-54C193.47,-54 184.86,-54 176.3,-54"/>
<polygon fill="midnightblue" stroke="midnightblue" points="201.96,-57.5 211.96,-54 201.96,-50.5 201.96,-57.5"/>
</g>
</g>
</svg>
