<?xml version="1.0" encoding="UTF-8" standalone="no"?>
<!DOCTYPE svg PUBLIC "-//W3C//DTD SVG 1.1//EN"
 "http://www.w3.org/Graphics/SVG/1.1/DTD/svg11.dtd">
<!-- Generated by graphviz version 2.43.0 (0)
 -->
<!-- Title: Server::removeEvent Pages: 1 -->
<!--zoomable 957 -->

<svg id="main" version="1.1" xmlns="http://www.w3.org/2000/svg" xmlns:xlink="http://www.w3.org/1999/xlink" xml:space="preserve" onload="init(evt)">
<style type="text/css"><![CDATA[
.node, .edge {opacity: 0.7;}
.node.selected, .edge.selected {opacity: 1;}
.edge:hover path { stroke: red; }
.edge:hover polygon { stroke: red; fill: red; }
]]></style>

<defs>
  <circle id="rim" cx="0" cy="0" r="7"/>
  <circle id="rim2" cx="0" cy="0" r="3.5"/>
  <g id="zoomPlus">
    <use xlink:href="#rim" fill="#404040"><set attributeName="fill" to="#808080" begin="zoomplus.mouseover" end="zoomplus.mouseout"/></use>
    <path d="M-4,0h8M0,-4v8" fill="none" stroke="white" stroke-width="1.5" pointer-events="none"/>
  </g>
  <g id="zoomMin">
    <use xlink:href="#rim" fill="#404040"><set attributeName="fill" to="#808080" begin="zoomminus.mouseover" end="zoomminus.mouseout"/></use>
    <path d="M-4,0h8" fill="none" stroke="white" stroke-width="1.5" pointer-events="none"/>
  </g>
  <g id="arrowUp" transform="translate(30 24)">
    <use xlink:href="#rim"/>
    <path pointer-events="none" fill="none" stroke="white" stroke-width="1.5" d="M0,-3.0v7 M-2.5,-0.5L0,-3.0L2.5,-0.5"/>
  </g>
  <g id="arrowRight" transform="rotate(90) translate(36 -43)">
    <use xlink:href="#rim"/>
    <path pointer-events="none" fill="none" stroke="white" stroke-width="1.5" d="M0,-3.0v7 M-2.5,-0.5L0,-3.0L2.5,-0.5"/>
  </g>
  <g id="arrowDown" transform="rotate(180) translate(-30 -48)">
    <use xlink:href="#rim"/>
    <path pointer-events="none" fill="none" stroke="white" stroke-width="1.5" d="M0,-3.0v7 M-2.5,-0.5L0,-3.0L2.5,-0.5"/>
  </g>
  <g id="arrowLeft" transform="rotate(270) translate(-36 17)">
    <use xlink:href="#rim"/>
    <path pointer-events="none" fill="none" stroke="white" stroke-width="1.5" d="M0,-3.0v7 M-2.5,-0.5L0,-3.0L2.5,-0.5"/>
  </g>
  <g id="resetDef">
    <use xlink:href="#rim2" fill="#404040"><set attributeName="fill" to="#808080" begin="reset.mouseover" end="reset.mouseout"/></use>
  </g>
</defs>
<script type="application/ecmascript">
var viewWidth = 1477;
var viewHeight = 957;
var sectionId = 'dynsection-25';
</script>
<script type="application/ecmascript" xlink:href="svg.min.js"/>
<svg id="graph" class="graph">
<g id="viewport">
<title>Server::removeEvent</title>
<!-- Node1 -->
<g id="Node000001" class="node">
<title>Node1</title>
<g id="a_Node000001"><a xlink:title="Wrapper function to EpollWrapper::removeEvent.">
<polygon fill="#999999" stroke="#666666" points="1469,-763 1350,-763 1350,-744 1469,-744 1469,-763"/>
<text text-anchor="middle" x="1409.5" y="-751" font-family="Helvetica,sans-Serif" font-size="10.00">Server::removeEvent</text>
</a>
</g>
</g>
<!-- Node2 -->
<g id="Node000002" class="node">
<title>Node2</title>
<g id="a_Node000002"><a xlink:href="class_server.html#ab4a0ae2ec5d126062a7c5d4a2f78160a" target="_top" xlink:title="Removes a CGI file descriptor from the server.">
<polygon fill="white" stroke="#666666" points="924,-801 748,-801 748,-782 924,-782 924,-801"/>
<text text-anchor="middle" x="836" y="-789" font-family="Helvetica,sans-Serif" font-size="10.00">Server::removeCGIFileDescriptor</text>
</a>
</g>
</g>
<!-- Node1&#45;&gt;Node2 -->
<g id="edge1_Node000001_Node000002" class="edge">
<title>Node1&#45;&gt;Node2</title>
<g id="a_edge1_Node000001_Node000002"><a xlink:title=" ">
<path fill="none" stroke="#63b8ff" d="M1340.44,-764.39C1331.56,-765.57 1322.57,-766.65 1314,-767.5 1178.26,-780.94 1020.01,-787.02 924.23,-789.64"/>
<polygon fill="#63b8ff" stroke="#63b8ff" points="1340.96,-767.85 1350.39,-763.01 1340,-760.91 1340.96,-767.85"/>
</a>
</g>
</g>
<!-- Node8 -->
<g id="Node000008" class="node">
<title>Node8</title>
<g id="a_Node000008"><a xlink:href="_server_8cpp.html#a115ecd76e344c1007bedc48b9bbdc0fa" target="_top" xlink:title="Performs a graceful shutdown of the server.">
<polygon fill="white" stroke="#666666" points="272,-652 177,-652 177,-633 272,-633 272,-652"/>
<text text-anchor="middle" x="224.5" y="-640" font-family="Helvetica,sans-Serif" font-size="10.00">shutdownServer</text>
</a>
</g>
</g>
<!-- Node1&#45;&gt;Node8 -->
<g id="edge53_Node000001_Node000008" class="edge">
<title>Node1&#45;&gt;Node8</title>
<g id="a_edge53_Node000001_Node000008"><a xlink:title=" ">
<path fill="none" stroke="#63b8ff" d="M1339.56,-753.5C1266.82,-753.5 1148.84,-753.5 1047,-753.5 1047,-753.5 1047,-753.5 472,-753.5 373.91,-753.5 271.68,-679.52 237.46,-652.35"/>
<polygon fill="#63b8ff" stroke="#63b8ff" points="1339.96,-757 1349.96,-753.5 1339.96,-750 1339.96,-757"/>
</a>
</g>
</g>
<!-- Node18 -->
<g id="Node000018" class="node">
<title>Node18</title>
<g id="a_Node000018"><a xlink:href="class_server.html#ae04a9076862f2163c562e20fa2207681" target="_top" xlink:title="Removes a Connection from the Server.">
<polygon fill="white" stroke="#666666" points="1314,-540 1168,-540 1168,-521 1314,-521 1314,-540"/>
<text text-anchor="middle" x="1241" y="-528" font-family="Helvetica,sans-Serif" font-size="10.00">Server::removeConnection</text>
</a>
</g>
</g>
<!-- Node1&#45;&gt;Node18 -->
<g id="edge19_Node000001_Node000018" class="edge">
<title>Node1&#45;&gt;Node18</title>
<g id="a_edge19_Node000001_Node000018"><a xlink:title=" ">
<path fill="none" stroke="#63b8ff" d="M1395.22,-735.72C1361.73,-690.86 1274.65,-574.23 1249.13,-540.05"/>
<polygon fill="#63b8ff" stroke="#63b8ff" points="1392.56,-738 1401.35,-743.92 1398.17,-733.81 1392.56,-738"/>
</a>
</g>
</g>
<!-- Node3 -->
<g id="Node000003" class="node">
<title>Node3</title>
<g id="a_Node000003"><a xlink:href="_server_8cpp.html#a735bf6535f62b5907ea2d5f0e1abf3c7" target="_top" xlink:title="Handles receiving data from a CGI script and processes it accordingly.">
<polygon fill="white" stroke="#666666" points="712,-801 561,-801 561,-782 712,-782 712,-801"/>
<text text-anchor="middle" x="636.5" y="-789" font-family="Helvetica,sans-Serif" font-size="10.00">connectionReceiveFromCGI</text>
</a>
</g>
</g>
<!-- Node2&#45;&gt;Node3 -->
<g id="edge2_Node000002_Node000003" class="edge">
<title>Node2&#45;&gt;Node3</title>
<g id="a_edge2_Node000002_Node000003"><a xlink:title=" ">
<path fill="none" stroke="#63b8ff" d="M737.73,-791.5C729.14,-791.5 720.53,-791.5 712.17,-791.5"/>
<polygon fill="#63b8ff" stroke="#63b8ff" points="737.8,-795 747.8,-791.5 737.8,-788 737.8,-795"/>
</a>
</g>
</g>
<!-- Node14 -->
<g id="Node000014" class="node">
<title>Node14</title>
<g id="a_Node000014"><a xlink:href="_server_8cpp.html#aa67430205b6049aa70bad4682a7442b8" target="_top" xlink:title="Sends the request body to the CGI process.">
<polygon fill="white" stroke="#666666" points="697.5,-875 575.5,-875 575.5,-856 697.5,-856 697.5,-875"/>
<text text-anchor="middle" x="636.5" y="-863" font-family="Helvetica,sans-Serif" font-size="10.00">connectionSendToCGI</text>
</a>
</g>
</g>
<!-- Node2&#45;&gt;Node14 -->
<g id="edge14_Node000002_Node000014" class="edge">
<title>Node2&#45;&gt;Node14</title>
<g id="a_edge14_Node000002_Node000014"><a xlink:title=" ">
<path fill="none" stroke="#63b8ff" d="M800.15,-804.56C760.92,-819.26 698.11,-842.79 663.13,-855.9"/>
<polygon fill="#63b8ff" stroke="#63b8ff" points="801.45,-807.81 809.58,-801.02 798.99,-801.25 801.45,-807.81"/>
</a>
</g>
</g>
<!-- Node4 -->
<g id="Node000004" class="node">
<title>Node4</title>
<g id="a_Node000004"><a xlink:href="_server_8cpp.html#afb62203471d9a64b23d0267d5a4a261a" target="_top" xlink:title="Handle a client connection.">
<polygon fill="white" stroke="#666666" points="525,-483 421,-483 421,-464 525,-464 525,-483"/>
<text text-anchor="middle" x="473" y="-471" font-family="Helvetica,sans-Serif" font-size="10.00">handleConnection</text>
</a>
</g>
</g>
<!-- Node3&#45;&gt;Node4 -->
<g id="edge3_Node000003_Node000004" class="edge">
<title>Node3&#45;&gt;Node4</title>
<g id="a_edge3_Node000003_Node000004"><a xlink:title=" ">
<path fill="none" stroke="#63b8ff" d="M619.31,-774.39C602.93,-756.38 577.7,-726.64 561,-697.5 516.61,-620.04 485.64,-515.55 476.67,-483.35"/>
<polygon fill="#63b8ff" stroke="#63b8ff" points="616.8,-776.83 626.15,-781.8 621.94,-772.08 616.8,-776.83"/>
</a>
</g>
</g>
<!-- Node12 -->
<g id="Node000012" class="node">
<title>Node12</title>
<g id="a_Node000012"><a xlink:href="test__connection_receive_from_c_g_i_8cpp.html#a3a257e52c0c048d052b1f9238cfe0411" target="_top" xlink:title=" ">
<polygon fill="white" stroke="#666666" points="499,-801 447,-801 447,-782 499,-782 499,-801"/>
<text text-anchor="middle" x="473" y="-789" font-family="Helvetica,sans-Serif" font-size="10.00">TEST_F</text>
</a>
</g>
</g>
<!-- Node3&#45;&gt;Node12 -->
<g id="edge12_Node000003_Node000012" class="edge">
<title>Node3&#45;&gt;Node12</title>
<g id="a_edge12_Node000003_Node000012"><a xlink:title=" ">
<path fill="none" stroke="#63b8ff" d="M550.75,-791.5C531.95,-791.5 513.44,-791.5 499.3,-791.5"/>
<polygon fill="#63b8ff" stroke="#63b8ff" points="550.9,-795 560.9,-791.5 550.9,-788 550.9,-795"/>
</a>
</g>
</g>
<!-- Node13 -->
<g id="Node000013" class="node">
<title>Node13</title>
<g id="a_Node000013"><a xlink:href="test__connection_receive_from_c_g_i_8cpp.html#acd248002a168209089438d39017ca034" target="_top" xlink:title=" ">
<polygon fill="white" stroke="#666666" points="499,-838 447,-838 447,-819 499,-819 499,-838"/>
<text text-anchor="middle" x="473" y="-826" font-family="Helvetica,sans-Serif" font-size="10.00">TEST_F</text>
</a>
</g>
</g>
<!-- Node3&#45;&gt;Node13 -->
<g id="edge13_Node000003_Node000013" class="edge">
<title>Node3&#45;&gt;Node13</title>
<g id="a_edge13_Node000003_Node000013"><a xlink:title=" ">
<path fill="none" stroke="#63b8ff" d="M584.16,-803.26C555.86,-809.75 521.97,-817.51 499.32,-822.7"/>
<polygon fill="#63b8ff" stroke="#63b8ff" points="584.94,-806.67 593.91,-801.03 583.38,-799.85 584.94,-806.67"/>
</a>
</g>
</g>
<!-- Node5 -->
<g id="Node000005" class="node">
<title>Node5</title>
<g id="a_Node000005"><a xlink:href="_server_8cpp.html#af9f4479a6262c17deef89938118d27f4" target="_top" xlink:title="Accepts new connections or handles existing ones.">
<polygon fill="white" stroke="#666666" points="385,-614 308,-614 308,-595 385,-595 385,-614"/>
<text text-anchor="middle" x="346.5" y="-602" font-family="Helvetica,sans-Serif" font-size="10.00">handleEvent</text>
</a>
</g>
</g>
<!-- Node4&#45;&gt;Node5 -->
<g id="edge4_Node000004_Node000005" class="edge">
<title>Node4&#45;&gt;Node5</title>
<g id="a_edge4_Node000004_Node000005"><a xlink:title=" ">
<path fill="none" stroke="#63b8ff" d="M455.56,-490.8C428.99,-518.75 377.51,-572.93 356.63,-594.9"/>
<polygon fill="#63b8ff" stroke="#63b8ff" points="458.29,-493.01 462.64,-483.35 453.22,-488.18 458.29,-493.01"/>
</a>
</g>
</g>
<!-- Node6 -->
<g id="Node000006" class="node">
<title>Node6</title>
<g id="a_Node000006"><a xlink:href="_server_8cpp.html#ab66b27c2186daacb15a6b13dd43be31b" target="_top" xlink:title="Runs the main event loop with a server object.">
<polygon fill="white" stroke="#666666" points="141,-614 77,-614 77,-595 141,-595 141,-614"/>
<text text-anchor="middle" x="109" y="-602" font-family="Helvetica,sans-Serif" font-size="10.00">runServer</text>
</a>
</g>
</g>
<!-- Node5&#45;&gt;Node6 -->
<g id="edge5_Node000005_Node000006" class="edge">
<title>Node5&#45;&gt;Node6</title>
<g id="a_edge5_Node000005_Node000006"><a xlink:title=" ">
<path fill="none" stroke="#63b8ff" d="M297.73,-604.5C250.95,-604.5 181.04,-604.5 141.05,-604.5"/>
<polygon fill="#63b8ff" stroke="#63b8ff" points="297.92,-608 307.92,-604.5 297.92,-601 297.92,-608"/>
</a>
</g>
</g>
<!-- Node5&#45;&gt;Node8 -->
<g id="edge7_Node000005_Node000008" class="edge">
<title>Node5&#45;&gt;Node8</title>
<g id="a_edge7_Node000005_Node000008"><a xlink:title=" ">
<path fill="none" stroke="#63b8ff" d="M305.46,-617.18C289.24,-622.31 270.83,-628.14 255.77,-632.91"/>
<polygon fill="#63b8ff" stroke="#63b8ff" points="306.74,-620.44 315.22,-614.09 304.63,-613.77 306.74,-620.44"/>
</a>
</g>
</g>
<!-- Node7 -->
<g id="Node000007" class="node">
<title>Node7</title>
<g id="a_Node000007"><a xlink:href="main_8cpp.html#ad53223b8779f25caeddb70a3b9172967" target="_top" xlink:title=" ">
<polygon fill="white" stroke="#666666" points="41,-614 0,-614 0,-595 41,-595 41,-614"/>
<text text-anchor="middle" x="20.5" y="-602" font-family="Helvetica,sans-Serif" font-size="10.00">main</text>
</a>
</g>
</g>
<!-- Node6&#45;&gt;Node7 -->
<g id="edge6_Node000006_Node000007" class="edge">
<title>Node6&#45;&gt;Node7</title>
<g id="a_edge6_Node000006_Node000007"><a xlink:title=" ">
<path fill="none" stroke="#63b8ff" d="M66.5,-604.5C57.64,-604.5 48.68,-604.5 41.11,-604.5"/>
<polygon fill="#63b8ff" stroke="#63b8ff" points="66.77,-608 76.77,-604.5 66.77,-601 66.77,-608"/>
</a>
</g>
</g>
<!-- Node8&#45;&gt;Node6 -->
<g id="edge8_Node000008_Node000006" class="edge">
<title>Node8&#45;&gt;Node6</title>
<g id="a_edge8_Node000008_Node000006"><a xlink:title=" ">
<path fill="none" stroke="#63b8ff" d="M185.19,-629.67C169.96,-624.58 152.74,-618.81 138.63,-614.09"/>
<polygon fill="#63b8ff" stroke="#63b8ff" points="184.27,-633.06 194.86,-632.91 186.49,-626.42 184.27,-633.06"/>
</a>
</g>
</g>
<!-- Node9 -->
<g id="Node000009" class="node">
<title>Node9</title>
<g id="a_Node000009"><a xlink:href="test__shutdown_server_8cpp.html#a6462dc91a572c9969b759806ed15590b" target="_top" xlink:title=" ">
<polygon fill="white" stroke="#666666" points="135,-725 83,-725 83,-706 135,-706 135,-725"/>
<text text-anchor="middle" x="109" y="-713" font-family="Helvetica,sans-Serif" font-size="10.00">TEST_F</text>
</a>
</g>
</g>
<!-- Node8&#45;&gt;Node9 -->
<g id="edge9_Node000008_Node000009" class="edge">
<title>Node8&#45;&gt;Node9</title>
<g id="a_edge9_Node000008_Node000009"><a xlink:title=" ">
<path fill="none" stroke="#63b8ff" d="M201.25,-657.88C184.78,-669.12 161.71,-684.6 141,-697.5 136.46,-700.33 131.47,-703.29 126.84,-705.97"/>
<polygon fill="#63b8ff" stroke="#63b8ff" points="203.39,-660.65 209.66,-652.11 199.43,-654.88 203.39,-660.65"/>
</a>
</g>
</g>
<!-- Node10 -->
<g id="Node000010" class="node">
<title>Node10</title>
<g id="a_Node000010"><a xlink:href="test__shutdown_server_8cpp.html#a69fea7b0fb329821fdd955271edc65ee" target="_top" xlink:title=" ">
<polygon fill="white" stroke="#666666" points="135,-688 83,-688 83,-669 135,-669 135,-688"/>
<text text-anchor="middle" x="109" y="-676" font-family="Helvetica,sans-Serif" font-size="10.00">TEST_F</text>
</a>
</g>
</g>
<!-- Node8&#45;&gt;Node10 -->
<g id="edge10_Node000008_Node000010" class="edge">
<title>Node8&#45;&gt;Node10</title>
<g id="a_edge10_Node000008_Node000010"><a xlink:title=" ">
<path fill="none" stroke="#63b8ff" d="M183.67,-655.13C167.58,-660.24 149.49,-665.97 135.26,-670.49"/>
<polygon fill="#63b8ff" stroke="#63b8ff" points="184.91,-658.41 193.38,-652.05 182.79,-651.74 184.91,-658.41"/>
</a>
</g>
</g>
<!-- Node11 -->
<g id="Node000011" class="node">
<title>Node11</title>
<g id="a_Node000011"><a xlink:href="test__shutdown_server_8cpp.html#a224e0b58937c3db439ffeef179620439" target="_top" xlink:title=" ">
<polygon fill="white" stroke="#666666" points="135,-651 83,-651 83,-632 135,-632 135,-651"/>
<text text-anchor="middle" x="109" y="-639" font-family="Helvetica,sans-Serif" font-size="10.00">TEST_F</text>
</a>
</g>
</g>
<!-- Node8&#45;&gt;Node11 -->
<g id="edge11_Node000008_Node000011" class="edge">
<title>Node8&#45;&gt;Node11</title>
<g id="a_edge11_Node000008_Node000011"><a xlink:title=" ">
<path fill="none" stroke="#63b8ff" d="M166.63,-642C155.63,-641.9 144.64,-641.81 135.3,-641.72"/>
<polygon fill="#63b8ff" stroke="#63b8ff" points="166.65,-645.5 176.68,-642.09 166.71,-638.5 166.65,-645.5"/>
</a>
</g>
</g>
<!-- Node14&#45;&gt;Node4 -->
<g id="edge15_Node000014_Node000004" class="edge">
<title>Node14&#45;&gt;Node4</title>
<g id="a_edge15_Node000014_Node000004"><a xlink:title=" ">
<path fill="none" stroke="#63b8ff" d="M606.85,-850.77C591.11,-841.28 572.5,-827.54 561,-810.5 485.44,-698.56 475.5,-525.21 474.2,-483"/>
<polygon fill="#63b8ff" stroke="#63b8ff" points="605.29,-853.91 615.71,-855.86 608.78,-847.84 605.29,-853.91"/>
</a>
</g>
</g>
<!-- Node15 -->
<g id="Node000015" class="node">
<title>Node15</title>
<g id="a_Node000015"><a xlink:href="test__connection_send_to_c_g_i_8cpp.html#a71e710d9b5f2f4a568086e70def06ccc" target="_top" xlink:title=" ">
<polygon fill="white" stroke="#666666" points="499,-912 447,-912 447,-893 499,-893 499,-912"/>
<text text-anchor="middle" x="473" y="-900" font-family="Helvetica,sans-Serif" font-size="10.00">TEST_F</text>
</a>
</g>
</g>
<!-- Node14&#45;&gt;Node15 -->
<g id="edge16_Node000014_Node000015" class="edge">
<title>Node14&#45;&gt;Node15</title>
<g id="a_edge16_Node000014_Node000015"><a xlink:title=" ">
<path fill="none" stroke="#63b8ff" d="M584.16,-877.26C555.86,-883.75 521.97,-891.51 499.32,-896.7"/>
<polygon fill="#63b8ff" stroke="#63b8ff" points="584.94,-880.67 593.91,-875.03 583.38,-873.85 584.94,-880.67"/>
</a>
</g>
</g>
<!-- Node16 -->
<g id="Node000016" class="node">
<title>Node16</title>
<g id="a_Node000016"><a xlink:href="test__connection_send_to_c_g_i_8cpp.html#ab009e8595170fb19af2600ddd2f4362a" target="_top" xlink:title=" ">
<polygon fill="white" stroke="#666666" points="499,-875 447,-875 447,-856 499,-856 499,-875"/>
<text text-anchor="middle" x="473" y="-863" font-family="Helvetica,sans-Serif" font-size="10.00">TEST_F</text>
</a>
</g>
</g>
<!-- Node14&#45;&gt;Node16 -->
<g id="edge17_Node000014_Node000016" class="edge">
<title>Node14&#45;&gt;Node16</title>
<g id="a_edge17_Node000014_Node000016"><a xlink:title=" ">
<path fill="none" stroke="#63b8ff" d="M565.35,-865.5C541.76,-865.5 516.95,-865.5 499.14,-865.5"/>
<polygon fill="#63b8ff" stroke="#63b8ff" points="565.36,-869 575.36,-865.5 565.36,-862 565.36,-869"/>
</a>
</g>
</g>
<!-- Node17 -->
<g id="Node000017" class="node">
<title>Node17</title>
<g id="a_Node000017"><a xlink:href="test__connection_send_to_c_g_i_8cpp.html#a35214933bd65d5cd26ad10f15604a4b3" target="_top" xlink:title=" ">
<polygon fill="white" stroke="#666666" points="499,-949 447,-949 447,-930 499,-930 499,-949"/>
<text text-anchor="middle" x="473" y="-937" font-family="Helvetica,sans-Serif" font-size="10.00">TEST_F</text>
</a>
</g>
</g>
<!-- Node14&#45;&gt;Node17 -->
<g id="edge18_Node000014_Node000017" class="edge">
<title>Node14&#45;&gt;Node17</title>
<g id="a_edge18_Node000014_Node000017"><a xlink:title=" ">
<path fill="none" stroke="#63b8ff" d="M609.15,-880.08C587.04,-892 554.45,-908.9 525,-921.5 516.71,-925.04 507.47,-928.46 499.15,-931.35"/>
<polygon fill="#63b8ff" stroke="#63b8ff" points="611.11,-882.99 618.23,-875.14 607.77,-876.84 611.11,-882.99"/>
</a>
</g>
</g>
<!-- Node19 -->
<g id="Node000019" class="node">
<title>Node19</title>
<g id="a_Node000019"><a xlink:href="_server_8cpp.html#a3e07b970ffa58c9315b38673aff94f84" target="_top" xlink:title="Handles the reception of the request body from a client connection.">
<polygon fill="white" stroke="#666666" points="1113,-167 979,-167 979,-148 1113,-148 1113,-167"/>
<text text-anchor="middle" x="1046" y="-155" font-family="Helvetica,sans-Serif" font-size="10.00">connectionReceiveBody</text>
</a>
</g>
</g>
<!-- Node18&#45;&gt;Node19 -->
<g id="edge20_Node000018_Node000019" class="edge">
<title>Node18&#45;&gt;Node19</title>
<g id="a_edge20_Node000018_Node000019"><a xlink:title=" ">
<path fill="none" stroke="#63b8ff" d="M1230.37,-511.89C1195.64,-444.78 1077.56,-216.55 1051.93,-167.03"/>
<polygon fill="#63b8ff" stroke="#63b8ff" points="1227.33,-513.63 1235.04,-520.9 1233.55,-510.41 1227.33,-513.63"/>
</a>
</g>
</g>
<!-- Node27 -->
<g id="Node000027" class="node">
<title>Node27</title>
<g id="a_Node000027"><a xlink:href="_server_8cpp.html#aa45d6529fd7be9b7adf788a9679ae34b" target="_top" xlink:title="Receive request header from a client.">
<polygon fill="white" stroke="#666666" points="908,-540 764,-540 764,-521 908,-521 908,-540"/>
<text text-anchor="middle" x="836" y="-528" font-family="Helvetica,sans-Serif" font-size="10.00">connectionReceiveHeader</text>
</a>
</g>
</g>
<!-- Node18&#45;&gt;Node27 -->
<g id="edge29_Node000018_Node000027" class="edge">
<title>Node18&#45;&gt;Node27</title>
<g id="a_edge29_Node000018_Node000027"><a xlink:title=" ">
<path fill="none" stroke="#63b8ff" d="M1157.82,-530.5C1084.39,-530.5 977.92,-530.5 908.09,-530.5"/>
<polygon fill="#63b8ff" stroke="#63b8ff" points="1157.95,-534 1167.95,-530.5 1157.95,-527 1157.95,-534"/>
</a>
</g>
</g>
<!-- Node33 -->
<g id="Node000033" class="node">
<title>Node33</title>
<g id="a_Node000033"><a xlink:href="_server_8cpp.html#a43e9e764c97aacfc12f233b33ffa3342" target="_top" xlink:title="Sends the response to a client connection.">
<polygon fill="white" stroke="#666666" points="1116.5,-429 975.5,-429 975.5,-410 1116.5,-410 1116.5,-429"/>
<text text-anchor="middle" x="1046" y="-417" font-family="Helvetica,sans-Serif" font-size="10.00">connectionSendResponse</text>
</a>
</g>
</g>
<!-- Node18&#45;&gt;Node33 -->
<g id="edge36_Node000018_Node000033" class="edge">
<title>Node18&#45;&gt;Node33</title>
<g id="a_edge36_Node000018_Node000033"><a xlink:title=" ">
<path fill="none" stroke="#63b8ff" d="M1214.53,-515.85C1174.37,-492.75 1097.41,-448.49 1063.61,-429.05"/>
<polygon fill="#63b8ff" stroke="#63b8ff" points="1212.8,-518.89 1223.21,-520.84 1216.29,-512.82 1212.8,-518.89"/>
</a>
</g>
</g>
<!-- Node40 -->
<g id="Node000040" class="node">
<title>Node40</title>
<g id="a_Node000040"><a xlink:href="_server_8cpp.html#a83350eae81b96dd7b301d1238268ffdb" target="_top" xlink:title="Handles the complete request header received from a client.">
<polygon fill="white" stroke="#666666" points="1132,-614 960,-614 960,-595 1132,-595 1132,-614"/>
<text text-anchor="middle" x="1046" y="-602" font-family="Helvetica,sans-Serif" font-size="10.00">handleCompleteRequestHeader</text>
</a>
</g>
</g>
<!-- Node18&#45;&gt;Node40 -->
<g id="edge46_Node000018_Node000040" class="edge">
<title>Node18&#45;&gt;Node40</title>
<g id="a_edge46_Node000018_Node000040"><a xlink:title=" ">
<path fill="none" stroke="#63b8ff" d="M1205.46,-543.74C1167.09,-558.46 1106.08,-581.85 1072.05,-594.9"/>
<polygon fill="#63b8ff" stroke="#63b8ff" points="1207.08,-546.87 1215.16,-540.02 1204.57,-540.33 1207.08,-546.87"/>
</a>
</g>
</g>
<!-- Node19&#45;&gt;Node4 -->
<g id="edge21_Node000019_Node000004" class="edge">
<title>Node19&#45;&gt;Node4</title>
<g id="a_edge21_Node000019_Node000004"><a xlink:title=" ">
<path fill="none" stroke="#63b8ff" d="M1028.06,-174.26C1006,-195.1 965.35,-230.29 924,-249.5 774.08,-319.13 695.35,-234.2 561,-330.5 512.11,-365.54 485.4,-437.41 476.97,-463.64"/>
<polygon fill="#63b8ff" stroke="#63b8ff" points="1030.54,-176.73 1035.32,-167.28 1025.68,-171.69 1030.54,-176.73"/>
</a>
</g>
</g>
<!-- Node20 -->
<g id="Node000020" class="node">
<title>Node20</title>
<g id="a_Node000020"><a xlink:href="test__connection_receive_body_8cpp.html#a19ac3fc035f7139c0a794d3020c4640b" target="_top" xlink:title=" ">
<polygon fill="white" stroke="#666666" points="862,-204 810,-204 810,-185 862,-185 862,-204"/>
<text text-anchor="middle" x="836" y="-192" font-family="Helvetica,sans-Serif" font-size="10.00">TEST_F</text>
</a>
</g>
</g>
<!-- Node19&#45;&gt;Node20 -->
<g id="edge22_Node000019_Node000020" class="edge">
<title>Node19&#45;&gt;Node20</title>
<g id="a_edge22_Node000019_Node000020"><a xlink:title=" ">
<path fill="none" stroke="#63b8ff" d="M981.43,-168.81C941.2,-175.96 891.41,-184.82 862.04,-190.05"/>
<polygon fill="#63b8ff" stroke="#63b8ff" points="982.2,-172.23 991.43,-167.03 980.98,-165.33 982.2,-172.23"/>
</a>
</g>
</g>
<!-- Node21 -->
<g id="Node000021" class="node">
<title>Node21</title>
<g id="a_Node000021"><a xlink:href="test__connection_receive_body_8cpp.html#a259717d7651caed4350409cf61f62243" target="_top" xlink:title=" ">
<polygon fill="white" stroke="#666666" points="862,-56 810,-56 810,-37 862,-37 862,-56"/>
<text text-anchor="middle" x="836" y="-44" font-family="Helvetica,sans-Serif" font-size="10.00">TEST_F</text>
</a>
</g>
</g>
<!-- Node19&#45;&gt;Node21 -->
<g id="edge23_Node000019_Node000021" class="edge">
<title>Node19&#45;&gt;Node21</title>
<g id="a_edge23_Node000019_Node000021"><a xlink:title=" ">
<path fill="none" stroke="#63b8ff" d="M1028.49,-140.78C1006.59,-119.63 965.83,-83.67 924,-64.5 904.37,-55.5 880.19,-50.96 862.31,-48.7"/>
<polygon fill="#63b8ff" stroke="#63b8ff" points="1026.08,-143.32 1035.66,-147.84 1030.99,-138.33 1026.08,-143.32"/>
</a>
</g>
</g>
<!-- Node22 -->
<g id="Node000022" class="node">
<title>Node22</title>
<g id="a_Node000022"><a xlink:href="test__connection_receive_body_8cpp.html#a19183545ff74155359c15797de32a79d" target="_top" xlink:title=" ">
<polygon fill="white" stroke="#666666" points="862,-19 810,-19 810,0 862,0 862,-19"/>
<text text-anchor="middle" x="836" y="-7" font-family="Helvetica,sans-Serif" font-size="10.00">TEST_F</text>
</a>
</g>
</g>
<!-- Node19&#45;&gt;Node22 -->
<g id="edge24_Node000019_Node000022" class="edge">
<title>Node19&#45;&gt;Node22</title>
<g id="a_edge24_Node000019_Node000022"><a xlink:title=" ">
<path fill="none" stroke="#63b8ff" d="M1033.46,-139.12C1014.4,-110.42 973.49,-55.35 924,-27.5 904.91,-16.76 880.23,-12.39 862.04,-10.64"/>
<polygon fill="#63b8ff" stroke="#63b8ff" points="1030.69,-141.28 1039.07,-147.77 1036.56,-137.47 1030.69,-141.28"/>
</a>
</g>
</g>
<!-- Node23 -->
<g id="Node000023" class="node">
<title>Node23</title>
<g id="a_Node000023"><a xlink:href="test__connection_receive_body_8cpp.html#a1cd9ca5899d66b74d95a445988fc3ae5" target="_top" xlink:title=" ">
<polygon fill="white" stroke="#666666" points="862,-241 810,-241 810,-222 862,-222 862,-241"/>
<text text-anchor="middle" x="836" y="-229" font-family="Helvetica,sans-Serif" font-size="10.00">TEST_F</text>
</a>
</g>
</g>
<!-- Node19&#45;&gt;Node23 -->
<g id="edge25_Node000019_Node000023" class="edge">
<title>Node19&#45;&gt;Node23</title>
<g id="a_edge25_Node000019_Node000023"><a xlink:title=" ">
<path fill="none" stroke="#63b8ff" d="M1018.14,-171.7C994.05,-183.96 957.44,-201.39 924,-212.5 903.61,-219.28 879.71,-224.3 862.13,-227.47"/>
<polygon fill="#63b8ff" stroke="#63b8ff" points="1019.75,-174.81 1027.04,-167.13 1016.54,-168.59 1019.75,-174.81"/>
</a>
</g>
</g>
<!-- Node24 -->
<g id="Node000024" class="node">
<title>Node24</title>
<g id="a_Node000024"><a xlink:href="test__connection_receive_body_8cpp.html#aeb1a084ca7014c09a2d15604dbfbe356" target="_top" xlink:title=" ">
<polygon fill="white" stroke="#666666" points="862,-167 810,-167 810,-148 862,-148 862,-167"/>
<text text-anchor="middle" x="836" y="-155" font-family="Helvetica,sans-Serif" font-size="10.00">TEST_F</text>
</a>
</g>
</g>
<!-- Node19&#45;&gt;Node24 -->
<g id="edge26_Node000019_Node000024" class="edge">
<title>Node19&#45;&gt;Node24</title>
<g id="a_edge26_Node000019_Node000024"><a xlink:title=" ">
<path fill="none" stroke="#63b8ff" d="M968.49,-157.5C931.02,-157.5 888.42,-157.5 862.12,-157.5"/>
<polygon fill="#63b8ff" stroke="#63b8ff" points="968.9,-161 978.9,-157.5 968.9,-154 968.9,-161"/>
</a>
</g>
</g>
<!-- Node25 -->
<g id="Node000025" class="node">
<title>Node25</title>
<g id="a_Node000025"><a xlink:href="test__connection_receive_body_8cpp.html#ac0f2278a66a910e48d914cc1e35d495a" target="_top" xlink:title=" ">
<polygon fill="white" stroke="#666666" points="862,-130 810,-130 810,-111 862,-111 862,-130"/>
<text text-anchor="middle" x="836" y="-118" font-family="Helvetica,sans-Serif" font-size="10.00">TEST_F</text>
</a>
</g>
</g>
<!-- Node19&#45;&gt;Node25 -->
<g id="edge27_Node000019_Node000025" class="edge">
<title>Node19&#45;&gt;Node25</title>
<g id="a_edge27_Node000019_Node000025"><a xlink:title=" ">
<path fill="none" stroke="#63b8ff" d="M981.43,-146.19C941.2,-139.04 891.41,-130.18 862.04,-124.95"/>
<polygon fill="#63b8ff" stroke="#63b8ff" points="980.98,-149.67 991.43,-147.97 982.2,-142.77 980.98,-149.67"/>
</a>
</g>
</g>
<!-- Node26 -->
<g id="Node000026" class="node">
<title>Node26</title>
<g id="a_Node000026"><a xlink:href="test__connection_receive_body_8cpp.html#af70bae422af1c7fcc57ebf91961941c0" target="_top" xlink:title=" ">
<polygon fill="white" stroke="#666666" points="862,-93 810,-93 810,-74 862,-74 862,-93"/>
<text text-anchor="middle" x="836" y="-81" font-family="Helvetica,sans-Serif" font-size="10.00">TEST_F</text>
</a>
</g>
</g>
<!-- Node19&#45;&gt;Node26 -->
<g id="edge28_Node000019_Node000026" class="edge">
<title>Node19&#45;&gt;Node26</title>
<g id="a_edge28_Node000019_Node000026"><a xlink:title=" ">
<path fill="none" stroke="#63b8ff" d="M1018.62,-143.14C994.58,-130.58 957.77,-112.64 924,-101.5 903.64,-94.78 879.74,-90.05 862.15,-87.13"/>
<polygon fill="#63b8ff" stroke="#63b8ff" points="1017.01,-146.24 1027.48,-147.83 1020.28,-140.06 1017.01,-146.24"/>
</a>
</g>
</g>
<!-- Node27&#45;&gt;Node4 -->
<g id="edge30_Node000027_Node000004" class="edge">
<title>Node27&#45;&gt;Node4</title>
<g id="a_edge30_Node000027_Node000004"><a xlink:title=" ">
<path fill="none" stroke="#63b8ff" d="M764.47,-519.36C694.17,-508.26 587.89,-491.48 525.26,-481.59"/>
<polygon fill="#63b8ff" stroke="#63b8ff" points="764.15,-522.86 774.58,-520.96 765.24,-515.94 764.15,-522.86"/>
</a>
</g>
</g>
<!-- Node28 -->
<g id="Node000028" class="node">
<title>Node28</title>
<g id="a_Node000028"><a xlink:href="test__connection_receive_header_8cpp.html#ae40546436ca5ae6d8af1f754dfff4a98" target="_top" xlink:title=" ">
<polygon fill="white" stroke="#666666" points="662.5,-540 610.5,-540 610.5,-521 662.5,-521 662.5,-540"/>
<text text-anchor="middle" x="636.5" y="-528" font-family="Helvetica,sans-Serif" font-size="10.00">TEST_F</text>
</a>
</g>
</g>
<!-- Node27&#45;&gt;Node28 -->
<g id="edge31_Node000027_Node000028" class="edge">
<title>Node27&#45;&gt;Node28</title>
<g id="a_edge31_Node000027_Node000028"><a xlink:title=" ">
<path fill="none" stroke="#63b8ff" d="M753.9,-530.5C721.12,-530.5 685.65,-530.5 662.59,-530.5"/>
<polygon fill="#63b8ff" stroke="#63b8ff" points="753.98,-534 763.98,-530.5 753.98,-527 753.98,-534"/>
</a>
</g>
</g>
<!-- Node29 -->
<g id="Node000029" class="node">
<title>Node29</title>
<g id="a_Node000029"><a xlink:href="test__connection_receive_header_8cpp.html#a0952222a64d85993a5b3d9022826859c" target="_top" xlink:title=" ">
<polygon fill="white" stroke="#666666" points="662.5,-688 610.5,-688 610.5,-669 662.5,-669 662.5,-688"/>
<text text-anchor="middle" x="636.5" y="-676" font-family="Helvetica,sans-Serif" font-size="10.00">TEST_F</text>
</a>
</g>
</g>
<!-- Node27&#45;&gt;Node29 -->
<g id="edge32_Node000027_Node000029" class="edge">
<title>Node27&#45;&gt;Node29</title>
<g id="a_edge32_Node000027_Node000029"><a xlink:title=" ">
<path fill="none" stroke="#63b8ff" d="M755.05,-544.07C752.56,-545.7 750.2,-547.51 748,-549.5 709.56,-584.32 750.05,-625.26 712,-660.5 698.72,-672.8 678.53,-677.11 662.51,-678.45"/>
<polygon fill="#63b8ff" stroke="#63b8ff" points="756.85,-547.08 763.92,-539.19 753.47,-540.95 756.85,-547.08"/>
</a>
</g>
</g>
<!-- Node30 -->
<g id="Node000030" class="node">
<title>Node30</title>
<g id="a_Node000030"><a xlink:href="test__connection_receive_header_8cpp.html#a492a1135a23e13de8b412f266f5422dd" target="_top" xlink:title=" ">
<polygon fill="white" stroke="#666666" points="662.5,-651 610.5,-651 610.5,-632 662.5,-632 662.5,-651"/>
<text text-anchor="middle" x="636.5" y="-639" font-family="Helvetica,sans-Serif" font-size="10.00">TEST_F</text>
</a>
</g>
</g>
<!-- Node27&#45;&gt;Node30 -->
<g id="edge33_Node000027_Node000030" class="edge">
<title>Node27&#45;&gt;Node30</title>
<g id="a_edge33_Node000027_Node000030"><a xlink:title=" ">
<path fill="none" stroke="#63b8ff" d="M754.95,-544.74C752.53,-546.19 750.2,-547.77 748,-549.5 719.25,-572.11 740.5,-600.57 712,-623.5 698.11,-634.68 678.35,-639.09 662.67,-640.75"/>
<polygon fill="#63b8ff" stroke="#63b8ff" points="756.77,-547.74 764.09,-540.09 753.59,-541.51 756.77,-547.74"/>
</a>
</g>
</g>
<!-- Node31 -->
<g id="Node000031" class="node">
<title>Node31</title>
<g id="a_Node000031"><a xlink:href="test__connection_receive_header_8cpp.html#a42aad638a3786700de9108d63bbba850" target="_top" xlink:title=" ">
<polygon fill="white" stroke="#666666" points="662.5,-614 610.5,-614 610.5,-595 662.5,-595 662.5,-614"/>
<text text-anchor="middle" x="636.5" y="-602" font-family="Helvetica,sans-Serif" font-size="10.00">TEST_F</text>
</a>
</g>
</g>
<!-- Node27&#45;&gt;Node31 -->
<g id="edge34_Node000027_Node000031" class="edge">
<title>Node27&#45;&gt;Node31</title>
<g id="a_edge34_Node000027_Node000031"><a xlink:title=" ">
<path fill="none" stroke="#63b8ff" d="M761.17,-543.36C756.6,-545.15 752.17,-547.18 748,-549.5 727.94,-560.64 731.93,-575.14 712,-586.5 696.86,-595.13 677.7,-599.64 662.61,-601.99"/>
<polygon fill="#63b8ff" stroke="#63b8ff" points="762.41,-546.63 770.7,-540.03 760.1,-540.03 762.41,-546.63"/>
</a>
</g>
</g>
<!-- Node32 -->
<g id="Node000032" class="node">
<title>Node32</title>
<g id="a_Node000032"><a xlink:href="test__connection_receive_header_8cpp.html#aa34cc8553c29e19d06c302699e916a3e" target="_top" xlink:title=" ">
<polygon fill="white" stroke="#666666" points="662.5,-577 610.5,-577 610.5,-558 662.5,-558 662.5,-577"/>
<text text-anchor="middle" x="636.5" y="-565" font-family="Helvetica,sans-Serif" font-size="10.00">TEST_F</text>
</a>
</g>
</g>
<!-- Node27&#45;&gt;Node32 -->
<g id="edge35_Node000027_Node000032" class="edge">
<title>Node27&#45;&gt;Node32</title>
<g id="a_edge35_Node000027_Node000032"><a xlink:title=" ">
<path fill="none" stroke="#63b8ff" d="M774.3,-541.87C736.76,-548.9 690.56,-557.56 662.6,-562.8"/>
<polygon fill="#63b8ff" stroke="#63b8ff" points="774.95,-545.31 784.14,-540.03 773.67,-538.43 774.95,-545.31"/>
</a>
</g>
</g>
<!-- Node33&#45;&gt;Node4 -->
<g id="edge41_Node000033_Node000004" class="edge">
<title>Node33&#45;&gt;Node4</title>
<g id="a_edge41_Node000033_Node000004"><a xlink:title=" ">
<path fill="none" stroke="#63b8ff" d="M1029.99,-402.46C1008.94,-379.99 968.24,-341.54 924,-326.5 849.94,-301.33 824.94,-312.39 748,-326.5 660.56,-342.54 637.23,-351.76 561,-397.5 529.01,-416.69 497.58,-448.12 482.78,-463.87"/>
<polygon fill="#63b8ff" stroke="#63b8ff" points="1027.5,-404.92 1036.83,-409.94 1032.67,-400.2 1027.5,-404.92"/>
</a>
</g>
</g>
<!-- Node34 -->
<g id="Node000034" class="node">
<title>Node34</title>
<g id="a_Node000034"><a xlink:href="_server_8cpp.html#a9b6964fe44b1605c00c0f211a7f42896" target="_top" xlink:title="Builds the response for a client connection.">
<polygon fill="white" stroke="#666666" points="907,-503 765,-503 765,-484 907,-484 907,-503"/>
<text text-anchor="middle" x="836" y="-491" font-family="Helvetica,sans-Serif" font-size="10.00">connectionBuildResponse</text>
</a>
</g>
</g>
<!-- Node33&#45;&gt;Node34 -->
<g id="edge37_Node000033_Node000034" class="edge">
<title>Node33&#45;&gt;Node34</title>
<g id="a_edge37_Node000033_Node000034"><a xlink:title=" ">
<path fill="none" stroke="#63b8ff" d="M1018.14,-433.7C994.05,-445.96 957.44,-463.39 924,-474.5 913,-478.16 900.97,-481.3 889.47,-483.92"/>
<polygon fill="#63b8ff" stroke="#63b8ff" points="1019.75,-436.81 1027.04,-429.13 1016.54,-430.59 1019.75,-436.81"/>
</a>
</g>
</g>
<!-- Node36 -->
<g id="Node000036" class="node">
<title>Node36</title>
<g id="a_Node000036"><a xlink:href="test__connection_send_response_8cpp.html#a824593e26c42b4efd63e5d15e5bc8cb2" target="_top" xlink:title=" ">
<polygon fill="white" stroke="#666666" points="862,-392 810,-392 810,-373 862,-373 862,-392"/>
<text text-anchor="middle" x="836" y="-380" font-family="Helvetica,sans-Serif" font-size="10.00">TEST_F</text>
</a>
</g>
</g>
<!-- Node33&#45;&gt;Node36 -->
<g id="edge42_Node000033_Node000036" class="edge">
<title>Node33&#45;&gt;Node36</title>
<g id="a_edge42_Node000033_Node000036"><a xlink:title=" ">
<path fill="none" stroke="#63b8ff" d="M981.43,-408.19C941.2,-401.04 891.41,-392.18 862.04,-386.95"/>
<polygon fill="#63b8ff" stroke="#63b8ff" points="980.98,-411.67 991.43,-409.97 982.2,-404.77 980.98,-411.67"/>
</a>
</g>
</g>
<!-- Node37 -->
<g id="Node000037" class="node">
<title>Node37</title>
<g id="a_Node000037"><a xlink:href="test__connection_send_response_8cpp.html#ae51efb039114ce1ecc536678298e3ac3" target="_top" xlink:title=" ">
<polygon fill="white" stroke="#666666" points="862,-355 810,-355 810,-336 862,-336 862,-355"/>
<text text-anchor="middle" x="836" y="-343" font-family="Helvetica,sans-Serif" font-size="10.00">TEST_F</text>
</a>
</g>
</g>
<!-- Node33&#45;&gt;Node37 -->
<g id="edge43_Node000033_Node000037" class="edge">
<title>Node33&#45;&gt;Node37</title>
<g id="a_edge43_Node000033_Node000037"><a xlink:title=" ">
<path fill="none" stroke="#63b8ff" d="M1018.62,-405.14C994.58,-392.58 957.77,-374.64 924,-363.5 903.64,-356.78 879.74,-352.05 862.15,-349.13"/>
<polygon fill="#63b8ff" stroke="#63b8ff" points="1017.01,-408.24 1027.48,-409.83 1020.28,-402.06 1017.01,-408.24"/>
</a>
</g>
</g>
<!-- Node38 -->
<g id="Node000038" class="node">
<title>Node38</title>
<g id="a_Node000038"><a xlink:href="test__connection_send_response_8cpp.html#a21c07341abaaa0409856bcd3c99f91d8" target="_top" xlink:title=" ">
<polygon fill="white" stroke="#666666" points="862,-466 810,-466 810,-447 862,-447 862,-466"/>
<text text-anchor="middle" x="836" y="-454" font-family="Helvetica,sans-Serif" font-size="10.00">TEST_F</text>
</a>
</g>
</g>
<!-- Node33&#45;&gt;Node38 -->
<g id="edge44_Node000033_Node000038" class="edge">
<title>Node33&#45;&gt;Node38</title>
<g id="a_edge44_Node000033_Node000038"><a xlink:title=" ">
<path fill="none" stroke="#63b8ff" d="M981.43,-430.81C941.2,-437.96 891.41,-446.82 862.04,-452.05"/>
<polygon fill="#63b8ff" stroke="#63b8ff" points="982.2,-434.23 991.43,-429.03 980.98,-427.33 982.2,-434.23"/>
</a>
</g>
</g>
<!-- Node39 -->
<g id="Node000039" class="node">
<title>Node39</title>
<g id="a_Node000039"><a xlink:href="test__connection_send_response_8cpp.html#ac0244b587995b8cde69686452c3c41c8" target="_top" xlink:title=" ">
<polygon fill="white" stroke="#666666" points="862,-429 810,-429 810,-410 862,-410 862,-429"/>
<text text-anchor="middle" x="836" y="-417" font-family="Helvetica,sans-Serif" font-size="10.00">TEST_F</text>
</a>
</g>
</g>
<!-- Node33&#45;&gt;Node39 -->
<g id="edge45_Node000033_Node000039" class="edge">
<title>Node33&#45;&gt;Node39</title>
<g id="a_edge45_Node000033_Node000039"><a xlink:title=" ">
<path fill="none" stroke="#63b8ff" d="M965.23,-419.5C928.52,-419.5 887.55,-419.5 862.02,-419.5"/>
<polygon fill="#63b8ff" stroke="#63b8ff" points="965.45,-423 975.45,-419.5 965.45,-416 965.45,-423"/>
</a>
</g>
</g>
<!-- Node34&#45;&gt;Node4 -->
<g id="edge40_Node000034_Node000004" class="edge">
<title>Node34&#45;&gt;Node4</title>
<g id="a_edge40_Node000034_Node000004"><a xlink:title=" ">
<path fill="none" stroke="#63b8ff" d="M756.93,-482.78C742.04,-481.08 726.56,-479.54 712,-478.5 647.69,-473.91 573.38,-473.06 525.14,-473.09"/>
<polygon fill="#63b8ff" stroke="#63b8ff" points="756.79,-486.29 767.13,-483.99 757.61,-479.34 756.79,-486.29"/>
</a>
</g>
</g>
<!-- Node35 -->
<g id="Node000035" class="node">
<title>Node35</title>
<g id="a_Node000035"><a xlink:href="_server_8cpp.html#ad132a77471376bd48681070a795df914" target="_top" xlink:title="Handles a timeout for a client connection.">
<polygon fill="white" stroke="#666666" points="709,-426 564,-426 564,-407 709,-407 709,-426"/>
<text text-anchor="middle" x="636.5" y="-414" font-family="Helvetica,sans-Serif" font-size="10.00">connectionHandleTimeout</text>
</a>
</g>
</g>
<!-- Node34&#45;&gt;Node35 -->
<g id="edge38_Node000034_Node000035" class="edge">
<title>Node34&#45;&gt;Node35</title>
<g id="a_edge38_Node000034_Node000035"><a xlink:title=" ">
<path fill="none" stroke="#63b8ff" d="M762.19,-480.77C757.28,-478.95 752.5,-476.88 748,-474.5 728.54,-464.22 730.94,-451.71 712,-440.5 701.71,-434.41 689.69,-429.67 678.35,-426.08"/>
<polygon fill="#63b8ff" stroke="#63b8ff" points="761.18,-484.12 771.77,-483.96 763.39,-477.48 761.18,-484.12"/>
</a>
</g>
</g>
<!-- Node35&#45;&gt;Node4 -->
<g id="edge39_Node000035_Node000004" class="edge">
<title>Node35&#45;&gt;Node4</title>
<g id="a_edge39_Node000035_Node000004"><a xlink:title=" ">
<path fill="none" stroke="#63b8ff" d="M594.77,-429.21C583.77,-432.75 571.9,-436.68 561,-440.5 539.66,-447.98 515.64,-457.15 498.25,-463.92"/>
<polygon fill="#63b8ff" stroke="#63b8ff" points="596.11,-432.45 604.57,-426.08 593.98,-425.79 596.11,-432.45"/>
</a>
</g>
</g>
<!-- Node40&#45;&gt;Node27 -->
<g id="edge47_Node000040_Node000027" class="edge">
<title>Node40&#45;&gt;Node27</title>
<g id="a_edge47_Node000040_Node000027"><a xlink:title=" ">
<path fill="none" stroke="#63b8ff" d="M1018.14,-590.3C994.05,-578.04 957.44,-560.61 924,-549.5 913,-545.84 900.97,-542.7 889.47,-540.08"/>
<polygon fill="#63b8ff" stroke="#63b8ff" points="1016.54,-593.41 1027.04,-594.87 1019.75,-587.19 1016.54,-593.41"/>
</a>
</g>
</g>
<!-- Node41 -->
<g id="Node000041" class="node">
<title>Node41</title>
<g id="a_Node000041"><a xlink:href="test__handle_complete_request_header_8cpp.html#a04308ae6ca27d5aac2ee1ae95e818f78" target="_top" xlink:title=" ">
<polygon fill="white" stroke="#666666" points="862,-651 810,-651 810,-632 862,-632 862,-651"/>
<text text-anchor="middle" x="836" y="-639" font-family="Helvetica,sans-Serif" font-size="10.00">TEST_F</text>
</a>
</g>
</g>
<!-- Node40&#45;&gt;Node41 -->
<g id="edge48_Node000040_Node000041" class="edge">
<title>Node40&#45;&gt;Node41</title>
<g id="a_edge48_Node000040_Node000041"><a xlink:title=" ">
<path fill="none" stroke="#63b8ff" d="M981.43,-615.81C941.2,-622.96 891.41,-631.82 862.04,-637.05"/>
<polygon fill="#63b8ff" stroke="#63b8ff" points="982.2,-619.23 991.43,-614.03 980.98,-612.33 982.2,-619.23"/>
</a>
</g>
</g>
<!-- Node42 -->
<g id="Node000042" class="node">
<title>Node42</title>
<g id="a_Node000042"><a xlink:href="test__handle_complete_request_header_8cpp.html#a00d3c07453ceb8ca6576a951222a7829" target="_top" xlink:title=" ">
<polygon fill="white" stroke="#666666" points="862,-614 810,-614 810,-595 862,-595 862,-614"/>
<text text-anchor="middle" x="836" y="-602" font-family="Helvetica,sans-Serif" font-size="10.00">TEST_F</text>
</a>
</g>
</g>
<!-- Node40&#45;&gt;Node42 -->
<g id="edge49_Node000040_Node000042" class="edge">
<title>Node40&#45;&gt;Node42</title>
<g id="a_edge49_Node000040_Node000042"><a xlink:title=" ">
<path fill="none" stroke="#63b8ff" d="M949.41,-604.5C917.24,-604.5 883.99,-604.5 862.08,-604.5"/>
<polygon fill="#63b8ff" stroke="#63b8ff" points="949.8,-608 959.8,-604.5 949.8,-601 949.8,-608"/>
</a>
</g>
</g>
<!-- Node43 -->
<g id="Node000043" class="node">
<title>Node43</title>
<g id="a_Node000043"><a xlink:href="test__handle_complete_request_header_8cpp.html#a5705d4672adfefa8169bd3e9406e75f6" target="_top" xlink:title=" ">
<polygon fill="white" stroke="#666666" points="862,-577 810,-577 810,-558 862,-558 862,-577"/>
<text text-anchor="middle" x="836" y="-565" font-family="Helvetica,sans-Serif" font-size="10.00">TEST_F</text>
</a>
</g>
</g>
<!-- Node40&#45;&gt;Node43 -->
<g id="edge50_Node000040_Node000043" class="edge">
<title>Node40&#45;&gt;Node43</title>
<g id="a_edge50_Node000040_Node000043"><a xlink:title=" ">
<path fill="none" stroke="#63b8ff" d="M981.43,-593.19C941.2,-586.04 891.41,-577.18 862.04,-571.95"/>
<polygon fill="#63b8ff" stroke="#63b8ff" points="980.98,-596.67 991.43,-594.97 982.2,-589.77 980.98,-596.67"/>
</a>
</g>
</g>
<!-- Node44 -->
<g id="Node000044" class="node">
<title>Node44</title>
<g id="a_Node000044"><a xlink:href="test__handle_complete_request_header_8cpp.html#a63c4237c8b0edef77a20f599133d77d4" target="_top" xlink:title=" ">
<polygon fill="white" stroke="#666666" points="862,-725 810,-725 810,-706 862,-706 862,-725"/>
<text text-anchor="middle" x="836" y="-713" font-family="Helvetica,sans-Serif" font-size="10.00">TEST_F</text>
</a>
</g>
</g>
<!-- Node40&#45;&gt;Node44 -->
<g id="edge51_Node000040_Node000044" class="edge">
<title>Node40&#45;&gt;Node44</title>
<g id="a_edge51_Node000040_Node000044"><a xlink:title=" ">
<path fill="none" stroke="#63b8ff" d="M1028.49,-621.22C1006.59,-642.37 965.83,-678.33 924,-697.5 904.37,-706.5 880.19,-711.04 862.31,-713.3"/>
<polygon fill="#63b8ff" stroke="#63b8ff" points="1030.99,-623.67 1035.66,-614.16 1026.08,-618.68 1030.99,-623.67"/>
</a>
</g>
</g>
<!-- Node45 -->
<g id="Node000045" class="node">
<title>Node45</title>
<g id="a_Node000045"><a xlink:href="test__handle_complete_request_header_8cpp.html#a7e6245bb424d27191d406b619a2fe40b" target="_top" xlink:title=" ">
<polygon fill="white" stroke="#666666" points="862,-688 810,-688 810,-669 862,-669 862,-688"/>
<text text-anchor="middle" x="836" y="-676" font-family="Helvetica,sans-Serif" font-size="10.00">TEST_F</text>
</a>
</g>
</g>
<!-- Node40&#45;&gt;Node45 -->
<g id="edge52_Node000040_Node000045" class="edge">
<title>Node40&#45;&gt;Node45</title>
<g id="a_edge52_Node000040_Node000045"><a xlink:title=" ">
<path fill="none" stroke="#63b8ff" d="M1018.62,-618.86C994.58,-631.42 957.77,-649.36 924,-660.5 903.64,-667.22 879.74,-671.95 862.15,-674.87"/>
<polygon fill="#63b8ff" stroke="#63b8ff" points="1020.28,-621.94 1027.48,-614.17 1017.01,-615.76 1020.28,-621.94"/>
</a>
</g>
</g>
</g>
</svg>

<g id="navigator" transform="translate(0 0)" fill="#404254">
  <rect fill="#f2f5e9" fill-opacity="0.5" stroke="#606060" stroke-width=".5" x="0" y="0" width="60" height="60"/>
  <use id="zoomplus" xlink:href="#zoomPlus" x="17" y="9" onmousedown="handleZoom(evt,'in')"/>
  <use id="zoomminus" xlink:href="#zoomMin" x="42" y="9" onmousedown="handleZoom(evt,'out')"/>
  <use id="reset" xlink:href="#resetDef" x="30" y="36" onmousedown="handleReset()"/>
   <use id="arrowup" xlink:href="#arrowUp" x="0" y="0" onmousedown="handlePan(0,-1)"/>
  <use id="arrowright" xlink:href="#arrowRight" x="0" y="0" onmousedown="handlePan(1,0)"/>
  <use id="arrowdown" xlink:href="#arrowDown" x="0" y="0" onmousedown="handlePan(0,1)"/>
  <use id="arrowleft" xlink:href="#arrowLeft" x="0" y="0" onmousedown="handlePan(-1,0)"/>
</g>
<svg viewBox="0 0 15 15" width="100%" height="30px" preserveAspectRatio="xMaxYMin meet">
 <g id="arrow_out" transform="scale(0.3 0.3)">
  <a xlink:href="class_server_a3ea71b66d27b584d8c33eb5cb64813f1_icgraph_org.svg" target="_base">
   <rect id="button" ry="5" rx="5" y="6" x="6" height="38" width="38"
        fill="#f2f5e9" fill-opacity="0.5" stroke="#606060" stroke-width="1.0"/>
   <path id="arrow"
     d="M 11.500037,31.436501 C 11.940474,20.09759 22.043105,11.32322 32.158766,21.979434 L 37.068811,17.246167 C 37.068811,17.246167 37.088388,32 37.088388,32 L 22.160133,31.978069 C 22.160133,31.978069 26.997745,27.140456 26.997745,27.140456 C 18.528582,18.264221 13.291696,25.230495 11.500037,31.436501 z"
     style="fill:#404040;"/>
  </a>
 </g>
</svg>

<style type='text/css'>
<![CDATA[
[data-mouse-over-selected='false'] { opacity: 0.7; }
[data-mouse-over-selected='true']  { opacity: 1.0; }
]]>
</style>
<script type="application/ecmascript"><![CDATA[
document.addEventListener('DOMContentLoaded', (event) => {
  highlightEdges();
  highlightAdjacentNodes();
});
]]></script>
</svg>
