<?xml version="1.0" encoding="UTF-8" standalone="no"?>
<!DOCTYPE svg PUBLIC "-//W3C//DTD SVG 1.1//EN"
 "http://www.w3.org/Graphics/SVG/1.1/DTD/svg11.dtd">
<!-- Generated by graphviz version 2.43.0 (0)
 -->
<!-- Title: Server::removeEvent Pages: 1 -->
<svg width="1087pt" height="132pt"
 viewBox="0.00 0.00 1087.00 132.00" xmlns="http://www.w3.org/2000/svg" xmlns:xlink="http://www.w3.org/1999/xlink">
<g id="graph0" class="graph" transform="scale(1 1) rotate(0) translate(4 128)">
<title>Server::removeEvent</title>
<!-- Node1 -->
<g id="node1" class="node">
<title>Node1</title>
<g id="a_node1"><a xlink:title="Wrapper function to EpollWrapper::removeEvent.">
<polygon fill="#bfbfbf" stroke="black" points="960,-9.5 960,-28.5 1079,-28.5 1079,-9.5 960,-9.5"/>
<text text-anchor="middle" x="1019.5" y="-16.5" font-family="Helvetica,sans-Serif" font-size="10.00">Server::removeEvent</text>
</a>
</g>
</g>
<!-- Node2 -->
<g id="node2" class="node">
<title>Node2</title>
<g id="a_node2"><a xlink:href="class_server.html#ab4a0ae2ec5d126062a7c5d4a2f78160a" target="_top" xlink:title="Removes a CGI file descriptor from the server.">
<polygon fill="none" stroke="black" points="748,-28.5 748,-47.5 924,-47.5 924,-28.5 748,-28.5"/>
<text text-anchor="middle" x="836" y="-35.5" font-family="Helvetica,sans-Serif" font-size="10.00">Server::removeCGIFileDescriptor</text>
</a>
</g>
</g>
<!-- Node1&#45;&gt;Node2 -->
<g id="edge1" class="edge">
<title>Node1&#45;&gt;Node2</title>
<path fill="none" stroke="midnightblue" d="M949.77,-26.19C941.4,-27.07 932.77,-27.97 924.18,-28.87"/>
<polygon fill="midnightblue" stroke="midnightblue" points="950.24,-29.66 959.82,-25.14 949.51,-22.7 950.24,-29.66"/>
</g>
<!-- Node8 -->
<g id="node8" class="node">
<title>Node8</title>
<g id="a_node8"><a xlink:href="_server_8hpp.html#a115ecd76e344c1007bedc48b9bbdc0fa" target="_top" xlink:title="Performs a graceful shutdown of the server.">
<polygon fill="none" stroke="black" points="177,-9.5 177,-28.5 272,-28.5 272,-9.5 177,-9.5"/>
<text text-anchor="middle" x="224.5" y="-16.5" font-family="Helvetica,sans-Serif" font-size="10.00">shutdownServer</text>
</a>
</g>
</g>
<!-- Node1&#45;&gt;Node8 -->
<g id="edge14" class="edge">
<title>Node1&#45;&gt;Node8</title>
<path fill="none" stroke="midnightblue" d="M949.38,-13.48C873.08,-7.87 746.61,0 637.5,0 637.5,0 637.5,0 472,0 402.25,0 321.73,-7.66 272.21,-13.25"/>
<polygon fill="midnightblue" stroke="midnightblue" points="949.57,-17 959.8,-14.25 950.09,-10.02 949.57,-17"/>
</g>
<!-- Node3 -->
<g id="node3" class="node">
<title>Node3</title>
<g id="a_node3"><a xlink:href="_server_8hpp.html#a735bf6535f62b5907ea2d5f0e1abf3c7" target="_top" xlink:title="Handles receiving data from a CGI script and processes it accordingly.">
<polygon fill="none" stroke="black" points="561,-66.5 561,-85.5 712,-85.5 712,-66.5 561,-66.5"/>
<text text-anchor="middle" x="636.5" y="-73.5" font-family="Helvetica,sans-Serif" font-size="10.00">connectionReceiveFromCGI</text>
</a>
</g>
</g>
<!-- Node2&#45;&gt;Node3 -->
<g id="edge2" class="edge">
<title>Node2&#45;&gt;Node3</title>
<path fill="none" stroke="midnightblue" d="M775.29,-49.49C747.11,-54.91 713.87,-61.31 687.1,-66.46"/>
<polygon fill="midnightblue" stroke="midnightblue" points="776.26,-52.87 785.42,-47.54 774.94,-45.99 776.26,-52.87"/>
</g>
<!-- Node11 -->
<g id="node11" class="node">
<title>Node11</title>
<g id="a_node11"><a xlink:href="_server_8hpp.html#aa67430205b6049aa70bad4682a7442b8" target="_top" xlink:title="Sends the request body to the CGI process.">
<polygon fill="none" stroke="black" points="575.5,-28.5 575.5,-47.5 697.5,-47.5 697.5,-28.5 575.5,-28.5"/>
<text text-anchor="middle" x="636.5" y="-35.5" font-family="Helvetica,sans-Serif" font-size="10.00">connectionSendToCGI</text>
</a>
</g>
</g>
<!-- Node2&#45;&gt;Node11 -->
<g id="edge11" class="edge">
<title>Node2&#45;&gt;Node11</title>
<path fill="none" stroke="midnightblue" d="M737.43,-38C723.85,-38 710.23,-38 697.61,-38"/>
<polygon fill="midnightblue" stroke="midnightblue" points="737.8,-41.5 747.8,-38 737.8,-34.5 737.8,-41.5"/>
</g>
<!-- Node4 -->
<g id="node4" class="node">
<title>Node4</title>
<g id="a_node4"><a xlink:href="_server_8hpp.html#a54490f09266c8a5fed4d91166df9a6b3" target="_top" xlink:title="Handle a client connection.">
<polygon fill="none" stroke="black" points="421,-66.5 421,-85.5 525,-85.5 525,-66.5 421,-66.5"/>
<text text-anchor="middle" x="473" y="-73.5" font-family="Helvetica,sans-Serif" font-size="10.00">handleConnection</text>
</a>
</g>
</g>
<!-- Node3&#45;&gt;Node4 -->
<g id="edge3" class="edge">
<title>Node3&#45;&gt;Node4</title>
<path fill="none" stroke="midnightblue" d="M550.69,-76C542.01,-76 533.39,-76 525.23,-76"/>
<polygon fill="midnightblue" stroke="midnightblue" points="550.9,-79.5 560.9,-76 550.9,-72.5 550.9,-79.5"/>
</g>
<!-- Node10 -->
<g id="node10" class="node">
<title>Node10</title>
<g id="a_node10"><a xlink:href="test__connection_receive_from_c_g_i_8cpp.html#acd248002a168209089438d39017ca034" target="_top" xlink:title=" ">
<polygon fill="none" stroke="black" points="447,-104.5 447,-123.5 499,-123.5 499,-104.5 447,-104.5"/>
<text text-anchor="middle" x="473" y="-111.5" font-family="Helvetica,sans-Serif" font-size="10.00">TEST_F</text>
</a>
</g>
</g>
<!-- Node3&#45;&gt;Node10 -->
<g id="edge10" class="edge">
<title>Node3&#45;&gt;Node10</title>
<path fill="none" stroke="midnightblue" d="M584.92,-87.9C556.38,-94.62 521.96,-102.71 499.11,-108.09"/>
<polygon fill="midnightblue" stroke="midnightblue" points="585.81,-91.29 594.75,-85.59 584.21,-84.47 585.81,-91.29"/>
</g>
<!-- Node5 -->
<g id="node5" class="node">
<title>Node5</title>
<g id="a_node5"><a xlink:href="_server_8hpp.html#a4211c4d6b958979b39b3dfc8148c801a" target="_top" xlink:title="Accepts new connections or handles existing ones.">
<polygon fill="none" stroke="black" points="308,-47.5 308,-66.5 385,-66.5 385,-47.5 308,-47.5"/>
<text text-anchor="middle" x="346.5" y="-54.5" font-family="Helvetica,sans-Serif" font-size="10.00">handleEvent</text>
</a>
</g>
</g>
<!-- Node4&#45;&gt;Node5 -->
<g id="edge4" class="edge">
<title>Node4&#45;&gt;Node5</title>
<path fill="none" stroke="midnightblue" d="M410.49,-66.61C401.8,-65.29 393.1,-63.96 385.05,-62.73"/>
<polygon fill="midnightblue" stroke="midnightblue" points="410.23,-70.11 420.64,-68.16 411.28,-63.19 410.23,-70.11"/>
</g>
<!-- Node6 -->
<g id="node6" class="node">
<title>Node6</title>
<g id="a_node6"><a xlink:href="_server_8hpp.html#ab66b27c2186daacb15a6b13dd43be31b" target="_top" xlink:title="Runs the main event loop with a server object.">
<polygon fill="none" stroke="black" points="77,-47.5 77,-66.5 141,-66.5 141,-47.5 77,-47.5"/>
<text text-anchor="middle" x="109" y="-54.5" font-family="Helvetica,sans-Serif" font-size="10.00">runServer</text>
</a>
</g>
</g>
<!-- Node5&#45;&gt;Node6 -->
<g id="edge5" class="edge">
<title>Node5&#45;&gt;Node6</title>
<path fill="none" stroke="midnightblue" d="M297.73,-57C250.95,-57 181.04,-57 141.05,-57"/>
<polygon fill="midnightblue" stroke="midnightblue" points="297.92,-60.5 307.92,-57 297.92,-53.5 297.92,-60.5"/>
</g>
<!-- Node5&#45;&gt;Node8 -->
<g id="edge7" class="edge">
<title>Node5&#45;&gt;Node8</title>
<path fill="none" stroke="midnightblue" d="M305.46,-44.32C289.24,-39.19 270.83,-33.36 255.77,-28.59"/>
<polygon fill="midnightblue" stroke="midnightblue" points="304.63,-47.73 315.22,-47.41 306.74,-41.06 304.63,-47.73"/>
</g>
<!-- Node7 -->
<g id="node7" class="node">
<title>Node7</title>
<g id="a_node7"><a xlink:href="main_8cpp.html#a3c04138a5bfe5d72780bb7e82a18e627" target="_top" xlink:title=" ">
<polygon fill="none" stroke="black" points="0,-47.5 0,-66.5 41,-66.5 41,-47.5 0,-47.5"/>
<text text-anchor="middle" x="20.5" y="-54.5" font-family="Helvetica,sans-Serif" font-size="10.00">main</text>
</a>
</g>
</g>
<!-- Node6&#45;&gt;Node7 -->
<g id="edge6" class="edge">
<title>Node6&#45;&gt;Node7</title>
<path fill="none" stroke="midnightblue" d="M66.5,-57C57.64,-57 48.68,-57 41.11,-57"/>
<polygon fill="midnightblue" stroke="midnightblue" points="66.77,-60.5 76.77,-57 66.77,-53.5 66.77,-60.5"/>
</g>
<!-- Node8&#45;&gt;Node6 -->
<g id="edge8" class="edge">
<title>Node8&#45;&gt;Node6</title>
<path fill="none" stroke="midnightblue" d="M185.19,-31.83C169.96,-36.92 152.74,-42.69 138.63,-47.41"/>
<polygon fill="midnightblue" stroke="midnightblue" points="186.49,-35.08 194.86,-28.59 184.27,-28.44 186.49,-35.08"/>
</g>
<!-- Node9 -->
<g id="node9" class="node">
<title>Node9</title>
<g id="a_node9"><a xlink:href="test__shutdown_server_8cpp.html#ae0ede4f52ef6c742c532c14b92b6179a" target="_top" xlink:title=" ">
<polygon fill="none" stroke="black" points="83,-9.5 83,-28.5 135,-28.5 135,-9.5 83,-9.5"/>
<text text-anchor="middle" x="109" y="-16.5" font-family="Helvetica,sans-Serif" font-size="10.00">TEST_F</text>
</a>
</g>
</g>
<!-- Node8&#45;&gt;Node9 -->
<g id="edge9" class="edge">
<title>Node8&#45;&gt;Node9</title>
<path fill="none" stroke="midnightblue" d="M166.63,-19C155.63,-19 144.64,-19 135.3,-19"/>
<polygon fill="midnightblue" stroke="midnightblue" points="166.68,-22.5 176.68,-19 166.68,-15.5 166.68,-22.5"/>
</g>
<!-- Node11&#45;&gt;Node4 -->
<g id="edge12" class="edge">
<title>Node11&#45;&gt;Node4</title>
<path fill="none" stroke="midnightblue" d="M584.94,-49.9C562.24,-55.24 535.82,-61.45 514.46,-66.48"/>
<polygon fill="midnightblue" stroke="midnightblue" points="585.81,-53.29 594.75,-47.59 584.21,-46.47 585.81,-53.29"/>
</g>
<!-- Node12 -->
<g id="node12" class="node">
<title>Node12</title>
<g id="a_node12"><a xlink:href="test__connection_send_to_c_g_i_8cpp.html#a71e710d9b5f2f4a568086e70def06ccc" target="_top" xlink:title=" ">
<polygon fill="none" stroke="black" points="447,-28.5 447,-47.5 499,-47.5 499,-28.5 447,-28.5"/>
<text text-anchor="middle" x="473" y="-35.5" font-family="Helvetica,sans-Serif" font-size="10.00">TEST_F</text>
</a>
</g>
</g>
<!-- Node11&#45;&gt;Node12 -->
<g id="edge13" class="edge">
<title>Node11&#45;&gt;Node12</title>
<path fill="none" stroke="midnightblue" d="M565.35,-38C541.76,-38 516.95,-38 499.14,-38"/>
<polygon fill="midnightblue" stroke="midnightblue" points="565.36,-41.5 575.36,-38 565.36,-34.5 565.36,-41.5"/>
</g>
</g>
</svg>
