<?xml version="1.0" encoding="UTF-8" standalone="no"?>
<!DOCTYPE svg PUBLIC "-//W3C//DTD SVG 1.1//EN"
 "http://www.w3.org/Graphics/SVG/1.1/DTD/svg11.dtd">
<!-- Generated by graphviz version 2.43.0 (0)
 -->
<!-- Title: weblog::LogData::getMessage Pages: 1 -->
<svg width="558pt" height="64pt"
 viewBox="0.00 0.00 558.00 64.00" xmlns="http://www.w3.org/2000/svg" xmlns:xlink="http://www.w3.org/1999/xlink">
<g id="graph0" class="graph" transform="scale(1 1) rotate(0) translate(4 60)">
<title>weblog::LogData::getMessage</title>
<!-- Node1 -->
<g id="Node000001" class="node">
<title>Node1</title>
<g id="a_Node000001"><a xlink:title="Get the log message.">
<polygon fill="#999999" stroke="#666666" points="550,-37 386,-37 386,-18 550,-18 550,-37"/>
<text text-anchor="middle" x="468" y="-25" font-family="Helvetica,sans-Serif" font-size="10.00">weblog::LogData::getMessage</text>
</a>
</g>
</g>
<!-- Node2 -->
<g id="Node000002" class="node">
<title>Node2</title>
<g id="a_Node000002"><a xlink:href="classweblog_1_1_a_log_outputter.html#a74e71c0a78eb3efd1a60fddc11cfa545" target="_top" xlink:title="Format a message out of the logData object.">
<polygon fill="white" stroke="#666666" points="350,-42.5 218,-42.5 218,-12.5 350,-12.5 350,-42.5"/>
<text text-anchor="start" x="226" y="-30.5" font-family="Helvetica,sans-Serif" font-size="10.00">weblog::ALogOutputter</text>
<text text-anchor="middle" x="284" y="-19.5" font-family="Helvetica,sans-Serif" font-size="10.00">::getFormattedMessage</text>
</a>
</g>
</g>
<!-- Node1&#45;&gt;Node2 -->
<g id="edge1_Node000001_Node000002" class="edge">
<title>Node1&#45;&gt;Node2</title>
<g id="a_edge1_Node000001_Node000002"><a xlink:title=" ">
<path fill="none" stroke="#63b8ff" d="M375.73,-27.5C367.1,-27.5 358.48,-27.5 350.17,-27.5"/>
<polygon fill="#63b8ff" stroke="#63b8ff" points="375.85,-31 385.85,-27.5 375.85,-24 375.85,-31"/>
</a>
</g>
</g>
<!-- Node3 -->
<g id="Node000003" class="node">
<title>Node3</title>
<g id="a_Node000003"><a xlink:href="classweblog_1_1_log_outputter_console.html#a9312a8a9bbda182183261e323acdd28b" target="_top" xlink:title="Log a message to the console.">
<polygon fill="white" stroke="#666666" points="182,-56 0,-56 0,-37 182,-37 182,-56"/>
<text text-anchor="middle" x="91" y="-44" font-family="Helvetica,sans-Serif" font-size="10.00">weblog::LogOutputterConsole::log</text>
</a>
</g>
</g>
<!-- Node2&#45;&gt;Node3 -->
<g id="edge2_Node000002_Node000003" class="edge">
<title>Node2&#45;&gt;Node3</title>
<g id="a_edge2_Node000002_Node000003"><a xlink:title=" ">
<path fill="none" stroke="#63b8ff" d="M207.72,-34.99C199.36,-35.82 190.78,-36.67 182.25,-37.52"/>
<polygon fill="#63b8ff" stroke="#63b8ff" points="208.2,-38.46 217.8,-33.99 207.51,-31.49 208.2,-38.46"/>
</a>
</g>
</g>
<!-- Node4 -->
<g id="Node000004" class="node">
<title>Node4</title>
<g id="a_Node000004"><a xlink:href="classweblog_1_1_log_outputter_file.html#ad39210f52d407c82467b79acf329a69d" target="_top" xlink:title="Log a message to the file.">
<polygon fill="white" stroke="#666666" points="171,-19 11,-19 11,0 171,0 171,-19"/>
<text text-anchor="middle" x="91" y="-7" font-family="Helvetica,sans-Serif" font-size="10.00">weblog::LogOutputterFile::log</text>
</a>
</g>
</g>
<!-- Node2&#45;&gt;Node4 -->
<g id="edge3_Node000002_Node000004" class="edge">
<title>Node2&#45;&gt;Node4</title>
<g id="a_edge3_Node000002_Node000004"><a xlink:title=" ">
<path fill="none" stroke="#63b8ff" d="M207.8,-20.41C195.75,-19.28 183.24,-18.1 171.1,-16.95"/>
<polygon fill="#63b8ff" stroke="#63b8ff" points="207.52,-23.9 217.8,-21.36 208.18,-16.93 207.52,-23.9"/>
</a>
</g>
</g>
</g>
</svg>
