<?xml version="1.0" encoding="UTF-8" standalone="no"?>
<!DOCTYPE svg PUBLIC "-//W3C//DTD SVG 1.1//EN"
 "http://www.w3.org/Graphics/SVG/1.1/DTD/svg11.dtd">
<!-- Generated by graphviz version 2.43.0 (0)
 -->
<!-- Title: EpollWrapper::removeEvent Pages: 1 -->
<svg width="1666pt" height="835pt"
 viewBox="0.00 0.00 1666.00 834.50" xmlns="http://www.w3.org/2000/svg" xmlns:xlink="http://www.w3.org/1999/xlink">
<g id="graph0" class="graph" transform="scale(1 1) rotate(0) translate(4 830.5)">
<title>EpollWrapper::removeEvent</title>
<!-- Node1 -->
<g id="Node000001" class="node">
<title>Node1</title>
<g id="a_Node000001"><a xlink:title="Remove an event from the epoll instance.">
<polygon fill="#999999" stroke="#666666" points="1658,-195.5 1505,-195.5 1505,-176.5 1658,-176.5 1658,-195.5"/>
<text text-anchor="middle" x="1581.5" y="-183.5" font-family="Helvetica,sans-Serif" font-size="10.00">EpollWrapper::removeEvent</text>
</a>
</g>
</g>
<!-- Node2 -->
<g id="Node000002" class="node">
<title>Node2</title>
<g id="a_Node000002"><a xlink:href="class_server.html#a3ea71b66d27b584d8c33eb5cb64813f1" target="_top" xlink:title="Wrapper function to EpollWrapper::removeEvent.">
<polygon fill="white" stroke="#666666" points="1469,-214.5 1350,-214.5 1350,-195.5 1469,-195.5 1469,-214.5"/>
<text text-anchor="middle" x="1409.5" y="-202.5" font-family="Helvetica,sans-Serif" font-size="10.00">Server::removeEvent</text>
</a>
</g>
</g>
<!-- Node1&#45;&gt;Node2 -->
<g id="edge1_Node000001_Node000002" class="edge">
<title>Node1&#45;&gt;Node2</title>
<g id="a_edge1_Node000001_Node000002"><a xlink:title=" ">
<path fill="none" stroke="#63b8ff" d="M1494.81,-195.58C1486.15,-196.54 1477.51,-197.51 1469.24,-198.44"/>
<polygon fill="#63b8ff" stroke="#63b8ff" points="1495.4,-199.03 1504.95,-194.44 1494.62,-192.08 1495.4,-199.03"/>
</a>
</g>
</g>
<!-- Node48 -->
<g id="Node000048" class="node">
<title>Node48</title>
<g id="a_Node000048"><a xlink:href="class_server.html#a4b3aa2579cb1c8cd1d069582c14d0fa6" target="_top" xlink:title="Destructor for the Server class.">
<polygon fill="white" stroke="#666666" points="1456.5,-177.5 1362.5,-177.5 1362.5,-158.5 1456.5,-158.5 1456.5,-177.5"/>
<text text-anchor="middle" x="1409.5" y="-165.5" font-family="Helvetica,sans-Serif" font-size="10.00">Server::~Server</text>
</a>
</g>
</g>
<!-- Node1&#45;&gt;Node48 -->
<g id="edge59_Node000001_Node000048" class="edge">
<title>Node1&#45;&gt;Node48</title>
<g id="a_edge59_Node000001_Node000048"><a xlink:title=" ">
<path fill="none" stroke="#63b8ff" d="M1494.86,-176.93C1481.64,-175.53 1468.44,-174.14 1456.55,-172.88"/>
<polygon fill="#63b8ff" stroke="#63b8ff" points="1494.63,-180.43 1504.95,-178 1495.37,-173.47 1494.63,-180.43"/>
</a>
</g>
</g>
<!-- Node3 -->
<g id="Node000003" class="node">
<title>Node3</title>
<g id="a_Node000003"><a xlink:href="_server_8cpp.html#af0fb17fe53a5e9e72824e5df3fba1322" target="_top" xlink:title="Handles the body of the HTTP request.">
<polygon fill="white" stroke="#666666" points="1278,-214.5 1204,-214.5 1204,-195.5 1278,-195.5 1278,-214.5"/>
<text text-anchor="middle" x="1241" y="-202.5" font-family="Helvetica,sans-Serif" font-size="10.00">handleBody</text>
</a>
</g>
</g>
<!-- Node2&#45;&gt;Node3 -->
<g id="edge2_Node000002_Node000003" class="edge">
<title>Node2&#45;&gt;Node3</title>
<g id="a_edge2_Node000002_Node000003"><a xlink:title=" ">
<path fill="none" stroke="#63b8ff" d="M1339.62,-205C1318.62,-205 1296.36,-205 1278.42,-205"/>
<polygon fill="#63b8ff" stroke="#63b8ff" points="1339.8,-208.5 1349.8,-205 1339.8,-201.5 1339.8,-208.5"/>
</a>
</g>
</g>
<!-- Node9 -->
<g id="Node000009" class="node">
<title>Node9</title>
<g id="a_Node000009"><a xlink:href="_server_8cpp.html#a115ecd76e344c1007bedc48b9bbdc0fa" target="_top" xlink:title="Performs a graceful shutdown of the server.">
<polygon fill="white" stroke="#666666" points="272,-284.5 177,-284.5 177,-265.5 272,-265.5 272,-284.5"/>
<text text-anchor="middle" x="224.5" y="-272.5" font-family="Helvetica,sans-Serif" font-size="10.00">shutdownServer</text>
</a>
</g>
</g>
<!-- Node2&#45;&gt;Node9 -->
<g id="edge58_Node000002_Node000009" class="edge">
<title>Node2&#45;&gt;Node9</title>
<g id="a_edge58_Node000002_Node000009"><a xlink:title=" ">
<path fill="none" stroke="#63b8ff" d="M1364.85,-192.09C1359.77,-190.22 1354.73,-188.18 1350,-186 1206.52,-119.8 1205.02,0 1047,0 1047,0 1047,0 472,0 326.46,0 245.21,-216.22 228.67,-265.21"/>
<polygon fill="#63b8ff" stroke="#63b8ff" points="1363.97,-195.49 1374.57,-195.48 1366.28,-188.88 1363.97,-195.49"/>
</a>
</g>
</g>
<!-- Node20 -->
<g id="Node000020" class="node">
<title>Node20</title>
<g id="a_Node000020"><a xlink:href="_server_8cpp.html#a83350eae81b96dd7b301d1238268ffdb" target="_top" xlink:title="Handles the complete request header received from a client.">
<polygon fill="white" stroke="#666666" points="1132,-176.5 960,-176.5 960,-157.5 1132,-157.5 1132,-176.5"/>
<text text-anchor="middle" x="1046" y="-164.5" font-family="Helvetica,sans-Serif" font-size="10.00">handleCompleteRequestHeader</text>
</a>
</g>
</g>
<!-- Node2&#45;&gt;Node20 -->
<g id="edge33_Node000002_Node000020" class="edge">
<title>Node2&#45;&gt;Node20</title>
<g id="a_edge33_Node000002_Node000020"><a xlink:title=" ">
<path fill="none" stroke="#63b8ff" d="M1356.95,-193.4C1343.07,-190.61 1328.01,-187.9 1314,-186 1253.44,-177.79 1184.65,-173 1132.06,-170.29"/>
<polygon fill="#63b8ff" stroke="#63b8ff" points="1356.33,-196.84 1366.83,-195.43 1357.74,-189.99 1356.33,-196.84"/>
</a>
</g>
</g>
<!-- Node32 -->
<g id="Node000032" class="node">
<title>Node32</title>
<g id="a_Node000032"><a xlink:href="class_server.html#ab4a0ae2ec5d126062a7c5d4a2f78160a" target="_top" xlink:title="Removes a CGI file descriptor from the server.">
<polygon fill="white" stroke="#666666" points="924,-791.5 748,-791.5 748,-772.5 924,-772.5 924,-791.5"/>
<text text-anchor="middle" x="836" y="-779.5" font-family="Helvetica,sans-Serif" font-size="10.00">Server::removeCGIFileDescriptor</text>
</a>
</g>
</g>
<!-- Node2&#45;&gt;Node32 -->
<g id="edge34_Node000002_Node000032" class="edge">
<title>Node2&#45;&gt;Node32</title>
<g id="a_edge34_Node000002_Node000032"><a xlink:title=" ">
<path fill="none" stroke="#63b8ff" d="M1401.04,-224.06C1374.15,-290.75 1276.02,-516.88 1132,-652 1055.58,-723.69 1022.34,-726.81 924,-763 913.84,-766.74 902.74,-769.85 891.96,-772.4"/>
<polygon fill="#63b8ff" stroke="#63b8ff" points="1404.3,-225.35 1404.75,-214.76 1397.79,-222.76 1404.3,-225.35"/>
</a>
</g>
</g>
<!-- Node40 -->
<g id="Node000040" class="node">
<title>Node40</title>
<g id="a_Node000040"><a xlink:href="class_server.html#ae04a9076862f2163c562e20fa2207681" target="_top" xlink:title="Removes a Connection from the Server.">
<polygon fill="white" stroke="#666666" points="1314,-251.5 1168,-251.5 1168,-232.5 1314,-232.5 1314,-251.5"/>
<text text-anchor="middle" x="1241" y="-239.5" font-family="Helvetica,sans-Serif" font-size="10.00">Server::removeConnection</text>
</a>
</g>
</g>
<!-- Node2&#45;&gt;Node40 -->
<g id="edge44_Node000002_Node000040" class="edge">
<title>Node2&#45;&gt;Node40</title>
<g id="a_edge44_Node000002_Node000040"><a xlink:title=" ">
<path fill="none" stroke="#63b8ff" d="M1355.76,-216.72C1332.96,-221.79 1306.61,-227.64 1285.02,-232.44"/>
<polygon fill="#63b8ff" stroke="#63b8ff" points="1356.62,-220.11 1365.62,-214.53 1355.1,-213.28 1356.62,-220.11"/>
</a>
</g>
</g>
<!-- Node4 -->
<g id="Node000004" class="node">
<title>Node4</title>
<g id="a_Node000004"><a xlink:href="_server_8cpp.html#a3e07b970ffa58c9315b38673aff94f84" target="_top" xlink:title="Handles the reception of the request body from a client connection.">
<polygon fill="white" stroke="#666666" points="1113,-363.5 979,-363.5 979,-344.5 1113,-344.5 1113,-363.5"/>
<text text-anchor="middle" x="1046" y="-351.5" font-family="Helvetica,sans-Serif" font-size="10.00">connectionReceiveBody</text>
</a>
</g>
</g>
<!-- Node3&#45;&gt;Node4 -->
<g id="edge3_Node000003_Node000004" class="edge">
<title>Node3&#45;&gt;Node4</title>
<g id="a_edge3_Node000003_Node000004"><a xlink:title=" ">
<path fill="none" stroke="#63b8ff" d="M1194.24,-212.2C1185.16,-214.78 1175.98,-218.27 1168,-223 1113.4,-255.36 1068.65,-319.9 1052.99,-344.33"/>
<polygon fill="#63b8ff" stroke="#63b8ff" points="1195.15,-215.58 1203.99,-209.75 1193.44,-208.8 1195.15,-215.58"/>
</a>
</g>
</g>
<!-- Node3&#45;&gt;Node20 -->
<g id="edge20_Node000003_Node000020" class="edge">
<title>Node3&#45;&gt;Node20</title>
<g id="a_edge20_Node000003_Node000020"><a xlink:title=" ">
<path fill="none" stroke="#63b8ff" d="M1193.6,-195.87C1163.96,-190.03 1125.58,-182.47 1095.53,-176.56"/>
<polygon fill="#63b8ff" stroke="#63b8ff" points="1193.21,-199.35 1203.7,-197.85 1194.56,-192.49 1193.21,-199.35"/>
</a>
</g>
</g>
<!-- Node5 -->
<g id="Node000005" class="node">
<title>Node5</title>
<g id="a_Node000005"><a xlink:href="_server_8cpp.html#afb62203471d9a64b23d0267d5a4a261a" target="_top" xlink:title="Handle a client connection.">
<polygon fill="white" stroke="#666666" points="525,-591.5 421,-591.5 421,-572.5 525,-572.5 525,-591.5"/>
<text text-anchor="middle" x="473" y="-579.5" font-family="Helvetica,sans-Serif" font-size="10.00">handleConnection</text>
</a>
</g>
</g>
<!-- Node4&#45;&gt;Node5 -->
<g id="edge4_Node000004_Node000005" class="edge">
<title>Node4&#45;&gt;Node5</title>
<g id="a_edge4_Node000004_Node000005"><a xlink:title=" ">
<path fill="none" stroke="#63b8ff" d="M1026.24,-337.91C1003.71,-319.74 963.93,-291.24 924,-280 848.71,-258.8 819.52,-248.32 748,-280 602.69,-344.37 501.52,-528.09 478.82,-572.33"/>
<polygon fill="#63b8ff" stroke="#63b8ff" points="1024.06,-340.64 1034,-344.31 1028.51,-335.24 1024.06,-340.64"/>
</a>
</g>
</g>
<!-- Node13 -->
<g id="Node000013" class="node">
<title>Node13</title>
<g id="a_Node000013"><a xlink:href="test__connection_receive_body_8cpp.html#a19ac3fc035f7139c0a794d3020c4640b" target="_top" xlink:title=" ">
<polygon fill="white" stroke="#666666" points="862,-308.5 810,-308.5 810,-289.5 862,-289.5 862,-308.5"/>
<text text-anchor="middle" x="836" y="-296.5" font-family="Helvetica,sans-Serif" font-size="10.00">TEST_F</text>
</a>
</g>
</g>
<!-- Node4&#45;&gt;Node13 -->
<g id="edge13_Node000004_Node000013" class="edge">
<title>Node4&#45;&gt;Node13</title>
<g id="a_edge13_Node000004_Node000013"><a xlink:title=" ">
<path fill="none" stroke="#63b8ff" d="M1006.7,-341.29C983.03,-333.69 951.93,-324.14 924,-317 903.38,-311.73 879.71,-306.91 862.27,-303.59"/>
<polygon fill="#63b8ff" stroke="#63b8ff" points="1005.77,-344.67 1016.36,-344.42 1007.93,-338.01 1005.77,-344.67"/>
</a>
</g>
</g>
<!-- Node14 -->
<g id="Node000014" class="node">
<title>Node14</title>
<g id="a_Node000014"><a xlink:href="test__connection_receive_body_8cpp.html#a259717d7651caed4350409cf61f62243" target="_top" xlink:title=" ">
<polygon fill="white" stroke="#666666" points="862,-530.5 810,-530.5 810,-511.5 862,-511.5 862,-530.5"/>
<text text-anchor="middle" x="836" y="-518.5" font-family="Helvetica,sans-Serif" font-size="10.00">TEST_F</text>
</a>
</g>
</g>
<!-- Node4&#45;&gt;Node14 -->
<g id="edge14_Node000004_Node000014" class="edge">
<title>Node4&#45;&gt;Node14</title>
<g id="a_edge14_Node000004_Node000014"><a xlink:title=" ">
<path fill="none" stroke="#63b8ff" d="M1035.09,-373.03C1017.38,-405.07 977.1,-469.43 924,-502 905.29,-513.48 880.57,-518.07 862.26,-519.88"/>
<polygon fill="#63b8ff" stroke="#63b8ff" points="1038.38,-374.31 1040.04,-363.85 1032.22,-371 1038.38,-374.31"/>
</a>
</g>
</g>
<!-- Node15 -->
<g id="Node000015" class="node">
<title>Node15</title>
<g id="a_Node000015"><a xlink:href="test__connection_receive_body_8cpp.html#a19183545ff74155359c15797de32a79d" target="_top" xlink:title=" ">
<polygon fill="white" stroke="#666666" points="862,-493.5 810,-493.5 810,-474.5 862,-474.5 862,-493.5"/>
<text text-anchor="middle" x="836" y="-481.5" font-family="Helvetica,sans-Serif" font-size="10.00">TEST_F</text>
</a>
</g>
</g>
<!-- Node4&#45;&gt;Node15 -->
<g id="edge15_Node000004_Node000015" class="edge">
<title>Node4&#45;&gt;Node15</title>
<g id="a_edge15_Node000004_Node000015"><a xlink:title=" ">
<path fill="none" stroke="#63b8ff" d="M1031.31,-371.37C1010.77,-396.19 969.5,-441.39 924,-465 904.65,-475.04 880.22,-479.78 862.18,-482.02"/>
<polygon fill="#63b8ff" stroke="#63b8ff" points="1034.11,-373.49 1037.69,-363.51 1028.67,-369.08 1034.11,-373.49"/>
</a>
</g>
</g>
<!-- Node16 -->
<g id="Node000016" class="node">
<title>Node16</title>
<g id="a_Node000016"><a xlink:href="test__connection_receive_body_8cpp.html#a1cd9ca5899d66b74d95a445988fc3ae5" target="_top" xlink:title=" ">
<polygon fill="white" stroke="#666666" points="862,-456.5 810,-456.5 810,-437.5 862,-437.5 862,-456.5"/>
<text text-anchor="middle" x="836" y="-444.5" font-family="Helvetica,sans-Serif" font-size="10.00">TEST_F</text>
</a>
</g>
</g>
<!-- Node4&#45;&gt;Node16 -->
<g id="edge16_Node000004_Node000016" class="edge">
<title>Node4&#45;&gt;Node16</title>
<g id="a_edge16_Node000004_Node000016"><a xlink:title=" ">
<path fill="none" stroke="#63b8ff" d="M1024.26,-369.68C1001.04,-386.51 961.69,-412.86 924,-428 903.92,-436.07 879.78,-440.99 862.03,-443.8"/>
<polygon fill="#63b8ff" stroke="#63b8ff" points="1026.36,-372.49 1032.34,-363.74 1022.21,-366.85 1026.36,-372.49"/>
</a>
</g>
</g>
<!-- Node17 -->
<g id="Node000017" class="node">
<title>Node17</title>
<g id="a_Node000017"><a xlink:href="test__connection_receive_body_8cpp.html#aeb1a084ca7014c09a2d15604dbfbe356" target="_top" xlink:title=" ">
<polygon fill="white" stroke="#666666" points="862,-419.5 810,-419.5 810,-400.5 862,-400.5 862,-419.5"/>
<text text-anchor="middle" x="836" y="-407.5" font-family="Helvetica,sans-Serif" font-size="10.00">TEST_F</text>
</a>
</g>
</g>
<!-- Node4&#45;&gt;Node17 -->
<g id="edge17_Node000004_Node000017" class="edge">
<title>Node4&#45;&gt;Node17</title>
<g id="a_edge17_Node000004_Node000017"><a xlink:title=" ">
<path fill="none" stroke="#63b8ff" d="M1006.2,-366.75C982.58,-374.29 951.71,-383.75 924,-391 903.36,-396.4 879.69,-401.5 862.26,-405.05"/>
<polygon fill="#63b8ff" stroke="#63b8ff" points="1007.4,-370.04 1015.85,-363.65 1005.26,-363.37 1007.4,-370.04"/>
</a>
</g>
</g>
<!-- Node18 -->
<g id="Node000018" class="node">
<title>Node18</title>
<g id="a_Node000018"><a xlink:href="test__connection_receive_body_8cpp.html#ac0f2278a66a910e48d914cc1e35d495a" target="_top" xlink:title=" ">
<polygon fill="white" stroke="#666666" points="862,-382.5 810,-382.5 810,-363.5 862,-363.5 862,-382.5"/>
<text text-anchor="middle" x="836" y="-370.5" font-family="Helvetica,sans-Serif" font-size="10.00">TEST_F</text>
</a>
</g>
</g>
<!-- Node4&#45;&gt;Node18 -->
<g id="edge18_Node000004_Node000018" class="edge">
<title>Node4&#45;&gt;Node18</title>
<g id="a_edge18_Node000004_Node000018"><a xlink:title=" ">
<path fill="none" stroke="#63b8ff" d="M968.49,-360.99C931.02,-364.41 888.42,-368.3 862.12,-370.71"/>
<polygon fill="#63b8ff" stroke="#63b8ff" points="969.26,-364.43 978.9,-360.04 968.62,-357.46 969.26,-364.43"/>
</a>
</g>
</g>
<!-- Node19 -->
<g id="Node000019" class="node">
<title>Node19</title>
<g id="a_Node000019"><a xlink:href="test__connection_receive_body_8cpp.html#af70bae422af1c7fcc57ebf91961941c0" target="_top" xlink:title=" ">
<polygon fill="white" stroke="#666666" points="862,-345.5 810,-345.5 810,-326.5 862,-326.5 862,-345.5"/>
<text text-anchor="middle" x="836" y="-333.5" font-family="Helvetica,sans-Serif" font-size="10.00">TEST_F</text>
</a>
</g>
</g>
<!-- Node4&#45;&gt;Node19 -->
<g id="edge19_Node000004_Node000019" class="edge">
<title>Node4&#45;&gt;Node19</title>
<g id="a_edge19_Node000004_Node000019"><a xlink:title=" ">
<path fill="none" stroke="#63b8ff" d="M968.49,-347.38C931.02,-344.14 888.42,-340.45 862.12,-338.17"/>
<polygon fill="#63b8ff" stroke="#63b8ff" points="968.64,-350.9 978.9,-348.28 969.24,-343.93 968.64,-350.9"/>
</a>
</g>
</g>
<!-- Node6 -->
<g id="Node000006" class="node">
<title>Node6</title>
<g id="a_Node000006"><a xlink:href="_server_8cpp.html#af9f4479a6262c17deef89938118d27f4" target="_top" xlink:title="Accepts new connections or handles existing ones.">
<polygon fill="white" stroke="#666666" points="385,-340.5 308,-340.5 308,-321.5 385,-321.5 385,-340.5"/>
<text text-anchor="middle" x="346.5" y="-328.5" font-family="Helvetica,sans-Serif" font-size="10.00">handleEvent</text>
</a>
</g>
</g>
<!-- Node5&#45;&gt;Node6 -->
<g id="edge5_Node000005_Node000006" class="edge">
<title>Node5&#45;&gt;Node6</title>
<g id="a_edge5_Node000005_Node000006"><a xlink:title=" ">
<path fill="none" stroke="#63b8ff" d="M462.79,-563.44C438.04,-513.53 370.69,-377.76 352.23,-340.54"/>
<polygon fill="#63b8ff" stroke="#63b8ff" points="459.69,-565.06 467.27,-572.47 465.96,-561.95 459.69,-565.06"/>
</a>
</g>
</g>
<!-- Node7 -->
<g id="Node000007" class="node">
<title>Node7</title>
<g id="a_Node000007"><a xlink:href="_server_8cpp.html#ab66b27c2186daacb15a6b13dd43be31b" target="_top" xlink:title="Runs the main event loop with a server object.">
<polygon fill="white" stroke="#666666" points="141,-340.5 77,-340.5 77,-321.5 141,-321.5 141,-340.5"/>
<text text-anchor="middle" x="109" y="-328.5" font-family="Helvetica,sans-Serif" font-size="10.00">runServer</text>
</a>
</g>
</g>
<!-- Node6&#45;&gt;Node7 -->
<g id="edge6_Node000006_Node000007" class="edge">
<title>Node6&#45;&gt;Node7</title>
<g id="a_edge6_Node000006_Node000007"><a xlink:title=" ">
<path fill="none" stroke="#63b8ff" d="M297.73,-331C250.95,-331 181.04,-331 141.05,-331"/>
<polygon fill="#63b8ff" stroke="#63b8ff" points="297.92,-334.5 307.92,-331 297.92,-327.5 297.92,-334.5"/>
</a>
</g>
</g>
<!-- Node6&#45;&gt;Node9 -->
<g id="edge8_Node000006_Node000009" class="edge">
<title>Node6&#45;&gt;Node9</title>
<g id="a_edge8_Node000006_Node000009"><a xlink:title=" ">
<path fill="none" stroke="#63b8ff" d="M315.74,-317.11C293.98,-306.96 265.03,-293.45 245.86,-284.5"/>
<polygon fill="#63b8ff" stroke="#63b8ff" points="314.33,-320.32 324.87,-321.37 317.29,-313.97 314.33,-320.32"/>
</a>
</g>
</g>
<!-- Node8 -->
<g id="Node000008" class="node">
<title>Node8</title>
<g id="a_Node000008"><a xlink:href="main_8cpp.html#ad53223b8779f25caeddb70a3b9172967" target="_top" xlink:title=" ">
<polygon fill="white" stroke="#666666" points="41,-340.5 0,-340.5 0,-321.5 41,-321.5 41,-340.5"/>
<text text-anchor="middle" x="20.5" y="-328.5" font-family="Helvetica,sans-Serif" font-size="10.00">main</text>
</a>
</g>
</g>
<!-- Node7&#45;&gt;Node8 -->
<g id="edge7_Node000007_Node000008" class="edge">
<title>Node7&#45;&gt;Node8</title>
<g id="a_edge7_Node000007_Node000008"><a xlink:title=" ">
<path fill="none" stroke="#63b8ff" d="M66.5,-331C57.64,-331 48.68,-331 41.11,-331"/>
<polygon fill="#63b8ff" stroke="#63b8ff" points="66.77,-334.5 76.77,-331 66.77,-327.5 66.77,-334.5"/>
</a>
</g>
</g>
<!-- Node9&#45;&gt;Node7 -->
<g id="edge9_Node000009_Node000007" class="edge">
<title>Node9&#45;&gt;Node7</title>
<g id="a_edge9_Node000009_Node000007"><a xlink:title=" ">
<path fill="none" stroke="#63b8ff" d="M194.79,-289.16C174.28,-299.29 147.23,-312.63 129.26,-321.5"/>
<polygon fill="#63b8ff" stroke="#63b8ff" points="196.57,-292.19 203.99,-284.63 193.47,-285.91 196.57,-292.19"/>
</a>
</g>
</g>
<!-- Node10 -->
<g id="Node000010" class="node">
<title>Node10</title>
<g id="a_Node000010"><a xlink:href="test__shutdown_server_8cpp.html#a6462dc91a572c9969b759806ed15590b" target="_top" xlink:title=" ">
<polygon fill="white" stroke="#666666" points="135,-266.5 83,-266.5 83,-247.5 135,-247.5 135,-266.5"/>
<text text-anchor="middle" x="109" y="-254.5" font-family="Helvetica,sans-Serif" font-size="10.00">TEST_F</text>
</a>
</g>
</g>
<!-- Node9&#45;&gt;Node10 -->
<g id="edge10_Node000009_Node000010" class="edge">
<title>Node9&#45;&gt;Node10</title>
<g id="a_edge10_Node000009_Node000010"><a xlink:title=" ">
<path fill="none" stroke="#63b8ff" d="M166.63,-265.98C155.63,-264.24 144.64,-262.49 135.3,-261.01"/>
<polygon fill="#63b8ff" stroke="#63b8ff" points="166.26,-269.47 176.68,-267.57 167.35,-262.55 166.26,-269.47"/>
</a>
</g>
</g>
<!-- Node11 -->
<g id="Node000011" class="node">
<title>Node11</title>
<g id="a_Node000011"><a xlink:href="test__shutdown_server_8cpp.html#a69fea7b0fb329821fdd955271edc65ee" target="_top" xlink:title=" ">
<polygon fill="white" stroke="#666666" points="135,-229.5 83,-229.5 83,-210.5 135,-210.5 135,-229.5"/>
<text text-anchor="middle" x="109" y="-217.5" font-family="Helvetica,sans-Serif" font-size="10.00">TEST_F</text>
</a>
</g>
</g>
<!-- Node9&#45;&gt;Node11 -->
<g id="edge11_Node000009_Node000011" class="edge">
<title>Node9&#45;&gt;Node11</title>
<g id="a_edge11_Node000009_Node000011"><a xlink:title=" ">
<path fill="none" stroke="#63b8ff" d="M194.64,-261.02C174.4,-251.21 147.85,-238.34 129.92,-229.66"/>
<polygon fill="#63b8ff" stroke="#63b8ff" points="193.2,-264.21 203.73,-265.42 196.26,-257.91 193.2,-264.21"/>
</a>
</g>
</g>
<!-- Node12 -->
<g id="Node000012" class="node">
<title>Node12</title>
<g id="a_Node000012"><a xlink:href="test__shutdown_server_8cpp.html#a224e0b58937c3db439ffeef179620439" target="_top" xlink:title=" ">
<polygon fill="white" stroke="#666666" points="135,-303.5 83,-303.5 83,-284.5 135,-284.5 135,-303.5"/>
<text text-anchor="middle" x="109" y="-291.5" font-family="Helvetica,sans-Serif" font-size="10.00">TEST_F</text>
</a>
</g>
</g>
<!-- Node9&#45;&gt;Node12 -->
<g id="edge12_Node000009_Node000012" class="edge">
<title>Node9&#45;&gt;Node12</title>
<g id="a_edge12_Node000009_Node000012"><a xlink:title=" ">
<path fill="none" stroke="#63b8ff" d="M166.63,-284.52C155.63,-286.36 144.64,-288.2 135.3,-289.76"/>
<polygon fill="#63b8ff" stroke="#63b8ff" points="167.4,-287.94 176.68,-282.84 166.24,-281.04 167.4,-287.94"/>
</a>
</g>
</g>
<!-- Node21 -->
<g id="Node000021" class="node">
<title>Node21</title>
<g id="a_Node000021"><a xlink:href="_server_8cpp.html#aa45d6529fd7be9b7adf788a9679ae34b" target="_top" xlink:title="Receive request header from a client.">
<polygon fill="white" stroke="#666666" points="908,-232.5 764,-232.5 764,-213.5 908,-213.5 908,-232.5"/>
<text text-anchor="middle" x="836" y="-220.5" font-family="Helvetica,sans-Serif" font-size="10.00">connectionReceiveHeader</text>
</a>
</g>
</g>
<!-- Node20&#45;&gt;Node21 -->
<g id="edge21_Node000020_Node000021" class="edge">
<title>Node20&#45;&gt;Node21</title>
<g id="a_edge21_Node000020_Node000021"><a xlink:title=" ">
<path fill="none" stroke="#63b8ff" d="M1006.2,-179.75C982.58,-187.29 951.71,-196.75 924,-204 911.14,-207.37 897.1,-210.61 884.13,-213.44"/>
<polygon fill="#63b8ff" stroke="#63b8ff" points="1007.4,-183.04 1015.85,-176.65 1005.26,-176.37 1007.4,-183.04"/>
</a>
</g>
</g>
<!-- Node27 -->
<g id="Node000027" class="node">
<title>Node27</title>
<g id="a_Node000027"><a xlink:href="test__handle_complete_request_header_8cpp.html#a04308ae6ca27d5aac2ee1ae95e818f78" target="_top" xlink:title=" ">
<polygon fill="white" stroke="#666666" points="862,-84.5 810,-84.5 810,-65.5 862,-65.5 862,-84.5"/>
<text text-anchor="middle" x="836" y="-72.5" font-family="Helvetica,sans-Serif" font-size="10.00">TEST_F</text>
</a>
</g>
</g>
<!-- Node20&#45;&gt;Node27 -->
<g id="edge28_Node000020_Node000027" class="edge">
<title>Node20&#45;&gt;Node27</title>
<g id="a_edge28_Node000020_Node000027"><a xlink:title=" ">
<path fill="none" stroke="#63b8ff" d="M1024.36,-151.28C1001.17,-134.39 961.8,-107.94 924,-93 903.92,-85.06 879.78,-80.42 862.03,-77.85"/>
<polygon fill="#63b8ff" stroke="#63b8ff" points="1022.58,-154.32 1032.7,-157.46 1026.75,-148.7 1022.58,-154.32"/>
</a>
</g>
</g>
<!-- Node28 -->
<g id="Node000028" class="node">
<title>Node28</title>
<g id="a_Node000028"><a xlink:href="test__handle_complete_request_header_8cpp.html#a00d3c07453ceb8ca6576a951222a7829" target="_top" xlink:title=" ">
<polygon fill="white" stroke="#666666" points="862,-47.5 810,-47.5 810,-28.5 862,-28.5 862,-47.5"/>
<text text-anchor="middle" x="836" y="-35.5" font-family="Helvetica,sans-Serif" font-size="10.00">TEST_F</text>
</a>
</g>
</g>
<!-- Node20&#45;&gt;Node28 -->
<g id="edge29_Node000020_Node000028" class="edge">
<title>Node20&#45;&gt;Node28</title>
<g id="a_edge29_Node000020_Node000028"><a xlink:title=" ">
<path fill="none" stroke="#63b8ff" d="M1031.35,-149.56C1010.85,-124.66 969.62,-79.36 924,-56 904.64,-46.09 880.22,-41.64 862.18,-39.63"/>
<polygon fill="#63b8ff" stroke="#63b8ff" points="1028.71,-151.86 1037.71,-157.45 1034.15,-147.47 1028.71,-151.86"/>
</a>
</g>
</g>
<!-- Node29 -->
<g id="Node000029" class="node">
<title>Node29</title>
<g id="a_Node000029"><a xlink:href="test__handle_complete_request_header_8cpp.html#a5705d4672adfefa8169bd3e9406e75f6" target="_top" xlink:title=" ">
<polygon fill="white" stroke="#666666" points="862,-195.5 810,-195.5 810,-176.5 862,-176.5 862,-195.5"/>
<text text-anchor="middle" x="836" y="-183.5" font-family="Helvetica,sans-Serif" font-size="10.00">TEST_F</text>
</a>
</g>
</g>
<!-- Node20&#45;&gt;Node29 -->
<g id="edge30_Node000020_Node000029" class="edge">
<title>Node20&#45;&gt;Node29</title>
<g id="a_edge30_Node000020_Node000029"><a xlink:title=" ">
<path fill="none" stroke="#63b8ff" d="M949.83,-175.69C917.53,-178.64 884.09,-181.7 862.08,-183.71"/>
<polygon fill="#63b8ff" stroke="#63b8ff" points="950.16,-179.18 959.8,-174.78 949.52,-172.21 950.16,-179.18"/>
</a>
</g>
</g>
<!-- Node30 -->
<g id="Node000030" class="node">
<title>Node30</title>
<g id="a_Node000030"><a xlink:href="test__handle_complete_request_header_8cpp.html#a63c4237c8b0edef77a20f599133d77d4" target="_top" xlink:title=" ">
<polygon fill="white" stroke="#666666" points="862,-158.5 810,-158.5 810,-139.5 862,-139.5 862,-158.5"/>
<text text-anchor="middle" x="836" y="-146.5" font-family="Helvetica,sans-Serif" font-size="10.00">TEST_F</text>
</a>
</g>
</g>
<!-- Node20&#45;&gt;Node30 -->
<g id="edge31_Node000020_Node000030" class="edge">
<title>Node20&#45;&gt;Node30</title>
<g id="a_edge31_Node000020_Node000030"><a xlink:title=" ">
<path fill="none" stroke="#63b8ff" d="M949.83,-158.76C917.53,-155.97 884.09,-153.08 862.08,-151.17"/>
<polygon fill="#63b8ff" stroke="#63b8ff" points="949.53,-162.25 959.8,-159.63 950.14,-155.28 949.53,-162.25"/>
</a>
</g>
</g>
<!-- Node31 -->
<g id="Node000031" class="node">
<title>Node31</title>
<g id="a_Node000031"><a xlink:href="test__handle_complete_request_header_8cpp.html#a7e6245bb424d27191d406b619a2fe40b" target="_top" xlink:title=" ">
<polygon fill="white" stroke="#666666" points="862,-121.5 810,-121.5 810,-102.5 862,-102.5 862,-121.5"/>
<text text-anchor="middle" x="836" y="-109.5" font-family="Helvetica,sans-Serif" font-size="10.00">TEST_F</text>
</a>
</g>
</g>
<!-- Node20&#45;&gt;Node31 -->
<g id="edge32_Node000020_Node000031" class="edge">
<title>Node20&#45;&gt;Node31</title>
<g id="a_edge32_Node000020_Node000031"><a xlink:title=" ">
<path fill="none" stroke="#63b8ff" d="M1006.7,-154.29C983.03,-146.69 951.93,-137.14 924,-130 903.38,-124.73 879.71,-119.91 862.27,-116.59"/>
<polygon fill="#63b8ff" stroke="#63b8ff" points="1005.77,-157.67 1016.36,-157.42 1007.93,-151.01 1005.77,-157.67"/>
</a>
</g>
</g>
<!-- Node21&#45;&gt;Node5 -->
<g id="edge22_Node000021_Node000005" class="edge">
<title>Node21&#45;&gt;Node5</title>
<g id="a_edge22_Node000021_Node000005"><a xlink:title=" ">
<path fill="none" stroke="#63b8ff" d="M789.02,-235.2C775.74,-238.85 761.26,-242.96 748,-247 731.87,-251.91 728.1,-253.97 712,-259 645.27,-279.83 610.89,-254.04 561,-303 480.79,-381.72 474.25,-533.09 473.94,-572.45"/>
<polygon fill="#63b8ff" stroke="#63b8ff" points="790.17,-238.51 798.9,-232.5 788.33,-231.76 790.17,-238.51"/>
</a>
</g>
</g>
<!-- Node22 -->
<g id="Node000022" class="node">
<title>Node22</title>
<g id="a_Node000022"><a xlink:href="test__connection_receive_header_8cpp.html#ae40546436ca5ae6d8af1f754dfff4a98" target="_top" xlink:title=" ">
<polygon fill="white" stroke="#666666" points="662.5,-102.5 610.5,-102.5 610.5,-83.5 662.5,-83.5 662.5,-102.5"/>
<text text-anchor="middle" x="636.5" y="-90.5" font-family="Helvetica,sans-Serif" font-size="10.00">TEST_F</text>
</a>
</g>
</g>
<!-- Node21&#45;&gt;Node22 -->
<g id="edge23_Node000021_Node000022" class="edge">
<title>Node21&#45;&gt;Node22</title>
<g id="a_edge23_Node000021_Node000022"><a xlink:title=" ">
<path fill="none" stroke="#63b8ff" d="M754.51,-208.84C752.24,-207.37 750.05,-205.76 748,-204 714.34,-175.17 745.34,-140.2 712,-111 698.49,-99.17 678.51,-94.81 662.64,-93.33"/>
<polygon fill="#63b8ff" stroke="#63b8ff" points="753.28,-212.15 763.74,-213.84 756.62,-206 753.28,-212.15"/>
</a>
</g>
</g>
<!-- Node23 -->
<g id="Node000023" class="node">
<title>Node23</title>
<g id="a_Node000023"><a xlink:href="test__connection_receive_header_8cpp.html#a0952222a64d85993a5b3d9022826859c" target="_top" xlink:title=" ">
<polygon fill="white" stroke="#666666" points="662.5,-250.5 610.5,-250.5 610.5,-231.5 662.5,-231.5 662.5,-250.5"/>
<text text-anchor="middle" x="636.5" y="-238.5" font-family="Helvetica,sans-Serif" font-size="10.00">TEST_F</text>
</a>
</g>
</g>
<!-- Node21&#45;&gt;Node23 -->
<g id="edge24_Node000021_Node000023" class="edge">
<title>Node21&#45;&gt;Node23</title>
<g id="a_edge24_Node000021_Node000023"><a xlink:title=" ">
<path fill="none" stroke="#63b8ff" d="M753.9,-230.39C721.12,-233.38 685.65,-236.61 662.59,-238.71"/>
<polygon fill="#63b8ff" stroke="#63b8ff" points="754.34,-233.87 763.98,-229.47 753.7,-226.9 754.34,-233.87"/>
</a>
</g>
</g>
<!-- Node24 -->
<g id="Node000024" class="node">
<title>Node24</title>
<g id="a_Node000024"><a xlink:href="test__connection_receive_header_8cpp.html#a492a1135a23e13de8b412f266f5422dd" target="_top" xlink:title=" ">
<polygon fill="white" stroke="#666666" points="662.5,-213.5 610.5,-213.5 610.5,-194.5 662.5,-194.5 662.5,-213.5"/>
<text text-anchor="middle" x="636.5" y="-201.5" font-family="Helvetica,sans-Serif" font-size="10.00">TEST_F</text>
</a>
</g>
</g>
<!-- Node21&#45;&gt;Node24 -->
<g id="edge25_Node000021_Node000024" class="edge">
<title>Node21&#45;&gt;Node24</title>
<g id="a_edge25_Node000021_Node000024"><a xlink:title=" ">
<path fill="none" stroke="#63b8ff" d="M753.9,-215.2C721.12,-212.04 685.65,-208.63 662.59,-206.41"/>
<polygon fill="#63b8ff" stroke="#63b8ff" points="753.69,-218.69 763.98,-216.17 754.36,-211.73 753.69,-218.69"/>
</a>
</g>
</g>
<!-- Node25 -->
<g id="Node000025" class="node">
<title>Node25</title>
<g id="a_Node000025"><a xlink:href="test__connection_receive_header_8cpp.html#a42aad638a3786700de9108d63bbba850" target="_top" xlink:title=" ">
<polygon fill="white" stroke="#666666" points="662.5,-176.5 610.5,-176.5 610.5,-157.5 662.5,-157.5 662.5,-176.5"/>
<text text-anchor="middle" x="636.5" y="-164.5" font-family="Helvetica,sans-Serif" font-size="10.00">TEST_F</text>
</a>
</g>
</g>
<!-- Node21&#45;&gt;Node25 -->
<g id="edge26_Node000021_Node000025" class="edge">
<title>Node21&#45;&gt;Node25</title>
<g id="a_edge26_Node000021_Node000025"><a xlink:title=" ">
<path fill="none" stroke="#63b8ff" d="M770.73,-211.04C762.98,-208.99 755.25,-206.65 748,-204 731.01,-197.79 728.92,-191.4 712,-185 696.07,-178.98 677.44,-174.48 662.8,-171.48"/>
<polygon fill="#63b8ff" stroke="#63b8ff" points="769.97,-214.45 780.52,-213.48 771.66,-207.66 769.97,-214.45"/>
</a>
</g>
</g>
<!-- Node26 -->
<g id="Node000026" class="node">
<title>Node26</title>
<g id="a_Node000026"><a xlink:href="test__connection_receive_header_8cpp.html#aa34cc8553c29e19d06c302699e916a3e" target="_top" xlink:title=" ">
<polygon fill="white" stroke="#666666" points="662.5,-139.5 610.5,-139.5 610.5,-120.5 662.5,-120.5 662.5,-139.5"/>
<text text-anchor="middle" x="636.5" y="-127.5" font-family="Helvetica,sans-Serif" font-size="10.00">TEST_F</text>
</a>
</g>
</g>
<!-- Node21&#45;&gt;Node26 -->
<g id="edge27_Node000021_Node000026" class="edge">
<title>Node21&#45;&gt;Node26</title>
<g id="a_edge27_Node000021_Node000026"><a xlink:title=" ">
<path fill="none" stroke="#63b8ff" d="M757.11,-209.41C753.93,-207.8 750.88,-206 748,-204 723.7,-187.12 736.11,-165.15 712,-148 697.58,-137.74 678.03,-133.28 662.58,-131.37"/>
<polygon fill="#63b8ff" stroke="#63b8ff" points="755.76,-212.64 766.32,-213.48 758.59,-206.24 755.76,-212.64"/>
</a>
</g>
</g>
<!-- Node33 -->
<g id="Node000033" class="node">
<title>Node33</title>
<g id="a_Node000033"><a xlink:href="_server_8cpp.html#a1a02f28f05641d9b3dd7f8207e57bd68" target="_top" xlink:title="Handles receiving data from a CGI script and processes it accordingly.">
<polygon fill="white" stroke="#666666" points="712,-696.5 561,-696.5 561,-677.5 712,-677.5 712,-696.5"/>
<text text-anchor="middle" x="636.5" y="-684.5" font-family="Helvetica,sans-Serif" font-size="10.00">connectionReceiveFromCGI</text>
</a>
</g>
</g>
<!-- Node32&#45;&gt;Node33 -->
<g id="edge35_Node000032_Node000033" class="edge">
<title>Node32&#45;&gt;Node33</title>
<g id="a_edge35_Node000032_Node000033"><a xlink:title=" ">
<path fill="none" stroke="#63b8ff" d="M766.45,-769.69C760.11,-767.76 753.87,-765.54 748,-763 707.83,-745.6 667.07,-712.77 648.25,-696.56"/>
<polygon fill="#63b8ff" stroke="#63b8ff" points="765.88,-773.16 776.45,-772.49 767.77,-766.42 765.88,-773.16"/>
</a>
</g>
</g>
<!-- Node36 -->
<g id="Node000036" class="node">
<title>Node36</title>
<g id="a_Node000036"><a xlink:href="_server_8cpp.html#a03e6a55f5c946d4fb308f7c1758e1b51" target="_top" xlink:title="Sends the request body to the CGI process.">
<polygon fill="white" stroke="#666666" points="697.5,-789.5 575.5,-789.5 575.5,-770.5 697.5,-770.5 697.5,-789.5"/>
<text text-anchor="middle" x="636.5" y="-777.5" font-family="Helvetica,sans-Serif" font-size="10.00">connectionSendToCGI</text>
</a>
</g>
</g>
<!-- Node32&#45;&gt;Node36 -->
<g id="edge39_Node000032_Node000036" class="edge">
<title>Node32&#45;&gt;Node36</title>
<g id="a_edge39_Node000032_Node000036"><a xlink:title=" ">
<path fill="none" stroke="#63b8ff" d="M737.43,-781.01C723.85,-780.87 710.23,-780.74 697.61,-780.61"/>
<polygon fill="#63b8ff" stroke="#63b8ff" points="737.76,-784.52 747.8,-781.12 737.83,-777.52 737.76,-784.52"/>
</a>
</g>
</g>
<!-- Node33&#45;&gt;Node5 -->
<g id="edge36_Node000033_Node000005" class="edge">
<title>Node33&#45;&gt;Node5</title>
<g id="a_edge36_Node000033_Node000005"><a xlink:title=" ">
<path fill="none" stroke="#63b8ff" d="M578.4,-674.09C572.35,-671.8 566.43,-669.12 561,-666 558.71,-664.69 506.38,-613.65 484,-591.78"/>
<polygon fill="#63b8ff" stroke="#63b8ff" points="577.38,-677.44 587.98,-677.39 579.66,-670.82 577.38,-677.44"/>
</a>
</g>
</g>
<!-- Node34 -->
<g id="Node000034" class="node">
<title>Node34</title>
<g id="a_Node000034"><a xlink:href="test__connection_receive_from_c_g_i_8cpp.html#a3a257e52c0c048d052b1f9238cfe0411" target="_top" xlink:title=" ">
<polygon fill="white" stroke="#666666" points="499,-697.5 447,-697.5 447,-678.5 499,-678.5 499,-697.5"/>
<text text-anchor="middle" x="473" y="-685.5" font-family="Helvetica,sans-Serif" font-size="10.00">TEST_F</text>
</a>
</g>
</g>
<!-- Node33&#45;&gt;Node34 -->
<g id="edge37_Node000033_Node000034" class="edge">
<title>Node33&#45;&gt;Node34</title>
<g id="a_edge37_Node000033_Node000034"><a xlink:title=" ">
<path fill="none" stroke="#63b8ff" d="M550.75,-687.52C531.95,-687.64 513.44,-687.76 499.3,-687.84"/>
<polygon fill="#63b8ff" stroke="#63b8ff" points="550.92,-691.02 560.9,-687.46 550.87,-684.02 550.92,-691.02"/>
</a>
</g>
</g>
<!-- Node35 -->
<g id="Node000035" class="node">
<title>Node35</title>
<g id="a_Node000035"><a xlink:href="test__connection_receive_from_c_g_i_8cpp.html#acd248002a168209089438d39017ca034" target="_top" xlink:title=" ">
<polygon fill="white" stroke="#666666" points="499,-660.5 447,-660.5 447,-641.5 499,-641.5 499,-660.5"/>
<text text-anchor="middle" x="473" y="-648.5" font-family="Helvetica,sans-Serif" font-size="10.00">TEST_F</text>
</a>
</g>
</g>
<!-- Node33&#45;&gt;Node35 -->
<g id="edge38_Node000033_Node000035" class="edge">
<title>Node33&#45;&gt;Node35</title>
<g id="a_edge38_Node000033_Node000035"><a xlink:title=" ">
<path fill="none" stroke="#63b8ff" d="M582.61,-675.21C554.65,-668.98 521.63,-661.62 499.39,-656.66"/>
<polygon fill="#63b8ff" stroke="#63b8ff" points="582.12,-678.69 592.64,-677.45 583.65,-671.86 582.12,-678.69"/>
</a>
</g>
</g>
<!-- Node36&#45;&gt;Node5 -->
<g id="edge40_Node000036_Node000005" class="edge">
<title>Node36&#45;&gt;Node5</title>
<g id="a_edge40_Node000036_Node000005"><a xlink:title=" ">
<path fill="none" stroke="#63b8ff" d="M615.95,-763.56C599.79,-749.27 576.98,-727.39 561,-705 539.98,-675.56 546.22,-661.3 525,-632 513.66,-616.33 497.2,-601.19 486.07,-591.76"/>
<polygon fill="#63b8ff" stroke="#63b8ff" points="613.87,-766.4 623.72,-770.31 618.46,-761.11 613.87,-766.4"/>
</a>
</g>
</g>
<!-- Node37 -->
<g id="Node000037" class="node">
<title>Node37</title>
<g id="a_Node000037"><a xlink:href="test__connection_send_to_c_g_i_8cpp.html#a71e710d9b5f2f4a568086e70def06ccc" target="_top" xlink:title=" ">
<polygon fill="white" stroke="#666666" points="499,-789.5 447,-789.5 447,-770.5 499,-770.5 499,-789.5"/>
<text text-anchor="middle" x="473" y="-777.5" font-family="Helvetica,sans-Serif" font-size="10.00">TEST_F</text>
</a>
</g>
</g>
<!-- Node36&#45;&gt;Node37 -->
<g id="edge41_Node000036_Node000037" class="edge">
<title>Node36&#45;&gt;Node37</title>
<g id="a_edge41_Node000036_Node000037"><a xlink:title=" ">
<path fill="none" stroke="#63b8ff" d="M565.35,-780C541.76,-780 516.95,-780 499.14,-780"/>
<polygon fill="#63b8ff" stroke="#63b8ff" points="565.36,-783.5 575.36,-780 565.36,-776.5 565.36,-783.5"/>
</a>
</g>
</g>
<!-- Node38 -->
<g id="Node000038" class="node">
<title>Node38</title>
<g id="a_Node000038"><a xlink:href="test__connection_send_to_c_g_i_8cpp.html#ab009e8595170fb19af2600ddd2f4362a" target="_top" xlink:title=" ">
<polygon fill="white" stroke="#666666" points="499,-752.5 447,-752.5 447,-733.5 499,-733.5 499,-752.5"/>
<text text-anchor="middle" x="473" y="-740.5" font-family="Helvetica,sans-Serif" font-size="10.00">TEST_F</text>
</a>
</g>
</g>
<!-- Node36&#45;&gt;Node38 -->
<g id="edge42_Node000036_Node000038" class="edge">
<title>Node36&#45;&gt;Node38</title>
<g id="a_edge42_Node000036_Node000038"><a xlink:title=" ">
<path fill="none" stroke="#63b8ff" d="M584.16,-768.24C555.86,-761.75 521.97,-753.99 499.32,-748.8"/>
<polygon fill="#63b8ff" stroke="#63b8ff" points="583.38,-771.65 593.91,-770.47 584.94,-764.83 583.38,-771.65"/>
</a>
</g>
</g>
<!-- Node39 -->
<g id="Node000039" class="node">
<title>Node39</title>
<g id="a_Node000039"><a xlink:href="test__connection_send_to_c_g_i_8cpp.html#a35214933bd65d5cd26ad10f15604a4b3" target="_top" xlink:title=" ">
<polygon fill="white" stroke="#666666" points="499,-826.5 447,-826.5 447,-807.5 499,-807.5 499,-826.5"/>
<text text-anchor="middle" x="473" y="-814.5" font-family="Helvetica,sans-Serif" font-size="10.00">TEST_F</text>
</a>
</g>
</g>
<!-- Node36&#45;&gt;Node39 -->
<g id="edge43_Node000036_Node000039" class="edge">
<title>Node36&#45;&gt;Node39</title>
<g id="a_edge43_Node000036_Node000039"><a xlink:title=" ">
<path fill="none" stroke="#63b8ff" d="M584.16,-791.76C555.86,-798.25 521.97,-806.01 499.32,-811.2"/>
<polygon fill="#63b8ff" stroke="#63b8ff" points="584.94,-795.17 593.91,-789.53 583.38,-788.35 584.94,-795.17"/>
</a>
</g>
</g>
<!-- Node40&#45;&gt;Node4 -->
<g id="edge45_Node000040_Node000004" class="edge">
<title>Node40&#45;&gt;Node4</title>
<g id="a_edge45_Node000040_Node000004"><a xlink:title=" ">
<path fill="none" stroke="#63b8ff" d="M1214.88,-256.58C1174.74,-279.87 1097.21,-324.87 1063.41,-344.48"/>
<polygon fill="#63b8ff" stroke="#63b8ff" points="1216.65,-259.6 1223.54,-251.55 1213.14,-253.54 1216.65,-259.6"/>
</a>
</g>
</g>
<!-- Node40&#45;&gt;Node20 -->
<g id="edge57_Node000040_Node000020" class="edge">
<title>Node40&#45;&gt;Node20</title>
<g id="a_edge57_Node000040_Node000020"><a xlink:title=" ">
<path fill="none" stroke="#63b8ff" d="M1189.18,-229.79C1182.01,-227.72 1174.77,-225.44 1168,-223 1130.32,-209.43 1088.31,-188.63 1065.03,-176.56"/>
<polygon fill="#63b8ff" stroke="#63b8ff" points="1188.3,-233.18 1198.87,-232.48 1190.17,-226.43 1188.3,-233.18"/>
</a>
</g>
</g>
<!-- Node40&#45;&gt;Node21 -->
<g id="edge46_Node000040_Node000021" class="edge">
<title>Node40&#45;&gt;Node21</title>
<g id="a_edge46_Node000040_Node000021"><a xlink:title=" ">
<path fill="none" stroke="#63b8ff" d="M1157.82,-238.13C1084.39,-234.66 977.92,-229.64 908.09,-226.35"/>
<polygon fill="#63b8ff" stroke="#63b8ff" points="1157.8,-241.63 1167.95,-238.6 1158.13,-234.64 1157.8,-241.63"/>
</a>
</g>
</g>
<!-- Node41 -->
<g id="Node000041" class="node">
<title>Node41</title>
<g id="a_Node000041"><a xlink:href="_server_8cpp.html#a43e9e764c97aacfc12f233b33ffa3342" target="_top" xlink:title="Sends the response to a client connection.">
<polygon fill="white" stroke="#666666" points="1116.5,-643.5 975.5,-643.5 975.5,-624.5 1116.5,-624.5 1116.5,-643.5"/>
<text text-anchor="middle" x="1046" y="-631.5" font-family="Helvetica,sans-Serif" font-size="10.00">connectionSendResponse</text>
</a>
</g>
</g>
<!-- Node40&#45;&gt;Node41 -->
<g id="edge47_Node000040_Node000041" class="edge">
<title>Node40&#45;&gt;Node41</title>
<g id="a_edge47_Node000040_Node000041"><a xlink:title=" ">
<path fill="none" stroke="#63b8ff" d="M1230.61,-261.07C1196.12,-331.12 1077.13,-572.79 1051.78,-624.3"/>
<polygon fill="#63b8ff" stroke="#63b8ff" points="1233.95,-262.21 1235.23,-251.69 1227.67,-259.12 1233.95,-262.21"/>
</a>
</g>
</g>
<!-- Node41&#45;&gt;Node5 -->
<g id="edge52_Node000041_Node000005" class="edge">
<title>Node41&#45;&gt;Node5</title>
<g id="a_edge52_Node000041_Node000005"><a xlink:title=" ">
<path fill="none" stroke="#63b8ff" d="M1021.08,-619.2C997.42,-605.49 959.69,-586.03 924,-578 782.42,-546.13 609.38,-562.61 525.08,-574.06"/>
<polygon fill="#63b8ff" stroke="#63b8ff" points="1019.33,-622.23 1029.72,-624.32 1022.9,-616.21 1019.33,-622.23"/>
</a>
</g>
</g>
<!-- Node42 -->
<g id="Node000042" class="node">
<title>Node42</title>
<g id="a_Node000042"><a xlink:href="_server_8cpp.html#a9b6964fe44b1605c00c0f211a7f42896" target="_top" xlink:title="Builds the response for a client connection.">
<polygon fill="white" stroke="#666666" points="907,-754.5 765,-754.5 765,-735.5 907,-735.5 907,-754.5"/>
<text text-anchor="middle" x="836" y="-742.5" font-family="Helvetica,sans-Serif" font-size="10.00">connectionBuildResponse</text>
</a>
</g>
</g>
<!-- Node41&#45;&gt;Node42 -->
<g id="edge48_Node000041_Node000042" class="edge">
<title>Node41&#45;&gt;Node42</title>
<g id="a_edge48_Node000041_Node000042"><a xlink:title=" ">
<path fill="none" stroke="#63b8ff" d="M1028.42,-650.46C1006.45,-671.3 965.61,-706.79 924,-726 915.58,-729.89 906.33,-733 897.09,-735.48"/>
<polygon fill="#63b8ff" stroke="#63b8ff" points="1030.86,-652.97 1035.62,-643.51 1026,-647.94 1030.86,-652.97"/>
</a>
</g>
</g>
<!-- Node44 -->
<g id="Node000044" class="node">
<title>Node44</title>
<g id="a_Node000044"><a xlink:href="test__connection_send_response_8cpp.html#a824593e26c42b4efd63e5d15e5bc8cb2" target="_top" xlink:title=" ">
<polygon fill="white" stroke="#666666" points="862,-717.5 810,-717.5 810,-698.5 862,-698.5 862,-717.5"/>
<text text-anchor="middle" x="836" y="-705.5" font-family="Helvetica,sans-Serif" font-size="10.00">TEST_F</text>
</a>
</g>
</g>
<!-- Node41&#45;&gt;Node44 -->
<g id="edge53_Node000041_Node000044" class="edge">
<title>Node41&#45;&gt;Node44</title>
<g id="a_edge53_Node000041_Node000044"><a xlink:title=" ">
<path fill="none" stroke="#63b8ff" d="M1018.14,-648.2C994.05,-660.46 957.44,-677.89 924,-689 903.61,-695.78 879.71,-700.8 862.13,-703.97"/>
<polygon fill="#63b8ff" stroke="#63b8ff" points="1019.75,-651.31 1027.04,-643.63 1016.54,-645.09 1019.75,-651.31"/>
</a>
</g>
</g>
<!-- Node45 -->
<g id="Node000045" class="node">
<title>Node45</title>
<g id="a_Node000045"><a xlink:href="test__connection_send_response_8cpp.html#ae51efb039114ce1ecc536678298e3ac3" target="_top" xlink:title=" ">
<polygon fill="white" stroke="#666666" points="862,-680.5 810,-680.5 810,-661.5 862,-661.5 862,-680.5"/>
<text text-anchor="middle" x="836" y="-668.5" font-family="Helvetica,sans-Serif" font-size="10.00">TEST_F</text>
</a>
</g>
</g>
<!-- Node41&#45;&gt;Node45 -->
<g id="edge54_Node000041_Node000045" class="edge">
<title>Node41&#45;&gt;Node45</title>
<g id="a_edge54_Node000041_Node000045"><a xlink:title=" ">
<path fill="none" stroke="#63b8ff" d="M981.43,-645.31C941.2,-652.46 891.41,-661.32 862.04,-666.55"/>
<polygon fill="#63b8ff" stroke="#63b8ff" points="982.2,-648.73 991.43,-643.53 980.98,-641.83 982.2,-648.73"/>
</a>
</g>
</g>
<!-- Node46 -->
<g id="Node000046" class="node">
<title>Node46</title>
<g id="a_Node000046"><a xlink:href="test__connection_send_response_8cpp.html#a21c07341abaaa0409856bcd3c99f91d8" target="_top" xlink:title=" ">
<polygon fill="white" stroke="#666666" points="862,-643.5 810,-643.5 810,-624.5 862,-624.5 862,-643.5"/>
<text text-anchor="middle" x="836" y="-631.5" font-family="Helvetica,sans-Serif" font-size="10.00">TEST_F</text>
</a>
</g>
</g>
<!-- Node41&#45;&gt;Node46 -->
<g id="edge55_Node000041_Node000046" class="edge">
<title>Node41&#45;&gt;Node46</title>
<g id="a_edge55_Node000041_Node000046"><a xlink:title=" ">
<path fill="none" stroke="#63b8ff" d="M965.23,-634C928.52,-634 887.55,-634 862.02,-634"/>
<polygon fill="#63b8ff" stroke="#63b8ff" points="965.45,-637.5 975.45,-634 965.45,-630.5 965.45,-637.5"/>
</a>
</g>
</g>
<!-- Node47 -->
<g id="Node000047" class="node">
<title>Node47</title>
<g id="a_Node000047"><a xlink:href="test__connection_send_response_8cpp.html#ac0244b587995b8cde69686452c3c41c8" target="_top" xlink:title=" ">
<polygon fill="white" stroke="#666666" points="862,-606.5 810,-606.5 810,-587.5 862,-587.5 862,-606.5"/>
<text text-anchor="middle" x="836" y="-594.5" font-family="Helvetica,sans-Serif" font-size="10.00">TEST_F</text>
</a>
</g>
</g>
<!-- Node41&#45;&gt;Node47 -->
<g id="edge56_Node000041_Node000047" class="edge">
<title>Node41&#45;&gt;Node47</title>
<g id="a_edge56_Node000041_Node000047"><a xlink:title=" ">
<path fill="none" stroke="#63b8ff" d="M981.43,-622.69C941.2,-615.54 891.41,-606.68 862.04,-601.45"/>
<polygon fill="#63b8ff" stroke="#63b8ff" points="980.98,-626.17 991.43,-624.47 982.2,-619.27 980.98,-626.17"/>
</a>
</g>
</g>
<!-- Node42&#45;&gt;Node5 -->
<g id="edge51_Node000042_Node000005" class="edge">
<title>Node42&#45;&gt;Node5</title>
<g id="a_edge51_Node000042_Node000005"><a xlink:title=" ">
<path fill="none" stroke="#63b8ff" d="M756.05,-731.87C753.21,-730.13 750.51,-728.18 748,-726 713.28,-695.84 747.02,-658.81 712,-629 659.88,-584.64 578.03,-577.66 525.2,-578.48"/>
<polygon fill="#63b8ff" stroke="#63b8ff" points="754.47,-734.99 764.96,-736.48 757.69,-728.77 754.47,-734.99"/>
</a>
</g>
</g>
<!-- Node43 -->
<g id="Node000043" class="node">
<title>Node43</title>
<g id="a_Node000043"><a xlink:href="_server_8cpp.html#ad132a77471376bd48681070a795df914" target="_top" xlink:title="Handles a timeout for a client connection.">
<polygon fill="white" stroke="#666666" points="709,-657.5 564,-657.5 564,-638.5 709,-638.5 709,-657.5"/>
<text text-anchor="middle" x="636.5" y="-645.5" font-family="Helvetica,sans-Serif" font-size="10.00">connectionHandleTimeout</text>
</a>
</g>
</g>
<!-- Node42&#45;&gt;Node43 -->
<g id="edge49_Node000042_Node000043" class="edge">
<title>Node42&#45;&gt;Node43</title>
<g id="a_edge49_Node000042_Node000043"><a xlink:title=" ">
<path fill="none" stroke="#63b8ff" d="M756.57,-731.21C753.59,-729.65 750.71,-727.92 748,-726 723.22,-708.49 736.36,-686.09 712,-668 706.09,-663.61 699.28,-660.18 692.23,-657.51"/>
<polygon fill="#63b8ff" stroke="#63b8ff" points="755.26,-734.46 765.81,-735.4 758.15,-728.08 755.26,-734.46"/>
</a>
</g>
</g>
<!-- Node43&#45;&gt;Node5 -->
<g id="edge50_Node000043_Node000005" class="edge">
<title>Node43&#45;&gt;Node5</title>
<g id="a_edge50_Node000043_Node000005"><a xlink:title=" ">
<path fill="none" stroke="#63b8ff" d="M599.67,-634.97C587.36,-630.37 573.53,-625.09 561,-620 538.25,-610.76 512.51,-599.4 494.97,-591.52"/>
<polygon fill="#63b8ff" stroke="#63b8ff" points="598.57,-638.29 609.17,-638.48 601.01,-631.73 598.57,-638.29"/>
</a>
</g>
</g>
</g>
</svg>
