<?xml version="1.0" encoding="UTF-8" standalone="no"?>
<!DOCTYPE svg PUBLIC "-//W3C//DTD SVG 1.1//EN"
 "http://www.w3.org/Graphics/SVG/1.1/DTD/svg11.dtd">
<!-- Generated by graphviz version 2.43.0 (0)
 -->
<!-- Title: Server::registerCGIFileDescriptor Pages: 1 -->
<!--zoomable 528 -->

<svg id="main" version="1.1" xmlns="http://www.w3.org/2000/svg" xmlns:xlink="http://www.w3.org/1999/xlink" xml:space="preserve" onload="init(evt)">
<style type="text/css"><![CDATA[
.node, .edge {opacity: 0.7;}
.node.selected, .edge.selected {opacity: 1;}
.edge:hover path { stroke: red; }
.edge:hover polygon { stroke: red; fill: red; }
]]></style>

<defs>
  <circle id="rim" cx="0" cy="0" r="7"/>
  <circle id="rim2" cx="0" cy="0" r="3.5"/>
  <g id="zoomPlus">
    <use xlink:href="#rim" fill="#404040"><set attributeName="fill" to="#808080" begin="zoomplus.mouseover" end="zoomplus.mouseout"/></use>
    <path d="M-4,0h8M0,-4v8" fill="none" stroke="white" stroke-width="1.5" pointer-events="none"/>
  </g>
  <g id="zoomMin">
    <use xlink:href="#rim" fill="#404040"><set attributeName="fill" to="#808080" begin="zoomminus.mouseover" end="zoomminus.mouseout"/></use>
    <path d="M-4,0h8" fill="none" stroke="white" stroke-width="1.5" pointer-events="none"/>
  </g>
  <g id="arrowUp" transform="translate(30 24)">
    <use xlink:href="#rim"/>
    <path pointer-events="none" fill="none" stroke="white" stroke-width="1.5" d="M0,-3.0v7 M-2.5,-0.5L0,-3.0L2.5,-0.5"/>
  </g>
  <g id="arrowRight" transform="rotate(90) translate(36 -43)">
    <use xlink:href="#rim"/>
    <path pointer-events="none" fill="none" stroke="white" stroke-width="1.5" d="M0,-3.0v7 M-2.5,-0.5L0,-3.0L2.5,-0.5"/>
  </g>
  <g id="arrowDown" transform="rotate(180) translate(-30 -48)">
    <use xlink:href="#rim"/>
    <path pointer-events="none" fill="none" stroke="white" stroke-width="1.5" d="M0,-3.0v7 M-2.5,-0.5L0,-3.0L2.5,-0.5"/>
  </g>
  <g id="arrowLeft" transform="rotate(270) translate(-36 17)">
    <use xlink:href="#rim"/>
    <path pointer-events="none" fill="none" stroke="white" stroke-width="1.5" d="M0,-3.0v7 M-2.5,-0.5L0,-3.0L2.5,-0.5"/>
  </g>
  <g id="resetDef">
    <use xlink:href="#rim2" fill="#404040"><set attributeName="fill" to="#808080" begin="reset.mouseover" end="reset.mouseout"/></use>
  </g>
</defs>
<script type="application/ecmascript">
var viewWidth = 1291;
var viewHeight = 528;
var sectionId = 'dynsection-12';
</script>
<script type="application/ecmascript" xlink:href="svg.min.js"/>
<svg id="graph" class="graph">
<g id="viewport">
<title>Server::registerCGIFileDescriptor</title>
<!-- Node1 -->
<g id="Node000001" class="node">
<title>Node1</title>
<g id="a_Node000001"><a xlink:title="Register a CGI file descriptor.">
<polygon fill="#999999" stroke="#666666" points="1283,-315 1107,-315 1107,-296 1283,-296 1283,-315"/>
<text text-anchor="middle" x="1195" y="-303" font-family="Helvetica,sans-Serif" font-size="10.00">Server::registerCGIFileDescriptor</text>
</a>
</g>
</g>
<!-- Node2 -->
<g id="Node000002" class="node">
<title>Node2</title>
<g id="a_Node000002"><a xlink:href="_server_8cpp.html#a03e6a55f5c946d4fb308f7c1758e1b51" target="_top" xlink:title="Sends the request body to the CGI process.">
<polygon fill="white" stroke="#666666" points="1071,-445 949,-445 949,-426 1071,-426 1071,-445"/>
<text text-anchor="middle" x="1010" y="-433" font-family="Helvetica,sans-Serif" font-size="10.00">connectionSendToCGI</text>
</a>
</g>
</g>
<!-- Node1&#45;&gt;Node2 -->
<g id="edge1_Node000001_Node000002" class="edge">
<title>Node1&#45;&gt;Node2</title>
<g id="a_edge1_Node000001_Node000002"><a xlink:title=" ">
<path fill="none" stroke="#63b8ff" d="M1172.15,-321.02C1133.89,-348.2 1055.83,-403.66 1024.48,-425.93"/>
<polygon fill="#63b8ff" stroke="#63b8ff" points="1174.42,-323.7 1180.54,-315.06 1170.36,-318 1174.42,-323.7"/>
</a>
</g>
</g>
<!-- Node14 -->
<g id="Node000014" class="node">
<title>Node14</title>
<g id="a_Node000014"><a xlink:href="_server_8cpp.html#af0fb17fe53a5e9e72824e5df3fba1322" target="_top" xlink:title="Handles the body of the HTTP request.">
<polygon fill="white" stroke="#666666" points="1047,-315 973,-315 973,-296 1047,-296 1047,-315"/>
<text text-anchor="middle" x="1010" y="-303" font-family="Helvetica,sans-Serif" font-size="10.00">handleBody</text>
</a>
</g>
</g>
<!-- Node1&#45;&gt;Node14 -->
<g id="edge14_Node000001_Node000014" class="edge">
<title>Node1&#45;&gt;Node14</title>
<g id="a_edge14_Node000001_Node000014"><a xlink:title=" ">
<path fill="none" stroke="#63b8ff" d="M1096.45,-305.5C1078.92,-305.5 1061.69,-305.5 1047.35,-305.5"/>
<polygon fill="#63b8ff" stroke="#63b8ff" points="1096.79,-309 1106.79,-305.5 1096.79,-302 1096.79,-309"/>
</a>
</g>
</g>
<!-- Node23 -->
<g id="Node000023" class="node">
<title>Node23</title>
<g id="a_Node000023"><a xlink:href="_server_8cpp.html#a83350eae81b96dd7b301d1238268ffdb" target="_top" xlink:title="Handles the complete request header received from a client.">
<polygon fill="white" stroke="#666666" points="913,-148 741,-148 741,-129 913,-129 913,-148"/>
<text text-anchor="middle" x="827" y="-136" font-family="Helvetica,sans-Serif" font-size="10.00">handleCompleteRequestHeader</text>
</a>
</g>
</g>
<!-- Node1&#45;&gt;Node23 -->
<g id="edge37_Node000001_Node000023" class="edge">
<title>Node1&#45;&gt;Node23</title>
<g id="a_edge37_Node000001_Node000023"><a xlink:title=" ">
<path fill="none" stroke="#63b8ff" d="M1163.54,-291.6C1091.19,-258.59 910.45,-176.12 848.91,-148.04"/>
<polygon fill="#63b8ff" stroke="#63b8ff" points="1162.46,-294.95 1173.01,-295.92 1165.36,-288.59 1162.46,-294.95"/>
</a>
</g>
</g>
<!-- Node3 -->
<g id="Node000003" class="node">
<title>Node3</title>
<g id="a_Node000003"><a xlink:href="_server_8cpp.html#afb62203471d9a64b23d0267d5a4a261a" target="_top" xlink:title="Handle a client connection.">
<polygon fill="white" stroke="#666666" points="525,-501 421,-501 421,-482 525,-482 525,-501"/>
<text text-anchor="middle" x="473" y="-489" font-family="Helvetica,sans-Serif" font-size="10.00">handleConnection</text>
</a>
</g>
</g>
<!-- Node2&#45;&gt;Node3 -->
<g id="edge2_Node000002_Node000003" class="edge">
<title>Node2&#45;&gt;Node3</title>
<g id="a_edge2_Node000002_Node000003"><a xlink:title=" ">
<path fill="none" stroke="#63b8ff" d="M988.61,-451.3C970.04,-464.7 941.28,-483.05 913,-491.5 777.73,-531.93 608.35,-513.85 525.06,-500.77"/>
<polygon fill="#63b8ff" stroke="#63b8ff" points="990.91,-453.96 996.86,-445.19 986.74,-448.33 990.91,-453.96"/>
</a>
</g>
</g>
<!-- Node11 -->
<g id="Node000011" class="node">
<title>Node11</title>
<g id="a_Node000011"><a xlink:href="test__connection_send_to_c_g_i_8cpp.html#a71e710d9b5f2f4a568086e70def06ccc" target="_top" xlink:title=" ">
<polygon fill="white" stroke="#666666" points="853,-482 801,-482 801,-463 853,-463 853,-482"/>
<text text-anchor="middle" x="827" y="-470" font-family="Helvetica,sans-Serif" font-size="10.00">TEST_F</text>
</a>
</g>
</g>
<!-- Node2&#45;&gt;Node11 -->
<g id="edge11_Node000002_Node000011" class="edge">
<title>Node2&#45;&gt;Node11</title>
<g id="a_edge11_Node000002_Node000011"><a xlink:title=" ">
<path fill="none" stroke="#63b8ff" d="M952.3,-447.09C918.98,-453.9 878.51,-462.17 853,-467.39"/>
<polygon fill="#63b8ff" stroke="#63b8ff" points="953.29,-450.46 962.39,-445.03 951.89,-443.6 953.29,-450.46"/>
</a>
</g>
</g>
<!-- Node12 -->
<g id="Node000012" class="node">
<title>Node12</title>
<g id="a_Node000012"><a xlink:href="test__connection_send_to_c_g_i_8cpp.html#ab009e8595170fb19af2600ddd2f4362a" target="_top" xlink:title=" ">
<polygon fill="white" stroke="#666666" points="853,-445 801,-445 801,-426 853,-426 853,-445"/>
<text text-anchor="middle" x="827" y="-433" font-family="Helvetica,sans-Serif" font-size="10.00">TEST_F</text>
</a>
</g>
</g>
<!-- Node2&#45;&gt;Node12 -->
<g id="edge12_Node000002_Node000012" class="edge">
<title>Node2&#45;&gt;Node12</title>
<g id="a_edge12_Node000002_Node000012"><a xlink:title=" ">
<path fill="none" stroke="#63b8ff" d="M938.91,-435.5C908.79,-435.5 875.49,-435.5 853.32,-435.5"/>
<polygon fill="#63b8ff" stroke="#63b8ff" points="938.98,-439 948.98,-435.5 938.98,-432 938.98,-439"/>
</a>
</g>
</g>
<!-- Node13 -->
<g id="Node000013" class="node">
<title>Node13</title>
<g id="a_Node000013"><a xlink:href="test__connection_send_to_c_g_i_8cpp.html#a35214933bd65d5cd26ad10f15604a4b3" target="_top" xlink:title=" ">
<polygon fill="white" stroke="#666666" points="853,-408 801,-408 801,-389 853,-389 853,-408"/>
<text text-anchor="middle" x="827" y="-396" font-family="Helvetica,sans-Serif" font-size="10.00">TEST_F</text>
</a>
</g>
</g>
<!-- Node2&#45;&gt;Node13 -->
<g id="edge13_Node000002_Node000013" class="edge">
<title>Node2&#45;&gt;Node13</title>
<g id="a_edge13_Node000002_Node000013"><a xlink:title=" ">
<path fill="none" stroke="#63b8ff" d="M952.3,-423.91C918.98,-417.1 878.51,-408.83 853,-403.61"/>
<polygon fill="#63b8ff" stroke="#63b8ff" points="951.89,-427.4 962.39,-425.97 953.29,-420.54 951.89,-427.4"/>
</a>
</g>
</g>
<!-- Node4 -->
<g id="Node000004" class="node">
<title>Node4</title>
<g id="a_Node000004"><a xlink:href="_server_8cpp.html#af9f4479a6262c17deef89938118d27f4" target="_top" xlink:title="Accepts new connections or handles existing ones.">
<polygon fill="white" stroke="#666666" points="385,-501 308,-501 308,-482 385,-482 385,-501"/>
<text text-anchor="middle" x="346.5" y="-489" font-family="Helvetica,sans-Serif" font-size="10.00">handleEvent</text>
</a>
</g>
</g>
<!-- Node3&#45;&gt;Node4 -->
<g id="edge3_Node000003_Node000004" class="edge">
<title>Node3&#45;&gt;Node4</title>
<g id="a_edge3_Node000003_Node000004"><a xlink:title=" ">
<path fill="none" stroke="#63b8ff" d="M410.49,-491.5C401.8,-491.5 393.1,-491.5 385.05,-491.5"/>
<polygon fill="#63b8ff" stroke="#63b8ff" points="410.64,-495 420.64,-491.5 410.64,-488 410.64,-495"/>
</a>
</g>
</g>
<!-- Node5 -->
<g id="Node000005" class="node">
<title>Node5</title>
<g id="a_Node000005"><a xlink:href="_server_8cpp.html#ab66b27c2186daacb15a6b13dd43be31b" target="_top" xlink:title="Runs the main event loop with a server object.">
<polygon fill="white" stroke="#666666" points="141,-520 77,-520 77,-501 141,-501 141,-520"/>
<text text-anchor="middle" x="109" y="-508" font-family="Helvetica,sans-Serif" font-size="10.00">runServer</text>
</a>
</g>
</g>
<!-- Node4&#45;&gt;Node5 -->
<g id="edge4_Node000004_Node000005" class="edge">
<title>Node4&#45;&gt;Node5</title>
<g id="a_edge4_Node000004_Node000005"><a xlink:title=" ">
<path fill="none" stroke="#63b8ff" d="M297.73,-495.35C250.95,-499.13 181.04,-504.77 141.05,-507.99"/>
<polygon fill="#63b8ff" stroke="#63b8ff" points="298.24,-498.82 307.92,-494.53 297.67,-491.85 298.24,-498.82"/>
</a>
</g>
</g>
<!-- Node7 -->
<g id="Node000007" class="node">
<title>Node7</title>
<g id="a_Node000007"><a xlink:href="_server_8cpp.html#a115ecd76e344c1007bedc48b9bbdc0fa" target="_top" xlink:title="Performs a graceful shutdown of the server.">
<polygon fill="white" stroke="#666666" points="272,-482 177,-482 177,-463 272,-463 272,-482"/>
<text text-anchor="middle" x="224.5" y="-470" font-family="Helvetica,sans-Serif" font-size="10.00">shutdownServer</text>
</a>
</g>
</g>
<!-- Node4&#45;&gt;Node7 -->
<g id="edge6_Node000004_Node000007" class="edge">
<title>Node4&#45;&gt;Node7</title>
<g id="a_edge6_Node000004_Node000007"><a xlink:title=" ">
<path fill="none" stroke="#63b8ff" d="M297.82,-483.95C289.42,-482.62 280.68,-481.24 272.3,-479.91"/>
<polygon fill="#63b8ff" stroke="#63b8ff" points="297.44,-487.43 307.86,-485.54 298.53,-480.52 297.44,-487.43"/>
</a>
</g>
</g>
<!-- Node6 -->
<g id="Node000006" class="node">
<title>Node6</title>
<g id="a_Node000006"><a xlink:href="main_8cpp.html#ad53223b8779f25caeddb70a3b9172967" target="_top" xlink:title=" ">
<polygon fill="white" stroke="#666666" points="41,-520 0,-520 0,-501 41,-501 41,-520"/>
<text text-anchor="middle" x="20.5" y="-508" font-family="Helvetica,sans-Serif" font-size="10.00">main</text>
</a>
</g>
</g>
<!-- Node5&#45;&gt;Node6 -->
<g id="edge5_Node000005_Node000006" class="edge">
<title>Node5&#45;&gt;Node6</title>
<g id="a_edge5_Node000005_Node000006"><a xlink:title=" ">
<path fill="none" stroke="#63b8ff" d="M66.5,-510.5C57.64,-510.5 48.68,-510.5 41.11,-510.5"/>
<polygon fill="#63b8ff" stroke="#63b8ff" points="66.77,-514 76.77,-510.5 66.77,-507 66.77,-514"/>
</a>
</g>
</g>
<!-- Node7&#45;&gt;Node5 -->
<g id="edge7_Node000007_Node000005" class="edge">
<title>Node7&#45;&gt;Node5</title>
<g id="a_edge7_Node000007_Node000005"><a xlink:title=" ">
<path fill="none" stroke="#63b8ff" d="M185.19,-485.33C169.96,-490.42 152.74,-496.19 138.63,-500.91"/>
<polygon fill="#63b8ff" stroke="#63b8ff" points="186.49,-488.58 194.86,-482.09 184.27,-481.94 186.49,-488.58"/>
</a>
</g>
</g>
<!-- Node8 -->
<g id="Node000008" class="node">
<title>Node8</title>
<g id="a_Node000008"><a xlink:href="test__shutdown_server_8cpp.html#a6462dc91a572c9969b759806ed15590b" target="_top" xlink:title=" ">
<polygon fill="white" stroke="#666666" points="135,-483 83,-483 83,-464 135,-464 135,-483"/>
<text text-anchor="middle" x="109" y="-471" font-family="Helvetica,sans-Serif" font-size="10.00">TEST_F</text>
</a>
</g>
</g>
<!-- Node7&#45;&gt;Node8 -->
<g id="edge8_Node000007_Node000008" class="edge">
<title>Node7&#45;&gt;Node8</title>
<g id="a_edge8_Node000007_Node000008"><a xlink:title=" ">
<path fill="none" stroke="#63b8ff" d="M166.63,-473C155.63,-473.1 144.64,-473.19 135.3,-473.28"/>
<polygon fill="#63b8ff" stroke="#63b8ff" points="166.71,-476.5 176.68,-472.91 166.65,-469.5 166.71,-476.5"/>
</a>
</g>
</g>
<!-- Node9 -->
<g id="Node000009" class="node">
<title>Node9</title>
<g id="a_Node000009"><a xlink:href="test__shutdown_server_8cpp.html#a69fea7b0fb329821fdd955271edc65ee" target="_top" xlink:title=" ">
<polygon fill="white" stroke="#666666" points="135,-446 83,-446 83,-427 135,-427 135,-446"/>
<text text-anchor="middle" x="109" y="-434" font-family="Helvetica,sans-Serif" font-size="10.00">TEST_F</text>
</a>
</g>
</g>
<!-- Node7&#45;&gt;Node9 -->
<g id="edge9_Node000007_Node000009" class="edge">
<title>Node7&#45;&gt;Node9</title>
<g id="a_edge9_Node000007_Node000009"><a xlink:title=" ">
<path fill="none" stroke="#63b8ff" d="M183.67,-459.87C167.58,-454.76 149.49,-449.03 135.26,-444.51"/>
<polygon fill="#63b8ff" stroke="#63b8ff" points="182.79,-463.26 193.38,-462.95 184.91,-456.59 182.79,-463.26"/>
</a>
</g>
</g>
<!-- Node10 -->
<g id="Node000010" class="node">
<title>Node10</title>
<g id="a_Node000010"><a xlink:href="test__shutdown_server_8cpp.html#a224e0b58937c3db439ffeef179620439" target="_top" xlink:title=" ">
<polygon fill="white" stroke="#666666" points="135,-409 83,-409 83,-390 135,-390 135,-409"/>
<text text-anchor="middle" x="109" y="-397" font-family="Helvetica,sans-Serif" font-size="10.00">TEST_F</text>
</a>
</g>
</g>
<!-- Node7&#45;&gt;Node10 -->
<g id="edge10_Node000007_Node000010" class="edge">
<title>Node7&#45;&gt;Node10</title>
<g id="a_edge10_Node000007_Node000010"><a xlink:title=" ">
<path fill="none" stroke="#63b8ff" d="M200.53,-457.2C184.04,-446.29 161.25,-431.33 141,-418.5 136.09,-415.39 130.71,-412.06 125.83,-409.08"/>
<polygon fill="#63b8ff" stroke="#63b8ff" points="198.71,-460.2 208.98,-462.81 202.58,-454.36 198.71,-460.2"/>
</a>
</g>
</g>
<!-- Node15 -->
<g id="Node000015" class="node">
<title>Node15</title>
<g id="a_Node000015"><a xlink:href="_server_8cpp.html#a3e07b970ffa58c9315b38673aff94f84" target="_top" xlink:title="Handles the reception of the request body from a client connection.">
<polygon fill="white" stroke="#666666" points="894,-352 760,-352 760,-333 894,-333 894,-352"/>
<text text-anchor="middle" x="827" y="-340" font-family="Helvetica,sans-Serif" font-size="10.00">connectionReceiveBody</text>
</a>
</g>
</g>
<!-- Node14&#45;&gt;Node15 -->
<g id="edge15_Node000014_Node000015" class="edge">
<title>Node14&#45;&gt;Node15</title>
<g id="a_edge15_Node000014_Node000015"><a xlink:title=" ">
<path fill="none" stroke="#63b8ff" d="M962.84,-314.94C935.85,-320.45 901.88,-327.4 874.79,-332.93"/>
<polygon fill="#63b8ff" stroke="#63b8ff" points="963.71,-318.33 972.81,-312.9 962.31,-311.47 963.71,-318.33"/>
</a>
</g>
</g>
<!-- Node14&#45;&gt;Node23 -->
<g id="edge24_Node000014_Node000023" class="edge">
<title>Node14&#45;&gt;Node23</title>
<g id="a_edge24_Node000014_Node000023"><a xlink:title=" ">
<path fill="none" stroke="#63b8ff" d="M990.83,-288.74C953.32,-254.13 868.32,-175.7 838.54,-148.23"/>
<polygon fill="#63b8ff" stroke="#63b8ff" points="988.76,-291.59 998.49,-295.8 993.51,-286.45 988.76,-291.59"/>
</a>
</g>
</g>
<!-- Node15&#45;&gt;Node3 -->
<g id="edge16_Node000015_Node000003" class="edge">
<title>Node15&#45;&gt;Node3</title>
<g id="a_edge16_Node000015_Node000003"><a xlink:title=" ">
<path fill="none" stroke="#63b8ff" d="M779.31,-355.79C765.56,-361.56 751.42,-369.57 741,-380.5 710.7,-412.27 740.22,-446.28 705,-472.5 651.74,-512.15 571.17,-508.58 520.63,-501.03"/>
<polygon fill="#63b8ff" stroke="#63b8ff" points="780.66,-359.02 788.72,-352.14 778.13,-352.49 780.66,-359.02"/>
</a>
</g>
</g>
<!-- Node16 -->
<g id="Node000016" class="node">
<title>Node16</title>
<g id="a_Node000016"><a xlink:href="test__connection_receive_body_8cpp.html#a19ac3fc035f7139c0a794d3020c4640b" target="_top" xlink:title=" ">
<polygon fill="white" stroke="#666666" points="659,-463 607,-463 607,-444 659,-444 659,-463"/>
<text text-anchor="middle" x="633" y="-451" font-family="Helvetica,sans-Serif" font-size="10.00">TEST_F</text>
</a>
</g>
</g>
<!-- Node15&#45;&gt;Node16 -->
<g id="edge17_Node000015_Node000016" class="edge">
<title>Node15&#45;&gt;Node16</title>
<g id="a_edge17_Node000015_Node000016"><a xlink:title=" ">
<path fill="none" stroke="#63b8ff" d="M784.23,-355.65C769.5,-361.65 753.51,-369.83 741,-380.5 718.76,-399.45 728.78,-418.53 705,-435.5 691.65,-445.03 673.72,-449.52 659.22,-451.64"/>
<polygon fill="#63b8ff" stroke="#63b8ff" points="785.6,-358.87 793.68,-352.02 783.09,-352.34 785.6,-358.87"/>
</a>
</g>
</g>
<!-- Node17 -->
<g id="Node000017" class="node">
<title>Node17</title>
<g id="a_Node000017"><a xlink:href="test__connection_receive_body_8cpp.html#a259717d7651caed4350409cf61f62243" target="_top" xlink:title=" ">
<polygon fill="white" stroke="#666666" points="659,-426 607,-426 607,-407 659,-407 659,-426"/>
<text text-anchor="middle" x="633" y="-414" font-family="Helvetica,sans-Serif" font-size="10.00">TEST_F</text>
</a>
</g>
</g>
<!-- Node15&#45;&gt;Node17 -->
<g id="edge18_Node000015_Node000017" class="edge">
<title>Node15&#45;&gt;Node17</title>
<g id="a_edge18_Node000015_Node000017"><a xlink:title=" ">
<path fill="none" stroke="#63b8ff" d="M794.4,-356.24C778.33,-363.32 758.54,-372.2 741,-380.5 724.83,-388.15 721.77,-392.27 705,-398.5 690.1,-404.04 672.82,-408.46 659.04,-411.54"/>
<polygon fill="#63b8ff" stroke="#63b8ff" points="796.12,-359.31 803.87,-352.08 793.3,-352.9 796.12,-359.31"/>
</a>
</g>
</g>
<!-- Node18 -->
<g id="Node000018" class="node">
<title>Node18</title>
<g id="a_Node000018"><a xlink:href="test__connection_receive_body_8cpp.html#a19183545ff74155359c15797de32a79d" target="_top" xlink:title=" ">
<polygon fill="white" stroke="#666666" points="659,-389 607,-389 607,-370 659,-370 659,-389"/>
<text text-anchor="middle" x="633" y="-377" font-family="Helvetica,sans-Serif" font-size="10.00">TEST_F</text>
</a>
</g>
</g>
<!-- Node15&#45;&gt;Node18 -->
<g id="edge19_Node000015_Node000018" class="edge">
<title>Node15&#45;&gt;Node18</title>
<g id="a_edge19_Node000015_Node000018"><a xlink:title=" ">
<path fill="none" stroke="#63b8ff" d="M766.62,-353.94C730.54,-360.9 686.35,-369.41 659.19,-374.65"/>
<polygon fill="#63b8ff" stroke="#63b8ff" points="767.4,-357.36 776.56,-352.03 766.07,-350.48 767.4,-357.36"/>
</a>
</g>
</g>
<!-- Node19 -->
<g id="Node000019" class="node">
<title>Node19</title>
<g id="a_Node000019"><a xlink:href="test__connection_receive_body_8cpp.html#a1cd9ca5899d66b74d95a445988fc3ae5" target="_top" xlink:title=" ">
<polygon fill="white" stroke="#666666" points="659,-352 607,-352 607,-333 659,-333 659,-352"/>
<text text-anchor="middle" x="633" y="-340" font-family="Helvetica,sans-Serif" font-size="10.00">TEST_F</text>
</a>
</g>
</g>
<!-- Node15&#45;&gt;Node19 -->
<g id="edge20_Node000015_Node000019" class="edge">
<title>Node15&#45;&gt;Node19</title>
<g id="a_edge20_Node000015_Node000019"><a xlink:title=" ">
<path fill="none" stroke="#63b8ff" d="M749.61,-342.5C717.44,-342.5 682.21,-342.5 659.2,-342.5"/>
<polygon fill="#63b8ff" stroke="#63b8ff" points="749.92,-346 759.92,-342.5 749.92,-339 749.92,-346"/>
</a>
</g>
</g>
<!-- Node20 -->
<g id="Node000020" class="node">
<title>Node20</title>
<g id="a_Node000020"><a xlink:href="test__connection_receive_body_8cpp.html#aeb1a084ca7014c09a2d15604dbfbe356" target="_top" xlink:title=" ">
<polygon fill="white" stroke="#666666" points="659,-315 607,-315 607,-296 659,-296 659,-315"/>
<text text-anchor="middle" x="633" y="-303" font-family="Helvetica,sans-Serif" font-size="10.00">TEST_F</text>
</a>
</g>
</g>
<!-- Node15&#45;&gt;Node20 -->
<g id="edge21_Node000015_Node000020" class="edge">
<title>Node15&#45;&gt;Node20</title>
<g id="a_edge21_Node000015_Node000020"><a xlink:title=" ">
<path fill="none" stroke="#63b8ff" d="M766.62,-331.06C730.54,-324.1 686.35,-315.59 659.19,-310.35"/>
<polygon fill="#63b8ff" stroke="#63b8ff" points="766.07,-334.52 776.56,-332.97 767.4,-327.64 766.07,-334.52"/>
</a>
</g>
</g>
<!-- Node21 -->
<g id="Node000021" class="node">
<title>Node21</title>
<g id="a_Node000021"><a xlink:href="test__connection_receive_body_8cpp.html#ac0f2278a66a910e48d914cc1e35d495a" target="_top" xlink:title=" ">
<polygon fill="white" stroke="#666666" points="659,-278 607,-278 607,-259 659,-259 659,-278"/>
<text text-anchor="middle" x="633" y="-266" font-family="Helvetica,sans-Serif" font-size="10.00">TEST_F</text>
</a>
</g>
</g>
<!-- Node15&#45;&gt;Node21 -->
<g id="edge22_Node000015_Node000021" class="edge">
<title>Node15&#45;&gt;Node21</title>
<g id="a_edge22_Node000015_Node000021"><a xlink:title=" ">
<path fill="none" stroke="#63b8ff" d="M798.59,-328.46C774.41,-316.47 737.98,-299.32 705,-287.5 690.1,-282.16 672.98,-277.54 659.28,-274.19"/>
<polygon fill="#63b8ff" stroke="#63b8ff" points="797.03,-331.6 807.53,-332.95 800.16,-325.34 797.03,-331.6"/>
</a>
</g>
</g>
<!-- Node22 -->
<g id="Node000022" class="node">
<title>Node22</title>
<g id="a_Node000022"><a xlink:href="test__connection_receive_body_8cpp.html#af70bae422af1c7fcc57ebf91961941c0" target="_top" xlink:title=" ">
<polygon fill="white" stroke="#666666" points="659,-241 607,-241 607,-222 659,-222 659,-241"/>
<text text-anchor="middle" x="633" y="-229" font-family="Helvetica,sans-Serif" font-size="10.00">TEST_F</text>
</a>
</g>
</g>
<!-- Node15&#45;&gt;Node22 -->
<g id="edge23_Node000015_Node000022" class="edge">
<title>Node15&#45;&gt;Node22</title>
<g id="a_edge23_Node000015_Node000022"><a xlink:title=" ">
<path fill="none" stroke="#63b8ff" d="M808.93,-326.02C786.74,-305.46 745.94,-270.57 705,-250.5 690.56,-243.42 673.14,-238.71 659.16,-235.75"/>
<polygon fill="#63b8ff" stroke="#63b8ff" points="806.55,-328.59 816.24,-332.89 811.35,-323.49 806.55,-328.59"/>
</a>
</g>
</g>
<!-- Node24 -->
<g id="Node000024" class="node">
<title>Node24</title>
<g id="a_Node000024"><a xlink:href="_server_8cpp.html#aa45d6529fd7be9b7adf788a9679ae34b" target="_top" xlink:title="Receive request header from a client.">
<polygon fill="white" stroke="#666666" points="705,-204 561,-204 561,-185 705,-185 705,-204"/>
<text text-anchor="middle" x="633" y="-192" font-family="Helvetica,sans-Serif" font-size="10.00">connectionReceiveHeader</text>
</a>
</g>
</g>
<!-- Node23&#45;&gt;Node24 -->
<g id="edge25_Node000023_Node000024" class="edge">
<title>Node23&#45;&gt;Node24</title>
<g id="a_edge25_Node000023_Node000024"><a xlink:title=" ">
<path fill="none" stroke="#63b8ff" d="M787.61,-151.16C763.9,-158.83 732.8,-168.62 705,-176.5 694.72,-179.41 683.55,-182.35 673.17,-184.99"/>
<polygon fill="#63b8ff" stroke="#63b8ff" points="788.86,-154.44 797.29,-148.02 786.7,-147.78 788.86,-154.44"/>
</a>
</g>
</g>
<!-- Node30 -->
<g id="Node000030" class="node">
<title>Node30</title>
<g id="a_Node000030"><a xlink:href="test__handle_complete_request_header_8cpp.html#a04308ae6ca27d5aac2ee1ae95e818f78" target="_top" xlink:title=" ">
<polygon fill="white" stroke="#666666" points="659,-167 607,-167 607,-148 659,-148 659,-167"/>
<text text-anchor="middle" x="633" y="-155" font-family="Helvetica,sans-Serif" font-size="10.00">TEST_F</text>
</a>
</g>
</g>
<!-- Node23&#45;&gt;Node30 -->
<g id="edge32_Node000023_Node000030" class="edge">
<title>Node23&#45;&gt;Node30</title>
<g id="a_edge32_Node000023_Node000030"><a xlink:title=" ">
<path fill="none" stroke="#63b8ff" d="M730.82,-147.92C704.34,-150.54 677.78,-153.17 659.19,-155.01"/>
<polygon fill="#63b8ff" stroke="#63b8ff" points="731.34,-151.38 740.95,-146.92 730.65,-144.42 731.34,-151.38"/>
</a>
</g>
</g>
<!-- Node31 -->
<g id="Node000031" class="node">
<title>Node31</title>
<g id="a_Node000031"><a xlink:href="test__handle_complete_request_header_8cpp.html#a00d3c07453ceb8ca6576a951222a7829" target="_top" xlink:title=" ">
<polygon fill="white" stroke="#666666" points="659,-130 607,-130 607,-111 659,-111 659,-130"/>
<text text-anchor="middle" x="633" y="-118" font-family="Helvetica,sans-Serif" font-size="10.00">TEST_F</text>
</a>
</g>
</g>
<!-- Node23&#45;&gt;Node31 -->
<g id="edge33_Node000023_Node000031" class="edge">
<title>Node23&#45;&gt;Node31</title>
<g id="a_edge33_Node000023_Node000031"><a xlink:title=" ">
<path fill="none" stroke="#63b8ff" d="M730.82,-129.58C704.34,-127.09 677.78,-124.6 659.19,-122.86"/>
<polygon fill="#63b8ff" stroke="#63b8ff" points="730.66,-133.08 740.95,-130.53 731.32,-126.11 730.66,-133.08"/>
</a>
</g>
</g>
<!-- Node32 -->
<g id="Node000032" class="node">
<title>Node32</title>
<g id="a_Node000032"><a xlink:href="test__handle_complete_request_header_8cpp.html#a5705d4672adfefa8169bd3e9406e75f6" target="_top" xlink:title=" ">
<polygon fill="white" stroke="#666666" points="659,-93 607,-93 607,-74 659,-74 659,-93"/>
<text text-anchor="middle" x="633" y="-81" font-family="Helvetica,sans-Serif" font-size="10.00">TEST_F</text>
</a>
</g>
</g>
<!-- Node23&#45;&gt;Node32 -->
<g id="edge34_Node000023_Node000032" class="edge">
<title>Node23&#45;&gt;Node32</title>
<g id="a_edge34_Node000023_Node000032"><a xlink:title=" ">
<path fill="none" stroke="#63b8ff" d="M786.63,-125.93C763.04,-118.54 732.4,-109.16 705,-101.5 689.81,-97.26 672.68,-92.9 659.05,-89.54"/>
<polygon fill="#63b8ff" stroke="#63b8ff" points="785.69,-129.31 796.28,-128.97 787.8,-122.63 785.69,-129.31"/>
</a>
</g>
</g>
<!-- Node33 -->
<g id="Node000033" class="node">
<title>Node33</title>
<g id="a_Node000033"><a xlink:href="test__handle_complete_request_header_8cpp.html#a63c4237c8b0edef77a20f599133d77d4" target="_top" xlink:title=" ">
<polygon fill="white" stroke="#666666" points="659,-56 607,-56 607,-37 659,-37 659,-56"/>
<text text-anchor="middle" x="633" y="-44" font-family="Helvetica,sans-Serif" font-size="10.00">TEST_F</text>
</a>
</g>
</g>
<!-- Node23&#45;&gt;Node33 -->
<g id="edge35_Node000023_Node000033" class="edge">
<title>Node23&#45;&gt;Node33</title>
<g id="a_edge35_Node000023_Node000033"><a xlink:title=" ">
<path fill="none" stroke="#63b8ff" d="M805.17,-123.05C781.85,-106.43 742.43,-80.26 705,-64.5 690.35,-58.33 673.08,-53.89 659.24,-50.97"/>
<polygon fill="#63b8ff" stroke="#63b8ff" points="803.12,-125.89 813.27,-128.91 807.22,-120.22 803.12,-125.89"/>
</a>
</g>
</g>
<!-- Node34 -->
<g id="Node000034" class="node">
<title>Node34</title>
<g id="a_Node000034"><a xlink:href="test__handle_complete_request_header_8cpp.html#a7e6245bb424d27191d406b619a2fe40b" target="_top" xlink:title=" ">
<polygon fill="white" stroke="#666666" points="659,-19 607,-19 607,0 659,0 659,-19"/>
<text text-anchor="middle" x="633" y="-7" font-family="Helvetica,sans-Serif" font-size="10.00">TEST_F</text>
</a>
</g>
</g>
<!-- Node23&#45;&gt;Node34 -->
<g id="edge36_Node000023_Node000034" class="edge">
<title>Node23&#45;&gt;Node34</title>
<g id="a_edge36_Node000023_Node000034"><a xlink:title=" ">
<path fill="none" stroke="#63b8ff" d="M811.9,-120.96C791.12,-96.31 749.87,-51.74 705,-27.5 690.79,-19.82 673.21,-15.33 659.09,-12.76"/>
<polygon fill="#63b8ff" stroke="#63b8ff" points="809.29,-123.3 818.36,-128.78 814.69,-118.84 809.29,-123.3"/>
</a>
</g>
</g>
<!-- Node24&#45;&gt;Node3 -->
<g id="edge26_Node000024_Node000003" class="edge">
<title>Node24&#45;&gt;Node3</title>
<g id="a_edge26_Node000024_Node000003"><a xlink:title=" ">
<path fill="none" stroke="#63b8ff" d="M566.26,-209.14C564.41,-210.47 562.65,-211.92 561,-213.5 540.38,-233.28 488.36,-434.8 476.45,-481.76"/>
<polygon fill="#63b8ff" stroke="#63b8ff" points="568.09,-212.12 574.91,-204.01 564.52,-206.1 568.09,-212.12"/>
</a>
</g>
</g>
<!-- Node25 -->
<g id="Node000025" class="node">
<title>Node25</title>
<g id="a_Node000025"><a xlink:href="test__connection_receive_header_8cpp.html#ae40546436ca5ae6d8af1f754dfff4a98" target="_top" xlink:title=" ">
<polygon fill="white" stroke="#666666" points="499,-278 447,-278 447,-259 499,-259 499,-278"/>
<text text-anchor="middle" x="473" y="-266" font-family="Helvetica,sans-Serif" font-size="10.00">TEST_F</text>
</a>
</g>
</g>
<!-- Node24&#45;&gt;Node25 -->
<g id="edge27_Node000024_Node000025" class="edge">
<title>Node24&#45;&gt;Node25</title>
<g id="a_edge27_Node000024_Node000025"><a xlink:title=" ">
<path fill="none" stroke="#63b8ff" d="M572.78,-207.67C568.68,-209.39 564.72,-211.32 561,-213.5 541.21,-225.1 544.33,-238.13 525,-250.5 517.17,-255.51 507.77,-259.34 499.18,-262.15"/>
<polygon fill="#63b8ff" stroke="#63b8ff" points="574.34,-210.82 582.49,-204.05 571.89,-204.27 574.34,-210.82"/>
</a>
</g>
</g>
<!-- Node26 -->
<g id="Node000026" class="node">
<title>Node26</title>
<g id="a_Node000026"><a xlink:href="test__connection_receive_header_8cpp.html#a0952222a64d85993a5b3d9022826859c" target="_top" xlink:title=" ">
<polygon fill="white" stroke="#666666" points="499,-241 447,-241 447,-222 499,-222 499,-241"/>
<text text-anchor="middle" x="473" y="-229" font-family="Helvetica,sans-Serif" font-size="10.00">TEST_F</text>
</a>
</g>
</g>
<!-- Node24&#45;&gt;Node26 -->
<g id="edge28_Node000024_Node000026" class="edge">
<title>Node24&#45;&gt;Node26</title>
<g id="a_edge28_Node000024_Node000026"><a xlink:title=" ">
<path fill="none" stroke="#63b8ff" d="M581.47,-206.33C554.04,-212.76 521.31,-220.42 499.24,-225.59"/>
<polygon fill="#63b8ff" stroke="#63b8ff" points="582.37,-209.72 591.31,-204.03 580.78,-202.9 582.37,-209.72"/>
</a>
</g>
</g>
<!-- Node27 -->
<g id="Node000027" class="node">
<title>Node27</title>
<g id="a_Node000027"><a xlink:href="test__connection_receive_header_8cpp.html#a492a1135a23e13de8b412f266f5422dd" target="_top" xlink:title=" ">
<polygon fill="white" stroke="#666666" points="499,-204 447,-204 447,-185 499,-185 499,-204"/>
<text text-anchor="middle" x="473" y="-192" font-family="Helvetica,sans-Serif" font-size="10.00">TEST_F</text>
</a>
</g>
</g>
<!-- Node24&#45;&gt;Node27 -->
<g id="edge29_Node000024_Node000027" class="edge">
<title>Node24&#45;&gt;Node27</title>
<g id="a_edge29_Node000024_Node000027"><a xlink:title=" ">
<path fill="none" stroke="#63b8ff" d="M550.72,-194.5C531.89,-194.5 513.25,-194.5 499.05,-194.5"/>
<polygon fill="#63b8ff" stroke="#63b8ff" points="550.86,-198 560.86,-194.5 550.86,-191 550.86,-198"/>
</a>
</g>
</g>
<!-- Node28 -->
<g id="Node000028" class="node">
<title>Node28</title>
<g id="a_Node000028"><a xlink:href="test__connection_receive_header_8cpp.html#a42aad638a3786700de9108d63bbba850" target="_top" xlink:title=" ">
<polygon fill="white" stroke="#666666" points="499,-167 447,-167 447,-148 499,-148 499,-167"/>
<text text-anchor="middle" x="473" y="-155" font-family="Helvetica,sans-Serif" font-size="10.00">TEST_F</text>
</a>
</g>
</g>
<!-- Node24&#45;&gt;Node28 -->
<g id="edge30_Node000024_Node000028" class="edge">
<title>Node24&#45;&gt;Node28</title>
<g id="a_edge30_Node000024_Node000028"><a xlink:title=" ">
<path fill="none" stroke="#63b8ff" d="M581.47,-182.67C554.04,-176.24 521.31,-168.58 499.24,-163.41"/>
<polygon fill="#63b8ff" stroke="#63b8ff" points="580.78,-186.1 591.31,-184.97 582.37,-179.28 580.78,-186.1"/>
</a>
</g>
</g>
<!-- Node29 -->
<g id="Node000029" class="node">
<title>Node29</title>
<g id="a_Node000029"><a xlink:href="test__connection_receive_header_8cpp.html#aa34cc8553c29e19d06c302699e916a3e" target="_top" xlink:title=" ">
<polygon fill="white" stroke="#666666" points="499,-130 447,-130 447,-111 499,-111 499,-130"/>
<text text-anchor="middle" x="473" y="-118" font-family="Helvetica,sans-Serif" font-size="10.00">TEST_F</text>
</a>
</g>
</g>
<!-- Node24&#45;&gt;Node29 -->
<g id="edge31_Node000024_Node000029" class="edge">
<title>Node24&#45;&gt;Node29</title>
<g id="a_edge31_Node000024_Node000029"><a xlink:title=" ">
<path fill="none" stroke="#63b8ff" d="M570.64,-181.31C567.31,-179.87 564.07,-178.27 561,-176.5 541.13,-165.03 544.22,-152.03 525,-139.5 517.16,-134.39 507.76,-130.39 499.18,-127.41"/>
<polygon fill="#63b8ff" stroke="#63b8ff" points="569.66,-184.68 580.25,-184.98 572.16,-178.14 569.66,-184.68"/>
</a>
</g>
</g>
</g>
</svg>

<g id="navigator" transform="translate(0 0)" fill="#404254">
  <rect fill="#f2f5e9" fill-opacity="0.5" stroke="#606060" stroke-width=".5" x="0" y="0" width="60" height="60"/>
  <use id="zoomplus" xlink:href="#zoomPlus" x="17" y="9" onmousedown="handleZoom(evt,'in')"/>
  <use id="zoomminus" xlink:href="#zoomMin" x="42" y="9" onmousedown="handleZoom(evt,'out')"/>
  <use id="reset" xlink:href="#resetDef" x="30" y="36" onmousedown="handleReset()"/>
   <use id="arrowup" xlink:href="#arrowUp" x="0" y="0" onmousedown="handlePan(0,-1)"/>
  <use id="arrowright" xlink:href="#arrowRight" x="0" y="0" onmousedown="handlePan(1,0)"/>
  <use id="arrowdown" xlink:href="#arrowDown" x="0" y="0" onmousedown="handlePan(0,1)"/>
  <use id="arrowleft" xlink:href="#arrowLeft" x="0" y="0" onmousedown="handlePan(-1,0)"/>
</g>
<svg viewBox="0 0 15 15" width="100%" height="30px" preserveAspectRatio="xMaxYMin meet">
 <g id="arrow_out" transform="scale(0.3 0.3)">
  <a xlink:href="class_server_abcfb45414689863da69c2e72ac8fc946_icgraph_org.svg" target="_base">
   <rect id="button" ry="5" rx="5" y="6" x="6" height="38" width="38"
        fill="#f2f5e9" fill-opacity="0.5" stroke="#606060" stroke-width="1.0"/>
   <path id="arrow"
     d="M 11.500037,31.436501 C 11.940474,20.09759 22.043105,11.32322 32.158766,21.979434 L 37.068811,17.246167 C 37.068811,17.246167 37.088388,32 37.088388,32 L 22.160133,31.978069 C 22.160133,31.978069 26.997745,27.140456 26.997745,27.140456 C 18.528582,18.264221 13.291696,25.230495 11.500037,31.436501 z"
     style="fill:#404040;"/>
  </a>
 </g>
</svg>

<style type='text/css'>
<![CDATA[
[data-mouse-over-selected='false'] { opacity: 0.7; }
[data-mouse-over-selected='true']  { opacity: 1.0; }
]]>
</style>
<script type="application/ecmascript"><![CDATA[
document.addEventListener('DOMContentLoaded', (event) => {
  highlightEdges();
  highlightAdjacentNodes();
});
]]></script>
</svg>
