<?xml version="1.0" encoding="UTF-8" standalone="no"?>
<!DOCTYPE svg PUBLIC "-//W3C//DTD SVG 1.1//EN"
 "http://www.w3.org/Graphics/SVG/1.1/DTD/svg11.dtd">
<!-- Generated by graphviz version 2.43.0 (0)
 -->
<!-- Title: RequestParser::resetRequestStream Pages: 1 -->
<!--zoomable 123 -->
<svg id="main" version="1.1" xmlns="http://www.w3.org/2000/svg" xmlns:xlink="http://www.w3.org/1999/xlink" xml:space="preserve" onload="init(evt)">
<style type="text/css"><![CDATA[
.edge:hover path { stroke: red; }
.edge:hover polygon { stroke: red; fill: red; }
]]></style>
<script type="text/javascript"><![CDATA[
var edges = document.getElementsByTagName('g');
if (edges && edges.length) {
  for (var i=0;i<edges.length;i++) {
    if (edges[i].id.substr(0,4)=='edge') {
      edges[i].setAttribute('class','edge');
    }
  }
}
]]></script>
        <defs>
                <circle id="rim" cx="0" cy="0" r="7"/>
                <circle id="rim2" cx="0" cy="0" r="3.5"/>
                <g id="zoomPlus">
                        <use xlink:href="#rim" fill="#404040">
                                <set attributeName="fill" to="#808080" begin="zoomplus.mouseover" end="zoomplus.mouseout"/>
                        </use>
                        <path d="M-4,0h8M0,-4v8" fill="none" stroke="white" stroke-width="1.5" pointer-events="none"/>
                </g>
                <g id="zoomMin">
                        <use xlink:href="#rim" fill="#404040">
                                <set attributeName="fill" to="#808080" begin="zoomminus.mouseover" end="zoomminus.mouseout"/>
                        </use>
                        <path d="M-4,0h8" fill="none" stroke="white" stroke-width="1.5" pointer-events="none"/>
                </g>
                <g id="dirArrow">
                        <path fill="none" stroke="white" stroke-width="1.5" d="M0,-3.0v7 M-2.5,-0.5L0,-3.0L2.5,-0.5"/>
                </g>
               <g id="resetDef">
                       <use xlink:href="#rim2" fill="#404040">
                               <set attributeName="fill" to="#808080" begin="reset.mouseover" end="reset.mouseout"/>
                       </use>
               </g>
        </defs>

<script type="text/javascript">
var viewWidth = 1457;
var viewHeight = 123;
var sectionId = 'dynsection-4';
</script>
<script xlink:href="svgpan.js"/>
<svg id="graph" class="graph">
<g id="viewport">
<title>RequestParser::resetRequestStream</title>
<!-- Node1 -->
<g id="node1" class="node">
<title>Node1</title>
<g id="a_node1"><a xlink:title="Clears the contents of the RequestParser object.">
<polygon fill="#bfbfbf" stroke="black" points="1292,-33 1292,-63 1449,-63 1449,-33 1292,-33"/>
<text text-anchor="start" x="1300" y="-51" font-family="Helvetica,sans-Serif" font-size="10.00">RequestParser::resetRequest</text>
<text text-anchor="middle" x="1370.5" y="-40" font-family="Helvetica,sans-Serif" font-size="10.00">Stream</text>
</a>
</g>
</g>
<!-- Node2 -->
<g id="node2" class="node">
<title>Node2</title>
<g id="a_node2"><a xlink:href="class_request_parser.html#a5111f16124d227775d963e6ca24ddca0" target="_top" xlink:title="Parses the body of an HTTP request.">
<polygon fill="none" stroke="black" points="1106.5,-76.5 1106.5,-95.5 1250.5,-95.5 1250.5,-76.5 1106.5,-76.5"/>
<text text-anchor="middle" x="1178.5" y="-83.5" font-family="Helvetica,sans-Serif" font-size="10.00">RequestParser::parseBody</text>
</a>
</g>
</g>
<!-- Node1&#45;&gt;Node2 -->
<g id="edge1" class="edge">
<title>Node1&#45;&gt;Node2</title>
<path fill="none" stroke="midnightblue" d="M1284.47,-65.01C1264.75,-68.95 1244.44,-73.01 1227,-76.5"/>
<polygon fill="midnightblue" stroke="midnightblue" points="1285.29,-68.41 1294.41,-63.02 1283.91,-61.55 1285.29,-68.41"/>
</g>
<!-- Node11 -->
<g id="node11" class="node">
<title>Node11</title>
<g id="a_node11"><a xlink:href="class_request_parser.html#a933b43673d0b7b99d6cc310f5c03a865" target="_top" xlink:title="Parses the header of an HTTP request.">
<polygon fill="none" stroke="black" points="1101,-38.5 1101,-57.5 1256,-57.5 1256,-38.5 1101,-38.5"/>
<text text-anchor="middle" x="1178.5" y="-45.5" font-family="Helvetica,sans-Serif" font-size="10.00">RequestParser::parseHeader</text>
</a>
</g>
</g>
<!-- Node1&#45;&gt;Node11 -->
<g id="edge11" class="edge">
<title>Node1&#45;&gt;Node11</title>
<path fill="none" stroke="midnightblue" d="M1281.92,-48C1273.33,-48 1264.66,-48 1256.19,-48"/>
<polygon fill="midnightblue" stroke="midnightblue" points="1281.95,-51.5 1291.95,-48 1281.95,-44.5 1281.95,-51.5"/>
</g>
<!-- Node16 -->
<g id="node16" class="node">
<title>Node16</title>
<g id="a_node16"><a xlink:href="class_server.html#a99dea29de3836364c5191afe48f11ded" target="_top" xlink:title="Wrapper function to RequestParser::clearParser.">
<polygon fill="none" stroke="black" points="1101.5,-0.5 1101.5,-19.5 1255.5,-19.5 1255.5,-0.5 1101.5,-0.5"/>
<text text-anchor="middle" x="1178.5" y="-7.5" font-family="Helvetica,sans-Serif" font-size="10.00">Server::resetRequestStream</text>
</a>
</g>
</g>
<!-- Node1&#45;&gt;Node16 -->
<g id="edge17" class="edge">
<title>Node1&#45;&gt;Node16</title>
<path fill="none" stroke="midnightblue" d="M1284.47,-30.99C1264.75,-27.05 1244.44,-22.99 1227,-19.5"/>
<polygon fill="midnightblue" stroke="midnightblue" points="1283.91,-34.45 1294.41,-32.98 1285.29,-27.59 1283.91,-34.45"/>
</g>
<!-- Node3 -->
<g id="node3" class="node">
<title>Node3</title>
<g id="a_node3"><a xlink:href="class_server.html#ace46f4e07ab67db60e3790a32b2e8e0a" target="_top" xlink:title="Wrapper function to RequestParser::parseBody.">
<polygon fill="none" stroke="black" points="954,-76.5 954,-95.5 1060,-95.5 1060,-76.5 954,-76.5"/>
<text text-anchor="middle" x="1007" y="-83.5" font-family="Helvetica,sans-Serif" font-size="10.00">Server::parseBody</text>
</a>
</g>
</g>
<!-- Node2&#45;&gt;Node3 -->
<g id="edge2" class="edge">
<title>Node2&#45;&gt;Node3</title>
<path fill="none" stroke="midnightblue" d="M1095.95,-86C1083.81,-86 1071.57,-86 1060.25,-86"/>
<polygon fill="midnightblue" stroke="midnightblue" points="1096.11,-89.5 1106.11,-86 1096.11,-82.5 1096.11,-89.5"/>
</g>
<!-- Node4 -->
<g id="node4" class="node">
<title>Node4</title>
<g id="a_node4"><a xlink:href="_server_8hpp.html#a3f930db051b00ade521e2633cee948bd" target="_top" xlink:title="Receives the body of a connection.">
<polygon fill="none" stroke="black" points="566,-76.5 566,-95.5 700,-95.5 700,-76.5 566,-76.5"/>
<text text-anchor="middle" x="633" y="-83.5" font-family="Helvetica,sans-Serif" font-size="10.00">connectionReceiveBody</text>
</a>
</g>
</g>
<!-- Node3&#45;&gt;Node4 -->
<g id="edge3" class="edge">
<title>Node3&#45;&gt;Node4</title>
<path fill="none" stroke="midnightblue" d="M943.82,-86C876.39,-86 769.16,-86 700.19,-86"/>
<polygon fill="midnightblue" stroke="midnightblue" points="943.88,-89.5 953.88,-86 943.88,-82.5 943.88,-89.5"/>
</g>
<!-- Node5 -->
<g id="node5" class="node">
<title>Node5</title>
<g id="a_node5"><a xlink:href="_server_8hpp.html#ac74673700d26f829e84f0b5011c35c94" target="_top" xlink:title="Handle a client connection.">
<polygon fill="none" stroke="black" points="421,-76.5 421,-95.5 525,-95.5 525,-76.5 421,-76.5"/>
<text text-anchor="middle" x="473" y="-83.5" font-family="Helvetica,sans-Serif" font-size="10.00">handleConnection</text>
</a>
</g>
</g>
<!-- Node4&#45;&gt;Node5 -->
<g id="edge4" class="edge">
<title>Node4&#45;&gt;Node5</title>
<path fill="none" stroke="midnightblue" d="M555.69,-86C545.42,-86 535.1,-86 525.41,-86"/>
<polygon fill="midnightblue" stroke="midnightblue" points="555.91,-89.5 565.91,-86 555.91,-82.5 555.91,-89.5"/>
</g>
<!-- Node6 -->
<g id="node6" class="node">
<title>Node6</title>
<g id="a_node6"><a xlink:href="_server_8hpp.html#a4211c4d6b958979b39b3dfc8148c801a" target="_top" xlink:title="Accepts new connections or handles existing ones.">
<polygon fill="none" stroke="black" points="308,-76.5 308,-95.5 385,-95.5 385,-76.5 308,-76.5"/>
<text text-anchor="middle" x="346.5" y="-83.5" font-family="Helvetica,sans-Serif" font-size="10.00">handleEvent</text>
</a>
</g>
</g>
<!-- Node5&#45;&gt;Node6 -->
<g id="edge5" class="edge">
<title>Node5&#45;&gt;Node6</title>
<path fill="none" stroke="midnightblue" d="M410.49,-86C401.8,-86 393.1,-86 385.05,-86"/>
<polygon fill="midnightblue" stroke="midnightblue" points="410.64,-89.5 420.64,-86 410.64,-82.5 410.64,-89.5"/>
</g>
<!-- Node7 -->
<g id="node7" class="node">
<title>Node7</title>
<g id="a_node7"><a xlink:href="_server_8hpp.html#ab66b27c2186daacb15a6b13dd43be31b" target="_top" xlink:title="Runs the main event loop with a server object.">
<polygon fill="none" stroke="black" points="77,-95.5 77,-114.5 141,-114.5 141,-95.5 77,-95.5"/>
<text text-anchor="middle" x="109" y="-102.5" font-family="Helvetica,sans-Serif" font-size="10.00">runServer</text>
</a>
</g>
</g>
<!-- Node6&#45;&gt;Node7 -->
<g id="edge6" class="edge">
<title>Node6&#45;&gt;Node7</title>
<path fill="none" stroke="midnightblue" d="M297.73,-89.85C250.95,-93.63 181.04,-99.27 141.05,-102.49"/>
<polygon fill="midnightblue" stroke="midnightblue" points="298.24,-93.32 307.92,-89.03 297.67,-86.35 298.24,-93.32"/>
</g>
<!-- Node9 -->
<g id="node9" class="node">
<title>Node9</title>
<g id="a_node9"><a xlink:href="_server_8hpp.html#a115ecd76e344c1007bedc48b9bbdc0fa" target="_top" xlink:title="Performs a graceful shutdown of the server.">
<polygon fill="none" stroke="black" points="177,-57.5 177,-76.5 272,-76.5 272,-57.5 177,-57.5"/>
<text text-anchor="middle" x="224.5" y="-64.5" font-family="Helvetica,sans-Serif" font-size="10.00">shutdownServer</text>
</a>
</g>
</g>
<!-- Node6&#45;&gt;Node9 -->
<g id="edge8" class="edge">
<title>Node6&#45;&gt;Node9</title>
<path fill="none" stroke="midnightblue" d="M297.82,-78.45C289.42,-77.12 280.68,-75.74 272.3,-74.41"/>
<polygon fill="midnightblue" stroke="midnightblue" points="297.44,-81.93 307.86,-80.04 298.53,-75.02 297.44,-81.93"/>
</g>
<!-- Node8 -->
<g id="node8" class="node">
<title>Node8</title>
<g id="a_node8"><a xlink:href="main_8cpp.html#a3c04138a5bfe5d72780bb7e82a18e627" target="_top" xlink:title=" ">
<polygon fill="none" stroke="black" points="0,-95.5 0,-114.5 41,-114.5 41,-95.5 0,-95.5"/>
<text text-anchor="middle" x="20.5" y="-102.5" font-family="Helvetica,sans-Serif" font-size="10.00">main</text>
</a>
</g>
</g>
<!-- Node7&#45;&gt;Node8 -->
<g id="edge7" class="edge">
<title>Node7&#45;&gt;Node8</title>
<path fill="none" stroke="midnightblue" d="M66.5,-105C57.64,-105 48.68,-105 41.11,-105"/>
<polygon fill="midnightblue" stroke="midnightblue" points="66.77,-108.5 76.77,-105 66.77,-101.5 66.77,-108.5"/>
</g>
<!-- Node9&#45;&gt;Node7 -->
<g id="edge9" class="edge">
<title>Node9&#45;&gt;Node7</title>
<path fill="none" stroke="midnightblue" d="M185.19,-79.83C169.96,-84.92 152.74,-90.69 138.63,-95.41"/>
<polygon fill="midnightblue" stroke="midnightblue" points="186.49,-83.08 194.86,-76.59 184.27,-76.44 186.49,-83.08"/>
</g>
<!-- Node10 -->
<g id="node10" class="node">
<title>Node10</title>
<g id="a_node10"><a xlink:href="test__shutdown_server_8cpp.html#ae0ede4f52ef6c742c532c14b92b6179a" target="_top" xlink:title=" ">
<polygon fill="none" stroke="black" points="83,-57.5 83,-76.5 135,-76.5 135,-57.5 83,-57.5"/>
<text text-anchor="middle" x="109" y="-64.5" font-family="Helvetica,sans-Serif" font-size="10.00">TEST_F</text>
</a>
</g>
</g>
<!-- Node9&#45;&gt;Node10 -->
<g id="edge10" class="edge">
<title>Node9&#45;&gt;Node10</title>
<path fill="none" stroke="midnightblue" d="M166.63,-67C155.63,-67 144.64,-67 135.3,-67"/>
<polygon fill="midnightblue" stroke="midnightblue" points="166.68,-70.5 176.68,-67 166.68,-63.5 166.68,-70.5"/>
</g>
<!-- Node12 -->
<g id="node12" class="node">
<title>Node12</title>
<g id="a_node12"><a xlink:href="class_server.html#a34bc61299318fe1918293b1d656ee5f9" target="_top" xlink:title="Wrapper function to RequestParser::parseHeader.">
<polygon fill="none" stroke="black" points="949,-38.5 949,-57.5 1065,-57.5 1065,-38.5 949,-38.5"/>
<text text-anchor="middle" x="1007" y="-45.5" font-family="Helvetica,sans-Serif" font-size="10.00">Server::parseHeader</text>
</a>
</g>
</g>
<!-- Node11&#45;&gt;Node12 -->
<g id="edge12" class="edge">
<title>Node11&#45;&gt;Node12</title>
<path fill="none" stroke="midnightblue" d="M1090.53,-48C1081.87,-48 1073.25,-48 1065.02,-48"/>
<polygon fill="midnightblue" stroke="midnightblue" points="1090.69,-51.5 1100.68,-48 1090.68,-44.5 1090.69,-51.5"/>
</g>
<!-- Node13 -->
<g id="node13" class="node">
<title>Node13</title>
<g id="a_node13"><a xlink:href="_server_8hpp.html#a83350eae81b96dd7b301d1238268ffdb" target="_top" xlink:title="Handles a received complete request header.">
<polygon fill="none" stroke="black" points="741,-38.5 741,-57.5 913,-57.5 913,-38.5 741,-38.5"/>
<text text-anchor="middle" x="827" y="-45.5" font-family="Helvetica,sans-Serif" font-size="10.00">handleCompleteRequestHeader</text>
</a>
</g>
</g>
<!-- Node12&#45;&gt;Node13 -->
<g id="edge13" class="edge">
<title>Node12&#45;&gt;Node13</title>
<path fill="none" stroke="midnightblue" d="M938.65,-48C930.28,-48 921.65,-48 913.06,-48"/>
<polygon fill="midnightblue" stroke="midnightblue" points="938.7,-51.5 948.7,-48 938.7,-44.5 938.7,-51.5"/>
</g>
<!-- Node14 -->
<g id="node14" class="node">
<title>Node14</title>
<g id="a_node14"><a xlink:href="_server_8hpp.html#a06d0cb066f08d5567ea6ba4ef2897927" target="_top" xlink:title="Receive request header from a client.">
<polygon fill="none" stroke="black" points="561,-38.5 561,-57.5 705,-57.5 705,-38.5 561,-38.5"/>
<text text-anchor="middle" x="633" y="-45.5" font-family="Helvetica,sans-Serif" font-size="10.00">connectionReceiveHeader</text>
</a>
</g>
</g>
<!-- Node13&#45;&gt;Node14 -->
<g id="edge14" class="edge">
<title>Node13&#45;&gt;Node14</title>
<path fill="none" stroke="midnightblue" d="M730.84,-48C722.21,-48 713.57,-48 705.2,-48"/>
<polygon fill="midnightblue" stroke="midnightblue" points="730.95,-51.5 740.95,-48 730.95,-44.5 730.95,-51.5"/>
</g>
<!-- Node14&#45;&gt;Node5 -->
<g id="edge15" class="edge">
<title>Node14&#45;&gt;Node5</title>
<path fill="none" stroke="midnightblue" d="M582.24,-59.97C560.1,-65.29 534.39,-71.48 513.58,-76.48"/>
<polygon fill="midnightblue" stroke="midnightblue" points="583.23,-63.33 592.13,-57.59 581.59,-56.52 583.23,-63.33"/>
</g>
<!-- Node15 -->
<g id="node15" class="node">
<title>Node15</title>
<g id="a_node15"><a xlink:href="test__connection_receive_header_8cpp.html#ae40546436ca5ae6d8af1f754dfff4a98" target="_top" xlink:title=" ">
<polygon fill="none" stroke="black" points="447,-38.5 447,-57.5 499,-57.5 499,-38.5 447,-38.5"/>
<text text-anchor="middle" x="473" y="-45.5" font-family="Helvetica,sans-Serif" font-size="10.00">TEST_F</text>
</a>
</g>
</g>
<!-- Node14&#45;&gt;Node15 -->
<g id="edge16" class="edge">
<title>Node14&#45;&gt;Node15</title>
<path fill="none" stroke="midnightblue" d="M550.72,-48C531.89,-48 513.25,-48 499.05,-48"/>
<polygon fill="midnightblue" stroke="midnightblue" points="550.86,-51.5 560.86,-48 550.86,-44.5 550.86,-51.5"/>
</g>
</g>
</svg>
        <g id="navigator" transform="translate(0 0)" fill="#404254">
                <rect fill="#f2f5e9" fill-opacity="0.5" stroke="#606060" stroke-width=".5" x="0" y="0" width="60" height="60"/>
                <use id="zoomplus" xlink:href="#zoomPlus" x="17" y="9" onmousedown="handleZoom(evt,'in')"/>
                <use id="zoomminus" xlink:href="#zoomMin" x="42" y="9" onmousedown="handleZoom(evt,'out')"/>
                <use id="reset" xlink:href="#resetDef" x="30" y="36" onmousedown="handleReset()"/>
                <g id="arrowUp" xlink:href="#dirArrow" transform="translate(30 24)" onmousedown="handlePan(0,-1)">
                  <use xlink:href="#rim" fill="#404040">
                        <set attributeName="fill" to="#808080" begin="arrowUp.mouseover" end="arrowUp.mouseout"/>
                  </use>
                  <path fill="none" stroke="white" stroke-width="1.5" d="M0,-3.0v7 M-2.5,-0.5L0,-3.0L2.5,-0.5"/>
                </g>
                <g id="arrowRight" xlink:href="#dirArrow" transform="rotate(90) translate(36 -43)" onmousedown="handlePan(1,0)">
                  <use xlink:href="#rim" fill="#404040">
                        <set attributeName="fill" to="#808080" begin="arrowRight.mouseover" end="arrowRight.mouseout"/>
                  </use>
                  <path fill="none" stroke="white" stroke-width="1.5" d="M0,-3.0v7 M-2.5,-0.5L0,-3.0L2.5,-0.5"/>
                </g>
                <g id="arrowDown" xlink:href="#dirArrow" transform="rotate(180) translate(-30 -48)" onmousedown="handlePan(0,1)">
                  <use xlink:href="#rim" fill="#404040">
                        <set attributeName="fill" to="#808080" begin="arrowDown.mouseover" end="arrowDown.mouseout"/>
                  </use>
                  <path fill="none" stroke="white" stroke-width="1.5" d="M0,-3.0v7 M-2.5,-0.5L0,-3.0L2.5,-0.5"/>
                </g>
                <g id="arrowLeft" xlink:href="#dirArrow" transform="rotate(270) translate(-36 17)" onmousedown="handlePan(-1,0)">
                  <use xlink:href="#rim" fill="#404040">
                        <set attributeName="fill" to="#808080" begin="arrowLeft.mouseover" end="arrowLeft.mouseout"/>
                  </use>
                  <path fill="none" stroke="white" stroke-width="1.5" d="M0,-3.0v7 M-2.5,-0.5L0,-3.0L2.5,-0.5"/>
                </g>
        </g>
        <svg viewBox="0 0 15 15" width="100%" height="30px" preserveAspectRatio="xMaxYMin meet">
         <g id="arrow_out" transform="scale(0.3 0.3)">
          <a xlink:href="class_request_parser_ad8e0fc22eb113d78140e257f002df666_icgraph_org.svg" target="_base">
           <rect id="button" ry="5" rx="5" y="6" x="6" height="38" width="38"
                fill="#f2f5e9" fill-opacity="0.5" stroke="#606060" stroke-width="1.0"/>
           <path id="arrow"
             d="M 11.500037,31.436501 C 11.940474,20.09759 22.043105,11.32322 32.158766,21.979434 L 37.068811,17.246167 C 37.068811,17.246167 37.088388,32 37.088388,32 L 22.160133,31.978069 C 22.160133,31.978069 26.997745,27.140456 26.997745,27.140456 C 18.528582,18.264221 13.291696,25.230495 11.500037,31.436501 z"
             style="fill:#404040;"/>
          </a>
         </g>
        </svg>
</svg>
