<?xml version="1.0" encoding="UTF-8" standalone="no"?>
<!DOCTYPE svg PUBLIC "-//W3C//DTD SVG 1.1//EN"
 "http://www.w3.org/Graphics/SVG/1.1/DTD/svg11.dtd">
<!-- Generated by graphviz version 2.43.0 (0)
 -->
<!-- Title: EpollWrapper::addEvent Pages: 1 -->
<!--zoomable 218 -->
<svg id="main" version="1.1" xmlns="http://www.w3.org/2000/svg" xmlns:xlink="http://www.w3.org/1999/xlink" xml:space="preserve" onload="init(evt)">
<style type="text/css"><![CDATA[
.edge:hover path { stroke: red; }
.edge:hover polygon { stroke: red; fill: red; }
]]></style>
<script type="text/javascript"><![CDATA[
var edges = document.getElementsByTagName('g');
if (edges && edges.length) {
  for (var i=0;i<edges.length;i++) {
    if (edges[i].id.substr(0,4)=='edge') {
      edges[i].setAttribute('class','edge');
    }
  }
}
]]></script>
        <defs>
                <circle id="rim" cx="0" cy="0" r="7"/>
                <circle id="rim2" cx="0" cy="0" r="3.5"/>
                <g id="zoomPlus">
                        <use xlink:href="#rim" fill="#404040">
                                <set attributeName="fill" to="#808080" begin="zoomplus.mouseover" end="zoomplus.mouseout"/>
                        </use>
                        <path d="M-4,0h8M0,-4v8" fill="none" stroke="white" stroke-width="1.5" pointer-events="none"/>
                </g>
                <g id="zoomMin">
                        <use xlink:href="#rim" fill="#404040">
                                <set attributeName="fill" to="#808080" begin="zoomminus.mouseover" end="zoomminus.mouseout"/>
                        </use>
                        <path d="M-4,0h8" fill="none" stroke="white" stroke-width="1.5" pointer-events="none"/>
                </g>
                <g id="dirArrow">
                        <path fill="none" stroke="white" stroke-width="1.5" d="M0,-3.0v7 M-2.5,-0.5L0,-3.0L2.5,-0.5"/>
                </g>
               <g id="resetDef">
                       <use xlink:href="#rim2" fill="#404040">
                               <set attributeName="fill" to="#808080" begin="reset.mouseover" end="reset.mouseout"/>
                       </use>
               </g>
        </defs>

<script type="text/javascript">
var viewWidth = 1303;
var viewHeight = 218;
var sectionId = 'dynsection-4';
</script>
<script xlink:href="svgpan.js"/>
<svg id="graph" class="graph">
<g id="viewport">
<title>EpollWrapper::addEvent</title>
<!-- Node1 -->
<g id="node1" class="node">
<title>Node1</title>
<g id="a_node1"><a xlink:title="Add an event to the epoll instance.">
<polygon fill="#bfbfbf" stroke="black" points="1161,-124.5 1161,-143.5 1295,-143.5 1295,-124.5 1161,-124.5"/>
<text text-anchor="middle" x="1228" y="-131.5" font-family="Helvetica,sans-Serif" font-size="10.00">EpollWrapper::addEvent</text>
</a>
</g>
</g>
<!-- Node2 -->
<g id="node2" class="node">
<title>Node2</title>
<g id="a_node2"><a xlink:href="class_server.html#ae02283a176e4c6ffc9ff0efaf00074cf" target="_top" xlink:title="Wrapper function to EpollWrapper::addEvent.">
<polygon fill="none" stroke="black" points="987,-181.5 987,-200.5 1087,-200.5 1087,-181.5 987,-181.5"/>
<text text-anchor="middle" x="1037" y="-188.5" font-family="Helvetica,sans-Serif" font-size="10.00">Server::addEvent</text>
</a>
</g>
</g>
<!-- Node1&#45;&gt;Node2 -->
<g id="edge1" class="edge">
<title>Node1&#45;&gt;Node2</title>
<path fill="none" stroke="midnightblue" d="M1194.73,-147.36C1174.86,-155.25 1148.73,-165.03 1125,-172 1112.84,-175.57 1099.54,-178.81 1087.08,-181.55"/>
<polygon fill="midnightblue" stroke="midnightblue" points="1196.25,-150.52 1204.22,-143.55 1193.64,-144.03 1196.25,-150.52"/>
</g>
<!-- Node3 -->
<g id="node3" class="node">
<title>Node3</title>
<g id="a_node3"><a xlink:href="class_server.html#abcfb45414689863da69c2e72ac8fc946" target="_top" xlink:title="Register a CGI file descriptor.">
<polygon fill="none" stroke="black" points="949,-143.5 949,-162.5 1125,-162.5 1125,-143.5 949,-143.5"/>
<text text-anchor="middle" x="1037" y="-150.5" font-family="Helvetica,sans-Serif" font-size="10.00">Server::registerCGIFileDescriptor</text>
</a>
</g>
</g>
<!-- Node1&#45;&gt;Node3 -->
<g id="edge2" class="edge">
<title>Node1&#45;&gt;Node3</title>
<path fill="none" stroke="midnightblue" d="M1150.79,-141.66C1142.41,-142.5 1133.83,-143.37 1125.33,-144.22"/>
<polygon fill="midnightblue" stroke="midnightblue" points="1151.3,-145.13 1160.9,-140.65 1150.6,-138.16 1151.3,-145.13"/>
</g>
<!-- Node14 -->
<g id="node14" class="node">
<title>Node14</title>
<g id="a_node14"><a xlink:href="class_server.html#ac145e9f668db85b10a66829bd2677746" target="_top" xlink:title="Register a connection.">
<polygon fill="none" stroke="black" points="964,-105.5 964,-124.5 1110,-124.5 1110,-105.5 964,-105.5"/>
<text text-anchor="middle" x="1037" y="-112.5" font-family="Helvetica,sans-Serif" font-size="10.00">Server::registerConnection</text>
</a>
</g>
</g>
<!-- Node1&#45;&gt;Node14 -->
<g id="edge14" class="edge">
<title>Node1&#45;&gt;Node14</title>
<path fill="none" stroke="midnightblue" d="M1150.77,-126.34C1137.37,-124.99 1123.47,-123.59 1110.19,-122.26"/>
<polygon fill="midnightblue" stroke="midnightblue" points="1150.6,-129.84 1160.9,-127.35 1151.3,-122.87 1150.6,-129.84"/>
</g>
<!-- Node17 -->
<g id="node17" class="node">
<title>Node17</title>
<g id="a_node17"><a xlink:href="class_server.html#aae8cc5a8fc07a6ce97d468d94cd08a6e" target="_top" xlink:title="Register a virtual server.">
<polygon fill="none" stroke="black" points="959.5,-57.5 959.5,-76.5 1114.5,-76.5 1114.5,-57.5 959.5,-57.5"/>
<text text-anchor="middle" x="1037" y="-64.5" font-family="Helvetica,sans-Serif" font-size="10.00">Server::registerVirtualServer</text>
</a>
</g>
</g>
<!-- Node1&#45;&gt;Node17 -->
<g id="edge18" class="edge">
<title>Node1&#45;&gt;Node17</title>
<path fill="none" stroke="midnightblue" d="M1192.46,-120.79C1172.76,-113.34 1147.56,-103.96 1125,-96 1105.93,-89.27 1084.37,-82.08 1067.48,-76.55"/>
<polygon fill="midnightblue" stroke="midnightblue" points="1191.35,-124.11 1201.94,-124.39 1193.83,-117.57 1191.35,-124.11"/>
</g>
<!-- Node4 -->
<g id="node4" class="node">
<title>Node4</title>
<g id="a_node4"><a xlink:href="_server_8hpp.html#a83350eae81b96dd7b301d1238268ffdb" target="_top" xlink:title="Handles the complete request header received from a client.">
<polygon fill="none" stroke="black" points="741,-152.5 741,-171.5 913,-171.5 913,-152.5 741,-152.5"/>
<text text-anchor="middle" x="827" y="-159.5" font-family="Helvetica,sans-Serif" font-size="10.00">handleCompleteRequestHeader</text>
</a>
</g>
</g>
<!-- Node3&#45;&gt;Node4 -->
<g id="edge3" class="edge">
<title>Node3&#45;&gt;Node4</title>
<path fill="none" stroke="midnightblue" d="M938.98,-157.2C930.41,-157.57 921.78,-157.94 913.32,-158.31"/>
<polygon fill="midnightblue" stroke="midnightblue" points="939.16,-160.69 948.99,-156.76 938.85,-153.7 939.16,-160.69"/>
</g>
<!-- Node5 -->
<g id="node5" class="node">
<title>Node5</title>
<g id="a_node5"><a xlink:href="_server_8hpp.html#aa45d6529fd7be9b7adf788a9679ae34b" target="_top" xlink:title="Receive request header from a client.">
<polygon fill="none" stroke="black" points="561,-190.5 561,-209.5 705,-209.5 705,-190.5 561,-190.5"/>
<text text-anchor="middle" x="633" y="-197.5" font-family="Helvetica,sans-Serif" font-size="10.00">connectionReceiveHeader</text>
</a>
</g>
</g>
<!-- Node4&#45;&gt;Node5 -->
<g id="edge4" class="edge">
<title>Node4&#45;&gt;Node5</title>
<path fill="none" stroke="midnightblue" d="M767.7,-173.54C740.32,-178.96 708.07,-185.34 682.1,-190.48"/>
<polygon fill="midnightblue" stroke="midnightblue" points="768.42,-176.96 777.55,-171.59 767.06,-170.1 768.42,-176.96"/>
</g>
<!-- Node13 -->
<g id="node13" class="node">
<title>Node13</title>
<g id="a_node13"><a xlink:href="test__handle_complete_request_header_8cpp.html#a00d3c07453ceb8ca6576a951222a7829" target="_top" xlink:title=" ">
<polygon fill="none" stroke="black" points="607,-152.5 607,-171.5 659,-171.5 659,-152.5 607,-152.5"/>
<text text-anchor="middle" x="633" y="-159.5" font-family="Helvetica,sans-Serif" font-size="10.00">TEST_F</text>
</a>
</g>
</g>
<!-- Node4&#45;&gt;Node13 -->
<g id="edge13" class="edge">
<title>Node4&#45;&gt;Node13</title>
<path fill="none" stroke="midnightblue" d="M730.82,-162C704.34,-162 677.78,-162 659.19,-162"/>
<polygon fill="midnightblue" stroke="midnightblue" points="730.95,-165.5 740.95,-162 730.95,-158.5 730.95,-165.5"/>
</g>
<!-- Node6 -->
<g id="node6" class="node">
<title>Node6</title>
<g id="a_node6"><a xlink:href="_server_8hpp.html#a54490f09266c8a5fed4d91166df9a6b3" target="_top" xlink:title="Handle a client connection.">
<polygon fill="none" stroke="black" points="421,-190.5 421,-209.5 525,-209.5 525,-190.5 421,-190.5"/>
<text text-anchor="middle" x="473" y="-197.5" font-family="Helvetica,sans-Serif" font-size="10.00">handleConnection</text>
</a>
</g>
</g>
<!-- Node5&#45;&gt;Node6 -->
<g id="edge5" class="edge">
<title>Node5&#45;&gt;Node6</title>
<path fill="none" stroke="midnightblue" d="M550.73,-200C542.1,-200 533.51,-200 525.36,-200"/>
<polygon fill="midnightblue" stroke="midnightblue" points="550.86,-203.5 560.86,-200 550.86,-196.5 550.86,-203.5"/>
</g>
<!-- Node12 -->
<g id="node12" class="node">
<title>Node12</title>
<g id="a_node12"><a xlink:href="test__connection_receive_header_8cpp.html#ae40546436ca5ae6d8af1f754dfff4a98" target="_top" xlink:title=" ">
<polygon fill="none" stroke="black" points="447,-152.5 447,-171.5 499,-171.5 499,-152.5 447,-152.5"/>
<text text-anchor="middle" x="473" y="-159.5" font-family="Helvetica,sans-Serif" font-size="10.00">TEST_F</text>
</a>
</g>
</g>
<!-- Node5&#45;&gt;Node12 -->
<g id="edge12" class="edge">
<title>Node5&#45;&gt;Node12</title>
<path fill="none" stroke="midnightblue" d="M582.22,-188.03C554.55,-181.37 521.31,-173.38 499.04,-168.02"/>
<polygon fill="midnightblue" stroke="midnightblue" points="581.59,-191.48 592.13,-190.41 583.23,-184.67 581.59,-191.48"/>
</g>
<!-- Node7 -->
<g id="node7" class="node">
<title>Node7</title>
<g id="a_node7"><a xlink:href="_server_8hpp.html#a4211c4d6b958979b39b3dfc8148c801a" target="_top" xlink:title="Accepts new connections or handles existing ones.">
<polygon fill="none" stroke="black" points="308,-123.5 308,-142.5 385,-142.5 385,-123.5 308,-123.5"/>
<text text-anchor="middle" x="346.5" y="-130.5" font-family="Helvetica,sans-Serif" font-size="10.00">handleEvent</text>
</a>
</g>
</g>
<!-- Node6&#45;&gt;Node7 -->
<g id="edge6" class="edge">
<title>Node6&#45;&gt;Node7</title>
<path fill="none" stroke="midnightblue" d="M433.56,-186.73C429.26,-184.94 425,-183.02 421,-181 398.55,-169.67 374.51,-153 360.25,-142.59"/>
<polygon fill="midnightblue" stroke="midnightblue" points="432.34,-190.02 442.93,-190.44 434.92,-183.51 432.34,-190.02"/>
</g>
<!-- Node8 -->
<g id="node8" class="node">
<title>Node8</title>
<g id="a_node8"><a xlink:href="_server_8hpp.html#ab66b27c2186daacb15a6b13dd43be31b" target="_top" xlink:title="Runs the main event loop with a server object.">
<polygon fill="none" stroke="black" points="77,-133.5 77,-152.5 141,-152.5 141,-133.5 77,-133.5"/>
<text text-anchor="middle" x="109" y="-140.5" font-family="Helvetica,sans-Serif" font-size="10.00">runServer</text>
</a>
</g>
</g>
<!-- Node7&#45;&gt;Node8 -->
<g id="edge7" class="edge">
<title>Node7&#45;&gt;Node8</title>
<path fill="none" stroke="midnightblue" d="M297.73,-135.03C250.95,-137.01 181.04,-139.98 141.05,-141.68"/>
<polygon fill="midnightblue" stroke="midnightblue" points="298.08,-138.52 307.92,-134.6 297.78,-131.52 298.08,-138.52"/>
</g>
<!-- Node10 -->
<g id="node10" class="node">
<title>Node10</title>
<g id="a_node10"><a xlink:href="_server_8hpp.html#a115ecd76e344c1007bedc48b9bbdc0fa" target="_top" xlink:title="Performs a graceful shutdown of the server.">
<polygon fill="none" stroke="black" points="177,-95.5 177,-114.5 272,-114.5 272,-95.5 177,-95.5"/>
<text text-anchor="middle" x="224.5" y="-102.5" font-family="Helvetica,sans-Serif" font-size="10.00">shutdownServer</text>
</a>
</g>
</g>
<!-- Node7&#45;&gt;Node10 -->
<g id="edge9" class="edge">
<title>Node7&#45;&gt;Node10</title>
<path fill="none" stroke="midnightblue" d="M298.02,-121.92C287.54,-119.48 276.53,-116.91 266.34,-114.53"/>
<polygon fill="midnightblue" stroke="midnightblue" points="297.33,-125.35 307.86,-124.22 298.92,-118.54 297.33,-125.35"/>
</g>
<!-- Node9 -->
<g id="node9" class="node">
<title>Node9</title>
<g id="a_node9"><a xlink:href="main_8cpp.html#a3c04138a5bfe5d72780bb7e82a18e627" target="_top" xlink:title=" ">
<polygon fill="none" stroke="black" points="0,-95.5 0,-114.5 41,-114.5 41,-95.5 0,-95.5"/>
<text text-anchor="middle" x="20.5" y="-102.5" font-family="Helvetica,sans-Serif" font-size="10.00">main</text>
</a>
</g>
</g>
<!-- Node8&#45;&gt;Node9 -->
<g id="edge8" class="edge">
<title>Node8&#45;&gt;Node9</title>
<path fill="none" stroke="midnightblue" d="M76.99,-129.38C65.08,-124.14 51.82,-118.32 41.25,-113.68"/>
<polygon fill="midnightblue" stroke="midnightblue" points="75.61,-132.59 86.17,-133.41 78.42,-126.18 75.61,-132.59"/>
</g>
<!-- Node10&#45;&gt;Node8 -->
<g id="edge10" class="edge">
<title>Node10&#45;&gt;Node8</title>
<path fill="none" stroke="midnightblue" d="M185.19,-117.83C169.96,-122.92 152.74,-128.69 138.63,-133.41"/>
<polygon fill="midnightblue" stroke="midnightblue" points="186.49,-121.08 194.86,-114.59 184.27,-114.44 186.49,-121.08"/>
</g>
<!-- Node11 -->
<g id="node11" class="node">
<title>Node11</title>
<g id="a_node11"><a xlink:href="test__shutdown_server_8cpp.html#ae0ede4f52ef6c742c532c14b92b6179a" target="_top" xlink:title=" ">
<polygon fill="none" stroke="black" points="83,-95.5 83,-114.5 135,-114.5 135,-95.5 83,-95.5"/>
<text text-anchor="middle" x="109" y="-102.5" font-family="Helvetica,sans-Serif" font-size="10.00">TEST_F</text>
</a>
</g>
</g>
<!-- Node10&#45;&gt;Node11 -->
<g id="edge11" class="edge">
<title>Node10&#45;&gt;Node11</title>
<path fill="none" stroke="midnightblue" d="M166.63,-105C155.63,-105 144.64,-105 135.3,-105"/>
<polygon fill="midnightblue" stroke="midnightblue" points="166.68,-108.5 176.68,-105 166.68,-101.5 166.68,-108.5"/>
</g>
<!-- Node15 -->
<g id="node15" class="node">
<title>Node15</title>
<g id="a_node15"><a xlink:href="_server_8hpp.html#adb579f3d67061d752e882e6fb3ef6f18" target="_top" xlink:title="Accept new connections.">
<polygon fill="none" stroke="black" points="772.5,-105.5 772.5,-124.5 881.5,-124.5 881.5,-105.5 772.5,-105.5"/>
<text text-anchor="middle" x="827" y="-112.5" font-family="Helvetica,sans-Serif" font-size="10.00">acceptConnections</text>
</a>
</g>
</g>
<!-- Node14&#45;&gt;Node15 -->
<g id="edge15" class="edge">
<title>Node14&#45;&gt;Node15</title>
<path fill="none" stroke="midnightblue" d="M953.58,-115C929.39,-115 903.57,-115 881.67,-115"/>
<polygon fill="midnightblue" stroke="midnightblue" points="953.84,-118.5 963.84,-115 953.84,-111.5 953.84,-118.5"/>
</g>
<!-- Node15&#45;&gt;Node7 -->
<g id="edge16" class="edge">
<title>Node15&#45;&gt;Node7</title>
<path fill="none" stroke="midnightblue" d="M761.95,-117.41C660.7,-121.22 466.84,-128.51 385.21,-131.58"/>
<polygon fill="midnightblue" stroke="midnightblue" points="762.18,-120.9 772.04,-117.03 761.92,-113.91 762.18,-120.9"/>
</g>
<!-- Node16 -->
<g id="node16" class="node">
<title>Node16</title>
<g id="a_node16"><a xlink:href="test__accept_connections_8cpp.html#a78ef81e117d5c1a90c27410155ac152b" target="_top" xlink:title=" ">
<polygon fill="none" stroke="black" points="607,-76.5 607,-95.5 659,-95.5 659,-76.5 607,-76.5"/>
<text text-anchor="middle" x="633" y="-83.5" font-family="Helvetica,sans-Serif" font-size="10.00">TEST_F</text>
</a>
</g>
</g>
<!-- Node15&#45;&gt;Node16 -->
<g id="edge17" class="edge">
<title>Node15&#45;&gt;Node16</title>
<path fill="none" stroke="midnightblue" d="M762.04,-105.34C726.82,-100.02 685.09,-93.72 659.08,-89.79"/>
<polygon fill="midnightblue" stroke="midnightblue" points="761.85,-108.85 772.26,-106.88 762.9,-101.93 761.85,-108.85"/>
</g>
<!-- Node18 -->
<g id="node18" class="node">
<title>Node18</title>
<g id="a_node18"><a xlink:href="_server_8hpp.html#aa6ca6a0179cbb661c05aa6b2758f5389" target="_top" xlink:title="Creates a new virtual server and registers it with the server object.">
<polygon fill="none" stroke="black" points="771.5,-38.5 771.5,-57.5 882.5,-57.5 882.5,-38.5 771.5,-38.5"/>
<text text-anchor="middle" x="827" y="-45.5" font-family="Helvetica,sans-Serif" font-size="10.00">createVirtualServer</text>
</a>
</g>
</g>
<!-- Node17&#45;&gt;Node18 -->
<g id="edge19" class="edge">
<title>Node17&#45;&gt;Node18</title>
<path fill="none" stroke="midnightblue" d="M949.48,-59.1C926.84,-57.03 903.07,-54.86 882.62,-52.99"/>
<polygon fill="midnightblue" stroke="midnightblue" points="949.16,-62.58 959.43,-60.01 949.79,-55.61 949.16,-62.58"/>
</g>
<!-- Node19 -->
<g id="node19" class="node">
<title>Node19</title>
<g id="a_node19"><a xlink:href="_server_8hpp.html#a35359f61d42dbd6561a07c12009ca45a" target="_top" xlink:title="Initialize virtual servers.">
<polygon fill="none" stroke="black" points="582.5,-38.5 582.5,-57.5 683.5,-57.5 683.5,-38.5 582.5,-38.5"/>
<text text-anchor="middle" x="633" y="-45.5" font-family="Helvetica,sans-Serif" font-size="10.00">initVirtualServers</text>
</a>
</g>
</g>
<!-- Node18&#45;&gt;Node19 -->
<g id="edge20" class="edge">
<title>Node18&#45;&gt;Node19</title>
<path fill="none" stroke="midnightblue" d="M761.24,-48C735.92,-48 707.36,-48 683.71,-48"/>
<polygon fill="midnightblue" stroke="midnightblue" points="761.49,-51.5 771.49,-48 761.49,-44.5 761.49,-51.5"/>
</g>
<!-- Node21 -->
<g id="node21" class="node">
<title>Node21</title>
<g id="a_node21"><a xlink:href="test__create_virtual_server_8cpp.html#a0dab7ae2d51f771c7d651de64d6fd66a" target="_top" xlink:title=" ">
<polygon fill="none" stroke="black" points="607,-0.5 607,-19.5 659,-19.5 659,-0.5 607,-0.5"/>
<text text-anchor="middle" x="633" y="-7.5" font-family="Helvetica,sans-Serif" font-size="10.00">TEST_F</text>
</a>
</g>
</g>
<!-- Node18&#45;&gt;Node21 -->
<g id="edge23" class="edge">
<title>Node18&#45;&gt;Node21</title>
<path fill="none" stroke="midnightblue" d="M767.57,-36.44C731.33,-29.26 686.59,-20.41 659.19,-14.99"/>
<polygon fill="midnightblue" stroke="midnightblue" points="767.06,-39.9 777.55,-38.41 768.42,-33.04 767.06,-39.9"/>
</g>
<!-- Node19&#45;&gt;Node9 -->
<g id="edge21" class="edge">
<title>Node19&#45;&gt;Node9</title>
<path fill="none" stroke="midnightblue" d="M572.47,-54.29C514.96,-59.83 425.37,-67 347.5,-67 347.5,-67 347.5,-67 223.5,-67 157.84,-67 140.94,-71.07 77,-86 64.9,-88.83 51.73,-93.27 41.25,-97.15"/>
<polygon fill="midnightblue" stroke="midnightblue" points="572.86,-57.77 582.47,-53.32 572.18,-50.81 572.86,-57.77"/>
</g>
<!-- Node20 -->
<g id="node20" class="node">
<title>Node20</title>
<g id="a_node20"><a xlink:href="test__init_virtual_servers_8cpp.html#a25537358add2db1ce439b611dffe8790" target="_top" xlink:title=" ">
<polygon fill="none" stroke="black" points="447,-19.5 447,-38.5 499,-38.5 499,-19.5 447,-19.5"/>
<text text-anchor="middle" x="473" y="-26.5" font-family="Helvetica,sans-Serif" font-size="10.00">TEST_F</text>
</a>
</g>
</g>
<!-- Node19&#45;&gt;Node20 -->
<g id="edge22" class="edge">
<title>Node19&#45;&gt;Node20</title>
<path fill="none" stroke="midnightblue" d="M572.5,-40.84C547.09,-37.79 518.81,-34.39 499.09,-32.02"/>
<polygon fill="midnightblue" stroke="midnightblue" points="572.09,-44.32 582.44,-42.04 572.93,-37.37 572.09,-44.32"/>
</g>
</g>
</svg>
        <g id="navigator" transform="translate(0 0)" fill="#404254">
                <rect fill="#f2f5e9" fill-opacity="0.5" stroke="#606060" stroke-width=".5" x="0" y="0" width="60" height="60"/>
                <use id="zoomplus" xlink:href="#zoomPlus" x="17" y="9" onmousedown="handleZoom(evt,'in')"/>
                <use id="zoomminus" xlink:href="#zoomMin" x="42" y="9" onmousedown="handleZoom(evt,'out')"/>
                <use id="reset" xlink:href="#resetDef" x="30" y="36" onmousedown="handleReset()"/>
                <g id="arrowUp" xlink:href="#dirArrow" transform="translate(30 24)" onmousedown="handlePan(0,-1)">
                  <use xlink:href="#rim" fill="#404040">
                        <set attributeName="fill" to="#808080" begin="arrowUp.mouseover" end="arrowUp.mouseout"/>
                  </use>
                  <path fill="none" stroke="white" stroke-width="1.5" d="M0,-3.0v7 M-2.5,-0.5L0,-3.0L2.5,-0.5"/>
                </g>
                <g id="arrowRight" xlink:href="#dirArrow" transform="rotate(90) translate(36 -43)" onmousedown="handlePan(1,0)">
                  <use xlink:href="#rim" fill="#404040">
                        <set attributeName="fill" to="#808080" begin="arrowRight.mouseover" end="arrowRight.mouseout"/>
                  </use>
                  <path fill="none" stroke="white" stroke-width="1.5" d="M0,-3.0v7 M-2.5,-0.5L0,-3.0L2.5,-0.5"/>
                </g>
                <g id="arrowDown" xlink:href="#dirArrow" transform="rotate(180) translate(-30 -48)" onmousedown="handlePan(0,1)">
                  <use xlink:href="#rim" fill="#404040">
                        <set attributeName="fill" to="#808080" begin="arrowDown.mouseover" end="arrowDown.mouseout"/>
                  </use>
                  <path fill="none" stroke="white" stroke-width="1.5" d="M0,-3.0v7 M-2.5,-0.5L0,-3.0L2.5,-0.5"/>
                </g>
                <g id="arrowLeft" xlink:href="#dirArrow" transform="rotate(270) translate(-36 17)" onmousedown="handlePan(-1,0)">
                  <use xlink:href="#rim" fill="#404040">
                        <set attributeName="fill" to="#808080" begin="arrowLeft.mouseover" end="arrowLeft.mouseout"/>
                  </use>
                  <path fill="none" stroke="white" stroke-width="1.5" d="M0,-3.0v7 M-2.5,-0.5L0,-3.0L2.5,-0.5"/>
                </g>
        </g>
        <svg viewBox="0 0 15 15" width="100%" height="30px" preserveAspectRatio="xMaxYMin meet">
         <g id="arrow_out" transform="scale(0.3 0.3)">
          <a xlink:href="class_epoll_wrapper_ace2a6009a6c647babfc667c27df05354_icgraph_org.svg" target="_base">
           <rect id="button" ry="5" rx="5" y="6" x="6" height="38" width="38"
                fill="#f2f5e9" fill-opacity="0.5" stroke="#606060" stroke-width="1.0"/>
           <path id="arrow"
             d="M 11.500037,31.436501 C 11.940474,20.09759 22.043105,11.32322 32.158766,21.979434 L 37.068811,17.246167 C 37.068811,17.246167 37.088388,32 37.088388,32 L 22.160133,31.978069 C 22.160133,31.978069 26.997745,27.140456 26.997745,27.140456 C 18.528582,18.264221 13.291696,25.230495 11.500037,31.436501 z"
             style="fill:#404040;"/>
          </a>
         </g>
        </svg>
</svg>
