<?xml version="1.0" encoding="UTF-8" standalone="no"?>
<!DOCTYPE svg PUBLIC "-//W3C//DTD SVG 1.1//EN"
 "http://www.w3.org/Graphics/SVG/1.1/DTD/svg11.dtd">
<!-- Generated by graphviz version 2.43.0 (0)
 -->
<!-- Title: Server::retrieveBoundSocketInfo Pages: 1 -->
<svg width="748pt" height="342pt"
 viewBox="0.00 0.00 748.00 342.00" xmlns="http://www.w3.org/2000/svg" xmlns:xlink="http://www.w3.org/1999/xlink">
<g id="graph0" class="graph" transform="scale(1 1) rotate(0) translate(4 338)">
<title>Server::retrieveBoundSocketInfo</title>
<!-- Node1 -->
<g id="Node000001" class="node">
<title>Node1</title>
<g id="a_Node000001"><a xlink:title="Wrapper function to SocketPolicy::retrieveBoundSocketInfo.">
<polygon fill="#999999" stroke="#666666" points="740,-167 566,-167 566,-148 740,-148 740,-167"/>
<text text-anchor="middle" x="653" y="-155" font-family="Helvetica,sans-Serif" font-size="10.00">Server::retrieveBoundSocketInfo</text>
</a>
</g>
</g>
<!-- Node2 -->
<g id="Node000002" class="node">
<title>Node2</title>
<g id="a_Node000002"><a xlink:href="_server_8cpp.html#adb579f3d67061d752e882e6fb3ef6f18" target="_top" xlink:title="Accept new connections.">
<polygon fill="white" stroke="#666666" points="530,-167 421,-167 421,-148 530,-148 530,-167"/>
<text text-anchor="middle" x="475.5" y="-155" font-family="Helvetica,sans-Serif" font-size="10.00">acceptConnections</text>
</a>
</g>
</g>
<!-- Node1&#45;&gt;Node2 -->
<g id="edge1_Node000001_Node000002" class="edge">
<title>Node1&#45;&gt;Node2</title>
<g id="a_edge1_Node000001_Node000002"><a xlink:title=" ">
<path fill="none" stroke="#63b8ff" d="M555.56,-157.5C546.88,-157.5 538.31,-157.5 530.2,-157.5"/>
<polygon fill="#63b8ff" stroke="#63b8ff" points="555.79,-161 565.79,-157.5 555.79,-154 555.79,-161"/>
</a>
</g>
</g>
<!-- Node3 -->
<g id="Node000003" class="node">
<title>Node3</title>
<g id="a_Node000003"><a xlink:href="_server_8cpp.html#af9f4479a6262c17deef89938118d27f4" target="_top" xlink:title="Accepts new connections or handles existing ones.">
<polygon fill="white" stroke="#666666" points="385,-315 308,-315 308,-296 385,-296 385,-315"/>
<text text-anchor="middle" x="346.5" y="-303" font-family="Helvetica,sans-Serif" font-size="10.00">handleEvent</text>
</a>
</g>
</g>
<!-- Node2&#45;&gt;Node3 -->
<g id="edge2_Node000002_Node000003" class="edge">
<title>Node2&#45;&gt;Node3</title>
<g id="a_edge2_Node000002_Node000003"><a xlink:title=" ">
<path fill="none" stroke="#63b8ff" d="M465.3,-176.33C451.22,-203.59 422,-254.27 385,-286.5 380.82,-290.14 375.81,-293.3 370.84,-295.93"/>
<polygon fill="#63b8ff" stroke="#63b8ff" points="468.57,-177.63 469.95,-167.12 462.32,-174.48 468.57,-177.63"/>
</a>
</g>
</g>
<!-- Node10 -->
<g id="Node000010" class="node">
<title>Node10</title>
<g id="a_Node000010"><a xlink:href="test__accept_connections_8cpp.html#aa1d4e0a7c561db5b8a8715755b59b728" target="_top" xlink:title=" ">
<polygon fill="white" stroke="#666666" points="372.5,-278 320.5,-278 320.5,-259 372.5,-259 372.5,-278"/>
<text text-anchor="middle" x="346.5" y="-266" font-family="Helvetica,sans-Serif" font-size="10.00">TEST_F</text>
</a>
</g>
</g>
<!-- Node2&#45;&gt;Node10 -->
<g id="edge10_Node000002_Node000010" class="edge">
<title>Node2&#45;&gt;Node10</title>
<g id="a_edge10_Node000002_Node000010"><a xlink:title=" ">
<path fill="none" stroke="#63b8ff" d="M460.51,-175.04C444.02,-194.92 415.02,-227.42 385,-249.5 380.3,-252.96 374.87,-256.11 369.63,-258.81"/>
<polygon fill="#63b8ff" stroke="#63b8ff" points="463.37,-177.08 466.98,-167.12 457.94,-172.66 463.37,-177.08"/>
</a>
</g>
</g>
<!-- Node11 -->
<g id="Node000011" class="node">
<title>Node11</title>
<g id="a_Node000011"><a xlink:href="test__accept_connections_8cpp.html#ae76ec85fb2cbe0d8ac24c2f1b47344c0" target="_top" xlink:title=" ">
<polygon fill="white" stroke="#666666" points="372.5,-241 320.5,-241 320.5,-222 372.5,-222 372.5,-241"/>
<text text-anchor="middle" x="346.5" y="-229" font-family="Helvetica,sans-Serif" font-size="10.00">TEST_F</text>
</a>
</g>
</g>
<!-- Node2&#45;&gt;Node11 -->
<g id="edge11_Node000002_Node000011" class="edge">
<title>Node2&#45;&gt;Node11</title>
<g id="a_edge11_Node000002_Node000011"><a xlink:title=" ">
<path fill="none" stroke="#63b8ff" d="M451.23,-172.53C433.34,-183.9 407.91,-199.69 385,-212.5 379.27,-215.71 372.93,-219.01 367.12,-221.94"/>
<polygon fill="#63b8ff" stroke="#63b8ff" points="453.3,-175.36 459.84,-167.03 449.52,-169.46 453.3,-175.36"/>
</a>
</g>
</g>
<!-- Node12 -->
<g id="Node000012" class="node">
<title>Node12</title>
<g id="a_Node000012"><a xlink:href="test__accept_connections_8cpp.html#a78ef81e117d5c1a90c27410155ac152b" target="_top" xlink:title=" ">
<polygon fill="white" stroke="#666666" points="372.5,-204 320.5,-204 320.5,-185 372.5,-185 372.5,-204"/>
<text text-anchor="middle" x="346.5" y="-192" font-family="Helvetica,sans-Serif" font-size="10.00">TEST_F</text>
</a>
</g>
</g>
<!-- Node2&#45;&gt;Node12 -->
<g id="edge12_Node000002_Node000012" class="edge">
<title>Node2&#45;&gt;Node12</title>
<g id="a_edge12_Node000002_Node000012"><a xlink:title=" ">
<path fill="none" stroke="#63b8ff" d="M432.14,-169.84C412.5,-175.56 389.82,-182.17 372.88,-187.11"/>
<polygon fill="#63b8ff" stroke="#63b8ff" points="433.17,-173.19 441.79,-167.03 431.21,-166.47 433.17,-173.19"/>
</a>
</g>
</g>
<!-- Node13 -->
<g id="Node000013" class="node">
<title>Node13</title>
<g id="a_Node000013"><a xlink:href="test__accept_connections_8cpp.html#a9115bbeb96554e4f7f3909f9388bf963" target="_top" xlink:title=" ">
<polygon fill="white" stroke="#666666" points="372.5,-167 320.5,-167 320.5,-148 372.5,-148 372.5,-167"/>
<text text-anchor="middle" x="346.5" y="-155" font-family="Helvetica,sans-Serif" font-size="10.00">TEST_F</text>
</a>
</g>
</g>
<!-- Node2&#45;&gt;Node13 -->
<g id="edge13_Node000002_Node000013" class="edge">
<title>Node2&#45;&gt;Node13</title>
<g id="a_edge13_Node000002_Node000013"><a xlink:title=" ">
<path fill="none" stroke="#63b8ff" d="M410.43,-157.5C397.04,-157.5 383.69,-157.5 372.75,-157.5"/>
<polygon fill="#63b8ff" stroke="#63b8ff" points="410.64,-161 420.64,-157.5 410.64,-154 410.64,-161"/>
</a>
</g>
</g>
<!-- Node14 -->
<g id="Node000014" class="node">
<title>Node14</title>
<g id="a_Node000014"><a xlink:href="test__accept_connections_8cpp.html#aa2bdfce89a8f2540cc790305d84758cc" target="_top" xlink:title=" ">
<polygon fill="white" stroke="#666666" points="372.5,-130 320.5,-130 320.5,-111 372.5,-111 372.5,-130"/>
<text text-anchor="middle" x="346.5" y="-118" font-family="Helvetica,sans-Serif" font-size="10.00">TEST_F</text>
</a>
</g>
</g>
<!-- Node2&#45;&gt;Node14 -->
<g id="edge14_Node000002_Node000014" class="edge">
<title>Node2&#45;&gt;Node14</title>
<g id="a_edge14_Node000002_Node000014"><a xlink:title=" ">
<path fill="none" stroke="#63b8ff" d="M432.14,-145.16C412.5,-139.44 389.82,-132.83 372.88,-127.89"/>
<polygon fill="#63b8ff" stroke="#63b8ff" points="431.21,-148.53 441.79,-147.97 433.17,-141.81 431.21,-148.53"/>
</a>
</g>
</g>
<!-- Node15 -->
<g id="Node000015" class="node">
<title>Node15</title>
<g id="a_Node000015"><a xlink:href="test__accept_connections_8cpp.html#acdd50ab57241500f8d264a71e640923d" target="_top" xlink:title=" ">
<polygon fill="white" stroke="#666666" points="372.5,-93 320.5,-93 320.5,-74 372.5,-74 372.5,-93"/>
<text text-anchor="middle" x="346.5" y="-81" font-family="Helvetica,sans-Serif" font-size="10.00">TEST_F</text>
</a>
</g>
</g>
<!-- Node2&#45;&gt;Node15 -->
<g id="edge15_Node000002_Node000015" class="edge">
<title>Node2&#45;&gt;Node15</title>
<g id="a_edge15_Node000002_Node000015"><a xlink:title=" ">
<path fill="none" stroke="#63b8ff" d="M451.66,-142.22C433.82,-130.53 408.24,-114.3 385,-101.5 379.81,-98.64 374.1,-95.77 368.73,-93.18"/>
<polygon fill="#63b8ff" stroke="#63b8ff" points="449.95,-145.29 460.23,-147.87 453.81,-139.44 449.95,-145.29"/>
</a>
</g>
</g>
<!-- Node16 -->
<g id="Node000016" class="node">
<title>Node16</title>
<g id="a_Node000016"><a xlink:href="test__accept_connections_8cpp.html#a44991816aa7987d964b5c8ff3d5adf3c" target="_top" xlink:title=" ">
<polygon fill="white" stroke="#666666" points="372.5,-56 320.5,-56 320.5,-37 372.5,-37 372.5,-56"/>
<text text-anchor="middle" x="346.5" y="-44" font-family="Helvetica,sans-Serif" font-size="10.00">TEST_F</text>
</a>
</g>
</g>
<!-- Node2&#45;&gt;Node16 -->
<g id="edge16_Node000002_Node000016" class="edge">
<title>Node2&#45;&gt;Node16</title>
<g id="a_edge16_Node000002_Node000016"><a xlink:title=" ">
<path fill="none" stroke="#63b8ff" d="M460.89,-139.95C444.56,-119.76 415.53,-86.57 385,-64.5 380.67,-61.37 375.71,-58.54 370.85,-56.11"/>
<polygon fill="#63b8ff" stroke="#63b8ff" points="458.31,-142.33 467.27,-147.98 463.79,-137.97 458.31,-142.33"/>
</a>
</g>
</g>
<!-- Node17 -->
<g id="Node000017" class="node">
<title>Node17</title>
<g id="a_Node000017"><a xlink:href="test__accept_connections_8cpp.html#a05643f7a40ac0149a8bd8603e4a3b45b" target="_top" xlink:title=" ">
<polygon fill="white" stroke="#666666" points="372.5,-19 320.5,-19 320.5,0 372.5,0 372.5,-19"/>
<text text-anchor="middle" x="346.5" y="-7" font-family="Helvetica,sans-Serif" font-size="10.00">TEST_F</text>
</a>
</g>
</g>
<!-- Node2&#45;&gt;Node17 -->
<g id="edge17_Node000002_Node000017" class="edge">
<title>Node2&#45;&gt;Node17</title>
<g id="a_edge17_Node000002_Node000017"><a xlink:title=" ">
<path fill="none" stroke="#63b8ff" d="M465.43,-138.41C451.5,-110.81 422.48,-59.56 385,-27.5 381.27,-24.31 376.87,-21.54 372.43,-19.2"/>
<polygon fill="#63b8ff" stroke="#63b8ff" points="462.46,-140.31 470.01,-147.74 468.75,-137.22 462.46,-140.31"/>
</a>
</g>
</g>
<!-- Node4 -->
<g id="Node000004" class="node">
<title>Node4</title>
<g id="a_Node000004"><a xlink:href="_server_8cpp.html#ab66b27c2186daacb15a6b13dd43be31b" target="_top" xlink:title="Runs the main event loop with a server object.">
<polygon fill="white" stroke="#666666" points="141,-334 77,-334 77,-315 141,-315 141,-334"/>
<text text-anchor="middle" x="109" y="-322" font-family="Helvetica,sans-Serif" font-size="10.00">runServer</text>
</a>
</g>
</g>
<!-- Node3&#45;&gt;Node4 -->
<g id="edge3_Node000003_Node000004" class="edge">
<title>Node3&#45;&gt;Node4</title>
<g id="a_edge3_Node000003_Node000004"><a xlink:title=" ">
<path fill="none" stroke="#63b8ff" d="M297.73,-309.35C250.95,-313.13 181.04,-318.77 141.05,-321.99"/>
<polygon fill="#63b8ff" stroke="#63b8ff" points="298.24,-312.82 307.92,-308.53 297.67,-305.85 298.24,-312.82"/>
</a>
</g>
</g>
<!-- Node6 -->
<g id="Node000006" class="node">
<title>Node6</title>
<g id="a_Node000006"><a xlink:href="_server_8cpp.html#a115ecd76e344c1007bedc48b9bbdc0fa" target="_top" xlink:title="Performs a graceful shutdown of the server.">
<polygon fill="white" stroke="#666666" points="272,-296 177,-296 177,-277 272,-277 272,-296"/>
<text text-anchor="middle" x="224.5" y="-284" font-family="Helvetica,sans-Serif" font-size="10.00">shutdownServer</text>
</a>
</g>
</g>
<!-- Node3&#45;&gt;Node6 -->
<g id="edge5_Node000003_Node000006" class="edge">
<title>Node3&#45;&gt;Node6</title>
<g id="a_edge5_Node000003_Node000006"><a xlink:title=" ">
<path fill="none" stroke="#63b8ff" d="M297.82,-297.95C289.42,-296.62 280.68,-295.24 272.3,-293.91"/>
<polygon fill="#63b8ff" stroke="#63b8ff" points="297.44,-301.43 307.86,-299.54 298.53,-294.52 297.44,-301.43"/>
</a>
</g>
</g>
<!-- Node5 -->
<g id="Node000005" class="node">
<title>Node5</title>
<g id="a_Node000005"><a xlink:href="main_8cpp.html#ad53223b8779f25caeddb70a3b9172967" target="_top" xlink:title=" ">
<polygon fill="white" stroke="#666666" points="41,-334 0,-334 0,-315 41,-315 41,-334"/>
<text text-anchor="middle" x="20.5" y="-322" font-family="Helvetica,sans-Serif" font-size="10.00">main</text>
</a>
</g>
</g>
<!-- Node4&#45;&gt;Node5 -->
<g id="edge4_Node000004_Node000005" class="edge">
<title>Node4&#45;&gt;Node5</title>
<g id="a_edge4_Node000004_Node000005"><a xlink:title=" ">
<path fill="none" stroke="#63b8ff" d="M66.5,-324.5C57.64,-324.5 48.68,-324.5 41.11,-324.5"/>
<polygon fill="#63b8ff" stroke="#63b8ff" points="66.77,-328 76.77,-324.5 66.77,-321 66.77,-328"/>
</a>
</g>
</g>
<!-- Node6&#45;&gt;Node4 -->
<g id="edge6_Node000006_Node000004" class="edge">
<title>Node6&#45;&gt;Node4</title>
<g id="a_edge6_Node000006_Node000004"><a xlink:title=" ">
<path fill="none" stroke="#63b8ff" d="M185.19,-299.33C169.96,-304.42 152.74,-310.19 138.63,-314.91"/>
<polygon fill="#63b8ff" stroke="#63b8ff" points="186.49,-302.58 194.86,-296.09 184.27,-295.94 186.49,-302.58"/>
</a>
</g>
</g>
<!-- Node7 -->
<g id="Node000007" class="node">
<title>Node7</title>
<g id="a_Node000007"><a xlink:href="test__shutdown_server_8cpp.html#a6462dc91a572c9969b759806ed15590b" target="_top" xlink:title=" ">
<polygon fill="white" stroke="#666666" points="135,-297 83,-297 83,-278 135,-278 135,-297"/>
<text text-anchor="middle" x="109" y="-285" font-family="Helvetica,sans-Serif" font-size="10.00">TEST_F</text>
</a>
</g>
</g>
<!-- Node6&#45;&gt;Node7 -->
<g id="edge7_Node000006_Node000007" class="edge">
<title>Node6&#45;&gt;Node7</title>
<g id="a_edge7_Node000006_Node000007"><a xlink:title=" ">
<path fill="none" stroke="#63b8ff" d="M166.63,-287C155.63,-287.1 144.64,-287.19 135.3,-287.28"/>
<polygon fill="#63b8ff" stroke="#63b8ff" points="166.71,-290.5 176.68,-286.91 166.65,-283.5 166.71,-290.5"/>
</a>
</g>
</g>
<!-- Node8 -->
<g id="Node000008" class="node">
<title>Node8</title>
<g id="a_Node000008"><a xlink:href="test__shutdown_server_8cpp.html#a69fea7b0fb329821fdd955271edc65ee" target="_top" xlink:title=" ">
<polygon fill="white" stroke="#666666" points="135,-260 83,-260 83,-241 135,-241 135,-260"/>
<text text-anchor="middle" x="109" y="-248" font-family="Helvetica,sans-Serif" font-size="10.00">TEST_F</text>
</a>
</g>
</g>
<!-- Node6&#45;&gt;Node8 -->
<g id="edge8_Node000006_Node000008" class="edge">
<title>Node6&#45;&gt;Node8</title>
<g id="a_edge8_Node000006_Node000008"><a xlink:title=" ">
<path fill="none" stroke="#63b8ff" d="M183.67,-273.87C167.58,-268.76 149.49,-263.03 135.26,-258.51"/>
<polygon fill="#63b8ff" stroke="#63b8ff" points="182.79,-277.26 193.38,-276.95 184.91,-270.59 182.79,-277.26"/>
</a>
</g>
</g>
<!-- Node9 -->
<g id="Node000009" class="node">
<title>Node9</title>
<g id="a_Node000009"><a xlink:href="test__shutdown_server_8cpp.html#a224e0b58937c3db439ffeef179620439" target="_top" xlink:title=" ">
<polygon fill="white" stroke="#666666" points="135,-223 83,-223 83,-204 135,-204 135,-223"/>
<text text-anchor="middle" x="109" y="-211" font-family="Helvetica,sans-Serif" font-size="10.00">TEST_F</text>
</a>
</g>
</g>
<!-- Node6&#45;&gt;Node9 -->
<g id="edge9_Node000006_Node000009" class="edge">
<title>Node6&#45;&gt;Node9</title>
<g id="a_edge9_Node000006_Node000009"><a xlink:title=" ">
<path fill="none" stroke="#63b8ff" d="M201.25,-271.12C184.78,-259.88 161.71,-244.4 141,-231.5 136.46,-228.67 131.47,-225.71 126.84,-223.03"/>
<polygon fill="#63b8ff" stroke="#63b8ff" points="199.43,-274.12 209.66,-276.89 203.39,-268.35 199.43,-274.12"/>
</a>
</g>
</g>
</g>
</svg>
