<?xml version="1.0" encoding="UTF-8" standalone="no"?>
<!DOCTYPE svg PUBLIC "-//W3C//DTD SVG 1.1//EN"
 "http://www.w3.org/Graphics/SVG/1.1/DTD/svg11.dtd">
<!-- Generated by graphviz version 2.43.0 (0)
 -->
<!-- Title: Server::retrieveBoundSocketInfo Pages: 1 -->
<svg width="717pt" height="39pt"
 viewBox="0.00 0.00 717.00 39.00" xmlns="http://www.w3.org/2000/svg" xmlns:xlink="http://www.w3.org/1999/xlink">
<g id="graph0" class="graph" transform="scale(1 1) rotate(0) translate(4 35)">
<title>Server::retrieveBoundSocketInfo</title>
<!-- Node1 -->
<g id="node1" class="node">
<title>Node1</title>
<g id="a_node1"><a xlink:title="Wrapper function to SocketPolicy::retrieveBoundSocketInfo.">
<polygon fill="#bfbfbf" stroke="black" points="0,-6 0,-25 174,-25 174,-6 0,-6"/>
<text text-anchor="middle" x="87" y="-13" font-family="Helvetica,sans-Serif" font-size="10.00">Server::retrieveBoundSocketInfo</text>
</a>
</g>
</g>
<!-- Node2 -->
<g id="node2" class="node">
<title>Node2</title>
<g id="a_node2"><a xlink:href="class_socket_policy.html#a0e8aacc8e631653c24d321c38f6c0f33" target="_top" xlink:title="Retrieves info of socket to which sockfd is bound.">
<polygon fill="none" stroke="black" points="210,-0.5 210,-30.5 362,-30.5 362,-0.5 210,-0.5"/>
<text text-anchor="start" x="218" y="-18.5" font-family="Helvetica,sans-Serif" font-size="10.00">SocketPolicy::retrieveBound</text>
<text text-anchor="middle" x="286" y="-7.5" font-family="Helvetica,sans-Serif" font-size="10.00">SocketInfo</text>
</a>
</g>
</g>
<!-- Node1&#45;&gt;Node2 -->
<g id="edge1" class="edge">
<title>Node1&#45;&gt;Node2</title>
<path fill="none" stroke="midnightblue" d="M174.12,-15.5C182.59,-15.5 191.17,-15.5 199.63,-15.5"/>
<polygon fill="midnightblue" stroke="midnightblue" points="199.86,-19 209.86,-15.5 199.86,-12 199.86,-19"/>
</g>
<!-- Node3 -->
<g id="node3" class="node">
<title>Node3</title>
<g id="a_node3"><a xlink:href="class_socket_policy.html#a97b8a28bbe5d9e9ee637a3258a359b98" target="_top" xlink:title="Retrieve socket information.">
<polygon fill="none" stroke="black" points="398,-6 398,-25 571,-25 571,-6 398,-6"/>
<text text-anchor="middle" x="484.5" y="-13" font-family="Helvetica,sans-Serif" font-size="10.00">SocketPolicy::retrieveSocketInfo</text>
</a>
</g>
</g>
<!-- Node2&#45;&gt;Node3 -->
<g id="edge2" class="edge">
<title>Node2&#45;&gt;Node3</title>
<path fill="none" stroke="midnightblue" d="M362.13,-15.5C370.54,-15.5 379.19,-15.5 387.81,-15.5"/>
<polygon fill="midnightblue" stroke="midnightblue" points="387.91,-19 397.91,-15.5 387.91,-12 387.91,-19"/>
</g>
<!-- Node4 -->
<g id="node4" class="node">
<title>Node4</title>
<g id="a_node4"><a xlink:href="namespacewebutils.html#afd1710fd588c15830d10aef146da8ddb" target="_top" xlink:title="Convert a type to a string.">
<polygon fill="none" stroke="black" points="607,-6 607,-25 709,-25 709,-6 607,-6"/>
<text text-anchor="middle" x="658" y="-13" font-family="Helvetica,sans-Serif" font-size="10.00">webutils::toString</text>
</a>
</g>
</g>
<!-- Node3&#45;&gt;Node4 -->
<g id="edge3" class="edge">
<title>Node3&#45;&gt;Node4</title>
<path fill="none" stroke="midnightblue" d="M571.25,-15.5C579.85,-15.5 588.44,-15.5 596.69,-15.5"/>
<polygon fill="midnightblue" stroke="midnightblue" points="596.93,-19 606.93,-15.5 596.93,-12 596.93,-19"/>
</g>
</g>
</svg>
