<?xml version="1.0" encoding="UTF-8" standalone="no"?>
<!DOCTYPE svg PUBLIC "-//W3C//DTD SVG 1.1//EN"
 "http://www.w3.org/Graphics/SVG/1.1/DTD/svg11.dtd">
<!-- Generated by graphviz version 2.43.0 (0)
 -->
<!-- Title: Server::findTargetResource Pages: 1 -->
<svg width="1104pt" height="324pt"
 viewBox="0.00 0.00 1104.00 324.00" xmlns="http://www.w3.org/2000/svg" xmlns:xlink="http://www.w3.org/1999/xlink">
<g id="graph0" class="graph" transform="scale(1 1) rotate(0) translate(4 320)">
<title>Server::findTargetResource</title>
<!-- Node1 -->
<g id="Node000001" class="node">
<title>Node1</title>
<g id="a_Node000001"><a xlink:title="Wrapper function to TargetResourceHandler::execute.">
<polygon fill="#999999" stroke="#666666" points="1096,-111 949,-111 949,-92 1096,-92 1096,-111"/>
<text text-anchor="middle" x="1022.5" y="-99" font-family="Helvetica,sans-Serif" font-size="10.00">Server::findTargetResource</text>
</a>
</g>
</g>
<!-- Node2 -->
<g id="Node000002" class="node">
<title>Node2</title>
<g id="a_Node000002"><a xlink:href="_server_8cpp.html#a83350eae81b96dd7b301d1238268ffdb" target="_top" xlink:title="Handles the complete request header received from a client.">
<polygon fill="white" stroke="#666666" points="913,-111 741,-111 741,-92 913,-92 913,-111"/>
<text text-anchor="middle" x="827" y="-99" font-family="Helvetica,sans-Serif" font-size="10.00">handleCompleteRequestHeader</text>
</a>
</g>
</g>
<!-- Node1&#45;&gt;Node2 -->
<g id="edge1_Node000001_Node000002" class="edge">
<title>Node1&#45;&gt;Node2</title>
<g id="a_edge1_Node000001_Node000002"><a xlink:title=" ">
<path fill="none" stroke="#63b8ff" d="M938.65,-101.5C930.18,-101.5 921.56,-101.5 913.07,-101.5"/>
<polygon fill="#63b8ff" stroke="#63b8ff" points="938.9,-105 948.9,-101.5 938.9,-98 938.9,-105"/>
</a>
</g>
</g>
<!-- Node3 -->
<g id="Node000003" class="node">
<title>Node3</title>
<g id="a_Node000003"><a xlink:href="_server_8cpp.html#aa45d6529fd7be9b7adf788a9679ae34b" target="_top" xlink:title="Receive request header from a client.">
<polygon fill="white" stroke="#666666" points="705,-204 561,-204 561,-185 705,-185 705,-204"/>
<text text-anchor="middle" x="633" y="-192" font-family="Helvetica,sans-Serif" font-size="10.00">connectionReceiveHeader</text>
</a>
</g>
</g>
<!-- Node2&#45;&gt;Node3 -->
<g id="edge2_Node000002_Node000003" class="edge">
<title>Node2&#45;&gt;Node3</title>
<g id="a_edge2_Node000002_Node000003"><a xlink:title=" ">
<path fill="none" stroke="#63b8ff" d="M805.2,-117.17C781.92,-134.03 742.52,-160.57 705,-176.5 697.16,-179.83 688.56,-182.65 680.13,-185"/>
<polygon fill="#63b8ff" stroke="#63b8ff" points="807.31,-119.97 813.3,-111.23 803.17,-114.32 807.31,-119.97"/>
</a>
</g>
</g>
<!-- Node17 -->
<g id="Node000017" class="node">
<title>Node17</title>
<g id="a_Node000017"><a xlink:href="test__handle_complete_request_header_8cpp.html#a04308ae6ca27d5aac2ee1ae95e818f78" target="_top" xlink:title=" ">
<polygon fill="white" stroke="#666666" points="659,-167 607,-167 607,-148 659,-148 659,-167"/>
<text text-anchor="middle" x="633" y="-155" font-family="Helvetica,sans-Serif" font-size="10.00">TEST_F</text>
</a>
</g>
</g>
<!-- Node2&#45;&gt;Node17 -->
<g id="edge17_Node000002_Node000017" class="edge">
<title>Node2&#45;&gt;Node17</title>
<g id="a_edge17_Node000002_Node000017"><a xlink:title=" ">
<path fill="none" stroke="#63b8ff" d="M787.61,-114.16C763.9,-121.83 732.8,-131.62 705,-139.5 689.83,-143.8 672.7,-148.16 659.06,-151.51"/>
<polygon fill="#63b8ff" stroke="#63b8ff" points="788.86,-117.44 797.29,-111.02 786.7,-110.78 788.86,-117.44"/>
</a>
</g>
</g>
<!-- Node18 -->
<g id="Node000018" class="node">
<title>Node18</title>
<g id="a_Node000018"><a xlink:href="test__handle_complete_request_header_8cpp.html#a00d3c07453ceb8ca6576a951222a7829" target="_top" xlink:title=" ">
<polygon fill="white" stroke="#666666" points="659,-130 607,-130 607,-111 659,-111 659,-130"/>
<text text-anchor="middle" x="633" y="-118" font-family="Helvetica,sans-Serif" font-size="10.00">TEST_F</text>
</a>
</g>
</g>
<!-- Node2&#45;&gt;Node18 -->
<g id="edge18_Node000002_Node000018" class="edge">
<title>Node2&#45;&gt;Node18</title>
<g id="a_edge18_Node000002_Node000018"><a xlink:title=" ">
<path fill="none" stroke="#63b8ff" d="M730.82,-110.92C704.34,-113.54 677.78,-116.17 659.19,-118.01"/>
<polygon fill="#63b8ff" stroke="#63b8ff" points="731.34,-114.38 740.95,-109.92 730.65,-107.42 731.34,-114.38"/>
</a>
</g>
</g>
<!-- Node19 -->
<g id="Node000019" class="node">
<title>Node19</title>
<g id="a_Node000019"><a xlink:href="test__handle_complete_request_header_8cpp.html#a5705d4672adfefa8169bd3e9406e75f6" target="_top" xlink:title=" ">
<polygon fill="white" stroke="#666666" points="659,-93 607,-93 607,-74 659,-74 659,-93"/>
<text text-anchor="middle" x="633" y="-81" font-family="Helvetica,sans-Serif" font-size="10.00">TEST_F</text>
</a>
</g>
</g>
<!-- Node2&#45;&gt;Node19 -->
<g id="edge19_Node000002_Node000019" class="edge">
<title>Node2&#45;&gt;Node19</title>
<g id="a_edge19_Node000002_Node000019"><a xlink:title=" ">
<path fill="none" stroke="#63b8ff" d="M730.82,-92.58C704.34,-90.09 677.78,-87.6 659.19,-85.86"/>
<polygon fill="#63b8ff" stroke="#63b8ff" points="730.66,-96.08 740.95,-93.53 731.32,-89.11 730.66,-96.08"/>
</a>
</g>
</g>
<!-- Node20 -->
<g id="Node000020" class="node">
<title>Node20</title>
<g id="a_Node000020"><a xlink:href="test__handle_complete_request_header_8cpp.html#a63c4237c8b0edef77a20f599133d77d4" target="_top" xlink:title=" ">
<polygon fill="white" stroke="#666666" points="659,-56 607,-56 607,-37 659,-37 659,-56"/>
<text text-anchor="middle" x="633" y="-44" font-family="Helvetica,sans-Serif" font-size="10.00">TEST_F</text>
</a>
</g>
</g>
<!-- Node2&#45;&gt;Node20 -->
<g id="edge20_Node000002_Node000020" class="edge">
<title>Node2&#45;&gt;Node20</title>
<g id="a_edge20_Node000002_Node000020"><a xlink:title=" ">
<path fill="none" stroke="#63b8ff" d="M785.13,-89.03C761.72,-81.97 731.76,-73.06 705,-65.5 689.77,-61.2 672.64,-56.61 659.02,-53.01"/>
<polygon fill="#63b8ff" stroke="#63b8ff" points="784.15,-92.39 794.73,-91.94 786.17,-85.69 784.15,-92.39"/>
</a>
</g>
</g>
<!-- Node21 -->
<g id="Node000021" class="node">
<title>Node21</title>
<g id="a_Node000021"><a xlink:href="test__handle_complete_request_header_8cpp.html#a7e6245bb424d27191d406b619a2fe40b" target="_top" xlink:title=" ">
<polygon fill="white" stroke="#666666" points="659,-19 607,-19 607,0 659,0 659,-19"/>
<text text-anchor="middle" x="633" y="-7" font-family="Helvetica,sans-Serif" font-size="10.00">TEST_F</text>
</a>
</g>
</g>
<!-- Node2&#45;&gt;Node21 -->
<g id="edge21_Node000002_Node000021" class="edge">
<title>Node2&#45;&gt;Node21</title>
<g id="a_edge21_Node000002_Node000021"><a xlink:title=" ">
<path fill="none" stroke="#63b8ff" d="M804.4,-85.89C780.95,-69.57 741.87,-44.18 705,-28.5 690.32,-22.26 673.05,-17.58 659.22,-14.43"/>
<polygon fill="#63b8ff" stroke="#63b8ff" points="802.69,-88.96 812.88,-91.87 806.72,-83.24 802.69,-88.96"/>
</a>
</g>
</g>
<!-- Node4 -->
<g id="Node000004" class="node">
<title>Node4</title>
<g id="a_Node000004"><a xlink:href="_server_8cpp.html#afb62203471d9a64b23d0267d5a4a261a" target="_top" xlink:title="Handle a client connection.">
<polygon fill="white" stroke="#666666" points="525,-297 421,-297 421,-278 525,-278 525,-297"/>
<text text-anchor="middle" x="473" y="-285" font-family="Helvetica,sans-Serif" font-size="10.00">handleConnection</text>
</a>
</g>
</g>
<!-- Node3&#45;&gt;Node4 -->
<g id="edge3_Node000003_Node000004" class="edge">
<title>Node3&#45;&gt;Node4</title>
<g id="a_edge3_Node000003_Node000004"><a xlink:title=" ">
<path fill="none" stroke="#63b8ff" d="M612.48,-210.65C591.79,-227.15 557.65,-252.7 525,-269.5 518.82,-272.68 511.95,-275.53 505.31,-277.96"/>
<polygon fill="#63b8ff" stroke="#63b8ff" points="614.91,-213.18 620.48,-204.18 610.51,-207.74 614.91,-213.18"/>
</a>
</g>
</g>
<!-- Node12 -->
<g id="Node000012" class="node">
<title>Node12</title>
<g id="a_Node000012"><a xlink:href="test__connection_receive_header_8cpp.html#ae40546436ca5ae6d8af1f754dfff4a98" target="_top" xlink:title=" ">
<polygon fill="white" stroke="#666666" points="499,-260 447,-260 447,-241 499,-241 499,-260"/>
<text text-anchor="middle" x="473" y="-248" font-family="Helvetica,sans-Serif" font-size="10.00">TEST_F</text>
</a>
</g>
</g>
<!-- Node3&#45;&gt;Node12 -->
<g id="edge12_Node000003_Node000012" class="edge">
<title>Node3&#45;&gt;Node12</title>
<g id="a_edge12_Node000003_Node000012"><a xlink:title=" ">
<path fill="none" stroke="#63b8ff" d="M595.52,-207.47C574.84,-214.83 548.48,-224.19 525,-232.5 516.59,-235.48 507.4,-238.72 499.17,-241.63"/>
<polygon fill="#63b8ff" stroke="#63b8ff" points="596.93,-210.69 605.18,-204.04 594.59,-204.09 596.93,-210.69"/>
</a>
</g>
</g>
<!-- Node13 -->
<g id="Node000013" class="node">
<title>Node13</title>
<g id="a_Node000013"><a xlink:href="test__connection_receive_header_8cpp.html#a0952222a64d85993a5b3d9022826859c" target="_top" xlink:title=" ">
<polygon fill="white" stroke="#666666" points="499,-223 447,-223 447,-204 499,-204 499,-223"/>
<text text-anchor="middle" x="473" y="-211" font-family="Helvetica,sans-Serif" font-size="10.00">TEST_F</text>
</a>
</g>
</g>
<!-- Node3&#45;&gt;Node13 -->
<g id="edge13_Node000003_Node000013" class="edge">
<title>Node3&#45;&gt;Node13</title>
<g id="a_edge13_Node000003_Node000013"><a xlink:title=" ">
<path fill="none" stroke="#63b8ff" d="M550.72,-204.27C531.89,-206.54 513.25,-208.78 499.05,-210.49"/>
<polygon fill="#63b8ff" stroke="#63b8ff" points="551.35,-207.72 560.86,-203.06 550.51,-200.77 551.35,-207.72"/>
</a>
</g>
</g>
<!-- Node14 -->
<g id="Node000014" class="node">
<title>Node14</title>
<g id="a_Node000014"><a xlink:href="test__connection_receive_header_8cpp.html#a492a1135a23e13de8b412f266f5422dd" target="_top" xlink:title=" ">
<polygon fill="white" stroke="#666666" points="499,-186 447,-186 447,-167 499,-167 499,-186"/>
<text text-anchor="middle" x="473" y="-174" font-family="Helvetica,sans-Serif" font-size="10.00">TEST_F</text>
</a>
</g>
</g>
<!-- Node3&#45;&gt;Node14 -->
<g id="edge14_Node000003_Node000014" class="edge">
<title>Node3&#45;&gt;Node14</title>
<g id="a_edge14_Node000003_Node000014"><a xlink:title=" ">
<path fill="none" stroke="#63b8ff" d="M550.72,-185.24C531.89,-183.1 513.25,-180.97 499.05,-179.35"/>
<polygon fill="#63b8ff" stroke="#63b8ff" points="550.53,-188.74 560.86,-186.4 551.32,-181.79 550.53,-188.74"/>
</a>
</g>
</g>
<!-- Node15 -->
<g id="Node000015" class="node">
<title>Node15</title>
<g id="a_Node000015"><a xlink:href="test__connection_receive_header_8cpp.html#a42aad638a3786700de9108d63bbba850" target="_top" xlink:title=" ">
<polygon fill="white" stroke="#666666" points="499,-149 447,-149 447,-130 499,-130 499,-149"/>
<text text-anchor="middle" x="473" y="-137" font-family="Helvetica,sans-Serif" font-size="10.00">TEST_F</text>
</a>
</g>
</g>
<!-- Node3&#45;&gt;Node15 -->
<g id="edge15_Node000003_Node000015" class="edge">
<title>Node3&#45;&gt;Node15</title>
<g id="a_edge15_Node000003_Node000015"><a xlink:title=" ">
<path fill="none" stroke="#63b8ff" d="M578.17,-182.16C572.32,-180.44 566.5,-178.54 561,-176.5 544.23,-170.27 541.41,-165.63 525,-158.5 516.68,-154.88 507.43,-151.31 499.12,-148.25"/>
<polygon fill="#63b8ff" stroke="#63b8ff" points="577.42,-185.59 587.99,-184.92 579.3,-178.85 577.42,-185.59"/>
</a>
</g>
</g>
<!-- Node16 -->
<g id="Node000016" class="node">
<title>Node16</title>
<g id="a_Node000016"><a xlink:href="test__connection_receive_header_8cpp.html#aa34cc8553c29e19d06c302699e916a3e" target="_top" xlink:title=" ">
<polygon fill="white" stroke="#666666" points="499,-112 447,-112 447,-93 499,-93 499,-112"/>
<text text-anchor="middle" x="473" y="-100" font-family="Helvetica,sans-Serif" font-size="10.00">TEST_F</text>
</a>
</g>
</g>
<!-- Node3&#45;&gt;Node16 -->
<g id="edge16_Node000003_Node000016" class="edge">
<title>Node3&#45;&gt;Node16</title>
<g id="a_edge16_Node000003_Node000016"><a xlink:title=" ">
<path fill="none" stroke="#63b8ff" d="M567.55,-180.6C565.28,-179.35 563.08,-177.99 561,-176.5 537.22,-159.53 547.83,-139.73 525,-121.5 517.54,-115.54 508.03,-111.33 499.25,-108.41"/>
<polygon fill="#63b8ff" stroke="#63b8ff" points="566.13,-183.8 576.67,-184.89 569.11,-177.47 566.13,-183.8"/>
</a>
</g>
</g>
<!-- Node5 -->
<g id="Node000005" class="node">
<title>Node5</title>
<g id="a_Node000005"><a xlink:href="_server_8cpp.html#af9f4479a6262c17deef89938118d27f4" target="_top" xlink:title="Accepts new connections or handles existing ones.">
<polygon fill="white" stroke="#666666" points="385,-297 308,-297 308,-278 385,-278 385,-297"/>
<text text-anchor="middle" x="346.5" y="-285" font-family="Helvetica,sans-Serif" font-size="10.00">handleEvent</text>
</a>
</g>
</g>
<!-- Node4&#45;&gt;Node5 -->
<g id="edge4_Node000004_Node000005" class="edge">
<title>Node4&#45;&gt;Node5</title>
<g id="a_edge4_Node000004_Node000005"><a xlink:title=" ">
<path fill="none" stroke="#63b8ff" d="M410.49,-287.5C401.8,-287.5 393.1,-287.5 385.05,-287.5"/>
<polygon fill="#63b8ff" stroke="#63b8ff" points="410.64,-291 420.64,-287.5 410.64,-284 410.64,-291"/>
</a>
</g>
</g>
<!-- Node6 -->
<g id="Node000006" class="node">
<title>Node6</title>
<g id="a_Node000006"><a xlink:href="_server_8cpp.html#ab66b27c2186daacb15a6b13dd43be31b" target="_top" xlink:title="Runs the main event loop with a server object.">
<polygon fill="white" stroke="#666666" points="141,-316 77,-316 77,-297 141,-297 141,-316"/>
<text text-anchor="middle" x="109" y="-304" font-family="Helvetica,sans-Serif" font-size="10.00">runServer</text>
</a>
</g>
</g>
<!-- Node5&#45;&gt;Node6 -->
<g id="edge5_Node000005_Node000006" class="edge">
<title>Node5&#45;&gt;Node6</title>
<g id="a_edge5_Node000005_Node000006"><a xlink:title=" ">
<path fill="none" stroke="#63b8ff" d="M297.73,-291.35C250.95,-295.13 181.04,-300.77 141.05,-303.99"/>
<polygon fill="#63b8ff" stroke="#63b8ff" points="298.24,-294.82 307.92,-290.53 297.67,-287.85 298.24,-294.82"/>
</a>
</g>
</g>
<!-- Node8 -->
<g id="Node000008" class="node">
<title>Node8</title>
<g id="a_Node000008"><a xlink:href="_server_8cpp.html#a115ecd76e344c1007bedc48b9bbdc0fa" target="_top" xlink:title="Performs a graceful shutdown of the server.">
<polygon fill="white" stroke="#666666" points="272,-278 177,-278 177,-259 272,-259 272,-278"/>
<text text-anchor="middle" x="224.5" y="-266" font-family="Helvetica,sans-Serif" font-size="10.00">shutdownServer</text>
</a>
</g>
</g>
<!-- Node5&#45;&gt;Node8 -->
<g id="edge7_Node000005_Node000008" class="edge">
<title>Node5&#45;&gt;Node8</title>
<g id="a_edge7_Node000005_Node000008"><a xlink:title=" ">
<path fill="none" stroke="#63b8ff" d="M297.82,-279.95C289.42,-278.62 280.68,-277.24 272.3,-275.91"/>
<polygon fill="#63b8ff" stroke="#63b8ff" points="297.44,-283.43 307.86,-281.54 298.53,-276.52 297.44,-283.43"/>
</a>
</g>
</g>
<!-- Node7 -->
<g id="Node000007" class="node">
<title>Node7</title>
<g id="a_Node000007"><a xlink:href="main_8cpp.html#a3c04138a5bfe5d72780bb7e82a18e627" target="_top" xlink:title=" ">
<polygon fill="white" stroke="#666666" points="41,-316 0,-316 0,-297 41,-297 41,-316"/>
<text text-anchor="middle" x="20.5" y="-304" font-family="Helvetica,sans-Serif" font-size="10.00">main</text>
</a>
</g>
</g>
<!-- Node6&#45;&gt;Node7 -->
<g id="edge6_Node000006_Node000007" class="edge">
<title>Node6&#45;&gt;Node7</title>
<g id="a_edge6_Node000006_Node000007"><a xlink:title=" ">
<path fill="none" stroke="#63b8ff" d="M66.5,-306.5C57.64,-306.5 48.68,-306.5 41.11,-306.5"/>
<polygon fill="#63b8ff" stroke="#63b8ff" points="66.77,-310 76.77,-306.5 66.77,-303 66.77,-310"/>
</a>
</g>
</g>
<!-- Node8&#45;&gt;Node6 -->
<g id="edge8_Node000008_Node000006" class="edge">
<title>Node8&#45;&gt;Node6</title>
<g id="a_edge8_Node000008_Node000006"><a xlink:title=" ">
<path fill="none" stroke="#63b8ff" d="M185.19,-281.33C169.96,-286.42 152.74,-292.19 138.63,-296.91"/>
<polygon fill="#63b8ff" stroke="#63b8ff" points="186.49,-284.58 194.86,-278.09 184.27,-277.94 186.49,-284.58"/>
</a>
</g>
</g>
<!-- Node9 -->
<g id="Node000009" class="node">
<title>Node9</title>
<g id="a_Node000009"><a xlink:href="test__shutdown_server_8cpp.html#a6462dc91a572c9969b759806ed15590b" target="_top" xlink:title=" ">
<polygon fill="white" stroke="#666666" points="135,-279 83,-279 83,-260 135,-260 135,-279"/>
<text text-anchor="middle" x="109" y="-267" font-family="Helvetica,sans-Serif" font-size="10.00">TEST_F</text>
</a>
</g>
</g>
<!-- Node8&#45;&gt;Node9 -->
<g id="edge9_Node000008_Node000009" class="edge">
<title>Node8&#45;&gt;Node9</title>
<g id="a_edge9_Node000008_Node000009"><a xlink:title=" ">
<path fill="none" stroke="#63b8ff" d="M166.63,-269C155.63,-269.1 144.64,-269.19 135.3,-269.28"/>
<polygon fill="#63b8ff" stroke="#63b8ff" points="166.71,-272.5 176.68,-268.91 166.65,-265.5 166.71,-272.5"/>
</a>
</g>
</g>
<!-- Node10 -->
<g id="Node000010" class="node">
<title>Node10</title>
<g id="a_Node000010"><a xlink:href="test__shutdown_server_8cpp.html#a69fea7b0fb329821fdd955271edc65ee" target="_top" xlink:title=" ">
<polygon fill="white" stroke="#666666" points="135,-242 83,-242 83,-223 135,-223 135,-242"/>
<text text-anchor="middle" x="109" y="-230" font-family="Helvetica,sans-Serif" font-size="10.00">TEST_F</text>
</a>
</g>
</g>
<!-- Node8&#45;&gt;Node10 -->
<g id="edge10_Node000008_Node000010" class="edge">
<title>Node8&#45;&gt;Node10</title>
<g id="a_edge10_Node000008_Node000010"><a xlink:title=" ">
<path fill="none" stroke="#63b8ff" d="M183.67,-255.87C167.58,-250.76 149.49,-245.03 135.26,-240.51"/>
<polygon fill="#63b8ff" stroke="#63b8ff" points="182.79,-259.26 193.38,-258.95 184.91,-252.59 182.79,-259.26"/>
</a>
</g>
</g>
<!-- Node11 -->
<g id="Node000011" class="node">
<title>Node11</title>
<g id="a_Node000011"><a xlink:href="test__shutdown_server_8cpp.html#ae0ede4f52ef6c742c532c14b92b6179a" target="_top" xlink:title=" ">
<polygon fill="white" stroke="#666666" points="135,-205 83,-205 83,-186 135,-186 135,-205"/>
<text text-anchor="middle" x="109" y="-193" font-family="Helvetica,sans-Serif" font-size="10.00">TEST_F</text>
</a>
</g>
</g>
<!-- Node8&#45;&gt;Node11 -->
<g id="edge11_Node000008_Node000011" class="edge">
<title>Node8&#45;&gt;Node11</title>
<g id="a_edge11_Node000008_Node000011"><a xlink:title=" ">
<path fill="none" stroke="#63b8ff" d="M200.53,-253.2C184.04,-242.29 161.25,-227.33 141,-214.5 136.09,-211.39 130.71,-208.06 125.83,-205.08"/>
<polygon fill="#63b8ff" stroke="#63b8ff" points="198.71,-256.2 208.98,-258.81 202.58,-250.36 198.71,-256.2"/>
</a>
</g>
</g>
</g>
</svg>
