<?xml version="1.0" encoding="UTF-8" standalone="no"?>
<!DOCTYPE svg PUBLIC "-//W3C//DTD SVG 1.1//EN"
 "http://www.w3.org/Graphics/SVG/1.1/DTD/svg11.dtd">
<!-- Generated by graphviz version 2.43.0 (0)
 -->
<!-- Title: RequestParser::parseBody Pages: 1 -->
<svg width="900pt" height="28pt"
 viewBox="0.00 0.00 900.00 28.00" xmlns="http://www.w3.org/2000/svg" xmlns:xlink="http://www.w3.org/1999/xlink">
<g id="graph0" class="graph" transform="scale(1 1) rotate(0) translate(4 24)">
<title>RequestParser::parseBody</title>
<!-- Node1 -->
<g id="node1" class="node">
<title>Node1</title>
<g id="a_node1"><a xlink:title="Parses the body of an HTTP request.">
<polygon fill="#bfbfbf" stroke="black" points="748,-0.5 748,-19.5 892,-19.5 892,-0.5 748,-0.5"/>
<text text-anchor="middle" x="820" y="-7.5" font-family="Helvetica,sans-Serif" font-size="10.00">RequestParser::parseBody</text>
</a>
</g>
</g>
<!-- Node2 -->
<g id="node2" class="node">
<title>Node2</title>
<g id="a_node2"><a xlink:href="class_server.html#ace46f4e07ab67db60e3790a32b2e8e0a" target="_top" xlink:title="Wrapper function to RequestParser::parseBody.">
<polygon fill="none" stroke="black" points="606,-0.5 606,-19.5 712,-19.5 712,-0.5 606,-0.5"/>
<text text-anchor="middle" x="659" y="-7.5" font-family="Helvetica,sans-Serif" font-size="10.00">Server::parseBody</text>
</a>
</g>
</g>
<!-- Node1&#45;&gt;Node2 -->
<g id="edge1" class="edge">
<title>Node1&#45;&gt;Node2</title>
<path fill="none" stroke="midnightblue" d="M737.65,-10C728.93,-10 720.24,-10 712,-10"/>
<polygon fill="midnightblue" stroke="midnightblue" points="737.87,-13.5 747.87,-10 737.87,-6.5 737.87,-13.5"/>
</g>
<!-- Node3 -->
<g id="node3" class="node">
<title>Node3</title>
<g id="a_node3"><a xlink:href="_server_8hpp.html#a3f930db051b00ade521e2633cee948bd" target="_top" xlink:title="Receives the body of a connection.">
<polygon fill="none" stroke="black" points="436,-0.5 436,-19.5 570,-19.5 570,-0.5 436,-0.5"/>
<text text-anchor="middle" x="503" y="-7.5" font-family="Helvetica,sans-Serif" font-size="10.00">connectionReceiveBody</text>
</a>
</g>
</g>
<!-- Node2&#45;&gt;Node3 -->
<g id="edge2" class="edge">
<title>Node2&#45;&gt;Node3</title>
<path fill="none" stroke="midnightblue" d="M595.69,-10C587.24,-10 578.53,-10 570.01,-10"/>
<polygon fill="midnightblue" stroke="midnightblue" points="595.86,-13.5 605.86,-10 595.86,-6.5 595.86,-13.5"/>
</g>
<!-- Node4 -->
<g id="node4" class="node">
<title>Node4</title>
<g id="a_node4"><a xlink:href="_server_8hpp.html#ac74673700d26f829e84f0b5011c35c94" target="_top" xlink:title="Handle a client connection.">
<polygon fill="none" stroke="black" points="296,-0.5 296,-19.5 400,-19.5 400,-0.5 296,-0.5"/>
<text text-anchor="middle" x="348" y="-7.5" font-family="Helvetica,sans-Serif" font-size="10.00">handleConnection</text>
</a>
</g>
</g>
<!-- Node3&#45;&gt;Node4 -->
<g id="edge3" class="edge">
<title>Node3&#45;&gt;Node4</title>
<path fill="none" stroke="midnightblue" d="M425.64,-10C416.98,-10 408.32,-10 400.1,-10"/>
<polygon fill="midnightblue" stroke="midnightblue" points="425.78,-13.5 435.78,-10 425.78,-6.5 425.78,-13.5"/>
</g>
<!-- Node5 -->
<g id="node5" class="node">
<title>Node5</title>
<g id="a_node5"><a xlink:href="_server_8hpp.html#a4211c4d6b958979b39b3dfc8148c801a" target="_top" xlink:title="Accepts new connections or handles existing ones.">
<polygon fill="none" stroke="black" points="183,-0.5 183,-19.5 260,-19.5 260,-0.5 183,-0.5"/>
<text text-anchor="middle" x="221.5" y="-7.5" font-family="Helvetica,sans-Serif" font-size="10.00">handleEvent</text>
</a>
</g>
</g>
<!-- Node4&#45;&gt;Node5 -->
<g id="edge4" class="edge">
<title>Node4&#45;&gt;Node5</title>
<path fill="none" stroke="midnightblue" d="M285.49,-10C276.8,-10 268.1,-10 260.05,-10"/>
<polygon fill="midnightblue" stroke="midnightblue" points="285.64,-13.5 295.64,-10 285.64,-6.5 285.64,-13.5"/>
</g>
<!-- Node6 -->
<g id="node6" class="node">
<title>Node6</title>
<g id="a_node6"><a xlink:href="class_server.html#abb27d30b40a94326e3fd629d3b30b7d5" target="_top" xlink:title="Runs the main event loop.">
<polygon fill="none" stroke="black" points="77,-0.5 77,-19.5 147,-19.5 147,-0.5 77,-0.5"/>
<text text-anchor="middle" x="112" y="-7.5" font-family="Helvetica,sans-Serif" font-size="10.00">Server::run</text>
</a>
</g>
</g>
<!-- Node5&#45;&gt;Node6 -->
<g id="edge5" class="edge">
<title>Node5&#45;&gt;Node6</title>
<path fill="none" stroke="midnightblue" d="M172.88,-10C164.22,-10 155.34,-10 147.16,-10"/>
<polygon fill="midnightblue" stroke="midnightblue" points="172.9,-13.5 182.9,-10 172.9,-6.5 172.9,-13.5"/>
</g>
<!-- Node7 -->
<g id="node7" class="node">
<title>Node7</title>
<g id="a_node7"><a xlink:href="main_8cpp.html#a3c04138a5bfe5d72780bb7e82a18e627" target="_top" xlink:title=" ">
<polygon fill="none" stroke="black" points="0,-0.5 0,-19.5 41,-19.5 41,-0.5 0,-0.5"/>
<text text-anchor="middle" x="20.5" y="-7.5" font-family="Helvetica,sans-Serif" font-size="10.00">main</text>
</a>
</g>
</g>
<!-- Node6&#45;&gt;Node7 -->
<g id="edge6" class="edge">
<title>Node6&#45;&gt;Node7</title>
<path fill="none" stroke="midnightblue" d="M66.85,-10C57.87,-10 48.85,-10 41.24,-10"/>
<polygon fill="midnightblue" stroke="midnightblue" points="66.91,-13.5 76.91,-10 66.91,-6.5 66.91,-13.5"/>
</g>
</g>
</svg>
