<?xml version="1.0" encoding="UTF-8" standalone="no"?>
<!DOCTYPE svg PUBLIC "-//W3C//DTD SVG 1.1//EN"
 "http://www.w3.org/Graphics/SVG/1.1/DTD/svg11.dtd">
<!-- Generated by graphviz version 2.43.0 (0)
 -->
<!-- Title: inc/constants.hpp Pages: 1 -->
<svg width="2732pt" height="397pt"
 viewBox="0.00 0.00 2732.00 397.00" xmlns="http://www.w3.org/2000/svg" xmlns:xlink="http://www.w3.org/1999/xlink">
<g id="graph0" class="graph" transform="scale(1 1) rotate(0) translate(4 393)">
<title>inc/constants.hpp</title>
<!-- Node1 -->
<g id="node1" class="node">
<title>Node1</title>
<g id="a_node1"><a xlink:title=" ">
<polygon fill="#bfbfbf" stroke="black" points="1359.5,-369.5 1359.5,-388.5 1461.5,-388.5 1461.5,-369.5 1359.5,-369.5"/>
<text text-anchor="middle" x="1410.5" y="-376.5" font-family="Helvetica,sans-Serif" font-size="10.00">inc/constants.hpp</text>
</a>
</g>
</g>
<!-- Node2 -->
<g id="node2" class="node">
<title>Node2</title>
<g id="a_node2"><a xlink:href="_request_parser_8hpp.html" target="_top" xlink:title=" ">
<polygon fill="none" stroke="black" points="2163.5,-257.5 2163.5,-276.5 2287.5,-276.5 2287.5,-257.5 2163.5,-257.5"/>
<text text-anchor="middle" x="2225.5" y="-264.5" font-family="Helvetica,sans-Serif" font-size="10.00">inc/RequestParser.hpp</text>
</a>
</g>
</g>
<!-- Node1&#45;&gt;Node2 -->
<g id="edge1" class="edge">
<title>Node1&#45;&gt;Node2</title>
<path fill="none" stroke="midnightblue" d="M1420.23,-360.61C1429.97,-345.09 1446.51,-323.27 1467.5,-313 1498.55,-297.81 1987.57,-277.3 2163.26,-270.39"/>
<polygon fill="midnightblue" stroke="midnightblue" points="1417.16,-358.92 1415.06,-369.3 1423.18,-362.49 1417.16,-358.92"/>
</g>
<!-- Node3 -->
<g id="node3" class="node">
<title>Node3</title>
<g id="a_node3"><a xlink:href="_server_8hpp.html" target="_top" xlink:title=" ">
<polygon fill="none" stroke="black" points="1163.5,-73 1163.5,-92 1249.5,-92 1249.5,-73 1163.5,-73"/>
<text text-anchor="middle" x="1206.5" y="-80" font-family="Helvetica,sans-Serif" font-size="10.00">inc/Server.hpp</text>
</a>
</g>
</g>
<!-- Node1&#45;&gt;Node3 -->
<g id="edge20" class="edge">
<title>Node1&#45;&gt;Node3</title>
<path fill="none" stroke="midnightblue" d="M1349.04,-373.25C1240.11,-363.12 1024.5,-334.66 1024.5,-268 1024.5,-268 1024.5,-268 1024.5,-204.5 1024.5,-166.08 1138.38,-112.73 1185.98,-92.11"/>
<polygon fill="midnightblue" stroke="midnightblue" points="1348.97,-376.76 1359.24,-374.17 1349.6,-369.79 1348.97,-376.76"/>
</g>
<!-- Node21 -->
<g id="node21" class="node">
<title>Node21</title>
<g id="a_node21"><a xlink:href="utilities_8hpp.html" target="_top" xlink:title=" ">
<polygon fill="none" stroke="black" points="1327.5,-313.5 1327.5,-332.5 1419.5,-332.5 1419.5,-313.5 1327.5,-313.5"/>
<text text-anchor="middle" x="1373.5" y="-320.5" font-family="Helvetica,sans-Serif" font-size="10.00">inc/utilities.hpp</text>
</a>
</g>
</g>
<!-- Node1&#45;&gt;Node21 -->
<g id="edge21" class="edge">
<title>Node1&#45;&gt;Node21</title>
<path fill="none" stroke="midnightblue" d="M1398.55,-360.57C1392.19,-351.27 1384.63,-340.25 1379.5,-332.75"/>
<polygon fill="midnightblue" stroke="midnightblue" points="1395.85,-362.81 1404.39,-369.08 1401.63,-358.86 1395.85,-362.81"/>
</g>
<!-- Node41 -->
<g id="node41" class="node">
<title>Node41</title>
<g id="a_node41"><a xlink:href="constants_8cpp.html" target="_top" xlink:title=" ">
<polygon fill="none" stroke="black" points="1476,-313.5 1476,-332.5 1577,-332.5 1577,-313.5 1476,-313.5"/>
<text text-anchor="middle" x="1526.5" y="-320.5" font-family="Helvetica,sans-Serif" font-size="10.00">src/constants.cpp</text>
</a>
</g>
</g>
<!-- Node1&#45;&gt;Node41 -->
<g id="edge56" class="edge">
<title>Node1&#45;&gt;Node41</title>
<path fill="none" stroke="midnightblue" d="M1438.22,-365.1C1459.89,-355.01 1489.4,-341.27 1508.21,-332.52"/>
<polygon fill="midnightblue" stroke="midnightblue" points="1436.47,-362.05 1428.88,-369.44 1439.42,-368.4 1436.47,-362.05"/>
</g>
<!-- Node2&#45;&gt;Node3 -->
<g id="edge2" class="edge">
<title>Node2&#45;&gt;Node3</title>
<path fill="none" stroke="midnightblue" d="M2203.17,-252.27C2175.02,-235.48 2124.71,-207.18 2078.5,-190 1978.27,-152.73 1950.12,-150.71 1844.5,-134 1622.54,-98.88 1353.08,-87.73 1249.71,-84.6"/>
<polygon fill="midnightblue" stroke="midnightblue" points="2201.46,-255.32 2211.83,-257.49 2205.07,-249.33 2201.46,-255.32"/>
</g>
<!-- Node17 -->
<g id="node17" class="node">
<title>Node17</title>
<g id="a_node17"><a xlink:href="_request_parser_8cpp.html" target="_top" xlink:title=" ">
<polygon fill="none" stroke="black" points="2164,-196 2164,-215 2287,-215 2287,-196 2164,-196"/>
<text text-anchor="middle" x="2225.5" y="-203" font-family="Helvetica,sans-Serif" font-size="10.00">src/RequestParser.cpp</text>
</a>
</g>
</g>
<!-- Node2&#45;&gt;Node17 -->
<g id="edge16" class="edge">
<title>Node2&#45;&gt;Node17</title>
<path fill="none" stroke="midnightblue" d="M2225.5,-247.32C2225.5,-236.5 2225.5,-223.4 2225.5,-215.01"/>
<polygon fill="midnightblue" stroke="midnightblue" points="2222,-247.48 2225.5,-257.48 2229,-247.48 2222,-247.48"/>
</g>
<!-- Node18 -->
<g id="node18" class="node">
<title>Node18</title>
<g id="a_node18"><a xlink:href="test__parse_body_8cpp.html" target="_top" xlink:title=" ">
<polygon fill="none" stroke="black" points="2305,-196 2305,-215 2438,-215 2438,-196 2305,-196"/>
<text text-anchor="middle" x="2371.5" y="-203" font-family="Helvetica,sans-Serif" font-size="10.00">test/test_parseBody.cpp</text>
</a>
</g>
</g>
<!-- Node2&#45;&gt;Node18 -->
<g id="edge17" class="edge">
<title>Node2&#45;&gt;Node18</title>
<path fill="none" stroke="midnightblue" d="M2255.85,-253.63C2284.21,-242.07 2325.81,-225.12 2350.62,-215.01"/>
<polygon fill="midnightblue" stroke="midnightblue" points="2254.36,-250.46 2246.42,-257.48 2257,-256.94 2254.36,-250.46"/>
</g>
<!-- Node19 -->
<g id="node19" class="node">
<title>Node19</title>
<g id="a_node19"><a xlink:href="test__parse_header___headers_8cpp.html" target="_top" xlink:title=" ">
<polygon fill="none" stroke="black" points="2456,-190.5 2456,-220.5 2581,-220.5 2581,-190.5 2456,-190.5"/>
<text text-anchor="start" x="2464" y="-208.5" font-family="Helvetica,sans-Serif" font-size="10.00">test/test_parseHeader</text>
<text text-anchor="middle" x="2518.5" y="-197.5" font-family="Helvetica,sans-Serif" font-size="10.00">_Headers.cpp</text>
</a>
</g>
</g>
<!-- Node2&#45;&gt;Node19 -->
<g id="edge18" class="edge">
<title>Node2&#45;&gt;Node19</title>
<path fill="none" stroke="midnightblue" d="M2277.47,-255.49C2322.46,-246.38 2389.28,-232.85 2447.5,-221 2450.21,-220.45 2452.98,-219.88 2455.78,-219.31"/>
<polygon fill="midnightblue" stroke="midnightblue" points="2276.76,-252.06 2267.65,-257.48 2278.15,-258.92 2276.76,-252.06"/>
</g>
<!-- Node20 -->
<g id="node20" class="node">
<title>Node20</title>
<g id="a_node20"><a xlink:href="test__parse_header___request_line_8cpp.html" target="_top" xlink:title=" ">
<polygon fill="none" stroke="black" points="2599,-190.5 2599,-220.5 2724,-220.5 2724,-190.5 2599,-190.5"/>
<text text-anchor="start" x="2607" y="-208.5" font-family="Helvetica,sans-Serif" font-size="10.00">test/test_parseHeader</text>
<text text-anchor="middle" x="2661.5" y="-197.5" font-family="Helvetica,sans-Serif" font-size="10.00">_RequestLine.cpp</text>
</a>
</g>
</g>
<!-- Node2&#45;&gt;Node20 -->
<g id="edge19" class="edge">
<title>Node2&#45;&gt;Node20</title>
<path fill="none" stroke="midnightblue" d="M2297.83,-258.78C2371.64,-251.02 2489.4,-237.53 2590.5,-221 2593.23,-220.55 2596.02,-220.08 2598.83,-219.58"/>
<polygon fill="midnightblue" stroke="midnightblue" points="2297.29,-255.32 2287.71,-259.84 2298.02,-262.28 2297.29,-255.32"/>
</g>
<!-- Node4 -->
<g id="node4" class="node">
<title>Node4</title>
<g id="a_node4"><a xlink:href="main_8cpp.html" target="_top" xlink:title=" ">
<polygon fill="none" stroke="black" points="2095,-6 2095,-25 2174,-25 2174,-6 2095,-6"/>
<text text-anchor="middle" x="2134.5" y="-13" font-family="Helvetica,sans-Serif" font-size="10.00">src/main.cpp</text>
</a>
</g>
</g>
<!-- Node3&#45;&gt;Node4 -->
<g id="edge3" class="edge">
<title>Node3&#45;&gt;Node4</title>
<path fill="none" stroke="midnightblue" d="M1259.9,-80C1424.81,-75.13 1924.55,-58.43 2084.5,-31 2092.61,-29.61 2101.27,-27.38 2109.06,-25.07"/>
<polygon fill="midnightblue" stroke="midnightblue" points="1259.42,-76.51 1249.52,-80.31 1259.62,-83.51 1259.42,-76.51"/>
</g>
<!-- Node5 -->
<g id="node5" class="node">
<title>Node5</title>
<g id="a_node5"><a xlink:href="_server_8cpp.html" target="_top" xlink:title=" ">
<polygon fill="none" stroke="black" points="1990,-6 1990,-25 2075,-25 2075,-6 1990,-6"/>
<text text-anchor="middle" x="2032.5" y="-13" font-family="Helvetica,sans-Serif" font-size="10.00">src/Server.cpp</text>
</a>
</g>
</g>
<!-- Node3&#45;&gt;Node5 -->
<g id="edge4" class="edge">
<title>Node3&#45;&gt;Node5</title>
<path fill="none" stroke="midnightblue" d="M1259.82,-81.8C1386.02,-81.68 1712.57,-76.59 1980.5,-31 1988.91,-29.57 1997.91,-27.32 2006.02,-25.02"/>
<polygon fill="midnightblue" stroke="midnightblue" points="1259.66,-78.3 1249.66,-81.8 1259.65,-85.3 1259.66,-78.3"/>
</g>
<!-- Node6 -->
<g id="node6" class="node">
<title>Node6</title>
<g id="a_node6"><a xlink:href="test__accept_connections_8cpp.html" target="_top" xlink:title=" ">
<polygon fill="none" stroke="black" points="1419,-6 1419,-25 1594,-25 1594,-6 1419,-6"/>
<text text-anchor="middle" x="1506.5" y="-13" font-family="Helvetica,sans-Serif" font-size="10.00">test/test_acceptConnections.cpp</text>
</a>
</g>
</g>
<!-- Node3&#45;&gt;Node6 -->
<g id="edge5" class="edge">
<title>Node3&#45;&gt;Node6</title>
<path fill="none" stroke="midnightblue" d="M1255.87,-70.8C1314.91,-58.01 1412.54,-36.86 1466.88,-25.08"/>
<polygon fill="midnightblue" stroke="midnightblue" points="1255.06,-67.4 1246.03,-72.94 1256.54,-74.24 1255.06,-67.4"/>
</g>
<!-- Node7 -->
<g id="node7" class="node">
<title>Node7</title>
<g id="a_node7"><a xlink:href="test__check_for_timeout_8cpp.html" target="_top" xlink:title=" ">
<polygon fill="none" stroke="black" points="1612,-6 1612,-25 1779,-25 1779,-6 1612,-6"/>
<text text-anchor="middle" x="1695.5" y="-13" font-family="Helvetica,sans-Serif" font-size="10.00">test/test_checkForTimeout.cpp</text>
</a>
</g>
</g>
<!-- Node3&#45;&gt;Node7 -->
<g id="edge6" class="edge">
<title>Node3&#45;&gt;Node7</title>
<path fill="none" stroke="midnightblue" d="M1260.04,-75.2C1336.37,-66.11 1480.81,-48.47 1603.5,-31 1616.31,-29.18 1630.09,-27.08 1643,-25.05"/>
<polygon fill="midnightblue" stroke="midnightblue" points="1259.25,-71.77 1249.73,-76.43 1260.08,-78.72 1259.25,-71.77"/>
</g>
<!-- Node8 -->
<g id="node8" class="node">
<title>Node8</title>
<g id="a_node8"><a xlink:href="test__connection_receive_header_8cpp.html" target="_top" xlink:title=" ">
<polygon fill="none" stroke="black" points="0,-0.5 0,-30.5 155,-30.5 155,-0.5 0,-0.5"/>
<text text-anchor="start" x="8" y="-18.5" font-family="Helvetica,sans-Serif" font-size="10.00">test/test_connectionReceive</text>
<text text-anchor="middle" x="77.5" y="-7.5" font-family="Helvetica,sans-Serif" font-size="10.00">Header.cpp</text>
</a>
</g>
</g>
<!-- Node3&#45;&gt;Node8 -->
<g id="edge7" class="edge">
<title>Node3&#45;&gt;Node8</title>
<path fill="none" stroke="midnightblue" d="M1170.56,-70.3C1165.22,-68.98 1159.75,-67.82 1154.5,-67 719.43,0.6 602.56,-75.28 164.5,-31 161.45,-30.69 158.35,-30.34 155.22,-29.96"/>
<polygon fill="midnightblue" stroke="midnightblue" points="1170.01,-73.78 1180.58,-72.98 1171.82,-67.01 1170.01,-73.78"/>
</g>
<!-- Node9 -->
<g id="node9" class="node">
<title>Node9</title>
<g id="a_node9"><a xlink:href="test__connection_send_response_8cpp.html" target="_top" xlink:title=" ">
<polygon fill="none" stroke="black" points="173.5,-0.5 173.5,-30.5 313.5,-30.5 313.5,-0.5 173.5,-0.5"/>
<text text-anchor="start" x="181.5" y="-18.5" font-family="Helvetica,sans-Serif" font-size="10.00">test/test_connectionSend</text>
<text text-anchor="middle" x="243.5" y="-7.5" font-family="Helvetica,sans-Serif" font-size="10.00">Response.cpp</text>
</a>
</g>
</g>
<!-- Node3&#45;&gt;Node9 -->
<g id="edge8" class="edge">
<title>Node3&#45;&gt;Node9</title>
<path fill="none" stroke="midnightblue" d="M1170.38,-70.29C1165.1,-68.98 1159.69,-67.82 1154.5,-67 788.96,-8.91 690.29,-72.51 322.5,-31 319.59,-30.67 316.63,-30.3 313.64,-29.89"/>
<polygon fill="midnightblue" stroke="midnightblue" points="1169.74,-73.74 1180.3,-72.94 1171.55,-66.98 1169.74,-73.74"/>
</g>
<!-- Node10 -->
<g id="node10" class="node">
<title>Node10</title>
<g id="a_node10"><a xlink:href="test__create_virtual_server_8cpp.html" target="_top" xlink:title=" ">
<polygon fill="none" stroke="black" points="331.5,-6 331.5,-25 507.5,-25 507.5,-6 331.5,-6"/>
<text text-anchor="middle" x="419.5" y="-13" font-family="Helvetica,sans-Serif" font-size="10.00">test/test_createVirtualServer.cpp</text>
</a>
</g>
</g>
<!-- Node3&#45;&gt;Node10 -->
<g id="edge9" class="edge">
<title>Node3&#45;&gt;Node10</title>
<path fill="none" stroke="midnightblue" d="M1170.2,-70.31C1164.97,-69.01 1159.63,-67.85 1154.5,-67 873.87,-20.53 798.44,-60.27 515.5,-31 500.75,-29.47 484.79,-27.28 470.21,-25.07"/>
<polygon fill="midnightblue" stroke="midnightblue" points="1169.46,-73.73 1180.03,-72.93 1171.27,-66.97 1169.46,-73.73"/>
</g>
<!-- Node11 -->
<g id="node11" class="node">
<title>Node11</title>
<g id="a_node11"><a xlink:href="test__init_virtual_servers_8cpp.html" target="_top" xlink:title=" ">
<polygon fill="none" stroke="black" points="525,-6 525,-25 692,-25 692,-6 525,-6"/>
<text text-anchor="middle" x="608.5" y="-13" font-family="Helvetica,sans-Serif" font-size="10.00">test/test_initVirtualServers.cpp</text>
</a>
</g>
</g>
<!-- Node3&#45;&gt;Node11 -->
<g id="edge10" class="edge">
<title>Node3&#45;&gt;Node11</title>
<path fill="none" stroke="midnightblue" d="M1170.01,-70.37C1164.84,-69.08 1159.56,-67.9 1154.5,-67 955.2,-31.65 901.51,-54.77 700.5,-31 686.69,-29.37 671.78,-27.19 658.06,-25.03"/>
<polygon fill="midnightblue" stroke="midnightblue" points="1169.17,-73.77 1179.74,-72.97 1170.98,-67.01 1169.17,-73.77"/>
</g>
<!-- Node12 -->
<g id="node12" class="node">
<title>Node12</title>
<g id="a_node12"><a xlink:href="test__is_duplicate_server_8cpp.html" target="_top" xlink:title=" ">
<polygon fill="none" stroke="black" points="709.5,-6 709.5,-25 877.5,-25 877.5,-6 709.5,-6"/>
<text text-anchor="middle" x="793.5" y="-13" font-family="Helvetica,sans-Serif" font-size="10.00">test/test_isDuplicateServer.cpp</text>
</a>
</g>
</g>
<!-- Node3&#45;&gt;Node12 -->
<g id="edge11" class="edge">
<title>Node3&#45;&gt;Node12</title>
<path fill="none" stroke="midnightblue" d="M1168.89,-70.35C1164.07,-69.12 1159.19,-67.96 1154.5,-67 1036.78,-42.8 1005.44,-48.26 886.5,-31 873.72,-29.15 859.98,-27.06 847.08,-25.05"/>
<polygon fill="midnightblue" stroke="midnightblue" points="1168.04,-73.75 1178.61,-72.96 1169.85,-66.99 1168.04,-73.75"/>
</g>
<!-- Node13 -->
<g id="node13" class="node">
<title>Node13</title>
<g id="a_node13"><a xlink:href="test__register_connection_8cpp.html" target="_top" xlink:title=" ">
<polygon fill="none" stroke="black" points="896,-6 896,-25 1071,-25 1071,-6 896,-6"/>
<text text-anchor="middle" x="983.5" y="-13" font-family="Helvetica,sans-Serif" font-size="10.00">test/test_registerConnection.cpp</text>
</a>
</g>
</g>
<!-- Node3&#45;&gt;Node13 -->
<g id="edge12" class="edge">
<title>Node3&#45;&gt;Node13</title>
<path fill="none" stroke="midnightblue" d="M1167.08,-70.01C1122.95,-57.15 1052.44,-36.59 1012.88,-25.06"/>
<polygon fill="midnightblue" stroke="midnightblue" points="1166.31,-73.43 1176.89,-72.87 1168.27,-66.71 1166.31,-73.43"/>
</g>
<!-- Node14 -->
<g id="node14" class="node">
<title>Node14</title>
<g id="a_node14"><a xlink:href="test__register_virtual_server_8cpp.html" target="_top" xlink:title=" ">
<polygon fill="none" stroke="black" points="1089.5,-0.5 1089.5,-30.5 1221.5,-30.5 1221.5,-0.5 1089.5,-0.5"/>
<text text-anchor="start" x="1097.5" y="-18.5" font-family="Helvetica,sans-Serif" font-size="10.00">test/test_registerVirtual</text>
<text text-anchor="middle" x="1155.5" y="-7.5" font-family="Helvetica,sans-Serif" font-size="10.00">Server.cpp</text>
</a>
</g>
</g>
<!-- Node3&#45;&gt;Node14 -->
<g id="edge13" class="edge">
<title>Node3&#45;&gt;Node14</title>
<path fill="none" stroke="midnightblue" d="M1193.3,-64.67C1185,-54.09 1174.41,-40.6 1166.55,-30.59"/>
<polygon fill="midnightblue" stroke="midnightblue" points="1190.7,-67.03 1199.62,-72.73 1196.2,-62.71 1190.7,-67.03"/>
</g>
<!-- Node15 -->
<g id="node15" class="node">
<title>Node15</title>
<g id="a_node15"><a xlink:href="test__select_server_config_8cpp.html" target="_top" xlink:title=" ">
<polygon fill="none" stroke="black" points="1797.5,-6 1797.5,-25 1971.5,-25 1971.5,-6 1797.5,-6"/>
<text text-anchor="middle" x="1884.5" y="-13" font-family="Helvetica,sans-Serif" font-size="10.00">test/test_selectServerConfig.cpp</text>
</a>
</g>
</g>
<!-- Node3&#45;&gt;Node15 -->
<g id="edge14" class="edge">
<title>Node3&#45;&gt;Node15</title>
<path fill="none" stroke="midnightblue" d="M1259.78,-78.01C1362.33,-71.05 1594.25,-54.07 1788.5,-31 1802.73,-29.31 1818.09,-27.14 1832.27,-25"/>
<polygon fill="midnightblue" stroke="midnightblue" points="1259.41,-74.53 1249.67,-78.69 1259.89,-81.51 1259.41,-74.53"/>
</g>
<!-- Node16 -->
<g id="node16" class="node">
<title>Node16</title>
<g id="a_node16"><a xlink:href="test__shutdown_server_8cpp.html" target="_top" xlink:title=" ">
<polygon fill="none" stroke="black" points="1240,-6 1240,-25 1401,-25 1401,-6 1240,-6"/>
<text text-anchor="middle" x="1320.5" y="-13" font-family="Helvetica,sans-Serif" font-size="10.00">test/test_shutdownServer.cpp</text>
</a>
</g>
</g>
<!-- Node3&#45;&gt;Node16 -->
<g id="edge15" class="edge">
<title>Node3&#45;&gt;Node16</title>
<path fill="none" stroke="midnightblue" d="M1230.85,-67.62C1253.44,-54.74 1286.34,-35.98 1305.37,-25.13"/>
<polygon fill="midnightblue" stroke="midnightblue" points="1228.83,-64.74 1221.87,-72.73 1232.3,-70.82 1228.83,-64.74"/>
</g>
<!-- Node21&#45;&gt;Node2 -->
<g id="edge35" class="edge">
<title>Node21&#45;&gt;Node2</title>
<path fill="none" stroke="midnightblue" d="M1429.66,-313.41C1430.95,-313.27 1432.23,-313.13 1433.5,-313 1574.78,-298.42 2002.49,-278.12 2163.4,-270.79"/>
<polygon fill="midnightblue" stroke="midnightblue" points="1429.13,-309.95 1419.63,-314.64 1429.98,-316.9 1429.13,-309.95"/>
</g>
<!-- Node22 -->
<g id="node22" class="node">
<title>Node22</title>
<g id="a_node22"><a xlink:href="_autoindex_handler_8hpp.html" target="_top" xlink:title=" ">
<polygon fill="none" stroke="black" points="1443.5,-257.5 1443.5,-276.5 1585.5,-276.5 1585.5,-257.5 1443.5,-257.5"/>
<text text-anchor="middle" x="1514.5" y="-264.5" font-family="Helvetica,sans-Serif" font-size="10.00">inc/AutoindexHandler.hpp</text>
</a>
</g>
</g>
<!-- Node21&#45;&gt;Node22 -->
<g id="edge22" class="edge">
<title>Node21&#45;&gt;Node22</title>
<path fill="none" stroke="midnightblue" d="M1405.43,-309.77C1431.91,-299.63 1468.89,-285.47 1492.26,-276.52"/>
<polygon fill="midnightblue" stroke="midnightblue" points="1403.93,-306.6 1395.84,-313.44 1406.43,-313.14 1403.93,-306.6"/>
</g>
<!-- Node30 -->
<g id="node30" class="node">
<title>Node30</title>
<g id="a_node30"><a xlink:href="_config_file_parser_8hpp.html" target="_top" xlink:title=" ">
<polygon fill="none" stroke="black" points="1841.5,-257.5 1841.5,-276.5 1973.5,-276.5 1973.5,-257.5 1841.5,-257.5"/>
<text text-anchor="middle" x="1907.5" y="-264.5" font-family="Helvetica,sans-Serif" font-size="10.00">inc/ConfigFileParser.hpp</text>
</a>
</g>
</g>
<!-- Node21&#45;&gt;Node30 -->
<g id="edge31" class="edge">
<title>Node21&#45;&gt;Node30</title>
<path fill="none" stroke="midnightblue" d="M1429.67,-313.48C1430.96,-313.31 1432.24,-313.15 1433.5,-313 1578.73,-295.23 1749.72,-280.52 1841.43,-273.13"/>
<polygon fill="midnightblue" stroke="midnightblue" points="1429.1,-310.02 1419.65,-314.82 1430.03,-316.96 1429.1,-310.02"/>
</g>
<!-- Node33 -->
<g id="node33" class="node">
<title>Node33</title>
<g id="a_node33"><a xlink:href="signal_handler_8hpp.html" target="_top" xlink:title=" ">
<polygon fill="none" stroke="black" points="1071.5,-257.5 1071.5,-276.5 1193.5,-276.5 1193.5,-257.5 1071.5,-257.5"/>
<text text-anchor="middle" x="1132.5" y="-264.5" font-family="Helvetica,sans-Serif" font-size="10.00">inc/signalHandler.hpp</text>
</a>
</g>
</g>
<!-- Node21&#45;&gt;Node33 -->
<g id="edge36" class="edge">
<title>Node21&#45;&gt;Node33</title>
<path fill="none" stroke="midnightblue" d="M1325.38,-311.22C1279.84,-301.01 1212.39,-285.9 1170.51,-276.52"/>
<polygon fill="midnightblue" stroke="midnightblue" points="1324.79,-314.67 1335.31,-313.44 1326.32,-307.84 1324.79,-314.67"/>
</g>
<!-- Node35 -->
<g id="node35" class="node">
<title>Node35</title>
<g id="a_node35"><a xlink:href="_socket_policy_8hpp.html" target="_top" xlink:title=" ">
<polygon fill="none" stroke="black" points="881,-134.5 881,-153.5 996,-153.5 996,-134.5 881,-134.5"/>
<text text-anchor="middle" x="938.5" y="-141.5" font-family="Helvetica,sans-Serif" font-size="10.00">inc/SocketPolicy.hpp</text>
</a>
</g>
</g>
<!-- Node21&#45;&gt;Node35 -->
<g id="edge39" class="edge">
<title>Node21&#45;&gt;Node35</title>
<path fill="none" stroke="midnightblue" d="M1317.42,-318.33C1240.19,-312.53 1105.74,-299.52 1062.5,-277 1004.22,-246.64 958.45,-177.87 943.61,-153.64"/>
<polygon fill="midnightblue" stroke="midnightblue" points="1317.23,-321.83 1327.46,-319.07 1317.74,-314.84 1317.23,-321.83"/>
</g>
<!-- Node39 -->
<g id="node39" class="node">
<title>Node39</title>
<g id="a_node39"><a xlink:href="utilities_8cpp.html" target="_top" xlink:title=" ">
<polygon fill="none" stroke="black" points="1212,-257.5 1212,-276.5 1303,-276.5 1303,-257.5 1212,-257.5"/>
<text text-anchor="middle" x="1257.5" y="-264.5" font-family="Helvetica,sans-Serif" font-size="10.00">src/utilities.cpp</text>
</a>
</g>
</g>
<!-- Node21&#45;&gt;Node39 -->
<g id="edge54" class="edge">
<title>Node21&#45;&gt;Node39</title>
<path fill="none" stroke="midnightblue" d="M1345.78,-309.1C1324.11,-299.01 1294.6,-285.27 1275.79,-276.52"/>
<polygon fill="midnightblue" stroke="midnightblue" points="1344.58,-312.4 1355.12,-313.44 1347.53,-306.05 1344.58,-312.4"/>
</g>
<!-- Node40 -->
<g id="node40" class="node">
<title>Node40</title>
<g id="a_node40"><a xlink:href="test__utils_8cpp.html" target="_top" xlink:title=" ">
<polygon fill="none" stroke="black" points="1321.5,-257.5 1321.5,-276.5 1425.5,-276.5 1425.5,-257.5 1321.5,-257.5"/>
<text text-anchor="middle" x="1373.5" y="-264.5" font-family="Helvetica,sans-Serif" font-size="10.00">test/test_utils.cpp</text>
</a>
</g>
</g>
<!-- Node21&#45;&gt;Node40 -->
<g id="edge55" class="edge">
<title>Node21&#45;&gt;Node40</title>
<path fill="none" stroke="midnightblue" d="M1373.5,-302.8C1373.5,-293.91 1373.5,-283.78 1373.5,-276.75"/>
<polygon fill="midnightblue" stroke="midnightblue" points="1370,-303.08 1373.5,-313.08 1377,-303.08 1370,-303.08"/>
</g>
<!-- Node23 -->
<g id="node23" class="node">
<title>Node23</title>
<g id="a_node23"><a xlink:href="_response_body_handler_8hpp.html" target="_top" xlink:title=" ">
<polygon fill="none" stroke="black" points="1577.5,-196 1577.5,-215 1741.5,-215 1741.5,-196 1577.5,-196"/>
<text text-anchor="middle" x="1659.5" y="-203" font-family="Helvetica,sans-Serif" font-size="10.00">inc/ResponseBodyHandler.hpp</text>
</a>
</g>
</g>
<!-- Node22&#45;&gt;Node23 -->
<g id="edge23" class="edge">
<title>Node22&#45;&gt;Node23</title>
<path fill="none" stroke="midnightblue" d="M1544.64,-253.63C1572.81,-242.07 1614.12,-225.12 1638.76,-215.01"/>
<polygon fill="midnightblue" stroke="midnightblue" points="1543.2,-250.44 1535.27,-257.48 1545.86,-256.92 1543.2,-250.44"/>
</g>
<!-- Node28 -->
<g id="node28" class="node">
<title>Node28</title>
<g id="a_node28"><a xlink:href="_autoindex_handler_8cpp.html" target="_top" xlink:title=" ">
<polygon fill="none" stroke="black" points="1230,-196 1230,-215 1371,-215 1371,-196 1230,-196"/>
<text text-anchor="middle" x="1300.5" y="-203" font-family="Helvetica,sans-Serif" font-size="10.00">src/AutoindexHandler.cpp</text>
</a>
</g>
</g>
<!-- Node22&#45;&gt;Node28 -->
<g id="edge29" class="edge">
<title>Node22&#45;&gt;Node28</title>
<path fill="none" stroke="midnightblue" d="M1474.04,-254.75C1432.46,-243.19 1368.66,-225.45 1331.1,-215.01"/>
<polygon fill="midnightblue" stroke="midnightblue" points="1473.27,-258.17 1483.84,-257.48 1475.14,-251.42 1473.27,-258.17"/>
</g>
<!-- Node29 -->
<g id="node29" class="node">
<title>Node29</title>
<g id="a_node29"><a xlink:href="test___autoindex_handler_8cpp.html" target="_top" xlink:title=" ">
<polygon fill="none" stroke="black" points="1389.5,-196 1389.5,-215 1559.5,-215 1559.5,-196 1389.5,-196"/>
<text text-anchor="middle" x="1474.5" y="-203" font-family="Helvetica,sans-Serif" font-size="10.00">test/test_AutoindexHandler.cpp</text>
</a>
</g>
</g>
<!-- Node22&#45;&gt;Node29 -->
<g id="edge30" class="edge">
<title>Node22&#45;&gt;Node29</title>
<path fill="none" stroke="midnightblue" d="M1503.07,-249.01C1495.6,-237.89 1486.16,-223.84 1480.22,-215.01"/>
<polygon fill="midnightblue" stroke="midnightblue" points="1500.29,-251.13 1508.77,-257.48 1506.09,-247.22 1500.29,-251.13"/>
</g>
<!-- Node24 -->
<g id="node24" class="node">
<title>Node24</title>
<g id="a_node24"><a xlink:href="_response_builder_8hpp.html" target="_top" xlink:title=" ">
<polygon fill="none" stroke="black" points="1971.5,-134.5 1971.5,-153.5 2107.5,-153.5 2107.5,-134.5 1971.5,-134.5"/>
<text text-anchor="middle" x="2039.5" y="-141.5" font-family="Helvetica,sans-Serif" font-size="10.00">inc/ResponseBuilder.hpp</text>
</a>
</g>
</g>
<!-- Node23&#45;&gt;Node24 -->
<g id="edge24" class="edge">
<title>Node23&#45;&gt;Node24</title>
<path fill="none" stroke="midnightblue" d="M1723.57,-194.39C1732.94,-192.92 1742.47,-191.42 1751.5,-190 1832.74,-177.25 1926.89,-162.56 1984.82,-153.52"/>
<polygon fill="midnightblue" stroke="midnightblue" points="1722.83,-190.96 1713.5,-195.98 1723.92,-197.88 1722.83,-190.96"/>
</g>
<!-- Node26 -->
<g id="node26" class="node">
<title>Node26</title>
<g id="a_node26"><a xlink:href="_response_body_handler_8cpp.html" target="_top" xlink:title=" ">
<polygon fill="none" stroke="black" points="1461.5,-134.5 1461.5,-153.5 1625.5,-153.5 1625.5,-134.5 1461.5,-134.5"/>
<text text-anchor="middle" x="1543.5" y="-141.5" font-family="Helvetica,sans-Serif" font-size="10.00">src/ResponseBodyHandler.cpp</text>
</a>
</g>
</g>
<!-- Node23&#45;&gt;Node26 -->
<g id="edge27" class="edge">
<title>Node23&#45;&gt;Node26</title>
<path fill="none" stroke="midnightblue" d="M1633.9,-191.37C1611.41,-179.83 1579.37,-163.4 1560.09,-153.51"/>
<polygon fill="midnightblue" stroke="midnightblue" points="1632.38,-194.53 1642.88,-195.98 1635.58,-188.3 1632.38,-194.53"/>
</g>
<!-- Node27 -->
<g id="node27" class="node">
<title>Node27</title>
<g id="a_node27"><a xlink:href="test___response_body_handler_8cpp.html" target="_top" xlink:title=" ">
<polygon fill="none" stroke="black" points="1643.5,-134.5 1643.5,-153.5 1835.5,-153.5 1835.5,-134.5 1643.5,-134.5"/>
<text text-anchor="middle" x="1739.5" y="-141.5" font-family="Helvetica,sans-Serif" font-size="10.00">test/test_ResponseBodyHandler.cpp</text>
</a>
</g>
</g>
<!-- Node23&#45;&gt;Node27 -->
<g id="edge28" class="edge">
<title>Node23&#45;&gt;Node27</title>
<path fill="none" stroke="midnightblue" d="M1679.27,-189.79C1694.62,-178.38 1715.36,-162.96 1728.06,-153.51"/>
<polygon fill="midnightblue" stroke="midnightblue" points="1676.9,-187.2 1670.96,-195.98 1681.07,-192.82 1676.9,-187.2"/>
</g>
<!-- Node24&#45;&gt;Node3 -->
<g id="edge25" class="edge">
<title>Node24&#45;&gt;Node3</title>
<path fill="none" stroke="midnightblue" d="M1960.84,-134.3C1959.72,-134.2 1958.61,-134.1 1957.5,-134 1688.7,-110.22 1364.9,-91.95 1249.73,-85.77"/>
<polygon fill="midnightblue" stroke="midnightblue" points="1960.78,-137.81 1971.06,-135.27 1961.44,-130.84 1960.78,-137.81"/>
</g>
<!-- Node25 -->
<g id="node25" class="node">
<title>Node25</title>
<g id="a_node25"><a xlink:href="_response_builder_8cpp.html" target="_top" xlink:title=" ">
<polygon fill="none" stroke="black" points="1972,-73 1972,-92 2107,-92 2107,-73 1972,-73"/>
<text text-anchor="middle" x="2039.5" y="-80" font-family="Helvetica,sans-Serif" font-size="10.00">src/ResponseBuilder.cpp</text>
</a>
</g>
</g>
<!-- Node24&#45;&gt;Node25 -->
<g id="edge26" class="edge">
<title>Node24&#45;&gt;Node25</title>
<path fill="none" stroke="midnightblue" d="M2039.5,-124.32C2039.5,-113.5 2039.5,-100.4 2039.5,-92.01"/>
<polygon fill="midnightblue" stroke="midnightblue" points="2036,-124.48 2039.5,-134.48 2043,-124.48 2036,-124.48"/>
</g>
<!-- Node30&#45;&gt;Node4 -->
<g id="edge33" class="edge">
<title>Node30&#45;&gt;Node4</title>
<path fill="none" stroke="midnightblue" d="M1983.96,-259.05C2015.77,-253.01 2051.5,-241.78 2078.5,-221 2142.09,-172.05 2137.99,-58.17 2135.37,-25.44"/>
<polygon fill="midnightblue" stroke="midnightblue" points="1983.03,-255.66 1973.78,-260.83 1984.23,-262.55 1983.03,-255.66"/>
</g>
<!-- Node31 -->
<g id="node31" class="node">
<title>Node31</title>
<g id="a_node31"><a xlink:href="_config_file_parser_8cpp.html" target="_top" xlink:title=" ">
<polygon fill="none" stroke="black" points="1760,-196 1760,-215 1891,-215 1891,-196 1760,-196"/>
<text text-anchor="middle" x="1825.5" y="-203" font-family="Helvetica,sans-Serif" font-size="10.00">src/ConfigFileParser.cpp</text>
</a>
</g>
</g>
<!-- Node30&#45;&gt;Node31 -->
<g id="edge32" class="edge">
<title>Node30&#45;&gt;Node31</title>
<path fill="none" stroke="midnightblue" d="M1887.23,-251.29C1871.5,-239.88 1850.25,-224.46 1837.23,-215.01"/>
<polygon fill="midnightblue" stroke="midnightblue" points="1885.6,-254.43 1895.75,-257.48 1889.71,-248.77 1885.6,-254.43"/>
</g>
<!-- Node32 -->
<g id="node32" class="node">
<title>Node32</title>
<g id="a_node32"><a xlink:href="test___config_file_parser_8cpp.html" target="_top" xlink:title=" ">
<polygon fill="none" stroke="black" points="1909.5,-196 1909.5,-215 2069.5,-215 2069.5,-196 1909.5,-196"/>
<text text-anchor="middle" x="1989.5" y="-203" font-family="Helvetica,sans-Serif" font-size="10.00">test/test_ConfigFileParser.cpp</text>
</a>
</g>
</g>
<!-- Node30&#45;&gt;Node32 -->
<g id="edge34" class="edge">
<title>Node30&#45;&gt;Node32</title>
<path fill="none" stroke="midnightblue" d="M1927.77,-251.29C1943.5,-239.88 1964.75,-224.46 1977.77,-215.01"/>
<polygon fill="midnightblue" stroke="midnightblue" points="1925.29,-248.77 1919.25,-257.48 1929.4,-254.43 1925.29,-248.77"/>
</g>
<!-- Node33&#45;&gt;Node3 -->
<g id="edge37" class="edge">
<title>Node33&#45;&gt;Node3</title>
<path fill="none" stroke="midnightblue" d="M1109.25,-251.68C1099.02,-243.99 1088.07,-233.5 1082.5,-221 1076.89,-208.41 1076.75,-202.52 1082.5,-190 1104.65,-141.78 1160.6,-107.18 1189.16,-92.03"/>
<polygon fill="midnightblue" stroke="midnightblue" points="1107.34,-254.62 1117.55,-257.47 1111.35,-248.88 1107.34,-254.62"/>
</g>
<!-- Node34 -->
<g id="node34" class="node">
<title>Node34</title>
<g id="a_node34"><a xlink:href="signal_handler_8cpp.html" target="_top" xlink:title=" ">
<polygon fill="none" stroke="black" points="1091,-196 1091,-215 1212,-215 1212,-196 1091,-196"/>
<text text-anchor="middle" x="1151.5" y="-203" font-family="Helvetica,sans-Serif" font-size="10.00">src/signalHandler.cpp</text>
</a>
</g>
</g>
<!-- Node33&#45;&gt;Node34 -->
<g id="edge38" class="edge">
<title>Node33&#45;&gt;Node34</title>
<path fill="none" stroke="midnightblue" d="M1138.36,-247.66C1141.83,-236.77 1146.08,-223.49 1148.78,-215.01"/>
<polygon fill="midnightblue" stroke="midnightblue" points="1134.93,-246.88 1135.22,-257.48 1141.6,-249.01 1134.93,-246.88"/>
</g>
<!-- Node35&#45;&gt;Node3 -->
<g id="edge51" class="edge">
<title>Node35&#45;&gt;Node3</title>
<path fill="none" stroke="midnightblue" d="M993.66,-132.56C1037.44,-124.02 1100.12,-111.23 1154.5,-98 1161.88,-96.21 1169.79,-94.09 1177.16,-92.05"/>
<polygon fill="midnightblue" stroke="midnightblue" points="992.94,-129.13 983.79,-134.48 994.27,-136.01 992.94,-129.13"/>
</g>
<!-- Node36 -->
<g id="node36" class="node">
<title>Node36</title>
<g id="a_node36"><a xlink:href="_mock_socket_policy_8hpp.html" target="_top" xlink:title=" ">
<polygon fill="none" stroke="black" points="722,-73 722,-92 863,-92 863,-73 722,-73"/>
<text text-anchor="middle" x="792.5" y="-80" font-family="Helvetica,sans-Serif" font-size="10.00">inc/MockSocketPolicy.hpp</text>
</a>
</g>
</g>
<!-- Node35&#45;&gt;Node36 -->
<g id="edge40" class="edge">
<title>Node35&#45;&gt;Node36</title>
<path fill="none" stroke="midnightblue" d="M908.15,-130.63C879.79,-119.07 838.19,-102.12 813.38,-92.01"/>
<polygon fill="midnightblue" stroke="midnightblue" points="907,-133.94 917.58,-134.48 909.64,-127.46 907,-133.94"/>
</g>
<!-- Node37 -->
<g id="node37" class="node">
<title>Node37</title>
<g id="a_node37"><a xlink:href="_socket_policy_8cpp.html" target="_top" xlink:title=" ">
<polygon fill="none" stroke="black" points="881.5,-73 881.5,-92 995.5,-92 995.5,-73 881.5,-73"/>
<text text-anchor="middle" x="938.5" y="-80" font-family="Helvetica,sans-Serif" font-size="10.00">src/SocketPolicy.cpp</text>
</a>
</g>
</g>
<!-- Node35&#45;&gt;Node37 -->
<g id="edge52" class="edge">
<title>Node35&#45;&gt;Node37</title>
<path fill="none" stroke="midnightblue" d="M938.5,-124.32C938.5,-113.5 938.5,-100.4 938.5,-92.01"/>
<polygon fill="midnightblue" stroke="midnightblue" points="935,-124.48 938.5,-134.48 942,-124.48 935,-124.48"/>
</g>
<!-- Node38 -->
<g id="node38" class="node">
<title>Node38</title>
<g id="a_node38"><a xlink:href="test___socket_policy__retrieve_socket_info_8cpp.html" target="_top" xlink:title=" ">
<polygon fill="none" stroke="black" points="1014,-67.5 1014,-97.5 1145,-97.5 1145,-67.5 1014,-67.5"/>
<text text-anchor="start" x="1022" y="-85.5" font-family="Helvetica,sans-Serif" font-size="10.00">test/test_SocketPolicy</text>
<text text-anchor="middle" x="1079.5" y="-74.5" font-family="Helvetica,sans-Serif" font-size="10.00">_retrieveSocketInfo.cpp</text>
</a>
</g>
</g>
<!-- Node35&#45;&gt;Node38 -->
<g id="edge53" class="edge">
<title>Node35&#45;&gt;Node38</title>
<path fill="none" stroke="midnightblue" d="M968.22,-130.46C991.05,-120.82 1022.6,-107.51 1046.27,-97.52"/>
<polygon fill="midnightblue" stroke="midnightblue" points="966.55,-127.36 958.7,-134.48 969.28,-133.81 966.55,-127.36"/>
</g>
<!-- Node36&#45;&gt;Node6 -->
<g id="edge41" class="edge">
<title>Node36&#45;&gt;Node6</title>
<path fill="none" stroke="midnightblue" d="M844.6,-71.18C853.87,-69.6 863.45,-68.12 872.5,-67 1110.33,-37.58 1172.26,-56.92 1410.5,-31 1425.08,-29.41 1440.84,-27.23 1455.29,-25.04"/>
<polygon fill="midnightblue" stroke="midnightblue" points="843.95,-67.74 834.71,-72.93 845.17,-74.64 843.95,-67.74"/>
</g>
<!-- Node36&#45;&gt;Node7 -->
<g id="edge42" class="edge">
<title>Node36&#45;&gt;Node7</title>
<path fill="none" stroke="midnightblue" d="M843.95,-71.16C853.42,-69.54 863.23,-68.06 872.5,-67 1195.66,-29.92 1279.93,-64.37 1603.5,-31 1617.98,-29.51 1633.64,-27.27 1647.88,-25"/>
<polygon fill="midnightblue" stroke="midnightblue" points="843.11,-67.75 833.87,-72.94 844.33,-74.64 843.11,-67.75"/>
</g>
<!-- Node36&#45;&gt;Node8 -->
<g id="edge43" class="edge">
<title>Node36&#45;&gt;Node8</title>
<path fill="none" stroke="midnightblue" d="M711.48,-77.19C591.63,-70.32 360.17,-55.13 164.5,-31 161.46,-30.63 158.36,-30.22 155.24,-29.79"/>
<polygon fill="midnightblue" stroke="midnightblue" points="711.48,-80.7 721.67,-77.77 711.88,-73.71 711.48,-80.7"/>
</g>
<!-- Node36&#45;&gt;Node9 -->
<g id="edge44" class="edge">
<title>Node36&#45;&gt;Node9</title>
<path fill="none" stroke="midnightblue" d="M711.84,-74.67C618.03,-66.31 458.65,-50.78 322.5,-31 319.6,-30.58 316.65,-30.13 313.67,-29.66"/>
<polygon fill="midnightblue" stroke="midnightblue" points="711.55,-78.16 721.82,-75.56 712.17,-71.19 711.55,-78.16"/>
</g>
<!-- Node36&#45;&gt;Node10 -->
<g id="edge45" class="edge">
<title>Node36&#45;&gt;Node10</title>
<path fill="none" stroke="midnightblue" d="M733.36,-71.19C660.11,-58.43 536.66,-36.92 468.46,-25.03"/>
<polygon fill="midnightblue" stroke="midnightblue" points="732.9,-74.67 743.35,-72.94 734.1,-67.77 732.9,-74.67"/>
</g>
<!-- Node36&#45;&gt;Node11 -->
<g id="edge46" class="edge">
<title>Node36&#45;&gt;Node11</title>
<path fill="none" stroke="midnightblue" d="M758.35,-69.44C721.85,-56.54 664.9,-36.42 632.74,-25.06"/>
<polygon fill="midnightblue" stroke="midnightblue" points="757.47,-72.84 768.07,-72.87 759.8,-66.24 757.47,-72.84"/>
</g>
<!-- Node36&#45;&gt;Node12 -->
<g id="edge47" class="edge">
<title>Node36&#45;&gt;Node12</title>
<path fill="none" stroke="midnightblue" d="M792.79,-62.54C792.98,-50.17 793.22,-34.62 793.37,-25.13"/>
<polygon fill="midnightblue" stroke="midnightblue" points="789.29,-62.68 792.63,-72.73 796.29,-62.79 789.29,-62.68"/>
</g>
<!-- Node36&#45;&gt;Node13 -->
<g id="edge48" class="edge">
<title>Node36&#45;&gt;Node13</title>
<path fill="none" stroke="midnightblue" d="M827.46,-69.6C865.33,-56.71 924.81,-36.47 958.34,-25.06"/>
<polygon fill="midnightblue" stroke="midnightblue" points="826.2,-66.33 817.86,-72.87 828.46,-72.96 826.2,-66.33"/>
</g>
<!-- Node36&#45;&gt;Node14 -->
<g id="edge49" class="edge">
<title>Node36&#45;&gt;Node14</title>
<path fill="none" stroke="midnightblue" d="M849.5,-71.11C857.23,-69.72 865.06,-68.32 872.5,-67 964.88,-50.63 988.22,-47.91 1080.5,-31 1083.37,-30.47 1086.3,-29.93 1089.26,-29.38"/>
<polygon fill="midnightblue" stroke="midnightblue" points="848.66,-67.71 839.44,-72.93 849.91,-74.59 848.66,-67.71"/>
</g>
<!-- Node36&#45;&gt;Node16 -->
<g id="edge50" class="edge">
<title>Node36&#45;&gt;Node16</title>
<path fill="none" stroke="midnightblue" d="M845.87,-71.22C854.74,-69.69 863.87,-68.21 872.5,-67 1030.85,-44.72 1071.94,-51.73 1230.5,-31 1243.68,-29.28 1257.9,-27.12 1271.06,-25.01"/>
<polygon fill="midnightblue" stroke="midnightblue" points="845.23,-67.78 835.99,-72.97 846.45,-74.67 845.23,-67.78"/>
</g>
</g>
</svg>
