<?xml version="1.0" encoding="UTF-8" standalone="no"?>
<!DOCTYPE svg PUBLIC "-//W3C//DTD SVG 1.1//EN"
 "http://www.w3.org/Graphics/SVG/1.1/DTD/svg11.dtd">
<!-- Generated by graphviz version 2.43.0 (0)
 -->
<!-- Title: inc/error.hpp Pages: 1 -->
<!--zoomable 274 -->
<svg id="main" version="1.1" xmlns="http://www.w3.org/2000/svg" xmlns:xlink="http://www.w3.org/1999/xlink" xml:space="preserve" onload="init(evt)">
<style type="text/css"><![CDATA[
.edge:hover path { stroke: red; }
.edge:hover polygon { stroke: red; fill: red; }
]]></style>
<script type="text/javascript"><![CDATA[
var edges = document.getElementsByTagName('g');
if (edges && edges.length) {
  for (var i=0;i<edges.length;i++) {
    if (edges[i].id.substr(0,4)=='edge') {
      edges[i].setAttribute('class','edge');
    }
  }
}
]]></script>
        <defs>
                <circle id="rim" cx="0" cy="0" r="7"/>
                <circle id="rim2" cx="0" cy="0" r="3.5"/>
                <g id="zoomPlus">
                        <use xlink:href="#rim" fill="#404040">
                                <set attributeName="fill" to="#808080" begin="zoomplus.mouseover" end="zoomplus.mouseout"/>
                        </use>
                        <path d="M-4,0h8M0,-4v8" fill="none" stroke="white" stroke-width="1.5" pointer-events="none"/>
                </g>
                <g id="zoomMin">
                        <use xlink:href="#rim" fill="#404040">
                                <set attributeName="fill" to="#808080" begin="zoomminus.mouseover" end="zoomminus.mouseout"/>
                        </use>
                        <path d="M-4,0h8" fill="none" stroke="white" stroke-width="1.5" pointer-events="none"/>
                </g>
                <g id="dirArrow">
                        <path fill="none" stroke="white" stroke-width="1.5" d="M0,-3.0v7 M-2.5,-0.5L0,-3.0L2.5,-0.5"/>
                </g>
               <g id="resetDef">
                       <use xlink:href="#rim2" fill="#404040">
                               <set attributeName="fill" to="#808080" begin="reset.mouseover" end="reset.mouseout"/>
                       </use>
               </g>
        </defs>

<script type="text/javascript">
var viewWidth = 3112;
var viewHeight = 274;
var sectionId = 'dynsection-0';
</script>
<script xlink:href="svgpan.js"/>
<svg id="graph" class="graph">
<g id="viewport">
<title>inc/error.hpp</title>
<!-- Node1 -->
<g id="node1" class="node">
<title>Node1</title>
<g id="a_node1"><a xlink:title=" ">
<polygon fill="#bfbfbf" stroke="black" points="1625,-246.5 1625,-265.5 1702,-265.5 1702,-246.5 1625,-246.5"/>
<text text-anchor="middle" x="1663.5" y="-253.5" font-family="Helvetica,sans-Serif" font-size="10.00">inc/error.hpp</text>
</a>
</g>
</g>
<!-- Node2 -->
<g id="node2" class="node">
<title>Node2</title>
<g id="a_node2"><a xlink:href="_request_parser_8hpp.html" target="_top" xlink:title=" ">
<polygon fill="none" stroke="black" points="1662.5,-190.5 1662.5,-209.5 1786.5,-209.5 1786.5,-190.5 1662.5,-190.5"/>
<text text-anchor="middle" x="1724.5" y="-197.5" font-family="Helvetica,sans-Serif" font-size="10.00">inc/RequestParser.hpp</text>
</a>
</g>
</g>
<!-- Node1&#45;&gt;Node2 -->
<g id="edge1" class="edge">
<title>Node1&#45;&gt;Node2</title>
<path fill="none" stroke="midnightblue" d="M1680.97,-239.54C1691.84,-229.91 1705.44,-217.87 1714.52,-209.83"/>
<polygon fill="midnightblue" stroke="midnightblue" points="1678.47,-237.07 1673.3,-246.32 1683.11,-242.32 1678.47,-237.07"/>
</g>
<!-- Node3 -->
<g id="node3" class="node">
<title>Node3</title>
<g id="a_node3"><a xlink:href="_server_8hpp.html" target="_top" xlink:title=" ">
<polygon fill="none" stroke="black" points="1485.5,-129 1485.5,-148 1571.5,-148 1571.5,-129 1485.5,-129"/>
<text text-anchor="middle" x="1528.5" y="-136" font-family="Helvetica,sans-Serif" font-size="10.00">inc/Server.hpp</text>
</a>
</g>
</g>
<!-- Node1&#45;&gt;Node3 -->
<g id="edge28" class="edge">
<title>Node1&#45;&gt;Node3</title>
<path fill="none" stroke="midnightblue" d="M1645.71,-239.78C1617.07,-215.28 1561.65,-167.86 1538.76,-148.28"/>
<polygon fill="midnightblue" stroke="midnightblue" points="1643.48,-242.48 1653.35,-246.32 1648.03,-237.16 1643.48,-242.48"/>
</g>
<!-- Node2&#45;&gt;Node3 -->
<g id="edge2" class="edge">
<title>Node2&#45;&gt;Node3</title>
<path fill="none" stroke="midnightblue" d="M1686.71,-187.53C1648.62,-175.96 1590.71,-158.38 1556.53,-148.01"/>
<polygon fill="midnightblue" stroke="midnightblue" points="1685.83,-190.92 1696.42,-190.48 1687.87,-184.22 1685.83,-190.92"/>
</g>
<!-- Node24 -->
<g id="node24" class="node">
<title>Node24</title>
<g id="a_node24"><a xlink:href="_request_parser_8cpp.html" target="_top" xlink:title=" ">
<polygon fill="none" stroke="black" points="1590,-129 1590,-148 1713,-148 1713,-129 1590,-129"/>
<text text-anchor="middle" x="1651.5" y="-136" font-family="Helvetica,sans-Serif" font-size="10.00">src/RequestParser.cpp</text>
</a>
</g>
</g>
<!-- Node2&#45;&gt;Node24 -->
<g id="edge24" class="edge">
<title>Node2&#45;&gt;Node24</title>
<path fill="none" stroke="midnightblue" d="M1706.06,-183.97C1692.1,-172.59 1673.42,-157.37 1661.94,-148.01"/>
<polygon fill="midnightblue" stroke="midnightblue" points="1704.08,-186.87 1714.04,-190.48 1708.5,-181.44 1704.08,-186.87"/>
</g>
<!-- Node25 -->
<g id="node25" class="node">
<title>Node25</title>
<g id="a_node25"><a xlink:href="test__parse_body_8cpp.html" target="_top" xlink:title=" ">
<polygon fill="none" stroke="black" points="1731,-129 1731,-148 1864,-148 1864,-129 1731,-129"/>
<text text-anchor="middle" x="1797.5" y="-136" font-family="Helvetica,sans-Serif" font-size="10.00">test/test_parseBody.cpp</text>
</a>
</g>
</g>
<!-- Node2&#45;&gt;Node25 -->
<g id="edge25" class="edge">
<title>Node2&#45;&gt;Node25</title>
<path fill="none" stroke="midnightblue" d="M1742.94,-183.97C1756.9,-172.59 1775.58,-157.37 1787.06,-148.01"/>
<polygon fill="midnightblue" stroke="midnightblue" points="1740.5,-181.44 1734.96,-190.48 1744.92,-186.87 1740.5,-181.44"/>
</g>
<!-- Node26 -->
<g id="node26" class="node">
<title>Node26</title>
<g id="a_node26"><a xlink:href="test__parse_header___headers_8cpp.html" target="_top" xlink:title=" ">
<polygon fill="none" stroke="black" points="1882,-123.5 1882,-153.5 2007,-153.5 2007,-123.5 1882,-123.5"/>
<text text-anchor="start" x="1890" y="-141.5" font-family="Helvetica,sans-Serif" font-size="10.00">test/test_parseHeader</text>
<text text-anchor="middle" x="1944.5" y="-130.5" font-family="Helvetica,sans-Serif" font-size="10.00">_Headers.cpp</text>
</a>
</g>
</g>
<!-- Node2&#45;&gt;Node26 -->
<g id="edge26" class="edge">
<title>Node2&#45;&gt;Node26</title>
<path fill="none" stroke="midnightblue" d="M1765.69,-187.86C1801.61,-178.14 1853.89,-164.01 1892.65,-153.52"/>
<polygon fill="midnightblue" stroke="midnightblue" points="1764.76,-184.49 1756.02,-190.48 1766.59,-191.24 1764.76,-184.49"/>
</g>
<!-- Node27 -->
<g id="node27" class="node">
<title>Node27</title>
<g id="a_node27"><a xlink:href="test__parse_header___request_line_8cpp.html" target="_top" xlink:title=" ">
<polygon fill="none" stroke="black" points="2025,-123.5 2025,-153.5 2150,-153.5 2150,-123.5 2025,-123.5"/>
<text text-anchor="start" x="2033" y="-141.5" font-family="Helvetica,sans-Serif" font-size="10.00">test/test_parseHeader</text>
<text text-anchor="middle" x="2087.5" y="-130.5" font-family="Helvetica,sans-Serif" font-size="10.00">_RequestLine.cpp</text>
</a>
</g>
</g>
<!-- Node2&#45;&gt;Node27 -->
<g id="edge27" class="edge">
<title>Node2&#45;&gt;Node27</title>
<path fill="none" stroke="midnightblue" d="M1795.6,-189.03C1854.83,-180.48 1941.33,-167.46 2016.5,-154 2019.22,-153.51 2022,-153 2024.81,-152.47"/>
<polygon fill="midnightblue" stroke="midnightblue" points="1795,-185.58 1785.6,-190.46 1796,-192.51 1795,-185.58"/>
</g>
<!-- Node4 -->
<g id="node4" class="node">
<title>Node4</title>
<g id="a_node4"><a xlink:href="_config_file_parser_8hpp.html" target="_top" xlink:title=" ">
<polygon fill="none" stroke="black" points="185.5,-62 185.5,-81 317.5,-81 317.5,-62 185.5,-62"/>
<text text-anchor="middle" x="251.5" y="-69" font-family="Helvetica,sans-Serif" font-size="10.00">inc/ConfigFileParser.hpp</text>
</a>
</g>
</g>
<!-- Node3&#45;&gt;Node4 -->
<g id="edge3" class="edge">
<title>Node3&#45;&gt;Node4</title>
<path fill="none" stroke="midnightblue" d="M1475.27,-137.42C1308.02,-136.7 778.34,-130.85 342.5,-87 328.17,-85.56 312.67,-83.34 298.6,-81.07"/>
<polygon fill="midnightblue" stroke="midnightblue" points="1475.28,-140.92 1485.29,-137.46 1475.31,-133.92 1475.28,-140.92"/>
</g>
<!-- Node6 -->
<g id="node6" class="node">
<title>Node6</title>
<g id="a_node6"><a xlink:href="main_8cpp.html" target="_top" xlink:title=" ">
<polygon fill="none" stroke="black" points="328,-0.5 328,-19.5 407,-19.5 407,-0.5 328,-0.5"/>
<text text-anchor="middle" x="367.5" y="-7.5" font-family="Helvetica,sans-Serif" font-size="10.00">src/main.cpp</text>
</a>
</g>
</g>
<!-- Node3&#45;&gt;Node6 -->
<g id="edge7" class="edge">
<title>Node3&#45;&gt;Node6</title>
<path fill="none" stroke="midnightblue" d="M1475.33,-137.08C1254.08,-135.11 416.02,-125.11 375.5,-87 356.95,-69.55 361.72,-35.52 365.27,-19.6"/>
<polygon fill="midnightblue" stroke="midnightblue" points="1475.36,-140.58 1485.39,-137.17 1475.42,-133.58 1475.36,-140.58"/>
</g>
<!-- Node8 -->
<g id="node8" class="node">
<title>Node8</title>
<g id="a_node8"><a xlink:href="_server_8cpp.html" target="_top" xlink:title=" ">
<polygon fill="none" stroke="black" points="385,-62 385,-81 470,-81 470,-62 385,-62"/>
<text text-anchor="middle" x="427.5" y="-69" font-family="Helvetica,sans-Serif" font-size="10.00">src/Server.cpp</text>
</a>
</g>
</g>
<!-- Node3&#45;&gt;Node8 -->
<g id="edge8" class="edge">
<title>Node3&#45;&gt;Node8</title>
<path fill="none" stroke="midnightblue" d="M1475.23,-136.55C1289.81,-132.99 673.48,-118.97 478.5,-87 470.14,-85.63 461.21,-83.37 453.18,-81.04"/>
<polygon fill="midnightblue" stroke="midnightblue" points="1475.21,-140.05 1485.27,-136.74 1475.34,-133.05 1475.21,-140.05"/>
</g>
<!-- Node9 -->
<g id="node9" class="node">
<title>Node9</title>
<g id="a_node9"><a xlink:href="test__accept_connections_8cpp.html" target="_top" xlink:title=" ">
<polygon fill="none" stroke="black" points="488,-62 488,-81 663,-81 663,-62 488,-62"/>
<text text-anchor="middle" x="575.5" y="-69" font-family="Helvetica,sans-Serif" font-size="10.00">test/test_acceptConnections.cpp</text>
</a>
</g>
</g>
<!-- Node3&#45;&gt;Node9 -->
<g id="edge9" class="edge">
<title>Node3&#45;&gt;Node9</title>
<path fill="none" stroke="midnightblue" d="M1475.06,-136.04C1340.07,-131.99 974.52,-118.75 671.5,-87 656.75,-85.45 640.79,-83.26 626.21,-81.04"/>
<polygon fill="midnightblue" stroke="midnightblue" points="1475.04,-139.54 1485.14,-136.34 1475.24,-132.55 1475.04,-139.54"/>
</g>
<!-- Node10 -->
<g id="node10" class="node">
<title>Node10</title>
<g id="a_node10"><a xlink:href="test__check_for_timeout_8cpp.html" target="_top" xlink:title=" ">
<polygon fill="none" stroke="black" points="681,-62 681,-81 848,-81 848,-62 681,-62"/>
<text text-anchor="middle" x="764.5" y="-69" font-family="Helvetica,sans-Serif" font-size="10.00">test/test_checkForTimeout.cpp</text>
</a>
</g>
</g>
<!-- Node3&#45;&gt;Node10 -->
<g id="edge10" class="edge">
<title>Node3&#45;&gt;Node10</title>
<path fill="none" stroke="midnightblue" d="M1474.94,-134.96C1360.92,-129.22 1085.84,-113.65 856.5,-87 842.69,-85.4 827.77,-83.23 814.05,-81.07"/>
<polygon fill="midnightblue" stroke="midnightblue" points="1474.98,-138.46 1485.14,-135.47 1475.33,-131.47 1474.98,-138.46"/>
</g>
<!-- Node11 -->
<g id="node11" class="node">
<title>Node11</title>
<g id="a_node11"><a xlink:href="test__connection_receive_from_c_g_i_8cpp.html" target="_top" xlink:title=" ">
<polygon fill="none" stroke="black" points="866,-56.5 866,-86.5 1021,-86.5 1021,-56.5 866,-56.5"/>
<text text-anchor="start" x="874" y="-74.5" font-family="Helvetica,sans-Serif" font-size="10.00">test/test_connectionReceive</text>
<text text-anchor="middle" x="943.5" y="-63.5" font-family="Helvetica,sans-Serif" font-size="10.00">FromCGI.cpp</text>
</a>
</g>
</g>
<!-- Node3&#45;&gt;Node11 -->
<g id="edge11" class="edge">
<title>Node3&#45;&gt;Node11</title>
<path fill="none" stroke="midnightblue" d="M1475.23,-133.27C1383.82,-125.76 1191.32,-108.81 1029.5,-87 1026.8,-86.64 1024.05,-86.25 1021.28,-85.85"/>
<polygon fill="midnightblue" stroke="midnightblue" points="1475.08,-136.77 1485.34,-134.1 1475.65,-129.8 1475.08,-136.77"/>
</g>
<!-- Node12 -->
<g id="node12" class="node">
<title>Node12</title>
<g id="a_node12"><a xlink:href="test__connection_receive_header_8cpp.html" target="_top" xlink:title=" ">
<polygon fill="none" stroke="black" points="1039,-56.5 1039,-86.5 1194,-86.5 1194,-56.5 1039,-56.5"/>
<text text-anchor="start" x="1047" y="-74.5" font-family="Helvetica,sans-Serif" font-size="10.00">test/test_connectionReceive</text>
<text text-anchor="middle" x="1116.5" y="-63.5" font-family="Helvetica,sans-Serif" font-size="10.00">Header.cpp</text>
</a>
</g>
</g>
<!-- Node3&#45;&gt;Node12 -->
<g id="edge12" class="edge">
<title>Node3&#45;&gt;Node12</title>
<path fill="none" stroke="midnightblue" d="M1475.45,-129.44C1411.09,-119.62 1299.29,-102.42 1203.5,-87 1200.48,-86.51 1197.39,-86.01 1194.28,-85.51"/>
<polygon fill="midnightblue" stroke="midnightblue" points="1474.95,-132.9 1485.37,-130.95 1476.01,-125.98 1474.95,-132.9"/>
</g>
<!-- Node13 -->
<g id="node13" class="node">
<title>Node13</title>
<g id="a_node13"><a xlink:href="test__connection_send_response_8cpp.html" target="_top" xlink:title=" ">
<polygon fill="none" stroke="black" points="1212.5,-56.5 1212.5,-86.5 1352.5,-86.5 1352.5,-56.5 1212.5,-56.5"/>
<text text-anchor="start" x="1220.5" y="-74.5" font-family="Helvetica,sans-Serif" font-size="10.00">test/test_connectionSend</text>
<text text-anchor="middle" x="1282.5" y="-63.5" font-family="Helvetica,sans-Serif" font-size="10.00">Response.cpp</text>
</a>
</g>
</g>
<!-- Node3&#45;&gt;Node13 -->
<g id="edge13" class="edge">
<title>Node3&#45;&gt;Node13</title>
<path fill="none" stroke="midnightblue" d="M1486.26,-126.34C1444.6,-115.33 1380.8,-98.47 1335.71,-86.56"/>
<polygon fill="midnightblue" stroke="midnightblue" points="1485.52,-129.76 1496.09,-128.94 1487.31,-123 1485.52,-129.76"/>
</g>
<!-- Node14 -->
<g id="node14" class="node">
<title>Node14</title>
<g id="a_node14"><a xlink:href="test__connection_send_to_c_g_i_8cpp.html" target="_top" xlink:title=" ">
<polygon fill="none" stroke="black" points="1370.5,-56.5 1370.5,-86.5 1510.5,-86.5 1510.5,-56.5 1370.5,-56.5"/>
<text text-anchor="start" x="1378.5" y="-74.5" font-family="Helvetica,sans-Serif" font-size="10.00">test/test_connectionSend</text>
<text text-anchor="middle" x="1440.5" y="-63.5" font-family="Helvetica,sans-Serif" font-size="10.00">ToCGI.cpp</text>
</a>
</g>
</g>
<!-- Node3&#45;&gt;Node14 -->
<g id="edge14" class="edge">
<title>Node3&#45;&gt;Node14</title>
<path fill="none" stroke="midnightblue" d="M1508.25,-122.54C1493.61,-111.73 1473.94,-97.2 1459.57,-86.59"/>
<polygon fill="midnightblue" stroke="midnightblue" points="1506.51,-125.61 1516.63,-128.73 1510.67,-119.98 1506.51,-125.61"/>
</g>
<!-- Node15 -->
<g id="node15" class="node">
<title>Node15</title>
<g id="a_node15"><a xlink:href="test__create_virtual_server_8cpp.html" target="_top" xlink:title=" ">
<polygon fill="none" stroke="black" points="1528.5,-62 1528.5,-81 1704.5,-81 1704.5,-62 1528.5,-62"/>
<text text-anchor="middle" x="1616.5" y="-69" font-family="Helvetica,sans-Serif" font-size="10.00">test/test_createVirtualServer.cpp</text>
</a>
</g>
</g>
<!-- Node3&#45;&gt;Node15 -->
<g id="edge15" class="edge">
<title>Node3&#45;&gt;Node15</title>
<path fill="none" stroke="midnightblue" d="M1548.72,-122.57C1566.09,-109.74 1590.53,-91.69 1604.82,-81.13"/>
<polygon fill="midnightblue" stroke="midnightblue" points="1546.33,-119.98 1540.37,-128.73 1550.49,-125.61 1546.33,-119.98"/>
</g>
<!-- Node16 -->
<g id="node16" class="node">
<title>Node16</title>
<g id="a_node16"><a xlink:href="test__handle_complete_request_header_8cpp.html" target="_top" xlink:title=" ">
<polygon fill="none" stroke="black" points="1723,-56.5 1723,-86.5 1866,-86.5 1866,-56.5 1723,-56.5"/>
<text text-anchor="start" x="1731" y="-74.5" font-family="Helvetica,sans-Serif" font-size="10.00">test/test_handleComplete</text>
<text text-anchor="middle" x="1794.5" y="-63.5" font-family="Helvetica,sans-Serif" font-size="10.00">RequestHeader.cpp</text>
</a>
</g>
</g>
<!-- Node3&#45;&gt;Node16 -->
<g id="edge16" class="edge">
<title>Node3&#45;&gt;Node16</title>
<path fill="none" stroke="midnightblue" d="M1568.08,-126.29C1572.27,-125.15 1576.47,-124.04 1580.5,-123 1631.33,-109.92 1689.3,-96.32 1732.07,-86.54"/>
<polygon fill="midnightblue" stroke="midnightblue" points="1567.13,-122.92 1558.42,-128.94 1568.99,-129.67 1567.13,-122.92"/>
</g>
<!-- Node17 -->
<g id="node17" class="node">
<title>Node17</title>
<g id="a_node17"><a xlink:href="test__init_virtual_servers_8cpp.html" target="_top" xlink:title=" ">
<polygon fill="none" stroke="black" points="1884,-62 1884,-81 2051,-81 2051,-62 1884,-62"/>
<text text-anchor="middle" x="1967.5" y="-69" font-family="Helvetica,sans-Serif" font-size="10.00">test/test_initVirtualServers.cpp</text>
</a>
</g>
</g>
<!-- Node3&#45;&gt;Node17 -->
<g id="edge17" class="edge">
<title>Node3&#45;&gt;Node17</title>
<path fill="none" stroke="midnightblue" d="M1565.93,-126.34C1570.8,-125.1 1575.75,-123.95 1580.5,-123 1710.04,-97.19 1744.69,-105.28 1875.5,-87 1888.47,-85.19 1902.44,-83.07 1915.49,-81.02"/>
<polygon fill="midnightblue" stroke="midnightblue" points="1564.87,-123 1556.11,-128.97 1566.67,-129.76 1564.87,-123"/>
</g>
<!-- Node18 -->
<g id="node18" class="node">
<title>Node18</title>
<g id="a_node18"><a xlink:href="test__is_duplicate_server_8cpp.html" target="_top" xlink:title=" ">
<polygon fill="none" stroke="black" points="2068.5,-62 2068.5,-81 2236.5,-81 2236.5,-62 2068.5,-62"/>
<text text-anchor="middle" x="2152.5" y="-69" font-family="Helvetica,sans-Serif" font-size="10.00">test/test_isDuplicateServer.cpp</text>
</a>
</g>
</g>
<!-- Node3&#45;&gt;Node18 -->
<g id="edge18" class="edge">
<title>Node3&#45;&gt;Node18</title>
<path fill="none" stroke="midnightblue" d="M1564.98,-126.35C1570.16,-125.06 1575.44,-123.89 1580.5,-123 1791.22,-86.09 1848,-111.67 2060.5,-87 2074.31,-85.4 2089.23,-83.23 2102.95,-81.07"/>
<polygon fill="midnightblue" stroke="midnightblue" points="1564.02,-122.99 1555.26,-128.95 1565.82,-129.75 1564.02,-122.99"/>
</g>
<!-- Node19 -->
<g id="node19" class="node">
<title>Node19</title>
<g id="a_node19"><a xlink:href="test__register_c_g_i_file_descriptor_8cpp.html" target="_top" xlink:title=" ">
<polygon fill="none" stroke="black" points="2254.5,-56.5 2254.5,-86.5 2388.5,-86.5 2388.5,-56.5 2254.5,-56.5"/>
<text text-anchor="start" x="2262.5" y="-74.5" font-family="Helvetica,sans-Serif" font-size="10.00">test/test_registerCGIFile</text>
<text text-anchor="middle" x="2321.5" y="-63.5" font-family="Helvetica,sans-Serif" font-size="10.00">Descriptor.cpp</text>
</a>
</g>
</g>
<!-- Node3&#45;&gt;Node19 -->
<g id="edge19" class="edge">
<title>Node3&#45;&gt;Node19</title>
<path fill="none" stroke="midnightblue" d="M1564.62,-126.34C1569.91,-125.03 1575.32,-123.85 1580.5,-123 1872.56,-74.96 1951.69,-122.82 2245.5,-87 2248.43,-86.64 2251.42,-86.24 2254.44,-85.8"/>
<polygon fill="midnightblue" stroke="midnightblue" points="1563.46,-123.03 1554.7,-128.99 1565.27,-129.79 1563.46,-123.03"/>
</g>
<!-- Node20 -->
<g id="node20" class="node">
<title>Node20</title>
<g id="a_node20"><a xlink:href="test__register_connection_8cpp.html" target="_top" xlink:title=" ">
<polygon fill="none" stroke="black" points="2407,-62 2407,-81 2582,-81 2582,-62 2407,-62"/>
<text text-anchor="middle" x="2494.5" y="-69" font-family="Helvetica,sans-Serif" font-size="10.00">test/test_registerConnection.cpp</text>
</a>
</g>
</g>
<!-- Node3&#45;&gt;Node20 -->
<g id="edge20" class="edge">
<title>Node3&#45;&gt;Node20</title>
<path fill="none" stroke="midnightblue" d="M1564.62,-126.29C1569.9,-124.99 1575.31,-123.83 1580.5,-123 1939.44,-65.82 2035.72,-121.92 2397.5,-87 2412.75,-85.53 2429.27,-83.3 2444.28,-81.03"/>
<polygon fill="midnightblue" stroke="midnightblue" points="1563.45,-122.98 1554.7,-128.94 1565.26,-129.74 1563.45,-122.98"/>
</g>
<!-- Node21 -->
<g id="node21" class="node">
<title>Node21</title>
<g id="a_node21"><a xlink:href="test__register_virtual_server_8cpp.html" target="_top" xlink:title=" ">
<polygon fill="none" stroke="black" points="2600.5,-56.5 2600.5,-86.5 2732.5,-86.5 2732.5,-56.5 2600.5,-56.5"/>
<text text-anchor="start" x="2608.5" y="-74.5" font-family="Helvetica,sans-Serif" font-size="10.00">test/test_registerVirtual</text>
<text text-anchor="middle" x="2666.5" y="-63.5" font-family="Helvetica,sans-Serif" font-size="10.00">Server.cpp</text>
</a>
</g>
</g>
<!-- Node3&#45;&gt;Node21 -->
<g id="edge21" class="edge">
<title>Node3&#45;&gt;Node21</title>
<path fill="none" stroke="midnightblue" d="M1564.44,-126.3C1569.78,-124.98 1575.25,-123.81 1580.5,-123 2024.81,-54.14 2144.76,-137.83 2591.5,-87 2594.4,-86.67 2597.35,-86.29 2600.33,-85.87"/>
<polygon fill="midnightblue" stroke="midnightblue" points="1563.18,-123.01 1554.42,-128.97 1564.99,-129.77 1563.18,-123.01"/>
</g>
<!-- Node22 -->
<g id="node22" class="node">
<title>Node22</title>
<g id="a_node22"><a xlink:href="test__select_server_config_8cpp.html" target="_top" xlink:title=" ">
<polygon fill="none" stroke="black" points="2750.5,-62 2750.5,-81 2924.5,-81 2924.5,-62 2750.5,-62"/>
<text text-anchor="middle" x="2837.5" y="-69" font-family="Helvetica,sans-Serif" font-size="10.00">test/test_selectServerConfig.cpp</text>
</a>
</g>
</g>
<!-- Node3&#45;&gt;Node22 -->
<g id="edge22" class="edge">
<title>Node3&#45;&gt;Node22</title>
<path fill="none" stroke="midnightblue" d="M1564.43,-126.27C1569.78,-124.96 1575.25,-123.8 1580.5,-123 2090.84,-45.1 2227.36,-133.63 2741.5,-87 2756.94,-85.6 2773.69,-83.33 2788.8,-81"/>
<polygon fill="midnightblue" stroke="midnightblue" points="1563.18,-122.99 1554.42,-128.95 1564.98,-129.75 1563.18,-122.99"/>
</g>
<!-- Node23 -->
<g id="node23" class="node">
<title>Node23</title>
<g id="a_node23"><a xlink:href="test__shutdown_server_8cpp.html" target="_top" xlink:title=" ">
<polygon fill="none" stroke="black" points="2943,-62 2943,-81 3104,-81 3104,-62 2943,-62"/>
<text text-anchor="middle" x="3023.5" y="-69" font-family="Helvetica,sans-Serif" font-size="10.00">test/test_shutdownServer.cpp</text>
</a>
</g>
</g>
<!-- Node3&#45;&gt;Node23 -->
<g id="edge23" class="edge">
<title>Node3&#45;&gt;Node23</title>
<path fill="none" stroke="midnightblue" d="M1564.43,-126.25C1569.77,-124.94 1575.25,-123.79 1580.5,-123 1877.93,-78.27 2634.03,-114.98 2933.5,-87 2948,-85.65 2963.7,-83.39 2977.87,-81.06"/>
<polygon fill="midnightblue" stroke="midnightblue" points="1563.17,-122.97 1554.42,-128.93 1564.98,-129.73 1563.17,-122.97"/>
</g>
<!-- Node5 -->
<g id="node5" class="node">
<title>Node5</title>
<g id="a_node5"><a xlink:href="_config_file_parser_8cpp.html" target="_top" xlink:title=" ">
<polygon fill="none" stroke="black" points="0,-0.5 0,-19.5 131,-19.5 131,-0.5 0,-0.5"/>
<text text-anchor="middle" x="65.5" y="-7.5" font-family="Helvetica,sans-Serif" font-size="10.00">src/ConfigFileParser.cpp</text>
</a>
</g>
</g>
<!-- Node4&#45;&gt;Node5 -->
<g id="edge4" class="edge">
<title>Node4&#45;&gt;Node5</title>
<path fill="none" stroke="midnightblue" d="M215.18,-58.88C179.02,-47.32 124.4,-29.84 92.1,-19.51"/>
<polygon fill="midnightblue" stroke="midnightblue" points="214.26,-62.26 224.85,-61.98 216.39,-55.59 214.26,-62.26"/>
</g>
<!-- Node4&#45;&gt;Node6 -->
<g id="edge5" class="edge">
<title>Node4&#45;&gt;Node6</title>
<path fill="none" stroke="midnightblue" d="M277.1,-57.37C299.59,-45.83 331.63,-29.4 350.91,-19.51"/>
<polygon fill="midnightblue" stroke="midnightblue" points="275.42,-54.3 268.12,-61.98 278.62,-60.53 275.42,-54.3"/>
</g>
<!-- Node7 -->
<g id="node7" class="node">
<title>Node7</title>
<g id="a_node7"><a xlink:href="test___config_file_parser_8cpp.html" target="_top" xlink:title=" ">
<polygon fill="none" stroke="black" points="149.5,-0.5 149.5,-19.5 309.5,-19.5 309.5,-0.5 149.5,-0.5"/>
<text text-anchor="middle" x="229.5" y="-7.5" font-family="Helvetica,sans-Serif" font-size="10.00">test/test_ConfigFileParser.cpp</text>
</a>
</g>
</g>
<!-- Node4&#45;&gt;Node7 -->
<g id="edge6" class="edge">
<title>Node4&#45;&gt;Node7</title>
<path fill="none" stroke="midnightblue" d="M244.84,-52.5C240.8,-41.55 235.81,-28.07 232.65,-19.51"/>
<polygon fill="midnightblue" stroke="midnightblue" points="241.6,-53.81 248.35,-61.98 248.16,-51.38 241.6,-53.81"/>
</g>
</g>
</svg>
        <g id="navigator" transform="translate(0 0)" fill="#404254">
                <rect fill="#f2f5e9" fill-opacity="0.5" stroke="#606060" stroke-width=".5" x="0" y="0" width="60" height="60"/>
                <use id="zoomplus" xlink:href="#zoomPlus" x="17" y="9" onmousedown="handleZoom(evt,'in')"/>
                <use id="zoomminus" xlink:href="#zoomMin" x="42" y="9" onmousedown="handleZoom(evt,'out')"/>
                <use id="reset" xlink:href="#resetDef" x="30" y="36" onmousedown="handleReset()"/>
                <g id="arrowUp" xlink:href="#dirArrow" transform="translate(30 24)" onmousedown="handlePan(0,-1)">
                  <use xlink:href="#rim" fill="#404040">
                        <set attributeName="fill" to="#808080" begin="arrowUp.mouseover" end="arrowUp.mouseout"/>
                  </use>
                  <path fill="none" stroke="white" stroke-width="1.5" d="M0,-3.0v7 M-2.5,-0.5L0,-3.0L2.5,-0.5"/>
                </g>
                <g id="arrowRight" xlink:href="#dirArrow" transform="rotate(90) translate(36 -43)" onmousedown="handlePan(1,0)">
                  <use xlink:href="#rim" fill="#404040">
                        <set attributeName="fill" to="#808080" begin="arrowRight.mouseover" end="arrowRight.mouseout"/>
                  </use>
                  <path fill="none" stroke="white" stroke-width="1.5" d="M0,-3.0v7 M-2.5,-0.5L0,-3.0L2.5,-0.5"/>
                </g>
                <g id="arrowDown" xlink:href="#dirArrow" transform="rotate(180) translate(-30 -48)" onmousedown="handlePan(0,1)">
                  <use xlink:href="#rim" fill="#404040">
                        <set attributeName="fill" to="#808080" begin="arrowDown.mouseover" end="arrowDown.mouseout"/>
                  </use>
                  <path fill="none" stroke="white" stroke-width="1.5" d="M0,-3.0v7 M-2.5,-0.5L0,-3.0L2.5,-0.5"/>
                </g>
                <g id="arrowLeft" xlink:href="#dirArrow" transform="rotate(270) translate(-36 17)" onmousedown="handlePan(-1,0)">
                  <use xlink:href="#rim" fill="#404040">
                        <set attributeName="fill" to="#808080" begin="arrowLeft.mouseover" end="arrowLeft.mouseout"/>
                  </use>
                  <path fill="none" stroke="white" stroke-width="1.5" d="M0,-3.0v7 M-2.5,-0.5L0,-3.0L2.5,-0.5"/>
                </g>
        </g>
        <svg viewBox="0 0 15 15" width="100%" height="30px" preserveAspectRatio="xMaxYMin meet">
         <g id="arrow_out" transform="scale(0.3 0.3)">
          <a xlink:href="error_8hpp__dep__incl_org.svg" target="_base">
           <rect id="button" ry="5" rx="5" y="6" x="6" height="38" width="38"
                fill="#f2f5e9" fill-opacity="0.5" stroke="#606060" stroke-width="1.0"/>
           <path id="arrow"
             d="M 11.500037,31.436501 C 11.940474,20.09759 22.043105,11.32322 32.158766,21.979434 L 37.068811,17.246167 C 37.068811,17.246167 37.088388,32 37.088388,32 L 22.160133,31.978069 C 22.160133,31.978069 26.997745,27.140456 26.997745,27.140456 C 18.528582,18.264221 13.291696,25.230495 11.500037,31.436501 z"
             style="fill:#404040;"/>
          </a>
         </g>
        </svg>
</svg>
