<?xml version="1.0" encoding="UTF-8" standalone="no"?>
<!DOCTYPE svg PUBLIC "-//W3C//DTD SVG 1.1//EN"
 "http://www.w3.org/Graphics/SVG/1.1/DTD/svg11.dtd">
<!-- Generated by graphviz version 2.43.0 (0)
 -->
<!-- Title: inc/error.hpp Pages: 1 -->
<svg width="3713pt" height="346pt"
 viewBox="0.00 0.00 3712.50 346.00" xmlns="http://www.w3.org/2000/svg" xmlns:xlink="http://www.w3.org/1999/xlink">
<g id="graph0" class="graph" transform="scale(1 1) rotate(0) translate(4 342)">
<title>inc/error.hpp</title>
<!-- Node1 -->
<g id="Node000001" class="node">
<title>Node1</title>
<g id="a_Node000001"><a xlink:title=" ">
<polygon fill="#999999" stroke="#666666" points="887,-338 810,-338 810,-319 887,-319 887,-338"/>
<text text-anchor="middle" x="848.5" y="-326" font-family="Helvetica,sans-Serif" font-size="10.00">inc/error.hpp</text>
</a>
</g>
</g>
<!-- Node2 -->
<g id="Node000002" class="node">
<title>Node2</title>
<g id="a_Node000002"><a xlink:href="_config_file_parser_8hpp.html" target="_top" xlink:title=" ">
<polygon fill="white" stroke="#666666" points="344.5,-90.5 212.5,-90.5 212.5,-71.5 344.5,-71.5 344.5,-90.5"/>
<text text-anchor="middle" x="278.5" y="-78.5" font-family="Helvetica,sans-Serif" font-size="10.00">inc/ConfigFileParser.hpp</text>
</a>
</g>
</g>
<!-- Node1&#45;&gt;Node2 -->
<g id="edge1_Node000001_Node000002" class="edge">
<title>Node1&#45;&gt;Node2</title>
<g id="a_edge1_Node000001_Node000002"><a xlink:title=" ">
<path fill="none" stroke="#63b8ff" d="M799.58,-325.77C704.36,-321.83 497.71,-310.34 432.5,-283 343.31,-245.61 293.68,-124.04 281.49,-90.59"/>
<polygon fill="#63b8ff" stroke="#63b8ff" points="799.68,-329.28 809.81,-326.18 799.96,-322.28 799.68,-329.28"/>
</a>
</g>
</g>
<!-- Node6 -->
<g id="Node000006" class="node">
<title>Node6</title>
<g id="a_Node000006"><a xlink:href="_request_parser_8hpp.html" target="_top" xlink:title=" ">
<polygon fill="white" stroke="#666666" points="835.5,-283 711.5,-283 711.5,-264 835.5,-264 835.5,-283"/>
<text text-anchor="middle" x="773.5" y="-271" font-family="Helvetica,sans-Serif" font-size="10.00">inc/RequestParser.hpp</text>
</a>
</g>
</g>
<!-- Node1&#45;&gt;Node6 -->
<g id="edge5_Node000001_Node000006" class="edge">
<title>Node1&#45;&gt;Node6</title>
<g id="a_edge5_Node000001_Node000006"><a xlink:title=" ">
<path fill="none" stroke="#63b8ff" d="M828.19,-313.15C814.64,-303.57 797.26,-291.29 785.77,-283.17"/>
<polygon fill="#63b8ff" stroke="#63b8ff" points="826.26,-316.07 836.45,-318.98 830.3,-310.36 826.26,-316.07"/>
</a>
</g>
</g>
<!-- Node7 -->
<g id="Node000007" class="node">
<title>Node7</title>
<g id="a_Node000007"><a xlink:href="_server_8hpp.html" target="_top" xlink:title=" ">
<polygon fill="white" stroke="#666666" points="450.5,-156.5 364.5,-156.5 364.5,-137.5 450.5,-137.5 450.5,-156.5"/>
<text text-anchor="middle" x="407.5" y="-144.5" font-family="Helvetica,sans-Serif" font-size="10.00">inc/Server.hpp</text>
</a>
</g>
</g>
<!-- Node1&#45;&gt;Node7 -->
<g id="edge45_Node000001_Node000007" class="edge">
<title>Node1&#45;&gt;Node7</title>
<g id="a_edge45_Node000001_Node000007"><a xlink:title=" ">
<path fill="none" stroke="#63b8ff" d="M799.77,-324.76C689.97,-317.48 428.65,-293.49 375.5,-228 357.5,-205.81 384.17,-172.2 398.88,-156.56"/>
<polygon fill="#63b8ff" stroke="#63b8ff" points="799.7,-328.27 809.91,-325.42 800.15,-321.28 799.7,-328.27"/>
</a>
</g>
</g>
<!-- Node34 -->
<g id="Node000034" class="node">
<title>Node34</title>
<g id="a_Node000034"><a xlink:href="test__parse_body_8cpp.html" target="_top" xlink:title=" ">
<polygon fill="white" stroke="#666666" points="972.5,-228 876.5,-228 876.5,-198 972.5,-198 972.5,-228"/>
<text text-anchor="start" x="884.5" y="-216" font-family="Helvetica,sans-Serif" font-size="10.00">test/unit/src/test</text>
<text text-anchor="middle" x="924.5" y="-205" font-family="Helvetica,sans-Serif" font-size="10.00">_parseBody.cpp</text>
</a>
</g>
</g>
<!-- Node1&#45;&gt;Node34 -->
<g id="edge46_Node000001_Node000034" class="edge">
<title>Node1&#45;&gt;Node34</title>
<g id="a_edge46_Node000001_Node000034"><a xlink:title=" ">
<path fill="none" stroke="#63b8ff" d="M859.9,-310.48C874.9,-288.07 901.01,-249.08 915,-228.18"/>
<polygon fill="#63b8ff" stroke="#63b8ff" points="856.87,-308.71 854.21,-318.97 862.68,-312.61 856.87,-308.71"/>
</a>
</g>
</g>
<!-- Node35 -->
<g id="Node000035" class="node">
<title>Node35</title>
<g id="a_Node000035"><a xlink:href="test__parse_header___headers_8cpp.html" target="_top" xlink:title=" ">
<polygon fill="white" stroke="#666666" points="1140.5,-228 990.5,-228 990.5,-198 1140.5,-198 1140.5,-228"/>
<text text-anchor="start" x="998.5" y="-216" font-family="Helvetica,sans-Serif" font-size="10.00">test/unit/src/test</text>
<text text-anchor="middle" x="1065.5" y="-205" font-family="Helvetica,sans-Serif" font-size="10.00">_parseHeader_Headers.cpp</text>
</a>
</g>
</g>
<!-- Node1&#45;&gt;Node35 -->
<g id="edge47_Node000001_Node000035" class="edge">
<title>Node1&#45;&gt;Node35</title>
<g id="a_edge47_Node000001_Node000035"><a xlink:title=" ">
<path fill="none" stroke="#63b8ff" d="M873.91,-314.21C915.11,-292.66 996.12,-250.29 1038.39,-228.18"/>
<polygon fill="#63b8ff" stroke="#63b8ff" points="872.05,-311.23 864.81,-318.97 875.29,-317.44 872.05,-311.23"/>
</a>
</g>
</g>
<!-- Node37 -->
<g id="Node000037" class="node">
<title>Node37</title>
<g id="a_Node000037"><a xlink:href="_response_body_handler_8hpp.html" target="_top" xlink:title=" ">
<polygon fill="white" stroke="#666666" points="1392.5,-283 1228.5,-283 1228.5,-264 1392.5,-264 1392.5,-283"/>
<text text-anchor="middle" x="1310.5" y="-271" font-family="Helvetica,sans-Serif" font-size="10.00">inc/ResponseBodyHandler.hpp</text>
</a>
</g>
</g>
<!-- Node1&#45;&gt;Node37 -->
<g id="edge38_Node000001_Node000037" class="edge">
<title>Node1&#45;&gt;Node37</title>
<g id="a_edge38_Node000001_Node000037"><a xlink:title=" ">
<path fill="none" stroke="#63b8ff" d="M897.51,-321.88C978.6,-312.58 1141.16,-293.93 1236.36,-283.01"/>
<polygon fill="#63b8ff" stroke="#63b8ff" points="896.63,-318.46 887.1,-323.07 897.43,-325.41 896.63,-318.46"/>
</a>
</g>
</g>
<!-- Node3 -->
<g id="Node000003" class="node">
<title>Node3</title>
<g id="a_Node000003"><a xlink:href="_config_file_parser_8cpp.html" target="_top" xlink:title=" ">
<polygon fill="white" stroke="#666666" points="131,-24.5 0,-24.5 0,-5.5 131,-5.5 131,-24.5"/>
<text text-anchor="middle" x="65.5" y="-12.5" font-family="Helvetica,sans-Serif" font-size="10.00">src/ConfigFileParser.cpp</text>
</a>
</g>
</g>
<!-- Node2&#45;&gt;Node3 -->
<g id="edge2_Node000002_Node000003" class="edge">
<title>Node2&#45;&gt;Node3</title>
<g id="a_edge2_Node000002_Node000003"><a xlink:title=" ">
<path fill="none" stroke="#63b8ff" d="M240.17,-68.48C198.18,-55.87 131.79,-35.92 94.11,-24.6"/>
<polygon fill="#63b8ff" stroke="#63b8ff" points="239.19,-71.84 249.77,-71.37 241.2,-65.14 239.19,-71.84"/>
</a>
</g>
</g>
<!-- Node4 -->
<g id="Node000004" class="node">
<title>Node4</title>
<g id="a_Node000004"><a xlink:href="main_8cpp.html" target="_top" xlink:title=" ">
<polygon fill="white" stroke="#666666" points="365,-24.5 286,-24.5 286,-5.5 365,-5.5 365,-24.5"/>
<text text-anchor="middle" x="325.5" y="-12.5" font-family="Helvetica,sans-Serif" font-size="10.00">src/main.cpp</text>
</a>
</g>
</g>
<!-- Node2&#45;&gt;Node4 -->
<g id="edge3_Node000002_Node000004" class="edge">
<title>Node2&#45;&gt;Node4</title>
<g id="a_edge3_Node000002_Node000004"><a xlink:title=" ">
<path fill="none" stroke="#63b8ff" d="M290.79,-63.27C299.8,-50.99 311.7,-34.8 318.96,-24.91"/>
<polygon fill="#63b8ff" stroke="#63b8ff" points="287.94,-61.24 284.84,-71.37 293.58,-65.38 287.94,-61.24"/>
</a>
</g>
</g>
<!-- Node5 -->
<g id="Node000005" class="node">
<title>Node5</title>
<g id="a_Node000005"><a xlink:href="test___config_file_parser_8cpp.html" target="_top" xlink:title=" ">
<polygon fill="white" stroke="#666666" points="268,-30 149,-30 149,0 268,0 268,-30"/>
<text text-anchor="start" x="157" y="-18" font-family="Helvetica,sans-Serif" font-size="10.00">test/unit/src/test</text>
<text text-anchor="middle" x="208.5" y="-7" font-family="Helvetica,sans-Serif" font-size="10.00">_ConfigFileParser.cpp</text>
</a>
</g>
</g>
<!-- Node2&#45;&gt;Node5 -->
<g id="edge4_Node000002_Node000005" class="edge">
<title>Node2&#45;&gt;Node5</title>
<g id="a_edge4_Node000002_Node000005"><a xlink:title=" ">
<path fill="none" stroke="#63b8ff" d="M261.45,-64.41C250,-53.94 235.04,-40.26 223.94,-30.12"/>
<polygon fill="#63b8ff" stroke="#63b8ff" points="259.32,-67.2 269.06,-71.37 264.04,-62.04 259.32,-67.2"/>
</a>
</g>
</g>
<!-- Node6&#45;&gt;Node7 -->
<g id="edge6_Node000006_Node000007" class="edge">
<title>Node6&#45;&gt;Node7</title>
<g id="a_edge6_Node000006_Node000007"><a xlink:title=" ">
<path fill="none" stroke="#63b8ff" d="M701.38,-269.31C595.2,-263.86 407.05,-251.05 386.5,-228 368.15,-207.42 389.14,-172.71 400.78,-156.64"/>
<polygon fill="#63b8ff" stroke="#63b8ff" points="701.23,-272.8 711.4,-269.81 701.58,-265.81 701.23,-272.8"/>
</a>
</g>
</g>
<!-- Node32 -->
<g id="Node000032" class="node">
<title>Node32</title>
<g id="a_Node000032"><a xlink:href="_request_parser_8cpp.html" target="_top" xlink:title=" ">
<polygon fill="white" stroke="#666666" points="519,-222.5 396,-222.5 396,-203.5 519,-203.5 519,-222.5"/>
<text text-anchor="middle" x="457.5" y="-210.5" font-family="Helvetica,sans-Serif" font-size="10.00">src/RequestParser.cpp</text>
</a>
</g>
</g>
<!-- Node6&#45;&gt;Node32 -->
<g id="edge33_Node000006_Node000032" class="edge">
<title>Node6&#45;&gt;Node32</title>
<g id="a_edge33_Node000006_Node000032"><a xlink:title=" ">
<path fill="none" stroke="#63b8ff" d="M714.95,-262.22C665.07,-253.39 591.52,-240.19 527.5,-228 518.49,-226.28 508.84,-224.39 499.67,-222.57"/>
<polygon fill="#63b8ff" stroke="#63b8ff" points="714.45,-265.69 724.91,-263.98 715.67,-258.79 714.45,-265.69"/>
</a>
</g>
</g>
<!-- Node33 -->
<g id="Node000033" class="node">
<title>Node33</title>
<g id="a_Node000033"><a xlink:href="test___multipart_formdata_8cpp.html" target="_top" xlink:title=" ">
<polygon fill="white" stroke="#666666" points="670,-228 537,-228 537,-198 670,-198 670,-228"/>
<text text-anchor="start" x="545" y="-216" font-family="Helvetica,sans-Serif" font-size="10.00">test/unit/src/test</text>
<text text-anchor="middle" x="603.5" y="-205" font-family="Helvetica,sans-Serif" font-size="10.00">_MultipartFormdata.cpp</text>
</a>
</g>
</g>
<!-- Node6&#45;&gt;Node33 -->
<g id="edge34_Node000006_Node000033" class="edge">
<title>Node6&#45;&gt;Node33</title>
<g id="a_edge34_Node000006_Node000033"><a xlink:title=" ">
<path fill="none" stroke="#63b8ff" d="M739.23,-260.71C711.84,-251.28 673.36,-238.04 644.37,-228.06"/>
<polygon fill="#63b8ff" stroke="#63b8ff" points="738.19,-264.05 748.78,-263.99 740.46,-257.43 738.19,-264.05"/>
</a>
</g>
</g>
<!-- Node6&#45;&gt;Node34 -->
<g id="edge35_Node000006_Node000034" class="edge">
<title>Node6&#45;&gt;Node34</title>
<g id="a_edge35_Node000006_Node000034"><a xlink:title=" ">
<path fill="none" stroke="#63b8ff" d="M804.91,-260.33C829.17,-250.93 862.78,-237.91 888.2,-228.06"/>
<polygon fill="#63b8ff" stroke="#63b8ff" points="803.52,-257.12 795.46,-263.99 806.05,-263.64 803.52,-257.12"/>
</a>
</g>
</g>
<!-- Node6&#45;&gt;Node35 -->
<g id="edge36_Node000006_Node000035" class="edge">
<title>Node6&#45;&gt;Node35</title>
<g id="a_edge36_Node000006_Node000035"><a xlink:title=" ">
<path fill="none" stroke="#63b8ff" d="M826.01,-261.98C873.4,-252.49 943.46,-238.45 995.58,-228.01"/>
<polygon fill="#63b8ff" stroke="#63b8ff" points="825.08,-258.6 815.96,-263.99 826.45,-265.46 825.08,-258.6"/>
</a>
</g>
</g>
<!-- Node36 -->
<g id="Node000036" class="node">
<title>Node36</title>
<g id="a_Node000036"><a xlink:href="test__parse_header___request_line_8cpp.html" target="_top" xlink:title=" ">
<polygon fill="white" stroke="#666666" points="858.5,-228 688.5,-228 688.5,-198 858.5,-198 858.5,-228"/>
<text text-anchor="start" x="696.5" y="-216" font-family="Helvetica,sans-Serif" font-size="10.00">test/unit/src/test</text>
<text text-anchor="middle" x="773.5" y="-205" font-family="Helvetica,sans-Serif" font-size="10.00">_parseHeader_RequestLine.cpp</text>
</a>
</g>
</g>
<!-- Node6&#45;&gt;Node36 -->
<g id="edge37_Node000006_Node000036" class="edge">
<title>Node6&#45;&gt;Node36</title>
<g id="a_edge37_Node000006_Node000036"><a xlink:title=" ">
<path fill="none" stroke="#63b8ff" d="M773.5,-253.65C773.5,-245.36 773.5,-235.78 773.5,-228.11"/>
<polygon fill="#63b8ff" stroke="#63b8ff" points="770,-253.87 773.5,-263.87 777,-253.87 770,-253.87"/>
</a>
</g>
</g>
<!-- Node7&#45;&gt;Node2 -->
<g id="edge7_Node000007_Node000002" class="edge">
<title>Node7&#45;&gt;Node2</title>
<g id="a_edge7_Node000007_Node000002"><a xlink:title=" ">
<path fill="none" stroke="#63b8ff" d="M381.02,-132.86C355.6,-120.25 317.93,-101.56 296.03,-90.7"/>
<polygon fill="#63b8ff" stroke="#63b8ff" points="379.59,-136.06 390.1,-137.37 382.7,-129.79 379.59,-136.06"/>
</a>
</g>
</g>
<!-- Node7&#45;&gt;Node4 -->
<g id="edge9_Node000007_Node000004" class="edge">
<title>Node7&#45;&gt;Node4</title>
<g id="a_edge9_Node000007_Node000004"><a xlink:title=" ">
<path fill="none" stroke="#63b8ff" d="M396.61,-128.73C378.88,-100.62 344.4,-45.97 331.01,-24.73"/>
<polygon fill="#63b8ff" stroke="#63b8ff" points="393.82,-130.88 402.12,-137.47 399.74,-127.15 393.82,-130.88"/>
</a>
</g>
</g>
<!-- Node8 -->
<g id="Node000008" class="node">
<title>Node8</title>
<g id="a_Node000008"><a xlink:href="_server_8cpp.html" target="_top" xlink:title=" ">
<polygon fill="white" stroke="#666666" points="486,-90.5 401,-90.5 401,-71.5 486,-71.5 486,-90.5"/>
<text text-anchor="middle" x="443.5" y="-78.5" font-family="Helvetica,sans-Serif" font-size="10.00">src/Server.cpp</text>
</a>
</g>
</g>
<!-- Node7&#45;&gt;Node8 -->
<g id="edge8_Node000007_Node000008" class="edge">
<title>Node7&#45;&gt;Node8</title>
<g id="a_edge8_Node000007_Node000008"><a xlink:title=" ">
<path fill="none" stroke="#63b8ff" d="M417.32,-128.55C424.17,-116.36 433.03,-100.61 438.49,-90.91"/>
<polygon fill="#63b8ff" stroke="#63b8ff" points="414.21,-126.94 412.36,-137.37 420.31,-130.37 414.21,-126.94"/>
</a>
</g>
</g>
<!-- Node9 -->
<g id="Node000009" class="node">
<title>Node9</title>
<g id="a_Node000009"><a xlink:href="test__helpers_8hpp.html" target="_top" xlink:title=" ">
<polygon fill="white" stroke="#666666" points="2031.5,-96 1935.5,-96 1935.5,-66 2031.5,-66 2031.5,-96"/>
<text text-anchor="start" x="1943.5" y="-84" font-family="Helvetica,sans-Serif" font-size="10.00">test/unit/inc/test</text>
<text text-anchor="middle" x="1983.5" y="-73" font-family="Helvetica,sans-Serif" font-size="10.00">_helpers.hpp</text>
</a>
</g>
</g>
<!-- Node7&#45;&gt;Node9 -->
<g id="edge10_Node000007_Node000009" class="edge">
<title>Node7&#45;&gt;Node9</title>
<g id="a_edge10_Node000007_Node000009"><a xlink:title=" ">
<path fill="none" stroke="#63b8ff" d="M460.88,-143.83C703.85,-133.97 1703.4,-93.37 1935.3,-83.96"/>
<polygon fill="#63b8ff" stroke="#63b8ff" points="460.73,-140.34 450.88,-144.24 461.02,-147.33 460.73,-140.34"/>
</a>
</g>
</g>
<!-- Node31 -->
<g id="Node000031" class="node">
<title>Node31</title>
<g id="a_Node000031"><a xlink:href="test__select_server_config_8cpp.html" target="_top" xlink:title=" ">
<polygon fill="white" stroke="#666666" points="2183.5,-96 2049.5,-96 2049.5,-66 2183.5,-66 2183.5,-96"/>
<text text-anchor="start" x="2057.5" y="-84" font-family="Helvetica,sans-Serif" font-size="10.00">test/unit/src/test</text>
<text text-anchor="middle" x="2116.5" y="-73" font-family="Helvetica,sans-Serif" font-size="10.00">_selectServerConfig.cpp</text>
</a>
</g>
</g>
<!-- Node7&#45;&gt;Node31 -->
<g id="edge32_Node000007_Node000031" class="edge">
<title>Node7&#45;&gt;Node31</title>
<g id="a_edge32_Node000007_Node000031"><a xlink:title=" ">
<path fill="none" stroke="#63b8ff" d="M460.85,-144.85C724.37,-139.09 1880.73,-113.06 2040.5,-96 2043.43,-95.69 2046.43,-95.32 2049.44,-94.92"/>
<polygon fill="#63b8ff" stroke="#63b8ff" points="460.69,-141.35 450.77,-145.07 460.85,-148.35 460.69,-141.35"/>
</a>
</g>
</g>
<!-- Node10 -->
<g id="Node000010" class="node">
<title>Node10</title>
<g id="a_Node000010"><a xlink:href="test___c_g_i_handler_8cpp.html" target="_top" xlink:title=" ">
<polygon fill="white" stroke="#666666" points="480,-30 383,-30 383,0 480,0 480,-30"/>
<text text-anchor="start" x="391" y="-18" font-family="Helvetica,sans-Serif" font-size="10.00">test/unit/src/test</text>
<text text-anchor="middle" x="431.5" y="-7" font-family="Helvetica,sans-Serif" font-size="10.00">_CGIHandler.cpp</text>
</a>
</g>
</g>
<!-- Node9&#45;&gt;Node10 -->
<g id="edge11_Node000009_Node000010" class="edge">
<title>Node9&#45;&gt;Node10</title>
<g id="a_edge11_Node000009_Node000010"><a xlink:title=" ">
<path fill="none" stroke="#63b8ff" d="M1925.19,-79.63C1685.38,-77.88 774.4,-68.74 489.5,-30 486.42,-29.58 483.27,-29.07 480.1,-28.49"/>
<polygon fill="#63b8ff" stroke="#63b8ff" points="1925.41,-83.13 1935.44,-79.71 1925.46,-76.13 1925.41,-83.13"/>
</a>
</g>
</g>
<!-- Node11 -->
<g id="Node000011" class="node">
<title>Node11</title>
<g id="a_Node000011"><a xlink:href="test__accept_connections_8cpp.html" target="_top" xlink:title=" ">
<polygon fill="white" stroke="#666666" points="632.5,-30 498.5,-30 498.5,0 632.5,0 632.5,-30"/>
<text text-anchor="start" x="506.5" y="-18" font-family="Helvetica,sans-Serif" font-size="10.00">test/unit/src/test</text>
<text text-anchor="middle" x="565.5" y="-7" font-family="Helvetica,sans-Serif" font-size="10.00">_acceptConnections.cpp</text>
</a>
</g>
</g>
<!-- Node9&#45;&gt;Node11 -->
<g id="edge12_Node000009_Node000011" class="edge">
<title>Node9&#45;&gt;Node11</title>
<g id="a_edge12_Node000009_Node000011"><a xlink:title=" ">
<path fill="none" stroke="#63b8ff" d="M1925,-78.95C1700.74,-74.75 895.86,-58.02 641.5,-30 638.57,-29.68 635.58,-29.31 632.56,-28.9"/>
<polygon fill="#63b8ff" stroke="#63b8ff" points="1925.17,-82.45 1935.23,-79.14 1925.3,-75.45 1925.17,-82.45"/>
</a>
</g>
</g>
<!-- Node12 -->
<g id="Node000012" class="node">
<title>Node12</title>
<g id="a_Node000012"><a xlink:href="test__check_for_timeout_8cpp.html" target="_top" xlink:title=" ">
<polygon fill="white" stroke="#666666" points="776.5,-30 650.5,-30 650.5,0 776.5,0 776.5,-30"/>
<text text-anchor="start" x="658.5" y="-18" font-family="Helvetica,sans-Serif" font-size="10.00">test/unit/src/test</text>
<text text-anchor="middle" x="713.5" y="-7" font-family="Helvetica,sans-Serif" font-size="10.00">_checkForTimeout.cpp</text>
</a>
</g>
</g>
<!-- Node9&#45;&gt;Node12 -->
<g id="edge13_Node000009_Node000012" class="edge">
<title>Node9&#45;&gt;Node12</title>
<g id="a_edge13_Node000009_Node000012"><a xlink:title=" ">
<path fill="none" stroke="#63b8ff" d="M1925.15,-80.66C1751.18,-81.97 1221.11,-81.15 785.5,-30 782.59,-29.66 779.62,-29.27 776.63,-28.83"/>
<polygon fill="#63b8ff" stroke="#63b8ff" points="1925.39,-84.16 1935.36,-80.58 1925.33,-77.16 1925.39,-84.16"/>
</a>
</g>
</g>
<!-- Node13 -->
<g id="Node000013" class="node">
<title>Node13</title>
<g id="a_Node000013"><a xlink:href="test__connection_build_response_8cpp.html" target="_top" xlink:title=" ">
<polygon fill="white" stroke="#666666" points="962,-30 795,-30 795,0 962,0 962,-30"/>
<text text-anchor="start" x="803" y="-18" font-family="Helvetica,sans-Serif" font-size="10.00">test/unit/src/test</text>
<text text-anchor="middle" x="878.5" y="-7" font-family="Helvetica,sans-Serif" font-size="10.00">_connectionBuildResponse.cpp</text>
</a>
</g>
</g>
<!-- Node9&#45;&gt;Node13 -->
<g id="edge14_Node000009_Node000013" class="edge">
<title>Node9&#45;&gt;Node13</title>
<g id="a_edge14_Node000009_Node000013"><a xlink:title=" ">
<path fill="none" stroke="#63b8ff" d="M1925.18,-79.16C1769.78,-76.47 1332.97,-66.05 971.5,-30 968.41,-29.69 965.27,-29.35 962.1,-28.99"/>
<polygon fill="#63b8ff" stroke="#63b8ff" points="1925.38,-82.66 1935.44,-79.33 1925.5,-75.66 1925.38,-82.66"/>
</a>
</g>
</g>
<!-- Node14 -->
<g id="Node000014" class="node">
<title>Node14</title>
<g id="a_Node000014"><a xlink:href="test__connection_handle_timeout_8cpp.html" target="_top" xlink:title=" ">
<polygon fill="white" stroke="#666666" points="1150.5,-30 980.5,-30 980.5,0 1150.5,0 1150.5,-30"/>
<text text-anchor="start" x="988.5" y="-18" font-family="Helvetica,sans-Serif" font-size="10.00">test/unit/src/test</text>
<text text-anchor="middle" x="1065.5" y="-7" font-family="Helvetica,sans-Serif" font-size="10.00">_connectionHandleTimeout.cpp</text>
</a>
</g>
</g>
<!-- Node9&#45;&gt;Node14 -->
<g id="edge15_Node000009_Node000014" class="edge">
<title>Node9&#45;&gt;Node14</title>
<g id="a_edge15_Node000009_Node000014"><a xlink:title=" ">
<path fill="none" stroke="#63b8ff" d="M1924.95,-78.2C1789.79,-73.67 1445.68,-59.94 1159.5,-30 1156.55,-29.69 1153.54,-29.36 1150.51,-29"/>
<polygon fill="#63b8ff" stroke="#63b8ff" points="1924.97,-81.71 1935.08,-78.54 1925.2,-74.71 1924.97,-81.71"/>
</a>
</g>
</g>
<!-- Node15 -->
<g id="Node000015" class="node">
<title>Node15</title>
<g id="a_Node000015"><a xlink:href="test__connection_receive_body_8cpp.html" target="_top" xlink:title=" ">
<polygon fill="white" stroke="#666666" points="1326.5,-30 1168.5,-30 1168.5,0 1326.5,0 1326.5,-30"/>
<text text-anchor="start" x="1176.5" y="-18" font-family="Helvetica,sans-Serif" font-size="10.00">test/unit/src/test</text>
<text text-anchor="middle" x="1247.5" y="-7" font-family="Helvetica,sans-Serif" font-size="10.00">_connectionReceiveBody.cpp</text>
</a>
</g>
</g>
<!-- Node9&#45;&gt;Node15 -->
<g id="edge16_Node000009_Node000015" class="edge">
<title>Node9&#45;&gt;Node15</title>
<g id="a_edge16_Node000009_Node000015"><a xlink:title=" ">
<path fill="none" stroke="#63b8ff" d="M1925.19,-77.08C1811.49,-71.05 1552.29,-55.57 1335.5,-30 1332.58,-29.66 1329.61,-29.29 1326.61,-28.89"/>
<polygon fill="#63b8ff" stroke="#63b8ff" points="1925.24,-80.59 1935.41,-77.62 1925.61,-73.6 1925.24,-80.59"/>
</a>
</g>
</g>
<!-- Node16 -->
<g id="Node000016" class="node">
<title>Node16</title>
<g id="a_Node000016"><a xlink:href="test__connection_receive_from_c_g_i_8cpp.html" target="_top" xlink:title=" ">
<polygon fill="white" stroke="#666666" points="1520.5,-30 1344.5,-30 1344.5,0 1520.5,0 1520.5,-30"/>
<text text-anchor="start" x="1352.5" y="-18" font-family="Helvetica,sans-Serif" font-size="10.00">test/unit/src/test</text>
<text text-anchor="middle" x="1432.5" y="-7" font-family="Helvetica,sans-Serif" font-size="10.00">_connectionReceiveFromCGI.cpp</text>
</a>
</g>
</g>
<!-- Node9&#45;&gt;Node16 -->
<g id="edge17_Node000009_Node000016" class="edge">
<title>Node9&#45;&gt;Node16</title>
<g id="a_edge17_Node000009_Node000016"><a xlink:title=" ">
<path fill="none" stroke="#63b8ff" d="M1925.26,-74.22C1838.79,-65.49 1671.42,-48.05 1529.5,-30 1526.55,-29.62 1523.54,-29.23 1520.51,-28.83"/>
<polygon fill="#63b8ff" stroke="#63b8ff" points="1925.09,-77.72 1935.39,-75.24 1925.79,-70.75 1925.09,-77.72"/>
</a>
</g>
</g>
<!-- Node17 -->
<g id="Node000017" class="node">
<title>Node17</title>
<g id="a_Node000017"><a xlink:href="test__connection_receive_header_8cpp.html" target="_top" xlink:title=" ">
<polygon fill="white" stroke="#666666" points="1707,-30 1538,-30 1538,0 1707,0 1707,-30"/>
<text text-anchor="start" x="1546" y="-18" font-family="Helvetica,sans-Serif" font-size="10.00">test/unit/src/test</text>
<text text-anchor="middle" x="1622.5" y="-7" font-family="Helvetica,sans-Serif" font-size="10.00">_connectionReceiveHeader.cpp</text>
</a>
</g>
</g>
<!-- Node9&#45;&gt;Node17 -->
<g id="edge18_Node000009_Node000017" class="edge">
<title>Node9&#45;&gt;Node17</title>
<g id="a_edge18_Node000009_Node000017"><a xlink:title=" ">
<path fill="none" stroke="#63b8ff" d="M1925.01,-69.63C1864.32,-58.87 1769.01,-41.97 1701.61,-30.02"/>
<polygon fill="#63b8ff" stroke="#63b8ff" points="1924.73,-73.14 1935.19,-71.44 1925.95,-66.24 1924.73,-73.14"/>
</a>
</g>
</g>
<!-- Node18 -->
<g id="Node000018" class="node">
<title>Node18</title>
<g id="a_Node000018"><a xlink:href="test__connection_send_response_8cpp.html" target="_top" xlink:title=" ">
<polygon fill="white" stroke="#666666" points="1892,-30 1725,-30 1725,0 1892,0 1892,-30"/>
<text text-anchor="start" x="1733" y="-18" font-family="Helvetica,sans-Serif" font-size="10.00">test/unit/src/test</text>
<text text-anchor="middle" x="1808.5" y="-7" font-family="Helvetica,sans-Serif" font-size="10.00">_connectionSendResponse.cpp</text>
</a>
</g>
</g>
<!-- Node9&#45;&gt;Node18 -->
<g id="edge19_Node000009_Node000018" class="edge">
<title>Node9&#45;&gt;Node18</title>
<g id="a_edge19_Node000009_Node000018"><a xlink:title=" ">
<path fill="none" stroke="#63b8ff" d="M1935.53,-62.46C1907.61,-52.25 1872.9,-39.55 1846.81,-30.01"/>
<polygon fill="#63b8ff" stroke="#63b8ff" points="1934.5,-65.81 1945.1,-65.95 1936.91,-59.23 1934.5,-65.81"/>
</a>
</g>
</g>
<!-- Node19 -->
<g id="Node000019" class="node">
<title>Node19</title>
<g id="a_Node000019"><a xlink:href="test__connection_send_to_c_g_i_8cpp.html" target="_top" xlink:title=" ">
<polygon fill="white" stroke="#666666" points="2057,-30 1910,-30 1910,0 2057,0 2057,-30"/>
<text text-anchor="start" x="1918" y="-18" font-family="Helvetica,sans-Serif" font-size="10.00">test/unit/src/test</text>
<text text-anchor="middle" x="1983.5" y="-7" font-family="Helvetica,sans-Serif" font-size="10.00">_connectionSendToCGI.cpp</text>
</a>
</g>
</g>
<!-- Node9&#45;&gt;Node19 -->
<g id="edge20_Node000009_Node000019" class="edge">
<title>Node9&#45;&gt;Node19</title>
<g id="a_edge20_Node000009_Node000019"><a xlink:title=" ">
<path fill="none" stroke="#63b8ff" d="M1983.5,-55.54C1983.5,-46.96 1983.5,-37.61 1983.5,-30.16"/>
<polygon fill="#63b8ff" stroke="#63b8ff" points="1980,-55.8 1983.5,-65.8 1987,-55.8 1980,-55.8"/>
</a>
</g>
</g>
<!-- Node20 -->
<g id="Node000020" class="node">
<title>Node20</title>
<g id="a_Node000020"><a xlink:href="test__create_virtual_server_8cpp.html" target="_top" xlink:title=" ">
<polygon fill="white" stroke="#666666" points="2211.5,-30 2075.5,-30 2075.5,0 2211.5,0 2211.5,-30"/>
<text text-anchor="start" x="2083.5" y="-18" font-family="Helvetica,sans-Serif" font-size="10.00">test/unit/src/test</text>
<text text-anchor="middle" x="2143.5" y="-7" font-family="Helvetica,sans-Serif" font-size="10.00">_createVirtualServer.cpp</text>
</a>
</g>
</g>
<!-- Node9&#45;&gt;Node20 -->
<g id="edge21_Node000009_Node000020" class="edge">
<title>Node9&#45;&gt;Node20</title>
<g id="a_edge21_Node000009_Node000020"><a xlink:title=" ">
<path fill="none" stroke="#63b8ff" d="M2028.03,-62.19C2053.44,-52.02 2084.83,-39.47 2108.47,-30.01"/>
<polygon fill="#63b8ff" stroke="#63b8ff" points="2026.6,-58.99 2018.61,-65.95 2029.2,-65.49 2026.6,-58.99"/>
</a>
</g>
</g>
<!-- Node21 -->
<g id="Node000021" class="node">
<title>Node21</title>
<g id="a_Node000021"><a xlink:href="test__handle_body_8cpp.html" target="_top" xlink:title=" ">
<polygon fill="white" stroke="#666666" points="2327.5,-30 2229.5,-30 2229.5,0 2327.5,0 2327.5,-30"/>
<text text-anchor="start" x="2237.5" y="-18" font-family="Helvetica,sans-Serif" font-size="10.00">test/unit/src/test</text>
<text text-anchor="middle" x="2278.5" y="-7" font-family="Helvetica,sans-Serif" font-size="10.00">_handleBody.cpp</text>
</a>
</g>
</g>
<!-- Node9&#45;&gt;Node21 -->
<g id="edge22_Node000009_Node000021" class="edge">
<title>Node9&#45;&gt;Node21</title>
<g id="a_edge22_Node000009_Node000021"><a xlink:title=" ">
<path fill="none" stroke="#63b8ff" d="M2041.73,-65.78C2121.84,-48.19 2143.94,-46.89 2220.5,-30 2223.43,-29.35 2226.45,-28.67 2229.48,-27.98"/>
<polygon fill="#63b8ff" stroke="#63b8ff" points="2040.67,-62.43 2031.67,-68.01 2042.19,-69.27 2040.67,-62.43"/>
</a>
</g>
</g>
<!-- Node22 -->
<g id="Node000022" class="node">
<title>Node22</title>
<g id="a_Node000022"><a xlink:href="test__handle_complete_request_header_8cpp.html" target="_top" xlink:title=" ">
<polygon fill="white" stroke="#666666" points="2543,-30 2346,-30 2346,0 2543,0 2543,-30"/>
<text text-anchor="start" x="2354" y="-18" font-family="Helvetica,sans-Serif" font-size="10.00">test/unit/src/test</text>
<text text-anchor="middle" x="2444.5" y="-7" font-family="Helvetica,sans-Serif" font-size="10.00">_handleCompleteRequestHeader.cpp</text>
</a>
</g>
</g>
<!-- Node9&#45;&gt;Node22 -->
<g id="edge23_Node000009_Node000022" class="edge">
<title>Node9&#45;&gt;Node22</title>
<g id="a_edge23_Node000009_Node000022"><a xlink:title=" ">
<path fill="none" stroke="#63b8ff" d="M2041.63,-65.93C2172.59,-42.35 2208.22,-46.12 2336.5,-30 2339.6,-29.61 2342.74,-29.21 2345.92,-28.81"/>
<polygon fill="#63b8ff" stroke="#63b8ff" points="2040.83,-62.52 2031.61,-67.75 2042.08,-69.41 2040.83,-62.52"/>
</a>
</g>
</g>
<!-- Node23 -->
<g id="Node000023" class="node">
<title>Node23</title>
<g id="a_Node000023"><a xlink:href="test__handle_event_8cpp.html" target="_top" xlink:title=" ">
<polygon fill="white" stroke="#666666" points="2664,-30 2561,-30 2561,0 2664,0 2664,-30"/>
<text text-anchor="start" x="2569" y="-18" font-family="Helvetica,sans-Serif" font-size="10.00">test/unit/src/test</text>
<text text-anchor="middle" x="2612.5" y="-7" font-family="Helvetica,sans-Serif" font-size="10.00">_handleEvent.cpp</text>
</a>
</g>
</g>
<!-- Node9&#45;&gt;Node23 -->
<g id="edge24_Node000009_Node000023" class="edge">
<title>Node9&#45;&gt;Node23</title>
<g id="a_edge24_Node000009_Node000023"><a xlink:title=" ">
<path fill="none" stroke="#63b8ff" d="M2041.77,-66C2267.69,-31.63 2330.24,-63.53 2552.5,-30 2555.25,-29.59 2558.06,-29.11 2560.89,-28.59"/>
<polygon fill="#63b8ff" stroke="#63b8ff" points="2040.93,-62.59 2031.58,-67.58 2042,-69.51 2040.93,-62.59"/>
</a>
</g>
</g>
<!-- Node24 -->
<g id="Node000024" class="node">
<title>Node24</title>
<g id="a_Node000024"><a xlink:href="test__helpers_8cpp.html" target="_top" xlink:title=" ">
<polygon fill="white" stroke="#666666" points="2778.5,-30 2682.5,-30 2682.5,0 2778.5,0 2778.5,-30"/>
<text text-anchor="start" x="2690.5" y="-18" font-family="Helvetica,sans-Serif" font-size="10.00">test/unit/src/test</text>
<text text-anchor="middle" x="2730.5" y="-7" font-family="Helvetica,sans-Serif" font-size="10.00">_helpers.cpp</text>
</a>
</g>
</g>
<!-- Node9&#45;&gt;Node24 -->
<g id="edge25_Node000009_Node000024" class="edge">
<title>Node9&#45;&gt;Node24</title>
<g id="a_edge25_Node000009_Node000024"><a xlink:title=" ">
<path fill="none" stroke="#63b8ff" d="M2041.6,-66.05C2320.97,-25.32 2398.09,-71.29 2673.5,-30 2676.42,-29.56 2679.41,-29.04 2682.42,-28.47"/>
<polygon fill="#63b8ff" stroke="#63b8ff" points="2040.96,-62.6 2031.58,-67.53 2041.98,-69.53 2040.96,-62.6"/>
</a>
</g>
</g>
<!-- Node25 -->
<g id="Node000025" class="node">
<title>Node25</title>
<g id="a_Node000025"><a xlink:href="test__init_virtual_servers_8cpp.html" target="_top" xlink:title=" ">
<polygon fill="white" stroke="#666666" points="2924,-30 2797,-30 2797,0 2924,0 2924,-30"/>
<text text-anchor="start" x="2805" y="-18" font-family="Helvetica,sans-Serif" font-size="10.00">test/unit/src/test</text>
<text text-anchor="middle" x="2860.5" y="-7" font-family="Helvetica,sans-Serif" font-size="10.00">_initVirtualServers.cpp</text>
</a>
</g>
</g>
<!-- Node9&#45;&gt;Node25 -->
<g id="edge26_Node000009_Node000025" class="edge">
<title>Node9&#45;&gt;Node25</title>
<g id="a_edge26_Node000009_Node000025"><a xlink:title=" ">
<path fill="none" stroke="#63b8ff" d="M2041.89,-66.01C2371.25,-19.18 2460.84,-69 2787.5,-30 2790.58,-29.63 2793.72,-29.21 2796.88,-28.75"/>
<polygon fill="#63b8ff" stroke="#63b8ff" points="2040.97,-62.61 2031.57,-67.5 2041.97,-69.54 2040.97,-62.61"/>
</a>
</g>
</g>
<!-- Node26 -->
<g id="Node000026" class="node">
<title>Node26</title>
<g id="a_Node000026"><a xlink:href="test__is_duplicate_server_8cpp.html" target="_top" xlink:title=" ">
<polygon fill="white" stroke="#666666" points="3070.5,-30 2942.5,-30 2942.5,0 3070.5,0 3070.5,-30"/>
<text text-anchor="start" x="2950.5" y="-18" font-family="Helvetica,sans-Serif" font-size="10.00">test/unit/src/test</text>
<text text-anchor="middle" x="3006.5" y="-7" font-family="Helvetica,sans-Serif" font-size="10.00">_isDuplicateServer.cpp</text>
</a>
</g>
</g>
<!-- Node9&#45;&gt;Node26 -->
<g id="edge27_Node000009_Node000026" class="edge">
<title>Node9&#45;&gt;Node26</title>
<g id="a_edge27_Node000009_Node000026"><a xlink:title=" ">
<path fill="none" stroke="#63b8ff" d="M2041.52,-66.08C2435.56,-11.42 2542.18,-75.16 2933.5,-30 2936.45,-29.66 2939.46,-29.27 2942.49,-28.84"/>
<polygon fill="#63b8ff" stroke="#63b8ff" points="2040.99,-62.62 2031.57,-67.47 2041.96,-69.55 2040.99,-62.62"/>
</a>
</g>
</g>
<!-- Node27 -->
<g id="Node000027" class="node">
<title>Node27</title>
<g id="a_Node000027"><a xlink:href="test__register_c_g_i_file_descriptor_8cpp.html" target="_top" xlink:title=" ">
<polygon fill="white" stroke="#666666" points="3252.5,-30 3088.5,-30 3088.5,0 3252.5,0 3252.5,-30"/>
<text text-anchor="start" x="3096.5" y="-18" font-family="Helvetica,sans-Serif" font-size="10.00">test/unit/src/test</text>
<text text-anchor="middle" x="3170.5" y="-7" font-family="Helvetica,sans-Serif" font-size="10.00">_registerCGIFileDescriptor.cpp</text>
</a>
</g>
</g>
<!-- Node9&#45;&gt;Node27 -->
<g id="edge28_Node000009_Node000027" class="edge">
<title>Node9&#45;&gt;Node27</title>
<g id="a_edge28_Node000009_Node000027"><a xlink:title=" ">
<path fill="none" stroke="#63b8ff" d="M2041.76,-66.05C2499.97,-3.59 2622.84,-72.89 3079.5,-30 3082.36,-29.73 3085.28,-29.43 3088.21,-29.1"/>
<polygon fill="#63b8ff" stroke="#63b8ff" points="2041,-62.62 2031.57,-67.46 2041.95,-69.56 2041,-62.62"/>
</a>
</g>
</g>
<!-- Node28 -->
<g id="Node000028" class="node">
<title>Node28</title>
<g id="a_Node000028"><a xlink:href="test__register_connection_8cpp.html" target="_top" xlink:title=" ">
<polygon fill="white" stroke="#666666" points="3404.5,-30 3270.5,-30 3270.5,0 3404.5,0 3404.5,-30"/>
<text text-anchor="start" x="3278.5" y="-18" font-family="Helvetica,sans-Serif" font-size="10.00">test/unit/src/test</text>
<text text-anchor="middle" x="3337.5" y="-7" font-family="Helvetica,sans-Serif" font-size="10.00">_registerConnection.cpp</text>
</a>
</g>
</g>
<!-- Node9&#45;&gt;Node28 -->
<g id="edge29_Node000009_Node000028" class="edge">
<title>Node9&#45;&gt;Node28</title>
<g id="a_edge29_Node000009_Node000028"><a xlink:title=" ">
<path fill="none" stroke="#63b8ff" d="M2041.53,-66.09C2580.21,6.01 2724.93,-86.99 3261.5,-30 3264.44,-29.69 3267.43,-29.33 3270.44,-28.93"/>
<polygon fill="#63b8ff" stroke="#63b8ff" points="2041.01,-62.63 2031.56,-67.44 2041.94,-69.57 2041.01,-62.63"/>
</a>
</g>
</g>
<!-- Node29 -->
<g id="Node000029" class="node">
<title>Node29</title>
<g id="a_Node000029"><a xlink:href="test__register_virtual_server_8cpp.html" target="_top" xlink:title=" ">
<polygon fill="white" stroke="#666666" points="3566,-30 3423,-30 3423,0 3566,0 3566,-30"/>
<text text-anchor="start" x="3431" y="-18" font-family="Helvetica,sans-Serif" font-size="10.00">test/unit/src/test</text>
<text text-anchor="middle" x="3494.5" y="-7" font-family="Helvetica,sans-Serif" font-size="10.00">_registerVirtualServer.cpp</text>
</a>
</g>
</g>
<!-- Node9&#45;&gt;Node29 -->
<g id="edge30_Node000009_Node000029" class="edge">
<title>Node9&#45;&gt;Node29</title>
<g id="a_edge30_Node000009_Node000029"><a xlink:title=" ">
<path fill="none" stroke="#63b8ff" d="M2041.86,-66.05C2647.31,14.09 2809.45,-89.8 3413.5,-30 3416.48,-29.7 3419.52,-29.36 3422.59,-28.99"/>
<polygon fill="#63b8ff" stroke="#63b8ff" points="2041.01,-62.63 2031.56,-67.43 2041.94,-69.57 2041.01,-62.63"/>
</a>
</g>
</g>
<!-- Node30 -->
<g id="Node000030" class="node">
<title>Node30</title>
<g id="a_Node000030"><a xlink:href="test__shutdown_server_8cpp.html" target="_top" xlink:title=" ">
<polygon fill="white" stroke="#666666" points="3704.5,-30 3584.5,-30 3584.5,0 3704.5,0 3704.5,-30"/>
<text text-anchor="start" x="3592.5" y="-18" font-family="Helvetica,sans-Serif" font-size="10.00">test/unit/src/test</text>
<text text-anchor="middle" x="3644.5" y="-7" font-family="Helvetica,sans-Serif" font-size="10.00">_shutdownServer.cpp</text>
</a>
</g>
</g>
<!-- Node9&#45;&gt;Node30 -->
<g id="edge31_Node000009_Node000030" class="edge">
<title>Node9&#45;&gt;Node30</title>
<g id="a_edge31_Node000009_Node000030"><a xlink:title=" ">
<path fill="none" stroke="#63b8ff" d="M2041.57,-66.09C2718.73,22.65 2900.66,-105.77 3575.5,-30 3578.42,-29.67 3581.39,-29.28 3584.39,-28.85"/>
<polygon fill="#63b8ff" stroke="#63b8ff" points="2041.02,-62.64 2031.56,-67.42 2041.93,-69.58 2041.02,-62.64"/>
</a>
</g>
</g>
<!-- Node38 -->
<g id="Node000038" class="node">
<title>Node38</title>
<g id="a_Node000038"><a xlink:href="_response_builder_8hpp.html" target="_top" xlink:title=" ">
<polygon fill="white" stroke="#666666" points="1294.5,-222.5 1158.5,-222.5 1158.5,-203.5 1294.5,-203.5 1294.5,-222.5"/>
<text text-anchor="middle" x="1226.5" y="-210.5" font-family="Helvetica,sans-Serif" font-size="10.00">inc/ResponseBuilder.hpp</text>
</a>
</g>
</g>
<!-- Node37&#45;&gt;Node38 -->
<g id="edge39_Node000037_Node000038" class="edge">
<title>Node37&#45;&gt;Node38</title>
<g id="a_edge39_Node000037_Node000038"><a xlink:title=" ">
<path fill="none" stroke="#63b8ff" d="M1289.46,-257.85C1273.55,-246.77 1252.24,-231.93 1238.95,-222.67"/>
<polygon fill="#63b8ff" stroke="#63b8ff" points="1287.9,-261.03 1298.11,-263.87 1291.9,-255.28 1287.9,-261.03"/>
</a>
</g>
</g>
<!-- Node41 -->
<g id="Node000041" class="node">
<title>Node41</title>
<g id="a_Node000041"><a xlink:href="_response_body_handler_8cpp.html" target="_top" xlink:title=" ">
<polygon fill="white" stroke="#666666" points="1476.5,-222.5 1312.5,-222.5 1312.5,-203.5 1476.5,-203.5 1476.5,-222.5"/>
<text text-anchor="middle" x="1394.5" y="-210.5" font-family="Helvetica,sans-Serif" font-size="10.00">src/ResponseBodyHandler.cpp</text>
</a>
</g>
</g>
<!-- Node37&#45;&gt;Node41 -->
<g id="edge43_Node000037_Node000041" class="edge">
<title>Node37&#45;&gt;Node41</title>
<g id="a_edge43_Node000037_Node000041"><a xlink:title=" ">
<path fill="none" stroke="#63b8ff" d="M1331.54,-257.85C1347.45,-246.77 1368.76,-231.93 1382.05,-222.67"/>
<polygon fill="#63b8ff" stroke="#63b8ff" points="1329.1,-255.28 1322.89,-263.87 1333.1,-261.03 1329.1,-255.28"/>
</a>
</g>
</g>
<!-- Node42 -->
<g id="Node000042" class="node">
<title>Node42</title>
<g id="a_Node000042"><a xlink:href="test___response_body_handler_8cpp.html" target="_top" xlink:title=" ">
<polygon fill="white" stroke="#666666" points="1646.5,-228 1494.5,-228 1494.5,-198 1646.5,-198 1646.5,-228"/>
<text text-anchor="start" x="1502.5" y="-216" font-family="Helvetica,sans-Serif" font-size="10.00">test/unit/src/test</text>
<text text-anchor="middle" x="1570.5" y="-205" font-family="Helvetica,sans-Serif" font-size="10.00">_ResponseBodyHandler.cpp</text>
</a>
</g>
</g>
<!-- Node37&#45;&gt;Node42 -->
<g id="edge44_Node000037_Node000042" class="edge">
<title>Node37&#45;&gt;Node42</title>
<g id="a_edge44_Node000037_Node000042"><a xlink:title=" ">
<path fill="none" stroke="#63b8ff" d="M1358.32,-261.74C1400.49,-252.25 1462.23,-238.36 1508.24,-228.01"/>
<polygon fill="#63b8ff" stroke="#63b8ff" points="1357.29,-258.38 1348.31,-263.99 1358.83,-265.21 1357.29,-258.38"/>
</a>
</g>
</g>
<!-- Node38&#45;&gt;Node7 -->
<g id="edge40_Node000038_Node000007" class="edge">
<title>Node38&#45;&gt;Node7</title>
<g id="a_edge40_Node000038_Node000007"><a xlink:title=" ">
<path fill="none" stroke="#63b8ff" d="M1174.32,-201.69C1166.04,-200.3 1157.55,-199 1149.5,-198 885.24,-165.18 565.16,-152.79 450.74,-149.21"/>
<polygon fill="#63b8ff" stroke="#63b8ff" points="1173.81,-205.16 1184.27,-203.44 1175.02,-198.26 1173.81,-205.16"/>
</a>
</g>
</g>
<!-- Node39 -->
<g id="Node000039" class="node">
<title>Node39</title>
<g id="a_Node000039"><a xlink:href="_response_builder_8cpp.html" target="_top" xlink:title=" ">
<polygon fill="white" stroke="#666666" points="1220,-156.5 1085,-156.5 1085,-137.5 1220,-137.5 1220,-156.5"/>
<text text-anchor="middle" x="1152.5" y="-144.5" font-family="Helvetica,sans-Serif" font-size="10.00">src/ResponseBuilder.cpp</text>
</a>
</g>
</g>
<!-- Node38&#45;&gt;Node39 -->
<g id="edge41_Node000038_Node000039" class="edge">
<title>Node38&#45;&gt;Node39</title>
<g id="a_edge41_Node000038_Node000039"><a xlink:title=" ">
<path fill="none" stroke="#63b8ff" d="M1208.79,-196.68C1194.42,-184.26 1174.68,-167.18 1162.8,-156.91"/>
<polygon fill="#63b8ff" stroke="#63b8ff" points="1206.67,-199.47 1216.52,-203.37 1211.25,-194.18 1206.67,-199.47"/>
</a>
</g>
</g>
<!-- Node40 -->
<g id="Node000040" class="node">
<title>Node40</title>
<g id="a_Node000040"><a xlink:href="test___response_builder_8cpp.html" target="_top" xlink:title=" ">
<polygon fill="white" stroke="#666666" points="1361,-162 1238,-162 1238,-132 1361,-132 1361,-162"/>
<text text-anchor="start" x="1246" y="-150" font-family="Helvetica,sans-Serif" font-size="10.00">test/unit/src/test</text>
<text text-anchor="middle" x="1299.5" y="-139" font-family="Helvetica,sans-Serif" font-size="10.00">_ResponseBuilder.cpp</text>
</a>
</g>
</g>
<!-- Node38&#45;&gt;Node40 -->
<g id="edge42_Node000038_Node000040" class="edge">
<title>Node38&#45;&gt;Node40</title>
<g id="a_edge42_Node000038_Node000040"><a xlink:title=" ">
<path fill="none" stroke="#63b8ff" d="M1243.94,-196.71C1255.92,-186.21 1271.71,-172.36 1283.4,-162.12"/>
<polygon fill="#63b8ff" stroke="#63b8ff" points="1241.56,-194.14 1236.35,-203.37 1246.17,-199.41 1241.56,-194.14"/>
</a>
</g>
</g>
</g>
</svg>
