<?xml version="1.0" encoding="UTF-8" standalone="no"?>
<!DOCTYPE svg PUBLIC "-//W3C//DTD SVG 1.1//EN"
 "http://www.w3.org/Graphics/SVG/1.1/DTD/svg11.dtd">
<!-- Generated by graphviz version 2.43.0 (0)
 -->
<!-- Title: Graphical Class Hierarchy Pages: 1 -->
<svg width="313pt" height="902pt"
 viewBox="0.00 0.00 313.00 902.00" xmlns="http://www.w3.org/2000/svg" xmlns:xlink="http://www.w3.org/1999/xlink">
<g id="graph0" class="graph" transform="scale(1 1) rotate(0) translate(4 898)">
<title>Graphical Class Hierarchy</title>
<!-- Node31 -->
<g id="node1" class="node">
<title>Node31</title>
<g id="a_node1"><a xlink:title=" ">
<polygon fill="none" stroke="#bfbfbf" points="0,-437.5 0,-456.5 76,-456.5 76,-437.5 0,-437.5"/>
<text text-anchor="middle" x="38" y="-444.5" font-family="Helvetica,sans-Serif" font-size="10.00">testing::Test</text>
</a>
</g>
</g>
<!-- Node0 -->
<g id="node2" class="node">
<title>Node0</title>
<g id="a_node2"><a xlink:href="class_accept_connections_test.html" target="_top" xlink:title=" ">
<polygon fill="none" stroke="black" points="144,-874.5 144,-893.5 273,-893.5 273,-874.5 144,-874.5"/>
<text text-anchor="middle" x="208.5" y="-881.5" font-family="Helvetica,sans-Serif" font-size="10.00">AcceptConnectionsTest</text>
</a>
</g>
</g>
<!-- Node31&#45;&gt;Node0 -->
<g id="edge1" class="edge">
<title>Node31&#45;&gt;Node0</title>
<path fill="none" stroke="midnightblue" d="M39.61,-467.27C42.31,-542.91 55.69,-807.35 112,-865 120.5,-873.71 131.78,-879.02 143.59,-882.16"/>
<polygon fill="midnightblue" stroke="midnightblue" points="43.09,-466.69 39.26,-456.81 36.1,-466.92 43.09,-466.69"/>
</g>
<!-- Node33 -->
<g id="node3" class="node">
<title>Node33</title>
<g id="a_node3"><a xlink:href="class_c_g_i_handler_test.html" target="_top" xlink:title=" ">
<polygon fill="none" stroke="black" points="162.5,-836.5 162.5,-855.5 254.5,-855.5 254.5,-836.5 162.5,-836.5"/>
<text text-anchor="middle" x="208.5" y="-843.5" font-family="Helvetica,sans-Serif" font-size="10.00">CGIHandlerTest</text>
</a>
</g>
</g>
<!-- Node31&#45;&gt;Node33 -->
<g id="edge2" class="edge">
<title>Node31&#45;&gt;Node33</title>
<path fill="none" stroke="midnightblue" d="M39.97,-466.78C43.84,-537.34 60.54,-775.2 112,-827 124.99,-840.07 144.23,-845.46 162.04,-847.33"/>
<polygon fill="midnightblue" stroke="midnightblue" points="43.45,-466.42 39.44,-456.61 36.46,-466.78 43.45,-466.42"/>
</g>
<!-- Node34 -->
<g id="node4" class="node">
<title>Node34</title>
<g id="a_node4"><a xlink:href="class_check_for_timeout_test.html" target="_top" xlink:title=" ">
<polygon fill="none" stroke="black" points="147.5,-798.5 147.5,-817.5 269.5,-817.5 269.5,-798.5 147.5,-798.5"/>
<text text-anchor="middle" x="208.5" y="-805.5" font-family="Helvetica,sans-Serif" font-size="10.00">CheckForTimeoutTest</text>
</a>
</g>
</g>
<!-- Node31&#45;&gt;Node34 -->
<g id="edge3" class="edge">
<title>Node31&#45;&gt;Node34</title>
<path fill="none" stroke="midnightblue" d="M40.44,-466.9C45.61,-532.93 65.51,-743.15 112,-789 121.51,-798.38 134.24,-803.78 147.31,-806.76"/>
<polygon fill="midnightblue" stroke="midnightblue" points="43.9,-466.34 39.66,-456.63 36.92,-466.87 43.9,-466.34"/>
</g>
<!-- Node35 -->
<g id="node5" class="node">
<title>Node35</title>
<g id="a_node5"><a xlink:href="class_connection_receive_from_c_g_i_test.html" target="_top" xlink:title=" ">
<polygon fill="none" stroke="black" points="122.5,-760.5 122.5,-779.5 294.5,-779.5 294.5,-760.5 122.5,-760.5"/>
<text text-anchor="middle" x="208.5" y="-767.5" font-family="Helvetica,sans-Serif" font-size="10.00">ConnectionReceiveFromCGITest</text>
</a>
</g>
</g>
<!-- Node31&#45;&gt;Node35 -->
<g id="edge4" class="edge">
<title>Node31&#45;&gt;Node35</title>
<path fill="none" stroke="midnightblue" d="M41.02,-467.05C47.61,-528.27 70.46,-711.06 112,-751 115.9,-754.75 120.32,-757.86 125.06,-760.43"/>
<polygon fill="midnightblue" stroke="midnightblue" points="44.47,-466.38 39.95,-456.79 37.51,-467.1 44.47,-466.38"/>
</g>
<!-- Node36 -->
<g id="node6" class="node">
<title>Node36</title>
<g id="a_node6"><a xlink:href="class_connection_receive_header_test.html" target="_top" xlink:title=" ">
<polygon fill="none" stroke="black" points="126,-722.5 126,-741.5 291,-741.5 291,-722.5 126,-722.5"/>
<text text-anchor="middle" x="208.5" y="-729.5" font-family="Helvetica,sans-Serif" font-size="10.00">ConnectionReceiveHeaderTest</text>
</a>
</g>
</g>
<!-- Node31&#45;&gt;Node36 -->
<g id="edge5" class="edge">
<title>Node31&#45;&gt;Node36</title>
<path fill="none" stroke="midnightblue" d="M41.71,-466.71C49.76,-522.35 75.27,-678.81 112,-713 116.08,-716.8 120.7,-719.94 125.65,-722.52"/>
<polygon fill="midnightblue" stroke="midnightblue" points="45.16,-466.13 40.3,-456.72 38.23,-467.11 45.16,-466.13"/>
</g>
<!-- Node37 -->
<g id="node7" class="node">
<title>Node37</title>
<g id="a_node7"><a xlink:href="class_connection_send_response_test.html" target="_top" xlink:title=" ">
<polygon fill="none" stroke="black" points="127.5,-684.5 127.5,-703.5 289.5,-703.5 289.5,-684.5 127.5,-684.5"/>
<text text-anchor="middle" x="208.5" y="-691.5" font-family="Helvetica,sans-Serif" font-size="10.00">ConnectionSendResponseTest</text>
</a>
</g>
</g>
<!-- Node31&#45;&gt;Node37 -->
<g id="edge6" class="edge">
<title>Node31&#45;&gt;Node37</title>
<path fill="none" stroke="midnightblue" d="M39.04,-466.65C40.26,-511.04 49.81,-619.5 112,-675 116.54,-679.05 121.69,-682.34 127.19,-685"/>
<polygon fill="midnightblue" stroke="midnightblue" points="42.54,-466.54 38.88,-456.59 35.54,-466.65 42.54,-466.54"/>
</g>
<!-- Node38 -->
<g id="node8" class="node">
<title>Node38</title>
<g id="a_node8"><a xlink:href="class_connection_send_to_c_g_i_test.html" target="_top" xlink:title=" ">
<polygon fill="none" stroke="black" points="137,-646.5 137,-665.5 280,-665.5 280,-646.5 137,-646.5"/>
<text text-anchor="middle" x="208.5" y="-653.5" font-family="Helvetica,sans-Serif" font-size="10.00">ConnectionSendToCGITest</text>
</a>
</g>
</g>
<!-- Node31&#45;&gt;Node38 -->
<g id="edge7" class="edge">
<title>Node31&#45;&gt;Node38</title>
<path fill="none" stroke="midnightblue" d="M40.5,-466.8C44.57,-505.8 59.37,-592.65 112,-637 119.24,-643.1 127.88,-647.44 136.97,-650.5"/>
<polygon fill="midnightblue" stroke="midnightblue" points="43.97,-466.37 39.58,-456.73 37,-467.01 43.97,-466.37"/>
</g>
<!-- Node39 -->
<g id="node9" class="node">
<title>Node39</title>
<g id="a_node9"><a xlink:href="class_create_virtual_server_test.html" target="_top" xlink:title=" ">
<polygon fill="none" stroke="black" points="142.5,-608.5 142.5,-627.5 274.5,-627.5 274.5,-608.5 142.5,-608.5"/>
<text text-anchor="middle" x="208.5" y="-615.5" font-family="Helvetica,sans-Serif" font-size="10.00">CreateVirtualServerTest</text>
</a>
</g>
</g>
<!-- Node31&#45;&gt;Node39 -->
<g id="edge8" class="edge">
<title>Node31&#45;&gt;Node39</title>
<path fill="none" stroke="midnightblue" d="M42.63,-466.88C49.74,-499.84 68.75,-565.46 112,-599 120.82,-605.84 131.43,-610.41 142.34,-613.44"/>
<polygon fill="midnightblue" stroke="midnightblue" points="45.98,-465.82 40.59,-456.7 39.12,-467.19 45.98,-465.82"/>
</g>
<!-- Node40 -->
<g id="node10" class="node">
<title>Node40</title>
<g id="a_node10"><a xlink:href="class_handle_complete_request_header_test.html" target="_top" xlink:title=" ">
<polygon fill="none" stroke="black" points="112,-570.5 112,-589.5 305,-589.5 305,-570.5 112,-570.5"/>
<text text-anchor="middle" x="208.5" y="-577.5" font-family="Helvetica,sans-Serif" font-size="10.00">HandleCompleteRequestHeaderTest</text>
</a>
</g>
</g>
<!-- Node31&#45;&gt;Node40 -->
<g id="edge9" class="edge">
<title>Node31&#45;&gt;Node40</title>
<path fill="none" stroke="midnightblue" d="M45.66,-465.93C55.76,-491.75 77.54,-537.48 112,-561 117.59,-564.81 123.76,-567.9 130.19,-570.39"/>
<polygon fill="midnightblue" stroke="midnightblue" points="48.91,-464.65 42.14,-456.51 42.35,-467.1 48.91,-464.65"/>
</g>
<!-- Node41 -->
<g id="node11" class="node">
<title>Node41</title>
<g id="a_node11"><a xlink:href="class_init_virtual_servers_test.html" target="_top" xlink:title=" ">
<polygon fill="none" stroke="black" points="148,-532.5 148,-551.5 269,-551.5 269,-532.5 148,-532.5"/>
<text text-anchor="middle" x="208.5" y="-539.5" font-family="Helvetica,sans-Serif" font-size="10.00">InitVirtualServersTest</text>
</a>
</g>
</g>
<!-- Node31&#45;&gt;Node41 -->
<g id="edge10" class="edge">
<title>Node31&#45;&gt;Node41</title>
<path fill="none" stroke="midnightblue" d="M51.24,-465.08C64.2,-482.74 86.31,-508.93 112,-523 122.97,-529.01 135.58,-533.13 147.96,-535.95"/>
<polygon fill="midnightblue" stroke="midnightblue" points="53.97,-462.88 45.33,-456.74 48.26,-466.92 53.97,-462.88"/>
</g>
<!-- Node42 -->
<g id="node12" class="node">
<title>Node42</title>
<g id="a_node12"><a xlink:href="class_invalid_config_file_tests.html" target="_top" xlink:title=" ">
<polygon fill="none" stroke="black" points="147.5,-494.5 147.5,-513.5 269.5,-513.5 269.5,-494.5 147.5,-494.5"/>
<text text-anchor="middle" x="208.5" y="-501.5" font-family="Helvetica,sans-Serif" font-size="10.00">InvalidConfigFileTests</text>
</a>
</g>
</g>
<!-- Node31&#45;&gt;Node42 -->
<g id="edge11" class="edge">
<title>Node31&#45;&gt;Node42</title>
<path fill="none" stroke="midnightblue" d="M63.24,-461.84C77.09,-469.74 95.03,-479.03 112,-485 123.24,-488.95 135.54,-492.17 147.45,-494.76"/>
<polygon fill="midnightblue" stroke="midnightblue" points="64.77,-458.68 54.37,-456.65 61.23,-464.72 64.77,-458.68"/>
</g>
<!-- Node43 -->
<g id="node13" class="node">
<title>Node43</title>
<g id="a_node13"><a xlink:href="class_ostream_inserters_test.html" target="_top" xlink:title=" ">
<polygon fill="none" stroke="black" points="148,-456.5 148,-475.5 269,-475.5 269,-456.5 148,-456.5"/>
<text text-anchor="middle" x="208.5" y="-463.5" font-family="Helvetica,sans-Serif" font-size="10.00">OstreamInsertersTest</text>
</a>
</g>
</g>
<!-- Node31&#45;&gt;Node43 -->
<g id="edge12" class="edge">
<title>Node31&#45;&gt;Node43</title>
<path fill="none" stroke="midnightblue" d="M86.59,-452.37C105.58,-454.51 127.66,-457 147.71,-459.26"/>
<polygon fill="midnightblue" stroke="midnightblue" points="86.72,-448.86 76.4,-451.22 85.94,-455.82 86.72,-448.86"/>
</g>
<!-- Node44 -->
<g id="node14" class="node">
<title>Node44</title>
<g id="a_node14"><a xlink:href="class_parse_body_test.html" target="_top" xlink:title=" ">
<polygon fill="none" stroke="black" points="165,-418.5 165,-437.5 252,-437.5 252,-418.5 165,-418.5"/>
<text text-anchor="middle" x="208.5" y="-425.5" font-family="Helvetica,sans-Serif" font-size="10.00">ParseBodyTest</text>
</a>
</g>
</g>
<!-- Node31&#45;&gt;Node44 -->
<g id="edge13" class="edge">
<title>Node31&#45;&gt;Node44</title>
<path fill="none" stroke="midnightblue" d="M86.59,-441.63C111.21,-438.86 141.01,-435.5 164.86,-432.81"/>
<polygon fill="midnightblue" stroke="midnightblue" points="85.94,-438.18 76.4,-442.78 86.72,-445.14 85.94,-438.18"/>
</g>
<!-- Node45 -->
<g id="node15" class="node">
<title>Node45</title>
<g id="a_node15"><a xlink:href="class_parse_headers_test.html" target="_top" xlink:title=" ">
<polygon fill="none" stroke="black" points="157,-380.5 157,-399.5 260,-399.5 260,-380.5 157,-380.5"/>
<text text-anchor="middle" x="208.5" y="-387.5" font-family="Helvetica,sans-Serif" font-size="10.00">ParseHeadersTest</text>
</a>
</g>
</g>
<!-- Node31&#45;&gt;Node45 -->
<g id="edge14" class="edge">
<title>Node31&#45;&gt;Node45</title>
<path fill="none" stroke="midnightblue" d="M63.24,-432.16C77.09,-424.26 95.03,-414.97 112,-409 126.19,-404.01 142.06,-400.19 156.72,-397.34"/>
<polygon fill="midnightblue" stroke="midnightblue" points="61.23,-429.28 54.37,-437.35 64.77,-435.32 61.23,-429.28"/>
</g>
<!-- Node46 -->
<g id="node16" class="node">
<title>Node46</title>
<g id="a_node16"><a xlink:href="class_parse_request_line_test.html" target="_top" xlink:title=" ">
<polygon fill="none" stroke="black" points="147.5,-342.5 147.5,-361.5 269.5,-361.5 269.5,-342.5 147.5,-342.5"/>
<text text-anchor="middle" x="208.5" y="-349.5" font-family="Helvetica,sans-Serif" font-size="10.00">ParseRequestLineTest</text>
</a>
</g>
</g>
<!-- Node31&#45;&gt;Node46 -->
<g id="edge15" class="edge">
<title>Node31&#45;&gt;Node46</title>
<path fill="none" stroke="midnightblue" d="M51.24,-428.92C64.2,-411.26 86.31,-385.07 112,-371 122.82,-365.07 135.24,-360.98 147.46,-358.16"/>
<polygon fill="midnightblue" stroke="midnightblue" points="48.26,-427.08 45.33,-437.26 53.97,-431.12 48.26,-427.08"/>
</g>
<!-- Node47 -->
<g id="node17" class="node">
<title>Node47</title>
<g id="a_node17"><a xlink:href="class_register_c_g_i_test.html" target="_top" xlink:title=" ">
<polygon fill="none" stroke="black" points="161.5,-304.5 161.5,-323.5 255.5,-323.5 255.5,-304.5 161.5,-304.5"/>
<text text-anchor="middle" x="208.5" y="-311.5" font-family="Helvetica,sans-Serif" font-size="10.00">RegisterCGITest</text>
</a>
</g>
</g>
<!-- Node31&#45;&gt;Node47 -->
<g id="edge16" class="edge">
<title>Node31&#45;&gt;Node47</title>
<path fill="none" stroke="midnightblue" d="M45.66,-428.07C55.76,-402.25 77.54,-356.52 112,-333 126.38,-323.19 144.65,-318.19 161.35,-315.73"/>
<polygon fill="midnightblue" stroke="midnightblue" points="42.35,-426.9 42.14,-437.49 48.91,-429.35 42.35,-426.9"/>
</g>
<!-- Node48 -->
<g id="node18" class="node">
<title>Node48</title>
<g id="a_node18"><a xlink:href="class_register_connection_test.html" target="_top" xlink:title=" ">
<polygon fill="none" stroke="black" points="143,-266.5 143,-285.5 274,-285.5 274,-266.5 143,-266.5"/>
<text text-anchor="middle" x="208.5" y="-273.5" font-family="Helvetica,sans-Serif" font-size="10.00">RegisterConnectionTest</text>
</a>
</g>
</g>
<!-- Node31&#45;&gt;Node48 -->
<g id="edge17" class="edge">
<title>Node31&#45;&gt;Node48</title>
<path fill="none" stroke="midnightblue" d="M42.63,-427.12C49.74,-394.16 68.75,-328.54 112,-295 120.95,-288.06 131.76,-283.45 142.83,-280.43"/>
<polygon fill="midnightblue" stroke="midnightblue" points="39.12,-426.81 40.59,-437.3 45.98,-428.18 39.12,-426.81"/>
</g>
<!-- Node49 -->
<g id="node19" class="node">
<title>Node49</title>
<g id="a_node19"><a xlink:href="class_register_virtual_server_test.html" target="_top" xlink:title=" ">
<polygon fill="none" stroke="black" points="138.5,-228.5 138.5,-247.5 278.5,-247.5 278.5,-228.5 138.5,-228.5"/>
<text text-anchor="middle" x="208.5" y="-235.5" font-family="Helvetica,sans-Serif" font-size="10.00">RegisterVirtualServerTest</text>
</a>
</g>
</g>
<!-- Node31&#45;&gt;Node49 -->
<g id="edge18" class="edge">
<title>Node31&#45;&gt;Node49</title>
<path fill="none" stroke="midnightblue" d="M40.5,-427.2C44.57,-388.2 59.37,-301.35 112,-257 119.63,-250.57 128.81,-246.1 138.43,-243.02"/>
<polygon fill="midnightblue" stroke="midnightblue" points="37,-426.99 39.58,-437.27 43.97,-427.63 37,-426.99"/>
</g>
<!-- Node50 -->
<g id="node20" class="node">
<title>Node50</title>
<g id="a_node20"><a xlink:href="class_response_body_handler_test.html" target="_top" xlink:title=" ">
<polygon fill="none" stroke="black" points="135.5,-190.5 135.5,-209.5 281.5,-209.5 281.5,-190.5 135.5,-190.5"/>
<text text-anchor="middle" x="208.5" y="-197.5" font-family="Helvetica,sans-Serif" font-size="10.00">ResponseBodyHandlerTest</text>
</a>
</g>
</g>
<!-- Node31&#45;&gt;Node50 -->
<g id="edge19" class="edge">
<title>Node31&#45;&gt;Node50</title>
<path fill="none" stroke="midnightblue" d="M39.04,-427.35C40.26,-382.96 49.81,-274.5 112,-219 118.68,-213.03 126.69,-208.72 135.19,-205.64"/>
<polygon fill="midnightblue" stroke="midnightblue" points="35.54,-427.35 38.88,-437.41 42.54,-427.46 35.54,-427.35"/>
</g>
<!-- Node51 -->
<g id="node21" class="node">
<title>Node51</title>
<g id="a_node21"><a xlink:href="class_shutdown_server_test.html" target="_top" xlink:title=" ">
<polygon fill="none" stroke="black" points="150.5,-152.5 150.5,-171.5 266.5,-171.5 266.5,-152.5 150.5,-152.5"/>
<text text-anchor="middle" x="208.5" y="-159.5" font-family="Helvetica,sans-Serif" font-size="10.00">ShutdownServerTest</text>
</a>
</g>
</g>
<!-- Node31&#45;&gt;Node51 -->
<g id="edge20" class="edge">
<title>Node31&#45;&gt;Node51</title>
<path fill="none" stroke="midnightblue" d="M41.71,-427.29C49.76,-371.65 75.27,-215.19 112,-181 122.39,-171.32 136.25,-165.95 150.17,-163.1"/>
<polygon fill="midnightblue" stroke="midnightblue" points="38.23,-426.89 40.3,-437.28 45.16,-427.87 38.23,-426.89"/>
</g>
<!-- Node52 -->
<g id="node22" class="node">
<title>Node52</title>
<g id="a_node22"><a xlink:href="class_target_resource_handler_test.html" target="_top" xlink:title=" ">
<polygon fill="none" stroke="black" points="134,-114.5 134,-133.5 283,-133.5 283,-114.5 134,-114.5"/>
<text text-anchor="middle" x="208.5" y="-121.5" font-family="Helvetica,sans-Serif" font-size="10.00">TargetResourceHandlerTest</text>
</a>
</g>
</g>
<!-- Node31&#45;&gt;Node52 -->
<g id="edge21" class="edge">
<title>Node31&#45;&gt;Node52</title>
<path fill="none" stroke="midnightblue" d="M41.02,-426.95C47.61,-365.73 70.46,-182.94 112,-143 118.21,-137.02 125.74,-132.68 133.82,-129.54"/>
<polygon fill="midnightblue" stroke="midnightblue" points="37.51,-426.9 39.95,-437.21 44.47,-427.62 37.51,-426.9"/>
</g>
<!-- Node53 -->
<g id="node23" class="node">
<title>Node53</title>
<g id="a_node23"><a xlink:href="class_valid_config_file_tests.html" target="_top" xlink:title=" ">
<polygon fill="none" stroke="black" points="152,-76.5 152,-95.5 265,-95.5 265,-76.5 152,-76.5"/>
<text text-anchor="middle" x="208.5" y="-83.5" font-family="Helvetica,sans-Serif" font-size="10.00">ValidConfigFileTests</text>
</a>
</g>
</g>
<!-- Node31&#45;&gt;Node53 -->
<g id="edge22" class="edge">
<title>Node31&#45;&gt;Node53</title>
<path fill="none" stroke="midnightblue" d="M40.44,-427.1C45.61,-361.07 65.51,-150.85 112,-105 122.59,-94.55 137.19,-89.04 151.78,-86.31"/>
<polygon fill="midnightblue" stroke="midnightblue" points="36.92,-427.13 39.66,-437.37 43.9,-427.66 36.92,-427.13"/>
</g>
<!-- Node54 -->
<g id="node24" class="node">
<title>Node54</title>
<g id="a_node24"><a xlink:href="classis_duplicate_server_test.html" target="_top" xlink:title=" ">
<polygon fill="none" stroke="black" points="147.5,-38.5 147.5,-57.5 269.5,-57.5 269.5,-38.5 147.5,-38.5"/>
<text text-anchor="middle" x="208.5" y="-45.5" font-family="Helvetica,sans-Serif" font-size="10.00">isDuplicateServerTest</text>
</a>
</g>
</g>
<!-- Node31&#45;&gt;Node54 -->
<g id="edge23" class="edge">
<title>Node31&#45;&gt;Node54</title>
<path fill="none" stroke="midnightblue" d="M39.97,-427.22C43.84,-356.66 60.54,-118.8 112,-67 121.41,-57.53 134.11,-52.09 147.17,-49.1"/>
<polygon fill="midnightblue" stroke="midnightblue" points="36.46,-427.22 39.44,-437.39 43.45,-427.58 36.46,-427.22"/>
</g>
<!-- Node55 -->
<g id="node25" class="node">
<title>Node55</title>
<g id="a_node25"><a xlink:href="classselect_server_config_test.html" target="_top" xlink:title=" ">
<polygon fill="none" stroke="black" points="144.5,-0.5 144.5,-19.5 272.5,-19.5 272.5,-0.5 144.5,-0.5"/>
<text text-anchor="middle" x="208.5" y="-7.5" font-family="Helvetica,sans-Serif" font-size="10.00">selectServerConfigTest</text>
</a>
</g>
</g>
<!-- Node31&#45;&gt;Node55 -->
<g id="edge24" class="edge">
<title>Node31&#45;&gt;Node55</title>
<path fill="none" stroke="midnightblue" d="M39.61,-426.73C42.31,-351.09 55.69,-86.65 112,-29 120.62,-20.17 132.09,-14.83 144.09,-11.71"/>
<polygon fill="midnightblue" stroke="midnightblue" points="36.1,-427.08 39.26,-437.19 43.09,-427.31 36.1,-427.08"/>
</g>
</g>
</svg>
