<?xml version="1.0" encoding="UTF-8" standalone="no"?>
<!DOCTYPE svg PUBLIC "-//W3C//DTD SVG 1.1//EN"
 "http://www.w3.org/Graphics/SVG/1.1/DTD/svg11.dtd">
<!-- Generated by graphviz version 2.43.0 (0)
 -->
<!-- Title: Graphical Class Hierarchy Pages: 1 -->
<svg width="269pt" height="104pt"
 viewBox="0.00 0.00 269.00 104.00" xmlns="http://www.w3.org/2000/svg" xmlns:xlink="http://www.w3.org/1999/xlink">
<g id="graph0" class="graph" transform="scale(1 1) rotate(0) translate(4 100)">
<title>Graphical Class Hierarchy</title>
<!-- Node22 -->
<g id="node1" class="node">
<title>Node22</title>
<g id="a_node1"><a xlink:title=" ">
<polygon fill="none" stroke="#bfbfbf" points="0,-38.5 0,-57.5 76,-57.5 76,-38.5 0,-38.5"/>
<text text-anchor="middle" x="38" y="-45.5" font-family="Helvetica,sans-Serif" font-size="10.00">testing::Test</text>
</a>
</g>
</g>
<!-- Node0 -->
<g id="node2" class="node">
<title>Node0</title>
<g id="a_node2"><a xlink:href="class_ostream_inserters_test.html" target="_top" xlink:title=" ">
<polygon fill="none" stroke="black" points="126,-76.5 126,-95.5 247,-95.5 247,-76.5 126,-76.5"/>
<text text-anchor="middle" x="186.5" y="-83.5" font-family="Helvetica,sans-Serif" font-size="10.00">OstreamInsertersTest</text>
</a>
</g>
</g>
<!-- Node22&#45;&gt;Node0 -->
<g id="edge1" class="edge">
<title>Node22&#45;&gt;Node0</title>
<path fill="none" stroke="midnightblue" d="M85.51,-60.12C94.31,-62.41 103.43,-64.78 112,-67 123.86,-70.08 136.81,-73.43 148.48,-76.44"/>
<polygon fill="midnightblue" stroke="midnightblue" points="86.32,-56.71 75.76,-57.58 84.56,-63.49 86.32,-56.71"/>
</g>
<!-- Node24 -->
<g id="node3" class="node">
<title>Node24</title>
<g id="a_node3"><a xlink:href="class_response_body_handler_test.html" target="_top" xlink:title=" ">
<polygon fill="none" stroke="black" points="113.5,-38.5 113.5,-57.5 259.5,-57.5 259.5,-38.5 113.5,-38.5"/>
<text text-anchor="middle" x="186.5" y="-45.5" font-family="Helvetica,sans-Serif" font-size="10.00">ResponseBodyHandlerTest</text>
</a>
</g>
</g>
<!-- Node22&#45;&gt;Node24 -->
<g id="edge2" class="edge">
<title>Node22&#45;&gt;Node24</title>
<path fill="none" stroke="midnightblue" d="M86.54,-48C95.15,-48 104.31,-48 113.44,-48"/>
<polygon fill="midnightblue" stroke="midnightblue" points="86.35,-44.5 76.35,-48 86.35,-51.5 86.35,-44.5"/>
</g>
<!-- Node25 -->
<g id="node4" class="node">
<title>Node25</title>
<g id="a_node4"><a xlink:href="class_target_resource_handler_test.html" target="_top" xlink:title=" ">
<polygon fill="none" stroke="black" points="112,-0.5 112,-19.5 261,-19.5 261,-0.5 112,-0.5"/>
<text text-anchor="middle" x="186.5" y="-7.5" font-family="Helvetica,sans-Serif" font-size="10.00">TargetResourceHandlerTest</text>
</a>
</g>
</g>
<!-- Node22&#45;&gt;Node25 -->
<g id="edge3" class="edge">
<title>Node22&#45;&gt;Node25</title>
<path fill="none" stroke="midnightblue" d="M85.51,-35.88C94.31,-33.59 103.43,-31.22 112,-29 123.86,-25.92 136.81,-22.57 148.48,-19.56"/>
<polygon fill="midnightblue" stroke="midnightblue" points="84.56,-32.51 75.76,-38.42 86.32,-39.29 84.56,-32.51"/>
</g>
</g>
</svg>
