<?xml version="1.0" encoding="UTF-8" standalone="no"?>
<!DOCTYPE svg PUBLIC "-//W3C//DTD SVG 1.1//EN"
 "http://www.w3.org/Graphics/SVG/1.1/DTD/svg11.dtd">
<!-- Generated by graphviz version 2.43.0 (0)
 -->
<!-- Title: Graphical Class Hierarchy Pages: 1 -->
<svg width="285pt" height="712pt"
 viewBox="0.00 0.00 285.00 712.00" xmlns="http://www.w3.org/2000/svg" xmlns:xlink="http://www.w3.org/1999/xlink">
<g id="graph0" class="graph" transform="scale(1 1) rotate(0) translate(4 708)">
<title>Graphical Class Hierarchy</title>
<!-- Node26 -->
<g id="node1" class="node">
<title>Node26</title>
<g id="a_node1"><a xlink:title=" ">
<polygon fill="none" stroke="#bfbfbf" points="0,-342.5 0,-361.5 76,-361.5 76,-342.5 0,-342.5"/>
<text text-anchor="middle" x="38" y="-349.5" font-family="Helvetica,sans-Serif" font-size="10.00">testing::Test</text>
</a>
</g>
</g>
<!-- Node0 -->
<g id="node2" class="node">
<title>Node0</title>
<g id="a_node2"><a xlink:href="class_accept_connections_test.html" target="_top" xlink:title=" ">
<polygon fill="none" stroke="black" points="130,-684.5 130,-703.5 259,-703.5 259,-684.5 130,-684.5"/>
<text text-anchor="middle" x="194.5" y="-691.5" font-family="Helvetica,sans-Serif" font-size="10.00">AcceptConnectionsTest</text>
</a>
</g>
</g>
<!-- Node26&#45;&gt;Node0 -->
<g id="edge1" class="edge">
<title>Node26&#45;&gt;Node0</title>
<path fill="none" stroke="midnightblue" d="M40.77,-371.97C46.83,-435.52 68.71,-631.42 112,-675 117.02,-680.05 123.1,-683.86 129.66,-686.73"/>
<polygon fill="midnightblue" stroke="midnightblue" points="44.23,-371.35 39.83,-361.71 37.26,-371.99 44.23,-371.35"/>
</g>
<!-- Node28 -->
<g id="node3" class="node">
<title>Node28</title>
<g id="a_node3"><a xlink:href="class_check_for_timeout_test.html" target="_top" xlink:title=" ">
<polygon fill="none" stroke="black" points="133.5,-646.5 133.5,-665.5 255.5,-665.5 255.5,-646.5 133.5,-646.5"/>
<text text-anchor="middle" x="194.5" y="-653.5" font-family="Helvetica,sans-Serif" font-size="10.00">CheckForTimeoutTest</text>
</a>
</g>
</g>
<!-- Node26&#45;&gt;Node28 -->
<g id="edge2" class="edge">
<title>Node26&#45;&gt;Node28</title>
<path fill="none" stroke="midnightblue" d="M41.41,-371.88C48.88,-430.24 73.5,-599.32 112,-637 118.02,-642.89 125.5,-647.09 133.46,-650.06"/>
<polygon fill="midnightblue" stroke="midnightblue" points="44.86,-371.25 40.15,-361.76 37.91,-372.11 44.86,-371.25"/>
</g>
<!-- Node29 -->
<g id="node4" class="node">
<title>Node29</title>
<g id="a_node4"><a xlink:href="class_connection_receive_header_test.html" target="_top" xlink:title=" ">
<polygon fill="none" stroke="black" points="112,-608.5 112,-627.5 277,-627.5 277,-608.5 112,-608.5"/>
<text text-anchor="middle" x="194.5" y="-615.5" font-family="Helvetica,sans-Serif" font-size="10.00">ConnectionReceiveHeaderTest</text>
</a>
</g>
</g>
<!-- Node26&#45;&gt;Node29 -->
<g id="edge3" class="edge">
<title>Node26&#45;&gt;Node29</title>
<path fill="none" stroke="midnightblue" d="M38.6,-371.82C38.8,-418.65 46.18,-536.91 112,-599 116.02,-602.79 120.64,-605.87 125.59,-608.37"/>
<polygon fill="midnightblue" stroke="midnightblue" points="42.1,-371.55 38.67,-361.52 35.1,-371.5 42.1,-371.55"/>
</g>
<!-- Node30 -->
<g id="node5" class="node">
<title>Node30</title>
<g id="a_node5"><a xlink:href="class_connection_send_response_test.html" target="_top" xlink:title=" ">
<polygon fill="none" stroke="black" points="113.5,-570.5 113.5,-589.5 275.5,-589.5 275.5,-570.5 113.5,-570.5"/>
<text text-anchor="middle" x="194.5" y="-577.5" font-family="Helvetica,sans-Serif" font-size="10.00">ConnectionSendResponseTest</text>
</a>
</g>
</g>
<!-- Node26&#45;&gt;Node30 -->
<g id="edge4" class="edge">
<title>Node26&#45;&gt;Node30</title>
<path fill="none" stroke="midnightblue" d="M39.85,-371.85C42.75,-413.48 55.55,-510.29 112,-561 116.22,-564.79 121.04,-567.86 126.18,-570.35"/>
<polygon fill="midnightblue" stroke="midnightblue" points="43.33,-371.43 39.27,-361.65 36.34,-371.83 43.33,-371.43"/>
</g>
<!-- Node31 -->
<g id="node6" class="node">
<title>Node31</title>
<g id="a_node6"><a xlink:href="class_create_virtual_server_test.html" target="_top" xlink:title=" ">
<polygon fill="none" stroke="black" points="128.5,-532.5 128.5,-551.5 260.5,-551.5 260.5,-532.5 128.5,-532.5"/>
<text text-anchor="middle" x="194.5" y="-539.5" font-family="Helvetica,sans-Serif" font-size="10.00">CreateVirtualServerTest</text>
</a>
</g>
</g>
<!-- Node26&#45;&gt;Node31 -->
<g id="edge5" class="edge">
<title>Node26&#45;&gt;Node31</title>
<path fill="none" stroke="midnightblue" d="M41.57,-371.64C47.33,-407.45 64.7,-483.31 112,-523 116.9,-527.11 122.52,-530.37 128.47,-532.95"/>
<polygon fill="midnightblue" stroke="midnightblue" points="45,-370.91 40.08,-361.52 38.07,-371.92 45,-370.91"/>
</g>
<!-- Node32 -->
<g id="node7" class="node">
<title>Node32</title>
<g id="a_node7"><a xlink:href="class_init_virtual_servers_test.html" target="_top" xlink:title=" ">
<polygon fill="none" stroke="black" points="134,-494.5 134,-513.5 255,-513.5 255,-494.5 134,-494.5"/>
<text text-anchor="middle" x="194.5" y="-501.5" font-family="Helvetica,sans-Serif" font-size="10.00">InitVirtualServersTest</text>
</a>
</g>
</g>
<!-- Node26&#45;&gt;Node32 -->
<g id="edge6" class="edge">
<title>Node26&#45;&gt;Node32</title>
<path fill="none" stroke="midnightblue" d="M44.23,-371.76C53.07,-401.16 73.85,-456.06 112,-485 118.48,-489.92 126.03,-493.59 133.86,-496.33"/>
<polygon fill="midnightblue" stroke="midnightblue" points="47.51,-370.51 41.42,-361.85 40.78,-372.42 47.51,-370.51"/>
</g>
<!-- Node33 -->
<g id="node8" class="node">
<title>Node33</title>
<g id="a_node8"><a xlink:href="class_invalid_config_file_tests.html" target="_top" xlink:title=" ">
<polygon fill="none" stroke="black" points="133.5,-456.5 133.5,-475.5 255.5,-475.5 255.5,-456.5 133.5,-456.5"/>
<text text-anchor="middle" x="194.5" y="-463.5" font-family="Helvetica,sans-Serif" font-size="10.00">InvalidConfigFileTests</text>
</a>
</g>
</g>
<!-- Node26&#45;&gt;Node33 -->
<g id="edge7" class="edge">
<title>Node26&#45;&gt;Node33</title>
<path fill="none" stroke="midnightblue" d="M48.12,-370.49C59.85,-392.25 82.28,-427.85 112,-447 118.47,-451.17 125.76,-454.43 133.24,-456.97"/>
<polygon fill="midnightblue" stroke="midnightblue" points="51.21,-368.84 43.5,-361.57 44.99,-372.06 51.21,-368.84"/>
</g>
<!-- Node34 -->
<g id="node9" class="node">
<title>Node34</title>
<g id="a_node9"><a xlink:href="class_ostream_inserters_test.html" target="_top" xlink:title=" ">
<polygon fill="none" stroke="black" points="134,-418.5 134,-437.5 255,-437.5 255,-418.5 134,-418.5"/>
<text text-anchor="middle" x="194.5" y="-425.5" font-family="Helvetica,sans-Serif" font-size="10.00">OstreamInsertersTest</text>
</a>
</g>
</g>
<!-- Node26&#45;&gt;Node34 -->
<g id="edge8" class="edge">
<title>Node26&#45;&gt;Node34</title>
<path fill="none" stroke="midnightblue" d="M55.8,-368.62C69.74,-381.49 90.66,-398.8 112,-409 120.13,-412.89 129.1,-416 138.03,-418.5"/>
<polygon fill="midnightblue" stroke="midnightblue" points="58.11,-365.99 48.45,-361.64 53.29,-371.07 58.11,-365.99"/>
</g>
<!-- Node35 -->
<g id="node10" class="node">
<title>Node35</title>
<g id="a_node10"><a xlink:href="class_parse_body_test.html" target="_top" xlink:title=" ">
<polygon fill="none" stroke="black" points="151,-380.5 151,-399.5 238,-399.5 238,-380.5 151,-380.5"/>
<text text-anchor="middle" x="194.5" y="-387.5" font-family="Helvetica,sans-Serif" font-size="10.00">ParseBodyTest</text>
</a>
</g>
</g>
<!-- Node26&#45;&gt;Node35 -->
<g id="edge9" class="edge">
<title>Node26&#45;&gt;Node35</title>
<path fill="none" stroke="midnightblue" d="M84.9,-364.14C93.87,-366.46 103.22,-368.84 112,-371 124.84,-374.17 138.85,-377.48 151.57,-380.44"/>
<polygon fill="midnightblue" stroke="midnightblue" points="85.53,-360.69 74.97,-361.56 83.77,-367.46 85.53,-360.69"/>
</g>
<!-- Node36 -->
<g id="node11" class="node">
<title>Node36</title>
<g id="a_node11"><a xlink:href="class_parse_headers_test.html" target="_top" xlink:title=" ">
<polygon fill="none" stroke="black" points="143,-342.5 143,-361.5 246,-361.5 246,-342.5 143,-342.5"/>
<text text-anchor="middle" x="194.5" y="-349.5" font-family="Helvetica,sans-Serif" font-size="10.00">ParseHeadersTest</text>
</a>
</g>
</g>
<!-- Node26&#45;&gt;Node36 -->
<g id="edge10" class="edge">
<title>Node26&#45;&gt;Node36</title>
<path fill="none" stroke="midnightblue" d="M86.22,-352C104.12,-352 124.57,-352 142.78,-352"/>
<polygon fill="midnightblue" stroke="midnightblue" points="86.01,-348.5 76.01,-352 86.01,-355.5 86.01,-348.5"/>
</g>
<!-- Node37 -->
<g id="node12" class="node">
<title>Node37</title>
<g id="a_node12"><a xlink:href="class_parse_request_line_test.html" target="_top" xlink:title=" ">
<polygon fill="none" stroke="black" points="133.5,-304.5 133.5,-323.5 255.5,-323.5 255.5,-304.5 133.5,-304.5"/>
<text text-anchor="middle" x="194.5" y="-311.5" font-family="Helvetica,sans-Serif" font-size="10.00">ParseRequestLineTest</text>
</a>
</g>
</g>
<!-- Node26&#45;&gt;Node37 -->
<g id="edge11" class="edge">
<title>Node26&#45;&gt;Node37</title>
<path fill="none" stroke="midnightblue" d="M84.9,-339.86C93.87,-337.54 103.22,-335.16 112,-333 124.84,-329.83 138.85,-326.52 151.57,-323.56"/>
<polygon fill="midnightblue" stroke="midnightblue" points="83.77,-336.54 74.97,-342.44 85.53,-343.31 83.77,-336.54"/>
</g>
<!-- Node38 -->
<g id="node13" class="node">
<title>Node38</title>
<g id="a_node13"><a xlink:href="class_register_connection_test.html" target="_top" xlink:title=" ">
<polygon fill="none" stroke="black" points="129,-266.5 129,-285.5 260,-285.5 260,-266.5 129,-266.5"/>
<text text-anchor="middle" x="194.5" y="-273.5" font-family="Helvetica,sans-Serif" font-size="10.00">RegisterConnectionTest</text>
</a>
</g>
</g>
<!-- Node26&#45;&gt;Node38 -->
<g id="edge12" class="edge">
<title>Node26&#45;&gt;Node38</title>
<path fill="none" stroke="midnightblue" d="M55.8,-335.38C69.74,-322.51 90.66,-305.2 112,-295 120.13,-291.11 129.1,-288 138.03,-285.5"/>
<polygon fill="midnightblue" stroke="midnightblue" points="53.29,-332.93 48.45,-342.36 58.11,-338.01 53.29,-332.93"/>
</g>
<!-- Node39 -->
<g id="node14" class="node">
<title>Node39</title>
<g id="a_node14"><a xlink:href="class_register_virtual_server_test.html" target="_top" xlink:title=" ">
<polygon fill="none" stroke="black" points="124.5,-228.5 124.5,-247.5 264.5,-247.5 264.5,-228.5 124.5,-228.5"/>
<text text-anchor="middle" x="194.5" y="-235.5" font-family="Helvetica,sans-Serif" font-size="10.00">RegisterVirtualServerTest</text>
</a>
</g>
</g>
<!-- Node26&#45;&gt;Node39 -->
<g id="edge13" class="edge">
<title>Node26&#45;&gt;Node39</title>
<path fill="none" stroke="midnightblue" d="M48.12,-333.51C59.85,-311.75 82.28,-276.15 112,-257 117.98,-253.14 124.66,-250.07 131.55,-247.62"/>
<polygon fill="midnightblue" stroke="midnightblue" points="44.99,-331.94 43.5,-342.43 51.21,-335.16 44.99,-331.94"/>
</g>
<!-- Node40 -->
<g id="node15" class="node">
<title>Node40</title>
<g id="a_node15"><a xlink:href="class_response_body_handler_test.html" target="_top" xlink:title=" ">
<polygon fill="none" stroke="black" points="121.5,-190.5 121.5,-209.5 267.5,-209.5 267.5,-190.5 121.5,-190.5"/>
<text text-anchor="middle" x="194.5" y="-197.5" font-family="Helvetica,sans-Serif" font-size="10.00">ResponseBodyHandlerTest</text>
</a>
</g>
</g>
<!-- Node26&#45;&gt;Node40 -->
<g id="edge14" class="edge">
<title>Node26&#45;&gt;Node40</title>
<path fill="none" stroke="midnightblue" d="M44.23,-332.24C53.07,-302.84 73.85,-247.94 112,-219 117.09,-215.14 122.84,-212.04 128.87,-209.56"/>
<polygon fill="midnightblue" stroke="midnightblue" points="40.78,-331.58 41.42,-342.15 47.51,-333.49 40.78,-331.58"/>
</g>
<!-- Node41 -->
<g id="node16" class="node">
<title>Node41</title>
<g id="a_node16"><a xlink:href="class_shutdown_server_test.html" target="_top" xlink:title=" ">
<polygon fill="none" stroke="black" points="136.5,-152.5 136.5,-171.5 252.5,-171.5 252.5,-152.5 136.5,-152.5"/>
<text text-anchor="middle" x="194.5" y="-159.5" font-family="Helvetica,sans-Serif" font-size="10.00">ShutdownServerTest</text>
</a>
</g>
</g>
<!-- Node26&#45;&gt;Node41 -->
<g id="edge15" class="edge">
<title>Node26&#45;&gt;Node41</title>
<path fill="none" stroke="midnightblue" d="M41.57,-332.36C47.33,-296.55 64.7,-220.69 112,-181 119.01,-175.12 127.51,-170.98 136.33,-168.08"/>
<polygon fill="midnightblue" stroke="midnightblue" points="38.07,-332.08 40.08,-342.48 45,-333.09 38.07,-332.08"/>
</g>
<!-- Node42 -->
<g id="node17" class="node">
<title>Node42</title>
<g id="a_node17"><a xlink:href="class_target_resource_handler_test.html" target="_top" xlink:title=" ">
<polygon fill="none" stroke="black" points="120,-114.5 120,-133.5 269,-133.5 269,-114.5 120,-114.5"/>
<text text-anchor="middle" x="194.5" y="-121.5" font-family="Helvetica,sans-Serif" font-size="10.00">TargetResourceHandlerTest</text>
</a>
</g>
</g>
<!-- Node26&#45;&gt;Node42 -->
<g id="edge16" class="edge">
<title>Node26&#45;&gt;Node42</title>
<path fill="none" stroke="midnightblue" d="M39.85,-332.15C42.75,-290.52 55.55,-193.71 112,-143 116.22,-139.21 121.04,-136.14 126.18,-133.65"/>
<polygon fill="midnightblue" stroke="midnightblue" points="36.34,-332.17 39.27,-342.35 43.33,-332.57 36.34,-332.17"/>
</g>
<!-- Node43 -->
<g id="node18" class="node">
<title>Node43</title>
<g id="a_node18"><a xlink:href="class_valid_config_file_tests.html" target="_top" xlink:title=" ">
<polygon fill="none" stroke="black" points="138,-76.5 138,-95.5 251,-95.5 251,-76.5 138,-76.5"/>
<text text-anchor="middle" x="194.5" y="-83.5" font-family="Helvetica,sans-Serif" font-size="10.00">ValidConfigFileTests</text>
</a>
</g>
</g>
<!-- Node26&#45;&gt;Node43 -->
<g id="edge17" class="edge">
<title>Node26&#45;&gt;Node43</title>
<path fill="none" stroke="midnightblue" d="M38.6,-332.18C38.8,-285.35 46.18,-167.09 112,-105 119.19,-98.22 128.31,-93.7 137.82,-90.72"/>
<polygon fill="midnightblue" stroke="midnightblue" points="35.1,-332.5 38.67,-342.48 42.1,-332.45 35.1,-332.5"/>
</g>
<!-- Node44 -->
<g id="node19" class="node">
<title>Node44</title>
<g id="a_node19"><a xlink:href="classis_duplicate_server_test.html" target="_top" xlink:title=" ">
<polygon fill="none" stroke="black" points="133.5,-38.5 133.5,-57.5 255.5,-57.5 255.5,-38.5 133.5,-38.5"/>
<text text-anchor="middle" x="194.5" y="-45.5" font-family="Helvetica,sans-Serif" font-size="10.00">isDuplicateServerTest</text>
</a>
</g>
</g>
<!-- Node26&#45;&gt;Node44 -->
<g id="edge18" class="edge">
<title>Node26&#45;&gt;Node44</title>
<path fill="none" stroke="midnightblue" d="M41.41,-332.12C48.88,-273.76 73.5,-104.68 112,-67 118.02,-61.11 125.5,-56.91 133.46,-53.94"/>
<polygon fill="midnightblue" stroke="midnightblue" points="37.91,-331.89 40.15,-342.24 44.86,-332.75 37.91,-331.89"/>
</g>
<!-- Node45 -->
<g id="node20" class="node">
<title>Node45</title>
<g id="a_node20"><a xlink:href="classselect_server_config_test.html" target="_top" xlink:title=" ">
<polygon fill="none" stroke="black" points="130.5,-0.5 130.5,-19.5 258.5,-19.5 258.5,-0.5 130.5,-0.5"/>
<text text-anchor="middle" x="194.5" y="-7.5" font-family="Helvetica,sans-Serif" font-size="10.00">selectServerConfigTest</text>
</a>
</g>
</g>
<!-- Node26&#45;&gt;Node45 -->
<g id="edge19" class="edge">
<title>Node26&#45;&gt;Node45</title>
<path fill="none" stroke="midnightblue" d="M40.77,-332.03C46.83,-268.48 68.71,-72.58 112,-29 117.22,-23.74 123.6,-19.83 130.46,-16.92"/>
<polygon fill="midnightblue" stroke="midnightblue" points="37.26,-332.01 39.83,-342.29 44.23,-332.65 37.26,-332.01"/>
</g>
</g>
</svg>
