<?xml version="1.0" encoding="UTF-8" standalone="no"?>
<!DOCTYPE svg PUBLIC "-//W3C//DTD SVG 1.1//EN"
 "http://www.w3.org/Graphics/SVG/1.1/DTD/svg11.dtd">
<!-- Generated by graphviz version 2.43.0 (0)
 -->
<!-- Title: Graphical Class Hierarchy Pages: 1 -->
<svg width="313pt" height="915pt"
 viewBox="0.00 0.00 313.00 915.00" xmlns="http://www.w3.org/2000/svg" xmlns:xlink="http://www.w3.org/1999/xlink">
<g id="graph0" class="graph" transform="scale(1 1) rotate(0) translate(4 911)">
<title>Graphical Class Hierarchy</title>
<!-- Node0 -->
<g id="Node000000" class="node">
<title>Node0</title>
<g id="a_Node000000"><a xlink:title=" ">
<polygon fill="#e0e0e0" stroke="#999999" points="76,-463 0,-463 0,-444 76,-444 76,-463"/>
<text text-anchor="middle" x="38" y="-451" font-family="Helvetica,sans-Serif" font-size="10.00">testing::Test</text>
</a>
</g>
</g>
<!-- Node1 -->
<g id="Node000001" class="node">
<title>Node1</title>
<g id="a_Node000001"><a xlink:href="class_accept_connections_test.html" target="_top" xlink:title=" ">
<polygon fill="white" stroke="#666666" points="273,-907 144,-907 144,-888 273,-888 273,-907"/>
<text text-anchor="middle" x="208.5" y="-895" font-family="Helvetica,sans-Serif" font-size="10.00">AcceptConnectionsTest</text>
</a>
</g>
</g>
<!-- Node0&#45;&gt;Node1 -->
<g id="edge5_Node000000_Node000001" class="edge">
<title>Node0&#45;&gt;Node1</title>
<g id="a_edge5_Node000000_Node000001"><a xlink:title=" ">
<path fill="none" stroke="#63b8ff" d="M39.5,-473.2C41.84,-549.03 54.19,-820.73 112,-879.5 120.52,-888.16 131.8,-893.37 143.61,-896.39"/>
<polygon fill="#63b8ff" stroke="#63b8ff" points="43,-473.02 39.21,-463.13 36,-473.22 43,-473.02"/>
</a>
</g>
</g>
<!-- Node2 -->
<g id="Node000002" class="node">
<title>Node2</title>
<g id="a_Node000002"><a xlink:href="class_c_g_i_handler_test.html" target="_top" xlink:title=" ">
<polygon fill="white" stroke="#666666" points="254.5,-870 162.5,-870 162.5,-851 254.5,-851 254.5,-870"/>
<text text-anchor="middle" x="208.5" y="-858" font-family="Helvetica,sans-Serif" font-size="10.00">CGIHandlerTest</text>
</a>
</g>
</g>
<!-- Node0&#45;&gt;Node2 -->
<g id="edge6_Node000000_Node000002" class="edge">
<title>Node0&#45;&gt;Node2</title>
<g id="a_edge6_Node000000_Node000002"><a xlink:title=" ">
<path fill="none" stroke="#63b8ff" d="M39.88,-473.76C43.43,-546.04 59.21,-789.66 112,-842.5 125,-855.51 144.24,-860.7 162.05,-862.38"/>
<polygon fill="#63b8ff" stroke="#63b8ff" points="43.35,-473.18 39.39,-463.35 36.36,-473.5 43.35,-473.18"/>
</a>
</g>
</g>
<!-- Node3 -->
<g id="Node000003" class="node">
<title>Node3</title>
<g id="a_Node000003"><a xlink:href="class_check_for_timeout_test.html" target="_top" xlink:title=" ">
<polygon fill="white" stroke="#666666" points="269.5,-833 147.5,-833 147.5,-814 269.5,-814 269.5,-833"/>
<text text-anchor="middle" x="208.5" y="-821" font-family="Helvetica,sans-Serif" font-size="10.00">CheckForTimeoutTest</text>
</a>
</g>
</g>
<!-- Node0&#45;&gt;Node3 -->
<g id="edge7_Node000000_Node000003" class="edge">
<title>Node0&#45;&gt;Node3</title>
<g id="a_edge7_Node000000_Node000003"><a xlink:title=" ">
<path fill="none" stroke="#63b8ff" d="M40.27,-473.13C45,-540.14 63.91,-758.27 112,-805.5 121.51,-814.84 134.25,-820.13 147.31,-822.98"/>
<polygon fill="#63b8ff" stroke="#63b8ff" points="43.75,-472.82 39.58,-463.08 36.77,-473.3 43.75,-472.82"/>
</a>
</g>
</g>
<!-- Node4 -->
<g id="Node000004" class="node">
<title>Node4</title>
<g id="a_Node000004"><a xlink:href="class_connection_receive_from_c_g_i_test.html" target="_top" xlink:title=" ">
<polygon fill="white" stroke="#666666" points="294.5,-796 122.5,-796 122.5,-777 294.5,-777 294.5,-796"/>
<text text-anchor="middle" x="208.5" y="-784" font-family="Helvetica,sans-Serif" font-size="10.00">ConnectionReceiveFromCGITest</text>
</a>
</g>
</g>
<!-- Node0&#45;&gt;Node4 -->
<g id="edge8_Node000000_Node000004" class="edge">
<title>Node0&#45;&gt;Node4</title>
<g id="a_edge8_Node000000_Node000004"><a xlink:title=" ">
<path fill="none" stroke="#63b8ff" d="M40.78,-473.06C46.83,-535.28 68.72,-726.97 112,-768.5 115.41,-771.77 119.21,-774.54 123.29,-776.88"/>
<polygon fill="#63b8ff" stroke="#63b8ff" points="44.25,-472.64 39.83,-463.01 37.28,-473.3 44.25,-472.64"/>
</a>
</g>
</g>
<!-- Node5 -->
<g id="Node000005" class="node">
<title>Node5</title>
<g id="a_Node000005"><a xlink:href="class_connection_receive_header_test.html" target="_top" xlink:title=" ">
<polygon fill="white" stroke="#666666" points="291,-759 126,-759 126,-740 291,-740 291,-759"/>
<text text-anchor="middle" x="208.5" y="-747" font-family="Helvetica,sans-Serif" font-size="10.00">ConnectionReceiveHeaderTest</text>
</a>
</g>
</g>
<!-- Node0&#45;&gt;Node5 -->
<g id="edge9_Node000000_Node000005" class="edge">
<title>Node0&#45;&gt;Node5</title>
<g id="a_edge9_Node000000_Node000005"><a xlink:title=" ">
<path fill="none" stroke="#63b8ff" d="M41.46,-473.33C48.99,-530.81 73.58,-695.69 112,-731.5 116.07,-735.3 120.68,-738.41 125.62,-740.96"/>
<polygon fill="#63b8ff" stroke="#63b8ff" points="44.88,-472.53 40.15,-463.06 37.94,-473.42 44.88,-472.53"/>
</a>
</g>
</g>
<!-- Node6 -->
<g id="Node000006" class="node">
<title>Node6</title>
<g id="a_Node000006"><a xlink:href="class_connection_send_response_test.html" target="_top" xlink:title=" ">
<polygon fill="white" stroke="#666666" points="289.5,-722 127.5,-722 127.5,-703 289.5,-703 289.5,-722"/>
<text text-anchor="middle" x="208.5" y="-710" font-family="Helvetica,sans-Serif" font-size="10.00">ConnectionSendResponseTest</text>
</a>
</g>
</g>
<!-- Node0&#45;&gt;Node6 -->
<g id="edge10_Node000000_Node000006" class="edge">
<title>Node0&#45;&gt;Node6</title>
<g id="a_edge10_Node000000_Node000006"><a xlink:title=" ">
<path fill="none" stroke="#63b8ff" d="M38.6,-473.35C38.83,-519.69 46.32,-635.54 112,-694.5 116.52,-698.56 121.66,-701.83 127.15,-704.46"/>
<polygon fill="#63b8ff" stroke="#63b8ff" points="42.1,-473.16 38.67,-463.14 35.1,-473.12 42.1,-473.16"/>
</a>
</g>
</g>
<!-- Node7 -->
<g id="Node000007" class="node">
<title>Node7</title>
<g id="a_Node000007"><a xlink:href="class_connection_send_to_c_g_i_test.html" target="_top" xlink:title=" ">
<polygon fill="white" stroke="#666666" points="280,-685 137,-685 137,-666 280,-666 280,-685"/>
<text text-anchor="middle" x="208.5" y="-673" font-family="Helvetica,sans-Serif" font-size="10.00">ConnectionSendToCGITest</text>
</a>
</g>
</g>
<!-- Node0&#45;&gt;Node7 -->
<g id="edge11_Node000000_Node000007" class="edge">
<title>Node0&#45;&gt;Node7</title>
<g id="a_edge11_Node000000_Node000007"><a xlink:title=" ">
<path fill="none" stroke="#63b8ff" d="M39.85,-473.07C42.74,-514.09 55.52,-609.27 112,-657.5 119.19,-663.64 127.8,-667.95 136.87,-670.94"/>
<polygon fill="#63b8ff" stroke="#63b8ff" points="43.34,-472.8 39.26,-463.02 36.35,-473.21 43.34,-472.8"/>
</a>
</g>
</g>
<!-- Node8 -->
<g id="Node000008" class="node">
<title>Node8</title>
<g id="a_Node000008"><a xlink:href="class_create_virtual_server_test.html" target="_top" xlink:title=" ">
<polygon fill="white" stroke="#666666" points="274.5,-648 142.5,-648 142.5,-629 274.5,-629 274.5,-648"/>
<text text-anchor="middle" x="208.5" y="-636" font-family="Helvetica,sans-Serif" font-size="10.00">CreateVirtualServerTest</text>
</a>
</g>
</g>
<!-- Node0&#45;&gt;Node8 -->
<g id="edge12_Node000000_Node000008" class="edge">
<title>Node0&#45;&gt;Node8</title>
<g id="a_edge12_Node000000_Node000008"><a xlink:title=" ">
<path fill="none" stroke="#63b8ff" d="M41.64,-473.39C47.47,-508.89 64.87,-582.97 112,-620.5 120.71,-627.44 131.28,-631.99 142.16,-634.94"/>
<polygon fill="#63b8ff" stroke="#63b8ff" points="45.07,-472.68 40.13,-463.31 38.15,-473.72 45.07,-472.68"/>
</a>
</g>
</g>
<!-- Node9 -->
<g id="Node000009" class="node">
<title>Node9</title>
<g id="a_Node000009"><a xlink:href="class_file_write_handler_test.html" target="_top" xlink:title=" ">
<polygon fill="white" stroke="#666666" points="267.5,-611 149.5,-611 149.5,-592 267.5,-592 267.5,-611"/>
<text text-anchor="middle" x="208.5" y="-599" font-family="Helvetica,sans-Serif" font-size="10.00">FileWriteHandlerTest</text>
</a>
</g>
</g>
<!-- Node0&#45;&gt;Node9 -->
<g id="edge13_Node000000_Node000009" class="edge">
<title>Node0&#45;&gt;Node9</title>
<g id="a_edge13_Node000000_Node000009"><a xlink:title=" ">
<path fill="none" stroke="#63b8ff" d="M44.21,-473.03C53.03,-502.04 73.78,-556.06 112,-583.5 122.83,-591.27 136.07,-595.96 149.2,-598.73"/>
<polygon fill="#63b8ff" stroke="#63b8ff" points="47.53,-471.89 41.41,-463.24 40.8,-473.82 47.53,-471.89"/>
</a>
</g>
</g>
<!-- Node10 -->
<g id="Node000010" class="node">
<title>Node10</title>
<g id="a_Node000010"><a xlink:href="class_handle_complete_request_header_test.html" target="_top" xlink:title=" ">
<polygon fill="white" stroke="#666666" points="305,-574 112,-574 112,-555 305,-555 305,-574"/>
<text text-anchor="middle" x="208.5" y="-562" font-family="Helvetica,sans-Serif" font-size="10.00">HandleCompleteRequestHeaderTest</text>
</a>
</g>
</g>
<!-- Node0&#45;&gt;Node10 -->
<g id="edge14_Node000000_Node000010" class="edge">
<title>Node0&#45;&gt;Node10</title>
<g id="a_edge14_Node000000_Node000010"><a xlink:title=" ">
<path fill="none" stroke="#63b8ff" d="M48.43,-472.44C60.21,-494 82.47,-528.56 112,-546.5 117.62,-549.92 123.75,-552.71 130.1,-554.99"/>
<polygon fill="#63b8ff" stroke="#63b8ff" points="51.37,-470.52 43.63,-463.29 45.17,-473.77 51.37,-470.52"/>
</a>
</g>
</g>
<!-- Node11 -->
<g id="Node000011" class="node">
<title>Node11</title>
<g id="a_Node000011"><a xlink:href="class_init_virtual_servers_test.html" target="_top" xlink:title=" ">
<polygon fill="white" stroke="#666666" points="269,-537 148,-537 148,-518 269,-518 269,-537"/>
<text text-anchor="middle" x="208.5" y="-525" font-family="Helvetica,sans-Serif" font-size="10.00">InitVirtualServersTest</text>
</a>
</g>
</g>
<!-- Node0&#45;&gt;Node11 -->
<g id="edge15_Node000000_Node000011" class="edge">
<title>Node0&#45;&gt;Node11</title>
<g id="a_edge15_Node000000_Node000011"><a xlink:title=" ">
<path fill="none" stroke="#63b8ff" d="M55.74,-470.07C69.64,-482.85 90.55,-499.91 112,-509.5 123.17,-514.49 135.67,-518.1 147.85,-520.71"/>
<polygon fill="#63b8ff" stroke="#63b8ff" points="58.08,-467.46 48.41,-463.13 53.26,-472.55 58.08,-467.46"/>
</a>
</g>
</g>
<!-- Node12 -->
<g id="Node000012" class="node">
<title>Node12</title>
<g id="a_Node000012"><a xlink:href="class_invalid_config_file_tests.html" target="_top" xlink:title=" ">
<polygon fill="white" stroke="#666666" points="269.5,-500 147.5,-500 147.5,-481 269.5,-481 269.5,-500"/>
<text text-anchor="middle" x="208.5" y="-488" font-family="Helvetica,sans-Serif" font-size="10.00">InvalidConfigFileTests</text>
</a>
</g>
</g>
<!-- Node0&#45;&gt;Node12 -->
<g id="edge16_Node000000_Node000012" class="edge">
<title>Node0&#45;&gt;Node12</title>
<g id="a_edge16_Node000000_Node000012"><a xlink:title=" ">
<path fill="none" stroke="#63b8ff" d="M83.68,-465.64C93.01,-468.04 102.8,-470.44 112,-472.5 125.34,-475.49 139.79,-478.39 153.33,-480.96"/>
<polygon fill="#63b8ff" stroke="#63b8ff" points="84.34,-462.2 73.79,-463.07 82.58,-468.98 84.34,-462.2"/>
</a>
</g>
</g>
<!-- Node13 -->
<g id="Node000013" class="node">
<title>Node13</title>
<g id="a_Node000013"><a xlink:href="class_ostream_inserters_test.html" target="_top" xlink:title=" ">
<polygon fill="white" stroke="#666666" points="269,-463 148,-463 148,-444 269,-444 269,-463"/>
<text text-anchor="middle" x="208.5" y="-451" font-family="Helvetica,sans-Serif" font-size="10.00">OstreamInsertersTest</text>
</a>
</g>
</g>
<!-- Node0&#45;&gt;Node13 -->
<g id="edge17_Node000000_Node000013" class="edge">
<title>Node0&#45;&gt;Node13</title>
<g id="a_edge17_Node000000_Node000013"><a xlink:title=" ">
<path fill="none" stroke="#63b8ff" d="M86.59,-453.5C105.58,-453.5 127.66,-453.5 147.71,-453.5"/>
<polygon fill="#63b8ff" stroke="#63b8ff" points="86.4,-450 76.4,-453.5 86.4,-457 86.4,-450"/>
</a>
</g>
</g>
<!-- Node14 -->
<g id="Node000014" class="node">
<title>Node14</title>
<g id="a_Node000014"><a xlink:href="class_parse_body_test.html" target="_top" xlink:title=" ">
<polygon fill="white" stroke="#666666" points="252,-426 165,-426 165,-407 252,-407 252,-426"/>
<text text-anchor="middle" x="208.5" y="-414" font-family="Helvetica,sans-Serif" font-size="10.00">ParseBodyTest</text>
</a>
</g>
</g>
<!-- Node0&#45;&gt;Node14 -->
<g id="edge18_Node000000_Node000014" class="edge">
<title>Node0&#45;&gt;Node14</title>
<g id="a_edge18_Node000000_Node000014"><a xlink:title=" ">
<path fill="none" stroke="#63b8ff" d="M86,-441.58C94.63,-439.48 103.57,-437.38 112,-435.5 129.16,-431.68 148.14,-427.83 164.63,-424.6"/>
<polygon fill="#63b8ff" stroke="#63b8ff" points="84.94,-438.23 76.06,-444.02 86.61,-445.03 84.94,-438.23"/>
</a>
</g>
</g>
<!-- Node15 -->
<g id="Node000015" class="node">
<title>Node15</title>
<g id="a_Node000015"><a xlink:href="class_parse_headers_test.html" target="_top" xlink:title=" ">
<polygon fill="white" stroke="#666666" points="260,-389 157,-389 157,-370 260,-370 260,-389"/>
<text text-anchor="middle" x="208.5" y="-377" font-family="Helvetica,sans-Serif" font-size="10.00">ParseHeadersTest</text>
</a>
</g>
</g>
<!-- Node0&#45;&gt;Node15 -->
<g id="edge19_Node000000_Node000015" class="edge">
<title>Node0&#45;&gt;Node15</title>
<g id="a_edge19_Node000000_Node000015"><a xlink:title=" ">
<path fill="none" stroke="#63b8ff" d="M56.3,-436.87C70.24,-424.4 90.94,-407.93 112,-398.5 125.89,-392.28 141.81,-388.09 156.63,-385.26"/>
<polygon fill="#63b8ff" stroke="#63b8ff" points="53.9,-434.31 48.91,-443.66 58.64,-439.46 53.9,-434.31"/>
</a>
</g>
</g>
<!-- Node16 -->
<g id="Node000016" class="node">
<title>Node16</title>
<g id="a_Node000016"><a xlink:href="class_parse_request_line_test.html" target="_top" xlink:title=" ">
<polygon fill="white" stroke="#666666" points="269.5,-352 147.5,-352 147.5,-333 269.5,-333 269.5,-352"/>
<text text-anchor="middle" x="208.5" y="-340" font-family="Helvetica,sans-Serif" font-size="10.00">ParseRequestLineTest</text>
</a>
</g>
</g>
<!-- Node0&#45;&gt;Node16 -->
<g id="edge20_Node000000_Node000016" class="edge">
<title>Node0&#45;&gt;Node16</title>
<g id="a_edge20_Node000000_Node000016"><a xlink:title=" ">
<path fill="none" stroke="#63b8ff" d="M48.51,-434.82C60.37,-413.53 82.71,-379.39 112,-361.5 122.6,-355.02 134.99,-350.7 147.26,-347.83"/>
<polygon fill="#63b8ff" stroke="#63b8ff" points="45.31,-433.38 43.68,-443.85 51.48,-436.68 45.31,-433.38"/>
</a>
</g>
</g>
<!-- Node17 -->
<g id="Node000017" class="node">
<title>Node17</title>
<g id="a_Node000017"><a xlink:href="class_register_c_g_i_test.html" target="_top" xlink:title=" ">
<polygon fill="white" stroke="#666666" points="255.5,-315 161.5,-315 161.5,-296 255.5,-296 255.5,-315"/>
<text text-anchor="middle" x="208.5" y="-303" font-family="Helvetica,sans-Serif" font-size="10.00">RegisterCGITest</text>
</a>
</g>
</g>
<!-- Node0&#45;&gt;Node17 -->
<g id="edge21_Node000000_Node000017" class="edge">
<title>Node0&#45;&gt;Node17</title>
<g id="a_edge21_Node000000_Node000017"><a xlink:title=" ">
<path fill="none" stroke="#63b8ff" d="M44.29,-434.17C53.21,-405.44 74.1,-351.91 112,-324.5 126.11,-314.3 144.32,-309.23 161.06,-306.81"/>
<polygon fill="#63b8ff" stroke="#63b8ff" points="40.91,-433.28 41.45,-443.86 47.62,-435.25 40.91,-433.28"/>
</a>
</g>
</g>
<!-- Node18 -->
<g id="Node000018" class="node">
<title>Node18</title>
<g id="a_Node000018"><a xlink:href="class_register_connection_test.html" target="_top" xlink:title=" ">
<polygon fill="white" stroke="#666666" points="274,-278 143,-278 143,-259 274,-259 274,-278"/>
<text text-anchor="middle" x="208.5" y="-266" font-family="Helvetica,sans-Serif" font-size="10.00">RegisterConnectionTest</text>
</a>
</g>
</g>
<!-- Node0&#45;&gt;Node18 -->
<g id="edge22_Node000000_Node000018" class="edge">
<title>Node0&#45;&gt;Node18</title>
<g id="a_edge22_Node000000_Node000018"><a xlink:title=" ">
<path fill="none" stroke="#63b8ff" d="M41.72,-433.77C47.66,-398.55 65.26,-325.02 112,-287.5 120.83,-280.41 131.58,-275.73 142.64,-272.68"/>
<polygon fill="#63b8ff" stroke="#63b8ff" points="38.24,-433.35 40.17,-443.77 45.16,-434.42 38.24,-433.35"/>
</a>
</g>
</g>
<!-- Node19 -->
<g id="Node000019" class="node">
<title>Node19</title>
<g id="a_Node000019"><a xlink:href="class_register_virtual_server_test.html" target="_top" xlink:title=" ">
<polygon fill="white" stroke="#666666" points="278.5,-241 138.5,-241 138.5,-222 278.5,-222 278.5,-241"/>
<text text-anchor="middle" x="208.5" y="-229" font-family="Helvetica,sans-Serif" font-size="10.00">RegisterVirtualServerTest</text>
</a>
</g>
</g>
<!-- Node0&#45;&gt;Node19 -->
<g id="edge23_Node000000_Node000019" class="edge">
<title>Node0&#45;&gt;Node19</title>
<g id="a_edge23_Node000000_Node000019"><a xlink:title=" ">
<path fill="none" stroke="#63b8ff" d="M39.96,-433.5C43.07,-392.45 56.23,-298.53 112,-250.5 119.56,-243.99 128.7,-239.47 138.31,-236.37"/>
<polygon fill="#63b8ff" stroke="#63b8ff" points="36.46,-433.39 39.32,-443.59 43.45,-433.83 36.46,-433.39"/>
</a>
</g>
</g>
<!-- Node20 -->
<g id="Node000020" class="node">
<title>Node20</title>
<g id="a_Node000020"><a xlink:href="class_response_body_handler_test.html" target="_top" xlink:title=" ">
<polygon fill="white" stroke="#666666" points="281.5,-204 135.5,-204 135.5,-185 281.5,-185 281.5,-204"/>
<text text-anchor="middle" x="208.5" y="-192" font-family="Helvetica,sans-Serif" font-size="10.00">ResponseBodyHandlerTest</text>
</a>
</g>
</g>
<!-- Node0&#45;&gt;Node20 -->
<g id="edge24_Node000000_Node000020" class="edge">
<title>Node0&#45;&gt;Node20</title>
<g id="a_edge24_Node000000_Node000020"><a xlink:title=" ">
<path fill="none" stroke="#63b8ff" d="M38.67,-433.78C39.05,-387.72 46.83,-272.52 112,-213.5 118.64,-207.49 126.63,-203.15 135.11,-200.05"/>
<polygon fill="#63b8ff" stroke="#63b8ff" points="35.17,-433.93 38.7,-443.92 42.17,-433.91 35.17,-433.93"/>
</a>
</g>
</g>
<!-- Node21 -->
<g id="Node000021" class="node">
<title>Node21</title>
<g id="a_Node000021"><a xlink:href="class_shutdown_server_test.html" target="_top" xlink:title=" ">
<polygon fill="white" stroke="#666666" points="266.5,-167 150.5,-167 150.5,-148 266.5,-148 266.5,-167"/>
<text text-anchor="middle" x="208.5" y="-155" font-family="Helvetica,sans-Serif" font-size="10.00">ShutdownServerTest</text>
</a>
</g>
</g>
<!-- Node0&#45;&gt;Node21 -->
<g id="edge25_Node000000_Node000021" class="edge">
<title>Node0&#45;&gt;Node21</title>
<g id="a_edge25_Node000000_Node000021"><a xlink:title=" ">
<path fill="none" stroke="#63b8ff" d="M41.49,-433.76C49.09,-376.53 73.87,-212.36 112,-176.5 122.34,-166.77 136.18,-161.38 150.11,-158.53"/>
<polygon fill="#63b8ff" stroke="#63b8ff" points="37.97,-433.62 40.16,-443.98 44.92,-434.52 37.97,-433.62"/>
</a>
</g>
</g>
<!-- Node22 -->
<g id="Node000022" class="node">
<title>Node22</title>
<g id="a_Node000022"><a xlink:href="class_target_resource_handler_test.html" target="_top" xlink:title=" ">
<polygon fill="white" stroke="#666666" points="283,-130 134,-130 134,-111 283,-111 283,-130"/>
<text text-anchor="middle" x="208.5" y="-118" font-family="Helvetica,sans-Serif" font-size="10.00">TargetResourceHandlerTest</text>
</a>
</g>
</g>
<!-- Node0&#45;&gt;Node22 -->
<g id="edge26_Node000000_Node000022" class="edge">
<title>Node0&#45;&gt;Node22</title>
<g id="a_edge26_Node000000_Node000022"><a xlink:title=" ">
<path fill="none" stroke="#63b8ff" d="M40.84,-433.61C47.03,-371.21 69.14,-181.01 112,-139.5 118.19,-133.5 125.71,-129.14 133.77,-126"/>
<polygon fill="#63b8ff" stroke="#63b8ff" points="37.35,-433.42 39.87,-443.71 44.31,-434.09 37.35,-433.42"/>
</a>
</g>
</g>
<!-- Node23 -->
<g id="Node000023" class="node">
<title>Node23</title>
<g id="a_Node000023"><a xlink:href="class_valid_config_file_tests.html" target="_top" xlink:title=" ">
<polygon fill="white" stroke="#666666" points="265,-93 152,-93 152,-74 265,-74 265,-93"/>
<text text-anchor="middle" x="208.5" y="-81" font-family="Helvetica,sans-Serif" font-size="10.00">ValidConfigFileTests</text>
</a>
</g>
</g>
<!-- Node0&#45;&gt;Node23 -->
<g id="edge27_Node000000_Node000023" class="edge">
<title>Node0&#45;&gt;Node23</title>
<g id="a_edge27_Node000000_Node000023"><a xlink:title=" ">
<path fill="none" stroke="#63b8ff" d="M40.29,-433.94C45.11,-367.18 64.26,-149.83 112,-102.5 122.56,-92.03 137.15,-86.51 151.75,-83.78"/>
<polygon fill="#63b8ff" stroke="#63b8ff" points="36.8,-433.73 39.6,-443.95 43.78,-434.22 36.8,-433.73"/>
</a>
</g>
</g>
<!-- Node24 -->
<g id="Node000024" class="node">
<title>Node24</title>
<g id="a_Node000024"><a xlink:href="classis_duplicate_server_test.html" target="_top" xlink:title=" ">
<polygon fill="white" stroke="#666666" points="269.5,-56 147.5,-56 147.5,-37 269.5,-37 269.5,-56"/>
<text text-anchor="middle" x="208.5" y="-44" font-family="Helvetica,sans-Serif" font-size="10.00">isDuplicateServerTest</text>
</a>
</g>
</g>
<!-- Node0&#45;&gt;Node24 -->
<g id="edge28_Node000000_Node000024" class="edge">
<title>Node0&#45;&gt;Node24</title>
<g id="a_edge28_Node000000_Node000024"><a xlink:title=" ">
<path fill="none" stroke="#63b8ff" d="M39.9,-433.31C43.55,-361.28 59.59,-118.46 112,-65.5 121.39,-56.01 134.08,-50.56 147.14,-47.58"/>
<polygon fill="#63b8ff" stroke="#63b8ff" points="36.39,-433.53 39.41,-443.69 43.38,-433.86 36.39,-433.53"/>
</a>
</g>
</g>
<!-- Node25 -->
<g id="Node000025" class="node">
<title>Node25</title>
<g id="a_Node000025"><a xlink:href="classselect_server_config_test.html" target="_top" xlink:title=" ">
<polygon fill="white" stroke="#666666" points="272.5,-19 144.5,-19 144.5,0 272.5,0 272.5,-19"/>
<text text-anchor="middle" x="208.5" y="-7" font-family="Helvetica,sans-Serif" font-size="10.00">selectServerConfigTest</text>
</a>
</g>
</g>
<!-- Node0&#45;&gt;Node25 -->
<g id="edge29_Node000000_Node000025" class="edge">
<title>Node0&#45;&gt;Node25</title>
<g id="a_edge29_Node000000_Node000025"><a xlink:title=" ">
<path fill="none" stroke="#63b8ff" d="M39.53,-433.86C41.96,-358.28 54.61,-87.42 112,-28.5 120.61,-19.66 132.08,-14.32 144.07,-11.19"/>
<polygon fill="#63b8ff" stroke="#63b8ff" points="36.03,-433.8 39.23,-443.9 43.02,-434.01 36.03,-433.8"/>
</a>
</g>
</g>
</g>
</svg>
