<?xml version="1.0" encoding="UTF-8" standalone="no"?>
<!DOCTYPE svg PUBLIC "-//W3C//DTD SVG 1.1//EN"
 "http://www.w3.org/Graphics/SVG/1.1/DTD/svg11.dtd">
<!-- Generated by graphviz version 2.43.0 (0)
 -->
<!-- Title: Graphical Class Hierarchy Pages: 1 -->
<svg width="313pt" height="750pt"
 viewBox="0.00 0.00 313.00 750.00" xmlns="http://www.w3.org/2000/svg" xmlns:xlink="http://www.w3.org/1999/xlink">
<g id="graph0" class="graph" transform="scale(1 1) rotate(0) translate(4 746)">
<title>Graphical Class Hierarchy</title>
<!-- Node27 -->
<g id="node1" class="node">
<title>Node27</title>
<g id="a_node1"><a xlink:title=" ">
<polygon fill="none" stroke="#bfbfbf" points="0,-361.5 0,-380.5 76,-380.5 76,-361.5 0,-361.5"/>
<text text-anchor="middle" x="38" y="-368.5" font-family="Helvetica,sans-Serif" font-size="10.00">testing::Test</text>
</a>
</g>
</g>
<!-- Node0 -->
<g id="node2" class="node">
<title>Node0</title>
<g id="a_node2"><a xlink:href="class_accept_connections_test.html" target="_top" xlink:title=" ">
<polygon fill="none" stroke="black" points="144,-722.5 144,-741.5 273,-741.5 273,-722.5 144,-722.5"/>
<text text-anchor="middle" x="208.5" y="-729.5" font-family="Helvetica,sans-Serif" font-size="10.00">AcceptConnectionsTest</text>
</a>
</g>
</g>
<!-- Node27&#45;&gt;Node0 -->
<g id="edge1" class="edge">
<title>Node27&#45;&gt;Node0</title>
<path fill="none" stroke="midnightblue" d="M40.44,-390.9C45.61,-456.93 65.51,-667.15 112,-713 120.67,-721.55 132.01,-726.79 143.84,-729.91"/>
<polygon fill="midnightblue" stroke="midnightblue" points="43.9,-390.34 39.66,-380.63 36.92,-390.87 43.9,-390.34"/>
</g>
<!-- Node29 -->
<g id="node3" class="node">
<title>Node29</title>
<g id="a_node3"><a xlink:href="class_check_for_timeout_test.html" target="_top" xlink:title=" ">
<polygon fill="none" stroke="black" points="147.5,-684.5 147.5,-703.5 269.5,-703.5 269.5,-684.5 147.5,-684.5"/>
<text text-anchor="middle" x="208.5" y="-691.5" font-family="Helvetica,sans-Serif" font-size="10.00">CheckForTimeoutTest</text>
</a>
</g>
</g>
<!-- Node27&#45;&gt;Node29 -->
<g id="edge2" class="edge">
<title>Node27&#45;&gt;Node29</title>
<path fill="none" stroke="midnightblue" d="M41.02,-391.05C47.61,-452.27 70.46,-635.06 112,-675 121.63,-684.26 134.41,-689.61 147.48,-692.59"/>
<polygon fill="midnightblue" stroke="midnightblue" points="44.47,-390.38 39.95,-380.79 37.51,-391.1 44.47,-390.38"/>
</g>
<!-- Node30 -->
<g id="node4" class="node">
<title>Node30</title>
<g id="a_node4"><a xlink:href="class_connection_receive_header_test.html" target="_top" xlink:title=" ">
<polygon fill="none" stroke="black" points="126,-646.5 126,-665.5 291,-665.5 291,-646.5 126,-646.5"/>
<text text-anchor="middle" x="208.5" y="-653.5" font-family="Helvetica,sans-Serif" font-size="10.00">ConnectionReceiveHeaderTest</text>
</a>
</g>
</g>
<!-- Node27&#45;&gt;Node30 -->
<g id="edge3" class="edge">
<title>Node27&#45;&gt;Node30</title>
<path fill="none" stroke="midnightblue" d="M41.71,-390.71C49.76,-446.35 75.27,-602.81 112,-637 116.08,-640.8 120.7,-643.94 125.65,-646.52"/>
<polygon fill="midnightblue" stroke="midnightblue" points="45.16,-390.13 40.3,-380.72 38.23,-391.11 45.16,-390.13"/>
</g>
<!-- Node31 -->
<g id="node5" class="node">
<title>Node31</title>
<g id="a_node5"><a xlink:href="class_connection_send_response_test.html" target="_top" xlink:title=" ">
<polygon fill="none" stroke="black" points="127.5,-608.5 127.5,-627.5 289.5,-627.5 289.5,-608.5 127.5,-608.5"/>
<text text-anchor="middle" x="208.5" y="-615.5" font-family="Helvetica,sans-Serif" font-size="10.00">ConnectionSendResponseTest</text>
</a>
</g>
</g>
<!-- Node27&#45;&gt;Node31 -->
<g id="edge4" class="edge">
<title>Node27&#45;&gt;Node31</title>
<path fill="none" stroke="midnightblue" d="M39.04,-390.65C40.26,-435.04 49.81,-543.5 112,-599 116.54,-603.05 121.69,-606.34 127.19,-609"/>
<polygon fill="midnightblue" stroke="midnightblue" points="42.54,-390.54 38.88,-380.59 35.54,-390.65 42.54,-390.54"/>
</g>
<!-- Node32 -->
<g id="node6" class="node">
<title>Node32</title>
<g id="a_node6"><a xlink:href="class_create_virtual_server_test.html" target="_top" xlink:title=" ">
<polygon fill="none" stroke="black" points="142.5,-570.5 142.5,-589.5 274.5,-589.5 274.5,-570.5 142.5,-570.5"/>
<text text-anchor="middle" x="208.5" y="-577.5" font-family="Helvetica,sans-Serif" font-size="10.00">CreateVirtualServerTest</text>
</a>
</g>
</g>
<!-- Node27&#45;&gt;Node32 -->
<g id="edge5" class="edge">
<title>Node27&#45;&gt;Node32</title>
<path fill="none" stroke="midnightblue" d="M40.5,-390.8C44.57,-429.8 59.37,-516.65 112,-561 120.66,-568.3 131.33,-573.08 142.36,-576.16"/>
<polygon fill="midnightblue" stroke="midnightblue" points="43.97,-390.37 39.58,-380.73 37,-391.01 43.97,-390.37"/>
</g>
<!-- Node33 -->
<g id="node7" class="node">
<title>Node33</title>
<g id="a_node7"><a xlink:href="class_handle_complete_request_header_test.html" target="_top" xlink:title=" ">
<polygon fill="none" stroke="black" points="112,-532.5 112,-551.5 305,-551.5 305,-532.5 112,-532.5"/>
<text text-anchor="middle" x="208.5" y="-539.5" font-family="Helvetica,sans-Serif" font-size="10.00">HandleCompleteRequestHeaderTest</text>
</a>
</g>
</g>
<!-- Node27&#45;&gt;Node33 -->
<g id="edge6" class="edge">
<title>Node27&#45;&gt;Node33</title>
<path fill="none" stroke="midnightblue" d="M42.63,-390.88C49.74,-423.84 68.75,-489.46 112,-523 116.94,-526.83 122.45,-529.96 128.26,-532.49"/>
<polygon fill="midnightblue" stroke="midnightblue" points="45.98,-389.82 40.59,-380.7 39.12,-391.19 45.98,-389.82"/>
</g>
<!-- Node34 -->
<g id="node8" class="node">
<title>Node34</title>
<g id="a_node8"><a xlink:href="class_init_virtual_servers_test.html" target="_top" xlink:title=" ">
<polygon fill="none" stroke="black" points="148,-494.5 148,-513.5 269,-513.5 269,-494.5 148,-494.5"/>
<text text-anchor="middle" x="208.5" y="-501.5" font-family="Helvetica,sans-Serif" font-size="10.00">InitVirtualServersTest</text>
</a>
</g>
</g>
<!-- Node27&#45;&gt;Node34 -->
<g id="edge7" class="edge">
<title>Node27&#45;&gt;Node34</title>
<path fill="none" stroke="midnightblue" d="M45.66,-389.93C55.76,-415.75 77.54,-461.48 112,-485 122.61,-492.24 135.34,-496.86 147.99,-499.77"/>
<polygon fill="midnightblue" stroke="midnightblue" points="48.91,-388.65 42.14,-380.51 42.35,-391.1 48.91,-388.65"/>
</g>
<!-- Node35 -->
<g id="node9" class="node">
<title>Node35</title>
<g id="a_node9"><a xlink:href="class_invalid_config_file_tests.html" target="_top" xlink:title=" ">
<polygon fill="none" stroke="black" points="147.5,-456.5 147.5,-475.5 269.5,-475.5 269.5,-456.5 147.5,-456.5"/>
<text text-anchor="middle" x="208.5" y="-463.5" font-family="Helvetica,sans-Serif" font-size="10.00">InvalidConfigFileTests</text>
</a>
</g>
</g>
<!-- Node27&#45;&gt;Node35 -->
<g id="edge8" class="edge">
<title>Node27&#45;&gt;Node35</title>
<path fill="none" stroke="midnightblue" d="M51.24,-389.08C64.2,-406.74 86.31,-432.93 112,-447 122.82,-452.93 135.24,-457.02 147.46,-459.84"/>
<polygon fill="midnightblue" stroke="midnightblue" points="53.97,-386.88 45.33,-380.74 48.26,-390.92 53.97,-386.88"/>
</g>
<!-- Node36 -->
<g id="node10" class="node">
<title>Node36</title>
<g id="a_node10"><a xlink:href="class_ostream_inserters_test.html" target="_top" xlink:title=" ">
<polygon fill="none" stroke="black" points="148,-418.5 148,-437.5 269,-437.5 269,-418.5 148,-418.5"/>
<text text-anchor="middle" x="208.5" y="-425.5" font-family="Helvetica,sans-Serif" font-size="10.00">OstreamInsertersTest</text>
</a>
</g>
</g>
<!-- Node27&#45;&gt;Node36 -->
<g id="edge9" class="edge">
<title>Node27&#45;&gt;Node36</title>
<path fill="none" stroke="midnightblue" d="M63.24,-385.84C77.09,-393.74 95.03,-403.03 112,-409 123.4,-413.01 135.89,-416.26 147.96,-418.87"/>
<polygon fill="midnightblue" stroke="midnightblue" points="64.77,-382.68 54.37,-380.65 61.23,-388.72 64.77,-382.68"/>
</g>
<!-- Node37 -->
<g id="node11" class="node">
<title>Node37</title>
<g id="a_node11"><a xlink:href="class_parse_body_test.html" target="_top" xlink:title=" ">
<polygon fill="none" stroke="black" points="165,-380.5 165,-399.5 252,-399.5 252,-380.5 165,-380.5"/>
<text text-anchor="middle" x="208.5" y="-387.5" font-family="Helvetica,sans-Serif" font-size="10.00">ParseBodyTest</text>
</a>
</g>
</g>
<!-- Node27&#45;&gt;Node37 -->
<g id="edge10" class="edge">
<title>Node27&#45;&gt;Node37</title>
<path fill="none" stroke="midnightblue" d="M86.59,-376.37C111.21,-379.14 141.01,-382.5 164.86,-385.19"/>
<polygon fill="midnightblue" stroke="midnightblue" points="86.72,-372.86 76.4,-375.22 85.94,-379.82 86.72,-372.86"/>
</g>
<!-- Node38 -->
<g id="node12" class="node">
<title>Node38</title>
<g id="a_node12"><a xlink:href="class_parse_headers_test.html" target="_top" xlink:title=" ">
<polygon fill="none" stroke="black" points="157,-342.5 157,-361.5 260,-361.5 260,-342.5 157,-342.5"/>
<text text-anchor="middle" x="208.5" y="-349.5" font-family="Helvetica,sans-Serif" font-size="10.00">ParseHeadersTest</text>
</a>
</g>
</g>
<!-- Node27&#45;&gt;Node38 -->
<g id="edge11" class="edge">
<title>Node27&#45;&gt;Node38</title>
<path fill="none" stroke="midnightblue" d="M86.47,-365.65C108.4,-363.17 134.47,-360.23 156.79,-357.72"/>
<polygon fill="midnightblue" stroke="midnightblue" points="85.94,-362.18 76.4,-366.78 86.72,-369.14 85.94,-362.18"/>
</g>
<!-- Node39 -->
<g id="node13" class="node">
<title>Node39</title>
<g id="a_node13"><a xlink:href="class_parse_request_line_test.html" target="_top" xlink:title=" ">
<polygon fill="none" stroke="black" points="147.5,-304.5 147.5,-323.5 269.5,-323.5 269.5,-304.5 147.5,-304.5"/>
<text text-anchor="middle" x="208.5" y="-311.5" font-family="Helvetica,sans-Serif" font-size="10.00">ParseRequestLineTest</text>
</a>
</g>
</g>
<!-- Node27&#45;&gt;Node39 -->
<g id="edge12" class="edge">
<title>Node27&#45;&gt;Node39</title>
<path fill="none" stroke="midnightblue" d="M63.24,-356.16C77.09,-348.26 95.03,-338.97 112,-333 123.24,-329.05 135.54,-325.83 147.45,-323.24"/>
<polygon fill="midnightblue" stroke="midnightblue" points="61.23,-353.28 54.37,-361.35 64.77,-359.32 61.23,-353.28"/>
</g>
<!-- Node40 -->
<g id="node14" class="node">
<title>Node40</title>
<g id="a_node14"><a xlink:href="class_register_connection_test.html" target="_top" xlink:title=" ">
<polygon fill="none" stroke="black" points="143,-266.5 143,-285.5 274,-285.5 274,-266.5 143,-266.5"/>
<text text-anchor="middle" x="208.5" y="-273.5" font-family="Helvetica,sans-Serif" font-size="10.00">RegisterConnectionTest</text>
</a>
</g>
</g>
<!-- Node27&#45;&gt;Node40 -->
<g id="edge13" class="edge">
<title>Node27&#45;&gt;Node40</title>
<path fill="none" stroke="midnightblue" d="M51.24,-352.92C64.2,-335.26 86.31,-309.07 112,-295 121.49,-289.8 132.2,-286.02 142.94,-283.26"/>
<polygon fill="midnightblue" stroke="midnightblue" points="48.26,-351.08 45.33,-361.26 53.97,-355.12 48.26,-351.08"/>
</g>
<!-- Node41 -->
<g id="node15" class="node">
<title>Node41</title>
<g id="a_node15"><a xlink:href="class_register_virtual_server_test.html" target="_top" xlink:title=" ">
<polygon fill="none" stroke="black" points="138.5,-228.5 138.5,-247.5 278.5,-247.5 278.5,-228.5 138.5,-228.5"/>
<text text-anchor="middle" x="208.5" y="-235.5" font-family="Helvetica,sans-Serif" font-size="10.00">RegisterVirtualServerTest</text>
</a>
</g>
</g>
<!-- Node27&#45;&gt;Node41 -->
<g id="edge14" class="edge">
<title>Node27&#45;&gt;Node41</title>
<path fill="none" stroke="midnightblue" d="M45.66,-352.07C55.76,-326.25 77.54,-280.52 112,-257 119.82,-251.66 128.79,-247.75 138.03,-244.9"/>
<polygon fill="midnightblue" stroke="midnightblue" points="42.35,-350.9 42.14,-361.49 48.91,-353.35 42.35,-350.9"/>
</g>
<!-- Node42 -->
<g id="node16" class="node">
<title>Node42</title>
<g id="a_node16"><a xlink:href="class_response_body_handler_test.html" target="_top" xlink:title=" ">
<polygon fill="none" stroke="black" points="135.5,-190.5 135.5,-209.5 281.5,-209.5 281.5,-190.5 135.5,-190.5"/>
<text text-anchor="middle" x="208.5" y="-197.5" font-family="Helvetica,sans-Serif" font-size="10.00">ResponseBodyHandlerTest</text>
</a>
</g>
</g>
<!-- Node27&#45;&gt;Node42 -->
<g id="edge15" class="edge">
<title>Node27&#45;&gt;Node42</title>
<path fill="none" stroke="midnightblue" d="M42.63,-351.12C49.74,-318.16 68.75,-252.54 112,-219 118.95,-213.61 127.01,-209.63 135.45,-206.7"/>
<polygon fill="midnightblue" stroke="midnightblue" points="39.12,-350.81 40.59,-361.3 45.98,-352.18 39.12,-350.81"/>
</g>
<!-- Node43 -->
<g id="node17" class="node">
<title>Node43</title>
<g id="a_node17"><a xlink:href="class_shutdown_server_test.html" target="_top" xlink:title=" ">
<polygon fill="none" stroke="black" points="150.5,-152.5 150.5,-171.5 266.5,-171.5 266.5,-152.5 150.5,-152.5"/>
<text text-anchor="middle" x="208.5" y="-159.5" font-family="Helvetica,sans-Serif" font-size="10.00">ShutdownServerTest</text>
</a>
</g>
</g>
<!-- Node27&#45;&gt;Node43 -->
<g id="edge16" class="edge">
<title>Node27&#45;&gt;Node43</title>
<path fill="none" stroke="midnightblue" d="M40.5,-351.2C44.57,-312.2 59.37,-225.35 112,-181 122.73,-171.96 136.54,-166.78 150.31,-163.92"/>
<polygon fill="midnightblue" stroke="midnightblue" points="37,-350.99 39.58,-361.27 43.97,-351.63 37,-350.99"/>
</g>
<!-- Node44 -->
<g id="node18" class="node">
<title>Node44</title>
<g id="a_node18"><a xlink:href="class_target_resource_handler_test.html" target="_top" xlink:title=" ">
<polygon fill="none" stroke="black" points="134,-114.5 134,-133.5 283,-133.5 283,-114.5 134,-114.5"/>
<text text-anchor="middle" x="208.5" y="-121.5" font-family="Helvetica,sans-Serif" font-size="10.00">TargetResourceHandlerTest</text>
</a>
</g>
</g>
<!-- Node27&#45;&gt;Node44 -->
<g id="edge17" class="edge">
<title>Node27&#45;&gt;Node44</title>
<path fill="none" stroke="midnightblue" d="M39.04,-351.35C40.26,-306.96 49.81,-198.5 112,-143 118.31,-137.37 125.79,-133.22 133.76,-130.18"/>
<polygon fill="midnightblue" stroke="midnightblue" points="35.54,-351.35 38.88,-361.41 42.54,-351.46 35.54,-351.35"/>
</g>
<!-- Node45 -->
<g id="node19" class="node">
<title>Node45</title>
<g id="a_node19"><a xlink:href="class_valid_config_file_tests.html" target="_top" xlink:title=" ">
<polygon fill="none" stroke="black" points="152,-76.5 152,-95.5 265,-95.5 265,-76.5 152,-76.5"/>
<text text-anchor="middle" x="208.5" y="-83.5" font-family="Helvetica,sans-Serif" font-size="10.00">ValidConfigFileTests</text>
</a>
</g>
</g>
<!-- Node27&#45;&gt;Node45 -->
<g id="edge18" class="edge">
<title>Node27&#45;&gt;Node45</title>
<path fill="none" stroke="midnightblue" d="M41.71,-351.29C49.76,-295.65 75.27,-139.19 112,-105 122.76,-94.98 137.24,-89.57 151.67,-86.81"/>
<polygon fill="midnightblue" stroke="midnightblue" points="38.23,-350.89 40.3,-361.28 45.16,-351.87 38.23,-350.89"/>
</g>
<!-- Node46 -->
<g id="node20" class="node">
<title>Node46</title>
<g id="a_node20"><a xlink:href="classis_duplicate_server_test.html" target="_top" xlink:title=" ">
<polygon fill="none" stroke="black" points="147.5,-38.5 147.5,-57.5 269.5,-57.5 269.5,-38.5 147.5,-38.5"/>
<text text-anchor="middle" x="208.5" y="-45.5" font-family="Helvetica,sans-Serif" font-size="10.00">isDuplicateServerTest</text>
</a>
</g>
</g>
<!-- Node27&#45;&gt;Node46 -->
<g id="edge19" class="edge">
<title>Node27&#45;&gt;Node46</title>
<path fill="none" stroke="midnightblue" d="M41.02,-350.95C47.61,-289.73 70.46,-106.94 112,-67 121.63,-57.74 134.41,-52.39 147.48,-49.41"/>
<polygon fill="midnightblue" stroke="midnightblue" points="37.51,-350.9 39.95,-361.21 44.47,-351.62 37.51,-350.9"/>
</g>
<!-- Node47 -->
<g id="node21" class="node">
<title>Node47</title>
<g id="a_node21"><a xlink:href="classselect_server_config_test.html" target="_top" xlink:title=" ">
<polygon fill="none" stroke="black" points="144.5,-0.5 144.5,-19.5 272.5,-19.5 272.5,-0.5 144.5,-0.5"/>
<text text-anchor="middle" x="208.5" y="-7.5" font-family="Helvetica,sans-Serif" font-size="10.00">selectServerConfigTest</text>
</a>
</g>
</g>
<!-- Node27&#45;&gt;Node47 -->
<g id="edge20" class="edge">
<title>Node27&#45;&gt;Node47</title>
<path fill="none" stroke="midnightblue" d="M40.44,-351.1C45.61,-285.07 65.51,-74.85 112,-29 120.79,-20.33 132.33,-15.07 144.34,-11.96"/>
<polygon fill="midnightblue" stroke="midnightblue" points="36.92,-351.13 39.66,-361.37 43.9,-351.66 36.92,-351.13"/>
</g>
</g>
</svg>
