<?xml version="1.0" encoding="UTF-8" standalone="no"?>
<!DOCTYPE svg PUBLIC "-//W3C//DTD SVG 1.1//EN"
 "http://www.w3.org/Graphics/SVG/1.1/DTD/svg11.dtd">
<!-- Generated by graphviz version 2.43.0 (0)
 -->
<!-- Title: Graphical Class Hierarchy Pages: 1 -->
<svg width="285pt" height="522pt"
 viewBox="0.00 0.00 285.00 522.00" xmlns="http://www.w3.org/2000/svg" xmlns:xlink="http://www.w3.org/1999/xlink">
<g id="graph0" class="graph" transform="scale(1 1) rotate(0) translate(4 518)">
<title>Graphical Class Hierarchy</title>
<!-- Node27 -->
<g id="node1" class="node">
<title>Node27</title>
<g id="a_node1"><a xlink:title=" ">
<polygon fill="none" stroke="#bfbfbf" points="0,-247.5 0,-266.5 76,-266.5 76,-247.5 0,-247.5"/>
<text text-anchor="middle" x="38" y="-254.5" font-family="Helvetica,sans-Serif" font-size="10.00">testing::Test</text>
</a>
</g>
</g>
<!-- Node0 -->
<g id="node2" class="node">
<title>Node0</title>
<g id="a_node2"><a xlink:href="class_accept_connections_test.html" target="_top" xlink:title=" ">
<polygon fill="none" stroke="black" points="130,-494.5 130,-513.5 259,-513.5 259,-494.5 130,-494.5"/>
<text text-anchor="middle" x="194.5" y="-501.5" font-family="Helvetica,sans-Serif" font-size="10.00">AcceptConnectionsTest</text>
</a>
</g>
</g>
<!-- Node27&#45;&gt;Node0 -->
<g id="edge1" class="edge">
<title>Node27&#45;&gt;Node0</title>
<path fill="none" stroke="midnightblue" d="M39.18,-276.79C40.7,-321.06 50.86,-428.61 112,-485 117.13,-489.73 123.2,-493.35 129.67,-496.12"/>
<polygon fill="midnightblue" stroke="midnightblue" points="42.67,-276.44 38.95,-266.52 35.67,-276.6 42.67,-276.44"/>
</g>
<!-- Node29 -->
<g id="node3" class="node">
<title>Node29</title>
<g id="a_node3"><a xlink:href="class_check_for_timeout_test.html" target="_top" xlink:title=" ">
<polygon fill="none" stroke="black" points="133.5,-456.5 133.5,-475.5 255.5,-475.5 255.5,-456.5 133.5,-456.5"/>
<text text-anchor="middle" x="194.5" y="-463.5" font-family="Helvetica,sans-Serif" font-size="10.00">CheckForTimeoutTest</text>
</a>
</g>
</g>
<!-- Node27&#45;&gt;Node29 -->
<g id="edge2" class="edge">
<title>Node27&#45;&gt;Node29</title>
<path fill="none" stroke="midnightblue" d="M40.62,-276.65C44.92,-315.39 60.1,-401.8 112,-447 118.14,-452.34 125.49,-456.26 133.23,-459.11"/>
<polygon fill="midnightblue" stroke="midnightblue" points="44.1,-276.27 39.65,-266.65 37.14,-276.95 44.1,-276.27"/>
</g>
<!-- Node30 -->
<g id="node4" class="node">
<title>Node30</title>
<g id="a_node4"><a xlink:href="class_connection_receive_header_test.html" target="_top" xlink:title=" ">
<polygon fill="none" stroke="black" points="112,-418.5 112,-437.5 277,-437.5 277,-418.5 112,-418.5"/>
<text text-anchor="middle" x="194.5" y="-425.5" font-family="Helvetica,sans-Serif" font-size="10.00">ConnectionReceiveHeaderTest</text>
</a>
</g>
</g>
<!-- Node27&#45;&gt;Node30 -->
<g id="edge3" class="edge">
<title>Node27&#45;&gt;Node30</title>
<path fill="none" stroke="midnightblue" d="M42.75,-276.73C50.04,-309.46 69.31,-374.75 112,-409 116.76,-412.82 122.15,-415.89 127.84,-418.37"/>
<polygon fill="midnightblue" stroke="midnightblue" points="46.11,-275.7 40.65,-266.62 39.26,-277.12 46.11,-275.7"/>
</g>
<!-- Node31 -->
<g id="node5" class="node">
<title>Node31</title>
<g id="a_node5"><a xlink:href="class_connection_send_response_test.html" target="_top" xlink:title=" ">
<polygon fill="none" stroke="black" points="113.5,-380.5 113.5,-399.5 275.5,-399.5 275.5,-380.5 113.5,-380.5"/>
<text text-anchor="middle" x="194.5" y="-387.5" font-family="Helvetica,sans-Serif" font-size="10.00">ConnectionSendResponseTest</text>
</a>
</g>
</g>
<!-- Node27&#45;&gt;Node31 -->
<g id="edge4" class="edge">
<title>Node27&#45;&gt;Node31</title>
<path fill="none" stroke="midnightblue" d="M45.92,-276.16C56.22,-301.86 78.09,-347.04 112,-371 117.46,-374.86 123.59,-377.94 129.97,-380.41"/>
<polygon fill="midnightblue" stroke="midnightblue" points="49.16,-274.84 42.32,-266.75 42.62,-277.34 49.16,-274.84"/>
</g>
<!-- Node32 -->
<g id="node6" class="node">
<title>Node32</title>
<g id="a_node6"><a xlink:href="class_create_virtual_server_test.html" target="_top" xlink:title=" ">
<polygon fill="none" stroke="black" points="128.5,-342.5 128.5,-361.5 260.5,-361.5 260.5,-342.5 128.5,-342.5"/>
<text text-anchor="middle" x="194.5" y="-349.5" font-family="Helvetica,sans-Serif" font-size="10.00">CreateVirtualServerTest</text>
</a>
</g>
</g>
<!-- Node27&#45;&gt;Node32 -->
<g id="edge5" class="edge">
<title>Node27&#45;&gt;Node32</title>
<path fill="none" stroke="midnightblue" d="M51.34,-274.91C64.38,-292.43 86.54,-318.52 112,-333 118.82,-336.88 126.39,-339.97 134.09,-342.43"/>
<polygon fill="midnightblue" stroke="midnightblue" points="54.07,-272.71 45.39,-266.64 48.39,-276.8 54.07,-272.71"/>
</g>
<!-- Node33 -->
<g id="node7" class="node">
<title>Node33</title>
<g id="a_node7"><a xlink:href="class_init_virtual_servers_test.html" target="_top" xlink:title=" ">
<polygon fill="none" stroke="black" points="134,-304.5 134,-323.5 255,-323.5 255,-304.5 134,-304.5"/>
<text text-anchor="middle" x="194.5" y="-311.5" font-family="Helvetica,sans-Serif" font-size="10.00">InitVirtualServersTest</text>
</a>
</g>
</g>
<!-- Node27&#45;&gt;Node33 -->
<g id="edge6" class="edge">
<title>Node27&#45;&gt;Node33</title>
<path fill="none" stroke="midnightblue" d="M63.58,-271.77C77.42,-279.58 95.23,-288.79 112,-295 121.95,-298.68 132.85,-301.81 143.35,-304.4"/>
<polygon fill="midnightblue" stroke="midnightblue" points="65.12,-268.62 54.7,-266.65 61.62,-274.68 65.12,-268.62"/>
</g>
<!-- Node34 -->
<g id="node8" class="node">
<title>Node34</title>
<g id="a_node8"><a xlink:href="class_invalid_config_file_tests.html" target="_top" xlink:title=" ">
<polygon fill="none" stroke="black" points="133.5,-266.5 133.5,-285.5 255.5,-285.5 255.5,-266.5 133.5,-266.5"/>
<text text-anchor="middle" x="194.5" y="-273.5" font-family="Helvetica,sans-Serif" font-size="10.00">InvalidConfigFileTests</text>
</a>
</g>
</g>
<!-- Node27&#45;&gt;Node34 -->
<g id="edge7" class="edge">
<title>Node27&#45;&gt;Node34</title>
<path fill="none" stroke="midnightblue" d="M86,-262.78C100.9,-264.61 117.58,-266.66 133.27,-268.59"/>
<polygon fill="midnightblue" stroke="midnightblue" points="86.36,-259.3 76.01,-261.55 85.5,-266.25 86.36,-259.3"/>
</g>
<!-- Node35 -->
<g id="node9" class="node">
<title>Node35</title>
<g id="a_node9"><a xlink:href="class_ostream_inserters_test.html" target="_top" xlink:title=" ">
<polygon fill="none" stroke="black" points="134,-228.5 134,-247.5 255,-247.5 255,-228.5 134,-228.5"/>
<text text-anchor="middle" x="194.5" y="-235.5" font-family="Helvetica,sans-Serif" font-size="10.00">OstreamInsertersTest</text>
</a>
</g>
</g>
<!-- Node27&#45;&gt;Node35 -->
<g id="edge8" class="edge">
<title>Node27&#45;&gt;Node35</title>
<path fill="none" stroke="midnightblue" d="M86.11,-251.21C101.17,-249.35 118.04,-247.28 133.87,-245.33"/>
<polygon fill="midnightblue" stroke="midnightblue" points="85.5,-247.75 76.01,-252.45 86.36,-254.7 85.5,-247.75"/>
</g>
<!-- Node36 -->
<g id="node10" class="node">
<title>Node36</title>
<g id="a_node10"><a xlink:href="class_register_connection_test.html" target="_top" xlink:title=" ">
<polygon fill="none" stroke="black" points="129,-190.5 129,-209.5 260,-209.5 260,-190.5 129,-190.5"/>
<text text-anchor="middle" x="194.5" y="-197.5" font-family="Helvetica,sans-Serif" font-size="10.00">RegisterConnectionTest</text>
</a>
</g>
</g>
<!-- Node27&#45;&gt;Node36 -->
<g id="edge9" class="edge">
<title>Node27&#45;&gt;Node36</title>
<path fill="none" stroke="midnightblue" d="M63.58,-242.23C77.42,-234.42 95.23,-225.21 112,-219 121.95,-215.32 132.85,-212.19 143.35,-209.6"/>
<polygon fill="midnightblue" stroke="midnightblue" points="61.62,-239.32 54.7,-247.35 65.12,-245.38 61.62,-239.32"/>
</g>
<!-- Node37 -->
<g id="node11" class="node">
<title>Node37</title>
<g id="a_node11"><a xlink:href="class_register_virtual_server_test.html" target="_top" xlink:title=" ">
<polygon fill="none" stroke="black" points="124.5,-152.5 124.5,-171.5 264.5,-171.5 264.5,-152.5 124.5,-152.5"/>
<text text-anchor="middle" x="194.5" y="-159.5" font-family="Helvetica,sans-Serif" font-size="10.00">RegisterVirtualServerTest</text>
</a>
</g>
</g>
<!-- Node27&#45;&gt;Node37 -->
<g id="edge10" class="edge">
<title>Node27&#45;&gt;Node37</title>
<path fill="none" stroke="midnightblue" d="M51.34,-239.09C64.38,-221.57 86.54,-195.48 112,-181 118.82,-177.12 126.39,-174.03 134.09,-171.57"/>
<polygon fill="midnightblue" stroke="midnightblue" points="48.39,-237.2 45.39,-247.36 54.07,-241.29 48.39,-237.2"/>
</g>
<!-- Node38 -->
<g id="node12" class="node">
<title>Node38</title>
<g id="a_node12"><a xlink:href="class_response_body_handler_test.html" target="_top" xlink:title=" ">
<polygon fill="none" stroke="black" points="121.5,-114.5 121.5,-133.5 267.5,-133.5 267.5,-114.5 121.5,-114.5"/>
<text text-anchor="middle" x="194.5" y="-121.5" font-family="Helvetica,sans-Serif" font-size="10.00">ResponseBodyHandlerTest</text>
</a>
</g>
</g>
<!-- Node27&#45;&gt;Node38 -->
<g id="edge11" class="edge">
<title>Node27&#45;&gt;Node38</title>
<path fill="none" stroke="midnightblue" d="M45.92,-237.84C56.22,-212.14 78.09,-166.96 112,-143 117.46,-139.14 123.59,-136.06 129.97,-133.59"/>
<polygon fill="midnightblue" stroke="midnightblue" points="42.62,-236.66 42.32,-247.25 49.16,-239.16 42.62,-236.66"/>
</g>
<!-- Node39 -->
<g id="node13" class="node">
<title>Node39</title>
<g id="a_node13"><a xlink:href="class_target_resource_handler_test.html" target="_top" xlink:title=" ">
<polygon fill="none" stroke="black" points="120,-76.5 120,-95.5 269,-95.5 269,-76.5 120,-76.5"/>
<text text-anchor="middle" x="194.5" y="-83.5" font-family="Helvetica,sans-Serif" font-size="10.00">TargetResourceHandlerTest</text>
</a>
</g>
</g>
<!-- Node27&#45;&gt;Node39 -->
<g id="edge12" class="edge">
<title>Node27&#45;&gt;Node39</title>
<path fill="none" stroke="midnightblue" d="M42.75,-237.27C50.04,-204.54 69.31,-139.25 112,-105 116.76,-101.18 122.15,-98.11 127.84,-95.63"/>
<polygon fill="midnightblue" stroke="midnightblue" points="39.26,-236.88 40.65,-247.38 46.11,-238.3 39.26,-236.88"/>
</g>
<!-- Node40 -->
<g id="node14" class="node">
<title>Node40</title>
<g id="a_node14"><a xlink:href="class_valid_config_file_tests.html" target="_top" xlink:title=" ">
<polygon fill="none" stroke="black" points="138,-38.5 138,-57.5 251,-57.5 251,-38.5 138,-38.5"/>
<text text-anchor="middle" x="194.5" y="-45.5" font-family="Helvetica,sans-Serif" font-size="10.00">ValidConfigFileTests</text>
</a>
</g>
</g>
<!-- Node27&#45;&gt;Node40 -->
<g id="edge13" class="edge">
<title>Node27&#45;&gt;Node40</title>
<path fill="none" stroke="midnightblue" d="M40.62,-237.35C44.92,-198.61 60.1,-112.2 112,-67 119.34,-60.61 128.42,-56.26 137.83,-53.32"/>
<polygon fill="midnightblue" stroke="midnightblue" points="37.14,-237.05 39.65,-247.35 44.1,-237.73 37.14,-237.05"/>
</g>
<!-- Node41 -->
<g id="node15" class="node">
<title>Node41</title>
<g id="a_node15"><a xlink:href="classis_duplicate_server_test.html" target="_top" xlink:title=" ">
<polygon fill="none" stroke="black" points="133.5,-0.5 133.5,-19.5 255.5,-19.5 255.5,-0.5 133.5,-0.5"/>
<text text-anchor="middle" x="194.5" y="-7.5" font-family="Helvetica,sans-Serif" font-size="10.00">isDuplicateServerTest</text>
</a>
</g>
</g>
<!-- Node27&#45;&gt;Node41 -->
<g id="edge14" class="edge">
<title>Node27&#45;&gt;Node41</title>
<path fill="none" stroke="midnightblue" d="M39.18,-237.21C40.7,-192.94 50.86,-85.39 112,-29 118.09,-23.39 125.5,-19.33 133.36,-16.42"/>
<polygon fill="midnightblue" stroke="midnightblue" points="35.67,-237.4 38.95,-247.48 42.67,-237.56 35.67,-237.4"/>
</g>
</g>
</svg>
