<?xml version="1.0" encoding="UTF-8" standalone="no"?>
<!DOCTYPE svg PUBLIC "-//W3C//DTD SVG 1.1//EN"
 "http://www.w3.org/Graphics/SVG/1.1/DTD/svg11.dtd">
<!-- Generated by graphviz version 2.43.0 (0)
 -->
<!-- Title: main Pages: 1 -->
<svg width="1659pt" height="649pt"
 viewBox="0.00 0.00 1659.00 648.50" xmlns="http://www.w3.org/2000/svg" xmlns:xlink="http://www.w3.org/1999/xlink">
<g id="graph0" class="graph" transform="scale(1 1) rotate(0) translate(4 644.5)">
<title>main</title>
<!-- Node1 -->
<g id="node1" class="node">
<title>Node1</title>
<g id="a_node1"><a xlink:title=" ">
<polygon fill="#bfbfbf" stroke="black" points="0,-446.5 0,-465.5 41,-465.5 41,-446.5 0,-446.5"/>
<text text-anchor="middle" x="20.5" y="-453.5" font-family="Helvetica,sans-Serif" font-size="10.00">main</text>
</a>
</g>
</g>
<!-- Node2 -->
<g id="node2" class="node">
<title>Node2</title>
<g id="a_node2"><a xlink:href="class_server.html#a54745950beb9e321d9a56084501c18e9" target="_top" xlink:title="Const Getter for server configs.">
<polygon fill="none" stroke="black" points="96.5,-522.5 96.5,-541.5 233.5,-541.5 233.5,-522.5 96.5,-522.5"/>
<text text-anchor="middle" x="165" y="-529.5" font-family="Helvetica,sans-Serif" font-size="10.00">Server::getServerConfigs</text>
</a>
</g>
</g>
<!-- Node1&#45;&gt;Node2 -->
<g id="edge1" class="edge">
<title>Node1&#45;&gt;Node2</title>
<path fill="none" stroke="midnightblue" d="M28.15,-465.76C37.48,-478.68 55.75,-501.2 77,-513 81.17,-515.32 85.61,-517.35 90.17,-519.14"/>
<polygon fill="midnightblue" stroke="midnightblue" points="89.11,-522.47 99.7,-522.47 91.41,-515.86 89.11,-522.47"/>
</g>
<!-- Node3 -->
<g id="node3" class="node">
<title>Node3</title>
<g id="a_node3"><a xlink:href="namespaceweblog.html#a23e11f7efdebde689d1fa3b697e3ff4a" target="_top" xlink:title="Initialize the Logger object with a log level and a console outputter.">
<polygon fill="none" stroke="black" points="108.5,-484.5 108.5,-503.5 221.5,-503.5 221.5,-484.5 108.5,-484.5"/>
<text text-anchor="middle" x="165" y="-491.5" font-family="Helvetica,sans-Serif" font-size="10.00">weblog::initConsole</text>
</a>
</g>
</g>
<!-- Node1&#45;&gt;Node3 -->
<g id="edge2" class="edge">
<title>Node1&#45;&gt;Node3</title>
<path fill="none" stroke="midnightblue" d="M41.11,-463.33C51.65,-467.11 64.94,-471.63 77,-475 86.17,-477.56 95.97,-479.99 105.56,-482.2"/>
<polygon fill="midnightblue" stroke="midnightblue" points="104.91,-485.65 115.44,-484.43 106.45,-478.82 104.91,-485.65"/>
</g>
<!-- Node7 -->
<g id="node7" class="node">
<title>Node7</title>
<g id="a_node7"><a xlink:href="_server_8hpp.html#a35359f61d42dbd6561a07c12009ca45a" target="_top" xlink:title="Initialize virtual servers.">
<polygon fill="none" stroke="black" points="114.5,-446.5 114.5,-465.5 215.5,-465.5 215.5,-446.5 114.5,-446.5"/>
<text text-anchor="middle" x="165" y="-453.5" font-family="Helvetica,sans-Serif" font-size="10.00">initVirtualServers</text>
</a>
</g>
</g>
<!-- Node1&#45;&gt;Node7 -->
<g id="edge6" class="edge">
<title>Node1&#45;&gt;Node7</title>
<path fill="none" stroke="midnightblue" d="M41.02,-456C57.34,-456 81.53,-456 104.15,-456"/>
<polygon fill="midnightblue" stroke="midnightblue" points="104.4,-459.5 114.4,-456 104.4,-452.5 104.4,-459.5"/>
</g>
<!-- Node20 -->
<g id="node20" class="node">
<title>Node20</title>
<g id="a_node20"><a xlink:href="class_config_file_parser.html#adfa2bf960814acd72729a07539bacfb3" target="_top" xlink:title="Parses the config file into a ConfigFile object and returns this object.">
<polygon fill="none" stroke="black" points="77,-275.5 77,-294.5 253,-294.5 253,-275.5 77,-275.5"/>
<text text-anchor="middle" x="165" y="-282.5" font-family="Helvetica,sans-Serif" font-size="10.00">ConfigFileParser::parseConfigFile</text>
</a>
</g>
</g>
<!-- Node1&#45;&gt;Node20 -->
<g id="edge20" class="edge">
<title>Node1&#45;&gt;Node20</title>
<path fill="none" stroke="midnightblue" d="M21.95,-446.42C23.77,-419.49 32.78,-342.62 77,-304 78.75,-302.47 80.6,-301.06 82.52,-299.75"/>
<polygon fill="midnightblue" stroke="midnightblue" points="84.45,-302.67 91.39,-294.66 80.97,-296.6 84.45,-302.67"/>
</g>
<!-- Node21 -->
<g id="node21" class="node">
<title>Node21</title>
<g id="a_node21"><a xlink:href="class_server.html#abb27d30b40a94326e3fd629d3b30b7d5" target="_top" xlink:title="Runs the main event loop.">
<polygon fill="none" stroke="black" points="130,-313.5 130,-332.5 200,-332.5 200,-313.5 130,-313.5"/>
<text text-anchor="middle" x="165" y="-320.5" font-family="Helvetica,sans-Serif" font-size="10.00">Server::run</text>
</a>
</g>
</g>
<!-- Node1&#45;&gt;Node21 -->
<g id="edge21" class="edge">
<title>Node1&#45;&gt;Node21</title>
<path fill="none" stroke="midnightblue" d="M31.75,-446.43C55.77,-424.02 115.94,-367.86 146.13,-339.68"/>
<polygon fill="midnightblue" stroke="midnightblue" points="148.54,-342.22 153.46,-332.84 143.76,-337.1 148.54,-342.22"/>
</g>
<!-- Node4 -->
<g id="node4" class="node">
<title>Node4</title>
<g id="a_node4"><a xlink:href="classweblog_1_1_logger.html#a81b70a098987f205c6e3cb60a7f04536" target="_top" xlink:title="Initialize the Logger object with a log level and an outputter.">
<polygon fill="none" stroke="black" points="311,-560.5 311,-579.5 424,-579.5 424,-560.5 311,-560.5"/>
<text text-anchor="middle" x="367.5" y="-567.5" font-family="Helvetica,sans-Serif" font-size="10.00">weblog::Logger::init</text>
</a>
</g>
</g>
<!-- Node3&#45;&gt;Node4 -->
<g id="edge3" class="edge">
<title>Node3&#45;&gt;Node4</title>
<path fill="none" stroke="midnightblue" d="M221.83,-501.62C232.54,-504.34 243.39,-508.02 253,-513 272.27,-522.99 270.18,-535.19 289,-546 296.72,-550.43 305.35,-554.14 313.98,-557.21"/>
<polygon fill="midnightblue" stroke="midnightblue" points="313.07,-560.59 323.66,-560.41 315.27,-553.95 313.07,-560.59"/>
</g>
<!-- Node5 -->
<g id="node5" class="node">
<title>Node5</title>
<g id="a_node5"><a xlink:href="classweblog_1_1_logger.html#a3681dadbda75522f60e499b56a0e03a7" target="_top" xlink:title="Add a log outputter to the Logger object.">
<polygon fill="none" stroke="black" points="482,-560.5 482,-579.5 661,-579.5 661,-560.5 482,-560.5"/>
<text text-anchor="middle" x="571.5" y="-567.5" font-family="Helvetica,sans-Serif" font-size="10.00">weblog::Logger::addLogOutputter</text>
</a>
</g>
</g>
<!-- Node4&#45;&gt;Node5 -->
<g id="edge4" class="edge">
<title>Node4&#45;&gt;Node5</title>
<path fill="none" stroke="midnightblue" d="M424.23,-570C439.03,-570 455.46,-570 471.81,-570"/>
<polygon fill="midnightblue" stroke="midnightblue" points="471.96,-573.5 481.96,-570 471.96,-566.5 471.96,-573.5"/>
</g>
<!-- Node6 -->
<g id="node6" class="node">
<title>Node6</title>
<g id="a_node6"><a xlink:href="classweblog_1_1_logger.html#aa4282982ae356ca9836cdebe86873c64" target="_top" xlink:title="Set the log level of the Logger object.">
<polygon fill="none" stroke="black" points="502.5,-598.5 502.5,-617.5 640.5,-617.5 640.5,-598.5 502.5,-598.5"/>
<text text-anchor="middle" x="571.5" y="-605.5" font-family="Helvetica,sans-Serif" font-size="10.00">weblog::Logger::setLevel</text>
</a>
</g>
</g>
<!-- Node4&#45;&gt;Node6 -->
<g id="edge5" class="edge">
<title>Node4&#45;&gt;Node6</title>
<path fill="none" stroke="midnightblue" d="M419.21,-579.54C446.71,-584.71 480.88,-591.14 509.78,-596.58"/>
<polygon fill="midnightblue" stroke="midnightblue" points="509.29,-600.05 519.77,-598.46 510.59,-593.17 509.29,-600.05"/>
</g>
<!-- Node8 -->
<g id="node8" class="node">
<title>Node8</title>
<g id="a_node8"><a xlink:href="_server_8cpp.html#aa6ca6a0179cbb661c05aa6b2758f5389" target="_top" xlink:title="Creates a new virtual server and registers it with the server object.">
<polygon fill="none" stroke="black" points="516,-522.5 516,-541.5 627,-541.5 627,-522.5 516,-522.5"/>
<text text-anchor="middle" x="571.5" y="-529.5" font-family="Helvetica,sans-Serif" font-size="10.00">createVirtualServer</text>
</a>
</g>
</g>
<!-- Node7&#45;&gt;Node8 -->
<g id="edge7" class="edge">
<title>Node7&#45;&gt;Node8</title>
<path fill="none" stroke="midnightblue" d="M215.73,-461.56C228.43,-464.38 241.69,-468.62 253,-475 273.26,-486.43 267.95,-503.09 289,-513 357.81,-545.39 446.71,-545.48 506.01,-540.53"/>
<polygon fill="midnightblue" stroke="midnightblue" points="506.35,-544.02 515.99,-539.63 505.72,-537.05 506.35,-544.02"/>
</g>
<!-- Node17 -->
<g id="node17" class="node">
<title>Node17</title>
<g id="a_node17"><a xlink:href="class_server.html#a878b0cc2f9bc228dd12b250d95d61a75" target="_top" xlink:title="Const Getter for virtual servers.">
<polygon fill="none" stroke="black" points="502,-446.5 502,-465.5 641,-465.5 641,-446.5 502,-446.5"/>
<text text-anchor="middle" x="571.5" y="-453.5" font-family="Helvetica,sans-Serif" font-size="10.00">Server::getVirtualServers</text>
</a>
</g>
</g>
<!-- Node7&#45;&gt;Node17 -->
<g id="edge16" class="edge">
<title>Node7&#45;&gt;Node17</title>
<path fill="none" stroke="midnightblue" d="M215.6,-456C284.49,-456 409.86,-456 491.65,-456"/>
<polygon fill="midnightblue" stroke="midnightblue" points="491.9,-459.5 501.9,-456 491.9,-452.5 491.9,-459.5"/>
</g>
<!-- Node18 -->
<g id="node18" class="node">
<title>Node18</title>
<g id="a_node18"><a xlink:href="_server_8cpp.html#a4f6456b9a16154a6d320ae8b370285d6" target="_top" xlink:title="Check for duplicate virtual servers.">
<polygon fill="none" stroke="black" points="316,-408.5 316,-427.5 419,-427.5 419,-408.5 316,-408.5"/>
<text text-anchor="middle" x="367.5" y="-415.5" font-family="Helvetica,sans-Serif" font-size="10.00">isDuplicateServer</text>
</a>
</g>
</g>
<!-- Node7&#45;&gt;Node18 -->
<g id="edge17" class="edge">
<title>Node7&#45;&gt;Node18</title>
<path fill="none" stroke="midnightblue" d="M215.56,-446.61C242.95,-441.42 277.18,-434.93 306.12,-429.44"/>
<polygon fill="midnightblue" stroke="midnightblue" points="306.94,-432.85 316.12,-427.55 305.64,-425.97 306.94,-432.85"/>
</g>
<!-- Node19 -->
<g id="node19" class="node">
<title>Node19</title>
<g id="a_node19"><a xlink:href="namespacewebutils.html#afd1710fd588c15830d10aef146da8ddb" target="_top" xlink:title="Convert a type to a string.">
<polygon fill="none" stroke="black" points="316.5,-484.5 316.5,-503.5 418.5,-503.5 418.5,-484.5 316.5,-484.5"/>
<text text-anchor="middle" x="367.5" y="-491.5" font-family="Helvetica,sans-Serif" font-size="10.00">webutils::toString</text>
</a>
</g>
</g>
<!-- Node7&#45;&gt;Node19 -->
<g id="edge19" class="edge">
<title>Node7&#45;&gt;Node19</title>
<path fill="none" stroke="midnightblue" d="M215.56,-465.39C243.05,-470.6 277.44,-477.12 306.45,-482.62"/>
<polygon fill="midnightblue" stroke="midnightblue" points="305.99,-486.09 316.46,-484.52 307.29,-479.22 305.99,-486.09"/>
</g>
<!-- Node9 -->
<g id="node9" class="node">
<title>Node9</title>
<g id="a_node9"><a xlink:href="class_server.html#a4e98a13498a791a2f3639e67e5b849e0" target="_top" xlink:title="Wrapper function to SocketPolicy::createListeningSocket.">
<polygon fill="none" stroke="black" points="702,-612.5 702,-631.5 863,-631.5 863,-612.5 702,-612.5"/>
<text text-anchor="middle" x="782.5" y="-619.5" font-family="Helvetica,sans-Serif" font-size="10.00">Server::createListeningSocket</text>
</a>
</g>
</g>
<!-- Node8&#45;&gt;Node9 -->
<g id="edge8" class="edge">
<title>Node8&#45;&gt;Node9</title>
<path fill="none" stroke="midnightblue" d="M627.41,-537.28C639.14,-540.13 651,-544.46 661,-551 683.92,-565.99 674.33,-585.65 697,-601 701.35,-603.94 706.07,-606.48 710.99,-608.65"/>
<polygon fill="midnightblue" stroke="midnightblue" points="710.05,-612.04 720.64,-612.42 712.59,-605.52 710.05,-612.04"/>
</g>
<!-- Node11 -->
<g id="node11" class="node">
<title>Node11</title>
<g id="a_node11"><a xlink:href="class_server.html#aae8cc5a8fc07a6ce97d468d94cd08a6e" target="_top" xlink:title="Register a virtual server.">
<polygon fill="none" stroke="black" points="705,-522.5 705,-541.5 860,-541.5 860,-522.5 705,-522.5"/>
<text text-anchor="middle" x="782.5" y="-529.5" font-family="Helvetica,sans-Serif" font-size="10.00">Server::registerVirtualServer</text>
</a>
</g>
</g>
<!-- Node8&#45;&gt;Node11 -->
<g id="edge10" class="edge">
<title>Node8&#45;&gt;Node11</title>
<path fill="none" stroke="midnightblue" d="M627.14,-532C647.79,-532 671.83,-532 694.71,-532"/>
<polygon fill="midnightblue" stroke="midnightblue" points="694.77,-535.5 704.77,-532 694.77,-528.5 694.77,-535.5"/>
</g>
<!-- Node13 -->
<g id="node13" class="node">
<title>Node13</title>
<g id="a_node13"><a xlink:href="class_server.html#abf1dc68ec7f88650ad80e93f56e14e5c" target="_top" xlink:title="Wrapper function to SocketPolicy::resolveListeningAddresses.">
<polygon fill="none" stroke="black" points="715.5,-561 715.5,-591 849.5,-591 849.5,-561 715.5,-561"/>
<text text-anchor="start" x="723.5" y="-579" font-family="Helvetica,sans-Serif" font-size="10.00">Server::resolveListening</text>
<text text-anchor="middle" x="782.5" y="-568" font-family="Helvetica,sans-Serif" font-size="10.00">Addresses</text>
</a>
</g>
</g>
<!-- Node8&#45;&gt;Node13 -->
<g id="edge12" class="edge">
<title>Node8&#45;&gt;Node13</title>
<path fill="none" stroke="midnightblue" d="M617.85,-541.55C643.41,-546.93 676.02,-553.79 705.39,-559.98"/>
<polygon fill="midnightblue" stroke="midnightblue" points="704.7,-563.41 715.21,-562.04 706.14,-556.56 704.7,-563.41"/>
</g>
<!-- Node15 -->
<g id="node15" class="node">
<title>Node15</title>
<g id="a_node15"><a xlink:href="class_server.html#ac951fb1326dfadeff690fd646e0b7e8f" target="_top" xlink:title="Wrapper function to SocketPolicy::retrieveSocketInfo.">
<polygon fill="none" stroke="black" points="711,-484.5 711,-503.5 854,-503.5 854,-484.5 711,-484.5"/>
<text text-anchor="middle" x="782.5" y="-491.5" font-family="Helvetica,sans-Serif" font-size="10.00">Server::retrieveSocketInfo</text>
</a>
</g>
</g>
<!-- Node8&#45;&gt;Node15 -->
<g id="edge14" class="edge">
<title>Node8&#45;&gt;Node15</title>
<path fill="none" stroke="midnightblue" d="M624.97,-522.46C653.54,-517.27 689.08,-510.8 719.07,-505.35"/>
<polygon fill="midnightblue" stroke="midnightblue" points="719.8,-508.78 729.01,-503.54 718.54,-501.89 719.8,-508.78"/>
</g>
<!-- Node10 -->
<g id="node10" class="node">
<title>Node10</title>
<g id="a_node10"><a xlink:href="class_socket_policy.html#a39e0eea05ab4986261bff0fe9d5497bd" target="_top" xlink:title="Create a listening socket.">
<polygon fill="none" stroke="black" points="911.5,-610 911.5,-640 1069.5,-640 1069.5,-610 911.5,-610"/>
<text text-anchor="start" x="919.5" y="-628" font-family="Helvetica,sans-Serif" font-size="10.00">SocketPolicy::createListening</text>
<text text-anchor="middle" x="990.5" y="-617" font-family="Helvetica,sans-Serif" font-size="10.00">Socket</text>
</a>
</g>
</g>
<!-- Node9&#45;&gt;Node10 -->
<g id="edge9" class="edge">
<title>Node9&#45;&gt;Node10</title>
<path fill="none" stroke="midnightblue" d="M863.14,-623.16C875.65,-623.34 888.64,-623.53 901.33,-623.72"/>
<polygon fill="midnightblue" stroke="midnightblue" points="901.37,-627.22 911.42,-623.86 901.47,-620.22 901.37,-627.22"/>
</g>
<!-- Node12 -->
<g id="node12" class="node">
<title>Node12</title>
<g id="a_node12"><a xlink:href="class_epoll_wrapper.html#ace2a6009a6c647babfc667c27df05354" target="_top" xlink:title="Add an event to the epoll instance.">
<polygon fill="none" stroke="black" points="923.5,-522.5 923.5,-541.5 1057.5,-541.5 1057.5,-522.5 923.5,-522.5"/>
<text text-anchor="middle" x="990.5" y="-529.5" font-family="Helvetica,sans-Serif" font-size="10.00">EpollWrapper::addEvent</text>
</a>
</g>
</g>
<!-- Node11&#45;&gt;Node12 -->
<g id="edge11" class="edge">
<title>Node11&#45;&gt;Node12</title>
<path fill="none" stroke="midnightblue" d="M860.21,-532C877.51,-532 895.88,-532 913.18,-532"/>
<polygon fill="midnightblue" stroke="midnightblue" points="913.22,-535.5 923.22,-532 913.22,-528.5 913.22,-535.5"/>
</g>
<!-- Node14 -->
<g id="node14" class="node">
<title>Node14</title>
<g id="a_node14"><a xlink:href="class_socket_policy.html#a5dc6880ff55223d8ecee64a414d1f652" target="_top" xlink:title="Resolves the passed host and port to a list of addresses suitable for listening.">
<polygon fill="none" stroke="black" points="908.5,-561 908.5,-591 1072.5,-591 1072.5,-561 908.5,-561"/>
<text text-anchor="start" x="916.5" y="-579" font-family="Helvetica,sans-Serif" font-size="10.00">SocketPolicy::resolveListening</text>
<text text-anchor="middle" x="990.5" y="-568" font-family="Helvetica,sans-Serif" font-size="10.00">Addresses</text>
</a>
</g>
</g>
<!-- Node13&#45;&gt;Node14 -->
<g id="edge13" class="edge">
<title>Node13&#45;&gt;Node14</title>
<path fill="none" stroke="midnightblue" d="M849.53,-576C865.03,-576 881.81,-576 898.19,-576"/>
<polygon fill="midnightblue" stroke="midnightblue" points="898.33,-579.5 908.33,-576 898.33,-572.5 898.33,-579.5"/>
</g>
<!-- Node16 -->
<g id="node16" class="node">
<title>Node16</title>
<g id="a_node16"><a xlink:href="class_socket_policy.html#a874932fbf0a16f6d0de145f686eed49a" target="_top" xlink:title="Retrieve socket information.">
<polygon fill="none" stroke="black" points="904,-484.5 904,-503.5 1077,-503.5 1077,-484.5 904,-484.5"/>
<text text-anchor="middle" x="990.5" y="-491.5" font-family="Helvetica,sans-Serif" font-size="10.00">SocketPolicy::retrieveSocketInfo</text>
</a>
</g>
</g>
<!-- Node15&#45;&gt;Node16 -->
<g id="edge15" class="edge">
<title>Node15&#45;&gt;Node16</title>
<path fill="none" stroke="midnightblue" d="M854.11,-494C866.82,-494 880.27,-494 893.56,-494"/>
<polygon fill="midnightblue" stroke="midnightblue" points="893.68,-497.5 903.68,-494 893.68,-490.5 893.68,-497.5"/>
</g>
<!-- Node18&#45;&gt;Node17 -->
<g id="edge18" class="edge">
<title>Node18&#45;&gt;Node17</title>
<path fill="none" stroke="midnightblue" d="M419.21,-427.54C446.71,-432.71 480.88,-439.14 509.78,-444.58"/>
<polygon fill="midnightblue" stroke="midnightblue" points="509.29,-448.05 519.77,-446.46 510.59,-441.17 509.29,-448.05"/>
</g>
<!-- Node22 -->
<g id="node22" class="node">
<title>Node22</title>
<g id="a_node22"><a xlink:href="_server_8cpp.html#a28fd29ec48bd9459c678980cfccca4cf" target="_top" xlink:title="Iterates through all connections and checks if any have timed out.">
<polygon fill="none" stroke="black" points="317,-275.5 317,-294.5 418,-294.5 418,-275.5 317,-275.5"/>
<text text-anchor="middle" x="367.5" y="-282.5" font-family="Helvetica,sans-Serif" font-size="10.00">checkForTimeout</text>
</a>
</g>
</g>
<!-- Node21&#45;&gt;Node22 -->
<g id="edge22" class="edge">
<title>Node21&#45;&gt;Node22</title>
<path fill="none" stroke="midnightblue" d="M200.01,-316.55C229.2,-311.02 271.94,-302.92 306.8,-296.31"/>
<polygon fill="midnightblue" stroke="midnightblue" points="307.71,-299.71 316.88,-294.4 306.4,-292.83 307.71,-299.71"/>
</g>
<!-- Node27 -->
<g id="node27" class="node">
<title>Node27</title>
<g id="a_node27"><a xlink:href="_server_8cpp.html#a9e2693ba11e20b84de090bcdd0b665db" target="_top" xlink:title="Iterates through all connections and removes closed ones.">
<polygon fill="none" stroke="black" points="293.5,-313.5 293.5,-332.5 441.5,-332.5 441.5,-313.5 293.5,-313.5"/>
<text text-anchor="middle" x="367.5" y="-320.5" font-family="Helvetica,sans-Serif" font-size="10.00">cleanupClosedConnections</text>
</a>
</g>
</g>
<!-- Node21&#45;&gt;Node27 -->
<g id="edge27" class="edge">
<title>Node21&#45;&gt;Node27</title>
<path fill="none" stroke="midnightblue" d="M200.01,-323C222.8,-323 253.85,-323 282.97,-323"/>
<polygon fill="midnightblue" stroke="midnightblue" points="283.17,-326.5 293.17,-323 283.17,-319.5 283.17,-326.5"/>
</g>
<!-- Node28 -->
<g id="node28" class="node">
<title>Node28</title>
<g id="a_node28"><a xlink:href="class_epoll_wrapper.html#a351163f31995e5bab238fac131eb2185" target="_top" xlink:title="Get the beginning of the events vector.">
<polygon fill="none" stroke="black" points="293,-237.5 293,-256.5 442,-256.5 442,-237.5 293,-237.5"/>
<text text-anchor="middle" x="367.5" y="-244.5" font-family="Helvetica,sans-Serif" font-size="10.00">EpollWrapper::eventsBegin</text>
</a>
</g>
</g>
<!-- Node21&#45;&gt;Node28 -->
<g id="edge29" class="edge">
<title>Node21&#45;&gt;Node28</title>
<path fill="none" stroke="midnightblue" d="M200.31,-320.27C217.05,-317.78 236.98,-313.04 253,-304 273.26,-292.57 268.89,-277.69 289,-266 292.88,-263.75 297.01,-261.76 301.28,-260.01"/>
<polygon fill="midnightblue" stroke="midnightblue" points="302.59,-263.25 310.78,-256.53 300.19,-256.68 302.59,-263.25"/>
</g>
<!-- Node29 -->
<g id="node29" class="node">
<title>Node29</title>
<g id="a_node29"><a xlink:href="_server_8cpp.html#af9f4479a6262c17deef89938118d27f4" target="_top" xlink:title="Accepts new connections or handles existing ones.">
<polygon fill="none" stroke="black" points="329,-351.5 329,-370.5 406,-370.5 406,-351.5 329,-351.5"/>
<text text-anchor="middle" x="367.5" y="-358.5" font-family="Helvetica,sans-Serif" font-size="10.00">handleEvent</text>
</a>
</g>
</g>
<!-- Node21&#45;&gt;Node29 -->
<g id="edge30" class="edge">
<title>Node21&#45;&gt;Node29</title>
<path fill="none" stroke="midnightblue" d="M200.01,-329.45C232.69,-335.64 282.37,-345.06 318.96,-351.99"/>
<polygon fill="midnightblue" stroke="midnightblue" points="318.43,-355.45 328.91,-353.87 319.73,-348.57 318.43,-355.45"/>
</g>
<!-- Node67 -->
<g id="node50" class="node">
<title>Node67</title>
<g id="a_node50"><a xlink:href="class_epoll_wrapper.html#a311509445062f6333287f2957b8b2e85" target="_top" xlink:title="Wait for events on an epoll instance.">
<polygon fill="none" stroke="black" points="289,-199.5 289,-218.5 446,-218.5 446,-199.5 289,-199.5"/>
<text text-anchor="middle" x="367.5" y="-206.5" font-family="Helvetica,sans-Serif" font-size="10.00">EpollWrapper::waitForEvents</text>
</a>
</g>
</g>
<!-- Node21&#45;&gt;Node67 -->
<g id="edge61" class="edge">
<title>Node21&#45;&gt;Node67</title>
<path fill="none" stroke="midnightblue" d="M200.42,-322.48C217.79,-320.6 238.24,-315.74 253,-304 282.26,-280.74 260.04,-251.63 289,-228 291.07,-226.31 293.26,-224.77 295.55,-223.37"/>
<polygon fill="midnightblue" stroke="midnightblue" points="297.53,-226.29 304.8,-218.58 294.31,-220.07 297.53,-226.29"/>
</g>
<!-- Node23 -->
<g id="node23" class="node">
<title>Node23</title>
<g id="a_node23"><a xlink:href="class_server.html#af8184a299847cca0789696048893bc48" target="_top" xlink:title="Const Getter for client timeout.">
<polygon fill="none" stroke="black" points="502,-265.5 502,-284.5 641,-284.5 641,-265.5 502,-265.5"/>
<text text-anchor="middle" x="571.5" y="-272.5" font-family="Helvetica,sans-Serif" font-size="10.00">Server::getClientTimeout</text>
</a>
</g>
</g>
<!-- Node22&#45;&gt;Node23 -->
<g id="edge23" class="edge">
<title>Node22&#45;&gt;Node23</title>
<path fill="none" stroke="midnightblue" d="M418.17,-282.54C440.35,-281.44 467.02,-280.12 491.81,-278.9"/>
<polygon fill="midnightblue" stroke="midnightblue" points="492.12,-282.38 501.93,-278.39 491.77,-275.39 492.12,-282.38"/>
</g>
<!-- Node24 -->
<g id="node24" class="node">
<title>Node24</title>
<g id="a_node24"><a xlink:href="class_server.html#aab1a7e57f49a0c7b7f1cea147d8bf9aa" target="_top" xlink:title="Getter for connections.">
<polygon fill="none" stroke="black" points="506.5,-303.5 506.5,-322.5 636.5,-322.5 636.5,-303.5 506.5,-303.5"/>
<text text-anchor="middle" x="571.5" y="-310.5" font-family="Helvetica,sans-Serif" font-size="10.00">Server::getConnections</text>
</a>
</g>
</g>
<!-- Node22&#45;&gt;Node24 -->
<g id="edge24" class="edge">
<title>Node22&#45;&gt;Node24</title>
<path fill="none" stroke="midnightblue" d="M418.17,-291.89C441.69,-295.14 470.25,-299.1 496.27,-302.71"/>
<polygon fill="midnightblue" stroke="midnightblue" points="496.09,-306.22 506.48,-304.13 497.05,-299.29 496.09,-306.22"/>
</g>
<!-- Node25 -->
<g id="node25" class="node">
<title>Node25</title>
<g id="a_node25"><a xlink:href="class_server.html#afab1a4ec9e524b0dae8f60080642e7fe" target="_top" xlink:title="Wrapper function to EpollWrapper::modifyEvent.">
<polygon fill="none" stroke="black" points="1320,-104.5 1320,-123.5 1436,-123.5 1436,-104.5 1320,-104.5"/>
<text text-anchor="middle" x="1378" y="-111.5" font-family="Helvetica,sans-Serif" font-size="10.00">Server::modifyEvent</text>
</a>
</g>
</g>
<!-- Node22&#45;&gt;Node25 -->
<g id="edge25" class="edge">
<title>Node22&#45;&gt;Node25</title>
<path fill="none" stroke="midnightblue" d="M418.4,-276.13C427.83,-273.52 437.42,-270.2 446,-266 616.9,-182.31 591.21,0 781.5,0 781.5,0 781.5,0 991.5,0 1110.02,0 1142.18,-7.7 1254,-47 1291.06,-60.03 1330.33,-83.29 1354.26,-98.69"/>
<polygon fill="midnightblue" stroke="midnightblue" points="1352.65,-101.82 1362.94,-104.36 1356.48,-95.96 1352.65,-101.82"/>
</g>
<!-- Node26 -->
<g id="node26" class="node">
<title>Node26</title>
<g id="a_node26"><a xlink:href="class_epoll_wrapper.html#ac97945725185999837a6d0d53f91df1a" target="_top" xlink:title="Modify an event in the epoll instance.">
<polygon fill="none" stroke="black" points="1502,-104.5 1502,-123.5 1651,-123.5 1651,-104.5 1502,-104.5"/>
<text text-anchor="middle" x="1576.5" y="-111.5" font-family="Helvetica,sans-Serif" font-size="10.00">EpollWrapper::modifyEvent</text>
</a>
</g>
</g>
<!-- Node25&#45;&gt;Node26 -->
<g id="edge26" class="edge">
<title>Node25&#45;&gt;Node26</title>
<path fill="none" stroke="midnightblue" d="M1436.1,-114C1453.49,-114 1472.97,-114 1491.73,-114"/>
<polygon fill="midnightblue" stroke="midnightblue" points="1491.76,-117.5 1501.76,-114 1491.76,-110.5 1491.76,-117.5"/>
</g>
<!-- Node27&#45;&gt;Node24 -->
<g id="edge28" class="edge">
<title>Node27&#45;&gt;Node24</title>
<path fill="none" stroke="midnightblue" d="M441.71,-319.38C459.36,-318.5 478.24,-317.57 495.95,-316.69"/>
<polygon fill="midnightblue" stroke="midnightblue" points="496.41,-320.17 506.22,-316.18 496.06,-313.18 496.41,-320.17"/>
</g>
<!-- Node29&#45;&gt;Node17 -->
<g id="edge38" class="edge">
<title>Node29&#45;&gt;Node17</title>
<path fill="none" stroke="midnightblue" d="M393.51,-370.56C409.35,-377.25 429.82,-387.1 446,-399 464.74,-412.78 461.72,-425.6 482,-437 485.96,-439.23 490.15,-441.19 494.48,-442.93"/>
<polygon fill="midnightblue" stroke="midnightblue" points="493.52,-446.3 504.12,-446.37 495.88,-439.71 493.52,-446.3"/>
</g>
<!-- Node29&#45;&gt;Node24 -->
<g id="edge37" class="edge">
<title>Node29&#45;&gt;Node24</title>
<path fill="none" stroke="midnightblue" d="M406.01,-352.05C418.72,-348.95 433,-345.4 446,-342 462.07,-337.8 465.87,-335.97 482,-332 492.18,-329.5 503.06,-327.01 513.58,-324.7"/>
<polygon fill="midnightblue" stroke="midnightblue" points="514.5,-328.08 523.53,-322.54 513.02,-321.24 514.5,-328.08"/>
</g>
<!-- Node30 -->
<g id="node30" class="node">
<title>Node30</title>
<g id="a_node30"><a xlink:href="_server_8cpp.html#adb579f3d67061d752e882e6fb3ef6f18" target="_top" xlink:title="Accept new connections.">
<polygon fill="none" stroke="black" points="517,-408.5 517,-427.5 626,-427.5 626,-408.5 517,-408.5"/>
<text text-anchor="middle" x="571.5" y="-415.5" font-family="Helvetica,sans-Serif" font-size="10.00">acceptConnections</text>
</a>
</g>
</g>
<!-- Node29&#45;&gt;Node30 -->
<g id="edge31" class="edge">
<title>Node29&#45;&gt;Node30</title>
<path fill="none" stroke="midnightblue" d="M402.31,-370.54C436.39,-380.16 489.16,-395.05 526.49,-405.58"/>
<polygon fill="midnightblue" stroke="midnightblue" points="526,-409.08 536.58,-408.43 527.91,-402.34 526,-409.08"/>
</g>
<!-- Node34 -->
<g id="node34" class="node">
<title>Node34</title>
<g id="a_node34"><a xlink:href="_server_8cpp.html#a581dddd40d3728b6d22216003e2065b5" target="_top" xlink:title="Handle a client connection.">
<polygon fill="none" stroke="black" points="519.5,-341.5 519.5,-360.5 623.5,-360.5 623.5,-341.5 519.5,-341.5"/>
<text text-anchor="middle" x="571.5" y="-348.5" font-family="Helvetica,sans-Serif" font-size="10.00">handleConnection</text>
</a>
</g>
</g>
<!-- Node29&#45;&gt;Node34 -->
<g id="edge39" class="edge">
<title>Node29&#45;&gt;Node34</title>
<path fill="none" stroke="midnightblue" d="M406.02,-359.14C434.97,-357.71 475.63,-355.7 509.27,-354.03"/>
<polygon fill="midnightblue" stroke="midnightblue" points="509.66,-357.52 519.47,-353.53 509.31,-350.53 509.66,-357.52"/>
</g>
<!-- Node30&#45;&gt;Node15 -->
<g id="edge36" class="edge">
<title>Node30&#45;&gt;Node15</title>
<path fill="none" stroke="midnightblue" d="M626.32,-424.18C638.24,-426.99 650.45,-431.07 661,-437 681.28,-448.4 676.77,-463.51 697,-475 700.93,-477.23 705.1,-479.2 709.41,-480.94"/>
<polygon fill="midnightblue" stroke="midnightblue" points="708.4,-484.3 718.99,-484.39 710.77,-477.71 708.4,-484.3"/>
</g>
<!-- Node31 -->
<g id="node31" class="node">
<title>Node31</title>
<g id="a_node31"><a xlink:href="class_server.html#ad8823ad2d9c9a94cfafb40e8e0653865" target="_top" xlink:title="Wrapper function to SocketPolicy::acceptSingleConnection().">
<polygon fill="none" stroke="black" points="697,-408.5 697,-427.5 868,-427.5 868,-408.5 697,-408.5"/>
<text text-anchor="middle" x="782.5" y="-415.5" font-family="Helvetica,sans-Serif" font-size="10.00">Server::acceptSingleConnection</text>
</a>
</g>
</g>
<!-- Node30&#45;&gt;Node31 -->
<g id="edge32" class="edge">
<title>Node30&#45;&gt;Node31</title>
<path fill="none" stroke="midnightblue" d="M626.05,-418C644.55,-418 665.87,-418 686.68,-418"/>
<polygon fill="midnightblue" stroke="midnightblue" points="686.84,-421.5 696.84,-418 686.84,-414.5 686.84,-421.5"/>
</g>
<!-- Node33 -->
<g id="node33" class="node">
<title>Node33</title>
<g id="a_node33"><a xlink:href="class_server.html#ac145e9f668db85b10a66829bd2677746" target="_top" xlink:title="Register a connection.">
<polygon fill="none" stroke="black" points="709.5,-446.5 709.5,-465.5 855.5,-465.5 855.5,-446.5 709.5,-446.5"/>
<text text-anchor="middle" x="782.5" y="-453.5" font-family="Helvetica,sans-Serif" font-size="10.00">Server::registerConnection</text>
</a>
</g>
</g>
<!-- Node30&#45;&gt;Node33 -->
<g id="edge34" class="edge">
<title>Node30&#45;&gt;Node33</title>
<path fill="none" stroke="midnightblue" d="M624.97,-427.54C653.54,-432.73 689.08,-439.2 719.07,-444.65"/>
<polygon fill="midnightblue" stroke="midnightblue" points="718.54,-448.11 729.01,-446.46 719.8,-441.22 718.54,-448.11"/>
</g>
<!-- Node32 -->
<g id="node32" class="node">
<title>Node32</title>
<g id="a_node32"><a xlink:href="class_socket_policy.html#a63228ebffc41e3739677715bcd43a477" target="_top" xlink:title="Accept a connection on a socket.">
<polygon fill="none" stroke="black" points="917.5,-403 917.5,-433 1063.5,-433 1063.5,-403 917.5,-403"/>
<text text-anchor="start" x="925.5" y="-421" font-family="Helvetica,sans-Serif" font-size="10.00">SocketPolicy::acceptSingle</text>
<text text-anchor="middle" x="990.5" y="-410" font-family="Helvetica,sans-Serif" font-size="10.00">Connection</text>
</a>
</g>
</g>
<!-- Node31&#45;&gt;Node32 -->
<g id="edge33" class="edge">
<title>Node31&#45;&gt;Node32</title>
<path fill="none" stroke="midnightblue" d="M868.18,-418C881.05,-418 894.32,-418 907.14,-418"/>
<polygon fill="midnightblue" stroke="midnightblue" points="907.31,-421.5 917.31,-418 907.31,-414.5 907.31,-421.5"/>
</g>
<!-- Node33&#45;&gt;Node12 -->
<g id="edge35" class="edge">
<title>Node33&#45;&gt;Node12</title>
<path fill="none" stroke="midnightblue" d="M846.01,-465.61C853.68,-468.06 861.2,-471.14 868,-475 888.23,-486.49 883.76,-501.53 904,-513 907.98,-515.25 912.2,-517.24 916.55,-518.99"/>
<polygon fill="midnightblue" stroke="midnightblue" points="915.66,-522.39 926.26,-522.46 918.02,-515.8 915.66,-522.39"/>
</g>
<!-- Node35 -->
<g id="node35" class="node">
<title>Node35</title>
<g id="a_node35"><a xlink:href="_server_8cpp.html#ac98878a19797a7f939c3a5ea1e028e56" target="_top" xlink:title="Builds the response for a client connection.">
<polygon fill="none" stroke="black" points="919.5,-332.5 919.5,-351.5 1061.5,-351.5 1061.5,-332.5 919.5,-332.5"/>
<text text-anchor="middle" x="990.5" y="-339.5" font-family="Helvetica,sans-Serif" font-size="10.00">connectionBuildResponse</text>
</a>
</g>
</g>
<!-- Node34&#45;&gt;Node35 -->
<g id="edge40" class="edge">
<title>Node34&#45;&gt;Node35</title>
<path fill="none" stroke="midnightblue" d="M623.63,-349.9C694.9,-348.36 824.8,-345.55 909.1,-343.74"/>
<polygon fill="midnightblue" stroke="midnightblue" points="909.22,-347.23 919.14,-343.52 909.07,-340.24 909.22,-347.23"/>
</g>
<!-- Node49 -->
<g id="node38" class="node">
<title>Node49</title>
<g id="a_node38"><a xlink:href="_server_8cpp.html#adcf8118ac987f6afae3aec0c54cc5f9f" target="_top" xlink:title="Sends the response to a client connection.">
<polygon fill="none" stroke="black" points="1113,-294.5 1113,-313.5 1254,-313.5 1254,-294.5 1113,-294.5"/>
<text text-anchor="middle" x="1183.5" y="-301.5" font-family="Helvetica,sans-Serif" font-size="10.00">connectionSendResponse</text>
</a>
</g>
</g>
<!-- Node34&#45;&gt;Node49 -->
<g id="edge60" class="edge">
<title>Node34&#45;&gt;Node49</title>
<path fill="none" stroke="midnightblue" d="M623.68,-346.41C646.17,-344.41 672.89,-342.05 697,-340 788.98,-332.16 811.95,-329.92 904,-323 970.99,-317.96 1047.09,-312.81 1102.79,-309.14"/>
<polygon fill="midnightblue" stroke="midnightblue" points="1103.2,-312.63 1112.95,-308.48 1102.74,-305.64 1103.2,-312.63"/>
</g>
<!-- Node55 -->
<g id="node42" class="node">
<title>Node55</title>
<g id="a_node42"><a xlink:href="_server_8cpp.html#abb21ebec72f9526fbba446f7d566117e" target="_top" xlink:title="Handles a timeout for a client connection.">
<polygon fill="none" stroke="black" points="710,-370.5 710,-389.5 855,-389.5 855,-370.5 710,-370.5"/>
<text text-anchor="middle" x="782.5" y="-377.5" font-family="Helvetica,sans-Serif" font-size="10.00">connectionHandleTimeout</text>
</a>
</g>
</g>
<!-- Node34&#45;&gt;Node55 -->
<g id="edge48" class="edge">
<title>Node34&#45;&gt;Node55</title>
<path fill="none" stroke="midnightblue" d="M623.63,-358.09C647.42,-361.4 676.25,-365.4 702.73,-369.07"/>
<polygon fill="midnightblue" stroke="midnightblue" points="702.37,-372.55 712.75,-370.46 703.33,-365.62 702.37,-372.55"/>
</g>
<!-- Node56 -->
<g id="node43" class="node">
<title>Node56</title>
<g id="a_node43"><a xlink:href="_server_8cpp.html#a3f930db051b00ade521e2633cee948bd" target="_top" xlink:title="Receives the body of a connection.">
<polygon fill="none" stroke="black" points="715.5,-218.5 715.5,-237.5 849.5,-237.5 849.5,-218.5 715.5,-218.5"/>
<text text-anchor="middle" x="782.5" y="-225.5" font-family="Helvetica,sans-Serif" font-size="10.00">connectionReceiveBody</text>
</a>
</g>
</g>
<!-- Node34&#45;&gt;Node56 -->
<g id="edge50" class="edge">
<title>Node34&#45;&gt;Node56</title>
<path fill="none" stroke="midnightblue" d="M623.77,-345.84C636.55,-343.01 649.79,-338.67 661,-332 682.13,-319.43 678.97,-306.71 697,-290 716.09,-272.3 740.23,-255.02 757.82,-243.22"/>
<polygon fill="midnightblue" stroke="midnightblue" points="759.95,-246.01 766.36,-237.57 756.08,-240.17 759.95,-246.01"/>
</g>
<!-- Node63 -->
<g id="node47" class="node">
<title>Node63</title>
<g id="a_node47"><a xlink:href="_server_8cpp.html#a06d0cb066f08d5567ea6ba4ef2897927" target="_top" xlink:title="Receive request header from a client.">
<polygon fill="none" stroke="black" points="710.5,-104.5 710.5,-123.5 854.5,-123.5 854.5,-104.5 710.5,-104.5"/>
<text text-anchor="middle" x="782.5" y="-111.5" font-family="Helvetica,sans-Serif" font-size="10.00">connectionReceiveHeader</text>
</a>
</g>
</g>
<!-- Node34&#45;&gt;Node63 -->
<g id="edge55" class="edge">
<title>Node34&#45;&gt;Node63</title>
<path fill="none" stroke="midnightblue" d="M623.73,-349.35C637.25,-346.6 650.87,-341.41 661,-332 702.72,-293.23 669.4,-258.83 697,-209 714.31,-177.74 743.52,-148.03 762.65,-130.41"/>
<polygon fill="midnightblue" stroke="midnightblue" points="765.09,-132.92 770.17,-123.63 760.4,-127.72 765.09,-132.92"/>
</g>
<!-- Node36 -->
<g id="node36" class="node">
<title>Node36</title>
<g id="a_node36"><a xlink:href="class_server.html#a54550078a1a4dfdc827a1f39c01ca4e4" target="_top" xlink:title="Wrapper function to ResponseBuilder::buildResponse.">
<polygon fill="none" stroke="black" points="1121,-332.5 1121,-351.5 1246,-351.5 1246,-332.5 1121,-332.5"/>
<text text-anchor="middle" x="1183.5" y="-339.5" font-family="Helvetica,sans-Serif" font-size="10.00">Server::buildResponse</text>
</a>
</g>
</g>
<!-- Node35&#45;&gt;Node36 -->
<g id="edge41" class="edge">
<title>Node35&#45;&gt;Node36</title>
<path fill="none" stroke="midnightblue" d="M1061.54,-342C1077.52,-342 1094.53,-342 1110.59,-342"/>
<polygon fill="midnightblue" stroke="midnightblue" points="1110.98,-345.5 1120.98,-342 1110.98,-338.5 1110.98,-345.5"/>
</g>
<!-- Node35&#45;&gt;Node49 -->
<g id="edge43" class="edge">
<title>Node35&#45;&gt;Node49</title>
<path fill="none" stroke="midnightblue" d="M1039.7,-332.41C1065.47,-327.28 1097.39,-320.93 1124.51,-315.54"/>
<polygon fill="midnightblue" stroke="midnightblue" points="1125.52,-318.9 1134.65,-313.52 1124.16,-312.04 1125.52,-318.9"/>
</g>
<!-- Node53 -->
<g id="node41" class="node">
<title>Node53</title>
<g id="a_node41"><a xlink:href="class_server.html#a718bf76e7c3f830abb2f7b0972cdaa63" target="_top" xlink:title="Wrapper function to ResponseBuilder::getResponse.">
<polygon fill="none" stroke="red" points="1125,-370.5 1125,-389.5 1242,-389.5 1242,-370.5 1125,-370.5"/>
<text text-anchor="middle" x="1183.5" y="-377.5" font-family="Helvetica,sans-Serif" font-size="10.00">Server::getResponse</text>
</a>
</g>
</g>
<!-- Node35&#45;&gt;Node53 -->
<g id="edge47" class="edge">
<title>Node35&#45;&gt;Node53</title>
<path fill="none" stroke="midnightblue" d="M1039.7,-351.59C1065.47,-356.72 1097.39,-363.07 1124.51,-368.46"/>
<polygon fill="midnightblue" stroke="midnightblue" points="1124.16,-371.96 1134.65,-370.48 1125.52,-365.1 1124.16,-371.96"/>
</g>
<!-- Node37 -->
<g id="node37" class="node">
<title>Node37</title>
<g id="a_node37"><a xlink:href="class_response_builder.html#a168279f2329e9055e3aa38f08f67c26f" target="_top" xlink:title="Build the response for a given request.">
<polygon fill="none" stroke="red" points="1290,-332.5 1290,-351.5 1466,-351.5 1466,-332.5 1290,-332.5"/>
<text text-anchor="middle" x="1378" y="-339.5" font-family="Helvetica,sans-Serif" font-size="10.00">ResponseBuilder::buildResponse</text>
</a>
</g>
</g>
<!-- Node36&#45;&gt;Node37 -->
<g id="edge42" class="edge">
<title>Node36&#45;&gt;Node37</title>
<path fill="none" stroke="midnightblue" d="M1246.2,-342C1256.92,-342 1268.3,-342 1279.69,-342"/>
<polygon fill="midnightblue" stroke="midnightblue" points="1279.69,-345.5 1289.69,-342 1279.69,-338.5 1279.69,-345.5"/>
</g>
<!-- Node49&#45;&gt;Node25 -->
<g id="edge45" class="edge">
<title>Node49&#45;&gt;Node25</title>
<path fill="none" stroke="midnightblue" d="M1194.31,-294.32C1225.07,-263.96 1319.91,-170.35 1359.43,-131.34"/>
<polygon fill="midnightblue" stroke="midnightblue" points="1362.32,-133.41 1366.98,-123.89 1357.4,-128.43 1362.32,-133.41"/>
</g>
<!-- Node50 -->
<g id="node39" class="node">
<title>Node50</title>
<g id="a_node39"><a xlink:href="_connection_8hpp.html#a5cde791aba7932d764243fd191c0d1bb" target="_top" xlink:title=" ">
<polygon fill="none" stroke="black" points="1330.5,-256.5 1330.5,-275.5 1425.5,-275.5 1425.5,-256.5 1330.5,-256.5"/>
<text text-anchor="middle" x="1378" y="-263.5" font-family="Helvetica,sans-Serif" font-size="10.00">clearConnection</text>
</a>
</g>
</g>
<!-- Node49&#45;&gt;Node50 -->
<g id="edge44" class="edge">
<title>Node49&#45;&gt;Node50</title>
<path fill="none" stroke="midnightblue" d="M1233.08,-294.41C1259.66,-289.16 1292.74,-282.63 1320.48,-277.16"/>
<polygon fill="midnightblue" stroke="midnightblue" points="1321.3,-280.56 1330.43,-275.19 1319.94,-273.7 1321.3,-280.56"/>
</g>
<!-- Node51 -->
<g id="node40" class="node">
<title>Node51</title>
<g id="a_node40"><a xlink:href="class_server.html#a8bf2a41e8ddcccd54b5832b58211a283" target="_top" xlink:title="Wrapper function to SocketPolicy::writeToSocket.">
<polygon fill="none" stroke="red" points="1317,-294.5 1317,-313.5 1439,-313.5 1439,-294.5 1317,-294.5"/>
<text text-anchor="middle" x="1378" y="-301.5" font-family="Helvetica,sans-Serif" font-size="10.00">Server::writeToSocket</text>
</a>
</g>
</g>
<!-- Node49&#45;&gt;Node51 -->
<g id="edge46" class="edge">
<title>Node49&#45;&gt;Node51</title>
<path fill="none" stroke="midnightblue" d="M1254.27,-304C1271.29,-304 1289.5,-304 1306.56,-304"/>
<polygon fill="midnightblue" stroke="midnightblue" points="1307,-307.5 1317,-304 1307,-300.5 1307,-307.5"/>
</g>
<!-- Node55&#45;&gt;Node35 -->
<g id="edge49" class="edge">
<title>Node55&#45;&gt;Node35</title>
<path fill="none" stroke="midnightblue" d="M835.22,-370.46C863.26,-365.29 898.1,-358.86 927.58,-353.42"/>
<polygon fill="midnightblue" stroke="midnightblue" points="928.56,-356.8 937.76,-351.54 927.29,-349.92 928.56,-356.8"/>
</g>
<!-- Node56&#45;&gt;Node25 -->
<g id="edge52" class="edge">
<title>Node56&#45;&gt;Node25</title>
<path fill="none" stroke="midnightblue" d="M833.08,-218.48C941.63,-197.63 1199.98,-148 1317.26,-125.48"/>
<polygon fill="midnightblue" stroke="midnightblue" points="1317.98,-128.9 1327.14,-123.58 1316.66,-122.03 1317.98,-128.9"/>
</g>
<!-- Node57 -->
<g id="node44" class="node">
<title>Node57</title>
<g id="a_node44"><a xlink:href="_server_8cpp.html#a14a0c5a1227276017a19d9b52141c13a" target="_top" xlink:title="Checks if the HTTP request body has been completely received.">
<polygon fill="none" stroke="black" points="942,-256.5 942,-275.5 1039,-275.5 1039,-256.5 942,-256.5"/>
<text text-anchor="middle" x="990.5" y="-263.5" font-family="Helvetica,sans-Serif" font-size="10.00">isCompleteBody</text>
</a>
</g>
</g>
<!-- Node56&#45;&gt;Node57 -->
<g id="edge51" class="edge">
<title>Node56&#45;&gt;Node57</title>
<path fill="none" stroke="midnightblue" d="M835.22,-237.54C864.66,-242.97 901.62,-249.79 931.98,-255.39"/>
<polygon fill="midnightblue" stroke="midnightblue" points="931.53,-258.87 942,-257.24 932.8,-251.98 931.53,-258.87"/>
</g>
<!-- Node58 -->
<g id="node45" class="node">
<title>Node58</title>
<g id="a_node45"><a xlink:href="class_server.html#ace46f4e07ab67db60e3790a32b2e8e0a" target="_top" xlink:title="Wrapper function to RequestParser::parseBody.">
<polygon fill="none" stroke="red" points="937.5,-218.5 937.5,-237.5 1043.5,-237.5 1043.5,-218.5 937.5,-218.5"/>
<text text-anchor="middle" x="990.5" y="-225.5" font-family="Helvetica,sans-Serif" font-size="10.00">Server::parseBody</text>
</a>
</g>
</g>
<!-- Node56&#45;&gt;Node58 -->
<g id="edge53" class="edge">
<title>Node56&#45;&gt;Node58</title>
<path fill="none" stroke="midnightblue" d="M849.53,-228C874.35,-228 902.46,-228 926.95,-228"/>
<polygon fill="midnightblue" stroke="midnightblue" points="927.21,-231.5 937.21,-228 927.21,-224.5 927.21,-231.5"/>
</g>
<!-- Node61 -->
<g id="node46" class="node">
<title>Node61</title>
<g id="a_node46"><a xlink:href="class_server.html#ae94e3d4b5743580a6fbe3228d58af423" target="_top" xlink:title="Wrapper function to SocketPolicy::readFromSocket.">
<polygon fill="none" stroke="red" points="924,-142.5 924,-161.5 1057,-161.5 1057,-142.5 924,-142.5"/>
<text text-anchor="middle" x="990.5" y="-149.5" font-family="Helvetica,sans-Serif" font-size="10.00">Server::readFromSocket</text>
</a>
</g>
</g>
<!-- Node56&#45;&gt;Node61 -->
<g id="edge54" class="edge">
<title>Node56&#45;&gt;Node61</title>
<path fill="none" stroke="midnightblue" d="M803.64,-218.32C827.3,-207.18 867.92,-188.78 904,-176 916.04,-171.73 929.24,-167.72 941.59,-164.23"/>
<polygon fill="midnightblue" stroke="midnightblue" points="942.57,-167.59 951.28,-161.56 940.71,-160.84 942.57,-167.59"/>
</g>
<!-- Node63&#45;&gt;Node25 -->
<g id="edge57" class="edge">
<title>Node63&#45;&gt;Node25</title>
<path fill="none" stroke="midnightblue" d="M798.31,-104.33C820.29,-90.6 863.36,-66.13 904,-57 1064.39,-20.98 1260.84,-75.24 1340.68,-101.32"/>
<polygon fill="midnightblue" stroke="midnightblue" points="1339.68,-104.67 1350.27,-104.5 1341.88,-98.03 1339.68,-104.67"/>
</g>
<!-- Node63&#45;&gt;Node61 -->
<g id="edge59" class="edge">
<title>Node63&#45;&gt;Node61</title>
<path fill="none" stroke="midnightblue" d="M835.22,-123.54C863.26,-128.71 898.1,-135.14 927.58,-140.58"/>
<polygon fill="midnightblue" stroke="midnightblue" points="927.29,-144.08 937.76,-142.46 928.56,-137.2 927.29,-144.08"/>
</g>
<!-- Node64 -->
<g id="node48" class="node">
<title>Node64</title>
<g id="a_node48"><a xlink:href="_server_8cpp.html#a172c400277e73261d212c33f66226090" target="_top" xlink:title="Checks if the connection buffer contains a request header.">
<polygon fill="none" stroke="black" points="917,-66.5 917,-85.5 1064,-85.5 1064,-66.5 917,-66.5"/>
<text text-anchor="middle" x="990.5" y="-73.5" font-family="Helvetica,sans-Serif" font-size="10.00">isCompleteRequestHeader</text>
</a>
</g>
</g>
<!-- Node63&#45;&gt;Node64 -->
<g id="edge56" class="edge">
<title>Node63&#45;&gt;Node64</title>
<path fill="none" stroke="midnightblue" d="M835.22,-104.46C863.26,-99.29 898.1,-92.86 927.58,-87.42"/>
<polygon fill="midnightblue" stroke="midnightblue" points="928.56,-90.8 937.76,-85.54 927.29,-83.92 928.56,-90.8"/>
</g>
<!-- Node65 -->
<g id="node49" class="node">
<title>Node65</title>
<g id="a_node49"><a xlink:href="class_server.html#a34bc61299318fe1918293b1d656ee5f9" target="_top" xlink:title="Wrapper function to RequestParser::parseHeader.">
<polygon fill="none" stroke="red" points="932.5,-104.5 932.5,-123.5 1048.5,-123.5 1048.5,-104.5 932.5,-104.5"/>
<text text-anchor="middle" x="990.5" y="-111.5" font-family="Helvetica,sans-Serif" font-size="10.00">Server::parseHeader</text>
</a>
</g>
</g>
<!-- Node63&#45;&gt;Node65 -->
<g id="edge58" class="edge">
<title>Node63&#45;&gt;Node65</title>
<path fill="none" stroke="midnightblue" d="M854.68,-114C876.57,-114 900.58,-114 922.2,-114"/>
<polygon fill="midnightblue" stroke="midnightblue" points="922.27,-117.5 932.27,-114 922.27,-110.5 922.27,-117.5"/>
</g>
</g>
</svg>
