<?xml version="1.0" encoding="UTF-8" standalone="no"?>
<!DOCTYPE svg PUBLIC "-//W3C//DTD SVG 1.1//EN"
 "http://www.w3.org/Graphics/SVG/1.1/DTD/svg11.dtd">
<!-- Generated by graphviz version 2.43.0 (0)
 -->
<!-- Title: main Pages: 1 -->
<!--zoomable 486 -->

<svg id="main" version="1.1" xmlns="http://www.w3.org/2000/svg" xmlns:xlink="http://www.w3.org/1999/xlink" xml:space="preserve" onload="init(evt)">
<style type="text/css"><![CDATA[
.node, .edge {opacity: 0.7;}
.node.selected, .edge.selected {opacity: 1;}
.edge:hover path { stroke: red; }
.edge:hover polygon { stroke: red; fill: red; }
]]></style>

<defs>
  <circle id="rim" cx="0" cy="0" r="7"/>
  <circle id="rim2" cx="0" cy="0" r="3.5"/>
  <g id="zoomPlus">
    <use xlink:href="#rim" fill="#404040"><set attributeName="fill" to="#808080" begin="zoomplus.mouseover" end="zoomplus.mouseout"/></use>
    <path d="M-4,0h8M0,-4v8" fill="none" stroke="white" stroke-width="1.5" pointer-events="none"/>
  </g>
  <g id="zoomMin">
    <use xlink:href="#rim" fill="#404040"><set attributeName="fill" to="#808080" begin="zoomminus.mouseover" end="zoomminus.mouseout"/></use>
    <path d="M-4,0h8" fill="none" stroke="white" stroke-width="1.5" pointer-events="none"/>
  </g>
  <g id="arrowUp" transform="translate(30 24)">
    <use xlink:href="#rim"/>
    <path pointer-events="none" fill="none" stroke="white" stroke-width="1.5" d="M0,-3.0v7 M-2.5,-0.5L0,-3.0L2.5,-0.5"/>
  </g>
  <g id="arrowRight" transform="rotate(90) translate(36 -43)">
    <use xlink:href="#rim"/>
    <path pointer-events="none" fill="none" stroke="white" stroke-width="1.5" d="M0,-3.0v7 M-2.5,-0.5L0,-3.0L2.5,-0.5"/>
  </g>
  <g id="arrowDown" transform="rotate(180) translate(-30 -48)">
    <use xlink:href="#rim"/>
    <path pointer-events="none" fill="none" stroke="white" stroke-width="1.5" d="M0,-3.0v7 M-2.5,-0.5L0,-3.0L2.5,-0.5"/>
  </g>
  <g id="arrowLeft" transform="rotate(270) translate(-36 17)">
    <use xlink:href="#rim"/>
    <path pointer-events="none" fill="none" stroke="white" stroke-width="1.5" d="M0,-3.0v7 M-2.5,-0.5L0,-3.0L2.5,-0.5"/>
  </g>
  <g id="resetDef">
    <use xlink:href="#rim2" fill="#404040"><set attributeName="fill" to="#808080" begin="reset.mouseover" end="reset.mouseout"/></use>
  </g>
</defs>
<script type="application/ecmascript">
var viewWidth = 1812;
var viewHeight = 486;
var sectionId = 'dynsection-1';
</script>
<script type="application/ecmascript" xlink:href="svg.min.js"/>
<svg id="graph" class="graph">
<g id="viewport">
<title>main</title>
<!-- Node1 -->
<g id="Node000001" class="node">
<title>Node1</title>
<g id="a_Node000001"><a xlink:title=" ">
<polygon fill="#999999" stroke="#666666" points="41,-384.85 0,-384.85 0,-365.85 41,-365.85 41,-384.85"/>
<text text-anchor="middle" x="20.5" y="-372.85" font-family="Helvetica,sans-Serif" font-size="10.00">main</text>
</a>
</g>
</g>
<!-- Node2 -->
<g id="Node000002" class="node">
<title>Node2</title>
<g id="a_Node000002"><a xlink:href="class_server.html#a54745950beb9e321d9a56084501c18e9" target="_top" xlink:title="Const Getter for server configs.">
<polygon fill="white" stroke="#666666" points="233.5,-477.85 96.5,-477.85 96.5,-458.85 233.5,-458.85 233.5,-477.85"/>
<text text-anchor="middle" x="165" y="-465.85" font-family="Helvetica,sans-Serif" font-size="10.00">Server::getServerConfigs</text>
</a>
</g>
</g>
<!-- Node1&#45;&gt;Node2 -->
<g id="edge1_Node000001_Node000002" class="edge">
<title>Node1&#45;&gt;Node2</title>
<g id="a_edge1_Node000001_Node000002"><a xlink:title=" ">
<path fill="none" stroke="#63b8ff" d="M25.74,-384.94C33.44,-401.19 51.34,-433.94 77,-450.35 80.18,-452.38 83.54,-454.19 87.02,-455.79"/>
<polygon fill="#63b8ff" stroke="#63b8ff" points="85.9,-459.12 96.48,-459.6 88.51,-452.62 85.9,-459.12"/>
</a>
</g>
</g>
<!-- Node3 -->
<g id="Node000003" class="node">
<title>Node3</title>
<g id="a_Node000003"><a xlink:href="namespaceweblog.html#a23e11f7efdebde689d1fa3b697e3ff4a" target="_top" xlink:title="Initialize the Logger object with a log level and a console outputter.">
<polygon fill="white" stroke="#666666" points="221.5,-440.85 108.5,-440.85 108.5,-421.85 221.5,-421.85 221.5,-440.85"/>
<text text-anchor="middle" x="165" y="-428.85" font-family="Helvetica,sans-Serif" font-size="10.00">weblog::initConsole</text>
</a>
</g>
</g>
<!-- Node1&#45;&gt;Node3 -->
<g id="edge2_Node000001_Node000003" class="edge">
<title>Node1&#45;&gt;Node3</title>
<g id="a_edge2_Node000001_Node000003"><a xlink:title=" ">
<path fill="none" stroke="#63b8ff" d="M32.62,-384.95C43.29,-393.67 60.24,-406.22 77,-413.35 83.73,-416.21 90.96,-418.63 98.26,-420.68"/>
<polygon fill="#63b8ff" stroke="#63b8ff" points="97.67,-424.14 108.23,-423.24 99.41,-417.36 97.67,-424.14"/>
</a>
</g>
</g>
<!-- Node7 -->
<g id="Node000007" class="node">
<title>Node7</title>
<g id="a_Node000007"><a xlink:href="_server_8cpp.html#a35359f61d42dbd6561a07c12009ca45a" target="_top" xlink:title="Initialize virtual servers.">
<polygon fill="white" stroke="#666666" points="215.5,-403.85 114.5,-403.85 114.5,-384.85 215.5,-384.85 215.5,-403.85"/>
<text text-anchor="middle" x="165" y="-391.85" font-family="Helvetica,sans-Serif" font-size="10.00">initVirtualServers</text>
</a>
</g>
</g>
<!-- Node1&#45;&gt;Node7 -->
<g id="edge6_Node000001_Node000007" class="edge">
<title>Node1&#45;&gt;Node7</title>
<g id="a_edge6_Node000001_Node000007"><a xlink:title=" ">
<path fill="none" stroke="#63b8ff" d="M41.02,-377.95C57.42,-380.14 81.75,-383.38 104.46,-386.41"/>
<polygon fill="#63b8ff" stroke="#63b8ff" points="104.02,-389.88 114.4,-387.74 104.95,-382.94 104.02,-389.88"/>
</a>
</g>
</g>
<!-- Node10 -->
<g id="Node000010" class="node">
<title>Node10</title>
<g id="a_Node000010"><a xlink:href="class_config_file_parser.html#adfa2bf960814acd72729a07539bacfb3" target="_top" xlink:title="Parses the config file into a ConfigFile object and returns this object.">
<polygon fill="white" stroke="#666666" points="253,-366.85 77,-366.85 77,-347.85 253,-347.85 253,-366.85"/>
<text text-anchor="middle" x="165" y="-354.85" font-family="Helvetica,sans-Serif" font-size="10.00">ConfigFileParser::parseConfigFile</text>
</a>
</g>
</g>
<!-- Node1&#45;&gt;Node10 -->
<g id="edge9_Node000001_Node000010" class="edge">
<title>Node1&#45;&gt;Node10</title>
<g id="a_edge9_Node000001_Node000010"><a xlink:title=" ">
<path fill="none" stroke="#63b8ff" d="M41.02,-372.88C51.2,-371.6 64.44,-369.93 78.45,-368.16"/>
<polygon fill="#63b8ff" stroke="#63b8ff" points="79.27,-371.58 88.75,-366.85 78.39,-364.63 79.27,-371.58"/>
</a>
</g>
</g>
<!-- Node11 -->
<g id="Node000011" class="node">
<title>Node11</title>
<g id="a_Node000011"><a xlink:href="signal_handler_8cpp.html#ad723d357ed40515ec5e6f88365b469ec" target="_top" xlink:title="Registers signals to the signal handler.">
<polygon fill="white" stroke="#666666" points="209.5,-329.85 120.5,-329.85 120.5,-310.85 209.5,-310.85 209.5,-329.85"/>
<text text-anchor="middle" x="165" y="-317.85" font-family="Helvetica,sans-Serif" font-size="10.00">registerSignals</text>
</a>
</g>
</g>
<!-- Node1&#45;&gt;Node11 -->
<g id="edge10_Node000001_Node000011" class="edge">
<title>Node1&#45;&gt;Node11</title>
<g id="a_edge10_Node000001_Node000011"><a xlink:title=" ">
<path fill="none" stroke="#63b8ff" d="M33.56,-365.68C44.34,-357.5 60.89,-346.07 77,-339.35 87.38,-335.02 98.88,-331.62 110.03,-328.96"/>
<polygon fill="#63b8ff" stroke="#63b8ff" points="111.12,-332.31 120.13,-326.73 109.61,-325.47 111.12,-332.31"/>
</a>
</g>
</g>
<!-- Node15 -->
<g id="Node000015" class="node">
<title>Node15</title>
<g id="a_Node000015"><a xlink:href="_server_8cpp.html#ab66b27c2186daacb15a6b13dd43be31b" target="_top" xlink:title="Runs the main event loop with a server object.">
<polygon fill="white" stroke="#666666" points="197,-233.85 133,-233.85 133,-214.85 197,-214.85 197,-233.85"/>
<text text-anchor="middle" x="165" y="-221.85" font-family="Helvetica,sans-Serif" font-size="10.00">runServer</text>
</a>
</g>
</g>
<!-- Node1&#45;&gt;Node15 -->
<g id="edge14_Node000001_Node000015" class="edge">
<title>Node1&#45;&gt;Node15</title>
<g id="a_edge14_Node000001_Node000015"><a xlink:title=" ">
<path fill="none" stroke="#63b8ff" d="M27.76,-365.76C37.49,-351.17 57.19,-322.84 77,-301.35 98.03,-278.54 125.2,-255.34 143.54,-240.45"/>
<polygon fill="#63b8ff" stroke="#63b8ff" points="146.16,-242.84 151.77,-233.85 141.78,-237.38 146.16,-242.84"/>
</a>
</g>
</g>
<!-- Node4 -->
<g id="Node000004" class="node">
<title>Node4</title>
<g id="a_Node000004"><a xlink:href="classweblog_1_1_logger.html#a81b70a098987f205c6e3cb60a7f04536" target="_top" xlink:title="Initialize the Logger object with a log level and an outputter.">
<polygon fill="white" stroke="#666666" points="402,-459.85 289,-459.85 289,-440.85 402,-440.85 402,-459.85"/>
<text text-anchor="middle" x="345.5" y="-447.85" font-family="Helvetica,sans-Serif" font-size="10.00">weblog::Logger::init</text>
</a>
</g>
</g>
<!-- Node3&#45;&gt;Node4 -->
<g id="edge3_Node000003_Node000004" class="edge">
<title>Node3&#45;&gt;Node4</title>
<g id="a_edge3_Node000003_Node000004"><a xlink:title=" ">
<path fill="none" stroke="#63b8ff" d="M221.5,-437.26C239.63,-439.19 259.94,-441.35 278.75,-443.35"/>
<polygon fill="#63b8ff" stroke="#63b8ff" points="278.41,-446.83 288.73,-444.41 279.15,-439.87 278.41,-446.83"/>
</a>
</g>
</g>
<!-- Node5 -->
<g id="Node000005" class="node">
<title>Node5</title>
<g id="a_Node000005"><a xlink:href="classweblog_1_1_logger.html#a3681dadbda75522f60e499b56a0e03a7" target="_top" xlink:title="Add a log outputter to the Logger object.">
<polygon fill="white" stroke="#666666" points="617,-440.85 438,-440.85 438,-421.85 617,-421.85 617,-440.85"/>
<text text-anchor="middle" x="527.5" y="-428.85" font-family="Helvetica,sans-Serif" font-size="10.00">weblog::Logger::addLogOutputter</text>
</a>
</g>
</g>
<!-- Node4&#45;&gt;Node5 -->
<g id="edge4_Node000004_Node000005" class="edge">
<title>Node4&#45;&gt;Node5</title>
<g id="a_edge4_Node000004_Node000005"><a xlink:title=" ">
<path fill="none" stroke="#63b8ff" d="M402.47,-444.44C410.55,-443.59 419.07,-442.69 427.69,-441.78"/>
<polygon fill="#63b8ff" stroke="#63b8ff" points="428.27,-445.24 437.85,-440.71 427.53,-438.28 428.27,-445.24"/>
</a>
</g>
</g>
<!-- Node6 -->
<g id="Node000006" class="node">
<title>Node6</title>
<g id="a_Node000006"><a xlink:href="classweblog_1_1_logger.html#aa4282982ae356ca9836cdebe86873c64" target="_top" xlink:title="Set the log level of the Logger object.">
<polygon fill="white" stroke="#666666" points="596.5,-477.85 458.5,-477.85 458.5,-458.85 596.5,-458.85 596.5,-477.85"/>
<text text-anchor="middle" x="527.5" y="-465.85" font-family="Helvetica,sans-Serif" font-size="10.00">weblog::Logger::setLevel</text>
</a>
</g>
</g>
<!-- Node4&#45;&gt;Node6 -->
<g id="edge5_Node000004_Node000006" class="edge">
<title>Node4&#45;&gt;Node6</title>
<g id="a_edge5_Node000004_Node000006"><a xlink:title=" ">
<path fill="none" stroke="#63b8ff" d="M402.47,-455.95C416.94,-457.39 432.8,-458.98 448.19,-460.52"/>
<polygon fill="#63b8ff" stroke="#63b8ff" points="447.92,-464.01 458.22,-461.52 448.61,-457.04 447.92,-464.01"/>
</a>
</g>
</g>
<!-- Node8 -->
<g id="Node000008" class="node">
<title>Node8</title>
<g id="a_Node000008"><a xlink:href="_server_8cpp.html#aa6ca6a0179cbb661c05aa6b2758f5389" target="_top" xlink:title="Creates a new virtual server and registers it with the server object.">
<polygon fill="white" stroke="#666666" points="401,-385.85 290,-385.85 290,-366.85 401,-366.85 401,-385.85"/>
<text text-anchor="middle" x="345.5" y="-373.85" font-family="Helvetica,sans-Serif" font-size="10.00">createVirtualServer</text>
</a>
</g>
</g>
<!-- Node7&#45;&gt;Node8 -->
<g id="edge7_Node000007_Node000008" class="edge">
<title>Node7&#45;&gt;Node8</title>
<g id="a_edge7_Node000007_Node000008"><a xlink:title=" ">
<path fill="none" stroke="#63b8ff" d="M215.72,-389.34C235.49,-387.34 258.5,-385.02 279.56,-382.9"/>
<polygon fill="#63b8ff" stroke="#63b8ff" points="280.12,-386.36 289.72,-381.87 279.42,-379.39 280.12,-386.36"/>
</a>
</g>
</g>
<!-- Node9 -->
<g id="Node000009" class="node">
<title>Node9</title>
<g id="a_Node000009"><a xlink:href="_server_8cpp.html#a4f6456b9a16154a6d320ae8b370285d6" target="_top" xlink:title="Check for duplicate virtual servers.">
<polygon fill="white" stroke="#666666" points="397,-422.85 294,-422.85 294,-403.85 397,-403.85 397,-422.85"/>
<text text-anchor="middle" x="345.5" y="-410.85" font-family="Helvetica,sans-Serif" font-size="10.00">isDuplicateServer</text>
</a>
</g>
</g>
<!-- Node7&#45;&gt;Node9 -->
<g id="edge8_Node000007_Node000009" class="edge">
<title>Node7&#45;&gt;Node9</title>
<g id="a_edge8_Node000007_Node000009"><a xlink:title=" ">
<path fill="none" stroke="#63b8ff" d="M215.72,-399.64C236.83,-401.89 261.64,-404.53 283.82,-406.89"/>
<polygon fill="#63b8ff" stroke="#63b8ff" points="283.49,-410.37 293.8,-407.95 284.23,-403.41 283.49,-410.37"/>
</a>
</g>
</g>
<!-- Node12 -->
<g id="Node000012" class="node">
<title>Node12</title>
<g id="a_Node000012"><a xlink:href="signal_handler_8cpp.html#ad2e59c7203b3bddc1bc9a2224b52e8e7" target="_top" xlink:title="Simple signal handler that sets the global variable g_signalStatus to the signal number.">
<polygon fill="white" stroke="#666666" points="387.5,-309.85 303.5,-309.85 303.5,-290.85 387.5,-290.85 387.5,-309.85"/>
<text text-anchor="middle" x="345.5" y="-297.85" font-family="Helvetica,sans-Serif" font-size="10.00">signalHandler</text>
</a>
</g>
</g>
<!-- Node11&#45;&gt;Node12 -->
<g id="edge11_Node000011_Node000012" class="edge">
<title>Node11&#45;&gt;Node12</title>
<g id="a_edge11_Node000011_Node000012"><a xlink:title=" ">
<path fill="none" stroke="#63b8ff" d="M209.67,-315.46C234.91,-312.63 266.79,-309.06 293.22,-306.09"/>
<polygon fill="#63b8ff" stroke="#63b8ff" points="293.88,-309.54 303.43,-304.95 293.1,-302.59 293.88,-309.54"/>
</a>
</g>
</g>
<!-- Node13 -->
<g id="Node000013" class="node">
<title>Node13</title>
<g id="a_Node000013"><a xlink:href="signal_handler_8cpp.html#adc4193659d5893030190dca46c276ac7" target="_top" xlink:title="Converts a signal number to its name.">
<polygon fill="white" stroke="#666666" points="1125.5,-271.85 1016.5,-271.85 1016.5,-252.85 1125.5,-252.85 1125.5,-271.85"/>
<text text-anchor="middle" x="1071" y="-259.85" font-family="Helvetica,sans-Serif" font-size="10.00">signalNumToName</text>
</a>
</g>
</g>
<!-- Node11&#45;&gt;Node13 -->
<g id="edge12_Node000011_Node000013" class="edge">
<title>Node11&#45;&gt;Node13</title>
<g id="a_edge12_Node000011_Node000013"><a xlink:title=" ">
<path fill="none" stroke="#63b8ff" d="M209.53,-323.93C277.25,-329.18 411.98,-338.35 526.5,-338.35 526.5,-338.35 526.5,-338.35 708.5,-338.35 829.64,-338.35 968.83,-296.97 1033.48,-275.28"/>
<polygon fill="#63b8ff" stroke="#63b8ff" points="1034.85,-278.51 1043.2,-271.97 1032.6,-271.88 1034.85,-278.51"/>
</a>
</g>
</g>
<!-- Node14 -->
<g id="Node000014" class="node">
<title>Node14</title>
<g id="a_Node000014"><a xlink:href="namespacewebutils.html#afd1710fd588c15830d10aef146da8ddb" target="_top" xlink:title="Convert a type to a string.">
<polygon fill="white" stroke="#666666" points="1314.5,-271.85 1212.5,-271.85 1212.5,-252.85 1314.5,-252.85 1314.5,-271.85"/>
<text text-anchor="middle" x="1263.5" y="-259.85" font-family="Helvetica,sans-Serif" font-size="10.00">webutils::toString</text>
</a>
</g>
</g>
<!-- Node13&#45;&gt;Node14 -->
<g id="edge13_Node000013_Node000014" class="edge">
<title>Node13&#45;&gt;Node14</title>
<g id="a_edge13_Node000013_Node000014"><a xlink:title=" ">
<path fill="none" stroke="#63b8ff" d="M1125.57,-262.35C1149.36,-262.35 1177.46,-262.35 1202,-262.35"/>
<polygon fill="#63b8ff" stroke="#63b8ff" points="1202.27,-265.85 1212.27,-262.35 1202.27,-258.85 1202.27,-265.85"/>
</a>
</g>
</g>
<!-- Node15&#45;&gt;Node13 -->
<g id="edge42_Node000015_Node000013" class="edge">
<title>Node15&#45;&gt;Node13</title>
<g id="a_edge42_Node000015_Node000013"><a xlink:title=" ">
<path fill="none" stroke="#63b8ff" d="M197.23,-229.87C259.59,-240.41 404.09,-262.35 526.5,-262.35 526.5,-262.35 526.5,-262.35 708.5,-262.35 812.73,-262.35 933.87,-262.35 1006.11,-262.35"/>
<polygon fill="#63b8ff" stroke="#63b8ff" points="1006.41,-265.85 1016.41,-262.35 1006.41,-258.85 1006.41,-265.85"/>
</a>
</g>
</g>
<!-- Node16 -->
<g id="Node000016" class="node">
<title>Node16</title>
<g id="a_Node000016"><a xlink:href="_server_8cpp.html#a28fd29ec48bd9459c678980cfccca4cf" target="_top" xlink:title="Iterates through all connections and checks if any have timed out.">
<polygon fill="white" stroke="#666666" points="578,-233.85 477,-233.85 477,-214.85 578,-214.85 578,-233.85"/>
<text text-anchor="middle" x="527.5" y="-221.85" font-family="Helvetica,sans-Serif" font-size="10.00">checkForTimeout</text>
</a>
</g>
</g>
<!-- Node15&#45;&gt;Node16 -->
<g id="edge15_Node000015_Node000016" class="edge">
<title>Node15&#45;&gt;Node16</title>
<g id="a_edge15_Node000015_Node000016"><a xlink:title=" ">
<path fill="none" stroke="#63b8ff" d="M197.05,-224.35C256.95,-224.35 389.4,-224.35 466.88,-224.35"/>
<polygon fill="#63b8ff" stroke="#63b8ff" points="466.97,-227.85 476.97,-224.35 466.97,-220.85 466.97,-227.85"/>
</a>
</g>
</g>
<!-- Node17 -->
<g id="Node000017" class="node">
<title>Node17</title>
<g id="a_Node000017"><a xlink:href="_server_8cpp.html#af9f4479a6262c17deef89938118d27f4" target="_top" xlink:title="Accepts new connections or handles existing ones.">
<polygon fill="white" stroke="#666666" points="566,-157.85 489,-157.85 489,-138.85 566,-138.85 566,-157.85"/>
<text text-anchor="middle" x="527.5" y="-145.85" font-family="Helvetica,sans-Serif" font-size="10.00">handleEvent</text>
</a>
</g>
</g>
<!-- Node15&#45;&gt;Node17 -->
<g id="edge16_Node000015_Node000017" class="edge">
<title>Node15&#45;&gt;Node17</title>
<g id="a_edge16_Node000015_Node000017"><a xlink:title=" ">
<path fill="none" stroke="#63b8ff" d="M182.01,-214.66C204.84,-201.39 248.48,-177.99 289,-167.35 353.11,-150.51 430.01,-147.31 478.58,-147.27"/>
<polygon fill="#63b8ff" stroke="#63b8ff" points="478.78,-150.77 488.79,-147.3 478.81,-143.77 478.78,-150.77"/>
</a>
</g>
</g>
<!-- Node34 -->
<g id="Node000034" class="node">
<title>Node34</title>
<g id="a_Node000034"><a xlink:href="_server_8cpp.html#a115ecd76e344c1007bedc48b9bbdc0fa" target="_top" xlink:title="Performs a graceful shutdown of the server.">
<polygon fill="white" stroke="#666666" points="393,-195.85 298,-195.85 298,-176.85 393,-176.85 393,-195.85"/>
<text text-anchor="middle" x="345.5" y="-183.85" font-family="Helvetica,sans-Serif" font-size="10.00">shutdownServer</text>
</a>
</g>
</g>
<!-- Node15&#45;&gt;Node34 -->
<g id="edge38_Node000015_Node000034" class="edge">
<title>Node15&#45;&gt;Node34</title>
<g id="a_edge38_Node000015_Node000034"><a xlink:title=" ">
<path fill="none" stroke="#63b8ff" d="M197.09,-217.73C222.58,-212.3 259.27,-204.49 289.67,-198.02"/>
<polygon fill="#63b8ff" stroke="#63b8ff" points="290.66,-201.39 299.72,-195.88 289.21,-194.54 290.66,-201.39"/>
</a>
</g>
</g>
<!-- Node18 -->
<g id="Node000018" class="node">
<title>Node18</title>
<g id="a_Node000018"><a xlink:href="_server_8cpp.html#adb579f3d67061d752e882e6fb3ef6f18" target="_top" xlink:title="Accept new connections.">
<polygon fill="white" stroke="#666666" points="762,-158.85 653,-158.85 653,-139.85 762,-139.85 762,-158.85"/>
<text text-anchor="middle" x="707.5" y="-146.85" font-family="Helvetica,sans-Serif" font-size="10.00">acceptConnections</text>
</a>
</g>
</g>
<!-- Node17&#45;&gt;Node18 -->
<g id="edge17_Node000017_Node000018" class="edge">
<title>Node17&#45;&gt;Node18</title>
<g id="a_edge17_Node000017_Node000018"><a xlink:title=" ">
<path fill="none" stroke="#63b8ff" d="M566.25,-148.56C588.5,-148.69 617.24,-148.85 642.9,-148.99"/>
<polygon fill="#63b8ff" stroke="#63b8ff" points="642.92,-152.49 652.94,-149.05 642.96,-145.49 642.92,-152.49"/>
</a>
</g>
</g>
<!-- Node19 -->
<g id="Node000019" class="node">
<title>Node19</title>
<g id="a_Node000019"><a xlink:href="_server_8cpp.html#afb62203471d9a64b23d0267d5a4a261a" target="_top" xlink:title="Handle a client connection.">
<polygon fill="white" stroke="#666666" points="759.5,-121.85 655.5,-121.85 655.5,-102.85 759.5,-102.85 759.5,-121.85"/>
<text text-anchor="middle" x="707.5" y="-109.85" font-family="Helvetica,sans-Serif" font-size="10.00">handleConnection</text>
</a>
</g>
</g>
<!-- Node17&#45;&gt;Node19 -->
<g id="edge18_Node000017_Node000019" class="edge">
<title>Node17&#45;&gt;Node19</title>
<g id="a_edge18_Node000017_Node000019"><a xlink:title=" ">
<path fill="none" stroke="#63b8ff" d="M566.25,-140.71C590.32,-135.85 621.98,-129.44 649.12,-123.95"/>
<polygon fill="#63b8ff" stroke="#63b8ff" points="650.17,-127.31 659.28,-121.9 648.79,-120.45 650.17,-127.31"/>
</a>
</g>
</g>
<!-- Node20 -->
<g id="Node000020" class="node">
<title>Node20</title>
<g id="a_Node000020"><a xlink:href="_server_8cpp.html#a9b6964fe44b1605c00c0f211a7f42896" target="_top" xlink:title="Builds the response for a client connection.">
<polygon fill="white" stroke="#666666" points="1142,-45.85 1000,-45.85 1000,-26.85 1142,-26.85 1142,-45.85"/>
<text text-anchor="middle" x="1071" y="-33.85" font-family="Helvetica,sans-Serif" font-size="10.00">connectionBuildResponse</text>
</a>
</g>
</g>
<!-- Node19&#45;&gt;Node20 -->
<g id="edge19_Node000019_Node000020" class="edge">
<title>Node19&#45;&gt;Node20</title>
<g id="a_edge19_Node000019_Node000020"><a xlink:title=" ">
<path fill="none" stroke="#63b8ff" d="M713.86,-102.67C725.8,-82.24 756.81,-35.13 798,-17.35 876.59,16.59 979.88,-6.91 1033.76,-23.62"/>
<polygon fill="#63b8ff" stroke="#63b8ff" points="1032.95,-27.04 1043.54,-26.75 1035.08,-20.37 1032.95,-27.04"/>
</a>
</g>
</g>
<!-- Node21 -->
<g id="Node000021" class="node">
<title>Node21</title>
<g id="a_Node000021"><a xlink:href="_server_8cpp.html#a43e9e764c97aacfc12f233b33ffa3342" target="_top" xlink:title="Sends the response to a client connection.">
<polygon fill="white" stroke="#666666" points="1334,-83.85 1193,-83.85 1193,-64.85 1334,-64.85 1334,-83.85"/>
<text text-anchor="middle" x="1263.5" y="-71.85" font-family="Helvetica,sans-Serif" font-size="10.00">connectionSendResponse</text>
</a>
</g>
</g>
<!-- Node19&#45;&gt;Node21 -->
<g id="edge36_Node000019_Node000021" class="edge">
<title>Node19&#45;&gt;Node21</title>
<g id="a_edge36_Node000019_Node000021"><a xlink:title=" ">
<path fill="none" stroke="#63b8ff" d="M759.71,-108.83C815.22,-105.01 906.39,-98.74 985,-93.35 1051.67,-88.78 1127.35,-83.59 1182.82,-79.8"/>
<polygon fill="#63b8ff" stroke="#63b8ff" points="1183.2,-83.28 1192.93,-79.11 1182.72,-76.3 1183.2,-83.28"/>
</a>
</g>
</g>
<!-- Node25 -->
<g id="Node000025" class="node">
<title>Node25</title>
<g id="a_Node000025"><a xlink:href="_server_8cpp.html#ad132a77471376bd48681070a795df914" target="_top" xlink:title="Handles a timeout for a client connection.">
<polygon fill="white" stroke="#666666" points="946,-45.85 801,-45.85 801,-26.85 946,-26.85 946,-45.85"/>
<text text-anchor="middle" x="873.5" y="-33.85" font-family="Helvetica,sans-Serif" font-size="10.00">connectionHandleTimeout</text>
</a>
</g>
</g>
<!-- Node19&#45;&gt;Node25 -->
<g id="edge24_Node000019_Node000025" class="edge">
<title>Node19&#45;&gt;Node25</title>
<g id="a_edge24_Node000019_Node000025"><a xlink:title=" ">
<path fill="none" stroke="#63b8ff" d="M722.87,-102.7C740.14,-91.41 770.26,-72.7 798,-60.35 807.4,-56.16 817.76,-52.35 827.69,-49.06"/>
<polygon fill="#63b8ff" stroke="#63b8ff" points="828.97,-52.33 837.43,-45.95 826.84,-45.66 828.97,-52.33"/>
</a>
</g>
</g>
<!-- Node26 -->
<g id="Node000026" class="node">
<title>Node26</title>
<g id="a_Node000026"><a xlink:href="_server_8cpp.html#a3e07b970ffa58c9315b38673aff94f84" target="_top" xlink:title="Handles the reception of the request body from a client connection.">
<polygon fill="white" stroke="#666666" points="1138,-121.85 1004,-121.85 1004,-102.85 1138,-102.85 1138,-121.85"/>
<text text-anchor="middle" x="1071" y="-109.85" font-family="Helvetica,sans-Serif" font-size="10.00">connectionReceiveBody</text>
</a>
</g>
</g>
<!-- Node19&#45;&gt;Node26 -->
<g id="edge26_Node000019_Node000026" class="edge">
<title>Node19&#45;&gt;Node26</title>
<g id="a_edge26_Node000019_Node000026"><a xlink:title=" ">
<path fill="none" stroke="#63b8ff" d="M759.53,-112.35C820.56,-112.35 923.29,-112.35 993.75,-112.35"/>
<polygon fill="#63b8ff" stroke="#63b8ff" points="993.9,-115.85 1003.9,-112.35 993.9,-108.85 993.9,-115.85"/>
</a>
</g>
</g>
<!-- Node28 -->
<g id="Node000028" class="node">
<title>Node28</title>
<g id="a_Node000028"><a xlink:href="_server_8cpp.html#a1a02f28f05641d9b3dd7f8207e57bd68" target="_top" xlink:title="Handles receiving data from a CGI script and processes it accordingly.">
<polygon fill="white" stroke="#666666" points="949,-233.85 798,-233.85 798,-214.85 949,-214.85 949,-233.85"/>
<text text-anchor="middle" x="873.5" y="-221.85" font-family="Helvetica,sans-Serif" font-size="10.00">connectionReceiveFromCGI</text>
</a>
</g>
</g>
<!-- Node19&#45;&gt;Node28 -->
<g id="edge28_Node000019_Node000028" class="edge">
<title>Node19&#45;&gt;Node28</title>
<g id="a_edge28_Node000019_Node000028"><a xlink:title=" ">
<path fill="none" stroke="#63b8ff" d="M748.73,-121.86C753.54,-124.12 758.11,-126.91 762,-130.35 789.7,-154.84 769.4,-181.91 798,-205.35 800.08,-207.05 802.29,-208.6 804.6,-210.02"/>
<polygon fill="#63b8ff" stroke="#63b8ff" points="803.45,-213.36 813.94,-214.83 806.65,-207.14 803.45,-213.36"/>
</a>
</g>
</g>
<!-- Node29 -->
<g id="Node000029" class="node">
<title>Node29</title>
<g id="a_Node000029"><a xlink:href="_server_8cpp.html#aa45d6529fd7be9b7adf788a9679ae34b" target="_top" xlink:title="Receive request header from a client.">
<polygon fill="white" stroke="#666666" points="945.5,-159.85 801.5,-159.85 801.5,-140.85 945.5,-140.85 945.5,-159.85"/>
<text text-anchor="middle" x="873.5" y="-147.85" font-family="Helvetica,sans-Serif" font-size="10.00">connectionReceiveHeader</text>
</a>
</g>
</g>
<!-- Node19&#45;&gt;Node29 -->
<g id="edge30_Node000019_Node000029" class="edge">
<title>Node19&#45;&gt;Node29</title>
<g id="a_edge30_Node000019_Node000029"><a xlink:title=" ">
<path fill="none" stroke="#63b8ff" d="M749.88,-121.94C771.62,-126.98 798.46,-133.19 821.47,-138.53"/>
<polygon fill="#63b8ff" stroke="#63b8ff" points="820.88,-141.98 831.41,-140.83 822.46,-135.16 820.88,-141.98"/>
</a>
</g>
</g>
<!-- Node33 -->
<g id="Node000033" class="node">
<title>Node33</title>
<g id="a_Node000033"><a xlink:href="_server_8cpp.html#a03e6a55f5c946d4fb308f7c1758e1b51" target="_top" xlink:title="Sends the request body to the CGI process.">
<polygon fill="white" stroke="#666666" points="934.5,-196.85 812.5,-196.85 812.5,-177.85 934.5,-177.85 934.5,-196.85"/>
<text text-anchor="middle" x="873.5" y="-184.85" font-family="Helvetica,sans-Serif" font-size="10.00">connectionSendToCGI</text>
</a>
</g>
</g>
<!-- Node19&#45;&gt;Node33 -->
<g id="edge37_Node000019_Node000033" class="edge">
<title>Node19&#45;&gt;Node33</title>
<g id="a_edge37_Node000019_Node000033"><a xlink:title=" ">
<path fill="none" stroke="#63b8ff" d="M745,-121.95C750.92,-124.25 756.8,-127.03 762,-130.35 781.61,-142.87 777.94,-156.57 798,-168.35 801.69,-170.52 805.62,-172.44 809.68,-174.14"/>
<polygon fill="#63b8ff" stroke="#63b8ff" points="808.74,-177.53 819.33,-177.74 811.18,-170.97 808.74,-177.53"/>
</a>
</g>
</g>
<!-- Node20&#45;&gt;Node21 -->
<g id="edge20_Node000020_Node000021" class="edge">
<title>Node20&#45;&gt;Node21</title>
<g id="a_edge20_Node000020_Node000021"><a xlink:title=" ">
<path fill="none" stroke="#63b8ff" d="M1120.07,-45.94C1145.78,-51.07 1177.61,-57.42 1204.66,-62.81"/>
<polygon fill="#63b8ff" stroke="#63b8ff" points="1204.28,-66.31 1214.77,-64.83 1205.65,-59.44 1204.28,-66.31"/>
</a>
</g>
</g>
<!-- Node22 -->
<g id="Node000022" class="node">
<title>Node22</title>
<g id="a_Node000022"><a xlink:href="_connection_8cpp.html#a1787b72853fa3a6146cea621fa1d0d65" target="_top" xlink:title="Clears the state of a given Connection object and resets its attributes.">
<polygon fill="white" stroke="#666666" points="1465,-102.85 1370,-102.85 1370,-83.85 1465,-83.85 1465,-102.85"/>
<text text-anchor="middle" x="1417.5" y="-90.85" font-family="Helvetica,sans-Serif" font-size="10.00">clearConnection</text>
</a>
</g>
</g>
<!-- Node21&#45;&gt;Node22 -->
<g id="edge21_Node000021_Node000022" class="edge">
<title>Node21&#45;&gt;Node22</title>
<g id="a_edge21_Node000021_Node000022"><a xlink:title=" ">
<path fill="none" stroke="#63b8ff" d="M1334.27,-83.07C1342.82,-84.14 1351.47,-85.22 1359.79,-86.26"/>
<polygon fill="#63b8ff" stroke="#63b8ff" points="1359.39,-89.74 1369.74,-87.5 1360.25,-82.79 1359.39,-89.74"/>
</a>
</g>
</g>
<!-- Node23 -->
<g id="Node000023" class="node">
<title>Node23</title>
<g id="a_Node000023"><a xlink:href="_connection_8cpp.html#a354192f8dd87ca049cf8b7e6de9000da" target="_top" xlink:title="Selects the server configuration for a connection.">
<polygon fill="white" stroke="#666666" points="1621,-121.85 1501,-121.85 1501,-102.85 1621,-102.85 1621,-121.85"/>
<text text-anchor="middle" x="1561" y="-109.85" font-family="Helvetica,sans-Serif" font-size="10.00">hasValidServerConfig</text>
</a>
</g>
</g>
<!-- Node22&#45;&gt;Node23 -->
<g id="edge22_Node000022_Node000023" class="edge">
<title>Node22&#45;&gt;Node23</title>
<g id="a_edge22_Node000022_Node000023"><a xlink:title=" ">
<path fill="none" stroke="#63b8ff" d="M1465.22,-99.62C1473.44,-100.73 1482.15,-101.9 1490.82,-103.06"/>
<polygon fill="#63b8ff" stroke="#63b8ff" points="1490.58,-106.56 1500.96,-104.42 1491.51,-99.62 1490.58,-106.56"/>
</a>
</g>
</g>
<!-- Node24 -->
<g id="Node000024" class="node">
<title>Node24</title>
<g id="a_Node000024"><a xlink:href="_connection_8cpp.html#af96f533f342bd6cf42899f3c9fd30a99" target="_top" xlink:title="Find matching server configurations for a server socket.">
<polygon fill="white" stroke="#666666" points="1804,-121.85 1657,-121.85 1657,-102.85 1804,-102.85 1804,-121.85"/>
<text text-anchor="middle" x="1730.5" y="-109.85" font-family="Helvetica,sans-Serif" font-size="10.00">findMatchingServerConfigs</text>
</a>
</g>
</g>
<!-- Node23&#45;&gt;Node24 -->
<g id="edge23_Node000023_Node000024" class="edge">
<title>Node23&#45;&gt;Node24</title>
<g id="a_edge23_Node000023_Node000024"><a xlink:title=" ">
<path fill="none" stroke="#63b8ff" d="M1621.05,-112.35C1629.38,-112.35 1638.07,-112.35 1646.74,-112.35"/>
<polygon fill="#63b8ff" stroke="#63b8ff" points="1646.89,-115.85 1656.89,-112.35 1646.89,-108.85 1646.89,-115.85"/>
</a>
</g>
</g>
<!-- Node25&#45;&gt;Node20 -->
<g id="edge25_Node000025_Node000020" class="edge">
<title>Node25&#45;&gt;Node20</title>
<g id="a_edge25_Node000025_Node000020"><a xlink:title=" ">
<path fill="none" stroke="#63b8ff" d="M946.19,-36.35C960.31,-36.35 975.21,-36.35 989.59,-36.35"/>
<polygon fill="#63b8ff" stroke="#63b8ff" points="989.95,-39.85 999.95,-36.35 989.95,-32.85 989.95,-39.85"/>
</a>
</g>
</g>
<!-- Node27 -->
<g id="Node000027" class="node">
<title>Node27</title>
<g id="a_Node000027"><a xlink:href="_server_8cpp.html#af0fb17fe53a5e9e72824e5df3fba1322" target="_top" xlink:title="Handles the body of the HTTP request.">
<polygon fill="white" stroke="#666666" points="1300.5,-121.85 1226.5,-121.85 1226.5,-102.85 1300.5,-102.85 1300.5,-121.85"/>
<text text-anchor="middle" x="1263.5" y="-109.85" font-family="Helvetica,sans-Serif" font-size="10.00">handleBody</text>
</a>
</g>
</g>
<!-- Node26&#45;&gt;Node27 -->
<g id="edge27_Node000026_Node000027" class="edge">
<title>Node26&#45;&gt;Node27</title>
<g id="a_edge27_Node000026_Node000027"><a xlink:title=" ">
<path fill="none" stroke="#63b8ff" d="M1138.09,-112.35C1163.93,-112.35 1192.93,-112.35 1216.43,-112.35"/>
<polygon fill="#63b8ff" stroke="#63b8ff" points="1216.48,-115.85 1226.48,-112.35 1216.48,-108.85 1216.48,-115.85"/>
</a>
</g>
</g>
<!-- Node28&#45;&gt;Node13 -->
<g id="edge29_Node000028_Node000013" class="edge">
<title>Node28&#45;&gt;Node13</title>
<g id="a_edge29_Node000028_Node000013"><a xlink:title=" ">
<path fill="none" stroke="#63b8ff" d="M923.58,-233.89C950.07,-239.04 982.97,-245.43 1010.87,-250.86"/>
<polygon fill="#63b8ff" stroke="#63b8ff" points="1010.42,-254.33 1020.9,-252.81 1011.75,-247.46 1010.42,-254.33"/>
</a>
</g>
</g>
<!-- Node30 -->
<g id="Node000030" class="node">
<title>Node30</title>
<g id="a_Node000030"><a xlink:href="_server_8cpp.html#a83350eae81b96dd7b301d1238268ffdb" target="_top" xlink:title="Handles the complete request header received from a client.">
<polygon fill="white" stroke="#666666" points="1157,-195.85 985,-195.85 985,-176.85 1157,-176.85 1157,-195.85"/>
<text text-anchor="middle" x="1071" y="-183.85" font-family="Helvetica,sans-Serif" font-size="10.00">handleCompleteRequestHeader</text>
</a>
</g>
</g>
<!-- Node29&#45;&gt;Node30 -->
<g id="edge31_Node000029_Node000030" class="edge">
<title>Node29&#45;&gt;Node30</title>
<g id="a_edge31_Node000029_Node000030"><a xlink:title=" ">
<path fill="none" stroke="#63b8ff" d="M926.12,-159.85C951.3,-164.49 981.78,-170.1 1008.19,-174.97"/>
<polygon fill="#63b8ff" stroke="#63b8ff" points="1007.62,-178.42 1018.09,-176.79 1008.89,-171.54 1007.62,-178.42"/>
</a>
</g>
</g>
<!-- Node32 -->
<g id="Node000032" class="node">
<title>Node32</title>
<g id="a_Node000032"><a xlink:href="_server_8cpp.html#a172c400277e73261d212c33f66226090" target="_top" xlink:title="Checks if the connection buffer contains a request header.">
<polygon fill="white" stroke="#666666" points="1144.5,-158.85 997.5,-158.85 997.5,-139.85 1144.5,-139.85 1144.5,-158.85"/>
<text text-anchor="middle" x="1071" y="-146.85" font-family="Helvetica,sans-Serif" font-size="10.00">isCompleteRequestHeader</text>
</a>
</g>
</g>
<!-- Node29&#45;&gt;Node32 -->
<g id="edge35_Node000029_Node000032" class="edge">
<title>Node29&#45;&gt;Node32</title>
<g id="a_edge35_Node000029_Node000032"><a xlink:title=" ">
<path fill="none" stroke="#63b8ff" d="M945.63,-149.99C959.03,-149.92 973.15,-149.84 986.88,-149.77"/>
<polygon fill="#63b8ff" stroke="#63b8ff" points="987.3,-153.27 997.28,-149.72 987.26,-146.27 987.3,-153.27"/>
</a>
</g>
</g>
<!-- Node30&#45;&gt;Node23 -->
<g id="edge33_Node000030_Node000023" class="edge">
<title>Node30&#45;&gt;Node23</title>
<g id="a_edge33_Node000030_Node000023"><a xlink:title=" ">
<path fill="none" stroke="#63b8ff" d="M1134.8,-176.83C1226.32,-162.95 1395.78,-137.25 1490.79,-122.84"/>
<polygon fill="#63b8ff" stroke="#63b8ff" points="1491.51,-126.27 1500.87,-121.31 1490.46,-119.35 1491.51,-126.27"/>
</a>
</g>
</g>
<!-- Node30&#45;&gt;Node27 -->
<g id="edge32_Node000030_Node000027" class="edge">
<title>Node30&#45;&gt;Node27</title>
<g id="a_edge32_Node000030_Node000027"><a xlink:title=" ">
<path fill="none" stroke="#63b8ff" d="M1132.27,-176.77C1140.81,-174.3 1149.3,-171.22 1157,-167.35 1175.87,-157.87 1174.69,-146.87 1193,-136.35 1200.4,-132.1 1208.67,-128.43 1216.86,-125.33"/>
<polygon fill="#63b8ff" stroke="#63b8ff" points="1218.12,-128.6 1226.37,-121.95 1215.78,-122 1218.12,-128.6"/>
</a>
</g>
</g>
<!-- Node31 -->
<g id="Node000031" class="node">
<title>Node31</title>
<g id="a_Node000031"><a xlink:href="_server_8cpp.html#a92411155dbfc5d7f43c3f1ac0fe54548" target="_top" xlink:title="Checks if a CGI request is made based on the connection details.">
<polygon fill="white" stroke="#666666" points="1310.5,-197.85 1216.5,-197.85 1216.5,-178.85 1310.5,-178.85 1310.5,-197.85"/>
<text text-anchor="middle" x="1263.5" y="-185.85" font-family="Helvetica,sans-Serif" font-size="10.00">isCGIRequested</text>
</a>
</g>
</g>
<!-- Node30&#45;&gt;Node31 -->
<g id="edge34_Node000030_Node000031" class="edge">
<title>Node30&#45;&gt;Node31</title>
<g id="a_edge34_Node000030_Node000031"><a xlink:title=" ">
<path fill="none" stroke="#63b8ff" d="M1157.22,-187.24C1173.72,-187.42 1190.63,-187.59 1205.93,-187.76"/>
<polygon fill="#63b8ff" stroke="#63b8ff" points="1206.21,-191.26 1216.24,-187.86 1206.28,-184.26 1206.21,-191.26"/>
</a>
</g>
</g>
<!-- Node34&#45;&gt;Node16 -->
<g id="edge39_Node000034_Node000016" class="edge">
<title>Node34&#45;&gt;Node16</title>
<g id="a_edge39_Node000034_Node000016"><a xlink:title=" ">
<path fill="none" stroke="#63b8ff" d="M391.92,-195.94C416.1,-201.04 446.03,-207.36 471.51,-212.74"/>
<polygon fill="#63b8ff" stroke="#63b8ff" points="470.9,-216.19 481.41,-214.83 472.34,-209.34 470.9,-216.19"/>
</a>
</g>
</g>
<!-- Node34&#45;&gt;Node17 -->
<g id="edge41_Node000034_Node000017" class="edge">
<title>Node34&#45;&gt;Node17</title>
<g id="a_edge41_Node000034_Node000017"><a xlink:title=" ">
<path fill="none" stroke="#63b8ff" d="M391.92,-176.76C418.52,-171.15 452.06,-164.06 479.01,-158.37"/>
<polygon fill="#63b8ff" stroke="#63b8ff" points="479.92,-161.76 488.99,-156.27 478.48,-154.91 479.92,-161.76"/>
</a>
</g>
</g>
<!-- Node35 -->
<g id="Node000035" class="node">
<title>Node35</title>
<g id="a_Node000035"><a xlink:href="_server_8cpp.html#af2feae308a0fa968c84525fcdfb19251" target="_top" xlink:title="Iterates through all connections, closes and removes idle ones.">
<polygon fill="white" stroke="#666666" points="594,-195.85 461,-195.85 461,-176.85 594,-176.85 594,-195.85"/>
<text text-anchor="middle" x="527.5" y="-183.85" font-family="Helvetica,sans-Serif" font-size="10.00">cleanupIdleConnections</text>
</a>
</g>
</g>
<!-- Node34&#45;&gt;Node35 -->
<g id="edge40_Node000034_Node000035" class="edge">
<title>Node34&#45;&gt;Node35</title>
<g id="a_edge40_Node000034_Node000035"><a xlink:title=" ">
<path fill="none" stroke="#63b8ff" d="M393.32,-186.35C410.89,-186.35 431.32,-186.35 450.84,-186.35"/>
<polygon fill="#63b8ff" stroke="#63b8ff" points="450.94,-189.85 460.94,-186.35 450.94,-182.85 450.94,-189.85"/>
</a>
</g>
</g>
</g>
</svg>

<g id="navigator" transform="translate(0 0)" fill="#404254">
  <rect fill="#f2f5e9" fill-opacity="0.5" stroke="#606060" stroke-width=".5" x="0" y="0" width="60" height="60"/>
  <use id="zoomplus" xlink:href="#zoomPlus" x="17" y="9" onmousedown="handleZoom(evt,'in')"/>
  <use id="zoomminus" xlink:href="#zoomMin" x="42" y="9" onmousedown="handleZoom(evt,'out')"/>
  <use id="reset" xlink:href="#resetDef" x="30" y="36" onmousedown="handleReset()"/>
   <use id="arrowup" xlink:href="#arrowUp" x="0" y="0" onmousedown="handlePan(0,-1)"/>
  <use id="arrowright" xlink:href="#arrowRight" x="0" y="0" onmousedown="handlePan(1,0)"/>
  <use id="arrowdown" xlink:href="#arrowDown" x="0" y="0" onmousedown="handlePan(0,1)"/>
  <use id="arrowleft" xlink:href="#arrowLeft" x="0" y="0" onmousedown="handlePan(-1,0)"/>
</g>
<svg viewBox="0 0 15 15" width="100%" height="30px" preserveAspectRatio="xMaxYMin meet">
 <g id="arrow_out" transform="scale(0.3 0.3)">
  <a xlink:href="main_8cpp_ad53223b8779f25caeddb70a3b9172967_cgraph_org.svg" target="_base">
   <rect id="button" ry="5" rx="5" y="6" x="6" height="38" width="38"
        fill="#f2f5e9" fill-opacity="0.5" stroke="#606060" stroke-width="1.0"/>
   <path id="arrow"
     d="M 11.500037,31.436501 C 11.940474,20.09759 22.043105,11.32322 32.158766,21.979434 L 37.068811,17.246167 C 37.068811,17.246167 37.088388,32 37.088388,32 L 22.160133,31.978069 C 22.160133,31.978069 26.997745,27.140456 26.997745,27.140456 C 18.528582,18.264221 13.291696,25.230495 11.500037,31.436501 z"
     style="fill:#404040;"/>
  </a>
 </g>
</svg>

<style type='text/css'>
<![CDATA[
[data-mouse-over-selected='false'] { opacity: 0.7; }
[data-mouse-over-selected='true']  { opacity: 1.0; }
]]>
</style>
<script type="application/ecmascript"><![CDATA[
document.addEventListener('DOMContentLoaded', (event) => {
  highlightEdges();
  highlightAdjacentNodes();
});
]]></script>
</svg>
