<?xml version="1.0" encoding="UTF-8" standalone="no"?>
<!DOCTYPE svg PUBLIC "-//W3C//DTD SVG 1.1//EN"
 "http://www.w3.org/Graphics/SVG/1.1/DTD/svg11.dtd">
<!-- Generated by graphviz version 2.43.0 (0)
 -->
<!-- Title: webutils::closeFd Pages: 1 -->
<!--zoomable 250 -->

<svg id="main" version="1.1" xmlns="http://www.w3.org/2000/svg" xmlns:xlink="http://www.w3.org/1999/xlink" xml:space="preserve" onload="init(evt)">
<style type="text/css"><![CDATA[
.node, .edge {opacity: 0.7;}
.node.selected, .edge.selected {opacity: 1;}
.edge:hover path { stroke: red; }
.edge:hover polygon { stroke: red; fill: red; }
]]></style>

<defs>
  <circle id="rim" cx="0" cy="0" r="7"/>
  <circle id="rim2" cx="0" cy="0" r="3.5"/>
  <g id="zoomPlus">
    <use xlink:href="#rim" fill="#404040"><set attributeName="fill" to="#808080" begin="zoomplus.mouseover" end="zoomplus.mouseout"/></use>
    <path d="M-4,0h8M0,-4v8" fill="none" stroke="white" stroke-width="1.5" pointer-events="none"/>
  </g>
  <g id="zoomMin">
    <use xlink:href="#rim" fill="#404040"><set attributeName="fill" to="#808080" begin="zoomminus.mouseover" end="zoomminus.mouseout"/></use>
    <path d="M-4,0h8" fill="none" stroke="white" stroke-width="1.5" pointer-events="none"/>
  </g>
  <g id="arrowUp" transform="translate(30 24)">
    <use xlink:href="#rim"/>
    <path pointer-events="none" fill="none" stroke="white" stroke-width="1.5" d="M0,-3.0v7 M-2.5,-0.5L0,-3.0L2.5,-0.5"/>
  </g>
  <g id="arrowRight" transform="rotate(90) translate(36 -43)">
    <use xlink:href="#rim"/>
    <path pointer-events="none" fill="none" stroke="white" stroke-width="1.5" d="M0,-3.0v7 M-2.5,-0.5L0,-3.0L2.5,-0.5"/>
  </g>
  <g id="arrowDown" transform="rotate(180) translate(-30 -48)">
    <use xlink:href="#rim"/>
    <path pointer-events="none" fill="none" stroke="white" stroke-width="1.5" d="M0,-3.0v7 M-2.5,-0.5L0,-3.0L2.5,-0.5"/>
  </g>
  <g id="arrowLeft" transform="rotate(270) translate(-36 17)">
    <use xlink:href="#rim"/>
    <path pointer-events="none" fill="none" stroke="white" stroke-width="1.5" d="M0,-3.0v7 M-2.5,-0.5L0,-3.0L2.5,-0.5"/>
  </g>
  <g id="resetDef">
    <use xlink:href="#rim2" fill="#404040"><set attributeName="fill" to="#808080" begin="reset.mouseover" end="reset.mouseout"/></use>
  </g>
</defs>
<script type="application/ecmascript">
var viewWidth = 629;
var viewHeight = 250;
var sectionId = 'dynsection-4';
</script>
<script type="application/ecmascript" xlink:href="svg.min.js"/>
<svg id="graph" class="graph">
<g id="viewport">
<title>webutils::closeFd</title>
<!-- Node1 -->
<g id="Node000001" class="node">
<title>Node1</title>
<g id="a_Node000001"><a xlink:title=" ">
<polygon fill="#999999" stroke="#666666" points="621,-111 520,-111 520,-92 621,-92 621,-111"/>
<text text-anchor="middle" x="570.5" y="-99" font-family="Helvetica,sans-Serif" font-size="10.00">webutils::closeFd</text>
</a>
</g>
</g>
<!-- Node2 -->
<g id="Node000002" class="node">
<title>Node2</title>
<g id="a_Node000002"><a xlink:href="class_c_g_i_handler.html#af2fe74a0b25abfed3cd0aa39c0e26659" target="_top" xlink:title="Constructs a CGIHandler object and sets up the environment for the CGI script.">
<polygon fill="white" stroke="#666666" points="463,-204 329,-204 329,-185 463,-185 463,-204"/>
<text text-anchor="middle" x="396" y="-192" font-family="Helvetica,sans-Serif" font-size="10.00">CGIHandler::CGIHandler</text>
</a>
</g>
</g>
<!-- Node1&#45;&gt;Node2 -->
<g id="edge1_Node000001_Node000002" class="edge">
<title>Node1&#45;&gt;Node2</title>
<g id="a_edge1_Node000001_Node000002"><a xlink:title=" ">
<path fill="none" stroke="#63b8ff" d="M554.84,-118.78C539.12,-136.14 512.56,-162.28 484,-176.5 477.1,-179.94 469.57,-182.72 461.93,-184.97"/>
<polygon fill="#63b8ff" stroke="#63b8ff" points="557.66,-120.88 561.64,-111.06 552.4,-116.25 557.66,-120.88"/>
</a>
</g>
</g>
<!-- Node3 -->
<g id="Node000003" class="node">
<title>Node3</title>
<g id="a_Node000003"><a xlink:href="_server_8cpp.html#a28fd29ec48bd9459c678980cfccca4cf" target="_top" xlink:title="Iterates through all connections and checks if any have timed out.">
<polygon fill="white" stroke="#666666" points="446.5,-167 345.5,-167 345.5,-148 446.5,-148 446.5,-167"/>
<text text-anchor="middle" x="396" y="-155" font-family="Helvetica,sans-Serif" font-size="10.00">checkForTimeout</text>
</a>
</g>
</g>
<!-- Node1&#45;&gt;Node3 -->
<g id="edge2_Node000001_Node000003" class="edge">
<title>Node1&#45;&gt;Node3</title>
<g id="a_edge2_Node000001_Node000003"><a xlink:title=" ">
<path fill="none" stroke="#63b8ff" d="M541.17,-115.41C524.77,-123.04 503.56,-132.2 484,-138.5 472.08,-142.34 458.99,-145.65 446.67,-148.39"/>
<polygon fill="#63b8ff" stroke="#63b8ff" points="542.68,-118.56 550.22,-111.12 539.68,-112.24 542.68,-118.56"/>
</a>
</g>
</g>
<!-- Node13 -->
<g id="Node000013" class="node">
<title>Node13</title>
<g id="a_Node000013"><a xlink:href="class_c_g_i_handler.html#a341ca7c3cad04848c5e0787341fa573e" target="_top" xlink:title="Executes the CGI script for the given HTTP request.">
<polygon fill="white" stroke="#666666" points="454,-130 338,-130 338,-111 454,-111 454,-130"/>
<text text-anchor="middle" x="396" y="-118" font-family="Helvetica,sans-Serif" font-size="10.00">CGIHandler::execute</text>
</a>
</g>
</g>
<!-- Node1&#45;&gt;Node13 -->
<g id="edge13_Node000001_Node000013" class="edge">
<title>Node1&#45;&gt;Node13</title>
<g id="a_edge13_Node000001_Node000013"><a xlink:title=" ">
<path fill="none" stroke="#63b8ff" d="M509.52,-108.11C491.54,-110.09 471.86,-112.25 454.07,-114.21"/>
<polygon fill="#63b8ff" stroke="#63b8ff" points="510.05,-111.57 519.61,-107 509.28,-104.61 510.05,-111.57"/>
</a>
</g>
</g>
<!-- Node14 -->
<g id="Node000014" class="node">
<title>Node14</title>
<g id="a_Node000014"><a xlink:href="class_server.html#abcfb45414689863da69c2e72ac8fc946" target="_top" xlink:title="Register a CGI file descriptor.">
<polygon fill="white" stroke="#666666" points="484,-93 308,-93 308,-74 484,-74 484,-93"/>
<text text-anchor="middle" x="396" y="-81" font-family="Helvetica,sans-Serif" font-size="10.00">Server::registerCGIFileDescriptor</text>
</a>
</g>
</g>
<!-- Node1&#45;&gt;Node14 -->
<g id="edge14_Node000001_Node000014" class="edge">
<title>Node1&#45;&gt;Node14</title>
<g id="a_edge14_Node000001_Node000014"><a xlink:title=" ">
<path fill="none" stroke="#63b8ff" d="M509.44,-95.23C501.25,-94.38 492.72,-93.49 484.17,-92.6"/>
<polygon fill="#63b8ff" stroke="#63b8ff" points="509.3,-98.74 519.61,-96.29 510.02,-91.77 509.3,-98.74"/>
</a>
</g>
</g>
<!-- Node15 -->
<g id="Node000015" class="node">
<title>Node15</title>
<g id="a_Node000015"><a xlink:href="class_server.html#ab4a0ae2ec5d126062a7c5d4a2f78160a" target="_top" xlink:title="Removes a CGI file descriptor from the server.">
<polygon fill="white" stroke="#666666" points="484,-56 308,-56 308,-37 484,-37 484,-56"/>
<text text-anchor="middle" x="396" y="-44" font-family="Helvetica,sans-Serif" font-size="10.00">Server::removeCGIFileDescriptor</text>
</a>
</g>
</g>
<!-- Node1&#45;&gt;Node15 -->
<g id="edge15_Node000001_Node000015" class="edge">
<title>Node1&#45;&gt;Node15</title>
<g id="a_edge15_Node000001_Node000015"><a xlink:title=" ">
<path fill="none" stroke="#63b8ff" d="M541.52,-87.66C525.08,-79.98 503.72,-70.74 484,-64.5 473.71,-61.25 462.54,-58.42 451.74,-56.04"/>
<polygon fill="#63b8ff" stroke="#63b8ff" points="540.04,-90.84 550.57,-91.97 543.05,-84.52 540.04,-90.84"/>
</a>
</g>
</g>
<!-- Node16 -->
<g id="Node000016" class="node">
<title>Node16</title>
<g id="a_Node000016"><a xlink:href="struct_connection.html#a2e4352edf667bea83001569e9da8a24d" target="_top" xlink:title="Destructor for the Connection class.">
<polygon fill="white" stroke="#666666" points="466,-19 326,-19 326,0 466,0 466,-19"/>
<text text-anchor="middle" x="396" y="-7" font-family="Helvetica,sans-Serif" font-size="10.00">Connection::~Connection</text>
</a>
</g>
</g>
<!-- Node1&#45;&gt;Node16 -->
<g id="edge16_Node000001_Node000016" class="edge">
<title>Node1&#45;&gt;Node16</title>
<g id="a_edge16_Node000001_Node000016"><a xlink:title=" ">
<path fill="none" stroke="#63b8ff" d="M554.54,-84.18C538.75,-67.06 512.29,-41.47 484,-27.5 477.09,-24.09 469.55,-21.32 461.91,-19.07"/>
<polygon fill="#63b8ff" stroke="#63b8ff" points="552.1,-86.71 561.39,-91.81 557.31,-82.03 552.1,-86.71"/>
</a>
</g>
</g>
<!-- Node4 -->
<g id="Node000004" class="node">
<title>Node4</title>
<g id="a_Node000004"><a xlink:href="_server_8cpp.html#ab66b27c2186daacb15a6b13dd43be31b" target="_top" xlink:title="Runs the main event loop with a server object.">
<polygon fill="white" stroke="#666666" points="141,-242 77,-242 77,-223 141,-223 141,-242"/>
<text text-anchor="middle" x="109" y="-230" font-family="Helvetica,sans-Serif" font-size="10.00">runServer</text>
</a>
</g>
</g>
<!-- Node3&#45;&gt;Node4 -->
<g id="edge3_Node000003_Node000004" class="edge">
<title>Node3&#45;&gt;Node4</title>
<g id="a_edge3_Node000003_Node000004"><a xlink:title=" ">
<path fill="none" stroke="#63b8ff" d="M335.43,-165.63C325.91,-168.29 316.43,-171.82 308,-176.5 287.94,-187.64 292.58,-203.36 272,-213.5 230.22,-234.09 175.24,-236.07 141.28,-234.85"/>
<polygon fill="#63b8ff" stroke="#63b8ff" points="336.47,-168.98 345.33,-163.17 334.78,-162.19 336.47,-168.98"/>
</a>
</g>
</g>
<!-- Node6 -->
<g id="Node000006" class="node">
<title>Node6</title>
<g id="a_Node000006"><a xlink:href="_server_8cpp.html#a115ecd76e344c1007bedc48b9bbdc0fa" target="_top" xlink:title="Performs a graceful shutdown of the server.">
<polygon fill="white" stroke="#666666" points="272,-204 177,-204 177,-185 272,-185 272,-204"/>
<text text-anchor="middle" x="224.5" y="-192" font-family="Helvetica,sans-Serif" font-size="10.00">shutdownServer</text>
</a>
</g>
</g>
<!-- Node3&#45;&gt;Node6 -->
<g id="edge5_Node000003_Node000006" class="edge">
<title>Node3&#45;&gt;Node6</title>
<g id="a_edge5_Node000003_Node000006"><a xlink:title=" ">
<path fill="none" stroke="#63b8ff" d="M341.31,-169.22C318.1,-174.29 291.28,-180.14 269.3,-184.94"/>
<polygon fill="#63b8ff" stroke="#63b8ff" points="342.33,-172.58 351.35,-167.03 340.83,-165.74 342.33,-172.58"/>
</a>
</g>
</g>
<!-- Node10 -->
<g id="Node000010" class="node">
<title>Node10</title>
<g id="a_Node000010"><a xlink:href="test__check_for_timeout_8cpp.html#a75c3c481939f99b90a0a41f3f2d0684b" target="_top" xlink:title=" ">
<polygon fill="white" stroke="#666666" points="250.5,-167 198.5,-167 198.5,-148 250.5,-148 250.5,-167"/>
<text text-anchor="middle" x="224.5" y="-155" font-family="Helvetica,sans-Serif" font-size="10.00">TEST_F</text>
</a>
</g>
</g>
<!-- Node3&#45;&gt;Node10 -->
<g id="edge10_Node000003_Node000010" class="edge">
<title>Node3&#45;&gt;Node10</title>
<g id="a_edge10_Node000003_Node000010"><a xlink:title=" ">
<path fill="none" stroke="#63b8ff" d="M335.01,-157.5C306.02,-157.5 272.79,-157.5 250.61,-157.5"/>
<polygon fill="#63b8ff" stroke="#63b8ff" points="335.06,-161 345.06,-157.5 335.06,-154 335.06,-161"/>
</a>
</g>
</g>
<!-- Node11 -->
<g id="Node000011" class="node">
<title>Node11</title>
<g id="a_Node000011"><a xlink:href="test__check_for_timeout_8cpp.html#a357859374e2b4455a440f278ec9bd6c6" target="_top" xlink:title=" ">
<polygon fill="white" stroke="#666666" points="250.5,-130 198.5,-130 198.5,-111 250.5,-111 250.5,-130"/>
<text text-anchor="middle" x="224.5" y="-118" font-family="Helvetica,sans-Serif" font-size="10.00">TEST_F</text>
</a>
</g>
</g>
<!-- Node3&#45;&gt;Node11 -->
<g id="edge11_Node000003_Node000011" class="edge">
<title>Node3&#45;&gt;Node11</title>
<g id="a_edge11_Node000003_Node000011"><a xlink:title=" ">
<path fill="none" stroke="#63b8ff" d="M341.32,-145.78C310.95,-139.15 274.4,-131.18 250.6,-125.98"/>
<polygon fill="#63b8ff" stroke="#63b8ff" points="340.83,-149.26 351.35,-147.97 342.33,-142.42 340.83,-149.26"/>
</a>
</g>
</g>
<!-- Node12 -->
<g id="Node000012" class="node">
<title>Node12</title>
<g id="a_Node000012"><a xlink:href="test__check_for_timeout_8cpp.html#aa104b7ee8b0b5c5b33b6409f6450eeb6" target="_top" xlink:title=" ">
<polygon fill="white" stroke="#666666" points="250.5,-93 198.5,-93 198.5,-74 250.5,-74 250.5,-93"/>
<text text-anchor="middle" x="224.5" y="-81" font-family="Helvetica,sans-Serif" font-size="10.00">TEST_F</text>
</a>
</g>
</g>
<!-- Node3&#45;&gt;Node12 -->
<g id="edge12_Node000003_Node000012" class="edge">
<title>Node3&#45;&gt;Node12</title>
<g id="a_edge12_Node000003_Node000012"><a xlink:title=" ">
<path fill="none" stroke="#63b8ff" d="M335.43,-149.37C325.91,-146.71 316.43,-143.18 308,-138.5 287.94,-127.36 291.14,-114.15 272,-101.5 265.5,-97.2 257.82,-93.7 250.6,-90.97"/>
<polygon fill="#63b8ff" stroke="#63b8ff" points="334.78,-152.81 345.33,-151.83 336.47,-146.02 334.78,-152.81"/>
</a>
</g>
</g>
<!-- Node5 -->
<g id="Node000005" class="node">
<title>Node5</title>
<g id="a_Node000005"><a xlink:href="main_8cpp.html#ad53223b8779f25caeddb70a3b9172967" target="_top" xlink:title=" ">
<polygon fill="white" stroke="#666666" points="41,-242 0,-242 0,-223 41,-223 41,-242"/>
<text text-anchor="middle" x="20.5" y="-230" font-family="Helvetica,sans-Serif" font-size="10.00">main</text>
</a>
</g>
</g>
<!-- Node4&#45;&gt;Node5 -->
<g id="edge4_Node000004_Node000005" class="edge">
<title>Node4&#45;&gt;Node5</title>
<g id="a_edge4_Node000004_Node000005"><a xlink:title=" ">
<path fill="none" stroke="#63b8ff" d="M66.5,-232.5C57.64,-232.5 48.68,-232.5 41.11,-232.5"/>
<polygon fill="#63b8ff" stroke="#63b8ff" points="66.77,-236 76.77,-232.5 66.77,-229 66.77,-236"/>
</a>
</g>
</g>
<!-- Node6&#45;&gt;Node4 -->
<g id="edge6_Node000006_Node000004" class="edge">
<title>Node6&#45;&gt;Node4</title>
<g id="a_edge6_Node000006_Node000004"><a xlink:title=" ">
<path fill="none" stroke="#63b8ff" d="M185.19,-207.33C169.96,-212.42 152.74,-218.19 138.63,-222.91"/>
<polygon fill="#63b8ff" stroke="#63b8ff" points="186.49,-210.58 194.86,-204.09 184.27,-203.94 186.49,-210.58"/>
</a>
</g>
</g>
<!-- Node7 -->
<g id="Node000007" class="node">
<title>Node7</title>
<g id="a_Node000007"><a xlink:href="test__shutdown_server_8cpp.html#a6462dc91a572c9969b759806ed15590b" target="_top" xlink:title=" ">
<polygon fill="white" stroke="#666666" points="135,-205 83,-205 83,-186 135,-186 135,-205"/>
<text text-anchor="middle" x="109" y="-193" font-family="Helvetica,sans-Serif" font-size="10.00">TEST_F</text>
</a>
</g>
</g>
<!-- Node6&#45;&gt;Node7 -->
<g id="edge7_Node000006_Node000007" class="edge">
<title>Node6&#45;&gt;Node7</title>
<g id="a_edge7_Node000006_Node000007"><a xlink:title=" ">
<path fill="none" stroke="#63b8ff" d="M166.63,-195C155.63,-195.1 144.64,-195.19 135.3,-195.28"/>
<polygon fill="#63b8ff" stroke="#63b8ff" points="166.71,-198.5 176.68,-194.91 166.65,-191.5 166.71,-198.5"/>
</a>
</g>
</g>
<!-- Node8 -->
<g id="Node000008" class="node">
<title>Node8</title>
<g id="a_Node000008"><a xlink:href="test__shutdown_server_8cpp.html#a69fea7b0fb329821fdd955271edc65ee" target="_top" xlink:title=" ">
<polygon fill="white" stroke="#666666" points="135,-168 83,-168 83,-149 135,-149 135,-168"/>
<text text-anchor="middle" x="109" y="-156" font-family="Helvetica,sans-Serif" font-size="10.00">TEST_F</text>
</a>
</g>
</g>
<!-- Node6&#45;&gt;Node8 -->
<g id="edge8_Node000006_Node000008" class="edge">
<title>Node6&#45;&gt;Node8</title>
<g id="a_edge8_Node000006_Node000008"><a xlink:title=" ">
<path fill="none" stroke="#63b8ff" d="M183.67,-181.87C167.58,-176.76 149.49,-171.03 135.26,-166.51"/>
<polygon fill="#63b8ff" stroke="#63b8ff" points="182.79,-185.26 193.38,-184.95 184.91,-178.59 182.79,-185.26"/>
</a>
</g>
</g>
<!-- Node9 -->
<g id="Node000009" class="node">
<title>Node9</title>
<g id="a_Node000009"><a xlink:href="test__shutdown_server_8cpp.html#a224e0b58937c3db439ffeef179620439" target="_top" xlink:title=" ">
<polygon fill="white" stroke="#666666" points="135,-131 83,-131 83,-112 135,-112 135,-131"/>
<text text-anchor="middle" x="109" y="-119" font-family="Helvetica,sans-Serif" font-size="10.00">TEST_F</text>
</a>
</g>
</g>
<!-- Node6&#45;&gt;Node9 -->
<g id="edge9_Node000006_Node000009" class="edge">
<title>Node6&#45;&gt;Node9</title>
<g id="a_edge9_Node000006_Node000009"><a xlink:title=" ">
<path fill="none" stroke="#63b8ff" d="M183.77,-180.5C181.43,-179.25 179.15,-177.92 177,-176.5 157.86,-163.85 159.09,-153.61 141,-139.5 137.17,-136.51 132.8,-133.68 128.57,-131.17"/>
<polygon fill="#63b8ff" stroke="#63b8ff" points="182.51,-183.78 193.04,-184.89 185.5,-177.45 182.51,-183.78"/>
</a>
</g>
</g>
</g>
</svg>

<g id="navigator" transform="translate(0 0)" fill="#404254">
  <rect fill="#f2f5e9" fill-opacity="0.5" stroke="#606060" stroke-width=".5" x="0" y="0" width="60" height="60"/>
  <use id="zoomplus" xlink:href="#zoomPlus" x="17" y="9" onmousedown="handleZoom(evt,'in')"/>
  <use id="zoomminus" xlink:href="#zoomMin" x="42" y="9" onmousedown="handleZoom(evt,'out')"/>
  <use id="reset" xlink:href="#resetDef" x="30" y="36" onmousedown="handleReset()"/>
   <use id="arrowup" xlink:href="#arrowUp" x="0" y="0" onmousedown="handlePan(0,-1)"/>
  <use id="arrowright" xlink:href="#arrowRight" x="0" y="0" onmousedown="handlePan(1,0)"/>
  <use id="arrowdown" xlink:href="#arrowDown" x="0" y="0" onmousedown="handlePan(0,1)"/>
  <use id="arrowleft" xlink:href="#arrowLeft" x="0" y="0" onmousedown="handlePan(-1,0)"/>
</g>
<svg viewBox="0 0 15 15" width="100%" height="30px" preserveAspectRatio="xMaxYMin meet">
 <g id="arrow_out" transform="scale(0.3 0.3)">
  <a xlink:href="namespacewebutils_ad74875f464c74bd45589002fc385605e_icgraph_org.svg" target="_base">
   <rect id="button" ry="5" rx="5" y="6" x="6" height="38" width="38"
        fill="#f2f5e9" fill-opacity="0.5" stroke="#606060" stroke-width="1.0"/>
   <path id="arrow"
     d="M 11.500037,31.436501 C 11.940474,20.09759 22.043105,11.32322 32.158766,21.979434 L 37.068811,17.246167 C 37.068811,17.246167 37.088388,32 37.088388,32 L 22.160133,31.978069 C 22.160133,31.978069 26.997745,27.140456 26.997745,27.140456 C 18.528582,18.264221 13.291696,25.230495 11.500037,31.436501 z"
     style="fill:#404040;"/>
  </a>
 </g>
</svg>

<style type='text/css'>
<![CDATA[
[data-mouse-over-selected='false'] { opacity: 0.7; }
[data-mouse-over-selected='true']  { opacity: 1.0; }
]]>
</style>
<script type="application/ecmascript"><![CDATA[
document.addEventListener('DOMContentLoaded', (event) => {
  highlightEdges();
  highlightAdjacentNodes();
});
]]></script>
</svg>
