<?xml version="1.0" encoding="UTF-8" standalone="no"?>
<!DOCTYPE svg PUBLIC "-//W3C//DTD SVG 1.1//EN"
 "http://www.w3.org/Graphics/SVG/1.1/DTD/svg11.dtd">
<!-- Generated by graphviz version 2.43.0 (0)
 -->
<!-- Title: webutils::closeFd Pages: 1 -->
<svg width="1489pt" height="585pt"
 viewBox="0.00 0.00 1489.00 585.00" xmlns="http://www.w3.org/2000/svg" xmlns:xlink="http://www.w3.org/1999/xlink">
<g id="graph0" class="graph" transform="scale(1 1) rotate(0) translate(4 581)">
<title>webutils::closeFd</title>
<!-- Node1 -->
<g id="Node000001" class="node">
<title>Node1</title>
<g id="a_Node000001"><a xlink:title=" ">
<polygon fill="#999999" stroke="#666666" points="1481,-204 1380,-204 1380,-185 1481,-185 1481,-204"/>
<text text-anchor="middle" x="1430.5" y="-192" font-family="Helvetica,sans-Serif" font-size="10.00">webutils::closeFd</text>
</a>
</g>
</g>
<!-- Node2 -->
<g id="Node000002" class="node">
<title>Node2</title>
<g id="a_Node000002"><a xlink:href="class_c_g_i_handler.html#af2fe74a0b25abfed3cd0aa39c0e26659" target="_top" xlink:title="Constructs a CGIHandler object and sets up the environment for the CGI script.">
<polygon fill="white" stroke="#666666" points="1323,-278 1189,-278 1189,-259 1323,-259 1323,-278"/>
<text text-anchor="middle" x="1256" y="-266" font-family="Helvetica,sans-Serif" font-size="10.00">CGIHandler::CGIHandler</text>
</a>
</g>
</g>
<!-- Node1&#45;&gt;Node2 -->
<g id="edge1_Node000001_Node000002" class="edge">
<title>Node1&#45;&gt;Node2</title>
<g id="a_edge1_Node000001_Node000002"><a xlink:title=" ">
<path fill="none" stroke="#63b8ff" d="M1409.53,-210.72C1392.94,-223.4 1368.21,-240.49 1344,-250.5 1335.73,-253.92 1326.75,-256.71 1317.79,-258.99"/>
<polygon fill="#63b8ff" stroke="#63b8ff" points="1412.14,-213.13 1417.86,-204.21 1407.82,-207.61 1412.14,-213.13"/>
</a>
</g>
</g>
<!-- Node3 -->
<g id="Node000003" class="node">
<title>Node3</title>
<g id="a_Node000003"><a xlink:href="_connection_8cpp.html#a1787b72853fa3a6146cea621fa1d0d65" target="_top" xlink:title="Clears the state of a given Connection object and resets its attributes.">
<polygon fill="white" stroke="#666666" points="1303.5,-241 1208.5,-241 1208.5,-222 1303.5,-222 1303.5,-241"/>
<text text-anchor="middle" x="1256" y="-229" font-family="Helvetica,sans-Serif" font-size="10.00">clearConnection</text>
</a>
</g>
</g>
<!-- Node1&#45;&gt;Node3 -->
<g id="edge2_Node000001_Node000003" class="edge">
<title>Node1&#45;&gt;Node3</title>
<g id="a_edge2_Node000001_Node000003"><a xlink:title=" ">
<path fill="none" stroke="#63b8ff" d="M1377.06,-206.28C1366.14,-208.7 1354.7,-211.2 1344,-213.5 1330.88,-216.31 1316.63,-219.3 1303.53,-222"/>
<polygon fill="#63b8ff" stroke="#63b8ff" points="1377.9,-209.68 1386.91,-204.09 1376.39,-202.85 1377.9,-209.68"/>
</a>
</g>
</g>
<!-- Node19 -->
<g id="Node000019" class="node">
<title>Node19</title>
<g id="a_Node000019"><a xlink:href="class_c_g_i_handler.html#a341ca7c3cad04848c5e0787341fa573e" target="_top" xlink:title="Executes the CGI script for the given HTTP request.">
<polygon fill="white" stroke="#666666" points="1314,-167 1198,-167 1198,-148 1314,-148 1314,-167"/>
<text text-anchor="middle" x="1256" y="-155" font-family="Helvetica,sans-Serif" font-size="10.00">CGIHandler::execute</text>
</a>
</g>
</g>
<!-- Node1&#45;&gt;Node19 -->
<g id="edge21_Node000001_Node000019" class="edge">
<title>Node1&#45;&gt;Node19</title>
<g id="a_edge21_Node000001_Node000019"><a xlink:title=" ">
<path fill="none" stroke="#63b8ff" d="M1375.18,-182.85C1351.48,-177.77 1324.04,-171.88 1301.57,-167.06"/>
<polygon fill="#63b8ff" stroke="#63b8ff" points="1374.57,-186.3 1385.08,-184.97 1376.03,-179.45 1374.57,-186.3"/>
</a>
</g>
</g>
<!-- Node33 -->
<g id="Node000033" class="node">
<title>Node33</title>
<g id="a_Node000033"><a xlink:href="class_server.html#abcfb45414689863da69c2e72ac8fc946" target="_top" xlink:title="Register a CGI file descriptor.">
<polygon fill="white" stroke="#666666" points="1344,-204 1168,-204 1168,-185 1344,-185 1344,-204"/>
<text text-anchor="middle" x="1256" y="-192" font-family="Helvetica,sans-Serif" font-size="10.00">Server::registerCGIFileDescriptor</text>
</a>
</g>
</g>
<!-- Node1&#45;&gt;Node33 -->
<g id="edge36_Node000001_Node000033" class="edge">
<title>Node1&#45;&gt;Node33</title>
<g id="a_edge36_Node000001_Node000033"><a xlink:title=" ">
<path fill="none" stroke="#63b8ff" d="M1369.44,-194.5C1361.25,-194.5 1352.72,-194.5 1344.17,-194.5"/>
<polygon fill="#63b8ff" stroke="#63b8ff" points="1369.61,-198 1379.61,-194.5 1369.61,-191 1369.61,-198"/>
</a>
</g>
</g>
<!-- Node34 -->
<g id="Node000034" class="node">
<title>Node34</title>
<g id="a_Node000034"><a xlink:href="class_server.html#ab4a0ae2ec5d126062a7c5d4a2f78160a" target="_top" xlink:title="Removes a CGI file descriptor from the server.">
<polygon fill="white" stroke="#666666" points="924,-75 748,-75 748,-56 924,-56 924,-75"/>
<text text-anchor="middle" x="836" y="-63" font-family="Helvetica,sans-Serif" font-size="10.00">Server::removeCGIFileDescriptor</text>
</a>
</g>
</g>
<!-- Node1&#45;&gt;Node34 -->
<g id="edge38_Node000001_Node000034" class="edge">
<title>Node1&#45;&gt;Node34</title>
<g id="a_edge38_Node000001_Node000034"><a xlink:title=" ">
<path fill="none" stroke="#63b8ff" d="M1409.92,-178.41C1393.38,-165.73 1368.55,-148.69 1344,-139.5 1203.21,-86.78 1027.36,-71.42 924.09,-67.07"/>
<polygon fill="#63b8ff" stroke="#63b8ff" points="1408.17,-181.49 1418.19,-184.93 1412.51,-176 1408.17,-181.49"/>
</a>
</g>
</g>
<!-- Node4 -->
<g id="Node000004" class="node">
<title>Node4</title>
<g id="a_Node000004"><a xlink:href="_server_8cpp.html#a43e9e764c97aacfc12f233b33ffa3342" target="_top" xlink:title="Sends the response to a client connection.">
<polygon fill="white" stroke="#666666" points="1116.5,-466 975.5,-466 975.5,-447 1116.5,-447 1116.5,-466"/>
<text text-anchor="middle" x="1046" y="-454" font-family="Helvetica,sans-Serif" font-size="10.00">connectionSendResponse</text>
</a>
</g>
</g>
<!-- Node3&#45;&gt;Node4 -->
<g id="edge3_Node000003_Node000004" class="edge">
<title>Node3&#45;&gt;Node4</title>
<g id="a_edge3_Node000003_Node000004"><a xlink:title=" ">
<path fill="none" stroke="#63b8ff" d="M1198.38,-236.81C1187.6,-239.7 1176.91,-244.04 1168,-250.5 1095.47,-303.09 1059.19,-413.59 1049.63,-446.84"/>
<polygon fill="#63b8ff" stroke="#63b8ff" points="1199.3,-240.19 1208.26,-234.53 1197.73,-233.36 1199.3,-240.19"/>
</a>
</g>
</g>
<!-- Node5 -->
<g id="Node000005" class="node">
<title>Node5</title>
<g id="a_Node000005"><a xlink:href="_server_8cpp.html#a9b6964fe44b1605c00c0f211a7f42896" target="_top" xlink:title="Builds the response for a client connection.">
<polygon fill="white" stroke="#666666" points="907,-503 765,-503 765,-484 907,-484 907,-503"/>
<text text-anchor="middle" x="836" y="-491" font-family="Helvetica,sans-Serif" font-size="10.00">connectionBuildResponse</text>
</a>
</g>
</g>
<!-- Node4&#45;&gt;Node5 -->
<g id="edge4_Node000004_Node000005" class="edge">
<title>Node4&#45;&gt;Node5</title>
<g id="a_edge4_Node000004_Node000005"><a xlink:title=" ">
<path fill="none" stroke="#63b8ff" d="M981.4,-467.81C952.4,-472.97 918.44,-479.01 890.74,-483.94"/>
<polygon fill="#63b8ff" stroke="#63b8ff" points="982.2,-471.23 991.43,-466.03 980.98,-464.33 982.2,-471.23"/>
</a>
</g>
</g>
<!-- Node7 -->
<g id="Node000007" class="node">
<title>Node7</title>
<g id="a_Node000007"><a xlink:href="_server_8cpp.html#afb62203471d9a64b23d0267d5a4a261a" target="_top" xlink:title="Handle a client connection.">
<polygon fill="white" stroke="#666666" points="525,-372 421,-372 421,-353 525,-353 525,-372"/>
<text text-anchor="middle" x="473" y="-360" font-family="Helvetica,sans-Serif" font-size="10.00">handleConnection</text>
</a>
</g>
</g>
<!-- Node4&#45;&gt;Node7 -->
<g id="edge16_Node000004_Node000007" class="edge">
<title>Node4&#45;&gt;Node7</title>
<g id="a_edge16_Node000004_Node000007"><a xlink:title=" ">
<path fill="none" stroke="#63b8ff" d="M1019.77,-441.95C995.93,-428.96 958.72,-410.61 924,-401.5 783.11,-364.54 609.76,-360.68 525.23,-361.35"/>
<polygon fill="#63b8ff" stroke="#63b8ff" points="1018.39,-445.19 1028.83,-446.98 1021.79,-439.07 1018.39,-445.19"/>
</a>
</g>
</g>
<!-- Node15 -->
<g id="Node000015" class="node">
<title>Node15</title>
<g id="a_Node000015"><a xlink:href="test__connection_send_response_8cpp.html#a824593e26c42b4efd63e5d15e5bc8cb2" target="_top" xlink:title=" ">
<polygon fill="white" stroke="#666666" points="862,-466 810,-466 810,-447 862,-447 862,-466"/>
<text text-anchor="middle" x="836" y="-454" font-family="Helvetica,sans-Serif" font-size="10.00">TEST_F</text>
</a>
</g>
</g>
<!-- Node4&#45;&gt;Node15 -->
<g id="edge17_Node000004_Node000015" class="edge">
<title>Node4&#45;&gt;Node15</title>
<g id="a_edge17_Node000004_Node000015"><a xlink:title=" ">
<path fill="none" stroke="#63b8ff" d="M965.23,-456.5C928.52,-456.5 887.55,-456.5 862.02,-456.5"/>
<polygon fill="#63b8ff" stroke="#63b8ff" points="965.45,-460 975.45,-456.5 965.45,-453 965.45,-460"/>
</a>
</g>
</g>
<!-- Node16 -->
<g id="Node000016" class="node">
<title>Node16</title>
<g id="a_Node000016"><a xlink:href="test__connection_send_response_8cpp.html#ae51efb039114ce1ecc536678298e3ac3" target="_top" xlink:title=" ">
<polygon fill="white" stroke="#666666" points="862,-429 810,-429 810,-410 862,-410 862,-429"/>
<text text-anchor="middle" x="836" y="-417" font-family="Helvetica,sans-Serif" font-size="10.00">TEST_F</text>
</a>
</g>
</g>
<!-- Node4&#45;&gt;Node16 -->
<g id="edge18_Node000004_Node000016" class="edge">
<title>Node4&#45;&gt;Node16</title>
<g id="a_edge18_Node000004_Node000016"><a xlink:title=" ">
<path fill="none" stroke="#63b8ff" d="M981.43,-445.19C941.2,-438.04 891.41,-429.18 862.04,-423.95"/>
<polygon fill="#63b8ff" stroke="#63b8ff" points="980.98,-448.67 991.43,-446.97 982.2,-441.77 980.98,-448.67"/>
</a>
</g>
</g>
<!-- Node17 -->
<g id="Node000017" class="node">
<title>Node17</title>
<g id="a_Node000017"><a xlink:href="test__connection_send_response_8cpp.html#a21c07341abaaa0409856bcd3c99f91d8" target="_top" xlink:title=" ">
<polygon fill="white" stroke="#666666" points="862,-577 810,-577 810,-558 862,-558 862,-577"/>
<text text-anchor="middle" x="836" y="-565" font-family="Helvetica,sans-Serif" font-size="10.00">TEST_F</text>
</a>
</g>
</g>
<!-- Node4&#45;&gt;Node17 -->
<g id="edge19_Node000004_Node000017" class="edge">
<title>Node4&#45;&gt;Node17</title>
<g id="a_edge19_Node000004_Node000017"><a xlink:title=" ">
<path fill="none" stroke="#63b8ff" d="M1028.49,-473.22C1006.59,-494.37 965.83,-530.33 924,-549.5 904.37,-558.5 880.19,-563.04 862.31,-565.3"/>
<polygon fill="#63b8ff" stroke="#63b8ff" points="1030.99,-475.67 1035.66,-466.16 1026.08,-470.68 1030.99,-475.67"/>
</a>
</g>
</g>
<!-- Node18 -->
<g id="Node000018" class="node">
<title>Node18</title>
<g id="a_Node000018"><a xlink:href="test__connection_send_response_8cpp.html#ac0244b587995b8cde69686452c3c41c8" target="_top" xlink:title=" ">
<polygon fill="white" stroke="#666666" points="862,-540 810,-540 810,-521 862,-521 862,-540"/>
<text text-anchor="middle" x="836" y="-528" font-family="Helvetica,sans-Serif" font-size="10.00">TEST_F</text>
</a>
</g>
</g>
<!-- Node4&#45;&gt;Node18 -->
<g id="edge20_Node000004_Node000018" class="edge">
<title>Node4&#45;&gt;Node18</title>
<g id="a_edge20_Node000004_Node000018"><a xlink:title=" ">
<path fill="none" stroke="#63b8ff" d="M1018.62,-470.86C994.58,-483.42 957.77,-501.36 924,-512.5 903.64,-519.22 879.74,-523.95 862.15,-526.87"/>
<polygon fill="#63b8ff" stroke="#63b8ff" points="1020.28,-473.94 1027.48,-466.17 1017.01,-467.76 1020.28,-473.94"/>
</a>
</g>
</g>
<!-- Node6 -->
<g id="Node000006" class="node">
<title>Node6</title>
<g id="a_Node000006"><a xlink:href="_server_8cpp.html#ad132a77471376bd48681070a795df914" target="_top" xlink:title="Handles a timeout for a client connection.">
<polygon fill="white" stroke="#666666" points="709,-438 564,-438 564,-419 709,-419 709,-438"/>
<text text-anchor="middle" x="636.5" y="-426" font-family="Helvetica,sans-Serif" font-size="10.00">connectionHandleTimeout</text>
</a>
</g>
</g>
<!-- Node5&#45;&gt;Node6 -->
<g id="edge5_Node000005_Node000006" class="edge">
<title>Node5&#45;&gt;Node6</title>
<g id="a_edge5_Node000005_Node000006"><a xlink:title=" ">
<path fill="none" stroke="#63b8ff" d="M770.34,-481.61C762.75,-479.78 755.16,-477.74 748,-475.5 714.97,-465.17 678.31,-448.48 656.62,-438.01"/>
<polygon fill="#63b8ff" stroke="#63b8ff" points="769.75,-485.07 780.28,-483.9 771.32,-478.25 769.75,-485.07"/>
</a>
</g>
</g>
<!-- Node5&#45;&gt;Node7 -->
<g id="edge15_Node000005_Node000007" class="edge">
<title>Node5&#45;&gt;Node7</title>
<g id="a_edge15_Node000005_Node000007"><a xlink:title=" ">
<path fill="none" stroke="#63b8ff" d="M754.97,-492.61C698.12,-489.06 621.45,-478.21 561,-447.5 524.67,-429.04 493.67,-390.1 480.61,-372.06"/>
<polygon fill="#63b8ff" stroke="#63b8ff" points="754.81,-496.1 764.99,-493.17 755.21,-489.12 754.81,-496.1"/>
</a>
</g>
</g>
<!-- Node6&#45;&gt;Node7 -->
<g id="edge6_Node000006_Node000007" class="edge">
<title>Node6&#45;&gt;Node7</title>
<g id="a_edge6_Node000006_Node000007"><a xlink:title=" ">
<path fill="none" stroke="#63b8ff" d="M602.41,-414.98C571.08,-402.18 524.85,-383.28 497.25,-372"/>
<polygon fill="#63b8ff" stroke="#63b8ff" points="601.44,-418.36 612.02,-418.9 604.08,-411.88 601.44,-418.36"/>
</a>
</g>
</g>
<!-- Node8 -->
<g id="Node000008" class="node">
<title>Node8</title>
<g id="a_Node000008"><a xlink:href="_server_8cpp.html#af9f4479a6262c17deef89938118d27f4" target="_top" xlink:title="Accepts new connections or handles existing ones.">
<polygon fill="white" stroke="#666666" points="385,-372 308,-372 308,-353 385,-353 385,-372"/>
<text text-anchor="middle" x="346.5" y="-360" font-family="Helvetica,sans-Serif" font-size="10.00">handleEvent</text>
</a>
</g>
</g>
<!-- Node7&#45;&gt;Node8 -->
<g id="edge7_Node000007_Node000008" class="edge">
<title>Node7&#45;&gt;Node8</title>
<g id="a_edge7_Node000007_Node000008"><a xlink:title=" ">
<path fill="none" stroke="#63b8ff" d="M410.49,-362.5C401.8,-362.5 393.1,-362.5 385.05,-362.5"/>
<polygon fill="#63b8ff" stroke="#63b8ff" points="410.64,-366 420.64,-362.5 410.64,-359 410.64,-366"/>
</a>
</g>
</g>
<!-- Node9 -->
<g id="Node000009" class="node">
<title>Node9</title>
<g id="a_Node000009"><a xlink:href="_server_8cpp.html#ab66b27c2186daacb15a6b13dd43be31b" target="_top" xlink:title="Runs the main event loop with a server object.">
<polygon fill="white" stroke="#666666" points="141,-391 77,-391 77,-372 141,-372 141,-391"/>
<text text-anchor="middle" x="109" y="-379" font-family="Helvetica,sans-Serif" font-size="10.00">runServer</text>
</a>
</g>
</g>
<!-- Node8&#45;&gt;Node9 -->
<g id="edge8_Node000008_Node000009" class="edge">
<title>Node8&#45;&gt;Node9</title>
<g id="a_edge8_Node000008_Node000009"><a xlink:title=" ">
<path fill="none" stroke="#63b8ff" d="M297.73,-366.35C250.95,-370.13 181.04,-375.77 141.05,-378.99"/>
<polygon fill="#63b8ff" stroke="#63b8ff" points="298.24,-369.82 307.92,-365.53 297.67,-362.85 298.24,-369.82"/>
</a>
</g>
</g>
<!-- Node11 -->
<g id="Node000011" class="node">
<title>Node11</title>
<g id="a_Node000011"><a xlink:href="_server_8cpp.html#a115ecd76e344c1007bedc48b9bbdc0fa" target="_top" xlink:title="Performs a graceful shutdown of the server.">
<polygon fill="white" stroke="#666666" points="272,-353 177,-353 177,-334 272,-334 272,-353"/>
<text text-anchor="middle" x="224.5" y="-341" font-family="Helvetica,sans-Serif" font-size="10.00">shutdownServer</text>
</a>
</g>
</g>
<!-- Node8&#45;&gt;Node11 -->
<g id="edge10_Node000008_Node000011" class="edge">
<title>Node8&#45;&gt;Node11</title>
<g id="a_edge10_Node000008_Node000011"><a xlink:title=" ">
<path fill="none" stroke="#63b8ff" d="M297.82,-354.95C289.42,-353.62 280.68,-352.24 272.3,-350.91"/>
<polygon fill="#63b8ff" stroke="#63b8ff" points="297.44,-358.43 307.86,-356.54 298.53,-351.52 297.44,-358.43"/>
</a>
</g>
</g>
<!-- Node10 -->
<g id="Node000010" class="node">
<title>Node10</title>
<g id="a_Node000010"><a xlink:href="main_8cpp.html#a3c04138a5bfe5d72780bb7e82a18e627" target="_top" xlink:title=" ">
<polygon fill="white" stroke="#666666" points="41,-391 0,-391 0,-372 41,-372 41,-391"/>
<text text-anchor="middle" x="20.5" y="-379" font-family="Helvetica,sans-Serif" font-size="10.00">main</text>
</a>
</g>
</g>
<!-- Node9&#45;&gt;Node10 -->
<g id="edge9_Node000009_Node000010" class="edge">
<title>Node9&#45;&gt;Node10</title>
<g id="a_edge9_Node000009_Node000010"><a xlink:title=" ">
<path fill="none" stroke="#63b8ff" d="M66.5,-381.5C57.64,-381.5 48.68,-381.5 41.11,-381.5"/>
<polygon fill="#63b8ff" stroke="#63b8ff" points="66.77,-385 76.77,-381.5 66.77,-378 66.77,-385"/>
</a>
</g>
</g>
<!-- Node11&#45;&gt;Node9 -->
<g id="edge11_Node000011_Node000009" class="edge">
<title>Node11&#45;&gt;Node9</title>
<g id="a_edge11_Node000011_Node000009"><a xlink:title=" ">
<path fill="none" stroke="#63b8ff" d="M185.19,-356.33C169.96,-361.42 152.74,-367.19 138.63,-371.91"/>
<polygon fill="#63b8ff" stroke="#63b8ff" points="186.49,-359.58 194.86,-353.09 184.27,-352.94 186.49,-359.58"/>
</a>
</g>
</g>
<!-- Node12 -->
<g id="Node000012" class="node">
<title>Node12</title>
<g id="a_Node000012"><a xlink:href="test__shutdown_server_8cpp.html#a6462dc91a572c9969b759806ed15590b" target="_top" xlink:title=" ">
<polygon fill="white" stroke="#666666" points="135,-280 83,-280 83,-261 135,-261 135,-280"/>
<text text-anchor="middle" x="109" y="-268" font-family="Helvetica,sans-Serif" font-size="10.00">TEST_F</text>
</a>
</g>
</g>
<!-- Node11&#45;&gt;Node12 -->
<g id="edge12_Node000011_Node000012" class="edge">
<title>Node11&#45;&gt;Node12</title>
<g id="a_edge12_Node000011_Node000012"><a xlink:title=" ">
<path fill="none" stroke="#63b8ff" d="M200.53,-328.2C184.04,-317.29 161.25,-302.33 141,-289.5 136.09,-286.39 130.71,-283.06 125.83,-280.08"/>
<polygon fill="#63b8ff" stroke="#63b8ff" points="198.71,-331.2 208.98,-333.81 202.58,-325.36 198.71,-331.2"/>
</a>
</g>
</g>
<!-- Node13 -->
<g id="Node000013" class="node">
<title>Node13</title>
<g id="a_Node000013"><a xlink:href="test__shutdown_server_8cpp.html#a69fea7b0fb329821fdd955271edc65ee" target="_top" xlink:title=" ">
<polygon fill="white" stroke="#666666" points="135,-354 83,-354 83,-335 135,-335 135,-354"/>
<text text-anchor="middle" x="109" y="-342" font-family="Helvetica,sans-Serif" font-size="10.00">TEST_F</text>
</a>
</g>
</g>
<!-- Node11&#45;&gt;Node13 -->
<g id="edge13_Node000011_Node000013" class="edge">
<title>Node11&#45;&gt;Node13</title>
<g id="a_edge13_Node000011_Node000013"><a xlink:title=" ">
<path fill="none" stroke="#63b8ff" d="M166.63,-344C155.63,-344.1 144.64,-344.19 135.3,-344.28"/>
<polygon fill="#63b8ff" stroke="#63b8ff" points="166.71,-347.5 176.68,-343.91 166.65,-340.5 166.71,-347.5"/>
</a>
</g>
</g>
<!-- Node14 -->
<g id="Node000014" class="node">
<title>Node14</title>
<g id="a_Node000014"><a xlink:href="test__shutdown_server_8cpp.html#ae0ede4f52ef6c742c532c14b92b6179a" target="_top" xlink:title=" ">
<polygon fill="white" stroke="#666666" points="135,-317 83,-317 83,-298 135,-298 135,-317"/>
<text text-anchor="middle" x="109" y="-305" font-family="Helvetica,sans-Serif" font-size="10.00">TEST_F</text>
</a>
</g>
</g>
<!-- Node11&#45;&gt;Node14 -->
<g id="edge14_Node000011_Node000014" class="edge">
<title>Node11&#45;&gt;Node14</title>
<g id="a_edge14_Node000011_Node000014"><a xlink:title=" ">
<path fill="none" stroke="#63b8ff" d="M183.67,-330.87C167.58,-325.76 149.49,-320.03 135.26,-315.51"/>
<polygon fill="#63b8ff" stroke="#63b8ff" points="182.79,-334.26 193.38,-333.95 184.91,-327.59 182.79,-334.26"/>
</a>
</g>
</g>
<!-- Node20 -->
<g id="Node000020" class="node">
<title>Node20</title>
<g id="a_Node000020"><a xlink:href="_server_8cpp.html#a83350eae81b96dd7b301d1238268ffdb" target="_top" xlink:title="Handles the complete request header received from a client.">
<polygon fill="white" stroke="#666666" points="1132,-204 960,-204 960,-185 1132,-185 1132,-204"/>
<text text-anchor="middle" x="1046" y="-192" font-family="Helvetica,sans-Serif" font-size="10.00">handleCompleteRequestHeader</text>
</a>
</g>
</g>
<!-- Node19&#45;&gt;Node20 -->
<g id="edge22_Node000019_Node000020" class="edge">
<title>Node19&#45;&gt;Node20</title>
<g id="a_edge22_Node000019_Node000020"><a xlink:title=" ">
<path fill="none" stroke="#63b8ff" d="M1191.4,-168.81C1162.4,-173.97 1128.44,-180.01 1100.74,-184.94"/>
<polygon fill="#63b8ff" stroke="#63b8ff" points="1192.2,-172.23 1201.43,-167.03 1190.98,-165.33 1192.2,-172.23"/>
</a>
</g>
</g>
<!-- Node32 -->
<g id="Node000032" class="node">
<title>Node32</title>
<g id="a_Node000032"><a xlink:href="test___c_g_i_handler_8cpp.html#af1a72ed20603bf156fc07598c9c99564" target="_top" xlink:title=" ">
<polygon fill="white" stroke="#666666" points="1072,-167 1020,-167 1020,-148 1072,-148 1072,-167"/>
<text text-anchor="middle" x="1046" y="-155" font-family="Helvetica,sans-Serif" font-size="10.00">TEST_F</text>
</a>
</g>
</g>
<!-- Node19&#45;&gt;Node32 -->
<g id="edge35_Node000019_Node000032" class="edge">
<title>Node19&#45;&gt;Node32</title>
<g id="a_edge35_Node000019_Node000032"><a xlink:title=" ">
<path fill="none" stroke="#63b8ff" d="M1187.79,-157.5C1148.33,-157.5 1100.77,-157.5 1072.25,-157.5"/>
<polygon fill="#63b8ff" stroke="#63b8ff" points="1187.89,-161 1197.89,-157.5 1187.89,-154 1187.89,-161"/>
</a>
</g>
</g>
<!-- Node21 -->
<g id="Node000021" class="node">
<title>Node21</title>
<g id="a_Node000021"><a xlink:href="_server_8cpp.html#aa45d6529fd7be9b7adf788a9679ae34b" target="_top" xlink:title="Receive request header from a client.">
<polygon fill="white" stroke="#666666" points="908,-297 764,-297 764,-278 908,-278 908,-297"/>
<text text-anchor="middle" x="836" y="-285" font-family="Helvetica,sans-Serif" font-size="10.00">connectionReceiveHeader</text>
</a>
</g>
</g>
<!-- Node20&#45;&gt;Node21 -->
<g id="edge23_Node000020_Node000021" class="edge">
<title>Node20&#45;&gt;Node21</title>
<g id="a_edge23_Node000020_Node000021"><a xlink:title=" ">
<path fill="none" stroke="#63b8ff" d="M1024.7,-210.21C1001.58,-227.34 962.07,-254.32 924,-269.5 915.55,-272.87 906.37,-275.64 897.25,-277.92"/>
<polygon fill="#63b8ff" stroke="#63b8ff" points="1026.84,-212.99 1032.72,-204.18 1022.63,-207.39 1026.84,-212.99"/>
</a>
</g>
</g>
<!-- Node27 -->
<g id="Node000027" class="node">
<title>Node27</title>
<g id="a_Node000027"><a xlink:href="test__handle_complete_request_header_8cpp.html#a04308ae6ca27d5aac2ee1ae95e818f78" target="_top" xlink:title=" ">
<polygon fill="white" stroke="#666666" points="862,-186 810,-186 810,-167 862,-167 862,-186"/>
<text text-anchor="middle" x="836" y="-174" font-family="Helvetica,sans-Serif" font-size="10.00">TEST_F</text>
</a>
</g>
</g>
<!-- Node20&#45;&gt;Node27 -->
<g id="edge30_Node000020_Node000027" class="edge">
<title>Node20&#45;&gt;Node27</title>
<g id="a_edge30_Node000020_Node000027"><a xlink:title=" ">
<path fill="none" stroke="#63b8ff" d="M949.83,-186.26C917.53,-183.47 884.09,-180.58 862.08,-178.67"/>
<polygon fill="#63b8ff" stroke="#63b8ff" points="949.53,-189.75 959.8,-187.13 950.14,-182.78 949.53,-189.75"/>
</a>
</g>
</g>
<!-- Node28 -->
<g id="Node000028" class="node">
<title>Node28</title>
<g id="a_Node000028"><a xlink:href="test__handle_complete_request_header_8cpp.html#a00d3c07453ceb8ca6576a951222a7829" target="_top" xlink:title=" ">
<polygon fill="white" stroke="#666666" points="862,-149 810,-149 810,-130 862,-130 862,-149"/>
<text text-anchor="middle" x="836" y="-137" font-family="Helvetica,sans-Serif" font-size="10.00">TEST_F</text>
</a>
</g>
</g>
<!-- Node20&#45;&gt;Node28 -->
<g id="edge31_Node000020_Node000028" class="edge">
<title>Node20&#45;&gt;Node28</title>
<g id="a_edge31_Node000020_Node000028"><a xlink:title=" ">
<path fill="none" stroke="#63b8ff" d="M979.72,-182.46C972.99,-180.69 966.31,-178.71 960,-176.5 943.11,-170.6 940.87,-164.45 924,-158.5 903.74,-151.35 879.83,-146.36 862.21,-143.3"/>
<polygon fill="#63b8ff" stroke="#63b8ff" points="979.02,-185.89 989.57,-184.9 980.7,-179.1 979.02,-185.89"/>
</a>
</g>
</g>
<!-- Node29 -->
<g id="Node000029" class="node">
<title>Node29</title>
<g id="a_Node000029"><a xlink:href="test__handle_complete_request_header_8cpp.html#a5705d4672adfefa8169bd3e9406e75f6" target="_top" xlink:title=" ">
<polygon fill="white" stroke="#666666" points="862,-112 810,-112 810,-93 862,-93 862,-112"/>
<text text-anchor="middle" x="836" y="-100" font-family="Helvetica,sans-Serif" font-size="10.00">TEST_F</text>
</a>
</g>
</g>
<!-- Node20&#45;&gt;Node29 -->
<g id="edge32_Node000020_Node000029" class="edge">
<title>Node20&#45;&gt;Node29</title>
<g id="a_edge32_Node000020_Node000029"><a xlink:title=" ">
<path fill="none" stroke="#63b8ff" d="M966.62,-180.55C964.33,-179.31 962.12,-177.96 960,-176.5 935.65,-159.69 948.39,-137.25 924,-120.5 905.82,-108.01 880.8,-103.86 862.26,-102.63"/>
<polygon fill="#63b8ff" stroke="#63b8ff" points="965.21,-183.76 975.75,-184.83 968.18,-177.42 965.21,-183.76"/>
</a>
</g>
</g>
<!-- Node30 -->
<g id="Node000030" class="node">
<title>Node30</title>
<g id="a_Node000030"><a xlink:href="test__handle_complete_request_header_8cpp.html#a63c4237c8b0edef77a20f599133d77d4" target="_top" xlink:title=" ">
<polygon fill="white" stroke="#666666" points="862,-260 810,-260 810,-241 862,-241 862,-260"/>
<text text-anchor="middle" x="836" y="-248" font-family="Helvetica,sans-Serif" font-size="10.00">TEST_F</text>
</a>
</g>
</g>
<!-- Node20&#45;&gt;Node30 -->
<g id="edge33_Node000020_Node000030" class="edge">
<title>Node20&#45;&gt;Node30</title>
<g id="a_edge33_Node000020_Node000030"><a xlink:title=" ">
<path fill="none" stroke="#63b8ff" d="M1007.67,-207.29C983.9,-215.17 952.34,-225.14 924,-232.5 903.4,-237.85 879.73,-242.66 862.28,-245.96"/>
<polygon fill="#63b8ff" stroke="#63b8ff" points="1008.98,-210.54 1017.35,-204.05 1006.76,-203.9 1008.98,-210.54"/>
</a>
</g>
</g>
<!-- Node31 -->
<g id="Node000031" class="node">
<title>Node31</title>
<g id="a_Node000031"><a xlink:href="test__handle_complete_request_header_8cpp.html#a7e6245bb424d27191d406b619a2fe40b" target="_top" xlink:title=" ">
<polygon fill="white" stroke="#666666" points="862,-223 810,-223 810,-204 862,-204 862,-223"/>
<text text-anchor="middle" x="836" y="-211" font-family="Helvetica,sans-Serif" font-size="10.00">TEST_F</text>
</a>
</g>
</g>
<!-- Node20&#45;&gt;Node31 -->
<g id="edge34_Node000020_Node000031" class="edge">
<title>Node20&#45;&gt;Node31</title>
<g id="a_edge34_Node000020_Node000031"><a xlink:title=" ">
<path fill="none" stroke="#63b8ff" d="M949.83,-203.19C917.53,-206.14 884.09,-209.2 862.08,-211.21"/>
<polygon fill="#63b8ff" stroke="#63b8ff" points="950.16,-206.68 959.8,-202.28 949.52,-199.71 950.16,-206.68"/>
</a>
</g>
</g>
<!-- Node21&#45;&gt;Node7 -->
<g id="edge24_Node000021_Node000007" class="edge">
<title>Node21&#45;&gt;Node7</title>
<g id="a_edge24_Node000021_Node000007"><a xlink:title=" ">
<path fill="none" stroke="#63b8ff" d="M797.45,-300.22C773.27,-308.06 741.04,-317.85 712,-324.5 648.37,-339.08 573.91,-350 525.45,-356.31"/>
<polygon fill="#63b8ff" stroke="#63b8ff" points="798.54,-303.55 806.95,-297.11 796.36,-296.9 798.54,-303.55"/>
</a>
</g>
</g>
<!-- Node22 -->
<g id="Node000022" class="node">
<title>Node22</title>
<g id="a_Node000022"><a xlink:href="test__connection_receive_header_8cpp.html#ae40546436ca5ae6d8af1f754dfff4a98" target="_top" xlink:title=" ">
<polygon fill="white" stroke="#666666" points="662.5,-315 610.5,-315 610.5,-296 662.5,-296 662.5,-315"/>
<text text-anchor="middle" x="636.5" y="-303" font-family="Helvetica,sans-Serif" font-size="10.00">TEST_F</text>
</a>
</g>
</g>
<!-- Node21&#45;&gt;Node22 -->
<g id="edge25_Node000021_Node000022" class="edge">
<title>Node21&#45;&gt;Node22</title>
<g id="a_edge25_Node000021_Node000022"><a xlink:title=" ">
<path fill="none" stroke="#63b8ff" d="M753.9,-294.89C721.12,-297.88 685.65,-301.11 662.59,-303.21"/>
<polygon fill="#63b8ff" stroke="#63b8ff" points="754.34,-298.37 763.98,-293.97 753.7,-291.4 754.34,-298.37"/>
</a>
</g>
</g>
<!-- Node23 -->
<g id="Node000023" class="node">
<title>Node23</title>
<g id="a_Node000023"><a xlink:href="test__connection_receive_header_8cpp.html#a0952222a64d85993a5b3d9022826859c" target="_top" xlink:title=" ">
<polygon fill="white" stroke="#666666" points="662.5,-278 610.5,-278 610.5,-259 662.5,-259 662.5,-278"/>
<text text-anchor="middle" x="636.5" y="-266" font-family="Helvetica,sans-Serif" font-size="10.00">TEST_F</text>
</a>
</g>
</g>
<!-- Node21&#45;&gt;Node23 -->
<g id="edge26_Node000021_Node000023" class="edge">
<title>Node21&#45;&gt;Node23</title>
<g id="a_edge26_Node000021_Node000023"><a xlink:title=" ">
<path fill="none" stroke="#63b8ff" d="M753.9,-279.7C721.12,-276.54 685.65,-273.13 662.59,-270.91"/>
<polygon fill="#63b8ff" stroke="#63b8ff" points="753.69,-283.19 763.98,-280.67 754.36,-276.23 753.69,-283.19"/>
</a>
</g>
</g>
<!-- Node24 -->
<g id="Node000024" class="node">
<title>Node24</title>
<g id="a_Node000024"><a xlink:href="test__connection_receive_header_8cpp.html#a492a1135a23e13de8b412f266f5422dd" target="_top" xlink:title=" ">
<polygon fill="white" stroke="#666666" points="662.5,-241 610.5,-241 610.5,-222 662.5,-222 662.5,-241"/>
<text text-anchor="middle" x="636.5" y="-229" font-family="Helvetica,sans-Serif" font-size="10.00">TEST_F</text>
</a>
</g>
</g>
<!-- Node21&#45;&gt;Node24 -->
<g id="edge27_Node000021_Node000024" class="edge">
<title>Node21&#45;&gt;Node24</title>
<g id="a_edge27_Node000021_Node000024"><a xlink:title=" ">
<path fill="none" stroke="#63b8ff" d="M767.5,-275.51C760.84,-273.74 754.24,-271.74 748,-269.5 730.97,-263.38 728.88,-257 712,-250.5 696.06,-244.36 677.43,-239.61 662.79,-236.39"/>
<polygon fill="#63b8ff" stroke="#63b8ff" points="766.72,-278.92 777.27,-277.94 768.41,-272.13 766.72,-278.92"/>
</a>
</g>
</g>
<!-- Node25 -->
<g id="Node000025" class="node">
<title>Node25</title>
<g id="a_Node000025"><a xlink:href="test__connection_receive_header_8cpp.html#a42aad638a3786700de9108d63bbba850" target="_top" xlink:title=" ">
<polygon fill="white" stroke="#666666" points="662.5,-204 610.5,-204 610.5,-185 662.5,-185 662.5,-204"/>
<text text-anchor="middle" x="636.5" y="-192" font-family="Helvetica,sans-Serif" font-size="10.00">TEST_F</text>
</a>
</g>
</g>
<!-- Node21&#45;&gt;Node25 -->
<g id="edge28_Node000021_Node000025" class="edge">
<title>Node21&#45;&gt;Node25</title>
<g id="a_edge28_Node000021_Node000025"><a xlink:title=" ">
<path fill="none" stroke="#63b8ff" d="M755.03,-273.76C752.6,-272.46 750.25,-271.04 748,-269.5 723.61,-252.75 736,-230.8 712,-213.5 697.6,-203.12 678.05,-198.4 662.59,-196.25"/>
<polygon fill="#63b8ff" stroke="#63b8ff" points="753.59,-276.95 764.13,-277.97 756.52,-270.59 753.59,-276.95"/>
</a>
</g>
</g>
<!-- Node26 -->
<g id="Node000026" class="node">
<title>Node26</title>
<g id="a_Node000026"><a xlink:href="test__connection_receive_header_8cpp.html#aa34cc8553c29e19d06c302699e916a3e" target="_top" xlink:title=" ">
<polygon fill="white" stroke="#666666" points="662.5,-167 610.5,-167 610.5,-148 662.5,-148 662.5,-167"/>
<text text-anchor="middle" x="636.5" y="-155" font-family="Helvetica,sans-Serif" font-size="10.00">TEST_F</text>
</a>
</g>
</g>
<!-- Node21&#45;&gt;Node26 -->
<g id="edge29_Node000021_Node000026" class="edge">
<title>Node21&#45;&gt;Node26</title>
<g id="a_edge29_Node000021_Node000026"><a xlink:title=" ">
<path fill="none" stroke="#63b8ff" d="M754.53,-274.28C752.24,-272.83 750.06,-271.24 748,-269.5 714.18,-240.85 745.16,-205.91 712,-176.5 698.52,-164.54 678.54,-159.91 662.66,-158.21"/>
<polygon fill="#63b8ff" stroke="#63b8ff" points="753.29,-277.59 763.76,-279.2 756.58,-271.41 753.29,-277.59"/>
</a>
</g>
</g>
<!-- Node33&#45;&gt;Node20 -->
<g id="edge37_Node000033_Node000020" class="edge">
<title>Node33&#45;&gt;Node20</title>
<g id="a_edge37_Node000033_Node000020"><a xlink:title=" ">
<path fill="none" stroke="#63b8ff" d="M1157.98,-194.5C1149.41,-194.5 1140.78,-194.5 1132.32,-194.5"/>
<polygon fill="#63b8ff" stroke="#63b8ff" points="1157.99,-198 1167.99,-194.5 1157.99,-191 1157.99,-198"/>
</a>
</g>
</g>
<!-- Node35 -->
<g id="Node000035" class="node">
<title>Node35</title>
<g id="a_Node000035"><a xlink:href="_server_8cpp.html#a735bf6535f62b5907ea2d5f0e1abf3c7" target="_top" xlink:title="Handles receiving data from a CGI script and processes it accordingly.">
<polygon fill="white" stroke="#666666" points="712,-130 561,-130 561,-111 712,-111 712,-130"/>
<text text-anchor="middle" x="636.5" y="-118" font-family="Helvetica,sans-Serif" font-size="10.00">connectionReceiveFromCGI</text>
</a>
</g>
</g>
<!-- Node34&#45;&gt;Node35 -->
<g id="edge39_Node000034_Node000035" class="edge">
<title>Node34&#45;&gt;Node35</title>
<g id="a_edge39_Node000034_Node000035"><a xlink:title=" ">
<path fill="none" stroke="#63b8ff" d="M773.91,-77.18C765.18,-79.13 756.33,-81.25 748,-83.5 718.51,-91.46 685.36,-102.9 663.13,-110.95"/>
<polygon fill="#63b8ff" stroke="#63b8ff" points="774.66,-80.6 783.7,-75.06 773.18,-73.76 774.66,-80.6"/>
</a>
</g>
</g>
<!-- Node38 -->
<g id="Node000038" class="node">
<title>Node38</title>
<g id="a_Node000038"><a xlink:href="_server_8cpp.html#aa67430205b6049aa70bad4682a7442b8" target="_top" xlink:title="Sends the request body to the CGI process.">
<polygon fill="white" stroke="#666666" points="697.5,-75 575.5,-75 575.5,-56 697.5,-56 697.5,-75"/>
<text text-anchor="middle" x="636.5" y="-63" font-family="Helvetica,sans-Serif" font-size="10.00">connectionSendToCGI</text>
</a>
</g>
</g>
<!-- Node34&#45;&gt;Node38 -->
<g id="edge43_Node000034_Node000038" class="edge">
<title>Node34&#45;&gt;Node38</title>
<g id="a_edge43_Node000034_Node000038"><a xlink:title=" ">
<path fill="none" stroke="#63b8ff" d="M737.43,-65.5C723.85,-65.5 710.23,-65.5 697.61,-65.5"/>
<polygon fill="#63b8ff" stroke="#63b8ff" points="737.8,-69 747.8,-65.5 737.8,-62 737.8,-69"/>
</a>
</g>
</g>
<!-- Node35&#45;&gt;Node7 -->
<g id="edge40_Node000035_Node000007" class="edge">
<title>Node35&#45;&gt;Node7</title>
<g id="a_edge40_Node000035_Node000007"><a xlink:title=" ">
<path fill="none" stroke="#63b8ff" d="M566.68,-135.13C564.69,-136.47 562.79,-137.92 561,-139.5 493.46,-199.25 477.91,-317.94 474.74,-352.71"/>
<polygon fill="#63b8ff" stroke="#63b8ff" points="568.86,-137.92 575.9,-130 565.46,-131.81 568.86,-137.92"/>
</a>
</g>
</g>
<!-- Node36 -->
<g id="Node000036" class="node">
<title>Node36</title>
<g id="a_Node000036"><a xlink:href="test__connection_receive_from_c_g_i_8cpp.html#a3a257e52c0c048d052b1f9238cfe0411" target="_top" xlink:title=" ">
<polygon fill="white" stroke="#666666" points="499,-130 447,-130 447,-111 499,-111 499,-130"/>
<text text-anchor="middle" x="473" y="-118" font-family="Helvetica,sans-Serif" font-size="10.00">TEST_F</text>
</a>
</g>
</g>
<!-- Node35&#45;&gt;Node36 -->
<g id="edge41_Node000035_Node000036" class="edge">
<title>Node35&#45;&gt;Node36</title>
<g id="a_edge41_Node000035_Node000036"><a xlink:title=" ">
<path fill="none" stroke="#63b8ff" d="M550.75,-120.5C531.95,-120.5 513.44,-120.5 499.3,-120.5"/>
<polygon fill="#63b8ff" stroke="#63b8ff" points="550.9,-124 560.9,-120.5 550.9,-117 550.9,-124"/>
</a>
</g>
</g>
<!-- Node37 -->
<g id="Node000037" class="node">
<title>Node37</title>
<g id="a_Node000037"><a xlink:href="test__connection_receive_from_c_g_i_8cpp.html#acd248002a168209089438d39017ca034" target="_top" xlink:title=" ">
<polygon fill="white" stroke="#666666" points="499,-167 447,-167 447,-148 499,-148 499,-167"/>
<text text-anchor="middle" x="473" y="-155" font-family="Helvetica,sans-Serif" font-size="10.00">TEST_F</text>
</a>
</g>
</g>
<!-- Node35&#45;&gt;Node37 -->
<g id="edge42_Node000035_Node000037" class="edge">
<title>Node35&#45;&gt;Node37</title>
<g id="a_edge42_Node000035_Node000037"><a xlink:title=" ">
<path fill="none" stroke="#63b8ff" d="M584.16,-132.26C555.86,-138.75 521.97,-146.51 499.32,-151.7"/>
<polygon fill="#63b8ff" stroke="#63b8ff" points="584.94,-135.67 593.91,-130.03 583.38,-128.85 584.94,-135.67"/>
</a>
</g>
</g>
<!-- Node38&#45;&gt;Node7 -->
<g id="edge44_Node000038_Node000007" class="edge">
<title>Node38&#45;&gt;Node7</title>
<g id="a_edge44_Node000038_Node000007"><a xlink:title=" ">
<path fill="none" stroke="#63b8ff" d="M592.9,-79.04C581.27,-84.47 569.53,-91.8 561,-101.5 543.26,-121.68 489.5,-308 476.74,-352.83"/>
<polygon fill="#63b8ff" stroke="#63b8ff" points="594.32,-82.24 602.14,-75.09 591.57,-75.8 594.32,-82.24"/>
</a>
</g>
</g>
<!-- Node39 -->
<g id="Node000039" class="node">
<title>Node39</title>
<g id="a_Node000039"><a xlink:href="test__connection_send_to_c_g_i_8cpp.html#a71e710d9b5f2f4a568086e70def06ccc" target="_top" xlink:title=" ">
<polygon fill="white" stroke="#666666" points="499,-56 447,-56 447,-37 499,-37 499,-56"/>
<text text-anchor="middle" x="473" y="-44" font-family="Helvetica,sans-Serif" font-size="10.00">TEST_F</text>
</a>
</g>
</g>
<!-- Node38&#45;&gt;Node39 -->
<g id="edge45_Node000038_Node000039" class="edge">
<title>Node38&#45;&gt;Node39</title>
<g id="a_edge45_Node000038_Node000039"><a xlink:title=" ">
<path fill="none" stroke="#63b8ff" d="M565.35,-57.25C541.76,-54.47 516.95,-51.55 499.14,-49.46"/>
<polygon fill="#63b8ff" stroke="#63b8ff" points="565.02,-60.73 575.36,-58.43 565.84,-53.78 565.02,-60.73"/>
</a>
</g>
</g>
<!-- Node40 -->
<g id="Node000040" class="node">
<title>Node40</title>
<g id="a_Node000040"><a xlink:href="test__connection_send_to_c_g_i_8cpp.html#ab009e8595170fb19af2600ddd2f4362a" target="_top" xlink:title=" ">
<polygon fill="white" stroke="#666666" points="499,-19 447,-19 447,0 499,0 499,-19"/>
<text text-anchor="middle" x="473" y="-7" font-family="Helvetica,sans-Serif" font-size="10.00">TEST_F</text>
</a>
</g>
</g>
<!-- Node38&#45;&gt;Node40 -->
<g id="edge46_Node000038_Node000040" class="edge">
<title>Node38&#45;&gt;Node40</title>
<g id="a_edge46_Node000038_Node000040"><a xlink:title=" ">
<path fill="none" stroke="#63b8ff" d="M597.9,-52.46C567.47,-41.91 525.46,-27.34 499.02,-18.17"/>
<polygon fill="#63b8ff" stroke="#63b8ff" points="597.14,-55.9 607.74,-55.87 599.44,-49.29 597.14,-55.9"/>
</a>
</g>
</g>
<!-- Node41 -->
<g id="Node000041" class="node">
<title>Node41</title>
<g id="a_Node000041"><a xlink:href="test__connection_send_to_c_g_i_8cpp.html#a35214933bd65d5cd26ad10f15604a4b3" target="_top" xlink:title=" ">
<polygon fill="white" stroke="#666666" points="499,-93 447,-93 447,-74 499,-74 499,-93"/>
<text text-anchor="middle" x="473" y="-81" font-family="Helvetica,sans-Serif" font-size="10.00">TEST_F</text>
</a>
</g>
</g>
<!-- Node38&#45;&gt;Node41 -->
<g id="edge47_Node000038_Node000041" class="edge">
<title>Node38&#45;&gt;Node41</title>
<g id="a_edge47_Node000038_Node000041"><a xlink:title=" ">
<path fill="none" stroke="#63b8ff" d="M565.35,-73.32C541.76,-75.95 516.95,-78.71 499.14,-80.7"/>
<polygon fill="#63b8ff" stroke="#63b8ff" points="565.81,-76.79 575.36,-72.2 565.04,-69.83 565.81,-76.79"/>
</a>
</g>
</g>
</g>
</svg>
