<?xml version="1.0" encoding="UTF-8" standalone="no"?>
<!DOCTYPE svg PUBLIC "-//W3C//DTD SVG 1.1//EN"
 "http://www.w3.org/Graphics/SVG/1.1/DTD/svg11.dtd">
<!-- Generated by graphviz version 2.43.0 (0)
 -->
<!-- Title: inc/signalHandler.hpp Pages: 1 -->
<!--zoomable 258 -->

<svg id="main" version="1.1" xmlns="http://www.w3.org/2000/svg" xmlns:xlink="http://www.w3.org/1999/xlink" xml:space="preserve" onload="init(evt)">
<style type="text/css"><![CDATA[
.node, .edge {opacity: 0.7;}
.node.selected, .edge.selected {opacity: 1;}
.edge:hover path { stroke: red; }
.edge:hover polygon { stroke: red; fill: red; }
]]></style>

<defs>
  <circle id="rim" cx="0" cy="0" r="7"/>
  <circle id="rim2" cx="0" cy="0" r="3.5"/>
  <g id="zoomPlus">
    <use xlink:href="#rim" fill="#404040"><set attributeName="fill" to="#808080" begin="zoomplus.mouseover" end="zoomplus.mouseout"/></use>
    <path d="M-4,0h8M0,-4v8" fill="none" stroke="white" stroke-width="1.5" pointer-events="none"/>
  </g>
  <g id="zoomMin">
    <use xlink:href="#rim" fill="#404040"><set attributeName="fill" to="#808080" begin="zoomminus.mouseover" end="zoomminus.mouseout"/></use>
    <path d="M-4,0h8" fill="none" stroke="white" stroke-width="1.5" pointer-events="none"/>
  </g>
  <g id="arrowUp" transform="translate(30 24)">
    <use xlink:href="#rim"/>
    <path pointer-events="none" fill="none" stroke="white" stroke-width="1.5" d="M0,-3.0v7 M-2.5,-0.5L0,-3.0L2.5,-0.5"/>
  </g>
  <g id="arrowRight" transform="rotate(90) translate(36 -43)">
    <use xlink:href="#rim"/>
    <path pointer-events="none" fill="none" stroke="white" stroke-width="1.5" d="M0,-3.0v7 M-2.5,-0.5L0,-3.0L2.5,-0.5"/>
  </g>
  <g id="arrowDown" transform="rotate(180) translate(-30 -48)">
    <use xlink:href="#rim"/>
    <path pointer-events="none" fill="none" stroke="white" stroke-width="1.5" d="M0,-3.0v7 M-2.5,-0.5L0,-3.0L2.5,-0.5"/>
  </g>
  <g id="arrowLeft" transform="rotate(270) translate(-36 17)">
    <use xlink:href="#rim"/>
    <path pointer-events="none" fill="none" stroke="white" stroke-width="1.5" d="M0,-3.0v7 M-2.5,-0.5L0,-3.0L2.5,-0.5"/>
  </g>
  <g id="resetDef">
    <use xlink:href="#rim2" fill="#404040"><set attributeName="fill" to="#808080" begin="reset.mouseover" end="reset.mouseout"/></use>
  </g>
</defs>
<script type="application/ecmascript">
var viewWidth = 3112;
var viewHeight = 258;
var sectionId = 'dynsection-1';
</script>
<script type="application/ecmascript" xlink:href="svg.min.js"/>
<svg id="graph" class="graph">
<g id="viewport">
<title>inc/signalHandler.hpp</title>
<!-- Node1 -->
<g id="Node000001" class="node">
<title>Node1</title>
<g id="a_Node000001"><a xlink:title=" ">
<polygon fill="#999999" stroke="#666666" points="1696.5,-250 1574.5,-250 1574.5,-231 1696.5,-231 1696.5,-250"/>
<text text-anchor="middle" x="1635.5" y="-238" font-family="Helvetica,sans-Serif" font-size="10.00">inc/signalHandler.hpp</text>
</a>
</g>
</g>
<!-- Node2 -->
<g id="Node000002" class="node">
<title>Node2</title>
<g id="a_Node000002"><a xlink:href="_c_g_i_handler_8hpp.html" target="_top" xlink:title=" ">
<polygon fill="white" stroke="#666666" points="1690.5,-195 1580.5,-195 1580.5,-176 1690.5,-176 1690.5,-195"/>
<text text-anchor="middle" x="1635.5" y="-183" font-family="Helvetica,sans-Serif" font-size="10.00">inc/CGIHandler.hpp</text>
</a>
</g>
</g>
<!-- Node1&#45;&gt;Node2 -->
<g id="edge1_Node000001_Node000002" class="edge">
<title>Node1&#45;&gt;Node2</title>
<g id="a_edge1_Node000001_Node000002"><a xlink:title=" ">
<path fill="none" stroke="#63b8ff" d="M1635.5,-220.66C1635.5,-211.93 1635.5,-201.99 1635.5,-195.09"/>
<polygon fill="#63b8ff" stroke="#63b8ff" points="1632,-220.75 1635.5,-230.75 1639,-220.75 1632,-220.75"/>
</a>
</g>
</g>
<!-- Node3 -->
<g id="Node000003" class="node">
<title>Node3</title>
<g id="a_Node000003"><a xlink:href="_server_8hpp.html" target="_top" xlink:title=" ">
<polygon fill="white" stroke="#666666" points="1571.5,-140 1485.5,-140 1485.5,-121 1571.5,-121 1571.5,-140"/>
<text text-anchor="middle" x="1528.5" y="-128" font-family="Helvetica,sans-Serif" font-size="10.00">inc/Server.hpp</text>
</a>
</g>
</g>
<!-- Node1&#45;&gt;Node3 -->
<g id="edge26_Node000001_Node000003" class="edge">
<title>Node1&#45;&gt;Node3</title>
<g id="a_edge26_Node000001_Node000003"><a xlink:title=" ">
<path fill="none" stroke="#63b8ff" d="M1611.38,-225.71C1598.66,-217.74 1583.29,-206.93 1571.5,-195 1554.47,-177.76 1539.92,-152.94 1532.93,-140.03"/>
<polygon fill="#63b8ff" stroke="#63b8ff" points="1609.73,-228.8 1620.09,-231 1613.36,-222.82 1609.73,-228.8"/>
</a>
</g>
</g>
<!-- Node26 -->
<g id="Node000026" class="node">
<title>Node26</title>
<g id="a_Node000026"><a xlink:href="signal_handler_8cpp.html" target="_top" xlink:title=" ">
<polygon fill="white" stroke="#666666" points="1830,-195 1709,-195 1709,-176 1830,-176 1830,-195"/>
<text text-anchor="middle" x="1769.5" y="-183" font-family="Helvetica,sans-Serif" font-size="10.00">src/signalHandler.cpp</text>
</a>
</g>
</g>
<!-- Node1&#45;&gt;Node26 -->
<g id="edge27_Node000001_Node000026" class="edge">
<title>Node1&#45;&gt;Node26</title>
<g id="a_edge27_Node000001_Node000026"><a xlink:title=" ">
<path fill="none" stroke="#63b8ff" d="M1666.37,-227.29C1691.2,-217.47 1725.49,-203.91 1747.58,-195.17"/>
<polygon fill="#63b8ff" stroke="#63b8ff" points="1665.04,-224.05 1657.03,-230.98 1667.62,-230.56 1665.04,-224.05"/>
</a>
</g>
</g>
<!-- Node2&#45;&gt;Node3 -->
<g id="edge2_Node000002_Node000003" class="edge">
<title>Node2&#45;&gt;Node3</title>
<g id="a_edge2_Node000002_Node000003"><a xlink:title=" ">
<path fill="none" stroke="#63b8ff" d="M1609.26,-171.5C1589.57,-161.75 1563.18,-148.68 1546,-140.17"/>
<polygon fill="#63b8ff" stroke="#63b8ff" points="1607.79,-174.68 1618.31,-175.98 1610.9,-168.41 1607.79,-174.68"/>
</a>
</g>
</g>
<!-- Node24 -->
<g id="Node000024" class="node">
<title>Node24</title>
<g id="a_Node000024"><a xlink:href="_c_g_i_handler_8cpp.html" target="_top" xlink:title=" ">
<polygon fill="white" stroke="#666666" points="1699,-140 1590,-140 1590,-121 1699,-121 1699,-140"/>
<text text-anchor="middle" x="1644.5" y="-128" font-family="Helvetica,sans-Serif" font-size="10.00">src/CGIHandler.cpp</text>
</a>
</g>
</g>
<!-- Node2&#45;&gt;Node24 -->
<g id="edge24_Node000002_Node000024" class="edge">
<title>Node2&#45;&gt;Node24</title>
<g id="a_edge24_Node000002_Node000024"><a xlink:title=" ">
<path fill="none" stroke="#63b8ff" d="M1638.7,-165.66C1640.18,-156.93 1641.87,-146.99 1643.04,-140.09"/>
<polygon fill="#63b8ff" stroke="#63b8ff" points="1635.21,-165.3 1636.99,-175.75 1642.11,-166.48 1635.21,-165.3"/>
</a>
</g>
</g>
<!-- Node25 -->
<g id="Node000025" class="node">
<title>Node25</title>
<g id="a_Node000025"><a xlink:href="test___c_g_i_handler_8cpp.html" target="_top" xlink:title=" ">
<polygon fill="white" stroke="#666666" points="1854,-140 1717,-140 1717,-121 1854,-121 1854,-140"/>
<text text-anchor="middle" x="1785.5" y="-128" font-family="Helvetica,sans-Serif" font-size="10.00">test/test_CGIHandler.cpp</text>
</a>
</g>
</g>
<!-- Node2&#45;&gt;Node25 -->
<g id="edge25_Node000002_Node000025" class="edge">
<title>Node2&#45;&gt;Node25</title>
<g id="a_edge25_Node000002_Node000025"><a xlink:title=" ">
<path fill="none" stroke="#63b8ff" d="M1669.32,-172.55C1697.18,-162.71 1736.01,-148.98 1760.96,-140.17"/>
<polygon fill="#63b8ff" stroke="#63b8ff" points="1667.86,-169.35 1659.6,-175.98 1670.19,-175.95 1667.86,-169.35"/>
</a>
</g>
</g>
<!-- Node4 -->
<g id="Node000004" class="node">
<title>Node4</title>
<g id="a_Node000004"><a xlink:href="_config_file_parser_8hpp.html" target="_top" xlink:title=" ">
<polygon fill="white" stroke="#666666" points="317.5,-79.5 185.5,-79.5 185.5,-60.5 317.5,-60.5 317.5,-79.5"/>
<text text-anchor="middle" x="251.5" y="-67.5" font-family="Helvetica,sans-Serif" font-size="10.00">inc/ConfigFileParser.hpp</text>
</a>
</g>
</g>
<!-- Node3&#45;&gt;Node4 -->
<g id="edge3_Node000003_Node000004" class="edge">
<title>Node3&#45;&gt;Node4</title>
<g id="a_edge3_Node000003_Node000004"><a xlink:title=" ">
<path fill="none" stroke="#63b8ff" d="M1475.28,-129.68C1308.07,-129.79 778.48,-126.58 342.5,-85 328.66,-83.68 313.71,-81.64 300.01,-79.52"/>
<polygon fill="#63b8ff" stroke="#63b8ff" points="1475.3,-133.18 1485.3,-129.67 1475.3,-126.18 1475.3,-133.18"/>
</a>
</g>
</g>
<!-- Node6 -->
<g id="Node000006" class="node">
<title>Node6</title>
<g id="a_Node000006"><a xlink:href="main_8cpp.html" target="_top" xlink:title=" ">
<polygon fill="white" stroke="#666666" points="407,-19 328,-19 328,0 407,0 407,-19"/>
<text text-anchor="middle" x="367.5" y="-7" font-family="Helvetica,sans-Serif" font-size="10.00">src/main.cpp</text>
</a>
</g>
</g>
<!-- Node3&#45;&gt;Node6 -->
<g id="edge8_Node000003_Node000006" class="edge">
<title>Node3&#45;&gt;Node6</title>
<g id="a_edge8_Node000003_Node000006"><a xlink:title=" ">
<path fill="none" stroke="#63b8ff" d="M1475.34,-129.36C1254.12,-128.55 416.15,-122.96 375.5,-85 357.34,-68.04 361.83,-34.92 365.27,-19.19"/>
<polygon fill="#63b8ff" stroke="#63b8ff" points="1475.39,-132.86 1485.4,-129.4 1475.41,-125.86 1475.39,-132.86"/>
</a>
</g>
</g>
<!-- Node8 -->
<g id="Node000008" class="node">
<title>Node8</title>
<g id="a_Node000008"><a xlink:href="_server_8cpp.html" target="_top" xlink:title=" ">
<polygon fill="white" stroke="#666666" points="470,-79.5 385,-79.5 385,-60.5 470,-60.5 470,-79.5"/>
<text text-anchor="middle" x="427.5" y="-67.5" font-family="Helvetica,sans-Serif" font-size="10.00">src/Server.cpp</text>
</a>
</g>
</g>
<!-- Node3&#45;&gt;Node8 -->
<g id="edge7_Node000003_Node000008" class="edge">
<title>Node3&#45;&gt;Node8</title>
<g id="a_edge7_Node000003_Node000008"><a xlink:title=" ">
<path fill="none" stroke="#63b8ff" d="M1475.24,-128.83C1289.87,-126.25 673.66,-115.52 478.5,-85 470.52,-83.75 462,-81.71 454.25,-79.56"/>
<polygon fill="#63b8ff" stroke="#63b8ff" points="1475.24,-132.33 1485.28,-128.97 1475.33,-125.33 1475.24,-132.33"/>
</a>
</g>
</g>
<!-- Node9 -->
<g id="Node000009" class="node">
<title>Node9</title>
<g id="a_Node000009"><a xlink:href="test__accept_connections_8cpp.html" target="_top" xlink:title=" ">
<polygon fill="white" stroke="#666666" points="663,-79.5 488,-79.5 488,-60.5 663,-60.5 663,-79.5"/>
<text text-anchor="middle" x="575.5" y="-67.5" font-family="Helvetica,sans-Serif" font-size="10.00">test/test_acceptConnections.cpp</text>
</a>
</g>
</g>
<!-- Node3&#45;&gt;Node9 -->
<g id="edge9_Node000003_Node000009" class="edge">
<title>Node3&#45;&gt;Node9</title>
<g id="a_edge9_Node000003_Node000009"><a xlink:title=" ">
<path fill="none" stroke="#63b8ff" d="M1475.07,-128.45C1340.1,-125.43 974.59,-114.9 671.5,-85 657.25,-83.59 641.88,-81.58 627.71,-79.51"/>
<polygon fill="#63b8ff" stroke="#63b8ff" points="1475.07,-131.95 1485.14,-128.67 1475.22,-124.95 1475.07,-131.95"/>
</a>
</g>
</g>
<!-- Node10 -->
<g id="Node000010" class="node">
<title>Node10</title>
<g id="a_Node000010"><a xlink:href="test__check_for_timeout_8cpp.html" target="_top" xlink:title=" ">
<polygon fill="white" stroke="#666666" points="848,-79.5 681,-79.5 681,-60.5 848,-60.5 848,-79.5"/>
<text text-anchor="middle" x="764.5" y="-67.5" font-family="Helvetica,sans-Serif" font-size="10.00">test/test_checkForTimeout.cpp</text>
</a>
</g>
</g>
<!-- Node3&#45;&gt;Node10 -->
<g id="edge10_Node000003_Node000010" class="edge">
<title>Node3&#45;&gt;Node10</title>
<g id="a_edge10_Node000003_Node000010"><a xlink:title=" ">
<path fill="none" stroke="#63b8ff" d="M1474.95,-127.5C1360.94,-122.9 1085.87,-110 856.5,-85 843.17,-83.55 828.81,-81.56 815.49,-79.55"/>
<polygon fill="#63b8ff" stroke="#63b8ff" points="1475.02,-131 1485.15,-127.91 1475.3,-124.01 1475.02,-131"/>
</a>
</g>
</g>
<!-- Node11 -->
<g id="Node000011" class="node">
<title>Node11</title>
<g id="a_Node000011"><a xlink:href="test__connection_receive_from_c_g_i_8cpp.html" target="_top" xlink:title=" ">
<polygon fill="white" stroke="#666666" points="1021,-85 866,-85 866,-55 1021,-55 1021,-85"/>
<text text-anchor="start" x="874" y="-73" font-family="Helvetica,sans-Serif" font-size="10.00">test/test_connectionReceive</text>
<text text-anchor="middle" x="943.5" y="-62" font-family="Helvetica,sans-Serif" font-size="10.00">FromCGI.cpp</text>
</a>
</g>
</g>
<!-- Node3&#45;&gt;Node11 -->
<g id="edge11_Node000003_Node000011" class="edge">
<title>Node3&#45;&gt;Node11</title>
<g id="a_edge11_Node000003_Node000011"><a xlink:title=" ">
<path fill="none" stroke="#63b8ff" d="M1475.23,-126.02C1383.82,-119.77 1191.32,-105.36 1029.5,-85 1026.8,-84.66 1024.05,-84.3 1021.28,-83.92"/>
<polygon fill="#63b8ff" stroke="#63b8ff" points="1475.12,-129.52 1485.34,-126.71 1475.6,-122.54 1475.12,-129.52"/>
</a>
</g>
</g>
<!-- Node12 -->
<g id="Node000012" class="node">
<title>Node12</title>
<g id="a_Node000012"><a xlink:href="test__connection_receive_header_8cpp.html" target="_top" xlink:title=" ">
<polygon fill="white" stroke="#666666" points="1194,-85 1039,-85 1039,-55 1194,-55 1194,-85"/>
<text text-anchor="start" x="1047" y="-73" font-family="Helvetica,sans-Serif" font-size="10.00">test/test_connectionReceive</text>
<text text-anchor="middle" x="1116.5" y="-62" font-family="Helvetica,sans-Serif" font-size="10.00">Header.cpp</text>
</a>
</g>
</g>
<!-- Node3&#45;&gt;Node12 -->
<g id="edge12_Node000003_Node000012" class="edge">
<title>Node3&#45;&gt;Node12</title>
<g id="a_edge12_Node000003_Node000012"><a xlink:title=" ">
<path fill="none" stroke="#63b8ff" d="M1475.43,-122.62C1411.04,-114.19 1299.21,-99.25 1203.5,-85 1200.47,-84.55 1197.39,-84.08 1194.27,-83.61"/>
<polygon fill="#63b8ff" stroke="#63b8ff" points="1474.98,-126.09 1485.35,-123.92 1475.88,-119.15 1474.98,-126.09"/>
</a>
</g>
</g>
<!-- Node13 -->
<g id="Node000013" class="node">
<title>Node13</title>
<g id="a_Node000013"><a xlink:href="test__connection_send_response_8cpp.html" target="_top" xlink:title=" ">
<polygon fill="white" stroke="#666666" points="1352.5,-85 1212.5,-85 1212.5,-55 1352.5,-55 1352.5,-85"/>
<text text-anchor="start" x="1220.5" y="-73" font-family="Helvetica,sans-Serif" font-size="10.00">test/test_connectionSend</text>
<text text-anchor="middle" x="1282.5" y="-62" font-family="Helvetica,sans-Serif" font-size="10.00">Response.cpp</text>
</a>
</g>
</g>
<!-- Node3&#45;&gt;Node13 -->
<g id="edge13_Node000003_Node000013" class="edge">
<title>Node3&#45;&gt;Node13</title>
<g id="a_edge13_Node000003_Node000013"><a xlink:title=" ">
<path fill="none" stroke="#63b8ff" d="M1482.77,-118.62C1442.95,-109.16 1384.98,-95.37 1341.64,-85.06"/>
<polygon fill="#63b8ff" stroke="#63b8ff" points="1482.19,-122.09 1492.73,-120.99 1483.81,-115.27 1482.19,-122.09"/>
</a>
</g>
</g>
<!-- Node14 -->
<g id="Node000014" class="node">
<title>Node14</title>
<g id="a_Node000014"><a xlink:href="test__connection_send_to_c_g_i_8cpp.html" target="_top" xlink:title=" ">
<polygon fill="white" stroke="#666666" points="1510.5,-85 1370.5,-85 1370.5,-55 1510.5,-55 1510.5,-85"/>
<text text-anchor="start" x="1378.5" y="-73" font-family="Helvetica,sans-Serif" font-size="10.00">test/test_connectionSend</text>
<text text-anchor="middle" x="1440.5" y="-62" font-family="Helvetica,sans-Serif" font-size="10.00">ToCGI.cpp</text>
</a>
</g>
</g>
<!-- Node3&#45;&gt;Node14 -->
<g id="edge14_Node000003_Node000014" class="edge">
<title>Node3&#45;&gt;Node14</title>
<g id="a_edge14_Node000003_Node000014"><a xlink:title=" ">
<path fill="none" stroke="#63b8ff" d="M1507.13,-115.29C1493.34,-106.13 1475.49,-94.26 1461.73,-85.11"/>
<polygon fill="#63b8ff" stroke="#63b8ff" points="1505.25,-118.25 1515.52,-120.87 1509.13,-112.42 1505.25,-118.25"/>
</a>
</g>
</g>
<!-- Node15 -->
<g id="Node000015" class="node">
<title>Node15</title>
<g id="a_Node000015"><a xlink:href="test__create_virtual_server_8cpp.html" target="_top" xlink:title=" ">
<polygon fill="white" stroke="#666666" points="1704.5,-79.5 1528.5,-79.5 1528.5,-60.5 1704.5,-60.5 1704.5,-79.5"/>
<text text-anchor="middle" x="1616.5" y="-67.5" font-family="Helvetica,sans-Serif" font-size="10.00">test/test_createVirtualServer.cpp</text>
</a>
</g>
</g>
<!-- Node3&#45;&gt;Node15 -->
<g id="edge15_Node000003_Node000015" class="edge">
<title>Node3&#45;&gt;Node15</title>
<g id="a_edge15_Node000003_Node000015"><a xlink:title=" ">
<path fill="none" stroke="#63b8ff" d="M1550.07,-115.16C1566.79,-104.05 1589.4,-89.01 1603.46,-79.67"/>
<polygon fill="#63b8ff" stroke="#63b8ff" points="1547.87,-112.42 1541.48,-120.87 1551.75,-118.25 1547.87,-112.42"/>
</a>
</g>
</g>
<!-- Node16 -->
<g id="Node000016" class="node">
<title>Node16</title>
<g id="a_Node000016"><a xlink:href="test__handle_complete_request_header_8cpp.html" target="_top" xlink:title=" ">
<polygon fill="white" stroke="#666666" points="1866,-85 1723,-85 1723,-55 1866,-55 1866,-85"/>
<text text-anchor="start" x="1731" y="-73" font-family="Helvetica,sans-Serif" font-size="10.00">test/test_handleComplete</text>
<text text-anchor="middle" x="1794.5" y="-62" font-family="Helvetica,sans-Serif" font-size="10.00">RequestHeader.cpp</text>
</a>
</g>
</g>
<!-- Node3&#45;&gt;Node16 -->
<g id="edge16_Node000003_Node000016" class="edge">
<title>Node3&#45;&gt;Node16</title>
<g id="a_edge16_Node000003_Node000016"><a xlink:title=" ">
<path fill="none" stroke="#63b8ff" d="M1577.15,-118.8C1620.3,-109.31 1683.63,-95.38 1730.81,-85.01"/>
<polygon fill="#63b8ff" stroke="#63b8ff" points="1576.19,-115.43 1567.18,-120.99 1577.7,-122.26 1576.19,-115.43"/>
</a>
</g>
</g>
<!-- Node17 -->
<g id="Node000017" class="node">
<title>Node17</title>
<g id="a_Node000017"><a xlink:href="test__init_virtual_servers_8cpp.html" target="_top" xlink:title=" ">
<polygon fill="white" stroke="#666666" points="2051,-79.5 1884,-79.5 1884,-60.5 2051,-60.5 2051,-79.5"/>
<text text-anchor="middle" x="1967.5" y="-67.5" font-family="Helvetica,sans-Serif" font-size="10.00">test/test_initVirtualServers.cpp</text>
</a>
</g>
</g>
<!-- Node3&#45;&gt;Node17 -->
<g id="edge17_Node000003_Node000017" class="edge">
<title>Node3&#45;&gt;Node17</title>
<g id="a_edge17_Node000003_Node000017"><a xlink:title=" ">
<path fill="none" stroke="#63b8ff" d="M1581.65,-120.89C1712.95,-102.36 1747.83,-102.5 1875.5,-85 1887.66,-83.33 1900.72,-81.42 1913.05,-79.56"/>
<polygon fill="#63b8ff" stroke="#63b8ff" points="1581.02,-117.44 1571.61,-122.31 1582,-124.37 1581.02,-117.44"/>
</a>
</g>
</g>
<!-- Node18 -->
<g id="Node000018" class="node">
<title>Node18</title>
<g id="a_Node000018"><a xlink:href="test__is_duplicate_server_8cpp.html" target="_top" xlink:title=" ">
<polygon fill="white" stroke="#666666" points="2236.5,-79.5 2068.5,-79.5 2068.5,-60.5 2236.5,-60.5 2236.5,-79.5"/>
<text text-anchor="middle" x="2152.5" y="-67.5" font-family="Helvetica,sans-Serif" font-size="10.00">test/test_isDuplicateServer.cpp</text>
</a>
</g>
</g>
<!-- Node3&#45;&gt;Node18 -->
<g id="edge18_Node000003_Node000018" class="edge">
<title>Node3&#45;&gt;Node18</title>
<g id="a_edge18_Node000003_Node000018"><a xlink:title=" ">
<path fill="none" stroke="#63b8ff" d="M1581.53,-120.99C1794.63,-96.12 1851.15,-108.74 2060.5,-85 2073.66,-83.51 2087.83,-81.53 2101.01,-79.54"/>
<polygon fill="#63b8ff" stroke="#63b8ff" points="1581.11,-117.51 1571.59,-122.16 1581.93,-124.46 1581.11,-117.51"/>
</a>
</g>
</g>
<!-- Node19 -->
<g id="Node000019" class="node">
<title>Node19</title>
<g id="a_Node000019"><a xlink:href="test__register_c_g_i_file_descriptor_8cpp.html" target="_top" xlink:title=" ">
<polygon fill="white" stroke="#666666" points="2388.5,-85 2254.5,-85 2254.5,-55 2388.5,-55 2388.5,-85"/>
<text text-anchor="start" x="2262.5" y="-73" font-family="Helvetica,sans-Serif" font-size="10.00">test/test_registerCGIFile</text>
<text text-anchor="middle" x="2321.5" y="-62" font-family="Helvetica,sans-Serif" font-size="10.00">Descriptor.cpp</text>
</a>
</g>
</g>
<!-- Node3&#45;&gt;Node19 -->
<g id="edge19_Node000003_Node000019" class="edge">
<title>Node3&#45;&gt;Node19</title>
<g id="a_edge19_Node000003_Node000019"><a xlink:title=" ">
<path fill="none" stroke="#63b8ff" d="M1581.71,-121C1876.51,-89.76 1954.88,-119.49 2245.5,-85 2248.43,-84.65 2251.42,-84.26 2254.43,-83.84"/>
<polygon fill="#63b8ff" stroke="#63b8ff" points="1581.15,-117.54 1571.58,-122.09 1581.9,-124.5 1581.15,-117.54"/>
</a>
</g>
</g>
<!-- Node20 -->
<g id="Node000020" class="node">
<title>Node20</title>
<g id="a_Node000020"><a xlink:href="test__register_connection_8cpp.html" target="_top" xlink:title=" ">
<polygon fill="white" stroke="#666666" points="2582,-79.5 2407,-79.5 2407,-60.5 2582,-60.5 2582,-79.5"/>
<text text-anchor="middle" x="2494.5" y="-67.5" font-family="Helvetica,sans-Serif" font-size="10.00">test/test_registerConnection.cpp</text>
</a>
</g>
</g>
<!-- Node3&#45;&gt;Node20 -->
<g id="edge20_Node000003_Node000020" class="edge">
<title>Node3&#45;&gt;Node20</title>
<g id="a_edge20_Node000003_Node000020"><a xlink:title=" ">
<path fill="none" stroke="#63b8ff" d="M1581.55,-121.03C1943.75,-84.25 2038.9,-118.7 2397.5,-85 2412.07,-83.63 2427.8,-81.6 2442.26,-79.51"/>
<polygon fill="#63b8ff" stroke="#63b8ff" points="1581.17,-117.55 1571.58,-122.06 1581.88,-124.52 1581.17,-117.55"/>
</a>
</g>
</g>
<!-- Node21 -->
<g id="Node000021" class="node">
<title>Node21</title>
<g id="a_Node000021"><a xlink:href="test__register_virtual_server_8cpp.html" target="_top" xlink:title=" ">
<polygon fill="white" stroke="#666666" points="2732.5,-85 2600.5,-85 2600.5,-55 2732.5,-55 2732.5,-85"/>
<text text-anchor="start" x="2608.5" y="-73" font-family="Helvetica,sans-Serif" font-size="10.00">test/test_registerVirtual</text>
<text text-anchor="middle" x="2666.5" y="-62" font-family="Helvetica,sans-Serif" font-size="10.00">Server.cpp</text>
</a>
</g>
</g>
<!-- Node3&#45;&gt;Node21 -->
<g id="edge21_Node000003_Node000021" class="edge">
<title>Node3&#45;&gt;Node21</title>
<g id="a_edge21_Node000003_Node000021"><a xlink:title=" ">
<path fill="none" stroke="#63b8ff" d="M1581.55,-121.05C2029.65,-77.49 2147.88,-134.03 2591.5,-85 2594.4,-84.68 2597.35,-84.31 2600.33,-83.91"/>
<polygon fill="#63b8ff" stroke="#63b8ff" points="1581.18,-117.57 1571.57,-122.03 1581.87,-124.53 1581.18,-117.57"/>
</a>
</g>
</g>
<!-- Node22 -->
<g id="Node000022" class="node">
<title>Node22</title>
<g id="a_Node000022"><a xlink:href="test__select_server_config_8cpp.html" target="_top" xlink:title=" ">
<polygon fill="white" stroke="#666666" points="2924.5,-79.5 2750.5,-79.5 2750.5,-60.5 2924.5,-60.5 2924.5,-79.5"/>
<text text-anchor="middle" x="2837.5" y="-67.5" font-family="Helvetica,sans-Serif" font-size="10.00">test/test_selectServerConfig.cpp</text>
</a>
</g>
</g>
<!-- Node3&#45;&gt;Node22 -->
<g id="edge22_Node000003_Node000022" class="edge">
<title>Node3&#45;&gt;Node22</title>
<g id="a_edge22_Node000003_Node000022"><a xlink:title=" ">
<path fill="none" stroke="#63b8ff" d="M1581.86,-121.02C2096.11,-72.03 2230.64,-130.02 2741.5,-85 2756.1,-83.71 2771.86,-81.68 2786.31,-79.57"/>
<polygon fill="#63b8ff" stroke="#63b8ff" points="1581.19,-117.57 1571.57,-122.01 1581.86,-124.54 1581.19,-117.57"/>
</a>
</g>
</g>
<!-- Node23 -->
<g id="Node000023" class="node">
<title>Node23</title>
<g id="a_Node000023"><a xlink:href="test__shutdown_server_8cpp.html" target="_top" xlink:title=" ">
<polygon fill="white" stroke="#666666" points="3104,-79.5 2943,-79.5 2943,-60.5 3104,-60.5 3104,-79.5"/>
<text text-anchor="middle" x="3023.5" y="-67.5" font-family="Helvetica,sans-Serif" font-size="10.00">test/test_shutdownServer.cpp</text>
</a>
</g>
</g>
<!-- Node3&#45;&gt;Node23 -->
<g id="edge23_Node000003_Node000023" class="edge">
<title>Node3&#45;&gt;Node23</title>
<g id="a_edge23_Node000003_Node000023"><a xlink:title=" ">
<path fill="none" stroke="#63b8ff" d="M1581.77,-121.04C2181.13,-65.19 2337.78,-139.04 2933.5,-85 2947.36,-83.74 2962.32,-81.7 2976,-79.55"/>
<polygon fill="#63b8ff" stroke="#63b8ff" points="1581.2,-117.58 1571.57,-122 1581.86,-124.55 1581.2,-117.58"/>
</a>
</g>
</g>
<!-- Node5 -->
<g id="Node000005" class="node">
<title>Node5</title>
<g id="a_Node000005"><a xlink:href="_config_file_parser_8cpp.html" target="_top" xlink:title=" ">
<polygon fill="white" stroke="#666666" points="131,-19 0,-19 0,0 131,0 131,-19"/>
<text text-anchor="middle" x="65.5" y="-7" font-family="Helvetica,sans-Serif" font-size="10.00">src/ConfigFileParser.cpp</text>
</a>
</g>
</g>
<!-- Node4&#45;&gt;Node5 -->
<g id="edge4_Node000004_Node000005" class="edge">
<title>Node4&#45;&gt;Node5</title>
<g id="a_edge4_Node000004_Node000005"><a xlink:title=" ">
<path fill="none" stroke="#63b8ff" d="M214.82,-57.46C178.84,-46.15 124.83,-29.16 92.58,-19.02"/>
<polygon fill="#63b8ff" stroke="#63b8ff" points="213.86,-60.83 224.45,-60.49 215.96,-54.15 213.86,-60.83"/>
</a>
</g>
</g>
<!-- Node4&#45;&gt;Node6 -->
<g id="edge5_Node000004_Node000006" class="edge">
<title>Node4&#45;&gt;Node6</title>
<g id="a_edge5_Node000004_Node000006"><a xlink:title=" ">
<path fill="none" stroke="#63b8ff" d="M277.82,-55.73C300.03,-44.53 331.18,-28.82 350.31,-19.17"/>
<polygon fill="#63b8ff" stroke="#63b8ff" points="275.97,-52.74 268.62,-60.37 279.12,-58.99 275.97,-52.74"/>
</a>
</g>
</g>
<!-- Node7 -->
<g id="Node000007" class="node">
<title>Node7</title>
<g id="a_Node000007"><a xlink:href="test___config_file_parser_8cpp.html" target="_top" xlink:title=" ">
<polygon fill="white" stroke="#666666" points="309.5,-19 149.5,-19 149.5,0 309.5,0 309.5,-19"/>
<text text-anchor="middle" x="229.5" y="-7" font-family="Helvetica,sans-Serif" font-size="10.00">test/test_ConfigFileParser.cpp</text>
</a>
</g>
</g>
<!-- Node4&#45;&gt;Node7 -->
<g id="edge6_Node000004_Node000007" class="edge">
<title>Node4&#45;&gt;Node7</title>
<g id="a_edge6_Node000004_Node000007"><a xlink:title=" ">
<path fill="none" stroke="#63b8ff" d="M244.66,-50.82C240.7,-40.28 235.88,-27.48 232.76,-19.17"/>
<polygon fill="#63b8ff" stroke="#63b8ff" points="241.46,-52.24 248.25,-60.37 248.01,-49.78 241.46,-52.24"/>
</a>
</g>
</g>
</g>
</svg>

<g id="navigator" transform="translate(0 0)" fill="#404254">
  <rect fill="#f2f5e9" fill-opacity="0.5" stroke="#606060" stroke-width=".5" x="0" y="0" width="60" height="60"/>
  <use id="zoomplus" xlink:href="#zoomPlus" x="17" y="9" onmousedown="handleZoom(evt,'in')"/>
  <use id="zoomminus" xlink:href="#zoomMin" x="42" y="9" onmousedown="handleZoom(evt,'out')"/>
  <use id="reset" xlink:href="#resetDef" x="30" y="36" onmousedown="handleReset()"/>
   <use id="arrowup" xlink:href="#arrowUp" x="0" y="0" onmousedown="handlePan(0,-1)"/>
  <use id="arrowright" xlink:href="#arrowRight" x="0" y="0" onmousedown="handlePan(1,0)"/>
  <use id="arrowdown" xlink:href="#arrowDown" x="0" y="0" onmousedown="handlePan(0,1)"/>
  <use id="arrowleft" xlink:href="#arrowLeft" x="0" y="0" onmousedown="handlePan(-1,0)"/>
</g>
<svg viewBox="0 0 15 15" width="100%" height="30px" preserveAspectRatio="xMaxYMin meet">
 <g id="arrow_out" transform="scale(0.3 0.3)">
  <a xlink:href="signal_handler_8hpp__dep__incl_org.svg" target="_base">
   <rect id="button" ry="5" rx="5" y="6" x="6" height="38" width="38"
        fill="#f2f5e9" fill-opacity="0.5" stroke="#606060" stroke-width="1.0"/>
   <path id="arrow"
     d="M 11.500037,31.436501 C 11.940474,20.09759 22.043105,11.32322 32.158766,21.979434 L 37.068811,17.246167 C 37.068811,17.246167 37.088388,32 37.088388,32 L 22.160133,31.978069 C 22.160133,31.978069 26.997745,27.140456 26.997745,27.140456 C 18.528582,18.264221 13.291696,25.230495 11.500037,31.436501 z"
     style="fill:#404040;"/>
  </a>
 </g>
</svg>

<style type='text/css'>
<![CDATA[
[data-mouse-over-selected='false'] { opacity: 0.7; }
[data-mouse-over-selected='true']  { opacity: 1.0; }
]]>
</style>
<script type="application/ecmascript"><![CDATA[
document.addEventListener('DOMContentLoaded', (event) => {
  highlightEdges();
  highlightAdjacentNodes();
});
]]></script>
</svg>
