<?xml version="1.0" encoding="UTF-8" standalone="no"?>
<!DOCTYPE svg PUBLIC "-//W3C//DTD SVG 1.1//EN"
 "http://www.w3.org/Graphics/SVG/1.1/DTD/svg11.dtd">
<!-- Generated by graphviz version 2.43.0 (0)
 -->
<!-- Title: inc/signalHandler.hpp Pages: 1 -->
<svg width="915pt" height="308pt"
 viewBox="0.00 0.00 914.97 308.00" xmlns="http://www.w3.org/2000/svg" xmlns:xlink="http://www.w3.org/1999/xlink">
<g id="graph0" class="graph" transform="scale(1 1) rotate(0) translate(4 304)">
<title>inc/signalHandler.hpp</title>
<!-- Node1 -->
<g id="node1" class="node">
<title>Node1</title>
<g id="a_node1"><a xlink:title=" ">
<polygon fill="#bfbfbf" stroke="black" points="603,-280.5 603,-299.5 725,-299.5 725,-280.5 603,-280.5"/>
<text text-anchor="middle" x="664" y="-287.5" font-family="Helvetica,sans-Serif" font-size="10.00">inc/signalHandler.hpp</text>
</a>
</g>
</g>
<!-- Node2 -->
<g id="node2" class="node">
<title>Node2</title>
<g id="a_node2"><a xlink:href="_log_8hpp.html" target="_top" xlink:title=" ">
<polygon fill="none" stroke="black" points="232.5,-224.5 232.5,-243.5 287.5,-243.5 287.5,-224.5 232.5,-224.5"/>
<text text-anchor="middle" x="260" y="-231.5" font-family="Helvetica,sans-Serif" font-size="10.00">Log.hpp</text>
</a>
</g>
</g>
<!-- Node1&#45;&gt;Node2 -->
<g id="edge1" class="edge">
<title>Node1&#45;&gt;Node2</title>
<path fill="none" stroke="midnightblue" d="M602.64,-280.8C518.03,-269.49 368.05,-249.44 298.02,-240.08"/>
<polygon fill="midnightblue" stroke="midnightblue" points="298.26,-236.58 287.88,-238.73 297.33,-243.52 298.26,-236.58"/>
</g>
<!-- Node10 -->
<g id="node10" class="node">
<title>Node10</title>
<g id="a_node10"><a xlink:title=" ">
<polygon fill="none" stroke="#bfbfbf" points="28,-0.5 28,-19.5 72,-19.5 72,-0.5 28,-0.5"/>
<text text-anchor="middle" x="50" y="-7.5" font-family="Helvetica,sans-Serif" font-size="10.00">string</text>
</a>
</g>
</g>
<!-- Node1&#45;&gt;Node10 -->
<g id="edge30" class="edge">
<title>Node1&#45;&gt;Node10</title>
<path fill="none" stroke="midnightblue" d="M602.72,-285.26C438.34,-274.4 0,-239.76 0,-179 0,-179 0,-179 0,-121 0,-85.18 22.24,-48.21 37.05,-27.56"/>
<polygon fill="midnightblue" stroke="midnightblue" points="39.88,-29.63 43.05,-19.52 34.27,-25.45 39.88,-29.63"/>
</g>
<!-- Node15 -->
<g id="node15" class="node">
<title>Node15</title>
<g id="a_node15"><a xlink:href="utilities_8hpp.html" target="_top" xlink:title=" ">
<polygon fill="none" stroke="black" points="587,-224.5 587,-243.5 661,-243.5 661,-224.5 587,-224.5"/>
<text text-anchor="middle" x="624" y="-231.5" font-family="Helvetica,sans-Serif" font-size="10.00">utilities.hpp</text>
</a>
</g>
</g>
<!-- Node1&#45;&gt;Node15 -->
<g id="edge19" class="edge">
<title>Node1&#45;&gt;Node15</title>
<path fill="none" stroke="midnightblue" d="M657.39,-280.08C651.74,-272.46 643.46,-261.26 636.55,-251.94"/>
<polygon fill="midnightblue" stroke="midnightblue" points="639.25,-249.7 630.48,-243.75 633.62,-253.87 639.25,-249.7"/>
</g>
<!-- Node20 -->
<g id="node20" class="node">
<title>Node20</title>
<g id="a_node20"><a xlink:title=" ">
<polygon fill="none" stroke="#bfbfbf" points="679.5,-224.5 679.5,-243.5 730.5,-243.5 730.5,-224.5 679.5,-224.5"/>
<text text-anchor="middle" x="705" y="-231.5" font-family="Helvetica,sans-Serif" font-size="10.00">csignal</text>
</a>
</g>
</g>
<!-- Node1&#45;&gt;Node20 -->
<g id="edge29" class="edge">
<title>Node1&#45;&gt;Node20</title>
<path fill="none" stroke="midnightblue" d="M670.77,-280.08C676.56,-272.46 685.06,-261.26 692.14,-251.94"/>
<polygon fill="midnightblue" stroke="midnightblue" points="695.1,-253.83 698.36,-243.75 689.52,-249.6 695.1,-253.83"/>
</g>
<!-- Node21 -->
<g id="node21" class="node">
<title>Node21</title>
<g id="a_node21"><a xlink:title=" ">
<polygon fill="none" stroke="#bfbfbf" points="748.5,-224.5 748.5,-243.5 795.5,-243.5 795.5,-224.5 748.5,-224.5"/>
<text text-anchor="middle" x="772" y="-231.5" font-family="Helvetica,sans-Serif" font-size="10.00">cerrno</text>
</a>
</g>
</g>
<!-- Node1&#45;&gt;Node21 -->
<g id="edge31" class="edge">
<title>Node1&#45;&gt;Node21</title>
<path fill="none" stroke="midnightblue" d="M681.35,-280.32C698.67,-271.66 725.52,-258.24 745.5,-248.25"/>
<polygon fill="midnightblue" stroke="midnightblue" points="747.31,-251.26 754.69,-243.65 744.18,-245 747.31,-251.26"/>
</g>
<!-- Node22 -->
<g id="node22" class="node">
<title>Node22</title>
<g id="a_node22"><a xlink:title=" ">
<polygon fill="none" stroke="#bfbfbf" points="814,-224.5 814,-243.5 864,-243.5 864,-224.5 814,-224.5"/>
<text text-anchor="middle" x="839" y="-231.5" font-family="Helvetica,sans-Serif" font-size="10.00">cstring</text>
</a>
</g>
</g>
<!-- Node1&#45;&gt;Node22 -->
<g id="edge32" class="edge">
<title>Node1&#45;&gt;Node22</title>
<path fill="none" stroke="midnightblue" d="M691.73,-280.44C722.21,-271.04 771.23,-255.91 804.26,-245.72"/>
<polygon fill="midnightblue" stroke="midnightblue" points="805.43,-249.02 813.95,-242.73 803.36,-242.33 805.43,-249.02"/>
</g>
<!-- Node3 -->
<g id="node3" class="node">
<title>Node3</title>
<g id="a_node3"><a xlink:href="_log_outputter_console_8hpp.html" target="_top" xlink:title=" ">
<polygon fill="none" stroke="black" points="116,-168.5 116,-187.5 256,-187.5 256,-168.5 116,-168.5"/>
<text text-anchor="middle" x="186" y="-175.5" font-family="Helvetica,sans-Serif" font-size="10.00">LogOutputterConsole.hpp</text>
</a>
</g>
</g>
<!-- Node2&#45;&gt;Node3 -->
<g id="edge2" class="edge">
<title>Node2&#45;&gt;Node3</title>
<path fill="none" stroke="midnightblue" d="M248.11,-224.32C236.85,-216.11 219.71,-203.6 206.29,-193.81"/>
<polygon fill="midnightblue" stroke="midnightblue" points="208.25,-190.9 198.11,-187.83 204.12,-196.56 208.25,-190.9"/>
</g>
<!-- Node11 -->
<g id="node11" class="node">
<title>Node11</title>
<g id="a_node11"><a xlink:href="_log_outputter_file_8hpp.html" target="_top" xlink:title=" ">
<polygon fill="none" stroke="black" points="274.5,-168.5 274.5,-187.5 393.5,-187.5 393.5,-168.5 274.5,-168.5"/>
<text text-anchor="middle" x="334" y="-175.5" font-family="Helvetica,sans-Serif" font-size="10.00">LogOutputterFile.hpp</text>
</a>
</g>
</g>
<!-- Node2&#45;&gt;Node11 -->
<g id="edge10" class="edge">
<title>Node2&#45;&gt;Node11</title>
<path fill="none" stroke="midnightblue" d="M271.89,-224.32C283.15,-216.11 300.29,-203.6 313.71,-193.81"/>
<polygon fill="midnightblue" stroke="midnightblue" points="315.88,-196.56 321.89,-187.83 311.75,-190.9 315.88,-196.56"/>
</g>
<!-- Node13 -->
<g id="node13" class="node">
<title>Node13</title>
<g id="a_node13"><a xlink:href="_logger_8hpp.html" target="_top" xlink:title=" ">
<polygon fill="none" stroke="black" points="28,-168.5 28,-187.5 98,-187.5 98,-168.5 28,-168.5"/>
<text text-anchor="middle" x="63" y="-175.5" font-family="Helvetica,sans-Serif" font-size="10.00">Logger.hpp</text>
</a>
</g>
</g>
<!-- Node2&#45;&gt;Node13 -->
<g id="edge14" class="edge">
<title>Node2&#45;&gt;Node13</title>
<path fill="none" stroke="midnightblue" d="M232.19,-225.38C198.8,-216.22 142.49,-200.79 104.08,-190.26"/>
<polygon fill="midnightblue" stroke="midnightblue" points="104.81,-186.83 94.24,-187.56 102.96,-193.58 104.81,-186.83"/>
</g>
<!-- Node4 -->
<g id="node4" class="node">
<title>Node4</title>
<g id="a_node4"><a xlink:title=" ">
<polygon fill="none" stroke="#bfbfbf" points="561,-112.5 561,-131.5 621,-131.5 621,-112.5 561,-112.5"/>
<text text-anchor="middle" x="591" y="-119.5" font-family="Helvetica,sans-Serif" font-size="10.00">iostream</text>
</a>
</g>
</g>
<!-- Node3&#45;&gt;Node4 -->
<g id="edge3" class="edge">
<title>Node3&#45;&gt;Node4</title>
<path fill="none" stroke="midnightblue" d="M250.17,-168.44C334.4,-157.21 479.78,-137.83 550.29,-128.43"/>
<polygon fill="midnightblue" stroke="midnightblue" points="551.09,-131.85 560.54,-127.06 550.17,-124.91 551.09,-131.85"/>
</g>
<!-- Node5 -->
<g id="node5" class="node">
<title>Node5</title>
<g id="a_node5"><a xlink:title=" ">
<polygon fill="none" stroke="#bfbfbf" points="116,-112.5 116,-131.5 154,-131.5 154,-112.5 116,-112.5"/>
<text text-anchor="middle" x="135" y="-119.5" font-family="Helvetica,sans-Serif" font-size="10.00">map</text>
</a>
</g>
</g>
<!-- Node3&#45;&gt;Node5 -->
<g id="edge4" class="edge">
<title>Node3&#45;&gt;Node5</title>
<path fill="none" stroke="midnightblue" d="M177.58,-168.08C170.15,-160.22 159.15,-148.57 150.19,-139.08"/>
<polygon fill="midnightblue" stroke="midnightblue" points="152.68,-136.62 143.26,-131.75 147.59,-141.42 152.68,-136.62"/>
</g>
<!-- Node6 -->
<g id="node6" class="node">
<title>Node6</title>
<g id="a_node6"><a xlink:href="_a_log_outputter_8hpp.html" target="_top" xlink:title=" ">
<polygon fill="none" stroke="black" points="172.5,-112.5 172.5,-131.5 279.5,-131.5 279.5,-112.5 172.5,-112.5"/>
<text text-anchor="middle" x="226" y="-119.5" font-family="Helvetica,sans-Serif" font-size="10.00">ALogOutputter.hpp</text>
</a>
</g>
</g>
<!-- Node3&#45;&gt;Node6 -->
<g id="edge5" class="edge">
<title>Node3&#45;&gt;Node6</title>
<path fill="none" stroke="midnightblue" d="M192.61,-168.08C198.26,-160.46 206.54,-149.26 213.45,-139.94"/>
<polygon fill="midnightblue" stroke="midnightblue" points="216.38,-141.87 219.52,-131.75 210.75,-137.7 216.38,-141.87"/>
</g>
<!-- Node7 -->
<g id="node7" class="node">
<title>Node7</title>
<g id="a_node7"><a xlink:href="_log_data_8hpp.html" target="_top" xlink:title=" ">
<polygon fill="none" stroke="black" points="187,-56.5 187,-75.5 265,-75.5 265,-56.5 187,-56.5"/>
<text text-anchor="middle" x="226" y="-63.5" font-family="Helvetica,sans-Serif" font-size="10.00">LogData.hpp</text>
</a>
</g>
</g>
<!-- Node6&#45;&gt;Node7 -->
<g id="edge6" class="edge">
<title>Node6&#45;&gt;Node7</title>
<path fill="none" stroke="midnightblue" d="M226,-112.08C226,-105.01 226,-94.86 226,-85.99"/>
<polygon fill="midnightblue" stroke="midnightblue" points="229.5,-85.75 226,-75.75 222.5,-85.75 229.5,-85.75"/>
</g>
<!-- Node8 -->
<g id="node8" class="node">
<title>Node8</title>
<g id="a_node8"><a xlink:title=" ">
<polygon fill="none" stroke="#bfbfbf" points="732,-0.5 732,-19.5 776,-19.5 776,-0.5 732,-0.5"/>
<text text-anchor="middle" x="754" y="-7.5" font-family="Helvetica,sans-Serif" font-size="10.00">ctime</text>
</a>
</g>
</g>
<!-- Node7&#45;&gt;Node8 -->
<g id="edge7" class="edge">
<title>Node7&#45;&gt;Node8</title>
<path fill="none" stroke="midnightblue" d="M265.25,-60.99C365.49,-50.73 629.45,-23.74 721.65,-14.31"/>
<polygon fill="midnightblue" stroke="midnightblue" points="722.19,-17.77 731.78,-13.27 721.47,-10.81 722.19,-17.77"/>
</g>
<!-- Node9 -->
<g id="node9" class="node">
<title>Node9</title>
<g id="a_node9"><a xlink:title=" ">
<polygon fill="none" stroke="#bfbfbf" points="347,-0.5 347,-19.5 403,-19.5 403,-0.5 347,-0.5"/>
<text text-anchor="middle" x="375" y="-7.5" font-family="Helvetica,sans-Serif" font-size="10.00">sstream</text>
</a>
</g>
</g>
<!-- Node7&#45;&gt;Node9 -->
<g id="edge8" class="edge">
<title>Node7&#45;&gt;Node9</title>
<path fill="none" stroke="midnightblue" d="M249.61,-56.44C274.46,-47.44 313.77,-33.19 341.75,-23.05"/>
<polygon fill="midnightblue" stroke="midnightblue" points="343.29,-26.21 351.5,-19.52 340.91,-19.63 343.29,-26.21"/>
</g>
<!-- Node7&#45;&gt;Node10 -->
<g id="edge9" class="edge">
<title>Node7&#45;&gt;Node10</title>
<path fill="none" stroke="midnightblue" d="M198.11,-56.44C166.49,-46.74 115.03,-30.95 81.85,-20.77"/>
<polygon fill="midnightblue" stroke="midnightblue" points="82.77,-17.39 72.18,-17.81 80.72,-24.09 82.77,-17.39"/>
</g>
<!-- Node11&#45;&gt;Node4 -->
<g id="edge12" class="edge">
<title>Node11&#45;&gt;Node4</title>
<path fill="none" stroke="midnightblue" d="M374.72,-168.44C422.98,-158.3 502.89,-141.51 550.88,-131.43"/>
<polygon fill="midnightblue" stroke="midnightblue" points="551.84,-134.8 560.91,-129.32 550.4,-127.95 551.84,-134.8"/>
</g>
<!-- Node11&#45;&gt;Node6 -->
<g id="edge13" class="edge">
<title>Node11&#45;&gt;Node6</title>
<path fill="none" stroke="midnightblue" d="M316.65,-168.32C299.33,-159.66 272.48,-146.24 252.5,-136.25"/>
<polygon fill="midnightblue" stroke="midnightblue" points="253.82,-133 243.31,-131.65 250.69,-139.26 253.82,-133"/>
</g>
<!-- Node12 -->
<g id="node12" class="node">
<title>Node12</title>
<g id="a_node12"><a xlink:title=" ">
<polygon fill="none" stroke="#bfbfbf" points="362.5,-112.5 362.5,-131.5 417.5,-131.5 417.5,-112.5 362.5,-112.5"/>
<text text-anchor="middle" x="390" y="-119.5" font-family="Helvetica,sans-Serif" font-size="10.00">fstream</text>
</a>
</g>
</g>
<!-- Node11&#45;&gt;Node12 -->
<g id="edge11" class="edge">
<title>Node11&#45;&gt;Node12</title>
<path fill="none" stroke="midnightblue" d="M343,-168.32C351.19,-160.42 363.51,-148.55 373.47,-138.94"/>
<polygon fill="midnightblue" stroke="midnightblue" points="376.07,-141.29 380.84,-131.83 371.21,-136.26 376.07,-141.29"/>
</g>
<!-- Node13&#45;&gt;Node6 -->
<g id="edge17" class="edge">
<title>Node13&#45;&gt;Node6</title>
<path fill="none" stroke="midnightblue" d="M88.83,-168.44C116.25,-159.36 159.78,-144.94 190.43,-134.78"/>
<polygon fill="midnightblue" stroke="midnightblue" points="191.9,-137.98 200.29,-131.52 189.7,-131.34 191.9,-137.98"/>
</g>
<!-- Node13&#45;&gt;Node7 -->
<g id="edge18" class="edge">
<title>Node13&#45;&gt;Node7</title>
<path fill="none" stroke="midnightblue" d="M66.81,-168.16C73.2,-154.32 87.33,-127.54 107,-112 127.31,-95.96 153.95,-85.17 176.88,-78.2"/>
<polygon fill="midnightblue" stroke="midnightblue" points="178.14,-81.47 186.78,-75.34 176.2,-74.75 178.14,-81.47"/>
</g>
<!-- Node13&#45;&gt;Node10 -->
<g id="edge15" class="edge">
<title>Node13&#45;&gt;Node10</title>
<path fill="none" stroke="midnightblue" d="M62.3,-168.08C60.25,-141.95 54.25,-65.21 51.45,-29.58"/>
<polygon fill="midnightblue" stroke="midnightblue" points="54.94,-29.26 50.67,-19.57 47.96,-29.81 54.94,-29.26"/>
</g>
<!-- Node14 -->
<g id="node14" class="node">
<title>Node14</title>
<g id="a_node14"><a xlink:title=" ">
<polygon fill="none" stroke="#bfbfbf" points="297.5,-112.5 297.5,-131.5 344.5,-131.5 344.5,-112.5 297.5,-112.5"/>
<text text-anchor="middle" x="321" y="-119.5" font-family="Helvetica,sans-Serif" font-size="10.00">vector</text>
</a>
</g>
</g>
<!-- Node13&#45;&gt;Node14 -->
<g id="edge16" class="edge">
<title>Node13&#45;&gt;Node14</title>
<path fill="none" stroke="midnightblue" d="M98.06,-169.81C101.08,-169.19 104.1,-168.58 107,-168 184.68,-152.37 207.08,-151.24 287.22,-132.29"/>
<polygon fill="midnightblue" stroke="midnightblue" points="288.37,-135.62 297.29,-129.89 286.75,-128.81 288.37,-135.62"/>
</g>
<!-- Node15&#45;&gt;Node4 -->
<g id="edge26" class="edge">
<title>Node15&#45;&gt;Node4</title>
<path fill="none" stroke="midnightblue" d="M647.62,-224.46C674.62,-213.31 713.11,-192.34 697,-168 682.49,-146.07 654.9,-134.8 631.51,-129.02"/>
<polygon fill="midnightblue" stroke="midnightblue" points="631.98,-125.54 621.46,-126.8 630.47,-132.37 631.98,-125.54"/>
</g>
<!-- Node15&#45;&gt;Node8 -->
<g id="edge25" class="edge">
<title>Node15&#45;&gt;Node8</title>
<path fill="none" stroke="midnightblue" d="M661.19,-225.81C664.5,-225.19 667.81,-224.58 671,-224 717.37,-215.57 849.64,-224.04 880,-188 917.8,-143.13 913.79,-103.96 880,-56 858.93,-26.11 816.12,-15.96 786.28,-12.58"/>
<polygon fill="midnightblue" stroke="midnightblue" points="786.61,-9.1 776.32,-11.65 785.95,-16.07 786.61,-9.1"/>
</g>
<!-- Node15&#45;&gt;Node9 -->
<g id="edge27" class="edge">
<title>Node15&#45;&gt;Node9</title>
<path fill="none" stroke="midnightblue" d="M661.03,-225.83C724.04,-213.6 845.52,-189.81 847,-188 852.63,-181.12 852.2,-175.21 847,-168 744.12,-25.36 506.22,-10.31 413.23,-10.12"/>
<polygon fill="midnightblue" stroke="midnightblue" points="413.13,-6.62 403.14,-10.15 413.16,-13.62 413.13,-6.62"/>
</g>
<!-- Node15&#45;&gt;Node14 -->
<g id="edge28" class="edge">
<title>Node15&#45;&gt;Node14</title>
<path fill="none" stroke="midnightblue" d="M586.92,-226.66C549.54,-219.62 490.6,-206.72 442,-188 432.13,-184.2 377.79,-154.43 345.38,-136.52"/>
<polygon fill="midnightblue" stroke="midnightblue" points="346.93,-133.38 336.49,-131.6 343.54,-139.5 346.93,-133.38"/>
</g>
<!-- Node16 -->
<g id="node16" class="node">
<title>Node16</title>
<g id="a_node16"><a xlink:href="_status_code_8hpp.html" target="_top" xlink:title=" ">
<polygon fill="none" stroke="black" points="744.5,-168.5 744.5,-187.5 837.5,-187.5 837.5,-168.5 744.5,-168.5"/>
<text text-anchor="middle" x="791" y="-175.5" font-family="Helvetica,sans-Serif" font-size="10.00">StatusCode.hpp</text>
</a>
</g>
</g>
<!-- Node15&#45;&gt;Node16 -->
<g id="edge20" class="edge">
<title>Node15&#45;&gt;Node16</title>
<path fill="none" stroke="midnightblue" d="M650.46,-224.44C678.68,-215.32 723.54,-200.81 754.97,-190.65"/>
<polygon fill="midnightblue" stroke="midnightblue" points="756.22,-193.92 764.66,-187.52 754.07,-187.26 756.22,-193.92"/>
</g>
<!-- Node17 -->
<g id="node17" class="node">
<title>Node17</title>
<g id="a_node17"><a xlink:href="constants_8hpp.html" target="_top" xlink:title=" ">
<polygon fill="none" stroke="black" points="450.5,-168.5 450.5,-187.5 535.5,-187.5 535.5,-168.5 450.5,-168.5"/>
<text text-anchor="middle" x="493" y="-175.5" font-family="Helvetica,sans-Serif" font-size="10.00">constants.hpp</text>
</a>
</g>
</g>
<!-- Node15&#45;&gt;Node17 -->
<g id="edge22" class="edge">
<title>Node15&#45;&gt;Node17</title>
<path fill="none" stroke="midnightblue" d="M603.24,-224.44C581.68,-215.56 547.74,-201.56 523.21,-191.45"/>
<polygon fill="midnightblue" stroke="midnightblue" points="524.24,-188.09 513.66,-187.52 521.57,-194.56 524.24,-188.09"/>
</g>
<!-- Node18 -->
<g id="node18" class="node">
<title>Node18</title>
<g id="a_node18"><a xlink:title=" ">
<polygon fill="none" stroke="#bfbfbf" points="554,-168.5 554,-187.5 618,-187.5 618,-168.5 554,-168.5"/>
<text text-anchor="middle" x="586" y="-175.5" font-family="Helvetica,sans-Serif" font-size="10.00">algorithm</text>
</a>
</g>
</g>
<!-- Node15&#45;&gt;Node18 -->
<g id="edge23" class="edge">
<title>Node15&#45;&gt;Node18</title>
<path fill="none" stroke="midnightblue" d="M617.73,-224.08C612.36,-216.46 604.48,-205.26 597.92,-195.94"/>
<polygon fill="midnightblue" stroke="midnightblue" points="600.78,-193.91 592.16,-187.75 595.05,-197.94 600.78,-193.91"/>
</g>
<!-- Node19 -->
<g id="node19" class="node">
<title>Node19</title>
<g id="a_node19"><a xlink:title=" ">
<polygon fill="none" stroke="#bfbfbf" points="636,-168.5 636,-187.5 688,-187.5 688,-168.5 636,-168.5"/>
<text text-anchor="middle" x="662" y="-175.5" font-family="Helvetica,sans-Serif" font-size="10.00">cassert</text>
</a>
</g>
</g>
<!-- Node15&#45;&gt;Node19 -->
<g id="edge24" class="edge">
<title>Node15&#45;&gt;Node19</title>
<path fill="none" stroke="midnightblue" d="M630.27,-224.08C635.64,-216.46 643.52,-205.26 650.08,-195.94"/>
<polygon fill="midnightblue" stroke="midnightblue" points="652.95,-197.94 655.84,-187.75 647.22,-193.91 652.95,-197.94"/>
</g>
<!-- Node16&#45;&gt;Node4 -->
<g id="edge21" class="edge">
<title>Node16&#45;&gt;Node4</title>
<path fill="none" stroke="midnightblue" d="M759.31,-168.44C724.68,-159.09 669.1,-144.09 631.37,-133.9"/>
<polygon fill="midnightblue" stroke="midnightblue" points="631.8,-130.39 621.23,-131.16 629.98,-137.15 631.8,-130.39"/>
</g>
</g>
</svg>
