<?xml version="1.0" encoding="UTF-8" standalone="no"?>
<!DOCTYPE svg PUBLIC "-//W3C//DTD SVG 1.1//EN"
 "http://www.w3.org/Graphics/SVG/1.1/DTD/svg11.dtd">
<!-- Generated by graphviz version 2.43.0 (0)
 -->
<!-- Title: inc/signalHandler.hpp Pages: 1 -->
<!--zoomable 269 -->

<svg id="main" version="1.1" xmlns="http://www.w3.org/2000/svg" xmlns:xlink="http://www.w3.org/1999/xlink" xml:space="preserve" onload="init(evt)">
<style type="text/css"><![CDATA[
.node, .edge {opacity: 0.7;}
.node.selected, .edge.selected {opacity: 1;}
.edge:hover path { stroke: red; }
.edge:hover polygon { stroke: red; fill: red; }
]]></style>

<defs>
  <circle id="rim" cx="0" cy="0" r="7"/>
  <circle id="rim2" cx="0" cy="0" r="3.5"/>
  <g id="zoomPlus">
    <use xlink:href="#rim" fill="#404040"><set attributeName="fill" to="#808080" begin="zoomplus.mouseover" end="zoomplus.mouseout"/></use>
    <path d="M-4,0h8M0,-4v8" fill="none" stroke="white" stroke-width="1.5" pointer-events="none"/>
  </g>
  <g id="zoomMin">
    <use xlink:href="#rim" fill="#404040"><set attributeName="fill" to="#808080" begin="zoomminus.mouseover" end="zoomminus.mouseout"/></use>
    <path d="M-4,0h8" fill="none" stroke="white" stroke-width="1.5" pointer-events="none"/>
  </g>
  <g id="arrowUp" transform="translate(30 24)">
    <use xlink:href="#rim"/>
    <path pointer-events="none" fill="none" stroke="white" stroke-width="1.5" d="M0,-3.0v7 M-2.5,-0.5L0,-3.0L2.5,-0.5"/>
  </g>
  <g id="arrowRight" transform="rotate(90) translate(36 -43)">
    <use xlink:href="#rim"/>
    <path pointer-events="none" fill="none" stroke="white" stroke-width="1.5" d="M0,-3.0v7 M-2.5,-0.5L0,-3.0L2.5,-0.5"/>
  </g>
  <g id="arrowDown" transform="rotate(180) translate(-30 -48)">
    <use xlink:href="#rim"/>
    <path pointer-events="none" fill="none" stroke="white" stroke-width="1.5" d="M0,-3.0v7 M-2.5,-0.5L0,-3.0L2.5,-0.5"/>
  </g>
  <g id="arrowLeft" transform="rotate(270) translate(-36 17)">
    <use xlink:href="#rim"/>
    <path pointer-events="none" fill="none" stroke="white" stroke-width="1.5" d="M0,-3.0v7 M-2.5,-0.5L0,-3.0L2.5,-0.5"/>
  </g>
  <g id="resetDef">
    <use xlink:href="#rim2" fill="#404040"><set attributeName="fill" to="#808080" begin="reset.mouseover" end="reset.mouseout"/></use>
  </g>
</defs>
<script type="application/ecmascript">
var viewWidth = 3713;
var viewHeight = 269;
var sectionId = 'dynsection-1';
</script>
<script type="application/ecmascript" xlink:href="svg.min.js"/>
<svg id="graph" class="graph">
<g id="viewport">
<title>inc/signalHandler.hpp</title>
<!-- Node1 -->
<g id="Node000001" class="node">
<title>Node1</title>
<g id="a_Node000001"><a xlink:title=" ">
<polygon fill="#999999" stroke="#666666" points="2348.5,-261 2226.5,-261 2226.5,-242 2348.5,-242 2348.5,-261"/>
<text text-anchor="middle" x="2287.5" y="-249" font-family="Helvetica,sans-Serif" font-size="10.00">inc/signalHandler.hpp</text>
</a>
</g>
</g>
<!-- Node2 -->
<g id="Node000002" class="node">
<title>Node2</title>
<g id="a_Node000002"><a xlink:href="_c_g_i_handler_8hpp.html" target="_top" xlink:title=" ">
<polygon fill="white" stroke="#666666" points="2342.5,-206 2232.5,-206 2232.5,-187 2342.5,-187 2342.5,-206"/>
<text text-anchor="middle" x="2287.5" y="-194" font-family="Helvetica,sans-Serif" font-size="10.00">inc/CGIHandler.hpp</text>
</a>
</g>
</g>
<!-- Node1&#45;&gt;Node2 -->
<g id="edge1_Node000001_Node000002" class="edge">
<title>Node1&#45;&gt;Node2</title>
<g id="a_edge1_Node000001_Node000002"><a xlink:title=" ">
<path fill="none" stroke="#63b8ff" d="M2287.5,-231.66C2287.5,-222.93 2287.5,-212.99 2287.5,-206.09"/>
<polygon fill="#63b8ff" stroke="#63b8ff" points="2284,-231.75 2287.5,-241.75 2291,-231.75 2284,-231.75"/>
</a>
</g>
</g>
<!-- Node3 -->
<g id="Node000003" class="node">
<title>Node3</title>
<g id="a_Node000003"><a xlink:href="_server_8hpp.html" target="_top" xlink:title=" ">
<polygon fill="white" stroke="#666666" points="2138.5,-151 2052.5,-151 2052.5,-132 2138.5,-132 2138.5,-151"/>
<text text-anchor="middle" x="2095.5" y="-139" font-family="Helvetica,sans-Serif" font-size="10.00">inc/Server.hpp</text>
</a>
</g>
</g>
<!-- Node1&#45;&gt;Node3 -->
<g id="edge34_Node000001_Node000003" class="edge">
<title>Node1&#45;&gt;Node3</title>
<g id="a_edge34_Node000001_Node000003"><a xlink:title=" ">
<path fill="none" stroke="#63b8ff" d="M2263.25,-236.86C2223.08,-214.26 2143.88,-169.71 2110.69,-151.05"/>
<polygon fill="#63b8ff" stroke="#63b8ff" points="2261.68,-239.99 2272.11,-241.84 2265.11,-233.89 2261.68,-239.99"/>
</a>
</g>
</g>
<!-- Node33 -->
<g id="Node000033" class="node">
<title>Node33</title>
<g id="a_Node000033"><a xlink:href="signal_handler_8cpp.html" target="_top" xlink:title=" ">
<polygon fill="white" stroke="#666666" points="2482,-206 2361,-206 2361,-187 2482,-187 2482,-206"/>
<text text-anchor="middle" x="2421.5" y="-194" font-family="Helvetica,sans-Serif" font-size="10.00">src/signalHandler.cpp</text>
</a>
</g>
</g>
<!-- Node1&#45;&gt;Node33 -->
<g id="edge35_Node000001_Node000033" class="edge">
<title>Node1&#45;&gt;Node33</title>
<g id="a_edge35_Node000001_Node000033"><a xlink:title=" ">
<path fill="none" stroke="#63b8ff" d="M2318.37,-238.29C2343.2,-228.47 2377.49,-214.91 2399.58,-206.17"/>
<polygon fill="#63b8ff" stroke="#63b8ff" points="2317.04,-235.05 2309.03,-241.98 2319.62,-241.56 2317.04,-235.05"/>
</a>
</g>
</g>
<!-- Node2&#45;&gt;Node3 -->
<g id="edge2_Node000002_Node000003" class="edge">
<title>Node2&#45;&gt;Node3</title>
<g id="a_edge2_Node000002_Node000003"><a xlink:title=" ">
<path fill="none" stroke="#63b8ff" d="M2246.97,-184.31C2211.04,-174.39 2159.34,-160.12 2126.59,-151.08"/>
<polygon fill="#63b8ff" stroke="#63b8ff" points="2246.08,-187.7 2256.65,-186.98 2247.94,-180.95 2246.08,-187.7"/>
</a>
</g>
</g>
<!-- Node10 -->
<g id="Node000010" class="node">
<title>Node10</title>
<g id="a_Node000010"><a xlink:href="test___c_g_i_handler_8cpp.html" target="_top" xlink:title=" ">
<polygon fill="white" stroke="#666666" points="3705,-30 3608,-30 3608,0 3705,0 3705,-30"/>
<text text-anchor="start" x="3616" y="-18" font-family="Helvetica,sans-Serif" font-size="10.00">test/unit/src/test</text>
<text text-anchor="middle" x="3656.5" y="-7" font-family="Helvetica,sans-Serif" font-size="10.00">_CGIHandler.cpp</text>
</a>
</g>
</g>
<!-- Node2&#45;&gt;Node10 -->
<g id="edge33_Node000002_Node000010" class="edge">
<title>Node2&#45;&gt;Node10</title>
<g id="a_edge33_Node000002_Node000010"><a xlink:title=" ">
<path fill="none" stroke="#63b8ff" d="M2297.72,-177.7C2307.41,-162.68 2323.45,-142.05 2343.5,-132 2593.65,-6.63 3322.22,-74.29 3598.5,-30 3601.57,-29.51 3604.71,-28.94 3607.88,-28.32"/>
<polygon fill="#63b8ff" stroke="#63b8ff" points="2294.51,-176.24 2292.29,-186.6 2300.48,-179.89 2294.51,-176.24"/>
</a>
</g>
</g>
<!-- Node32 -->
<g id="Node000032" class="node">
<title>Node32</title>
<g id="a_Node000032"><a xlink:href="_c_g_i_handler_8cpp.html" target="_top" xlink:title=" ">
<polygon fill="white" stroke="#666666" points="2461,-151 2352,-151 2352,-132 2461,-132 2461,-151"/>
<text text-anchor="middle" x="2406.5" y="-139" font-family="Helvetica,sans-Serif" font-size="10.00">src/CGIHandler.cpp</text>
</a>
</g>
</g>
<!-- Node2&#45;&gt;Node32 -->
<g id="edge32_Node000002_Node000032" class="edge">
<title>Node2&#45;&gt;Node32</title>
<g id="a_edge32_Node000002_Node000032"><a xlink:title=" ">
<path fill="none" stroke="#63b8ff" d="M2315.8,-182.9C2337.78,-173.11 2367.68,-159.79 2387.03,-151.17"/>
<polygon fill="#63b8ff" stroke="#63b8ff" points="2314.33,-179.72 2306.62,-186.98 2317.18,-186.11 2314.33,-179.72"/>
</a>
</g>
</g>
<!-- Node4 -->
<g id="Node000004" class="node">
<title>Node4</title>
<g id="a_Node000004"><a xlink:href="_config_file_parser_8hpp.html" target="_top" xlink:title=" ">
<polygon fill="white" stroke="#666666" points="333.5,-90.5 201.5,-90.5 201.5,-71.5 333.5,-71.5 333.5,-90.5"/>
<text text-anchor="middle" x="267.5" y="-78.5" font-family="Helvetica,sans-Serif" font-size="10.00">inc/ConfigFileParser.hpp</text>
</a>
</g>
</g>
<!-- Node3&#45;&gt;Node4 -->
<g id="edge3_Node000003_Node000004" class="edge">
<title>Node3&#45;&gt;Node4</title>
<g id="a_edge3_Node000003_Node000004"><a xlink:title=" ">
<path fill="none" stroke="#63b8ff" d="M2042.06,-138.79C1779.15,-130.38 623.98,-93.41 333.81,-84.12"/>
<polygon fill="#63b8ff" stroke="#63b8ff" points="2042.01,-142.29 2052.12,-139.11 2042.23,-135.29 2042.01,-142.29"/>
</a>
</g>
</g>
<!-- Node6 -->
<g id="Node000006" class="node">
<title>Node6</title>
<g id="a_Node000006"><a xlink:href="main_8cpp.html" target="_top" xlink:title=" ">
<polygon fill="white" stroke="#666666" points="365,-24.5 286,-24.5 286,-5.5 365,-5.5 365,-24.5"/>
<text text-anchor="middle" x="325.5" y="-12.5" font-family="Helvetica,sans-Serif" font-size="10.00">src/main.cpp</text>
</a>
</g>
</g>
<!-- Node3&#45;&gt;Node6 -->
<g id="edge8_Node000003_Node000006" class="edge">
<title>Node3&#45;&gt;Node6</title>
<g id="a_edge8_Node000003_Node000006"><a xlink:title=" ">
<path fill="none" stroke="#63b8ff" d="M2042.2,-138.62C1789.1,-129.44 707.14,-87.51 374.5,-30 366.92,-28.69 358.83,-26.65 351.45,-24.53"/>
<polygon fill="#63b8ff" stroke="#63b8ff" points="2042.12,-142.12 2052.24,-138.98 2042.37,-135.12 2042.12,-142.12"/>
</a>
</g>
</g>
<!-- Node8 -->
<g id="Node000008" class="node">
<title>Node8</title>
<g id="a_Node000008"><a xlink:href="_server_8cpp.html" target="_top" xlink:title=" ">
<polygon fill="white" stroke="#666666" points="2029,-90.5 1944,-90.5 1944,-71.5 2029,-71.5 2029,-90.5"/>
<text text-anchor="middle" x="1986.5" y="-78.5" font-family="Helvetica,sans-Serif" font-size="10.00">src/Server.cpp</text>
</a>
</g>
</g>
<!-- Node3&#45;&gt;Node8 -->
<g id="edge7_Node000003_Node000008" class="edge">
<title>Node3&#45;&gt;Node8</title>
<g id="a_edge7_Node000003_Node000008"><a xlink:title=" ">
<path fill="none" stroke="#63b8ff" d="M2070.49,-127.08C2049.64,-115.88 2020.55,-100.27 2002.65,-90.67"/>
<polygon fill="#63b8ff" stroke="#63b8ff" points="2068.95,-130.22 2079.42,-131.87 2072.26,-124.06 2068.95,-130.22"/>
</a>
</g>
</g>
<!-- Node9 -->
<g id="Node000009" class="node">
<title>Node9</title>
<g id="a_Node000009"><a xlink:href="test__helpers_8hpp.html" target="_top" xlink:title=" ">
<polygon fill="white" stroke="#666666" points="2143.5,-96 2047.5,-96 2047.5,-66 2143.5,-66 2143.5,-96"/>
<text text-anchor="start" x="2055.5" y="-84" font-family="Helvetica,sans-Serif" font-size="10.00">test/unit/inc/test</text>
<text text-anchor="middle" x="2095.5" y="-73" font-family="Helvetica,sans-Serif" font-size="10.00">_helpers.hpp</text>
</a>
</g>
</g>
<!-- Node3&#45;&gt;Node9 -->
<g id="edge9_Node000003_Node000009" class="edge">
<title>Node3&#45;&gt;Node9</title>
<g id="a_edge9_Node000003_Node000009"><a xlink:title=" ">
<path fill="none" stroke="#63b8ff" d="M2095.5,-121.65C2095.5,-113.36 2095.5,-103.78 2095.5,-96.11"/>
<polygon fill="#63b8ff" stroke="#63b8ff" points="2092,-121.87 2095.5,-131.87 2099,-121.87 2092,-121.87"/>
</a>
</g>
</g>
<!-- Node31 -->
<g id="Node000031" class="node">
<title>Node31</title>
<g id="a_Node000031"><a xlink:href="test__select_server_config_8cpp.html" target="_top" xlink:title=" ">
<polygon fill="white" stroke="#666666" points="2295.5,-96 2161.5,-96 2161.5,-66 2295.5,-66 2295.5,-96"/>
<text text-anchor="start" x="2169.5" y="-84" font-family="Helvetica,sans-Serif" font-size="10.00">test/unit/src/test</text>
<text text-anchor="middle" x="2228.5" y="-73" font-family="Helvetica,sans-Serif" font-size="10.00">_selectServerConfig.cpp</text>
</a>
</g>
</g>
<!-- Node3&#45;&gt;Node31 -->
<g id="edge31_Node000003_Node000031" class="edge">
<title>Node3&#45;&gt;Node31</title>
<g id="a_edge31_Node000003_Node000031"><a xlink:title=" ">
<path fill="none" stroke="#63b8ff" d="M2124.02,-127.95C2145.32,-118.59 2174.44,-105.78 2196.52,-96.06"/>
<polygon fill="#63b8ff" stroke="#63b8ff" points="2122.58,-124.76 2114.84,-131.99 2125.4,-131.17 2122.58,-124.76"/>
</a>
</g>
</g>
<!-- Node5 -->
<g id="Node000005" class="node">
<title>Node5</title>
<g id="a_Node000005"><a xlink:href="_config_file_parser_8cpp.html" target="_top" xlink:title=" ">
<polygon fill="white" stroke="#666666" points="131,-24.5 0,-24.5 0,-5.5 131,-5.5 131,-24.5"/>
<text text-anchor="middle" x="65.5" y="-12.5" font-family="Helvetica,sans-Serif" font-size="10.00">src/ConfigFileParser.cpp</text>
</a>
</g>
</g>
<!-- Node4&#45;&gt;Node5 -->
<g id="edge4_Node000004_Node000005" class="edge">
<title>Node4&#45;&gt;Node5</title>
<g id="a_edge4_Node000004_Node000005"><a xlink:title=" ">
<path fill="none" stroke="#63b8ff" d="M230.65,-68.32C190.8,-55.7 128.22,-35.87 92.63,-24.6"/>
<polygon fill="#63b8ff" stroke="#63b8ff" points="229.67,-71.68 240.26,-71.37 231.78,-65.01 229.67,-71.68"/>
</a>
</g>
</g>
<!-- Node4&#45;&gt;Node6 -->
<g id="edge5_Node000004_Node000006" class="edge">
<title>Node4&#45;&gt;Node6</title>
<g id="a_edge5_Node000004_Node000006"><a xlink:title=" ">
<path fill="none" stroke="#63b8ff" d="M282.34,-63.62C293.5,-51.31 308.38,-34.89 317.43,-24.91"/>
<polygon fill="#63b8ff" stroke="#63b8ff" points="279.44,-61.61 275.32,-71.37 284.63,-66.31 279.44,-61.61"/>
</a>
</g>
</g>
<!-- Node7 -->
<g id="Node000007" class="node">
<title>Node7</title>
<g id="a_Node000007"><a xlink:href="test___config_file_parser_8cpp.html" target="_top" xlink:title=" ">
<polygon fill="white" stroke="#666666" points="268,-30 149,-30 149,0 268,0 268,-30"/>
<text text-anchor="start" x="157" y="-18" font-family="Helvetica,sans-Serif" font-size="10.00">test/unit/src/test</text>
<text text-anchor="middle" x="208.5" y="-7" font-family="Helvetica,sans-Serif" font-size="10.00">_ConfigFileParser.cpp</text>
</a>
</g>
</g>
<!-- Node4&#45;&gt;Node7 -->
<g id="edge6_Node000004_Node000007" class="edge">
<title>Node4&#45;&gt;Node7</title>
<g id="a_edge6_Node000004_Node000007"><a xlink:title=" ">
<path fill="none" stroke="#63b8ff" d="M252.61,-63.85C243.11,-53.54 230.9,-40.3 221.74,-30.36"/>
<polygon fill="#63b8ff" stroke="#63b8ff" points="250.19,-66.39 259.54,-71.37 255.34,-61.64 250.19,-66.39"/>
</a>
</g>
</g>
<!-- Node9&#45;&gt;Node10 -->
<g id="edge10_Node000009_Node000010" class="edge">
<title>Node9&#45;&gt;Node10</title>
<g id="a_edge10_Node000009_Node000010"><a xlink:title=" ">
<path fill="none" stroke="#63b8ff" d="M2153.93,-66.05C2791.55,17.74 2964.55,-113.44 3598.5,-30 3601.58,-29.59 3604.74,-29.09 3607.91,-28.52"/>
<polygon fill="#63b8ff" stroke="#63b8ff" points="2153.01,-62.64 2143.56,-67.42 2153.94,-69.58 2153.01,-62.64"/>
</a>
</g>
</g>
<!-- Node11 -->
<g id="Node000011" class="node">
<title>Node11</title>
<g id="a_Node000011"><a xlink:href="test__accept_connections_8cpp.html" target="_top" xlink:title=" ">
<polygon fill="white" stroke="#666666" points="517.5,-30 383.5,-30 383.5,0 517.5,0 517.5,-30"/>
<text text-anchor="start" x="391.5" y="-18" font-family="Helvetica,sans-Serif" font-size="10.00">test/unit/src/test</text>
<text text-anchor="middle" x="450.5" y="-7" font-family="Helvetica,sans-Serif" font-size="10.00">_acceptConnections.cpp</text>
</a>
</g>
</g>
<!-- Node9&#45;&gt;Node11 -->
<g id="edge11_Node000009_Node000011" class="edge">
<title>Node9&#45;&gt;Node11</title>
<g id="a_edge11_Node000009_Node000011"><a xlink:title=" ">
<path fill="none" stroke="#63b8ff" d="M2036.87,-66.18C1369.63,20.07 1191.26,-98.71 526.5,-30 523.56,-29.7 520.57,-29.34 517.55,-28.95"/>
<polygon fill="#63b8ff" stroke="#63b8ff" points="2036.86,-69.71 2047.22,-67.53 2037.76,-62.77 2036.86,-69.71"/>
</a>
</g>
</g>
<!-- Node12 -->
<g id="Node000012" class="node">
<title>Node12</title>
<g id="a_Node000012"><a xlink:href="test__check_for_timeout_8cpp.html" target="_top" xlink:title=" ">
<polygon fill="white" stroke="#666666" points="661.5,-30 535.5,-30 535.5,0 661.5,0 661.5,-30"/>
<text text-anchor="start" x="543.5" y="-18" font-family="Helvetica,sans-Serif" font-size="10.00">test/unit/src/test</text>
<text text-anchor="middle" x="598.5" y="-7" font-family="Helvetica,sans-Serif" font-size="10.00">_checkForTimeout.cpp</text>
</a>
</g>
</g>
<!-- Node9&#45;&gt;Node12 -->
<g id="edge12_Node000009_Node000012" class="edge">
<title>Node9&#45;&gt;Node12</title>
<g id="a_edge12_Node000009_Node000012"><a xlink:title=" ">
<path fill="none" stroke="#63b8ff" d="M2036.95,-66.19C1433.17,12.52 1271.25,-95.86 670.5,-30 667.59,-29.68 664.62,-29.31 661.63,-28.89"/>
<polygon fill="#63b8ff" stroke="#63b8ff" points="2036.85,-69.71 2047.22,-67.54 2037.76,-62.77 2036.85,-69.71"/>
</a>
</g>
</g>
<!-- Node13 -->
<g id="Node000013" class="node">
<title>Node13</title>
<g id="a_Node000013"><a xlink:href="test__connection_build_response_8cpp.html" target="_top" xlink:title=" ">
<polygon fill="white" stroke="#666666" points="847,-30 680,-30 680,0 847,0 847,-30"/>
<text text-anchor="start" x="688" y="-18" font-family="Helvetica,sans-Serif" font-size="10.00">test/unit/src/test</text>
<text text-anchor="middle" x="763.5" y="-7" font-family="Helvetica,sans-Serif" font-size="10.00">_connectionBuildResponse.cpp</text>
</a>
</g>
</g>
<!-- Node9&#45;&gt;Node13 -->
<g id="edge13_Node000009_Node000013" class="edge">
<title>Node9&#45;&gt;Node13</title>
<g id="a_edge13_Node000009_Node000013"><a xlink:title=" ">
<path fill="none" stroke="#63b8ff" d="M2037.17,-66.21C1515.29,2.96 1376.19,-76.87 856.5,-30 853.41,-29.72 850.27,-29.41 847.09,-29.06"/>
<polygon fill="#63b8ff" stroke="#63b8ff" points="2036.85,-69.7 2047.22,-67.56 2037.77,-62.76 2036.85,-69.7"/>
</a>
</g>
</g>
<!-- Node14 -->
<g id="Node000014" class="node">
<title>Node14</title>
<g id="a_Node000014"><a xlink:href="test__connection_handle_timeout_8cpp.html" target="_top" xlink:title=" ">
<polygon fill="white" stroke="#666666" points="1035.5,-30 865.5,-30 865.5,0 1035.5,0 1035.5,-30"/>
<text text-anchor="start" x="873.5" y="-18" font-family="Helvetica,sans-Serif" font-size="10.00">test/unit/src/test</text>
<text text-anchor="middle" x="950.5" y="-7" font-family="Helvetica,sans-Serif" font-size="10.00">_connectionHandleTimeout.cpp</text>
</a>
</g>
</g>
<!-- Node9&#45;&gt;Node14 -->
<g id="edge14_Node000009_Node000014" class="edge">
<title>Node9&#45;&gt;Node14</title>
<g id="a_edge14_Node000009_Node000014"><a xlink:title=" ">
<path fill="none" stroke="#63b8ff" d="M2037.12,-66.2C1598.22,-6.86 1480.93,-70.28 1044.5,-30 1041.54,-29.73 1038.54,-29.42 1035.5,-29.09"/>
<polygon fill="#63b8ff" stroke="#63b8ff" points="2036.84,-69.69 2047.22,-67.58 2037.78,-62.76 2036.84,-69.69"/>
</a>
</g>
</g>
<!-- Node15 -->
<g id="Node000015" class="node">
<title>Node15</title>
<g id="a_Node000015"><a xlink:href="test__connection_receive_body_8cpp.html" target="_top" xlink:title=" ">
<polygon fill="white" stroke="#666666" points="1211.5,-30 1053.5,-30 1053.5,0 1211.5,0 1211.5,-30"/>
<text text-anchor="start" x="1061.5" y="-18" font-family="Helvetica,sans-Serif" font-size="10.00">test/unit/src/test</text>
<text text-anchor="middle" x="1132.5" y="-7" font-family="Helvetica,sans-Serif" font-size="10.00">_connectionReceiveBody.cpp</text>
</a>
</g>
</g>
<!-- Node9&#45;&gt;Node15 -->
<g id="edge15_Node000009_Node000015" class="edge">
<title>Node9&#45;&gt;Node15</title>
<g id="a_edge15_Node000009_Node000015"><a xlink:title=" ">
<path fill="none" stroke="#63b8ff" d="M2037.26,-66.21C1675.87,-16.05 1578.85,-66.28 1220.5,-30 1217.58,-29.7 1214.6,-29.37 1211.6,-29.02"/>
<polygon fill="#63b8ff" stroke="#63b8ff" points="2036.82,-69.68 2047.21,-67.61 2037.8,-62.75 2036.82,-69.68"/>
</a>
</g>
</g>
<!-- Node16 -->
<g id="Node000016" class="node">
<title>Node16</title>
<g id="a_Node000016"><a xlink:href="test__connection_receive_from_c_g_i_8cpp.html" target="_top" xlink:title=" ">
<polygon fill="white" stroke="#666666" points="1405.5,-30 1229.5,-30 1229.5,0 1405.5,0 1405.5,-30"/>
<text text-anchor="start" x="1237.5" y="-18" font-family="Helvetica,sans-Serif" font-size="10.00">test/unit/src/test</text>
<text text-anchor="middle" x="1317.5" y="-7" font-family="Helvetica,sans-Serif" font-size="10.00">_connectionReceiveFromCGI.cpp</text>
</a>
</g>
</g>
<!-- Node9&#45;&gt;Node16 -->
<g id="edge16_Node000009_Node000016" class="edge">
<title>Node9&#45;&gt;Node16</title>
<g id="a_edge16_Node000009_Node000016"><a xlink:title=" ">
<path fill="none" stroke="#63b8ff" d="M2037.29,-66.2C1760.98,-26.01 1686.63,-57.74 1413.5,-30 1410.9,-29.74 1408.27,-29.45 1405.61,-29.15"/>
<polygon fill="#63b8ff" stroke="#63b8ff" points="2036.8,-69.66 2047.21,-67.66 2037.82,-62.74 2036.8,-69.66"/>
</a>
</g>
</g>
<!-- Node17 -->
<g id="Node000017" class="node">
<title>Node17</title>
<g id="a_Node000017"><a xlink:href="test__connection_receive_header_8cpp.html" target="_top" xlink:title=" ">
<polygon fill="white" stroke="#666666" points="1592,-30 1423,-30 1423,0 1592,0 1592,-30"/>
<text text-anchor="start" x="1431" y="-18" font-family="Helvetica,sans-Serif" font-size="10.00">test/unit/src/test</text>
<text text-anchor="middle" x="1507.5" y="-7" font-family="Helvetica,sans-Serif" font-size="10.00">_connectionReceiveHeader.cpp</text>
</a>
</g>
</g>
<!-- Node9&#45;&gt;Node17 -->
<g id="edge17_Node000009_Node000017" class="edge">
<title>Node9&#45;&gt;Node17</title>
<g id="a_edge17_Node000009_Node000017"><a xlink:title=" ">
<path fill="none" stroke="#63b8ff" d="M2037.25,-66.16C1843.36,-35.61 1790.86,-52.14 1600.5,-30 1597.74,-29.68 1594.94,-29.34 1592.11,-28.98"/>
<polygon fill="#63b8ff" stroke="#63b8ff" points="2036.77,-69.63 2047.19,-67.75 2037.87,-62.71 2036.77,-69.63"/>
</a>
</g>
</g>
<!-- Node18 -->
<g id="Node000018" class="node">
<title>Node18</title>
<g id="a_Node000018"><a xlink:href="test__connection_send_response_8cpp.html" target="_top" xlink:title=" ">
<polygon fill="white" stroke="#666666" points="1777,-30 1610,-30 1610,0 1777,0 1777,-30"/>
<text text-anchor="start" x="1618" y="-18" font-family="Helvetica,sans-Serif" font-size="10.00">test/unit/src/test</text>
<text text-anchor="middle" x="1693.5" y="-7" font-family="Helvetica,sans-Serif" font-size="10.00">_connectionSendResponse.cpp</text>
</a>
</g>
</g>
<!-- Node9&#45;&gt;Node18 -->
<g id="edge18_Node000009_Node000018" class="edge">
<title>Node9&#45;&gt;Node18</title>
<g id="a_edge18_Node000009_Node000018"><a xlink:title=" ">
<path fill="none" stroke="#63b8ff" d="M2037.81,-66.06C2037.7,-66.04 2037.6,-66.02 2037.5,-66 1926.39,-44.7 1897.43,-46.51 1785.5,-30 1782.78,-29.6 1780.02,-29.19 1777.23,-28.77"/>
<polygon fill="#63b8ff" stroke="#63b8ff" points="2036.97,-69.46 2047.47,-68.03 2038.37,-62.6 2036.97,-69.46"/>
</a>
</g>
</g>
<!-- Node19 -->
<g id="Node000019" class="node">
<title>Node19</title>
<g id="a_Node000019"><a xlink:href="test__connection_send_to_c_g_i_8cpp.html" target="_top" xlink:title=" ">
<polygon fill="white" stroke="#666666" points="1942,-30 1795,-30 1795,0 1942,0 1942,-30"/>
<text text-anchor="start" x="1803" y="-18" font-family="Helvetica,sans-Serif" font-size="10.00">test/unit/src/test</text>
<text text-anchor="middle" x="1868.5" y="-7" font-family="Helvetica,sans-Serif" font-size="10.00">_connectionSendToCGI.cpp</text>
</a>
</g>
</g>
<!-- Node9&#45;&gt;Node19 -->
<g id="edge19_Node000009_Node000019" class="edge">
<title>Node9&#45;&gt;Node19</title>
<g id="a_edge19_Node000009_Node000019"><a xlink:title=" ">
<path fill="none" stroke="#63b8ff" d="M2037.29,-63.59C2000.55,-53.23 1953.59,-39.99 1918.54,-30.11"/>
<polygon fill="#63b8ff" stroke="#63b8ff" points="2036.78,-67.08 2047.36,-66.43 2038.68,-60.34 2036.78,-67.08"/>
</a>
</g>
</g>
<!-- Node20 -->
<g id="Node000020" class="node">
<title>Node20</title>
<g id="a_Node000020"><a xlink:href="test__create_virtual_server_8cpp.html" target="_top" xlink:title=" ">
<polygon fill="white" stroke="#666666" points="2096.5,-30 1960.5,-30 1960.5,0 2096.5,0 2096.5,-30"/>
<text text-anchor="start" x="1968.5" y="-18" font-family="Helvetica,sans-Serif" font-size="10.00">test/unit/src/test</text>
<text text-anchor="middle" x="2028.5" y="-7" font-family="Helvetica,sans-Serif" font-size="10.00">_createVirtualServer.cpp</text>
</a>
</g>
</g>
<!-- Node9&#45;&gt;Node20 -->
<g id="edge20_Node000009_Node000020" class="edge">
<title>Node9&#45;&gt;Node20</title>
<g id="a_edge20_Node000009_Node000020"><a xlink:title=" ">
<path fill="none" stroke="#63b8ff" d="M2073.15,-58.65C2063.33,-49.27 2052.08,-38.53 2043.33,-30.16"/>
<polygon fill="#63b8ff" stroke="#63b8ff" points="2070.98,-61.42 2080.63,-65.8 2075.82,-56.36 2070.98,-61.42"/>
</a>
</g>
</g>
<!-- Node21 -->
<g id="Node000021" class="node">
<title>Node21</title>
<g id="a_Node000021"><a xlink:href="test__handle_body_8cpp.html" target="_top" xlink:title=" ">
<polygon fill="white" stroke="#666666" points="2212.5,-30 2114.5,-30 2114.5,0 2212.5,0 2212.5,-30"/>
<text text-anchor="start" x="2122.5" y="-18" font-family="Helvetica,sans-Serif" font-size="10.00">test/unit/src/test</text>
<text text-anchor="middle" x="2163.5" y="-7" font-family="Helvetica,sans-Serif" font-size="10.00">_handleBody.cpp</text>
</a>
</g>
</g>
<!-- Node9&#45;&gt;Node21 -->
<g id="edge21_Node000009_Node000021" class="edge">
<title>Node9&#45;&gt;Node21</title>
<g id="a_edge21_Node000009_Node000021"><a xlink:title=" ">
<path fill="none" stroke="#63b8ff" d="M2117.89,-58.92C2127.92,-49.49 2139.48,-38.61 2148.45,-30.16"/>
<polygon fill="#63b8ff" stroke="#63b8ff" points="2115.47,-56.39 2110.59,-65.8 2120.27,-61.49 2115.47,-56.39"/>
</a>
</g>
</g>
<!-- Node22 -->
<g id="Node000022" class="node">
<title>Node22</title>
<g id="a_Node000022"><a xlink:href="test__handle_complete_request_header_8cpp.html" target="_top" xlink:title=" ">
<polygon fill="white" stroke="#666666" points="2428,-30 2231,-30 2231,0 2428,0 2428,-30"/>
<text text-anchor="start" x="2239" y="-18" font-family="Helvetica,sans-Serif" font-size="10.00">test/unit/src/test</text>
<text text-anchor="middle" x="2329.5" y="-7" font-family="Helvetica,sans-Serif" font-size="10.00">_handleCompleteRequestHeader.cpp</text>
</a>
</g>
</g>
<!-- Node9&#45;&gt;Node22 -->
<g id="edge22_Node000009_Node000022" class="edge">
<title>Node9&#45;&gt;Node22</title>
<g id="a_edge22_Node000009_Node000022"><a xlink:title=" ">
<path fill="none" stroke="#63b8ff" d="M2153.65,-64.09C2191.85,-53.65 2241.37,-40.1 2278.12,-30.05"/>
<polygon fill="#63b8ff" stroke="#63b8ff" points="2152.42,-60.8 2143.7,-66.82 2154.27,-67.55 2152.42,-60.8"/>
</a>
</g>
</g>
<!-- Node23 -->
<g id="Node000023" class="node">
<title>Node23</title>
<g id="a_Node000023"><a xlink:href="test__handle_event_8cpp.html" target="_top" xlink:title=" ">
<polygon fill="white" stroke="#666666" points="2549,-30 2446,-30 2446,0 2549,0 2549,-30"/>
<text text-anchor="start" x="2454" y="-18" font-family="Helvetica,sans-Serif" font-size="10.00">test/unit/src/test</text>
<text text-anchor="middle" x="2497.5" y="-7" font-family="Helvetica,sans-Serif" font-size="10.00">_handleEvent.cpp</text>
</a>
</g>
</g>
<!-- Node9&#45;&gt;Node23 -->
<g id="edge23_Node000009_Node000023" class="edge">
<title>Node9&#45;&gt;Node23</title>
<g id="a_edge23_Node000009_Node000023"><a xlink:title=" ">
<path fill="none" stroke="#63b8ff" d="M2153.66,-65.93C2279.81,-43.21 2315.02,-51.96 2437.5,-30 2440.24,-29.51 2443.04,-28.97 2445.86,-28.41"/>
<polygon fill="#63b8ff" stroke="#63b8ff" points="2152.82,-62.52 2143.62,-67.77 2154.08,-69.41 2152.82,-62.52"/>
</a>
</g>
</g>
<!-- Node24 -->
<g id="Node000024" class="node">
<title>Node24</title>
<g id="a_Node000024"><a xlink:href="test__helpers_8cpp.html" target="_top" xlink:title=" ">
<polygon fill="white" stroke="#666666" points="2663.5,-30 2567.5,-30 2567.5,0 2663.5,0 2663.5,-30"/>
<text text-anchor="start" x="2575.5" y="-18" font-family="Helvetica,sans-Serif" font-size="10.00">test/unit/src/test</text>
<text text-anchor="middle" x="2615.5" y="-7" font-family="Helvetica,sans-Serif" font-size="10.00">_helpers.cpp</text>
</a>
</g>
</g>
<!-- Node9&#45;&gt;Node24 -->
<g id="edge24_Node000009_Node000024" class="edge">
<title>Node9&#45;&gt;Node24</title>
<g id="a_edge24_Node000009_Node000024"><a xlink:title=" ">
<path fill="none" stroke="#63b8ff" d="M2153.63,-66C2333,-37.14 2383.03,-59.15 2558.5,-30 2561.42,-29.52 2564.4,-28.96 2567.4,-28.36"/>
<polygon fill="#63b8ff" stroke="#63b8ff" points="2152.9,-62.57 2143.6,-67.64 2154.03,-69.48 2152.9,-62.57"/>
</a>
</g>
</g>
<!-- Node25 -->
<g id="Node000025" class="node">
<title>Node25</title>
<g id="a_Node000025"><a xlink:href="test__init_virtual_servers_8cpp.html" target="_top" xlink:title=" ">
<polygon fill="white" stroke="#666666" points="2809,-30 2682,-30 2682,0 2809,0 2809,-30"/>
<text text-anchor="start" x="2690" y="-18" font-family="Helvetica,sans-Serif" font-size="10.00">test/unit/src/test</text>
<text text-anchor="middle" x="2745.5" y="-7" font-family="Helvetica,sans-Serif" font-size="10.00">_initVirtualServers.cpp</text>
</a>
</g>
</g>
<!-- Node9&#45;&gt;Node25 -->
<g id="edge25_Node000009_Node000025" class="edge">
<title>Node9&#45;&gt;Node25</title>
<g id="a_edge25_Node000009_Node000025"><a xlink:title=" ">
<path fill="none" stroke="#63b8ff" d="M2153.58,-66.03C2383.16,-31.07 2446.02,-59.45 2672.5,-30 2675.57,-29.6 2678.71,-29.15 2681.87,-28.67"/>
<polygon fill="#63b8ff" stroke="#63b8ff" points="2152.93,-62.59 2143.58,-67.57 2154,-69.5 2152.93,-62.59"/>
</a>
</g>
</g>
<!-- Node26 -->
<g id="Node000026" class="node">
<title>Node26</title>
<g id="a_Node000026"><a xlink:href="test__is_duplicate_server_8cpp.html" target="_top" xlink:title=" ">
<polygon fill="white" stroke="#666666" points="2955.5,-30 2827.5,-30 2827.5,0 2955.5,0 2955.5,-30"/>
<text text-anchor="start" x="2835.5" y="-18" font-family="Helvetica,sans-Serif" font-size="10.00">test/unit/src/test</text>
<text text-anchor="middle" x="2891.5" y="-7" font-family="Helvetica,sans-Serif" font-size="10.00">_isDuplicateServer.cpp</text>
</a>
</g>
</g>
<!-- Node9&#45;&gt;Node26 -->
<g id="edge26_Node000009_Node000026" class="edge">
<title>Node9&#45;&gt;Node26</title>
<g id="a_edge26_Node000009_Node000026"><a xlink:title=" ">
<path fill="none" stroke="#63b8ff" d="M2153.67,-66.04C2447.51,-23.42 2527.57,-65.59 2818.5,-30 2821.45,-29.64 2824.45,-29.23 2827.48,-28.79"/>
<polygon fill="#63b8ff" stroke="#63b8ff" points="2152.96,-62.6 2143.58,-67.52 2153.98,-69.53 2152.96,-62.6"/>
</a>
</g>
</g>
<!-- Node27 -->
<g id="Node000027" class="node">
<title>Node27</title>
<g id="a_Node000027"><a xlink:href="test__register_c_g_i_file_descriptor_8cpp.html" target="_top" xlink:title=" ">
<polygon fill="white" stroke="#666666" points="3137.5,-30 2973.5,-30 2973.5,0 3137.5,0 3137.5,-30"/>
<text text-anchor="start" x="2981.5" y="-18" font-family="Helvetica,sans-Serif" font-size="10.00">test/unit/src/test</text>
<text text-anchor="middle" x="3055.5" y="-7" font-family="Helvetica,sans-Serif" font-size="10.00">_registerCGIFileDescriptor.cpp</text>
</a>
</g>
</g>
<!-- Node9&#45;&gt;Node27 -->
<g id="edge27_Node000009_Node000027" class="edge">
<title>Node9&#45;&gt;Node27</title>
<g id="a_edge27_Node000009_Node000027"><a xlink:title=" ">
<path fill="none" stroke="#63b8ff" d="M2153.7,-66.05C2511.86,-15.61 2608.34,-65.19 2964.5,-30 2967.36,-29.72 2970.27,-29.4 2973.21,-29.07"/>
<polygon fill="#63b8ff" stroke="#63b8ff" points="2152.98,-62.61 2143.57,-67.49 2153.97,-69.54 2152.98,-62.61"/>
</a>
</g>
</g>
<!-- Node28 -->
<g id="Node000028" class="node">
<title>Node28</title>
<g id="a_Node000028"><a xlink:href="test__register_connection_8cpp.html" target="_top" xlink:title=" ">
<polygon fill="white" stroke="#666666" points="3289.5,-30 3155.5,-30 3155.5,0 3289.5,0 3289.5,-30"/>
<text text-anchor="start" x="3163.5" y="-18" font-family="Helvetica,sans-Serif" font-size="10.00">test/unit/src/test</text>
<text text-anchor="middle" x="3222.5" y="-7" font-family="Helvetica,sans-Serif" font-size="10.00">_registerConnection.cpp</text>
</a>
</g>
</g>
<!-- Node9&#45;&gt;Node28 -->
<g id="edge28_Node000009_Node000028" class="edge">
<title>Node9&#45;&gt;Node28</title>
<g id="a_edge28_Node000009_Node000028"><a xlink:title=" ">
<path fill="none" stroke="#63b8ff" d="M2153.66,-66.06C2592.12,-6.06 2710.39,-77.81 3146.5,-30 3149.43,-29.68 3152.43,-29.31 3155.44,-28.9"/>
<polygon fill="#63b8ff" stroke="#63b8ff" points="2152.99,-62.62 2143.57,-67.46 2153.95,-69.56 2152.99,-62.62"/>
</a>
</g>
</g>
<!-- Node29 -->
<g id="Node000029" class="node">
<title>Node29</title>
<g id="a_Node000029"><a xlink:href="test__register_virtual_server_8cpp.html" target="_top" xlink:title=" ">
<polygon fill="white" stroke="#666666" points="3451,-30 3308,-30 3308,0 3451,0 3451,-30"/>
<text text-anchor="start" x="3316" y="-18" font-family="Helvetica,sans-Serif" font-size="10.00">test/unit/src/test</text>
<text text-anchor="middle" x="3379.5" y="-7" font-family="Helvetica,sans-Serif" font-size="10.00">_registerVirtualServer.cpp</text>
</a>
</g>
</g>
<!-- Node9&#45;&gt;Node29 -->
<g id="edge29_Node000009_Node000029" class="edge">
<title>Node9&#45;&gt;Node29</title>
<g id="a_edge29_Node000009_Node000029"><a xlink:title=" ">
<path fill="none" stroke="#63b8ff" d="M2153.68,-66.07C2659.16,2.04 2794.87,-81.18 3298.5,-30 3301.48,-29.7 3304.52,-29.35 3307.58,-28.97"/>
<polygon fill="#63b8ff" stroke="#63b8ff" points="2153,-62.63 2143.57,-67.44 2153.95,-69.56 2153,-62.63"/>
</a>
</g>
</g>
<!-- Node30 -->
<g id="Node000030" class="node">
<title>Node30</title>
<g id="a_Node000030"><a xlink:href="test__shutdown_server_8cpp.html" target="_top" xlink:title=" ">
<polygon fill="white" stroke="#666666" points="3589.5,-30 3469.5,-30 3469.5,0 3589.5,0 3589.5,-30"/>
<text text-anchor="start" x="3477.5" y="-18" font-family="Helvetica,sans-Serif" font-size="10.00">test/unit/src/test</text>
<text text-anchor="middle" x="3529.5" y="-7" font-family="Helvetica,sans-Serif" font-size="10.00">_shutdownServer.cpp</text>
</a>
</g>
</g>
<!-- Node9&#45;&gt;Node30 -->
<g id="edge30_Node000009_Node000030" class="edge">
<title>Node9&#45;&gt;Node30</title>
<g id="a_edge30_Node000009_Node000030"><a xlink:title=" ">
<path fill="none" stroke="#63b8ff" d="M2153.81,-66.06C2730.64,10.54 2886.1,-95.68 3460.5,-30 3463.41,-29.67 3466.39,-29.27 3469.39,-28.83"/>
<polygon fill="#63b8ff" stroke="#63b8ff" points="2153.01,-62.63 2143.56,-67.43 2153.94,-69.57 2153.01,-62.63"/>
</a>
</g>
</g>
</g>
</svg>

<g id="navigator" transform="translate(0 0)" fill="#404254">
  <rect fill="#f2f5e9" fill-opacity="0.5" stroke="#606060" stroke-width=".5" x="0" y="0" width="60" height="60"/>
  <use id="zoomplus" xlink:href="#zoomPlus" x="17" y="9" onmousedown="handleZoom(evt,'in')"/>
  <use id="zoomminus" xlink:href="#zoomMin" x="42" y="9" onmousedown="handleZoom(evt,'out')"/>
  <use id="reset" xlink:href="#resetDef" x="30" y="36" onmousedown="handleReset()"/>
   <use id="arrowup" xlink:href="#arrowUp" x="0" y="0" onmousedown="handlePan(0,-1)"/>
  <use id="arrowright" xlink:href="#arrowRight" x="0" y="0" onmousedown="handlePan(1,0)"/>
  <use id="arrowdown" xlink:href="#arrowDown" x="0" y="0" onmousedown="handlePan(0,1)"/>
  <use id="arrowleft" xlink:href="#arrowLeft" x="0" y="0" onmousedown="handlePan(-1,0)"/>
</g>
<svg viewBox="0 0 15 15" width="100%" height="30px" preserveAspectRatio="xMaxYMin meet">
 <g id="arrow_out" transform="scale(0.3 0.3)">
  <a xlink:href="signal_handler_8hpp__dep__incl_org.svg" target="_base">
   <rect id="button" ry="5" rx="5" y="6" x="6" height="38" width="38"
        fill="#f2f5e9" fill-opacity="0.5" stroke="#606060" stroke-width="1.0"/>
   <path id="arrow"
     d="M 11.500037,31.436501 C 11.940474,20.09759 22.043105,11.32322 32.158766,21.979434 L 37.068811,17.246167 C 37.068811,17.246167 37.088388,32 37.088388,32 L 22.160133,31.978069 C 22.160133,31.978069 26.997745,27.140456 26.997745,27.140456 C 18.528582,18.264221 13.291696,25.230495 11.500037,31.436501 z"
     style="fill:#404040;"/>
  </a>
 </g>
</svg>

<style type='text/css'>
<![CDATA[
[data-mouse-over-selected='false'] { opacity: 0.7; }
[data-mouse-over-selected='true']  { opacity: 1.0; }
]]>
</style>
<script type="application/ecmascript"><![CDATA[
document.addEventListener('DOMContentLoaded', (event) => {
  highlightEdges();
  highlightAdjacentNodes();
});
]]></script>
</svg>
