<?xml version="1.0" encoding="UTF-8" standalone="no"?>
<!DOCTYPE svg PUBLIC "-//W3C//DTD SVG 1.1//EN"
 "http://www.w3.org/Graphics/SVG/1.1/DTD/svg11.dtd">
<!-- Generated by graphviz version 2.43.0 (0)
 -->
<!-- Title: inc/signalHandler.hpp Pages: 1 -->
<svg width="3232pt" height="269pt"
 viewBox="0.00 0.00 3231.50 269.00" xmlns="http://www.w3.org/2000/svg" xmlns:xlink="http://www.w3.org/1999/xlink">
<g id="graph0" class="graph" transform="scale(1 1) rotate(0) translate(4 265)">
<title>inc/signalHandler.hpp</title>
<!-- Node1 -->
<g id="Node000001" class="node">
<title>Node1</title>
<g id="a_Node000001"><a xlink:title=" ">
<polygon fill="#999999" stroke="#666666" points="1741.5,-261 1619.5,-261 1619.5,-242 1741.5,-242 1741.5,-261"/>
<text text-anchor="middle" x="1680.5" y="-249" font-family="Helvetica,sans-Serif" font-size="10.00">inc/signalHandler.hpp</text>
</a>
</g>
</g>
<!-- Node2 -->
<g id="Node000002" class="node">
<title>Node2</title>
<g id="a_Node000002"><a xlink:href="_c_g_i_handler_8hpp.html" target="_top" xlink:title=" ">
<polygon fill="white" stroke="#666666" points="1735.5,-206 1625.5,-206 1625.5,-187 1735.5,-187 1735.5,-206"/>
<text text-anchor="middle" x="1680.5" y="-194" font-family="Helvetica,sans-Serif" font-size="10.00">inc/CGIHandler.hpp</text>
</a>
</g>
</g>
<!-- Node1&#45;&gt;Node2 -->
<g id="edge1_Node000001_Node000002" class="edge">
<title>Node1&#45;&gt;Node2</title>
<g id="a_edge1_Node000001_Node000002"><a xlink:title=" ">
<path fill="none" stroke="#63b8ff" d="M1680.5,-231.66C1680.5,-222.93 1680.5,-212.99 1680.5,-206.09"/>
<polygon fill="#63b8ff" stroke="#63b8ff" points="1677,-231.75 1680.5,-241.75 1684,-231.75 1677,-231.75"/>
</a>
</g>
</g>
<!-- Node3 -->
<g id="Node000003" class="node">
<title>Node3</title>
<g id="a_Node000003"><a xlink:href="_server_8hpp.html" target="_top" xlink:title=" ">
<polygon fill="white" stroke="#666666" points="1616.5,-151 1530.5,-151 1530.5,-132 1616.5,-132 1616.5,-151"/>
<text text-anchor="middle" x="1573.5" y="-139" font-family="Helvetica,sans-Serif" font-size="10.00">inc/Server.hpp</text>
</a>
</g>
</g>
<!-- Node1&#45;&gt;Node3 -->
<g id="edge27_Node000001_Node000003" class="edge">
<title>Node1&#45;&gt;Node3</title>
<g id="a_edge27_Node000001_Node000003"><a xlink:title=" ">
<path fill="none" stroke="#63b8ff" d="M1656.38,-236.71C1643.66,-228.74 1628.29,-217.93 1616.5,-206 1599.47,-188.76 1584.92,-163.94 1577.93,-151.03"/>
<polygon fill="#63b8ff" stroke="#63b8ff" points="1654.73,-239.8 1665.09,-242 1658.36,-233.82 1654.73,-239.8"/>
</a>
</g>
</g>
<!-- Node27 -->
<g id="Node000027" class="node">
<title>Node27</title>
<g id="a_Node000027"><a xlink:href="signal_handler_8cpp.html" target="_top" xlink:title=" ">
<polygon fill="white" stroke="#666666" points="1875,-206 1754,-206 1754,-187 1875,-187 1875,-206"/>
<text text-anchor="middle" x="1814.5" y="-194" font-family="Helvetica,sans-Serif" font-size="10.00">src/signalHandler.cpp</text>
</a>
</g>
</g>
<!-- Node1&#45;&gt;Node27 -->
<g id="edge28_Node000001_Node000027" class="edge">
<title>Node1&#45;&gt;Node27</title>
<g id="a_edge28_Node000001_Node000027"><a xlink:title=" ">
<path fill="none" stroke="#63b8ff" d="M1711.37,-238.29C1736.2,-228.47 1770.49,-214.91 1792.58,-206.17"/>
<polygon fill="#63b8ff" stroke="#63b8ff" points="1710.04,-235.05 1702.03,-241.98 1712.62,-241.56 1710.04,-235.05"/>
</a>
</g>
</g>
<!-- Node2&#45;&gt;Node3 -->
<g id="edge2_Node000002_Node000003" class="edge">
<title>Node2&#45;&gt;Node3</title>
<g id="a_edge2_Node000002_Node000003"><a xlink:title=" ">
<path fill="none" stroke="#63b8ff" d="M1654.26,-182.5C1634.57,-172.75 1608.18,-159.68 1591,-151.17"/>
<polygon fill="#63b8ff" stroke="#63b8ff" points="1652.79,-185.68 1663.31,-186.98 1655.9,-179.41 1652.79,-185.68"/>
</a>
</g>
</g>
<!-- Node25 -->
<g id="Node000025" class="node">
<title>Node25</title>
<g id="a_Node000025"><a xlink:href="_c_g_i_handler_8cpp.html" target="_top" xlink:title=" ">
<polygon fill="white" stroke="#666666" points="1744,-151 1635,-151 1635,-132 1744,-132 1744,-151"/>
<text text-anchor="middle" x="1689.5" y="-139" font-family="Helvetica,sans-Serif" font-size="10.00">src/CGIHandler.cpp</text>
</a>
</g>
</g>
<!-- Node2&#45;&gt;Node25 -->
<g id="edge25_Node000002_Node000025" class="edge">
<title>Node2&#45;&gt;Node25</title>
<g id="a_edge25_Node000002_Node000025"><a xlink:title=" ">
<path fill="none" stroke="#63b8ff" d="M1683.7,-176.66C1685.18,-167.93 1686.87,-157.99 1688.04,-151.09"/>
<polygon fill="#63b8ff" stroke="#63b8ff" points="1680.21,-176.3 1681.99,-186.75 1687.11,-177.48 1680.21,-176.3"/>
</a>
</g>
</g>
<!-- Node26 -->
<g id="Node000026" class="node">
<title>Node26</title>
<g id="a_Node000026"><a xlink:href="test___c_g_i_handler_8cpp.html" target="_top" xlink:title=" ">
<polygon fill="white" stroke="#666666" points="1921,-151 1762,-151 1762,-132 1921,-132 1921,-151"/>
<text text-anchor="middle" x="1841.5" y="-139" font-family="Helvetica,sans-Serif" font-size="10.00">test/unit/test_CGIHandler.cpp</text>
</a>
</g>
</g>
<!-- Node2&#45;&gt;Node26 -->
<g id="edge26_Node000002_Node000026" class="edge">
<title>Node2&#45;&gt;Node26</title>
<g id="a_edge26_Node000002_Node000026"><a xlink:title=" ">
<path fill="none" stroke="#63b8ff" d="M1716.05,-183.8C1746.09,-173.91 1788.44,-159.97 1815.43,-151.08"/>
<polygon fill="#63b8ff" stroke="#63b8ff" points="1714.77,-180.53 1706.37,-186.98 1716.96,-187.18 1714.77,-180.53"/>
</a>
</g>
</g>
<!-- Node4 -->
<g id="Node000004" class="node">
<title>Node4</title>
<g id="a_Node000004"><a xlink:href="_config_file_parser_8hpp.html" target="_top" xlink:title=" ">
<polygon fill="white" stroke="#666666" points="296.5,-90.5 164.5,-90.5 164.5,-71.5 296.5,-71.5 296.5,-90.5"/>
<text text-anchor="middle" x="230.5" y="-78.5" font-family="Helvetica,sans-Serif" font-size="10.00">inc/ConfigFileParser.hpp</text>
</a>
</g>
</g>
<!-- Node3&#45;&gt;Node4 -->
<g id="edge3_Node000003_Node000004" class="edge">
<title>Node3&#45;&gt;Node4</title>
<g id="a_edge3_Node000003_Node000004"><a xlink:title=" ">
<path fill="none" stroke="#63b8ff" d="M1520.11,-140.97C1346.39,-142.01 781.69,-141.39 317.5,-96 304.25,-94.7 289.96,-92.67 276.87,-90.55"/>
<polygon fill="#63b8ff" stroke="#63b8ff" points="1520.28,-144.47 1530.26,-140.91 1520.24,-137.47 1520.28,-144.47"/>
</a>
</g>
</g>
<!-- Node6 -->
<g id="Node000006" class="node">
<title>Node6</title>
<g id="a_Node000006"><a xlink:href="main_8cpp.html" target="_top" xlink:title=" ">
<polygon fill="white" stroke="#666666" points="379,-24.5 300,-24.5 300,-5.5 379,-5.5 379,-24.5"/>
<text text-anchor="middle" x="339.5" y="-12.5" font-family="Helvetica,sans-Serif" font-size="10.00">src/main.cpp</text>
</a>
</g>
</g>
<!-- Node3&#45;&gt;Node6 -->
<g id="edge8_Node000003_Node000006" class="edge">
<title>Node3&#45;&gt;Node6</title>
<g id="a_edge8_Node000003_Node000006"><a xlink:title=" ">
<path fill="none" stroke="#63b8ff" d="M1520.18,-140.45C1290.42,-140.01 394.44,-135.74 350.5,-96 330.33,-77.76 334.41,-41.22 337.57,-24.59"/>
<polygon fill="#63b8ff" stroke="#63b8ff" points="1520.29,-143.95 1530.3,-140.47 1520.31,-136.95 1520.29,-143.95"/>
</a>
</g>
</g>
<!-- Node8 -->
<g id="Node000008" class="node">
<title>Node8</title>
<g id="a_Node000008"><a xlink:href="_server_8cpp.html" target="_top" xlink:title=" ">
<polygon fill="white" stroke="#666666" points="445,-90.5 360,-90.5 360,-71.5 445,-71.5 445,-90.5"/>
<text text-anchor="middle" x="402.5" y="-78.5" font-family="Helvetica,sans-Serif" font-size="10.00">src/Server.cpp</text>
</a>
</g>
</g>
<!-- Node3&#45;&gt;Node8 -->
<g id="edge7_Node000003_Node000008" class="edge">
<title>Node3&#45;&gt;Node8</title>
<g id="a_edge7_Node000003_Node000008"><a xlink:title=" ">
<path fill="none" stroke="#63b8ff" d="M1520.29,-139.99C1327.09,-137.91 662.98,-128.48 453.5,-96 445.42,-94.75 436.8,-92.67 428.98,-90.5"/>
<polygon fill="#63b8ff" stroke="#63b8ff" points="1520.44,-143.5 1530.47,-140.1 1520.51,-136.5 1520.44,-143.5"/>
</a>
</g>
</g>
<!-- Node9 -->
<g id="Node000009" class="node">
<title>Node9</title>
<g id="a_Node000009"><a xlink:href="test__accept_connections_8cpp.html" target="_top" xlink:title=" ">
<polygon fill="white" stroke="#666666" points="660,-90.5 463,-90.5 463,-71.5 660,-71.5 660,-90.5"/>
<text text-anchor="middle" x="561.5" y="-78.5" font-family="Helvetica,sans-Serif" font-size="10.00">test/unit/test_acceptConnections.cpp</text>
</a>
</g>
</g>
<!-- Node3&#45;&gt;Node9 -->
<g id="edge9_Node000003_Node000009" class="edge">
<title>Node3&#45;&gt;Node9</title>
<g id="a_edge9_Node000003_Node000009"><a xlink:title=" ">
<path fill="none" stroke="#63b8ff" d="M1520.11,-139.36C1380.23,-136.04 991.68,-124.77 669.5,-96 653.59,-94.58 636.41,-92.57 620.54,-90.52"/>
<polygon fill="#63b8ff" stroke="#63b8ff" points="1520.06,-142.86 1530.13,-139.59 1520.22,-135.86 1520.06,-142.86"/>
</a>
</g>
</g>
<!-- Node10 -->
<g id="Node000010" class="node">
<title>Node10</title>
<g id="a_Node000010"><a xlink:href="test__check_for_timeout_8cpp.html" target="_top" xlink:title=" ">
<polygon fill="white" stroke="#666666" points="866.5,-90.5 678.5,-90.5 678.5,-71.5 866.5,-71.5 866.5,-90.5"/>
<text text-anchor="middle" x="772.5" y="-78.5" font-family="Helvetica,sans-Serif" font-size="10.00">test/unit/test_checkForTimeout.cpp</text>
</a>
</g>
</g>
<!-- Node3&#45;&gt;Node10 -->
<g id="edge10_Node000003_Node000010" class="edge">
<title>Node3&#45;&gt;Node10</title>
<g id="a_edge10_Node000003_Node000010"><a xlink:title=" ">
<path fill="none" stroke="#63b8ff" d="M1519.99,-138.39C1402.93,-133.5 1115.35,-119.92 875.5,-96 860.6,-94.51 844.53,-92.52 829.62,-90.5"/>
<polygon fill="#63b8ff" stroke="#63b8ff" points="1519.98,-141.9 1530.12,-138.81 1520.27,-134.9 1519.98,-141.9"/>
</a>
</g>
</g>
<!-- Node11 -->
<g id="Node000011" class="node">
<title>Node11</title>
<g id="a_Node000011"><a xlink:href="test__connection_receive_body_8cpp.html" target="_top" xlink:title=" ">
<polygon fill="white" stroke="#666666" points="1022,-96 885,-96 885,-66 1022,-66 1022,-96"/>
<text text-anchor="start" x="893" y="-84" font-family="Helvetica,sans-Serif" font-size="10.00">test/unit/test_connection</text>
<text text-anchor="middle" x="953.5" y="-73" font-family="Helvetica,sans-Serif" font-size="10.00">ReceiveBody.cpp</text>
</a>
</g>
</g>
<!-- Node3&#45;&gt;Node11 -->
<g id="edge11_Node000003_Node000011" class="edge">
<title>Node3&#45;&gt;Node11</title>
<g id="a_edge11_Node000003_Node000011"><a xlink:title=" ">
<path fill="none" stroke="#63b8ff" d="M1520.22,-137.87C1422.73,-132.68 1209.2,-119.51 1030.5,-96 1027.81,-95.65 1025.06,-95.26 1022.29,-94.85"/>
<polygon fill="#63b8ff" stroke="#63b8ff" points="1520.24,-141.38 1530.41,-138.41 1520.61,-134.39 1520.24,-141.38"/>
</a>
</g>
</g>
<!-- Node12 -->
<g id="Node000012" class="node">
<title>Node12</title>
<g id="a_Node000012"><a xlink:href="test__connection_receive_from_c_g_i_8cpp.html" target="_top" xlink:title=" ">
<polygon fill="white" stroke="#666666" points="1177,-96 1040,-96 1040,-66 1177,-66 1177,-96"/>
<text text-anchor="start" x="1048" y="-84" font-family="Helvetica,sans-Serif" font-size="10.00">test/unit/test_connection</text>
<text text-anchor="middle" x="1108.5" y="-73" font-family="Helvetica,sans-Serif" font-size="10.00">ReceiveFromCGI.cpp</text>
</a>
</g>
</g>
<!-- Node3&#45;&gt;Node12 -->
<g id="edge12_Node000003_Node000012" class="edge">
<title>Node3&#45;&gt;Node12</title>
<g id="a_edge12_Node000003_Node000012"><a xlink:title=" ">
<path fill="none" stroke="#63b8ff" d="M1520.19,-135.5C1445.27,-128.23 1304.65,-113.64 1185.5,-96 1182.81,-95.6 1180.07,-95.18 1177.31,-94.74"/>
<polygon fill="#63b8ff" stroke="#63b8ff" points="1520.03,-139 1530.32,-136.48 1520.7,-132.04 1520.03,-139"/>
</a>
</g>
</g>
<!-- Node13 -->
<g id="Node000013" class="node">
<title>Node13</title>
<g id="a_Node000013"><a xlink:href="test__connection_receive_header_8cpp.html" target="_top" xlink:title=" ">
<polygon fill="white" stroke="#666666" points="1332,-96 1195,-96 1195,-66 1332,-66 1332,-96"/>
<text text-anchor="start" x="1203" y="-84" font-family="Helvetica,sans-Serif" font-size="10.00">test/unit/test_connection</text>
<text text-anchor="middle" x="1263.5" y="-73" font-family="Helvetica,sans-Serif" font-size="10.00">ReceiveHeader.cpp</text>
</a>
</g>
</g>
<!-- Node3&#45;&gt;Node13 -->
<g id="edge13_Node000003_Node000013" class="edge">
<title>Node3&#45;&gt;Node13</title>
<g id="a_edge13_Node000003_Node000013"><a xlink:title=" ">
<path fill="none" stroke="#63b8ff" d="M1520.38,-130.48C1468.38,-120.66 1388.92,-105.67 1332.15,-94.95"/>
<polygon fill="#63b8ff" stroke="#63b8ff" points="1519.92,-133.95 1530.4,-132.37 1521.22,-127.07 1519.92,-133.95"/>
</a>
</g>
</g>
<!-- Node14 -->
<g id="Node000014" class="node">
<title>Node14</title>
<g id="a_Node000014"><a xlink:href="test__connection_send_response_8cpp.html" target="_top" xlink:title=" ">
<polygon fill="white" stroke="#666666" points="1487,-96 1350,-96 1350,-66 1487,-66 1487,-96"/>
<text text-anchor="start" x="1358" y="-84" font-family="Helvetica,sans-Serif" font-size="10.00">test/unit/test_connection</text>
<text text-anchor="middle" x="1418.5" y="-73" font-family="Helvetica,sans-Serif" font-size="10.00">SendResponse.cpp</text>
</a>
</g>
</g>
<!-- Node3&#45;&gt;Node14 -->
<g id="edge14_Node000003_Node000014" class="edge">
<title>Node3&#45;&gt;Node14</title>
<g id="a_edge14_Node000003_Node000014"><a xlink:title=" ">
<path fill="none" stroke="#63b8ff" d="M1541.59,-128.46C1516.66,-119.05 1481.97,-105.95 1455.76,-96.06"/>
<polygon fill="#63b8ff" stroke="#63b8ff" points="1540.37,-131.74 1550.96,-131.99 1542.84,-125.19 1540.37,-131.74"/>
</a>
</g>
</g>
<!-- Node15 -->
<g id="Node000015" class="node">
<title>Node15</title>
<g id="a_Node000015"><a xlink:href="test__connection_send_to_c_g_i_8cpp.html" target="_top" xlink:title=" ">
<polygon fill="white" stroke="#666666" points="1642,-96 1505,-96 1505,-66 1642,-66 1642,-96"/>
<text text-anchor="start" x="1513" y="-84" font-family="Helvetica,sans-Serif" font-size="10.00">test/unit/test_connection</text>
<text text-anchor="middle" x="1573.5" y="-73" font-family="Helvetica,sans-Serif" font-size="10.00">SendToCGI.cpp</text>
</a>
</g>
</g>
<!-- Node3&#45;&gt;Node15 -->
<g id="edge15_Node000003_Node000015" class="edge">
<title>Node3&#45;&gt;Node15</title>
<g id="a_edge15_Node000003_Node000015"><a xlink:title=" ">
<path fill="none" stroke="#63b8ff" d="M1573.5,-121.65C1573.5,-113.36 1573.5,-103.78 1573.5,-96.11"/>
<polygon fill="#63b8ff" stroke="#63b8ff" points="1570,-121.87 1573.5,-131.87 1577,-121.87 1570,-121.87"/>
</a>
</g>
</g>
<!-- Node16 -->
<g id="Node000016" class="node">
<title>Node16</title>
<g id="a_Node000016"><a xlink:href="test__create_virtual_server_8cpp.html" target="_top" xlink:title=" ">
<polygon fill="white" stroke="#666666" points="1807,-96 1660,-96 1660,-66 1807,-66 1807,-96"/>
<text text-anchor="start" x="1668" y="-84" font-family="Helvetica,sans-Serif" font-size="10.00">test/unit/test_createVirtual</text>
<text text-anchor="middle" x="1733.5" y="-73" font-family="Helvetica,sans-Serif" font-size="10.00">Server.cpp</text>
</a>
</g>
</g>
<!-- Node3&#45;&gt;Node16 -->
<g id="edge16_Node000003_Node000016" class="edge">
<title>Node3&#45;&gt;Node16</title>
<g id="a_edge16_Node000003_Node000016"><a xlink:title=" ">
<path fill="none" stroke="#63b8ff" d="M1606.44,-128.46C1632.17,-119.05 1667.98,-105.95 1695.03,-96.06"/>
<polygon fill="#63b8ff" stroke="#63b8ff" points="1604.96,-125.27 1596.77,-131.99 1607.36,-131.85 1604.96,-125.27"/>
</a>
</g>
</g>
<!-- Node17 -->
<g id="Node000017" class="node">
<title>Node17</title>
<g id="a_Node000017"><a xlink:href="test__handle_complete_request_header_8cpp.html" target="_top" xlink:title=" ">
<polygon fill="white" stroke="#666666" points="1989.5,-96 1825.5,-96 1825.5,-66 1989.5,-66 1989.5,-96"/>
<text text-anchor="start" x="1833.5" y="-84" font-family="Helvetica,sans-Serif" font-size="10.00">test/unit/test_handleComplete</text>
<text text-anchor="middle" x="1907.5" y="-73" font-family="Helvetica,sans-Serif" font-size="10.00">RequestHeader.cpp</text>
</a>
</g>
</g>
<!-- Node3&#45;&gt;Node17 -->
<g id="edge17_Node000003_Node000017" class="edge">
<title>Node3&#45;&gt;Node17</title>
<g id="a_edge17_Node000003_Node000017"><a xlink:title=" ">
<path fill="none" stroke="#63b8ff" d="M1626.89,-131.15C1681.01,-121.67 1765.38,-106.89 1827.49,-96.01"/>
<polygon fill="#63b8ff" stroke="#63b8ff" points="1626.07,-127.74 1616.82,-132.91 1627.28,-134.63 1626.07,-127.74"/>
</a>
</g>
</g>
<!-- Node18 -->
<g id="Node000018" class="node">
<title>Node18</title>
<g id="a_Node000018"><a xlink:href="test__init_virtual_servers_8cpp.html" target="_top" xlink:title=" ">
<polygon fill="white" stroke="#666666" points="2139.5,-96 2007.5,-96 2007.5,-66 2139.5,-66 2139.5,-96"/>
<text text-anchor="start" x="2015.5" y="-84" font-family="Helvetica,sans-Serif" font-size="10.00">test/unit/test_initVirtual</text>
<text text-anchor="middle" x="2073.5" y="-73" font-family="Helvetica,sans-Serif" font-size="10.00">Servers.cpp</text>
</a>
</g>
</g>
<!-- Node3&#45;&gt;Node18 -->
<g id="edge18_Node000003_Node000018" class="edge">
<title>Node3&#45;&gt;Node18</title>
<g id="a_edge18_Node000003_Node000018"><a xlink:title=" ">
<path fill="none" stroke="#63b8ff" d="M1626.65,-131.94C1792.39,-110.88 1836.81,-118.85 1998.5,-96 2001.39,-95.59 2004.33,-95.15 2007.3,-94.69"/>
<polygon fill="#63b8ff" stroke="#63b8ff" points="1626.07,-128.48 1616.6,-133.23 1626.96,-135.43 1626.07,-128.48"/>
</a>
</g>
</g>
<!-- Node19 -->
<g id="Node000019" class="node">
<title>Node19</title>
<g id="a_Node000019"><a xlink:href="test__is_duplicate_server_8cpp.html" target="_top" xlink:title=" ">
<polygon fill="white" stroke="#666666" points="2297,-96 2158,-96 2158,-66 2297,-66 2297,-96"/>
<text text-anchor="start" x="2166" y="-84" font-family="Helvetica,sans-Serif" font-size="10.00">test/unit/test_isDuplicate</text>
<text text-anchor="middle" x="2227.5" y="-73" font-family="Helvetica,sans-Serif" font-size="10.00">Server.cpp</text>
</a>
</g>
</g>
<!-- Node3&#45;&gt;Node19 -->
<g id="edge19_Node000003_Node000019" class="edge">
<title>Node3&#45;&gt;Node19</title>
<g id="a_edge19_Node000003_Node000019"><a xlink:title=" ">
<path fill="none" stroke="#63b8ff" d="M1626.69,-131.98C1858.69,-105.71 1920.51,-123.97 2148.5,-96 2151.54,-95.63 2154.64,-95.21 2157.77,-94.77"/>
<polygon fill="#63b8ff" stroke="#63b8ff" points="1626.12,-128.52 1616.59,-133.14 1626.92,-135.48 1626.12,-128.52"/>
</a>
</g>
</g>
<!-- Node20 -->
<g id="Node000020" class="node">
<title>Node20</title>
<g id="a_Node000020"><a xlink:href="test__register_c_g_i_file_descriptor_8cpp.html" target="_top" xlink:title=" ">
<polygon fill="white" stroke="#666666" points="2471.5,-96 2315.5,-96 2315.5,-66 2471.5,-66 2471.5,-96"/>
<text text-anchor="start" x="2323.5" y="-84" font-family="Helvetica,sans-Serif" font-size="10.00">test/unit/test_registerCGIFile</text>
<text text-anchor="middle" x="2393.5" y="-73" font-family="Helvetica,sans-Serif" font-size="10.00">Descriptor.cpp</text>
</a>
</g>
</g>
<!-- Node3&#45;&gt;Node20 -->
<g id="edge20_Node000003_Node000020" class="edge">
<title>Node3&#45;&gt;Node20</title>
<g id="a_edge20_Node000003_Node000020"><a xlink:title=" ">
<path fill="none" stroke="#63b8ff" d="M1626.95,-131.98C1928.63,-100.14 2008.5,-127.76 2306.5,-96 2309.39,-95.69 2312.33,-95.35 2315.3,-94.99"/>
<polygon fill="#63b8ff" stroke="#63b8ff" points="1626.15,-128.54 1616.58,-133.09 1626.9,-135.5 1626.15,-128.54"/>
</a>
</g>
</g>
<!-- Node21 -->
<g id="Node000021" class="node">
<title>Node21</title>
<g id="a_Node000021"><a xlink:href="test__register_connection_8cpp.html" target="_top" xlink:title=" ">
<polygon fill="white" stroke="#666666" points="2687,-90.5 2490,-90.5 2490,-71.5 2687,-71.5 2687,-90.5"/>
<text text-anchor="middle" x="2588.5" y="-78.5" font-family="Helvetica,sans-Serif" font-size="10.00">test/unit/test_registerConnection.cpp</text>
</a>
</g>
</g>
<!-- Node3&#45;&gt;Node21 -->
<g id="edge21_Node000003_Node000021" class="edge">
<title>Node3&#45;&gt;Node21</title>
<g id="a_edge21_Node000003_Node000021"><a xlink:title=" ">
<path fill="none" stroke="#63b8ff" d="M1626.72,-132.02C2005.6,-93.87 2104.88,-128.19 2480.5,-96 2496.61,-94.62 2514,-92.6 2530.03,-90.52"/>
<polygon fill="#63b8ff" stroke="#63b8ff" points="1626.17,-128.56 1616.58,-133.05 1626.88,-135.52 1626.17,-128.56"/>
</a>
</g>
</g>
<!-- Node22 -->
<g id="Node000022" class="node">
<title>Node22</title>
<g id="a_Node000022"><a xlink:href="test__register_virtual_server_8cpp.html" target="_top" xlink:title=" ">
<polygon fill="white" stroke="#666666" points="2859.5,-96 2705.5,-96 2705.5,-66 2859.5,-66 2859.5,-96"/>
<text text-anchor="start" x="2713.5" y="-84" font-family="Helvetica,sans-Serif" font-size="10.00">test/unit/test_registerVirtual</text>
<text text-anchor="middle" x="2782.5" y="-73" font-family="Helvetica,sans-Serif" font-size="10.00">Server.cpp</text>
</a>
</g>
</g>
<!-- Node3&#45;&gt;Node22 -->
<g id="edge22_Node000003_Node000022" class="edge">
<title>Node3&#45;&gt;Node22</title>
<g id="a_edge22_Node000003_Node000022"><a xlink:title=" ">
<path fill="none" stroke="#63b8ff" d="M1626.78,-132.03C2101.25,-86.29 2225.85,-142.03 2696.5,-96 2699.36,-95.72 2702.27,-95.4 2705.21,-95.06"/>
<polygon fill="#63b8ff" stroke="#63b8ff" points="1626.19,-128.57 1616.57,-133.02 1626.87,-135.54 1626.19,-128.57"/>
</a>
</g>
</g>
<!-- Node23 -->
<g id="Node000023" class="node">
<title>Node23</title>
<g id="a_Node000023"><a xlink:href="test__select_server_config_8cpp.html" target="_top" xlink:title=" ">
<polygon fill="white" stroke="#666666" points="3023,-96 2878,-96 2878,-66 3023,-66 3023,-96"/>
<text text-anchor="start" x="2886" y="-84" font-family="Helvetica,sans-Serif" font-size="10.00">test/unit/test_selectServer</text>
<text text-anchor="middle" x="2950.5" y="-73" font-family="Helvetica,sans-Serif" font-size="10.00">Config.cpp</text>
</a>
</g>
</g>
<!-- Node3&#45;&gt;Node23 -->
<g id="edge23_Node000003_Node000023" class="edge">
<title>Node3&#45;&gt;Node23</title>
<g id="a_edge23_Node000003_Node000023"><a xlink:title=" ">
<path fill="none" stroke="#63b8ff" d="M1626.76,-132.04C2177.42,-80.17 2321.89,-150.31 2868.5,-96 2871.52,-95.7 2874.59,-95.36 2877.69,-94.97"/>
<polygon fill="#63b8ff" stroke="#63b8ff" points="1626.2,-128.57 1616.57,-133.01 1626.86,-135.54 1626.2,-128.57"/>
</a>
</g>
</g>
<!-- Node24 -->
<g id="Node000024" class="node">
<title>Node24</title>
<g id="a_Node000024"><a xlink:href="test__shutdown_server_8cpp.html" target="_top" xlink:title=" ">
<polygon fill="white" stroke="#666666" points="3223.5,-90.5 3041.5,-90.5 3041.5,-71.5 3223.5,-71.5 3223.5,-90.5"/>
<text text-anchor="middle" x="3132.5" y="-78.5" font-family="Helvetica,sans-Serif" font-size="10.00">test/unit/test_shutdownServer.cpp</text>
</a>
</g>
</g>
<!-- Node3&#45;&gt;Node24 -->
<g id="edge24_Node000003_Node000024" class="edge">
<title>Node3&#45;&gt;Node24</title>
<g id="a_edge24_Node000003_Node000024"><a xlink:title=" ">
<path fill="none" stroke="#63b8ff" d="M1626.71,-132.05C2250.03,-74.2 2412.43,-147.17 3032.5,-96 3047.87,-94.73 3064.5,-92.68 3079.69,-90.54"/>
<polygon fill="#63b8ff" stroke="#63b8ff" points="1626.2,-128.58 1616.57,-133 1626.85,-135.55 1626.2,-128.58"/>
</a>
</g>
</g>
<!-- Node5 -->
<g id="Node000005" class="node">
<title>Node5</title>
<g id="a_Node000005"><a xlink:href="_config_file_parser_8cpp.html" target="_top" xlink:title=" ">
<polygon fill="white" stroke="#666666" points="131,-24.5 0,-24.5 0,-5.5 131,-5.5 131,-24.5"/>
<text text-anchor="middle" x="65.5" y="-12.5" font-family="Helvetica,sans-Serif" font-size="10.00">src/ConfigFileParser.cpp</text>
</a>
</g>
</g>
<!-- Node4&#45;&gt;Node5 -->
<g id="edge4_Node000004_Node000005" class="edge">
<title>Node4&#45;&gt;Node5</title>
<g id="a_edge4_Node000004_Node000005"><a xlink:title=" ">
<path fill="none" stroke="#63b8ff" d="M198.73,-67.68C166.12,-55.03 116.24,-35.68 87.66,-24.6"/>
<polygon fill="#63b8ff" stroke="#63b8ff" points="197.66,-71.02 208.25,-71.37 200.19,-64.49 197.66,-71.02"/>
</a>
</g>
</g>
<!-- Node4&#45;&gt;Node6 -->
<g id="edge5_Node000004_Node000006" class="edge">
<title>Node4&#45;&gt;Node6</title>
<g id="a_edge5_Node000004_Node000006"><a xlink:title=" ">
<path fill="none" stroke="#63b8ff" d="M254.02,-66.19C275.47,-53.59 306.51,-35.37 324.68,-24.7"/>
<polygon fill="#63b8ff" stroke="#63b8ff" points="252.05,-63.29 245.2,-71.37 255.6,-69.32 252.05,-63.29"/>
</a>
</g>
</g>
<!-- Node7 -->
<g id="Node000007" class="node">
<title>Node7</title>
<g id="a_Node000007"><a xlink:href="test___config_file_parser_8cpp.html" target="_top" xlink:title=" ">
<polygon fill="white" stroke="#666666" points="281.5,-30 149.5,-30 149.5,0 281.5,0 281.5,-30"/>
<text text-anchor="start" x="157.5" y="-18" font-family="Helvetica,sans-Serif" font-size="10.00">test/unit/test_ConfigFile</text>
<text text-anchor="middle" x="215.5" y="-7" font-family="Helvetica,sans-Serif" font-size="10.00">Parser.cpp</text>
</a>
</g>
</g>
<!-- Node4&#45;&gt;Node7 -->
<g id="edge6_Node000004_Node000007" class="edge">
<title>Node4&#45;&gt;Node7</title>
<g id="a_edge6_Node000004_Node000007"><a xlink:title=" ">
<path fill="none" stroke="#63b8ff" d="M226.13,-61.35C223.81,-51.47 221.01,-39.51 218.87,-30.36"/>
<polygon fill="#63b8ff" stroke="#63b8ff" points="222.79,-62.43 228.48,-71.37 229.6,-60.83 222.79,-62.43"/>
</a>
</g>
</g>
</g>
</svg>
