<?xml version="1.0" encoding="UTF-8" standalone="no"?>
<!DOCTYPE svg PUBLIC "-//W3C//DTD SVG 1.1//EN"
 "http://www.w3.org/Graphics/SVG/1.1/DTD/svg11.dtd">
<!-- Generated by graphviz version 2.43.0 (0)
 -->
<!-- Title: src/signalHandler.cpp Pages: 1 -->
<svg width="743pt" height="364pt"
 viewBox="0.00 0.00 743.36 364.00" xmlns="http://www.w3.org/2000/svg" xmlns:xlink="http://www.w3.org/1999/xlink">
<g id="graph0" class="graph" transform="scale(1 1) rotate(0) translate(4 360)">
<title>src/signalHandler.cpp</title>
<!-- Node1 -->
<g id="node1" class="node">
<title>Node1</title>
<g id="a_node1"><a xlink:title=" ">
<polygon fill="#bfbfbf" stroke="black" points="198.5,-336.5 198.5,-355.5 319.5,-355.5 319.5,-336.5 198.5,-336.5"/>
<text text-anchor="middle" x="259" y="-343.5" font-family="Helvetica,sans-Serif" font-size="10.00">src/signalHandler.cpp</text>
</a>
</g>
</g>
<!-- Node2 -->
<g id="node2" class="node">
<title>Node2</title>
<g id="a_node2"><a xlink:href="signal_handler_8hpp.html" target="_top" xlink:title=" ">
<polygon fill="none" stroke="black" points="247,-280.5 247,-299.5 351,-299.5 351,-280.5 247,-280.5"/>
<text text-anchor="middle" x="299" y="-287.5" font-family="Helvetica,sans-Serif" font-size="10.00">signalHandler.hpp</text>
</a>
</g>
</g>
<!-- Node1&#45;&gt;Node2 -->
<g id="edge1" class="edge">
<title>Node1&#45;&gt;Node2</title>
<path fill="none" stroke="midnightblue" d="M265.61,-336.08C271.26,-328.46 279.54,-317.26 286.45,-307.94"/>
<polygon fill="midnightblue" stroke="midnightblue" points="289.38,-309.87 292.52,-299.75 283.75,-305.7 289.38,-309.87"/>
</g>
<!-- Node3 -->
<g id="node3" class="node">
<title>Node3</title>
<g id="a_node3"><a xlink:href="_log_8hpp.html" target="_top" xlink:title=" ">
<polygon fill="none" stroke="black" points="191.5,-224.5 191.5,-243.5 246.5,-243.5 246.5,-224.5 191.5,-224.5"/>
<text text-anchor="middle" x="219" y="-231.5" font-family="Helvetica,sans-Serif" font-size="10.00">Log.hpp</text>
</a>
</g>
</g>
<!-- Node1&#45;&gt;Node3 -->
<g id="edge32" class="edge">
<title>Node1&#45;&gt;Node3</title>
<path fill="none" stroke="midnightblue" d="M254.41,-336.21C249.85,-327.26 242.87,-312.91 238,-300 232.17,-284.53 227.01,-266.44 223.55,-253.28"/>
<polygon fill="midnightblue" stroke="midnightblue" points="226.93,-252.37 221.06,-243.55 220.14,-254.1 226.93,-252.37"/>
</g>
<!-- Node2&#45;&gt;Node3 -->
<g id="edge2" class="edge">
<title>Node2&#45;&gt;Node3</title>
<path fill="none" stroke="midnightblue" d="M286.15,-280.32C273.78,-271.98 254.87,-259.21 240.26,-249.35"/>
<polygon fill="midnightblue" stroke="midnightblue" points="242.07,-246.35 231.82,-243.65 238.15,-252.15 242.07,-246.35"/>
</g>
<!-- Node11 -->
<g id="node11" class="node">
<title>Node11</title>
<g id="a_node11"><a xlink:title=" ">
<polygon fill="none" stroke="#bfbfbf" points="16,-0.5 16,-19.5 60,-19.5 60,-0.5 16,-0.5"/>
<text text-anchor="middle" x="38" y="-7.5" font-family="Helvetica,sans-Serif" font-size="10.00">string</text>
</a>
</g>
</g>
<!-- Node2&#45;&gt;Node11 -->
<g id="edge29" class="edge">
<title>Node2&#45;&gt;Node11</title>
<path fill="none" stroke="midnightblue" d="M246.92,-280.84C161.25,-265.94 0,-230.99 0,-179 0,-179 0,-179 0,-121 0,-86.81 16.6,-49.76 27.86,-28.57"/>
<polygon fill="midnightblue" stroke="midnightblue" points="30.95,-30.22 32.72,-19.77 24.82,-26.83 30.95,-30.22"/>
</g>
<!-- Node16 -->
<g id="node16" class="node">
<title>Node16</title>
<g id="a_node16"><a xlink:href="utilities_8hpp.html" target="_top" xlink:title=" ">
<polygon fill="none" stroke="black" points="547,-224.5 547,-243.5 621,-243.5 621,-224.5 547,-224.5"/>
<text text-anchor="middle" x="584" y="-231.5" font-family="Helvetica,sans-Serif" font-size="10.00">utilities.hpp</text>
</a>
</g>
</g>
<!-- Node2&#45;&gt;Node16 -->
<g id="edge20" class="edge">
<title>Node2&#45;&gt;Node16</title>
<path fill="none" stroke="midnightblue" d="M344.16,-280.44C396.8,-270.47 483.39,-254.06 536.86,-243.93"/>
<polygon fill="midnightblue" stroke="midnightblue" points="537.6,-247.35 546.77,-242.05 536.3,-240.48 537.6,-247.35"/>
</g>
<!-- Node19 -->
<g id="node19" class="node">
<title>Node19</title>
<g id="a_node19"><a xlink:title=" ">
<polygon fill="none" stroke="#bfbfbf" points="264.5,-224.5 264.5,-243.5 315.5,-243.5 315.5,-224.5 264.5,-224.5"/>
<text text-anchor="middle" x="290" y="-231.5" font-family="Helvetica,sans-Serif" font-size="10.00">csignal</text>
</a>
</g>
</g>
<!-- Node2&#45;&gt;Node19 -->
<g id="edge28" class="edge">
<title>Node2&#45;&gt;Node19</title>
<path fill="none" stroke="midnightblue" d="M297.51,-280.08C296.32,-272.93 294.61,-262.64 293.12,-253.69"/>
<polygon fill="midnightblue" stroke="midnightblue" points="296.55,-253.04 291.46,-243.75 289.65,-254.19 296.55,-253.04"/>
</g>
<!-- Node20 -->
<g id="node20" class="node">
<title>Node20</title>
<g id="a_node20"><a xlink:title=" ">
<polygon fill="none" stroke="#bfbfbf" points="333.5,-224.5 333.5,-243.5 380.5,-243.5 380.5,-224.5 333.5,-224.5"/>
<text text-anchor="middle" x="357" y="-231.5" font-family="Helvetica,sans-Serif" font-size="10.00">cerrno</text>
</a>
</g>
</g>
<!-- Node2&#45;&gt;Node20 -->
<g id="edge30" class="edge">
<title>Node2&#45;&gt;Node20</title>
<path fill="none" stroke="midnightblue" d="M308.32,-280.32C316.89,-272.34 329.81,-260.31 340.19,-250.65"/>
<polygon fill="midnightblue" stroke="midnightblue" points="342.58,-253.21 347.51,-243.83 337.81,-248.09 342.58,-253.21"/>
</g>
<!-- Node21 -->
<g id="node21" class="node">
<title>Node21</title>
<g id="a_node21"><a xlink:title=" ">
<polygon fill="none" stroke="#bfbfbf" points="399,-224.5 399,-243.5 449,-243.5 449,-224.5 399,-224.5"/>
<text text-anchor="middle" x="424" y="-231.5" font-family="Helvetica,sans-Serif" font-size="10.00">cstring</text>
</a>
</g>
</g>
<!-- Node2&#45;&gt;Node21 -->
<g id="edge31" class="edge">
<title>Node2&#45;&gt;Node21</title>
<path fill="none" stroke="midnightblue" d="M318.81,-280.44C339.29,-271.6 371.48,-257.69 394.86,-247.59"/>
<polygon fill="midnightblue" stroke="midnightblue" points="396.49,-250.7 404.29,-243.52 393.72,-244.27 396.49,-250.7"/>
</g>
<!-- Node4 -->
<g id="node4" class="node">
<title>Node4</title>
<g id="a_node4"><a xlink:href="_log_outputter_console_8hpp.html" target="_top" xlink:title=" ">
<polygon fill="none" stroke="black" points="297,-168.5 297,-187.5 437,-187.5 437,-168.5 297,-168.5"/>
<text text-anchor="middle" x="367" y="-175.5" font-family="Helvetica,sans-Serif" font-size="10.00">LogOutputterConsole.hpp</text>
</a>
</g>
</g>
<!-- Node3&#45;&gt;Node4 -->
<g id="edge3" class="edge">
<title>Node3&#45;&gt;Node4</title>
<path fill="none" stroke="midnightblue" d="M242.45,-224.44C267.13,-215.44 306.19,-201.19 333.98,-191.05"/>
<polygon fill="midnightblue" stroke="midnightblue" points="335.46,-194.23 343.66,-187.52 333.06,-187.66 335.46,-194.23"/>
</g>
<!-- Node12 -->
<g id="node12" class="node">
<title>Node12</title>
<g id="a_node12"><a xlink:href="_log_outputter_file_8hpp.html" target="_top" xlink:title=" ">
<polygon fill="none" stroke="black" points="159.5,-168.5 159.5,-187.5 278.5,-187.5 278.5,-168.5 159.5,-168.5"/>
<text text-anchor="middle" x="219" y="-175.5" font-family="Helvetica,sans-Serif" font-size="10.00">LogOutputterFile.hpp</text>
</a>
</g>
</g>
<!-- Node3&#45;&gt;Node12 -->
<g id="edge11" class="edge">
<title>Node3&#45;&gt;Node12</title>
<path fill="none" stroke="midnightblue" d="M219,-224.08C219,-217.01 219,-206.86 219,-197.99"/>
<polygon fill="midnightblue" stroke="midnightblue" points="222.5,-197.75 219,-187.75 215.5,-197.75 222.5,-197.75"/>
</g>
<!-- Node14 -->
<g id="node14" class="node">
<title>Node14</title>
<g id="a_node14"><a xlink:href="_logger_8hpp.html" target="_top" xlink:title=" ">
<polygon fill="none" stroke="black" points="33,-168.5 33,-187.5 103,-187.5 103,-168.5 33,-168.5"/>
<text text-anchor="middle" x="68" y="-175.5" font-family="Helvetica,sans-Serif" font-size="10.00">Logger.hpp</text>
</a>
</g>
</g>
<!-- Node3&#45;&gt;Node14 -->
<g id="edge15" class="edge">
<title>Node3&#45;&gt;Node14</title>
<path fill="none" stroke="midnightblue" d="M195.07,-224.44C169.78,-215.4 129.7,-201.06 101.32,-190.92"/>
<polygon fill="midnightblue" stroke="midnightblue" points="102.41,-187.59 91.81,-187.52 100.05,-194.18 102.41,-187.59"/>
</g>
<!-- Node5 -->
<g id="node5" class="node">
<title>Node5</title>
<g id="a_node5"><a xlink:title=" ">
<polygon fill="none" stroke="#bfbfbf" points="491,-112.5 491,-131.5 551,-131.5 551,-112.5 491,-112.5"/>
<text text-anchor="middle" x="521" y="-119.5" font-family="Helvetica,sans-Serif" font-size="10.00">iostream</text>
</a>
</g>
</g>
<!-- Node4&#45;&gt;Node5 -->
<g id="edge4" class="edge">
<title>Node4&#45;&gt;Node5</title>
<path fill="none" stroke="midnightblue" d="M391.4,-168.44C417.2,-159.4 458.08,-145.06 487.02,-134.92"/>
<polygon fill="midnightblue" stroke="midnightblue" points="488.43,-138.13 496.71,-131.52 486.12,-131.52 488.43,-138.13"/>
</g>
<!-- Node6 -->
<g id="node6" class="node">
<title>Node6</title>
<g id="a_node6"><a xlink:title=" ">
<polygon fill="none" stroke="#bfbfbf" points="368,-112.5 368,-131.5 406,-131.5 406,-112.5 368,-112.5"/>
<text text-anchor="middle" x="387" y="-119.5" font-family="Helvetica,sans-Serif" font-size="10.00">map</text>
</a>
</g>
</g>
<!-- Node4&#45;&gt;Node6 -->
<g id="edge5" class="edge">
<title>Node4&#45;&gt;Node6</title>
<path fill="none" stroke="midnightblue" d="M370.3,-168.08C372.98,-160.85 376.85,-150.41 380.19,-141.4"/>
<polygon fill="midnightblue" stroke="midnightblue" points="383.57,-142.34 383.76,-131.75 377,-139.91 383.57,-142.34"/>
</g>
<!-- Node7 -->
<g id="node7" class="node">
<title>Node7</title>
<g id="a_node7"><a xlink:href="_a_log_outputter_8hpp.html" target="_top" xlink:title=" ">
<polygon fill="none" stroke="black" points="169.5,-112.5 169.5,-131.5 276.5,-131.5 276.5,-112.5 169.5,-112.5"/>
<text text-anchor="middle" x="223" y="-119.5" font-family="Helvetica,sans-Serif" font-size="10.00">ALogOutputter.hpp</text>
</a>
</g>
</g>
<!-- Node4&#45;&gt;Node7 -->
<g id="edge6" class="edge">
<title>Node4&#45;&gt;Node7</title>
<path fill="none" stroke="midnightblue" d="M344.18,-168.44C320.17,-159.44 282.17,-145.19 255.13,-135.05"/>
<polygon fill="midnightblue" stroke="midnightblue" points="256.3,-131.75 245.71,-131.52 253.84,-138.3 256.3,-131.75"/>
</g>
<!-- Node8 -->
<g id="node8" class="node">
<title>Node8</title>
<g id="a_node8"><a xlink:href="_log_data_8hpp.html" target="_top" xlink:title=" ">
<polygon fill="none" stroke="black" points="184,-56.5 184,-75.5 262,-75.5 262,-56.5 184,-56.5"/>
<text text-anchor="middle" x="223" y="-63.5" font-family="Helvetica,sans-Serif" font-size="10.00">LogData.hpp</text>
</a>
</g>
</g>
<!-- Node7&#45;&gt;Node8 -->
<g id="edge7" class="edge">
<title>Node7&#45;&gt;Node8</title>
<path fill="none" stroke="midnightblue" d="M223,-112.08C223,-105.01 223,-94.86 223,-85.99"/>
<polygon fill="midnightblue" stroke="midnightblue" points="226.5,-85.75 223,-75.75 219.5,-85.75 226.5,-85.75"/>
</g>
<!-- Node9 -->
<g id="node9" class="node">
<title>Node9</title>
<g id="a_node9"><a xlink:title=" ">
<polygon fill="none" stroke="#bfbfbf" points="311,-0.5 311,-19.5 355,-19.5 355,-0.5 311,-0.5"/>
<text text-anchor="middle" x="333" y="-7.5" font-family="Helvetica,sans-Serif" font-size="10.00">ctime</text>
</a>
</g>
</g>
<!-- Node8&#45;&gt;Node9 -->
<g id="edge8" class="edge">
<title>Node8&#45;&gt;Node9</title>
<path fill="none" stroke="midnightblue" d="M240.67,-56.32C258.39,-47.62 285.9,-34.12 306.29,-24.11"/>
<polygon fill="midnightblue" stroke="midnightblue" points="307.94,-27.2 315.37,-19.65 304.85,-20.92 307.94,-27.2"/>
</g>
<!-- Node10 -->
<g id="node10" class="node">
<title>Node10</title>
<g id="a_node10"><a xlink:title=" ">
<polygon fill="none" stroke="#bfbfbf" points="593,-0.5 593,-19.5 649,-19.5 649,-0.5 593,-0.5"/>
<text text-anchor="middle" x="621" y="-7.5" font-family="Helvetica,sans-Serif" font-size="10.00">sstream</text>
</a>
</g>
</g>
<!-- Node8&#45;&gt;Node10 -->
<g id="edge9" class="edge">
<title>Node8&#45;&gt;Node10</title>
<path fill="none" stroke="midnightblue" d="M262.25,-59.67C338.76,-49.29 506.98,-26.47 582.71,-16.19"/>
<polygon fill="midnightblue" stroke="midnightblue" points="583.33,-19.64 592.77,-14.83 582.39,-12.71 583.33,-19.64"/>
</g>
<!-- Node8&#45;&gt;Node11 -->
<g id="edge10" class="edge">
<title>Node8&#45;&gt;Node11</title>
<path fill="none" stroke="midnightblue" d="M193.69,-56.44C159.93,-46.59 104.68,-30.46 69.88,-20.3"/>
<polygon fill="midnightblue" stroke="midnightblue" points="70.79,-16.92 60.21,-17.48 68.83,-23.64 70.79,-16.92"/>
</g>
<!-- Node12&#45;&gt;Node5 -->
<g id="edge13" class="edge">
<title>Node12&#45;&gt;Node5</title>
<path fill="none" stroke="midnightblue" d="M266.85,-168.44C325.92,-157.88 425.31,-140.11 480.67,-130.21"/>
<polygon fill="midnightblue" stroke="midnightblue" points="481.58,-133.6 490.81,-128.4 480.35,-126.71 481.58,-133.6"/>
</g>
<!-- Node12&#45;&gt;Node7 -->
<g id="edge14" class="edge">
<title>Node12&#45;&gt;Node7</title>
<path fill="none" stroke="midnightblue" d="M219.66,-168.08C220.18,-161.01 220.94,-150.86 221.59,-141.99"/>
<polygon fill="midnightblue" stroke="midnightblue" points="225.1,-141.98 222.35,-131.75 218.12,-141.47 225.1,-141.98"/>
</g>
<!-- Node13 -->
<g id="node13" class="node">
<title>Node13</title>
<g id="a_node13"><a xlink:title=" ">
<polygon fill="none" stroke="#bfbfbf" points="294.5,-112.5 294.5,-131.5 349.5,-131.5 349.5,-112.5 294.5,-112.5"/>
<text text-anchor="middle" x="322" y="-119.5" font-family="Helvetica,sans-Serif" font-size="10.00">fstream</text>
</a>
</g>
</g>
<!-- Node12&#45;&gt;Node13 -->
<g id="edge12" class="edge">
<title>Node12&#45;&gt;Node13</title>
<path fill="none" stroke="midnightblue" d="M235.55,-168.32C251.99,-159.7 277.43,-146.36 296.47,-136.39"/>
<polygon fill="midnightblue" stroke="midnightblue" points="298.26,-139.4 305.49,-131.65 295.01,-133.2 298.26,-139.4"/>
</g>
<!-- Node14&#45;&gt;Node7 -->
<g id="edge18" class="edge">
<title>Node14&#45;&gt;Node7</title>
<path fill="none" stroke="midnightblue" d="M92.56,-168.44C118.52,-159.4 159.67,-145.06 188.8,-134.92"/>
<polygon fill="midnightblue" stroke="midnightblue" points="190.26,-138.11 198.55,-131.52 187.96,-131.5 190.26,-138.11"/>
</g>
<!-- Node14&#45;&gt;Node8 -->
<g id="edge19" class="edge">
<title>Node14&#45;&gt;Node8</title>
<path fill="none" stroke="midnightblue" d="M69.33,-168.13C71.86,-154.27 78.67,-127.45 95,-112 116.55,-91.62 147.86,-80.4 174.13,-74.26"/>
<polygon fill="midnightblue" stroke="midnightblue" points="174.88,-77.68 183.91,-72.15 173.4,-70.84 174.88,-77.68"/>
</g>
<!-- Node14&#45;&gt;Node11 -->
<g id="edge16" class="edge">
<title>Node14&#45;&gt;Node11</title>
<path fill="none" stroke="midnightblue" d="M66.39,-168.08C61.66,-141.95 47.8,-65.21 41.36,-29.58"/>
<polygon fill="midnightblue" stroke="midnightblue" points="44.77,-28.79 39.55,-19.57 37.88,-30.03 44.77,-28.79"/>
</g>
<!-- Node15 -->
<g id="node15" class="node">
<title>Node15</title>
<g id="a_node15"><a xlink:title=" ">
<polygon fill="none" stroke="#bfbfbf" points="104.5,-112.5 104.5,-131.5 151.5,-131.5 151.5,-112.5 104.5,-112.5"/>
<text text-anchor="middle" x="128" y="-119.5" font-family="Helvetica,sans-Serif" font-size="10.00">vector</text>
</a>
</g>
</g>
<!-- Node14&#45;&gt;Node15 -->
<g id="edge17" class="edge">
<title>Node14&#45;&gt;Node15</title>
<path fill="none" stroke="midnightblue" d="M77.64,-168.32C86.51,-160.34 99.87,-148.31 110.61,-138.65"/>
<polygon fill="midnightblue" stroke="midnightblue" points="113.09,-141.13 118.18,-131.83 108.41,-135.92 113.09,-141.13"/>
</g>
<!-- Node16&#45;&gt;Node5 -->
<g id="edge25" class="edge">
<title>Node16&#45;&gt;Node5</title>
<path fill="none" stroke="midnightblue" d="M600.72,-224.41C621.87,-212.37 653.84,-189.55 639,-168 621.63,-142.78 588.09,-131.69 561.2,-126.81"/>
<polygon fill="midnightblue" stroke="midnightblue" points="561.69,-123.34 551.26,-125.23 560.59,-130.26 561.69,-123.34"/>
</g>
<!-- Node16&#45;&gt;Node9 -->
<g id="edge24" class="edge">
<title>Node16&#45;&gt;Node9</title>
<path fill="none" stroke="midnightblue" d="M606.66,-224.42C632.07,-213.37 668.01,-192.66 654,-168 593.19,-61 433.86,-25.55 365.22,-15.02"/>
<polygon fill="midnightblue" stroke="midnightblue" points="365.41,-11.51 355.01,-13.53 364.4,-18.44 365.41,-11.51"/>
</g>
<!-- Node16&#45;&gt;Node10 -->
<g id="edge26" class="edge">
<title>Node16&#45;&gt;Node10</title>
<path fill="none" stroke="midnightblue" d="M621.17,-230.94C650.9,-227.11 690.82,-216.56 711,-188 744.85,-140.09 741.84,-105.9 711,-56 699.58,-37.52 678.03,-26.38 658.87,-19.8"/>
<polygon fill="midnightblue" stroke="midnightblue" points="659.73,-16.41 649.14,-16.77 657.65,-23.09 659.73,-16.41"/>
</g>
<!-- Node16&#45;&gt;Node15 -->
<g id="edge27" class="edge">
<title>Node16&#45;&gt;Node15</title>
<path fill="none" stroke="midnightblue" d="M546.68,-230.23C444.28,-222.47 165.45,-200.33 150,-188 136.2,-176.98 131.01,-156.93 129.08,-142"/>
<polygon fill="midnightblue" stroke="midnightblue" points="132.54,-141.46 128.15,-131.82 125.57,-142.1 132.54,-141.46"/>
</g>
<!-- Node17 -->
<g id="node17" class="node">
<title>Node17</title>
<g id="a_node17"><a xlink:href="_status_code_8hpp.html" target="_top" xlink:title=" ">
<polygon fill="none" stroke="black" points="537.5,-168.5 537.5,-187.5 630.5,-187.5 630.5,-168.5 537.5,-168.5"/>
<text text-anchor="middle" x="584" y="-175.5" font-family="Helvetica,sans-Serif" font-size="10.00">StatusCode.hpp</text>
</a>
</g>
</g>
<!-- Node16&#45;&gt;Node17 -->
<g id="edge21" class="edge">
<title>Node16&#45;&gt;Node17</title>
<path fill="none" stroke="midnightblue" d="M584,-224.08C584,-217.01 584,-206.86 584,-197.99"/>
<polygon fill="midnightblue" stroke="midnightblue" points="587.5,-197.75 584,-187.75 580.5,-197.75 587.5,-197.75"/>
</g>
<!-- Node18 -->
<g id="node18" class="node">
<title>Node18</title>
<g id="a_node18"><a xlink:title=" ">
<polygon fill="none" stroke="#bfbfbf" points="455,-168.5 455,-187.5 519,-187.5 519,-168.5 455,-168.5"/>
<text text-anchor="middle" x="487" y="-175.5" font-family="Helvetica,sans-Serif" font-size="10.00">algorithm</text>
</a>
</g>
</g>
<!-- Node16&#45;&gt;Node18 -->
<g id="edge23" class="edge">
<title>Node16&#45;&gt;Node18</title>
<path fill="none" stroke="midnightblue" d="M568.42,-224.32C553,-215.74 529.19,-202.49 511.29,-192.52"/>
<polygon fill="midnightblue" stroke="midnightblue" points="512.99,-189.46 502.55,-187.65 509.58,-195.58 512.99,-189.46"/>
</g>
<!-- Node17&#45;&gt;Node5 -->
<g id="edge22" class="edge">
<title>Node17&#45;&gt;Node5</title>
<path fill="none" stroke="midnightblue" d="M573.88,-168.32C564.47,-160.26 550.26,-148.08 538.93,-138.37"/>
<polygon fill="midnightblue" stroke="midnightblue" points="541.18,-135.68 531.31,-131.83 536.62,-141 541.18,-135.68"/>
</g>
</g>
</svg>
