<?xml version="1.0" encoding="UTF-8" standalone="no"?>
<!DOCTYPE svg PUBLIC "-//W3C//DTD SVG 1.1//EN"
 "http://www.w3.org/Graphics/SVG/1.1/DTD/svg11.dtd">
<!-- Generated by graphviz version 2.43.0 (0)
 -->
<!-- Title: Connection::Connection Pages: 1 -->
<svg width="479pt" height="28pt"
 viewBox="0.00 0.00 479.00 28.00" xmlns="http://www.w3.org/2000/svg" xmlns:xlink="http://www.w3.org/1999/xlink">
<g id="graph0" class="graph" transform="scale(1 1) rotate(0) translate(4 24)">
<title>Connection::Connection</title>
<!-- Node1 -->
<g id="node1" class="node">
<title>Node1</title>
<g id="a_node1"><a xlink:title="Construct a new Connection:: Connection object.">
<polygon fill="#bfbfbf" stroke="black" points="0,-0.5 0,-19.5 132,-19.5 132,-0.5 0,-0.5"/>
<text text-anchor="middle" x="66" y="-7.5" font-family="Helvetica,sans-Serif" font-size="10.00">Connection::Connection</text>
</a>
</g>
</g>
<!-- Node2 -->
<g id="node2" class="node">
<title>Node2</title>
<g id="a_node2"><a xlink:href="_connection_8cpp.html#a354192f8dd87ca049cf8b7e6de9000da" target="_top" xlink:title="Selects the server configuration for a connection.">
<polygon fill="none" stroke="black" points="168,-0.5 168,-19.5 288,-19.5 288,-0.5 168,-0.5"/>
<text text-anchor="middle" x="228" y="-7.5" font-family="Helvetica,sans-Serif" font-size="10.00">hasValidServerConfig</text>
</a>
</g>
</g>
<!-- Node1&#45;&gt;Node2 -->
<g id="edge1" class="edge">
<title>Node1&#45;&gt;Node2</title>
<path fill="none" stroke="midnightblue" d="M132.08,-10C140.5,-10 149.16,-10 157.65,-10"/>
<polygon fill="midnightblue" stroke="midnightblue" points="157.9,-13.5 167.9,-10 157.9,-6.5 157.9,-13.5"/>
</g>
<!-- Node3 -->
<g id="node3" class="node">
<title>Node3</title>
<g id="a_node3"><a xlink:href="_connection_8cpp.html#ac4fdfd0273b5ff94aefbdc973ac49ead" target="_top" xlink:title="Find matching server configurations for a server socket.">
<polygon fill="none" stroke="black" points="324,-0.5 324,-19.5 471,-19.5 471,-0.5 324,-0.5"/>
<text text-anchor="middle" x="397.5" y="-7.5" font-family="Helvetica,sans-Serif" font-size="10.00">findMatchingServerConfigs</text>
</a>
</g>
</g>
<!-- Node2&#45;&gt;Node3 -->
<g id="edge2" class="edge">
<title>Node2&#45;&gt;Node3</title>
<path fill="none" stroke="midnightblue" d="M288.05,-10C296.38,-10 305.07,-10 313.74,-10"/>
<polygon fill="midnightblue" stroke="midnightblue" points="313.89,-13.5 323.89,-10 313.89,-6.5 313.89,-13.5"/>
</g>
</g>
</svg>
