<?xml version="1.0" encoding="UTF-8" standalone="no"?>
<!DOCTYPE svg PUBLIC "-//W3C//DTD SVG 1.1//EN"
 "http://www.w3.org/Graphics/SVG/1.1/DTD/svg11.dtd">
<!-- Generated by graphviz version 2.43.0 (0)
 -->
<!-- Title: inc/utilities.hpp Pages: 1 -->
<svg width="2002pt" height="341pt"
 viewBox="0.00 0.00 2001.50 341.00" xmlns="http://www.w3.org/2000/svg" xmlns:xlink="http://www.w3.org/1999/xlink">
<g id="graph0" class="graph" transform="scale(1 1) rotate(0) translate(4 337)">
<title>inc/utilities.hpp</title>
<!-- Node1 -->
<g id="node1" class="node">
<title>Node1</title>
<g id="a_node1"><a xlink:title=" ">
<polygon fill="#bfbfbf" stroke="black" points="1024.5,-313.5 1024.5,-332.5 1116.5,-332.5 1116.5,-313.5 1024.5,-313.5"/>
<text text-anchor="middle" x="1070.5" y="-320.5" font-family="Helvetica,sans-Serif" font-size="10.00">inc/utilities.hpp</text>
</a>
</g>
</g>
<!-- Node2 -->
<g id="node2" class="node">
<title>Node2</title>
<g id="a_node2"><a xlink:href="_autoindex_handler_8hpp.html" target="_top" xlink:title=" ">
<polygon fill="none" stroke="black" points="1330.5,-257.5 1330.5,-276.5 1472.5,-276.5 1472.5,-257.5 1330.5,-257.5"/>
<text text-anchor="middle" x="1401.5" y="-264.5" font-family="Helvetica,sans-Serif" font-size="10.00">inc/AutoindexHandler.hpp</text>
</a>
</g>
</g>
<!-- Node1&#45;&gt;Node2 -->
<g id="edge1" class="edge">
<title>Node1&#45;&gt;Node2</title>
<path fill="none" stroke="midnightblue" d="M1126.57,-312.85C1188.86,-302.69 1288.65,-286.41 1349.33,-276.51"/>
<polygon fill="midnightblue" stroke="midnightblue" points="1125.83,-309.43 1116.52,-314.49 1126.96,-316.34 1125.83,-309.43"/>
</g>
<!-- Node23 -->
<g id="node23" class="node">
<title>Node23</title>
<g id="a_node23"><a xlink:href="_config_file_parser_8hpp.html" target="_top" xlink:title=" ">
<polygon fill="none" stroke="black" points="325.5,-257.5 325.5,-276.5 457.5,-276.5 457.5,-257.5 325.5,-257.5"/>
<text text-anchor="middle" x="391.5" y="-264.5" font-family="Helvetica,sans-Serif" font-size="10.00">inc/ConfigFileParser.hpp</text>
</a>
</g>
</g>
<!-- Node1&#45;&gt;Node23 -->
<g id="edge22" class="edge">
<title>Node1&#45;&gt;Node23</title>
<path fill="none" stroke="midnightblue" d="M1014.28,-317.53C889.68,-307.62 590.85,-283.85 457.59,-273.26"/>
<polygon fill="midnightblue" stroke="midnightblue" points="1014.12,-321.03 1024.36,-318.33 1014.67,-314.05 1014.12,-321.03"/>
</g>
<!-- Node24 -->
<g id="node24" class="node">
<title>Node24</title>
<g id="a_node24"><a xlink:href="_config_file_parser_8cpp.html" target="_top" xlink:title=" ">
<polygon fill="none" stroke="black" points="455,-196 455,-215 586,-215 586,-196 455,-196"/>
<text text-anchor="middle" x="520.5" y="-203" font-family="Helvetica,sans-Serif" font-size="10.00">src/ConfigFileParser.cpp</text>
</a>
</g>
</g>
<!-- Node1&#45;&gt;Node24 -->
<g id="edge42" class="edge">
<title>Node1&#45;&gt;Node24</title>
<path fill="none" stroke="midnightblue" d="M1019.59,-311.31C911.29,-288.57 659.94,-235.78 561.29,-215.06"/>
<polygon fill="midnightblue" stroke="midnightblue" points="1019.1,-314.78 1029.61,-313.41 1020.54,-307.93 1019.1,-314.78"/>
</g>
<!-- Node26 -->
<g id="node26" class="node">
<title>Node26</title>
<g id="a_node26"><a xlink:href="_request_parser_8hpp.html" target="_top" xlink:title=" ">
<polygon fill="none" stroke="black" points="1008.5,-257.5 1008.5,-276.5 1132.5,-276.5 1132.5,-257.5 1008.5,-257.5"/>
<text text-anchor="middle" x="1070.5" y="-264.5" font-family="Helvetica,sans-Serif" font-size="10.00">inc/RequestParser.hpp</text>
</a>
</g>
</g>
<!-- Node1&#45;&gt;Node26 -->
<g id="edge26" class="edge">
<title>Node1&#45;&gt;Node26</title>
<path fill="none" stroke="midnightblue" d="M1070.5,-302.8C1070.5,-293.91 1070.5,-283.78 1070.5,-276.75"/>
<polygon fill="midnightblue" stroke="midnightblue" points="1067,-303.08 1070.5,-313.08 1074,-303.08 1067,-303.08"/>
</g>
<!-- Node34 -->
<g id="node34" class="node">
<title>Node34</title>
<g id="a_node34"><a xlink:href="signal_handler_8hpp.html" target="_top" xlink:title=" ">
<polygon fill="none" stroke="black" points="98.5,-129 98.5,-148 220.5,-148 220.5,-129 98.5,-129"/>
<text text-anchor="middle" x="159.5" y="-136" font-family="Helvetica,sans-Serif" font-size="10.00">inc/signalHandler.hpp</text>
</a>
</g>
</g>
<!-- Node1&#45;&gt;Node34 -->
<g id="edge38" class="edge">
<title>Node1&#45;&gt;Node34</title>
<path fill="none" stroke="midnightblue" d="M1014.2,-322.5C862.05,-323.25 445.46,-321.08 316.5,-277 243.82,-252.15 183.85,-174.16 165.38,-148.09"/>
<polygon fill="midnightblue" stroke="midnightblue" points="1014.28,-326 1024.26,-322.45 1014.24,-319 1014.28,-326"/>
</g>
<!-- Node36 -->
<g id="node36" class="node">
<title>Node36</title>
<g id="a_node36"><a xlink:href="utilities_8cpp.html" target="_top" xlink:title=" ">
<polygon fill="none" stroke="black" points="1491,-257.5 1491,-276.5 1582,-276.5 1582,-257.5 1491,-257.5"/>
<text text-anchor="middle" x="1536.5" y="-264.5" font-family="Helvetica,sans-Serif" font-size="10.00">src/utilities.cpp</text>
</a>
</g>
</g>
<!-- Node1&#45;&gt;Node36 -->
<g id="edge43" class="edge">
<title>Node1&#45;&gt;Node36</title>
<path fill="none" stroke="midnightblue" d="M1126.77,-316.79C1206.04,-309.24 1355.07,-294.25 1481.5,-277 1484.57,-276.58 1487.73,-276.13 1490.91,-275.65"/>
<polygon fill="midnightblue" stroke="midnightblue" points="1126.14,-313.34 1116.52,-317.77 1126.8,-320.31 1126.14,-313.34"/>
</g>
<!-- Node37 -->
<g id="node37" class="node">
<title>Node37</title>
<g id="a_node37"><a xlink:href="test__utils_8cpp.html" target="_top" xlink:title=" ">
<polygon fill="none" stroke="black" points="1600.5,-257.5 1600.5,-276.5 1704.5,-276.5 1704.5,-257.5 1600.5,-257.5"/>
<text text-anchor="middle" x="1652.5" y="-264.5" font-family="Helvetica,sans-Serif" font-size="10.00">test/test_utils.cpp</text>
</a>
</g>
</g>
<!-- Node1&#45;&gt;Node37 -->
<g id="edge44" class="edge">
<title>Node1&#45;&gt;Node37</title>
<path fill="none" stroke="midnightblue" d="M1126.62,-318.27C1222.22,-311.66 1422.71,-296.72 1591.5,-277 1594.37,-276.66 1597.31,-276.3 1600.28,-275.92"/>
<polygon fill="midnightblue" stroke="midnightblue" points="1126.33,-314.78 1116.59,-318.96 1126.81,-321.76 1126.33,-314.78"/>
</g>
<!-- Node3 -->
<g id="node3" class="node">
<title>Node3</title>
<g id="a_node3"><a xlink:href="_response_body_handler_8hpp.html" target="_top" xlink:title=" ">
<polygon fill="none" stroke="black" points="1481.5,-196 1481.5,-215 1645.5,-215 1645.5,-196 1481.5,-196"/>
<text text-anchor="middle" x="1563.5" y="-203" font-family="Helvetica,sans-Serif" font-size="10.00">inc/ResponseBodyHandler.hpp</text>
</a>
</g>
</g>
<!-- Node2&#45;&gt;Node3 -->
<g id="edge2" class="edge">
<title>Node2&#45;&gt;Node3</title>
<path fill="none" stroke="midnightblue" d="M1434.35,-253.93C1465.84,-242.37 1512.56,-225.21 1540.33,-215.01"/>
<polygon fill="midnightblue" stroke="midnightblue" points="1432.89,-250.74 1424.71,-257.48 1435.3,-257.31 1432.89,-250.74"/>
</g>
<!-- Node21 -->
<g id="node21" class="node">
<title>Node21</title>
<g id="a_node21"><a xlink:href="_autoindex_handler_8cpp.html" target="_top" xlink:title=" ">
<polygon fill="none" stroke="black" points="1664,-196 1664,-215 1805,-215 1805,-196 1664,-196"/>
<text text-anchor="middle" x="1734.5" y="-203" font-family="Helvetica,sans-Serif" font-size="10.00">src/AutoindexHandler.cpp</text>
</a>
</g>
</g>
<!-- Node2&#45;&gt;Node21 -->
<g id="edge20" class="edge">
<title>Node2&#45;&gt;Node21</title>
<path fill="none" stroke="midnightblue" d="M1459.92,-255.67C1511.2,-246.58 1587.81,-232.97 1654.5,-221 1665.2,-219.08 1676.7,-217 1687.55,-215.04"/>
<polygon fill="midnightblue" stroke="midnightblue" points="1459.25,-252.23 1450.01,-257.42 1460.47,-259.12 1459.25,-252.23"/>
</g>
<!-- Node22 -->
<g id="node22" class="node">
<title>Node22</title>
<g id="a_node22"><a xlink:href="test___autoindex_handler_8cpp.html" target="_top" xlink:title=" ">
<polygon fill="none" stroke="black" points="1823.5,-196 1823.5,-215 1993.5,-215 1993.5,-196 1823.5,-196"/>
<text text-anchor="middle" x="1908.5" y="-203" font-family="Helvetica,sans-Serif" font-size="10.00">test/test_AutoindexHandler.cpp</text>
</a>
</g>
</g>
<!-- Node2&#45;&gt;Node22 -->
<g id="edge21" class="edge">
<title>Node2&#45;&gt;Node22</title>
<path fill="none" stroke="midnightblue" d="M1482.6,-257C1631.69,-240.78 1670.5,-239.9 1814.5,-221 1827.93,-219.24 1842.39,-217.12 1855.86,-215.05"/>
<polygon fill="midnightblue" stroke="midnightblue" points="1482.18,-253.52 1472.62,-258.09 1482.94,-260.48 1482.18,-253.52"/>
</g>
<!-- Node4 -->
<g id="node4" class="node">
<title>Node4</title>
<g id="a_node4"><a xlink:href="_response_builder_8hpp.html" target="_top" xlink:title=" ">
<polygon fill="none" stroke="black" points="1361.5,-129 1361.5,-148 1497.5,-148 1497.5,-129 1361.5,-129"/>
<text text-anchor="middle" x="1429.5" y="-136" font-family="Helvetica,sans-Serif" font-size="10.00">inc/ResponseBuilder.hpp</text>
</a>
</g>
</g>
<!-- Node3&#45;&gt;Node4 -->
<g id="edge3" class="edge">
<title>Node3&#45;&gt;Node4</title>
<path fill="none" stroke="midnightblue" d="M1536.58,-191.44C1510.04,-178.57 1470.23,-159.26 1447.37,-148.17"/>
<polygon fill="midnightblue" stroke="midnightblue" points="1535.18,-194.65 1545.71,-195.87 1538.24,-188.35 1535.18,-194.65"/>
</g>
<!-- Node19 -->
<g id="node19" class="node">
<title>Node19</title>
<g id="a_node19"><a xlink:href="_response_body_handler_8cpp.html" target="_top" xlink:title=" ">
<polygon fill="none" stroke="black" points="1515.5,-129 1515.5,-148 1679.5,-148 1679.5,-129 1515.5,-129"/>
<text text-anchor="middle" x="1597.5" y="-136" font-family="Helvetica,sans-Serif" font-size="10.00">src/ResponseBodyHandler.cpp</text>
</a>
</g>
</g>
<!-- Node3&#45;&gt;Node19 -->
<g id="edge18" class="edge">
<title>Node3&#45;&gt;Node19</title>
<path fill="none" stroke="midnightblue" d="M1572.83,-186.66C1579.39,-174.13 1587.87,-157.91 1592.99,-148.13"/>
<polygon fill="midnightblue" stroke="midnightblue" points="1569.62,-185.25 1568.09,-195.73 1575.82,-188.5 1569.62,-185.25"/>
</g>
<!-- Node20 -->
<g id="node20" class="node">
<title>Node20</title>
<g id="a_node20"><a xlink:href="test___response_body_handler_8cpp.html" target="_top" xlink:title=" ">
<polygon fill="none" stroke="black" points="1697.5,-129 1697.5,-148 1889.5,-148 1889.5,-129 1697.5,-129"/>
<text text-anchor="middle" x="1793.5" y="-136" font-family="Helvetica,sans-Serif" font-size="10.00">test/test_ResponseBodyHandler.cpp</text>
</a>
</g>
</g>
<!-- Node3&#45;&gt;Node20 -->
<g id="edge19" class="edge">
<title>Node3&#45;&gt;Node20</title>
<path fill="none" stroke="midnightblue" d="M1603.87,-193.09C1649.37,-180.23 1722.31,-159.62 1763.2,-148.06"/>
<polygon fill="midnightblue" stroke="midnightblue" points="1602.71,-189.78 1594.04,-195.87 1604.62,-196.52 1602.71,-189.78"/>
</g>
<!-- Node5 -->
<g id="node5" class="node">
<title>Node5</title>
<g id="a_node5"><a xlink:href="_server_8hpp.html" target="_top" xlink:title=" ">
<polygon fill="none" stroke="black" points="949.5,-67.5 949.5,-86.5 1035.5,-86.5 1035.5,-67.5 949.5,-67.5"/>
<text text-anchor="middle" x="992.5" y="-74.5" font-family="Helvetica,sans-Serif" font-size="10.00">inc/Server.hpp</text>
</a>
</g>
</g>
<!-- Node4&#45;&gt;Node5 -->
<g id="edge4" class="edge">
<title>Node4&#45;&gt;Node5</title>
<path fill="none" stroke="midnightblue" d="M1376.97,-127.16C1368.8,-125.68 1360.43,-124.24 1352.5,-123 1238.47,-105.15 1103.22,-89.8 1035.57,-82.51"/>
<polygon fill="midnightblue" stroke="midnightblue" points="1376.35,-130.6 1386.82,-128.98 1377.62,-123.72 1376.35,-130.6"/>
</g>
<!-- Node18 -->
<g id="node18" class="node">
<title>Node18</title>
<g id="a_node18"><a xlink:href="_response_builder_8cpp.html" target="_top" xlink:title=" ">
<polygon fill="none" stroke="black" points="1362,-67.5 1362,-86.5 1497,-86.5 1497,-67.5 1362,-67.5"/>
<text text-anchor="middle" x="1429.5" y="-74.5" font-family="Helvetica,sans-Serif" font-size="10.00">src/ResponseBuilder.cpp</text>
</a>
</g>
</g>
<!-- Node4&#45;&gt;Node18 -->
<g id="edge17" class="edge">
<title>Node4&#45;&gt;Node18</title>
<path fill="none" stroke="midnightblue" d="M1429.5,-118.82C1429.5,-108 1429.5,-94.9 1429.5,-86.51"/>
<polygon fill="midnightblue" stroke="midnightblue" points="1426,-118.98 1429.5,-128.98 1433,-118.98 1426,-118.98"/>
</g>
<!-- Node6 -->
<g id="node6" class="node">
<title>Node6</title>
<g id="a_node6"><a xlink:href="main_8cpp.html" target="_top" xlink:title=" ">
<polygon fill="none" stroke="black" points="189,-6 189,-25 268,-25 268,-6 189,-6"/>
<text text-anchor="middle" x="228.5" y="-13" font-family="Helvetica,sans-Serif" font-size="10.00">src/main.cpp</text>
</a>
</g>
</g>
<!-- Node5&#45;&gt;Node6 -->
<g id="edge5" class="edge">
<title>Node5&#45;&gt;Node6</title>
<path fill="none" stroke="midnightblue" d="M938.96,-76.82C819.21,-77.76 521.02,-75.01 276.5,-31 268.79,-29.61 260.57,-27.41 253.15,-25.13"/>
<polygon fill="midnightblue" stroke="midnightblue" points="939.35,-80.32 949.31,-76.73 939.28,-73.32 939.35,-80.32"/>
</g>
<!-- Node7 -->
<g id="node7" class="node">
<title>Node7</title>
<g id="a_node7"><a xlink:href="_server_8cpp.html" target="_top" xlink:title=" ">
<polygon fill="none" stroke="black" points="1001,-6 1001,-25 1086,-25 1086,-6 1001,-6"/>
<text text-anchor="middle" x="1043.5" y="-13" font-family="Helvetica,sans-Serif" font-size="10.00">src/Server.cpp</text>
</a>
</g>
</g>
<!-- Node5&#45;&gt;Node7 -->
<g id="edge6" class="edge">
<title>Node5&#45;&gt;Node7</title>
<path fill="none" stroke="midnightblue" d="M1006.5,-59.67C1016.11,-48.45 1028.49,-34.02 1036.21,-25.01"/>
<polygon fill="midnightblue" stroke="midnightblue" points="1003.66,-57.6 999.81,-67.48 1008.97,-62.16 1003.66,-57.6"/>
</g>
<!-- Node8 -->
<g id="node8" class="node">
<title>Node8</title>
<g id="a_node8"><a xlink:href="test__accept_connections_8cpp.html" target="_top" xlink:title=" ">
<polygon fill="none" stroke="black" points="1104,-6 1104,-25 1279,-25 1279,-6 1104,-6"/>
<text text-anchor="middle" x="1191.5" y="-13" font-family="Helvetica,sans-Serif" font-size="10.00">test/test_acceptConnections.cpp</text>
</a>
</g>
</g>
<!-- Node5&#45;&gt;Node8 -->
<g id="edge7" class="edge">
<title>Node5&#45;&gt;Node8</title>
<path fill="none" stroke="midnightblue" d="M1030.87,-64.53C1069.54,-52.96 1128.34,-35.38 1163.04,-25.01"/>
<polygon fill="midnightblue" stroke="midnightblue" points="1029.59,-61.26 1021.01,-67.48 1031.6,-67.96 1029.59,-61.26"/>
</g>
<!-- Node9 -->
<g id="node9" class="node">
<title>Node9</title>
<g id="a_node9"><a xlink:href="test__check_for_timeout_8cpp.html" target="_top" xlink:title=" ">
<polygon fill="none" stroke="black" points="1297,-6 1297,-25 1464,-25 1464,-6 1297,-6"/>
<text text-anchor="middle" x="1380.5" y="-13" font-family="Helvetica,sans-Serif" font-size="10.00">test/test_checkForTimeout.cpp</text>
</a>
</g>
</g>
<!-- Node5&#45;&gt;Node9 -->
<g id="edge8" class="edge">
<title>Node5&#45;&gt;Node9</title>
<path fill="none" stroke="midnightblue" d="M1045.89,-67.97C1105.17,-59.04 1203.7,-44.13 1288.5,-31 1300.8,-29.1 1314.03,-27.02 1326.51,-25.06"/>
<polygon fill="midnightblue" stroke="midnightblue" points="1045.02,-64.56 1035.65,-69.52 1046.06,-71.49 1045.02,-64.56"/>
</g>
<!-- Node10 -->
<g id="node10" class="node">
<title>Node10</title>
<g id="a_node10"><a xlink:href="test__connection_receive_header_8cpp.html" target="_top" xlink:title=" ">
<polygon fill="none" stroke="black" points="1482,-0.5 1482,-30.5 1637,-30.5 1637,-0.5 1482,-0.5"/>
<text text-anchor="start" x="1490" y="-18.5" font-family="Helvetica,sans-Serif" font-size="10.00">test/test_connectionReceive</text>
<text text-anchor="middle" x="1559.5" y="-7.5" font-family="Helvetica,sans-Serif" font-size="10.00">Header.cpp</text>
</a>
</g>
</g>
<!-- Node5&#45;&gt;Node10 -->
<g id="edge9" class="edge">
<title>Node5&#45;&gt;Node10</title>
<path fill="none" stroke="midnightblue" d="M1045.84,-72.3C1134.73,-65.85 1318.71,-51.26 1473.5,-31 1476.2,-30.65 1478.95,-30.27 1481.72,-29.88"/>
<polygon fill="midnightblue" stroke="midnightblue" points="1045.46,-68.82 1035.74,-73.03 1045.96,-75.8 1045.46,-68.82"/>
</g>
<!-- Node11 -->
<g id="node11" class="node">
<title>Node11</title>
<g id="a_node11"><a xlink:href="test__connection_send_response_8cpp.html" target="_top" xlink:title=" ">
<polygon fill="none" stroke="black" points="1655.5,-0.5 1655.5,-30.5 1795.5,-30.5 1795.5,-0.5 1655.5,-0.5"/>
<text text-anchor="start" x="1663.5" y="-18.5" font-family="Helvetica,sans-Serif" font-size="10.00">test/test_connectionSend</text>
<text text-anchor="middle" x="1725.5" y="-7.5" font-family="Helvetica,sans-Serif" font-size="10.00">Response.cpp</text>
</a>
</g>
</g>
<!-- Node5&#45;&gt;Node11 -->
<g id="edge10" class="edge">
<title>Node5&#45;&gt;Node11</title>
<path fill="none" stroke="midnightblue" d="M1045.84,-74.37C1157.61,-70.5 1424.43,-58.93 1646.5,-31 1649.41,-30.63 1652.37,-30.23 1655.35,-29.8"/>
<polygon fill="midnightblue" stroke="midnightblue" points="1045.39,-70.88 1035.51,-74.72 1045.63,-77.88 1045.39,-70.88"/>
</g>
<!-- Node12 -->
<g id="node12" class="node">
<title>Node12</title>
<g id="a_node12"><a xlink:href="test__create_virtual_server_8cpp.html" target="_top" xlink:title=" ">
<polygon fill="none" stroke="black" points="1813.5,-6 1813.5,-25 1989.5,-25 1989.5,-6 1813.5,-6"/>
<text text-anchor="middle" x="1901.5" y="-13" font-family="Helvetica,sans-Serif" font-size="10.00">test/test_createVirtualServer.cpp</text>
</a>
</g>
</g>
<!-- Node5&#45;&gt;Node12 -->
<g id="edge11" class="edge">
<title>Node5&#45;&gt;Node12</title>
<path fill="none" stroke="midnightblue" d="M1045.83,-74.76C1175.85,-71.37 1519.37,-60.15 1804.5,-31 1819.49,-29.47 1835.71,-27.26 1850.52,-25.03"/>
<polygon fill="midnightblue" stroke="midnightblue" points="1045.65,-71.26 1035.75,-75.02 1045.83,-78.26 1045.65,-71.26"/>
</g>
<!-- Node13 -->
<g id="node13" class="node">
<title>Node13</title>
<g id="a_node13"><a xlink:href="test__init_virtual_servers_8cpp.html" target="_top" xlink:title=" ">
<polygon fill="none" stroke="black" points="286,-6 286,-25 453,-25 453,-6 286,-6"/>
<text text-anchor="middle" x="369.5" y="-13" font-family="Helvetica,sans-Serif" font-size="10.00">test/test_initVirtualServers.cpp</text>
</a>
</g>
</g>
<!-- Node5&#45;&gt;Node13 -->
<g id="edge12" class="edge">
<title>Node5&#45;&gt;Node13</title>
<path fill="none" stroke="midnightblue" d="M939.36,-72.76C843.61,-66.65 635.86,-52.1 461.5,-31 447.86,-29.35 433.13,-27.2 419.54,-25.06"/>
<polygon fill="midnightblue" stroke="midnightblue" points="939.17,-76.26 949.37,-73.4 939.62,-69.27 939.17,-76.26"/>
</g>
<!-- Node14 -->
<g id="node14" class="node">
<title>Node14</title>
<g id="a_node14"><a xlink:href="test__is_duplicate_server_8cpp.html" target="_top" xlink:title=" ">
<polygon fill="none" stroke="black" points="470.5,-6 470.5,-25 638.5,-25 638.5,-6 470.5,-6"/>
<text text-anchor="middle" x="554.5" y="-13" font-family="Helvetica,sans-Serif" font-size="10.00">test/test_isDuplicateServer.cpp</text>
</a>
</g>
</g>
<!-- Node5&#45;&gt;Node14 -->
<g id="edge13" class="edge">
<title>Node5&#45;&gt;Node14</title>
<path fill="none" stroke="midnightblue" d="M939.41,-69.49C871.62,-61.09 750.73,-45.78 647.5,-31 634.56,-29.15 620.62,-27.04 607.58,-25.01"/>
<polygon fill="midnightblue" stroke="midnightblue" points="939.07,-72.98 949.42,-70.73 939.93,-66.03 939.07,-72.98"/>
</g>
<!-- Node15 -->
<g id="node15" class="node">
<title>Node15</title>
<g id="a_node15"><a xlink:href="test__register_connection_8cpp.html" target="_top" xlink:title=" ">
<polygon fill="none" stroke="black" points="657,-6 657,-25 832,-25 832,-6 657,-6"/>
<text text-anchor="middle" x="744.5" y="-13" font-family="Helvetica,sans-Serif" font-size="10.00">test/test_registerConnection.cpp</text>
</a>
</g>
</g>
<!-- Node5&#45;&gt;Node15 -->
<g id="edge14" class="edge">
<title>Node5&#45;&gt;Node15</title>
<path fill="none" stroke="midnightblue" d="M947.13,-65.11C898.99,-53.57 823.95,-35.56 779.97,-25.01"/>
<polygon fill="midnightblue" stroke="midnightblue" points="946.43,-68.55 956.97,-67.48 948.06,-61.74 946.43,-68.55"/>
</g>
<!-- Node16 -->
<g id="node16" class="node">
<title>Node16</title>
<g id="a_node16"><a xlink:href="test__register_virtual_server_8cpp.html" target="_top" xlink:title=" ">
<polygon fill="none" stroke="black" points="850.5,-0.5 850.5,-30.5 982.5,-30.5 982.5,-0.5 850.5,-0.5"/>
<text text-anchor="start" x="858.5" y="-18.5" font-family="Helvetica,sans-Serif" font-size="10.00">test/test_registerVirtual</text>
<text text-anchor="middle" x="916.5" y="-7.5" font-family="Helvetica,sans-Serif" font-size="10.00">Server.cpp</text>
</a>
</g>
</g>
<!-- Node5&#45;&gt;Node16 -->
<g id="edge15" class="edge">
<title>Node5&#45;&gt;Node16</title>
<path fill="none" stroke="midnightblue" d="M973.59,-61.2C961.61,-51.81 946.2,-39.75 934.41,-30.52"/>
<polygon fill="midnightblue" stroke="midnightblue" points="971.58,-64.07 981.61,-67.48 975.89,-58.55 971.58,-64.07"/>
</g>
<!-- Node17 -->
<g id="node17" class="node">
<title>Node17</title>
<g id="a_node17"><a xlink:href="test__shutdown_server_8cpp.html" target="_top" xlink:title=" ">
<polygon fill="none" stroke="black" points="0,-6 0,-25 161,-25 161,-6 0,-6"/>
<text text-anchor="middle" x="80.5" y="-13" font-family="Helvetica,sans-Serif" font-size="10.00">test/test_shutdownServer.cpp</text>
</a>
</g>
</g>
<!-- Node5&#45;&gt;Node17 -->
<g id="edge16" class="edge">
<title>Node5&#45;&gt;Node17</title>
<path fill="none" stroke="midnightblue" d="M939.11,-74.71C808.95,-71.2 465.02,-59.75 179.5,-31 164.2,-29.46 147.65,-27.25 132.54,-25.02"/>
<polygon fill="midnightblue" stroke="midnightblue" points="939.12,-78.21 949.21,-74.98 939.3,-71.21 939.12,-78.21"/>
</g>
<!-- Node23&#45;&gt;Node6 -->
<g id="edge24" class="edge">
<title>Node23&#45;&gt;Node6</title>
<path fill="none" stroke="midnightblue" d="M322.77,-254.64C302.3,-248.02 281.6,-237.56 267.5,-221 241.6,-190.6 231.35,-60.28 229.04,-25.22"/>
<polygon fill="midnightblue" stroke="midnightblue" points="321.87,-258.02 332.45,-257.5 323.85,-251.31 321.87,-258.02"/>
</g>
<!-- Node23&#45;&gt;Node24 -->
<g id="edge23" class="edge">
<title>Node23&#45;&gt;Node24</title>
<path fill="none" stroke="midnightblue" d="M419.31,-253.17C444.34,-241.63 480.42,-224.99 502.05,-215.01"/>
<polygon fill="midnightblue" stroke="midnightblue" points="417.6,-250.11 409.98,-257.48 420.53,-256.46 417.6,-250.11"/>
</g>
<!-- Node25 -->
<g id="node25" class="node">
<title>Node25</title>
<g id="a_node25"><a xlink:href="test___config_file_parser_8cpp.html" target="_top" xlink:title=" ">
<polygon fill="none" stroke="black" points="276.5,-196 276.5,-215 436.5,-215 436.5,-196 276.5,-196"/>
<text text-anchor="middle" x="356.5" y="-203" font-family="Helvetica,sans-Serif" font-size="10.00">test/test_ConfigFileParser.cpp</text>
</a>
</g>
</g>
<!-- Node23&#45;&gt;Node25 -->
<g id="edge25" class="edge">
<title>Node23&#45;&gt;Node25</title>
<path fill="none" stroke="midnightblue" d="M381.31,-248.67C374.8,-237.61 366.65,-223.75 361.51,-215.01"/>
<polygon fill="midnightblue" stroke="midnightblue" points="378.4,-250.63 386.49,-257.48 384.43,-247.08 378.4,-250.63"/>
</g>
<!-- Node26&#45;&gt;Node4 -->
<g id="edge27" class="edge">
<title>Node26&#45;&gt;Node4</title>
<path fill="none" stroke="midnightblue" d="M1142.64,-260.36C1187.72,-254.72 1246.03,-243.45 1293.5,-221 1313.2,-211.68 1313.27,-201.95 1331.5,-190 1357.44,-173.01 1389.79,-157.3 1410.05,-148.05"/>
<polygon fill="midnightblue" stroke="midnightblue" points="1142.16,-256.89 1132.65,-261.55 1142.99,-263.85 1142.16,-256.89"/>
</g>
<!-- Node26&#45;&gt;Node5 -->
<g id="edge28" class="edge">
<title>Node26&#45;&gt;Node5</title>
<path fill="none" stroke="midnightblue" d="M1061.51,-248.08C1053.71,-232.63 1042.05,-209.74 1031.5,-190 1022.88,-173.86 1018.22,-171.02 1011.5,-154 1002.21,-130.47 996.39,-101.01 993.9,-86.66"/>
<polygon fill="midnightblue" stroke="midnightblue" points="1058.41,-249.7 1066.03,-257.06 1064.66,-246.55 1058.41,-249.7"/>
</g>
<!-- Node27 -->
<g id="node27" class="node">
<title>Node27</title>
<g id="a_node27"><a xlink:href="_target_resource_handler_8hpp.html" target="_top" xlink:title=" ">
<polygon fill="none" stroke="black" points="1117,-196 1117,-215 1284,-215 1284,-196 1117,-196"/>
<text text-anchor="middle" x="1200.5" y="-203" font-family="Helvetica,sans-Serif" font-size="10.00">inc/TargetResourceHandler.hpp</text>
</a>
</g>
</g>
<!-- Node26&#45;&gt;Node27 -->
<g id="edge29" class="edge">
<title>Node26&#45;&gt;Node27</title>
<path fill="none" stroke="midnightblue" d="M1098.52,-253.17C1123.75,-241.63 1160.11,-224.99 1181.91,-215.01"/>
<polygon fill="midnightblue" stroke="midnightblue" points="1096.76,-250.13 1089.13,-257.48 1099.68,-256.5 1096.76,-250.13"/>
</g>
<!-- Node29 -->
<g id="node29" class="node">
<title>Node29</title>
<g id="a_node29"><a xlink:href="test___target_resource_handler_8cpp.html" target="_top" xlink:title=" ">
<polygon fill="none" stroke="black" points="1021,-123.5 1021,-153.5 1158,-153.5 1158,-123.5 1021,-123.5"/>
<text text-anchor="start" x="1029" y="-141.5" font-family="Helvetica,sans-Serif" font-size="10.00">test/test_TargetResource</text>
<text text-anchor="middle" x="1089.5" y="-130.5" font-family="Helvetica,sans-Serif" font-size="10.00">Handler.cpp</text>
</a>
</g>
</g>
<!-- Node26&#45;&gt;Node29 -->
<g id="edge37" class="edge">
<title>Node26&#45;&gt;Node29</title>
<path fill="none" stroke="midnightblue" d="M1073.34,-247.11C1077.16,-221.63 1083.9,-176.81 1087.34,-153.89"/>
<polygon fill="midnightblue" stroke="midnightblue" points="1069.83,-246.9 1071.81,-257.31 1076.75,-247.94 1069.83,-246.9"/>
</g>
<!-- Node30 -->
<g id="node30" class="node">
<title>Node30</title>
<g id="a_node30"><a xlink:href="_request_parser_8cpp.html" target="_top" xlink:title=" ">
<polygon fill="none" stroke="black" points="1340,-196 1340,-215 1463,-215 1463,-196 1340,-196"/>
<text text-anchor="middle" x="1401.5" y="-203" font-family="Helvetica,sans-Serif" font-size="10.00">src/RequestParser.cpp</text>
</a>
</g>
</g>
<!-- Node26&#45;&gt;Node30 -->
<g id="edge33" class="edge">
<title>Node26&#45;&gt;Node30</title>
<path fill="none" stroke="midnightblue" d="M1129.89,-255.76C1181.6,-246.79 1258.55,-233.29 1325.5,-221 1335.81,-219.11 1346.89,-217.02 1357.31,-215.04"/>
<polygon fill="midnightblue" stroke="midnightblue" points="1129.15,-252.33 1119.9,-257.49 1130.35,-259.23 1129.15,-252.33"/>
</g>
<!-- Node31 -->
<g id="node31" class="node">
<title>Node31</title>
<g id="a_node31"><a xlink:href="test__parse_body_8cpp.html" target="_top" xlink:title=" ">
<polygon fill="none" stroke="black" points="604,-196 604,-215 737,-215 737,-196 604,-196"/>
<text text-anchor="middle" x="670.5" y="-203" font-family="Helvetica,sans-Serif" font-size="10.00">test/test_parseBody.cpp</text>
</a>
</g>
</g>
<!-- Node26&#45;&gt;Node31 -->
<g id="edge34" class="edge">
<title>Node26&#45;&gt;Node31</title>
<path fill="none" stroke="midnightblue" d="M998.06,-257.1C932.09,-248.72 832.05,-235.35 745.5,-221 734.77,-219.22 723.22,-217.09 712.48,-215.03"/>
<polygon fill="midnightblue" stroke="midnightblue" points="997.99,-260.61 1008.35,-258.4 998.87,-253.67 997.99,-260.61"/>
</g>
<!-- Node32 -->
<g id="node32" class="node">
<title>Node32</title>
<g id="a_node32"><a xlink:href="test__parse_header___headers_8cpp.html" target="_top" xlink:title=" ">
<polygon fill="none" stroke="black" points="755,-190.5 755,-220.5 880,-220.5 880,-190.5 755,-190.5"/>
<text text-anchor="start" x="763" y="-208.5" font-family="Helvetica,sans-Serif" font-size="10.00">test/test_parseHeader</text>
<text text-anchor="middle" x="817.5" y="-197.5" font-family="Helvetica,sans-Serif" font-size="10.00">_Headers.cpp</text>
</a>
</g>
</g>
<!-- Node26&#45;&gt;Node32 -->
<g id="edge35" class="edge">
<title>Node26&#45;&gt;Node32</title>
<path fill="none" stroke="midnightblue" d="M1024.45,-255.17C983.11,-245.45 922.18,-231.12 877.13,-220.52"/>
<polygon fill="midnightblue" stroke="midnightblue" points="1023.72,-258.59 1034.25,-257.48 1025.32,-251.78 1023.72,-258.59"/>
</g>
<!-- Node33 -->
<g id="node33" class="node">
<title>Node33</title>
<g id="a_node33"><a xlink:href="test__parse_header___request_line_8cpp.html" target="_top" xlink:title=" ">
<polygon fill="none" stroke="black" points="898,-190.5 898,-220.5 1023,-220.5 1023,-190.5 898,-190.5"/>
<text text-anchor="start" x="906" y="-208.5" font-family="Helvetica,sans-Serif" font-size="10.00">test/test_parseHeader</text>
<text text-anchor="middle" x="960.5" y="-197.5" font-family="Helvetica,sans-Serif" font-size="10.00">_RequestLine.cpp</text>
</a>
</g>
</g>
<!-- Node26&#45;&gt;Node33 -->
<g id="edge36" class="edge">
<title>Node26&#45;&gt;Node33</title>
<path fill="none" stroke="midnightblue" d="M1045.62,-252.54C1027.96,-242.99 1004.31,-230.2 986.42,-220.52"/>
<polygon fill="midnightblue" stroke="midnightblue" points="1044.28,-255.8 1054.74,-257.48 1047.61,-249.64 1044.28,-255.8"/>
</g>
<!-- Node27&#45;&gt;Node4 -->
<g id="edge30" class="edge">
<title>Node27&#45;&gt;Node4</title>
<path fill="none" stroke="midnightblue" d="M1240.69,-193.09C1286,-180.23 1358.62,-159.62 1399.33,-148.06"/>
<polygon fill="midnightblue" stroke="midnightblue" points="1239.57,-189.77 1230.91,-195.87 1241.49,-196.5 1239.57,-189.77"/>
</g>
<!-- Node28 -->
<g id="node28" class="node">
<title>Node28</title>
<g id="a_node28"><a xlink:href="_target_resource_handler_8cpp.html" target="_top" xlink:title=" ">
<polygon fill="none" stroke="black" points="1176,-129 1176,-148 1343,-148 1343,-129 1176,-129"/>
<text text-anchor="middle" x="1259.5" y="-136" font-family="Helvetica,sans-Serif" font-size="10.00">src/TargetResourceHandler.cpp</text>
</a>
</g>
</g>
<!-- Node27&#45;&gt;Node28 -->
<g id="edge31" class="edge">
<title>Node27&#45;&gt;Node28</title>
<path fill="none" stroke="midnightblue" d="M1215.35,-188.13C1226.89,-175.42 1242.44,-158.3 1251.67,-148.13"/>
<polygon fill="midnightblue" stroke="midnightblue" points="1212.59,-185.98 1208.46,-195.73 1217.77,-190.68 1212.59,-185.98"/>
</g>
<!-- Node27&#45;&gt;Node29 -->
<g id="edge32" class="edge">
<title>Node27&#45;&gt;Node29</title>
<path fill="none" stroke="midnightblue" d="M1176.77,-190.6C1158.13,-179.69 1132.28,-164.55 1113.56,-153.59"/>
<polygon fill="midnightblue" stroke="midnightblue" points="1175.13,-193.7 1185.53,-195.73 1178.67,-187.66 1175.13,-193.7"/>
</g>
<!-- Node34&#45;&gt;Node5 -->
<g id="edge39" class="edge">
<title>Node34&#45;&gt;Node5</title>
<path fill="none" stroke="midnightblue" d="M230.96,-132.4C398.69,-120.42 813.63,-90.78 949.02,-81.11"/>
<polygon fill="midnightblue" stroke="midnightblue" points="230.48,-128.92 220.75,-133.12 230.98,-135.9 230.48,-128.92"/>
</g>
<!-- Node34&#45;&gt;Node17 -->
<g id="edge41" class="edge">
<title>Node34&#45;&gt;Node17</title>
<path fill="none" stroke="midnightblue" d="M131.1,-124.19C116.22,-115.69 99.14,-103.21 89.5,-87 77.77,-67.27 78.33,-39 79.52,-25.01"/>
<polygon fill="midnightblue" stroke="midnightblue" points="129.53,-127.32 139.99,-128.96 132.84,-121.15 129.53,-127.32"/>
</g>
<!-- Node35 -->
<g id="node35" class="node">
<title>Node35</title>
<g id="a_node35"><a xlink:href="signal_handler_8cpp.html" target="_top" xlink:title=" ">
<polygon fill="none" stroke="black" points="99,-67.5 99,-86.5 220,-86.5 220,-67.5 99,-67.5"/>
<text text-anchor="middle" x="159.5" y="-74.5" font-family="Helvetica,sans-Serif" font-size="10.00">src/signalHandler.cpp</text>
</a>
</g>
</g>
<!-- Node34&#45;&gt;Node35 -->
<g id="edge40" class="edge">
<title>Node34&#45;&gt;Node35</title>
<path fill="none" stroke="midnightblue" d="M159.5,-118.82C159.5,-108 159.5,-94.9 159.5,-86.51"/>
<polygon fill="midnightblue" stroke="midnightblue" points="156,-118.98 159.5,-128.98 163,-118.98 156,-118.98"/>
</g>
</g>
</svg>
