<?xml version="1.0" encoding="UTF-8" standalone="no"?>
<!DOCTYPE svg PUBLIC "-//W3C//DTD SVG 1.1//EN"
 "http://www.w3.org/Graphics/SVG/1.1/DTD/svg11.dtd">
<!-- Generated by graphviz version 2.43.0 (0)
 -->
<!-- Title: inc/utilities.hpp Pages: 1 -->
<!--zoomable 319 -->
<svg id="main" version="1.1" xmlns="http://www.w3.org/2000/svg" xmlns:xlink="http://www.w3.org/1999/xlink" xml:space="preserve" onload="init(evt)">
<style type="text/css"><![CDATA[
.edge:hover path { stroke: red; }
.edge:hover polygon { stroke: red; fill: red; }
]]></style>
<script type="text/javascript"><![CDATA[
var edges = document.getElementsByTagName('g');
if (edges && edges.length) {
  for (var i=0;i<edges.length;i++) {
    if (edges[i].id.substr(0,4)=='edge') {
      edges[i].setAttribute('class','edge');
    }
  }
}
]]></script>
        <defs>
                <circle id="rim" cx="0" cy="0" r="7"/>
                <circle id="rim2" cx="0" cy="0" r="3.5"/>
                <g id="zoomPlus">
                        <use xlink:href="#rim" fill="#404040">
                                <set attributeName="fill" to="#808080" begin="zoomplus.mouseover" end="zoomplus.mouseout"/>
                        </use>
                        <path d="M-4,0h8M0,-4v8" fill="none" stroke="white" stroke-width="1.5" pointer-events="none"/>
                </g>
                <g id="zoomMin">
                        <use xlink:href="#rim" fill="#404040">
                                <set attributeName="fill" to="#808080" begin="zoomminus.mouseover" end="zoomminus.mouseout"/>
                        </use>
                        <path d="M-4,0h8" fill="none" stroke="white" stroke-width="1.5" pointer-events="none"/>
                </g>
                <g id="dirArrow">
                        <path fill="none" stroke="white" stroke-width="1.5" d="M0,-3.0v7 M-2.5,-0.5L0,-3.0L2.5,-0.5"/>
                </g>
               <g id="resetDef">
                       <use xlink:href="#rim2" fill="#404040">
                               <set attributeName="fill" to="#808080" begin="reset.mouseover" end="reset.mouseout"/>
                       </use>
               </g>
        </defs>

<script type="text/javascript">
var viewWidth = 1349;
var viewHeight = 319;
var sectionId = 'dynsection-1';
</script>
<script xlink:href="svgpan.js"/>
<svg id="graph" class="graph">
<g id="viewport">
<title>inc/utilities.hpp</title>
<!-- Node1 -->
<g id="node1" class="node">
<title>Node1</title>
<g id="a_node1"><a xlink:title=" ">
<polygon fill="#bfbfbf" stroke="black" points="902,-291.5 902,-310.5 994,-310.5 994,-291.5 902,-291.5"/>
<text text-anchor="middle" x="948" y="-298.5" font-family="Helvetica,sans-Serif" font-size="10.00">inc/utilities.hpp</text>
</a>
</g>
</g>
<!-- Node2 -->
<g id="node2" class="node">
<title>Node2</title>
<g id="a_node2"><a xlink:href="_autoindex_handler_8hpp.html" target="_top" xlink:title=" ">
<polygon fill="none" stroke="black" points="285,-235.5 285,-254.5 427,-254.5 427,-235.5 285,-235.5"/>
<text text-anchor="middle" x="356" y="-242.5" font-family="Helvetica,sans-Serif" font-size="10.00">inc/AutoindexHandler.hpp</text>
</a>
</g>
</g>
<!-- Node1&#45;&gt;Node2 -->
<g id="edge1" class="edge">
<title>Node1&#45;&gt;Node2</title>
<path fill="none" stroke="midnightblue" d="M891.47,-294.84C783.12,-284.96 546.42,-263.37 427.37,-252.51"/>
<polygon fill="midnightblue" stroke="midnightblue" points="891.27,-298.34 901.55,-295.76 891.91,-291.37 891.27,-298.34"/>
</g>
<!-- Node13 -->
<g id="node13" class="node">
<title>Node13</title>
<g id="a_node13"><a xlink:href="_request_parser_8hpp.html" target="_top" xlink:title=" ">
<polygon fill="none" stroke="black" points="823,-235.5 823,-254.5 947,-254.5 947,-235.5 823,-235.5"/>
<text text-anchor="middle" x="885" y="-242.5" font-family="Helvetica,sans-Serif" font-size="10.00">inc/RequestParser.hpp</text>
</a>
</g>
</g>
<!-- Node1&#45;&gt;Node13 -->
<g id="edge12" class="edge">
<title>Node1&#45;&gt;Node13</title>
<path fill="none" stroke="midnightblue" d="M929.96,-284.54C918.73,-274.91 904.68,-262.87 895.31,-254.83"/>
<polygon fill="midnightblue" stroke="midnightblue" points="928.01,-287.47 937.88,-291.32 932.56,-282.16 928.01,-287.47"/>
</g>
<!-- Node21 -->
<g id="node21" class="node">
<title>Node21</title>
<g id="a_node21"><a xlink:href="utilities_8cpp.html" target="_top" xlink:title=" ">
<polygon fill="none" stroke="black" points="965.5,-235.5 965.5,-254.5 1056.5,-254.5 1056.5,-235.5 965.5,-235.5"/>
<text text-anchor="middle" x="1011" y="-242.5" font-family="Helvetica,sans-Serif" font-size="10.00">src/utilities.cpp</text>
</a>
</g>
</g>
<!-- Node1&#45;&gt;Node21 -->
<g id="edge24" class="edge">
<title>Node1&#45;&gt;Node21</title>
<path fill="none" stroke="midnightblue" d="M966.04,-284.54C977.27,-274.91 991.32,-262.87 1000.69,-254.83"/>
<polygon fill="midnightblue" stroke="midnightblue" points="963.44,-282.16 958.12,-291.32 967.99,-287.47 963.44,-282.16"/>
</g>
<!-- Node22 -->
<g id="node22" class="node">
<title>Node22</title>
<g id="a_node22"><a xlink:href="test__utils_8cpp.html" target="_top" xlink:title=" ">
<polygon fill="none" stroke="black" points="1075,-235.5 1075,-254.5 1179,-254.5 1179,-235.5 1075,-235.5"/>
<text text-anchor="middle" x="1127" y="-242.5" font-family="Helvetica,sans-Serif" font-size="10.00">test/test_utils.cpp</text>
</a>
</g>
</g>
<!-- Node1&#45;&gt;Node22 -->
<g id="edge25" class="edge">
<title>Node1&#45;&gt;Node22</title>
<path fill="none" stroke="midnightblue" d="M986.33,-288.44C1020.08,-278.26 1068.45,-263.66 1098.77,-254.52"/>
<polygon fill="midnightblue" stroke="midnightblue" points="984.93,-285.2 976.36,-291.44 986.95,-291.91 984.93,-285.2"/>
</g>
<!-- Node3 -->
<g id="node3" class="node">
<title>Node3</title>
<g id="a_node3"><a xlink:href="_response_body_handler_8hpp.html" target="_top" xlink:title=" ">
<polygon fill="none" stroke="black" points="188,-179.5 188,-198.5 352,-198.5 352,-179.5 188,-179.5"/>
<text text-anchor="middle" x="270" y="-186.5" font-family="Helvetica,sans-Serif" font-size="10.00">inc/ResponseBodyHandler.hpp</text>
</a>
</g>
</g>
<!-- Node2&#45;&gt;Node3 -->
<g id="edge2" class="edge">
<title>Node2&#45;&gt;Node3</title>
<path fill="none" stroke="midnightblue" d="M333.55,-229.9C317.78,-220 297.19,-207.07 283.78,-198.65"/>
<polygon fill="midnightblue" stroke="midnightblue" points="331.85,-232.97 342.18,-235.32 335.57,-227.04 331.85,-232.97"/>
</g>
<!-- Node11 -->
<g id="node11" class="node">
<title>Node11</title>
<g id="a_node11"><a xlink:href="_autoindex_handler_8cpp.html" target="_top" xlink:title=" ">
<polygon fill="none" stroke="black" points="370.5,-179.5 370.5,-198.5 511.5,-198.5 511.5,-179.5 370.5,-179.5"/>
<text text-anchor="middle" x="441" y="-186.5" font-family="Helvetica,sans-Serif" font-size="10.00">src/AutoindexHandler.cpp</text>
</a>
</g>
</g>
<!-- Node2&#45;&gt;Node11 -->
<g id="edge10" class="edge">
<title>Node2&#45;&gt;Node11</title>
<path fill="none" stroke="midnightblue" d="M378.19,-229.9C393.78,-220 414.13,-207.07 427.38,-198.65"/>
<polygon fill="midnightblue" stroke="midnightblue" points="376.22,-227.01 369.66,-235.32 379.97,-232.92 376.22,-227.01"/>
</g>
<!-- Node12 -->
<g id="node12" class="node">
<title>Node12</title>
<g id="a_node12"><a xlink:href="test___autoindex_handler_8cpp.html" target="_top" xlink:title=" ">
<polygon fill="none" stroke="black" points="0,-179.5 0,-198.5 170,-198.5 170,-179.5 0,-179.5"/>
<text text-anchor="middle" x="85" y="-186.5" font-family="Helvetica,sans-Serif" font-size="10.00">test/test_AutoindexHandler.cpp</text>
</a>
</g>
</g>
<!-- Node2&#45;&gt;Node12 -->
<g id="edge11" class="edge">
<title>Node2&#45;&gt;Node12</title>
<path fill="none" stroke="midnightblue" d="M303.17,-233.47C251.96,-223.27 175.23,-207.98 127.74,-198.52"/>
<polygon fill="midnightblue" stroke="midnightblue" points="302.57,-236.92 313.06,-235.44 303.94,-230.06 302.57,-236.92"/>
</g>
<!-- Node4 -->
<g id="node4" class="node">
<title>Node4</title>
<g id="a_node4"><a xlink:href="_response_builder_8hpp.html" target="_top" xlink:title=" ">
<polygon fill="none" stroke="black" points="711,-118 711,-137 847,-137 847,-118 711,-118"/>
<text text-anchor="middle" x="779" y="-125" font-family="Helvetica,sans-Serif" font-size="10.00">inc/ResponseBuilder.hpp</text>
</a>
</g>
</g>
<!-- Node3&#45;&gt;Node4 -->
<g id="edge3" class="edge">
<title>Node3&#45;&gt;Node4</title>
<path fill="none" stroke="midnightblue" d="M352.96,-178.3C452.65,-166.65 618.02,-147.32 710.69,-136.49"/>
<polygon fill="midnightblue" stroke="midnightblue" points="352.45,-174.84 342.93,-179.48 353.27,-181.79 352.45,-174.84"/>
</g>
<!-- Node9 -->
<g id="node9" class="node">
<title>Node9</title>
<g id="a_node9"><a xlink:href="_response_body_handler_8cpp.html" target="_top" xlink:title=" ">
<polygon fill="none" stroke="black" points="90,-118 90,-137 254,-137 254,-118 90,-118"/>
<text text-anchor="middle" x="172" y="-125" font-family="Helvetica,sans-Serif" font-size="10.00">src/ResponseBodyHandler.cpp</text>
</a>
</g>
</g>
<!-- Node3&#45;&gt;Node9 -->
<g id="edge8" class="edge">
<title>Node3&#45;&gt;Node9</title>
<path fill="none" stroke="midnightblue" d="M247.34,-174.24C228.41,-162.75 202.01,-146.72 186.01,-137.01"/>
<polygon fill="midnightblue" stroke="midnightblue" points="245.59,-177.28 255.96,-179.48 249.23,-171.29 245.59,-177.28"/>
</g>
<!-- Node10 -->
<g id="node10" class="node">
<title>Node10</title>
<g id="a_node10"><a xlink:href="test___response_body_handler_8cpp.html" target="_top" xlink:title=" ">
<polygon fill="none" stroke="black" points="272,-118 272,-137 464,-137 464,-118 272,-118"/>
<text text-anchor="middle" x="368" y="-125" font-family="Helvetica,sans-Serif" font-size="10.00">test/test_ResponseBodyHandler.cpp</text>
</a>
</g>
</g>
<!-- Node3&#45;&gt;Node10 -->
<g id="edge9" class="edge">
<title>Node3&#45;&gt;Node10</title>
<path fill="none" stroke="midnightblue" d="M292.66,-174.24C311.59,-162.75 337.99,-146.72 353.99,-137.01"/>
<polygon fill="midnightblue" stroke="midnightblue" points="290.77,-171.29 284.04,-179.48 294.41,-177.28 290.77,-171.29"/>
</g>
<!-- Node5 -->
<g id="node5" class="node">
<title>Node5</title>
<g id="a_node5"><a xlink:href="_server_8hpp.html" target="_top" xlink:title=" ">
<polygon fill="none" stroke="black" points="1019,-56.5 1019,-75.5 1105,-75.5 1105,-56.5 1019,-56.5"/>
<text text-anchor="middle" x="1062" y="-63.5" font-family="Helvetica,sans-Serif" font-size="10.00">inc/Server.hpp</text>
</a>
</g>
</g>
<!-- Node4&#45;&gt;Node5 -->
<g id="edge4" class="edge">
<title>Node4&#45;&gt;Node5</title>
<path fill="none" stroke="midnightblue" d="M829.41,-115.9C884.27,-104.37 970.92,-86.15 1021.53,-75.51"/>
<polygon fill="midnightblue" stroke="midnightblue" points="828.61,-112.49 819.55,-117.98 830.05,-119.34 828.61,-112.49"/>
</g>
<!-- Node8 -->
<g id="node8" class="node">
<title>Node8</title>
<g id="a_node8"><a xlink:href="_response_builder_8cpp.html" target="_top" xlink:title=" ">
<polygon fill="none" stroke="black" points="711.5,-56.5 711.5,-75.5 846.5,-75.5 846.5,-56.5 711.5,-56.5"/>
<text text-anchor="middle" x="779" y="-63.5" font-family="Helvetica,sans-Serif" font-size="10.00">src/ResponseBuilder.cpp</text>
</a>
</g>
</g>
<!-- Node4&#45;&gt;Node8 -->
<g id="edge7" class="edge">
<title>Node4&#45;&gt;Node8</title>
<path fill="none" stroke="midnightblue" d="M779,-107.82C779,-97 779,-83.9 779,-75.51"/>
<polygon fill="midnightblue" stroke="midnightblue" points="775.5,-107.98 779,-117.98 782.5,-107.98 775.5,-107.98"/>
</g>
<!-- Node6 -->
<g id="node6" class="node">
<title>Node6</title>
<g id="a_node6"><a xlink:href="main_8cpp.html" target="_top" xlink:title=" ">
<polygon fill="none" stroke="black" points="972.5,-0.5 972.5,-19.5 1051.5,-19.5 1051.5,-0.5 972.5,-0.5"/>
<text text-anchor="middle" x="1012" y="-7.5" font-family="Helvetica,sans-Serif" font-size="10.00">src/main.cpp</text>
</a>
</g>
</g>
<!-- Node5&#45;&gt;Node6 -->
<g id="edge5" class="edge">
<title>Node5&#45;&gt;Node6</title>
<path fill="none" stroke="midnightblue" d="M1046.92,-48.72C1038.11,-39.2 1027.33,-27.56 1020.1,-19.75"/>
<polygon fill="midnightblue" stroke="midnightblue" points="1044.38,-51.12 1053.74,-56.08 1049.52,-46.37 1044.38,-51.12"/>
</g>
<!-- Node7 -->
<g id="node7" class="node">
<title>Node7</title>
<g id="a_node7"><a xlink:href="_server_8cpp.html" target="_top" xlink:title=" ">
<polygon fill="none" stroke="black" points="1069.5,-0.5 1069.5,-19.5 1154.5,-19.5 1154.5,-0.5 1069.5,-0.5"/>
<text text-anchor="middle" x="1112" y="-7.5" font-family="Helvetica,sans-Serif" font-size="10.00">src/Server.cpp</text>
</a>
</g>
</g>
<!-- Node5&#45;&gt;Node7 -->
<g id="edge6" class="edge">
<title>Node5&#45;&gt;Node7</title>
<path fill="none" stroke="midnightblue" d="M1077.08,-48.72C1085.89,-39.2 1096.67,-27.56 1103.9,-19.75"/>
<polygon fill="midnightblue" stroke="midnightblue" points="1074.48,-46.37 1070.26,-56.08 1079.62,-51.12 1074.48,-46.37"/>
</g>
<!-- Node13&#45;&gt;Node4 -->
<g id="edge13" class="edge">
<title>Node13&#45;&gt;Node4</title>
<path fill="none" stroke="midnightblue" d="M812.45,-244.6C726.6,-243.58 591.19,-235.94 559,-199 513.28,-146.54 630.58,-132.8 710.94,-129.4"/>
<polygon fill="midnightblue" stroke="midnightblue" points="812.64,-248.1 822.67,-244.69 812.7,-241.1 812.64,-248.1"/>
</g>
<!-- Node13&#45;&gt;Node5 -->
<g id="edge14" class="edge">
<title>Node13&#45;&gt;Node5</title>
<path fill="none" stroke="midnightblue" d="M957.44,-235.03C1049.06,-227.49 1246.04,-244.53 1306,-199 1337.76,-174.88 1353.74,-142.46 1328,-112 1299.96,-78.82 1172.89,-70.1 1105.03,-67.81"/>
<polygon fill="midnightblue" stroke="midnightblue" points="956.94,-231.56 947.33,-236.01 957.62,-238.53 956.94,-231.56"/>
</g>
<!-- Node14 -->
<g id="node14" class="node">
<title>Node14</title>
<g id="a_node14"><a xlink:href="_target_resource_handler_8hpp.html" target="_top" xlink:title=" ">
<polygon fill="none" stroke="black" points="1114.5,-179.5 1114.5,-198.5 1281.5,-198.5 1281.5,-179.5 1114.5,-179.5"/>
<text text-anchor="middle" x="1198" y="-186.5" font-family="Helvetica,sans-Serif" font-size="10.00">inc/TargetResourceHandler.hpp</text>
</a>
</g>
</g>
<!-- Node13&#45;&gt;Node14 -->
<g id="edge15" class="edge">
<title>Node13&#45;&gt;Node14</title>
<path fill="none" stroke="midnightblue" d="M944.54,-233.73C1003.69,-223.52 1093.33,-208.06 1148.64,-198.52"/>
<polygon fill="midnightblue" stroke="midnightblue" points="943.86,-230.29 934.6,-235.44 945.05,-237.19 943.86,-230.29"/>
</g>
<!-- Node16 -->
<g id="node16" class="node">
<title>Node16</title>
<g id="a_node16"><a xlink:href="test___target_resource_handler_8cpp.html" target="_top" xlink:title=" ">
<polygon fill="none" stroke="black" points="1181.5,-112.5 1181.5,-142.5 1318.5,-142.5 1318.5,-112.5 1181.5,-112.5"/>
<text text-anchor="start" x="1189.5" y="-130.5" font-family="Helvetica,sans-Serif" font-size="10.00">test/test_TargetResource</text>
<text text-anchor="middle" x="1250" y="-119.5" font-family="Helvetica,sans-Serif" font-size="10.00">Handler.cpp</text>
</a>
</g>
</g>
<!-- Node13&#45;&gt;Node16 -->
<g id="edge20" class="edge">
<title>Node13&#45;&gt;Node16</title>
<path fill="none" stroke="midnightblue" d="M957.33,-235.08C1045.91,-228.34 1242.02,-252.43 1290,-199 1305.42,-181.83 1284.67,-157.72 1267.76,-142.62"/>
<polygon fill="midnightblue" stroke="midnightblue" points="956.95,-231.6 947.33,-236.03 957.62,-238.57 956.95,-231.6"/>
</g>
<!-- Node17 -->
<g id="node17" class="node">
<title>Node17</title>
<g id="a_node17"><a xlink:href="_request_parser_8cpp.html" target="_top" xlink:title=" ">
<polygon fill="none" stroke="black" points="568.5,-179.5 568.5,-198.5 691.5,-198.5 691.5,-179.5 568.5,-179.5"/>
<text text-anchor="middle" x="630" y="-186.5" font-family="Helvetica,sans-Serif" font-size="10.00">src/RequestParser.cpp</text>
</a>
</g>
</g>
<!-- Node13&#45;&gt;Node17 -->
<g id="edge19" class="edge">
<title>Node13&#45;&gt;Node17</title>
<path fill="none" stroke="midnightblue" d="M834.69,-233.35C786.5,-223.14 714.72,-207.94 670.22,-198.52"/>
<polygon fill="midnightblue" stroke="midnightblue" points="834.09,-236.8 844.59,-235.44 835.54,-229.95 834.09,-236.8"/>
</g>
<!-- Node18 -->
<g id="node18" class="node">
<title>Node18</title>
<g id="a_node18"><a xlink:href="test_body_8cpp.html" target="_top" xlink:title=" ">
<polygon fill="none" stroke="black" points="709.5,-179.5 709.5,-198.5 810.5,-198.5 810.5,-179.5 709.5,-179.5"/>
<text text-anchor="middle" x="760" y="-186.5" font-family="Helvetica,sans-Serif" font-size="10.00">test/testBody.cpp</text>
</a>
</g>
</g>
<!-- Node13&#45;&gt;Node18 -->
<g id="edge21" class="edge">
<title>Node13&#45;&gt;Node18</title>
<path fill="none" stroke="midnightblue" d="M855.76,-231.37C832.35,-221.26 800.16,-207.35 779.71,-198.52"/>
<polygon fill="midnightblue" stroke="midnightblue" points="854.63,-234.69 865.19,-235.44 857.4,-228.26 854.63,-234.69"/>
</g>
<!-- Node19 -->
<g id="node19" class="node">
<title>Node19</title>
<g id="a_node19"><a xlink:href="test_header_8cpp.html" target="_top" xlink:title=" ">
<polygon fill="none" stroke="black" points="829,-179.5 829,-198.5 941,-198.5 941,-179.5 829,-179.5"/>
<text text-anchor="middle" x="885" y="-186.5" font-family="Helvetica,sans-Serif" font-size="10.00">test/testHeader.cpp</text>
</a>
</g>
</g>
<!-- Node13&#45;&gt;Node19 -->
<g id="edge22" class="edge">
<title>Node13&#45;&gt;Node19</title>
<path fill="none" stroke="midnightblue" d="M885,-224.8C885,-215.91 885,-205.78 885,-198.75"/>
<polygon fill="midnightblue" stroke="midnightblue" points="881.5,-225.08 885,-235.08 888.5,-225.08 881.5,-225.08"/>
</g>
<!-- Node20 -->
<g id="node20" class="node">
<title>Node20</title>
<g id="a_node20"><a xlink:href="test_request_line_8cpp.html" target="_top" xlink:title=" ">
<polygon fill="none" stroke="black" points="959.5,-179.5 959.5,-198.5 1096.5,-198.5 1096.5,-179.5 959.5,-179.5"/>
<text text-anchor="middle" x="1028" y="-186.5" font-family="Helvetica,sans-Serif" font-size="10.00">test/testRequestLine.cpp</text>
</a>
</g>
</g>
<!-- Node13&#45;&gt;Node20 -->
<g id="edge23" class="edge">
<title>Node13&#45;&gt;Node20</title>
<path fill="none" stroke="midnightblue" d="M917.03,-231.91C943.91,-221.75 981.64,-207.51 1005.45,-198.52"/>
<polygon fill="midnightblue" stroke="midnightblue" points="915.78,-228.64 907.66,-235.44 918.25,-235.19 915.78,-228.64"/>
</g>
<!-- Node14&#45;&gt;Node4 -->
<g id="edge16" class="edge">
<title>Node14&#45;&gt;Node4</title>
<path fill="none" stroke="midnightblue" d="M1127.87,-178.04C1046.95,-166.55 915.25,-147.85 838.92,-137.01"/>
<polygon fill="midnightblue" stroke="midnightblue" points="1127.57,-181.53 1137.97,-179.48 1128.56,-174.6 1127.57,-181.53"/>
</g>
<!-- Node15 -->
<g id="node15" class="node">
<title>Node15</title>
<g id="a_node15"><a xlink:href="_target_resource_handler_8cpp.html" target="_top" xlink:title=" ">
<polygon fill="none" stroke="black" points="996.5,-118 996.5,-137 1163.5,-137 1163.5,-118 996.5,-118"/>
<text text-anchor="middle" x="1080" y="-125" font-family="Helvetica,sans-Serif" font-size="10.00">src/TargetResourceHandler.cpp</text>
</a>
</g>
</g>
<!-- Node14&#45;&gt;Node15 -->
<g id="edge17" class="edge">
<title>Node14&#45;&gt;Node15</title>
<path fill="none" stroke="midnightblue" d="M1171.95,-174.87C1149.08,-163.33 1116.49,-146.9 1096.88,-137.01"/>
<polygon fill="midnightblue" stroke="midnightblue" points="1170.59,-178.1 1181.09,-179.48 1173.74,-171.85 1170.59,-178.1"/>
</g>
<!-- Node14&#45;&gt;Node16 -->
<g id="edge18" class="edge">
<title>Node14&#45;&gt;Node16</title>
<path fill="none" stroke="midnightblue" d="M1212.15,-171.81C1220.16,-162.65 1230.07,-151.3 1237.74,-142.52"/>
<polygon fill="midnightblue" stroke="midnightblue" points="1209.4,-169.64 1205.45,-179.48 1214.67,-174.25 1209.4,-169.64"/>
</g>
</g>
</svg>
        <g id="navigator" transform="translate(0 0)" fill="#404254">
                <rect fill="#f2f5e9" fill-opacity="0.5" stroke="#606060" stroke-width=".5" x="0" y="0" width="60" height="60"/>
                <use id="zoomplus" xlink:href="#zoomPlus" x="17" y="9" onmousedown="handleZoom(evt,'in')"/>
                <use id="zoomminus" xlink:href="#zoomMin" x="42" y="9" onmousedown="handleZoom(evt,'out')"/>
                <use id="reset" xlink:href="#resetDef" x="30" y="36" onmousedown="handleReset()"/>
                <g id="arrowUp" xlink:href="#dirArrow" transform="translate(30 24)" onmousedown="handlePan(0,-1)">
                  <use xlink:href="#rim" fill="#404040">
                        <set attributeName="fill" to="#808080" begin="arrowUp.mouseover" end="arrowUp.mouseout"/>
                  </use>
                  <path fill="none" stroke="white" stroke-width="1.5" d="M0,-3.0v7 M-2.5,-0.5L0,-3.0L2.5,-0.5"/>
                </g>
                <g id="arrowRight" xlink:href="#dirArrow" transform="rotate(90) translate(36 -43)" onmousedown="handlePan(1,0)">
                  <use xlink:href="#rim" fill="#404040">
                        <set attributeName="fill" to="#808080" begin="arrowRight.mouseover" end="arrowRight.mouseout"/>
                  </use>
                  <path fill="none" stroke="white" stroke-width="1.5" d="M0,-3.0v7 M-2.5,-0.5L0,-3.0L2.5,-0.5"/>
                </g>
                <g id="arrowDown" xlink:href="#dirArrow" transform="rotate(180) translate(-30 -48)" onmousedown="handlePan(0,1)">
                  <use xlink:href="#rim" fill="#404040">
                        <set attributeName="fill" to="#808080" begin="arrowDown.mouseover" end="arrowDown.mouseout"/>
                  </use>
                  <path fill="none" stroke="white" stroke-width="1.5" d="M0,-3.0v7 M-2.5,-0.5L0,-3.0L2.5,-0.5"/>
                </g>
                <g id="arrowLeft" xlink:href="#dirArrow" transform="rotate(270) translate(-36 17)" onmousedown="handlePan(-1,0)">
                  <use xlink:href="#rim" fill="#404040">
                        <set attributeName="fill" to="#808080" begin="arrowLeft.mouseover" end="arrowLeft.mouseout"/>
                  </use>
                  <path fill="none" stroke="white" stroke-width="1.5" d="M0,-3.0v7 M-2.5,-0.5L0,-3.0L2.5,-0.5"/>
                </g>
        </g>
        <svg viewBox="0 0 15 15" width="100%" height="30px" preserveAspectRatio="xMaxYMin meet">
         <g id="arrow_out" transform="scale(0.3 0.3)">
          <a xlink:href="utilities_8hpp__dep__incl_org.svg" target="_base">
           <rect id="button" ry="5" rx="5" y="6" x="6" height="38" width="38"
                fill="#f2f5e9" fill-opacity="0.5" stroke="#606060" stroke-width="1.0"/>
           <path id="arrow"
             d="M 11.500037,31.436501 C 11.940474,20.09759 22.043105,11.32322 32.158766,21.979434 L 37.068811,17.246167 C 37.068811,17.246167 37.088388,32 37.088388,32 L 22.160133,31.978069 C 22.160133,31.978069 26.997745,27.140456 26.997745,27.140456 C 18.528582,18.264221 13.291696,25.230495 11.500037,31.436501 z"
             style="fill:#404040;"/>
          </a>
         </g>
        </svg>
</svg>
