<?xml version="1.0" encoding="UTF-8" standalone="no"?>
<!DOCTYPE svg PUBLIC "-//W3C//DTD SVG 1.1//EN"
 "http://www.w3.org/Graphics/SVG/1.1/DTD/svg11.dtd">
<!-- Generated by graphviz version 2.43.0 (0)
 -->
<!-- Title: inc/utilities.hpp Pages: 1 -->
<svg width="464pt" height="84pt"
 viewBox="0.00 0.00 463.50 84.00" xmlns="http://www.w3.org/2000/svg" xmlns:xlink="http://www.w3.org/1999/xlink">
<g id="graph0" class="graph" transform="scale(1 1) rotate(0) translate(4 80)">
<title>inc/utilities.hpp</title>
<!-- Node1 -->
<g id="node1" class="node">
<title>Node1</title>
<g id="a_node1"><a xlink:title=" ">
<polygon fill="#bfbfbf" stroke="black" points="177,-56.5 177,-75.5 269,-75.5 269,-56.5 177,-56.5"/>
<text text-anchor="middle" x="223" y="-63.5" font-family="Helvetica,sans-Serif" font-size="10.00">inc/utilities.hpp</text>
</a>
</g>
</g>
<!-- Node2 -->
<g id="node2" class="node">
<title>Node2</title>
<g id="a_node2"><a xlink:title=" ">
<polygon fill="none" stroke="#bfbfbf" points="0,-0.5 0,-19.5 64,-19.5 64,-0.5 0,-0.5"/>
<text text-anchor="middle" x="32" y="-7.5" font-family="Helvetica,sans-Serif" font-size="10.00">algorithm</text>
</a>
</g>
</g>
<!-- Node1&#45;&gt;Node2 -->
<g id="edge1" class="edge">
<title>Node1&#45;&gt;Node2</title>
<path fill="none" stroke="midnightblue" d="M192.74,-56.44C160.04,-47.2 107.82,-32.44 71.82,-22.26"/>
<polygon fill="midnightblue" stroke="midnightblue" points="72.7,-18.87 62.12,-19.52 70.79,-25.61 72.7,-18.87"/>
</g>
<!-- Node3 -->
<g id="node3" class="node">
<title>Node3</title>
<g id="a_node3"><a xlink:title=" ">
<polygon fill="none" stroke="#bfbfbf" points="82,-0.5 82,-19.5 142,-19.5 142,-0.5 82,-0.5"/>
<text text-anchor="middle" x="112" y="-7.5" font-family="Helvetica,sans-Serif" font-size="10.00">iostream</text>
</a>
</g>
</g>
<!-- Node1&#45;&gt;Node3 -->
<g id="edge2" class="edge">
<title>Node1&#45;&gt;Node3</title>
<path fill="none" stroke="midnightblue" d="M205.17,-56.32C187.28,-47.62 159.52,-34.12 138.95,-24.11"/>
<polygon fill="midnightblue" stroke="midnightblue" points="140.31,-20.88 129.79,-19.65 137.25,-27.18 140.31,-20.88"/>
</g>
<!-- Node4 -->
<g id="node4" class="node">
<title>Node4</title>
<g id="a_node4"><a xlink:title=" ">
<polygon fill="none" stroke="#bfbfbf" points="160,-0.5 160,-19.5 216,-19.5 216,-0.5 160,-0.5"/>
<text text-anchor="middle" x="188" y="-7.5" font-family="Helvetica,sans-Serif" font-size="10.00">sstream</text>
</a>
</g>
</g>
<!-- Node1&#45;&gt;Node4 -->
<g id="edge3" class="edge">
<title>Node1&#45;&gt;Node4</title>
<path fill="none" stroke="midnightblue" d="M217.22,-56.08C212.33,-48.53 205.17,-37.49 199.17,-28.23"/>
<polygon fill="midnightblue" stroke="midnightblue" points="202.05,-26.24 193.67,-19.75 196.17,-30.05 202.05,-26.24"/>
</g>
<!-- Node5 -->
<g id="node5" class="node">
<title>Node5</title>
<g id="a_node5"><a xlink:title=" ">
<polygon fill="none" stroke="#bfbfbf" points="234.5,-0.5 234.5,-19.5 281.5,-19.5 281.5,-0.5 234.5,-0.5"/>
<text text-anchor="middle" x="258" y="-7.5" font-family="Helvetica,sans-Serif" font-size="10.00">vector</text>
</a>
</g>
</g>
<!-- Node1&#45;&gt;Node5 -->
<g id="edge4" class="edge">
<title>Node1&#45;&gt;Node5</title>
<path fill="none" stroke="midnightblue" d="M228.78,-56.08C233.67,-48.53 240.83,-37.49 246.83,-28.23"/>
<polygon fill="midnightblue" stroke="midnightblue" points="249.83,-30.05 252.33,-19.75 243.95,-26.24 249.83,-30.05"/>
</g>
<!-- Node6 -->
<g id="node6" class="node">
<title>Node6</title>
<g id="a_node6"><a xlink:title=" ">
<polygon fill="none" stroke="#bfbfbf" points="300,-0.5 300,-19.5 344,-19.5 344,-0.5 300,-0.5"/>
<text text-anchor="middle" x="322" y="-7.5" font-family="Helvetica,sans-Serif" font-size="10.00">ctime</text>
</a>
</g>
</g>
<!-- Node1&#45;&gt;Node6 -->
<g id="edge5" class="edge">
<title>Node1&#45;&gt;Node6</title>
<path fill="none" stroke="midnightblue" d="M238.91,-56.32C254.64,-47.74 278.94,-34.49 297.21,-24.52"/>
<polygon fill="midnightblue" stroke="midnightblue" points="299.03,-27.52 306.13,-19.65 295.68,-21.37 299.03,-27.52"/>
</g>
<!-- Node7 -->
<g id="node7" class="node">
<title>Node7</title>
<g id="a_node7"><a xlink:href="_status_code_8hpp.html" target="_top" xlink:title=" ">
<polygon fill="none" stroke="black" points="362.5,-0.5 362.5,-19.5 455.5,-19.5 455.5,-0.5 362.5,-0.5"/>
<text text-anchor="middle" x="409" y="-7.5" font-family="Helvetica,sans-Serif" font-size="10.00">StatusCode.hpp</text>
</a>
</g>
</g>
<!-- Node1&#45;&gt;Node7 -->
<g id="edge6" class="edge">
<title>Node1&#45;&gt;Node7</title>
<path fill="none" stroke="midnightblue" d="M252.47,-56.44C284.17,-47.24 334.73,-32.56 369.77,-22.39"/>
<polygon fill="midnightblue" stroke="midnightblue" points="371.04,-25.67 379.67,-19.52 369.09,-18.94 371.04,-25.67"/>
</g>
</g>
</svg>
